<?xml version="1.0" encoding="UTF-8" standalone="no"?>
<!DOCTYPE svg PUBLIC "-//W3C//DTD SVG 1.1//EN"
 "http://www.w3.org/Graphics/SVG/1.1/DTD/svg11.dtd">
<!-- Generated by graphviz version 2.43.0 (0)
 -->
<!-- Title: cam.nc.iso.Creator.METRIC Pages: 1 -->
<svg width="404pt" height="236pt"
 viewBox="0.00 0.00 404.00 235.50" xmlns="http://www.w3.org/2000/svg" xmlns:xlink="http://www.w3.org/1999/xlink">
<g id="graph0" class="graph" transform="scale(1 1) rotate(0) translate(4 231.5)">
<title>cam.nc.iso.Creator.METRIC</title>
<!-- Node1 -->
<g id="Node000001" class="node">
<title>Node1</title>
<g id="a_Node000001"><a xlink:title=" ">
<polygon fill="#999999" stroke="#666666" points="396,-123 248,-123 248,-104 396,-104 396,-123"/>
<text text-anchor="middle" x="322" y="-111" font-family="Helvetica,sans-Serif" font-size="10.00">cam.nc.iso.Creator.METRIC</text>
</a>
</g>
</g>
<!-- Node2 -->
<g id="Node000002" class="node">
<title>Node2</title>
<g id="a_Node000002"><a xlink:href="$classcam_1_1nc_1_1anilam__crusader__m_1_1Creator.html#a6977ae2a9c3b4e62d32a2368b0c9c546" xlink:title=" ">
<polygon fill="white" stroke="#666666" points="174,-227.5 38,-227.5 38,-197.5 174,-197.5 174,-227.5"/>
<text text-anchor="start" x="46" y="-215.5" font-family="Helvetica,sans-Serif" font-size="10.00">cam.nc.anilam_crusader</text>
<text text-anchor="middle" x="106" y="-204.5" font-family="Helvetica,sans-Serif" font-size="10.00">_m.Creator.metric</text>
</a>
</g>
</g>
<!-- Node1&#45;&gt;Node2 -->
<g id="edge7_Node000001_Node000002" class="edge">
<title>Node1&#45;&gt;Node2</title>
<g id="a_edge7_Node000001_Node000002"><a xlink:title=" ">
<path fill="none" stroke="#63b8ff" d="M302.39,-129.62C281.68,-146.72 246.57,-173.32 212,-188.5 200.1,-193.72 186.92,-197.88 174.04,-201.16"/>
<polygon fill="#63b8ff" stroke="#63b8ff" points="304.68,-132.26 310.08,-123.15 300.18,-126.9 304.68,-132.26"/>
</a>
</g>
</g>
<!-- Node3 -->
<g id="Node000003" class="node">
<title>Node3</title>
<g id="a_Node000003"><a xlink:href="$classcam_1_1nc_1_1emc2_1_1Creator.html#aeb992900b43f520ce6ccabd8e502c037" xlink:title=" ">
<polygon fill="white" stroke="#666666" points="183.5,-179 28.5,-179 28.5,-160 183.5,-160 183.5,-179"/>
<text text-anchor="middle" x="106" y="-167" font-family="Helvetica,sans-Serif" font-size="10.00">cam.nc.emc2.Creator.metric</text>
</a>
</g>
</g>
<!-- Node1&#45;&gt;Node3 -->
<g id="edge8_Node000001_Node000003" class="edge">
<title>Node1&#45;&gt;Node3</title>
<g id="a_edge8_Node000001_Node000003"><a xlink:title=" ">
<path fill="none" stroke="#63b8ff" d="M287.54,-126.78C266.2,-134.85 237.8,-144.84 212,-151.5 199.37,-154.76 185.74,-157.59 172.61,-159.98"/>
<polygon fill="#63b8ff" stroke="#63b8ff" points="289.02,-129.96 297.11,-123.12 286.52,-123.43 289.02,-129.96"/>
</a>
</g>
</g>
<!-- Node4 -->
<g id="Node000004" class="node">
<title>Node4</title>
<g id="a_Node000004"><a xlink:href="$classcam_1_1nc_1_1heiden_1_1Creator.html#a37d07f0dab5720c05c1f6ef762c41823" xlink:title=" ">
<polygon fill="white" stroke="#666666" points="186.5,-142 25.5,-142 25.5,-123 186.5,-123 186.5,-142"/>
<text text-anchor="middle" x="106" y="-130" font-family="Helvetica,sans-Serif" font-size="10.00">cam.nc.heiden.Creator.metric</text>
</a>
</g>
</g>
<!-- Node1&#45;&gt;Node4 -->
<g id="edge9_Node000001_Node000004" class="edge">
<title>Node1&#45;&gt;Node4</title>
<g id="a_edge9_Node000001_Node000004"><a xlink:title=" ">
<path fill="none" stroke="#63b8ff" d="M237.64,-120.9C220.88,-122.39 203.31,-123.95 186.68,-125.43"/>
<polygon fill="#63b8ff" stroke="#63b8ff" points="238.3,-124.36 247.95,-119.99 237.68,-117.38 238.3,-124.36"/>
</a>
</g>
</g>
<!-- Node5 -->
<g id="Node000005" class="node">
<title>Node5</title>
<g id="a_Node000005"><a xlink:href="$classcam_1_1nc_1_1iso_1_1Creator.html#a87e14f7ad8bcc131365d1f1f2fb6f42b" xlink:title=" ">
<polygon fill="white" stroke="#666666" points="177,-105 35,-105 35,-86 177,-86 177,-105"/>
<text text-anchor="middle" x="106" y="-93" font-family="Helvetica,sans-Serif" font-size="10.00">cam.nc.iso.Creator.metric</text>
</a>
</g>
</g>
<!-- Node1&#45;&gt;Node5 -->
<g id="edge10_Node000001_Node000005" class="edge">
<title>Node1&#45;&gt;Node5</title>
<g id="a_edge10_Node000001_Node000005"><a xlink:title=" ">
<path fill="none" stroke="#63b8ff" d="M237.9,-106.51C217.84,-104.82 196.59,-103.04 177.19,-101.4"/>
<polygon fill="#63b8ff" stroke="#63b8ff" points="237.69,-110.01 247.95,-107.36 238.28,-103.03 237.69,-110.01"/>
</a>
</g>
</g>
<!-- Node6 -->
<g id="Node000006" class="node">
<title>Node6</title>
<g id="a_Node000006"><a xlink:href="$classcam_1_1nc_1_1heiden530_1_1Creator.html#a2df4df9ca7c46efe5ad3b0b0d984f2c1" xlink:title="Programs.">
<polygon fill="white" stroke="#666666" points="200,-67.5 12,-67.5 12,-37.5 200,-37.5 200,-67.5"/>
<text text-anchor="start" x="20" y="-55.5" font-family="Helvetica,sans-Serif" font-size="10.00">cam.nc.heiden530.Creator.program</text>
<text text-anchor="middle" x="106" y="-44.5" font-family="Helvetica,sans-Serif" font-size="10.00">_begin</text>
</a>
</g>
</g>
<!-- Node1&#45;&gt;Node6 -->
<g id="edge11_Node000001_Node000006" class="edge">
<title>Node1&#45;&gt;Node6</title>
<g id="a_edge11_Node000001_Node000006"><a xlink:title=" ">
<path fill="none" stroke="#63b8ff" d="M284.79,-100.68C263.69,-93.43 236.5,-84.45 212,-77.5 199.74,-74.02 186.59,-70.63 173.88,-67.52"/>
<polygon fill="#63b8ff" stroke="#63b8ff" points="283.73,-104.02 294.32,-103.98 286.02,-97.4 283.73,-104.02"/>
</a>
</g>
</g>
<!-- Node7 -->
<g id="Node000007" class="node">
<title>Node7</title>
<g id="a_Node000007"><a xlink:href="$classcam_1_1nc_1_1heiden530_1_1Creator.html#aeddcab01d2dfad26eb8482b0f690fd39" xlink:title=" ">
<polygon fill="white" stroke="#666666" points="212,-19 0,-19 0,0 212,0 212,-19"/>
<text text-anchor="middle" x="106" y="-7" font-family="Helvetica,sans-Serif" font-size="10.00">cam.nc.heiden530.Creator.program_end</text>
</a>
</g>
</g>
<!-- Node1&#45;&gt;Node7 -->
<g id="edge12_Node000001_Node000007" class="edge">
<title>Node1&#45;&gt;Node7</title>
<g id="a_edge12_Node000001_Node000007"><a xlink:title=" ">
<path fill="none" stroke="#63b8ff" d="M304.79,-96.63C284.88,-76.99 249.13,-45.11 212,-28.5 203.29,-24.6 193.84,-21.51 184.29,-19.04"/>
<polygon fill="#63b8ff" stroke="#63b8ff" points="302.33,-99.12 311.85,-103.75 307.29,-94.18 302.33,-99.12"/>
</a>
</g>
</g>
</g>
</svg>
