<?xml version="1.0" encoding="UTF-8" standalone="no"?>
<!DOCTYPE svg PUBLIC "-//W3C//DTD SVG 1.1//EN"
 "http://www.w3.org/Graphics/SVG/1.1/DTD/svg11.dtd">
<!-- Generated by graphviz version 2.43.0 (0)
 -->
<!-- Title: cam.nc.anilam_crusader_m.Creator.program_begin Pages: 1 -->
<svg width="1234pt" height="487pt"
 viewBox="0.00 0.00 1234.00 486.50" xmlns="http://www.w3.org/2000/svg" xmlns:xlink="http://www.w3.org/1999/xlink">
<g id="graph0" class="graph" transform="scale(1 1) rotate(0) translate(4 482.5)">
<title>cam.nc.anilam_crusader_m.Creator.program_begin</title>
<!-- Node1 -->
<g id="Node000001" class="node">
<title>Node1</title>
<g id="a_Node000001"><a xlink:title="Programs.">
<polygon fill="#999999" stroke="#666666" points="146,-291 0,-291 0,-261 146,-261 146,-291"/>
<text text-anchor="start" x="8" y="-279" font-family="Helvetica,sans-Serif" font-size="10.00">cam.nc.anilam_crusader</text>
<text text-anchor="middle" x="73" y="-268" font-family="Helvetica,sans-Serif" font-size="10.00">_m.Creator.program_begin</text>
</a>
</g>
</g>
<!-- Node2 -->
<g id="Node000002" class="node">
<title>Node2</title>
<g id="a_Node000002"><a xlink:href="$classcam_1_1nc_1_1cad__nc__read_1_1Parser.html#adcf2f47949df29f187f27fe985884633" xlink:title=" ">
<polygon fill="white" stroke="#666666" points="369.5,-460.5 193.5,-460.5 193.5,-441.5 369.5,-441.5 369.5,-460.5"/>
<text text-anchor="middle" x="281.5" y="-448.5" font-family="Helvetica,sans-Serif" font-size="10.00">cam.nc.cad_nc_read.Parser.write</text>
</a>
</g>
</g>
<!-- Node1&#45;&gt;Node2 -->
<g id="edge27_Node000001_Node000002" class="edge">
<title>Node1&#45;&gt;Node2</title>
<g id="a_edge27_Node000001_Node000002"><a xlink:title=" ">
<path fill="none" stroke="#63b8ff" d="M79.65,-291.04C92.48,-322.95 127.01,-397.4 182,-433 184.31,-434.5 186.72,-435.88 189.2,-437.15"/>
<polygon fill="#63b8ff" stroke="#63b8ff" points="187.88,-440.4 198.44,-441.31 190.75,-434.02 187.88,-440.4"/>
</a>
</g>
</g>
<!-- Node3 -->
<g id="Node000003" class="node">
<title>Node3</title>
<g id="a_Node000003"><a xlink:href="$classcam_1_1nc_1_1hxml__writer_1_1HxmlWriter.html#aed6f93c98cb8c0e3f3e826e75b6d6f15" xlink:title=" ">
<polygon fill="white" stroke="#666666" points="381,-405.5 182,-405.5 182,-386.5 381,-386.5 381,-405.5"/>
<text text-anchor="middle" x="281.5" y="-393.5" font-family="Helvetica,sans-Serif" font-size="10.00">cam.nc.hxml_writer.HxmlWriter.write</text>
</a>
</g>
</g>
<!-- Node1&#45;&gt;Node3 -->
<g id="edge29_Node000001_Node000003" class="edge">
<title>Node1&#45;&gt;Node3</title>
<g id="a_edge29_Node000001_Node000003"><a xlink:title=" ">
<path fill="none" stroke="#63b8ff" d="M85.36,-291.33C103.2,-314.19 140.13,-356.79 182,-378 185.79,-379.92 189.76,-381.64 193.84,-383.18"/>
<polygon fill="#63b8ff" stroke="#63b8ff" points="192.92,-386.56 203.51,-386.44 195.16,-379.93 192.92,-386.56"/>
</a>
</g>
</g>
<!-- Node4 -->
<g id="Node000004" class="node">
<title>Node4</title>
<g id="a_Node000004"><a xlink:href="$classcam_1_1nc_1_1iso_1_1Creator.html#abb81af5a0bdddfed387b71b68a51cc7a" xlink:title="Internals.">
<polygon fill="white" stroke="#666666" points="349,-368.5 214,-368.5 214,-349.5 349,-349.5 349,-368.5"/>
<text text-anchor="middle" x="281.5" y="-356.5" font-family="Helvetica,sans-Serif" font-size="10.00">cam.nc.iso.Creator.write</text>
</a>
</g>
</g>
<!-- Node1&#45;&gt;Node4 -->
<g id="edge31_Node000001_Node000004" class="edge">
<title>Node1&#45;&gt;Node4</title>
<g id="a_edge31_Node000001_Node000004"><a xlink:title=" ">
<path fill="none" stroke="#63b8ff" d="M93.96,-291.07C114.82,-306.05 149.04,-328.55 182,-341 189.01,-343.65 196.45,-345.92 203.98,-347.85"/>
<polygon fill="#63b8ff" stroke="#63b8ff" points="203.37,-351.31 213.9,-350.22 204.99,-344.5 203.37,-351.31"/>
</a>
</g>
</g>
<!-- Node5 -->
<g id="Node000005" class="node">
<title>Node5</title>
<g id="a_Node000005"><a xlink:href="$classcam_1_1nc_1_1nc_1_1Creator.html#a80f2134add83bfaaf2870d075d36ed8a" xlink:title=" ">
<polygon fill="white" stroke="#666666" points="347.5,-313.5 215.5,-313.5 215.5,-294.5 347.5,-294.5 347.5,-313.5"/>
<text text-anchor="middle" x="281.5" y="-301.5" font-family="Helvetica,sans-Serif" font-size="10.00">cam.nc.nc.Creator.write</text>
</a>
</g>
</g>
<!-- Node1&#45;&gt;Node5 -->
<g id="edge32_Node000001_Node000005" class="edge">
<title>Node1&#45;&gt;Node5</title>
<g id="a_edge32_Node000001_Node000005"><a xlink:title=" ">
<path fill="none" stroke="#63b8ff" d="M146.22,-285.79C165.34,-288.38 186.02,-291.19 205.29,-293.8"/>
<polygon fill="#63b8ff" stroke="#63b8ff" points="204.84,-297.27 215.22,-295.15 205.78,-290.34 204.84,-297.27"/>
</a>
</g>
</g>
<!-- Node6 -->
<g id="Node000006" class="node">
<title>Node6</title>
<g id="a_Node000006"><a xlink:href="$classcam_1_1nc_1_1nclathe__read_1_1Parser.html#ab5ea283b461b57e48c8d5b0ad0a45694" xlink:title=" ">
<polygon fill="white" stroke="#666666" points="370.5,-258.5 192.5,-258.5 192.5,-239.5 370.5,-239.5 370.5,-258.5"/>
<text text-anchor="middle" x="281.5" y="-246.5" font-family="Helvetica,sans-Serif" font-size="10.00">cam.nc.nclathe_read.Parser.write</text>
</a>
</g>
</g>
<!-- Node1&#45;&gt;Node6 -->
<g id="edge34_Node000001_Node000006" class="edge">
<title>Node1&#45;&gt;Node6</title>
<g id="a_edge34_Node000001_Node000006"><a xlink:title=" ">
<path fill="none" stroke="#63b8ff" d="M146.22,-266.56C162.85,-264.38 180.66,-262.05 197.69,-259.83"/>
<polygon fill="#63b8ff" stroke="#63b8ff" points="198.16,-263.3 207.62,-258.53 197.25,-256.36 198.16,-263.3"/>
</a>
</g>
</g>
<!-- Node7 -->
<g id="Node000007" class="node">
<title>Node7</title>
<g id="a_Node000007"><a xlink:href="$classcam_1_1nc_1_1recreator_1_1Redirector.html#a79cc974683588db3ef959189e7552c0d" xlink:title="Programs.">
<polygon fill="white" stroke="#666666" points="371,-203.5 192,-203.5 192,-184.5 371,-184.5 371,-203.5"/>
<text text-anchor="middle" x="281.5" y="-191.5" font-family="Helvetica,sans-Serif" font-size="10.00">cam.nc.recreator.Redirector.write</text>
</a>
</g>
</g>
<!-- Node1&#45;&gt;Node7 -->
<g id="edge36_Node000001_Node000007" class="edge">
<title>Node1&#45;&gt;Node7</title>
<g id="a_edge36_Node000001_Node000007"><a xlink:title=" ">
<path fill="none" stroke="#63b8ff" d="M109.38,-260.89C130.4,-252 157.64,-240.65 182,-231 202.59,-222.85 225.76,-214.12 244.46,-207.19"/>
<polygon fill="#63b8ff" stroke="#63b8ff" points="245.9,-210.39 254.06,-203.64 243.47,-203.82 245.9,-210.39"/>
</a>
</g>
</g>
<!-- Node8 -->
<g id="Node000008" class="node">
<title>Node8</title>
<g id="a_Node000008"><a xlink:href="$classcam_1_1nc_1_1format_1_1Address.html#aa21f0ffeb829537d9103759276c01a4b" xlink:title=" ">
<polygon fill="white" stroke="#666666" points="360.5,-166.5 202.5,-166.5 202.5,-147.5 360.5,-147.5 360.5,-166.5"/>
<text text-anchor="middle" x="281.5" y="-154.5" font-family="Helvetica,sans-Serif" font-size="10.00">cam.nc.format.Address.write</text>
</a>
</g>
</g>
<!-- Node1&#45;&gt;Node8 -->
<g id="edge38_Node000001_Node000008" class="edge">
<title>Node1&#45;&gt;Node8</title>
<g id="a_edge38_Node000001_Node000008"><a xlink:title=" ">
<path fill="none" stroke="#63b8ff" d="M85.75,-260.66C103.83,-238.23 140.74,-196.9 182,-176 186.69,-173.63 191.64,-171.55 196.72,-169.73"/>
<polygon fill="#63b8ff" stroke="#63b8ff" points="198.19,-172.93 206.64,-166.54 196.05,-166.27 198.19,-172.93"/>
</a>
</g>
</g>
<!-- Node19 -->
<g id="Node000019" class="node">
<title>Node19</title>
<g id="a_Node000019"><a xlink:href="$classcam_1_1nc_1_1format_1_1AddressPlusMinus.html#aaacea4c7b677f0a602dbc9023ff365d2" xlink:title=" ">
<polygon fill="white" stroke="#666666" points="356.5,-129 206.5,-129 206.5,-99 356.5,-99 356.5,-129"/>
<text text-anchor="start" x="214.5" y="-117" font-family="Helvetica,sans-Serif" font-size="10.00">cam.nc.format.AddressPlus</text>
<text text-anchor="middle" x="281.5" y="-106" font-family="Helvetica,sans-Serif" font-size="10.00">Minus.write</text>
</a>
</g>
</g>
<!-- Node1&#45;&gt;Node19 -->
<g id="edge51_Node000001_Node000019" class="edge">
<title>Node1&#45;&gt;Node19</title>
<g id="a_edge51_Node000001_Node000019"><a xlink:title=" ">
<path fill="none" stroke="#63b8ff" d="M81.44,-260.82C96.33,-232.1 132.66,-169.83 182,-138 186.67,-134.99 191.68,-132.36 196.89,-130.05"/>
<polygon fill="#63b8ff" stroke="#63b8ff" points="198.43,-133.2 206.43,-126.25 195.84,-126.7 198.43,-133.2"/>
</a>
</g>
</g>
<!-- Node2&#45;&gt;Node2 -->
<g id="edge28_Node000002_Node000002" class="edge">
<title>Node2&#45;&gt;Node2</title>
<g id="a_edge28_Node000002_Node000002"><a xlink:title=" ">
<path fill="none" stroke="#63b8ff" d="M249.44,-460.58C233.84,-469.23 244.53,-478.5 281.5,-478.5 308.07,-478.5 321.07,-473.71 320.48,-467.81"/>
<polygon fill="#63b8ff" stroke="#63b8ff" points="323,-465.38 313.56,-460.58 317.95,-470.23 323,-465.38"/>
</a>
</g>
</g>
<!-- Node3&#45;&gt;Node3 -->
<g id="edge30_Node000003_Node000003" class="edge">
<title>Node3&#45;&gt;Node3</title>
<g id="a_edge30_Node000003_Node000003"><a xlink:title=" ">
<path fill="none" stroke="#63b8ff" d="M249.44,-405.58C233.84,-414.23 244.53,-423.5 281.5,-423.5 308.07,-423.5 321.07,-418.71 320.48,-412.81"/>
<polygon fill="#63b8ff" stroke="#63b8ff" points="323,-410.38 313.56,-405.58 317.95,-415.23 323,-410.38"/>
</a>
</g>
</g>
<!-- Node5&#45;&gt;Node5 -->
<g id="edge33_Node000005_Node000005" class="edge">
<title>Node5&#45;&gt;Node5</title>
<g id="a_edge33_Node000005_Node000005"><a xlink:title=" ">
<path fill="none" stroke="#63b8ff" d="M249.44,-313.58C233.84,-322.23 244.53,-331.5 281.5,-331.5 308.07,-331.5 321.07,-326.71 320.48,-320.81"/>
<polygon fill="#63b8ff" stroke="#63b8ff" points="323,-318.38 313.56,-313.58 317.95,-323.23 323,-318.38"/>
</a>
</g>
</g>
<!-- Node6&#45;&gt;Node6 -->
<g id="edge35_Node000006_Node000006" class="edge">
<title>Node6&#45;&gt;Node6</title>
<g id="a_edge35_Node000006_Node000006"><a xlink:title=" ">
<path fill="none" stroke="#63b8ff" d="M249.44,-258.58C233.84,-267.23 244.53,-276.5 281.5,-276.5 308.07,-276.5 321.07,-271.71 320.48,-265.81"/>
<polygon fill="#63b8ff" stroke="#63b8ff" points="323,-263.38 313.56,-258.58 317.95,-268.23 323,-263.38"/>
</a>
</g>
</g>
<!-- Node7&#45;&gt;Node7 -->
<g id="edge37_Node000007_Node000007" class="edge">
<title>Node7&#45;&gt;Node7</title>
<g id="a_edge37_Node000007_Node000007"><a xlink:title=" ">
<path fill="none" stroke="#63b8ff" d="M249.44,-203.58C233.84,-212.23 244.53,-221.5 281.5,-221.5 308.07,-221.5 321.07,-216.71 320.48,-210.81"/>
<polygon fill="#63b8ff" stroke="#63b8ff" points="323,-208.38 313.56,-203.58 317.95,-213.23 323,-208.38"/>
</a>
</g>
</g>
<!-- Node9 -->
<g id="Node000009" class="node">
<title>Node9</title>
<g id="a_Node000009"><a xlink:href="$classcam_1_1async__op_1_1AsyncOperatorMixin.html#a9628cbca8e69ec75b2337171a02bf428" xlink:title=" ">
<polygon fill="white" stroke="#666666" points="578,-150 417,-150 417,-120 578,-120 578,-150"/>
<text text-anchor="start" x="425" y="-138" font-family="Helvetica,sans-Serif" font-size="10.00">cam.async_op.AsyncOperator</text>
<text text-anchor="middle" x="497.5" y="-127" font-family="Helvetica,sans-Serif" font-size="10.00">Mixin.modal</text>
</a>
</g>
</g>
<!-- Node8&#45;&gt;Node9 -->
<g id="edge39_Node000008_Node000009" class="edge">
<title>Node8&#45;&gt;Node9</title>
<g id="a_edge39_Node000008_Node000009"><a xlink:title=" ">
<path fill="none" stroke="#63b8ff" d="M360.67,-148.96C375.65,-147.42 391.45,-145.8 406.77,-144.22"/>
<polygon fill="#63b8ff" stroke="#63b8ff" points="407.16,-147.7 416.75,-143.2 406.45,-140.74 407.16,-147.7"/>
</a>
</g>
</g>
<!-- Node10 -->
<g id="Node000010" class="node">
<title>Node10</title>
<g id="a_Node000010"><a xlink:href="$classcam_1_1async__op_1_1AsyncOperatorMixin.html#a15a51cfd69d8e453e2e3d64386b1ebe3" xlink:title=" ">
<polygon fill="white" stroke="#666666" points="775,-150 614,-150 614,-120 775,-120 775,-150"/>
<text text-anchor="start" x="622" y="-138" font-family="Helvetica,sans-Serif" font-size="10.00">cam.async_op.AsyncOperator</text>
<text text-anchor="middle" x="694.5" y="-127" font-family="Helvetica,sans-Serif" font-size="10.00">Mixin.tick</text>
</a>
</g>
</g>
<!-- Node9&#45;&gt;Node10 -->
<g id="edge40_Node000009_Node000010" class="edge">
<title>Node9&#45;&gt;Node10</title>
<g id="a_edge40_Node000009_Node000010"><a xlink:title=" ">
<path fill="none" stroke="#63b8ff" d="M578.1,-135C586.57,-135 595.24,-135 603.82,-135"/>
<polygon fill="#63b8ff" stroke="#63b8ff" points="603.84,-138.5 613.84,-135 603.84,-131.5 603.84,-138.5"/>
</a>
</g>
</g>
<!-- Node11 -->
<g id="Node000011" class="node">
<title>Node11</title>
<g id="a_Node000011"><a xlink:href="$classcam_1_1async__op_1_1AsyncTestOperator.html#a42606ca890a957aa7070a4bc6f25228b" xlink:title=" ">
<polygon fill="white" stroke="#666666" points="1032,-270 811,-270 811,-240 1032,-240 1032,-270"/>
<text text-anchor="start" x="819" y="-258" font-family="Helvetica,sans-Serif" font-size="10.00">cam.async_op.AsyncTestOperator.execute</text>
<text text-anchor="middle" x="921.5" y="-247" font-family="Helvetica,sans-Serif" font-size="10.00">_async</text>
</a>
</g>
</g>
<!-- Node10&#45;&gt;Node11 -->
<g id="edge41_Node000010_Node000011" class="edge">
<title>Node10&#45;&gt;Node11</title>
<g id="a_edge41_Node000010_Node000011"><a xlink:title=" ">
<path fill="none" stroke="#63b8ff" d="M709.18,-150.27C729.31,-171.74 769.07,-210.51 811,-231 815.09,-233 819.35,-234.84 823.72,-236.52"/>
<polygon fill="#63b8ff" stroke="#63b8ff" points="822.81,-239.91 833.41,-239.97 825.16,-233.32 822.81,-239.91"/>
</a>
</g>
</g>
<!-- Node12 -->
<g id="Node000012" class="node">
<title>Node12</title>
<g id="a_Node000012"><a xlink:href="$classcam_1_1ops_1_1CalculatePath.html#a13dfe2f8578383234e74e58e2f292e1b" xlink:title=" ">
<polygon fill="white" stroke="#666666" points="1006,-222 837,-222 837,-192 1006,-192 1006,-222"/>
<text text-anchor="start" x="845" y="-210" font-family="Helvetica,sans-Serif" font-size="10.00">cam.ops.CalculatePath.execute</text>
<text text-anchor="middle" x="921.5" y="-199" font-family="Helvetica,sans-Serif" font-size="10.00">_async</text>
</a>
</g>
</g>
<!-- Node10&#45;&gt;Node12 -->
<g id="edge42_Node000010_Node000012" class="edge">
<title>Node10&#45;&gt;Node12</title>
<g id="a_edge42_Node000010_Node000012"><a xlink:title=" ">
<path fill="none" stroke="#63b8ff" d="M727.29,-150.01C750.18,-160.38 782,-173.88 811,-183 818.31,-185.3 825.96,-187.46 833.68,-189.47"/>
<polygon fill="#63b8ff" stroke="#63b8ff" points="832.91,-192.89 843.46,-191.93 834.62,-186.1 832.91,-192.89"/>
</a>
</g>
</g>
<!-- Node14 -->
<g id="Node000014" class="node">
<title>Node14</title>
<g id="a_Node000014"><a xlink:href="$classcam_1_1ops_1_1PathsChain.html#a6fc64e383ccf724b2325e18a82d53eae" xlink:title=" ">
<polygon fill="white" stroke="#666666" points="999.5,-174 843.5,-174 843.5,-144 999.5,-144 999.5,-174"/>
<text text-anchor="start" x="851.5" y="-162" font-family="Helvetica,sans-Serif" font-size="10.00">cam.ops.PathsChain.execute</text>
<text text-anchor="middle" x="921.5" y="-151" font-family="Helvetica,sans-Serif" font-size="10.00">_async</text>
</a>
</g>
</g>
<!-- Node10&#45;&gt;Node14 -->
<g id="edge44_Node000010_Node000014" class="edge">
<title>Node10&#45;&gt;Node14</title>
<g id="a_edge44_Node000010_Node000014"><a xlink:title=" ">
<path fill="none" stroke="#63b8ff" d="M775.14,-143.5C793.9,-145.5 813.98,-147.64 833.06,-149.67"/>
<polygon fill="#63b8ff" stroke="#63b8ff" points="832.92,-153.18 843.23,-150.76 833.66,-146.22 832.92,-153.18"/>
</a>
</g>
</g>
<!-- Node16 -->
<g id="Node000016" class="node">
<title>Node16</title>
<g id="a_Node000016"><a xlink:href="$classcam_1_1ops_1_1CAMSimulate.html#a633151f17849d281fd52ce82c00356a7" xlink:title=" ">
<polygon fill="white" stroke="#666666" points="1005.5,-126 837.5,-126 837.5,-96 1005.5,-96 1005.5,-126"/>
<text text-anchor="start" x="845.5" y="-114" font-family="Helvetica,sans-Serif" font-size="10.00">cam.ops.CAMSimulate.execute</text>
<text text-anchor="middle" x="921.5" y="-103" font-family="Helvetica,sans-Serif" font-size="10.00">_async</text>
</a>
</g>
</g>
<!-- Node10&#45;&gt;Node16 -->
<g id="edge47_Node000010_Node000016" class="edge">
<title>Node10&#45;&gt;Node16</title>
<g id="a_edge47_Node000010_Node000016"><a xlink:title=" ">
<path fill="none" stroke="#63b8ff" d="M775.14,-126.5C791.95,-124.71 809.82,-122.81 827.08,-120.97"/>
<polygon fill="#63b8ff" stroke="#63b8ff" points="827.58,-124.43 837.15,-119.89 826.84,-117.47 827.58,-124.43"/>
</a>
</g>
</g>
<!-- Node17 -->
<g id="Node000017" class="node">
<title>Node17</title>
<g id="a_Node000017"><a xlink:href="$classcam_1_1ops_1_1CAMSimulateChain.html#a1e77c7ce21b3b7e3e38a12b6b62517e9" xlink:title=" ">
<polygon fill="white" stroke="#666666" points="1019.5,-78 823.5,-78 823.5,-48 1019.5,-48 1019.5,-78"/>
<text text-anchor="start" x="831.5" y="-66" font-family="Helvetica,sans-Serif" font-size="10.00">cam.ops.CAMSimulateChain.execute</text>
<text text-anchor="middle" x="921.5" y="-55" font-family="Helvetica,sans-Serif" font-size="10.00">_async</text>
</a>
</g>
</g>
<!-- Node10&#45;&gt;Node17 -->
<g id="edge48_Node000010_Node000017" class="edge">
<title>Node10&#45;&gt;Node17</title>
<g id="a_edge48_Node000010_Node000017"><a xlink:title=" ">
<path fill="none" stroke="#63b8ff" d="M727.29,-119.99C750.18,-109.62 782,-96.12 811,-87 818.31,-84.7 825.96,-82.54 833.68,-80.53"/>
<polygon fill="#63b8ff" stroke="#63b8ff" points="834.62,-83.9 843.46,-78.07 832.91,-77.11 834.62,-83.9"/>
</a>
</g>
</g>
<!-- Node18 -->
<g id="Node000018" class="node">
<title>Node18</title>
<g id="a_Node000018"><a xlink:href="$classcam_1_1async__op_1_1AsyncOperatorMixin.html#a2216ff6bb0dfd132f4ec4cf79b7cba2b" xlink:title=" ">
<polygon fill="white" stroke="#666666" points="1002,-30 841,-30 841,0 1002,0 1002,-30"/>
<text text-anchor="start" x="849" y="-18" font-family="Helvetica,sans-Serif" font-size="10.00">cam.async_op.AsyncOperator</text>
<text text-anchor="middle" x="921.5" y="-7" font-family="Helvetica,sans-Serif" font-size="10.00">Mixin.show_progress</text>
</a>
</g>
</g>
<!-- Node10&#45;&gt;Node18 -->
<g id="edge50_Node000010_Node000018" class="edge">
<title>Node10&#45;&gt;Node18</title>
<g id="a_edge50_Node000010_Node000018"><a xlink:title=" ">
<path fill="none" stroke="#63b8ff" d="M709.18,-119.73C729.31,-98.26 769.07,-59.49 811,-39 817.43,-35.86 824.27,-33.12 831.28,-30.74"/>
<polygon fill="#63b8ff" stroke="#63b8ff" points="832.42,-34.05 840.91,-27.71 830.32,-27.37 832.42,-34.05"/>
</a>
</g>
</g>
<!-- Node13 -->
<g id="Node000013" class="node">
<title>Node13</title>
<g id="a_Node000013"><a xlink:href="$namespacecam_1_1ops.html#aa8e95f7410a7ceb178db48f4f8c2d995" xlink:title=" ">
<polygon fill="white" stroke="#666666" points="1203.5,-192.5 1090.5,-192.5 1090.5,-173.5 1203.5,-173.5 1203.5,-192.5"/>
<text text-anchor="middle" x="1147" y="-180.5" font-family="Helvetica,sans-Serif" font-size="10.00">cam.ops._calc_path</text>
</a>
</g>
</g>
<!-- Node12&#45;&gt;Node13 -->
<g id="edge43_Node000012_Node000013" class="edge">
<title>Node12&#45;&gt;Node13</title>
<g id="a_edge43_Node000012_Node000013"><a xlink:title=" ">
<path fill="none" stroke="#63b8ff" d="M1006.04,-198.03C1030.56,-195.4 1057.01,-192.56 1080.25,-190.06"/>
<polygon fill="#63b8ff" stroke="#63b8ff" points="1080.77,-193.52 1090.34,-188.98 1080.03,-186.56 1080.77,-193.52"/>
</a>
</g>
</g>
<!-- Node14&#45;&gt;Node13 -->
<g id="edge45_Node000014_Node000013" class="edge">
<title>Node14&#45;&gt;Node13</title>
<g id="a_edge45_Node000014_Node000013"><a xlink:title=" ">
<path fill="none" stroke="#63b8ff" d="M999.73,-167.29C1025.9,-170.1 1054.87,-173.21 1080.08,-175.92"/>
<polygon fill="#63b8ff" stroke="#63b8ff" points="1079.95,-179.43 1090.27,-177.02 1080.7,-172.47 1079.95,-179.43"/>
</a>
</g>
</g>
<!-- Node15 -->
<g id="Node000015" class="node">
<title>Node15</title>
<g id="a_Node000015"><a xlink:href="$namespacecam_1_1ops.html#ab55fb8ec9a00e021e8e4a1c3ecc97cb4" xlink:title=" ">
<polygon fill="white" stroke="#666666" points="1226,-126.5 1068,-126.5 1068,-107.5 1226,-107.5 1226,-126.5"/>
<text text-anchor="middle" x="1147" y="-114.5" font-family="Helvetica,sans-Serif" font-size="10.00">cam.ops.getChainOperations</text>
</a>
</g>
</g>
<!-- Node14&#45;&gt;Node15 -->
<g id="edge46_Node000014_Node000015" class="edge">
<title>Node14&#45;&gt;Node15</title>
<g id="a_edge46_Node000014_Node000015"><a xlink:title=" ">
<path fill="none" stroke="#63b8ff" d="M999.73,-144.49C1027.81,-139.21 1059.12,-133.33 1085.54,-128.36"/>
<polygon fill="#63b8ff" stroke="#63b8ff" points="1086.23,-131.79 1095.41,-126.51 1084.94,-124.91 1086.23,-131.79"/>
</a>
</g>
</g>
<!-- Node17&#45;&gt;Node15 -->
<g id="edge49_Node000017_Node000015" class="edge">
<title>Node17&#45;&gt;Node15</title>
<g id="a_edge49_Node000017_Node000015"><a xlink:title=" ">
<path fill="none" stroke="#63b8ff" d="M993.28,-78.06C1006.19,-80.94 1019.51,-83.99 1032,-87 1054.91,-92.52 1080.28,-99.15 1101.25,-104.77"/>
<polygon fill="#63b8ff" stroke="#63b8ff" points="1100.6,-108.21 1111.17,-107.43 1102.42,-101.45 1100.6,-108.21"/>
</a>
</g>
</g>
<!-- Node19&#45;&gt;Node9 -->
<g id="edge52_Node000019_Node000009" class="edge">
<title>Node19&#45;&gt;Node9</title>
<g id="a_edge52_Node000019_Node000009"><a xlink:title=" ">
<path fill="none" stroke="#63b8ff" d="M356.75,-121.29C372.84,-122.87 390.03,-124.55 406.65,-126.18"/>
<polygon fill="#63b8ff" stroke="#63b8ff" points="406.62,-129.7 416.92,-127.19 407.3,-122.73 406.62,-129.7"/>
</a>
</g>
</g>
</g>
</svg>
