<?xml version="1.0" encoding="UTF-8" standalone="no"?>
<!DOCTYPE svg PUBLIC "-//W3C//DTD SVG 1.1//EN"
 "http://www.w3.org/Graphics/SVG/1.1/DTD/svg11.dtd">
<!-- Generated by graphviz version 2.43.0 (0)
 -->
<!-- Title: cam.ops.CamChainOperationDown Pages: 1 -->
<svg width="236pt" height="179pt"
 viewBox="0.00 0.00 235.50 179.00" xmlns="http://www.w3.org/2000/svg" xmlns:xlink="http://www.w3.org/1999/xlink">
<g id="graph0" class="graph" transform="scale(1 1) rotate(0) translate(4 175)">
<title>cam.ops.CamChainOperationDown</title>
<!-- Node1 -->
<g id="Node000001" class="node">
<title>Node1</title>
<g id="a_Node000001"><a xlink:title=" ">
<polygon fill="#999999" stroke="transparent" points="181,-64 0,-64 0,0 181,0 181,-64"/>
<text text-anchor="start" x="5.5" y="-52" font-family="Helvetica,sans-Serif" font-size="10.00">cam.ops.CamChainOperationDown</text>
<text text-anchor="start" x="89" y="-37" font-family="Helvetica,sans-Serif" font-size="10.00"> </text>
<text text-anchor="start" x="33" y="-22" font-family="Helvetica,sans-Serif" font-size="10.00">+</text>
<text text-anchor="start" x="74.5" y="-22" font-family="Helvetica,sans-Serif" font-size="10.00">poll()</text>
<text text-anchor="start" x="33" y="-7" font-family="Helvetica,sans-Serif" font-size="10.00">+</text>
<text text-anchor="start" x="74.5" y="-7" font-family="Helvetica,sans-Serif" font-size="10.00">execute()</text>
<polygon fill="#666666" stroke="#666666" points="0.5,-47 0.5,-47 181.5,-47 181.5,-47 0.5,-47"/>
<polygon fill="#666666" stroke="#666666" points="0.5,-32 0.5,-32 181.5,-32 181.5,-32 0.5,-32"/>
<polygon fill="none" stroke="#666666" points="0,0 0,-64 181,-64 181,0 0,0"/>
</a>
</g>
</g>
<!-- Node2 -->
<g id="Node000002" class="node">
<title>Node2</title>
<g id="a_Node000002"><a xlink:title=" ">
<polygon fill="white" stroke="transparent" points="61,-171 8,-171 8,-122 61,-122 61,-171"/>
<text text-anchor="start" x="13.5" y="-158.5" font-family="Helvetica,sans-Serif" font-size="10.00">Operator</text>
<text text-anchor="start" x="33" y="-143.5" font-family="Helvetica,sans-Serif" font-size="10.00"> </text>
<text text-anchor="start" x="33" y="-128.5" font-family="Helvetica,sans-Serif" font-size="10.00"> </text>
<polygon fill="#666666" stroke="#666666" points="8.5,-153.5 8.5,-153.5 61.5,-153.5 61.5,-153.5 8.5,-153.5"/>
<polygon fill="#666666" stroke="#666666" points="8.5,-138.5 8.5,-138.5 61.5,-138.5 61.5,-138.5 8.5,-138.5"/>
<polygon fill="none" stroke="#666666" points="8,-122 8,-171 61,-171 61,-122 8,-122"/>
</a>
</g>
</g>
<!-- Node2&#45;&gt;Node1 -->
<g id="edge4_Node000001_Node000002" class="edge">
<title>Node2&#45;&gt;Node1</title>
<g id="a_edge4_Node000001_Node000002"><a xlink:title=" ">
<path fill="none" stroke="#63b8ff" d="M50.77,-112.81C58.39,-97.5 67.42,-79.36 74.95,-64.24"/>
<polygon fill="none" stroke="#63b8ff" points="47.56,-111.4 46.24,-121.92 53.83,-114.52 47.56,-111.4"/>
</a>
</g>
</g>
<!-- Node3 -->
<g id="Node000003" class="node">
<title>Node3</title>
<g id="a_Node000003"><a xlink:title=" ">
<polygon fill="white" stroke="transparent" points="102,-171 79,-171 79,-122 102,-122 102,-171"/>
<text text-anchor="start" x="84.5" y="-158.5" font-family="Helvetica,sans-Serif" font-size="10.00">str</text>
<text text-anchor="start" x="89" y="-143.5" font-family="Helvetica,sans-Serif" font-size="10.00"> </text>
<text text-anchor="start" x="89" y="-128.5" font-family="Helvetica,sans-Serif" font-size="10.00"> </text>
<polygon fill="#666666" stroke="#666666" points="79.5,-153.5 79.5,-153.5 102.5,-153.5 102.5,-153.5 79.5,-153.5"/>
<polygon fill="#666666" stroke="#666666" points="79.5,-138.5 79.5,-138.5 102.5,-138.5 102.5,-138.5 79.5,-138.5"/>
<polygon fill="none" stroke="#666666" points="79,-122 79,-171 102,-171 102,-122 79,-122"/>
</a>
</g>
</g>
<!-- Node3&#45;&gt;Node1 -->
<g id="edge5_Node000001_Node000003" class="edge">
<title>Node3&#45;&gt;Node1</title>
<g id="a_edge5_Node000001_Node000003"><a xlink:title=" ">
<path fill="none" stroke="#63b8ff" d="M90.5,-121.92C90.5,-108.7 90.5,-91.8 90.5,-76.29"/>
<polygon fill="none" stroke="#63b8ff" points="90.5,-76.24 86.5,-70.24 90.5,-64.24 94.5,-70.24 90.5,-76.24"/>
</a>
</g>
<text text-anchor="middle" x="122" y="-96" font-family="Helvetica,sans-Serif" font-size="10.00" fill="grey"> +bl_idname</text>
<text text-anchor="middle" x="122" y="-85" font-family="Helvetica,sans-Serif" font-size="10.00" fill="grey">+bl_label</text>
</g>
<!-- Node4 -->
<g id="Node000004" class="node">
<title>Node4</title>
<g id="a_Node000004"><a xlink:title=" ">
<polygon fill="white" stroke="transparent" points="191,-171 162,-171 162,-122 191,-122 191,-171"/>
<text text-anchor="start" x="167.5" y="-158.5" font-family="Helvetica,sans-Serif" font-size="10.00">dict</text>
<text text-anchor="start" x="175" y="-143.5" font-family="Helvetica,sans-Serif" font-size="10.00"> </text>
<text text-anchor="start" x="175" y="-128.5" font-family="Helvetica,sans-Serif" font-size="10.00"> </text>
<polygon fill="#666666" stroke="#666666" points="162.5,-153.5 162.5,-153.5 191.5,-153.5 191.5,-153.5 162.5,-153.5"/>
<polygon fill="#666666" stroke="#666666" points="162.5,-138.5 162.5,-138.5 191.5,-138.5 191.5,-138.5 162.5,-138.5"/>
<polygon fill="none" stroke="#666666" points="162,-122 162,-171 191,-171 191,-122 162,-122"/>
</a>
</g>
</g>
<!-- Node4&#45;&gt;Node1 -->
<g id="edge6_Node000001_Node000004" class="edge">
<title>Node4&#45;&gt;Node1</title>
<g id="a_edge6_Node000001_Node000004"><a xlink:title=" ">
<path fill="none" stroke="#63b8ff" d="M171.82,-121.92C168.48,-109.24 163.04,-93.82 154.5,-82 152.17,-78.77 149.56,-75.65 146.77,-72.65"/>
<polygon fill="none" stroke="#63b8ff" points="146.54,-72.43 139.45,-71.12 137.93,-64.07 145.02,-65.38 146.54,-72.43"/>
</a>
</g>
<text text-anchor="middle" x="196.5" y="-90.5" font-family="Helvetica,sans-Serif" font-size="10.00" fill="grey"> +bl_options</text>
</g>
</g>
</svg>
