<?xml version="1.0" encoding="UTF-8" standalone="no"?>
<!DOCTYPE svg PUBLIC "-//W3C//DTD SVG 1.1//EN"
 "http://www.w3.org/Graphics/SVG/1.1/DTD/svg11.dtd">
<!-- Generated by graphviz version 2.43.0 (0)
 -->
<!-- Title: cam.nc.recreator.Redirector.tool_change Pages: 1 -->
<svg width="598pt" height="122pt"
 viewBox="0.00 0.00 598.00 122.00" xmlns="http://www.w3.org/2000/svg" xmlns:xlink="http://www.w3.org/1999/xlink">
<g id="graph0" class="graph" transform="scale(1 1) rotate(0) translate(4 118)">
<title>cam.nc.recreator.Redirector.tool_change</title>
<!-- Node1 -->
<g id="Node000001" class="node">
<title>Node1</title>
<g id="a_Node000001"><a xlink:title="Tools.">
<polygon fill="#999999" stroke="#666666" points="173,-61.5 0,-61.5 0,-31.5 173,-31.5 173,-61.5"/>
<text text-anchor="start" x="8" y="-49.5" font-family="Helvetica,sans-Serif" font-size="10.00">cam.nc.recreator.Redirector.tool</text>
<text text-anchor="middle" x="86.5" y="-38.5" font-family="Helvetica,sans-Serif" font-size="10.00">_change</text>
</a>
</g>
</g>
<!-- Node1&#45;&gt;Node1 -->
<g id="edge12_Node000001_Node000001" class="edge">
<title>Node1&#45;&gt;Node1</title>
<g id="a_edge12_Node000001_Node000001"><a xlink:title=" ">
<path fill="none" stroke="#63b8ff" d="M47.83,-61.78C39.23,-70.91 52.12,-79.5 86.5,-79.5 106.91,-79.5 119.75,-76.47 125.01,-72.1"/>
<polygon fill="#63b8ff" stroke="#63b8ff" points="128.51,-71.83 125.17,-61.78 121.51,-71.72 128.51,-71.83"/>
</a>
</g>
</g>
<!-- Node2 -->
<g id="Node000002" class="node">
<title>Node2</title>
<g id="a_Node000002"><a xlink:href="$classcam_1_1nc_1_1attach_1_1Creator.html#a15a75411685b954b0073489b30f1342e" xlink:title=" ">
<polygon fill="white" stroke="#666666" points="391.5,-93 222.5,-93 222.5,-74 391.5,-74 391.5,-93"/>
<text text-anchor="middle" x="307" y="-81" font-family="Helvetica,sans-Serif" font-size="10.00">cam.nc.attach.Creator.cut_path</text>
</a>
</g>
</g>
<!-- Node1&#45;&gt;Node2 -->
<g id="edge7_Node000001_Node000002" class="edge">
<title>Node1&#45;&gt;Node2</title>
<g id="a_edge7_Node000001_Node000002"><a xlink:title=" ">
<path fill="none" stroke="#63b8ff" d="M173.23,-61.02C195.32,-64.76 218.76,-68.73 239.69,-72.27"/>
<polygon fill="#63b8ff" stroke="#63b8ff" points="239.31,-75.76 249.75,-73.98 240.48,-68.85 239.31,-75.76"/>
</a>
</g>
</g>
<!-- Node5 -->
<g id="Node000005" class="node">
<title>Node5</title>
<g id="a_Node000005"><a xlink:href="$classcam_1_1nc_1_1drag__knife_1_1Creator.html#a5db2841a5c931c72702e9bb7752ea731" xlink:title=" ">
<polygon fill="white" stroke="#666666" points="402,-56 212,-56 212,-37 402,-37 402,-56"/>
<text text-anchor="middle" x="307" y="-44" font-family="Helvetica,sans-Serif" font-size="10.00">cam.nc.drag_knife.Creator.cut_path</text>
</a>
</g>
</g>
<!-- Node1&#45;&gt;Node5 -->
<g id="edge10_Node000001_Node000005" class="edge">
<title>Node1&#45;&gt;Node5</title>
<g id="a_edge10_Node000001_Node000005"><a xlink:title=" ">
<path fill="none" stroke="#63b8ff" d="M173.23,-46.5C182.54,-46.5 192.08,-46.5 201.58,-46.5"/>
<polygon fill="#63b8ff" stroke="#63b8ff" points="201.85,-50 211.85,-46.5 201.85,-43 201.85,-50"/>
</a>
</g>
</g>
<!-- Node6 -->
<g id="Node000006" class="node">
<title>Node6</title>
<g id="a_Node000006"><a xlink:href="$classcam_1_1nc_1_1recreator_1_1Redirector.html#ace3039c310a7ee83dafe4fee4382f511" xlink:title=" ">
<polygon fill="white" stroke="#666666" points="405,-19 209,-19 209,0 405,0 405,-19"/>
<text text-anchor="middle" x="307" y="-7" font-family="Helvetica,sans-Serif" font-size="10.00">cam.nc.recreator.Redirector.cut_path</text>
</a>
</g>
</g>
<!-- Node1&#45;&gt;Node6 -->
<g id="edge11_Node000001_Node000006" class="edge">
<title>Node1&#45;&gt;Node6</title>
<g id="a_edge11_Node000001_Node000006"><a xlink:title=" ">
<path fill="none" stroke="#63b8ff" d="M173.23,-31.98C195.32,-28.24 218.76,-24.27 239.69,-20.73"/>
<polygon fill="#63b8ff" stroke="#63b8ff" points="240.48,-24.15 249.75,-19.02 239.31,-17.24 240.48,-24.15"/>
</a>
</g>
</g>
<!-- Node3 -->
<g id="Node000003" class="node">
<title>Node3</title>
<g id="a_Node000003"><a xlink:href="$classcam_1_1nc_1_1attach_1_1Creator.html#a27a17497f0889323fd31aab4f857e577" xlink:title=" ">
<polygon fill="white" stroke="#666666" points="590,-114 441,-114 441,-95 590,-95 590,-114"/>
<text text-anchor="middle" x="515.5" y="-102" font-family="Helvetica,sans-Serif" font-size="10.00">cam.nc.attach.Creator.feed</text>
</a>
</g>
</g>
<!-- Node2&#45;&gt;Node3 -->
<g id="edge8_Node000002_Node000003" class="edge">
<title>Node2&#45;&gt;Node3</title>
<g id="a_edge8_Node000002_Node000003"><a xlink:title=" ">
<path fill="none" stroke="#63b8ff" d="M391.69,-92.01C404.57,-93.32 417.87,-94.67 430.76,-95.98"/>
<polygon fill="#63b8ff" stroke="#63b8ff" points="430.68,-99.49 440.98,-97.02 431.38,-92.53 430.68,-99.49"/>
</a>
</g>
</g>
<!-- Node4 -->
<g id="Node000004" class="node">
<title>Node4</title>
<g id="a_Node000004"><a xlink:href="$classcam_1_1nc_1_1attach_1_1Creator.html#a64e13dd00fd58d3db3818de0d188bafa" xlink:title="Shift in Z.">
<polygon fill="white" stroke="#666666" points="586.5,-76.5 444.5,-76.5 444.5,-46.5 586.5,-46.5 586.5,-76.5"/>
<text text-anchor="start" x="452.5" y="-64.5" font-family="Helvetica,sans-Serif" font-size="10.00">cam.nc.attach.Creator.set</text>
<text text-anchor="middle" x="515.5" y="-53.5" font-family="Helvetica,sans-Serif" font-size="10.00">PdcfIfNotSet</text>
</a>
</g>
</g>
<!-- Node2&#45;&gt;Node4 -->
<g id="edge9_Node000002_Node000004" class="edge">
<title>Node2&#45;&gt;Node4</title>
<g id="a_edge9_Node000002_Node000004"><a xlink:title=" ">
<path fill="none" stroke="#63b8ff" d="M391.69,-74.58C405.73,-73.09 420.26,-71.54 434.21,-70.05"/>
<polygon fill="#63b8ff" stroke="#63b8ff" points="434.67,-73.52 444.24,-68.98 433.93,-66.56 434.67,-73.52"/>
</a>
</g>
</g>
</g>
</svg>
