<?xml version="1.0" encoding="UTF-8" standalone="no"?>
<!DOCTYPE svg PUBLIC "-//W3C//DTD SVG 1.1//EN"
 "http://www.w3.org/Graphics/SVG/1.1/DTD/svg11.dtd">
<!-- Generated by graphviz version 2.43.0 (0)
 -->
<!-- Title: cam.preset_managers.CAM_OPERATION_MT_presets Pages: 1 -->
<svg width="153pt" height="198pt"
 viewBox="0.00 0.00 153.00 198.00" xmlns="http://www.w3.org/2000/svg" xmlns:xlink="http://www.w3.org/1999/xlink">
<g id="graph0" class="graph" transform="scale(1 1) rotate(0) translate(4 194)">
<title>cam.preset_managers.CAM_OPERATION_MT_presets</title>
<!-- Node1 -->
<g id="Node000001" class="node">
<title>Node1</title>
<g id="a_Node000001"><a xlink:title=" ">
<polygon fill="#999999" stroke="transparent" points="145,-105 0,-105 0,0 145,0 145,-105"/>
<text text-anchor="start" x="5.5" y="-92.5" font-family="Helvetica,sans-Serif" font-size="10.00">cam.preset_managers.CAM</text>
<text text-anchor="start" x="11" y="-81.5" font-family="Helvetica,sans-Serif" font-size="10.00">_OPERATION_MT_presets</text>
<text text-anchor="start" x="16" y="-66.5" font-family="Helvetica,sans-Serif" font-size="10.00">+</text>
<text text-anchor="start" x="40.5" y="-66.5" font-family="Helvetica,sans-Serif" font-size="10.00">bl_label</text>
<text text-anchor="start" x="16" y="-51.5" font-family="Helvetica,sans-Serif" font-size="10.00">+</text>
<text text-anchor="start" x="40.5" y="-51.5" font-family="Helvetica,sans-Serif" font-size="10.00">preset_subdir</text>
<text text-anchor="start" x="16" y="-36.5" font-family="Helvetica,sans-Serif" font-size="10.00">+</text>
<text text-anchor="start" x="40.5" y="-36.5" font-family="Helvetica,sans-Serif" font-size="10.00">preset_operator</text>
<text text-anchor="start" x="16" y="-21.5" font-family="Helvetica,sans-Serif" font-size="10.00">+</text>
<text text-anchor="start" x="40.5" y="-21.5" font-family="Helvetica,sans-Serif" font-size="10.00">draw</text>
<text text-anchor="start" x="71" y="-6.5" font-family="Helvetica,sans-Serif" font-size="10.00"> </text>
<polygon fill="#666666" stroke="#666666" points="0.5,-76.5 0.5,-76.5 145.5,-76.5 145.5,-76.5 0.5,-76.5"/>
<polygon fill="#666666" stroke="#666666" points="0.5,-16.5 0.5,-16.5 38.5,-16.5 38.5,-16.5 0.5,-16.5"/>
<polygon fill="#666666" stroke="#666666" points="38.5,-16.5 38.5,-16.5 145.5,-16.5 145.5,-16.5 38.5,-16.5"/>
<polygon fill="none" stroke="#666666" points="0,0 0,-105 145,-105 145,0 0,0"/>
</a>
</g>
</g>
<!-- Node2 -->
<g id="Node000002" class="node">
<title>Node2</title>
<g id="a_Node000002"><a xlink:title=" ">
<polygon fill="white" stroke="transparent" points="91.5,-190 53.5,-190 53.5,-141 91.5,-141 91.5,-190"/>
<text text-anchor="start" x="58.5" y="-177.5" font-family="Helvetica,sans-Serif" font-size="10.00">Menu</text>
<text text-anchor="start" x="70.5" y="-162.5" font-family="Helvetica,sans-Serif" font-size="10.00"> </text>
<text text-anchor="start" x="70.5" y="-147.5" font-family="Helvetica,sans-Serif" font-size="10.00"> </text>
<polygon fill="#666666" stroke="#666666" points="53.5,-172.5 53.5,-172.5 91.5,-172.5 91.5,-172.5 53.5,-172.5"/>
<polygon fill="#666666" stroke="#666666" points="53.5,-157.5 53.5,-157.5 91.5,-157.5 91.5,-157.5 53.5,-157.5"/>
<polygon fill="none" stroke="#666666" points="53.5,-141 53.5,-190 91.5,-190 91.5,-141 53.5,-141"/>
</a>
</g>
</g>
<!-- Node2&#45;&gt;Node1 -->
<g id="edge2_Node000001_Node000002" class="edge">
<title>Node2&#45;&gt;Node1</title>
<g id="a_edge2_Node000001_Node000002"><a xlink:title=" ">
<path fill="none" stroke="#63b8ff" d="M72.5,-130.85C72.5,-122.79 72.5,-114 72.5,-105.32"/>
<polygon fill="none" stroke="#63b8ff" points="69,-130.96 72.5,-140.96 76,-130.96 69,-130.96"/>
</a>
</g>
</g>
</g>
</svg>
