<?xml version="1.0" encoding="UTF-8" standalone="no"?>
<!DOCTYPE svg PUBLIC "-//W3C//DTD SVG 1.1//EN"
 "http://www.w3.org/Graphics/SVG/1.1/DTD/svg11.dtd">
<!-- Generated by graphviz version 2.43.0 (0)
 -->
<!-- Title: cam.gcodeimportparser.GcodeModel.warn Pages: 1 -->
<svg width="376pt" height="86pt"
 viewBox="0.00 0.00 376.00 86.00" xmlns="http://www.w3.org/2000/svg" xmlns:xlink="http://www.w3.org/1999/xlink">
<g id="graph0" class="graph" transform="scale(1 1) rotate(0) translate(4 82)">
<title>cam.gcodeimportparser.GcodeModel.warn</title>
<!-- Node1 -->
<g id="Node000001" class="node">
<title>Node1</title>
<g id="a_Node000001"><a xlink:title=" ">
<polygon fill="#999999" stroke="#666666" points="368,-54 202,-54 202,-24 368,-24 368,-54"/>
<text text-anchor="start" x="210" y="-42" font-family="Helvetica,sans-Serif" font-size="10.00">cam.gcodeimportparser.Gcode</text>
<text text-anchor="middle" x="285" y="-31" font-family="Helvetica,sans-Serif" font-size="10.00">Model.warn</text>
</a>
</g>
</g>
<!-- Node1&#45;&gt;Node1 -->
<g id="edge6_Node000001_Node000001" class="edge">
<title>Node1&#45;&gt;Node1</title>
<g id="a_edge6_Node000001_Node000001"><a xlink:title=" ">
<path fill="none" stroke="#63b8ff" d="M320.36,-64.6C315.53,-68.97 303.74,-72 285,-72 253.44,-72 241.6,-63.41 249.49,-54.28"/>
<polygon fill="#63b8ff" stroke="#63b8ff" points="323.86,-64.33 320.51,-54.28 316.86,-64.22 323.86,-64.33"/>
</a>
</g>
</g>
<!-- Node2 -->
<g id="Node000002" class="node">
<title>Node2</title>
<g id="a_Node000002"><a xlink:href="$classcam_1_1gcodeimportparser_1_1GcodeModel.html#a51ce8c24cd510056704e5287c4fbf71a" xlink:title=" ">
<polygon fill="white" stroke="#666666" points="166,-78 0,-78 0,-48 166,-48 166,-78"/>
<text text-anchor="start" x="8" y="-66" font-family="Helvetica,sans-Serif" font-size="10.00">cam.gcodeimportparser.Gcode</text>
<text text-anchor="middle" x="83" y="-55" font-family="Helvetica,sans-Serif" font-size="10.00">Model.do_G1</text>
</a>
</g>
</g>
<!-- Node1&#45;&gt;Node2 -->
<g id="edge4_Node000001_Node000002" class="edge">
<title>Node1&#45;&gt;Node2</title>
<g id="a_edge4_Node000001_Node000002"><a xlink:title=" ">
<path fill="none" stroke="#63b8ff" d="M191.81,-50.06C183.27,-51.09 174.66,-52.12 166.22,-53.13"/>
<polygon fill="#63b8ff" stroke="#63b8ff" points="192.27,-53.53 201.79,-48.87 191.44,-46.58 192.27,-53.53"/>
</a>
</g>
</g>
<!-- Node3 -->
<g id="Node000003" class="node">
<title>Node3</title>
<g id="a_Node000003"><a xlink:href="$classcam_1_1gcodeimportparser_1_1GcodeModel.html#a8825aa0c0c4b676428a0a7b547e18a38" xlink:title=" ">
<polygon fill="white" stroke="#666666" points="166,-30 0,-30 0,0 166,0 166,-30"/>
<text text-anchor="start" x="8" y="-18" font-family="Helvetica,sans-Serif" font-size="10.00">cam.gcodeimportparser.Gcode</text>
<text text-anchor="middle" x="83" y="-7" font-family="Helvetica,sans-Serif" font-size="10.00">Model.do_G92</text>
</a>
</g>
</g>
<!-- Node1&#45;&gt;Node3 -->
<g id="edge5_Node000001_Node000003" class="edge">
<title>Node1&#45;&gt;Node3</title>
<g id="a_edge5_Node000001_Node000003"><a xlink:title=" ">
<path fill="none" stroke="#63b8ff" d="M191.81,-27.94C183.27,-26.91 174.66,-25.88 166.22,-24.87"/>
<polygon fill="#63b8ff" stroke="#63b8ff" points="191.44,-31.42 201.79,-29.13 192.27,-24.47 191.44,-31.42"/>
</a>
</g>
</g>
</g>
</svg>
