<?xml version="1.0" encoding="UTF-8" standalone="no"?>
<!DOCTYPE svg PUBLIC "-//W3C//DTD SVG 1.1//EN"
 "http://www.w3.org/Graphics/SVG/1.1/DTD/svg11.dtd">
<!-- Generated by graphviz version 2.43.0 (0)
 -->
<!-- Title: cam.nc.iso.Creator.write_misc Pages: 1 -->
<svg width="1275pt" height="904pt"
 viewBox="0.00 0.00 1275.00 903.50" xmlns="http://www.w3.org/2000/svg" xmlns:xlink="http://www.w3.org/1999/xlink">
<g id="graph0" class="graph" transform="scale(1 1) rotate(0) translate(4 899.5)">
<title>cam.nc.iso.Creator.write_misc</title>
<!-- Node1 -->
<g id="Node000001" class="node">
<title>Node1</title>
<g id="a_Node000001"><a xlink:title=" ">
<polygon fill="#999999" stroke="#666666" points="164,-535.5 0,-535.5 0,-516.5 164,-516.5 164,-535.5"/>
<text text-anchor="middle" x="82" y="-523.5" font-family="Helvetica,sans-Serif" font-size="10.00">cam.nc.iso.Creator.write_misc</text>
</a>
</g>
</g>
<!-- Node2 -->
<g id="Node000002" class="node">
<title>Node2</title>
<g id="a_Node000002"><a xlink:href="$classcam_1_1nc_1_1emc2_1_1Creator.html#a47a9e4f5f35681f580765bba2f0f97a5" xlink:title=" ">
<polygon fill="white" stroke="#666666" points="376.5,-895.5 222.5,-895.5 222.5,-876.5 376.5,-876.5 376.5,-895.5"/>
<text text-anchor="middle" x="299.5" y="-883.5" font-family="Helvetica,sans-Serif" font-size="10.00">cam.nc.emc2.Creator.SPACE</text>
</a>
</g>
</g>
<!-- Node1&#45;&gt;Node2 -->
<g id="edge44_Node000001_Node000002" class="edge">
<title>Node1&#45;&gt;Node2</title>
<g id="a_edge44_Node000001_Node000002"><a xlink:title=" ">
<path fill="none" stroke="#63b8ff" d="M83.02,-535.78C83.71,-581.5 93.01,-775.86 200,-868 203.93,-871.39 208.29,-874.23 212.92,-876.61"/>
<polygon fill="#63b8ff" stroke="#63b8ff" points="211.54,-879.83 222.1,-880.63 214.35,-873.41 211.54,-879.83"/>
</a>
</g>
</g>
<!-- Node3 -->
<g id="Node000003" class="node">
<title>Node3</title>
<g id="a_Node000003"><a xlink:href="$classcam_1_1nc_1_1emc2b_1_1Creator.html#abff5586e78bb91681bd41dafdea5a9e7" xlink:title=" ">
<polygon fill="white" stroke="#666666" points="379.5,-858.5 219.5,-858.5 219.5,-839.5 379.5,-839.5 379.5,-858.5"/>
<text text-anchor="middle" x="299.5" y="-846.5" font-family="Helvetica,sans-Serif" font-size="10.00">cam.nc.emc2b.Creator.SPACE</text>
</a>
</g>
</g>
<!-- Node1&#45;&gt;Node3 -->
<g id="edge45_Node000001_Node000003" class="edge">
<title>Node1&#45;&gt;Node3</title>
<g id="a_edge45_Node000001_Node000003"><a xlink:title=" ">
<path fill="none" stroke="#63b8ff" d="M83.49,-535.53C86.21,-577.69 103.08,-748.87 200,-830 203.14,-832.63 206.53,-834.94 210.11,-836.96"/>
<polygon fill="#63b8ff" stroke="#63b8ff" points="208.8,-840.21 219.33,-841.41 211.85,-833.91 208.8,-840.21"/>
</a>
</g>
</g>
<!-- Node4 -->
<g id="Node000004" class="node">
<title>Node4</title>
<g id="a_Node000004"><a xlink:href="$classcam_1_1nc_1_1emc2tap_1_1CodesEMC2.html#a6a0d71a1c6e9f8a80228dc220a0e57ca" xlink:title=" ">
<polygon fill="white" stroke="#666666" points="380,-821 219,-821 219,-791 380,-791 380,-821"/>
<text text-anchor="start" x="227" y="-809" font-family="Helvetica,sans-Serif" font-size="10.00">cam.nc.emc2tap.CodesEMC2.</text>
<text text-anchor="middle" x="299.5" y="-798" font-family="Helvetica,sans-Serif" font-size="10.00">SPACE</text>
</a>
</g>
</g>
<!-- Node1&#45;&gt;Node4 -->
<g id="edge46_Node000001_Node000004" class="edge">
<title>Node1&#45;&gt;Node4</title>
<g id="a_edge46_Node000001_Node000004"><a xlink:title=" ">
<path fill="none" stroke="#63b8ff" d="M84.37,-535.7C90.28,-573.68 117.12,-713.52 200,-782 202.96,-784.44 206.12,-786.64 209.44,-788.62"/>
<polygon fill="#63b8ff" stroke="#63b8ff" points="208.06,-791.85 218.54,-793.38 211.3,-785.65 208.06,-791.85"/>
</a>
</g>
</g>
<!-- Node5 -->
<g id="Node000005" class="node">
<title>Node5</title>
<g id="a_Node000005"><a xlink:href="$classcam_1_1nc_1_1heiden_1_1Creator.html#a2c4277ffddaea0f92c906c6744f7a3bd" xlink:title="Codes.">
<polygon fill="white" stroke="#666666" points="379.5,-772.5 219.5,-772.5 219.5,-753.5 379.5,-753.5 379.5,-772.5"/>
<text text-anchor="middle" x="299.5" y="-760.5" font-family="Helvetica,sans-Serif" font-size="10.00">cam.nc.heiden.Creator.SPACE</text>
</a>
</g>
</g>
<!-- Node1&#45;&gt;Node5 -->
<g id="edge47_Node000001_Node000005" class="edge">
<title>Node1&#45;&gt;Node5</title>
<g id="a_edge47_Node000001_Node000005"><a xlink:title=" ">
<path fill="none" stroke="#63b8ff" d="M85.09,-535.79C93.06,-570.53 124.93,-688.76 200,-744 203.22,-746.37 206.66,-748.47 210.25,-750.32"/>
<polygon fill="#63b8ff" stroke="#63b8ff" points="208.88,-753.55 219.43,-754.45 211.75,-747.16 208.88,-753.55"/>
</a>
</g>
</g>
<!-- Node6 -->
<g id="Node000006" class="node">
<title>Node6</title>
<g id="a_Node000006"><a xlink:href="$classcam_1_1nc_1_1heiden530_1_1Creator.html#aa64b19b0edc2ac1f2d568b09ca2aebcb" xlink:title="Codes.">
<polygon fill="white" stroke="#666666" points="373,-735 226,-735 226,-705 373,-705 373,-735"/>
<text text-anchor="start" x="234" y="-723" font-family="Helvetica,sans-Serif" font-size="10.00">cam.nc.heiden530.Creator.</text>
<text text-anchor="middle" x="299.5" y="-712" font-family="Helvetica,sans-Serif" font-size="10.00">SPACE</text>
</a>
</g>
</g>
<!-- Node1&#45;&gt;Node6 -->
<g id="edge48_Node000001_Node000006" class="edge">
<title>Node1&#45;&gt;Node6</title>
<g id="a_edge48_Node000001_Node000006"><a xlink:title=" ">
<path fill="none" stroke="#63b8ff" d="M86.64,-535.52C98.26,-564.6 137.46,-652.89 200,-696 205.14,-699.54 210.74,-702.56 216.58,-705.14"/>
<polygon fill="#63b8ff" stroke="#63b8ff" points="215.33,-708.41 225.92,-708.83 217.9,-701.9 215.33,-708.41"/>
</a>
</g>
</g>
<!-- Node7 -->
<g id="Node000007" class="node">
<title>Node7</title>
<g id="a_Node000007"><a xlink:href="$classcam_1_1nc_1_1iso_1_1Creator.html#a79463d437baaaf23c828a2c9e62393f3" xlink:title=" ">
<polygon fill="white" stroke="#666666" points="370,-686.5 229,-686.5 229,-667.5 370,-667.5 370,-686.5"/>
<text text-anchor="middle" x="299.5" y="-674.5" font-family="Helvetica,sans-Serif" font-size="10.00">cam.nc.iso.Creator.SPACE</text>
</a>
</g>
</g>
<!-- Node1&#45;&gt;Node7 -->
<g id="edge49_Node000001_Node000007" class="edge">
<title>Node1&#45;&gt;Node7</title>
<g id="a_edge49_Node000001_Node000007"><a xlink:title=" ">
<path fill="none" stroke="#63b8ff" d="M88.37,-535.56C102.83,-560.32 145.19,-626.76 200,-658 205.95,-661.39 212.39,-664.19 219.04,-666.49"/>
<polygon fill="#63b8ff" stroke="#63b8ff" points="218.3,-669.93 228.88,-669.53 220.36,-663.24 218.3,-669.93"/>
</a>
</g>
</g>
<!-- Node15 -->
<g id="Node000015" class="node">
<title>Node15</title>
<g id="a_Node000015"><a xlink:href="$classcam_1_1nc_1_1makerbot__codes_1_1Codes.html#a497077e0e500cc8f419b8f3f61f008b4" xlink:title=" ">
<polygon fill="white" stroke="#666666" points="385,-649 214,-649 214,-619 385,-619 385,-649"/>
<text text-anchor="start" x="222" y="-637" font-family="Helvetica,sans-Serif" font-size="10.00">cam.nc.makerbot_codes.Codes.</text>
<text text-anchor="middle" x="299.5" y="-626" font-family="Helvetica,sans-Serif" font-size="10.00">SPACE</text>
</a>
</g>
</g>
<!-- Node1&#45;&gt;Node15 -->
<g id="edge57_Node000001_Node000015" class="edge">
<title>Node1&#45;&gt;Node15</title>
<g id="a_edge57_Node000001_Node000015"><a xlink:title=" ">
<path fill="none" stroke="#63b8ff" d="M93.41,-535.64C112.83,-553.11 156.6,-590.05 200,-610 204.42,-612.03 209.02,-613.9 213.73,-615.62"/>
<polygon fill="#63b8ff" stroke="#63b8ff" points="212.92,-619.04 223.51,-618.96 215.17,-612.42 212.92,-619.04"/>
</a>
</g>
</g>
<!-- Node16 -->
<g id="Node000016" class="node">
<title>Node16</title>
<g id="a_Node000016"><a xlink:href="$classcam_1_1nc_1_1series1_1_1Creator.html#a75918d23eef609baab85058fda3050d5" xlink:title=" ">
<polygon fill="white" stroke="#666666" points="380.5,-600.5 218.5,-600.5 218.5,-581.5 380.5,-581.5 380.5,-600.5"/>
<text text-anchor="middle" x="299.5" y="-588.5" font-family="Helvetica,sans-Serif" font-size="10.00">cam.nc.series1.Creator.SPACE</text>
</a>
</g>
</g>
<!-- Node1&#45;&gt;Node16 -->
<g id="edge58_Node000001_Node000016" class="edge">
<title>Node1&#45;&gt;Node16</title>
<g id="a_edge58_Node000001_Node000016"><a xlink:title=" ">
<path fill="none" stroke="#63b8ff" d="M104.15,-535.69C127.28,-545.95 165.62,-562.02 200,-572 209.47,-574.75 219.57,-577.21 229.56,-579.38"/>
<polygon fill="#63b8ff" stroke="#63b8ff" points="228.98,-582.84 239.48,-581.45 230.41,-575.98 228.98,-582.84"/>
</a>
</g>
</g>
<!-- Node17 -->
<g id="Node000017" class="node">
<title>Node17</title>
<g id="a_Node000017"><a xlink:href="$classcam_1_1nc_1_1shopbot__mtc_1_1Creator.html#a1512dbb5d0140eb216ed709a542261ac" xlink:title="Codes.">
<polygon fill="white" stroke="#666666" points="379,-563 220,-563 220,-533 379,-533 379,-563"/>
<text text-anchor="start" x="228" y="-551" font-family="Helvetica,sans-Serif" font-size="10.00">cam.nc.shopbot_mtc.Creator.</text>
<text text-anchor="middle" x="299.5" y="-540" font-family="Helvetica,sans-Serif" font-size="10.00">SPACE</text>
</a>
</g>
</g>
<!-- Node1&#45;&gt;Node17 -->
<g id="edge59_Node000001_Node000017" class="edge">
<title>Node1&#45;&gt;Node17</title>
<g id="a_edge59_Node000001_Node000017"><a xlink:title=" ">
<path fill="none" stroke="#63b8ff" d="M164.16,-534.29C179,-535.8 194.55,-537.39 209.59,-538.92"/>
<polygon fill="#63b8ff" stroke="#63b8ff" points="209.6,-542.44 219.91,-539.98 210.31,-535.48 209.6,-542.44"/>
</a>
</g>
</g>
<!-- Node18 -->
<g id="Node000018" class="node">
<title>Node18</title>
<g id="a_Node000018"><a xlink:href="$classcam_1_1nc_1_1tnc151_1_1Creator.html#af5d9e50b2ff0e73cd7524e2145d55d76" xlink:title=" ">
<polygon fill="white" stroke="#666666" points="379.5,-514.5 219.5,-514.5 219.5,-495.5 379.5,-495.5 379.5,-514.5"/>
<text text-anchor="middle" x="299.5" y="-502.5" font-family="Helvetica,sans-Serif" font-size="10.00">cam.nc.tnc151.Creator.SPACE</text>
</a>
</g>
</g>
<!-- Node1&#45;&gt;Node18 -->
<g id="edge60_Node000001_Node000018" class="edge">
<title>Node1&#45;&gt;Node18</title>
<g id="a_edge60_Node000001_Node000018"><a xlink:title=" ">
<path fill="none" stroke="#63b8ff" d="M164.16,-518.09C178.8,-516.66 194.14,-515.17 209,-513.72"/>
<polygon fill="#63b8ff" stroke="#63b8ff" points="209.58,-517.18 219.19,-512.73 208.9,-510.21 209.58,-517.18"/>
</a>
</g>
</g>
<!-- Node19 -->
<g id="Node000019" class="node">
<title>Node19</title>
<g id="a_Node000019"><a xlink:href="$classcam_1_1nc_1_1cad__nc__read_1_1Parser.html#adcf2f47949df29f187f27fe985884633" xlink:title=" ">
<polygon fill="white" stroke="#666666" points="387.5,-459.5 211.5,-459.5 211.5,-440.5 387.5,-440.5 387.5,-459.5"/>
<text text-anchor="middle" x="299.5" y="-447.5" font-family="Helvetica,sans-Serif" font-size="10.00">cam.nc.cad_nc_read.Parser.write</text>
</a>
</g>
</g>
<!-- Node1&#45;&gt;Node19 -->
<g id="edge61_Node000001_Node000019" class="edge">
<title>Node1&#45;&gt;Node19</title>
<g id="a_edge61_Node000001_Node000019"><a xlink:title=" ">
<path fill="none" stroke="#63b8ff" d="M110.29,-516.37C148.75,-502.81 218.97,-478.05 261.92,-462.9"/>
<polygon fill="#63b8ff" stroke="#63b8ff" points="263.16,-466.17 271.43,-459.55 260.83,-459.57 263.16,-466.17"/>
</a>
</g>
</g>
<!-- Node20 -->
<g id="Node000020" class="node">
<title>Node20</title>
<g id="a_Node000020"><a xlink:href="$classcam_1_1nc_1_1hxml__writer_1_1HxmlWriter.html#aed6f93c98cb8c0e3f3e826e75b6d6f15" xlink:title=" ">
<polygon fill="white" stroke="#666666" points="399,-404.5 200,-404.5 200,-385.5 399,-385.5 399,-404.5"/>
<text text-anchor="middle" x="299.5" y="-392.5" font-family="Helvetica,sans-Serif" font-size="10.00">cam.nc.hxml_writer.HxmlWriter.write</text>
</a>
</g>
</g>
<!-- Node1&#45;&gt;Node20 -->
<g id="edge63_Node000001_Node000020" class="edge">
<title>Node1&#45;&gt;Node20</title>
<g id="a_edge63_Node000001_Node000020"><a xlink:title=" ">
<path fill="none" stroke="#63b8ff" d="M92.83,-516.25C112,-497.68 156.31,-456.9 200,-432 217.41,-422.08 237.98,-413.87 255.81,-407.72"/>
<polygon fill="#63b8ff" stroke="#63b8ff" points="257.02,-411.01 265.4,-404.52 254.8,-404.37 257.02,-411.01"/>
</a>
</g>
</g>
<!-- Node21 -->
<g id="Node000021" class="node">
<title>Node21</title>
<g id="a_Node000021"><a xlink:href="$classcam_1_1nc_1_1iso_1_1Creator.html#abb81af5a0bdddfed387b71b68a51cc7a" xlink:title="Internals.">
<polygon fill="white" stroke="#666666" points="367,-367.5 232,-367.5 232,-348.5 367,-348.5 367,-367.5"/>
<text text-anchor="middle" x="299.5" y="-355.5" font-family="Helvetica,sans-Serif" font-size="10.00">cam.nc.iso.Creator.write</text>
</a>
</g>
</g>
<!-- Node1&#45;&gt;Node21 -->
<g id="edge65_Node000001_Node000021" class="edge">
<title>Node1&#45;&gt;Node21</title>
<g id="a_edge65_Node000001_Node000021"><a xlink:title=" ">
<path fill="none" stroke="#63b8ff" d="M87.45,-516.4C100.47,-489.46 141.32,-412.8 200,-377 206.87,-372.81 214.47,-369.51 222.31,-366.92"/>
<polygon fill="#63b8ff" stroke="#63b8ff" points="223.35,-370.27 231.96,-364.1 221.38,-363.55 223.35,-370.27"/>
</a>
</g>
</g>
<!-- Node22 -->
<g id="Node000022" class="node">
<title>Node22</title>
<g id="a_Node000022"><a xlink:href="$classcam_1_1nc_1_1nc_1_1Creator.html#a80f2134add83bfaaf2870d075d36ed8a" xlink:title=" ">
<polygon fill="white" stroke="#666666" points="365.5,-312.5 233.5,-312.5 233.5,-293.5 365.5,-293.5 365.5,-312.5"/>
<text text-anchor="middle" x="299.5" y="-300.5" font-family="Helvetica,sans-Serif" font-size="10.00">cam.nc.nc.Creator.write</text>
</a>
</g>
</g>
<!-- Node1&#45;&gt;Node22 -->
<g id="edge66_Node000001_Node000022" class="edge">
<title>Node1&#45;&gt;Node22</title>
<g id="a_edge66_Node000001_Node000022"><a xlink:title=" ">
<path fill="none" stroke="#63b8ff" d="M86.46,-516.37C97.85,-486.02 137.04,-391.37 200,-340 213.25,-329.19 229.97,-321.34 245.86,-315.73"/>
<polygon fill="#63b8ff" stroke="#63b8ff" points="247.2,-318.98 255.6,-312.52 245.01,-312.33 247.2,-318.98"/>
</a>
</g>
</g>
<!-- Node23 -->
<g id="Node000023" class="node">
<title>Node23</title>
<g id="a_Node000023"><a xlink:href="$classcam_1_1nc_1_1nclathe__read_1_1Parser.html#ab5ea283b461b57e48c8d5b0ad0a45694" xlink:title=" ">
<polygon fill="white" stroke="#666666" points="388.5,-257.5 210.5,-257.5 210.5,-238.5 388.5,-238.5 388.5,-257.5"/>
<text text-anchor="middle" x="299.5" y="-245.5" font-family="Helvetica,sans-Serif" font-size="10.00">cam.nc.nclathe_read.Parser.write</text>
</a>
</g>
</g>
<!-- Node1&#45;&gt;Node23 -->
<g id="edge68_Node000001_Node000023" class="edge">
<title>Node1&#45;&gt;Node23</title>
<g id="a_edge68_Node000001_Node000023"><a xlink:title=" ">
<path fill="none" stroke="#63b8ff" d="M85.02,-516.16C92.91,-480.04 125.06,-353.3 200,-285 211.91,-274.15 227.3,-266.38 242.36,-260.86"/>
<polygon fill="#63b8ff" stroke="#63b8ff" points="243.82,-264.07 252.17,-257.55 241.58,-257.44 243.82,-264.07"/>
</a>
</g>
</g>
<!-- Node24 -->
<g id="Node000024" class="node">
<title>Node24</title>
<g id="a_Node000024"><a xlink:href="$classcam_1_1nc_1_1recreator_1_1Redirector.html#a79cc974683588db3ef959189e7552c0d" xlink:title="Programs.">
<polygon fill="white" stroke="#666666" points="389,-202.5 210,-202.5 210,-183.5 389,-183.5 389,-202.5"/>
<text text-anchor="middle" x="299.5" y="-190.5" font-family="Helvetica,sans-Serif" font-size="10.00">cam.nc.recreator.Redirector.write</text>
</a>
</g>
</g>
<!-- Node1&#45;&gt;Node24 -->
<g id="edge70_Node000001_Node000024" class="edge">
<title>Node1&#45;&gt;Node24</title>
<g id="a_edge70_Node000001_Node000024"><a xlink:title=" ">
<path fill="none" stroke="#63b8ff" d="M84.01,-516.27C88.78,-475.44 112.52,-316 200,-230 211.11,-219.07 225.76,-211.32 240.35,-205.84"/>
<polygon fill="#63b8ff" stroke="#63b8ff" points="241.57,-209.12 249.89,-202.56 239.29,-202.5 241.57,-209.12"/>
</a>
</g>
</g>
<!-- Node25 -->
<g id="Node000025" class="node">
<title>Node25</title>
<g id="a_Node000025"><a xlink:href="$classcam_1_1nc_1_1format_1_1Address.html#aa21f0ffeb829537d9103759276c01a4b" xlink:title=" ">
<polygon fill="white" stroke="#666666" points="378.5,-165.5 220.5,-165.5 220.5,-146.5 378.5,-146.5 378.5,-165.5"/>
<text text-anchor="middle" x="299.5" y="-153.5" font-family="Helvetica,sans-Serif" font-size="10.00">cam.nc.format.Address.write</text>
</a>
</g>
</g>
<!-- Node1&#45;&gt;Node25 -->
<g id="edge72_Node000001_Node000025" class="edge">
<title>Node1&#45;&gt;Node25</title>
<g id="a_edge72_Node000001_Node000025"><a xlink:title=" ">
<path fill="none" stroke="#63b8ff" d="M82.95,-516.31C83.27,-470.1 91.08,-270.49 200,-175 203.31,-172.09 206.94,-169.58 210.77,-167.4"/>
<polygon fill="#63b8ff" stroke="#63b8ff" points="212.58,-170.41 220.07,-162.92 209.54,-164.11 212.58,-170.41"/>
</a>
</g>
</g>
<!-- Node36 -->
<g id="Node000036" class="node">
<title>Node36</title>
<g id="a_Node000036"><a xlink:href="$classcam_1_1nc_1_1format_1_1AddressPlusMinus.html#aaacea4c7b677f0a602dbc9023ff365d2" xlink:title=" ">
<polygon fill="white" stroke="#666666" points="374.5,-128 224.5,-128 224.5,-98 374.5,-98 374.5,-128"/>
<text text-anchor="start" x="232.5" y="-116" font-family="Helvetica,sans-Serif" font-size="10.00">cam.nc.format.AddressPlus</text>
<text text-anchor="middle" x="299.5" y="-105" font-family="Helvetica,sans-Serif" font-size="10.00">Minus.write</text>
</a>
</g>
</g>
<!-- Node1&#45;&gt;Node36 -->
<g id="edge85_Node000001_Node000036" class="edge">
<title>Node1&#45;&gt;Node36</title>
<g id="a_edge85_Node000001_Node000036"><a xlink:title=" ">
<path fill="none" stroke="#63b8ff" d="M82.69,-516.4C81.69,-467.82 83.83,-247.15 200,-137 204.42,-132.81 209.44,-129.32 214.82,-126.4"/>
<polygon fill="#63b8ff" stroke="#63b8ff" points="216.6,-129.43 224.18,-122.03 213.64,-123.09 216.6,-129.43"/>
</a>
</g>
</g>
<!-- Node8 -->
<g id="Node000008" class="node">
<title>Node8</title>
<g id="a_Node000008"><a xlink:href="$classcam_1_1nc_1_1anilam__crusader__m_1_1Creator.html#a36f873a0248bcaa4cf2cfb220dc1b00c" xlink:title="Codes.">
<polygon fill="white" stroke="#666666" points="595,-809 459,-809 459,-779 595,-779 595,-809"/>
<text text-anchor="start" x="467" y="-797" font-family="Helvetica,sans-Serif" font-size="10.00">cam.nc.anilam_crusader</text>
<text text-anchor="middle" x="527" y="-786" font-family="Helvetica,sans-Serif" font-size="10.00">_m.Creator.SPACE_STR</text>
</a>
</g>
</g>
<!-- Node7&#45;&gt;Node8 -->
<g id="edge50_Node000007_Node000008" class="edge">
<title>Node7&#45;&gt;Node8</title>
<g id="a_edge50_Node000007_Node000008"><a xlink:title=" ">
<path fill="none" stroke="#63b8ff" d="M370.21,-682.02C380.57,-685.07 390.57,-689.53 399,-696 428.02,-718.26 406.74,-746.78 435,-770 439.34,-773.57 444.15,-776.61 449.24,-779.2"/>
<polygon fill="#63b8ff" stroke="#63b8ff" points="448.08,-782.52 458.64,-783.4 450.93,-776.12 448.08,-782.52"/>
</a>
</g>
</g>
<!-- Node9 -->
<g id="Node000009" class="node">
<title>Node9</title>
<g id="a_Node000009"><a xlink:href="$classcam_1_1nc_1_1fadal_1_1Creator.html#a97a50724edf2662eb4fe76b15516b638" xlink:title="Codes.">
<polygon fill="white" stroke="#666666" points="615,-760.5 439,-760.5 439,-741.5 615,-741.5 615,-760.5"/>
<text text-anchor="middle" x="527" y="-748.5" font-family="Helvetica,sans-Serif" font-size="10.00">cam.nc.fadal.Creator.SPACE_STR</text>
</a>
</g>
</g>
<!-- Node7&#45;&gt;Node9 -->
<g id="edge51_Node000007_Node000009" class="edge">
<title>Node7&#45;&gt;Node9</title>
<g id="a_edge51_Node000007_Node000009"><a xlink:title=" ">
<path fill="none" stroke="#63b8ff" d="M370.17,-684.91C380.19,-687.6 390.11,-691.2 399,-696 419.19,-706.9 414.83,-722.06 435,-733 438.31,-734.8 441.77,-736.41 445.33,-737.87"/>
<polygon fill="#63b8ff" stroke="#63b8ff" points="444.36,-741.24 454.95,-741.37 446.75,-734.66 444.36,-741.24"/>
</a>
</g>
</g>
<!-- Node10 -->
<g id="Node000010" class="node">
<title>Node10</title>
<g id="a_Node000010"><a xlink:href="$classcam_1_1nc_1_1gravos_1_1Creator.html#ac0bc0d26e8a92a65c0f33d696ad850f5" xlink:title="Codes.">
<polygon fill="white" stroke="#666666" points="619,-723.5 435,-723.5 435,-704.5 619,-704.5 619,-723.5"/>
<text text-anchor="middle" x="527" y="-711.5" font-family="Helvetica,sans-Serif" font-size="10.00">cam.nc.gravos.Creator.SPACE_STR</text>
</a>
</g>
</g>
<!-- Node7&#45;&gt;Node10 -->
<g id="edge52_Node000007_Node000010" class="edge">
<title>Node7&#45;&gt;Node10</title>
<g id="a_edge52_Node000007_Node000010"><a xlink:title=" ">
<path fill="none" stroke="#63b8ff" d="M358.57,-686.53C388.83,-691.49 426.03,-697.6 457.67,-702.79"/>
<polygon fill="#63b8ff" stroke="#63b8ff" points="457.3,-706.27 467.73,-704.44 458.43,-699.37 457.3,-706.27"/>
</a>
</g>
</g>
<!-- Node11 -->
<g id="Node000011" class="node">
<title>Node11</title>
<g id="a_Node000011"><a xlink:href="$classcam_1_1nc_1_1iso_1_1Creator.html#aa481cf1e394988751640fd5ce5af991e" xlink:title="Codes.">
<polygon fill="white" stroke="#666666" points="609.5,-686.5 444.5,-686.5 444.5,-667.5 609.5,-667.5 609.5,-686.5"/>
<text text-anchor="middle" x="527" y="-674.5" font-family="Helvetica,sans-Serif" font-size="10.00">cam.nc.iso.Creator.SPACE_STR</text>
</a>
</g>
</g>
<!-- Node7&#45;&gt;Node11 -->
<g id="edge53_Node000007_Node000011" class="edge">
<title>Node7&#45;&gt;Node11</title>
<g id="a_edge53_Node000007_Node000011"><a xlink:title=" ">
<path fill="none" stroke="#63b8ff" d="M370.31,-677C390.52,-677 412.89,-677 434.23,-677"/>
<polygon fill="#63b8ff" stroke="#63b8ff" points="434.28,-680.5 444.28,-677 434.28,-673.5 434.28,-680.5"/>
</a>
</g>
</g>
<!-- Node12 -->
<g id="Node000012" class="node">
<title>Node12</title>
<g id="a_Node000012"><a xlink:href="$classcam_1_1nc_1_1lynx__otter__o_1_1Creator.html#a73b176561e066abcdb256a1bf53a5fcc" xlink:title="Codes.">
<polygon fill="white" stroke="#666666" points="605.5,-649 448.5,-649 448.5,-619 605.5,-619 605.5,-649"/>
<text text-anchor="start" x="456.5" y="-637" font-family="Helvetica,sans-Serif" font-size="10.00">cam.nc.lynx_otter_o.Creator.</text>
<text text-anchor="middle" x="527" y="-626" font-family="Helvetica,sans-Serif" font-size="10.00">SPACE_STR</text>
</a>
</g>
</g>
<!-- Node7&#45;&gt;Node12 -->
<g id="edge54_Node000007_Node000012" class="edge">
<title>Node7&#45;&gt;Node12</title>
<g id="a_edge54_Node000007_Node000012"><a xlink:title=" ">
<path fill="none" stroke="#63b8ff" d="M350.55,-667.46C376.31,-662.54 408.48,-656.41 438.21,-650.74"/>
<polygon fill="#63b8ff" stroke="#63b8ff" points="439.02,-654.15 448.18,-648.84 437.7,-647.27 439.02,-654.15"/>
</a>
</g>
</g>
<!-- Node13 -->
<g id="Node000013" class="node">
<title>Node13</title>
<g id="a_Node000013"><a xlink:href="$classcam_1_1nc_1_1mach3_1_1Creator.html#aa461d578afa76c5af9bb5562b79d955a" xlink:title="Codes.">
<polygon fill="white" stroke="#666666" points="619,-600.5 435,-600.5 435,-581.5 619,-581.5 619,-600.5"/>
<text text-anchor="middle" x="527" y="-588.5" font-family="Helvetica,sans-Serif" font-size="10.00">cam.nc.mach3.Creator.SPACE_STR</text>
</a>
</g>
</g>
<!-- Node7&#45;&gt;Node13 -->
<g id="edge55_Node000007_Node000013" class="edge">
<title>Node7&#45;&gt;Node13</title>
<g id="a_edge55_Node000007_Node000013"><a xlink:title=" ">
<path fill="none" stroke="#63b8ff" d="M370.24,-670.24C380.36,-667.4 390.29,-663.45 399,-658 421.61,-643.86 412.5,-624.31 435,-610 438.35,-607.87 441.9,-605.97 445.57,-604.28"/>
<polygon fill="#63b8ff" stroke="#63b8ff" points="446.97,-607.49 454.94,-600.5 444.35,-601 446.97,-607.49"/>
</a>
</g>
</g>
<!-- Node14 -->
<g id="Node000014" class="node">
<title>Node14</title>
<g id="a_Node000014"><a xlink:href="$classcam_1_1nc_1_1winpc_1_1Creator.html#aae1cb93a5dd430719105fa03a054f654" xlink:title="Codes.">
<polygon fill="white" stroke="#666666" points="616.5,-563.5 437.5,-563.5 437.5,-544.5 616.5,-544.5 616.5,-563.5"/>
<text text-anchor="middle" x="527" y="-551.5" font-family="Helvetica,sans-Serif" font-size="10.00">cam.nc.winpc.Creator.SPACE_STR</text>
</a>
</g>
</g>
<!-- Node7&#45;&gt;Node14 -->
<g id="edge56_Node000007_Node000014" class="edge">
<title>Node7&#45;&gt;Node14</title>
<g id="a_edge56_Node000007_Node000014"><a xlink:title=" ">
<path fill="none" stroke="#63b8ff" d="M370.01,-672.51C380.5,-669.41 390.61,-664.79 399,-658 430.89,-632.19 403.31,-599.05 435,-573 437.02,-571.34 439.15,-569.82 441.36,-568.41"/>
<polygon fill="#63b8ff" stroke="#63b8ff" points="443.14,-571.43 450.28,-563.6 439.82,-565.27 443.14,-571.43"/>
</a>
</g>
</g>
<!-- Node19&#45;&gt;Node19 -->
<g id="edge62_Node000019_Node000019" class="edge">
<title>Node19&#45;&gt;Node19</title>
<g id="a_edge62_Node000019_Node000019"><a xlink:title=" ">
<path fill="none" stroke="#63b8ff" d="M266.21,-459.58C250.01,-468.23 261.11,-477.5 299.5,-477.5 327.09,-477.5 340.59,-472.71 339.98,-466.81"/>
<polygon fill="#63b8ff" stroke="#63b8ff" points="342.33,-464.2 332.79,-459.58 337.36,-469.14 342.33,-464.2"/>
</a>
</g>
</g>
<!-- Node20&#45;&gt;Node20 -->
<g id="edge64_Node000020_Node000020" class="edge">
<title>Node20&#45;&gt;Node20</title>
<g id="a_edge64_Node000020_Node000020"><a xlink:title=" ">
<path fill="none" stroke="#63b8ff" d="M266.21,-404.58C250.01,-413.23 261.11,-422.5 299.5,-422.5 327.09,-422.5 340.59,-417.71 339.98,-411.81"/>
<polygon fill="#63b8ff" stroke="#63b8ff" points="342.33,-409.2 332.79,-404.58 337.36,-414.14 342.33,-409.2"/>
</a>
</g>
</g>
<!-- Node22&#45;&gt;Node22 -->
<g id="edge67_Node000022_Node000022" class="edge">
<title>Node22&#45;&gt;Node22</title>
<g id="a_edge67_Node000022_Node000022"><a xlink:title=" ">
<path fill="none" stroke="#63b8ff" d="M266.21,-312.58C250.01,-321.23 261.11,-330.5 299.5,-330.5 327.09,-330.5 340.59,-325.71 339.98,-319.81"/>
<polygon fill="#63b8ff" stroke="#63b8ff" points="342.33,-317.2 332.79,-312.58 337.36,-322.14 342.33,-317.2"/>
</a>
</g>
</g>
<!-- Node23&#45;&gt;Node23 -->
<g id="edge69_Node000023_Node000023" class="edge">
<title>Node23&#45;&gt;Node23</title>
<g id="a_edge69_Node000023_Node000023"><a xlink:title=" ">
<path fill="none" stroke="#63b8ff" d="M266.21,-257.58C250.01,-266.23 261.11,-275.5 299.5,-275.5 327.09,-275.5 340.59,-270.71 339.98,-264.81"/>
<polygon fill="#63b8ff" stroke="#63b8ff" points="342.33,-262.2 332.79,-257.58 337.36,-267.14 342.33,-262.2"/>
</a>
</g>
</g>
<!-- Node24&#45;&gt;Node24 -->
<g id="edge71_Node000024_Node000024" class="edge">
<title>Node24&#45;&gt;Node24</title>
<g id="a_edge71_Node000024_Node000024"><a xlink:title=" ">
<path fill="none" stroke="#63b8ff" d="M266.21,-202.58C250.01,-211.23 261.11,-220.5 299.5,-220.5 327.09,-220.5 340.59,-215.71 339.98,-209.81"/>
<polygon fill="#63b8ff" stroke="#63b8ff" points="342.33,-207.2 332.79,-202.58 337.36,-212.14 342.33,-207.2"/>
</a>
</g>
</g>
<!-- Node26 -->
<g id="Node000026" class="node">
<title>Node26</title>
<g id="a_Node000026"><a xlink:href="$classcam_1_1async__op_1_1AsyncOperatorMixin.html#a9628cbca8e69ec75b2337171a02bf428" xlink:title=" ">
<polygon fill="white" stroke="#666666" points="607.5,-150 446.5,-150 446.5,-120 607.5,-120 607.5,-150"/>
<text text-anchor="start" x="454.5" y="-138" font-family="Helvetica,sans-Serif" font-size="10.00">cam.async_op.AsyncOperator</text>
<text text-anchor="middle" x="527" y="-127" font-family="Helvetica,sans-Serif" font-size="10.00">Mixin.modal</text>
</a>
</g>
</g>
<!-- Node25&#45;&gt;Node26 -->
<g id="edge73_Node000025_Node000026" class="edge">
<title>Node25&#45;&gt;Node26</title>
<g id="a_edge73_Node000025_Node000026"><a xlink:title=" ">
<path fill="none" stroke="#63b8ff" d="M378.74,-148.71C397.28,-146.99 417.21,-145.13 436.22,-143.36"/>
<polygon fill="#63b8ff" stroke="#63b8ff" points="436.74,-146.83 446.37,-142.42 436.09,-139.86 436.74,-146.83"/>
</a>
</g>
</g>
<!-- Node27 -->
<g id="Node000027" class="node">
<title>Node27</title>
<g id="a_Node000027"><a xlink:href="$classcam_1_1async__op_1_1AsyncOperatorMixin.html#a15a51cfd69d8e453e2e3d64386b1ebe3" xlink:title=" ">
<polygon fill="white" stroke="#666666" points="816,-150 655,-150 655,-120 816,-120 816,-150"/>
<text text-anchor="start" x="663" y="-138" font-family="Helvetica,sans-Serif" font-size="10.00">cam.async_op.AsyncOperator</text>
<text text-anchor="middle" x="735.5" y="-127" font-family="Helvetica,sans-Serif" font-size="10.00">Mixin.tick</text>
</a>
</g>
</g>
<!-- Node26&#45;&gt;Node27 -->
<g id="edge74_Node000026_Node000027" class="edge">
<title>Node26&#45;&gt;Node27</title>
<g id="a_edge74_Node000026_Node000027"><a xlink:title=" ">
<path fill="none" stroke="#63b8ff" d="M607.54,-135C619.7,-135 632.33,-135 644.69,-135"/>
<polygon fill="#63b8ff" stroke="#63b8ff" points="645,-138.5 655,-135 645,-131.5 645,-138.5"/>
</a>
</g>
</g>
<!-- Node28 -->
<g id="Node000028" class="node">
<title>Node28</title>
<g id="a_Node000028"><a xlink:href="$classcam_1_1async__op_1_1AsyncTestOperator.html#a42606ca890a957aa7070a4bc6f25228b" xlink:title=" ">
<polygon fill="white" stroke="#666666" points="1073,-270 852,-270 852,-240 1073,-240 1073,-270"/>
<text text-anchor="start" x="860" y="-258" font-family="Helvetica,sans-Serif" font-size="10.00">cam.async_op.AsyncTestOperator.execute</text>
<text text-anchor="middle" x="962.5" y="-247" font-family="Helvetica,sans-Serif" font-size="10.00">_async</text>
</a>
</g>
</g>
<!-- Node27&#45;&gt;Node28 -->
<g id="edge75_Node000027_Node000028" class="edge">
<title>Node27&#45;&gt;Node28</title>
<g id="a_edge75_Node000027_Node000028"><a xlink:title=" ">
<path fill="none" stroke="#63b8ff" d="M750.18,-150.27C770.31,-171.74 810.07,-210.51 852,-231 856.09,-233 860.35,-234.84 864.72,-236.52"/>
<polygon fill="#63b8ff" stroke="#63b8ff" points="863.81,-239.91 874.41,-239.97 866.16,-233.32 863.81,-239.91"/>
</a>
</g>
</g>
<!-- Node29 -->
<g id="Node000029" class="node">
<title>Node29</title>
<g id="a_Node000029"><a xlink:href="$classcam_1_1ops_1_1CalculatePath.html#a13dfe2f8578383234e74e58e2f292e1b" xlink:title=" ">
<polygon fill="white" stroke="#666666" points="1047,-222 878,-222 878,-192 1047,-192 1047,-222"/>
<text text-anchor="start" x="886" y="-210" font-family="Helvetica,sans-Serif" font-size="10.00">cam.ops.CalculatePath.execute</text>
<text text-anchor="middle" x="962.5" y="-199" font-family="Helvetica,sans-Serif" font-size="10.00">_async</text>
</a>
</g>
</g>
<!-- Node27&#45;&gt;Node29 -->
<g id="edge76_Node000027_Node000029" class="edge">
<title>Node27&#45;&gt;Node29</title>
<g id="a_edge76_Node000027_Node000029"><a xlink:title=" ">
<path fill="none" stroke="#63b8ff" d="M768.29,-150.01C791.18,-160.38 823,-173.88 852,-183 859.31,-185.3 866.96,-187.46 874.68,-189.47"/>
<polygon fill="#63b8ff" stroke="#63b8ff" points="873.91,-192.89 884.46,-191.93 875.62,-186.1 873.91,-192.89"/>
</a>
</g>
</g>
<!-- Node31 -->
<g id="Node000031" class="node">
<title>Node31</title>
<g id="a_Node000031"><a xlink:href="$classcam_1_1ops_1_1PathsChain.html#a6fc64e383ccf724b2325e18a82d53eae" xlink:title=" ">
<polygon fill="white" stroke="#666666" points="1040.5,-174 884.5,-174 884.5,-144 1040.5,-144 1040.5,-174"/>
<text text-anchor="start" x="892.5" y="-162" font-family="Helvetica,sans-Serif" font-size="10.00">cam.ops.PathsChain.execute</text>
<text text-anchor="middle" x="962.5" y="-151" font-family="Helvetica,sans-Serif" font-size="10.00">_async</text>
</a>
</g>
</g>
<!-- Node27&#45;&gt;Node31 -->
<g id="edge78_Node000027_Node000031" class="edge">
<title>Node27&#45;&gt;Node31</title>
<g id="a_edge78_Node000027_Node000031"><a xlink:title=" ">
<path fill="none" stroke="#63b8ff" d="M816.14,-143.5C834.9,-145.5 854.98,-147.64 874.06,-149.67"/>
<polygon fill="#63b8ff" stroke="#63b8ff" points="873.92,-153.18 884.23,-150.76 874.66,-146.22 873.92,-153.18"/>
</a>
</g>
</g>
<!-- Node33 -->
<g id="Node000033" class="node">
<title>Node33</title>
<g id="a_Node000033"><a xlink:href="$classcam_1_1ops_1_1CAMSimulate.html#a633151f17849d281fd52ce82c00356a7" xlink:title=" ">
<polygon fill="white" stroke="#666666" points="1046.5,-126 878.5,-126 878.5,-96 1046.5,-96 1046.5,-126"/>
<text text-anchor="start" x="886.5" y="-114" font-family="Helvetica,sans-Serif" font-size="10.00">cam.ops.CAMSimulate.execute</text>
<text text-anchor="middle" x="962.5" y="-103" font-family="Helvetica,sans-Serif" font-size="10.00">_async</text>
</a>
</g>
</g>
<!-- Node27&#45;&gt;Node33 -->
<g id="edge81_Node000027_Node000033" class="edge">
<title>Node27&#45;&gt;Node33</title>
<g id="a_edge81_Node000027_Node000033"><a xlink:title=" ">
<path fill="none" stroke="#63b8ff" d="M816.14,-126.5C832.95,-124.71 850.82,-122.81 868.08,-120.97"/>
<polygon fill="#63b8ff" stroke="#63b8ff" points="868.58,-124.43 878.15,-119.89 867.84,-117.47 868.58,-124.43"/>
</a>
</g>
</g>
<!-- Node34 -->
<g id="Node000034" class="node">
<title>Node34</title>
<g id="a_Node000034"><a xlink:href="$classcam_1_1ops_1_1CAMSimulateChain.html#a1e77c7ce21b3b7e3e38a12b6b62517e9" xlink:title=" ">
<polygon fill="white" stroke="#666666" points="1060.5,-78 864.5,-78 864.5,-48 1060.5,-48 1060.5,-78"/>
<text text-anchor="start" x="872.5" y="-66" font-family="Helvetica,sans-Serif" font-size="10.00">cam.ops.CAMSimulateChain.execute</text>
<text text-anchor="middle" x="962.5" y="-55" font-family="Helvetica,sans-Serif" font-size="10.00">_async</text>
</a>
</g>
</g>
<!-- Node27&#45;&gt;Node34 -->
<g id="edge82_Node000027_Node000034" class="edge">
<title>Node27&#45;&gt;Node34</title>
<g id="a_edge82_Node000027_Node000034"><a xlink:title=" ">
<path fill="none" stroke="#63b8ff" d="M768.29,-119.99C791.18,-109.62 823,-96.12 852,-87 859.31,-84.7 866.96,-82.54 874.68,-80.53"/>
<polygon fill="#63b8ff" stroke="#63b8ff" points="875.62,-83.9 884.46,-78.07 873.91,-77.11 875.62,-83.9"/>
</a>
</g>
</g>
<!-- Node35 -->
<g id="Node000035" class="node">
<title>Node35</title>
<g id="a_Node000035"><a xlink:href="$classcam_1_1async__op_1_1AsyncOperatorMixin.html#a2216ff6bb0dfd132f4ec4cf79b7cba2b" xlink:title=" ">
<polygon fill="white" stroke="#666666" points="1043,-30 882,-30 882,0 1043,0 1043,-30"/>
<text text-anchor="start" x="890" y="-18" font-family="Helvetica,sans-Serif" font-size="10.00">cam.async_op.AsyncOperator</text>
<text text-anchor="middle" x="962.5" y="-7" font-family="Helvetica,sans-Serif" font-size="10.00">Mixin.show_progress</text>
</a>
</g>
</g>
<!-- Node27&#45;&gt;Node35 -->
<g id="edge84_Node000027_Node000035" class="edge">
<title>Node27&#45;&gt;Node35</title>
<g id="a_edge84_Node000027_Node000035"><a xlink:title=" ">
<path fill="none" stroke="#63b8ff" d="M750.18,-119.73C770.31,-98.26 810.07,-59.49 852,-39 858.43,-35.86 865.27,-33.12 872.28,-30.74"/>
<polygon fill="#63b8ff" stroke="#63b8ff" points="873.42,-34.05 881.91,-27.71 871.32,-27.37 873.42,-34.05"/>
</a>
</g>
</g>
<!-- Node30 -->
<g id="Node000030" class="node">
<title>Node30</title>
<g id="a_Node000030"><a xlink:href="$namespacecam_1_1ops.html#aa8e95f7410a7ceb178db48f4f8c2d995" xlink:title=" ">
<polygon fill="white" stroke="#666666" points="1244.5,-192.5 1131.5,-192.5 1131.5,-173.5 1244.5,-173.5 1244.5,-192.5"/>
<text text-anchor="middle" x="1188" y="-180.5" font-family="Helvetica,sans-Serif" font-size="10.00">cam.ops._calc_path</text>
</a>
</g>
</g>
<!-- Node29&#45;&gt;Node30 -->
<g id="edge77_Node000029_Node000030" class="edge">
<title>Node29&#45;&gt;Node30</title>
<g id="a_edge77_Node000029_Node000030"><a xlink:title=" ">
<path fill="none" stroke="#63b8ff" d="M1047.04,-198.03C1071.56,-195.4 1098.01,-192.56 1121.25,-190.06"/>
<polygon fill="#63b8ff" stroke="#63b8ff" points="1121.77,-193.52 1131.34,-188.98 1121.03,-186.56 1121.77,-193.52"/>
</a>
</g>
</g>
<!-- Node31&#45;&gt;Node30 -->
<g id="edge79_Node000031_Node000030" class="edge">
<title>Node31&#45;&gt;Node30</title>
<g id="a_edge79_Node000031_Node000030"><a xlink:title=" ">
<path fill="none" stroke="#63b8ff" d="M1040.73,-167.29C1066.9,-170.1 1095.87,-173.21 1121.08,-175.92"/>
<polygon fill="#63b8ff" stroke="#63b8ff" points="1120.95,-179.43 1131.27,-177.02 1121.7,-172.47 1120.95,-179.43"/>
</a>
</g>
</g>
<!-- Node32 -->
<g id="Node000032" class="node">
<title>Node32</title>
<g id="a_Node000032"><a xlink:href="$namespacecam_1_1ops.html#ab55fb8ec9a00e021e8e4a1c3ecc97cb4" xlink:title=" ">
<polygon fill="white" stroke="#666666" points="1267,-126.5 1109,-126.5 1109,-107.5 1267,-107.5 1267,-126.5"/>
<text text-anchor="middle" x="1188" y="-114.5" font-family="Helvetica,sans-Serif" font-size="10.00">cam.ops.getChainOperations</text>
</a>
</g>
</g>
<!-- Node31&#45;&gt;Node32 -->
<g id="edge80_Node000031_Node000032" class="edge">
<title>Node31&#45;&gt;Node32</title>
<g id="a_edge80_Node000031_Node000032"><a xlink:title=" ">
<path fill="none" stroke="#63b8ff" d="M1040.73,-144.49C1068.81,-139.21 1100.12,-133.33 1126.54,-128.36"/>
<polygon fill="#63b8ff" stroke="#63b8ff" points="1127.23,-131.79 1136.41,-126.51 1125.94,-124.91 1127.23,-131.79"/>
</a>
</g>
</g>
<!-- Node34&#45;&gt;Node32 -->
<g id="edge83_Node000034_Node000032" class="edge">
<title>Node34&#45;&gt;Node32</title>
<g id="a_edge83_Node000034_Node000032"><a xlink:title=" ">
<path fill="none" stroke="#63b8ff" d="M1034.28,-78.06C1047.19,-80.94 1060.51,-83.99 1073,-87 1095.91,-92.52 1121.28,-99.15 1142.25,-104.77"/>
<polygon fill="#63b8ff" stroke="#63b8ff" points="1141.6,-108.21 1152.17,-107.43 1143.42,-101.45 1141.6,-108.21"/>
</a>
</g>
</g>
<!-- Node36&#45;&gt;Node26 -->
<g id="edge86_Node000036_Node000026" class="edge">
<title>Node36&#45;&gt;Node26</title>
<g id="a_edge86_Node000036_Node000026"><a xlink:title=" ">
<path fill="none" stroke="#63b8ff" d="M374.65,-120.23C394.4,-122.16 415.94,-124.26 436.42,-126.26"/>
<polygon fill="#63b8ff" stroke="#63b8ff" points="436.08,-129.74 446.37,-127.23 436.76,-122.78 436.08,-129.74"/>
</a>
</g>
</g>
</g>
</svg>
