<?xml version="1.0" encoding="UTF-8" standalone="no"?>
<!DOCTYPE svg PUBLIC "-//W3C//DTD SVG 1.1//EN"
 "http://www.w3.org/Graphics/SVG/1.1/DTD/svg11.dtd">
<!-- Generated by graphviz version 2.43.0 (0)
 -->
<!-- Title: cam.voronoi.SiteList Pages: 1 -->
<svg width="118pt" height="442pt"
 viewBox="0.00 0.00 118.00 442.00" xmlns="http://www.w3.org/2000/svg" xmlns:xlink="http://www.w3.org/1999/xlink">
<g id="graph0" class="graph" transform="scale(1 1) rotate(0) translate(4 438)">
<title>cam.voronoi.SiteList</title>
<!-- Node1 -->
<g id="Node000001" class="node">
<title>Node1</title>
<g id="a_Node000001"><a xlink:title=" ">
<polygon fill="#999999" stroke="transparent" points="110,-349 0,-349 0,0 110,0 110,-349"/>
<text text-anchor="start" x="5" y="-336.5" font-family="Helvetica,sans-Serif" font-size="10.00">cam.voronoi.SiteList</text>
<text text-anchor="start" x="6" y="-321.5" font-family="Helvetica,sans-Serif" font-size="10.00">+</text>
<text text-anchor="start" x="21" y="-321.5" font-family="Helvetica,sans-Serif" font-size="10.00">xmin</text>
<text text-anchor="start" x="6" y="-306.5" font-family="Helvetica,sans-Serif" font-size="10.00">+</text>
<text text-anchor="start" x="21" y="-306.5" font-family="Helvetica,sans-Serif" font-size="10.00">ymin</text>
<text text-anchor="start" x="6" y="-291.5" font-family="Helvetica,sans-Serif" font-size="10.00">+</text>
<text text-anchor="start" x="21" y="-291.5" font-family="Helvetica,sans-Serif" font-size="10.00">xmax</text>
<text text-anchor="start" x="6" y="-276.5" font-family="Helvetica,sans-Serif" font-size="10.00">+</text>
<text text-anchor="start" x="21" y="-276.5" font-family="Helvetica,sans-Serif" font-size="10.00">ymax</text>
<text text-anchor="start" x="6" y="-261.5" font-family="Helvetica,sans-Serif" font-size="10.00">+</text>
<text text-anchor="start" x="21" y="-261.5" font-family="Helvetica,sans-Serif" font-size="10.00">extent</text>
<text text-anchor="start" x="8.5" y="-246.5" font-family="Helvetica,sans-Serif" font-size="10.00">&#45;</text>
<text text-anchor="start" x="21" y="-246.5" font-family="Helvetica,sans-Serif" font-size="10.00">__sites</text>
<text text-anchor="start" x="8.5" y="-231.5" font-family="Helvetica,sans-Serif" font-size="10.00">&#45;</text>
<text text-anchor="start" x="21" y="-231.5" font-family="Helvetica,sans-Serif" font-size="10.00">__sitenum</text>
<text text-anchor="start" x="8.5" y="-216.5" font-family="Helvetica,sans-Serif" font-size="10.00">&#45;</text>
<text text-anchor="start" x="21" y="-216.5" font-family="Helvetica,sans-Serif" font-size="10.00">__xmin</text>
<text text-anchor="start" x="8.5" y="-201.5" font-family="Helvetica,sans-Serif" font-size="10.00">&#45;</text>
<text text-anchor="start" x="21" y="-201.5" font-family="Helvetica,sans-Serif" font-size="10.00">__ymin</text>
<text text-anchor="start" x="8.5" y="-186.5" font-family="Helvetica,sans-Serif" font-size="10.00">&#45;</text>
<text text-anchor="start" x="21" y="-186.5" font-family="Helvetica,sans-Serif" font-size="10.00">__xmax</text>
<text text-anchor="start" x="8.5" y="-171.5" font-family="Helvetica,sans-Serif" font-size="10.00">&#45;</text>
<text text-anchor="start" x="21" y="-171.5" font-family="Helvetica,sans-Serif" font-size="10.00">__ymax</text>
<text text-anchor="start" x="8.5" y="-156.5" font-family="Helvetica,sans-Serif" font-size="10.00">&#45;</text>
<text text-anchor="start" x="21" y="-156.5" font-family="Helvetica,sans-Serif" font-size="10.00">__extent</text>
<text text-anchor="start" x="6" y="-141.5" font-family="Helvetica,sans-Serif" font-size="10.00">+</text>
<text text-anchor="start" x="21" y="-141.5" font-family="Helvetica,sans-Serif" font-size="10.00">__init__()</text>
<text text-anchor="start" x="6" y="-126.5" font-family="Helvetica,sans-Serif" font-size="10.00">+</text>
<text text-anchor="start" x="21" y="-126.5" font-family="Helvetica,sans-Serif" font-size="10.00">setSiteNumber()</text>
<text text-anchor="start" x="6" y="-111.5" font-family="Helvetica,sans-Serif" font-size="10.00">+</text>
<text text-anchor="start" x="21" y="-111.5" font-family="Helvetica,sans-Serif" font-size="10.00">iterator()</text>
<text text-anchor="start" x="6" y="-96.5" font-family="Helvetica,sans-Serif" font-size="10.00">+</text>
<text text-anchor="start" x="21" y="-96.5" font-family="Helvetica,sans-Serif" font-size="10.00">__iter__()</text>
<text text-anchor="start" x="6" y="-81.5" font-family="Helvetica,sans-Serif" font-size="10.00">+</text>
<text text-anchor="start" x="21" y="-81.5" font-family="Helvetica,sans-Serif" font-size="10.00">__len__()</text>
<text text-anchor="start" x="6" y="-66.5" font-family="Helvetica,sans-Serif" font-size="10.00">#</text>
<text text-anchor="start" x="21" y="-66.5" font-family="Helvetica,sans-Serif" font-size="10.00">_getxmin()</text>
<text text-anchor="start" x="6" y="-51.5" font-family="Helvetica,sans-Serif" font-size="10.00">#</text>
<text text-anchor="start" x="21" y="-51.5" font-family="Helvetica,sans-Serif" font-size="10.00">_getymin()</text>
<text text-anchor="start" x="6" y="-36.5" font-family="Helvetica,sans-Serif" font-size="10.00">#</text>
<text text-anchor="start" x="21" y="-36.5" font-family="Helvetica,sans-Serif" font-size="10.00">_getxmax()</text>
<text text-anchor="start" x="6" y="-21.5" font-family="Helvetica,sans-Serif" font-size="10.00">#</text>
<text text-anchor="start" x="21" y="-21.5" font-family="Helvetica,sans-Serif" font-size="10.00">_getymax()</text>
<text text-anchor="start" x="6" y="-6.5" font-family="Helvetica,sans-Serif" font-size="10.00">#</text>
<text text-anchor="start" x="21" y="-6.5" font-family="Helvetica,sans-Serif" font-size="10.00">_getextent()</text>
<polygon fill="#666666" stroke="#666666" points="0,-331.5 0,-331.5 110,-331.5 110,-331.5 0,-331.5"/>
<polygon fill="#666666" stroke="#666666" points="0,-151.5 0,-151.5 19,-151.5 19,-151.5 0,-151.5"/>
<polygon fill="#666666" stroke="#666666" points="19,-151.5 19,-151.5 110,-151.5 110,-151.5 19,-151.5"/>
<polygon fill="none" stroke="#666666" points="0,0 0,-349 110,-349 110,0 0,0"/>
</a>
</g>
</g>
<!-- Node2 -->
<g id="Node000002" class="node">
<title>Node2</title>
<g id="a_Node000002"><a xlink:href="$classobject.html" xlink:title=" ">
<polygon fill="white" stroke="transparent" points="75.5,-434 34.5,-434 34.5,-385 75.5,-385 75.5,-434"/>
<text text-anchor="start" x="40" y="-421.5" font-family="Helvetica,sans-Serif" font-size="10.00">object</text>
<text text-anchor="start" x="53.5" y="-406.5" font-family="Helvetica,sans-Serif" font-size="10.00"> </text>
<text text-anchor="start" x="53.5" y="-391.5" font-family="Helvetica,sans-Serif" font-size="10.00"> </text>
<polygon fill="#666666" stroke="#666666" points="35,-416.5 35,-416.5 76,-416.5 76,-416.5 35,-416.5"/>
<polygon fill="#666666" stroke="#666666" points="35,-401.5 35,-401.5 76,-401.5 76,-401.5 35,-401.5"/>
<polygon fill="none" stroke="#666666" points="34.5,-385 34.5,-434 75.5,-434 75.5,-385 34.5,-385"/>
</a>
</g>
</g>
<!-- Node2&#45;&gt;Node1 -->
<g id="edge2_Node000001_Node000002" class="edge">
<title>Node2&#45;&gt;Node1</title>
<g id="a_edge2_Node000001_Node000002"><a xlink:title=" ">
<path fill="none" stroke="#63b8ff" d="M55,-374.82C55,-367.22 55,-358.65 55,-349.45"/>
<polygon fill="none" stroke="#63b8ff" points="51.5,-374.88 55,-384.88 58.5,-374.88 51.5,-374.88"/>
</a>
</g>
</g>
</g>
</svg>
