<?xml version="1.0" encoding="UTF-8" standalone="no"?>
<!DOCTYPE svg PUBLIC "-//W3C//DTD SVG 1.1//EN"
 "http://www.w3.org/Graphics/SVG/1.1/DTD/svg11.dtd">
<!-- Generated by graphviz version 2.43.0 (0)
 -->
<!-- Title: cam.nc.recreator.Redirector.spindle Pages: 1 -->
<svg width="614pt" height="122pt"
 viewBox="0.00 0.00 614.00 122.00" xmlns="http://www.w3.org/2000/svg" xmlns:xlink="http://www.w3.org/1999/xlink">
<g id="graph0" class="graph" transform="scale(1 1) rotate(0) translate(4 118)">
<title>cam.nc.recreator.Redirector.spindle</title>
<!-- Node1 -->
<g id="Node000001" class="node">
<title>Node1</title>
<g id="a_Node000001"><a xlink:title=" ">
<polygon fill="#999999" stroke="#666666" points="189,-56 0,-56 0,-37 189,-37 189,-56"/>
<text text-anchor="middle" x="94.5" y="-44" font-family="Helvetica,sans-Serif" font-size="10.00">cam.nc.recreator.Redirector.spindle</text>
</a>
</g>
</g>
<!-- Node1&#45;&gt;Node1 -->
<g id="edge12_Node000001_Node000001" class="edge">
<title>Node1&#45;&gt;Node1</title>
<g id="a_edge12_Node000001_Node000001"><a xlink:title=" ">
<path fill="none" stroke="#63b8ff" d="M59.36,-56.08C42.26,-64.73 53.98,-74 94.5,-74 124.26,-74 138.48,-69 137.17,-62.92"/>
<polygon fill="#63b8ff" stroke="#63b8ff" points="139.4,-60.22 129.64,-56.08 134.69,-65.4 139.4,-60.22"/>
</a>
</g>
</g>
<!-- Node2 -->
<g id="Node000002" class="node">
<title>Node2</title>
<g id="a_Node000002"><a xlink:href="$classcam_1_1nc_1_1attach_1_1Creator.html#a15a75411685b954b0073489b30f1342e" xlink:title=" ">
<polygon fill="white" stroke="#666666" points="407.5,-93 238.5,-93 238.5,-74 407.5,-74 407.5,-93"/>
<text text-anchor="middle" x="323" y="-81" font-family="Helvetica,sans-Serif" font-size="10.00">cam.nc.attach.Creator.cut_path</text>
</a>
</g>
</g>
<!-- Node1&#45;&gt;Node2 -->
<g id="edge7_Node000001_Node000002" class="edge">
<title>Node1&#45;&gt;Node2</title>
<g id="a_edge7_Node000001_Node000002"><a xlink:title=" ">
<path fill="none" stroke="#63b8ff" d="M153.83,-56.03C184.23,-60.99 221.59,-67.1 253.37,-72.29"/>
<polygon fill="#63b8ff" stroke="#63b8ff" points="253.04,-75.78 263.48,-73.94 254.17,-68.87 253.04,-75.78"/>
</a>
</g>
</g>
<!-- Node5 -->
<g id="Node000005" class="node">
<title>Node5</title>
<g id="a_Node000005"><a xlink:href="$classcam_1_1nc_1_1drag__knife_1_1Creator.html#a5db2841a5c931c72702e9bb7752ea731" xlink:title=" ">
<polygon fill="white" stroke="#666666" points="418,-56 228,-56 228,-37 418,-37 418,-56"/>
<text text-anchor="middle" x="323" y="-44" font-family="Helvetica,sans-Serif" font-size="10.00">cam.nc.drag_knife.Creator.cut_path</text>
</a>
</g>
</g>
<!-- Node1&#45;&gt;Node5 -->
<g id="edge10_Node000001_Node000005" class="edge">
<title>Node1&#45;&gt;Node5</title>
<g id="a_edge10_Node000001_Node000005"><a xlink:title=" ">
<path fill="none" stroke="#63b8ff" d="M189.26,-46.5C198.65,-46.5 208.21,-46.5 217.7,-46.5"/>
<polygon fill="#63b8ff" stroke="#63b8ff" points="217.94,-50 227.94,-46.5 217.94,-43 217.94,-50"/>
</a>
</g>
</g>
<!-- Node6 -->
<g id="Node000006" class="node">
<title>Node6</title>
<g id="a_Node000006"><a xlink:href="$classcam_1_1nc_1_1recreator_1_1Redirector.html#ace3039c310a7ee83dafe4fee4382f511" xlink:title=" ">
<polygon fill="white" stroke="#666666" points="421,-19 225,-19 225,0 421,0 421,-19"/>
<text text-anchor="middle" x="323" y="-7" font-family="Helvetica,sans-Serif" font-size="10.00">cam.nc.recreator.Redirector.cut_path</text>
</a>
</g>
</g>
<!-- Node1&#45;&gt;Node6 -->
<g id="edge11_Node000001_Node000006" class="edge">
<title>Node1&#45;&gt;Node6</title>
<g id="a_edge11_Node000001_Node000006"><a xlink:title=" ">
<path fill="none" stroke="#63b8ff" d="M153.83,-36.97C184.23,-32.01 221.59,-25.9 253.37,-20.71"/>
<polygon fill="#63b8ff" stroke="#63b8ff" points="254.17,-24.13 263.48,-19.06 253.04,-17.22 254.17,-24.13"/>
</a>
</g>
</g>
<!-- Node3 -->
<g id="Node000003" class="node">
<title>Node3</title>
<g id="a_Node000003"><a xlink:href="$classcam_1_1nc_1_1attach_1_1Creator.html#a27a17497f0889323fd31aab4f857e577" xlink:title=" ">
<polygon fill="white" stroke="#666666" points="606,-114 457,-114 457,-95 606,-95 606,-114"/>
<text text-anchor="middle" x="531.5" y="-102" font-family="Helvetica,sans-Serif" font-size="10.00">cam.nc.attach.Creator.feed</text>
</a>
</g>
</g>
<!-- Node2&#45;&gt;Node3 -->
<g id="edge8_Node000002_Node000003" class="edge">
<title>Node2&#45;&gt;Node3</title>
<g id="a_edge8_Node000002_Node000003"><a xlink:title=" ">
<path fill="none" stroke="#63b8ff" d="M407.69,-92.01C420.57,-93.32 433.87,-94.67 446.76,-95.98"/>
<polygon fill="#63b8ff" stroke="#63b8ff" points="446.68,-99.49 456.98,-97.02 447.38,-92.53 446.68,-99.49"/>
</a>
</g>
</g>
<!-- Node4 -->
<g id="Node000004" class="node">
<title>Node4</title>
<g id="a_Node000004"><a xlink:href="$classcam_1_1nc_1_1attach_1_1Creator.html#a64e13dd00fd58d3db3818de0d188bafa" xlink:title="Shift in Z.">
<polygon fill="white" stroke="#666666" points="602.5,-76.5 460.5,-76.5 460.5,-46.5 602.5,-46.5 602.5,-76.5"/>
<text text-anchor="start" x="468.5" y="-64.5" font-family="Helvetica,sans-Serif" font-size="10.00">cam.nc.attach.Creator.set</text>
<text text-anchor="middle" x="531.5" y="-53.5" font-family="Helvetica,sans-Serif" font-size="10.00">PdcfIfNotSet</text>
</a>
</g>
</g>
<!-- Node2&#45;&gt;Node4 -->
<g id="edge9_Node000002_Node000004" class="edge">
<title>Node2&#45;&gt;Node4</title>
<g id="a_edge9_Node000002_Node000004"><a xlink:title=" ">
<path fill="none" stroke="#63b8ff" d="M407.69,-74.58C421.73,-73.09 436.26,-71.54 450.21,-70.05"/>
<polygon fill="#63b8ff" stroke="#63b8ff" points="450.67,-73.52 460.24,-68.98 449.93,-66.56 450.67,-73.52"/>
</a>
</g>
</g>
</g>
</svg>
