<?xml version="1.0" encoding="UTF-8" standalone="no"?>
<!DOCTYPE svg PUBLIC "-//W3C//DTD SVG 1.1//EN"
 "http://www.w3.org/Graphics/SVG/1.1/DTD/svg11.dtd">
<!-- Generated by graphviz version 2.43.0 (0)
 -->
<!-- Title: cam.nc.anilam_crusader_m.Creator Pages: 1 -->
<svg width="141pt" height="1018pt"
 viewBox="0.00 0.00 141.00 1018.00" xmlns="http://www.w3.org/2000/svg" xmlns:xlink="http://www.w3.org/1999/xlink">
<g id="graph0" class="graph" transform="scale(1 1) rotate(0) translate(4 1014)">
<title>cam.nc.anilam_crusader_m.Creator</title>
<!-- Node1 -->
<g id="Node000001" class="node">
<title>Node1</title>
<g id="a_Node000001"><a xlink:title=" ">
<polygon fill="#999999" stroke="transparent" points="133,-255 0,-255 0,0 133,0 133,-255"/>
<text text-anchor="start" x="7" y="-242.5" font-family="Helvetica,sans-Serif" font-size="10.00">cam.nc.anilam_crusader</text>
<text text-anchor="start" x="39.5" y="-231.5" font-family="Helvetica,sans-Serif" font-size="10.00">_m.Creator</text>
<text text-anchor="start" x="4.5" y="-216.5" font-family="Helvetica,sans-Serif" font-size="10.00">+</text>
<text text-anchor="start" x="17.5" y="-216.5" font-family="Helvetica,sans-Serif" font-size="10.00">arc_centre_absolute</text>
<text text-anchor="start" x="4.5" y="-201.5" font-family="Helvetica,sans-Serif" font-size="10.00">+</text>
<text text-anchor="start" x="17.5" y="-201.5" font-family="Helvetica,sans-Serif" font-size="10.00">output_block_numbers</text>
<text text-anchor="start" x="4.5" y="-186.5" font-family="Helvetica,sans-Serif" font-size="10.00">+</text>
<text text-anchor="start" x="17.5" y="-186.5" font-family="Helvetica,sans-Serif" font-size="10.00">t</text>
<text text-anchor="start" x="4.5" y="-171.5" font-family="Helvetica,sans-Serif" font-size="10.00">+</text>
<text text-anchor="start" x="17.5" y="-171.5" font-family="Helvetica,sans-Serif" font-size="10.00">creator</text>
<text text-anchor="start" x="4.5" y="-156.5" font-family="Helvetica,sans-Serif" font-size="10.00">+</text>
<text text-anchor="start" x="17.5" y="-156.5" font-family="Helvetica,sans-Serif" font-size="10.00">__init__()</text>
<text text-anchor="start" x="4.5" y="-141.5" font-family="Helvetica,sans-Serif" font-size="10.00">+</text>
<text text-anchor="start" x="17.5" y="-141.5" font-family="Helvetica,sans-Serif" font-size="10.00">SPACE_STR()</text>
<text text-anchor="start" x="4.5" y="-126.5" font-family="Helvetica,sans-Serif" font-size="10.00">+</text>
<text text-anchor="start" x="17.5" y="-126.5" font-family="Helvetica,sans-Serif" font-size="10.00">COMMENT()</text>
<text text-anchor="start" x="4.5" y="-111.5" font-family="Helvetica,sans-Serif" font-size="10.00">+</text>
<text text-anchor="start" x="17.5" y="-111.5" font-family="Helvetica,sans-Serif" font-size="10.00">program_begin()</text>
<text text-anchor="start" x="4.5" y="-96.5" font-family="Helvetica,sans-Serif" font-size="10.00">+</text>
<text text-anchor="start" x="17.5" y="-96.5" font-family="Helvetica,sans-Serif" font-size="10.00">program_end()</text>
<text text-anchor="start" x="4.5" y="-81.5" font-family="Helvetica,sans-Serif" font-size="10.00">+</text>
<text text-anchor="start" x="17.5" y="-81.5" font-family="Helvetica,sans-Serif" font-size="10.00">imperial()</text>
<text text-anchor="start" x="4.5" y="-66.5" font-family="Helvetica,sans-Serif" font-size="10.00">+</text>
<text text-anchor="start" x="17.5" y="-66.5" font-family="Helvetica,sans-Serif" font-size="10.00">metric()</text>
<text text-anchor="start" x="4.5" y="-51.5" font-family="Helvetica,sans-Serif" font-size="10.00">+</text>
<text text-anchor="start" x="17.5" y="-51.5" font-family="Helvetica,sans-Serif" font-size="10.00">absolute()</text>
<text text-anchor="start" x="4.5" y="-36.5" font-family="Helvetica,sans-Serif" font-size="10.00">+</text>
<text text-anchor="start" x="17.5" y="-36.5" font-family="Helvetica,sans-Serif" font-size="10.00">incremental()</text>
<text text-anchor="start" x="4.5" y="-21.5" font-family="Helvetica,sans-Serif" font-size="10.00">+</text>
<text text-anchor="start" x="17.5" y="-21.5" font-family="Helvetica,sans-Serif" font-size="10.00">polar()</text>
<text text-anchor="start" x="17.5" y="-6.5" font-family="Helvetica,sans-Serif" font-size="10.00">and 6 more...</text>
<polygon fill="#666666" stroke="#666666" points="0.5,-226.5 0.5,-226.5 133.5,-226.5 133.5,-226.5 0.5,-226.5"/>
<polygon fill="#666666" stroke="#666666" points="0.5,-166.5 0.5,-166.5 15.5,-166.5 15.5,-166.5 0.5,-166.5"/>
<polygon fill="#666666" stroke="#666666" points="15.5,-166.5 15.5,-166.5 133.5,-166.5 133.5,-166.5 15.5,-166.5"/>
<polygon fill="none" stroke="#666666" points="0,0 0,-255 133,-255 133,0 0,0"/>
</a>
</g>
</g>
<!-- Node2 -->
<g id="Node000002" class="node">
<title>Node2</title>
<g id="a_Node000002"><a xlink:href="$classcam_1_1nc_1_1iso_1_1Creator.html" xlink:title=" ">
<polygon fill="white" stroke="transparent" points="129.5,-760 3.5,-760 3.5,-291 129.5,-291 129.5,-760"/>
<text text-anchor="start" x="20.5" y="-747.5" font-family="Helvetica,sans-Serif" font-size="10.00">cam.nc.iso.Creator</text>
<text text-anchor="start" x="7.5" y="-732.5" font-family="Helvetica,sans-Serif" font-size="10.00">+</text>
<text text-anchor="start" x="20.5" y="-732.5" font-family="Helvetica,sans-Serif" font-size="10.00">a</text>
<text text-anchor="start" x="7.5" y="-717.5" font-family="Helvetica,sans-Serif" font-size="10.00">+</text>
<text text-anchor="start" x="20.5" y="-717.5" font-family="Helvetica,sans-Serif" font-size="10.00">b</text>
<text text-anchor="start" x="7.5" y="-702.5" font-family="Helvetica,sans-Serif" font-size="10.00">+</text>
<text text-anchor="start" x="20.5" y="-702.5" font-family="Helvetica,sans-Serif" font-size="10.00">c</text>
<text text-anchor="start" x="7.5" y="-687.5" font-family="Helvetica,sans-Serif" font-size="10.00">+</text>
<text text-anchor="start" x="20.5" y="-687.5" font-family="Helvetica,sans-Serif" font-size="10.00">f</text>
<text text-anchor="start" x="7.5" y="-672.5" font-family="Helvetica,sans-Serif" font-size="10.00">+</text>
<text text-anchor="start" x="20.5" y="-672.5" font-family="Helvetica,sans-Serif" font-size="10.00">fh</text>
<text text-anchor="start" x="7.5" y="-657.5" font-family="Helvetica,sans-Serif" font-size="10.00">+</text>
<text text-anchor="start" x="20.5" y="-657.5" font-family="Helvetica,sans-Serif" font-size="10.00">fv</text>
<text text-anchor="start" x="7.5" y="-642.5" font-family="Helvetica,sans-Serif" font-size="10.00">+</text>
<text text-anchor="start" x="20.5" y="-642.5" font-family="Helvetica,sans-Serif" font-size="10.00">fhv</text>
<text text-anchor="start" x="7.5" y="-627.5" font-family="Helvetica,sans-Serif" font-size="10.00">+</text>
<text text-anchor="start" x="20.5" y="-627.5" font-family="Helvetica,sans-Serif" font-size="10.00">g_plane</text>
<text text-anchor="start" x="7.5" y="-612.5" font-family="Helvetica,sans-Serif" font-size="10.00">+</text>
<text text-anchor="start" x="20.5" y="-612.5" font-family="Helvetica,sans-Serif" font-size="10.00">g_list</text>
<text text-anchor="start" x="7.5" y="-597.5" font-family="Helvetica,sans-Serif" font-size="10.00">+</text>
<text text-anchor="start" x="20.5" y="-597.5" font-family="Helvetica,sans-Serif" font-size="10.00">i</text>
<text text-anchor="start" x="20.5" y="-582.5" font-family="Helvetica,sans-Serif" font-size="10.00">and 66 more...</text>
<text text-anchor="start" x="7.5" y="-567.5" font-family="Helvetica,sans-Serif" font-size="10.00">+</text>
<text text-anchor="start" x="20.5" y="-567.5" font-family="Helvetica,sans-Serif" font-size="10.00">retract_height</text>
<text text-anchor="start" x="7.5" y="-552.5" font-family="Helvetica,sans-Serif" font-size="10.00">+</text>
<text text-anchor="start" x="20.5" y="-552.5" font-family="Helvetica,sans-Serif" font-size="10.00">x</text>
<text text-anchor="start" x="7.5" y="-537.5" font-family="Helvetica,sans-Serif" font-size="10.00">+</text>
<text text-anchor="start" x="20.5" y="-537.5" font-family="Helvetica,sans-Serif" font-size="10.00">y</text>
<text text-anchor="start" x="7.5" y="-522.5" font-family="Helvetica,sans-Serif" font-size="10.00">+</text>
<text text-anchor="start" x="20.5" y="-522.5" font-family="Helvetica,sans-Serif" font-size="10.00">prev_z</text>
<text text-anchor="start" x="7.5" y="-507.5" font-family="Helvetica,sans-Serif" font-size="10.00">+</text>
<text text-anchor="start" x="20.5" y="-507.5" font-family="Helvetica,sans-Serif" font-size="10.00">z</text>
<text text-anchor="start" x="7.5" y="-492.5" font-family="Helvetica,sans-Serif" font-size="10.00">+</text>
<text text-anchor="start" x="20.5" y="-492.5" font-family="Helvetica,sans-Serif" font-size="10.00">prev_retract</text>
<text text-anchor="start" x="7.5" y="-477.5" font-family="Helvetica,sans-Serif" font-size="10.00">+</text>
<text text-anchor="start" x="20.5" y="-477.5" font-family="Helvetica,sans-Serif" font-size="10.00">first_drill_pos</text>
<text text-anchor="start" x="7.5" y="-462.5" font-family="Helvetica,sans-Serif" font-size="10.00">+</text>
<text text-anchor="start" x="20.5" y="-462.5" font-family="Helvetica,sans-Serif" font-size="10.00">creator</text>
<text text-anchor="start" x="7.5" y="-447.5" font-family="Helvetica,sans-Serif" font-size="10.00">+</text>
<text text-anchor="start" x="20.5" y="-447.5" font-family="Helvetica,sans-Serif" font-size="10.00">__init__()</text>
<text text-anchor="start" x="7.5" y="-432.5" font-family="Helvetica,sans-Serif" font-size="10.00">+</text>
<text text-anchor="start" x="20.5" y="-432.5" font-family="Helvetica,sans-Serif" font-size="10.00">SPACE_STR()</text>
<text text-anchor="start" x="7.5" y="-417.5" font-family="Helvetica,sans-Serif" font-size="10.00">+</text>
<text text-anchor="start" x="20.5" y="-417.5" font-family="Helvetica,sans-Serif" font-size="10.00">SPACE()</text>
<text text-anchor="start" x="7.5" y="-402.5" font-family="Helvetica,sans-Serif" font-size="10.00">+</text>
<text text-anchor="start" x="20.5" y="-402.5" font-family="Helvetica,sans-Serif" font-size="10.00">FORMAT_FEEDRATE()</text>
<text text-anchor="start" x="7.5" y="-387.5" font-family="Helvetica,sans-Serif" font-size="10.00">+</text>
<text text-anchor="start" x="20.5" y="-387.5" font-family="Helvetica,sans-Serif" font-size="10.00">FORMAT_ANG()</text>
<text text-anchor="start" x="7.5" y="-372.5" font-family="Helvetica,sans-Serif" font-size="10.00">+</text>
<text text-anchor="start" x="20.5" y="-372.5" font-family="Helvetica,sans-Serif" font-size="10.00">FORMAT_TIME()</text>
<text text-anchor="start" x="7.5" y="-357.5" font-family="Helvetica,sans-Serif" font-size="10.00">+</text>
<text text-anchor="start" x="20.5" y="-357.5" font-family="Helvetica,sans-Serif" font-size="10.00">BLOCK()</text>
<text text-anchor="start" x="7.5" y="-342.5" font-family="Helvetica,sans-Serif" font-size="10.00">+</text>
<text text-anchor="start" x="20.5" y="-342.5" font-family="Helvetica,sans-Serif" font-size="10.00">COMMENT()</text>
<text text-anchor="start" x="7.5" y="-327.5" font-family="Helvetica,sans-Serif" font-size="10.00">+</text>
<text text-anchor="start" x="20.5" y="-327.5" font-family="Helvetica,sans-Serif" font-size="10.00">VARIABLE()</text>
<text text-anchor="start" x="7.5" y="-312.5" font-family="Helvetica,sans-Serif" font-size="10.00">+</text>
<text text-anchor="start" x="20.5" y="-312.5" font-family="Helvetica,sans-Serif" font-size="10.00">VARIABLE_SET()</text>
<text text-anchor="start" x="20.5" y="-297.5" font-family="Helvetica,sans-Serif" font-size="10.00">and 151 more...</text>
<polygon fill="#666666" stroke="#666666" points="3.5,-742.5 3.5,-742.5 129.5,-742.5 129.5,-742.5 3.5,-742.5"/>
<polygon fill="#666666" stroke="#666666" points="3.5,-457.5 3.5,-457.5 18.5,-457.5 18.5,-457.5 3.5,-457.5"/>
<polygon fill="#666666" stroke="#666666" points="18.5,-457.5 18.5,-457.5 129.5,-457.5 129.5,-457.5 18.5,-457.5"/>
<polygon fill="none" stroke="#666666" points="3.5,-291 3.5,-760 129.5,-760 129.5,-291 3.5,-291"/>
</a>
</g>
</g>
<!-- Node2&#45;&gt;Node1 -->
<g id="edge3_Node000001_Node000002" class="edge">
<title>Node2&#45;&gt;Node1</title>
<g id="a_edge3_Node000001_Node000002"><a xlink:title=" ">
<path fill="none" stroke="#63b8ff" d="M66.5,-280.72C66.5,-272.01 66.5,-263.42 66.5,-255.03"/>
<polygon fill="none" stroke="#63b8ff" points="63,-281 66.5,-291 70,-281 63,-281"/>
</a>
</g>
</g>
<!-- Node3 -->
<g id="Node000003" class="node">
<title>Node3</title>
<g id="a_Node000003"><a xlink:href="$classcam_1_1nc_1_1nc_1_1Creator.html" xlink:title=" ">
<polygon fill="white" stroke="transparent" points="118,-1010 15,-1010 15,-796 118,-796 118,-1010"/>
<text text-anchor="start" x="22.5" y="-998" font-family="Helvetica,sans-Serif" font-size="10.00">cam.nc.nc.Creator</text>
<text text-anchor="start" x="19.5" y="-983" font-family="Helvetica,sans-Serif" font-size="10.00">+</text>
<text text-anchor="start" x="32.5" y="-983" font-family="Helvetica,sans-Serif" font-size="10.00">file</text>
<text text-anchor="start" x="19.5" y="-968" font-family="Helvetica,sans-Serif" font-size="10.00">+</text>
<text text-anchor="start" x="32.5" y="-968" font-family="Helvetica,sans-Serif" font-size="10.00">filename</text>
<text text-anchor="start" x="19.5" y="-953" font-family="Helvetica,sans-Serif" font-size="10.00">+</text>
<text text-anchor="start" x="32.5" y="-953" font-family="Helvetica,sans-Serif" font-size="10.00">__init__()</text>
<text text-anchor="start" x="19.5" y="-938" font-family="Helvetica,sans-Serif" font-size="10.00">+</text>
<text text-anchor="start" x="32.5" y="-938" font-family="Helvetica,sans-Serif" font-size="10.00">file_open()</text>
<text text-anchor="start" x="19.5" y="-923" font-family="Helvetica,sans-Serif" font-size="10.00">+</text>
<text text-anchor="start" x="32.5" y="-923" font-family="Helvetica,sans-Serif" font-size="10.00">file_close()</text>
<text text-anchor="start" x="19.5" y="-908" font-family="Helvetica,sans-Serif" font-size="10.00">+</text>
<text text-anchor="start" x="32.5" y="-908" font-family="Helvetica,sans-Serif" font-size="10.00">write()</text>
<text text-anchor="start" x="19.5" y="-893" font-family="Helvetica,sans-Serif" font-size="10.00">+</text>
<text text-anchor="start" x="32.5" y="-893" font-family="Helvetica,sans-Serif" font-size="10.00">writem()</text>
<text text-anchor="start" x="19.5" y="-878" font-family="Helvetica,sans-Serif" font-size="10.00">+</text>
<text text-anchor="start" x="32.5" y="-878" font-family="Helvetica,sans-Serif" font-size="10.00">program_begin()</text>
<text text-anchor="start" x="19.5" y="-863" font-family="Helvetica,sans-Serif" font-size="10.00">+</text>
<text text-anchor="start" x="32.5" y="-863" font-family="Helvetica,sans-Serif" font-size="10.00">add_stock()</text>
<text text-anchor="start" x="19.5" y="-848" font-family="Helvetica,sans-Serif" font-size="10.00">+</text>
<text text-anchor="start" x="32.5" y="-848" font-family="Helvetica,sans-Serif" font-size="10.00">program_stop()</text>
<text text-anchor="start" x="19.5" y="-833" font-family="Helvetica,sans-Serif" font-size="10.00">+</text>
<text text-anchor="start" x="32.5" y="-833" font-family="Helvetica,sans-Serif" font-size="10.00">program_end()</text>
<text text-anchor="start" x="19.5" y="-818" font-family="Helvetica,sans-Serif" font-size="10.00">+</text>
<text text-anchor="start" x="32.5" y="-818" font-family="Helvetica,sans-Serif" font-size="10.00">flush_nc()</text>
<text text-anchor="start" x="32.5" y="-803" font-family="Helvetica,sans-Serif" font-size="10.00">and 77 more...</text>
<polygon fill="#666666" stroke="#666666" points="15.5,-993 15.5,-993 118.5,-993 118.5,-993 15.5,-993"/>
<polygon fill="#666666" stroke="#666666" points="15.5,-963 15.5,-963 30.5,-963 30.5,-963 15.5,-963"/>
<polygon fill="#666666" stroke="#666666" points="30.5,-963 30.5,-963 118.5,-963 118.5,-963 30.5,-963"/>
<polygon fill="none" stroke="#666666" points="15,-796 15,-1010 118,-1010 118,-796 15,-796"/>
</a>
</g>
</g>
<!-- Node3&#45;&gt;Node2 -->
<g id="edge4_Node000002_Node000003" class="edge">
<title>Node3&#45;&gt;Node2</title>
<g id="a_edge4_Node000002_Node000003"><a xlink:title=" ">
<path fill="none" stroke="#63b8ff" d="M66.5,-785.81C66.5,-777.45 66.5,-768.86 66.5,-760.13"/>
<polygon fill="none" stroke="#63b8ff" points="63,-785.9 66.5,-795.9 70,-785.9 63,-785.9"/>
</a>
</g>
</g>
</g>
</svg>
