<?xml version="1.0" encoding="UTF-8" standalone="no"?>
<!DOCTYPE svg PUBLIC "-//W3C//DTD SVG 1.1//EN"
 "http://www.w3.org/Graphics/SVG/1.1/DTD/svg11.dtd">
<!-- Generated by graphviz version 2.43.0 (0)
 -->
<!-- Title: cam.nc.shopbot_mtc.Creator.TOOL Pages: 1 -->
<svg width="395pt" height="326pt"
 viewBox="0.00 0.00 395.00 326.00" xmlns="http://www.w3.org/2000/svg" xmlns:xlink="http://www.w3.org/1999/xlink">
<g id="graph0" class="graph" transform="scale(1 1) rotate(0) translate(4 322)">
<title>cam.nc.shopbot_mtc.Creator.TOOL</title>
<!-- Node1 -->
<g id="Node000001" class="node">
<title>Node1</title>
<g id="a_Node000001"><a xlink:title=" ">
<polygon fill="#999999" stroke="#666666" points="387,-168.5 202,-168.5 202,-149.5 387,-149.5 387,-168.5"/>
<text text-anchor="middle" x="294.5" y="-156.5" font-family="Helvetica,sans-Serif" font-size="10.00">cam.nc.shopbot_mtc.Creator.TOOL</text>
</a>
</g>
</g>
<!-- Node2 -->
<g id="Node000002" class="node">
<title>Node2</title>
<g id="a_Node000002"><a xlink:href="$classcam_1_1nc_1_1centroid1_1_1Creator.html#a36d8a0c5d271ca1246fa521b42b5cf29" xlink:title="tool info">
<polygon fill="white" stroke="#666666" points="163.5,-318 2.5,-318 2.5,-288 163.5,-288 163.5,-318"/>
<text text-anchor="start" x="10.5" y="-306" font-family="Helvetica,sans-Serif" font-size="10.00">cam.nc.centroid1.Creator.tool</text>
<text text-anchor="middle" x="83" y="-295" font-family="Helvetica,sans-Serif" font-size="10.00">_change</text>
</a>
</g>
</g>
<!-- Node1&#45;&gt;Node2 -->
<g id="edge8_Node000001_Node000002" class="edge">
<title>Node1&#45;&gt;Node2</title>
<g id="a_edge8_Node000001_Node000002"><a xlink:title=" ">
<path fill="none" stroke="#63b8ff" d="M279.55,-176.62C257.95,-202.74 213.88,-251.59 166,-279 160.08,-282.39 153.64,-285.34 147.05,-287.89"/>
<polygon fill="#63b8ff" stroke="#63b8ff" points="282.4,-178.66 285.99,-168.69 276.97,-174.25 282.4,-178.66"/>
</a>
</g>
</g>
<!-- Node3 -->
<g id="Node000003" class="node">
<title>Node3</title>
<g id="a_Node000003"><a xlink:href="$classcam_1_1nc_1_1gravos_1_1Creator.html#aa5dd1702c8a30a208fa995e6bfc13d50" xlink:title="Tools.">
<polygon fill="white" stroke="#666666" points="157,-270 9,-270 9,-240 157,-240 157,-270"/>
<text text-anchor="start" x="17" y="-258" font-family="Helvetica,sans-Serif" font-size="10.00">cam.nc.gravos.Creator.tool</text>
<text text-anchor="middle" x="83" y="-247" font-family="Helvetica,sans-Serif" font-size="10.00">_change</text>
</a>
</g>
</g>
<!-- Node1&#45;&gt;Node3 -->
<g id="edge9_Node000001_Node000003" class="edge">
<title>Node1&#45;&gt;Node3</title>
<g id="a_edge9_Node000001_Node000003"><a xlink:title=" ">
<path fill="none" stroke="#63b8ff" d="M270.43,-174.18C245.51,-190.06 204.21,-214.87 166,-231 158.21,-234.29 149.82,-237.3 141.49,-240"/>
<polygon fill="#63b8ff" stroke="#63b8ff" points="272.63,-176.92 279.14,-168.57 268.84,-171.04 272.63,-176.92"/>
</a>
</g>
</g>
<!-- Node4 -->
<g id="Node000004" class="node">
<title>Node4</title>
<g id="a_Node000004"><a xlink:href="$classcam_1_1nc_1_1heiden_1_1Creator.html#a1e0d0a0333918e86dfaa5e03437bf452" xlink:title="Tools.">
<polygon fill="white" stroke="#666666" points="157,-222 9,-222 9,-192 157,-192 157,-222"/>
<text text-anchor="start" x="17" y="-210" font-family="Helvetica,sans-Serif" font-size="10.00">cam.nc.heiden.Creator.tool</text>
<text text-anchor="middle" x="83" y="-199" font-family="Helvetica,sans-Serif" font-size="10.00">_change</text>
</a>
</g>
</g>
<!-- Node1&#45;&gt;Node4 -->
<g id="edge10_Node000001_Node000004" class="edge">
<title>Node1&#45;&gt;Node4</title>
<g id="a_edge10_Node000001_Node000004"><a xlink:title=" ">
<path fill="none" stroke="#63b8ff" d="M241.91,-170.82C214.02,-177.21 179.27,-185.17 149.48,-192"/>
<polygon fill="#63b8ff" stroke="#63b8ff" points="242.89,-174.19 251.86,-168.54 241.33,-167.36 242.89,-174.19"/>
</a>
</g>
</g>
<!-- Node5 -->
<g id="Node000005" class="node">
<title>Node5</title>
<g id="a_Node000005"><a xlink:href="$classcam_1_1nc_1_1heiden530_1_1Creator.html#a1d09a200e101159ed97068ca958de3ec" xlink:title="Tools.">
<polygon fill="white" stroke="#666666" points="166,-174 0,-174 0,-144 166,-144 166,-174"/>
<text text-anchor="start" x="8" y="-162" font-family="Helvetica,sans-Serif" font-size="10.00">cam.nc.heiden530.Creator.tool</text>
<text text-anchor="middle" x="83" y="-151" font-family="Helvetica,sans-Serif" font-size="10.00">_change</text>
</a>
</g>
</g>
<!-- Node1&#45;&gt;Node5 -->
<g id="edge11_Node000001_Node000005" class="edge">
<title>Node1&#45;&gt;Node5</title>
<g id="a_edge11_Node000001_Node000005"><a xlink:title=" ">
<path fill="none" stroke="#63b8ff" d="M191.84,-159C183.24,-159 174.6,-159 166.18,-159"/>
<polygon fill="#63b8ff" stroke="#63b8ff" points="191.92,-162.5 201.92,-159 191.91,-155.5 191.92,-162.5"/>
</a>
</g>
</g>
<!-- Node6 -->
<g id="Node000006" class="node">
<title>Node6</title>
<g id="a_Node000006"><a xlink:href="$classcam_1_1nc_1_1hm50_1_1Creator.html#a52a88e68142442ebc4581b840b5bab40" xlink:title="Tools.">
<polygon fill="white" stroke="#666666" points="154.5,-126 11.5,-126 11.5,-96 154.5,-96 154.5,-126"/>
<text text-anchor="start" x="19.5" y="-114" font-family="Helvetica,sans-Serif" font-size="10.00">cam.nc.hm50.Creator.tool</text>
<text text-anchor="middle" x="83" y="-103" font-family="Helvetica,sans-Serif" font-size="10.00">_change</text>
</a>
</g>
</g>
<!-- Node1&#45;&gt;Node6 -->
<g id="edge12_Node000001_Node000006" class="edge">
<title>Node1&#45;&gt;Node6</title>
<g id="a_edge12_Node000001_Node000006"><a xlink:title=" ">
<path fill="none" stroke="#63b8ff" d="M241.91,-147.18C214.02,-140.79 179.27,-132.83 149.48,-126"/>
<polygon fill="#63b8ff" stroke="#63b8ff" points="241.33,-150.64 251.86,-149.46 242.89,-143.81 241.33,-150.64"/>
</a>
</g>
</g>
<!-- Node7 -->
<g id="Node000007" class="node">
<title>Node7</title>
<g id="a_Node000007"><a xlink:href="$classcam_1_1nc_1_1iso_1_1Creator.html#a3e61292523aa893f0187112023e51eff" xlink:title="Tools.">
<polygon fill="white" stroke="#666666" points="147.5,-78 18.5,-78 18.5,-48 147.5,-48 147.5,-78"/>
<text text-anchor="start" x="26.5" y="-66" font-family="Helvetica,sans-Serif" font-size="10.00">cam.nc.iso.Creator.tool</text>
<text text-anchor="middle" x="83" y="-55" font-family="Helvetica,sans-Serif" font-size="10.00">_change</text>
</a>
</g>
</g>
<!-- Node1&#45;&gt;Node7 -->
<g id="edge13_Node000001_Node000007" class="edge">
<title>Node1&#45;&gt;Node7</title>
<g id="a_edge13_Node000001_Node000007"><a xlink:title=" ">
<path fill="none" stroke="#63b8ff" d="M270.43,-143.82C245.51,-127.94 204.21,-103.13 166,-87 158.21,-83.71 149.82,-80.7 141.49,-78"/>
<polygon fill="#63b8ff" stroke="#63b8ff" points="268.84,-146.96 279.14,-149.43 272.63,-141.08 268.84,-146.96"/>
</a>
</g>
</g>
<!-- Node8 -->
<g id="Node000008" class="node">
<title>Node8</title>
<g id="a_Node000008"><a xlink:href="$classcam_1_1nc_1_1mach3_1_1Creator.html#a4d1de1048649d3d4c98467248b80bf69" xlink:title="Tools.">
<polygon fill="white" stroke="#666666" points="157,-30 9,-30 9,0 157,0 157,-30"/>
<text text-anchor="start" x="17" y="-18" font-family="Helvetica,sans-Serif" font-size="10.00">cam.nc.mach3.Creator.tool</text>
<text text-anchor="middle" x="83" y="-7" font-family="Helvetica,sans-Serif" font-size="10.00">_change</text>
</a>
</g>
</g>
<!-- Node1&#45;&gt;Node8 -->
<g id="edge14_Node000001_Node000008" class="edge">
<title>Node1&#45;&gt;Node8</title>
<g id="a_edge14_Node000001_Node000008"><a xlink:title=" ">
<path fill="none" stroke="#63b8ff" d="M279.55,-141.38C257.95,-115.26 213.88,-66.41 166,-39 160.08,-35.61 153.64,-32.66 147.05,-30.11"/>
<polygon fill="#63b8ff" stroke="#63b8ff" points="276.97,-143.75 285.99,-149.31 282.4,-139.34 276.97,-143.75"/>
</a>
</g>
</g>
</g>
</svg>
