<?xml version="1.0" encoding="UTF-8" standalone="no"?>
<!DOCTYPE svg PUBLIC "-//W3C//DTD SVG 1.1//EN"
 "http://www.w3.org/Graphics/SVG/1.1/DTD/svg11.dtd">
<!-- Generated by graphviz version 2.43.0 (0)
 -->
<!-- Title: cam.ui_panels.op_properties.CAM_OPERATION_PROPERTIES_Panel Pages: 1 -->
<svg width="622pt" height="563pt"
 viewBox="0.00 0.00 621.50 563.00" xmlns="http://www.w3.org/2000/svg" xmlns:xlink="http://www.w3.org/1999/xlink">
<g id="graph0" class="graph" transform="scale(1 1) rotate(0) translate(4 559)">
<title>cam.ui_panels.op_properties.CAM_OPERATION_PROPERTIES_Panel</title>
<!-- Node1 -->
<g id="Node000001" class="node">
<title>Node1</title>
<g id="a_Node000001"><a xlink:title=" ">
<polygon fill="#999999" stroke="transparent" points="475,-225 284,-225 284,0 475,0 475,-225"/>
<text text-anchor="start" x="289.5" y="-212.5" font-family="Helvetica,sans-Serif" font-size="10.00">cam.ui_panels.op_properties.</text>
<text text-anchor="start" x="289.5" y="-201.5" font-family="Helvetica,sans-Serif" font-size="10.00">CAM_OPERATION_PROPERTIES_Panel</text>
<text text-anchor="start" x="297.5" y="-186.5" font-family="Helvetica,sans-Serif" font-size="10.00">+</text>
<text text-anchor="start" x="319.5" y="-186.5" font-family="Helvetica,sans-Serif" font-size="10.00">op</text>
<text text-anchor="start" x="297.5" y="-171.5" font-family="Helvetica,sans-Serif" font-size="10.00">+</text>
<text text-anchor="start" x="319.5" y="-171.5" font-family="Helvetica,sans-Serif" font-size="10.00">context</text>
<text text-anchor="start" x="297.5" y="-156.5" font-family="Helvetica,sans-Serif" font-size="10.00">+</text>
<text text-anchor="start" x="319.5" y="-156.5" font-family="Helvetica,sans-Serif" font-size="10.00">draw_cutter_engagement()</text>
<text text-anchor="start" x="297.5" y="-141.5" font-family="Helvetica,sans-Serif" font-size="10.00">+</text>
<text text-anchor="start" x="319.5" y="-141.5" font-family="Helvetica,sans-Serif" font-size="10.00">draw_machine_axis()</text>
<text text-anchor="start" x="297.5" y="-126.5" font-family="Helvetica,sans-Serif" font-size="10.00">+</text>
<text text-anchor="start" x="319.5" y="-126.5" font-family="Helvetica,sans-Serif" font-size="10.00">draw_strategy()</text>
<text text-anchor="start" x="297.5" y="-111.5" font-family="Helvetica,sans-Serif" font-size="10.00">+</text>
<text text-anchor="start" x="319.5" y="-111.5" font-family="Helvetica,sans-Serif" font-size="10.00">draw_enable_A_B_axis()</text>
<text text-anchor="start" x="297.5" y="-96.5" font-family="Helvetica,sans-Serif" font-size="10.00">+</text>
<text text-anchor="start" x="319.5" y="-96.5" font-family="Helvetica,sans-Serif" font-size="10.00">draw_cutout_type()</text>
<text text-anchor="start" x="297.5" y="-81.5" font-family="Helvetica,sans-Serif" font-size="10.00">+</text>
<text text-anchor="start" x="319.5" y="-81.5" font-family="Helvetica,sans-Serif" font-size="10.00">draw_overshoot()</text>
<text text-anchor="start" x="297.5" y="-66.5" font-family="Helvetica,sans-Serif" font-size="10.00">+</text>
<text text-anchor="start" x="319.5" y="-66.5" font-family="Helvetica,sans-Serif" font-size="10.00">draw_startpoint()</text>
<text text-anchor="start" x="297.5" y="-51.5" font-family="Helvetica,sans-Serif" font-size="10.00">+</text>
<text text-anchor="start" x="319.5" y="-51.5" font-family="Helvetica,sans-Serif" font-size="10.00">draw_lead_in_out()</text>
<text text-anchor="start" x="297.5" y="-36.5" font-family="Helvetica,sans-Serif" font-size="10.00">+</text>
<text text-anchor="start" x="319.5" y="-36.5" font-family="Helvetica,sans-Serif" font-size="10.00">draw_outlines()</text>
<text text-anchor="start" x="297.5" y="-21.5" font-family="Helvetica,sans-Serif" font-size="10.00">+</text>
<text text-anchor="start" x="319.5" y="-21.5" font-family="Helvetica,sans-Serif" font-size="10.00">draw_merge()</text>
<text text-anchor="start" x="319.5" y="-6.5" font-family="Helvetica,sans-Serif" font-size="10.00">and 11 more...</text>
<polygon fill="#666666" stroke="#666666" points="284.5,-196.5 284.5,-196.5 475.5,-196.5 475.5,-196.5 284.5,-196.5"/>
<polygon fill="#666666" stroke="#666666" points="284.5,-166.5 284.5,-166.5 317.5,-166.5 317.5,-166.5 284.5,-166.5"/>
<polygon fill="#666666" stroke="#666666" points="317.5,-166.5 317.5,-166.5 475.5,-166.5 475.5,-166.5 317.5,-166.5"/>
<polygon fill="none" stroke="#666666" points="284,0 284,-225 475,-225 475,0 284,0"/>
</a>
</g>
</g>
<!-- Node2 -->
<g id="Node000002" class="node">
<title>Node2</title>
<g id="a_Node000002"><a xlink:href="$classcam_1_1ui__panels_1_1buttons__panel_1_1CAMButtonsPanel.html" xlink:title=" ">
<polygon fill="white" stroke="transparent" points="277,-437 134,-437 134,-272 277,-272 277,-437"/>
<text text-anchor="start" x="145" y="-424.5" font-family="Helvetica,sans-Serif" font-size="10.00">cam.ui_panels.buttons</text>
<text text-anchor="start" x="145" y="-413.5" font-family="Helvetica,sans-Serif" font-size="10.00">_panel.CAMButtonsPanel</text>
<text text-anchor="start" x="138.5" y="-398.5" font-family="Helvetica,sans-Serif" font-size="10.00">+</text>
<text text-anchor="start" x="151.5" y="-398.5" font-family="Helvetica,sans-Serif" font-size="10.00">op</text>
<text text-anchor="start" x="138.5" y="-383.5" font-family="Helvetica,sans-Serif" font-size="10.00">+</text>
<text text-anchor="start" x="151.5" y="-383.5" font-family="Helvetica,sans-Serif" font-size="10.00">use_experimental</text>
<text text-anchor="start" x="138.5" y="-368.5" font-family="Helvetica,sans-Serif" font-size="10.00">+</text>
<text text-anchor="start" x="151.5" y="-368.5" font-family="Helvetica,sans-Serif" font-size="10.00">poll()</text>
<text text-anchor="start" x="138.5" y="-353.5" font-family="Helvetica,sans-Serif" font-size="10.00">+</text>
<text text-anchor="start" x="151.5" y="-353.5" font-family="Helvetica,sans-Serif" font-size="10.00">active_operation_index()</text>
<text text-anchor="start" x="138.5" y="-338.5" font-family="Helvetica,sans-Serif" font-size="10.00">+</text>
<text text-anchor="start" x="151.5" y="-338.5" font-family="Helvetica,sans-Serif" font-size="10.00">active_operation()</text>
<text text-anchor="start" x="138.5" y="-323.5" font-family="Helvetica,sans-Serif" font-size="10.00">+</text>
<text text-anchor="start" x="151.5" y="-323.5" font-family="Helvetica,sans-Serif" font-size="10.00">__init__()</text>
<text text-anchor="start" x="138.5" y="-308.5" font-family="Helvetica,sans-Serif" font-size="10.00">+</text>
<text text-anchor="start" x="151.5" y="-308.5" font-family="Helvetica,sans-Serif" font-size="10.00">operations_count()</text>
<text text-anchor="start" x="138.5" y="-293.5" font-family="Helvetica,sans-Serif" font-size="10.00">+</text>
<text text-anchor="start" x="151.5" y="-293.5" font-family="Helvetica,sans-Serif" font-size="10.00">has_operations()</text>
<text text-anchor="start" x="138.5" y="-278.5" font-family="Helvetica,sans-Serif" font-size="10.00">+</text>
<text text-anchor="start" x="151.5" y="-278.5" font-family="Helvetica,sans-Serif" font-size="10.00">has_correct_level()</text>
<polygon fill="#666666" stroke="#666666" points="134.5,-408.5 134.5,-408.5 277.5,-408.5 277.5,-408.5 134.5,-408.5"/>
<polygon fill="#666666" stroke="#666666" points="134.5,-378.5 134.5,-378.5 149.5,-378.5 149.5,-378.5 134.5,-378.5"/>
<polygon fill="#666666" stroke="#666666" points="149.5,-378.5 149.5,-378.5 277.5,-378.5 277.5,-378.5 149.5,-378.5"/>
<polygon fill="none" stroke="#666666" points="134,-272 134,-437 277,-437 277,-272 134,-272"/>
</a>
</g>
</g>
<!-- Node2&#45;&gt;Node1 -->
<g id="edge9_Node000001_Node000002" class="edge">
<title>Node2&#45;&gt;Node1</title>
<g id="a_edge9_Node000001_Node000002"><a xlink:title=" ">
<path fill="none" stroke="#63b8ff" d="M270.61,-263.7C279.75,-251.09 289.24,-238 298.63,-225.05"/>
<polygon fill="none" stroke="#63b8ff" points="267.69,-261.76 264.65,-271.91 273.35,-265.87 267.69,-261.76"/>
</a>
</g>
</g>
<!-- Node3 -->
<g id="Node000003" class="node">
<title>Node3</title>
<g id="a_Node000003"><a xlink:title=" ">
<polygon fill="white" stroke="transparent" points="23,-555 0,-555 0,-506 23,-506 23,-555"/>
<text text-anchor="start" x="5.5" y="-542.5" font-family="Helvetica,sans-Serif" font-size="10.00">str</text>
<text text-anchor="start" x="10" y="-527.5" font-family="Helvetica,sans-Serif" font-size="10.00"> </text>
<text text-anchor="start" x="10" y="-512.5" font-family="Helvetica,sans-Serif" font-size="10.00"> </text>
<polygon fill="#666666" stroke="#666666" points="0.5,-537.5 0.5,-537.5 23.5,-537.5 23.5,-537.5 0.5,-537.5"/>
<polygon fill="#666666" stroke="#666666" points="0.5,-522.5 0.5,-522.5 23.5,-522.5 23.5,-522.5 0.5,-522.5"/>
<polygon fill="none" stroke="#666666" points="0,-506 0,-555 23,-555 23,-506 0,-506"/>
</a>
</g>
</g>
<!-- Node3&#45;&gt;Node1 -->
<g id="edge14_Node000001_Node000003" class="edge">
<title>Node3&#45;&gt;Node1</title>
<g id="a_edge14_Node000001_Node000003"><a xlink:title=" ">
<path fill="none" stroke="#63b8ff" d="M9.41,-505.65C6.39,-456.46 6.32,-342.45 61.5,-272 113.92,-205.07 202.07,-164.26 272.29,-140.85"/>
<polygon fill="none" stroke="#63b8ff" points="272.42,-140.81 276.89,-135.15 283.84,-137.1 279.36,-142.76 272.42,-140.81"/>
</a>
</g>
<text text-anchor="middle" x="93" y="-357.5" font-family="Helvetica,sans-Serif" font-size="10.00" fill="grey"> +bl_idname</text>
<text text-anchor="middle" x="93" y="-346.5" font-family="Helvetica,sans-Serif" font-size="10.00" fill="grey">+bl_label</text>
</g>
<!-- Node3&#45;&gt;Node2 -->
<g id="edge10_Node000002_Node000003" class="edge">
<title>Node3&#45;&gt;Node2</title>
<g id="a_edge10_Node000002_Node000003"><a xlink:title=" ">
<path fill="none" stroke="#63b8ff" d="M17.53,-505.97C22.49,-490.2 30.8,-469.7 43.5,-455 55.87,-440.69 89.63,-419.26 123.15,-399.94"/>
<polygon fill="none" stroke="#63b8ff" points="123.57,-399.7 126.8,-393.25 133.99,-393.75 130.76,-400.2 123.57,-399.7"/>
</a>
</g>
<text text-anchor="middle" x="84" y="-480" font-family="Helvetica,sans-Serif" font-size="10.00" fill="grey"> +bl_context</text>
<text text-anchor="middle" x="84" y="-469" font-family="Helvetica,sans-Serif" font-size="10.00" fill="grey">+bl_region_type</text>
<text text-anchor="middle" x="84" y="-458" font-family="Helvetica,sans-Serif" font-size="10.00" fill="grey">+bl_space_type</text>
</g>
<!-- Node4 -->
<g id="Node000004" class="node">
<title>Node4</title>
<g id="a_Node000004"><a xlink:title=" ">
<polygon fill="white" stroke="transparent" points="147.5,-555 115.5,-555 115.5,-506 147.5,-506 147.5,-555"/>
<text text-anchor="start" x="120.5" y="-542.5" font-family="Helvetica,sans-Serif" font-size="10.00">bool</text>
<text text-anchor="start" x="129.5" y="-527.5" font-family="Helvetica,sans-Serif" font-size="10.00"> </text>
<text text-anchor="start" x="129.5" y="-512.5" font-family="Helvetica,sans-Serif" font-size="10.00"> </text>
<polygon fill="#666666" stroke="#666666" points="115.5,-537.5 115.5,-537.5 147.5,-537.5 147.5,-537.5 115.5,-537.5"/>
<polygon fill="#666666" stroke="#666666" points="115.5,-522.5 115.5,-522.5 147.5,-522.5 147.5,-522.5 115.5,-522.5"/>
<polygon fill="none" stroke="#666666" points="115.5,-506 115.5,-555 147.5,-555 147.5,-506 115.5,-506"/>
</a>
</g>
</g>
<!-- Node4&#45;&gt;Node2 -->
<g id="edge11_Node000002_Node000004" class="edge">
<title>Node4&#45;&gt;Node2</title>
<g id="a_edge11_Node000002_Node000004"><a xlink:title=" ">
<path fill="none" stroke="#63b8ff" d="M128.19,-505.73C126.98,-490.78 127.04,-471.31 132.5,-455 133.25,-452.75 134.08,-450.51 134.96,-448.29"/>
<polygon fill="none" stroke="#63b8ff" points="134.99,-448.22 133.8,-441.11 139.9,-437.27 141.1,-444.38 134.99,-448.22"/>
</a>
</g>
<text text-anchor="middle" x="187" y="-469" font-family="Helvetica,sans-Serif" font-size="10.00" fill="grey"> +always_show_panel</text>
</g>
<!-- Node5 -->
<g id="Node000005" class="node">
<title>Node5</title>
<g id="a_Node000005"><a xlink:title=" ">
<polygon fill="white" stroke="transparent" points="336,-555 307,-555 307,-506 336,-506 336,-555"/>
<text text-anchor="start" x="312.5" y="-542.5" font-family="Helvetica,sans-Serif" font-size="10.00">dict</text>
<text text-anchor="start" x="320" y="-527.5" font-family="Helvetica,sans-Serif" font-size="10.00"> </text>
<text text-anchor="start" x="320" y="-512.5" font-family="Helvetica,sans-Serif" font-size="10.00"> </text>
<polygon fill="#666666" stroke="#666666" points="307.5,-537.5 307.5,-537.5 336.5,-537.5 336.5,-537.5 307.5,-537.5"/>
<polygon fill="#666666" stroke="#666666" points="307.5,-522.5 307.5,-522.5 336.5,-522.5 336.5,-522.5 307.5,-522.5"/>
<polygon fill="none" stroke="#666666" points="307,-506 307,-555 336,-555 336,-506 307,-506"/>
</a>
</g>
</g>
<!-- Node5&#45;&gt;Node1 -->
<g id="edge16_Node000001_Node000005" class="edge">
<title>Node5&#45;&gt;Node1</title>
<g id="a_edge16_Node000001_Node000005"><a xlink:title=" ">
<path fill="none" stroke="#63b8ff" d="M336.24,-520.22C346.47,-512.86 359.34,-501.58 365.5,-488 385.15,-444.69 386.92,-328.73 384.83,-237.21"/>
<polygon fill="none" stroke="#63b8ff" points="384.83,-237.03 380.68,-231.13 384.53,-225.03 388.67,-230.93 384.83,-237.03"/>
</a>
</g>
<text text-anchor="middle" x="418" y="-352" font-family="Helvetica,sans-Serif" font-size="10.00" fill="grey"> +prop_level</text>
</g>
<!-- Node5&#45;&gt;Node2 -->
<g id="edge12_Node000002_Node000005" class="edge">
<title>Node5&#45;&gt;Node2</title>
<g id="a_edge12_Node000002_Node000005"><a xlink:title=" ">
<path fill="none" stroke="#63b8ff" d="M306.72,-521.68C294.1,-514.38 276.2,-502.47 264.5,-488 254.78,-475.99 246.33,-462.12 239.1,-447.98"/>
<polygon fill="none" stroke="#63b8ff" points="239.08,-447.92 232.85,-444.29 233.81,-437.14 240.04,-440.78 239.08,-447.92"/>
</a>
</g>
<text text-anchor="middle" x="315" y="-469" font-family="Helvetica,sans-Serif" font-size="10.00" fill="grey"> +COMPAT_ENGINES</text>
</g>
<!-- Node6 -->
<g id="Node000006" class="node">
<title>Node6</title>
<g id="a_Node000006"><a xlink:title=" ">
<polygon fill="white" stroke="transparent" points="498,-379 461,-379 461,-330 498,-330 498,-379"/>
<text text-anchor="start" x="466.5" y="-366.5" font-family="Helvetica,sans-Serif" font-size="10.00">Panel</text>
<text text-anchor="start" x="478" y="-351.5" font-family="Helvetica,sans-Serif" font-size="10.00"> </text>
<text text-anchor="start" x="478" y="-336.5" font-family="Helvetica,sans-Serif" font-size="10.00"> </text>
<polygon fill="#666666" stroke="#666666" points="461.5,-361.5 461.5,-361.5 498.5,-361.5 498.5,-361.5 461.5,-361.5"/>
<polygon fill="#666666" stroke="#666666" points="461.5,-346.5 461.5,-346.5 498.5,-346.5 498.5,-346.5 461.5,-346.5"/>
<polygon fill="none" stroke="#666666" points="461,-330 461,-379 498,-379 498,-330 461,-330"/>
</a>
</g>
</g>
<!-- Node6&#45;&gt;Node1 -->
<g id="edge13_Node000001_Node000006" class="edge">
<title>Node6&#45;&gt;Node1</title>
<g id="a_edge13_Node000001_Node000006"><a xlink:title=" ">
<path fill="none" stroke="#63b8ff" d="M466.32,-320.62C460.32,-305.75 453.11,-287.97 446.5,-272 440.22,-256.82 433.54,-240.84 426.93,-225.12"/>
<polygon fill="none" stroke="#63b8ff" points="463.08,-321.95 470.06,-329.92 469.58,-319.34 463.08,-321.95"/>
</a>
</g>
</g>
<!-- Node7 -->
<g id="Node000007" class="node">
<title>Node7</title>
<g id="a_Node000007"><a xlink:title=" ">
<polygon fill="white" stroke="transparent" points="539,-379 516,-379 516,-330 539,-330 539,-379"/>
<text text-anchor="start" x="521.5" y="-366.5" font-family="Helvetica,sans-Serif" font-size="10.00">int</text>
<text text-anchor="start" x="526" y="-351.5" font-family="Helvetica,sans-Serif" font-size="10.00"> </text>
<text text-anchor="start" x="526" y="-336.5" font-family="Helvetica,sans-Serif" font-size="10.00"> </text>
<polygon fill="#666666" stroke="#666666" points="516.5,-361.5 516.5,-361.5 539.5,-361.5 539.5,-361.5 516.5,-361.5"/>
<polygon fill="#666666" stroke="#666666" points="516.5,-346.5 516.5,-346.5 539.5,-346.5 539.5,-346.5 516.5,-346.5"/>
<polygon fill="none" stroke="#666666" points="516,-330 516,-379 539,-379 539,-330 516,-330"/>
</a>
</g>
</g>
<!-- Node7&#45;&gt;Node1 -->
<g id="edge15_Node000001_Node000007" class="edge">
<title>Node7&#45;&gt;Node1</title>
<g id="a_edge15_Node000001_Node000007"><a xlink:title=" ">
<path fill="none" stroke="#63b8ff" d="M524.48,-329.72C521.69,-312.94 516.55,-290.28 507.5,-272 500.3,-257.46 491.57,-243.05 482.09,-229.18"/>
<polygon fill="none" stroke="#63b8ff" points="481.96,-229 475.24,-226.39 475.06,-219.18 481.79,-221.79 481.96,-229"/>
</a>
</g>
<text text-anchor="middle" x="555" y="-246" font-family="Helvetica,sans-Serif" font-size="10.00" fill="grey"> +panel_interface_level</text>
</g>
</g>
</svg>
