<?xml version="1.0" encoding="UTF-8" standalone="no"?>
<!DOCTYPE svg PUBLIC "-//W3C//DTD SVG 1.1//EN"
 "http://www.w3.org/Graphics/SVG/1.1/DTD/svg11.dtd">
<!-- Generated by graphviz version 2.43.0 (0)
 -->
<!-- Title: cam.nc.recreator.Redirector.remove_temporary_origin Pages: 1 -->
<svg width="616pt" height="122pt"
 viewBox="0.00 0.00 616.00 122.00" xmlns="http://www.w3.org/2000/svg" xmlns:xlink="http://www.w3.org/1999/xlink">
<g id="graph0" class="graph" transform="scale(1 1) rotate(0) translate(4 118)">
<title>cam.nc.recreator.Redirector.remove_temporary_origin</title>
<!-- Node1 -->
<g id="Node000001" class="node">
<title>Node1</title>
<g id="a_Node000001"><a xlink:title=" ">
<polygon fill="#999999" stroke="#666666" points="191,-61.5 0,-61.5 0,-31.5 191,-31.5 191,-61.5"/>
<text text-anchor="start" x="8" y="-49.5" font-family="Helvetica,sans-Serif" font-size="10.00">cam.nc.recreator.Redirector.remove</text>
<text text-anchor="middle" x="95.5" y="-38.5" font-family="Helvetica,sans-Serif" font-size="10.00">_temporary_origin</text>
</a>
</g>
</g>
<!-- Node1&#45;&gt;Node1 -->
<g id="edge12_Node000001_Node000001" class="edge">
<title>Node1&#45;&gt;Node1</title>
<g id="a_edge12_Node000001_Node000001"><a xlink:title=" ">
<path fill="none" stroke="#63b8ff" d="M55.42,-61.78C46.52,-70.91 59.88,-79.5 95.5,-79.5 116.65,-79.5 129.96,-76.47 135.41,-72.1"/>
<polygon fill="#63b8ff" stroke="#63b8ff" points="138.91,-71.83 135.58,-61.78 131.91,-71.72 138.91,-71.83"/>
</a>
</g>
</g>
<!-- Node2 -->
<g id="Node000002" class="node">
<title>Node2</title>
<g id="a_Node000002"><a xlink:href="$classcam_1_1nc_1_1attach_1_1Creator.html#a15a75411685b954b0073489b30f1342e" xlink:title=" ">
<polygon fill="white" stroke="#666666" points="409.5,-93 240.5,-93 240.5,-74 409.5,-74 409.5,-93"/>
<text text-anchor="middle" x="325" y="-81" font-family="Helvetica,sans-Serif" font-size="10.00">cam.nc.attach.Creator.cut_path</text>
</a>
</g>
</g>
<!-- Node1&#45;&gt;Node2 -->
<g id="edge7_Node000001_Node000002" class="edge">
<title>Node1&#45;&gt;Node2</title>
<g id="a_edge7_Node000001_Node000002"><a xlink:title=" ">
<path fill="none" stroke="#63b8ff" d="M189.03,-61.55C211.23,-65.16 234.55,-68.95 255.44,-72.35"/>
<polygon fill="#63b8ff" stroke="#63b8ff" points="255.05,-75.83 265.49,-73.98 256.18,-68.92 255.05,-75.83"/>
</a>
</g>
</g>
<!-- Node5 -->
<g id="Node000005" class="node">
<title>Node5</title>
<g id="a_Node000005"><a xlink:href="$classcam_1_1nc_1_1drag__knife_1_1Creator.html#a5db2841a5c931c72702e9bb7752ea731" xlink:title=" ">
<polygon fill="white" stroke="#666666" points="420,-56 230,-56 230,-37 420,-37 420,-56"/>
<text text-anchor="middle" x="325" y="-44" font-family="Helvetica,sans-Serif" font-size="10.00">cam.nc.drag_knife.Creator.cut_path</text>
</a>
</g>
</g>
<!-- Node1&#45;&gt;Node5 -->
<g id="edge10_Node000001_Node000005" class="edge">
<title>Node1&#45;&gt;Node5</title>
<g id="a_edge10_Node000001_Node000005"><a xlink:title=" ">
<path fill="none" stroke="#63b8ff" d="M191,-46.5C200.42,-46.5 210.01,-46.5 219.52,-46.5"/>
<polygon fill="#63b8ff" stroke="#63b8ff" points="219.79,-50 229.79,-46.5 219.79,-43 219.79,-50"/>
</a>
</g>
</g>
<!-- Node6 -->
<g id="Node000006" class="node">
<title>Node6</title>
<g id="a_Node000006"><a xlink:href="$classcam_1_1nc_1_1recreator_1_1Redirector.html#ace3039c310a7ee83dafe4fee4382f511" xlink:title=" ">
<polygon fill="white" stroke="#666666" points="423,-19 227,-19 227,0 423,0 423,-19"/>
<text text-anchor="middle" x="325" y="-7" font-family="Helvetica,sans-Serif" font-size="10.00">cam.nc.recreator.Redirector.cut_path</text>
</a>
</g>
</g>
<!-- Node1&#45;&gt;Node6 -->
<g id="edge11_Node000001_Node000006" class="edge">
<title>Node1&#45;&gt;Node6</title>
<g id="a_edge11_Node000001_Node000006"><a xlink:title=" ">
<path fill="none" stroke="#63b8ff" d="M189.03,-31.45C211.23,-27.84 234.55,-24.05 255.44,-20.65"/>
<polygon fill="#63b8ff" stroke="#63b8ff" points="256.18,-24.08 265.49,-19.02 255.05,-17.17 256.18,-24.08"/>
</a>
</g>
</g>
<!-- Node3 -->
<g id="Node000003" class="node">
<title>Node3</title>
<g id="a_Node000003"><a xlink:href="$classcam_1_1nc_1_1attach_1_1Creator.html#a27a17497f0889323fd31aab4f857e577" xlink:title=" ">
<polygon fill="white" stroke="#666666" points="608,-114 459,-114 459,-95 608,-95 608,-114"/>
<text text-anchor="middle" x="533.5" y="-102" font-family="Helvetica,sans-Serif" font-size="10.00">cam.nc.attach.Creator.feed</text>
</a>
</g>
</g>
<!-- Node2&#45;&gt;Node3 -->
<g id="edge8_Node000002_Node000003" class="edge">
<title>Node2&#45;&gt;Node3</title>
<g id="a_edge8_Node000002_Node000003"><a xlink:title=" ">
<path fill="none" stroke="#63b8ff" d="M409.69,-92.01C422.57,-93.32 435.87,-94.67 448.76,-95.98"/>
<polygon fill="#63b8ff" stroke="#63b8ff" points="448.68,-99.49 458.98,-97.02 449.38,-92.53 448.68,-99.49"/>
</a>
</g>
</g>
<!-- Node4 -->
<g id="Node000004" class="node">
<title>Node4</title>
<g id="a_Node000004"><a xlink:href="$classcam_1_1nc_1_1attach_1_1Creator.html#a64e13dd00fd58d3db3818de0d188bafa" xlink:title="Shift in Z.">
<polygon fill="white" stroke="#666666" points="604.5,-76.5 462.5,-76.5 462.5,-46.5 604.5,-46.5 604.5,-76.5"/>
<text text-anchor="start" x="470.5" y="-64.5" font-family="Helvetica,sans-Serif" font-size="10.00">cam.nc.attach.Creator.set</text>
<text text-anchor="middle" x="533.5" y="-53.5" font-family="Helvetica,sans-Serif" font-size="10.00">PdcfIfNotSet</text>
</a>
</g>
</g>
<!-- Node2&#45;&gt;Node4 -->
<g id="edge9_Node000002_Node000004" class="edge">
<title>Node2&#45;&gt;Node4</title>
<g id="a_edge9_Node000002_Node000004"><a xlink:title=" ">
<path fill="none" stroke="#63b8ff" d="M409.69,-74.58C423.73,-73.09 438.26,-71.54 452.21,-70.05"/>
<polygon fill="#63b8ff" stroke="#63b8ff" points="452.67,-73.52 462.24,-68.98 451.93,-66.56 452.67,-73.52"/>
</a>
</g>
</g>
</g>
</svg>
