<?xml version="1.0" encoding="UTF-8" standalone="no"?>
<!DOCTYPE svg PUBLIC "-//W3C//DTD SVG 1.1//EN"
 "http://www.w3.org/Graphics/SVG/1.1/DTD/svg11.dtd">
<!-- Generated by graphviz version 2.43.0 (0)
 -->
<!-- Title: cam.nc.hxml_writer.HxmlWriter.begin_path Pages: 1 -->
<svg width="471pt" height="45pt"
 viewBox="0.00 0.00 471.00 45.00" xmlns="http://www.w3.org/2000/svg" xmlns:xlink="http://www.w3.org/1999/xlink">
<g id="graph0" class="graph" transform="scale(1 1) rotate(0) translate(4 41)">
<title>cam.nc.hxml_writer.HxmlWriter.begin_path</title>
<!-- Node1 -->
<g id="Node000001" class="node">
<title>Node1</title>
<g id="a_Node000001"><a xlink:title=" ">
<polygon fill="#999999" stroke="#666666" points="228,-19 0,-19 0,0 228,0 228,-19"/>
<text text-anchor="middle" x="114" y="-7" font-family="Helvetica,sans-Serif" font-size="10.00">cam.nc.hxml_writer.HxmlWriter.begin_path</text>
</a>
</g>
</g>
<!-- Node2 -->
<g id="Node000002" class="node">
<title>Node2</title>
<g id="a_Node000002"><a xlink:href="$classcam_1_1nc_1_1hxml__writer_1_1HxmlWriter.html#aed6f93c98cb8c0e3f3e826e75b6d6f15" xlink:title=" ">
<polygon fill="white" stroke="#666666" points="463,-19 264,-19 264,0 463,0 463,-19"/>
<text text-anchor="middle" x="363.5" y="-7" font-family="Helvetica,sans-Serif" font-size="10.00">cam.nc.hxml_writer.HxmlWriter.write</text>
</a>
</g>
</g>
<!-- Node1&#45;&gt;Node2 -->
<g id="edge3_Node000001_Node000002" class="edge">
<title>Node1&#45;&gt;Node2</title>
<g id="a_edge3_Node000001_Node000002"><a xlink:title=" ">
<path fill="none" stroke="#63b8ff" d="M228.25,-9.5C236.66,-9.5 245.14,-9.5 253.53,-9.5"/>
<polygon fill="#63b8ff" stroke="#63b8ff" points="253.71,-13 263.71,-9.5 253.71,-6 253.71,-13"/>
</a>
</g>
</g>
<!-- Node2&#45;&gt;Node2 -->
<g id="edge4_Node000002_Node000002" class="edge">
<title>Node2&#45;&gt;Node2</title>
<g id="a_edge4_Node000002_Node000002"><a xlink:title=" ">
<path fill="none" stroke="#63b8ff" d="M325.28,-19.08C306.68,-27.73 319.42,-37 363.5,-37 396.56,-37 411.99,-31.79 409.79,-25.53"/>
<polygon fill="#63b8ff" stroke="#63b8ff" points="411.72,-22.59 401.72,-19.08 407.35,-28.06 411.72,-22.59"/>
</a>
</g>
</g>
</g>
</svg>
