<?xml version="1.0" encoding="UTF-8" standalone="no"?>
<!DOCTYPE svg PUBLIC "-//W3C//DTD SVG 1.1//EN"
 "http://www.w3.org/Graphics/SVG/1.1/DTD/svg11.dtd">
<!-- Generated by graphviz version 2.43.0 (0)
 -->
<!-- Title: cam.nc.recreator.Redirector.program_begin Pages: 1 -->
<svg width="620pt" height="122pt"
 viewBox="0.00 0.00 620.00 122.00" xmlns="http://www.w3.org/2000/svg" xmlns:xlink="http://www.w3.org/1999/xlink">
<g id="graph0" class="graph" transform="scale(1 1) rotate(0) translate(4 118)">
<title>cam.nc.recreator.Redirector.program_begin</title>
<!-- Node1 -->
<g id="Node000001" class="node">
<title>Node1</title>
<g id="a_Node000001"><a xlink:title="Programs.">
<polygon fill="#999999" stroke="#666666" points="195,-61.5 0,-61.5 0,-31.5 195,-31.5 195,-61.5"/>
<text text-anchor="start" x="8" y="-49.5" font-family="Helvetica,sans-Serif" font-size="10.00">cam.nc.recreator.Redirector.program</text>
<text text-anchor="middle" x="97.5" y="-38.5" font-family="Helvetica,sans-Serif" font-size="10.00">_begin</text>
</a>
</g>
</g>
<!-- Node1&#45;&gt;Node1 -->
<g id="edge12_Node000001_Node000001" class="edge">
<title>Node1&#45;&gt;Node1</title>
<g id="a_edge12_Node000001_Node000001"><a xlink:title=" ">
<path fill="none" stroke="#63b8ff" d="M57.07,-61.78C48.09,-70.91 61.56,-79.5 97.5,-79.5 118.84,-79.5 132.26,-76.47 137.76,-72.1"/>
<polygon fill="#63b8ff" stroke="#63b8ff" points="141.26,-71.83 137.93,-61.78 134.26,-71.72 141.26,-71.83"/>
</a>
</g>
</g>
<!-- Node2 -->
<g id="Node000002" class="node">
<title>Node2</title>
<g id="a_Node000002"><a xlink:href="$classcam_1_1nc_1_1attach_1_1Creator.html#a15a75411685b954b0073489b30f1342e" xlink:title=" ">
<polygon fill="white" stroke="#666666" points="413.5,-93 244.5,-93 244.5,-74 413.5,-74 413.5,-93"/>
<text text-anchor="middle" x="329" y="-81" font-family="Helvetica,sans-Serif" font-size="10.00">cam.nc.attach.Creator.cut_path</text>
</a>
</g>
</g>
<!-- Node1&#45;&gt;Node2 -->
<g id="edge7_Node000001_Node000002" class="edge">
<title>Node1&#45;&gt;Node2</title>
<g id="a_edge7_Node000001_Node000002"><a xlink:title=" ">
<path fill="none" stroke="#63b8ff" d="M191.85,-61.55C214.24,-65.16 237.77,-68.95 258.84,-72.35"/>
<polygon fill="#63b8ff" stroke="#63b8ff" points="258.54,-75.85 268.97,-73.98 259.66,-68.94 258.54,-75.85"/>
</a>
</g>
</g>
<!-- Node5 -->
<g id="Node000005" class="node">
<title>Node5</title>
<g id="a_Node000005"><a xlink:href="$classcam_1_1nc_1_1drag__knife_1_1Creator.html#a5db2841a5c931c72702e9bb7752ea731" xlink:title=" ">
<polygon fill="white" stroke="#666666" points="424,-56 234,-56 234,-37 424,-37 424,-56"/>
<text text-anchor="middle" x="329" y="-44" font-family="Helvetica,sans-Serif" font-size="10.00">cam.nc.drag_knife.Creator.cut_path</text>
</a>
</g>
</g>
<!-- Node1&#45;&gt;Node5 -->
<g id="edge10_Node000001_Node000005" class="edge">
<title>Node1&#45;&gt;Node5</title>
<g id="a_edge10_Node000001_Node000005"><a xlink:title=" ">
<path fill="none" stroke="#63b8ff" d="M195.16,-46.5C204.52,-46.5 214.04,-46.5 223.47,-46.5"/>
<polygon fill="#63b8ff" stroke="#63b8ff" points="223.65,-50 233.65,-46.5 223.65,-43 223.65,-50"/>
</a>
</g>
</g>
<!-- Node6 -->
<g id="Node000006" class="node">
<title>Node6</title>
<g id="a_Node000006"><a xlink:href="$classcam_1_1nc_1_1recreator_1_1Redirector.html#ace3039c310a7ee83dafe4fee4382f511" xlink:title=" ">
<polygon fill="white" stroke="#666666" points="427,-19 231,-19 231,0 427,0 427,-19"/>
<text text-anchor="middle" x="329" y="-7" font-family="Helvetica,sans-Serif" font-size="10.00">cam.nc.recreator.Redirector.cut_path</text>
</a>
</g>
</g>
<!-- Node1&#45;&gt;Node6 -->
<g id="edge11_Node000001_Node000006" class="edge">
<title>Node1&#45;&gt;Node6</title>
<g id="a_edge11_Node000001_Node000006"><a xlink:title=" ">
<path fill="none" stroke="#63b8ff" d="M191.85,-31.45C214.24,-27.84 237.77,-24.05 258.84,-20.65"/>
<polygon fill="#63b8ff" stroke="#63b8ff" points="259.66,-24.06 268.97,-19.02 258.54,-17.15 259.66,-24.06"/>
</a>
</g>
</g>
<!-- Node3 -->
<g id="Node000003" class="node">
<title>Node3</title>
<g id="a_Node000003"><a xlink:href="$classcam_1_1nc_1_1attach_1_1Creator.html#a27a17497f0889323fd31aab4f857e577" xlink:title=" ">
<polygon fill="white" stroke="#666666" points="612,-114 463,-114 463,-95 612,-95 612,-114"/>
<text text-anchor="middle" x="537.5" y="-102" font-family="Helvetica,sans-Serif" font-size="10.00">cam.nc.attach.Creator.feed</text>
</a>
</g>
</g>
<!-- Node2&#45;&gt;Node3 -->
<g id="edge8_Node000002_Node000003" class="edge">
<title>Node2&#45;&gt;Node3</title>
<g id="a_edge8_Node000002_Node000003"><a xlink:title=" ">
<path fill="none" stroke="#63b8ff" d="M413.69,-92.01C426.57,-93.32 439.87,-94.67 452.76,-95.98"/>
<polygon fill="#63b8ff" stroke="#63b8ff" points="452.68,-99.49 462.98,-97.02 453.38,-92.53 452.68,-99.49"/>
</a>
</g>
</g>
<!-- Node4 -->
<g id="Node000004" class="node">
<title>Node4</title>
<g id="a_Node000004"><a xlink:href="$classcam_1_1nc_1_1attach_1_1Creator.html#a64e13dd00fd58d3db3818de0d188bafa" xlink:title="Shift in Z.">
<polygon fill="white" stroke="#666666" points="608.5,-76.5 466.5,-76.5 466.5,-46.5 608.5,-46.5 608.5,-76.5"/>
<text text-anchor="start" x="474.5" y="-64.5" font-family="Helvetica,sans-Serif" font-size="10.00">cam.nc.attach.Creator.set</text>
<text text-anchor="middle" x="537.5" y="-53.5" font-family="Helvetica,sans-Serif" font-size="10.00">PdcfIfNotSet</text>
</a>
</g>
</g>
<!-- Node2&#45;&gt;Node4 -->
<g id="edge9_Node000002_Node000004" class="edge">
<title>Node2&#45;&gt;Node4</title>
<g id="a_edge9_Node000002_Node000004"><a xlink:title=" ">
<path fill="none" stroke="#63b8ff" d="M413.69,-74.58C427.73,-73.09 442.26,-71.54 456.21,-70.05"/>
<polygon fill="#63b8ff" stroke="#63b8ff" points="456.67,-73.52 466.24,-68.98 455.93,-66.56 456.67,-73.52"/>
</a>
</g>
</g>
</g>
</svg>
