<?xml version="1.0" encoding="UTF-8" standalone="no"?>
<!DOCTYPE svg PUBLIC "-//W3C//DTD SVG 1.1//EN"
 "http://www.w3.org/Graphics/SVG/1.1/DTD/svg11.dtd">
<!-- Generated by graphviz version 2.43.0 (0)
 -->
<!-- Title: cam.nc.makerbot_codes.Codes.SET_TEMPORARY_COORDINATE_SYSTEM Pages: 1 -->
<svg width="415pt" height="278pt"
 viewBox="0.00 0.00 415.00 278.00" xmlns="http://www.w3.org/2000/svg" xmlns:xlink="http://www.w3.org/1999/xlink">
<g id="graph0" class="graph" transform="scale(1 1) rotate(0) translate(4 274)">
<title>cam.nc.makerbot_codes.Codes.SET_TEMPORARY_COORDINATE_SYSTEM</title>
<!-- Node1 -->
<g id="Node000001" class="node">
<title>Node1</title>
<g id="a_Node000001"><a xlink:title=" ">
<polygon fill="#999999" stroke="#666666" points="407,-150 193,-150 193,-120 407,-120 407,-150"/>
<text text-anchor="start" x="201" y="-138" font-family="Helvetica,sans-Serif" font-size="10.00">cam.nc.makerbot_codes.Codes.</text>
<text text-anchor="middle" x="300" y="-127" font-family="Helvetica,sans-Serif" font-size="10.00">SET_TEMPORARY_COORDINATE_SYSTEM</text>
</a>
</g>
</g>
<!-- Node2 -->
<g id="Node000002" class="node">
<title>Node2</title>
<g id="a_Node000002"><a xlink:href="$classcam_1_1nc_1_1heiden_1_1Creator.html#ae8e86bcc6f05521bf4b639128e3241ee" xlink:title=" ">
<polygon fill="white" stroke="#666666" points="157,-270 0,-270 0,-240 157,-240 157,-270"/>
<text text-anchor="start" x="8" y="-258" font-family="Helvetica,sans-Serif" font-size="10.00">cam.nc.heiden.Creator.probe</text>
<text text-anchor="middle" x="78.5" y="-247" font-family="Helvetica,sans-Serif" font-size="10.00">_downward_point</text>
</a>
</g>
</g>
<!-- Node1&#45;&gt;Node2 -->
<g id="edge7_Node000001_Node000002" class="edge">
<title>Node1&#45;&gt;Node2</title>
<g id="a_edge7_Node000001_Node000002"><a xlink:title=" ">
<path fill="none" stroke="#63b8ff" d="M272.39,-156.52C244.89,-177.89 200.04,-210.35 157,-231 150.14,-234.29 142.73,-237.26 135.3,-239.9"/>
<polygon fill="#63b8ff" stroke="#63b8ff" points="274.64,-159.2 280.34,-150.27 270.32,-153.7 274.64,-159.2"/>
</a>
</g>
</g>
<!-- Node3 -->
<g id="Node000003" class="node">
<title>Node3</title>
<g id="a_Node000003"><a xlink:href="$classcam_1_1nc_1_1iso_1_1Creator.html#a40689f45d25f7f726d11a172b608c0a4" xlink:title=" ">
<polygon fill="white" stroke="#666666" points="147.5,-222 9.5,-222 9.5,-192 147.5,-192 147.5,-222"/>
<text text-anchor="start" x="17.5" y="-210" font-family="Helvetica,sans-Serif" font-size="10.00">cam.nc.iso.Creator.probe</text>
<text text-anchor="middle" x="78.5" y="-199" font-family="Helvetica,sans-Serif" font-size="10.00">_downward_point</text>
</a>
</g>
</g>
<!-- Node1&#45;&gt;Node3 -->
<g id="edge8_Node000001_Node000003" class="edge">
<title>Node1&#45;&gt;Node3</title>
<g id="a_edge8_Node000001_Node000003"><a xlink:title=" ">
<path fill="none" stroke="#63b8ff" d="M245.77,-153.35C219.16,-162.44 186.44,-173.47 157,-183 147.89,-185.95 138.15,-189.03 128.76,-191.95"/>
<polygon fill="#63b8ff" stroke="#63b8ff" points="246.95,-156.65 255.28,-150.1 244.68,-150.03 246.95,-156.65"/>
</a>
</g>
</g>
<!-- Node4 -->
<g id="Node000004" class="node">
<title>Node4</title>
<g id="a_Node000004"><a xlink:href="$classcam_1_1nc_1_1heiden_1_1Creator.html#a921825a14a9068d234377d7ac3b7777f" xlink:title=" ">
<polygon fill="white" stroke="#666666" points="157,-174 0,-174 0,-144 157,-144 157,-174"/>
<text text-anchor="start" x="8" y="-162" font-family="Helvetica,sans-Serif" font-size="10.00">cam.nc.heiden.Creator.probe</text>
<text text-anchor="middle" x="78.5" y="-151" font-family="Helvetica,sans-Serif" font-size="10.00">_single_point</text>
</a>
</g>
</g>
<!-- Node1&#45;&gt;Node4 -->
<g id="edge9_Node000001_Node000004" class="edge">
<title>Node1&#45;&gt;Node4</title>
<g id="a_edge9_Node000001_Node000004"><a xlink:title=" ">
<path fill="none" stroke="#63b8ff" d="M182.63,-147.72C173.99,-148.67 165.4,-149.61 157.08,-150.52"/>
<polygon fill="#63b8ff" stroke="#63b8ff" points="183.23,-151.18 192.79,-146.61 182.47,-144.22 183.23,-151.18"/>
</a>
</g>
</g>
<!-- Node5 -->
<g id="Node000005" class="node">
<title>Node5</title>
<g id="a_Node000005"><a xlink:href="$classcam_1_1nc_1_1iso_1_1Creator.html#adc5343ffd168991077858693d6a79fef" xlink:title=" ">
<polygon fill="white" stroke="#666666" points="147.5,-126 9.5,-126 9.5,-96 147.5,-96 147.5,-126"/>
<text text-anchor="start" x="17.5" y="-114" font-family="Helvetica,sans-Serif" font-size="10.00">cam.nc.iso.Creator.probe</text>
<text text-anchor="middle" x="78.5" y="-103" font-family="Helvetica,sans-Serif" font-size="10.00">_single_point</text>
</a>
</g>
</g>
<!-- Node1&#45;&gt;Node5 -->
<g id="edge10_Node000001_Node000005" class="edge">
<title>Node1&#45;&gt;Node5</title>
<g id="a_edge10_Node000001_Node000005"><a xlink:title=" ">
<path fill="none" stroke="#63b8ff" d="M182.73,-122.29C170.78,-120.98 158.92,-119.68 147.75,-118.46"/>
<polygon fill="#63b8ff" stroke="#63b8ff" points="182.47,-125.78 192.79,-123.39 183.23,-118.82 182.47,-125.78"/>
</a>
</g>
</g>
<!-- Node6 -->
<g id="Node000006" class="node">
<title>Node6</title>
<g id="a_Node000006"><a xlink:href="$classcam_1_1nc_1_1heiden_1_1Creator.html#aad05b9d4c706d59ddef5a6d432819ac2" xlink:title=" ">
<polygon fill="white" stroke="#666666" points="150.5,-78 6.5,-78 6.5,-48 150.5,-48 150.5,-78"/>
<text text-anchor="start" x="14.5" y="-66" font-family="Helvetica,sans-Serif" font-size="10.00">cam.nc.heiden.Creator.set</text>
<text text-anchor="middle" x="78.5" y="-55" font-family="Helvetica,sans-Serif" font-size="10.00">_temporary_origin</text>
</a>
</g>
</g>
<!-- Node1&#45;&gt;Node6 -->
<g id="edge11_Node000001_Node000006" class="edge">
<title>Node1&#45;&gt;Node6</title>
<g id="a_edge11_Node000001_Node000006"><a xlink:title=" ">
<path fill="none" stroke="#63b8ff" d="M245.77,-116.65C219.16,-107.56 186.44,-96.53 157,-87 147.89,-84.05 138.15,-80.97 128.76,-78.05"/>
<polygon fill="#63b8ff" stroke="#63b8ff" points="244.68,-119.97 255.28,-119.9 246.95,-113.35 244.68,-119.97"/>
</a>
</g>
</g>
<!-- Node7 -->
<g id="Node000007" class="node">
<title>Node7</title>
<g id="a_Node000007"><a xlink:href="$classcam_1_1nc_1_1iso_1_1Creator.html#a2bf1c3e1741543db5645635f968a01e5" xlink:title=" ">
<polygon fill="white" stroke="#666666" points="141,-30 16,-30 16,0 141,0 141,-30"/>
<text text-anchor="start" x="24" y="-18" font-family="Helvetica,sans-Serif" font-size="10.00">cam.nc.iso.Creator.set</text>
<text text-anchor="middle" x="78.5" y="-7" font-family="Helvetica,sans-Serif" font-size="10.00">_temporary_origin</text>
</a>
</g>
</g>
<!-- Node1&#45;&gt;Node7 -->
<g id="edge12_Node000001_Node000007" class="edge">
<title>Node1&#45;&gt;Node7</title>
<g id="a_edge12_Node000001_Node000007"><a xlink:title=" ">
<path fill="none" stroke="#63b8ff" d="M272.39,-113.48C244.89,-92.11 200.04,-59.65 157,-39 150.14,-35.71 142.73,-32.74 135.3,-30.1"/>
<polygon fill="#63b8ff" stroke="#63b8ff" points="270.32,-116.3 280.34,-119.73 274.64,-110.8 270.32,-116.3"/>
</a>
</g>
</g>
</g>
</svg>
