<?xml version="1.0" encoding="UTF-8" standalone="no"?>
<!DOCTYPE svg PUBLIC "-//W3C//DTD SVG 1.1//EN"
 "http://www.w3.org/Graphics/SVG/1.1/DTD/svg11.dtd">
<!-- Generated by graphviz version 2.43.0 (0)
 -->
<!-- Title: cam.nc.gravos.Creator.program_begin Pages: 1 -->
<svg width="1258pt" height="487pt"
 viewBox="0.00 0.00 1258.00 486.50" xmlns="http://www.w3.org/2000/svg" xmlns:xlink="http://www.w3.org/1999/xlink">
<g id="graph0" class="graph" transform="scale(1 1) rotate(0) translate(4 482.5)">
<title>cam.nc.gravos.Creator.program_begin</title>
<!-- Node1 -->
<g id="Node000001" class="node">
<title>Node1</title>
<g id="a_Node000001"><a xlink:title="Programs.">
<polygon fill="#999999" stroke="#666666" points="170,-291 0,-291 0,-261 170,-261 170,-291"/>
<text text-anchor="start" x="8" y="-279" font-family="Helvetica,sans-Serif" font-size="10.00">cam.nc.gravos.Creator.program</text>
<text text-anchor="middle" x="85" y="-268" font-family="Helvetica,sans-Serif" font-size="10.00">_begin</text>
</a>
</g>
</g>
<!-- Node2 -->
<g id="Node000002" class="node">
<title>Node2</title>
<g id="a_Node000002"><a xlink:href="$classcam_1_1nc_1_1cad__nc__read_1_1Parser.html#adcf2f47949df29f187f27fe985884633" xlink:title=" ">
<polygon fill="white" stroke="#666666" points="393.5,-460.5 217.5,-460.5 217.5,-441.5 393.5,-441.5 393.5,-460.5"/>
<text text-anchor="middle" x="305.5" y="-448.5" font-family="Helvetica,sans-Serif" font-size="10.00">cam.nc.cad_nc_read.Parser.write</text>
</a>
</g>
</g>
<!-- Node1&#45;&gt;Node2 -->
<g id="edge27_Node000001_Node000002" class="edge">
<title>Node1&#45;&gt;Node2</title>
<g id="a_edge27_Node000001_Node000002"><a xlink:title=" ">
<path fill="none" stroke="#63b8ff" d="M92.77,-291.06C107.97,-323.01 148.07,-397.53 206,-433 208.69,-434.65 211.5,-436.15 214.39,-437.53"/>
<polygon fill="#63b8ff" stroke="#63b8ff" points="213.29,-440.86 223.87,-441.49 215.99,-434.4 213.29,-440.86"/>
</a>
</g>
</g>
<!-- Node3 -->
<g id="Node000003" class="node">
<title>Node3</title>
<g id="a_Node000003"><a xlink:href="$classcam_1_1nc_1_1hxml__writer_1_1HxmlWriter.html#aed6f93c98cb8c0e3f3e826e75b6d6f15" xlink:title=" ">
<polygon fill="white" stroke="#666666" points="405,-405.5 206,-405.5 206,-386.5 405,-386.5 405,-405.5"/>
<text text-anchor="middle" x="305.5" y="-393.5" font-family="Helvetica,sans-Serif" font-size="10.00">cam.nc.hxml_writer.HxmlWriter.write</text>
</a>
</g>
</g>
<!-- Node1&#45;&gt;Node3 -->
<g id="edge29_Node000001_Node000003" class="edge">
<title>Node1&#45;&gt;Node3</title>
<g id="a_edge29_Node000001_Node000003"><a xlink:title=" ">
<path fill="none" stroke="#63b8ff" d="M99.01,-291.3C119.35,-314.12 161.03,-356.69 206,-378 210.29,-380.03 214.79,-381.84 219.4,-383.44"/>
<polygon fill="#63b8ff" stroke="#63b8ff" points="218.4,-386.79 228.99,-386.45 220.49,-380.12 218.4,-386.79"/>
</a>
</g>
</g>
<!-- Node4 -->
<g id="Node000004" class="node">
<title>Node4</title>
<g id="a_Node000004"><a xlink:href="$classcam_1_1nc_1_1iso_1_1Creator.html#abb81af5a0bdddfed387b71b68a51cc7a" xlink:title="Internals.">
<polygon fill="white" stroke="#666666" points="373,-368.5 238,-368.5 238,-349.5 373,-349.5 373,-368.5"/>
<text text-anchor="middle" x="305.5" y="-356.5" font-family="Helvetica,sans-Serif" font-size="10.00">cam.nc.iso.Creator.write</text>
</a>
</g>
</g>
<!-- Node1&#45;&gt;Node4 -->
<g id="edge31_Node000001_Node000004" class="edge">
<title>Node1&#45;&gt;Node4</title>
<g id="a_edge31_Node000001_Node000004"><a xlink:title=" ">
<path fill="none" stroke="#63b8ff" d="M108.88,-291.25C132.31,-306.17 170.24,-328.41 206,-341 213.01,-343.47 220.43,-345.62 227.92,-347.48"/>
<polygon fill="#63b8ff" stroke="#63b8ff" points="227.25,-350.92 237.79,-349.77 228.84,-344.1 227.25,-350.92"/>
</a>
</g>
</g>
<!-- Node5 -->
<g id="Node000005" class="node">
<title>Node5</title>
<g id="a_Node000005"><a xlink:href="$classcam_1_1nc_1_1nc_1_1Creator.html#a80f2134add83bfaaf2870d075d36ed8a" xlink:title=" ">
<polygon fill="white" stroke="#666666" points="371.5,-313.5 239.5,-313.5 239.5,-294.5 371.5,-294.5 371.5,-313.5"/>
<text text-anchor="middle" x="305.5" y="-301.5" font-family="Helvetica,sans-Serif" font-size="10.00">cam.nc.nc.Creator.write</text>
</a>
</g>
</g>
<!-- Node1&#45;&gt;Node5 -->
<g id="edge32_Node000001_Node000005" class="edge">
<title>Node1&#45;&gt;Node5</title>
<g id="a_edge32_Node000001_Node000005"><a xlink:title=" ">
<path fill="none" stroke="#63b8ff" d="M170.17,-286.79C189.63,-289.28 210.22,-291.92 229.27,-294.36"/>
<polygon fill="#63b8ff" stroke="#63b8ff" points="229.01,-297.86 239.38,-295.65 229.9,-290.91 229.01,-297.86"/>
</a>
</g>
</g>
<!-- Node6 -->
<g id="Node000006" class="node">
<title>Node6</title>
<g id="a_Node000006"><a xlink:href="$classcam_1_1nc_1_1nclathe__read_1_1Parser.html#ab5ea283b461b57e48c8d5b0ad0a45694" xlink:title=" ">
<polygon fill="white" stroke="#666666" points="394.5,-258.5 216.5,-258.5 216.5,-239.5 394.5,-239.5 394.5,-258.5"/>
<text text-anchor="middle" x="305.5" y="-246.5" font-family="Helvetica,sans-Serif" font-size="10.00">cam.nc.nclathe_read.Parser.write</text>
</a>
</g>
</g>
<!-- Node1&#45;&gt;Node6 -->
<g id="edge34_Node000001_Node000006" class="edge">
<title>Node1&#45;&gt;Node6</title>
<g id="a_edge34_Node000001_Node000006"><a xlink:title=" ">
<path fill="none" stroke="#63b8ff" d="M170.17,-265.6C185.65,-263.69 201.84,-261.69 217.41,-259.76"/>
<polygon fill="#63b8ff" stroke="#63b8ff" points="218.04,-263.21 227.53,-258.51 217.18,-256.26 218.04,-263.21"/>
</a>
</g>
</g>
<!-- Node7 -->
<g id="Node000007" class="node">
<title>Node7</title>
<g id="a_Node000007"><a xlink:href="$classcam_1_1nc_1_1recreator_1_1Redirector.html#a79cc974683588db3ef959189e7552c0d" xlink:title="Programs.">
<polygon fill="white" stroke="#666666" points="395,-203.5 216,-203.5 216,-184.5 395,-184.5 395,-203.5"/>
<text text-anchor="middle" x="305.5" y="-191.5" font-family="Helvetica,sans-Serif" font-size="10.00">cam.nc.recreator.Redirector.write</text>
</a>
</g>
</g>
<!-- Node1&#45;&gt;Node7 -->
<g id="edge36_Node000001_Node000007" class="edge">
<title>Node1&#45;&gt;Node7</title>
<g id="a_edge36_Node000001_Node000007"><a xlink:title=" ">
<path fill="none" stroke="#63b8ff" d="M126.08,-260.96C167.19,-245.53 230.51,-221.77 269.62,-207.09"/>
<polygon fill="#63b8ff" stroke="#63b8ff" points="270.88,-210.35 279.01,-203.56 268.42,-203.8 270.88,-210.35"/>
</a>
</g>
</g>
<!-- Node8 -->
<g id="Node000008" class="node">
<title>Node8</title>
<g id="a_Node000008"><a xlink:href="$classcam_1_1nc_1_1format_1_1Address.html#aa21f0ffeb829537d9103759276c01a4b" xlink:title=" ">
<polygon fill="white" stroke="#666666" points="384.5,-166.5 226.5,-166.5 226.5,-147.5 384.5,-147.5 384.5,-166.5"/>
<text text-anchor="middle" x="305.5" y="-154.5" font-family="Helvetica,sans-Serif" font-size="10.00">cam.nc.format.Address.write</text>
</a>
</g>
</g>
<!-- Node1&#45;&gt;Node8 -->
<g id="edge38_Node000001_Node000008" class="edge">
<title>Node1&#45;&gt;Node8</title>
<g id="a_edge38_Node000001_Node000008"><a xlink:title=" ">
<path fill="none" stroke="#63b8ff" d="M99.44,-260.69C120.02,-238.31 161.65,-197.02 206,-176 211.29,-173.49 216.9,-171.31 222.63,-169.42"/>
<polygon fill="#63b8ff" stroke="#63b8ff" points="223.81,-172.72 232.39,-166.51 221.81,-166.02 223.81,-172.72"/>
</a>
</g>
</g>
<!-- Node19 -->
<g id="Node000019" class="node">
<title>Node19</title>
<g id="a_Node000019"><a xlink:href="$classcam_1_1nc_1_1format_1_1AddressPlusMinus.html#aaacea4c7b677f0a602dbc9023ff365d2" xlink:title=" ">
<polygon fill="white" stroke="#666666" points="380.5,-129 230.5,-129 230.5,-99 380.5,-99 380.5,-129"/>
<text text-anchor="start" x="238.5" y="-117" font-family="Helvetica,sans-Serif" font-size="10.00">cam.nc.format.AddressPlus</text>
<text text-anchor="middle" x="305.5" y="-106" font-family="Helvetica,sans-Serif" font-size="10.00">Minus.write</text>
</a>
</g>
</g>
<!-- Node1&#45;&gt;Node19 -->
<g id="edge51_Node000001_Node000019" class="edge">
<title>Node1&#45;&gt;Node19</title>
<g id="a_edge51_Node000001_Node000019"><a xlink:title=" ">
<path fill="none" stroke="#63b8ff" d="M94.72,-260.83C112.04,-232.12 153.67,-169.87 206,-138 210.7,-135.14 215.72,-132.62 220.91,-130.4"/>
<polygon fill="#63b8ff" stroke="#63b8ff" points="222.35,-133.6 230.41,-126.72 219.82,-127.07 222.35,-133.6"/>
</a>
</g>
</g>
<!-- Node2&#45;&gt;Node2 -->
<g id="edge28_Node000002_Node000002" class="edge">
<title>Node2&#45;&gt;Node2</title>
<g id="a_edge28_Node000002_Node000002"><a xlink:title=" ">
<path fill="none" stroke="#63b8ff" d="M272.21,-460.58C256.01,-469.23 267.11,-478.5 305.5,-478.5 333.09,-478.5 346.59,-473.71 345.98,-467.81"/>
<polygon fill="#63b8ff" stroke="#63b8ff" points="348.33,-465.2 338.79,-460.58 343.36,-470.14 348.33,-465.2"/>
</a>
</g>
</g>
<!-- Node3&#45;&gt;Node3 -->
<g id="edge30_Node000003_Node000003" class="edge">
<title>Node3&#45;&gt;Node3</title>
<g id="a_edge30_Node000003_Node000003"><a xlink:title=" ">
<path fill="none" stroke="#63b8ff" d="M272.21,-405.58C256.01,-414.23 267.11,-423.5 305.5,-423.5 333.09,-423.5 346.59,-418.71 345.98,-412.81"/>
<polygon fill="#63b8ff" stroke="#63b8ff" points="348.33,-410.2 338.79,-405.58 343.36,-415.14 348.33,-410.2"/>
</a>
</g>
</g>
<!-- Node5&#45;&gt;Node5 -->
<g id="edge33_Node000005_Node000005" class="edge">
<title>Node5&#45;&gt;Node5</title>
<g id="a_edge33_Node000005_Node000005"><a xlink:title=" ">
<path fill="none" stroke="#63b8ff" d="M272.21,-313.58C256.01,-322.23 267.11,-331.5 305.5,-331.5 333.09,-331.5 346.59,-326.71 345.98,-320.81"/>
<polygon fill="#63b8ff" stroke="#63b8ff" points="348.33,-318.2 338.79,-313.58 343.36,-323.14 348.33,-318.2"/>
</a>
</g>
</g>
<!-- Node6&#45;&gt;Node6 -->
<g id="edge35_Node000006_Node000006" class="edge">
<title>Node6&#45;&gt;Node6</title>
<g id="a_edge35_Node000006_Node000006"><a xlink:title=" ">
<path fill="none" stroke="#63b8ff" d="M272.21,-258.58C256.01,-267.23 267.11,-276.5 305.5,-276.5 333.09,-276.5 346.59,-271.71 345.98,-265.81"/>
<polygon fill="#63b8ff" stroke="#63b8ff" points="348.33,-263.2 338.79,-258.58 343.36,-268.14 348.33,-263.2"/>
</a>
</g>
</g>
<!-- Node7&#45;&gt;Node7 -->
<g id="edge37_Node000007_Node000007" class="edge">
<title>Node7&#45;&gt;Node7</title>
<g id="a_edge37_Node000007_Node000007"><a xlink:title=" ">
<path fill="none" stroke="#63b8ff" d="M272.21,-203.58C256.01,-212.23 267.11,-221.5 305.5,-221.5 333.09,-221.5 346.59,-216.71 345.98,-210.81"/>
<polygon fill="#63b8ff" stroke="#63b8ff" points="348.33,-208.2 338.79,-203.58 343.36,-213.14 348.33,-208.2"/>
</a>
</g>
</g>
<!-- Node9 -->
<g id="Node000009" class="node">
<title>Node9</title>
<g id="a_Node000009"><a xlink:href="$classcam_1_1async__op_1_1AsyncOperatorMixin.html#a9628cbca8e69ec75b2337171a02bf428" xlink:title=" ">
<polygon fill="white" stroke="#666666" points="602,-150 441,-150 441,-120 602,-120 602,-150"/>
<text text-anchor="start" x="449" y="-138" font-family="Helvetica,sans-Serif" font-size="10.00">cam.async_op.AsyncOperator</text>
<text text-anchor="middle" x="521.5" y="-127" font-family="Helvetica,sans-Serif" font-size="10.00">Mixin.modal</text>
</a>
</g>
</g>
<!-- Node8&#45;&gt;Node9 -->
<g id="edge39_Node000008_Node000009" class="edge">
<title>Node8&#45;&gt;Node9</title>
<g id="a_edge39_Node000008_Node000009"><a xlink:title=" ">
<path fill="none" stroke="#63b8ff" d="M384.67,-148.96C399.65,-147.42 415.45,-145.8 430.77,-144.22"/>
<polygon fill="#63b8ff" stroke="#63b8ff" points="431.16,-147.7 440.75,-143.2 430.45,-140.74 431.16,-147.7"/>
</a>
</g>
</g>
<!-- Node10 -->
<g id="Node000010" class="node">
<title>Node10</title>
<g id="a_Node000010"><a xlink:href="$classcam_1_1async__op_1_1AsyncOperatorMixin.html#a15a51cfd69d8e453e2e3d64386b1ebe3" xlink:title=" ">
<polygon fill="white" stroke="#666666" points="799,-150 638,-150 638,-120 799,-120 799,-150"/>
<text text-anchor="start" x="646" y="-138" font-family="Helvetica,sans-Serif" font-size="10.00">cam.async_op.AsyncOperator</text>
<text text-anchor="middle" x="718.5" y="-127" font-family="Helvetica,sans-Serif" font-size="10.00">Mixin.tick</text>
</a>
</g>
</g>
<!-- Node9&#45;&gt;Node10 -->
<g id="edge40_Node000009_Node000010" class="edge">
<title>Node9&#45;&gt;Node10</title>
<g id="a_edge40_Node000009_Node000010"><a xlink:title=" ">
<path fill="none" stroke="#63b8ff" d="M602.1,-135C610.57,-135 619.24,-135 627.82,-135"/>
<polygon fill="#63b8ff" stroke="#63b8ff" points="627.84,-138.5 637.84,-135 627.84,-131.5 627.84,-138.5"/>
</a>
</g>
</g>
<!-- Node11 -->
<g id="Node000011" class="node">
<title>Node11</title>
<g id="a_Node000011"><a xlink:href="$classcam_1_1async__op_1_1AsyncTestOperator.html#a42606ca890a957aa7070a4bc6f25228b" xlink:title=" ">
<polygon fill="white" stroke="#666666" points="1056,-270 835,-270 835,-240 1056,-240 1056,-270"/>
<text text-anchor="start" x="843" y="-258" font-family="Helvetica,sans-Serif" font-size="10.00">cam.async_op.AsyncTestOperator.execute</text>
<text text-anchor="middle" x="945.5" y="-247" font-family="Helvetica,sans-Serif" font-size="10.00">_async</text>
</a>
</g>
</g>
<!-- Node10&#45;&gt;Node11 -->
<g id="edge41_Node000010_Node000011" class="edge">
<title>Node10&#45;&gt;Node11</title>
<g id="a_edge41_Node000010_Node000011"><a xlink:title=" ">
<path fill="none" stroke="#63b8ff" d="M733.18,-150.27C753.31,-171.74 793.07,-210.51 835,-231 839.09,-233 843.35,-234.84 847.72,-236.52"/>
<polygon fill="#63b8ff" stroke="#63b8ff" points="846.81,-239.91 857.41,-239.97 849.16,-233.32 846.81,-239.91"/>
</a>
</g>
</g>
<!-- Node12 -->
<g id="Node000012" class="node">
<title>Node12</title>
<g id="a_Node000012"><a xlink:href="$classcam_1_1ops_1_1CalculatePath.html#a13dfe2f8578383234e74e58e2f292e1b" xlink:title=" ">
<polygon fill="white" stroke="#666666" points="1030,-222 861,-222 861,-192 1030,-192 1030,-222"/>
<text text-anchor="start" x="869" y="-210" font-family="Helvetica,sans-Serif" font-size="10.00">cam.ops.CalculatePath.execute</text>
<text text-anchor="middle" x="945.5" y="-199" font-family="Helvetica,sans-Serif" font-size="10.00">_async</text>
</a>
</g>
</g>
<!-- Node10&#45;&gt;Node12 -->
<g id="edge42_Node000010_Node000012" class="edge">
<title>Node10&#45;&gt;Node12</title>
<g id="a_edge42_Node000010_Node000012"><a xlink:title=" ">
<path fill="none" stroke="#63b8ff" d="M751.29,-150.01C774.18,-160.38 806,-173.88 835,-183 842.31,-185.3 849.96,-187.46 857.68,-189.47"/>
<polygon fill="#63b8ff" stroke="#63b8ff" points="856.91,-192.89 867.46,-191.93 858.62,-186.1 856.91,-192.89"/>
</a>
</g>
</g>
<!-- Node14 -->
<g id="Node000014" class="node">
<title>Node14</title>
<g id="a_Node000014"><a xlink:href="$classcam_1_1ops_1_1PathsChain.html#a6fc64e383ccf724b2325e18a82d53eae" xlink:title=" ">
<polygon fill="white" stroke="#666666" points="1023.5,-174 867.5,-174 867.5,-144 1023.5,-144 1023.5,-174"/>
<text text-anchor="start" x="875.5" y="-162" font-family="Helvetica,sans-Serif" font-size="10.00">cam.ops.PathsChain.execute</text>
<text text-anchor="middle" x="945.5" y="-151" font-family="Helvetica,sans-Serif" font-size="10.00">_async</text>
</a>
</g>
</g>
<!-- Node10&#45;&gt;Node14 -->
<g id="edge44_Node000010_Node000014" class="edge">
<title>Node10&#45;&gt;Node14</title>
<g id="a_edge44_Node000010_Node000014"><a xlink:title=" ">
<path fill="none" stroke="#63b8ff" d="M799.14,-143.5C817.9,-145.5 837.98,-147.64 857.06,-149.67"/>
<polygon fill="#63b8ff" stroke="#63b8ff" points="856.92,-153.18 867.23,-150.76 857.66,-146.22 856.92,-153.18"/>
</a>
</g>
</g>
<!-- Node16 -->
<g id="Node000016" class="node">
<title>Node16</title>
<g id="a_Node000016"><a xlink:href="$classcam_1_1ops_1_1CAMSimulate.html#a633151f17849d281fd52ce82c00356a7" xlink:title=" ">
<polygon fill="white" stroke="#666666" points="1029.5,-126 861.5,-126 861.5,-96 1029.5,-96 1029.5,-126"/>
<text text-anchor="start" x="869.5" y="-114" font-family="Helvetica,sans-Serif" font-size="10.00">cam.ops.CAMSimulate.execute</text>
<text text-anchor="middle" x="945.5" y="-103" font-family="Helvetica,sans-Serif" font-size="10.00">_async</text>
</a>
</g>
</g>
<!-- Node10&#45;&gt;Node16 -->
<g id="edge47_Node000010_Node000016" class="edge">
<title>Node10&#45;&gt;Node16</title>
<g id="a_edge47_Node000010_Node000016"><a xlink:title=" ">
<path fill="none" stroke="#63b8ff" d="M799.14,-126.5C815.95,-124.71 833.82,-122.81 851.08,-120.97"/>
<polygon fill="#63b8ff" stroke="#63b8ff" points="851.58,-124.43 861.15,-119.89 850.84,-117.47 851.58,-124.43"/>
</a>
</g>
</g>
<!-- Node17 -->
<g id="Node000017" class="node">
<title>Node17</title>
<g id="a_Node000017"><a xlink:href="$classcam_1_1ops_1_1CAMSimulateChain.html#a1e77c7ce21b3b7e3e38a12b6b62517e9" xlink:title=" ">
<polygon fill="white" stroke="#666666" points="1043.5,-78 847.5,-78 847.5,-48 1043.5,-48 1043.5,-78"/>
<text text-anchor="start" x="855.5" y="-66" font-family="Helvetica,sans-Serif" font-size="10.00">cam.ops.CAMSimulateChain.execute</text>
<text text-anchor="middle" x="945.5" y="-55" font-family="Helvetica,sans-Serif" font-size="10.00">_async</text>
</a>
</g>
</g>
<!-- Node10&#45;&gt;Node17 -->
<g id="edge48_Node000010_Node000017" class="edge">
<title>Node10&#45;&gt;Node17</title>
<g id="a_edge48_Node000010_Node000017"><a xlink:title=" ">
<path fill="none" stroke="#63b8ff" d="M751.29,-119.99C774.18,-109.62 806,-96.12 835,-87 842.31,-84.7 849.96,-82.54 857.68,-80.53"/>
<polygon fill="#63b8ff" stroke="#63b8ff" points="858.62,-83.9 867.46,-78.07 856.91,-77.11 858.62,-83.9"/>
</a>
</g>
</g>
<!-- Node18 -->
<g id="Node000018" class="node">
<title>Node18</title>
<g id="a_Node000018"><a xlink:href="$classcam_1_1async__op_1_1AsyncOperatorMixin.html#a2216ff6bb0dfd132f4ec4cf79b7cba2b" xlink:title=" ">
<polygon fill="white" stroke="#666666" points="1026,-30 865,-30 865,0 1026,0 1026,-30"/>
<text text-anchor="start" x="873" y="-18" font-family="Helvetica,sans-Serif" font-size="10.00">cam.async_op.AsyncOperator</text>
<text text-anchor="middle" x="945.5" y="-7" font-family="Helvetica,sans-Serif" font-size="10.00">Mixin.show_progress</text>
</a>
</g>
</g>
<!-- Node10&#45;&gt;Node18 -->
<g id="edge50_Node000010_Node000018" class="edge">
<title>Node10&#45;&gt;Node18</title>
<g id="a_edge50_Node000010_Node000018"><a xlink:title=" ">
<path fill="none" stroke="#63b8ff" d="M733.18,-119.73C753.31,-98.26 793.07,-59.49 835,-39 841.43,-35.86 848.27,-33.12 855.28,-30.74"/>
<polygon fill="#63b8ff" stroke="#63b8ff" points="856.42,-34.05 864.91,-27.71 854.32,-27.37 856.42,-34.05"/>
</a>
</g>
</g>
<!-- Node13 -->
<g id="Node000013" class="node">
<title>Node13</title>
<g id="a_Node000013"><a xlink:href="$namespacecam_1_1ops.html#aa8e95f7410a7ceb178db48f4f8c2d995" xlink:title=" ">
<polygon fill="white" stroke="#666666" points="1227.5,-192.5 1114.5,-192.5 1114.5,-173.5 1227.5,-173.5 1227.5,-192.5"/>
<text text-anchor="middle" x="1171" y="-180.5" font-family="Helvetica,sans-Serif" font-size="10.00">cam.ops._calc_path</text>
</a>
</g>
</g>
<!-- Node12&#45;&gt;Node13 -->
<g id="edge43_Node000012_Node000013" class="edge">
<title>Node12&#45;&gt;Node13</title>
<g id="a_edge43_Node000012_Node000013"><a xlink:title=" ">
<path fill="none" stroke="#63b8ff" d="M1030.04,-198.03C1054.56,-195.4 1081.01,-192.56 1104.25,-190.06"/>
<polygon fill="#63b8ff" stroke="#63b8ff" points="1104.77,-193.52 1114.34,-188.98 1104.03,-186.56 1104.77,-193.52"/>
</a>
</g>
</g>
<!-- Node14&#45;&gt;Node13 -->
<g id="edge45_Node000014_Node000013" class="edge">
<title>Node14&#45;&gt;Node13</title>
<g id="a_edge45_Node000014_Node000013"><a xlink:title=" ">
<path fill="none" stroke="#63b8ff" d="M1023.73,-167.29C1049.9,-170.1 1078.87,-173.21 1104.08,-175.92"/>
<polygon fill="#63b8ff" stroke="#63b8ff" points="1103.95,-179.43 1114.27,-177.02 1104.7,-172.47 1103.95,-179.43"/>
</a>
</g>
</g>
<!-- Node15 -->
<g id="Node000015" class="node">
<title>Node15</title>
<g id="a_Node000015"><a xlink:href="$namespacecam_1_1ops.html#ab55fb8ec9a00e021e8e4a1c3ecc97cb4" xlink:title=" ">
<polygon fill="white" stroke="#666666" points="1250,-126.5 1092,-126.5 1092,-107.5 1250,-107.5 1250,-126.5"/>
<text text-anchor="middle" x="1171" y="-114.5" font-family="Helvetica,sans-Serif" font-size="10.00">cam.ops.getChainOperations</text>
</a>
</g>
</g>
<!-- Node14&#45;&gt;Node15 -->
<g id="edge46_Node000014_Node000015" class="edge">
<title>Node14&#45;&gt;Node15</title>
<g id="a_edge46_Node000014_Node000015"><a xlink:title=" ">
<path fill="none" stroke="#63b8ff" d="M1023.73,-144.49C1051.81,-139.21 1083.12,-133.33 1109.54,-128.36"/>
<polygon fill="#63b8ff" stroke="#63b8ff" points="1110.23,-131.79 1119.41,-126.51 1108.94,-124.91 1110.23,-131.79"/>
</a>
</g>
</g>
<!-- Node17&#45;&gt;Node15 -->
<g id="edge49_Node000017_Node000015" class="edge">
<title>Node17&#45;&gt;Node15</title>
<g id="a_edge49_Node000017_Node000015"><a xlink:title=" ">
<path fill="none" stroke="#63b8ff" d="M1017.28,-78.06C1030.19,-80.94 1043.51,-83.99 1056,-87 1078.91,-92.52 1104.28,-99.15 1125.25,-104.77"/>
<polygon fill="#63b8ff" stroke="#63b8ff" points="1124.6,-108.21 1135.17,-107.43 1126.42,-101.45 1124.6,-108.21"/>
</a>
</g>
</g>
<!-- Node19&#45;&gt;Node9 -->
<g id="edge52_Node000019_Node000009" class="edge">
<title>Node19&#45;&gt;Node9</title>
<g id="a_edge52_Node000019_Node000009"><a xlink:title=" ">
<path fill="none" stroke="#63b8ff" d="M380.75,-121.29C396.84,-122.87 414.03,-124.55 430.65,-126.18"/>
<polygon fill="#63b8ff" stroke="#63b8ff" points="430.62,-129.7 440.92,-127.19 431.3,-122.73 430.62,-129.7"/>
</a>
</g>
</g>
</g>
</svg>
