<?xml version="1.0" encoding="UTF-8" standalone="no"?>
<!DOCTYPE svg PUBLIC "-//W3C//DTD SVG 1.1//EN"
 "http://www.w3.org/Graphics/SVG/1.1/DTD/svg11.dtd">
<!-- Generated by graphviz version 2.43.0 (0)
 -->
<!-- Title: cam.nc.iso.Creator.TOOL_DEFINITION Pages: 1 -->
<svg width="356pt" height="64pt"
 viewBox="0.00 0.00 356.00 64.00" xmlns="http://www.w3.org/2000/svg" xmlns:xlink="http://www.w3.org/1999/xlink">
<g id="graph0" class="graph" transform="scale(1 1) rotate(0) translate(4 60)">
<title>cam.nc.iso.Creator.TOOL_DEFINITION</title>
<!-- Node1 -->
<g id="Node000001" class="node">
<title>Node1</title>
<g id="a_Node000001"><a xlink:title=" ">
<polygon fill="#999999" stroke="#666666" points="348,-42.5 211,-42.5 211,-12.5 348,-12.5 348,-42.5"/>
<text text-anchor="start" x="219" y="-30.5" font-family="Helvetica,sans-Serif" font-size="10.00">cam.nc.iso.Creator.TOOL</text>
<text text-anchor="middle" x="279.5" y="-19.5" font-family="Helvetica,sans-Serif" font-size="10.00">_DEFINITION</text>
</a>
</g>
</g>
<!-- Node2 -->
<g id="Node000002" class="node">
<title>Node2</title>
<g id="a_Node000002"><a xlink:href="$classcam_1_1nc_1_1heiden_1_1Creator.html#a1dd5a3d640fc747ca8736d443701cc78" xlink:title=" ">
<polygon fill="white" stroke="#666666" points="175,-56 0,-56 0,-37 175,-37 175,-56"/>
<text text-anchor="middle" x="87.5" y="-44" font-family="Helvetica,sans-Serif" font-size="10.00">cam.nc.heiden.Creator.tool_defn</text>
</a>
</g>
</g>
<!-- Node1&#45;&gt;Node2 -->
<g id="edge3_Node000001_Node000002" class="edge">
<title>Node1&#45;&gt;Node2</title>
<g id="a_edge3_Node000001_Node000002"><a xlink:title=" ">
<path fill="none" stroke="#63b8ff" d="M200.76,-35.27C192.3,-36.12 183.64,-36.99 175.08,-37.84"/>
<polygon fill="#63b8ff" stroke="#63b8ff" points="201.38,-38.73 210.98,-34.25 200.68,-31.76 201.38,-38.73"/>
</a>
</g>
</g>
<!-- Node3 -->
<g id="Node000003" class="node">
<title>Node3</title>
<g id="a_Node000003"><a xlink:href="$classcam_1_1nc_1_1iso_1_1Creator.html#a07bce834ac4fae7cf098546f698cc7ff" xlink:title=" ">
<polygon fill="white" stroke="#666666" points="165.5,-19 9.5,-19 9.5,0 165.5,0 165.5,-19"/>
<text text-anchor="middle" x="87.5" y="-7" font-family="Helvetica,sans-Serif" font-size="10.00">cam.nc.iso.Creator.tool_defn</text>
</a>
</g>
</g>
<!-- Node1&#45;&gt;Node3 -->
<g id="edge4_Node000001_Node000003" class="edge">
<title>Node1&#45;&gt;Node3</title>
<g id="a_edge4_Node000001_Node000003"><a xlink:title=" ">
<path fill="none" stroke="#63b8ff" d="M200.84,-20.14C189.18,-19.04 177.16,-17.9 165.52,-16.8"/>
<polygon fill="#63b8ff" stroke="#63b8ff" points="200.69,-23.64 210.98,-21.1 201.35,-16.68 200.69,-23.64"/>
</a>
</g>
</g>
</g>
</svg>
