<?xml version="1.0" encoding="UTF-8" standalone="no"?>
<!DOCTYPE svg PUBLIC "-//W3C//DTD SVG 1.1//EN"
 "http://www.w3.org/Graphics/SVG/1.1/DTD/svg11.dtd">
<!-- Generated by graphviz version 2.43.0 (0)
 -->
<!-- Title: cam.nc.shopbot_mtc.Creator.comment Pages: 1 -->
<svg width="1294pt" height="878pt"
 viewBox="0.00 0.00 1294.00 878.00" xmlns="http://www.w3.org/2000/svg" xmlns:xlink="http://www.w3.org/1999/xlink">
<g id="graph0" class="graph" transform="scale(1 1) rotate(0) translate(4 874)">
<title>cam.nc.shopbot_mtc.Creator.comment</title>
<!-- Node1 -->
<g id="Node000001" class="node">
<title>Node1</title>
<g id="a_Node000001"><a xlink:title="CRC.">
<polygon fill="#999999" stroke="#666666" points="206,-521.5 0,-521.5 0,-502.5 206,-502.5 206,-521.5"/>
<text text-anchor="middle" x="103" y="-509.5" font-family="Helvetica,sans-Serif" font-size="10.00">cam.nc.shopbot_mtc.Creator.comment</text>
</a>
</g>
</g>
<!-- Node2 -->
<g id="Node000002" class="node">
<title>Node2</title>
<g id="a_Node000002"><a xlink:href="$classcam_1_1nc_1_1anilam__crusader__m_1_1Creator.html#ac1dbbd3ea853a221bbea54ea6bf0bc38" xlink:title=" ">
<polygon fill="white" stroke="#666666" points="409.5,-870 273.5,-870 273.5,-840 409.5,-840 409.5,-870"/>
<text text-anchor="start" x="281.5" y="-858" font-family="Helvetica,sans-Serif" font-size="10.00">cam.nc.anilam_crusader</text>
<text text-anchor="middle" x="341.5" y="-847" font-family="Helvetica,sans-Serif" font-size="10.00">_m.Creator.COMMENT</text>
</a>
</g>
</g>
<!-- Node1&#45;&gt;Node2 -->
<g id="edge36_Node000001_Node000002" class="edge">
<title>Node1&#45;&gt;Node2</title>
<g id="a_edge36_Node000001_Node000002"><a xlink:title=" ">
<path fill="none" stroke="#63b8ff" d="M105.09,-521.62C110.51,-564.98 138.68,-743.85 242,-831 248.48,-836.47 256.01,-840.72 263.96,-844.04"/>
<polygon fill="#63b8ff" stroke="#63b8ff" points="262.85,-847.36 273.45,-847.5 265.26,-840.78 262.85,-847.36"/>
</a>
</g>
</g>
<!-- Node3 -->
<g id="Node000003" class="node">
<title>Node3</title>
<g id="a_Node000003"><a xlink:href="$classcam_1_1nc_1_1gravos_1_1Creator.html#a6489943de2bbb60e108634000b1d4a65" xlink:title=" ">
<polygon fill="white" stroke="#666666" points="432,-821.5 251,-821.5 251,-802.5 432,-802.5 432,-821.5"/>
<text text-anchor="middle" x="341.5" y="-809.5" font-family="Helvetica,sans-Serif" font-size="10.00">cam.nc.gravos.Creator.COMMENT</text>
</a>
</g>
</g>
<!-- Node1&#45;&gt;Node3 -->
<g id="edge37_Node000001_Node000003" class="edge">
<title>Node1&#45;&gt;Node3</title>
<g id="a_edge37_Node000001_Node000003"><a xlink:title=" ">
<path fill="none" stroke="#63b8ff" d="M105.55,-521.74C112.6,-562.53 145.54,-720.94 242,-794 243.66,-795.26 245.39,-796.44 247.16,-797.55"/>
<polygon fill="#63b8ff" stroke="#63b8ff" points="245.95,-800.87 256.42,-802.49 249.24,-794.69 245.95,-800.87"/>
</a>
</g>
</g>
<!-- Node4 -->
<g id="Node000004" class="node">
<title>Node4</title>
<g id="a_Node000004"><a xlink:href="$classcam_1_1nc_1_1heiden_1_1Creator.html#a752d676a8bc0b4afff9140d5ee13f964" xlink:title=" ">
<polygon fill="white" stroke="#666666" points="432,-784.5 251,-784.5 251,-765.5 432,-765.5 432,-784.5"/>
<text text-anchor="middle" x="341.5" y="-772.5" font-family="Helvetica,sans-Serif" font-size="10.00">cam.nc.heiden.Creator.COMMENT</text>
</a>
</g>
</g>
<!-- Node1&#45;&gt;Node4 -->
<g id="edge38_Node000001_Node000004" class="edge">
<title>Node1&#45;&gt;Node4</title>
<g id="a_edge38_Node000001_Node000004"><a xlink:title=" ">
<path fill="none" stroke="#63b8ff" d="M106.33,-521.66C115.81,-558.84 155.26,-693.64 242,-756 244.53,-757.82 247.2,-759.48 249.96,-760.99"/>
<polygon fill="#63b8ff" stroke="#63b8ff" points="248.53,-764.19 259.07,-765.33 251.54,-757.87 248.53,-764.19"/>
</a>
</g>
</g>
<!-- Node5 -->
<g id="Node000005" class="node">
<title>Node5</title>
<g id="a_Node000005"><a xlink:href="$classcam_1_1nc_1_1heiden530_1_1Creator.html#af11bd4e534bb880f62ef102d461e20d7" xlink:title=" ">
<polygon fill="white" stroke="#666666" points="415,-747 268,-747 268,-717 415,-717 415,-747"/>
<text text-anchor="start" x="276" y="-735" font-family="Helvetica,sans-Serif" font-size="10.00">cam.nc.heiden530.Creator.</text>
<text text-anchor="middle" x="341.5" y="-724" font-family="Helvetica,sans-Serif" font-size="10.00">COMMENT</text>
</a>
</g>
</g>
<!-- Node1&#45;&gt;Node5 -->
<g id="edge39_Node000001_Node000005" class="edge">
<title>Node1&#45;&gt;Node5</title>
<g id="a_edge39_Node000001_Node000005"><a xlink:title=" ">
<path fill="none" stroke="#63b8ff" d="M107.8,-521.59C120.98,-553.61 168.06,-657.61 242,-708 247.15,-711.51 252.77,-714.51 258.62,-717.07"/>
<polygon fill="#63b8ff" stroke="#63b8ff" points="257.38,-720.35 267.97,-720.75 259.94,-713.83 257.38,-720.35"/>
</a>
</g>
</g>
<!-- Node6 -->
<g id="Node000006" class="node">
<title>Node6</title>
<g id="a_Node000006"><a xlink:href="$classcam_1_1nc_1_1iso_1_1Creator.html#a0181c37cf5c794505115dcb25bc0374d" xlink:title=" ">
<polygon fill="white" stroke="#666666" points="422.5,-698.5 260.5,-698.5 260.5,-679.5 422.5,-679.5 422.5,-698.5"/>
<text text-anchor="middle" x="341.5" y="-686.5" font-family="Helvetica,sans-Serif" font-size="10.00">cam.nc.iso.Creator.COMMENT</text>
</a>
</g>
</g>
<!-- Node1&#45;&gt;Node6 -->
<g id="edge40_Node000001_Node000006" class="edge">
<title>Node1&#45;&gt;Node6</title>
<g id="a_edge40_Node000001_Node000006"><a xlink:title=" ">
<path fill="none" stroke="#63b8ff" d="M109.34,-521.78C125.31,-549.98 175.69,-631.88 242,-670 245.88,-672.23 249.98,-674.21 254.21,-675.96"/>
<polygon fill="#63b8ff" stroke="#63b8ff" points="253.06,-679.26 263.65,-679.43 255.48,-672.69 253.06,-679.26"/>
</a>
</g>
</g>
<!-- Node7 -->
<g id="Node000007" class="node">
<title>Node7</title>
<g id="a_Node000007"><a xlink:href="$classcam_1_1nc_1_1lynx__otter__o_1_1Creator.html#a7542e359b98327e59f79a5a26857e3e9" xlink:title=" ">
<polygon fill="white" stroke="#666666" points="420,-661 263,-661 263,-631 420,-631 420,-661"/>
<text text-anchor="start" x="271" y="-649" font-family="Helvetica,sans-Serif" font-size="10.00">cam.nc.lynx_otter_o.Creator.</text>
<text text-anchor="middle" x="341.5" y="-638" font-family="Helvetica,sans-Serif" font-size="10.00">COMMENT</text>
</a>
</g>
</g>
<!-- Node1&#45;&gt;Node7 -->
<g id="edge41_Node000001_Node000007" class="edge">
<title>Node1&#45;&gt;Node7</title>
<g id="a_edge41_Node000001_Node000007"><a xlink:title=" ">
<path fill="none" stroke="#63b8ff" d="M113.02,-521.61C133.7,-543.06 186.98,-595.02 242,-622 246.07,-623.99 250.31,-625.83 254.65,-627.52"/>
<polygon fill="#63b8ff" stroke="#63b8ff" points="253.7,-630.89 264.29,-630.99 256.07,-624.31 253.7,-630.89"/>
</a>
</g>
</g>
<!-- Node8 -->
<g id="Node000008" class="node">
<title>Node8</title>
<g id="a_Node000008"><a xlink:href="$classcam_1_1nc_1_1makerbot__codes_1_1Codes.html#a0b7d4923fea5d92064ba65e60074474e" xlink:title=" ">
<polygon fill="white" stroke="#666666" points="427,-613 256,-613 256,-583 427,-583 427,-613"/>
<text text-anchor="start" x="264" y="-601" font-family="Helvetica,sans-Serif" font-size="10.00">cam.nc.makerbot_codes.Codes.</text>
<text text-anchor="middle" x="341.5" y="-590" font-family="Helvetica,sans-Serif" font-size="10.00">COMMENT</text>
</a>
</g>
</g>
<!-- Node1&#45;&gt;Node8 -->
<g id="edge42_Node000001_Node000008" class="edge">
<title>Node1&#45;&gt;Node8</title>
<g id="a_edge42_Node000001_Node000008"><a xlink:title=" ">
<path fill="none" stroke="#63b8ff" d="M122.31,-521.53C148.34,-534.78 197.78,-558.82 242,-574 248.38,-576.19 255.05,-578.26 261.79,-580.2"/>
<polygon fill="#63b8ff" stroke="#63b8ff" points="261.11,-583.64 271.68,-582.94 262.98,-576.9 261.11,-583.64"/>
</a>
</g>
</g>
<!-- Node9 -->
<g id="Node000009" class="node">
<title>Node9</title>
<g id="a_Node000009"><a xlink:href="$classcam_1_1nc_1_1rez2_1_1Creator.html#abf7c3fb7afa5b735b94668c73afae18e" xlink:title=" ">
<polygon fill="white" stroke="#666666" points="426,-564.5 257,-564.5 257,-545.5 426,-545.5 426,-564.5"/>
<text text-anchor="middle" x="341.5" y="-552.5" font-family="Helvetica,sans-Serif" font-size="10.00">cam.nc.rez2.Creator.COMMENT</text>
</a>
</g>
</g>
<!-- Node1&#45;&gt;Node9 -->
<g id="edge43_Node000001_Node000009" class="edge">
<title>Node1&#45;&gt;Node9</title>
<g id="a_edge43_Node000001_Node000009"><a xlink:title=" ">
<path fill="none" stroke="#63b8ff" d="M156.49,-521.54C192.46,-528.08 240.35,-536.79 278.25,-543.68"/>
<polygon fill="#63b8ff" stroke="#63b8ff" points="277.69,-547.14 288.16,-545.48 278.95,-540.25 277.69,-547.14"/>
</a>
</g>
</g>
<!-- Node10 -->
<g id="Node000010" class="node">
<title>Node10</title>
<g id="a_Node000010"><a xlink:href="$classcam_1_1nc_1_1shopbot__mtc_1_1Creator.html#a9b549b5b3d9803c1f1cceab22adfea86" xlink:title=" ">
<polygon fill="white" stroke="#666666" points="421,-527 262,-527 262,-497 421,-497 421,-527"/>
<text text-anchor="start" x="270" y="-515" font-family="Helvetica,sans-Serif" font-size="10.00">cam.nc.shopbot_mtc.Creator.</text>
<text text-anchor="middle" x="341.5" y="-504" font-family="Helvetica,sans-Serif" font-size="10.00">COMMENT</text>
</a>
</g>
</g>
<!-- Node1&#45;&gt;Node10 -->
<g id="edge44_Node000001_Node000010" class="edge">
<title>Node1&#45;&gt;Node10</title>
<g id="a_edge44_Node000001_Node000010"><a xlink:title=" ">
<path fill="none" stroke="#63b8ff" d="M206.01,-512C221.15,-512 236.64,-512 251.49,-512"/>
<polygon fill="#63b8ff" stroke="#63b8ff" points="251.64,-515.5 261.64,-512 251.64,-508.5 251.64,-515.5"/>
</a>
</g>
</g>
<!-- Node11 -->
<g id="Node000011" class="node">
<title>Node11</title>
<g id="a_Node000011"><a xlink:href="$classcam_1_1nc_1_1cad__nc__read_1_1Parser.html#adcf2f47949df29f187f27fe985884633" xlink:title=" ">
<polygon fill="white" stroke="#666666" points="429.5,-460.5 253.5,-460.5 253.5,-441.5 429.5,-441.5 429.5,-460.5"/>
<text text-anchor="middle" x="341.5" y="-448.5" font-family="Helvetica,sans-Serif" font-size="10.00">cam.nc.cad_nc_read.Parser.write</text>
</a>
</g>
</g>
<!-- Node1&#45;&gt;Node11 -->
<g id="edge45_Node000001_Node000011" class="edge">
<title>Node1&#45;&gt;Node11</title>
<g id="a_edge45_Node000001_Node000011"><a xlink:title=" ">
<path fill="none" stroke="#63b8ff" d="M140.95,-502.47C182.14,-491.85 248.83,-474.65 293.64,-463.09"/>
<polygon fill="#63b8ff" stroke="#63b8ff" points="294.61,-466.45 303.42,-460.56 292.86,-459.67 294.61,-466.45"/>
</a>
</g>
</g>
<!-- Node12 -->
<g id="Node000012" class="node">
<title>Node12</title>
<g id="a_Node000012"><a xlink:href="$classcam_1_1nc_1_1hxml__writer_1_1HxmlWriter.html#aed6f93c98cb8c0e3f3e826e75b6d6f15" xlink:title=" ">
<polygon fill="white" stroke="#666666" points="441,-405.5 242,-405.5 242,-386.5 441,-386.5 441,-405.5"/>
<text text-anchor="middle" x="341.5" y="-393.5" font-family="Helvetica,sans-Serif" font-size="10.00">cam.nc.hxml_writer.HxmlWriter.write</text>
</a>
</g>
</g>
<!-- Node1&#45;&gt;Node12 -->
<g id="edge47_Node000001_Node000012" class="edge">
<title>Node1&#45;&gt;Node12</title>
<g id="a_edge47_Node000001_Node000012"><a xlink:title=" ">
<path fill="none" stroke="#63b8ff" d="M118.89,-502.41C143.74,-486.65 195.53,-454.85 242,-433 261.2,-423.97 283.25,-415.52 301.61,-408.98"/>
<polygon fill="#63b8ff" stroke="#63b8ff" points="302.84,-412.26 311.12,-405.65 300.52,-405.65 302.84,-412.26"/>
</a>
</g>
</g>
<!-- Node13 -->
<g id="Node000013" class="node">
<title>Node13</title>
<g id="a_Node000013"><a xlink:href="$classcam_1_1nc_1_1iso_1_1Creator.html#abb81af5a0bdddfed387b71b68a51cc7a" xlink:title="Internals.">
<polygon fill="white" stroke="#666666" points="409,-368.5 274,-368.5 274,-349.5 409,-349.5 409,-368.5"/>
<text text-anchor="middle" x="341.5" y="-356.5" font-family="Helvetica,sans-Serif" font-size="10.00">cam.nc.iso.Creator.write</text>
</a>
</g>
</g>
<!-- Node1&#45;&gt;Node13 -->
<g id="edge49_Node000001_Node000013" class="edge">
<title>Node1&#45;&gt;Node13</title>
<g id="a_edge49_Node000001_Node000013"><a xlink:title=" ">
<path fill="none" stroke="#63b8ff" d="M110.76,-502.3C128.81,-477.19 181,-409.81 242,-378 248.89,-374.4 256.38,-371.49 264.04,-369.12"/>
<polygon fill="#63b8ff" stroke="#63b8ff" points="265.11,-372.45 273.81,-366.4 263.24,-365.71 265.11,-372.45"/>
</a>
</g>
</g>
<!-- Node14 -->
<g id="Node000014" class="node">
<title>Node14</title>
<g id="a_Node000014"><a xlink:href="$classcam_1_1nc_1_1nc_1_1Creator.html#a80f2134add83bfaaf2870d075d36ed8a" xlink:title=" ">
<polygon fill="white" stroke="#666666" points="407.5,-313.5 275.5,-313.5 275.5,-294.5 407.5,-294.5 407.5,-313.5"/>
<text text-anchor="middle" x="341.5" y="-301.5" font-family="Helvetica,sans-Serif" font-size="10.00">cam.nc.nc.Creator.write</text>
</a>
</g>
</g>
<!-- Node1&#45;&gt;Node14 -->
<g id="edge50_Node000001_Node000014" class="edge">
<title>Node1&#45;&gt;Node14</title>
<g id="a_edge50_Node000001_Node000014"><a xlink:title=" ">
<path fill="none" stroke="#63b8ff" d="M109.24,-502.38C125.31,-473.74 176.75,-388.13 242,-341 256.73,-330.36 274.89,-322.4 291.58,-316.65"/>
<polygon fill="#63b8ff" stroke="#63b8ff" points="292.78,-319.94 301.2,-313.51 290.61,-313.28 292.78,-319.94"/>
</a>
</g>
</g>
<!-- Node15 -->
<g id="Node000015" class="node">
<title>Node15</title>
<g id="a_Node000015"><a xlink:href="$classcam_1_1nc_1_1nclathe__read_1_1Parser.html#ab5ea283b461b57e48c8d5b0ad0a45694" xlink:title=" ">
<polygon fill="white" stroke="#666666" points="430.5,-258.5 252.5,-258.5 252.5,-239.5 430.5,-239.5 430.5,-258.5"/>
<text text-anchor="middle" x="341.5" y="-246.5" font-family="Helvetica,sans-Serif" font-size="10.00">cam.nc.nclathe_read.Parser.write</text>
</a>
</g>
</g>
<!-- Node1&#45;&gt;Node15 -->
<g id="edge52_Node000001_Node000015" class="edge">
<title>Node1&#45;&gt;Node15</title>
<g id="a_edge52_Node000001_Node000015"><a xlink:title=" ">
<path fill="none" stroke="#63b8ff" d="M107.28,-502.29C119.42,-467.76 165.12,-349.58 242,-286 255.06,-275.2 271.58,-267.37 287.35,-261.78"/>
<polygon fill="#63b8ff" stroke="#63b8ff" points="288.63,-265.04 297.03,-258.57 286.44,-258.39 288.63,-265.04"/>
</a>
</g>
</g>
<!-- Node16 -->
<g id="Node000016" class="node">
<title>Node16</title>
<g id="a_Node000016"><a xlink:href="$classcam_1_1nc_1_1recreator_1_1Redirector.html#a79cc974683588db3ef959189e7552c0d" xlink:title="Programs.">
<polygon fill="white" stroke="#666666" points="431,-203.5 252,-203.5 252,-184.5 431,-184.5 431,-203.5"/>
<text text-anchor="middle" x="341.5" y="-191.5" font-family="Helvetica,sans-Serif" font-size="10.00">cam.nc.recreator.Redirector.write</text>
</a>
</g>
</g>
<!-- Node1&#45;&gt;Node16 -->
<g id="edge54_Node000001_Node000016" class="edge">
<title>Node1&#45;&gt;Node16</title>
<g id="a_edge54_Node000001_Node000016"><a xlink:title=" ">
<path fill="none" stroke="#63b8ff" d="M105.99,-502.47C114.66,-463.17 152.84,-311.89 242,-231 253.99,-220.13 269.47,-212.35 284.6,-206.82"/>
<polygon fill="#63b8ff" stroke="#63b8ff" points="286.09,-210.02 294.45,-203.51 283.86,-203.38 286.09,-210.02"/>
</a>
</g>
</g>
<!-- Node17 -->
<g id="Node000017" class="node">
<title>Node17</title>
<g id="a_Node000017"><a xlink:href="$classcam_1_1nc_1_1format_1_1Address.html#aa21f0ffeb829537d9103759276c01a4b" xlink:title=" ">
<polygon fill="white" stroke="#666666" points="420.5,-166.5 262.5,-166.5 262.5,-147.5 420.5,-147.5 420.5,-166.5"/>
<text text-anchor="middle" x="341.5" y="-154.5" font-family="Helvetica,sans-Serif" font-size="10.00">cam.nc.format.Address.write</text>
</a>
</g>
</g>
<!-- Node1&#45;&gt;Node17 -->
<g id="edge56_Node000001_Node000017" class="edge">
<title>Node1&#45;&gt;Node17</title>
<g id="a_edge56_Node000001_Node000017"><a xlink:title=" ">
<path fill="none" stroke="#63b8ff" d="M104.75,-502.37C108.8,-457.31 132.19,-265.86 242,-176 245.41,-173.21 249.11,-170.78 253.01,-168.68"/>
<polygon fill="#63b8ff" stroke="#63b8ff" points="254.81,-171.7 262.42,-164.33 251.88,-165.35 254.81,-171.7"/>
</a>
</g>
</g>
<!-- Node28 -->
<g id="Node000028" class="node">
<title>Node28</title>
<g id="a_Node000028"><a xlink:href="$classcam_1_1nc_1_1format_1_1AddressPlusMinus.html#aaacea4c7b677f0a602dbc9023ff365d2" xlink:title=" ">
<polygon fill="white" stroke="#666666" points="416.5,-129 266.5,-129 266.5,-99 416.5,-99 416.5,-129"/>
<text text-anchor="start" x="274.5" y="-117" font-family="Helvetica,sans-Serif" font-size="10.00">cam.nc.format.AddressPlus</text>
<text text-anchor="middle" x="341.5" y="-106" font-family="Helvetica,sans-Serif" font-size="10.00">Minus.write</text>
</a>
</g>
</g>
<!-- Node1&#45;&gt;Node28 -->
<g id="edge69_Node000001_Node000028" class="edge">
<title>Node1&#45;&gt;Node28</title>
<g id="a_edge69_Node000001_Node000028"><a xlink:title=" ">
<path fill="none" stroke="#63b8ff" d="M104.41,-502.4C107.01,-454.81 124.99,-242.32 242,-138 246.46,-134.02 251.47,-130.68 256.81,-127.87"/>
<polygon fill="#63b8ff" stroke="#63b8ff" points="258.42,-130.98 266.05,-123.63 255.5,-124.62 258.42,-130.98"/>
</a>
</g>
</g>
<!-- Node11&#45;&gt;Node11 -->
<g id="edge46_Node000011_Node000011" class="edge">
<title>Node11&#45;&gt;Node11</title>
<g id="a_edge46_Node000011_Node000011"><a xlink:title=" ">
<path fill="none" stroke="#63b8ff" d="M308.21,-460.58C292.01,-469.23 303.11,-478.5 341.5,-478.5 369.09,-478.5 382.59,-473.71 381.98,-467.81"/>
<polygon fill="#63b8ff" stroke="#63b8ff" points="384.33,-465.2 374.79,-460.58 379.36,-470.14 384.33,-465.2"/>
</a>
</g>
</g>
<!-- Node12&#45;&gt;Node12 -->
<g id="edge48_Node000012_Node000012" class="edge">
<title>Node12&#45;&gt;Node12</title>
<g id="a_edge48_Node000012_Node000012"><a xlink:title=" ">
<path fill="none" stroke="#63b8ff" d="M308.21,-405.58C292.01,-414.23 303.11,-423.5 341.5,-423.5 369.09,-423.5 382.59,-418.71 381.98,-412.81"/>
<polygon fill="#63b8ff" stroke="#63b8ff" points="384.33,-410.2 374.79,-405.58 379.36,-415.14 384.33,-410.2"/>
</a>
</g>
</g>
<!-- Node14&#45;&gt;Node14 -->
<g id="edge51_Node000014_Node000014" class="edge">
<title>Node14&#45;&gt;Node14</title>
<g id="a_edge51_Node000014_Node000014"><a xlink:title=" ">
<path fill="none" stroke="#63b8ff" d="M308.21,-313.58C292.01,-322.23 303.11,-331.5 341.5,-331.5 369.09,-331.5 382.59,-326.71 381.98,-320.81"/>
<polygon fill="#63b8ff" stroke="#63b8ff" points="384.33,-318.2 374.79,-313.58 379.36,-323.14 384.33,-318.2"/>
</a>
</g>
</g>
<!-- Node15&#45;&gt;Node15 -->
<g id="edge53_Node000015_Node000015" class="edge">
<title>Node15&#45;&gt;Node15</title>
<g id="a_edge53_Node000015_Node000015"><a xlink:title=" ">
<path fill="none" stroke="#63b8ff" d="M308.21,-258.58C292.01,-267.23 303.11,-276.5 341.5,-276.5 369.09,-276.5 382.59,-271.71 381.98,-265.81"/>
<polygon fill="#63b8ff" stroke="#63b8ff" points="384.33,-263.2 374.79,-258.58 379.36,-268.14 384.33,-263.2"/>
</a>
</g>
</g>
<!-- Node16&#45;&gt;Node16 -->
<g id="edge55_Node000016_Node000016" class="edge">
<title>Node16&#45;&gt;Node16</title>
<g id="a_edge55_Node000016_Node000016"><a xlink:title=" ">
<path fill="none" stroke="#63b8ff" d="M308.21,-203.58C292.01,-212.23 303.11,-221.5 341.5,-221.5 369.09,-221.5 382.59,-216.71 381.98,-210.81"/>
<polygon fill="#63b8ff" stroke="#63b8ff" points="384.33,-208.2 374.79,-203.58 379.36,-213.14 384.33,-208.2"/>
</a>
</g>
</g>
<!-- Node18 -->
<g id="Node000018" class="node">
<title>Node18</title>
<g id="a_Node000018"><a xlink:href="$classcam_1_1async__op_1_1AsyncOperatorMixin.html#a9628cbca8e69ec75b2337171a02bf428" xlink:title=" ">
<polygon fill="white" stroke="#666666" points="638,-150 477,-150 477,-120 638,-120 638,-150"/>
<text text-anchor="start" x="485" y="-138" font-family="Helvetica,sans-Serif" font-size="10.00">cam.async_op.AsyncOperator</text>
<text text-anchor="middle" x="557.5" y="-127" font-family="Helvetica,sans-Serif" font-size="10.00">Mixin.modal</text>
</a>
</g>
</g>
<!-- Node17&#45;&gt;Node18 -->
<g id="edge57_Node000017_Node000018" class="edge">
<title>Node17&#45;&gt;Node18</title>
<g id="a_edge57_Node000017_Node000018"><a xlink:title=" ">
<path fill="none" stroke="#63b8ff" d="M420.67,-148.96C435.65,-147.42 451.45,-145.8 466.77,-144.22"/>
<polygon fill="#63b8ff" stroke="#63b8ff" points="467.16,-147.7 476.75,-143.2 466.45,-140.74 467.16,-147.7"/>
</a>
</g>
</g>
<!-- Node19 -->
<g id="Node000019" class="node">
<title>Node19</title>
<g id="a_Node000019"><a xlink:href="$classcam_1_1async__op_1_1AsyncOperatorMixin.html#a15a51cfd69d8e453e2e3d64386b1ebe3" xlink:title=" ">
<polygon fill="white" stroke="#666666" points="835,-150 674,-150 674,-120 835,-120 835,-150"/>
<text text-anchor="start" x="682" y="-138" font-family="Helvetica,sans-Serif" font-size="10.00">cam.async_op.AsyncOperator</text>
<text text-anchor="middle" x="754.5" y="-127" font-family="Helvetica,sans-Serif" font-size="10.00">Mixin.tick</text>
</a>
</g>
</g>
<!-- Node18&#45;&gt;Node19 -->
<g id="edge58_Node000018_Node000019" class="edge">
<title>Node18&#45;&gt;Node19</title>
<g id="a_edge58_Node000018_Node000019"><a xlink:title=" ">
<path fill="none" stroke="#63b8ff" d="M638.1,-135C646.57,-135 655.24,-135 663.82,-135"/>
<polygon fill="#63b8ff" stroke="#63b8ff" points="663.84,-138.5 673.84,-135 663.84,-131.5 663.84,-138.5"/>
</a>
</g>
</g>
<!-- Node20 -->
<g id="Node000020" class="node">
<title>Node20</title>
<g id="a_Node000020"><a xlink:href="$classcam_1_1async__op_1_1AsyncTestOperator.html#a42606ca890a957aa7070a4bc6f25228b" xlink:title=" ">
<polygon fill="white" stroke="#666666" points="1092,-270 871,-270 871,-240 1092,-240 1092,-270"/>
<text text-anchor="start" x="879" y="-258" font-family="Helvetica,sans-Serif" font-size="10.00">cam.async_op.AsyncTestOperator.execute</text>
<text text-anchor="middle" x="981.5" y="-247" font-family="Helvetica,sans-Serif" font-size="10.00">_async</text>
</a>
</g>
</g>
<!-- Node19&#45;&gt;Node20 -->
<g id="edge59_Node000019_Node000020" class="edge">
<title>Node19&#45;&gt;Node20</title>
<g id="a_edge59_Node000019_Node000020"><a xlink:title=" ">
<path fill="none" stroke="#63b8ff" d="M769.18,-150.27C789.31,-171.74 829.07,-210.51 871,-231 875.09,-233 879.35,-234.84 883.72,-236.52"/>
<polygon fill="#63b8ff" stroke="#63b8ff" points="882.81,-239.91 893.41,-239.97 885.16,-233.32 882.81,-239.91"/>
</a>
</g>
</g>
<!-- Node21 -->
<g id="Node000021" class="node">
<title>Node21</title>
<g id="a_Node000021"><a xlink:href="$classcam_1_1ops_1_1CalculatePath.html#a13dfe2f8578383234e74e58e2f292e1b" xlink:title=" ">
<polygon fill="white" stroke="#666666" points="1066,-222 897,-222 897,-192 1066,-192 1066,-222"/>
<text text-anchor="start" x="905" y="-210" font-family="Helvetica,sans-Serif" font-size="10.00">cam.ops.CalculatePath.execute</text>
<text text-anchor="middle" x="981.5" y="-199" font-family="Helvetica,sans-Serif" font-size="10.00">_async</text>
</a>
</g>
</g>
<!-- Node19&#45;&gt;Node21 -->
<g id="edge60_Node000019_Node000021" class="edge">
<title>Node19&#45;&gt;Node21</title>
<g id="a_edge60_Node000019_Node000021"><a xlink:title=" ">
<path fill="none" stroke="#63b8ff" d="M787.29,-150.01C810.18,-160.38 842,-173.88 871,-183 878.31,-185.3 885.96,-187.46 893.68,-189.47"/>
<polygon fill="#63b8ff" stroke="#63b8ff" points="892.91,-192.89 903.46,-191.93 894.62,-186.1 892.91,-192.89"/>
</a>
</g>
</g>
<!-- Node23 -->
<g id="Node000023" class="node">
<title>Node23</title>
<g id="a_Node000023"><a xlink:href="$classcam_1_1ops_1_1PathsChain.html#a6fc64e383ccf724b2325e18a82d53eae" xlink:title=" ">
<polygon fill="white" stroke="#666666" points="1059.5,-174 903.5,-174 903.5,-144 1059.5,-144 1059.5,-174"/>
<text text-anchor="start" x="911.5" y="-162" font-family="Helvetica,sans-Serif" font-size="10.00">cam.ops.PathsChain.execute</text>
<text text-anchor="middle" x="981.5" y="-151" font-family="Helvetica,sans-Serif" font-size="10.00">_async</text>
</a>
</g>
</g>
<!-- Node19&#45;&gt;Node23 -->
<g id="edge62_Node000019_Node000023" class="edge">
<title>Node19&#45;&gt;Node23</title>
<g id="a_edge62_Node000019_Node000023"><a xlink:title=" ">
<path fill="none" stroke="#63b8ff" d="M835.14,-143.5C853.9,-145.5 873.98,-147.64 893.06,-149.67"/>
<polygon fill="#63b8ff" stroke="#63b8ff" points="892.92,-153.18 903.23,-150.76 893.66,-146.22 892.92,-153.18"/>
</a>
</g>
</g>
<!-- Node25 -->
<g id="Node000025" class="node">
<title>Node25</title>
<g id="a_Node000025"><a xlink:href="$classcam_1_1ops_1_1CAMSimulate.html#a633151f17849d281fd52ce82c00356a7" xlink:title=" ">
<polygon fill="white" stroke="#666666" points="1065.5,-126 897.5,-126 897.5,-96 1065.5,-96 1065.5,-126"/>
<text text-anchor="start" x="905.5" y="-114" font-family="Helvetica,sans-Serif" font-size="10.00">cam.ops.CAMSimulate.execute</text>
<text text-anchor="middle" x="981.5" y="-103" font-family="Helvetica,sans-Serif" font-size="10.00">_async</text>
</a>
</g>
</g>
<!-- Node19&#45;&gt;Node25 -->
<g id="edge65_Node000019_Node000025" class="edge">
<title>Node19&#45;&gt;Node25</title>
<g id="a_edge65_Node000019_Node000025"><a xlink:title=" ">
<path fill="none" stroke="#63b8ff" d="M835.14,-126.5C851.95,-124.71 869.82,-122.81 887.08,-120.97"/>
<polygon fill="#63b8ff" stroke="#63b8ff" points="887.58,-124.43 897.15,-119.89 886.84,-117.47 887.58,-124.43"/>
</a>
</g>
</g>
<!-- Node26 -->
<g id="Node000026" class="node">
<title>Node26</title>
<g id="a_Node000026"><a xlink:href="$classcam_1_1ops_1_1CAMSimulateChain.html#a1e77c7ce21b3b7e3e38a12b6b62517e9" xlink:title=" ">
<polygon fill="white" stroke="#666666" points="1079.5,-78 883.5,-78 883.5,-48 1079.5,-48 1079.5,-78"/>
<text text-anchor="start" x="891.5" y="-66" font-family="Helvetica,sans-Serif" font-size="10.00">cam.ops.CAMSimulateChain.execute</text>
<text text-anchor="middle" x="981.5" y="-55" font-family="Helvetica,sans-Serif" font-size="10.00">_async</text>
</a>
</g>
</g>
<!-- Node19&#45;&gt;Node26 -->
<g id="edge66_Node000019_Node000026" class="edge">
<title>Node19&#45;&gt;Node26</title>
<g id="a_edge66_Node000019_Node000026"><a xlink:title=" ">
<path fill="none" stroke="#63b8ff" d="M787.29,-119.99C810.18,-109.62 842,-96.12 871,-87 878.31,-84.7 885.96,-82.54 893.68,-80.53"/>
<polygon fill="#63b8ff" stroke="#63b8ff" points="894.62,-83.9 903.46,-78.07 892.91,-77.11 894.62,-83.9"/>
</a>
</g>
</g>
<!-- Node27 -->
<g id="Node000027" class="node">
<title>Node27</title>
<g id="a_Node000027"><a xlink:href="$classcam_1_1async__op_1_1AsyncOperatorMixin.html#a2216ff6bb0dfd132f4ec4cf79b7cba2b" xlink:title=" ">
<polygon fill="white" stroke="#666666" points="1062,-30 901,-30 901,0 1062,0 1062,-30"/>
<text text-anchor="start" x="909" y="-18" font-family="Helvetica,sans-Serif" font-size="10.00">cam.async_op.AsyncOperator</text>
<text text-anchor="middle" x="981.5" y="-7" font-family="Helvetica,sans-Serif" font-size="10.00">Mixin.show_progress</text>
</a>
</g>
</g>
<!-- Node19&#45;&gt;Node27 -->
<g id="edge68_Node000019_Node000027" class="edge">
<title>Node19&#45;&gt;Node27</title>
<g id="a_edge68_Node000019_Node000027"><a xlink:title=" ">
<path fill="none" stroke="#63b8ff" d="M769.18,-119.73C789.31,-98.26 829.07,-59.49 871,-39 877.43,-35.86 884.27,-33.12 891.28,-30.74"/>
<polygon fill="#63b8ff" stroke="#63b8ff" points="892.42,-34.05 900.91,-27.71 890.32,-27.37 892.42,-34.05"/>
</a>
</g>
</g>
<!-- Node22 -->
<g id="Node000022" class="node">
<title>Node22</title>
<g id="a_Node000022"><a xlink:href="$namespacecam_1_1ops.html#aa8e95f7410a7ceb178db48f4f8c2d995" xlink:title=" ">
<polygon fill="white" stroke="#666666" points="1263.5,-192.5 1150.5,-192.5 1150.5,-173.5 1263.5,-173.5 1263.5,-192.5"/>
<text text-anchor="middle" x="1207" y="-180.5" font-family="Helvetica,sans-Serif" font-size="10.00">cam.ops._calc_path</text>
</a>
</g>
</g>
<!-- Node21&#45;&gt;Node22 -->
<g id="edge61_Node000021_Node000022" class="edge">
<title>Node21&#45;&gt;Node22</title>
<g id="a_edge61_Node000021_Node000022"><a xlink:title=" ">
<path fill="none" stroke="#63b8ff" d="M1066.04,-198.03C1090.56,-195.4 1117.01,-192.56 1140.25,-190.06"/>
<polygon fill="#63b8ff" stroke="#63b8ff" points="1140.77,-193.52 1150.34,-188.98 1140.03,-186.56 1140.77,-193.52"/>
</a>
</g>
</g>
<!-- Node23&#45;&gt;Node22 -->
<g id="edge63_Node000023_Node000022" class="edge">
<title>Node23&#45;&gt;Node22</title>
<g id="a_edge63_Node000023_Node000022"><a xlink:title=" ">
<path fill="none" stroke="#63b8ff" d="M1059.73,-167.29C1085.9,-170.1 1114.87,-173.21 1140.08,-175.92"/>
<polygon fill="#63b8ff" stroke="#63b8ff" points="1139.95,-179.43 1150.27,-177.02 1140.7,-172.47 1139.95,-179.43"/>
</a>
</g>
</g>
<!-- Node24 -->
<g id="Node000024" class="node">
<title>Node24</title>
<g id="a_Node000024"><a xlink:href="$namespacecam_1_1ops.html#ab55fb8ec9a00e021e8e4a1c3ecc97cb4" xlink:title=" ">
<polygon fill="white" stroke="#666666" points="1286,-126.5 1128,-126.5 1128,-107.5 1286,-107.5 1286,-126.5"/>
<text text-anchor="middle" x="1207" y="-114.5" font-family="Helvetica,sans-Serif" font-size="10.00">cam.ops.getChainOperations</text>
</a>
</g>
</g>
<!-- Node23&#45;&gt;Node24 -->
<g id="edge64_Node000023_Node000024" class="edge">
<title>Node23&#45;&gt;Node24</title>
<g id="a_edge64_Node000023_Node000024"><a xlink:title=" ">
<path fill="none" stroke="#63b8ff" d="M1059.73,-144.49C1087.81,-139.21 1119.12,-133.33 1145.54,-128.36"/>
<polygon fill="#63b8ff" stroke="#63b8ff" points="1146.23,-131.79 1155.41,-126.51 1144.94,-124.91 1146.23,-131.79"/>
</a>
</g>
</g>
<!-- Node26&#45;&gt;Node24 -->
<g id="edge67_Node000026_Node000024" class="edge">
<title>Node26&#45;&gt;Node24</title>
<g id="a_edge67_Node000026_Node000024"><a xlink:title=" ">
<path fill="none" stroke="#63b8ff" d="M1053.28,-78.06C1066.19,-80.94 1079.51,-83.99 1092,-87 1114.91,-92.52 1140.28,-99.15 1161.25,-104.77"/>
<polygon fill="#63b8ff" stroke="#63b8ff" points="1160.6,-108.21 1171.17,-107.43 1162.42,-101.45 1160.6,-108.21"/>
</a>
</g>
</g>
<!-- Node28&#45;&gt;Node18 -->
<g id="edge70_Node000028_Node000018" class="edge">
<title>Node28&#45;&gt;Node18</title>
<g id="a_edge70_Node000028_Node000018"><a xlink:title=" ">
<path fill="none" stroke="#63b8ff" d="M416.75,-121.29C432.84,-122.87 450.03,-124.55 466.65,-126.18"/>
<polygon fill="#63b8ff" stroke="#63b8ff" points="466.62,-129.7 476.92,-127.19 467.3,-122.73 466.62,-129.7"/>
</a>
</g>
</g>
</g>
</svg>
