<?xml version="1.0" encoding="UTF-8" standalone="no"?>
<!DOCTYPE svg PUBLIC "-//W3C//DTD SVG 1.1//EN"
 "http://www.w3.org/Graphics/SVG/1.1/DTD/svg11.dtd">
<!-- Generated by graphviz version 2.43.0 (0)
 -->
<!-- Title: cam.ui_panels.optimisation.CAM_OPTIMISATION_Panel Pages: 1 -->
<svg width="208pt" height="550pt"
 viewBox="0.00 0.00 208.00 550.00" xmlns="http://www.w3.org/2000/svg" xmlns:xlink="http://www.w3.org/1999/xlink">
<g id="graph0" class="graph" transform="scale(1 1) rotate(0) translate(4 546)">
<title>cam.ui_panels.optimisation.CAM_OPTIMISATION_Panel</title>
<!-- Node1 -->
<g id="Node000001" class="node">
<title>Node1</title>
<g id="a_Node000001"><a xlink:title=" ">
<polygon fill="#999999" stroke="transparent" points="200,-266 51,-266 51,0 200,0 200,-266"/>
<text text-anchor="start" x="56.5" y="-254" font-family="Helvetica,sans-Serif" font-size="10.00">cam.ui_panels.optimisation.</text>
<text text-anchor="start" x="60.5" y="-243" font-family="Helvetica,sans-Serif" font-size="10.00">CAM_OPTIMISATION_Panel</text>
<text text-anchor="start" x="57" y="-228" font-family="Helvetica,sans-Serif" font-size="10.00">+</text>
<text text-anchor="start" x="71.5" y="-228" font-family="Helvetica,sans-Serif" font-size="10.00">exact_possible</text>
<text text-anchor="start" x="57" y="-213" font-family="Helvetica,sans-Serif" font-size="10.00">+</text>
<text text-anchor="start" x="71.5" y="-213" font-family="Helvetica,sans-Serif" font-size="10.00">op</text>
<text text-anchor="start" x="57" y="-198" font-family="Helvetica,sans-Serif" font-size="10.00">+</text>
<text text-anchor="start" x="71.5" y="-198" font-family="Helvetica,sans-Serif" font-size="10.00">context</text>
<text text-anchor="start" x="57" y="-183" font-family="Helvetica,sans-Serif" font-size="10.00">+</text>
<text text-anchor="start" x="71.5" y="-183" font-family="Helvetica,sans-Serif" font-size="10.00">bl_label</text>
<text text-anchor="start" x="57" y="-168" font-family="Helvetica,sans-Serif" font-size="10.00">+</text>
<text text-anchor="start" x="71.5" y="-168" font-family="Helvetica,sans-Serif" font-size="10.00">bl_idname</text>
<text text-anchor="start" x="57" y="-153" font-family="Helvetica,sans-Serif" font-size="10.00">+</text>
<text text-anchor="start" x="71.5" y="-153" font-family="Helvetica,sans-Serif" font-size="10.00">panel_interface_level</text>
<text text-anchor="start" x="57" y="-138" font-family="Helvetica,sans-Serif" font-size="10.00">+</text>
<text text-anchor="start" x="71.5" y="-138" font-family="Helvetica,sans-Serif" font-size="10.00">draw_optimize()</text>
<text text-anchor="start" x="57" y="-123" font-family="Helvetica,sans-Serif" font-size="10.00">+</text>
<text text-anchor="start" x="71.5" y="-123" font-family="Helvetica,sans-Serif" font-size="10.00">draw_exact_mode()</text>
<text text-anchor="start" x="57" y="-108" font-family="Helvetica,sans-Serif" font-size="10.00">+</text>
<text text-anchor="start" x="71.5" y="-108" font-family="Helvetica,sans-Serif" font-size="10.00">draw_use_opencamlib()</text>
<text text-anchor="start" x="57" y="-93" font-family="Helvetica,sans-Serif" font-size="10.00">+</text>
<text text-anchor="start" x="71.5" y="-93" font-family="Helvetica,sans-Serif" font-size="10.00">draw_simulation_detail()</text>
<text text-anchor="start" x="57" y="-78" font-family="Helvetica,sans-Serif" font-size="10.00">+</text>
<text text-anchor="start" x="71.5" y="-78" font-family="Helvetica,sans-Serif" font-size="10.00">draw_simplify_gcode()</text>
<text text-anchor="start" x="57" y="-63" font-family="Helvetica,sans-Serif" font-size="10.00">+</text>
<text text-anchor="start" x="71.5" y="-63" font-family="Helvetica,sans-Serif" font-size="10.00">draw_use_modifiers()</text>
<text text-anchor="start" x="57" y="-48" font-family="Helvetica,sans-Serif" font-size="10.00">+</text>
<text text-anchor="start" x="71.5" y="-48" font-family="Helvetica,sans-Serif" font-size="10.00">draw_hide_all_others()</text>
<text text-anchor="start" x="57" y="-33" font-family="Helvetica,sans-Serif" font-size="10.00">+</text>
<text text-anchor="start" x="71.5" y="-33" font-family="Helvetica,sans-Serif" font-size="10.00">draw_parent_path_to</text>
<text text-anchor="start" x="71.5" y="-22" font-family="Helvetica,sans-Serif" font-size="10.00">_object()</text>
<text text-anchor="start" x="57" y="-7" font-family="Helvetica,sans-Serif" font-size="10.00">+</text>
<text text-anchor="start" x="71.5" y="-7" font-family="Helvetica,sans-Serif" font-size="10.00">draw()</text>
<polygon fill="#666666" stroke="#666666" points="51.5,-238 51.5,-238 200.5,-238 200.5,-238 51.5,-238"/>
<polygon fill="#666666" stroke="#666666" points="51.5,-148 51.5,-148 69.5,-148 69.5,-148 51.5,-148"/>
<polygon fill="#666666" stroke="#666666" points="69.5,-148 69.5,-148 200.5,-148 200.5,-148 69.5,-148"/>
<polygon fill="none" stroke="#666666" points="51,0 51,-266 200,-266 200,0 51,0"/>
</a>
</g>
</g>
<!-- Node2 -->
<g id="Node000002" class="node">
<title>Node2</title>
<g id="a_Node000002"><a xlink:href="$classcam_1_1ui__panels_1_1buttons__panel_1_1CAMButtonsPanel.html" xlink:title=" ">
<polygon fill="white" stroke="transparent" points="143,-542 0,-542 0,-302 143,-302 143,-542"/>
<text text-anchor="start" x="11" y="-530" font-family="Helvetica,sans-Serif" font-size="10.00">cam.ui_panels.buttons</text>
<text text-anchor="start" x="11" y="-519" font-family="Helvetica,sans-Serif" font-size="10.00">_panel.CAMButtonsPanel</text>
<text text-anchor="start" x="4.5" y="-504" font-family="Helvetica,sans-Serif" font-size="10.00">+</text>
<text text-anchor="start" x="17.5" y="-504" font-family="Helvetica,sans-Serif" font-size="10.00">op</text>
<text text-anchor="start" x="4.5" y="-489" font-family="Helvetica,sans-Serif" font-size="10.00">+</text>
<text text-anchor="start" x="17.5" y="-489" font-family="Helvetica,sans-Serif" font-size="10.00">use_experimental</text>
<text text-anchor="start" x="4.5" y="-474" font-family="Helvetica,sans-Serif" font-size="10.00">+</text>
<text text-anchor="start" x="17.5" y="-474" font-family="Helvetica,sans-Serif" font-size="10.00">bl_space_type</text>
<text text-anchor="start" x="4.5" y="-459" font-family="Helvetica,sans-Serif" font-size="10.00">+</text>
<text text-anchor="start" x="17.5" y="-459" font-family="Helvetica,sans-Serif" font-size="10.00">bl_region_type</text>
<text text-anchor="start" x="4.5" y="-444" font-family="Helvetica,sans-Serif" font-size="10.00">+</text>
<text text-anchor="start" x="17.5" y="-444" font-family="Helvetica,sans-Serif" font-size="10.00">bl_context</text>
<text text-anchor="start" x="4.5" y="-429" font-family="Helvetica,sans-Serif" font-size="10.00">+</text>
<text text-anchor="start" x="17.5" y="-429" font-family="Helvetica,sans-Serif" font-size="10.00">always_show_panel</text>
<text text-anchor="start" x="4.5" y="-414" font-family="Helvetica,sans-Serif" font-size="10.00">+</text>
<text text-anchor="start" x="17.5" y="-414" font-family="Helvetica,sans-Serif" font-size="10.00">COMPAT_ENGINES</text>
<text text-anchor="start" x="4.5" y="-399" font-family="Helvetica,sans-Serif" font-size="10.00">+</text>
<text text-anchor="start" x="17.5" y="-399" font-family="Helvetica,sans-Serif" font-size="10.00">poll()</text>
<text text-anchor="start" x="4.5" y="-384" font-family="Helvetica,sans-Serif" font-size="10.00">+</text>
<text text-anchor="start" x="17.5" y="-384" font-family="Helvetica,sans-Serif" font-size="10.00">active_operation_index()</text>
<text text-anchor="start" x="4.5" y="-369" font-family="Helvetica,sans-Serif" font-size="10.00">+</text>
<text text-anchor="start" x="17.5" y="-369" font-family="Helvetica,sans-Serif" font-size="10.00">active_operation()</text>
<text text-anchor="start" x="4.5" y="-354" font-family="Helvetica,sans-Serif" font-size="10.00">+</text>
<text text-anchor="start" x="17.5" y="-354" font-family="Helvetica,sans-Serif" font-size="10.00">__init__()</text>
<text text-anchor="start" x="4.5" y="-339" font-family="Helvetica,sans-Serif" font-size="10.00">+</text>
<text text-anchor="start" x="17.5" y="-339" font-family="Helvetica,sans-Serif" font-size="10.00">operations_count()</text>
<text text-anchor="start" x="4.5" y="-324" font-family="Helvetica,sans-Serif" font-size="10.00">+</text>
<text text-anchor="start" x="17.5" y="-324" font-family="Helvetica,sans-Serif" font-size="10.00">has_operations()</text>
<text text-anchor="start" x="4.5" y="-309" font-family="Helvetica,sans-Serif" font-size="10.00">+</text>
<text text-anchor="start" x="17.5" y="-309" font-family="Helvetica,sans-Serif" font-size="10.00">has_correct_level()</text>
<polygon fill="#666666" stroke="#666666" points="0.5,-514 0.5,-514 143.5,-514 143.5,-514 0.5,-514"/>
<polygon fill="#666666" stroke="#666666" points="0.5,-409 0.5,-409 15.5,-409 15.5,-409 0.5,-409"/>
<polygon fill="#666666" stroke="#666666" points="15.5,-409 15.5,-409 143.5,-409 143.5,-409 15.5,-409"/>
<polygon fill="none" stroke="#666666" points="0,-302 0,-542 143,-542 143,-302 0,-302"/>
</a>
</g>
</g>
<!-- Node2&#45;&gt;Node1 -->
<g id="edge3_Node000001_Node000002" class="edge">
<title>Node2&#45;&gt;Node1</title>
<g id="a_edge3_Node000001_Node000002"><a xlink:title=" ">
<path fill="none" stroke="#63b8ff" d="M95.8,-291.86C97.39,-283.37 99,-274.82 100.6,-266.32"/>
<polygon fill="none" stroke="#63b8ff" points="92.34,-291.3 93.93,-301.78 99.22,-292.6 92.34,-291.3"/>
</a>
</g>
</g>
<!-- Node3 -->
<g id="Node000003" class="node">
<title>Node3</title>
<g id="a_Node000003"><a xlink:title=" ">
<polygon fill="white" stroke="transparent" points="198,-446.5 161,-446.5 161,-397.5 198,-397.5 198,-446.5"/>
<text text-anchor="start" x="166.5" y="-434" font-family="Helvetica,sans-Serif" font-size="10.00">Panel</text>
<text text-anchor="start" x="178" y="-419" font-family="Helvetica,sans-Serif" font-size="10.00"> </text>
<text text-anchor="start" x="178" y="-404" font-family="Helvetica,sans-Serif" font-size="10.00"> </text>
<polygon fill="#666666" stroke="#666666" points="161.5,-429 161.5,-429 198.5,-429 198.5,-429 161.5,-429"/>
<polygon fill="#666666" stroke="#666666" points="161.5,-414 161.5,-414 198.5,-414 198.5,-414 161.5,-414"/>
<polygon fill="none" stroke="#666666" points="161,-397.5 161,-446.5 198,-446.5 198,-397.5 161,-397.5"/>
</a>
</g>
</g>
<!-- Node3&#45;&gt;Node1 -->
<g id="edge4_Node000001_Node000003" class="edge">
<title>Node3&#45;&gt;Node1</title>
<g id="a_edge4_Node000001_Node000003"><a xlink:title=" ">
<path fill="none" stroke="#63b8ff" d="M173.11,-387.05C167.44,-356.9 158.77,-310.83 150.38,-266.22"/>
<polygon fill="none" stroke="#63b8ff" points="169.7,-387.84 174.99,-397.02 176.58,-386.55 169.7,-387.84"/>
</a>
</g>
</g>
</g>
</svg>
