<?xml version="1.0" encoding="UTF-8" standalone="no"?>
<!DOCTYPE svg PUBLIC "-//W3C//DTD SVG 1.1//EN"
 "http://www.w3.org/Graphics/SVG/1.1/DTD/svg11.dtd">
<!-- Generated by graphviz version 2.43.0 (0)
 -->
<!-- Title: cam.voronoi.EdgeList Pages: 1 -->
<svg width="124pt" height="277pt"
 viewBox="0.00 0.00 124.00 277.00" xmlns="http://www.w3.org/2000/svg" xmlns:xlink="http://www.w3.org/1999/xlink">
<g id="graph0" class="graph" transform="scale(1 1) rotate(0) translate(4 273)">
<title>cam.voronoi.EdgeList</title>
<!-- Node1 -->
<g id="Node000001" class="node">
<title>Node1</title>
<g id="a_Node000001"><a xlink:title=" ">
<polygon fill="#999999" stroke="transparent" points="116,-184 0,-184 0,0 116,0 116,-184"/>
<text text-anchor="start" x="5" y="-172" font-family="Helvetica,sans-Serif" font-size="10.00">cam.voronoi.EdgeList</text>
<text text-anchor="start" x="16" y="-157" font-family="Helvetica,sans-Serif" font-size="10.00">+</text>
<text text-anchor="start" x="41" y="-157" font-family="Helvetica,sans-Serif" font-size="10.00">hashsize</text>
<text text-anchor="start" x="16" y="-142" font-family="Helvetica,sans-Serif" font-size="10.00">+</text>
<text text-anchor="start" x="41" y="-142" font-family="Helvetica,sans-Serif" font-size="10.00">xmin</text>
<text text-anchor="start" x="16" y="-127" font-family="Helvetica,sans-Serif" font-size="10.00">+</text>
<text text-anchor="start" x="41" y="-127" font-family="Helvetica,sans-Serif" font-size="10.00">deltax</text>
<text text-anchor="start" x="16" y="-112" font-family="Helvetica,sans-Serif" font-size="10.00">+</text>
<text text-anchor="start" x="41" y="-112" font-family="Helvetica,sans-Serif" font-size="10.00">hash</text>
<text text-anchor="start" x="16" y="-97" font-family="Helvetica,sans-Serif" font-size="10.00">+</text>
<text text-anchor="start" x="41" y="-97" font-family="Helvetica,sans-Serif" font-size="10.00">leftend</text>
<text text-anchor="start" x="16" y="-82" font-family="Helvetica,sans-Serif" font-size="10.00">+</text>
<text text-anchor="start" x="41" y="-82" font-family="Helvetica,sans-Serif" font-size="10.00">rightend</text>
<text text-anchor="start" x="16" y="-67" font-family="Helvetica,sans-Serif" font-size="10.00">+</text>
<text text-anchor="start" x="41" y="-67" font-family="Helvetica,sans-Serif" font-size="10.00">__init__()</text>
<text text-anchor="start" x="16" y="-52" font-family="Helvetica,sans-Serif" font-size="10.00">+</text>
<text text-anchor="start" x="41" y="-52" font-family="Helvetica,sans-Serif" font-size="10.00">insert()</text>
<text text-anchor="start" x="16" y="-37" font-family="Helvetica,sans-Serif" font-size="10.00">+</text>
<text text-anchor="start" x="41" y="-37" font-family="Helvetica,sans-Serif" font-size="10.00">delete()</text>
<text text-anchor="start" x="16" y="-22" font-family="Helvetica,sans-Serif" font-size="10.00">+</text>
<text text-anchor="start" x="41" y="-22" font-family="Helvetica,sans-Serif" font-size="10.00">gethash()</text>
<text text-anchor="start" x="16" y="-7" font-family="Helvetica,sans-Serif" font-size="10.00">+</text>
<text text-anchor="start" x="41" y="-7" font-family="Helvetica,sans-Serif" font-size="10.00">leftbnd()</text>
<polygon fill="#666666" stroke="#666666" points="0,-167 0,-167 116,-167 116,-167 0,-167"/>
<polygon fill="#666666" stroke="#666666" points="0,-77 0,-77 39,-77 39,-77 0,-77"/>
<polygon fill="#666666" stroke="#666666" points="39,-77 39,-77 116,-77 116,-77 39,-77"/>
<polygon fill="none" stroke="#666666" points="0,0 0,-184 116,-184 116,0 0,0"/>
</a>
</g>
</g>
<!-- Node2 -->
<g id="Node000002" class="node">
<title>Node2</title>
<g id="a_Node000002"><a xlink:href="$classobject.html" xlink:title=" ">
<polygon fill="white" stroke="transparent" points="78.5,-269 37.5,-269 37.5,-220 78.5,-220 78.5,-269"/>
<text text-anchor="start" x="43" y="-256.5" font-family="Helvetica,sans-Serif" font-size="10.00">object</text>
<text text-anchor="start" x="56.5" y="-241.5" font-family="Helvetica,sans-Serif" font-size="10.00"> </text>
<text text-anchor="start" x="56.5" y="-226.5" font-family="Helvetica,sans-Serif" font-size="10.00"> </text>
<polygon fill="#666666" stroke="#666666" points="38,-251.5 38,-251.5 79,-251.5 79,-251.5 38,-251.5"/>
<polygon fill="#666666" stroke="#666666" points="38,-236.5 38,-236.5 79,-236.5 79,-236.5 38,-236.5"/>
<polygon fill="none" stroke="#666666" points="37.5,-220 37.5,-269 78.5,-269 78.5,-220 37.5,-220"/>
</a>
</g>
</g>
<!-- Node2&#45;&gt;Node1 -->
<g id="edge2_Node000001_Node000002" class="edge">
<title>Node2&#45;&gt;Node1</title>
<g id="a_edge2_Node000001_Node000002"><a xlink:title=" ">
<path fill="none" stroke="#63b8ff" d="M58,-209.88C58,-202.03 58,-193.29 58,-184.23"/>
<polygon fill="none" stroke="#63b8ff" points="54.5,-209.98 58,-219.98 61.5,-209.98 54.5,-209.98"/>
</a>
</g>
</g>
</g>
</svg>
