<?xml version="1.0" encoding="UTF-8" standalone="no"?>
<!DOCTYPE svg PUBLIC "-//W3C//DTD SVG 1.1//EN"
 "http://www.w3.org/Graphics/SVG/1.1/DTD/svg11.dtd">
<!-- Generated by graphviz version 2.43.0 (0)
 -->
<!-- Title: cam.gcodeimportparser.GcodeModel.do_G1 Pages: 1 -->
<svg width="376pt" height="152pt"
 viewBox="0.00 0.00 376.00 152.00" xmlns="http://www.w3.org/2000/svg" xmlns:xlink="http://www.w3.org/1999/xlink">
<g id="graph0" class="graph" transform="scale(1 1) rotate(0) translate(4 148)">
<title>cam.gcodeimportparser.GcodeModel.do_G1</title>
<!-- Node1 -->
<g id="Node000001" class="node">
<title>Node1</title>
<g id="a_Node000001"><a xlink:title=" ">
<polygon fill="#999999" stroke="#666666" points="166,-96 0,-96 0,-66 166,-66 166,-96"/>
<text text-anchor="start" x="8" y="-84" font-family="Helvetica,sans-Serif" font-size="10.00">cam.gcodeimportparser.Gcode</text>
<text text-anchor="middle" x="83" y="-73" font-family="Helvetica,sans-Serif" font-size="10.00">Model.do_G1</text>
</a>
</g>
</g>
<!-- Node2 -->
<g id="Node000002" class="node">
<title>Node2</title>
<g id="a_Node000002"><a xlink:href="$classcam_1_1gcodeimportparser_1_1GcodeModel.html#a15abc664be18cdcb366911614accb8d1" xlink:title=" ">
<polygon fill="white" stroke="#666666" points="368,-144 202,-144 202,-114 368,-114 368,-144"/>
<text text-anchor="start" x="210" y="-132" font-family="Helvetica,sans-Serif" font-size="10.00">cam.gcodeimportparser.Gcode</text>
<text text-anchor="middle" x="285" y="-121" font-family="Helvetica,sans-Serif" font-size="10.00">Model.addSegment</text>
</a>
</g>
</g>
<!-- Node1&#45;&gt;Node2 -->
<g id="edge5_Node000001_Node000002" class="edge">
<title>Node1&#45;&gt;Node2</title>
<g id="a_edge5_Node000001_Node000002"><a xlink:title=" ">
<path fill="none" stroke="#63b8ff" d="M146.73,-96.06C167.3,-100.99 190.33,-106.52 211.56,-111.61"/>
<polygon fill="#63b8ff" stroke="#63b8ff" points="210.95,-115.07 221.49,-114 212.58,-108.26 210.95,-115.07"/>
</a>
</g>
</g>
<!-- Node3 -->
<g id="Node000003" class="node">
<title>Node3</title>
<g id="a_Node000003"><a xlink:href="$classcam_1_1gcodeimportparser_1_1GcodeParser.html#ad1fcff07178ae82267e8f431946ae94c" xlink:title=" ">
<polygon fill="white" stroke="#666666" points="368,-96 202,-96 202,-66 368,-66 368,-96"/>
<text text-anchor="start" x="210" y="-84" font-family="Helvetica,sans-Serif" font-size="10.00">cam.gcodeimportparser.Gcode</text>
<text text-anchor="middle" x="285" y="-73" font-family="Helvetica,sans-Serif" font-size="10.00">Parser.warn</text>
</a>
</g>
</g>
<!-- Node1&#45;&gt;Node3 -->
<g id="edge6_Node000001_Node000003" class="edge">
<title>Node1&#45;&gt;Node3</title>
<g id="a_edge6_Node000001_Node000003"><a xlink:title=" ">
<path fill="none" stroke="#63b8ff" d="M166.21,-81C174.56,-81 183.08,-81 191.53,-81"/>
<polygon fill="#63b8ff" stroke="#63b8ff" points="191.78,-84.5 201.78,-81 191.78,-77.5 191.78,-84.5"/>
</a>
</g>
</g>
<!-- Node4 -->
<g id="Node000004" class="node">
<title>Node4</title>
<g id="a_Node000004"><a xlink:href="$classcam_1_1gcodeimportparser_1_1GcodeModel.html#a72f71d9d0c016e8b19b325c951f1aef2" xlink:title=" ">
<polygon fill="white" stroke="#666666" points="368,-30 202,-30 202,0 368,0 368,-30"/>
<text text-anchor="start" x="210" y="-18" font-family="Helvetica,sans-Serif" font-size="10.00">cam.gcodeimportparser.Gcode</text>
<text text-anchor="middle" x="285" y="-7" font-family="Helvetica,sans-Serif" font-size="10.00">Model.warn</text>
</a>
</g>
</g>
<!-- Node1&#45;&gt;Node4 -->
<g id="edge7_Node000001_Node000004" class="edge">
<title>Node1&#45;&gt;Node4</title>
<g id="a_edge7_Node000001_Node000004"><a xlink:title=" ">
<path fill="none" stroke="#63b8ff" d="M129.63,-65.94C158.97,-56.26 197.28,-43.62 228.39,-33.35"/>
<polygon fill="#63b8ff" stroke="#63b8ff" points="229.82,-36.57 238.22,-30.11 227.62,-29.92 229.82,-36.57"/>
</a>
</g>
</g>
<!-- Node4&#45;&gt;Node4 -->
<g id="edge8_Node000004_Node000004" class="edge">
<title>Node4&#45;&gt;Node4</title>
<g id="a_edge8_Node000004_Node000004"><a xlink:title=" ">
<path fill="none" stroke="#63b8ff" d="M249.49,-30.28C241.6,-39.41 253.44,-48 285,-48 303.74,-48 315.53,-44.97 320.36,-40.6"/>
<polygon fill="#63b8ff" stroke="#63b8ff" points="323.86,-40.33 320.51,-30.28 316.86,-40.22 323.86,-40.33"/>
</a>
</g>
</g>
</g>
</svg>
