<?xml version="1.0" encoding="UTF-8" standalone="no"?>
<!DOCTYPE svg PUBLIC "-//W3C//DTD SVG 1.1//EN"
 "http://www.w3.org/Graphics/SVG/1.1/DTD/svg11.dtd">
<!-- Generated by graphviz version 2.43.0 (0)
 -->
<!-- Title: cam.ops.CamBridgesAdd Pages: 1 -->
<svg width="141pt" height="187pt"
 viewBox="0.00 0.00 141.00 187.00" xmlns="http://www.w3.org/2000/svg" xmlns:xlink="http://www.w3.org/1999/xlink">
<g id="graph0" class="graph" transform="scale(1 1) rotate(0) translate(4 183)">
<title>cam.ops.CamBridgesAdd</title>
<!-- Node1 -->
<g id="Node000001" class="node">
<title>Node1</title>
<g id="a_Node000001"><a xlink:title=" ">
<polygon fill="#999999" stroke="transparent" points="133,-94 0,-94 0,0 133,0 133,-94"/>
<text text-anchor="start" x="5.5" y="-82" font-family="Helvetica,sans-Serif" font-size="10.00">cam.ops.CamBridgesAdd</text>
<text text-anchor="start" x="19.5" y="-67" font-family="Helvetica,sans-Serif" font-size="10.00">+</text>
<text text-anchor="start" x="47.5" y="-67" font-family="Helvetica,sans-Serif" font-size="10.00">bl_idname</text>
<text text-anchor="start" x="19.5" y="-52" font-family="Helvetica,sans-Serif" font-size="10.00">+</text>
<text text-anchor="start" x="47.5" y="-52" font-family="Helvetica,sans-Serif" font-size="10.00">bl_label</text>
<text text-anchor="start" x="19.5" y="-37" font-family="Helvetica,sans-Serif" font-size="10.00">+</text>
<text text-anchor="start" x="47.5" y="-37" font-family="Helvetica,sans-Serif" font-size="10.00">bl_options</text>
<text text-anchor="start" x="19.5" y="-22" font-family="Helvetica,sans-Serif" font-size="10.00">+</text>
<text text-anchor="start" x="47.5" y="-22" font-family="Helvetica,sans-Serif" font-size="10.00">poll()</text>
<text text-anchor="start" x="19.5" y="-7" font-family="Helvetica,sans-Serif" font-size="10.00">+</text>
<text text-anchor="start" x="47.5" y="-7" font-family="Helvetica,sans-Serif" font-size="10.00">execute()</text>
<polygon fill="#666666" stroke="#666666" points="0.5,-77 0.5,-77 133.5,-77 133.5,-77 0.5,-77"/>
<polygon fill="#666666" stroke="#666666" points="0.5,-32 0.5,-32 45.5,-32 45.5,-32 0.5,-32"/>
<polygon fill="#666666" stroke="#666666" points="45.5,-32 45.5,-32 133.5,-32 133.5,-32 45.5,-32"/>
<polygon fill="none" stroke="#666666" points="0,0 0,-94 133,-94 133,0 0,0"/>
</a>
</g>
</g>
<!-- Node2 -->
<g id="Node000002" class="node">
<title>Node2</title>
<g id="a_Node000002"><a xlink:title=" ">
<polygon fill="white" stroke="transparent" points="93,-179 40,-179 40,-130 93,-130 93,-179"/>
<text text-anchor="start" x="45.5" y="-166.5" font-family="Helvetica,sans-Serif" font-size="10.00">Operator</text>
<text text-anchor="start" x="65" y="-151.5" font-family="Helvetica,sans-Serif" font-size="10.00"> </text>
<text text-anchor="start" x="65" y="-136.5" font-family="Helvetica,sans-Serif" font-size="10.00"> </text>
<polygon fill="#666666" stroke="#666666" points="40.5,-161.5 40.5,-161.5 93.5,-161.5 93.5,-161.5 40.5,-161.5"/>
<polygon fill="#666666" stroke="#666666" points="40.5,-146.5 40.5,-146.5 93.5,-146.5 93.5,-146.5 40.5,-146.5"/>
<polygon fill="none" stroke="#666666" points="40,-130 40,-179 93,-179 93,-130 40,-130"/>
</a>
</g>
</g>
<!-- Node2&#45;&gt;Node1 -->
<g id="edge2_Node000001_Node000002" class="edge">
<title>Node2&#45;&gt;Node1</title>
<g id="a_edge2_Node000001_Node000002"><a xlink:title=" ">
<path fill="none" stroke="#63b8ff" d="M66.5,-119.61C66.5,-111.48 66.5,-102.66 66.5,-94.08"/>
<polygon fill="none" stroke="#63b8ff" points="63,-119.82 66.5,-129.82 70,-119.82 63,-119.82"/>
</a>
</g>
</g>
</g>
</svg>
