<?xml version="1.0" encoding="UTF-8" standalone="no"?>
<!DOCTYPE svg PUBLIC "-//W3C//DTD SVG 1.1//EN"
 "http://www.w3.org/Graphics/SVG/1.1/DTD/svg11.dtd">
<!-- Generated by graphviz version 2.43.0 (0)
 -->
<!-- Title: cam.nc.iso.Creator.COOLANT_MIST Pages: 1 -->
<svg width="397pt" height="64pt"
 viewBox="0.00 0.00 397.00 64.00" xmlns="http://www.w3.org/2000/svg" xmlns:xlink="http://www.w3.org/1999/xlink">
<g id="graph0" class="graph" transform="scale(1 1) rotate(0) translate(4 60)">
<title>cam.nc.iso.Creator.COOLANT_MIST</title>
<!-- Node1 -->
<g id="Node000001" class="node">
<title>Node1</title>
<g id="a_Node000001"><a xlink:title=" ">
<polygon fill="#999999" stroke="#666666" points="389,-37 201,-37 201,-18 389,-18 389,-37"/>
<text text-anchor="middle" x="295" y="-25" font-family="Helvetica,sans-Serif" font-size="10.00">cam.nc.iso.Creator.COOLANT_MIST</text>
</a>
</g>
</g>
<!-- Node2 -->
<g id="Node000002" class="node">
<title>Node2</title>
<g id="a_Node000002"><a xlink:href="$classcam_1_1nc_1_1heiden_1_1Creator.html#a7036356988aeecbeca61cf3dfc398e22" xlink:title=" ">
<polygon fill="white" stroke="#666666" points="165,-56 0,-56 0,-37 165,-37 165,-56"/>
<text text-anchor="middle" x="82.5" y="-44" font-family="Helvetica,sans-Serif" font-size="10.00">cam.nc.heiden.Creator.coolant</text>
</a>
</g>
</g>
<!-- Node1&#45;&gt;Node2 -->
<g id="edge3_Node000001_Node000002" class="edge">
<title>Node1&#45;&gt;Node2</title>
<g id="a_edge3_Node000001_Node000002"><a xlink:title=" ">
<path fill="none" stroke="#63b8ff" d="M190.7,-36.82C182.11,-37.6 173.51,-38.38 165.12,-39.13"/>
<polygon fill="#63b8ff" stroke="#63b8ff" points="191.11,-40.3 200.75,-35.92 190.48,-33.33 191.11,-40.3"/>
</a>
</g>
</g>
<!-- Node3 -->
<g id="Node000003" class="node">
<title>Node3</title>
<g id="a_Node000003"><a xlink:href="$classcam_1_1nc_1_1iso_1_1Creator.html#a3e23cee17ea4e06b916e1472c938fad6" xlink:title=" ">
<polygon fill="white" stroke="#666666" points="155.5,-19 9.5,-19 9.5,0 155.5,0 155.5,-19"/>
<text text-anchor="middle" x="82.5" y="-7" font-family="Helvetica,sans-Serif" font-size="10.00">cam.nc.iso.Creator.coolant</text>
</a>
</g>
</g>
<!-- Node1&#45;&gt;Node3 -->
<g id="edge4_Node000001_Node000003" class="edge">
<title>Node1&#45;&gt;Node3</title>
<g id="a_edge4_Node000001_Node000003"><a xlink:title=" ">
<path fill="none" stroke="#63b8ff" d="M190.48,-18.65C178.76,-17.65 167.01,-16.64 155.81,-15.68"/>
<polygon fill="#63b8ff" stroke="#63b8ff" points="190.49,-22.16 200.75,-19.53 191.09,-15.19 190.49,-22.16"/>
</a>
</g>
</g>
</g>
</svg>
