<?xml version="1.0" encoding="UTF-8" standalone="no"?>
<!DOCTYPE svg PUBLIC "-//W3C//DTD SVG 1.1//EN"
 "http://www.w3.org/Graphics/SVG/1.1/DTD/svg11.dtd">
<!-- Generated by graphviz version 2.43.0 (0)
 -->
<!-- Title: cam.nc.makerbot_codes.Codes.GEAR Pages: 1 -->
<svg width="421pt" height="64pt"
 viewBox="0.00 0.00 421.00 64.00" xmlns="http://www.w3.org/2000/svg" xmlns:xlink="http://www.w3.org/1999/xlink">
<g id="graph0" class="graph" transform="scale(1 1) rotate(0) translate(4 60)">
<title>cam.nc.makerbot_codes.Codes.GEAR</title>
<!-- Node1 -->
<g id="Node000001" class="node">
<title>Node1</title>
<g id="a_Node000001"><a xlink:title=" ">
<polygon fill="#999999" stroke="#666666" points="413,-37 215,-37 215,-18 413,-18 413,-37"/>
<text text-anchor="middle" x="314" y="-25" font-family="Helvetica,sans-Serif" font-size="10.00">cam.nc.makerbot_codes.Codes.GEAR</text>
</a>
</g>
</g>
<!-- Node2 -->
<g id="Node000002" class="node">
<title>Node2</title>
<g id="a_Node000002"><a xlink:href="$classcam_1_1nc_1_1heiden_1_1Creator.html#adf50104e1d227a762a29624244061b16" xlink:title=" ">
<polygon fill="white" stroke="#666666" points="179,-56 0,-56 0,-37 179,-37 179,-56"/>
<text text-anchor="middle" x="89.5" y="-44" font-family="Helvetica,sans-Serif" font-size="10.00">cam.nc.heiden.Creator.gearrange</text>
</a>
</g>
</g>
<!-- Node1&#45;&gt;Node2 -->
<g id="edge3_Node000001_Node000002" class="edge">
<title>Node1&#45;&gt;Node2</title>
<g id="a_edge3_Node000001_Node000002"><a xlink:title=" ">
<path fill="none" stroke="#63b8ff" d="M204.71,-36.75C196.12,-37.48 187.51,-38.22 179.09,-38.94"/>
<polygon fill="#63b8ff" stroke="#63b8ff" points="205.09,-40.23 214.76,-35.89 204.5,-33.25 205.09,-40.23"/>
</a>
</g>
</g>
<!-- Node3 -->
<g id="Node000003" class="node">
<title>Node3</title>
<g id="a_Node000003"><a xlink:href="$classcam_1_1nc_1_1iso_1_1Creator.html#ae9be52dffec064b2051414859e10eaf3" xlink:title=" ">
<polygon fill="white" stroke="#666666" points="169.5,-19 9.5,-19 9.5,0 169.5,0 169.5,-19"/>
<text text-anchor="middle" x="89.5" y="-7" font-family="Helvetica,sans-Serif" font-size="10.00">cam.nc.iso.Creator.gearrange</text>
</a>
</g>
</g>
<!-- Node1&#45;&gt;Node3 -->
<g id="edge4_Node000001_Node000003" class="edge">
<title>Node1&#45;&gt;Node3</title>
<g id="a_edge4_Node000001_Node000003"><a xlink:title=" ">
<path fill="none" stroke="#63b8ff" d="M204.44,-18.72C192.66,-17.76 180.85,-16.81 169.52,-15.89"/>
<polygon fill="#63b8ff" stroke="#63b8ff" points="204.51,-22.23 214.76,-19.55 205.08,-15.26 204.51,-22.23"/>
</a>
</g>
</g>
</g>
</svg>
