<?xml version="1.0" encoding="UTF-8" standalone="no"?>
<!DOCTYPE svg PUBLIC "-//W3C//DTD SVG 1.1//EN"
 "http://www.w3.org/Graphics/SVG/1.1/DTD/svg11.dtd">
<!-- Generated by graphviz version 2.43.0 (0)
 -->
<!-- Title: cam.ui_panels.operations.CAM_OPERATIONS_Panel Pages: 1 -->
<svg width="671pt" height="533pt"
 viewBox="0.00 0.00 670.50 533.00" xmlns="http://www.w3.org/2000/svg" xmlns:xlink="http://www.w3.org/1999/xlink">
<g id="graph0" class="graph" transform="scale(1 1) rotate(0) translate(4 529)">
<title>cam.ui_panels.operations.CAM_OPERATIONS_Panel</title>
<!-- Node1 -->
<g id="Node000001" class="node">
<title>Node1</title>
<g id="a_Node000001"><a xlink:title=" ">
<polygon fill="#999999" stroke="transparent" points="474.5,-195 332.5,-195 332.5,0 474.5,0 474.5,-195"/>
<text text-anchor="start" x="339" y="-182.5" font-family="Helvetica,sans-Serif" font-size="10.00">cam.ui_panels.operations.</text>
<text text-anchor="start" x="342.5" y="-171.5" font-family="Helvetica,sans-Serif" font-size="10.00">CAM_OPERATIONS_Panel</text>
<text text-anchor="start" x="336.5" y="-156.5" font-family="Helvetica,sans-Serif" font-size="10.00">+</text>
<text text-anchor="start" x="349.5" y="-156.5" font-family="Helvetica,sans-Serif" font-size="10.00">op</text>
<text text-anchor="start" x="336.5" y="-141.5" font-family="Helvetica,sans-Serif" font-size="10.00">+</text>
<text text-anchor="start" x="349.5" y="-141.5" font-family="Helvetica,sans-Serif" font-size="10.00">context</text>
<text text-anchor="start" x="336.5" y="-126.5" font-family="Helvetica,sans-Serif" font-size="10.00">+</text>
<text text-anchor="start" x="349.5" y="-126.5" font-family="Helvetica,sans-Serif" font-size="10.00">draw_operations_list()</text>
<text text-anchor="start" x="336.5" y="-111.5" font-family="Helvetica,sans-Serif" font-size="10.00">+</text>
<text text-anchor="start" x="349.5" y="-111.5" font-family="Helvetica,sans-Serif" font-size="10.00">draw_presets()</text>
<text text-anchor="start" x="336.5" y="-96.5" font-family="Helvetica,sans-Serif" font-size="10.00">+</text>
<text text-anchor="start" x="349.5" y="-96.5" font-family="Helvetica,sans-Serif" font-size="10.00">draw_calculate_path()</text>
<text text-anchor="start" x="336.5" y="-81.5" font-family="Helvetica,sans-Serif" font-size="10.00">+</text>
<text text-anchor="start" x="349.5" y="-81.5" font-family="Helvetica,sans-Serif" font-size="10.00">draw_export_gcode()</text>
<text text-anchor="start" x="336.5" y="-66.5" font-family="Helvetica,sans-Serif" font-size="10.00">+</text>
<text text-anchor="start" x="349.5" y="-66.5" font-family="Helvetica,sans-Serif" font-size="10.00">draw_simulate_op()</text>
<text text-anchor="start" x="336.5" y="-51.5" font-family="Helvetica,sans-Serif" font-size="10.00">+</text>
<text text-anchor="start" x="349.5" y="-51.5" font-family="Helvetica,sans-Serif" font-size="10.00">draw_op_name()</text>
<text text-anchor="start" x="336.5" y="-36.5" font-family="Helvetica,sans-Serif" font-size="10.00">+</text>
<text text-anchor="start" x="349.5" y="-36.5" font-family="Helvetica,sans-Serif" font-size="10.00">draw_op_filename()</text>
<text text-anchor="start" x="336.5" y="-21.5" font-family="Helvetica,sans-Serif" font-size="10.00">+</text>
<text text-anchor="start" x="349.5" y="-21.5" font-family="Helvetica,sans-Serif" font-size="10.00">draw_operation_source()</text>
<text text-anchor="start" x="336.5" y="-6.5" font-family="Helvetica,sans-Serif" font-size="10.00">+</text>
<text text-anchor="start" x="349.5" y="-6.5" font-family="Helvetica,sans-Serif" font-size="10.00">draw()</text>
<polygon fill="#666666" stroke="#666666" points="332.5,-166.5 332.5,-166.5 474.5,-166.5 474.5,-166.5 332.5,-166.5"/>
<polygon fill="#666666" stroke="#666666" points="332.5,-136.5 332.5,-136.5 347.5,-136.5 347.5,-136.5 332.5,-136.5"/>
<polygon fill="#666666" stroke="#666666" points="347.5,-136.5 347.5,-136.5 474.5,-136.5 474.5,-136.5 347.5,-136.5"/>
<polygon fill="none" stroke="#666666" points="332.5,0 332.5,-195 474.5,-195 474.5,0 332.5,0"/>
</a>
</g>
</g>
<!-- Node2 -->
<g id="Node000002" class="node">
<title>Node2</title>
<g id="a_Node000002"><a xlink:href="$classcam_1_1ui__panels_1_1buttons__panel_1_1CAMButtonsPanel.html" xlink:title=" ">
<polygon fill="white" stroke="transparent" points="394,-407 251,-407 251,-242 394,-242 394,-407"/>
<text text-anchor="start" x="262" y="-394.5" font-family="Helvetica,sans-Serif" font-size="10.00">cam.ui_panels.buttons</text>
<text text-anchor="start" x="262" y="-383.5" font-family="Helvetica,sans-Serif" font-size="10.00">_panel.CAMButtonsPanel</text>
<text text-anchor="start" x="255.5" y="-368.5" font-family="Helvetica,sans-Serif" font-size="10.00">+</text>
<text text-anchor="start" x="268.5" y="-368.5" font-family="Helvetica,sans-Serif" font-size="10.00">op</text>
<text text-anchor="start" x="255.5" y="-353.5" font-family="Helvetica,sans-Serif" font-size="10.00">+</text>
<text text-anchor="start" x="268.5" y="-353.5" font-family="Helvetica,sans-Serif" font-size="10.00">use_experimental</text>
<text text-anchor="start" x="255.5" y="-338.5" font-family="Helvetica,sans-Serif" font-size="10.00">+</text>
<text text-anchor="start" x="268.5" y="-338.5" font-family="Helvetica,sans-Serif" font-size="10.00">poll()</text>
<text text-anchor="start" x="255.5" y="-323.5" font-family="Helvetica,sans-Serif" font-size="10.00">+</text>
<text text-anchor="start" x="268.5" y="-323.5" font-family="Helvetica,sans-Serif" font-size="10.00">active_operation_index()</text>
<text text-anchor="start" x="255.5" y="-308.5" font-family="Helvetica,sans-Serif" font-size="10.00">+</text>
<text text-anchor="start" x="268.5" y="-308.5" font-family="Helvetica,sans-Serif" font-size="10.00">active_operation()</text>
<text text-anchor="start" x="255.5" y="-293.5" font-family="Helvetica,sans-Serif" font-size="10.00">+</text>
<text text-anchor="start" x="268.5" y="-293.5" font-family="Helvetica,sans-Serif" font-size="10.00">__init__()</text>
<text text-anchor="start" x="255.5" y="-278.5" font-family="Helvetica,sans-Serif" font-size="10.00">+</text>
<text text-anchor="start" x="268.5" y="-278.5" font-family="Helvetica,sans-Serif" font-size="10.00">operations_count()</text>
<text text-anchor="start" x="255.5" y="-263.5" font-family="Helvetica,sans-Serif" font-size="10.00">+</text>
<text text-anchor="start" x="268.5" y="-263.5" font-family="Helvetica,sans-Serif" font-size="10.00">has_operations()</text>
<text text-anchor="start" x="255.5" y="-248.5" font-family="Helvetica,sans-Serif" font-size="10.00">+</text>
<text text-anchor="start" x="268.5" y="-248.5" font-family="Helvetica,sans-Serif" font-size="10.00">has_correct_level()</text>
<polygon fill="#666666" stroke="#666666" points="251.5,-378.5 251.5,-378.5 394.5,-378.5 394.5,-378.5 251.5,-378.5"/>
<polygon fill="#666666" stroke="#666666" points="251.5,-348.5 251.5,-348.5 266.5,-348.5 266.5,-348.5 251.5,-348.5"/>
<polygon fill="#666666" stroke="#666666" points="266.5,-348.5 266.5,-348.5 394.5,-348.5 394.5,-348.5 266.5,-348.5"/>
<polygon fill="none" stroke="#666666" points="251,-242 251,-407 394,-407 394,-242 251,-242"/>
</a>
</g>
</g>
<!-- Node2&#45;&gt;Node1 -->
<g id="edge10_Node000001_Node000002" class="edge">
<title>Node2&#45;&gt;Node1</title>
<g id="a_edge10_Node000001_Node000002"><a xlink:title=" ">
<path fill="none" stroke="#63b8ff" d="M355.36,-232.22C359.76,-219.99 364.3,-207.4 368.73,-195.08"/>
<polygon fill="none" stroke="#63b8ff" points="351.95,-231.36 351.86,-241.95 358.54,-233.73 351.95,-231.36"/>
</a>
</g>
</g>
<!-- Node3 -->
<g id="Node000003" class="node">
<title>Node3</title>
<g id="a_Node000003"><a xlink:title=" ">
<polygon fill="white" stroke="transparent" points="23,-525 0,-525 0,-476 23,-476 23,-525"/>
<text text-anchor="start" x="5.5" y="-512.5" font-family="Helvetica,sans-Serif" font-size="10.00">str</text>
<text text-anchor="start" x="10" y="-497.5" font-family="Helvetica,sans-Serif" font-size="10.00"> </text>
<text text-anchor="start" x="10" y="-482.5" font-family="Helvetica,sans-Serif" font-size="10.00"> </text>
<polygon fill="#666666" stroke="#666666" points="0.5,-507.5 0.5,-507.5 23.5,-507.5 23.5,-507.5 0.5,-507.5"/>
<polygon fill="#666666" stroke="#666666" points="0.5,-492.5 0.5,-492.5 23.5,-492.5 23.5,-492.5 0.5,-492.5"/>
<polygon fill="none" stroke="#666666" points="0,-476 0,-525 23,-525 23,-476 0,-476"/>
</a>
</g>
</g>
<!-- Node3&#45;&gt;Node1 -->
<g id="edge15_Node000001_Node000003" class="edge">
<title>Node3&#45;&gt;Node1</title>
<g id="a_edge15_Node000001_Node000003"><a xlink:title=" ">
<path fill="none" stroke="#63b8ff" d="M7.06,-475.97C-0.8,-426.88 -11.61,-312.29 42.5,-242 109.17,-155.41 236.06,-120.95 320.24,-107.31"/>
<polygon fill="none" stroke="#63b8ff" points="320.47,-107.27 325.79,-102.41 332.33,-105.45 327.01,-110.31 320.47,-107.27"/>
</a>
</g>
<text text-anchor="middle" x="74" y="-327.5" font-family="Helvetica,sans-Serif" font-size="10.00" fill="grey"> +bl_idname</text>
<text text-anchor="middle" x="74" y="-316.5" font-family="Helvetica,sans-Serif" font-size="10.00" fill="grey">+bl_label</text>
</g>
<!-- Node3&#45;&gt;Node2 -->
<g id="edge11_Node000002_Node000003" class="edge">
<title>Node3&#45;&gt;Node2</title>
<g id="a_edge11_Node000002_Node000003"><a xlink:title=" ">
<path fill="none" stroke="#63b8ff" d="M23.17,-481.65C35.76,-464 57.55,-437.85 83.5,-425 144.86,-394.62 174.49,-436.03 236.5,-407 237.73,-406.42 238.96,-405.82 240.18,-405.19"/>
<polygon fill="none" stroke="#63b8ff" points="240.57,-404.97 243.78,-398.51 250.98,-398.99 247.77,-405.45 240.57,-404.97"/>
</a>
</g>
<text text-anchor="middle" x="124" y="-450" font-family="Helvetica,sans-Serif" font-size="10.00" fill="grey"> +bl_context</text>
<text text-anchor="middle" x="124" y="-439" font-family="Helvetica,sans-Serif" font-size="10.00" fill="grey">+bl_region_type</text>
<text text-anchor="middle" x="124" y="-428" font-family="Helvetica,sans-Serif" font-size="10.00" fill="grey">+bl_space_type</text>
</g>
<!-- Node4 -->
<g id="Node000004" class="node">
<title>Node4</title>
<g id="a_Node000004"><a xlink:title=" ">
<polygon fill="white" stroke="transparent" points="162.5,-525 130.5,-525 130.5,-476 162.5,-476 162.5,-525"/>
<text text-anchor="start" x="135.5" y="-512.5" font-family="Helvetica,sans-Serif" font-size="10.00">bool</text>
<text text-anchor="start" x="144.5" y="-497.5" font-family="Helvetica,sans-Serif" font-size="10.00"> </text>
<text text-anchor="start" x="144.5" y="-482.5" font-family="Helvetica,sans-Serif" font-size="10.00"> </text>
<polygon fill="#666666" stroke="#666666" points="130.5,-507.5 130.5,-507.5 162.5,-507.5 162.5,-507.5 130.5,-507.5"/>
<polygon fill="#666666" stroke="#666666" points="130.5,-492.5 130.5,-492.5 162.5,-492.5 162.5,-492.5 130.5,-492.5"/>
<polygon fill="none" stroke="#666666" points="130.5,-476 130.5,-525 162.5,-525 162.5,-476 130.5,-476"/>
</a>
</g>
</g>
<!-- Node4&#45;&gt;Node1 -->
<g id="edge16_Node000001_Node000004" class="edge">
<title>Node4&#45;&gt;Node1</title>
<g id="a_edge16_Node000001_Node000004"><a xlink:title=" ">
<path fill="none" stroke="#63b8ff" d="M136.96,-475.72C119.33,-427.62 87.36,-316.99 132.5,-242 173.02,-174.7 256.87,-137.3 320.64,-117.7"/>
<polygon fill="none" stroke="#63b8ff" points="320.79,-117.66 325.4,-112.12 332.29,-114.24 327.68,-119.79 320.79,-117.66"/>
</a>
</g>
<text text-anchor="middle" x="187" y="-322" font-family="Helvetica,sans-Serif" font-size="10.00" fill="grey"> +always_show_panel</text>
</g>
<!-- Node4&#45;&gt;Node2 -->
<g id="edge12_Node000002_Node000004" class="edge">
<title>Node4&#45;&gt;Node2</title>
<g id="a_edge12_Node000002_Node000004"><a xlink:title=" ">
<path fill="none" stroke="#63b8ff" d="M156.64,-475.99C164.63,-459.81 177.16,-438.83 193.5,-425 209.32,-411.62 219.14,-418.31 236.5,-407 238.01,-406.02 239.51,-405.01 241.01,-403.97"/>
<polygon fill="none" stroke="#63b8ff" points="241.15,-403.87 243.64,-397.11 250.84,-396.81 248.35,-403.57 241.15,-403.87"/>
</a>
</g>
<text text-anchor="middle" x="248" y="-439" font-family="Helvetica,sans-Serif" font-size="10.00" fill="grey"> +always_show_panel</text>
</g>
<!-- Node5 -->
<g id="Node000005" class="node">
<title>Node5</title>
<g id="a_Node000005"><a xlink:title=" ">
<polygon fill="white" stroke="transparent" points="387,-525 358,-525 358,-476 387,-476 387,-525"/>
<text text-anchor="start" x="363.5" y="-512.5" font-family="Helvetica,sans-Serif" font-size="10.00">dict</text>
<text text-anchor="start" x="371" y="-497.5" font-family="Helvetica,sans-Serif" font-size="10.00"> </text>
<text text-anchor="start" x="371" y="-482.5" font-family="Helvetica,sans-Serif" font-size="10.00"> </text>
<polygon fill="#666666" stroke="#666666" points="358.5,-507.5 358.5,-507.5 387.5,-507.5 387.5,-507.5 358.5,-507.5"/>
<polygon fill="#666666" stroke="#666666" points="358.5,-492.5 358.5,-492.5 387.5,-492.5 387.5,-492.5 358.5,-492.5"/>
<polygon fill="none" stroke="#666666" points="358,-476 358,-525 387,-525 387,-476 358,-476"/>
</a>
</g>
</g>
<!-- Node5&#45;&gt;Node1 -->
<g id="edge18_Node000001_Node000005" class="edge">
<title>Node5&#45;&gt;Node1</title>
<g id="a_edge18_Node000001_Node000005"><a xlink:title=" ">
<path fill="none" stroke="#63b8ff" d="M387.39,-490.29C397.7,-482.96 410.59,-471.69 416.5,-458 422.31,-444.53 416.79,-439.66 416.5,-425 415.06,-352.4 411.81,-270.78 408.92,-207.3"/>
<polygon fill="none" stroke="#63b8ff" points="408.91,-207.25 404.64,-201.44 408.36,-195.26 412.63,-201.07 408.91,-207.25"/>
</a>
</g>
<text text-anchor="middle" x="448" y="-322" font-family="Helvetica,sans-Serif" font-size="10.00" fill="grey"> +prop_level</text>
</g>
<!-- Node5&#45;&gt;Node2 -->
<g id="edge13_Node000002_Node000005" class="edge">
<title>Node5&#45;&gt;Node2</title>
<g id="a_edge13_Node000002_Node000005"><a xlink:title=" ">
<path fill="none" stroke="#63b8ff" d="M357.95,-493.61C344.18,-487.15 324.33,-475.35 315.5,-458 309.46,-446.13 306.51,-432.87 305.55,-419.44"/>
<polygon fill="none" stroke="#63b8ff" points="305.54,-419.1 301.37,-413.22 305.2,-407.11 309.37,-412.99 305.54,-419.1"/>
</a>
</g>
<text text-anchor="middle" x="366" y="-439" font-family="Helvetica,sans-Serif" font-size="10.00" fill="grey"> +COMPAT_ENGINES</text>
</g>
<!-- Node6 -->
<g id="Node000006" class="node">
<title>Node6</title>
<g id="a_Node000006"><a xlink:title=" ">
<polygon fill="white" stroke="transparent" points="549,-349 512,-349 512,-300 549,-300 549,-349"/>
<text text-anchor="start" x="517.5" y="-336.5" font-family="Helvetica,sans-Serif" font-size="10.00">Panel</text>
<text text-anchor="start" x="529" y="-321.5" font-family="Helvetica,sans-Serif" font-size="10.00"> </text>
<text text-anchor="start" x="529" y="-306.5" font-family="Helvetica,sans-Serif" font-size="10.00"> </text>
<polygon fill="#666666" stroke="#666666" points="512.5,-331.5 512.5,-331.5 549.5,-331.5 549.5,-331.5 512.5,-331.5"/>
<polygon fill="#666666" stroke="#666666" points="512.5,-316.5 512.5,-316.5 549.5,-316.5 549.5,-316.5 512.5,-316.5"/>
<polygon fill="none" stroke="#666666" points="512,-300 512,-349 549,-349 549,-300 512,-300"/>
</a>
</g>
</g>
<!-- Node6&#45;&gt;Node1 -->
<g id="edge14_Node000001_Node000006" class="edge">
<title>Node6&#45;&gt;Node1</title>
<g id="a_edge14_Node000001_Node000006"><a xlink:title=" ">
<path fill="none" stroke="#63b8ff" d="M518.76,-290.33C513,-275.27 505.57,-257.42 497.5,-242 489.42,-226.56 480.12,-210.69 470.59,-195.38"/>
<polygon fill="none" stroke="#63b8ff" points="515.51,-291.63 522.29,-299.77 522.06,-289.18 515.51,-291.63"/>
</a>
</g>
</g>
<!-- Node7 -->
<g id="Node000007" class="node">
<title>Node7</title>
<g id="a_Node000007"><a xlink:title=" ">
<polygon fill="white" stroke="transparent" points="590,-349 567,-349 567,-300 590,-300 590,-349"/>
<text text-anchor="start" x="572.5" y="-336.5" font-family="Helvetica,sans-Serif" font-size="10.00">int</text>
<text text-anchor="start" x="577" y="-321.5" font-family="Helvetica,sans-Serif" font-size="10.00"> </text>
<text text-anchor="start" x="577" y="-306.5" font-family="Helvetica,sans-Serif" font-size="10.00"> </text>
<polygon fill="#666666" stroke="#666666" points="567.5,-331.5 567.5,-331.5 590.5,-331.5 590.5,-331.5 567.5,-331.5"/>
<polygon fill="#666666" stroke="#666666" points="567.5,-316.5 567.5,-316.5 590.5,-316.5 590.5,-316.5 567.5,-316.5"/>
<polygon fill="none" stroke="#666666" points="567,-300 567,-349 590,-349 590,-300 567,-300"/>
</a>
</g>
</g>
<!-- Node7&#45;&gt;Node1 -->
<g id="edge17_Node000001_Node000007" class="edge">
<title>Node7&#45;&gt;Node1</title>
<g id="a_edge17_Node000001_Node000007"><a xlink:title=" ">
<path fill="none" stroke="#63b8ff" d="M576.33,-299.65C573.93,-282.63 568.93,-259.7 558.5,-242 539.61,-209.92 511.32,-180.72 484.06,-157.15"/>
<polygon fill="none" stroke="#63b8ff" points="484.04,-157.13 476.87,-156.31 474.88,-149.38 482.04,-150.2 484.04,-157.13"/>
</a>
</g>
<text text-anchor="middle" x="604" y="-216" font-family="Helvetica,sans-Serif" font-size="10.00" fill="grey"> +panel_interface_level</text>
</g>
</g>
</svg>
