<?xml version="1.0" encoding="UTF-8" standalone="no"?>
<!DOCTYPE svg PUBLIC "-//W3C//DTD SVG 1.1//EN"
 "http://www.w3.org/Graphics/SVG/1.1/DTD/svg11.dtd">
<!-- Generated by graphviz version 2.43.0 (0)
 -->
<!-- Title: cam.nc.num_reader.NumReader Pages: 1 -->
<svg width="310pt" height="467pt"
 viewBox="0.00 0.00 310.00 467.00" xmlns="http://www.w3.org/2000/svg" xmlns:xlink="http://www.w3.org/1999/xlink">
<g id="graph0" class="graph" transform="scale(1 1) rotate(0) translate(4 463)">
<title>cam.nc.num_reader.NumReader</title>
<!-- Node1 -->
<g id="Node000001" class="node">
<title>Node1</title>
<g id="a_Node000001"><a xlink:title=" ">
<polygon fill="#999999" stroke="transparent" points="234.5,-374 67.5,-374 67.5,-250 234.5,-250 234.5,-374"/>
<text text-anchor="start" x="73" y="-362" font-family="Helvetica,sans-Serif" font-size="10.00">cam.nc.num_reader.NumReader</text>
<text text-anchor="start" x="91.5" y="-347" font-family="Helvetica,sans-Serif" font-size="10.00">+</text>
<text text-anchor="start" x="124" y="-347" font-family="Helvetica,sans-Serif" font-size="10.00">line_length</text>
<text text-anchor="start" x="91.5" y="-332" font-family="Helvetica,sans-Serif" font-size="10.00">+</text>
<text text-anchor="start" x="124" y="-332" font-family="Helvetica,sans-Serif" font-size="10.00">line_index</text>
<text text-anchor="start" x="91.5" y="-317" font-family="Helvetica,sans-Serif" font-size="10.00">+</text>
<text text-anchor="start" x="124" y="-317" font-family="Helvetica,sans-Serif" font-size="10.00">parse_word</text>
<text text-anchor="start" x="91.5" y="-302" font-family="Helvetica,sans-Serif" font-size="10.00">+</text>
<text text-anchor="start" x="124" y="-302" font-family="Helvetica,sans-Serif" font-size="10.00">__init__()</text>
<text text-anchor="start" x="91.5" y="-287" font-family="Helvetica,sans-Serif" font-size="10.00">+</text>
<text text-anchor="start" x="124" y="-287" font-family="Helvetica,sans-Serif" font-size="10.00">get_number()</text>
<text text-anchor="start" x="91.5" y="-272" font-family="Helvetica,sans-Serif" font-size="10.00">+</text>
<text text-anchor="start" x="124" y="-272" font-family="Helvetica,sans-Serif" font-size="10.00">add_word()</text>
<text text-anchor="start" x="91.5" y="-257" font-family="Helvetica,sans-Serif" font-size="10.00">+</text>
<text text-anchor="start" x="124" y="-257" font-family="Helvetica,sans-Serif" font-size="10.00">Parse()</text>
<polygon fill="#666666" stroke="#666666" points="68,-357 68,-357 235,-357 235,-357 68,-357"/>
<polygon fill="#666666" stroke="#666666" points="68,-312 68,-312 122,-312 122,-312 68,-312"/>
<polygon fill="#666666" stroke="#666666" points="122,-312 122,-312 235,-312 235,-312 122,-312"/>
<polygon fill="none" stroke="#666666" points="67.5,-250 67.5,-374 234.5,-374 234.5,-250 67.5,-250"/>
</a>
</g>
</g>
<!-- Node3 -->
<g id="Node000003" class="node">
<title>Node3</title>
<g id="a_Node000003"><a xlink:href="$classcam_1_1nc_1_1hpgl2d__read_1_1Parser.html" xlink:title=" ">
<polygon fill="white" stroke="transparent" points="142,-214 0,-214 0,0 142,0 142,-214"/>
<text text-anchor="start" x="5" y="-202" font-family="Helvetica,sans-Serif" font-size="10.00">cam.nc.hpgl2d_read.Parser</text>
<text text-anchor="start" x="7" y="-187" font-family="Helvetica,sans-Serif" font-size="10.00">+</text>
<text text-anchor="start" x="23" y="-187" font-family="Helvetica,sans-Serif" font-size="10.00">i</text>
<text text-anchor="start" x="7" y="-172" font-family="Helvetica,sans-Serif" font-size="10.00">+</text>
<text text-anchor="start" x="23" y="-172" font-family="Helvetica,sans-Serif" font-size="10.00">j</text>
<text text-anchor="start" x="7" y="-157" font-family="Helvetica,sans-Serif" font-size="10.00">+</text>
<text text-anchor="start" x="23" y="-157" font-family="Helvetica,sans-Serif" font-size="10.00">x</text>
<text text-anchor="start" x="7" y="-142" font-family="Helvetica,sans-Serif" font-size="10.00">+</text>
<text text-anchor="start" x="23" y="-142" font-family="Helvetica,sans-Serif" font-size="10.00">y</text>
<text text-anchor="start" x="7" y="-127" font-family="Helvetica,sans-Serif" font-size="10.00">+</text>
<text text-anchor="start" x="23" y="-127" font-family="Helvetica,sans-Serif" font-size="10.00">down_z</text>
<text text-anchor="start" x="7" y="-112" font-family="Helvetica,sans-Serif" font-size="10.00">+</text>
<text text-anchor="start" x="23" y="-112" font-family="Helvetica,sans-Serif" font-size="10.00">up_z</text>
<text text-anchor="start" x="7" y="-97" font-family="Helvetica,sans-Serif" font-size="10.00">+</text>
<text text-anchor="start" x="23" y="-97" font-family="Helvetica,sans-Serif" font-size="10.00">up</text>
<text text-anchor="start" x="7" y="-82" font-family="Helvetica,sans-Serif" font-size="10.00">+</text>
<text text-anchor="start" x="23" y="-82" font-family="Helvetica,sans-Serif" font-size="10.00">units_to_mm</text>
<text text-anchor="start" x="7" y="-67" font-family="Helvetica,sans-Serif" font-size="10.00">+</text>
<text text-anchor="start" x="23" y="-67" font-family="Helvetica,sans-Serif" font-size="10.00">line_index</text>
<text text-anchor="start" x="7" y="-52" font-family="Helvetica,sans-Serif" font-size="10.00">+</text>
<text text-anchor="start" x="23" y="-52" font-family="Helvetica,sans-Serif" font-size="10.00">__init__()</text>
<text text-anchor="start" x="7" y="-37" font-family="Helvetica,sans-Serif" font-size="10.00">+</text>
<text text-anchor="start" x="23" y="-37" font-family="Helvetica,sans-Serif" font-size="10.00">ParsePuOrPd()</text>
<text text-anchor="start" x="7" y="-22" font-family="Helvetica,sans-Serif" font-size="10.00">+</text>
<text text-anchor="start" x="23" y="-22" font-family="Helvetica,sans-Serif" font-size="10.00">ParseAA()</text>
<text text-anchor="start" x="7" y="-7" font-family="Helvetica,sans-Serif" font-size="10.00">+</text>
<text text-anchor="start" x="23" y="-7" font-family="Helvetica,sans-Serif" font-size="10.00">ParseFromFirstLetter()</text>
<polygon fill="#666666" stroke="#666666" points="0,-197 0,-197 142,-197 142,-197 0,-197"/>
<polygon fill="#666666" stroke="#666666" points="0,-62 0,-62 21,-62 21,-62 0,-62"/>
<polygon fill="#666666" stroke="#666666" points="21,-62 21,-62 142,-62 142,-62 21,-62"/>
<polygon fill="none" stroke="#666666" points="0,0 0,-214 142,-214 142,0 0,0"/>
</a>
</g>
</g>
<!-- Node1&#45;&gt;Node3 -->
<g id="edge5_Node000001_Node000003" class="edge">
<title>Node1&#45;&gt;Node3</title>
<g id="a_edge5_Node000001_Node000003"><a xlink:title=" ">
<path fill="none" stroke="#63b8ff" d="M123.16,-240.36C119.81,-231.86 116.33,-223.03 112.84,-214.16"/>
<polygon fill="none" stroke="#63b8ff" points="119.97,-241.8 126.89,-249.82 126.48,-239.23 119.97,-241.8"/>
</a>
</g>
</g>
<!-- Node4 -->
<g id="Node000004" class="node">
<title>Node4</title>
<g id="a_Node000004"><a xlink:href="$classcam_1_1nc_1_1hpgl3d__read_1_1Parser.html" xlink:title=" ">
<polygon fill="white" stroke="transparent" points="302,-191.5 160,-191.5 160,-22.5 302,-22.5 302,-191.5"/>
<text text-anchor="start" x="165" y="-179" font-family="Helvetica,sans-Serif" font-size="10.00">cam.nc.hpgl3d_read.Parser</text>
<text text-anchor="start" x="167" y="-164" font-family="Helvetica,sans-Serif" font-size="10.00">+</text>
<text text-anchor="start" x="183" y="-164" font-family="Helvetica,sans-Serif" font-size="10.00">x</text>
<text text-anchor="start" x="167" y="-149" font-family="Helvetica,sans-Serif" font-size="10.00">+</text>
<text text-anchor="start" x="183" y="-149" font-family="Helvetica,sans-Serif" font-size="10.00">y</text>
<text text-anchor="start" x="167" y="-134" font-family="Helvetica,sans-Serif" font-size="10.00">+</text>
<text text-anchor="start" x="183" y="-134" font-family="Helvetica,sans-Serif" font-size="10.00">z</text>
<text text-anchor="start" x="167" y="-119" font-family="Helvetica,sans-Serif" font-size="10.00">+</text>
<text text-anchor="start" x="183" y="-119" font-family="Helvetica,sans-Serif" font-size="10.00">f</text>
<text text-anchor="start" x="167" y="-104" font-family="Helvetica,sans-Serif" font-size="10.00">+</text>
<text text-anchor="start" x="183" y="-104" font-family="Helvetica,sans-Serif" font-size="10.00">units_to_mm</text>
<text text-anchor="start" x="167" y="-89" font-family="Helvetica,sans-Serif" font-size="10.00">+</text>
<text text-anchor="start" x="183" y="-89" font-family="Helvetica,sans-Serif" font-size="10.00">line_index</text>
<text text-anchor="start" x="167" y="-74" font-family="Helvetica,sans-Serif" font-size="10.00">+</text>
<text text-anchor="start" x="183" y="-74" font-family="Helvetica,sans-Serif" font-size="10.00">__init__()</text>
<text text-anchor="start" x="167" y="-59" font-family="Helvetica,sans-Serif" font-size="10.00">+</text>
<text text-anchor="start" x="183" y="-59" font-family="Helvetica,sans-Serif" font-size="10.00">ParseV()</text>
<text text-anchor="start" x="167" y="-44" font-family="Helvetica,sans-Serif" font-size="10.00">+</text>
<text text-anchor="start" x="183" y="-44" font-family="Helvetica,sans-Serif" font-size="10.00">ParseZ()</text>
<text text-anchor="start" x="167" y="-29" font-family="Helvetica,sans-Serif" font-size="10.00">+</text>
<text text-anchor="start" x="183" y="-29" font-family="Helvetica,sans-Serif" font-size="10.00">ParseFromFirstLetter()</text>
<polygon fill="#666666" stroke="#666666" points="160,-174 160,-174 302,-174 302,-174 160,-174"/>
<polygon fill="#666666" stroke="#666666" points="160,-84 160,-84 181,-84 181,-84 160,-84"/>
<polygon fill="#666666" stroke="#666666" points="181,-84 181,-84 302,-84 302,-84 181,-84"/>
<polygon fill="none" stroke="#666666" points="160,-22.5 160,-191.5 302,-191.5 302,-22.5 160,-22.5"/>
</a>
</g>
</g>
<!-- Node1&#45;&gt;Node4 -->
<g id="edge6_Node000001_Node000004" class="edge">
<title>Node1&#45;&gt;Node4</title>
<g id="a_edge6_Node000001_Node000004"><a xlink:title=" ">
<path fill="none" stroke="#63b8ff" d="M178.9,-240.2C185.09,-224.5 191.7,-207.71 198.07,-191.56"/>
<polygon fill="none" stroke="#63b8ff" points="175.52,-239.23 175.11,-249.82 182.03,-241.8 175.52,-239.23"/>
</a>
</g>
</g>
<!-- Node2 -->
<g id="Node000002" class="node">
<title>Node2</title>
<g id="a_Node000002"><a xlink:title=" ">
<polygon fill="white" stroke="transparent" points="178.5,-459 123.5,-459 123.5,-410 178.5,-410 178.5,-459"/>
<text text-anchor="start" x="129" y="-446.5" font-family="Helvetica,sans-Serif" font-size="10.00">nc.Parser</text>
<text text-anchor="start" x="149.5" y="-431.5" font-family="Helvetica,sans-Serif" font-size="10.00"> </text>
<text text-anchor="start" x="149.5" y="-416.5" font-family="Helvetica,sans-Serif" font-size="10.00"> </text>
<polygon fill="#666666" stroke="#666666" points="124,-441.5 124,-441.5 179,-441.5 179,-441.5 124,-441.5"/>
<polygon fill="#666666" stroke="#666666" points="124,-426.5 124,-426.5 179,-426.5 179,-426.5 124,-426.5"/>
<polygon fill="none" stroke="#666666" points="123.5,-410 123.5,-459 178.5,-459 178.5,-410 123.5,-410"/>
</a>
</g>
</g>
<!-- Node2&#45;&gt;Node1 -->
<g id="edge4_Node000001_Node000002" class="edge">
<title>Node2&#45;&gt;Node1</title>
<g id="a_edge4_Node000001_Node000002"><a xlink:title=" ">
<path fill="none" stroke="#63b8ff" d="M151,-399.94C151,-391.91 151,-383.08 151,-374.23"/>
<polygon fill="none" stroke="#63b8ff" points="147.5,-399.98 151,-409.98 154.5,-399.98 147.5,-399.98"/>
</a>
</g>
</g>
</g>
</svg>
