<?xml version="1.0" encoding="UTF-8" standalone="no"?>
<!DOCTYPE svg PUBLIC "-//W3C//DTD SVG 1.1//EN"
 "http://www.w3.org/Graphics/SVG/1.1/DTD/svg11.dtd">
<!-- Generated by graphviz version 2.43.0 (0)
 -->
<!-- Title: cam.pack.PackObjectsSettings Pages: 1 -->
<svg width="407pt" height="197pt"
 viewBox="0.00 0.00 406.50 197.00" xmlns="http://www.w3.org/2000/svg" xmlns:xlink="http://www.w3.org/1999/xlink">
<g id="graph0" class="graph" transform="scale(1 1) rotate(0) translate(4 193)">
<title>cam.pack.PackObjectsSettings</title>
<!-- Node1 -->
<g id="Node000001" class="node">
<title>Node1</title>
<g id="a_Node000001"><a xlink:title=" ">
<polygon fill="#999999" stroke="transparent" points="282.5,-49 122.5,-49 122.5,0 282.5,0 282.5,-49"/>
<text text-anchor="start" x="127.5" y="-36.5" font-family="Helvetica,sans-Serif" font-size="10.00">cam.pack.PackObjectsSettings</text>
<text text-anchor="start" x="200.5" y="-21.5" font-family="Helvetica,sans-Serif" font-size="10.00"> </text>
<text text-anchor="start" x="200.5" y="-6.5" font-family="Helvetica,sans-Serif" font-size="10.00"> </text>
<polygon fill="#666666" stroke="#666666" points="122.5,-31.5 122.5,-31.5 282.5,-31.5 282.5,-31.5 122.5,-31.5"/>
<polygon fill="#666666" stroke="#666666" points="122.5,-16.5 122.5,-16.5 282.5,-16.5 282.5,-16.5 122.5,-16.5"/>
<polygon fill="none" stroke="#666666" points="122.5,0 122.5,-49 282.5,-49 282.5,0 122.5,0"/>
</a>
</g>
</g>
<!-- Node2 -->
<g id="Node000002" class="node">
<title>Node2</title>
<g id="a_Node000002"><a xlink:title=" ">
<polygon fill="white" stroke="transparent" points="81,-189 0,-189 0,-140 81,-140 81,-189"/>
<text text-anchor="start" x="5.5" y="-176.5" font-family="Helvetica,sans-Serif" font-size="10.00">PropertyGroup</text>
<text text-anchor="start" x="39" y="-161.5" font-family="Helvetica,sans-Serif" font-size="10.00"> </text>
<text text-anchor="start" x="39" y="-146.5" font-family="Helvetica,sans-Serif" font-size="10.00"> </text>
<polygon fill="#666666" stroke="#666666" points="0.5,-171.5 0.5,-171.5 81.5,-171.5 81.5,-171.5 0.5,-171.5"/>
<polygon fill="#666666" stroke="#666666" points="0.5,-156.5 0.5,-156.5 81.5,-156.5 81.5,-156.5 0.5,-156.5"/>
<polygon fill="none" stroke="#666666" points="0,-140 0,-189 81,-189 81,-140 0,-140"/>
</a>
</g>
</g>
<!-- Node2&#45;&gt;Node1 -->
<g id="edge5_Node000001_Node000002" class="edge">
<title>Node2&#45;&gt;Node1</title>
<g id="a_edge5_Node000001_Node000002"><a xlink:title=" ">
<path fill="none" stroke="#63b8ff" d="M63.95,-131.99C80.04,-111.78 102.72,-85.89 126.5,-67 134.74,-60.45 144.16,-54.39 153.49,-49.02"/>
<polygon fill="none" stroke="#63b8ff" points="61.1,-129.96 57.69,-139.99 66.61,-134.27 61.1,-129.96"/>
</a>
</g>
</g>
<!-- Node3 -->
<g id="Node000003" class="node">
<title>Node3</title>
<g id="a_Node000003"><a xlink:title=" ">
<polygon fill="white" stroke="transparent" points="179.5,-189 99.5,-189 99.5,-140 179.5,-140 179.5,-189"/>
<text text-anchor="start" x="104.5" y="-176.5" font-family="Helvetica,sans-Serif" font-size="10.00">EnumProperty</text>
<text text-anchor="start" x="137.5" y="-161.5" font-family="Helvetica,sans-Serif" font-size="10.00"> </text>
<text text-anchor="start" x="137.5" y="-146.5" font-family="Helvetica,sans-Serif" font-size="10.00"> </text>
<polygon fill="#666666" stroke="#666666" points="99.5,-171.5 99.5,-171.5 179.5,-171.5 179.5,-171.5 99.5,-171.5"/>
<polygon fill="#666666" stroke="#666666" points="99.5,-156.5 99.5,-156.5 179.5,-156.5 179.5,-156.5 99.5,-156.5"/>
<polygon fill="none" stroke="#666666" points="99.5,-140 99.5,-189 179.5,-189 179.5,-140 99.5,-140"/>
</a>
</g>
</g>
<!-- Node3&#45;&gt;Node1 -->
<g id="edge6_Node000001_Node000003" class="edge">
<title>Node3&#45;&gt;Node1</title>
<g id="a_edge6_Node000001_Node000003"><a xlink:title=" ">
<path fill="none" stroke="#63b8ff" d="M133.86,-139.75C130.31,-119.22 128.39,-89.4 140.5,-67 142.29,-63.69 144.47,-60.59 146.94,-57.71"/>
<polygon fill="none" stroke="#63b8ff" points="147.05,-57.6 148.54,-50.55 155.62,-49.21 154.13,-56.26 147.05,-57.6"/>
</a>
</g>
<text text-anchor="middle" x="192.5" y="-92" font-family="Helvetica,sans-Serif" font-size="10.00" fill="grey"> +sheet_fill_direction</text>
</g>
<!-- Node4 -->
<g id="Node000004" class="node">
<title>Node4</title>
<g id="a_Node000004"><a xlink:title=" ">
<polygon fill="white" stroke="transparent" points="305,-189 228,-189 228,-140 305,-140 305,-189"/>
<text text-anchor="start" x="233.5" y="-176.5" font-family="Helvetica,sans-Serif" font-size="10.00">FloatProperty</text>
<text text-anchor="start" x="265" y="-161.5" font-family="Helvetica,sans-Serif" font-size="10.00"> </text>
<text text-anchor="start" x="265" y="-146.5" font-family="Helvetica,sans-Serif" font-size="10.00"> </text>
<polygon fill="#666666" stroke="#666666" points="228.5,-171.5 228.5,-171.5 305.5,-171.5 305.5,-171.5 228.5,-171.5"/>
<polygon fill="#666666" stroke="#666666" points="228.5,-156.5 228.5,-156.5 305.5,-156.5 305.5,-156.5 228.5,-156.5"/>
<polygon fill="none" stroke="#666666" points="228,-140 228,-189 305,-189 305,-140 228,-140"/>
</a>
</g>
</g>
<!-- Node4&#45;&gt;Node1 -->
<g id="edge7_Node000001_Node000004" class="edge">
<title>Node4&#45;&gt;Node1</title>
<g id="a_edge7_Node000001_Node000004"><a xlink:title=" ">
<path fill="none" stroke="#63b8ff" d="M264.85,-139.96C262.57,-119.56 257.2,-89.82 244.5,-67 242.82,-63.98 240.85,-61.03 238.7,-58.19"/>
<polygon fill="none" stroke="#63b8ff" points="238.64,-58.12 231.7,-56.16 230.84,-49 237.78,-50.96 238.64,-58.12"/>
</a>
</g>
<text text-anchor="middle" x="296.5" y="-114" font-family="Helvetica,sans-Serif" font-size="10.00" fill="grey"> +distance</text>
<text text-anchor="middle" x="296.5" y="-103" font-family="Helvetica,sans-Serif" font-size="10.00" fill="grey">+rotate_angle</text>
<text text-anchor="middle" x="296.5" y="-92" font-family="Helvetica,sans-Serif" font-size="10.00" fill="grey">+sheet_x</text>
<text text-anchor="middle" x="296.5" y="-81" font-family="Helvetica,sans-Serif" font-size="10.00" fill="grey">+sheet_y</text>
<text text-anchor="middle" x="296.5" y="-70" font-family="Helvetica,sans-Serif" font-size="10.00" fill="grey">+tolerance</text>
</g>
<!-- Node5 -->
<g id="Node000005" class="node">
<title>Node5</title>
<g id="a_Node000005"><a xlink:title=" ">
<polygon fill="white" stroke="transparent" points="397.5,-189 323.5,-189 323.5,-140 397.5,-140 397.5,-189"/>
<text text-anchor="start" x="328.5" y="-176.5" font-family="Helvetica,sans-Serif" font-size="10.00">BoolProperty</text>
<text text-anchor="start" x="358.5" y="-161.5" font-family="Helvetica,sans-Serif" font-size="10.00"> </text>
<text text-anchor="start" x="358.5" y="-146.5" font-family="Helvetica,sans-Serif" font-size="10.00"> </text>
<polygon fill="#666666" stroke="#666666" points="323.5,-171.5 323.5,-171.5 397.5,-171.5 397.5,-171.5 323.5,-171.5"/>
<polygon fill="#666666" stroke="#666666" points="323.5,-156.5 323.5,-156.5 397.5,-156.5 397.5,-156.5 323.5,-156.5"/>
<polygon fill="none" stroke="#666666" points="323.5,-140 323.5,-189 397.5,-189 397.5,-140 323.5,-140"/>
</a>
</g>
</g>
<!-- Node5&#45;&gt;Node1 -->
<g id="edge8_Node000001_Node000005" class="edge">
<title>Node5&#45;&gt;Node1</title>
<g id="a_edge8_Node000001_Node000005"><a xlink:title=" ">
<path fill="none" stroke="#63b8ff" d="M360.56,-139.78C359.33,-118.11 354.12,-86.55 335.5,-67 324.16,-55.09 309.46,-46.58 293.98,-40.5"/>
<polygon fill="none" stroke="#63b8ff" points="293.93,-40.48 286.95,-42.26 282.62,-36.49 289.61,-34.71 293.93,-40.48"/>
</a>
</g>
<text text-anchor="middle" x="378" y="-92" font-family="Helvetica,sans-Serif" font-size="10.00" fill="grey"> +rotate</text>
</g>
</g>
</svg>
