<?xml version="1.0" encoding="UTF-8" standalone="no"?>
<!DOCTYPE svg PUBLIC "-//W3C//DTD SVG 1.1//EN"
 "http://www.w3.org/Graphics/SVG/1.1/DTD/svg11.dtd">
<!-- Generated by graphviz version 2.43.0 (0)
 -->
<!-- Title: cam.basrelief.BasReliefsettings Pages: 1 -->
<svg width="799pt" height="252pt"
 viewBox="0.00 0.00 798.50 252.00" xmlns="http://www.w3.org/2000/svg" xmlns:xlink="http://www.w3.org/1999/xlink">
<g id="graph0" class="graph" transform="scale(1 1) rotate(0) translate(4 248)">
<title>cam.basrelief.BasReliefsettings</title>
<!-- Node1 -->
<g id="Node000001" class="node">
<title>Node1</title>
<g id="a_Node000001"><a xlink:title=" ">
<polygon fill="#999999" stroke="transparent" points="480,-49 315,-49 315,0 480,0 480,-49"/>
<text text-anchor="start" x="320.5" y="-36.5" font-family="Helvetica,sans-Serif" font-size="10.00">cam.basrelief.BasReliefsettings</text>
<text text-anchor="start" x="396" y="-21.5" font-family="Helvetica,sans-Serif" font-size="10.00"> </text>
<text text-anchor="start" x="396" y="-6.5" font-family="Helvetica,sans-Serif" font-size="10.00"> </text>
<polygon fill="#666666" stroke="#666666" points="315.5,-31.5 315.5,-31.5 480.5,-31.5 480.5,-31.5 315.5,-31.5"/>
<polygon fill="#666666" stroke="#666666" points="315.5,-16.5 315.5,-16.5 480.5,-16.5 480.5,-16.5 315.5,-16.5"/>
<polygon fill="none" stroke="#666666" points="315,0 315,-49 480,-49 480,0 315,0"/>
</a>
</g>
</g>
<!-- Node2 -->
<g id="Node000002" class="node">
<title>Node2</title>
<g id="a_Node000002"><a xlink:href="$classbpy_1_1types_1_1PropertyGroup.html" xlink:title=" ">
<polygon fill="white" stroke="transparent" points="137,-244 0,-244 0,-195 137,-195 137,-244"/>
<text text-anchor="start" x="5.5" y="-231.5" font-family="Helvetica,sans-Serif" font-size="10.00">bpy::types::PropertyGroup</text>
<text text-anchor="start" x="67" y="-216.5" font-family="Helvetica,sans-Serif" font-size="10.00"> </text>
<text text-anchor="start" x="67" y="-201.5" font-family="Helvetica,sans-Serif" font-size="10.00"> </text>
<polygon fill="#666666" stroke="#666666" points="0.5,-226.5 0.5,-226.5 137.5,-226.5 137.5,-226.5 0.5,-226.5"/>
<polygon fill="#666666" stroke="#666666" points="0.5,-211.5 0.5,-211.5 137.5,-211.5 137.5,-211.5 0.5,-211.5"/>
<polygon fill="none" stroke="#666666" points="0,-195 0,-244 137,-244 137,-195 0,-195"/>
</a>
</g>
</g>
<!-- Node2&#45;&gt;Node1 -->
<g id="edge7_Node000001_Node000002" class="edge">
<title>Node2&#45;&gt;Node1</title>
<g id="a_edge7_Node000001_Node000002"><a xlink:title=" ">
<path fill="none" stroke="#63b8ff" d="M81.85,-185.54C97.91,-150.31 128.35,-95.66 172.5,-67 195.78,-51.89 260.69,-40.91 314.85,-34.05"/>
<polygon fill="none" stroke="#63b8ff" points="78.54,-184.36 77.7,-194.92 84.94,-187.19 78.54,-184.36"/>
</a>
</g>
</g>
<!-- Node3 -->
<g id="Node000003" class="node">
<title>Node3</title>
<g id="a_Node000003"><a xlink:title=" ">
<polygon fill="white" stroke="transparent" points="229.5,-244 155.5,-244 155.5,-195 229.5,-195 229.5,-244"/>
<text text-anchor="start" x="160.5" y="-231.5" font-family="Helvetica,sans-Serif" font-size="10.00">BoolProperty</text>
<text text-anchor="start" x="190.5" y="-216.5" font-family="Helvetica,sans-Serif" font-size="10.00"> </text>
<text text-anchor="start" x="190.5" y="-201.5" font-family="Helvetica,sans-Serif" font-size="10.00"> </text>
<polygon fill="#666666" stroke="#666666" points="155.5,-226.5 155.5,-226.5 229.5,-226.5 229.5,-226.5 155.5,-226.5"/>
<polygon fill="#666666" stroke="#666666" points="155.5,-211.5 155.5,-211.5 229.5,-211.5 229.5,-211.5 155.5,-211.5"/>
<polygon fill="none" stroke="#666666" points="155.5,-195 155.5,-244 229.5,-244 229.5,-195 155.5,-195"/>
</a>
</g>
</g>
<!-- Node3&#45;&gt;Node1 -->
<g id="edge8_Node000001_Node000003" class="edge">
<title>Node3&#45;&gt;Node1</title>
<g id="a_edge8_Node000001_Node000003"><a xlink:title=" ">
<path fill="none" stroke="#63b8ff" d="M185.02,-194.88C176.25,-162.13 166.44,-102.92 196.5,-67 210.59,-50.16 257.69,-39.92 302.76,-33.82"/>
<polygon fill="none" stroke="#63b8ff" points="302.87,-33.81 308.31,-29.08 314.77,-32.29 309.33,-37.01 302.87,-33.81"/>
</a>
</g>
<text text-anchor="middle" x="251" y="-169" font-family="Helvetica,sans-Serif" font-size="10.00" fill="grey"> +advanced</text>
<text text-anchor="start" x="196.5" y="-158" font-family="Helvetica,sans-Serif" font-size="10.00" fill="grey">+detail_enhancement</text>
<text text-anchor="middle" x="251" y="-147" font-family="Helvetica,sans-Serif" font-size="10.00" fill="grey">_use</text>
<text text-anchor="start" x="196.5" y="-136" font-family="Helvetica,sans-Serif" font-size="10.00" fill="grey">+gradient_scaling</text>
<text text-anchor="middle" x="251" y="-125" font-family="Helvetica,sans-Serif" font-size="10.00" fill="grey">_mask_use</text>
<text text-anchor="middle" x="251" y="-114" font-family="Helvetica,sans-Serif" font-size="10.00" fill="grey">+recover_silhouettes</text>
<text text-anchor="start" x="196.5" y="-103" font-family="Helvetica,sans-Serif" font-size="10.00" fill="grey">+scale_down_before</text>
<text text-anchor="middle" x="251" y="-92" font-family="Helvetica,sans-Serif" font-size="10.00" fill="grey">_use</text>
<text text-anchor="middle" x="251" y="-81" font-family="Helvetica,sans-Serif" font-size="10.00" fill="grey">+use_image_source</text>
<text text-anchor="middle" x="251" y="-70" font-family="Helvetica,sans-Serif" font-size="10.00" fill="grey">+use_planar</text>
</g>
<!-- Node4 -->
<g id="Node000004" class="node">
<title>Node4</title>
<g id="a_Node000004"><a xlink:title=" ">
<polygon fill="white" stroke="transparent" points="364.5,-244 284.5,-244 284.5,-195 364.5,-195 364.5,-244"/>
<text text-anchor="start" x="289.5" y="-231.5" font-family="Helvetica,sans-Serif" font-size="10.00">StringProperty</text>
<text text-anchor="start" x="322.5" y="-216.5" font-family="Helvetica,sans-Serif" font-size="10.00"> </text>
<text text-anchor="start" x="322.5" y="-201.5" font-family="Helvetica,sans-Serif" font-size="10.00"> </text>
<polygon fill="#666666" stroke="#666666" points="284.5,-226.5 284.5,-226.5 364.5,-226.5 364.5,-226.5 284.5,-226.5"/>
<polygon fill="#666666" stroke="#666666" points="284.5,-211.5 284.5,-211.5 364.5,-211.5 364.5,-211.5 284.5,-211.5"/>
<polygon fill="none" stroke="#666666" points="284.5,-195 284.5,-244 364.5,-244 364.5,-195 284.5,-195"/>
</a>
</g>
</g>
<!-- Node4&#45;&gt;Node1 -->
<g id="edge9_Node000001_Node000004" class="edge">
<title>Node4&#45;&gt;Node1</title>
<g id="a_edge9_Node000001_Node000004"><a xlink:title=" ">
<path fill="none" stroke="#63b8ff" d="M317.84,-194.81C310.42,-163.29 302.27,-106.89 325.5,-67 327.53,-63.51 329.98,-60.28 332.73,-57.31"/>
<polygon fill="none" stroke="#63b8ff" points="332.88,-57.18 334.64,-50.19 341.77,-49.13 340.01,-56.12 332.88,-57.18"/>
</a>
</g>
<text text-anchor="start" x="325.5" y="-136" font-family="Helvetica,sans-Serif" font-size="10.00" fill="grey"> +gradient_scaling_mask</text>
<text text-anchor="middle" x="387.5" y="-125" font-family="Helvetica,sans-Serif" font-size="10.00" fill="grey">_name</text>
<text text-anchor="middle" x="387.5" y="-114" font-family="Helvetica,sans-Serif" font-size="10.00" fill="grey">+source_image_name</text>
<text text-anchor="middle" x="387.5" y="-103" font-family="Helvetica,sans-Serif" font-size="10.00" fill="grey">+view_layer_name</text>
</g>
<!-- Node5 -->
<g id="Node000005" class="node">
<title>Node5</title>
<g id="a_Node000005"><a xlink:title=" ">
<polygon fill="white" stroke="transparent" points="510,-244 433,-244 433,-195 510,-195 510,-244"/>
<text text-anchor="start" x="438.5" y="-231.5" font-family="Helvetica,sans-Serif" font-size="10.00">FloatProperty</text>
<text text-anchor="start" x="470" y="-216.5" font-family="Helvetica,sans-Serif" font-size="10.00"> </text>
<text text-anchor="start" x="470" y="-201.5" font-family="Helvetica,sans-Serif" font-size="10.00"> </text>
<polygon fill="#666666" stroke="#666666" points="433.5,-226.5 433.5,-226.5 510.5,-226.5 510.5,-226.5 433.5,-226.5"/>
<polygon fill="#666666" stroke="#666666" points="433.5,-211.5 433.5,-211.5 510.5,-211.5 510.5,-211.5 433.5,-211.5"/>
<polygon fill="none" stroke="#666666" points="433,-195 433,-244 510,-244 510,-195 433,-195"/>
</a>
</g>
</g>
<!-- Node5&#45;&gt;Node1 -->
<g id="edge10_Node000001_Node000005" class="edge">
<title>Node5&#45;&gt;Node1</title>
<g id="a_edge10_Node000001_Node000005"><a xlink:title=" ">
<path fill="none" stroke="#63b8ff" d="M470.18,-194.93C467.77,-157.95 461.73,-88.33 449.5,-67 447.66,-63.8 445.47,-60.75 443.05,-57.86"/>
<polygon fill="none" stroke="#63b8ff" points="443.01,-57.82 435.96,-56.31 434.65,-49.22 441.7,-50.73 443.01,-57.82"/>
</a>
</g>
<text text-anchor="middle" x="523" y="-163.5" font-family="Helvetica,sans-Serif" font-size="10.00" fill="grey"> +attenuation</text>
<text text-anchor="middle" x="523" y="-152.5" font-family="Helvetica,sans-Serif" font-size="10.00" fill="grey">+bit_diameter</text>
<text text-anchor="middle" x="523" y="-141.5" font-family="Helvetica,sans-Serif" font-size="10.00" fill="grey">+decimate_ratio</text>
<text text-anchor="middle" x="523" y="-130.5" font-family="Helvetica,sans-Serif" font-size="10.00" fill="grey">+depth_exponent</text>
<text text-anchor="start" x="468.5" y="-119.5" font-family="Helvetica,sans-Serif" font-size="10.00" fill="grey">+detail_enhancement</text>
<text text-anchor="middle" x="523" y="-108.5" font-family="Helvetica,sans-Serif" font-size="10.00" fill="grey">_amount</text>
<text text-anchor="middle" x="523" y="-97.5" font-family="Helvetica,sans-Serif" font-size="10.00" fill="grey">+scale_down_before</text>
<text text-anchor="middle" x="523" y="-86.5" font-family="Helvetica,sans-Serif" font-size="10.00" fill="grey">+silhouette_scale</text>
<text text-anchor="middle" x="523" y="-75.5" font-family="Helvetica,sans-Serif" font-size="10.00" fill="grey">+silhouette_threshold</text>
</g>
<!-- Node6 -->
<g id="Node000006" class="node">
<title>Node6</title>
<g id="a_Node000006"><a xlink:title=" ">
<polygon fill="white" stroke="transparent" points="636,-244 571,-244 571,-195 636,-195 636,-244"/>
<text text-anchor="start" x="576.5" y="-231.5" font-family="Helvetica,sans-Serif" font-size="10.00">IntProperty</text>
<text text-anchor="start" x="602" y="-216.5" font-family="Helvetica,sans-Serif" font-size="10.00"> </text>
<text text-anchor="start" x="602" y="-201.5" font-family="Helvetica,sans-Serif" font-size="10.00"> </text>
<polygon fill="#666666" stroke="#666666" points="571.5,-226.5 571.5,-226.5 636.5,-226.5 636.5,-226.5 571.5,-226.5"/>
<polygon fill="#666666" stroke="#666666" points="571.5,-211.5 571.5,-211.5 636.5,-211.5 636.5,-211.5 571.5,-211.5"/>
<polygon fill="none" stroke="#666666" points="571,-195 571,-244 636,-244 636,-195 571,-195"/>
</a>
</g>
</g>
<!-- Node6&#45;&gt;Node1 -->
<g id="edge11_Node000001_Node000006" class="edge">
<title>Node6&#45;&gt;Node1</title>
<g id="a_edge11_Node000001_Node000006"><a xlink:title=" ">
<path fill="none" stroke="#63b8ff" d="M603.23,-194.78C602.29,-156.9 598.29,-85.14 581.5,-67 568.75,-53.22 530.52,-43.46 492.19,-36.88"/>
<polygon fill="none" stroke="#63b8ff" points="492.16,-36.88 485.59,-39.86 480.32,-34.94 486.89,-31.96 492.16,-36.88"/>
</a>
</g>
<text text-anchor="middle" x="657" y="-163.5" font-family="Helvetica,sans-Serif" font-size="10.00" fill="grey"> +heightmm</text>
<text text-anchor="middle" x="657" y="-152.5" font-family="Helvetica,sans-Serif" font-size="10.00" fill="grey">+linbcg_iterations</text>
<text text-anchor="middle" x="657" y="-141.5" font-family="Helvetica,sans-Serif" font-size="10.00" fill="grey">+min_gridsize</text>
<text text-anchor="middle" x="657" y="-130.5" font-family="Helvetica,sans-Serif" font-size="10.00" fill="grey">+pass_per_radius</text>
<text text-anchor="middle" x="657" y="-119.5" font-family="Helvetica,sans-Serif" font-size="10.00" fill="grey">+silhouette_exponent</text>
<text text-anchor="middle" x="657" y="-108.5" font-family="Helvetica,sans-Serif" font-size="10.00" fill="grey">+smooth_iterations</text>
<text text-anchor="middle" x="657" y="-97.5" font-family="Helvetica,sans-Serif" font-size="10.00" fill="grey">+thicknessmm</text>
<text text-anchor="middle" x="657" y="-86.5" font-family="Helvetica,sans-Serif" font-size="10.00" fill="grey">+vcycle_iterations</text>
<text text-anchor="middle" x="657" y="-75.5" font-family="Helvetica,sans-Serif" font-size="10.00" fill="grey">+widthmm</text>
</g>
<!-- Node7 -->
<g id="Node000007" class="node">
<title>Node7</title>
<g id="a_Node000007"><a xlink:title=" ">
<polygon fill="white" stroke="transparent" points="775.5,-244 695.5,-244 695.5,-195 775.5,-195 775.5,-244"/>
<text text-anchor="start" x="700.5" y="-231.5" font-family="Helvetica,sans-Serif" font-size="10.00">EnumProperty</text>
<text text-anchor="start" x="733.5" y="-216.5" font-family="Helvetica,sans-Serif" font-size="10.00"> </text>
<text text-anchor="start" x="733.5" y="-201.5" font-family="Helvetica,sans-Serif" font-size="10.00"> </text>
<polygon fill="#666666" stroke="#666666" points="695.5,-226.5 695.5,-226.5 775.5,-226.5 775.5,-226.5 695.5,-226.5"/>
<polygon fill="#666666" stroke="#666666" points="695.5,-211.5 695.5,-211.5 775.5,-211.5 775.5,-211.5 695.5,-211.5"/>
<polygon fill="none" stroke="#666666" points="695.5,-195 695.5,-244 775.5,-244 775.5,-195 695.5,-195"/>
</a>
</g>
</g>
<!-- Node7&#45;&gt;Node1 -->
<g id="edge12_Node000001_Node000007" class="edge">
<title>Node7&#45;&gt;Node1</title>
<g id="a_edge12_Node000001_Node000007"><a xlink:title=" ">
<path fill="none" stroke="#63b8ff" d="M739.88,-194.97C744.61,-161.51 747.46,-100.5 713.5,-67 683.03,-36.94 573.96,-28.06 492.43,-25.73"/>
<polygon fill="none" stroke="#63b8ff" points="492.36,-25.73 486.26,-29.58 480.36,-25.43 486.46,-21.58 492.36,-25.73"/>
</a>
</g>
<text text-anchor="middle" x="766.5" y="-130.5" font-family="Helvetica,sans-Serif" font-size="10.00" fill="grey"> +justifyx</text>
<text text-anchor="middle" x="766.5" y="-119.5" font-family="Helvetica,sans-Serif" font-size="10.00" fill="grey">+justifyy</text>
<text text-anchor="middle" x="766.5" y="-108.5" font-family="Helvetica,sans-Serif" font-size="10.00" fill="grey">+justifyz</text>
</g>
</g>
</svg>
