<?xml version="1.0" encoding="UTF-8" standalone="no"?>
<!DOCTYPE svg PUBLIC "-//W3C//DTD SVG 1.1//EN"
 "http://www.w3.org/Graphics/SVG/1.1/DTD/svg11.dtd">
<!-- Generated by graphviz version 2.43.0 (0)
 -->
<!-- Title: cam.nc.emc2.Creator.program_begin Pages: 1 -->
<svg width="1252pt" height="487pt"
 viewBox="0.00 0.00 1252.00 486.50" xmlns="http://www.w3.org/2000/svg" xmlns:xlink="http://www.w3.org/1999/xlink">
<g id="graph0" class="graph" transform="scale(1 1) rotate(0) translate(4 482.5)">
<title>cam.nc.emc2.Creator.program_begin</title>
<!-- Node1 -->
<g id="Node000001" class="node">
<title>Node1</title>
<g id="a_Node000001"><a xlink:title="Programs.">
<polygon fill="#999999" stroke="#666666" points="164,-291 0,-291 0,-261 164,-261 164,-291"/>
<text text-anchor="start" x="8" y="-279" font-family="Helvetica,sans-Serif" font-size="10.00">cam.nc.emc2.Creator.program</text>
<text text-anchor="middle" x="82" y="-268" font-family="Helvetica,sans-Serif" font-size="10.00">_begin</text>
</a>
</g>
</g>
<!-- Node2 -->
<g id="Node000002" class="node">
<title>Node2</title>
<g id="a_Node000002"><a xlink:href="$classcam_1_1nc_1_1cad__nc__read_1_1Parser.html#adcf2f47949df29f187f27fe985884633" xlink:title=" ">
<polygon fill="white" stroke="#666666" points="387.5,-460.5 211.5,-460.5 211.5,-441.5 387.5,-441.5 387.5,-460.5"/>
<text text-anchor="middle" x="299.5" y="-448.5" font-family="Helvetica,sans-Serif" font-size="10.00">cam.nc.cad_nc_read.Parser.write</text>
</a>
</g>
</g>
<!-- Node1&#45;&gt;Node2 -->
<g id="edge27_Node000001_Node000002" class="edge">
<title>Node1&#45;&gt;Node2</title>
<g id="a_edge27_Node000001_Node000002"><a xlink:title=" ">
<path fill="none" stroke="#63b8ff" d="M89.49,-291.06C104.1,-323 142.82,-397.5 200,-433 202.65,-434.64 205.41,-436.14 208.25,-437.52"/>
<polygon fill="#63b8ff" stroke="#63b8ff" points="207,-440.79 217.58,-441.47 209.73,-434.34 207,-440.79"/>
</a>
</g>
</g>
<!-- Node3 -->
<g id="Node000003" class="node">
<title>Node3</title>
<g id="a_Node000003"><a xlink:href="$classcam_1_1nc_1_1hxml__writer_1_1HxmlWriter.html#aed6f93c98cb8c0e3f3e826e75b6d6f15" xlink:title=" ">
<polygon fill="white" stroke="#666666" points="399,-405.5 200,-405.5 200,-386.5 399,-386.5 399,-405.5"/>
<text text-anchor="middle" x="299.5" y="-393.5" font-family="Helvetica,sans-Serif" font-size="10.00">cam.nc.hxml_writer.HxmlWriter.write</text>
</a>
</g>
</g>
<!-- Node1&#45;&gt;Node3 -->
<g id="edge29_Node000001_Node000003" class="edge">
<title>Node1&#45;&gt;Node3</title>
<g id="a_edge29_Node000001_Node000003"><a xlink:title=" ">
<path fill="none" stroke="#63b8ff" d="M95.6,-291.31C115.32,-314.14 155.81,-356.72 200,-378 204.12,-379.98 208.43,-381.75 212.86,-383.32"/>
<polygon fill="#63b8ff" stroke="#63b8ff" points="212.09,-386.75 222.68,-386.47 214.22,-380.09 212.09,-386.75"/>
</a>
</g>
</g>
<!-- Node4 -->
<g id="Node000004" class="node">
<title>Node4</title>
<g id="a_Node000004"><a xlink:href="$classcam_1_1nc_1_1iso_1_1Creator.html#abb81af5a0bdddfed387b71b68a51cc7a" xlink:title="Internals.">
<polygon fill="white" stroke="#666666" points="367,-368.5 232,-368.5 232,-349.5 367,-349.5 367,-368.5"/>
<text text-anchor="middle" x="299.5" y="-356.5" font-family="Helvetica,sans-Serif" font-size="10.00">cam.nc.iso.Creator.write</text>
</a>
</g>
</g>
<!-- Node1&#45;&gt;Node4 -->
<g id="edge31_Node000001_Node000004" class="edge">
<title>Node1&#45;&gt;Node4</title>
<g id="a_edge31_Node000001_Node000004"><a xlink:title=" ">
<path fill="none" stroke="#63b8ff" d="M105.25,-291.28C128.05,-306.21 165,-328.46 200,-341 207,-343.51 214.41,-345.68 221.89,-347.56"/>
<polygon fill="#63b8ff" stroke="#63b8ff" points="221.22,-350.99 231.75,-349.86 222.81,-344.18 221.22,-350.99"/>
</a>
</g>
</g>
<!-- Node5 -->
<g id="Node000005" class="node">
<title>Node5</title>
<g id="a_Node000005"><a xlink:href="$classcam_1_1nc_1_1nc_1_1Creator.html#a80f2134add83bfaaf2870d075d36ed8a" xlink:title=" ">
<polygon fill="white" stroke="#666666" points="365.5,-313.5 233.5,-313.5 233.5,-294.5 365.5,-294.5 365.5,-313.5"/>
<text text-anchor="middle" x="299.5" y="-301.5" font-family="Helvetica,sans-Serif" font-size="10.00">cam.nc.nc.Creator.write</text>
</a>
</g>
</g>
<!-- Node1&#45;&gt;Node5 -->
<g id="edge32_Node000001_Node000005" class="edge">
<title>Node1&#45;&gt;Node5</title>
<g id="a_edge32_Node000001_Node000005"><a xlink:title=" ">
<path fill="none" stroke="#63b8ff" d="M164.16,-286.55C183.48,-289.06 204.01,-291.72 223.06,-294.2"/>
<polygon fill="#63b8ff" stroke="#63b8ff" points="222.81,-297.69 233.17,-295.51 223.71,-290.75 222.81,-297.69"/>
</a>
</g>
</g>
<!-- Node6 -->
<g id="Node000006" class="node">
<title>Node6</title>
<g id="a_Node000006"><a xlink:href="$classcam_1_1nc_1_1nclathe__read_1_1Parser.html#ab5ea283b461b57e48c8d5b0ad0a45694" xlink:title=" ">
<polygon fill="white" stroke="#666666" points="388.5,-258.5 210.5,-258.5 210.5,-239.5 388.5,-239.5 388.5,-258.5"/>
<text text-anchor="middle" x="299.5" y="-246.5" font-family="Helvetica,sans-Serif" font-size="10.00">cam.nc.nclathe_read.Parser.write</text>
</a>
</g>
</g>
<!-- Node1&#45;&gt;Node6 -->
<g id="edge34_Node000001_Node000006" class="edge">
<title>Node1&#45;&gt;Node6</title>
<g id="a_edge34_Node000001_Node000006"><a xlink:title=" ">
<path fill="none" stroke="#63b8ff" d="M164.16,-265.83C179.82,-263.87 196.28,-261.81 212.1,-259.82"/>
<polygon fill="#63b8ff" stroke="#63b8ff" points="212.9,-263.25 222.39,-258.54 212.03,-256.31 212.9,-263.25"/>
</a>
</g>
</g>
<!-- Node7 -->
<g id="Node000007" class="node">
<title>Node7</title>
<g id="a_Node000007"><a xlink:href="$classcam_1_1nc_1_1recreator_1_1Redirector.html#a79cc974683588db3ef959189e7552c0d" xlink:title="Programs.">
<polygon fill="white" stroke="#666666" points="389,-203.5 210,-203.5 210,-184.5 389,-184.5 389,-203.5"/>
<text text-anchor="middle" x="299.5" y="-191.5" font-family="Helvetica,sans-Serif" font-size="10.00">cam.nc.recreator.Redirector.write</text>
</a>
</g>
</g>
<!-- Node1&#45;&gt;Node7 -->
<g id="edge36_Node000001_Node000007" class="edge">
<title>Node1&#45;&gt;Node7</title>
<g id="a_edge36_Node000001_Node000007"><a xlink:title=" ">
<path fill="none" stroke="#63b8ff" d="M121.97,-260.92C144.71,-252.15 173.96,-240.9 200,-231 221.08,-222.99 244.74,-214.09 263.59,-207.04"/>
<polygon fill="#63b8ff" stroke="#63b8ff" points="264.83,-210.31 272.97,-203.53 262.38,-203.75 264.83,-210.31"/>
</a>
</g>
</g>
<!-- Node8 -->
<g id="Node000008" class="node">
<title>Node8</title>
<g id="a_Node000008"><a xlink:href="$classcam_1_1nc_1_1format_1_1Address.html#aa21f0ffeb829537d9103759276c01a4b" xlink:title=" ">
<polygon fill="white" stroke="#666666" points="378.5,-166.5 220.5,-166.5 220.5,-147.5 378.5,-147.5 378.5,-166.5"/>
<text text-anchor="middle" x="299.5" y="-154.5" font-family="Helvetica,sans-Serif" font-size="10.00">cam.nc.format.Address.write</text>
</a>
</g>
</g>
<!-- Node1&#45;&gt;Node8 -->
<g id="edge38_Node000001_Node000008" class="edge">
<title>Node1&#45;&gt;Node8</title>
<g id="a_edge38_Node000001_Node000008"><a xlink:title=" ">
<path fill="none" stroke="#63b8ff" d="M96.02,-260.68C115.98,-238.29 156.43,-196.99 200,-176 205.05,-173.57 210.39,-171.45 215.86,-169.6"/>
<polygon fill="#63b8ff" stroke="#63b8ff" points="217.28,-172.82 225.82,-166.55 215.24,-166.13 217.28,-172.82"/>
</a>
</g>
</g>
<!-- Node19 -->
<g id="Node000019" class="node">
<title>Node19</title>
<g id="a_Node000019"><a xlink:href="$classcam_1_1nc_1_1format_1_1AddressPlusMinus.html#aaacea4c7b677f0a602dbc9023ff365d2" xlink:title=" ">
<polygon fill="white" stroke="#666666" points="374.5,-129 224.5,-129 224.5,-99 374.5,-99 374.5,-129"/>
<text text-anchor="start" x="232.5" y="-117" font-family="Helvetica,sans-Serif" font-size="10.00">cam.nc.format.AddressPlus</text>
<text text-anchor="middle" x="299.5" y="-106" font-family="Helvetica,sans-Serif" font-size="10.00">Minus.write</text>
</a>
</g>
</g>
<!-- Node1&#45;&gt;Node19 -->
<g id="edge51_Node000001_Node000019" class="edge">
<title>Node1&#45;&gt;Node19</title>
<g id="a_edge51_Node000001_Node000019"><a xlink:title=" ">
<path fill="none" stroke="#63b8ff" d="M91.4,-260.83C108.11,-232.11 148.42,-169.86 200,-138 204.68,-135.11 209.68,-132.57 214.87,-130.33"/>
<polygon fill="#63b8ff" stroke="#63b8ff" points="216.31,-133.53 224.35,-126.63 213.76,-127.01 216.31,-133.53"/>
</a>
</g>
</g>
<!-- Node2&#45;&gt;Node2 -->
<g id="edge28_Node000002_Node000002" class="edge">
<title>Node2&#45;&gt;Node2</title>
<g id="a_edge28_Node000002_Node000002"><a xlink:title=" ">
<path fill="none" stroke="#63b8ff" d="M266.21,-460.58C250.01,-469.23 261.11,-478.5 299.5,-478.5 327.09,-478.5 340.59,-473.71 339.98,-467.81"/>
<polygon fill="#63b8ff" stroke="#63b8ff" points="342.33,-465.2 332.79,-460.58 337.36,-470.14 342.33,-465.2"/>
</a>
</g>
</g>
<!-- Node3&#45;&gt;Node3 -->
<g id="edge30_Node000003_Node000003" class="edge">
<title>Node3&#45;&gt;Node3</title>
<g id="a_edge30_Node000003_Node000003"><a xlink:title=" ">
<path fill="none" stroke="#63b8ff" d="M266.21,-405.58C250.01,-414.23 261.11,-423.5 299.5,-423.5 327.09,-423.5 340.59,-418.71 339.98,-412.81"/>
<polygon fill="#63b8ff" stroke="#63b8ff" points="342.33,-410.2 332.79,-405.58 337.36,-415.14 342.33,-410.2"/>
</a>
</g>
</g>
<!-- Node5&#45;&gt;Node5 -->
<g id="edge33_Node000005_Node000005" class="edge">
<title>Node5&#45;&gt;Node5</title>
<g id="a_edge33_Node000005_Node000005"><a xlink:title=" ">
<path fill="none" stroke="#63b8ff" d="M266.21,-313.58C250.01,-322.23 261.11,-331.5 299.5,-331.5 327.09,-331.5 340.59,-326.71 339.98,-320.81"/>
<polygon fill="#63b8ff" stroke="#63b8ff" points="342.33,-318.2 332.79,-313.58 337.36,-323.14 342.33,-318.2"/>
</a>
</g>
</g>
<!-- Node6&#45;&gt;Node6 -->
<g id="edge35_Node000006_Node000006" class="edge">
<title>Node6&#45;&gt;Node6</title>
<g id="a_edge35_Node000006_Node000006"><a xlink:title=" ">
<path fill="none" stroke="#63b8ff" d="M266.21,-258.58C250.01,-267.23 261.11,-276.5 299.5,-276.5 327.09,-276.5 340.59,-271.71 339.98,-265.81"/>
<polygon fill="#63b8ff" stroke="#63b8ff" points="342.33,-263.2 332.79,-258.58 337.36,-268.14 342.33,-263.2"/>
</a>
</g>
</g>
<!-- Node7&#45;&gt;Node7 -->
<g id="edge37_Node000007_Node000007" class="edge">
<title>Node7&#45;&gt;Node7</title>
<g id="a_edge37_Node000007_Node000007"><a xlink:title=" ">
<path fill="none" stroke="#63b8ff" d="M266.21,-203.58C250.01,-212.23 261.11,-221.5 299.5,-221.5 327.09,-221.5 340.59,-216.71 339.98,-210.81"/>
<polygon fill="#63b8ff" stroke="#63b8ff" points="342.33,-208.2 332.79,-203.58 337.36,-213.14 342.33,-208.2"/>
</a>
</g>
</g>
<!-- Node9 -->
<g id="Node000009" class="node">
<title>Node9</title>
<g id="a_Node000009"><a xlink:href="$classcam_1_1async__op_1_1AsyncOperatorMixin.html#a9628cbca8e69ec75b2337171a02bf428" xlink:title=" ">
<polygon fill="white" stroke="#666666" points="596,-150 435,-150 435,-120 596,-120 596,-150"/>
<text text-anchor="start" x="443" y="-138" font-family="Helvetica,sans-Serif" font-size="10.00">cam.async_op.AsyncOperator</text>
<text text-anchor="middle" x="515.5" y="-127" font-family="Helvetica,sans-Serif" font-size="10.00">Mixin.modal</text>
</a>
</g>
</g>
<!-- Node8&#45;&gt;Node9 -->
<g id="edge39_Node000008_Node000009" class="edge">
<title>Node8&#45;&gt;Node9</title>
<g id="a_edge39_Node000008_Node000009"><a xlink:title=" ">
<path fill="none" stroke="#63b8ff" d="M378.67,-148.96C393.65,-147.42 409.45,-145.8 424.77,-144.22"/>
<polygon fill="#63b8ff" stroke="#63b8ff" points="425.16,-147.7 434.75,-143.2 424.45,-140.74 425.16,-147.7"/>
</a>
</g>
</g>
<!-- Node10 -->
<g id="Node000010" class="node">
<title>Node10</title>
<g id="a_Node000010"><a xlink:href="$classcam_1_1async__op_1_1AsyncOperatorMixin.html#a15a51cfd69d8e453e2e3d64386b1ebe3" xlink:title=" ">
<polygon fill="white" stroke="#666666" points="793,-150 632,-150 632,-120 793,-120 793,-150"/>
<text text-anchor="start" x="640" y="-138" font-family="Helvetica,sans-Serif" font-size="10.00">cam.async_op.AsyncOperator</text>
<text text-anchor="middle" x="712.5" y="-127" font-family="Helvetica,sans-Serif" font-size="10.00">Mixin.tick</text>
</a>
</g>
</g>
<!-- Node9&#45;&gt;Node10 -->
<g id="edge40_Node000009_Node000010" class="edge">
<title>Node9&#45;&gt;Node10</title>
<g id="a_edge40_Node000009_Node000010"><a xlink:title=" ">
<path fill="none" stroke="#63b8ff" d="M596.1,-135C604.57,-135 613.24,-135 621.82,-135"/>
<polygon fill="#63b8ff" stroke="#63b8ff" points="621.84,-138.5 631.84,-135 621.84,-131.5 621.84,-138.5"/>
</a>
</g>
</g>
<!-- Node11 -->
<g id="Node000011" class="node">
<title>Node11</title>
<g id="a_Node000011"><a xlink:href="$classcam_1_1async__op_1_1AsyncTestOperator.html#a42606ca890a957aa7070a4bc6f25228b" xlink:title=" ">
<polygon fill="white" stroke="#666666" points="1050,-270 829,-270 829,-240 1050,-240 1050,-270"/>
<text text-anchor="start" x="837" y="-258" font-family="Helvetica,sans-Serif" font-size="10.00">cam.async_op.AsyncTestOperator.execute</text>
<text text-anchor="middle" x="939.5" y="-247" font-family="Helvetica,sans-Serif" font-size="10.00">_async</text>
</a>
</g>
</g>
<!-- Node10&#45;&gt;Node11 -->
<g id="edge41_Node000010_Node000011" class="edge">
<title>Node10&#45;&gt;Node11</title>
<g id="a_edge41_Node000010_Node000011"><a xlink:title=" ">
<path fill="none" stroke="#63b8ff" d="M727.18,-150.27C747.31,-171.74 787.07,-210.51 829,-231 833.09,-233 837.35,-234.84 841.72,-236.52"/>
<polygon fill="#63b8ff" stroke="#63b8ff" points="840.81,-239.91 851.41,-239.97 843.16,-233.32 840.81,-239.91"/>
</a>
</g>
</g>
<!-- Node12 -->
<g id="Node000012" class="node">
<title>Node12</title>
<g id="a_Node000012"><a xlink:href="$classcam_1_1ops_1_1CalculatePath.html#a13dfe2f8578383234e74e58e2f292e1b" xlink:title=" ">
<polygon fill="white" stroke="#666666" points="1024,-222 855,-222 855,-192 1024,-192 1024,-222"/>
<text text-anchor="start" x="863" y="-210" font-family="Helvetica,sans-Serif" font-size="10.00">cam.ops.CalculatePath.execute</text>
<text text-anchor="middle" x="939.5" y="-199" font-family="Helvetica,sans-Serif" font-size="10.00">_async</text>
</a>
</g>
</g>
<!-- Node10&#45;&gt;Node12 -->
<g id="edge42_Node000010_Node000012" class="edge">
<title>Node10&#45;&gt;Node12</title>
<g id="a_edge42_Node000010_Node000012"><a xlink:title=" ">
<path fill="none" stroke="#63b8ff" d="M745.29,-150.01C768.18,-160.38 800,-173.88 829,-183 836.31,-185.3 843.96,-187.46 851.68,-189.47"/>
<polygon fill="#63b8ff" stroke="#63b8ff" points="850.91,-192.89 861.46,-191.93 852.62,-186.1 850.91,-192.89"/>
</a>
</g>
</g>
<!-- Node14 -->
<g id="Node000014" class="node">
<title>Node14</title>
<g id="a_Node000014"><a xlink:href="$classcam_1_1ops_1_1PathsChain.html#a6fc64e383ccf724b2325e18a82d53eae" xlink:title=" ">
<polygon fill="white" stroke="#666666" points="1017.5,-174 861.5,-174 861.5,-144 1017.5,-144 1017.5,-174"/>
<text text-anchor="start" x="869.5" y="-162" font-family="Helvetica,sans-Serif" font-size="10.00">cam.ops.PathsChain.execute</text>
<text text-anchor="middle" x="939.5" y="-151" font-family="Helvetica,sans-Serif" font-size="10.00">_async</text>
</a>
</g>
</g>
<!-- Node10&#45;&gt;Node14 -->
<g id="edge44_Node000010_Node000014" class="edge">
<title>Node10&#45;&gt;Node14</title>
<g id="a_edge44_Node000010_Node000014"><a xlink:title=" ">
<path fill="none" stroke="#63b8ff" d="M793.14,-143.5C811.9,-145.5 831.98,-147.64 851.06,-149.67"/>
<polygon fill="#63b8ff" stroke="#63b8ff" points="850.92,-153.18 861.23,-150.76 851.66,-146.22 850.92,-153.18"/>
</a>
</g>
</g>
<!-- Node16 -->
<g id="Node000016" class="node">
<title>Node16</title>
<g id="a_Node000016"><a xlink:href="$classcam_1_1ops_1_1CAMSimulate.html#a633151f17849d281fd52ce82c00356a7" xlink:title=" ">
<polygon fill="white" stroke="#666666" points="1023.5,-126 855.5,-126 855.5,-96 1023.5,-96 1023.5,-126"/>
<text text-anchor="start" x="863.5" y="-114" font-family="Helvetica,sans-Serif" font-size="10.00">cam.ops.CAMSimulate.execute</text>
<text text-anchor="middle" x="939.5" y="-103" font-family="Helvetica,sans-Serif" font-size="10.00">_async</text>
</a>
</g>
</g>
<!-- Node10&#45;&gt;Node16 -->
<g id="edge47_Node000010_Node000016" class="edge">
<title>Node10&#45;&gt;Node16</title>
<g id="a_edge47_Node000010_Node000016"><a xlink:title=" ">
<path fill="none" stroke="#63b8ff" d="M793.14,-126.5C809.95,-124.71 827.82,-122.81 845.08,-120.97"/>
<polygon fill="#63b8ff" stroke="#63b8ff" points="845.58,-124.43 855.15,-119.89 844.84,-117.47 845.58,-124.43"/>
</a>
</g>
</g>
<!-- Node17 -->
<g id="Node000017" class="node">
<title>Node17</title>
<g id="a_Node000017"><a xlink:href="$classcam_1_1ops_1_1CAMSimulateChain.html#a1e77c7ce21b3b7e3e38a12b6b62517e9" xlink:title=" ">
<polygon fill="white" stroke="#666666" points="1037.5,-78 841.5,-78 841.5,-48 1037.5,-48 1037.5,-78"/>
<text text-anchor="start" x="849.5" y="-66" font-family="Helvetica,sans-Serif" font-size="10.00">cam.ops.CAMSimulateChain.execute</text>
<text text-anchor="middle" x="939.5" y="-55" font-family="Helvetica,sans-Serif" font-size="10.00">_async</text>
</a>
</g>
</g>
<!-- Node10&#45;&gt;Node17 -->
<g id="edge48_Node000010_Node000017" class="edge">
<title>Node10&#45;&gt;Node17</title>
<g id="a_edge48_Node000010_Node000017"><a xlink:title=" ">
<path fill="none" stroke="#63b8ff" d="M745.29,-119.99C768.18,-109.62 800,-96.12 829,-87 836.31,-84.7 843.96,-82.54 851.68,-80.53"/>
<polygon fill="#63b8ff" stroke="#63b8ff" points="852.62,-83.9 861.46,-78.07 850.91,-77.11 852.62,-83.9"/>
</a>
</g>
</g>
<!-- Node18 -->
<g id="Node000018" class="node">
<title>Node18</title>
<g id="a_Node000018"><a xlink:href="$classcam_1_1async__op_1_1AsyncOperatorMixin.html#a2216ff6bb0dfd132f4ec4cf79b7cba2b" xlink:title=" ">
<polygon fill="white" stroke="#666666" points="1020,-30 859,-30 859,0 1020,0 1020,-30"/>
<text text-anchor="start" x="867" y="-18" font-family="Helvetica,sans-Serif" font-size="10.00">cam.async_op.AsyncOperator</text>
<text text-anchor="middle" x="939.5" y="-7" font-family="Helvetica,sans-Serif" font-size="10.00">Mixin.show_progress</text>
</a>
</g>
</g>
<!-- Node10&#45;&gt;Node18 -->
<g id="edge50_Node000010_Node000018" class="edge">
<title>Node10&#45;&gt;Node18</title>
<g id="a_edge50_Node000010_Node000018"><a xlink:title=" ">
<path fill="none" stroke="#63b8ff" d="M727.18,-119.73C747.31,-98.26 787.07,-59.49 829,-39 835.43,-35.86 842.27,-33.12 849.28,-30.74"/>
<polygon fill="#63b8ff" stroke="#63b8ff" points="850.42,-34.05 858.91,-27.71 848.32,-27.37 850.42,-34.05"/>
</a>
</g>
</g>
<!-- Node13 -->
<g id="Node000013" class="node">
<title>Node13</title>
<g id="a_Node000013"><a xlink:href="$namespacecam_1_1ops.html#aa8e95f7410a7ceb178db48f4f8c2d995" xlink:title=" ">
<polygon fill="white" stroke="#666666" points="1221.5,-192.5 1108.5,-192.5 1108.5,-173.5 1221.5,-173.5 1221.5,-192.5"/>
<text text-anchor="middle" x="1165" y="-180.5" font-family="Helvetica,sans-Serif" font-size="10.00">cam.ops._calc_path</text>
</a>
</g>
</g>
<!-- Node12&#45;&gt;Node13 -->
<g id="edge43_Node000012_Node000013" class="edge">
<title>Node12&#45;&gt;Node13</title>
<g id="a_edge43_Node000012_Node000013"><a xlink:title=" ">
<path fill="none" stroke="#63b8ff" d="M1024.04,-198.03C1048.56,-195.4 1075.01,-192.56 1098.25,-190.06"/>
<polygon fill="#63b8ff" stroke="#63b8ff" points="1098.77,-193.52 1108.34,-188.98 1098.03,-186.56 1098.77,-193.52"/>
</a>
</g>
</g>
<!-- Node14&#45;&gt;Node13 -->
<g id="edge45_Node000014_Node000013" class="edge">
<title>Node14&#45;&gt;Node13</title>
<g id="a_edge45_Node000014_Node000013"><a xlink:title=" ">
<path fill="none" stroke="#63b8ff" d="M1017.73,-167.29C1043.9,-170.1 1072.87,-173.21 1098.08,-175.92"/>
<polygon fill="#63b8ff" stroke="#63b8ff" points="1097.95,-179.43 1108.27,-177.02 1098.7,-172.47 1097.95,-179.43"/>
</a>
</g>
</g>
<!-- Node15 -->
<g id="Node000015" class="node">
<title>Node15</title>
<g id="a_Node000015"><a xlink:href="$namespacecam_1_1ops.html#ab55fb8ec9a00e021e8e4a1c3ecc97cb4" xlink:title=" ">
<polygon fill="white" stroke="#666666" points="1244,-126.5 1086,-126.5 1086,-107.5 1244,-107.5 1244,-126.5"/>
<text text-anchor="middle" x="1165" y="-114.5" font-family="Helvetica,sans-Serif" font-size="10.00">cam.ops.getChainOperations</text>
</a>
</g>
</g>
<!-- Node14&#45;&gt;Node15 -->
<g id="edge46_Node000014_Node000015" class="edge">
<title>Node14&#45;&gt;Node15</title>
<g id="a_edge46_Node000014_Node000015"><a xlink:title=" ">
<path fill="none" stroke="#63b8ff" d="M1017.73,-144.49C1045.81,-139.21 1077.12,-133.33 1103.54,-128.36"/>
<polygon fill="#63b8ff" stroke="#63b8ff" points="1104.23,-131.79 1113.41,-126.51 1102.94,-124.91 1104.23,-131.79"/>
</a>
</g>
</g>
<!-- Node17&#45;&gt;Node15 -->
<g id="edge49_Node000017_Node000015" class="edge">
<title>Node17&#45;&gt;Node15</title>
<g id="a_edge49_Node000017_Node000015"><a xlink:title=" ">
<path fill="none" stroke="#63b8ff" d="M1011.28,-78.06C1024.19,-80.94 1037.51,-83.99 1050,-87 1072.91,-92.52 1098.28,-99.15 1119.25,-104.77"/>
<polygon fill="#63b8ff" stroke="#63b8ff" points="1118.6,-108.21 1129.17,-107.43 1120.42,-101.45 1118.6,-108.21"/>
</a>
</g>
</g>
<!-- Node19&#45;&gt;Node9 -->
<g id="edge52_Node000019_Node000009" class="edge">
<title>Node19&#45;&gt;Node9</title>
<g id="a_edge52_Node000019_Node000009"><a xlink:title=" ">
<path fill="none" stroke="#63b8ff" d="M374.75,-121.29C390.84,-122.87 408.03,-124.55 424.65,-126.18"/>
<polygon fill="#63b8ff" stroke="#63b8ff" points="424.62,-129.7 434.92,-127.19 425.3,-122.73 424.62,-129.7"/>
</a>
</g>
</g>
</g>
</svg>
