<?xml version="1.0" encoding="UTF-8" standalone="no"?>
<!DOCTYPE svg PUBLIC "-//W3C//DTD SVG 1.1//EN"
 "http://www.w3.org/Graphics/SVG/1.1/DTD/svg11.dtd">
<!-- Generated by graphviz version 2.43.0 (0)
 -->
<!-- Title: cam.nc.cad_nc_read.Parser.add_arc Pages: 1 -->
<svg width="844pt" height="257pt"
 viewBox="0.00 0.00 844.00 256.50" xmlns="http://www.w3.org/2000/svg" xmlns:xlink="http://www.w3.org/1999/xlink">
<g id="graph0" class="graph" transform="scale(1 1) rotate(0) translate(4 252.5)">
<title>cam.nc.cad_nc_read.Parser.add_arc</title>
<!-- Node1 -->
<g id="Node000001" class="node">
<title>Node1</title>
<g id="a_Node000001"><a xlink:title=" ">
<polygon fill="#999999" stroke="#666666" points="836,-144.5 647,-144.5 647,-125.5 836,-125.5 836,-144.5"/>
<text text-anchor="middle" x="741.5" y="-132.5" font-family="Helvetica,sans-Serif" font-size="10.00">cam.nc.cad_nc_read.Parser.add_arc</text>
</a>
</g>
</g>
<!-- Node2 -->
<g id="Node000002" class="node">
<title>Node2</title>
<g id="a_Node000002"><a xlink:href="$classcam_1_1nc_1_1hxml__writer_1_1HxmlWriter.html#aa89fa08595ee9733078e37d1692857f3" xlink:title=" ">
<polygon fill="white" stroke="#666666" points="611,-248.5 398,-248.5 398,-229.5 611,-229.5 611,-248.5"/>
<text text-anchor="middle" x="504.5" y="-236.5" font-family="Helvetica,sans-Serif" font-size="10.00">cam.nc.hxml_writer.HxmlWriter.arc_ccw</text>
</a>
</g>
</g>
<!-- Node1&#45;&gt;Node2 -->
<g id="edge9_Node000001_Node000002" class="edge">
<title>Node1&#45;&gt;Node2</title>
<g id="a_edge9_Node000001_Node000002"><a xlink:title=" ">
<path fill="none" stroke="#63b8ff" d="M721.71,-151.21C697.72,-170.99 654.12,-203.9 611,-221 602.36,-224.43 593.08,-227.2 583.72,-229.45"/>
<polygon fill="#63b8ff" stroke="#63b8ff" points="724.22,-153.68 729.63,-144.57 719.72,-148.32 724.22,-153.68"/>
</a>
</g>
</g>
<!-- Node3 -->
<g id="Node000003" class="node">
<title>Node3</title>
<g id="a_Node000003"><a xlink:href="$classcam_1_1nc_1_1hxml__writer_1_1HxmlWriter.html#a403fdf3735ec6e70365ddac2a134222f" xlink:title=" ">
<polygon fill="white" stroke="#666666" points="608.5,-211.5 400.5,-211.5 400.5,-192.5 608.5,-192.5 608.5,-211.5"/>
<text text-anchor="middle" x="504.5" y="-199.5" font-family="Helvetica,sans-Serif" font-size="10.00">cam.nc.hxml_writer.HxmlWriter.arc_cw</text>
</a>
</g>
</g>
<!-- Node1&#45;&gt;Node3 -->
<g id="edge10_Node000001_Node000003" class="edge">
<title>Node1&#45;&gt;Node3</title>
<g id="a_edge10_Node000001_Node000003"><a xlink:title=" ">
<path fill="none" stroke="#63b8ff" d="M709.12,-148.41C683.21,-159.05 645.25,-173.65 611,-183 597.54,-186.68 582.9,-189.83 568.95,-192.45"/>
<polygon fill="#63b8ff" stroke="#63b8ff" points="710.54,-151.61 718.43,-144.55 707.86,-145.15 710.54,-151.61"/>
</a>
</g>
</g>
<!-- Node4 -->
<g id="Node000004" class="node">
<title>Node4</title>
<g id="a_Node000004"><a xlink:href="$classcam_1_1nc_1_1cad__iso__read_1_1Parser.html#abf885d019794a8bef1b69f446c8851e1" xlink:title=" ">
<polygon fill="white" stroke="#666666" points="581.5,-174 427.5,-174 427.5,-144 581.5,-144 581.5,-174"/>
<text text-anchor="start" x="435.5" y="-162" font-family="Helvetica,sans-Serif" font-size="10.00">cam.nc.cad_iso_read.Parser.</text>
<text text-anchor="middle" x="504.5" y="-151" font-family="Helvetica,sans-Serif" font-size="10.00">Parse</text>
</a>
</g>
</g>
<!-- Node1&#45;&gt;Node4 -->
<g id="edge11_Node000001_Node000004" class="edge">
<title>Node1&#45;&gt;Node4</title>
<g id="a_edge11_Node000001_Node000004"><a xlink:title=" ">
<path fill="none" stroke="#63b8ff" d="M637.26,-145.54C618.55,-147.45 599.36,-149.41 581.61,-151.23"/>
<polygon fill="#63b8ff" stroke="#63b8ff" points="637.69,-149.02 647.28,-144.52 636.98,-142.05 637.69,-149.02"/>
</a>
</g>
</g>
<!-- Node5 -->
<g id="Node000005" class="node">
<title>Node5</title>
<g id="a_Node000005"><a xlink:href="$classcam_1_1nc_1_1cad__read_1_1CAD__backplot.html#afce7c30e482cfb88a36593d4020909d7" xlink:title=" ">
<polygon fill="white" stroke="#666666" points="566,-126 443,-126 443,-96 566,-96 566,-126"/>
<text text-anchor="start" x="451" y="-114" font-family="Helvetica,sans-Serif" font-size="10.00">cam.nc.cad_read.CAD</text>
<text text-anchor="middle" x="504.5" y="-103" font-family="Helvetica,sans-Serif" font-size="10.00">_backplot.Parse</text>
</a>
</g>
</g>
<!-- Node1&#45;&gt;Node5 -->
<g id="edge12_Node000001_Node000005" class="edge">
<title>Node1&#45;&gt;Node5</title>
<g id="a_edge12_Node000001_Node000005"><a xlink:title=" ">
<path fill="none" stroke="#63b8ff" d="M637.3,-124.46C613,-121.98 587.87,-119.41 566.16,-117.2"/>
<polygon fill="#63b8ff" stroke="#63b8ff" points="636.98,-127.95 647.28,-125.48 637.69,-120.98 636.98,-127.95"/>
</a>
</g>
</g>
<!-- Node6 -->
<g id="Node000006" class="node">
<title>Node6</title>
<g id="a_Node000006"><a xlink:href="$classcam_1_1nc_1_1lathe1__read_1_1Parser.html#a4046e981f4f946bed728de957d10365f" xlink:title=" ">
<polygon fill="white" stroke="#666666" points="578.5,-78 430.5,-78 430.5,-48 578.5,-48 578.5,-78"/>
<text text-anchor="start" x="438.5" y="-66" font-family="Helvetica,sans-Serif" font-size="10.00">cam.nc.lathe1_read.Parser.</text>
<text text-anchor="middle" x="504.5" y="-55" font-family="Helvetica,sans-Serif" font-size="10.00">Parse</text>
</a>
</g>
</g>
<!-- Node1&#45;&gt;Node6 -->
<g id="edge13_Node000001_Node000006" class="edge">
<title>Node1&#45;&gt;Node6</title>
<g id="a_edge13_Node000001_Node000006"><a xlink:title=" ">
<path fill="none" stroke="#63b8ff" d="M708.07,-121.63C682.11,-111.26 644.62,-97.01 611,-87 600.2,-83.78 588.66,-80.76 577.33,-78.01"/>
<polygon fill="#63b8ff" stroke="#63b8ff" points="706.83,-124.9 717.42,-125.4 709.45,-118.41 706.83,-124.9"/>
</a>
</g>
</g>
<!-- Node7 -->
<g id="Node000007" class="node">
<title>Node7</title>
<g id="a_Node000007"><a xlink:href="$classcam_1_1nc_1_1hpgl2d__read_1_1Parser.html#afa14f139b2b41ae0e70c8ee16d661e31" xlink:title=" ">
<polygon fill="white" stroke="#666666" points="579.5,-30 429.5,-30 429.5,0 579.5,0 579.5,-30"/>
<text text-anchor="start" x="437.5" y="-18" font-family="Helvetica,sans-Serif" font-size="10.00">cam.nc.hpgl2d_read.Parser.</text>
<text text-anchor="middle" x="504.5" y="-7" font-family="Helvetica,sans-Serif" font-size="10.00">ParseAA</text>
</a>
</g>
</g>
<!-- Node1&#45;&gt;Node7 -->
<g id="edge14_Node000001_Node000007" class="edge">
<title>Node1&#45;&gt;Node7</title>
<g id="a_edge14_Node000001_Node000007"><a xlink:title=" ">
<path fill="none" stroke="#63b8ff" d="M723.31,-118.51C699.84,-96.94 655.59,-59.49 611,-39 601.19,-34.49 590.46,-30.79 579.72,-27.78"/>
<polygon fill="#63b8ff" stroke="#63b8ff" points="721.01,-121.16 730.71,-125.43 725.79,-116.04 721.01,-121.16"/>
</a>
</g>
</g>
<!-- Node8 -->
<g id="Node000008" class="node">
<title>Node8</title>
<g id="a_Node000008"><a xlink:href="$classcam_1_1nc_1_1hpgl2d__read_1_1Parser.html#a0b707cfa8f85f48082f4e827cd2e4de2" xlink:title=" ">
<polygon fill="white" stroke="#666666" points="362,-30 212,-30 212,0 362,0 362,-30"/>
<text text-anchor="start" x="220" y="-18" font-family="Helvetica,sans-Serif" font-size="10.00">cam.nc.hpgl2d_read.Parser.</text>
<text text-anchor="middle" x="287" y="-7" font-family="Helvetica,sans-Serif" font-size="10.00">ParseFromFirstLetter</text>
</a>
</g>
</g>
<!-- Node7&#45;&gt;Node8 -->
<g id="edge15_Node000007_Node000008" class="edge">
<title>Node7&#45;&gt;Node8</title>
<g id="a_edge15_Node000007_Node000008"><a xlink:title=" ">
<path fill="none" stroke="#63b8ff" d="M419.31,-15C400.5,-15 380.68,-15 362.3,-15"/>
<polygon fill="#63b8ff" stroke="#63b8ff" points="419.34,-18.5 429.34,-15 419.34,-11.5 419.34,-18.5"/>
</a>
</g>
</g>
<!-- Node9 -->
<g id="Node000009" class="node">
<title>Node9</title>
<g id="a_Node000009"><a xlink:href="$classcam_1_1nc_1_1num__reader_1_1NumReader.html#ae908a2956d1e0cfd474a47540bee9759" xlink:title=" ">
<polygon fill="white" stroke="#666666" points="176,-30 0,-30 0,0 176,0 176,-30"/>
<text text-anchor="start" x="8" y="-18" font-family="Helvetica,sans-Serif" font-size="10.00">cam.nc.num_reader.NumReader.</text>
<text text-anchor="middle" x="88" y="-7" font-family="Helvetica,sans-Serif" font-size="10.00">Parse</text>
</a>
</g>
</g>
<!-- Node8&#45;&gt;Node9 -->
<g id="edge16_Node000008_Node000009" class="edge">
<title>Node8&#45;&gt;Node9</title>
<g id="a_edge16_Node000008_Node000009"><a xlink:title=" ">
<path fill="none" stroke="#63b8ff" d="M201.58,-15C193.12,-15 184.53,-15 176.05,-15"/>
<polygon fill="#63b8ff" stroke="#63b8ff" points="201.8,-18.5 211.8,-15 201.8,-11.5 201.8,-18.5"/>
</a>
</g>
</g>
</g>
</svg>
