<?xml version="1.0" encoding="UTF-8" standalone="no"?>
<!DOCTYPE svg PUBLIC "-//W3C//DTD SVG 1.1//EN"
 "http://www.w3.org/Graphics/SVG/1.1/DTD/svg11.dtd">
<!-- Generated by graphviz version 2.43.0 (0)
 -->
<!-- Title: cam.nc.makerbot_codes.Codes.METRIC Pages: 1 -->
<svg width="427pt" height="236pt"
 viewBox="0.00 0.00 427.00 235.50" xmlns="http://www.w3.org/2000/svg" xmlns:xlink="http://www.w3.org/1999/xlink">
<g id="graph0" class="graph" transform="scale(1 1) rotate(0) translate(4 231.5)">
<title>cam.nc.makerbot_codes.Codes.METRIC</title>
<!-- Node1 -->
<g id="Node000001" class="node">
<title>Node1</title>
<g id="a_Node000001"><a xlink:title=" ">
<polygon fill="#999999" stroke="#666666" points="419,-128.5 248,-128.5 248,-98.5 419,-98.5 419,-128.5"/>
<text text-anchor="start" x="256" y="-116.5" font-family="Helvetica,sans-Serif" font-size="10.00">cam.nc.makerbot_codes.Codes.</text>
<text text-anchor="middle" x="333.5" y="-105.5" font-family="Helvetica,sans-Serif" font-size="10.00">METRIC</text>
</a>
</g>
</g>
<!-- Node2 -->
<g id="Node000002" class="node">
<title>Node2</title>
<g id="a_Node000002"><a xlink:href="$classcam_1_1nc_1_1anilam__crusader__m_1_1Creator.html#a6977ae2a9c3b4e62d32a2368b0c9c546" xlink:title=" ">
<polygon fill="white" stroke="#666666" points="174,-227.5 38,-227.5 38,-197.5 174,-197.5 174,-227.5"/>
<text text-anchor="start" x="46" y="-215.5" font-family="Helvetica,sans-Serif" font-size="10.00">cam.nc.anilam_crusader</text>
<text text-anchor="middle" x="106" y="-204.5" font-family="Helvetica,sans-Serif" font-size="10.00">_m.Creator.metric</text>
</a>
</g>
</g>
<!-- Node1&#45;&gt;Node2 -->
<g id="edge7_Node000001_Node000002" class="edge">
<title>Node1&#45;&gt;Node2</title>
<g id="a_edge7_Node000001_Node000002"><a xlink:title=" ">
<path fill="none" stroke="#63b8ff" d="M304.61,-134.62C281.07,-151.49 245.89,-174.54 212,-188.5 200.07,-193.41 186.94,-197.42 174.13,-200.66"/>
<polygon fill="#63b8ff" stroke="#63b8ff" points="306.7,-137.42 312.73,-128.71 302.58,-131.76 306.7,-137.42"/>
</a>
</g>
</g>
<!-- Node3 -->
<g id="Node000003" class="node">
<title>Node3</title>
<g id="a_Node000003"><a xlink:href="$classcam_1_1nc_1_1emc2_1_1Creator.html#aeb992900b43f520ce6ccabd8e502c037" xlink:title=" ">
<polygon fill="white" stroke="#666666" points="183.5,-179 28.5,-179 28.5,-160 183.5,-160 183.5,-179"/>
<text text-anchor="middle" x="106" y="-167" font-family="Helvetica,sans-Serif" font-size="10.00">cam.nc.emc2.Creator.metric</text>
</a>
</g>
</g>
<!-- Node1&#45;&gt;Node3 -->
<g id="edge8_Node000001_Node000003" class="edge">
<title>Node1&#45;&gt;Node3</title>
<g id="a_edge8_Node000001_Node000003"><a xlink:title=" ">
<path fill="none" stroke="#63b8ff" d="M280,-131.76C259.03,-138.61 234.55,-146.04 212,-151.5 198.79,-154.7 184.51,-157.55 170.86,-159.98"/>
<polygon fill="#63b8ff" stroke="#63b8ff" points="281.28,-135.02 289.68,-128.56 279.08,-128.38 281.28,-135.02"/>
</a>
</g>
</g>
<!-- Node4 -->
<g id="Node000004" class="node">
<title>Node4</title>
<g id="a_Node000004"><a xlink:href="$classcam_1_1nc_1_1heiden_1_1Creator.html#a37d07f0dab5720c05c1f6ef762c41823" xlink:title=" ">
<polygon fill="white" stroke="#666666" points="186.5,-142 25.5,-142 25.5,-123 186.5,-123 186.5,-142"/>
<text text-anchor="middle" x="106" y="-130" font-family="Helvetica,sans-Serif" font-size="10.00">cam.nc.heiden.Creator.metric</text>
</a>
</g>
</g>
<!-- Node1&#45;&gt;Node4 -->
<g id="edge9_Node000001_Node000004" class="edge">
<title>Node1&#45;&gt;Node4</title>
<g id="a_edge9_Node000001_Node000004"><a xlink:title=" ">
<path fill="none" stroke="#63b8ff" d="M237.48,-121.51C220.63,-122.93 203.24,-124.39 186.86,-125.77"/>
<polygon fill="#63b8ff" stroke="#63b8ff" points="238.22,-124.96 247.89,-120.63 237.63,-117.98 238.22,-124.96"/>
</a>
</g>
</g>
<!-- Node5 -->
<g id="Node000005" class="node">
<title>Node5</title>
<g id="a_Node000005"><a xlink:href="$classcam_1_1nc_1_1iso_1_1Creator.html#a87e14f7ad8bcc131365d1f1f2fb6f42b" xlink:title=" ">
<polygon fill="white" stroke="#666666" points="177,-105 35,-105 35,-86 177,-86 177,-105"/>
<text text-anchor="middle" x="106" y="-93" font-family="Helvetica,sans-Serif" font-size="10.00">cam.nc.iso.Creator.metric</text>
</a>
</g>
</g>
<!-- Node1&#45;&gt;Node5 -->
<g id="edge10_Node000001_Node000005" class="edge">
<title>Node1&#45;&gt;Node5</title>
<g id="a_edge10_Node000001_Node000005"><a xlink:title=" ">
<path fill="none" stroke="#63b8ff" d="M237.72,-105.93C217.49,-104.32 196.47,-102.64 177.35,-101.12"/>
<polygon fill="#63b8ff" stroke="#63b8ff" points="237.64,-109.44 247.89,-106.75 238.2,-102.46 237.64,-109.44"/>
</a>
</g>
</g>
<!-- Node6 -->
<g id="Node000006" class="node">
<title>Node6</title>
<g id="a_Node000006"><a xlink:href="$classcam_1_1nc_1_1heiden530_1_1Creator.html#a2df4df9ca7c46efe5ad3b0b0d984f2c1" xlink:title="Programs.">
<polygon fill="white" stroke="#666666" points="200,-67.5 12,-67.5 12,-37.5 200,-37.5 200,-67.5"/>
<text text-anchor="start" x="20" y="-55.5" font-family="Helvetica,sans-Serif" font-size="10.00">cam.nc.heiden530.Creator.program</text>
<text text-anchor="middle" x="106" y="-44.5" font-family="Helvetica,sans-Serif" font-size="10.00">_begin</text>
</a>
</g>
</g>
<!-- Node1&#45;&gt;Node6 -->
<g id="edge11_Node000001_Node000006" class="edge">
<title>Node1&#45;&gt;Node6</title>
<g id="a_edge11_Node000001_Node000006"><a xlink:title=" ">
<path fill="none" stroke="#63b8ff" d="M274.52,-95.46C254.75,-89.5 232.48,-82.99 212,-77.5 199.33,-74.1 185.74,-70.69 172.68,-67.53"/>
<polygon fill="#63b8ff" stroke="#63b8ff" points="273.72,-98.87 284.31,-98.42 275.75,-92.17 273.72,-98.87"/>
</a>
</g>
</g>
<!-- Node7 -->
<g id="Node000007" class="node">
<title>Node7</title>
<g id="a_Node000007"><a xlink:href="$classcam_1_1nc_1_1heiden530_1_1Creator.html#aeddcab01d2dfad26eb8482b0f690fd39" xlink:title=" ">
<polygon fill="white" stroke="#666666" points="212,-19 0,-19 0,0 212,0 212,-19"/>
<text text-anchor="middle" x="106" y="-7" font-family="Helvetica,sans-Serif" font-size="10.00">cam.nc.heiden530.Creator.program_end</text>
</a>
</g>
</g>
<!-- Node1&#45;&gt;Node7 -->
<g id="edge12_Node000001_Node000007" class="edge">
<title>Node1&#45;&gt;Node7</title>
<g id="a_edge12_Node000001_Node000007"><a xlink:title=" ">
<path fill="none" stroke="#63b8ff" d="M308.41,-91.65C285.36,-71.99 248.75,-43.9 212,-28.5 202.69,-24.6 192.58,-21.5 182.44,-19.03"/>
<polygon fill="#63b8ff" stroke="#63b8ff" points="306.13,-94.31 315.98,-98.22 310.72,-89.02 306.13,-94.31"/>
</a>
</g>
</g>
</g>
</svg>
