<?xml version="1.0" encoding="UTF-8" standalone="no"?>
<!DOCTYPE svg PUBLIC "-//W3C//DTD SVG 1.1//EN"
 "http://www.w3.org/Graphics/SVG/1.1/DTD/svg11.dtd">
<!-- Generated by graphviz version 2.43.0 (0)
 -->
<!-- Title: cam.nc.shopbot_mtc.Creator.comment Pages: 1 -->
<svg width="449pt" height="508pt"
 viewBox="0.00 0.00 449.00 508.00" xmlns="http://www.w3.org/2000/svg" xmlns:xlink="http://www.w3.org/1999/xlink">
<g id="graph0" class="graph" transform="scale(1 1) rotate(0) translate(4 504)">
<title>cam.nc.shopbot_mtc.Creator.comment</title>
<!-- Node1 -->
<g id="Node000001" class="node">
<title>Node1</title>
<g id="a_Node000001"><a xlink:title="CRC.">
<polygon fill="#999999" stroke="#666666" points="441,-254.5 235,-254.5 235,-235.5 441,-235.5 441,-254.5"/>
<text text-anchor="middle" x="338" y="-242.5" font-family="Helvetica,sans-Serif" font-size="10.00">cam.nc.shopbot_mtc.Creator.comment</text>
</a>
</g>
</g>
<!-- Node2 -->
<g id="Node000002" class="node">
<title>Node2</title>
<g id="a_Node000002"><a xlink:href="$classcam_1_1nc_1_1heiden_1_1Creator.html#ae8e86bcc6f05521bf4b639128e3241ee" xlink:title=" ">
<polygon fill="white" stroke="#666666" points="178,-500 21,-500 21,-470 178,-470 178,-500"/>
<text text-anchor="start" x="29" y="-488" font-family="Helvetica,sans-Serif" font-size="10.00">cam.nc.heiden.Creator.probe</text>
<text text-anchor="middle" x="99.5" y="-477" font-family="Helvetica,sans-Serif" font-size="10.00">_downward_point</text>
</a>
</g>
</g>
<!-- Node1&#45;&gt;Node2 -->
<g id="edge12_Node000001_Node000002" class="edge">
<title>Node1&#45;&gt;Node2</title>
<g id="a_edge12_Node000001_Node000002"><a xlink:title=" ">
<path fill="none" stroke="#63b8ff" d="M330.48,-264.03C314.92,-306.47 271.42,-409.23 199,-461 192.63,-465.55 185.5,-469.25 178.06,-472.25"/>
<polygon fill="#63b8ff" stroke="#63b8ff" points="333.78,-265.2 333.84,-254.6 327.19,-262.85 333.78,-265.2"/>
</a>
</g>
</g>
<!-- Node3 -->
<g id="Node000003" class="node">
<title>Node3</title>
<g id="a_Node000003"><a xlink:href="$classcam_1_1nc_1_1iso_1_1Creator.html#a40689f45d25f7f726d11a172b608c0a4" xlink:title=" ">
<polygon fill="white" stroke="#666666" points="168.5,-452 30.5,-452 30.5,-422 168.5,-422 168.5,-452"/>
<text text-anchor="start" x="38.5" y="-440" font-family="Helvetica,sans-Serif" font-size="10.00">cam.nc.iso.Creator.probe</text>
<text text-anchor="middle" x="99.5" y="-429" font-family="Helvetica,sans-Serif" font-size="10.00">_downward_point</text>
</a>
</g>
</g>
<!-- Node1&#45;&gt;Node3 -->
<g id="edge13_Node000001_Node000003" class="edge">
<title>Node1&#45;&gt;Node3</title>
<g id="a_edge13_Node000001_Node000003"><a xlink:title=" ">
<path fill="none" stroke="#63b8ff" d="M326.96,-264C307.33,-299.19 260.37,-374.43 199,-413 189.76,-418.81 179.22,-423.21 168.55,-426.54"/>
<polygon fill="#63b8ff" stroke="#63b8ff" points="330.24,-265.28 331.96,-254.82 324.1,-261.93 330.24,-265.28"/>
</a>
</g>
</g>
<!-- Node4 -->
<g id="Node000004" class="node">
<title>Node4</title>
<g id="a_Node000004"><a xlink:href="$classcam_1_1nc_1_1heiden_1_1Creator.html#a921825a14a9068d234377d7ac3b7777f" xlink:title=" ">
<polygon fill="white" stroke="#666666" points="178,-404 21,-404 21,-374 178,-374 178,-404"/>
<text text-anchor="start" x="29" y="-392" font-family="Helvetica,sans-Serif" font-size="10.00">cam.nc.heiden.Creator.probe</text>
<text text-anchor="middle" x="99.5" y="-381" font-family="Helvetica,sans-Serif" font-size="10.00">_single_point</text>
</a>
</g>
</g>
<!-- Node1&#45;&gt;Node4 -->
<g id="edge14_Node000001_Node000004" class="edge">
<title>Node1&#45;&gt;Node4</title>
<g id="a_edge14_Node000001_Node000004"><a xlink:title=" ">
<path fill="none" stroke="#63b8ff" d="M322.04,-262.51C298.57,-288.85 250.4,-338.41 199,-365 192.36,-368.44 185.2,-371.39 177.89,-373.94"/>
<polygon fill="#63b8ff" stroke="#63b8ff" points="324.81,-264.66 328.77,-254.83 319.55,-260.05 324.81,-264.66"/>
</a>
</g>
</g>
<!-- Node5 -->
<g id="Node000005" class="node">
<title>Node5</title>
<g id="a_Node000005"><a xlink:href="$classcam_1_1nc_1_1iso_1_1Creator.html#adc5343ffd168991077858693d6a79fef" xlink:title=" ">
<polygon fill="white" stroke="#666666" points="168.5,-356 30.5,-356 30.5,-326 168.5,-326 168.5,-356"/>
<text text-anchor="start" x="38.5" y="-344" font-family="Helvetica,sans-Serif" font-size="10.00">cam.nc.iso.Creator.probe</text>
<text text-anchor="middle" x="99.5" y="-333" font-family="Helvetica,sans-Serif" font-size="10.00">_single_point</text>
</a>
</g>
</g>
<!-- Node1&#45;&gt;Node5 -->
<g id="edge15_Node000001_Node000005" class="edge">
<title>Node1&#45;&gt;Node5</title>
<g id="a_edge15_Node000001_Node000005"><a xlink:title=" ">
<path fill="none" stroke="#63b8ff" d="M312.7,-259.99C285.77,-276.05 240.63,-301.33 199,-317 189.36,-320.63 178.99,-323.85 168.71,-326.66"/>
<polygon fill="#63b8ff" stroke="#63b8ff" points="314.68,-262.89 321.44,-254.73 311.06,-256.89 314.68,-262.89"/>
</a>
</g>
</g>
<!-- Node6 -->
<g id="Node000006" class="node">
<title>Node6</title>
<g id="a_Node000006"><a xlink:href="$classcam_1_1nc_1_1heiden_1_1Creator.html#a1979595ccdc20dcf20f67751d328f25d" xlink:title=" ">
<polygon fill="white" stroke="#666666" points="176.5,-308 22.5,-308 22.5,-278 176.5,-278 176.5,-308"/>
<text text-anchor="start" x="30.5" y="-296" font-family="Helvetica,sans-Serif" font-size="10.00">cam.nc.heiden.Creator.rapid</text>
<text text-anchor="middle" x="99.5" y="-285" font-family="Helvetica,sans-Serif" font-size="10.00">_to_intersection</text>
</a>
</g>
</g>
<!-- Node1&#45;&gt;Node6 -->
<g id="edge16_Node000001_Node000006" class="edge">
<title>Node1&#45;&gt;Node6</title>
<g id="a_edge16_Node000001_Node000006"><a xlink:title=" ">
<path fill="none" stroke="#63b8ff" d="M280,-256.57C248.3,-263 208.49,-271.08 174.42,-278"/>
<polygon fill="#63b8ff" stroke="#63b8ff" points="280.89,-259.96 289.99,-254.54 279.5,-253.1 280.89,-259.96"/>
</a>
</g>
</g>
<!-- Node7 -->
<g id="Node000007" class="node">
<title>Node7</title>
<g id="a_Node000007"><a xlink:href="$classcam_1_1nc_1_1iso_1_1Creator.html#a60e5583b4ddafa8966b05d2baa28ea67" xlink:title=" ">
<polygon fill="white" stroke="#666666" points="167,-260 32,-260 32,-230 167,-230 167,-260"/>
<text text-anchor="start" x="40" y="-248" font-family="Helvetica,sans-Serif" font-size="10.00">cam.nc.iso.Creator.rapid</text>
<text text-anchor="middle" x="99.5" y="-237" font-family="Helvetica,sans-Serif" font-size="10.00">_to_intersection</text>
</a>
</g>
</g>
<!-- Node1&#45;&gt;Node7 -->
<g id="edge17_Node000001_Node000007" class="edge">
<title>Node1&#45;&gt;Node7</title>
<g id="a_edge17_Node000001_Node000007"><a xlink:title=" ">
<path fill="none" stroke="#63b8ff" d="M224.97,-245C205.15,-245 185.1,-245 167.04,-245"/>
<polygon fill="#63b8ff" stroke="#63b8ff" points="224.99,-248.5 234.99,-245 224.99,-241.5 224.99,-248.5"/>
</a>
</g>
</g>
<!-- Node8 -->
<g id="Node000008" class="node">
<title>Node8</title>
<g id="a_Node000008"><a xlink:href="$classcam_1_1nc_1_1heiden_1_1Creator.html#a20686a35918df93542b7b5d4472d3d71" xlink:title=" ">
<polygon fill="white" stroke="#666666" points="176.5,-212 22.5,-212 22.5,-182 176.5,-182 176.5,-212"/>
<text text-anchor="start" x="30.5" y="-200" font-family="Helvetica,sans-Serif" font-size="10.00">cam.nc.heiden.Creator.rapid</text>
<text text-anchor="middle" x="99.5" y="-189" font-family="Helvetica,sans-Serif" font-size="10.00">_to_rotated_coordinate</text>
</a>
</g>
</g>
<!-- Node1&#45;&gt;Node8 -->
<g id="edge18_Node000001_Node000008" class="edge">
<title>Node1&#45;&gt;Node8</title>
<g id="a_edge18_Node000001_Node000008"><a xlink:title=" ">
<path fill="none" stroke="#63b8ff" d="M280,-233.43C248.3,-227 208.49,-218.92 174.42,-212"/>
<polygon fill="#63b8ff" stroke="#63b8ff" points="279.5,-236.9 289.99,-235.46 280.89,-230.04 279.5,-236.9"/>
</a>
</g>
</g>
<!-- Node9 -->
<g id="Node000009" class="node">
<title>Node9</title>
<g id="a_Node000009"><a xlink:href="$classcam_1_1nc_1_1iso_1_1Creator.html#affa9a90d01acd946672ba361abfbfffd" xlink:title=" ">
<polygon fill="white" stroke="#666666" points="167,-164 32,-164 32,-134 167,-134 167,-164"/>
<text text-anchor="start" x="40" y="-152" font-family="Helvetica,sans-Serif" font-size="10.00">cam.nc.iso.Creator.rapid</text>
<text text-anchor="middle" x="99.5" y="-141" font-family="Helvetica,sans-Serif" font-size="10.00">_to_rotated_coordinate</text>
</a>
</g>
</g>
<!-- Node1&#45;&gt;Node9 -->
<g id="edge19_Node000001_Node000009" class="edge">
<title>Node1&#45;&gt;Node9</title>
<g id="a_edge19_Node000001_Node000009"><a xlink:title=" ">
<path fill="none" stroke="#63b8ff" d="M312.7,-230.01C285.77,-213.95 240.63,-188.67 199,-173 188.87,-169.19 177.92,-165.82 167.13,-162.91"/>
<polygon fill="#63b8ff" stroke="#63b8ff" points="311.06,-233.11 321.44,-235.27 314.68,-227.11 311.06,-233.11"/>
</a>
</g>
</g>
<!-- Node10 -->
<g id="Node000010" class="node">
<title>Node10</title>
<g id="a_Node000010"><a xlink:href="$classcam_1_1nc_1_1emc2_1_1Creator.html#a305cc96f9d28416e6ca475bc62150768" xlink:title=" ">
<polygon fill="white" stroke="#666666" points="175.5,-116 23.5,-116 23.5,-86 175.5,-86 175.5,-116"/>
<text text-anchor="start" x="31.5" y="-104" font-family="Helvetica,sans-Serif" font-size="10.00">cam.nc.emc2.Creator.report</text>
<text text-anchor="middle" x="99.5" y="-93" font-family="Helvetica,sans-Serif" font-size="10.00">_probe_results</text>
</a>
</g>
</g>
<!-- Node1&#45;&gt;Node10 -->
<g id="edge20_Node000001_Node000010" class="edge">
<title>Node1&#45;&gt;Node10</title>
<g id="a_edge20_Node000001_Node000010"><a xlink:title=" ">
<path fill="none" stroke="#63b8ff" d="M322.04,-227.49C298.57,-201.15 250.4,-151.59 199,-125 191.65,-121.2 183.68,-117.99 175.57,-115.27"/>
<polygon fill="#63b8ff" stroke="#63b8ff" points="319.55,-229.95 328.77,-235.17 324.81,-225.34 319.55,-229.95"/>
</a>
</g>
</g>
<!-- Node11 -->
<g id="Node000011" class="node">
<title>Node11</title>
<g id="a_Node000011"><a xlink:href="$classcam_1_1nc_1_1emc2tap_1_1CreatorEMC2tap.html#ae7c40089d2816698fbe6cfbc9a10a052" xlink:title=" ">
<polygon fill="white" stroke="#666666" points="199,-67.5 0,-67.5 0,-48.5 199,-48.5 199,-67.5"/>
<text text-anchor="middle" x="99.5" y="-55.5" font-family="Helvetica,sans-Serif" font-size="10.00">cam.nc.emc2tap.CreatorEMC2tap.tap</text>
</a>
</g>
</g>
<!-- Node1&#45;&gt;Node11 -->
<g id="edge21_Node000001_Node000011" class="edge">
<title>Node1&#45;&gt;Node11</title>
<g id="a_edge21_Node000001_Node000011"><a xlink:title=" ">
<path fill="none" stroke="#63b8ff" d="M327.4,-226.23C308.22,-190.79 261.59,-114.25 199,-77 192.49,-73.13 185.35,-70.02 177.98,-67.53"/>
<polygon fill="#63b8ff" stroke="#63b8ff" points="324.5,-228.23 332.27,-235.44 330.69,-224.97 324.5,-228.23"/>
</a>
</g>
</g>
<!-- Node12 -->
<g id="Node000012" class="node">
<title>Node12</title>
<g id="a_Node000012"><a xlink:href="$classcam_1_1nc_1_1iso_1_1Creator.html#a3e61292523aa893f0187112023e51eff" xlink:title="Tools.">
<polygon fill="white" stroke="#666666" points="164,-30 35,-30 35,0 164,0 164,-30"/>
<text text-anchor="start" x="43" y="-18" font-family="Helvetica,sans-Serif" font-size="10.00">cam.nc.iso.Creator.tool</text>
<text text-anchor="middle" x="99.5" y="-7" font-family="Helvetica,sans-Serif" font-size="10.00">_change</text>
</a>
</g>
</g>
<!-- Node1&#45;&gt;Node12 -->
<g id="edge22_Node000001_Node000012" class="edge">
<title>Node1&#45;&gt;Node12</title>
<g id="a_edge22_Node000001_Node000012"><a xlink:title=" ">
<path fill="none" stroke="#63b8ff" d="M329.73,-225.9C313.15,-185.06 268.56,-88.97 199,-40 188.69,-32.74 176.45,-27.58 164.17,-23.92"/>
<polygon fill="#63b8ff" stroke="#63b8ff" points="326.57,-227.44 333.5,-235.46 333.08,-224.87 326.57,-227.44"/>
</a>
</g>
</g>
</g>
</svg>
