<?xml version="1.0" encoding="UTF-8" standalone="no"?>
<!DOCTYPE svg PUBLIC "-//W3C//DTD SVG 1.1//EN"
 "http://www.w3.org/Graphics/SVG/1.1/DTD/svg11.dtd">
<!-- Generated by graphviz version 2.43.0 (0)
 -->
<!-- Title: cam.nc.nc.Creator.imperial Pages: 1 -->
<svg width="386pt" height="45pt"
 viewBox="0.00 0.00 386.00 45.00" xmlns="http://www.w3.org/2000/svg" xmlns:xlink="http://www.w3.org/1999/xlink">
<g id="graph0" class="graph" transform="scale(1 1) rotate(0) translate(4 41)">
<title>cam.nc.nc.Creator.imperial</title>
<!-- Node1 -->
<g id="Node000001" class="node">
<title>Node1</title>
<g id="a_Node000001"><a xlink:title="Settings.">
<polygon fill="#999999" stroke="#666666" points="378,-19 230,-19 230,0 378,0 378,-19"/>
<text text-anchor="middle" x="304" y="-7" font-family="Helvetica,sans-Serif" font-size="10.00">cam.nc.nc.Creator.imperial</text>
</a>
</g>
</g>
<!-- Node2 -->
<g id="Node000002" class="node">
<title>Node2</title>
<g id="a_Node000002"><a xlink:href="$classcam_1_1nc_1_1recreator_1_1Redirector.html#aac89af9940b239a0231eaf6d86be2c28" xlink:title="Settings.">
<polygon fill="white" stroke="#666666" points="194,-19 0,-19 0,0 194,0 194,-19"/>
<text text-anchor="middle" x="97" y="-7" font-family="Helvetica,sans-Serif" font-size="10.00">cam.nc.recreator.Redirector.imperial</text>
</a>
</g>
</g>
<!-- Node1&#45;&gt;Node2 -->
<g id="edge3_Node000001_Node000002" class="edge">
<title>Node1&#45;&gt;Node2</title>
<g id="a_edge3_Node000001_Node000002"><a xlink:title=" ">
<path fill="none" stroke="#63b8ff" d="M219.67,-9.5C211.22,-9.5 202.6,-9.5 194.04,-9.5"/>
<polygon fill="#63b8ff" stroke="#63b8ff" points="219.86,-13 229.86,-9.5 219.86,-6 219.86,-13"/>
</a>
</g>
</g>
<!-- Node2&#45;&gt;Node2 -->
<g id="edge4_Node000002_Node000002" class="edge">
<title>Node2&#45;&gt;Node2</title>
<g id="a_edge4_Node000002_Node000002"><a xlink:title=" ">
<path fill="none" stroke="#63b8ff" d="M135.62,-26.69C135.62,-32.42 122.74,-37 97,-37 60.39,-37 49.8,-27.73 65.25,-19.08"/>
<polygon fill="#63b8ff" stroke="#63b8ff" points="138.05,-24.16 128.75,-19.08 132.86,-28.85 138.05,-24.16"/>
</a>
</g>
</g>
</g>
</svg>
