<?xml version="1.0" encoding="UTF-8" standalone="no"?>
<!DOCTYPE svg PUBLIC "-//W3C//DTD SVG 1.1//EN"
 "http://www.w3.org/Graphics/SVG/1.1/DTD/svg11.dtd">
<!-- Generated by graphviz version 2.43.0 (0)
 -->
<!-- Title: cam.nc.attach.Creator.rapid Pages: 1 -->
<svg width="585pt" height="379pt"
 viewBox="0.00 0.00 585.00 379.00" xmlns="http://www.w3.org/2000/svg" xmlns:xlink="http://www.w3.org/1999/xlink">
<g id="graph0" class="graph" transform="scale(1 1) rotate(0) translate(4 375)">
<title>cam.nc.attach.Creator.rapid</title>
<!-- Node1 -->
<g id="Node000001" class="node">
<title>Node1</title>
<g id="a_Node000001"><a xlink:title="Moves.">
<polygon fill="#999999" stroke="#666666" points="577,-195 425,-195 425,-176 577,-176 577,-195"/>
<text text-anchor="middle" x="501" y="-183" font-family="Helvetica,sans-Serif" font-size="10.00">cam.nc.attach.Creator.rapid</text>
</a>
</g>
</g>
<!-- Node2 -->
<g id="Node000002" class="node">
<title>Node2</title>
<g id="a_Node000002"><a xlink:href="$classcam_1_1nc_1_1heiden_1_1Creator.html#ab1ba24f0b927edab5d70c6642ceacfc4" xlink:title=" ">
<polygon fill="white" stroke="#666666" points="363.5,-371 215.5,-371 215.5,-352 363.5,-352 363.5,-371"/>
<text text-anchor="middle" x="289.5" y="-359" font-family="Helvetica,sans-Serif" font-size="10.00">cam.nc.heiden.Creator.drill</text>
</a>
</g>
</g>
<!-- Node1&#45;&gt;Node2 -->
<g id="edge12_Node000001_Node000002" class="edge">
<title>Node1&#45;&gt;Node2</title>
<g id="a_edge12_Node000001_Node000002"><a xlink:title=" ">
<path fill="none" stroke="#63b8ff" d="M492.44,-204.57C477.92,-238.52 442.73,-309.1 389,-343.5 381.31,-348.42 372.64,-352.08 363.7,-354.79"/>
<polygon fill="#63b8ff" stroke="#63b8ff" points="495.69,-205.87 496.28,-195.29 489.22,-203.2 495.69,-205.87"/>
</a>
</g>
</g>
<!-- Node4 -->
<g id="Node000004" class="node">
<title>Node4</title>
<g id="a_Node000004"><a xlink:href="$classcam_1_1nc_1_1iso_1_1Creator.html#a61f29267aaaddc3d5c8471f9bf714cb3" xlink:title=" ">
<polygon fill="white" stroke="#666666" points="354,-334 225,-334 225,-315 354,-315 354,-334"/>
<text text-anchor="middle" x="289.5" y="-322" font-family="Helvetica,sans-Serif" font-size="10.00">cam.nc.iso.Creator.drill</text>
</a>
</g>
</g>
<!-- Node1&#45;&gt;Node4 -->
<g id="edge14_Node000001_Node000004" class="edge">
<title>Node1&#45;&gt;Node4</title>
<g id="a_edge14_Node000001_Node000004"><a xlink:title=" ">
<path fill="none" stroke="#63b8ff" d="M488.73,-203.67C471.03,-230.56 434.04,-280.46 389,-305.5 378.35,-311.42 366.15,-315.53 354.06,-318.37"/>
<polygon fill="#63b8ff" stroke="#63b8ff" points="491.72,-205.51 494.17,-195.2 485.82,-201.73 491.72,-205.51"/>
</a>
</g>
</g>
<!-- Node5 -->
<g id="Node000005" class="node">
<title>Node5</title>
<g id="a_Node000005"><a xlink:href="$classcam_1_1nc_1_1heiden__read_1_1Parser.html#a9c64dcddf3c2c0d3248079dde5314cfe" xlink:title=" ">
<polygon fill="white" stroke="#666666" points="364.5,-296.5 214.5,-296.5 214.5,-266.5 364.5,-266.5 364.5,-296.5"/>
<text text-anchor="start" x="222.5" y="-284.5" font-family="Helvetica,sans-Serif" font-size="10.00">cam.nc.heiden_read.Parser.</text>
<text text-anchor="middle" x="289.5" y="-273.5" font-family="Helvetica,sans-Serif" font-size="10.00">Parsey</text>
</a>
</g>
</g>
<!-- Node1&#45;&gt;Node5 -->
<g id="edge16_Node000001_Node000005" class="edge">
<title>Node1&#45;&gt;Node5</title>
<g id="a_edge16_Node000001_Node000005"><a xlink:title=" ">
<path fill="none" stroke="#63b8ff" d="M480.15,-201.35C458.8,-217.66 423.29,-242.71 389,-257.5 381.16,-260.88 372.76,-263.84 364.28,-266.42"/>
<polygon fill="#63b8ff" stroke="#63b8ff" points="482.37,-204.06 488.13,-195.16 478.08,-198.53 482.37,-204.06"/>
</a>
</g>
</g>
<!-- Node6 -->
<g id="Node000006" class="node">
<title>Node6</title>
<g id="a_Node000006"><a xlink:href="$classcam_1_1nc_1_1heiden_1_1Creator.html#ae8e86bcc6f05521bf4b639128e3241ee" xlink:title=" ">
<polygon fill="white" stroke="#666666" points="368,-248.5 211,-248.5 211,-218.5 368,-218.5 368,-248.5"/>
<text text-anchor="start" x="219" y="-236.5" font-family="Helvetica,sans-Serif" font-size="10.00">cam.nc.heiden.Creator.probe</text>
<text text-anchor="middle" x="289.5" y="-225.5" font-family="Helvetica,sans-Serif" font-size="10.00">_downward_point</text>
</a>
</g>
</g>
<!-- Node1&#45;&gt;Node6 -->
<g id="edge17_Node000001_Node000006" class="edge">
<title>Node1&#45;&gt;Node6</title>
<g id="a_edge17_Node000001_Node000006"><a xlink:title=" ">
<path fill="none" stroke="#63b8ff" d="M448.41,-197.32C420.52,-203.71 385.77,-211.67 355.98,-218.5"/>
<polygon fill="#63b8ff" stroke="#63b8ff" points="449.39,-200.69 458.36,-195.04 447.83,-193.86 449.39,-200.69"/>
</a>
</g>
</g>
<!-- Node7 -->
<g id="Node000007" class="node">
<title>Node7</title>
<g id="a_Node000007"><a xlink:href="$classcam_1_1nc_1_1iso_1_1Creator.html#a40689f45d25f7f726d11a172b608c0a4" xlink:title=" ">
<polygon fill="white" stroke="#666666" points="358.5,-200.5 220.5,-200.5 220.5,-170.5 358.5,-170.5 358.5,-200.5"/>
<text text-anchor="start" x="228.5" y="-188.5" font-family="Helvetica,sans-Serif" font-size="10.00">cam.nc.iso.Creator.probe</text>
<text text-anchor="middle" x="289.5" y="-177.5" font-family="Helvetica,sans-Serif" font-size="10.00">_downward_point</text>
</a>
</g>
</g>
<!-- Node1&#45;&gt;Node7 -->
<g id="edge18_Node000001_Node000007" class="edge">
<title>Node1&#45;&gt;Node7</title>
<g id="a_edge18_Node000001_Node000007"><a xlink:title=" ">
<path fill="none" stroke="#63b8ff" d="M414.71,-185.5C396.08,-185.5 376.61,-185.5 358.74,-185.5"/>
<polygon fill="#63b8ff" stroke="#63b8ff" points="414.96,-189 424.96,-185.5 414.96,-182 414.96,-189"/>
</a>
</g>
</g>
<!-- Node8 -->
<g id="Node000008" class="node">
<title>Node8</title>
<g id="a_Node000008"><a xlink:href="$classcam_1_1nc_1_1heiden_1_1Creator.html#a921825a14a9068d234377d7ac3b7777f" xlink:title=" ">
<polygon fill="white" stroke="#666666" points="368,-152.5 211,-152.5 211,-122.5 368,-122.5 368,-152.5"/>
<text text-anchor="start" x="219" y="-140.5" font-family="Helvetica,sans-Serif" font-size="10.00">cam.nc.heiden.Creator.probe</text>
<text text-anchor="middle" x="289.5" y="-129.5" font-family="Helvetica,sans-Serif" font-size="10.00">_single_point</text>
</a>
</g>
</g>
<!-- Node1&#45;&gt;Node8 -->
<g id="edge19_Node000001_Node000008" class="edge">
<title>Node1&#45;&gt;Node8</title>
<g id="a_edge19_Node000001_Node000008"><a xlink:title=" ">
<path fill="none" stroke="#63b8ff" d="M448.41,-173.68C420.52,-167.29 385.77,-159.33 355.98,-152.5"/>
<polygon fill="#63b8ff" stroke="#63b8ff" points="447.83,-177.14 458.36,-175.96 449.39,-170.31 447.83,-177.14"/>
</a>
</g>
</g>
<!-- Node9 -->
<g id="Node000009" class="node">
<title>Node9</title>
<g id="a_Node000009"><a xlink:href="$classcam_1_1nc_1_1iso_1_1Creator.html#adc5343ffd168991077858693d6a79fef" xlink:title=" ">
<polygon fill="white" stroke="#666666" points="358.5,-104.5 220.5,-104.5 220.5,-74.5 358.5,-74.5 358.5,-104.5"/>
<text text-anchor="start" x="228.5" y="-92.5" font-family="Helvetica,sans-Serif" font-size="10.00">cam.nc.iso.Creator.probe</text>
<text text-anchor="middle" x="289.5" y="-81.5" font-family="Helvetica,sans-Serif" font-size="10.00">_single_point</text>
</a>
</g>
</g>
<!-- Node1&#45;&gt;Node9 -->
<g id="edge20_Node000001_Node000009" class="edge">
<title>Node1&#45;&gt;Node9</title>
<g id="a_edge20_Node000001_Node000009"><a xlink:title=" ">
<path fill="none" stroke="#63b8ff" d="M480.15,-169.65C458.8,-153.34 423.29,-128.29 389,-113.5 379.38,-109.35 368.92,-105.84 358.51,-102.88"/>
<polygon fill="#63b8ff" stroke="#63b8ff" points="478.08,-172.47 488.13,-175.84 482.37,-166.94 478.08,-172.47"/>
</a>
</g>
</g>
<!-- Node10 -->
<g id="Node000010" class="node">
<title>Node10</title>
<g id="a_Node000010"><a xlink:href="$classcam_1_1nc_1_1emc2tap_1_1CreatorEMC2tap.html#ae7c40089d2816698fbe6cfbc9a10a052" xlink:title=" ">
<polygon fill="white" stroke="#666666" points="389,-56 190,-56 190,-37 389,-37 389,-56"/>
<text text-anchor="middle" x="289.5" y="-44" font-family="Helvetica,sans-Serif" font-size="10.00">cam.nc.emc2tap.CreatorEMC2tap.tap</text>
</a>
</g>
</g>
<!-- Node1&#45;&gt;Node10 -->
<g id="edge21_Node000001_Node000010" class="edge">
<title>Node1&#45;&gt;Node10</title>
<g id="a_edge21_Node000001_Node000010"><a xlink:title=" ">
<path fill="none" stroke="#63b8ff" d="M488.73,-167.33C471.03,-140.44 434.04,-90.54 389,-65.5 382,-61.61 374.33,-58.5 366.47,-56.02"/>
<polygon fill="#63b8ff" stroke="#63b8ff" points="485.82,-169.27 494.17,-175.8 491.72,-165.49 485.82,-169.27"/>
</a>
</g>
</g>
<!-- Node11 -->
<g id="Node000011" class="node">
<title>Node11</title>
<g id="a_Node000011"><a xlink:href="$classcam_1_1nc_1_1heiden_1_1Creator.html#a706db14683812bb3b86db958d7faa05a" xlink:title=" ">
<polygon fill="white" stroke="#666666" points="362,-19 217,-19 217,0 362,0 362,-19"/>
<text text-anchor="middle" x="289.5" y="-7" font-family="Helvetica,sans-Serif" font-size="10.00">cam.nc.heiden.Creator.tap</text>
</a>
</g>
</g>
<!-- Node1&#45;&gt;Node11 -->
<g id="edge22_Node000001_Node000011" class="edge">
<title>Node1&#45;&gt;Node11</title>
<g id="a_edge22_Node000001_Node000011"><a xlink:title=" ">
<path fill="none" stroke="#63b8ff" d="M492.18,-166.16C477.43,-132.34 442.15,-62.79 389,-28.5 380.88,-23.26 371.65,-19.4 362.17,-16.57"/>
<polygon fill="#63b8ff" stroke="#63b8ff" points="489.13,-167.94 496.24,-175.8 495.58,-165.22 489.13,-167.94"/>
</a>
</g>
</g>
<!-- Node3 -->
<g id="Node000003" class="node">
<title>Node3</title>
<g id="a_Node000003"><a xlink:href="$classcam_1_1nc_1_1cad__iso__read_1_1Parser.html#abf885d019794a8bef1b69f446c8851e1" xlink:title=" ">
<polygon fill="white" stroke="#666666" points="154,-357.5 0,-357.5 0,-327.5 154,-327.5 154,-357.5"/>
<text text-anchor="start" x="8" y="-345.5" font-family="Helvetica,sans-Serif" font-size="10.00">cam.nc.cad_iso_read.Parser.</text>
<text text-anchor="middle" x="77" y="-334.5" font-family="Helvetica,sans-Serif" font-size="10.00">Parse</text>
</a>
</g>
</g>
<!-- Node2&#45;&gt;Node3 -->
<g id="edge13_Node000002_Node000003" class="edge">
<title>Node2&#45;&gt;Node3</title>
<g id="a_edge13_Node000002_Node000003"><a xlink:title=" ">
<path fill="none" stroke="#63b8ff" d="M205.11,-353.97C188.29,-352.45 170.68,-350.87 154.12,-349.37"/>
<polygon fill="#63b8ff" stroke="#63b8ff" points="205.19,-357.49 215.47,-354.91 205.82,-350.52 205.19,-357.49"/>
</a>
</g>
</g>
<!-- Node4&#45;&gt;Node3 -->
<g id="edge15_Node000004_Node000003" class="edge">
<title>Node4&#45;&gt;Node3</title>
<g id="a_edge15_Node000004_Node000003"><a xlink:title=" ">
<path fill="none" stroke="#63b8ff" d="M214.68,-330.81C195.07,-332.49 173.85,-334.3 154.12,-335.99"/>
<polygon fill="#63b8ff" stroke="#63b8ff" points="215.11,-334.29 224.77,-329.95 214.51,-327.31 215.11,-334.29"/>
</a>
</g>
</g>
</g>
</svg>
