<?xml version="1.0" encoding="UTF-8" standalone="no"?>
<!DOCTYPE svg PUBLIC "-//W3C//DTD SVG 1.1//EN"
 "http://www.w3.org/Graphics/SVG/1.1/DTD/svg11.dtd">
<!-- Generated by graphviz version 2.43.0 (0)
 -->
<!-- Title: cam.ui.VIEW3D_PT_tools_create Pages: 1 -->
<svg width="140pt" height="213pt"
 viewBox="0.00 0.00 140.00 213.00" xmlns="http://www.w3.org/2000/svg" xmlns:xlink="http://www.w3.org/1999/xlink">
<g id="graph0" class="graph" transform="scale(1 1) rotate(0) translate(4 209)">
<title>cam.ui.VIEW3D_PT_tools_create</title>
<!-- Node1 -->
<g id="Node000001" class="node">
<title>Node1</title>
<g id="a_Node000001"><a xlink:title=" ">
<polygon fill="#999999" stroke="transparent" points="132,-120 0,-120 0,0 132,0 132,-120"/>
<text text-anchor="start" x="5" y="-108" font-family="Helvetica,sans-Serif" font-size="10.00">cam.ui.VIEW3D_PT_tools</text>
<text text-anchor="start" x="47.5" y="-97" font-family="Helvetica,sans-Serif" font-size="10.00">_create</text>
<text text-anchor="start" x="13.5" y="-82" font-family="Helvetica,sans-Serif" font-size="10.00">+</text>
<text text-anchor="start" x="36" y="-82" font-family="Helvetica,sans-Serif" font-size="10.00">bl_space_type</text>
<text text-anchor="start" x="13.5" y="-67" font-family="Helvetica,sans-Serif" font-size="10.00">+</text>
<text text-anchor="start" x="36" y="-67" font-family="Helvetica,sans-Serif" font-size="10.00">bl_region_type</text>
<text text-anchor="start" x="13.5" y="-52" font-family="Helvetica,sans-Serif" font-size="10.00">+</text>
<text text-anchor="start" x="36" y="-52" font-family="Helvetica,sans-Serif" font-size="10.00">bl_context</text>
<text text-anchor="start" x="13.5" y="-37" font-family="Helvetica,sans-Serif" font-size="10.00">+</text>
<text text-anchor="start" x="36" y="-37" font-family="Helvetica,sans-Serif" font-size="10.00">bl_label</text>
<text text-anchor="start" x="13.5" y="-22" font-family="Helvetica,sans-Serif" font-size="10.00">+</text>
<text text-anchor="start" x="36" y="-22" font-family="Helvetica,sans-Serif" font-size="10.00">bl_option</text>
<text text-anchor="start" x="13.5" y="-7" font-family="Helvetica,sans-Serif" font-size="10.00">+</text>
<text text-anchor="start" x="36" y="-7" font-family="Helvetica,sans-Serif" font-size="10.00">draw()</text>
<polygon fill="#666666" stroke="#666666" points="0,-92 0,-92 132,-92 132,-92 0,-92"/>
<polygon fill="#666666" stroke="#666666" points="0,-17 0,-17 34,-17 34,-17 0,-17"/>
<polygon fill="#666666" stroke="#666666" points="34,-17 34,-17 132,-17 132,-17 34,-17"/>
<polygon fill="none" stroke="#666666" points="0,0 0,-120 132,-120 132,0 0,0"/>
</a>
</g>
</g>
<!-- Node2 -->
<g id="Node000002" class="node">
<title>Node2</title>
<g id="a_Node000002"><a xlink:title=" ">
<polygon fill="white" stroke="transparent" points="84.5,-205 47.5,-205 47.5,-156 84.5,-156 84.5,-205"/>
<text text-anchor="start" x="53" y="-192.5" font-family="Helvetica,sans-Serif" font-size="10.00">Panel</text>
<text text-anchor="start" x="64.5" y="-177.5" font-family="Helvetica,sans-Serif" font-size="10.00"> </text>
<text text-anchor="start" x="64.5" y="-162.5" font-family="Helvetica,sans-Serif" font-size="10.00"> </text>
<polygon fill="#666666" stroke="#666666" points="48,-187.5 48,-187.5 85,-187.5 85,-187.5 48,-187.5"/>
<polygon fill="#666666" stroke="#666666" points="48,-172.5 48,-172.5 85,-172.5 85,-172.5 48,-172.5"/>
<polygon fill="none" stroke="#666666" points="47.5,-156 47.5,-205 84.5,-205 84.5,-156 47.5,-156"/>
</a>
</g>
</g>
<!-- Node2&#45;&gt;Node1 -->
<g id="edge2_Node000001_Node000002" class="edge">
<title>Node2&#45;&gt;Node1</title>
<g id="a_edge2_Node000001_Node000002"><a xlink:title=" ">
<path fill="none" stroke="#63b8ff" d="M66,-145.59C66,-137.71 66,-129.09 66,-120.47"/>
<polygon fill="none" stroke="#63b8ff" points="62.5,-145.8 66,-155.8 69.5,-145.8 62.5,-145.8"/>
</a>
</g>
</g>
</g>
</svg>
