<?xml version="1.0" encoding="UTF-8" standalone="no"?>
<!DOCTYPE svg PUBLIC "-//W3C//DTD SVG 1.1//EN"
 "http://www.w3.org/Graphics/SVG/1.1/DTD/svg11.dtd">
<!-- Generated by graphviz version 2.43.0 (0)
 -->
<!-- Title: cam.slice.SliceObjectsSettings Pages: 1 -->
<svg width="168pt" height="187pt"
 viewBox="0.00 0.00 168.00 187.00" xmlns="http://www.w3.org/2000/svg" xmlns:xlink="http://www.w3.org/1999/xlink">
<g id="graph0" class="graph" transform="scale(1 1) rotate(0) translate(4 183)">
<title>cam.slice.SliceObjectsSettings</title>
<!-- Node1 -->
<g id="Node000001" class="node">
<title>Node1</title>
<g id="a_Node000001"><a xlink:title=" ">
<polygon fill="#999999" stroke="transparent" points="160,-94 0,-94 0,0 160,0 160,-94"/>
<text text-anchor="start" x="5" y="-82" font-family="Helvetica,sans-Serif" font-size="10.00">cam.slice.SliceObjectsSettings</text>
<text text-anchor="start" x="21" y="-67" font-family="Helvetica,sans-Serif" font-size="10.00">+</text>
<text text-anchor="start" x="51" y="-67" font-family="Helvetica,sans-Serif" font-size="10.00">slice_distance</text>
<text text-anchor="start" x="21" y="-52" font-family="Helvetica,sans-Serif" font-size="10.00">+</text>
<text text-anchor="start" x="51" y="-52" font-family="Helvetica,sans-Serif" font-size="10.00">slice_above0</text>
<text text-anchor="start" x="21" y="-37" font-family="Helvetica,sans-Serif" font-size="10.00">+</text>
<text text-anchor="start" x="51" y="-37" font-family="Helvetica,sans-Serif" font-size="10.00">slice_3d</text>
<text text-anchor="start" x="21" y="-22" font-family="Helvetica,sans-Serif" font-size="10.00">+</text>
<text text-anchor="start" x="51" y="-22" font-family="Helvetica,sans-Serif" font-size="10.00">indexes</text>
<text text-anchor="start" x="78" y="-7" font-family="Helvetica,sans-Serif" font-size="10.00"> </text>
<polygon fill="#666666" stroke="#666666" points="0,-77 0,-77 160,-77 160,-77 0,-77"/>
<polygon fill="#666666" stroke="#666666" points="0,-17 0,-17 49,-17 49,-17 0,-17"/>
<polygon fill="#666666" stroke="#666666" points="49,-17 49,-17 160,-17 160,-17 49,-17"/>
<polygon fill="none" stroke="#666666" points="0,0 0,-94 160,-94 160,0 0,0"/>
</a>
</g>
</g>
<!-- Node2 -->
<g id="Node000002" class="node">
<title>Node2</title>
<g id="a_Node000002"><a xlink:title=" ">
<polygon fill="white" stroke="transparent" points="120.5,-179 39.5,-179 39.5,-130 120.5,-130 120.5,-179"/>
<text text-anchor="start" x="45" y="-166.5" font-family="Helvetica,sans-Serif" font-size="10.00">PropertyGroup</text>
<text text-anchor="start" x="78.5" y="-151.5" font-family="Helvetica,sans-Serif" font-size="10.00"> </text>
<text text-anchor="start" x="78.5" y="-136.5" font-family="Helvetica,sans-Serif" font-size="10.00"> </text>
<polygon fill="#666666" stroke="#666666" points="40,-161.5 40,-161.5 121,-161.5 121,-161.5 40,-161.5"/>
<polygon fill="#666666" stroke="#666666" points="40,-146.5 40,-146.5 121,-146.5 121,-146.5 40,-146.5"/>
<polygon fill="none" stroke="#666666" points="39.5,-130 39.5,-179 120.5,-179 120.5,-130 39.5,-130"/>
</a>
</g>
</g>
<!-- Node2&#45;&gt;Node1 -->
<g id="edge2_Node000001_Node000002" class="edge">
<title>Node2&#45;&gt;Node1</title>
<g id="a_edge2_Node000001_Node000002"><a xlink:title=" ">
<path fill="none" stroke="#63b8ff" d="M80,-119.61C80,-111.48 80,-102.66 80,-94.08"/>
<polygon fill="none" stroke="#63b8ff" points="76.5,-119.82 80,-129.82 83.5,-119.82 76.5,-119.82"/>
</a>
</g>
</g>
</g>
</svg>
