<?xml version="1.0" encoding="UTF-8" standalone="no"?>
<!DOCTYPE svg PUBLIC "-//W3C//DTD SVG 1.1//EN"
 "http://www.w3.org/Graphics/SVG/1.1/DTD/svg11.dtd">
<!-- Generated by graphviz version 2.43.0 (0)
 -->
<!-- Title: cam.nc.rez2.Creator.feed Pages: 1 -->
<svg width="1227pt" height="647pt"
 viewBox="0.00 0.00 1227.00 646.50" xmlns="http://www.w3.org/2000/svg" xmlns:xlink="http://www.w3.org/1999/xlink">
<g id="graph0" class="graph" transform="scale(1 1) rotate(0) translate(4 642.5)">
<title>cam.nc.rez2.Creator.feed</title>
<!-- Node1 -->
<g id="Node000001" class="node">
<title>Node1</title>
<g id="a_Node000001"><a xlink:title=" ">
<polygon fill="#999999" stroke="#666666" points="139,-386.5 0,-386.5 0,-367.5 139,-367.5 139,-386.5"/>
<text text-anchor="middle" x="69.5" y="-374.5" font-family="Helvetica,sans-Serif" font-size="10.00">cam.nc.rez2.Creator.feed</text>
</a>
</g>
</g>
<!-- Node2 -->
<g id="Node000002" class="node">
<title>Node2</title>
<g id="a_Node000002"><a xlink:href="$classcam_1_1nc_1_1heiden_1_1Creator.html#aa81eb64e0085fe09112acb4de59173ec" xlink:title=" ">
<polygon fill="white" stroke="#666666" points="364,-638.5 185,-638.5 185,-619.5 364,-619.5 364,-638.5"/>
<text text-anchor="middle" x="274.5" y="-626.5" font-family="Helvetica,sans-Serif" font-size="10.00">cam.nc.heiden.Creator.same_xyz</text>
</a>
</g>
</g>
<!-- Node1&#45;&gt;Node2 -->
<g id="edge31_Node000001_Node000002" class="edge">
<title>Node1&#45;&gt;Node2</title>
<g id="a_edge31_Node000001_Node000002"><a xlink:title=" ">
<path fill="none" stroke="#63b8ff" d="M71.68,-386.98C76.58,-423.53 98.72,-551.09 175,-611 176.59,-612.25 178.24,-613.42 179.94,-614.52"/>
<polygon fill="#63b8ff" stroke="#63b8ff" points="178.36,-617.65 188.8,-619.44 181.76,-611.53 178.36,-617.65"/>
</a>
</g>
</g>
<!-- Node3 -->
<g id="Node000003" class="node">
<title>Node3</title>
<g id="a_Node000003"><a xlink:href="$classcam_1_1nc_1_1lathe1_1_1CreatorIso.html#a34e522ee6fc4c09812344aa528c9cefb" xlink:title=" ">
<polygon fill="white" stroke="#666666" points="370,-601.5 179,-601.5 179,-582.5 370,-582.5 370,-601.5"/>
<text text-anchor="middle" x="274.5" y="-589.5" font-family="Helvetica,sans-Serif" font-size="10.00">cam.nc.lathe1.CreatorIso.same_xyz</text>
</a>
</g>
</g>
<!-- Node1&#45;&gt;Node3 -->
<g id="edge32_Node000001_Node000003" class="edge">
<title>Node1&#45;&gt;Node3</title>
<g id="a_edge32_Node000001_Node000003"><a xlink:title=" ">
<path fill="none" stroke="#63b8ff" d="M72.55,-386.68C79.92,-418.98 108.29,-523.77 175,-573 177.51,-574.85 180.15,-576.54 182.9,-578.08"/>
<polygon fill="#63b8ff" stroke="#63b8ff" points="181.44,-581.26 191.96,-582.48 184.49,-574.96 181.44,-581.26"/>
</a>
</g>
</g>
<!-- Node4 -->
<g id="Node000004" class="node">
<title>Node4</title>
<g id="a_Node000004"><a xlink:href="$classcam_1_1nc_1_1makerbotHBP_1_1CreatorMakerbotHBP.html#ae5dd31471f1eea4c601bac75cecfd20a" xlink:title=" ">
<polygon fill="white" stroke="#666666" points="354,-564 195,-564 195,-534 354,-534 354,-564"/>
<text text-anchor="start" x="203" y="-552" font-family="Helvetica,sans-Serif" font-size="10.00">cam.nc.makerbotHBP.Creator</text>
<text text-anchor="middle" x="274.5" y="-541" font-family="Helvetica,sans-Serif" font-size="10.00">MakerbotHBP.same_xyz</text>
</a>
</g>
</g>
<!-- Node1&#45;&gt;Node4 -->
<g id="edge33_Node000001_Node000004" class="edge">
<title>Node1&#45;&gt;Node4</title>
<g id="a_edge33_Node000001_Node000004"><a xlink:title=" ">
<path fill="none" stroke="#63b8ff" d="M74.44,-386.78C85.73,-413.49 120.91,-488.19 175,-525 178.34,-527.27 181.88,-529.33 185.54,-531.2"/>
<polygon fill="#63b8ff" stroke="#63b8ff" points="184.34,-534.5 194.9,-535.44 187.24,-528.12 184.34,-534.5"/>
</a>
</g>
</g>
<!-- Node5 -->
<g id="Node000005" class="node">
<title>Node5</title>
<g id="a_Node000005"><a xlink:href="$classcam_1_1nc_1_1rez2_1_1Creator.html#af4e12ba8323a7e5e6c2d6d2f6a00607d" xlink:title=" ">
<polygon fill="white" stroke="#666666" points="358,-515.5 191,-515.5 191,-496.5 358,-496.5 358,-515.5"/>
<text text-anchor="middle" x="274.5" y="-503.5" font-family="Helvetica,sans-Serif" font-size="10.00">cam.nc.rez2.Creator.same_xyz</text>
</a>
</g>
</g>
<!-- Node1&#45;&gt;Node5 -->
<g id="edge34_Node000001_Node000005" class="edge">
<title>Node1&#45;&gt;Node5</title>
<g id="a_edge34_Node000001_Node000005"><a xlink:title=" ">
<path fill="none" stroke="#63b8ff" d="M76.43,-386.65C90.5,-408.65 128.27,-462.58 175,-488 178.33,-489.81 181.8,-491.44 185.37,-492.91"/>
<polygon fill="#63b8ff" stroke="#63b8ff" points="184.43,-496.29 195.02,-496.44 186.83,-489.72 184.43,-496.29"/>
</a>
</g>
</g>
<!-- Node6 -->
<g id="Node000006" class="node">
<title>Node6</title>
<g id="a_Node000006"><a xlink:href="$classcam_1_1nc_1_1cad__nc__read_1_1Parser.html#adcf2f47949df29f187f27fe985884633" xlink:title=" ">
<polygon fill="white" stroke="#666666" points="362.5,-460.5 186.5,-460.5 186.5,-441.5 362.5,-441.5 362.5,-460.5"/>
<text text-anchor="middle" x="274.5" y="-448.5" font-family="Helvetica,sans-Serif" font-size="10.00">cam.nc.cad_nc_read.Parser.write</text>
</a>
</g>
</g>
<!-- Node1&#45;&gt;Node6 -->
<g id="edge35_Node000001_Node000006" class="edge">
<title>Node1&#45;&gt;Node6</title>
<g id="a_edge35_Node000001_Node000006"><a xlink:title=" ">
<path fill="none" stroke="#63b8ff" d="M85.05,-386.7C104.65,-399.31 141,-421.11 175,-433 181.71,-435.35 188.8,-437.4 195.96,-439.2"/>
<polygon fill="#63b8ff" stroke="#63b8ff" points="195.21,-442.62 205.75,-441.5 196.81,-435.81 195.21,-442.62"/>
</a>
</g>
</g>
<!-- Node7 -->
<g id="Node000007" class="node">
<title>Node7</title>
<g id="a_Node000007"><a xlink:href="$classcam_1_1nc_1_1hxml__writer_1_1HxmlWriter.html#aed6f93c98cb8c0e3f3e826e75b6d6f15" xlink:title=" ">
<polygon fill="white" stroke="#666666" points="374,-405.5 175,-405.5 175,-386.5 374,-386.5 374,-405.5"/>
<text text-anchor="middle" x="274.5" y="-393.5" font-family="Helvetica,sans-Serif" font-size="10.00">cam.nc.hxml_writer.HxmlWriter.write</text>
</a>
</g>
</g>
<!-- Node1&#45;&gt;Node7 -->
<g id="edge37_Node000001_Node000007" class="edge">
<title>Node1&#45;&gt;Node7</title>
<g id="a_edge37_Node000001_Node000007"><a xlink:title=" ">
<path fill="none" stroke="#63b8ff" d="M139.23,-383.43C147.49,-384.21 156.09,-385.01 164.75,-385.82"/>
<polygon fill="#63b8ff" stroke="#63b8ff" points="164.65,-389.33 174.94,-386.77 165.31,-382.36 164.65,-389.33"/>
</a>
</g>
</g>
<!-- Node8 -->
<g id="Node000008" class="node">
<title>Node8</title>
<g id="a_Node000008"><a xlink:href="$classcam_1_1nc_1_1iso_1_1Creator.html#abb81af5a0bdddfed387b71b68a51cc7a" xlink:title="Internals.">
<polygon fill="white" stroke="#666666" points="342,-368.5 207,-368.5 207,-349.5 342,-349.5 342,-368.5"/>
<text text-anchor="middle" x="274.5" y="-356.5" font-family="Helvetica,sans-Serif" font-size="10.00">cam.nc.iso.Creator.write</text>
</a>
</g>
</g>
<!-- Node1&#45;&gt;Node8 -->
<g id="edge39_Node000001_Node000008" class="edge">
<title>Node1&#45;&gt;Node8</title>
<g id="a_edge39_Node000001_Node000008"><a xlink:title=" ">
<path fill="none" stroke="#63b8ff" d="M139.23,-370.91C157.75,-369.26 177.91,-367.48 196.84,-365.8"/>
<polygon fill="#63b8ff" stroke="#63b8ff" points="197.26,-369.27 206.91,-364.9 196.64,-362.3 197.26,-369.27"/>
</a>
</g>
</g>
<!-- Node9 -->
<g id="Node000009" class="node">
<title>Node9</title>
<g id="a_Node000009"><a xlink:href="$classcam_1_1nc_1_1nc_1_1Creator.html#a80f2134add83bfaaf2870d075d36ed8a" xlink:title=" ">
<polygon fill="white" stroke="#666666" points="340.5,-313.5 208.5,-313.5 208.5,-294.5 340.5,-294.5 340.5,-313.5"/>
<text text-anchor="middle" x="274.5" y="-301.5" font-family="Helvetica,sans-Serif" font-size="10.00">cam.nc.nc.Creator.write</text>
</a>
</g>
</g>
<!-- Node1&#45;&gt;Node9 -->
<g id="edge40_Node000001_Node000009" class="edge">
<title>Node1&#45;&gt;Node9</title>
<g id="a_edge40_Node000001_Node000009"><a xlink:title=" ">
<path fill="none" stroke="#63b8ff" d="M97.04,-367.46C132.98,-354.53 197.25,-331.42 237.52,-316.94"/>
<polygon fill="#63b8ff" stroke="#63b8ff" points="238.73,-320.22 246.95,-313.55 236.36,-313.64 238.73,-320.22"/>
</a>
</g>
</g>
<!-- Node10 -->
<g id="Node000010" class="node">
<title>Node10</title>
<g id="a_Node000010"><a xlink:href="$classcam_1_1nc_1_1nclathe__read_1_1Parser.html#ab5ea283b461b57e48c8d5b0ad0a45694" xlink:title=" ">
<polygon fill="white" stroke="#666666" points="363.5,-258.5 185.5,-258.5 185.5,-239.5 363.5,-239.5 363.5,-258.5"/>
<text text-anchor="middle" x="274.5" y="-246.5" font-family="Helvetica,sans-Serif" font-size="10.00">cam.nc.nclathe_read.Parser.write</text>
</a>
</g>
</g>
<!-- Node1&#45;&gt;Node10 -->
<g id="edge42_Node000001_Node000010" class="edge">
<title>Node1&#45;&gt;Node10</title>
<g id="a_edge42_Node000001_Node000010"><a xlink:title=" ">
<path fill="none" stroke="#63b8ff" d="M79.39,-367.22C96.39,-349.02 135.33,-309.66 175,-286 191.94,-275.89 212.12,-267.73 229.79,-261.67"/>
<polygon fill="#63b8ff" stroke="#63b8ff" points="230.92,-264.98 239.31,-258.52 228.72,-258.33 230.92,-264.98"/>
</a>
</g>
</g>
<!-- Node11 -->
<g id="Node000011" class="node">
<title>Node11</title>
<g id="a_Node000011"><a xlink:href="$classcam_1_1nc_1_1recreator_1_1Redirector.html#a79cc974683588db3ef959189e7552c0d" xlink:title="Programs.">
<polygon fill="white" stroke="#666666" points="364,-203.5 185,-203.5 185,-184.5 364,-184.5 364,-203.5"/>
<text text-anchor="middle" x="274.5" y="-191.5" font-family="Helvetica,sans-Serif" font-size="10.00">cam.nc.recreator.Redirector.write</text>
</a>
</g>
</g>
<!-- Node1&#45;&gt;Node11 -->
<g id="edge44_Node000001_Node000011" class="edge">
<title>Node1&#45;&gt;Node11</title>
<g id="a_edge44_Node000001_Node000011"><a xlink:title=" ">
<path fill="none" stroke="#63b8ff" d="M74.89,-367.32C87.08,-341.49 123.81,-270.28 175,-231 188.92,-220.32 206.27,-212.44 222.5,-206.77"/>
<polygon fill="#63b8ff" stroke="#63b8ff" points="224.01,-209.96 232.43,-203.52 221.84,-203.31 224.01,-209.96"/>
</a>
</g>
</g>
<!-- Node12 -->
<g id="Node000012" class="node">
<title>Node12</title>
<g id="a_Node000012"><a xlink:href="$classcam_1_1nc_1_1format_1_1Address.html#aa21f0ffeb829537d9103759276c01a4b" xlink:title=" ">
<polygon fill="white" stroke="#666666" points="353.5,-166.5 195.5,-166.5 195.5,-147.5 353.5,-147.5 353.5,-166.5"/>
<text text-anchor="middle" x="274.5" y="-154.5" font-family="Helvetica,sans-Serif" font-size="10.00">cam.nc.format.Address.write</text>
</a>
</g>
</g>
<!-- Node1&#45;&gt;Node12 -->
<g id="edge46_Node000001_Node000012" class="edge">
<title>Node1&#45;&gt;Node12</title>
<g id="a_edge46_Node000001_Node000012"><a xlink:title=" ">
<path fill="none" stroke="#63b8ff" d="M72.47,-367.08C79.58,-333.97 107.22,-226.56 175,-176 178.45,-173.42 182.16,-171.17 186.04,-169.19"/>
<polygon fill="#63b8ff" stroke="#63b8ff" points="187.63,-172.32 195.37,-165.08 184.8,-165.91 187.63,-172.32"/>
</a>
</g>
</g>
<!-- Node23 -->
<g id="Node000023" class="node">
<title>Node23</title>
<g id="a_Node000023"><a xlink:href="$classcam_1_1nc_1_1format_1_1AddressPlusMinus.html#aaacea4c7b677f0a602dbc9023ff365d2" xlink:title=" ">
<polygon fill="white" stroke="#666666" points="349.5,-129 199.5,-129 199.5,-99 349.5,-99 349.5,-129"/>
<text text-anchor="start" x="207.5" y="-117" font-family="Helvetica,sans-Serif" font-size="10.00">cam.nc.format.AddressPlus</text>
<text text-anchor="middle" x="274.5" y="-106" font-family="Helvetica,sans-Serif" font-size="10.00">Minus.write</text>
</a>
</g>
</g>
<!-- Node1&#45;&gt;Node23 -->
<g id="edge59_Node000001_Node000023" class="edge">
<title>Node1&#45;&gt;Node23</title>
<g id="a_edge59_Node000001_Node000023"><a xlink:title=" ">
<path fill="none" stroke="#63b8ff" d="M71.66,-367.46C76.58,-331.35 99.07,-201.8 175,-138 179.58,-134.16 184.67,-130.91 190.06,-128.17"/>
<polygon fill="#63b8ff" stroke="#63b8ff" points="191.68,-131.28 199.39,-124.02 188.83,-124.89 191.68,-131.28"/>
</a>
</g>
</g>
<!-- Node6&#45;&gt;Node6 -->
<g id="edge36_Node000006_Node000006" class="edge">
<title>Node6&#45;&gt;Node6</title>
<g id="a_edge36_Node000006_Node000006"><a xlink:title=" ">
<path fill="none" stroke="#63b8ff" d="M243.06,-460.58C227.76,-469.23 238.24,-478.5 274.5,-478.5 299.99,-478.5 312.74,-473.92 312.75,-468.19"/>
<polygon fill="#63b8ff" stroke="#63b8ff" points="315.22,-465.7 305.94,-460.58 310,-470.37 315.22,-465.7"/>
</a>
</g>
</g>
<!-- Node7&#45;&gt;Node7 -->
<g id="edge38_Node000007_Node000007" class="edge">
<title>Node7&#45;&gt;Node7</title>
<g id="a_edge38_Node000007_Node000007"><a xlink:title=" ">
<path fill="none" stroke="#63b8ff" d="M243.06,-405.58C227.76,-414.23 238.24,-423.5 274.5,-423.5 299.99,-423.5 312.74,-418.92 312.75,-413.19"/>
<polygon fill="#63b8ff" stroke="#63b8ff" points="315.22,-410.7 305.94,-405.58 310,-415.37 315.22,-410.7"/>
</a>
</g>
</g>
<!-- Node9&#45;&gt;Node9 -->
<g id="edge41_Node000009_Node000009" class="edge">
<title>Node9&#45;&gt;Node9</title>
<g id="a_edge41_Node000009_Node000009"><a xlink:title=" ">
<path fill="none" stroke="#63b8ff" d="M243.06,-313.58C227.76,-322.23 238.24,-331.5 274.5,-331.5 299.99,-331.5 312.74,-326.92 312.75,-321.19"/>
<polygon fill="#63b8ff" stroke="#63b8ff" points="315.22,-318.7 305.94,-313.58 310,-323.37 315.22,-318.7"/>
</a>
</g>
</g>
<!-- Node10&#45;&gt;Node10 -->
<g id="edge43_Node000010_Node000010" class="edge">
<title>Node10&#45;&gt;Node10</title>
<g id="a_edge43_Node000010_Node000010"><a xlink:title=" ">
<path fill="none" stroke="#63b8ff" d="M243.06,-258.58C227.76,-267.23 238.24,-276.5 274.5,-276.5 299.99,-276.5 312.74,-271.92 312.75,-266.19"/>
<polygon fill="#63b8ff" stroke="#63b8ff" points="315.22,-263.7 305.94,-258.58 310,-268.37 315.22,-263.7"/>
</a>
</g>
</g>
<!-- Node11&#45;&gt;Node11 -->
<g id="edge45_Node000011_Node000011" class="edge">
<title>Node11&#45;&gt;Node11</title>
<g id="a_edge45_Node000011_Node000011"><a xlink:title=" ">
<path fill="none" stroke="#63b8ff" d="M243.06,-203.58C227.76,-212.23 238.24,-221.5 274.5,-221.5 299.99,-221.5 312.74,-216.92 312.75,-211.19"/>
<polygon fill="#63b8ff" stroke="#63b8ff" points="315.22,-208.7 305.94,-203.58 310,-213.37 315.22,-208.7"/>
</a>
</g>
</g>
<!-- Node13 -->
<g id="Node000013" class="node">
<title>Node13</title>
<g id="a_Node000013"><a xlink:href="$classcam_1_1async__op_1_1AsyncOperatorMixin.html#a9628cbca8e69ec75b2337171a02bf428" xlink:title=" ">
<polygon fill="white" stroke="#666666" points="571,-150 410,-150 410,-120 571,-120 571,-150"/>
<text text-anchor="start" x="418" y="-138" font-family="Helvetica,sans-Serif" font-size="10.00">cam.async_op.AsyncOperator</text>
<text text-anchor="middle" x="490.5" y="-127" font-family="Helvetica,sans-Serif" font-size="10.00">Mixin.modal</text>
</a>
</g>
</g>
<!-- Node12&#45;&gt;Node13 -->
<g id="edge47_Node000012_Node000013" class="edge">
<title>Node12&#45;&gt;Node13</title>
<g id="a_edge47_Node000012_Node000013"><a xlink:title=" ">
<path fill="none" stroke="#63b8ff" d="M353.67,-148.96C368.65,-147.42 384.45,-145.8 399.77,-144.22"/>
<polygon fill="#63b8ff" stroke="#63b8ff" points="400.16,-147.7 409.75,-143.2 399.45,-140.74 400.16,-147.7"/>
</a>
</g>
</g>
<!-- Node14 -->
<g id="Node000014" class="node">
<title>Node14</title>
<g id="a_Node000014"><a xlink:href="$classcam_1_1async__op_1_1AsyncOperatorMixin.html#a15a51cfd69d8e453e2e3d64386b1ebe3" xlink:title=" ">
<polygon fill="white" stroke="#666666" points="768,-150 607,-150 607,-120 768,-120 768,-150"/>
<text text-anchor="start" x="615" y="-138" font-family="Helvetica,sans-Serif" font-size="10.00">cam.async_op.AsyncOperator</text>
<text text-anchor="middle" x="687.5" y="-127" font-family="Helvetica,sans-Serif" font-size="10.00">Mixin.tick</text>
</a>
</g>
</g>
<!-- Node13&#45;&gt;Node14 -->
<g id="edge48_Node000013_Node000014" class="edge">
<title>Node13&#45;&gt;Node14</title>
<g id="a_edge48_Node000013_Node000014"><a xlink:title=" ">
<path fill="none" stroke="#63b8ff" d="M571.1,-135C579.57,-135 588.24,-135 596.82,-135"/>
<polygon fill="#63b8ff" stroke="#63b8ff" points="596.84,-138.5 606.84,-135 596.84,-131.5 596.84,-138.5"/>
</a>
</g>
</g>
<!-- Node15 -->
<g id="Node000015" class="node">
<title>Node15</title>
<g id="a_Node000015"><a xlink:href="$classcam_1_1async__op_1_1AsyncTestOperator.html#a42606ca890a957aa7070a4bc6f25228b" xlink:title=" ">
<polygon fill="white" stroke="#666666" points="1025,-270 804,-270 804,-240 1025,-240 1025,-270"/>
<text text-anchor="start" x="812" y="-258" font-family="Helvetica,sans-Serif" font-size="10.00">cam.async_op.AsyncTestOperator.execute</text>
<text text-anchor="middle" x="914.5" y="-247" font-family="Helvetica,sans-Serif" font-size="10.00">_async</text>
</a>
</g>
</g>
<!-- Node14&#45;&gt;Node15 -->
<g id="edge49_Node000014_Node000015" class="edge">
<title>Node14&#45;&gt;Node15</title>
<g id="a_edge49_Node000014_Node000015"><a xlink:title=" ">
<path fill="none" stroke="#63b8ff" d="M702.18,-150.27C722.31,-171.74 762.07,-210.51 804,-231 808.09,-233 812.35,-234.84 816.72,-236.52"/>
<polygon fill="#63b8ff" stroke="#63b8ff" points="815.81,-239.91 826.41,-239.97 818.16,-233.32 815.81,-239.91"/>
</a>
</g>
</g>
<!-- Node16 -->
<g id="Node000016" class="node">
<title>Node16</title>
<g id="a_Node000016"><a xlink:href="$classcam_1_1ops_1_1CalculatePath.html#a13dfe2f8578383234e74e58e2f292e1b" xlink:title=" ">
<polygon fill="white" stroke="#666666" points="999,-222 830,-222 830,-192 999,-192 999,-222"/>
<text text-anchor="start" x="838" y="-210" font-family="Helvetica,sans-Serif" font-size="10.00">cam.ops.CalculatePath.execute</text>
<text text-anchor="middle" x="914.5" y="-199" font-family="Helvetica,sans-Serif" font-size="10.00">_async</text>
</a>
</g>
</g>
<!-- Node14&#45;&gt;Node16 -->
<g id="edge50_Node000014_Node000016" class="edge">
<title>Node14&#45;&gt;Node16</title>
<g id="a_edge50_Node000014_Node000016"><a xlink:title=" ">
<path fill="none" stroke="#63b8ff" d="M720.29,-150.01C743.18,-160.38 775,-173.88 804,-183 811.31,-185.3 818.96,-187.46 826.68,-189.47"/>
<polygon fill="#63b8ff" stroke="#63b8ff" points="825.91,-192.89 836.46,-191.93 827.62,-186.1 825.91,-192.89"/>
</a>
</g>
</g>
<!-- Node18 -->
<g id="Node000018" class="node">
<title>Node18</title>
<g id="a_Node000018"><a xlink:href="$classcam_1_1ops_1_1PathsChain.html#a6fc64e383ccf724b2325e18a82d53eae" xlink:title=" ">
<polygon fill="white" stroke="#666666" points="992.5,-174 836.5,-174 836.5,-144 992.5,-144 992.5,-174"/>
<text text-anchor="start" x="844.5" y="-162" font-family="Helvetica,sans-Serif" font-size="10.00">cam.ops.PathsChain.execute</text>
<text text-anchor="middle" x="914.5" y="-151" font-family="Helvetica,sans-Serif" font-size="10.00">_async</text>
</a>
</g>
</g>
<!-- Node14&#45;&gt;Node18 -->
<g id="edge52_Node000014_Node000018" class="edge">
<title>Node14&#45;&gt;Node18</title>
<g id="a_edge52_Node000014_Node000018"><a xlink:title=" ">
<path fill="none" stroke="#63b8ff" d="M768.14,-143.5C786.9,-145.5 806.98,-147.64 826.06,-149.67"/>
<polygon fill="#63b8ff" stroke="#63b8ff" points="825.92,-153.18 836.23,-150.76 826.66,-146.22 825.92,-153.18"/>
</a>
</g>
</g>
<!-- Node20 -->
<g id="Node000020" class="node">
<title>Node20</title>
<g id="a_Node000020"><a xlink:href="$classcam_1_1ops_1_1CAMSimulate.html#a633151f17849d281fd52ce82c00356a7" xlink:title=" ">
<polygon fill="white" stroke="#666666" points="998.5,-126 830.5,-126 830.5,-96 998.5,-96 998.5,-126"/>
<text text-anchor="start" x="838.5" y="-114" font-family="Helvetica,sans-Serif" font-size="10.00">cam.ops.CAMSimulate.execute</text>
<text text-anchor="middle" x="914.5" y="-103" font-family="Helvetica,sans-Serif" font-size="10.00">_async</text>
</a>
</g>
</g>
<!-- Node14&#45;&gt;Node20 -->
<g id="edge55_Node000014_Node000020" class="edge">
<title>Node14&#45;&gt;Node20</title>
<g id="a_edge55_Node000014_Node000020"><a xlink:title=" ">
<path fill="none" stroke="#63b8ff" d="M768.14,-126.5C784.95,-124.71 802.82,-122.81 820.08,-120.97"/>
<polygon fill="#63b8ff" stroke="#63b8ff" points="820.58,-124.43 830.15,-119.89 819.84,-117.47 820.58,-124.43"/>
</a>
</g>
</g>
<!-- Node21 -->
<g id="Node000021" class="node">
<title>Node21</title>
<g id="a_Node000021"><a xlink:href="$classcam_1_1ops_1_1CAMSimulateChain.html#a1e77c7ce21b3b7e3e38a12b6b62517e9" xlink:title=" ">
<polygon fill="white" stroke="#666666" points="1012.5,-78 816.5,-78 816.5,-48 1012.5,-48 1012.5,-78"/>
<text text-anchor="start" x="824.5" y="-66" font-family="Helvetica,sans-Serif" font-size="10.00">cam.ops.CAMSimulateChain.execute</text>
<text text-anchor="middle" x="914.5" y="-55" font-family="Helvetica,sans-Serif" font-size="10.00">_async</text>
</a>
</g>
</g>
<!-- Node14&#45;&gt;Node21 -->
<g id="edge56_Node000014_Node000021" class="edge">
<title>Node14&#45;&gt;Node21</title>
<g id="a_edge56_Node000014_Node000021"><a xlink:title=" ">
<path fill="none" stroke="#63b8ff" d="M720.29,-119.99C743.18,-109.62 775,-96.12 804,-87 811.31,-84.7 818.96,-82.54 826.68,-80.53"/>
<polygon fill="#63b8ff" stroke="#63b8ff" points="827.62,-83.9 836.46,-78.07 825.91,-77.11 827.62,-83.9"/>
</a>
</g>
</g>
<!-- Node22 -->
<g id="Node000022" class="node">
<title>Node22</title>
<g id="a_Node000022"><a xlink:href="$classcam_1_1async__op_1_1AsyncOperatorMixin.html#a2216ff6bb0dfd132f4ec4cf79b7cba2b" xlink:title=" ">
<polygon fill="white" stroke="#666666" points="995,-30 834,-30 834,0 995,0 995,-30"/>
<text text-anchor="start" x="842" y="-18" font-family="Helvetica,sans-Serif" font-size="10.00">cam.async_op.AsyncOperator</text>
<text text-anchor="middle" x="914.5" y="-7" font-family="Helvetica,sans-Serif" font-size="10.00">Mixin.show_progress</text>
</a>
</g>
</g>
<!-- Node14&#45;&gt;Node22 -->
<g id="edge58_Node000014_Node000022" class="edge">
<title>Node14&#45;&gt;Node22</title>
<g id="a_edge58_Node000014_Node000022"><a xlink:title=" ">
<path fill="none" stroke="#63b8ff" d="M702.18,-119.73C722.31,-98.26 762.07,-59.49 804,-39 810.43,-35.86 817.27,-33.12 824.28,-30.74"/>
<polygon fill="#63b8ff" stroke="#63b8ff" points="825.42,-34.05 833.91,-27.71 823.32,-27.37 825.42,-34.05"/>
</a>
</g>
</g>
<!-- Node17 -->
<g id="Node000017" class="node">
<title>Node17</title>
<g id="a_Node000017"><a xlink:href="$namespacecam_1_1ops.html#aa8e95f7410a7ceb178db48f4f8c2d995" xlink:title=" ">
<polygon fill="white" stroke="#666666" points="1196.5,-192.5 1083.5,-192.5 1083.5,-173.5 1196.5,-173.5 1196.5,-192.5"/>
<text text-anchor="middle" x="1140" y="-180.5" font-family="Helvetica,sans-Serif" font-size="10.00">cam.ops._calc_path</text>
</a>
</g>
</g>
<!-- Node16&#45;&gt;Node17 -->
<g id="edge51_Node000016_Node000017" class="edge">
<title>Node16&#45;&gt;Node17</title>
<g id="a_edge51_Node000016_Node000017"><a xlink:title=" ">
<path fill="none" stroke="#63b8ff" d="M999.04,-198.03C1023.56,-195.4 1050.01,-192.56 1073.25,-190.06"/>
<polygon fill="#63b8ff" stroke="#63b8ff" points="1073.77,-193.52 1083.34,-188.98 1073.03,-186.56 1073.77,-193.52"/>
</a>
</g>
</g>
<!-- Node18&#45;&gt;Node17 -->
<g id="edge53_Node000018_Node000017" class="edge">
<title>Node18&#45;&gt;Node17</title>
<g id="a_edge53_Node000018_Node000017"><a xlink:title=" ">
<path fill="none" stroke="#63b8ff" d="M992.73,-167.29C1018.9,-170.1 1047.87,-173.21 1073.08,-175.92"/>
<polygon fill="#63b8ff" stroke="#63b8ff" points="1072.95,-179.43 1083.27,-177.02 1073.7,-172.47 1072.95,-179.43"/>
</a>
</g>
</g>
<!-- Node19 -->
<g id="Node000019" class="node">
<title>Node19</title>
<g id="a_Node000019"><a xlink:href="$namespacecam_1_1ops.html#ab55fb8ec9a00e021e8e4a1c3ecc97cb4" xlink:title=" ">
<polygon fill="white" stroke="#666666" points="1219,-126.5 1061,-126.5 1061,-107.5 1219,-107.5 1219,-126.5"/>
<text text-anchor="middle" x="1140" y="-114.5" font-family="Helvetica,sans-Serif" font-size="10.00">cam.ops.getChainOperations</text>
</a>
</g>
</g>
<!-- Node18&#45;&gt;Node19 -->
<g id="edge54_Node000018_Node000019" class="edge">
<title>Node18&#45;&gt;Node19</title>
<g id="a_edge54_Node000018_Node000019"><a xlink:title=" ">
<path fill="none" stroke="#63b8ff" d="M992.73,-144.49C1020.81,-139.21 1052.12,-133.33 1078.54,-128.36"/>
<polygon fill="#63b8ff" stroke="#63b8ff" points="1079.23,-131.79 1088.41,-126.51 1077.94,-124.91 1079.23,-131.79"/>
</a>
</g>
</g>
<!-- Node21&#45;&gt;Node19 -->
<g id="edge57_Node000021_Node000019" class="edge">
<title>Node21&#45;&gt;Node19</title>
<g id="a_edge57_Node000021_Node000019"><a xlink:title=" ">
<path fill="none" stroke="#63b8ff" d="M986.28,-78.06C999.19,-80.94 1012.51,-83.99 1025,-87 1047.91,-92.52 1073.28,-99.15 1094.25,-104.77"/>
<polygon fill="#63b8ff" stroke="#63b8ff" points="1093.6,-108.21 1104.17,-107.43 1095.42,-101.45 1093.6,-108.21"/>
</a>
</g>
</g>
<!-- Node23&#45;&gt;Node13 -->
<g id="edge60_Node000023_Node000013" class="edge">
<title>Node23&#45;&gt;Node13</title>
<g id="a_edge60_Node000023_Node000013"><a xlink:title=" ">
<path fill="none" stroke="#63b8ff" d="M349.75,-121.29C365.84,-122.87 383.03,-124.55 399.65,-126.18"/>
<polygon fill="#63b8ff" stroke="#63b8ff" points="399.62,-129.7 409.92,-127.19 400.3,-122.73 399.62,-129.7"/>
</a>
</g>
</g>
</g>
</svg>
