<?xml version="1.0" encoding="UTF-8" standalone="no"?>
<!DOCTYPE svg PUBLIC "-//W3C//DTD SVG 1.1//EN"
 "http://www.w3.org/Graphics/SVG/1.1/DTD/svg11.dtd">
<!-- Generated by graphviz version 2.43.0 (0)
 -->
<!-- Title: cam.ui.VIEW3D_PT_tools_curvetools Pages: 1 -->
<svg width="171pt" height="197pt"
 viewBox="0.00 0.00 171.00 197.00" xmlns="http://www.w3.org/2000/svg" xmlns:xlink="http://www.w3.org/1999/xlink">
<g id="graph0" class="graph" transform="scale(1 1) rotate(0) translate(4 193)">
<title>cam.ui.VIEW3D_PT_tools_curvetools</title>
<!-- Node1 -->
<g id="Node000001" class="node">
<title>Node1</title>
<g id="a_Node000001"><a xlink:title=" ">
<polygon fill="#999999" stroke="transparent" points="132,-60 0,-60 0,0 132,0 132,-60"/>
<text text-anchor="start" x="5" y="-48" font-family="Helvetica,sans-Serif" font-size="10.00">cam.ui.VIEW3D_PT_tools</text>
<text text-anchor="start" x="37.5" y="-37" font-family="Helvetica,sans-Serif" font-size="10.00">_curvetools</text>
<text text-anchor="start" x="64" y="-22" font-family="Helvetica,sans-Serif" font-size="10.00"> </text>
<text text-anchor="start" x="23.5" y="-7" font-family="Helvetica,sans-Serif" font-size="10.00">+</text>
<text text-anchor="start" x="56" y="-7" font-family="Helvetica,sans-Serif" font-size="10.00">draw()</text>
<polygon fill="#666666" stroke="#666666" points="0,-32 0,-32 132,-32 132,-32 0,-32"/>
<polygon fill="#666666" stroke="#666666" points="0,-17 0,-17 132,-17 132,-17 0,-17"/>
<polygon fill="none" stroke="#666666" points="0,0 0,-60 132,-60 132,0 0,0"/>
</a>
</g>
</g>
<!-- Node2 -->
<g id="Node000002" class="node">
<title>Node2</title>
<g id="a_Node000002"><a xlink:title=" ">
<polygon fill="white" stroke="transparent" points="60.5,-189 23.5,-189 23.5,-140 60.5,-140 60.5,-189"/>
<text text-anchor="start" x="29" y="-176.5" font-family="Helvetica,sans-Serif" font-size="10.00">Panel</text>
<text text-anchor="start" x="40.5" y="-161.5" font-family="Helvetica,sans-Serif" font-size="10.00"> </text>
<text text-anchor="start" x="40.5" y="-146.5" font-family="Helvetica,sans-Serif" font-size="10.00"> </text>
<polygon fill="#666666" stroke="#666666" points="24,-171.5 24,-171.5 61,-171.5 61,-171.5 24,-171.5"/>
<polygon fill="#666666" stroke="#666666" points="24,-156.5 24,-156.5 61,-156.5 61,-156.5 24,-156.5"/>
<polygon fill="none" stroke="#666666" points="23.5,-140 23.5,-189 60.5,-189 60.5,-140 23.5,-140"/>
</a>
</g>
</g>
<!-- Node2&#45;&gt;Node1 -->
<g id="edge3_Node000001_Node000002" class="edge">
<title>Node2&#45;&gt;Node1</title>
<g id="a_edge3_Node000001_Node000002"><a xlink:title=" ">
<path fill="none" stroke="#63b8ff" d="M48.11,-129.78C52.01,-108.24 57.02,-80.6 60.74,-60.03"/>
<polygon fill="none" stroke="#63b8ff" points="44.63,-129.35 46.29,-139.81 51.52,-130.6 44.63,-129.35"/>
</a>
</g>
</g>
<!-- Node3 -->
<g id="Node000003" class="node">
<title>Node3</title>
<g id="a_Node000003"><a xlink:title=" ">
<polygon fill="white" stroke="transparent" points="101.5,-189 78.5,-189 78.5,-140 101.5,-140 101.5,-189"/>
<text text-anchor="start" x="84" y="-176.5" font-family="Helvetica,sans-Serif" font-size="10.00">str</text>
<text text-anchor="start" x="88.5" y="-161.5" font-family="Helvetica,sans-Serif" font-size="10.00"> </text>
<text text-anchor="start" x="88.5" y="-146.5" font-family="Helvetica,sans-Serif" font-size="10.00"> </text>
<polygon fill="#666666" stroke="#666666" points="79,-171.5 79,-171.5 102,-171.5 102,-171.5 79,-171.5"/>
<polygon fill="#666666" stroke="#666666" points="79,-156.5 79,-156.5 102,-156.5 102,-156.5 79,-156.5"/>
<polygon fill="none" stroke="#666666" points="78.5,-140 78.5,-189 101.5,-189 101.5,-140 78.5,-140"/>
</a>
</g>
</g>
<!-- Node3&#45;&gt;Node1 -->
<g id="edge4_Node000001_Node000003" class="edge">
<title>Node3&#45;&gt;Node1</title>
<g id="a_edge4_Node000001_Node000003"><a xlink:title=" ">
<path fill="none" stroke="#63b8ff" d="M85.71,-139.81C82.3,-120.97 77.44,-94.16 73.4,-71.87"/>
<polygon fill="none" stroke="#63b8ff" points="73.4,-71.84 68.39,-66.65 71.26,-60.03 76.26,-65.22 73.4,-71.84"/>
</a>
</g>
<text text-anchor="middle" x="122.5" y="-114" font-family="Helvetica,sans-Serif" font-size="10.00" fill="grey"> +bl_context</text>
<text text-anchor="middle" x="122.5" y="-103" font-family="Helvetica,sans-Serif" font-size="10.00" fill="grey">+bl_label</text>
<text text-anchor="middle" x="122.5" y="-92" font-family="Helvetica,sans-Serif" font-size="10.00" fill="grey">+bl_region_type</text>
<text text-anchor="middle" x="122.5" y="-81" font-family="Helvetica,sans-Serif" font-size="10.00" fill="grey">+bl_space_type</text>
</g>
</g>
</svg>
