<?xml version="1.0" encoding="UTF-8" standalone="no"?>
<!DOCTYPE svg PUBLIC "-//W3C//DTD SVG 1.1//EN"
 "http://www.w3.org/Graphics/SVG/1.1/DTD/svg11.dtd">
<!-- Generated by graphviz version 2.43.0 (0)
 -->
<!-- Title: cam.curvecamcreate.CamCurvePuzzle Pages: 1 -->
<svg width="748pt" height="356pt"
 viewBox="0.00 0.00 747.50 356.00" xmlns="http://www.w3.org/2000/svg" xmlns:xlink="http://www.w3.org/1999/xlink">
<g id="graph0" class="graph" transform="scale(1 1) rotate(0) translate(4 352)">
<title>cam.curvecamcreate.CamCurvePuzzle</title>
<!-- Node1 -->
<g id="Node000001" class="node">
<title>Node1</title>
<g id="a_Node000001"><a xlink:title=" ">
<polygon fill="#999999" stroke="transparent" points="337,-120 170,-120 170,0 337,0 337,-120"/>
<text text-anchor="start" x="175.5" y="-108" font-family="Helvetica,sans-Serif" font-size="10.00">cam.curvecamcreate.CamCurve</text>
<text text-anchor="start" x="238" y="-97" font-family="Helvetica,sans-Serif" font-size="10.00">Puzzle</text>
<text text-anchor="start" x="197.5" y="-82" font-family="Helvetica,sans-Serif" font-size="10.00">+</text>
<text text-anchor="start" x="233.5" y="-82" font-family="Helvetica,sans-Serif" font-size="10.00">width</text>
<text text-anchor="start" x="197.5" y="-67" font-family="Helvetica,sans-Serif" font-size="10.00">+</text>
<text text-anchor="start" x="233.5" y="-67" font-family="Helvetica,sans-Serif" font-size="10.00">twist_thick</text>
<text text-anchor="start" x="197.5" y="-52" font-family="Helvetica,sans-Serif" font-size="10.00">+</text>
<text text-anchor="start" x="233.5" y="-52" font-family="Helvetica,sans-Serif" font-size="10.00">width</text>
<text text-anchor="start" x="197.5" y="-37" font-family="Helvetica,sans-Serif" font-size="10.00">+</text>
<text text-anchor="start" x="233.5" y="-37" font-family="Helvetica,sans-Serif" font-size="10.00">twist_thick</text>
<text text-anchor="start" x="197.5" y="-22" font-family="Helvetica,sans-Serif" font-size="10.00">+</text>
<text text-anchor="start" x="233.5" y="-22" font-family="Helvetica,sans-Serif" font-size="10.00">draw()</text>
<text text-anchor="start" x="197.5" y="-7" font-family="Helvetica,sans-Serif" font-size="10.00">+</text>
<text text-anchor="start" x="233.5" y="-7" font-family="Helvetica,sans-Serif" font-size="10.00">execute()</text>
<polygon fill="#666666" stroke="#666666" points="170.5,-92 170.5,-92 337.5,-92 337.5,-92 170.5,-92"/>
<polygon fill="#666666" stroke="#666666" points="170.5,-32 170.5,-32 231.5,-32 231.5,-32 170.5,-32"/>
<polygon fill="#666666" stroke="#666666" points="231.5,-32 231.5,-32 337.5,-32 337.5,-32 231.5,-32"/>
<polygon fill="none" stroke="#666666" points="170,0 170,-120 337,-120 337,0 170,0"/>
</a>
</g>
</g>
<!-- Node2 -->
<g id="Node000002" class="node">
<title>Node2</title>
<g id="a_Node000002"><a xlink:title=" ">
<polygon fill="white" stroke="transparent" points="53,-348 0,-348 0,-299 53,-299 53,-348"/>
<text text-anchor="start" x="5.5" y="-335.5" font-family="Helvetica,sans-Serif" font-size="10.00">Operator</text>
<text text-anchor="start" x="25" y="-320.5" font-family="Helvetica,sans-Serif" font-size="10.00"> </text>
<text text-anchor="start" x="25" y="-305.5" font-family="Helvetica,sans-Serif" font-size="10.00"> </text>
<polygon fill="#666666" stroke="#666666" points="0.5,-330.5 0.5,-330.5 53.5,-330.5 53.5,-330.5 0.5,-330.5"/>
<polygon fill="#666666" stroke="#666666" points="0.5,-315.5 0.5,-315.5 53.5,-315.5 53.5,-315.5 0.5,-315.5"/>
<polygon fill="none" stroke="#666666" points="0,-299 0,-348 53,-348 53,-299 0,-299"/>
</a>
</g>
</g>
<!-- Node2&#45;&gt;Node1 -->
<g id="edge8_Node000001_Node000002" class="edge">
<title>Node2&#45;&gt;Node1</title>
<g id="a_edge8_Node000001_Node000002"><a xlink:title=" ">
<path fill="none" stroke="#63b8ff" d="M25.57,-288.68C26.26,-248.28 33.35,-180.77 69.5,-138 94.98,-107.85 134.26,-89.28 169.99,-77.96"/>
<polygon fill="none" stroke="#63b8ff" points="22.07,-288.81 25.53,-298.83 29.07,-288.85 22.07,-288.81"/>
</a>
</g>
</g>
<!-- Node3 -->
<g id="Node000003" class="node">
<title>Node3</title>
<g id="a_Node000003"><a xlink:title=" ">
<polygon fill="white" stroke="transparent" points="94,-348 71,-348 71,-299 94,-299 94,-348"/>
<text text-anchor="start" x="76.5" y="-335.5" font-family="Helvetica,sans-Serif" font-size="10.00">str</text>
<text text-anchor="start" x="81" y="-320.5" font-family="Helvetica,sans-Serif" font-size="10.00"> </text>
<text text-anchor="start" x="81" y="-305.5" font-family="Helvetica,sans-Serif" font-size="10.00"> </text>
<polygon fill="#666666" stroke="#666666" points="71.5,-330.5 71.5,-330.5 94.5,-330.5 94.5,-330.5 71.5,-330.5"/>
<polygon fill="#666666" stroke="#666666" points="71.5,-315.5 71.5,-315.5 94.5,-315.5 94.5,-315.5 71.5,-315.5"/>
<polygon fill="none" stroke="#666666" points="71,-299 71,-348 94,-348 94,-299 71,-299"/>
</a>
</g>
</g>
<!-- Node3&#45;&gt;Node1 -->
<g id="edge9_Node000001_Node000003" class="edge">
<title>Node3&#45;&gt;Node1</title>
<g id="a_edge9_Node000001_Node000003"><a xlink:title=" ">
<path fill="none" stroke="#63b8ff" d="M77.9,-298.83C71.96,-261.2 66.01,-187 99.5,-138 113.91,-116.91 135.87,-101.32 158.72,-89.91"/>
<polygon fill="none" stroke="#63b8ff" points="158.76,-89.89 162.49,-83.72 169.62,-84.79 165.89,-90.96 158.76,-89.89"/>
</a>
</g>
<text text-anchor="middle" x="131" y="-212.5" font-family="Helvetica,sans-Serif" font-size="10.00" fill="grey"> +bl_idname</text>
<text text-anchor="middle" x="131" y="-201.5" font-family="Helvetica,sans-Serif" font-size="10.00" fill="grey">+bl_label</text>
</g>
<!-- Node4 -->
<g id="Node000004" class="node">
<title>Node4</title>
<g id="a_Node000004"><a xlink:title=" ">
<polygon fill="white" stroke="transparent" points="183,-348 154,-348 154,-299 183,-299 183,-348"/>
<text text-anchor="start" x="159.5" y="-335.5" font-family="Helvetica,sans-Serif" font-size="10.00">dict</text>
<text text-anchor="start" x="167" y="-320.5" font-family="Helvetica,sans-Serif" font-size="10.00"> </text>
<text text-anchor="start" x="167" y="-305.5" font-family="Helvetica,sans-Serif" font-size="10.00"> </text>
<polygon fill="#666666" stroke="#666666" points="154.5,-330.5 154.5,-330.5 183.5,-330.5 183.5,-330.5 154.5,-330.5"/>
<polygon fill="#666666" stroke="#666666" points="154.5,-315.5 154.5,-315.5 183.5,-315.5 183.5,-315.5 154.5,-315.5"/>
<polygon fill="none" stroke="#666666" points="154,-299 154,-348 183,-348 183,-299 154,-299"/>
</a>
</g>
</g>
<!-- Node4&#45;&gt;Node1 -->
<g id="edge10_Node000001_Node000004" class="edge">
<title>Node4&#45;&gt;Node1</title>
<g id="a_edge10_Node000001_Node000004"><a xlink:title=" ">
<path fill="none" stroke="#63b8ff" d="M166.56,-298.96C164.53,-262.77 164.31,-192 187.5,-138 188.57,-135.5 189.76,-133.03 191.03,-130.58"/>
<polygon fill="none" stroke="#63b8ff" points="191.13,-130.41 190.7,-123.21 197.17,-120.04 197.61,-127.24 191.13,-130.41"/>
</a>
</g>
<text text-anchor="middle" x="218.5" y="-207" font-family="Helvetica,sans-Serif" font-size="10.00" fill="grey"> +bl_options</text>
</g>
<!-- Node5 -->
<g id="Node000005" class="node">
<title>Node5</title>
<g id="a_Node000005"><a xlink:title=" ">
<polygon fill="white" stroke="transparent" points="292,-348 215,-348 215,-299 292,-299 292,-348"/>
<text text-anchor="start" x="220.5" y="-335.5" font-family="Helvetica,sans-Serif" font-size="10.00">FloatProperty</text>
<text text-anchor="start" x="252" y="-320.5" font-family="Helvetica,sans-Serif" font-size="10.00"> </text>
<text text-anchor="start" x="252" y="-305.5" font-family="Helvetica,sans-Serif" font-size="10.00"> </text>
<polygon fill="#666666" stroke="#666666" points="215.5,-330.5 215.5,-330.5 292.5,-330.5 292.5,-330.5 215.5,-330.5"/>
<polygon fill="#666666" stroke="#666666" points="215.5,-315.5 215.5,-315.5 292.5,-315.5 292.5,-315.5 215.5,-315.5"/>
<polygon fill="none" stroke="#666666" points="215,-299 215,-348 292,-348 292,-299 215,-299"/>
</a>
</g>
</g>
<!-- Node5&#45;&gt;Node1 -->
<g id="edge11_Node000001_Node000005" class="edge">
<title>Node5&#45;&gt;Node1</title>
<g id="a_edge11_Node000001_Node000005"><a xlink:title=" ">
<path fill="none" stroke="#63b8ff" d="M253.5,-298.83C253.5,-261.6 253.5,-187.89 253.5,-132.34"/>
<polygon fill="none" stroke="#63b8ff" points="253.5,-132.07 249.5,-126.07 253.5,-120.07 257.5,-126.07 253.5,-132.07"/>
</a>
</g>
<text text-anchor="middle" x="301" y="-273" font-family="Helvetica,sans-Serif" font-size="10.00" fill="grey"> +angle</text>
<text text-anchor="middle" x="301" y="-262" font-family="Helvetica,sans-Serif" font-size="10.00" fill="grey">+angleb</text>
<text text-anchor="middle" x="301" y="-251" font-family="Helvetica,sans-Serif" font-size="10.00" fill="grey">+diameter</text>
<text text-anchor="middle" x="301" y="-240" font-family="Helvetica,sans-Serif" font-size="10.00" fill="grey">+finger_tolerance</text>
<text text-anchor="middle" x="301" y="-229" font-family="Helvetica,sans-Serif" font-size="10.00" fill="grey">+height</text>
<text text-anchor="middle" x="301" y="-218" font-family="Helvetica,sans-Serif" font-size="10.00" fill="grey">+overcut_diameter</text>
<text text-anchor="middle" x="301" y="-207" font-family="Helvetica,sans-Serif" font-size="10.00" fill="grey">+radius</text>
<text text-anchor="middle" x="301" y="-196" font-family="Helvetica,sans-Serif" font-size="10.00" fill="grey">+twist_percent</text>
<text text-anchor="start" x="253.5" y="-185" font-family="Helvetica,sans-Serif" font-size="10.00" fill="grey">+twist_separator</text>
<text text-anchor="middle" x="301" y="-174" font-family="Helvetica,sans-Serif" font-size="10.00" fill="grey">_edge_distance</text>
<text text-anchor="start" x="253.5" y="-163" font-family="Helvetica,sans-Serif" font-size="10.00" fill="grey">+twist_separator</text>
<text text-anchor="middle" x="301" y="-152" font-family="Helvetica,sans-Serif" font-size="10.00" fill="grey">_spacing</text>
<text text-anchor="middle" x="301" y="-141" font-family="Helvetica,sans-Serif" font-size="10.00" fill="grey">...</text>
</g>
<!-- Node6 -->
<g id="Node000006" class="node">
<title>Node6</title>
<g id="a_Node000006"><a xlink:title=" ">
<polygon fill="white" stroke="transparent" points="404,-348 339,-348 339,-299 404,-299 404,-348"/>
<text text-anchor="start" x="344.5" y="-335.5" font-family="Helvetica,sans-Serif" font-size="10.00">IntProperty</text>
<text text-anchor="start" x="370" y="-320.5" font-family="Helvetica,sans-Serif" font-size="10.00"> </text>
<text text-anchor="start" x="370" y="-305.5" font-family="Helvetica,sans-Serif" font-size="10.00"> </text>
<polygon fill="#666666" stroke="#666666" points="339.5,-330.5 339.5,-330.5 404.5,-330.5 404.5,-330.5 339.5,-330.5"/>
<polygon fill="#666666" stroke="#666666" points="339.5,-315.5 339.5,-315.5 404.5,-315.5 404.5,-315.5 339.5,-315.5"/>
<polygon fill="none" stroke="#666666" points="339,-299 339,-348 404,-348 404,-299 339,-299"/>
</a>
</g>
</g>
<!-- Node6&#45;&gt;Node1 -->
<g id="edge12_Node000001_Node000006" class="edge">
<title>Node6&#45;&gt;Node1</title>
<g id="a_edge12_Node000001_Node000006"><a xlink:title=" ">
<path fill="none" stroke="#63b8ff" d="M370.88,-298.75C369.39,-255.32 364.53,-165.08 349.5,-138 347.98,-135.26 346.32,-132.59 344.54,-129.97"/>
<polygon fill="none" stroke="#63b8ff" points="344.38,-129.76 337.57,-127.4 337.13,-120.21 343.94,-122.57 344.38,-129.76"/>
</a>
</g>
<text text-anchor="middle" x="433" y="-240" font-family="Helvetica,sans-Serif" font-size="10.00" fill="grey"> +finger_amount</text>
<text text-anchor="middle" x="433" y="-229" font-family="Helvetica,sans-Serif" font-size="10.00" fill="grey">+interlock_amount</text>
<text text-anchor="middle" x="433" y="-218" font-family="Helvetica,sans-Serif" font-size="10.00" fill="grey">+stem_size</text>
<text text-anchor="middle" x="433" y="-207" font-family="Helvetica,sans-Serif" font-size="10.00" fill="grey">+tile_x_amount</text>
<text text-anchor="middle" x="433" y="-196" font-family="Helvetica,sans-Serif" font-size="10.00" fill="grey">+tile_y_amount</text>
<text text-anchor="middle" x="433" y="-185" font-family="Helvetica,sans-Serif" font-size="10.00" fill="grey">+twist_line_amount</text>
<text text-anchor="middle" x="433" y="-174" font-family="Helvetica,sans-Serif" font-size="10.00" fill="grey">+twist_separator_amount</text>
</g>
<!-- Node7 -->
<g id="Node000007" class="node">
<title>Node7</title>
<g id="a_Node000007"><a xlink:title=" ">
<polygon fill="white" stroke="transparent" points="561.5,-348 481.5,-348 481.5,-299 561.5,-299 561.5,-348"/>
<text text-anchor="start" x="486.5" y="-335.5" font-family="Helvetica,sans-Serif" font-size="10.00">EnumProperty</text>
<text text-anchor="start" x="519.5" y="-320.5" font-family="Helvetica,sans-Serif" font-size="10.00"> </text>
<text text-anchor="start" x="519.5" y="-305.5" font-family="Helvetica,sans-Serif" font-size="10.00"> </text>
<polygon fill="#666666" stroke="#666666" points="481.5,-330.5 481.5,-330.5 561.5,-330.5 561.5,-330.5 481.5,-330.5"/>
<polygon fill="#666666" stroke="#666666" points="481.5,-315.5 481.5,-315.5 561.5,-315.5 561.5,-315.5 481.5,-315.5"/>
<polygon fill="none" stroke="#666666" points="481.5,-299 481.5,-348 561.5,-348 561.5,-299 481.5,-299"/>
</a>
</g>
</g>
<!-- Node7&#45;&gt;Node1 -->
<g id="edge13_Node000001_Node000007" class="edge">
<title>Node7&#45;&gt;Node1</title>
<g id="a_edge13_Node000001_Node000007"><a xlink:title=" ">
<path fill="none" stroke="#63b8ff" d="M521.77,-298.83C521.79,-254.65 519.39,-161.95 499.5,-138 462.96,-94 401.6,-74.74 349.3,-66.49"/>
<polygon fill="none" stroke="#63b8ff" points="349.14,-66.47 342.63,-69.57 337.26,-64.75 343.77,-61.65 349.14,-66.47"/>
</a>
</g>
<text text-anchor="middle" x="571.5" y="-223.5" font-family="Helvetica,sans-Serif" font-size="10.00" fill="grey"> +base_gender</text>
<text text-anchor="middle" x="571.5" y="-212.5" font-family="Helvetica,sans-Serif" font-size="10.00" fill="grey">+gender</text>
<text text-anchor="middle" x="571.5" y="-201.5" font-family="Helvetica,sans-Serif" font-size="10.00" fill="grey">+interlock_type</text>
<text text-anchor="middle" x="571.5" y="-190.5" font-family="Helvetica,sans-Serif" font-size="10.00" fill="grey">+multiangle_gender</text>
</g>
<!-- Node8 -->
<g id="Node000008" class="node">
<title>Node8</title>
<g id="a_Node000008"><a xlink:title=" ">
<polygon fill="white" stroke="transparent" points="681.5,-348 607.5,-348 607.5,-299 681.5,-299 681.5,-348"/>
<text text-anchor="start" x="612.5" y="-335.5" font-family="Helvetica,sans-Serif" font-size="10.00">BoolProperty</text>
<text text-anchor="start" x="642.5" y="-320.5" font-family="Helvetica,sans-Serif" font-size="10.00"> </text>
<text text-anchor="start" x="642.5" y="-305.5" font-family="Helvetica,sans-Serif" font-size="10.00"> </text>
<polygon fill="#666666" stroke="#666666" points="607.5,-330.5 607.5,-330.5 681.5,-330.5 681.5,-330.5 607.5,-330.5"/>
<polygon fill="#666666" stroke="#666666" points="607.5,-315.5 607.5,-315.5 681.5,-315.5 681.5,-315.5 607.5,-315.5"/>
<polygon fill="none" stroke="#666666" points="607.5,-299 607.5,-348 681.5,-348 681.5,-299 607.5,-299"/>
</a>
</g>
</g>
<!-- Node8&#45;&gt;Node1 -->
<g id="edge14_Node000001_Node000008" class="edge">
<title>Node8&#45;&gt;Node1</title>
<g id="a_edge14_Node000001_Node000008"><a xlink:title=" ">
<path fill="none" stroke="#63b8ff" d="M649.5,-298.89C656.25,-260 663.15,-182.35 622.5,-138 586.4,-98.62 446.26,-78.15 349.47,-68.49"/>
<polygon fill="none" stroke="#63b8ff" points="349.24,-68.47 342.88,-71.87 337.3,-67.31 343.66,-63.91 349.24,-68.47"/>
</a>
</g>
<text text-anchor="middle" x="697" y="-234.5" font-family="Helvetica,sans-Serif" font-size="10.00" fill="grey"> +mitre</text>
<text text-anchor="middle" x="697" y="-223.5" font-family="Helvetica,sans-Serif" font-size="10.00" fill="grey">+overcut</text>
<text text-anchor="middle" x="697" y="-212.5" font-family="Helvetica,sans-Serif" font-size="10.00" fill="grey">+twist_keep</text>
<text text-anchor="middle" x="697" y="-201.5" font-family="Helvetica,sans-Serif" font-size="10.00" fill="grey">+twist_line</text>
<text text-anchor="middle" x="697" y="-190.5" font-family="Helvetica,sans-Serif" font-size="10.00" fill="grey">+twist_lock</text>
<text text-anchor="middle" x="697" y="-179.5" font-family="Helvetica,sans-Serif" font-size="10.00" fill="grey">+twist_separator</text>
</g>
</g>
</svg>
