<?xml version="1.0" encoding="UTF-8" standalone="no"?>
<!DOCTYPE svg PUBLIC "-//W3C//DTD SVG 1.1//EN"
 "http://www.w3.org/Graphics/SVG/1.1/DTD/svg11.dtd">
<!-- Generated by graphviz version 2.43.0 (0)
 -->
<!-- Title: cam.ui.CustomPanel Pages: 1 -->
<svg width="118pt" height="232pt"
 viewBox="0.00 0.00 118.00 232.00" xmlns="http://www.w3.org/2000/svg" xmlns:xlink="http://www.w3.org/1999/xlink">
<g id="graph0" class="graph" transform="scale(1 1) rotate(0) translate(4 228)">
<title>cam.ui.CustomPanel</title>
<!-- Node1 -->
<g id="Node000001" class="node">
<title>Node1</title>
<g id="a_Node000001"><a xlink:title=" ">
<polygon fill="#999999" stroke="transparent" points="110,-139 0,-139 0,0 110,0 110,-139"/>
<text text-anchor="start" x="5" y="-126.5" font-family="Helvetica,sans-Serif" font-size="10.00">cam.ui.CustomPanel</text>
<text text-anchor="start" x="8" y="-111.5" font-family="Helvetica,sans-Serif" font-size="10.00">+</text>
<text text-anchor="start" x="25" y="-111.5" font-family="Helvetica,sans-Serif" font-size="10.00">bl_space_type</text>
<text text-anchor="start" x="8" y="-96.5" font-family="Helvetica,sans-Serif" font-size="10.00">+</text>
<text text-anchor="start" x="25" y="-96.5" font-family="Helvetica,sans-Serif" font-size="10.00">bl_region_type</text>
<text text-anchor="start" x="8" y="-81.5" font-family="Helvetica,sans-Serif" font-size="10.00">+</text>
<text text-anchor="start" x="25" y="-81.5" font-family="Helvetica,sans-Serif" font-size="10.00">bl_context</text>
<text text-anchor="start" x="8" y="-66.5" font-family="Helvetica,sans-Serif" font-size="10.00">+</text>
<text text-anchor="start" x="25" y="-66.5" font-family="Helvetica,sans-Serif" font-size="10.00">bl_label</text>
<text text-anchor="start" x="8" y="-51.5" font-family="Helvetica,sans-Serif" font-size="10.00">+</text>
<text text-anchor="start" x="25" y="-51.5" font-family="Helvetica,sans-Serif" font-size="10.00">bl_idname</text>
<text text-anchor="start" x="8" y="-36.5" font-family="Helvetica,sans-Serif" font-size="10.00">+</text>
<text text-anchor="start" x="25" y="-36.5" font-family="Helvetica,sans-Serif" font-size="10.00">bl_options</text>
<text text-anchor="start" x="8" y="-21.5" font-family="Helvetica,sans-Serif" font-size="10.00">+</text>
<text text-anchor="start" x="25" y="-21.5" font-family="Helvetica,sans-Serif" font-size="10.00">poll()</text>
<text text-anchor="start" x="8" y="-6.5" font-family="Helvetica,sans-Serif" font-size="10.00">+</text>
<text text-anchor="start" x="25" y="-6.5" font-family="Helvetica,sans-Serif" font-size="10.00">draw()</text>
<polygon fill="#666666" stroke="#666666" points="0,-121.5 0,-121.5 110,-121.5 110,-121.5 0,-121.5"/>
<polygon fill="#666666" stroke="#666666" points="0,-31.5 0,-31.5 23,-31.5 23,-31.5 0,-31.5"/>
<polygon fill="#666666" stroke="#666666" points="23,-31.5 23,-31.5 110,-31.5 110,-31.5 23,-31.5"/>
<polygon fill="none" stroke="#666666" points="0,0 0,-139 110,-139 110,0 0,0"/>
</a>
</g>
</g>
<!-- Node2 -->
<g id="Node000002" class="node">
<title>Node2</title>
<g id="a_Node000002"><a xlink:title=" ">
<polygon fill="white" stroke="transparent" points="73.5,-224 36.5,-224 36.5,-175 73.5,-175 73.5,-224"/>
<text text-anchor="start" x="42" y="-211.5" font-family="Helvetica,sans-Serif" font-size="10.00">Panel</text>
<text text-anchor="start" x="53.5" y="-196.5" font-family="Helvetica,sans-Serif" font-size="10.00"> </text>
<text text-anchor="start" x="53.5" y="-181.5" font-family="Helvetica,sans-Serif" font-size="10.00"> </text>
<polygon fill="#666666" stroke="#666666" points="37,-206.5 37,-206.5 74,-206.5 74,-206.5 37,-206.5"/>
<polygon fill="#666666" stroke="#666666" points="37,-191.5 37,-191.5 74,-191.5 74,-191.5 37,-191.5"/>
<polygon fill="none" stroke="#666666" points="36.5,-175 36.5,-224 73.5,-224 73.5,-175 36.5,-175"/>
</a>
</g>
</g>
<!-- Node2&#45;&gt;Node1 -->
<g id="edge2_Node000001_Node000002" class="edge">
<title>Node2&#45;&gt;Node1</title>
<g id="a_edge2_Node000001_Node000002"><a xlink:title=" ">
<path fill="none" stroke="#63b8ff" d="M55,-164.48C55,-156.57 55,-147.86 55,-139.04"/>
<polygon fill="none" stroke="#63b8ff" points="51.5,-164.72 55,-174.72 58.5,-164.72 51.5,-164.72"/>
</a>
</g>
</g>
</g>
</svg>
