<?xml version="1.0" encoding="UTF-8" standalone="no"?>
<!DOCTYPE svg PUBLIC "-//W3C//DTD SVG 1.1//EN"
 "http://www.w3.org/Graphics/SVG/1.1/DTD/svg11.dtd">
<!-- Generated by graphviz version 2.43.0 (0)
 -->
<!-- Title: cam.nc.recreator.Redirector.comment Pages: 1 -->
<svg width="625pt" height="122pt"
 viewBox="0.00 0.00 625.00 122.00" xmlns="http://www.w3.org/2000/svg" xmlns:xlink="http://www.w3.org/1999/xlink">
<g id="graph0" class="graph" transform="scale(1 1) rotate(0) translate(4 118)">
<title>cam.nc.recreator.Redirector.comment</title>
<!-- Node1 -->
<g id="Node000001" class="node">
<title>Node1</title>
<g id="a_Node000001"><a xlink:title="Misc.">
<polygon fill="#999999" stroke="#666666" points="200,-56 0,-56 0,-37 200,-37 200,-56"/>
<text text-anchor="middle" x="100" y="-44" font-family="Helvetica,sans-Serif" font-size="10.00">cam.nc.recreator.Redirector.comment</text>
</a>
</g>
</g>
<!-- Node1&#45;&gt;Node1 -->
<g id="edge7_Node000001_Node000001" class="edge">
<title>Node1&#45;&gt;Node1</title>
<g id="a_edge7_Node000001_Node000001"><a xlink:title=" ">
<path fill="none" stroke="#63b8ff" d="M63.93,-56.08C46.39,-64.73 58.41,-74 100,-74 130.54,-74 145.14,-69 143.79,-62.92"/>
<polygon fill="#63b8ff" stroke="#63b8ff" points="145.87,-60.09 136.07,-56.08 141.23,-65.33 145.87,-60.09"/>
</a>
</g>
</g>
<!-- Node2 -->
<g id="Node000002" class="node">
<title>Node2</title>
<g id="a_Node000002"><a xlink:href="$classcam_1_1nc_1_1attach_1_1Creator.html#a15a75411685b954b0073489b30f1342e" xlink:title=" ">
<polygon fill="white" stroke="#666666" points="418.5,-93 249.5,-93 249.5,-74 418.5,-74 418.5,-93"/>
<text text-anchor="middle" x="334" y="-81" font-family="Helvetica,sans-Serif" font-size="10.00">cam.nc.attach.Creator.cut_path</text>
</a>
</g>
</g>
<!-- Node1&#45;&gt;Node2 -->
<g id="edge8_Node000001_Node000002" class="edge">
<title>Node1&#45;&gt;Node2</title>
<g id="a_edge8_Node000001_Node000002"><a xlink:title=" ">
<path fill="none" stroke="#63b8ff" d="M160.75,-56.03C192.02,-61.02 230.48,-67.15 263.12,-72.36"/>
<polygon fill="#63b8ff" stroke="#63b8ff" points="262.63,-75.82 273.05,-73.94 263.73,-68.91 262.63,-75.82"/>
</a>
</g>
</g>
<!-- Node5 -->
<g id="Node000005" class="node">
<title>Node5</title>
<g id="a_Node000005"><a xlink:href="$classcam_1_1nc_1_1drag__knife_1_1Creator.html#a5db2841a5c931c72702e9bb7752ea731" xlink:title=" ">
<polygon fill="white" stroke="#666666" points="429,-56 239,-56 239,-37 429,-37 429,-56"/>
<text text-anchor="middle" x="334" y="-44" font-family="Helvetica,sans-Serif" font-size="10.00">cam.nc.drag_knife.Creator.cut_path</text>
</a>
</g>
</g>
<!-- Node1&#45;&gt;Node5 -->
<g id="edge11_Node000001_Node000005" class="edge">
<title>Node1&#45;&gt;Node5</title>
<g id="a_edge11_Node000001_Node000005"><a xlink:title=" ">
<path fill="none" stroke="#63b8ff" d="M200.06,-46.5C209.47,-46.5 219.03,-46.5 228.48,-46.5"/>
<polygon fill="#63b8ff" stroke="#63b8ff" points="228.69,-50 238.69,-46.5 228.69,-43 228.69,-50"/>
</a>
</g>
</g>
<!-- Node6 -->
<g id="Node000006" class="node">
<title>Node6</title>
<g id="a_Node000006"><a xlink:href="$classcam_1_1nc_1_1recreator_1_1Redirector.html#ace3039c310a7ee83dafe4fee4382f511" xlink:title=" ">
<polygon fill="white" stroke="#666666" points="432,-19 236,-19 236,0 432,0 432,-19"/>
<text text-anchor="middle" x="334" y="-7" font-family="Helvetica,sans-Serif" font-size="10.00">cam.nc.recreator.Redirector.cut_path</text>
</a>
</g>
</g>
<!-- Node1&#45;&gt;Node6 -->
<g id="edge12_Node000001_Node000006" class="edge">
<title>Node1&#45;&gt;Node6</title>
<g id="a_edge12_Node000001_Node000006"><a xlink:title=" ">
<path fill="none" stroke="#63b8ff" d="M160.75,-36.97C192.02,-31.98 230.48,-25.85 263.12,-20.64"/>
<polygon fill="#63b8ff" stroke="#63b8ff" points="263.73,-24.09 273.05,-19.06 262.63,-17.18 263.73,-24.09"/>
</a>
</g>
</g>
<!-- Node3 -->
<g id="Node000003" class="node">
<title>Node3</title>
<g id="a_Node000003"><a xlink:href="$classcam_1_1nc_1_1attach_1_1Creator.html#a27a17497f0889323fd31aab4f857e577" xlink:title=" ">
<polygon fill="white" stroke="#666666" points="617,-114 468,-114 468,-95 617,-95 617,-114"/>
<text text-anchor="middle" x="542.5" y="-102" font-family="Helvetica,sans-Serif" font-size="10.00">cam.nc.attach.Creator.feed</text>
</a>
</g>
</g>
<!-- Node2&#45;&gt;Node3 -->
<g id="edge9_Node000002_Node000003" class="edge">
<title>Node2&#45;&gt;Node3</title>
<g id="a_edge9_Node000002_Node000003"><a xlink:title=" ">
<path fill="none" stroke="#63b8ff" d="M418.69,-92.01C431.57,-93.32 444.87,-94.67 457.76,-95.98"/>
<polygon fill="#63b8ff" stroke="#63b8ff" points="457.68,-99.49 467.98,-97.02 458.38,-92.53 457.68,-99.49"/>
</a>
</g>
</g>
<!-- Node4 -->
<g id="Node000004" class="node">
<title>Node4</title>
<g id="a_Node000004"><a xlink:href="$classcam_1_1nc_1_1attach_1_1Creator.html#a64e13dd00fd58d3db3818de0d188bafa" xlink:title="Shift in Z.">
<polygon fill="white" stroke="#666666" points="613.5,-76.5 471.5,-76.5 471.5,-46.5 613.5,-46.5 613.5,-76.5"/>
<text text-anchor="start" x="479.5" y="-64.5" font-family="Helvetica,sans-Serif" font-size="10.00">cam.nc.attach.Creator.set</text>
<text text-anchor="middle" x="542.5" y="-53.5" font-family="Helvetica,sans-Serif" font-size="10.00">PdcfIfNotSet</text>
</a>
</g>
</g>
<!-- Node2&#45;&gt;Node4 -->
<g id="edge10_Node000002_Node000004" class="edge">
<title>Node2&#45;&gt;Node4</title>
<g id="a_edge10_Node000002_Node000004"><a xlink:title=" ">
<path fill="none" stroke="#63b8ff" d="M418.69,-74.58C432.73,-73.09 447.26,-71.54 461.21,-70.05"/>
<polygon fill="#63b8ff" stroke="#63b8ff" points="461.67,-73.52 471.24,-68.98 460.93,-66.56 461.67,-73.52"/>
</a>
</g>
</g>
</g>
</svg>
