<?xml version="1.0" encoding="UTF-8" standalone="no"?>
<!DOCTYPE svg PUBLIC "-//W3C//DTD SVG 1.1//EN"
 "http://www.w3.org/Graphics/SVG/1.1/DTD/svg11.dtd">
<!-- Generated by graphviz version 2.43.0 (0)
 -->
<!-- Title: cam.nc.makerbot_codes.Codes.WORKPLANE_BASE Pages: 1 -->
<svg width="408pt" height="224pt"
 viewBox="0.00 0.00 408.00 223.50" xmlns="http://www.w3.org/2000/svg" xmlns:xlink="http://www.w3.org/1999/xlink">
<g id="graph0" class="graph" transform="scale(1 1) rotate(0) translate(4 219.5)">
<title>cam.nc.makerbot_codes.Codes.WORKPLANE_BASE</title>
<!-- Node1 -->
<g id="Node000001" class="node">
<title>Node1</title>
<g id="a_Node000001"><a xlink:title=" ">
<polygon fill="#999999" stroke="#666666" points="400,-116.5 229,-116.5 229,-86.5 400,-86.5 400,-116.5"/>
<text text-anchor="start" x="237" y="-104.5" font-family="Helvetica,sans-Serif" font-size="10.00">cam.nc.makerbot_codes.Codes.</text>
<text text-anchor="middle" x="314.5" y="-93.5" font-family="Helvetica,sans-Serif" font-size="10.00">WORKPLANE_BASE</text>
</a>
</g>
</g>
<!-- Node2 -->
<g id="Node000002" class="node">
<title>Node2</title>
<g id="a_Node000002"><a xlink:href="$classcam_1_1nc_1_1anilam__crusader__m_1_1Creator.html#a66554c71e120972ac1586f8468783061" xlink:title=" ">
<polygon fill="white" stroke="#666666" points="164.5,-215.5 28.5,-215.5 28.5,-185.5 164.5,-185.5 164.5,-215.5"/>
<text text-anchor="start" x="36.5" y="-203.5" font-family="Helvetica,sans-Serif" font-size="10.00">cam.nc.anilam_crusader</text>
<text text-anchor="middle" x="96.5" y="-192.5" font-family="Helvetica,sans-Serif" font-size="10.00">_m.Creator.workplane</text>
</a>
</g>
</g>
<!-- Node1&#45;&gt;Node2 -->
<g id="edge7_Node000001_Node000002" class="edge">
<title>Node1&#45;&gt;Node2</title>
<g id="a_edge7_Node000001_Node000002"><a xlink:title=" ">
<path fill="none" stroke="#63b8ff" d="M285.53,-122.42C261.95,-139.18 226.74,-162.18 193,-176.5 184.03,-180.31 174.32,-183.61 164.64,-186.44"/>
<polygon fill="#63b8ff" stroke="#63b8ff" points="287.6,-125.25 293.67,-116.56 283.51,-119.57 287.6,-125.25"/>
</a>
</g>
</g>
<!-- Node3 -->
<g id="Node000003" class="node">
<title>Node3</title>
<g id="a_Node000003"><a xlink:href="$classcam_1_1nc_1_1centroid1_1_1Creator.html#a7fefda5c24dbf94920acc2044d7002fe" xlink:title="coordinate system ie G54&#45;G59">
<polygon fill="white" stroke="#666666" points="193,-167 0,-167 0,-148 193,-148 193,-167"/>
<text text-anchor="middle" x="96.5" y="-155" font-family="Helvetica,sans-Serif" font-size="10.00">cam.nc.centroid1.Creator.workplane</text>
</a>
</g>
</g>
<!-- Node1&#45;&gt;Node3 -->
<g id="edge8_Node000001_Node000003" class="edge">
<title>Node1&#45;&gt;Node3</title>
<g id="a_edge8_Node000001_Node000003"><a xlink:title=" ">
<path fill="none" stroke="#63b8ff" d="M260.44,-119.74C239.57,-126.51 215.32,-133.9 193,-139.5 180.48,-142.64 166.92,-145.51 154.05,-148"/>
<polygon fill="#63b8ff" stroke="#63b8ff" points="261.66,-123.02 270.07,-116.57 259.48,-116.37 261.66,-123.02"/>
</a>
</g>
</g>
<!-- Node4 -->
<g id="Node000004" class="node">
<title>Node4</title>
<g id="a_Node000004"><a xlink:href="$classcam_1_1nc_1_1emc2_1_1Creator.html#a8218700b9d0a8eaae13606f5834701b3" xlink:title=" ">
<polygon fill="white" stroke="#666666" points="183.5,-130 9.5,-130 9.5,-111 183.5,-111 183.5,-130"/>
<text text-anchor="middle" x="96.5" y="-118" font-family="Helvetica,sans-Serif" font-size="10.00">cam.nc.emc2.Creator.workplane</text>
</a>
</g>
</g>
<!-- Node1&#45;&gt;Node4 -->
<g id="edge9_Node000001_Node000004" class="edge">
<title>Node1&#45;&gt;Node4</title>
<g id="a_edge9_Node000001_Node000004"><a xlink:title=" ">
<path fill="none" stroke="#63b8ff" d="M218.63,-109.85C207.04,-110.86 195.24,-111.9 183.78,-112.91"/>
<polygon fill="#63b8ff" stroke="#63b8ff" points="219.1,-113.32 228.75,-108.95 218.48,-106.34 219.1,-113.32"/>
</a>
</g>
</g>
<!-- Node5 -->
<g id="Node000005" class="node">
<title>Node5</title>
<g id="a_Node000005"><a xlink:href="$classcam_1_1nc_1_1heiden_1_1Creator.html#a0bb1dcc4220b7021b792bc336e4ab944" xlink:title=" ">
<polygon fill="white" stroke="#666666" points="186.5,-93 6.5,-93 6.5,-74 186.5,-74 186.5,-93"/>
<text text-anchor="middle" x="96.5" y="-81" font-family="Helvetica,sans-Serif" font-size="10.00">cam.nc.heiden.Creator.workplane</text>
</a>
</g>
</g>
<!-- Node1&#45;&gt;Node5 -->
<g id="edge10_Node000001_Node000005" class="edge">
<title>Node1&#45;&gt;Node5</title>
<g id="a_edge10_Node000001_Node000005"><a xlink:title=" ">
<path fill="none" stroke="#63b8ff" d="M218.62,-93.59C207.99,-92.71 197.19,-91.81 186.63,-90.93"/>
<polygon fill="#63b8ff" stroke="#63b8ff" points="218.49,-97.09 228.75,-94.44 219.08,-90.12 218.49,-97.09"/>
</a>
</g>
</g>
<!-- Node6 -->
<g id="Node000006" class="node">
<title>Node6</title>
<g id="a_Node000006"><a xlink:href="$classcam_1_1nc_1_1iso_1_1Creator.html#af689dfe2c7549ab5b062fb024d47b4ae" xlink:title=" ">
<polygon fill="white" stroke="#666666" points="177,-56 16,-56 16,-37 177,-37 177,-56"/>
<text text-anchor="middle" x="96.5" y="-44" font-family="Helvetica,sans-Serif" font-size="10.00">cam.nc.iso.Creator.workplane</text>
</a>
</g>
</g>
<!-- Node1&#45;&gt;Node6 -->
<g id="edge11_Node000001_Node000006" class="edge">
<title>Node1&#45;&gt;Node6</title>
<g id="a_edge11_Node000001_Node000006"><a xlink:title=" ">
<path fill="none" stroke="#63b8ff" d="M257.21,-83.49C237.07,-77.36 214.12,-70.74 193,-65.5 179.22,-62.08 164.2,-58.86 150.24,-56.07"/>
<polygon fill="#63b8ff" stroke="#63b8ff" points="256.27,-86.86 266.86,-86.45 258.32,-80.17 256.27,-86.86"/>
</a>
</g>
</g>
<!-- Node7 -->
<g id="Node000007" class="node">
<title>Node7</title>
<g id="a_Node000007"><a xlink:href="$classcam_1_1nc_1_1winpc_1_1Creator.html#a35e54099e5ecfbda678d8f66bc281994" xlink:title=" ">
<polygon fill="white" stroke="#666666" points="184.5,-19 8.5,-19 8.5,0 184.5,0 184.5,-19"/>
<text text-anchor="middle" x="96.5" y="-7" font-family="Helvetica,sans-Serif" font-size="10.00">cam.nc.winpc.Creator.workplane</text>
</a>
</g>
</g>
<!-- Node1&#45;&gt;Node7 -->
<g id="edge12_Node000001_Node000007" class="edge">
<title>Node1&#45;&gt;Node7</title>
<g id="a_edge12_Node000001_Node000007"><a xlink:title=" ">
<path fill="none" stroke="#63b8ff" d="M284.89,-80.21C261.37,-63.72 226.56,-41.54 193,-28.5 183.07,-24.64 172.25,-21.53 161.57,-19.04"/>
<polygon fill="#63b8ff" stroke="#63b8ff" points="283.15,-83.27 293.33,-86.23 287.21,-77.57 283.15,-83.27"/>
</a>
</g>
</g>
</g>
</svg>
