<?xml version="1.0" encoding="UTF-8" standalone="no"?>
<!DOCTYPE svg PUBLIC "-//W3C//DTD SVG 1.1//EN"
 "http://www.w3.org/Graphics/SVG/1.1/DTD/svg11.dtd">
<!-- Generated by graphviz version 2.43.0 (0)
 -->
<!-- Title: cam.ui_panels.op_properties.CAM_OPERATION_PROPERTIES_Panel.draw_cutout_options Pages: 1 -->
<svg width="780pt" height="429pt"
 viewBox="0.00 0.00 780.00 429.00" xmlns="http://www.w3.org/2000/svg" xmlns:xlink="http://www.w3.org/1999/xlink">
<g id="graph0" class="graph" transform="scale(1 1) rotate(0) translate(4 425)">
<title>cam.ui_panels.op_properties.CAM_OPERATION_PROPERTIES_Panel.draw_cutout_options</title>
<!-- Node1 -->
<g id="Node000001" class="node">
<title>Node1</title>
<g id="a_Node000001"><a xlink:title=" ">
<polygon fill="#999999" stroke="#666666" points="165,-242 0,-242 0,-201 165,-201 165,-242"/>
<text text-anchor="start" x="8" y="-230" font-family="Helvetica,sans-Serif" font-size="10.00">cam.ui_panels.op_properties.</text>
<text text-anchor="start" x="8" y="-219" font-family="Helvetica,sans-Serif" font-size="10.00">CAM_OPERATION_PROPERTIES</text>
<text text-anchor="middle" x="82.5" y="-208" font-family="Helvetica,sans-Serif" font-size="10.00">_Panel.draw_cutout_options</text>
</a>
</g>
</g>
<!-- Node2 -->
<g id="Node000002" class="node">
<title>Node2</title>
<g id="a_Node000002"><a xlink:href="$classcam_1_1ui__panels_1_1op__properties_1_1CAM__OPERATION__PROPERTIES__Panel.html#adefd594c4c73f1f6f32ef8835ef35271" xlink:title=" ">
<polygon fill="white" stroke="#666666" points="572.5,-421 407.5,-421 407.5,-380 572.5,-380 572.5,-421"/>
<text text-anchor="start" x="415.5" y="-409" font-family="Helvetica,sans-Serif" font-size="10.00">cam.ui_panels.op_properties.</text>
<text text-anchor="start" x="415.5" y="-398" font-family="Helvetica,sans-Serif" font-size="10.00">CAM_OPERATION_PROPERTIES</text>
<text text-anchor="middle" x="490" y="-387" font-family="Helvetica,sans-Serif" font-size="10.00">_Panel.draw_cutout_type</text>
</a>
</g>
</g>
<!-- Node1&#45;&gt;Node2 -->
<g id="edge18_Node000001_Node000002" class="edge">
<title>Node1&#45;&gt;Node2</title>
<g id="a_edge18_Node000001_Node000002"><a xlink:title=" ">
<path fill="none" stroke="#63b8ff" d="M93.68,-242.2C110.84,-274.65 148.86,-336.77 201,-365.5 260.74,-398.42 337.86,-406.3 397.26,-406.43"/>
<polygon fill="#63b8ff" stroke="#63b8ff" points="397.4,-409.93 407.39,-406.38 397.37,-402.93 397.4,-409.93"/>
</a>
</g>
</g>
<!-- Node3 -->
<g id="Node000003" class="node">
<title>Node3</title>
<g id="a_Node000003"><a xlink:href="$classcam_1_1ui__panels_1_1buttons__panel_1_1CAMButtonsPanel.html#a41c101f031fc5ecdb0097889cf452de0" xlink:title=" ">
<polygon fill="white" stroke="#666666" points="772,-215 614,-215 614,-174 772,-174 772,-215"/>
<text text-anchor="start" x="622" y="-203" font-family="Helvetica,sans-Serif" font-size="10.00">cam.ui_panels.buttons</text>
<text text-anchor="start" x="622" y="-192" font-family="Helvetica,sans-Serif" font-size="10.00">_panel.CAMButtonsPanel.has</text>
<text text-anchor="middle" x="693" y="-181" font-family="Helvetica,sans-Serif" font-size="10.00">_correct_level</text>
</a>
</g>
</g>
<!-- Node1&#45;&gt;Node3 -->
<g id="edge34_Node000001_Node000003" class="edge">
<title>Node1&#45;&gt;Node3</title>
<g id="a_edge34_Node000001_Node000003"><a xlink:title=" ">
<path fill="none" stroke="#63b8ff" d="M115.13,-242.11C195.88,-291.94 414.82,-409.36 578,-332.5 625.41,-310.17 659.83,-257.37 677.8,-223.94"/>
<polygon fill="#63b8ff" stroke="#63b8ff" points="680.91,-225.55 682.43,-215.06 674.7,-222.31 680.91,-225.55"/>
</a>
</g>
</g>
<!-- Node4 -->
<g id="Node000004" class="node">
<title>Node4</title>
<g id="a_Node000004"><a xlink:href="$classcam_1_1ui__panels_1_1op__properties_1_1CAM__OPERATION__PROPERTIES__Panel.html#a486634a9ac1d8a59253b7d7ce1bf30d1" xlink:title=" ">
<polygon fill="white" stroke="#666666" points="572.5,-323 407.5,-323 407.5,-282 572.5,-282 572.5,-323"/>
<text text-anchor="start" x="415.5" y="-311" font-family="Helvetica,sans-Serif" font-size="10.00">cam.ui_panels.op_properties.</text>
<text text-anchor="start" x="415.5" y="-300" font-family="Helvetica,sans-Serif" font-size="10.00">CAM_OPERATION_PROPERTIES</text>
<text text-anchor="middle" x="490" y="-289" font-family="Helvetica,sans-Serif" font-size="10.00">_Panel.draw_enable_A_B_axis</text>
</a>
</g>
</g>
<!-- Node1&#45;&gt;Node4 -->
<g id="edge20_Node000001_Node000004" class="edge">
<title>Node1&#45;&gt;Node4</title>
<g id="a_edge20_Node000001_Node000004"><a xlink:title=" ">
<path fill="none" stroke="#63b8ff" d="M165.03,-238.22C177.09,-240.67 189.37,-243.16 201,-245.5 266.64,-258.7 340.75,-273.36 397.35,-284.51"/>
<polygon fill="#63b8ff" stroke="#63b8ff" points="396.86,-287.98 407.35,-286.48 398.22,-281.11 396.86,-287.98"/>
</a>
</g>
</g>
<!-- Node5 -->
<g id="Node000005" class="node">
<title>Node5</title>
<g id="a_Node000005"><a xlink:href="$classcam_1_1ui__panels_1_1op__properties_1_1CAM__OPERATION__PROPERTIES__Panel.html#a3187f842df82c01aa030757f86d1eabd" xlink:title=" ">
<polygon fill="white" stroke="#666666" points="572.5,-264 407.5,-264 407.5,-223 572.5,-223 572.5,-264"/>
<text text-anchor="start" x="415.5" y="-252" font-family="Helvetica,sans-Serif" font-size="10.00">cam.ui_panels.op_properties.</text>
<text text-anchor="start" x="415.5" y="-241" font-family="Helvetica,sans-Serif" font-size="10.00">CAM_OPERATION_PROPERTIES</text>
<text text-anchor="middle" x="490" y="-230" font-family="Helvetica,sans-Serif" font-size="10.00">_Panel.draw_lead_in_out</text>
</a>
</g>
</g>
<!-- Node1&#45;&gt;Node5 -->
<g id="edge22_Node000001_Node000005" class="edge">
<title>Node1&#45;&gt;Node5</title>
<g id="a_edge22_Node000001_Node000005"><a xlink:title=" ">
<path fill="none" stroke="#63b8ff" d="M165.07,-225.93C232.19,-229.57 327.3,-234.73 397.1,-238.51"/>
<polygon fill="#63b8ff" stroke="#63b8ff" points="397.04,-242.02 407.21,-239.06 397.42,-235.03 397.04,-242.02"/>
</a>
</g>
</g>
<!-- Node6 -->
<g id="Node000006" class="node">
<title>Node6</title>
<g id="a_Node000006"><a xlink:href="$classcam_1_1ui__panels_1_1op__properties_1_1CAM__OPERATION__PROPERTIES__Panel.html#a77b2c1fdf455572f3529d2b64d62eda9" xlink:title=" ">
<polygon fill="white" stroke="#666666" points="366,-218 201,-218 201,-177 366,-177 366,-218"/>
<text text-anchor="start" x="209" y="-206" font-family="Helvetica,sans-Serif" font-size="10.00">cam.ui_panels.op_properties.</text>
<text text-anchor="start" x="209" y="-195" font-family="Helvetica,sans-Serif" font-size="10.00">CAM_OPERATION_PROPERTIES</text>
<text text-anchor="middle" x="283.5" y="-184" font-family="Helvetica,sans-Serif" font-size="10.00">_Panel.draw_merge</text>
</a>
</g>
</g>
<!-- Node1&#45;&gt;Node6 -->
<g id="edge24_Node000001_Node000006" class="edge">
<title>Node1&#45;&gt;Node6</title>
<g id="a_edge24_Node000001_Node000006"><a xlink:title=" ">
<path fill="none" stroke="#63b8ff" d="M165.02,-211.67C173.5,-210.65 182.17,-209.6 190.76,-208.56"/>
<polygon fill="#63b8ff" stroke="#63b8ff" points="191.28,-212.03 200.79,-207.35 190.44,-205.08 191.28,-212.03"/>
</a>
</g>
</g>
<!-- Node7 -->
<g id="Node000007" class="node">
<title>Node7</title>
<g id="a_Node000007"><a xlink:href="$classcam_1_1ui__panels_1_1op__properties_1_1CAM__OPERATION__PROPERTIES__Panel.html#a8637affd750bc1409f9a9cfae15ac502" xlink:title=" ">
<polygon fill="white" stroke="#666666" points="366,-159 201,-159 201,-118 366,-118 366,-159"/>
<text text-anchor="start" x="209" y="-147" font-family="Helvetica,sans-Serif" font-size="10.00">cam.ui_panels.op_properties.</text>
<text text-anchor="start" x="209" y="-136" font-family="Helvetica,sans-Serif" font-size="10.00">CAM_OPERATION_PROPERTIES</text>
<text text-anchor="middle" x="283.5" y="-125" font-family="Helvetica,sans-Serif" font-size="10.00">_Panel.draw_outlines</text>
</a>
</g>
</g>
<!-- Node1&#45;&gt;Node7 -->
<g id="edge26_Node000001_Node000007" class="edge">
<title>Node1&#45;&gt;Node7</title>
<g id="a_edge26_Node000001_Node000007"><a xlink:title=" ">
<path fill="none" stroke="#63b8ff" d="M126.98,-201C149,-190.84 176.25,-178.62 201,-168.5 205.68,-166.59 210.53,-164.66 215.42,-162.76"/>
<polygon fill="#63b8ff" stroke="#63b8ff" points="216.78,-165.99 224.86,-159.14 214.27,-159.45 216.78,-165.99"/>
</a>
</g>
</g>
<!-- Node9 -->
<g id="Node000009" class="node">
<title>Node9</title>
<g id="a_Node000009"><a xlink:href="$classcam_1_1ui__panels_1_1op__properties_1_1CAM__OPERATION__PROPERTIES__Panel.html#a292e240c6371821d6c86b8496f099945" xlink:title=" ">
<polygon fill="white" stroke="#666666" points="366,-100 201,-100 201,-59 366,-59 366,-100"/>
<text text-anchor="start" x="209" y="-88" font-family="Helvetica,sans-Serif" font-size="10.00">cam.ui_panels.op_properties.</text>
<text text-anchor="start" x="209" y="-77" font-family="Helvetica,sans-Serif" font-size="10.00">CAM_OPERATION_PROPERTIES</text>
<text text-anchor="middle" x="283.5" y="-66" font-family="Helvetica,sans-Serif" font-size="10.00">_Panel.draw_overshoot</text>
</a>
</g>
</g>
<!-- Node1&#45;&gt;Node9 -->
<g id="edge30_Node000001_Node000009" class="edge">
<title>Node1&#45;&gt;Node9</title>
<g id="a_edge30_Node000001_Node000009"><a xlink:title=" ">
<path fill="none" stroke="#63b8ff" d="M100.6,-200.65C121.86,-175.91 160.33,-134.83 201,-109.5 203.75,-107.79 206.62,-106.15 209.55,-104.59"/>
<polygon fill="#63b8ff" stroke="#63b8ff" points="211.15,-107.7 218.55,-100.13 208.04,-101.43 211.15,-107.7"/>
</a>
</g>
</g>
<!-- Node10 -->
<g id="Node000010" class="node">
<title>Node10</title>
<g id="a_Node000010"><a xlink:href="$classcam_1_1ui__panels_1_1op__properties_1_1CAM__OPERATION__PROPERTIES__Panel.html#a2aacd17694371b734e499be8f1182cf4" xlink:title=" ">
<polygon fill="white" stroke="#666666" points="366,-41 201,-41 201,0 366,0 366,-41"/>
<text text-anchor="start" x="209" y="-29" font-family="Helvetica,sans-Serif" font-size="10.00">cam.ui_panels.op_properties.</text>
<text text-anchor="start" x="209" y="-18" font-family="Helvetica,sans-Serif" font-size="10.00">CAM_OPERATION_PROPERTIES</text>
<text text-anchor="middle" x="283.5" y="-7" font-family="Helvetica,sans-Serif" font-size="10.00">_Panel.draw_startpoint</text>
</a>
</g>
</g>
<!-- Node1&#45;&gt;Node10 -->
<g id="edge32_Node000001_Node000010" class="edge">
<title>Node1&#45;&gt;Node10</title>
<g id="a_edge32_Node000001_Node000010"><a xlink:title=" ">
<path fill="none" stroke="#63b8ff" d="M92.31,-200.9C108.62,-165.09 146.87,-91.23 201,-49.5 202.39,-48.43 203.82,-47.39 205.29,-46.4"/>
<polygon fill="#63b8ff" stroke="#63b8ff" points="207.33,-49.25 214.06,-41.07 203.69,-43.27 207.33,-49.25"/>
</a>
</g>
</g>
<!-- Node2&#45;&gt;Node3 -->
<g id="edge19_Node000002_Node000003" class="edge">
<title>Node2&#45;&gt;Node3</title>
<g id="a_edge19_Node000002_Node000003"><a xlink:title=" ">
<path fill="none" stroke="#63b8ff" d="M555.28,-379.87C563.36,-375.81 571.18,-371.05 578,-365.5 625.9,-326.55 661.13,-262.13 678.94,-224.47"/>
<polygon fill="#63b8ff" stroke="#63b8ff" points="682.27,-225.59 683.29,-215.05 675.92,-222.66 682.27,-225.59"/>
</a>
</g>
</g>
<!-- Node4&#45;&gt;Node3 -->
<g id="edge21_Node000004_Node000003" class="edge">
<title>Node4&#45;&gt;Node3</title>
<g id="a_edge21_Node000004_Node000003"><a xlink:title=" ">
<path fill="none" stroke="#63b8ff" d="M559.21,-281.86C565.66,-279.28 572.02,-276.49 578,-273.5 606.83,-259.07 636.69,-238.13 658.61,-221.43"/>
<polygon fill="#63b8ff" stroke="#63b8ff" points="660.83,-224.14 666.61,-215.26 656.55,-218.6 660.83,-224.14"/>
</a>
</g>
</g>
<!-- Node5&#45;&gt;Node3 -->
<g id="edge23_Node000005_Node000003" class="edge">
<title>Node5&#45;&gt;Node3</title>
<g id="a_edge23_Node000005_Node000003"><a xlink:title=" ">
<path fill="none" stroke="#63b8ff" d="M572.75,-223.57C583.05,-221.06 593.62,-218.48 604,-215.95"/>
<polygon fill="#63b8ff" stroke="#63b8ff" points="605.01,-219.31 613.89,-213.54 603.35,-212.51 605.01,-219.31"/>
</a>
</g>
</g>
<!-- Node6&#45;&gt;Node3 -->
<g id="edge25_Node000006_Node000003" class="edge">
<title>Node6&#45;&gt;Node3</title>
<g id="a_edge25_Node000006_Node000003"><a xlink:title=" ">
<path fill="none" stroke="#63b8ff" d="M366.47,-196.9C435.26,-196.39 533.28,-195.67 603.77,-195.15"/>
<polygon fill="#63b8ff" stroke="#63b8ff" points="603.99,-198.65 613.96,-195.07 603.93,-191.65 603.99,-198.65"/>
</a>
</g>
</g>
<!-- Node7&#45;&gt;Node3 -->
<g id="edge29_Node000007_Node000003" class="edge">
<title>Node7&#45;&gt;Node3</title>
<g id="a_edge29_Node000007_Node000003"><a xlink:title=" ">
<path fill="none" stroke="#63b8ff" d="M366.47,-149.77C435.26,-159.22 533.28,-172.69 603.77,-182.37"/>
<polygon fill="#63b8ff" stroke="#63b8ff" points="603.58,-185.88 613.96,-183.78 604.53,-178.95 603.58,-185.88"/>
</a>
</g>
</g>
<!-- Node8 -->
<g id="Node000008" class="node">
<title>Node8</title>
<g id="a_Node000008"><a xlink:href="$classcam_1_1ui__panels_1_1op__properties_1_1CAM__OPERATION__PROPERTIES__Panel.html#a9bef32fd7c6edb48e55bbea853d41f22" xlink:title=" ">
<polygon fill="white" stroke="#666666" points="578,-128 402,-128 402,-87 578,-87 578,-128"/>
<text text-anchor="start" x="410" y="-116" font-family="Helvetica,sans-Serif" font-size="10.00">cam.ui_panels.op_properties.</text>
<text text-anchor="start" x="410" y="-105" font-family="Helvetica,sans-Serif" font-size="10.00">CAM_OPERATION_PROPERTIES</text>
<text text-anchor="middle" x="490" y="-94" font-family="Helvetica,sans-Serif" font-size="10.00">_Panel.draw_cutter_engagement</text>
</a>
</g>
</g>
<!-- Node7&#45;&gt;Node8 -->
<g id="edge27_Node000007_Node000008" class="edge">
<title>Node7&#45;&gt;Node8</title>
<g id="a_edge27_Node000007_Node000008"><a xlink:title=" ">
<path fill="none" stroke="#63b8ff" d="M366.21,-126.11C374.6,-124.84 383.19,-123.54 391.73,-122.24"/>
<polygon fill="#63b8ff" stroke="#63b8ff" points="392.36,-125.69 401.73,-120.73 391.31,-118.77 392.36,-125.69"/>
</a>
</g>
</g>
<!-- Node8&#45;&gt;Node3 -->
<g id="edge28_Node000008_Node000003" class="edge">
<title>Node8&#45;&gt;Node3</title>
<g id="a_edge28_Node000008_Node000003"><a xlink:title=" ">
<path fill="none" stroke="#63b8ff" d="M543.14,-128.03C554.66,-132.69 566.78,-137.69 578,-142.5 598.02,-151.09 619.81,-160.91 638.93,-169.69"/>
<polygon fill="#63b8ff" stroke="#63b8ff" points="637.54,-172.9 648.09,-173.91 640.47,-166.54 637.54,-172.9"/>
</a>
</g>
</g>
<!-- Node9&#45;&gt;Node3 -->
<g id="edge31_Node000009_Node000003" class="edge">
<title>Node9&#45;&gt;Node3</title>
<g id="a_edge31_Node000009_Node000003"><a xlink:title=" ">
<path fill="none" stroke="#63b8ff" d="M366.29,-62.62C427.1,-53.94 510.8,-50.32 578,-78.5 619.77,-96.01 653.95,-137.12 673.66,-165.38"/>
<polygon fill="#63b8ff" stroke="#63b8ff" points="670.79,-167.39 679.3,-173.7 676.58,-163.46 670.79,-167.39"/>
</a>
</g>
</g>
<!-- Node10&#45;&gt;Node3 -->
<g id="edge33_Node000010_Node000003" class="edge">
<title>Node10&#45;&gt;Node3</title>
<g id="a_edge33_Node000010_Node000003"><a xlink:title=" ">
<path fill="none" stroke="#63b8ff" d="M366.07,-13.16C427.91,-11.29 513.05,-16.9 578,-52.5 624.62,-78.06 659.19,-131.33 677.42,-164.86"/>
<polygon fill="#63b8ff" stroke="#63b8ff" points="674.36,-166.55 682.12,-173.76 680.54,-163.28 674.36,-166.55"/>
</a>
</g>
</g>
</g>
</svg>
