<?xml version="1.0" encoding="UTF-8" standalone="no"?>
<!DOCTYPE svg PUBLIC "-//W3C//DTD SVG 1.1//EN"
 "http://www.w3.org/Graphics/SVG/1.1/DTD/svg11.dtd">
<!-- Generated by graphviz version 2.43.0 (0)
 -->
<!-- Title: pie_gcode.VIEW3D_MT_PIE_Gcode Pages: 1 -->
<svg width="130pt" height="153pt"
 viewBox="0.00 0.00 130.00 153.00" xmlns="http://www.w3.org/2000/svg" xmlns:xlink="http://www.w3.org/1999/xlink">
<g id="graph0" class="graph" transform="scale(1 1) rotate(0) translate(4 149)">
<title>pie_gcode.VIEW3D_MT_PIE_Gcode</title>
<!-- Node1 -->
<g id="Node000001" class="node">
<title>Node1</title>
<g id="a_Node000001"><a xlink:title=" ">
<polygon fill="#999999" stroke="transparent" points="122,-60 0,-60 0,0 122,0 122,-60"/>
<text text-anchor="start" x="5" y="-48" font-family="Helvetica,sans-Serif" font-size="10.00">pie_gcode.VIEW3D_MT</text>
<text text-anchor="start" x="32.5" y="-37" font-family="Helvetica,sans-Serif" font-size="10.00">_PIE_Gcode</text>
<text text-anchor="start" x="19.5" y="-22" font-family="Helvetica,sans-Serif" font-size="10.00">+</text>
<text text-anchor="start" x="48" y="-22" font-family="Helvetica,sans-Serif" font-size="10.00">bl_label</text>
<text text-anchor="start" x="19.5" y="-7" font-family="Helvetica,sans-Serif" font-size="10.00">+</text>
<text text-anchor="start" x="48" y="-7" font-family="Helvetica,sans-Serif" font-size="10.00">draw()</text>
<polygon fill="#666666" stroke="#666666" points="0,-32 0,-32 122,-32 122,-32 0,-32"/>
<polygon fill="#666666" stroke="#666666" points="0,-17 0,-17 46,-17 46,-17 0,-17"/>
<polygon fill="#666666" stroke="#666666" points="46,-17 46,-17 122,-17 122,-17 46,-17"/>
<polygon fill="none" stroke="#666666" points="0,0 0,-60 122,-60 122,0 0,0"/>
</a>
</g>
</g>
<!-- Node2 -->
<g id="Node000002" class="node">
<title>Node2</title>
<g id="a_Node000002"><a xlink:title=" ">
<polygon fill="white" stroke="transparent" points="80,-145 42,-145 42,-96 80,-96 80,-145"/>
<text text-anchor="start" x="47" y="-132.5" font-family="Helvetica,sans-Serif" font-size="10.00">Menu</text>
<text text-anchor="start" x="59" y="-117.5" font-family="Helvetica,sans-Serif" font-size="10.00"> </text>
<text text-anchor="start" x="59" y="-102.5" font-family="Helvetica,sans-Serif" font-size="10.00"> </text>
<polygon fill="#666666" stroke="#666666" points="42,-127.5 42,-127.5 80,-127.5 80,-127.5 42,-127.5"/>
<polygon fill="#666666" stroke="#666666" points="42,-112.5 42,-112.5 80,-112.5 80,-112.5 42,-112.5"/>
<polygon fill="none" stroke="#666666" points="42,-96 42,-145 80,-145 80,-96 42,-96"/>
</a>
</g>
</g>
<!-- Node2&#45;&gt;Node1 -->
<g id="edge2_Node000001_Node000002" class="edge">
<title>Node2&#45;&gt;Node1</title>
<g id="a_edge2_Node000001_Node000002"><a xlink:title=" ">
<path fill="none" stroke="#63b8ff" d="M61,-85.55C61,-77.18 61,-68.28 61,-60.16"/>
<polygon fill="none" stroke="#63b8ff" points="57.5,-85.78 61,-95.78 64.5,-85.78 57.5,-85.78"/>
</a>
</g>
</g>
</g>
</svg>
