<?xml version="1.0" encoding="UTF-8" standalone="no"?>
<!DOCTYPE svg PUBLIC "-//W3C//DTD SVG 1.1//EN"
 "http://www.w3.org/Graphics/SVG/1.1/DTD/svg11.dtd">
<!-- Generated by graphviz version 2.43.0 (0)
 -->
<!-- Title: cam.nc.heiden.Creator.absolute Pages: 1 -->
<svg width="823pt" height="408pt"
 viewBox="0.00 0.00 823.00 408.00" xmlns="http://www.w3.org/2000/svg" xmlns:xlink="http://www.w3.org/1999/xlink">
<g id="graph0" class="graph" transform="scale(1 1) rotate(0) translate(4 404)">
<title>cam.nc.heiden.Creator.absolute</title>
<!-- Node1 -->
<g id="Node000001" class="node">
<title>Node1</title>
<g id="a_Node000001"><a xlink:title=" ">
<polygon fill="#999999" stroke="#666666" points="171,-255 0,-255 0,-236 171,-236 171,-255"/>
<text text-anchor="middle" x="85.5" y="-243" font-family="Helvetica,sans-Serif" font-size="10.00">cam.nc.heiden.Creator.absolute</text>
</a>
</g>
</g>
<!-- Node2 -->
<g id="Node000002" class="node">
<title>Node2</title>
<g id="a_Node000002"><a xlink:href="$classcam_1_1nc_1_1heiden_1_1Creator.html#a1f25f6f21ec41d366c8562cbd3319c21" xlink:title=" ">
<polygon fill="white" stroke="#666666" points="388,-292 207,-292 207,-273 388,-273 388,-292"/>
<text text-anchor="middle" x="297.5" y="-280" font-family="Helvetica,sans-Serif" font-size="10.00">cam.nc.heiden.Creator.ABSOLUTE</text>
</a>
</g>
</g>
<!-- Node1&#45;&gt;Node2 -->
<g id="edge21_Node000001_Node000002" class="edge">
<title>Node1&#45;&gt;Node2</title>
<g id="a_edge21_Node000001_Node000002"><a xlink:title=" ">
<path fill="none" stroke="#63b8ff" d="M140.58,-255.03C168.52,-259.95 202.8,-265.99 232.1,-271.15"/>
<polygon fill="#63b8ff" stroke="#63b8ff" points="231.78,-274.65 242.24,-272.94 233,-267.76 231.78,-274.65"/>
</a>
</g>
</g>
<!-- Node3 -->
<g id="Node000003" class="node">
<title>Node3</title>
<g id="a_Node000003"><a xlink:href="$classcam_1_1nc_1_1iso_1_1Creator.html#a4eefc69436d3c3b3c01b57e2dc5db756" xlink:title=" ">
<polygon fill="white" stroke="#666666" points="378.5,-255 216.5,-255 216.5,-236 378.5,-236 378.5,-255"/>
<text text-anchor="middle" x="297.5" y="-243" font-family="Helvetica,sans-Serif" font-size="10.00">cam.nc.iso.Creator.ABSOLUTE</text>
</a>
</g>
</g>
<!-- Node1&#45;&gt;Node3 -->
<g id="edge22_Node000001_Node000003" class="edge">
<title>Node1&#45;&gt;Node3</title>
<g id="a_edge22_Node000001_Node000003"><a xlink:title=" ">
<path fill="none" stroke="#63b8ff" d="M171.01,-245.5C182.55,-245.5 194.45,-245.5 206.09,-245.5"/>
<polygon fill="#63b8ff" stroke="#63b8ff" points="206.25,-249 216.25,-245.5 206.25,-242 206.25,-249"/>
</a>
</g>
</g>
<!-- Node4 -->
<g id="Node000004" class="node">
<title>Node4</title>
<g id="a_Node000004"><a xlink:href="$classcam_1_1nc_1_1makerbot__codes_1_1Codes.html#a314dcd2df274278e0a8477ea2bfb65e2" xlink:title=" ">
<polygon fill="white" stroke="#666666" points="383,-217.5 212,-217.5 212,-187.5 383,-187.5 383,-217.5"/>
<text text-anchor="start" x="220" y="-205.5" font-family="Helvetica,sans-Serif" font-size="10.00">cam.nc.makerbot_codes.Codes.</text>
<text text-anchor="middle" x="297.5" y="-194.5" font-family="Helvetica,sans-Serif" font-size="10.00">ABSOLUTE</text>
</a>
</g>
</g>
<!-- Node1&#45;&gt;Node4 -->
<g id="edge23_Node000001_Node000004" class="edge">
<title>Node1&#45;&gt;Node4</title>
<g id="a_edge23_Node000001_Node000004"><a xlink:title=" ">
<path fill="none" stroke="#63b8ff" d="M133.11,-235.96C156.67,-231.13 186,-225.13 213.27,-219.54"/>
<polygon fill="#63b8ff" stroke="#63b8ff" points="214.12,-222.94 223.21,-217.51 212.71,-216.08 214.12,-222.94"/>
</a>
</g>
</g>
<!-- Node5 -->
<g id="Node000005" class="node">
<title>Node5</title>
<g id="a_Node000005"><a xlink:href="$classcam_1_1nc_1_1emc2_1_1Creator.html#a47a9e4f5f35681f580765bba2f0f97a5" xlink:title=" ">
<polygon fill="white" stroke="#666666" points="586.5,-400 432.5,-400 432.5,-381 586.5,-381 586.5,-400"/>
<text text-anchor="middle" x="509.5" y="-388" font-family="Helvetica,sans-Serif" font-size="10.00">cam.nc.emc2.Creator.SPACE</text>
</a>
</g>
</g>
<!-- Node4&#45;&gt;Node5 -->
<g id="edge24_Node000004_Node000005" class="edge">
<title>Node4&#45;&gt;Node5</title>
<g id="a_edge24_Node000004_Node000005"><a xlink:title=" ">
<path fill="none" stroke="#63b8ff" d="M375.48,-217.67C380.05,-220.43 384.29,-223.68 388,-227.5 434.27,-275.13 376.27,-326.34 424,-372.5 424.97,-373.44 425.98,-374.33 427.02,-375.19"/>
<polygon fill="#63b8ff" stroke="#63b8ff" points="425.31,-378.25 435.56,-380.94 429.22,-372.45 425.31,-378.25"/>
</a>
</g>
</g>
<!-- Node6 -->
<g id="Node000006" class="node">
<title>Node6</title>
<g id="a_Node000006"><a xlink:href="$classcam_1_1nc_1_1emc2b_1_1Creator.html#abff5586e78bb91681bd41dafdea5a9e7" xlink:title=" ">
<polygon fill="white" stroke="#666666" points="589.5,-363 429.5,-363 429.5,-344 589.5,-344 589.5,-363"/>
<text text-anchor="middle" x="509.5" y="-351" font-family="Helvetica,sans-Serif" font-size="10.00">cam.nc.emc2b.Creator.SPACE</text>
</a>
</g>
</g>
<!-- Node4&#45;&gt;Node6 -->
<g id="edge25_Node000004_Node000006" class="edge">
<title>Node4&#45;&gt;Node6</title>
<g id="a_edge25_Node000004_Node000006"><a xlink:title=" ">
<path fill="none" stroke="#63b8ff" d="M374.28,-217.53C379.26,-220.32 383.9,-223.61 388,-227.5 424.39,-262.04 386.74,-300.9 424,-334.5 425.72,-336.05 427.55,-337.49 429.45,-338.82"/>
<polygon fill="#63b8ff" stroke="#63b8ff" points="427.86,-341.94 438.26,-343.96 431.39,-335.89 427.86,-341.94"/>
</a>
</g>
</g>
<!-- Node7 -->
<g id="Node000007" class="node">
<title>Node7</title>
<g id="a_Node000007"><a xlink:href="$classcam_1_1nc_1_1emc2tap_1_1CodesEMC2.html#a6a0d71a1c6e9f8a80228dc220a0e57ca" xlink:title=" ">
<polygon fill="white" stroke="#666666" points="590,-325.5 429,-325.5 429,-295.5 590,-295.5 590,-325.5"/>
<text text-anchor="start" x="437" y="-313.5" font-family="Helvetica,sans-Serif" font-size="10.00">cam.nc.emc2tap.CodesEMC2.</text>
<text text-anchor="middle" x="509.5" y="-302.5" font-family="Helvetica,sans-Serif" font-size="10.00">SPACE</text>
</a>
</g>
</g>
<!-- Node4&#45;&gt;Node7 -->
<g id="edge26_Node000004_Node000007" class="edge">
<title>Node4&#45;&gt;Node7</title>
<g id="a_edge26_Node000004_Node000007"><a xlink:title=" ">
<path fill="none" stroke="#63b8ff" d="M371.14,-217.54C377.13,-220.32 382.85,-223.61 388,-227.5 412.5,-246.03 399.54,-267.91 424,-286.5 425.83,-287.89 427.73,-289.19 429.69,-290.43"/>
<polygon fill="#63b8ff" stroke="#63b8ff" points="428.2,-293.6 438.65,-295.35 431.58,-287.47 428.2,-293.6"/>
</a>
</g>
</g>
<!-- Node8 -->
<g id="Node000008" class="node">
<title>Node8</title>
<g id="a_Node000008"><a xlink:href="$classcam_1_1nc_1_1heiden_1_1Creator.html#a2c4277ffddaea0f92c906c6744f7a3bd" xlink:title="Codes.">
<polygon fill="white" stroke="#666666" points="589.5,-277 429.5,-277 429.5,-258 589.5,-258 589.5,-277"/>
<text text-anchor="middle" x="509.5" y="-265" font-family="Helvetica,sans-Serif" font-size="10.00">cam.nc.heiden.Creator.SPACE</text>
</a>
</g>
</g>
<!-- Node4&#45;&gt;Node8 -->
<g id="edge27_Node000004_Node000008" class="edge">
<title>Node4&#45;&gt;Node8</title>
<g id="a_edge27_Node000004_Node000008"><a xlink:title=" ">
<path fill="none" stroke="#63b8ff" d="M360.36,-217.54C369.75,-220.46 379.23,-223.79 388,-227.5 405.06,-234.72 406.76,-241.72 424,-248.5 430.64,-251.11 437.72,-253.41 444.85,-255.41"/>
<polygon fill="#63b8ff" stroke="#63b8ff" points="444,-258.81 454.56,-257.97 445.79,-252.04 444,-258.81"/>
</a>
</g>
</g>
<!-- Node9 -->
<g id="Node000009" class="node">
<title>Node9</title>
<g id="a_Node000009"><a xlink:href="$classcam_1_1nc_1_1heiden530_1_1Creator.html#aa64b19b0edc2ac1f2d568b09ca2aebcb" xlink:title="Codes.">
<polygon fill="white" stroke="#666666" points="583,-239.5 436,-239.5 436,-209.5 583,-209.5 583,-239.5"/>
<text text-anchor="start" x="444" y="-227.5" font-family="Helvetica,sans-Serif" font-size="10.00">cam.nc.heiden530.Creator.</text>
<text text-anchor="middle" x="509.5" y="-216.5" font-family="Helvetica,sans-Serif" font-size="10.00">SPACE</text>
</a>
</g>
</g>
<!-- Node4&#45;&gt;Node9 -->
<g id="edge28_Node000004_Node000009" class="edge">
<title>Node4&#45;&gt;Node9</title>
<g id="a_edge28_Node000004_Node000009"><a xlink:title=" ">
<path fill="none" stroke="#63b8ff" d="M383.01,-211.35C397.13,-212.83 411.77,-214.37 425.85,-215.84"/>
<polygon fill="#63b8ff" stroke="#63b8ff" points="425.67,-219.34 435.98,-216.9 426.4,-212.38 425.67,-219.34"/>
</a>
</g>
</g>
<!-- Node10 -->
<g id="Node000010" class="node">
<title>Node10</title>
<g id="a_Node000010"><a xlink:href="$classcam_1_1nc_1_1iso_1_1Creator.html#a79463d437baaaf23c828a2c9e62393f3" xlink:title=" ">
<polygon fill="white" stroke="#666666" points="580,-191 439,-191 439,-172 580,-172 580,-191"/>
<text text-anchor="middle" x="509.5" y="-179" font-family="Helvetica,sans-Serif" font-size="10.00">cam.nc.iso.Creator.SPACE</text>
</a>
</g>
</g>
<!-- Node4&#45;&gt;Node10 -->
<g id="edge29_Node000004_Node000010" class="edge">
<title>Node4&#45;&gt;Node10</title>
<g id="a_edge29_Node000004_Node000010"><a xlink:title=" ">
<path fill="none" stroke="#63b8ff" d="M383.01,-194.05C398.1,-192.54 413.78,-190.97 428.74,-189.48"/>
<polygon fill="#63b8ff" stroke="#63b8ff" points="429.36,-192.93 438.96,-188.45 428.66,-185.97 429.36,-192.93"/>
</a>
</g>
</g>
<!-- Node18 -->
<g id="Node000018" class="node">
<title>Node18</title>
<g id="a_Node000018"><a xlink:href="$classcam_1_1nc_1_1makerbot__codes_1_1Codes.html#a497077e0e500cc8f419b8f3f61f008b4" xlink:title=" ">
<polygon fill="white" stroke="#666666" points="595,-153.5 424,-153.5 424,-123.5 595,-123.5 595,-153.5"/>
<text text-anchor="start" x="432" y="-141.5" font-family="Helvetica,sans-Serif" font-size="10.00">cam.nc.makerbot_codes.Codes.</text>
<text text-anchor="middle" x="509.5" y="-130.5" font-family="Helvetica,sans-Serif" font-size="10.00">SPACE</text>
</a>
</g>
</g>
<!-- Node4&#45;&gt;Node18 -->
<g id="edge37_Node000004_Node000018" class="edge">
<title>Node4&#45;&gt;Node18</title>
<g id="a_edge37_Node000004_Node000018"><a xlink:title=" ">
<path fill="none" stroke="#63b8ff" d="M346.43,-187.44C369.8,-180.14 398.35,-171.28 424,-163.5 431.51,-161.22 439.41,-158.85 447.24,-156.52"/>
<polygon fill="#63b8ff" stroke="#63b8ff" points="448.49,-159.8 457.08,-153.59 446.5,-153.09 448.49,-159.8"/>
</a>
</g>
</g>
<!-- Node19 -->
<g id="Node000019" class="node">
<title>Node19</title>
<g id="a_Node000019"><a xlink:href="$classcam_1_1nc_1_1series1_1_1Creator.html#a75918d23eef609baab85058fda3050d5" xlink:title=" ">
<polygon fill="white" stroke="#666666" points="590.5,-105 428.5,-105 428.5,-86 590.5,-86 590.5,-105"/>
<text text-anchor="middle" x="509.5" y="-93" font-family="Helvetica,sans-Serif" font-size="10.00">cam.nc.series1.Creator.SPACE</text>
</a>
</g>
</g>
<!-- Node4&#45;&gt;Node19 -->
<g id="edge38_Node000004_Node000019" class="edge">
<title>Node4&#45;&gt;Node19</title>
<g id="a_edge38_Node000004_Node000019"><a xlink:title=" ">
<path fill="none" stroke="#63b8ff" d="M315.45,-187.3C338.4,-167.54 381.41,-133.33 424,-114.5 429.69,-111.99 435.74,-109.79 441.89,-107.87"/>
<polygon fill="#63b8ff" stroke="#63b8ff" points="442.96,-111.21 451.61,-105.08 441.03,-104.48 442.96,-111.21"/>
</a>
</g>
</g>
<!-- Node20 -->
<g id="Node000020" class="node">
<title>Node20</title>
<g id="a_Node000020"><a xlink:href="$classcam_1_1nc_1_1shopbot__mtc_1_1Creator.html#a1512dbb5d0140eb216ed709a542261ac" xlink:title="Codes.">
<polygon fill="white" stroke="#666666" points="589,-67.5 430,-67.5 430,-37.5 589,-37.5 589,-67.5"/>
<text text-anchor="start" x="438" y="-55.5" font-family="Helvetica,sans-Serif" font-size="10.00">cam.nc.shopbot_mtc.Creator.</text>
<text text-anchor="middle" x="509.5" y="-44.5" font-family="Helvetica,sans-Serif" font-size="10.00">SPACE</text>
</a>
</g>
</g>
<!-- Node4&#45;&gt;Node20 -->
<g id="edge39_Node000004_Node000020" class="edge">
<title>Node4&#45;&gt;Node20</title>
<g id="a_edge39_Node000004_Node000020"><a xlink:title=" ">
<path fill="none" stroke="#63b8ff" d="M309.46,-187.21C329.27,-160.67 373.71,-106.1 424,-76.5 426.98,-74.74 430.1,-73.11 433.3,-71.59"/>
<polygon fill="#63b8ff" stroke="#63b8ff" points="434.73,-74.79 442.53,-67.61 431.96,-68.36 434.73,-74.79"/>
</a>
</g>
</g>
<!-- Node21 -->
<g id="Node000021" class="node">
<title>Node21</title>
<g id="a_Node000021"><a xlink:href="$classcam_1_1nc_1_1tnc151_1_1Creator.html#af5d9e50b2ff0e73cd7524e2145d55d76" xlink:title=" ">
<polygon fill="white" stroke="#666666" points="589.5,-19 429.5,-19 429.5,0 589.5,0 589.5,-19"/>
<text text-anchor="middle" x="509.5" y="-7" font-family="Helvetica,sans-Serif" font-size="10.00">cam.nc.tnc151.Creator.SPACE</text>
</a>
</g>
</g>
<!-- Node4&#45;&gt;Node21 -->
<g id="edge40_Node000004_Node000021" class="edge">
<title>Node4&#45;&gt;Node21</title>
<g id="a_edge40_Node000004_Node000021"><a xlink:title=" ">
<path fill="none" stroke="#63b8ff" d="M304.85,-187.31C320,-153.07 361.68,-69.65 424,-28.5 427.13,-26.43 430.46,-24.59 433.91,-22.94"/>
<polygon fill="#63b8ff" stroke="#63b8ff" points="435.41,-26.11 443.29,-19.03 432.71,-19.65 435.41,-26.11"/>
</a>
</g>
</g>
<!-- Node11 -->
<g id="Node000011" class="node">
<title>Node11</title>
<g id="a_Node000011"><a xlink:href="$classcam_1_1nc_1_1anilam__crusader__m_1_1Creator.html#a36f873a0248bcaa4cf2cfb220dc1b00c" xlink:title="Codes.">
<polygon fill="white" stroke="#666666" points="791,-313.5 655,-313.5 655,-283.5 791,-283.5 791,-313.5"/>
<text text-anchor="start" x="663" y="-301.5" font-family="Helvetica,sans-Serif" font-size="10.00">cam.nc.anilam_crusader</text>
<text text-anchor="middle" x="723" y="-290.5" font-family="Helvetica,sans-Serif" font-size="10.00">_m.Creator.SPACE_STR</text>
</a>
</g>
</g>
<!-- Node10&#45;&gt;Node11 -->
<g id="edge30_Node000010_Node000011" class="edge">
<title>Node10&#45;&gt;Node11</title>
<g id="a_edge30_Node000010_Node000011"><a xlink:title=" ">
<path fill="none" stroke="#63b8ff" d="M578.96,-191.1C584.71,-193.59 590.17,-196.67 595,-200.5 623.68,-223.2 602.74,-251.28 631,-274.5 635.34,-278.07 640.15,-281.11 645.24,-283.7"/>
<polygon fill="#63b8ff" stroke="#63b8ff" points="644.08,-287.02 654.64,-287.9 646.93,-280.62 644.08,-287.02"/>
</a>
</g>
</g>
<!-- Node12 -->
<g id="Node000012" class="node">
<title>Node12</title>
<g id="a_Node000012"><a xlink:href="$classcam_1_1nc_1_1fadal_1_1Creator.html#a97a50724edf2662eb4fe76b15516b638" xlink:title="Codes.">
<polygon fill="white" stroke="#666666" points="811,-265 635,-265 635,-246 811,-246 811,-265"/>
<text text-anchor="middle" x="723" y="-253" font-family="Helvetica,sans-Serif" font-size="10.00">cam.nc.fadal.Creator.SPACE_STR</text>
</a>
</g>
</g>
<!-- Node10&#45;&gt;Node12 -->
<g id="edge31_Node000010_Node000012" class="edge">
<title>Node10&#45;&gt;Node12</title>
<g id="a_edge31_Node000010_Node000012"><a xlink:title=" ">
<path fill="none" stroke="#63b8ff" d="M572.51,-191.05C580.35,-193.51 588.05,-196.61 595,-200.5 615.02,-211.7 610.83,-226.56 631,-237.5 634.31,-239.3 637.77,-240.91 641.33,-242.37"/>
<polygon fill="#63b8ff" stroke="#63b8ff" points="640.36,-245.74 650.95,-245.87 642.75,-239.16 640.36,-245.74"/>
</a>
</g>
</g>
<!-- Node13 -->
<g id="Node000013" class="node">
<title>Node13</title>
<g id="a_Node000013"><a xlink:href="$classcam_1_1nc_1_1gravos_1_1Creator.html#ac0bc0d26e8a92a65c0f33d696ad850f5" xlink:title="Codes.">
<polygon fill="white" stroke="#666666" points="815,-228 631,-228 631,-209 815,-209 815,-228"/>
<text text-anchor="middle" x="723" y="-216" font-family="Helvetica,sans-Serif" font-size="10.00">cam.nc.gravos.Creator.SPACE_STR</text>
</a>
</g>
</g>
<!-- Node10&#45;&gt;Node13 -->
<g id="edge32_Node000010_Node000013" class="edge">
<title>Node10&#45;&gt;Node13</title>
<g id="a_edge32_Node000010_Node000013"><a xlink:title=" ">
<path fill="none" stroke="#63b8ff" d="M564.97,-191.03C593.1,-195.95 627.63,-201.99 657.14,-207.15"/>
<polygon fill="#63b8ff" stroke="#63b8ff" points="656.9,-210.66 667.35,-208.94 658.1,-203.77 656.9,-210.66"/>
</a>
</g>
</g>
<!-- Node14 -->
<g id="Node000014" class="node">
<title>Node14</title>
<g id="a_Node000014"><a xlink:href="$classcam_1_1nc_1_1iso_1_1Creator.html#aa481cf1e394988751640fd5ce5af991e" xlink:title="Codes.">
<polygon fill="white" stroke="#666666" points="805.5,-191 640.5,-191 640.5,-172 805.5,-172 805.5,-191"/>
<text text-anchor="middle" x="723" y="-179" font-family="Helvetica,sans-Serif" font-size="10.00">cam.nc.iso.Creator.SPACE_STR</text>
</a>
</g>
</g>
<!-- Node10&#45;&gt;Node14 -->
<g id="edge33_Node000010_Node000014" class="edge">
<title>Node10&#45;&gt;Node14</title>
<g id="a_edge33_Node000010_Node000014"><a xlink:title=" ">
<path fill="none" stroke="#63b8ff" d="M580.05,-181.5C596,-181.5 613.2,-181.5 629.94,-181.5"/>
<polygon fill="#63b8ff" stroke="#63b8ff" points="630.29,-185 640.29,-181.5 630.29,-178 630.29,-185"/>
</a>
</g>
</g>
<!-- Node15 -->
<g id="Node000015" class="node">
<title>Node15</title>
<g id="a_Node000015"><a xlink:href="$classcam_1_1nc_1_1lynx__otter__o_1_1Creator.html#a73b176561e066abcdb256a1bf53a5fcc" xlink:title="Codes.">
<polygon fill="white" stroke="#666666" points="801.5,-153.5 644.5,-153.5 644.5,-123.5 801.5,-123.5 801.5,-153.5"/>
<text text-anchor="start" x="652.5" y="-141.5" font-family="Helvetica,sans-Serif" font-size="10.00">cam.nc.lynx_otter_o.Creator.</text>
<text text-anchor="middle" x="723" y="-130.5" font-family="Helvetica,sans-Serif" font-size="10.00">SPACE_STR</text>
</a>
</g>
</g>
<!-- Node10&#45;&gt;Node15 -->
<g id="edge34_Node000010_Node000015" class="edge">
<title>Node10&#45;&gt;Node15</title>
<g id="a_edge34_Node000010_Node000015"><a xlink:title=" ">
<path fill="none" stroke="#63b8ff" d="M557.44,-171.96C581.18,-167.13 610.71,-161.13 638.18,-155.54"/>
<polygon fill="#63b8ff" stroke="#63b8ff" points="639.09,-158.93 648.19,-153.51 637.69,-152.07 639.09,-158.93"/>
</a>
</g>
</g>
<!-- Node16 -->
<g id="Node000016" class="node">
<title>Node16</title>
<g id="a_Node000016"><a xlink:href="$classcam_1_1nc_1_1mach3_1_1Creator.html#aa461d578afa76c5af9bb5562b79d955a" xlink:title="Codes.">
<polygon fill="white" stroke="#666666" points="815,-105 631,-105 631,-86 815,-86 815,-105"/>
<text text-anchor="middle" x="723" y="-93" font-family="Helvetica,sans-Serif" font-size="10.00">cam.nc.mach3.Creator.SPACE_STR</text>
</a>
</g>
</g>
<!-- Node10&#45;&gt;Node16 -->
<g id="edge35_Node000010_Node000016" class="edge">
<title>Node10&#45;&gt;Node16</title>
<g id="a_edge35_Node000010_Node000016"><a xlink:title=" ">
<path fill="none" stroke="#63b8ff" d="M575.64,-171.86C582.46,-169.41 589.07,-166.34 595,-162.5 617.39,-148.01 608.5,-128.81 631,-114.5 634.35,-112.37 637.9,-110.47 641.57,-108.78"/>
<polygon fill="#63b8ff" stroke="#63b8ff" points="642.97,-111.99 650.94,-105 640.35,-105.5 642.97,-111.99"/>
</a>
</g>
</g>
<!-- Node17 -->
<g id="Node000017" class="node">
<title>Node17</title>
<g id="a_Node000017"><a xlink:href="$classcam_1_1nc_1_1winpc_1_1Creator.html#aae1cb93a5dd430719105fa03a054f654" xlink:title="Codes.">
<polygon fill="white" stroke="#666666" points="812.5,-68 633.5,-68 633.5,-49 812.5,-49 812.5,-68"/>
<text text-anchor="middle" x="723" y="-56" font-family="Helvetica,sans-Serif" font-size="10.00">cam.nc.winpc.Creator.SPACE_STR</text>
</a>
</g>
</g>
<!-- Node10&#45;&gt;Node17 -->
<g id="edge36_Node000010_Node000017" class="edge">
<title>Node10&#45;&gt;Node17</title>
<g id="a_edge36_Node000010_Node000017"><a xlink:title=" ">
<path fill="none" stroke="#63b8ff" d="M579.61,-172C585.16,-169.49 590.39,-166.36 595,-162.5 626.75,-135.88 598.91,-102.71 631,-76.5 632.54,-75.24 634.15,-74.06 635.81,-72.95"/>
<polygon fill="#63b8ff" stroke="#63b8ff" points="637.54,-76 644.52,-68.03 634.09,-69.91 637.54,-76"/>
</a>
</g>
</g>
</g>
</svg>
