<?xml version="1.0" encoding="UTF-8" standalone="no"?>
<!DOCTYPE svg PUBLIC "-//W3C//DTD SVG 1.1//EN"
 "http://www.w3.org/Graphics/SVG/1.1/DTD/svg11.dtd">
<!-- Generated by graphviz version 2.43.0 (0)
 -->
<!-- Title: cam.nc.winpc.Creator.TOOL Pages: 1 -->
<svg width="361pt" height="326pt"
 viewBox="0.00 0.00 361.00 326.00" xmlns="http://www.w3.org/2000/svg" xmlns:xlink="http://www.w3.org/1999/xlink">
<g id="graph0" class="graph" transform="scale(1 1) rotate(0) translate(4 322)">
<title>cam.nc.winpc.Creator.TOOL</title>
<!-- Node1 -->
<g id="Node000001" class="node">
<title>Node1</title>
<g id="a_Node000001"><a xlink:title=" ">
<polygon fill="#999999" stroke="#666666" points="353,-168.5 202,-168.5 202,-149.5 353,-149.5 353,-168.5"/>
<text text-anchor="middle" x="277.5" y="-156.5" font-family="Helvetica,sans-Serif" font-size="10.00">cam.nc.winpc.Creator.TOOL</text>
</a>
</g>
</g>
<!-- Node2 -->
<g id="Node000002" class="node">
<title>Node2</title>
<g id="a_Node000002"><a xlink:href="$classcam_1_1nc_1_1centroid1_1_1Creator.html#a36d8a0c5d271ca1246fa521b42b5cf29" xlink:title="tool info">
<polygon fill="white" stroke="#666666" points="163.5,-318 2.5,-318 2.5,-288 163.5,-288 163.5,-318"/>
<text text-anchor="start" x="10.5" y="-306" font-family="Helvetica,sans-Serif" font-size="10.00">cam.nc.centroid1.Creator.tool</text>
<text text-anchor="middle" x="83" y="-295" font-family="Helvetica,sans-Serif" font-size="10.00">_change</text>
</a>
</g>
</g>
<!-- Node1&#45;&gt;Node2 -->
<g id="edge8_Node000001_Node000002" class="edge">
<title>Node1&#45;&gt;Node2</title>
<g id="a_edge8_Node000001_Node000002"><a xlink:title=" ">
<path fill="none" stroke="#63b8ff" d="M264.73,-177.03C246.63,-203.33 209.47,-252.01 166,-279 160.46,-282.44 154.39,-285.41 148.16,-287.97"/>
<polygon fill="#63b8ff" stroke="#63b8ff" points="267.63,-178.99 270.31,-168.74 261.82,-175.08 267.63,-178.99"/>
</a>
</g>
</g>
<!-- Node3 -->
<g id="Node000003" class="node">
<title>Node3</title>
<g id="a_Node000003"><a xlink:href="$classcam_1_1nc_1_1gravos_1_1Creator.html#aa5dd1702c8a30a208fa995e6bfc13d50" xlink:title="Tools.">
<polygon fill="white" stroke="#666666" points="157,-270 9,-270 9,-240 157,-240 157,-270"/>
<text text-anchor="start" x="17" y="-258" font-family="Helvetica,sans-Serif" font-size="10.00">cam.nc.gravos.Creator.tool</text>
<text text-anchor="middle" x="83" y="-247" font-family="Helvetica,sans-Serif" font-size="10.00">_change</text>
</a>
</g>
</g>
<!-- Node1&#45;&gt;Node3 -->
<g id="edge9_Node000001_Node000003" class="edge">
<title>Node1&#45;&gt;Node3</title>
<g id="a_edge9_Node000001_Node000003"><a xlink:title=" ">
<path fill="none" stroke="#63b8ff" d="M256.27,-174.81C234.88,-190.87 199.64,-215.53 166,-231 158.86,-234.29 151.16,-237.24 143.44,-239.86"/>
<polygon fill="#63b8ff" stroke="#63b8ff" points="258.44,-177.55 264.28,-168.7 254.2,-171.98 258.44,-177.55"/>
</a>
</g>
</g>
<!-- Node4 -->
<g id="Node000004" class="node">
<title>Node4</title>
<g id="a_Node000004"><a xlink:href="$classcam_1_1nc_1_1heiden_1_1Creator.html#a1e0d0a0333918e86dfaa5e03437bf452" xlink:title="Tools.">
<polygon fill="white" stroke="#666666" points="157,-222 9,-222 9,-192 157,-192 157,-222"/>
<text text-anchor="start" x="17" y="-210" font-family="Helvetica,sans-Serif" font-size="10.00">cam.nc.heiden.Creator.tool</text>
<text text-anchor="middle" x="83" y="-199" font-family="Helvetica,sans-Serif" font-size="10.00">_change</text>
</a>
</g>
</g>
<!-- Node1&#45;&gt;Node4 -->
<g id="edge10_Node000001_Node000004" class="edge">
<title>Node1&#45;&gt;Node4</title>
<g id="a_edge10_Node000001_Node000004"><a xlink:title=" ">
<path fill="none" stroke="#63b8ff" d="M228.23,-171.04C202.82,-177.37 171.42,-185.2 144.41,-191.94"/>
<polygon fill="#63b8ff" stroke="#63b8ff" points="229.15,-174.41 238.01,-168.6 227.46,-167.62 229.15,-174.41"/>
</a>
</g>
</g>
<!-- Node5 -->
<g id="Node000005" class="node">
<title>Node5</title>
<g id="a_Node000005"><a xlink:href="$classcam_1_1nc_1_1heiden530_1_1Creator.html#a1d09a200e101159ed97068ca958de3ec" xlink:title="Tools.">
<polygon fill="white" stroke="#666666" points="166,-174 0,-174 0,-144 166,-144 166,-174"/>
<text text-anchor="start" x="8" y="-162" font-family="Helvetica,sans-Serif" font-size="10.00">cam.nc.heiden530.Creator.tool</text>
<text text-anchor="middle" x="83" y="-151" font-family="Helvetica,sans-Serif" font-size="10.00">_change</text>
</a>
</g>
</g>
<!-- Node1&#45;&gt;Node5 -->
<g id="edge11_Node000001_Node000005" class="edge">
<title>Node1&#45;&gt;Node5</title>
<g id="a_edge11_Node000001_Node000005"><a xlink:title=" ">
<path fill="none" stroke="#63b8ff" d="M191.53,-159C183.05,-159 174.45,-159 166,-159"/>
<polygon fill="#63b8ff" stroke="#63b8ff" points="191.8,-162.5 201.8,-159 191.8,-155.5 191.8,-162.5"/>
</a>
</g>
</g>
<!-- Node6 -->
<g id="Node000006" class="node">
<title>Node6</title>
<g id="a_Node000006"><a xlink:href="$classcam_1_1nc_1_1hm50_1_1Creator.html#a52a88e68142442ebc4581b840b5bab40" xlink:title="Tools.">
<polygon fill="white" stroke="#666666" points="154.5,-126 11.5,-126 11.5,-96 154.5,-96 154.5,-126"/>
<text text-anchor="start" x="19.5" y="-114" font-family="Helvetica,sans-Serif" font-size="10.00">cam.nc.hm50.Creator.tool</text>
<text text-anchor="middle" x="83" y="-103" font-family="Helvetica,sans-Serif" font-size="10.00">_change</text>
</a>
</g>
</g>
<!-- Node1&#45;&gt;Node6 -->
<g id="edge12_Node000001_Node000006" class="edge">
<title>Node1&#45;&gt;Node6</title>
<g id="a_edge12_Node000001_Node000006"><a xlink:title=" ">
<path fill="none" stroke="#63b8ff" d="M228.23,-146.96C202.82,-140.63 171.42,-132.8 144.41,-126.06"/>
<polygon fill="#63b8ff" stroke="#63b8ff" points="227.46,-150.38 238.01,-149.4 229.15,-143.59 227.46,-150.38"/>
</a>
</g>
</g>
<!-- Node7 -->
<g id="Node000007" class="node">
<title>Node7</title>
<g id="a_Node000007"><a xlink:href="$classcam_1_1nc_1_1iso_1_1Creator.html#a3e61292523aa893f0187112023e51eff" xlink:title="Tools.">
<polygon fill="white" stroke="#666666" points="147.5,-78 18.5,-78 18.5,-48 147.5,-48 147.5,-78"/>
<text text-anchor="start" x="26.5" y="-66" font-family="Helvetica,sans-Serif" font-size="10.00">cam.nc.iso.Creator.tool</text>
<text text-anchor="middle" x="83" y="-55" font-family="Helvetica,sans-Serif" font-size="10.00">_change</text>
</a>
</g>
</g>
<!-- Node1&#45;&gt;Node7 -->
<g id="edge13_Node000001_Node000007" class="edge">
<title>Node1&#45;&gt;Node7</title>
<g id="a_edge13_Node000001_Node000007"><a xlink:title=" ">
<path fill="none" stroke="#63b8ff" d="M256.27,-143.19C234.88,-127.13 199.64,-102.47 166,-87 158.86,-83.71 151.16,-80.76 143.44,-78.14"/>
<polygon fill="#63b8ff" stroke="#63b8ff" points="254.2,-146.02 264.28,-149.3 258.44,-140.45 254.2,-146.02"/>
</a>
</g>
</g>
<!-- Node8 -->
<g id="Node000008" class="node">
<title>Node8</title>
<g id="a_Node000008"><a xlink:href="$classcam_1_1nc_1_1mach3_1_1Creator.html#a4d1de1048649d3d4c98467248b80bf69" xlink:title="Tools.">
<polygon fill="white" stroke="#666666" points="157,-30 9,-30 9,0 157,0 157,-30"/>
<text text-anchor="start" x="17" y="-18" font-family="Helvetica,sans-Serif" font-size="10.00">cam.nc.mach3.Creator.tool</text>
<text text-anchor="middle" x="83" y="-7" font-family="Helvetica,sans-Serif" font-size="10.00">_change</text>
</a>
</g>
</g>
<!-- Node1&#45;&gt;Node8 -->
<g id="edge14_Node000001_Node000008" class="edge">
<title>Node1&#45;&gt;Node8</title>
<g id="a_edge14_Node000001_Node000008"><a xlink:title=" ">
<path fill="none" stroke="#63b8ff" d="M264.73,-140.97C246.63,-114.67 209.47,-65.99 166,-39 160.46,-35.56 154.39,-32.59 148.16,-30.03"/>
<polygon fill="#63b8ff" stroke="#63b8ff" points="261.82,-142.92 270.31,-149.26 267.63,-139.01 261.82,-142.92"/>
</a>
</g>
</g>
</g>
</svg>
