<?xml version="1.0" encoding="UTF-8" standalone="no"?>
<!DOCTYPE svg PUBLIC "-//W3C//DTD SVG 1.1//EN"
 "http://www.w3.org/Graphics/SVG/1.1/DTD/svg11.dtd">
<!-- Generated by graphviz version 2.43.0 (0)
 -->
<!-- Title: cam.nc.iso.Creator.TOOL_DEFINITION Pages: 1 -->
<svg width="572pt" height="408pt"
 viewBox="0.00 0.00 572.00 408.00" xmlns="http://www.w3.org/2000/svg" xmlns:xlink="http://www.w3.org/1999/xlink">
<g id="graph0" class="graph" transform="scale(1 1) rotate(0) translate(4 404)">
<title>cam.nc.iso.Creator.TOOL_DEFINITION</title>
<!-- Node1 -->
<g id="Node000001" class="node">
<title>Node1</title>
<g id="a_Node000001"><a xlink:title=" ">
<polygon fill="#999999" stroke="#666666" points="137,-217.5 0,-217.5 0,-187.5 137,-187.5 137,-217.5"/>
<text text-anchor="start" x="8" y="-205.5" font-family="Helvetica,sans-Serif" font-size="10.00">cam.nc.iso.Creator.TOOL</text>
<text text-anchor="middle" x="68.5" y="-194.5" font-family="Helvetica,sans-Serif" font-size="10.00">_DEFINITION</text>
</a>
</g>
</g>
<!-- Node2 -->
<g id="Node000002" class="node">
<title>Node2</title>
<g id="a_Node000002"><a xlink:href="$classcam_1_1nc_1_1emc2_1_1Creator.html#a47a9e4f5f35681f580765bba2f0f97a5" xlink:title=" ">
<polygon fill="white" stroke="#666666" points="335.5,-400 181.5,-400 181.5,-381 335.5,-381 335.5,-400"/>
<text text-anchor="middle" x="258.5" y="-388" font-family="Helvetica,sans-Serif" font-size="10.00">cam.nc.emc2.Creator.SPACE</text>
</a>
</g>
</g>
<!-- Node1&#45;&gt;Node2 -->
<g id="edge18_Node000001_Node000002" class="edge">
<title>Node1&#45;&gt;Node2</title>
<g id="a_edge18_Node000001_Node000002"><a xlink:title=" ">
<path fill="none" stroke="#63b8ff" d="M74.1,-217.61C85.17,-251.25 116.63,-332.52 173,-372.5 175.09,-373.98 177.27,-375.34 179.53,-376.6"/>
<polygon fill="#63b8ff" stroke="#63b8ff" points="178.04,-379.76 188.57,-380.92 181.06,-373.45 178.04,-379.76"/>
</a>
</g>
</g>
<!-- Node3 -->
<g id="Node000003" class="node">
<title>Node3</title>
<g id="a_Node000003"><a xlink:href="$classcam_1_1nc_1_1emc2b_1_1Creator.html#abff5586e78bb91681bd41dafdea5a9e7" xlink:title=" ">
<polygon fill="white" stroke="#666666" points="338.5,-363 178.5,-363 178.5,-344 338.5,-344 338.5,-363"/>
<text text-anchor="middle" x="258.5" y="-351" font-family="Helvetica,sans-Serif" font-size="10.00">cam.nc.emc2b.Creator.SPACE</text>
</a>
</g>
</g>
<!-- Node1&#45;&gt;Node3 -->
<g id="edge19_Node000001_Node000003" class="edge">
<title>Node1&#45;&gt;Node3</title>
<g id="a_edge19_Node000001_Node000003"><a xlink:title=" ">
<path fill="none" stroke="#63b8ff" d="M76.81,-217.53C91.15,-245.32 125.73,-304.63 173,-334.5 176.34,-336.61 179.88,-338.48 183.55,-340.15"/>
<polygon fill="#63b8ff" stroke="#63b8ff" points="182.3,-343.42 192.88,-343.89 184.9,-336.92 182.3,-343.42"/>
</a>
</g>
</g>
<!-- Node4 -->
<g id="Node000004" class="node">
<title>Node4</title>
<g id="a_Node000004"><a xlink:href="$classcam_1_1nc_1_1emc2tap_1_1CodesEMC2.html#a6a0d71a1c6e9f8a80228dc220a0e57ca" xlink:title=" ">
<polygon fill="white" stroke="#666666" points="339,-325.5 178,-325.5 178,-295.5 339,-295.5 339,-325.5"/>
<text text-anchor="start" x="186" y="-313.5" font-family="Helvetica,sans-Serif" font-size="10.00">cam.nc.emc2tap.CodesEMC2.</text>
<text text-anchor="middle" x="258.5" y="-302.5" font-family="Helvetica,sans-Serif" font-size="10.00">SPACE</text>
</a>
</g>
</g>
<!-- Node1&#45;&gt;Node4 -->
<g id="edge20_Node000001_Node000004" class="edge">
<title>Node1&#45;&gt;Node4</title>
<g id="a_edge20_Node000001_Node000004"><a xlink:title=" ">
<path fill="none" stroke="#63b8ff" d="M84.21,-217.77C103.1,-236.54 137.68,-268.15 173,-286.5 176.55,-288.35 180.26,-290.07 184.07,-291.67"/>
<polygon fill="#63b8ff" stroke="#63b8ff" points="183.07,-295.03 193.66,-295.4 185.61,-288.51 183.07,-295.03"/>
</a>
</g>
</g>
<!-- Node5 -->
<g id="Node000005" class="node">
<title>Node5</title>
<g id="a_Node000005"><a xlink:href="$classcam_1_1nc_1_1heiden_1_1Creator.html#a2c4277ffddaea0f92c906c6744f7a3bd" xlink:title="Codes.">
<polygon fill="white" stroke="#666666" points="338.5,-277 178.5,-277 178.5,-258 338.5,-258 338.5,-277"/>
<text text-anchor="middle" x="258.5" y="-265" font-family="Helvetica,sans-Serif" font-size="10.00">cam.nc.heiden.Creator.SPACE</text>
</a>
</g>
</g>
<!-- Node1&#45;&gt;Node5 -->
<g id="edge21_Node000001_Node000005" class="edge">
<title>Node1&#45;&gt;Node5</title>
<g id="a_edge21_Node000001_Node000005"><a xlink:title=" ">
<path fill="none" stroke="#63b8ff" d="M99.22,-217.59C119.58,-227.45 147.43,-240.03 173,-248.5 180.9,-251.12 189.33,-253.49 197.7,-255.6"/>
<polygon fill="#63b8ff" stroke="#63b8ff" points="196.91,-259.01 207.46,-257.96 198.56,-252.21 196.91,-259.01"/>
</a>
</g>
</g>
<!-- Node6 -->
<g id="Node000006" class="node">
<title>Node6</title>
<g id="a_Node000006"><a xlink:href="$classcam_1_1nc_1_1heiden530_1_1Creator.html#aa64b19b0edc2ac1f2d568b09ca2aebcb" xlink:title="Codes.">
<polygon fill="white" stroke="#666666" points="332,-239.5 185,-239.5 185,-209.5 332,-209.5 332,-239.5"/>
<text text-anchor="start" x="193" y="-227.5" font-family="Helvetica,sans-Serif" font-size="10.00">cam.nc.heiden530.Creator.</text>
<text text-anchor="middle" x="258.5" y="-216.5" font-family="Helvetica,sans-Serif" font-size="10.00">SPACE</text>
</a>
</g>
</g>
<!-- Node1&#45;&gt;Node6 -->
<g id="edge22_Node000001_Node000006" class="edge">
<title>Node1&#45;&gt;Node6</title>
<g id="a_edge22_Node000001_Node000006"><a xlink:title=" ">
<path fill="none" stroke="#63b8ff" d="M137.11,-210.41C149.32,-211.84 162.17,-213.34 174.76,-214.82"/>
<polygon fill="#63b8ff" stroke="#63b8ff" points="174.43,-218.3 184.77,-215.99 175.25,-211.35 174.43,-218.3"/>
</a>
</g>
</g>
<!-- Node7 -->
<g id="Node000007" class="node">
<title>Node7</title>
<g id="a_Node000007"><a xlink:href="$classcam_1_1nc_1_1iso_1_1Creator.html#a79463d437baaaf23c828a2c9e62393f3" xlink:title=" ">
<polygon fill="white" stroke="#666666" points="329,-191 188,-191 188,-172 329,-172 329,-191"/>
<text text-anchor="middle" x="258.5" y="-179" font-family="Helvetica,sans-Serif" font-size="10.00">cam.nc.iso.Creator.SPACE</text>
</a>
</g>
</g>
<!-- Node1&#45;&gt;Node7 -->
<g id="edge23_Node000001_Node000007" class="edge">
<title>Node1&#45;&gt;Node7</title>
<g id="a_edge23_Node000001_Node000007"><a xlink:title=" ">
<path fill="none" stroke="#63b8ff" d="M137.11,-194.95C150.28,-193.48 164.2,-191.92 177.72,-190.41"/>
<polygon fill="#63b8ff" stroke="#63b8ff" points="178.41,-193.86 187.96,-189.27 177.63,-186.9 178.41,-193.86"/>
</a>
</g>
</g>
<!-- Node15 -->
<g id="Node000015" class="node">
<title>Node15</title>
<g id="a_Node000015"><a xlink:href="$classcam_1_1nc_1_1makerbot__codes_1_1Codes.html#a497077e0e500cc8f419b8f3f61f008b4" xlink:title=" ">
<polygon fill="white" stroke="#666666" points="344,-153.5 173,-153.5 173,-123.5 344,-123.5 344,-153.5"/>
<text text-anchor="start" x="181" y="-141.5" font-family="Helvetica,sans-Serif" font-size="10.00">cam.nc.makerbot_codes.Codes.</text>
<text text-anchor="middle" x="258.5" y="-130.5" font-family="Helvetica,sans-Serif" font-size="10.00">SPACE</text>
</a>
</g>
</g>
<!-- Node1&#45;&gt;Node15 -->
<g id="edge31_Node000001_Node000015" class="edge">
<title>Node1&#45;&gt;Node15</title>
<g id="a_edge31_Node000001_Node000015"><a xlink:title=" ">
<path fill="none" stroke="#63b8ff" d="M107.6,-187.39C127.05,-179.86 151.16,-170.84 173,-163.5 179.98,-161.16 187.32,-158.81 194.64,-156.55"/>
<polygon fill="#63b8ff" stroke="#63b8ff" points="196.03,-159.78 204.58,-153.52 193.99,-153.08 196.03,-159.78"/>
</a>
</g>
</g>
<!-- Node16 -->
<g id="Node000016" class="node">
<title>Node16</title>
<g id="a_Node000016"><a xlink:href="$classcam_1_1nc_1_1series1_1_1Creator.html#a75918d23eef609baab85058fda3050d5" xlink:title=" ">
<polygon fill="white" stroke="#666666" points="339.5,-105 177.5,-105 177.5,-86 339.5,-86 339.5,-105"/>
<text text-anchor="middle" x="258.5" y="-93" font-family="Helvetica,sans-Serif" font-size="10.00">cam.nc.series1.Creator.SPACE</text>
</a>
</g>
</g>
<!-- Node1&#45;&gt;Node16 -->
<g id="edge32_Node000001_Node000016" class="edge">
<title>Node1&#45;&gt;Node16</title>
<g id="a_edge32_Node000001_Node000016"><a xlink:title=" ">
<path fill="none" stroke="#63b8ff" d="M82.94,-187.18C101.26,-167.29 136.07,-132.93 173,-114.5 177.88,-112.07 183.07,-109.94 188.38,-108.08"/>
<polygon fill="#63b8ff" stroke="#63b8ff" points="189.57,-111.38 198.05,-105.03 187.46,-104.71 189.57,-111.38"/>
</a>
</g>
</g>
<!-- Node17 -->
<g id="Node000017" class="node">
<title>Node17</title>
<g id="a_Node000017"><a xlink:href="$classcam_1_1nc_1_1shopbot__mtc_1_1Creator.html#a1512dbb5d0140eb216ed709a542261ac" xlink:title="Codes.">
<polygon fill="white" stroke="#666666" points="338,-67.5 179,-67.5 179,-37.5 338,-37.5 338,-67.5"/>
<text text-anchor="start" x="187" y="-55.5" font-family="Helvetica,sans-Serif" font-size="10.00">cam.nc.shopbot_mtc.Creator.</text>
<text text-anchor="middle" x="258.5" y="-44.5" font-family="Helvetica,sans-Serif" font-size="10.00">SPACE</text>
</a>
</g>
</g>
<!-- Node1&#45;&gt;Node17 -->
<g id="edge33_Node000001_Node000017" class="edge">
<title>Node1&#45;&gt;Node17</title>
<g id="a_edge33_Node000001_Node000017"><a xlink:title=" ">
<path fill="none" stroke="#63b8ff" d="M77.86,-187.15C93.16,-160.52 128.24,-105.82 173,-76.5 175.45,-74.89 178.01,-73.39 180.65,-71.99"/>
<polygon fill="#63b8ff" stroke="#63b8ff" points="182.35,-75.06 189.88,-67.6 179.34,-68.74 182.35,-75.06"/>
</a>
</g>
</g>
<!-- Node18 -->
<g id="Node000018" class="node">
<title>Node18</title>
<g id="a_Node000018"><a xlink:href="$classcam_1_1nc_1_1tnc151_1_1Creator.html#af5d9e50b2ff0e73cd7524e2145d55d76" xlink:title=" ">
<polygon fill="white" stroke="#666666" points="338.5,-19 178.5,-19 178.5,0 338.5,0 338.5,-19"/>
<text text-anchor="middle" x="258.5" y="-7" font-family="Helvetica,sans-Serif" font-size="10.00">cam.nc.tnc151.Creator.SPACE</text>
</a>
</g>
</g>
<!-- Node1&#45;&gt;Node18 -->
<g id="edge34_Node000001_Node000018" class="edge">
<title>Node1&#45;&gt;Node18</title>
<g id="a_edge34_Node000001_Node000018"><a xlink:title=" ">
<path fill="none" stroke="#63b8ff" d="M73.94,-187.35C84.78,-153.18 115.96,-69.89 173,-28.5 175.68,-26.56 178.52,-24.81 181.48,-23.23"/>
<polygon fill="#63b8ff" stroke="#63b8ff" points="183.03,-26.37 190.65,-19.02 180.1,-20.01 183.03,-26.37"/>
</a>
</g>
</g>
<!-- Node8 -->
<g id="Node000008" class="node">
<title>Node8</title>
<g id="a_Node000008"><a xlink:href="$classcam_1_1nc_1_1anilam__crusader__m_1_1Creator.html#a36f873a0248bcaa4cf2cfb220dc1b00c" xlink:title="Codes.">
<polygon fill="white" stroke="#666666" points="540,-313.5 404,-313.5 404,-283.5 540,-283.5 540,-313.5"/>
<text text-anchor="start" x="412" y="-301.5" font-family="Helvetica,sans-Serif" font-size="10.00">cam.nc.anilam_crusader</text>
<text text-anchor="middle" x="472" y="-290.5" font-family="Helvetica,sans-Serif" font-size="10.00">_m.Creator.SPACE_STR</text>
</a>
</g>
</g>
<!-- Node7&#45;&gt;Node8 -->
<g id="edge24_Node000007_Node000008" class="edge">
<title>Node7&#45;&gt;Node8</title>
<g id="a_edge24_Node000007_Node000008"><a xlink:title=" ">
<path fill="none" stroke="#63b8ff" d="M327.96,-191.1C333.71,-193.59 339.17,-196.67 344,-200.5 372.68,-223.2 351.74,-251.28 380,-274.5 384.34,-278.07 389.15,-281.11 394.24,-283.7"/>
<polygon fill="#63b8ff" stroke="#63b8ff" points="393.08,-287.02 403.64,-287.9 395.93,-280.62 393.08,-287.02"/>
</a>
</g>
</g>
<!-- Node9 -->
<g id="Node000009" class="node">
<title>Node9</title>
<g id="a_Node000009"><a xlink:href="$classcam_1_1nc_1_1fadal_1_1Creator.html#a97a50724edf2662eb4fe76b15516b638" xlink:title="Codes.">
<polygon fill="white" stroke="#666666" points="560,-265 384,-265 384,-246 560,-246 560,-265"/>
<text text-anchor="middle" x="472" y="-253" font-family="Helvetica,sans-Serif" font-size="10.00">cam.nc.fadal.Creator.SPACE_STR</text>
</a>
</g>
</g>
<!-- Node7&#45;&gt;Node9 -->
<g id="edge25_Node000007_Node000009" class="edge">
<title>Node7&#45;&gt;Node9</title>
<g id="a_edge25_Node000007_Node000009"><a xlink:title=" ">
<path fill="none" stroke="#63b8ff" d="M321.51,-191.05C329.35,-193.51 337.05,-196.61 344,-200.5 364.02,-211.7 359.83,-226.56 380,-237.5 383.31,-239.3 386.77,-240.91 390.33,-242.37"/>
<polygon fill="#63b8ff" stroke="#63b8ff" points="389.36,-245.74 399.95,-245.87 391.75,-239.16 389.36,-245.74"/>
</a>
</g>
</g>
<!-- Node10 -->
<g id="Node000010" class="node">
<title>Node10</title>
<g id="a_Node000010"><a xlink:href="$classcam_1_1nc_1_1gravos_1_1Creator.html#ac0bc0d26e8a92a65c0f33d696ad850f5" xlink:title="Codes.">
<polygon fill="white" stroke="#666666" points="564,-228 380,-228 380,-209 564,-209 564,-228"/>
<text text-anchor="middle" x="472" y="-216" font-family="Helvetica,sans-Serif" font-size="10.00">cam.nc.gravos.Creator.SPACE_STR</text>
</a>
</g>
</g>
<!-- Node7&#45;&gt;Node10 -->
<g id="edge26_Node000007_Node000010" class="edge">
<title>Node7&#45;&gt;Node10</title>
<g id="a_edge26_Node000007_Node000010"><a xlink:title=" ">
<path fill="none" stroke="#63b8ff" d="M313.97,-191.03C342.1,-195.95 376.63,-201.99 406.14,-207.15"/>
<polygon fill="#63b8ff" stroke="#63b8ff" points="405.9,-210.66 416.35,-208.94 407.1,-203.77 405.9,-210.66"/>
</a>
</g>
</g>
<!-- Node11 -->
<g id="Node000011" class="node">
<title>Node11</title>
<g id="a_Node000011"><a xlink:href="$classcam_1_1nc_1_1iso_1_1Creator.html#aa481cf1e394988751640fd5ce5af991e" xlink:title="Codes.">
<polygon fill="white" stroke="#666666" points="554.5,-191 389.5,-191 389.5,-172 554.5,-172 554.5,-191"/>
<text text-anchor="middle" x="472" y="-179" font-family="Helvetica,sans-Serif" font-size="10.00">cam.nc.iso.Creator.SPACE_STR</text>
</a>
</g>
</g>
<!-- Node7&#45;&gt;Node11 -->
<g id="edge27_Node000007_Node000011" class="edge">
<title>Node7&#45;&gt;Node11</title>
<g id="a_edge27_Node000007_Node000011"><a xlink:title=" ">
<path fill="none" stroke="#63b8ff" d="M329.05,-181.5C345,-181.5 362.2,-181.5 378.94,-181.5"/>
<polygon fill="#63b8ff" stroke="#63b8ff" points="379.29,-185 389.29,-181.5 379.29,-178 379.29,-185"/>
</a>
</g>
</g>
<!-- Node12 -->
<g id="Node000012" class="node">
<title>Node12</title>
<g id="a_Node000012"><a xlink:href="$classcam_1_1nc_1_1lynx__otter__o_1_1Creator.html#a73b176561e066abcdb256a1bf53a5fcc" xlink:title="Codes.">
<polygon fill="white" stroke="#666666" points="550.5,-153.5 393.5,-153.5 393.5,-123.5 550.5,-123.5 550.5,-153.5"/>
<text text-anchor="start" x="401.5" y="-141.5" font-family="Helvetica,sans-Serif" font-size="10.00">cam.nc.lynx_otter_o.Creator.</text>
<text text-anchor="middle" x="472" y="-130.5" font-family="Helvetica,sans-Serif" font-size="10.00">SPACE_STR</text>
</a>
</g>
</g>
<!-- Node7&#45;&gt;Node12 -->
<g id="edge28_Node000007_Node000012" class="edge">
<title>Node7&#45;&gt;Node12</title>
<g id="a_edge28_Node000007_Node000012"><a xlink:title=" ">
<path fill="none" stroke="#63b8ff" d="M306.44,-171.96C330.18,-167.13 359.71,-161.13 387.18,-155.54"/>
<polygon fill="#63b8ff" stroke="#63b8ff" points="388.09,-158.93 397.19,-153.51 386.69,-152.07 388.09,-158.93"/>
</a>
</g>
</g>
<!-- Node13 -->
<g id="Node000013" class="node">
<title>Node13</title>
<g id="a_Node000013"><a xlink:href="$classcam_1_1nc_1_1mach3_1_1Creator.html#aa461d578afa76c5af9bb5562b79d955a" xlink:title="Codes.">
<polygon fill="white" stroke="#666666" points="564,-105 380,-105 380,-86 564,-86 564,-105"/>
<text text-anchor="middle" x="472" y="-93" font-family="Helvetica,sans-Serif" font-size="10.00">cam.nc.mach3.Creator.SPACE_STR</text>
</a>
</g>
</g>
<!-- Node7&#45;&gt;Node13 -->
<g id="edge29_Node000007_Node000013" class="edge">
<title>Node7&#45;&gt;Node13</title>
<g id="a_edge29_Node000007_Node000013"><a xlink:title=" ">
<path fill="none" stroke="#63b8ff" d="M324.64,-171.86C331.46,-169.41 338.07,-166.34 344,-162.5 366.39,-148.01 357.5,-128.81 380,-114.5 383.35,-112.37 386.9,-110.47 390.57,-108.78"/>
<polygon fill="#63b8ff" stroke="#63b8ff" points="391.97,-111.99 399.94,-105 389.35,-105.5 391.97,-111.99"/>
</a>
</g>
</g>
<!-- Node14 -->
<g id="Node000014" class="node">
<title>Node14</title>
<g id="a_Node000014"><a xlink:href="$classcam_1_1nc_1_1winpc_1_1Creator.html#aae1cb93a5dd430719105fa03a054f654" xlink:title="Codes.">
<polygon fill="white" stroke="#666666" points="561.5,-68 382.5,-68 382.5,-49 561.5,-49 561.5,-68"/>
<text text-anchor="middle" x="472" y="-56" font-family="Helvetica,sans-Serif" font-size="10.00">cam.nc.winpc.Creator.SPACE_STR</text>
</a>
</g>
</g>
<!-- Node7&#45;&gt;Node14 -->
<g id="edge30_Node000007_Node000014" class="edge">
<title>Node7&#45;&gt;Node14</title>
<g id="a_edge30_Node000007_Node000014"><a xlink:title=" ">
<path fill="none" stroke="#63b8ff" d="M328.61,-172C334.16,-169.49 339.39,-166.36 344,-162.5 375.75,-135.88 347.91,-102.71 380,-76.5 381.54,-75.24 383.15,-74.06 384.81,-72.95"/>
<polygon fill="#63b8ff" stroke="#63b8ff" points="386.54,-76 393.52,-68.03 383.09,-69.91 386.54,-76"/>
</a>
</g>
</g>
</g>
</svg>
