<?xml version="1.0" encoding="UTF-8" standalone="no"?>
<!DOCTYPE svg PUBLIC "-//W3C//DTD SVG 1.1//EN"
 "http://www.w3.org/Graphics/SVG/1.1/DTD/svg11.dtd">
<!-- Generated by graphviz version 2.43.0 (0)
 -->
<!-- Title: cam.nc.gravos.Creator.RAPID Pages: 1 -->
<svg width="828pt" height="648pt"
 viewBox="0.00 0.00 828.00 648.00" xmlns="http://www.w3.org/2000/svg" xmlns:xlink="http://www.w3.org/1999/xlink">
<g id="graph0" class="graph" transform="scale(1 1) rotate(0) translate(4 644)">
<title>cam.nc.gravos.Creator.RAPID</title>
<!-- Node1 -->
<g id="Node000001" class="node">
<title>Node1</title>
<g id="a_Node000001"><a xlink:title=" ">
<polygon fill="#999999" stroke="#666666" points="820,-345.5 661,-345.5 661,-326.5 820,-326.5 820,-345.5"/>
<text text-anchor="middle" x="740.5" y="-333.5" font-family="Helvetica,sans-Serif" font-size="10.00">cam.nc.gravos.Creator.RAPID</text>
</a>
</g>
</g>
<!-- Node2 -->
<g id="Node000002" class="node">
<title>Node2</title>
<g id="a_Node000002"><a xlink:href="$classcam_1_1nc_1_1heiden_1_1Creator.html#ae8e86bcc6f05521bf4b639128e3241ee" xlink:title=" ">
<polygon fill="white" stroke="#666666" points="368,-640 211,-640 211,-610 368,-610 368,-640"/>
<text text-anchor="start" x="219" y="-628" font-family="Helvetica,sans-Serif" font-size="10.00">cam.nc.heiden.Creator.probe</text>
<text text-anchor="middle" x="289.5" y="-617" font-family="Helvetica,sans-Serif" font-size="10.00">_downward_point</text>
</a>
</g>
</g>
<!-- Node1&#45;&gt;Node2 -->
<g id="edge45_Node000001_Node000002" class="edge">
<title>Node1&#45;&gt;Node2</title>
<g id="a_edge45_Node000001_Node000002"><a xlink:title=" ">
<path fill="none" stroke="#63b8ff" d="M736.52,-355.69C728.29,-402.62 700.63,-521.29 625,-577 550.72,-631.72 441.48,-637.32 368.26,-633.51"/>
<polygon fill="#63b8ff" stroke="#63b8ff" points="740,-356.06 738.17,-345.62 733.1,-354.92 740,-356.06"/>
</a>
</g>
</g>
<!-- Node3 -->
<g id="Node000003" class="node">
<title>Node3</title>
<g id="a_Node000003"><a xlink:href="$classcam_1_1nc_1_1iso_1_1Creator.html#a40689f45d25f7f726d11a172b608c0a4" xlink:title=" ">
<polygon fill="white" stroke="#666666" points="358.5,-592 220.5,-592 220.5,-562 358.5,-562 358.5,-592"/>
<text text-anchor="start" x="228.5" y="-580" font-family="Helvetica,sans-Serif" font-size="10.00">cam.nc.iso.Creator.probe</text>
<text text-anchor="middle" x="289.5" y="-569" font-family="Helvetica,sans-Serif" font-size="10.00">_downward_point</text>
</a>
</g>
</g>
<!-- Node1&#45;&gt;Node3 -->
<g id="edge46_Node000001_Node000003" class="edge">
<title>Node1&#45;&gt;Node3</title>
<g id="a_edge46_Node000001_Node000003"><a xlink:title=" ">
<path fill="none" stroke="#63b8ff" d="M734.86,-355.55C723.85,-397.24 691.88,-494.69 625,-539 545.34,-591.78 430.99,-592.64 358.75,-586.38"/>
<polygon fill="#63b8ff" stroke="#63b8ff" points="738.27,-356.34 737.32,-345.78 731.49,-354.62 738.27,-356.34"/>
</a>
</g>
</g>
<!-- Node4 -->
<g id="Node000004" class="node">
<title>Node4</title>
<g id="a_Node000004"><a xlink:href="$classcam_1_1nc_1_1heiden_1_1Creator.html#a921825a14a9068d234377d7ac3b7777f" xlink:title=" ">
<polygon fill="white" stroke="#666666" points="368,-544 211,-544 211,-514 368,-514 368,-544"/>
<text text-anchor="start" x="219" y="-532" font-family="Helvetica,sans-Serif" font-size="10.00">cam.nc.heiden.Creator.probe</text>
<text text-anchor="middle" x="289.5" y="-521" font-family="Helvetica,sans-Serif" font-size="10.00">_single_point</text>
</a>
</g>
</g>
<!-- Node1&#45;&gt;Node4 -->
<g id="edge47_Node000001_Node000004" class="edge">
<title>Node1&#45;&gt;Node4</title>
<g id="a_edge47_Node000001_Node000004"><a xlink:title=" ">
<path fill="none" stroke="#63b8ff" d="M733.05,-354.97C719.55,-391.41 684.5,-470.65 625,-505 546.46,-550.33 439.67,-549.39 368.08,-541.7"/>
<polygon fill="#63b8ff" stroke="#63b8ff" points="736.36,-356.1 736.43,-345.51 729.77,-353.75 736.36,-356.1"/>
</a>
</g>
</g>
<!-- Node5 -->
<g id="Node000005" class="node">
<title>Node5</title>
<g id="a_Node000005"><a xlink:href="$classcam_1_1nc_1_1iso_1_1Creator.html#adc5343ffd168991077858693d6a79fef" xlink:title=" ">
<polygon fill="white" stroke="#666666" points="358.5,-335 220.5,-335 220.5,-305 358.5,-305 358.5,-335"/>
<text text-anchor="start" x="228.5" y="-323" font-family="Helvetica,sans-Serif" font-size="10.00">cam.nc.iso.Creator.probe</text>
<text text-anchor="middle" x="289.5" y="-312" font-family="Helvetica,sans-Serif" font-size="10.00">_single_point</text>
</a>
</g>
</g>
<!-- Node1&#45;&gt;Node5 -->
<g id="edge48_Node000001_Node000005" class="edge">
<title>Node1&#45;&gt;Node5</title>
<g id="a_edge48_Node000001_Node000005"><a xlink:title=" ">
<path fill="none" stroke="#63b8ff" d="M662.97,-346.66C650.31,-348.05 637.3,-349.25 625,-350 536.28,-355.4 513.35,-359.73 425,-350 410.73,-348.43 380.29,-341.74 351.97,-335.07"/>
<polygon fill="#63b8ff" stroke="#63b8ff" points="663.49,-350.13 673.03,-345.52 662.69,-343.17 663.49,-350.13"/>
</a>
</g>
</g>
<!-- Node6 -->
<g id="Node000006" class="node">
<title>Node6</title>
<g id="a_Node000006"><a xlink:href="$classcam_1_1nc_1_1heiden_1_1Creator.html#a2262faed4f078201d3fab4c023d3e1d2" xlink:title="Moves.">
<polygon fill="white" stroke="#666666" points="602,-495.5 448,-495.5 448,-476.5 602,-476.5 602,-495.5"/>
<text text-anchor="middle" x="525" y="-483.5" font-family="Helvetica,sans-Serif" font-size="10.00">cam.nc.heiden.Creator.rapid</text>
</a>
</g>
</g>
<!-- Node1&#45;&gt;Node6 -->
<g id="edge49_Node000001_Node000006" class="edge">
<title>Node1&#45;&gt;Node6</title>
<g id="a_edge49_Node000001_Node000006"><a xlink:title=" ">
<path fill="none" stroke="#63b8ff" d="M729.24,-354.38C711.87,-383.6 673.78,-440.2 625,-468 617.94,-472.02 610.18,-475.18 602.21,-477.65"/>
<polygon fill="#63b8ff" stroke="#63b8ff" points="732.34,-356.01 734.32,-345.6 726.28,-352.5 732.34,-356.01"/>
</a>
</g>
</g>
<!-- Node12 -->
<g id="Node000012" class="node">
<title>Node12</title>
<g id="a_Node000012"><a xlink:href="$classcam_1_1nc_1_1heiden_1_1Creator.html#a706db14683812bb3b86db958d7faa05a" xlink:title=" ">
<polygon fill="white" stroke="#666666" points="362,-286.5 217,-286.5 217,-267.5 362,-267.5 362,-286.5"/>
<text text-anchor="middle" x="289.5" y="-274.5" font-family="Helvetica,sans-Serif" font-size="10.00">cam.nc.heiden.Creator.tap</text>
</a>
</g>
</g>
<!-- Node1&#45;&gt;Node12 -->
<g id="edge88_Node000001_Node000012" class="edge">
<title>Node1&#45;&gt;Node12</title>
<g id="a_edge88_Node000001_Node000012"><a xlink:title=" ">
<path fill="none" stroke="#63b8ff" d="M650.88,-340.66C586.86,-341.57 499,-337.71 425,-316 407.44,-310.85 406.2,-302.26 389,-296 378.44,-292.16 366.95,-289.05 355.67,-286.54"/>
<polygon fill="#63b8ff" stroke="#63b8ff" points="651.01,-344.16 660.95,-340.48 650.88,-337.16 651.01,-344.16"/>
</a>
</g>
</g>
<!-- Node13 -->
<g id="Node000013" class="node">
<title>Node13</title>
<g id="a_Node000013"><a xlink:href="$classcam_1_1nc_1_1heiden530_1_1Creator.html#ae0e91cfeea8854af12bf2494a799bc9a" xlink:title="Moves.">
<polygon fill="white" stroke="#666666" points="611,-458.5 439,-458.5 439,-439.5 611,-439.5 611,-458.5"/>
<text text-anchor="middle" x="525" y="-446.5" font-family="Helvetica,sans-Serif" font-size="10.00">cam.nc.heiden530.Creator.rapid</text>
</a>
</g>
</g>
<!-- Node1&#45;&gt;Node13 -->
<g id="edge61_Node000001_Node000013" class="edge">
<title>Node1&#45;&gt;Node13</title>
<g id="a_edge61_Node000001_Node000013"><a xlink:title=" ">
<path fill="none" stroke="#63b8ff" d="M724.18,-352.98C703.76,-374.49 665.47,-411.02 625,-430 616.68,-433.9 607.61,-437 598.45,-439.46"/>
<polygon fill="#63b8ff" stroke="#63b8ff" points="726.85,-355.25 731.1,-345.54 721.73,-350.48 726.85,-355.25"/>
</a>
</g>
</g>
<!-- Node14 -->
<g id="Node000014" class="node">
<title>Node14</title>
<g id="a_Node000014"><a xlink:href="$classcam_1_1nc_1_1iso_1_1Creator.html#a64bd7544d638558d278746433d3855d6" xlink:title="Moves.">
<polygon fill="white" stroke="#666666" points="592.5,-421.5 457.5,-421.5 457.5,-402.5 592.5,-402.5 592.5,-421.5"/>
<text text-anchor="middle" x="525" y="-409.5" font-family="Helvetica,sans-Serif" font-size="10.00">cam.nc.iso.Creator.rapid</text>
</a>
</g>
</g>
<!-- Node1&#45;&gt;Node14 -->
<g id="edge71_Node000001_Node000014" class="edge">
<title>Node1&#45;&gt;Node14</title>
<g id="a_edge71_Node000001_Node000014"><a xlink:title=" ">
<path fill="none" stroke="#63b8ff" d="M712.21,-350.16C689.38,-361.57 655.7,-377.41 625,-388 608.36,-393.74 589.7,-398.64 573.11,-402.49"/>
<polygon fill="#63b8ff" stroke="#63b8ff" points="713.95,-353.2 721.3,-345.57 710.79,-346.96 713.95,-353.2"/>
</a>
</g>
</g>
<!-- Node15 -->
<g id="Node000015" class="node">
<title>Node15</title>
<g id="a_Node000015"><a xlink:href="$classcam_1_1nc_1_1centroid1_1_1Creator.html#a5da8c44cfff500b5a794637d8972ef37" xlink:title="return to home">
<polygon fill="white" stroke="#666666" points="625,-307.5 425,-307.5 425,-288.5 625,-288.5 625,-307.5"/>
<text text-anchor="middle" x="525" y="-295.5" font-family="Helvetica,sans-Serif" font-size="10.00">cam.nc.centroid1.Creator.rapid_home</text>
</a>
</g>
</g>
<!-- Node1&#45;&gt;Node15 -->
<g id="edge81_Node000001_Node000015" class="edge">
<title>Node1&#45;&gt;Node15</title>
<g id="a_edge81_Node000001_Node000015"><a xlink:title=" ">
<path fill="none" stroke="#63b8ff" d="M675.75,-324.65C645.12,-319.2 608.81,-312.74 579.62,-307.54"/>
<polygon fill="#63b8ff" stroke="#63b8ff" points="675.44,-328.15 685.9,-326.46 676.67,-321.26 675.44,-328.15"/>
</a>
</g>
</g>
<!-- Node16 -->
<g id="Node000016" class="node">
<title>Node16</title>
<g id="a_Node000016"><a xlink:href="$classcam_1_1nc_1_1heiden_1_1Creator.html#a1979595ccdc20dcf20f67751d328f25d" xlink:title=" ">
<polygon fill="white" stroke="#666666" points="602,-270 448,-270 448,-240 602,-240 602,-270"/>
<text text-anchor="start" x="456" y="-258" font-family="Helvetica,sans-Serif" font-size="10.00">cam.nc.heiden.Creator.rapid</text>
<text text-anchor="middle" x="525" y="-247" font-family="Helvetica,sans-Serif" font-size="10.00">_to_intersection</text>
</a>
</g>
</g>
<!-- Node1&#45;&gt;Node16 -->
<g id="edge82_Node000001_Node000016" class="edge">
<title>Node1&#45;&gt;Node16</title>
<g id="a_edge82_Node000001_Node000016"><a xlink:title=" ">
<path fill="none" stroke="#63b8ff" d="M714.36,-321.43C691.64,-308.76 656.94,-290.66 625,-279 615.95,-275.7 606.26,-272.71 596.62,-270.06"/>
<polygon fill="#63b8ff" stroke="#63b8ff" points="712.9,-324.62 723.33,-326.49 716.34,-318.53 712.9,-324.62"/>
</a>
</g>
</g>
<!-- Node17 -->
<g id="Node000017" class="node">
<title>Node17</title>
<g id="a_Node000017"><a xlink:href="$classcam_1_1nc_1_1iso_1_1Creator.html#a60e5583b4ddafa8966b05d2baa28ea67" xlink:title=" ">
<polygon fill="white" stroke="#666666" points="592.5,-222 457.5,-222 457.5,-192 592.5,-192 592.5,-222"/>
<text text-anchor="start" x="465.5" y="-210" font-family="Helvetica,sans-Serif" font-size="10.00">cam.nc.iso.Creator.rapid</text>
<text text-anchor="middle" x="525" y="-199" font-family="Helvetica,sans-Serif" font-size="10.00">_to_intersection</text>
</a>
</g>
</g>
<!-- Node1&#45;&gt;Node17 -->
<g id="edge83_Node000001_Node000017" class="edge">
<title>Node1&#45;&gt;Node17</title>
<g id="a_edge83_Node000001_Node000017"><a xlink:title=" ">
<path fill="none" stroke="#63b8ff" d="M725.63,-318.69C705.84,-295.17 667.18,-253.5 625,-231 615.01,-225.67 603.83,-221.51 592.68,-218.26"/>
<polygon fill="#63b8ff" stroke="#63b8ff" points="722.98,-320.97 732.04,-326.46 728.38,-316.52 722.98,-320.97"/>
</a>
</g>
</g>
<!-- Node18 -->
<g id="Node000018" class="node">
<title>Node18</title>
<g id="a_Node000018"><a xlink:href="$classcam_1_1nc_1_1heiden_1_1Creator.html#a9896f849d515e774aa4d44451ce45cc7" xlink:title=" ">
<polygon fill="white" stroke="#666666" points="602,-174 448,-174 448,-144 602,-144 602,-174"/>
<text text-anchor="start" x="456" y="-162" font-family="Helvetica,sans-Serif" font-size="10.00">cam.nc.heiden.Creator.rapid</text>
<text text-anchor="middle" x="525" y="-151" font-family="Helvetica,sans-Serif" font-size="10.00">_to_midpoint</text>
</a>
</g>
</g>
<!-- Node1&#45;&gt;Node18 -->
<g id="edge84_Node000001_Node000018" class="edge">
<title>Node1&#45;&gt;Node18</title>
<g id="a_edge84_Node000001_Node000018"><a xlink:title=" ">
<path fill="none" stroke="#63b8ff" d="M730.73,-316.93C714.65,-284.18 677.23,-217.45 625,-183 617.99,-178.37 610.17,-174.64 602.08,-171.62"/>
<polygon fill="#63b8ff" stroke="#63b8ff" points="727.73,-318.76 735.19,-326.28 734.04,-315.75 727.73,-318.76"/>
</a>
</g>
</g>
<!-- Node19 -->
<g id="Node000019" class="node">
<title>Node19</title>
<g id="a_Node000019"><a xlink:href="$classcam_1_1nc_1_1iso_1_1Creator.html#afbb4d0ab68aa5fae6e3d9221fb871fbd" xlink:title=" ">
<polygon fill="white" stroke="#666666" points="592.5,-126 457.5,-126 457.5,-96 592.5,-96 592.5,-126"/>
<text text-anchor="start" x="465.5" y="-114" font-family="Helvetica,sans-Serif" font-size="10.00">cam.nc.iso.Creator.rapid</text>
<text text-anchor="middle" x="525" y="-103" font-family="Helvetica,sans-Serif" font-size="10.00">_to_midpoint</text>
</a>
</g>
</g>
<!-- Node1&#45;&gt;Node19 -->
<g id="edge85_Node000001_Node000019" class="edge">
<title>Node1&#45;&gt;Node19</title>
<g id="a_edge85_Node000001_Node000019"><a xlink:title=" ">
<path fill="none" stroke="#63b8ff" d="M734.12,-316.44C721.92,-275.91 688.18,-182.58 625,-135 615.53,-127.87 604.24,-122.83 592.73,-119.27"/>
<polygon fill="#63b8ff" stroke="#63b8ff" points="730.8,-317.55 736.94,-326.18 737.52,-315.6 730.8,-317.55"/>
</a>
</g>
</g>
<!-- Node20 -->
<g id="Node000020" class="node">
<title>Node20</title>
<g id="a_Node000020"><a xlink:href="$classcam_1_1nc_1_1heiden_1_1Creator.html#a20686a35918df93542b7b5d4472d3d71" xlink:title=" ">
<polygon fill="white" stroke="#666666" points="602,-78 448,-78 448,-48 602,-48 602,-78"/>
<text text-anchor="start" x="456" y="-66" font-family="Helvetica,sans-Serif" font-size="10.00">cam.nc.heiden.Creator.rapid</text>
<text text-anchor="middle" x="525" y="-55" font-family="Helvetica,sans-Serif" font-size="10.00">_to_rotated_coordinate</text>
</a>
</g>
</g>
<!-- Node1&#45;&gt;Node20 -->
<g id="edge86_Node000001_Node000020" class="edge">
<title>Node1&#45;&gt;Node20</title>
<g id="a_edge86_Node000001_Node000020"><a xlink:title=" ">
<path fill="none" stroke="#63b8ff" d="M736.42,-316.44C727.93,-269.24 699.64,-148.46 625,-87 618.24,-81.44 610.4,-77.13 602.13,-73.79"/>
<polygon fill="#63b8ff" stroke="#63b8ff" points="732.97,-317.03 738.1,-326.31 739.88,-315.86 732.97,-317.03"/>
</a>
</g>
</g>
<!-- Node21 -->
<g id="Node000021" class="node">
<title>Node21</title>
<g id="a_Node000021"><a xlink:href="$classcam_1_1nc_1_1iso_1_1Creator.html#affa9a90d01acd946672ba361abfbfffd" xlink:title=" ">
<polygon fill="white" stroke="#666666" points="592.5,-30 457.5,-30 457.5,0 592.5,0 592.5,-30"/>
<text text-anchor="start" x="465.5" y="-18" font-family="Helvetica,sans-Serif" font-size="10.00">cam.nc.iso.Creator.rapid</text>
<text text-anchor="middle" x="525" y="-7" font-family="Helvetica,sans-Serif" font-size="10.00">_to_rotated_coordinate</text>
</a>
</g>
</g>
<!-- Node1&#45;&gt;Node21 -->
<g id="edge87_Node000001_Node000021" class="edge">
<title>Node1&#45;&gt;Node21</title>
<g id="a_edge87_Node000001_Node000021"><a xlink:title=" ">
<path fill="none" stroke="#63b8ff" d="M737.99,-316.04C732.84,-262.49 711.1,-114.56 625,-39 615.83,-30.95 604.41,-25.5 592.62,-21.82"/>
<polygon fill="#63b8ff" stroke="#63b8ff" points="734.53,-316.58 738.88,-326.24 741.5,-315.97 734.53,-316.58"/>
</a>
</g>
</g>
<!-- Node6&#45;&gt;Node2 -->
<g id="edge55_Node000006_Node000002" class="edge">
<title>Node6&#45;&gt;Node2</title>
<g id="a_edge55_Node000006_Node000002"><a xlink:title=" ">
<path fill="none" stroke="#63b8ff" d="M508.65,-503.47C485.35,-528.87 438.51,-575.71 389,-601 382.26,-604.44 375.01,-607.41 367.6,-609.95"/>
<polygon fill="#63b8ff" stroke="#63b8ff" points="511.52,-505.52 515.61,-495.75 506.32,-500.83 511.52,-505.52"/>
</a>
</g>
</g>
<!-- Node6&#45;&gt;Node3 -->
<g id="edge56_Node000006_Node000003" class="edge">
<title>Node6&#45;&gt;Node3</title>
<g id="a_edge56_Node000006_Node000003"><a xlink:title=" ">
<path fill="none" stroke="#63b8ff" d="M498.48,-500.81C471.88,-515.73 428.62,-538.54 389,-553 379.33,-556.53 368.93,-559.7 358.65,-562.49"/>
<polygon fill="#63b8ff" stroke="#63b8ff" points="500.51,-503.68 507.48,-495.7 497.06,-497.59 500.51,-503.68"/>
</a>
</g>
</g>
<!-- Node6&#45;&gt;Node4 -->
<g id="edge57_Node000006_Node000004" class="edge">
<title>Node6&#45;&gt;Node4</title>
<g id="a_edge57_Node000006_Node000004"><a xlink:title=" ">
<path fill="none" stroke="#63b8ff" d="M462.26,-497.37C433.47,-502.67 398.91,-509.04 368.36,-514.66"/>
<polygon fill="#63b8ff" stroke="#63b8ff" points="462.98,-500.8 472.18,-495.54 461.71,-493.91 462.98,-500.8"/>
</a>
</g>
</g>
<!-- Node6&#45;&gt;Node5 -->
<g id="edge58_Node000006_Node000005" class="edge">
<title>Node6&#45;&gt;Node5</title>
<g id="a_edge58_Node000006_Node000005"><a xlink:title=" ">
<path fill="none" stroke="#63b8ff" d="M438.73,-477.34C433.77,-474.81 429.13,-471.73 425,-468 382.39,-429.56 430.45,-383.69 389,-344 380.55,-335.91 369.84,-330.4 358.62,-326.68"/>
<polygon fill="#63b8ff" stroke="#63b8ff" points="437.38,-480.57 447.95,-481.34 440.16,-474.15 437.38,-480.57"/>
</a>
</g>
</g>
<!-- Node7 -->
<g id="Node000007" class="node">
<title>Node7</title>
<g id="a_Node000007"><a xlink:href="$classcam_1_1nc_1_1heiden_1_1Creator.html#ab1ba24f0b927edab5d70c6642ceacfc4" xlink:title=" ">
<polygon fill="white" stroke="#666666" points="363.5,-458.5 215.5,-458.5 215.5,-439.5 363.5,-439.5 363.5,-458.5"/>
<text text-anchor="middle" x="289.5" y="-446.5" font-family="Helvetica,sans-Serif" font-size="10.00">cam.nc.heiden.Creator.drill</text>
</a>
</g>
</g>
<!-- Node6&#45;&gt;Node7 -->
<g id="edge50_Node000006_Node000007" class="edge">
<title>Node6&#45;&gt;Node7</title>
<g id="a_edge50_Node000006_Node000007"><a xlink:title=" ">
<path fill="none" stroke="#63b8ff" d="M453.88,-474.89C421.05,-469.69 382.34,-463.55 350.83,-458.56"/>
<polygon fill="#63b8ff" stroke="#63b8ff" points="453.44,-478.36 463.87,-476.47 454.54,-471.45 453.44,-478.36"/>
</a>
</g>
</g>
<!-- Node9 -->
<g id="Node000009" class="node">
<title>Node9</title>
<g id="a_Node000009"><a xlink:href="$classcam_1_1nc_1_1iso_1_1Creator.html#a61f29267aaaddc3d5c8471f9bf714cb3" xlink:title=" ">
<polygon fill="white" stroke="#666666" points="354,-495.5 225,-495.5 225,-476.5 354,-476.5 354,-495.5"/>
<text text-anchor="middle" x="289.5" y="-483.5" font-family="Helvetica,sans-Serif" font-size="10.00">cam.nc.iso.Creator.drill</text>
</a>
</g>
</g>
<!-- Node6&#45;&gt;Node9 -->
<g id="edge52_Node000006_Node000009" class="edge">
<title>Node6&#45;&gt;Node9</title>
<g id="a_edge52_Node000006_Node000009"><a xlink:title=" ">
<path fill="none" stroke="#63b8ff" d="M437.77,-486C410.04,-486 379.83,-486 354.03,-486"/>
<polygon fill="#63b8ff" stroke="#63b8ff" points="437.87,-489.5 447.87,-486 437.87,-482.5 437.87,-489.5"/>
</a>
</g>
</g>
<!-- Node10 -->
<g id="Node000010" class="node">
<title>Node10</title>
<g id="a_Node000010"><a xlink:href="$classcam_1_1nc_1_1heiden__read_1_1Parser.html#a9c64dcddf3c2c0d3248079dde5314cfe" xlink:title=" ">
<polygon fill="white" stroke="#666666" points="364.5,-421 214.5,-421 214.5,-391 364.5,-391 364.5,-421"/>
<text text-anchor="start" x="222.5" y="-409" font-family="Helvetica,sans-Serif" font-size="10.00">cam.nc.heiden_read.Parser.</text>
<text text-anchor="middle" x="289.5" y="-398" font-family="Helvetica,sans-Serif" font-size="10.00">Parsey</text>
</a>
</g>
</g>
<!-- Node6&#45;&gt;Node10 -->
<g id="edge54_Node000006_Node000010" class="edge">
<title>Node6&#45;&gt;Node10</title>
<g id="a_edge54_Node000006_Node000010"><a xlink:title=" ">
<path fill="none" stroke="#63b8ff" d="M438.33,-474.07C433.72,-472.31 429.24,-470.3 425,-468 404.54,-456.93 409.12,-441.67 389,-430 381.46,-425.63 373.16,-422.05 364.67,-419.12"/>
<polygon fill="#63b8ff" stroke="#63b8ff" points="437.37,-477.43 447.97,-477.34 439.62,-470.81 437.37,-477.43"/>
</a>
</g>
</g>
<!-- Node11 -->
<g id="Node000011" class="node">
<title>Node11</title>
<g id="a_Node000011"><a xlink:href="$classcam_1_1nc_1_1emc2tap_1_1CreatorEMC2tap.html#ae7c40089d2816698fbe6cfbc9a10a052" xlink:title=" ">
<polygon fill="white" stroke="#666666" points="389,-372.5 190,-372.5 190,-353.5 389,-353.5 389,-372.5"/>
<text text-anchor="middle" x="289.5" y="-360.5" font-family="Helvetica,sans-Serif" font-size="10.00">cam.nc.emc2tap.CreatorEMC2tap.tap</text>
</a>
</g>
</g>
<!-- Node6&#45;&gt;Node11 -->
<g id="edge59_Node000006_Node000011" class="edge">
<title>Node6&#45;&gt;Node11</title>
<g id="a_edge59_Node000006_Node000011"><a xlink:title=" ">
<path fill="none" stroke="#63b8ff" d="M438.39,-476.4C433.62,-474.07 429.11,-471.3 425,-468 392.71,-442.04 421.16,-408.13 389,-382 384.4,-378.27 379.29,-375.19 373.88,-372.66"/>
<polygon fill="#63b8ff" stroke="#63b8ff" points="437.25,-479.72 447.83,-480.33 439.95,-473.26 437.25,-479.72"/>
</a>
</g>
</g>
<!-- Node6&#45;&gt;Node12 -->
<g id="edge60_Node000006_Node000012" class="edge">
<title>Node6&#45;&gt;Node12</title>
<g id="a_edge60_Node000006_Node000012"><a xlink:title=" ">
<path fill="none" stroke="#63b8ff" d="M438.68,-477.85C433.7,-475.21 429.07,-471.96 425,-468 369.05,-413.51 444.66,-350.79 389,-296 381.55,-288.67 372.19,-283.73 362.21,-280.47"/>
<polygon fill="#63b8ff" stroke="#63b8ff" points="437.43,-481.13 447.99,-482 440.28,-474.73 437.43,-481.13"/>
</a>
</g>
</g>
<!-- Node8 -->
<g id="Node000008" class="node">
<title>Node8</title>
<g id="a_Node000008"><a xlink:href="$classcam_1_1nc_1_1cad__iso__read_1_1Parser.html#abf885d019794a8bef1b69f446c8851e1" xlink:title=" ">
<polygon fill="white" stroke="#666666" points="154,-482 0,-482 0,-452 154,-452 154,-482"/>
<text text-anchor="start" x="8" y="-470" font-family="Helvetica,sans-Serif" font-size="10.00">cam.nc.cad_iso_read.Parser.</text>
<text text-anchor="middle" x="77" y="-459" font-family="Helvetica,sans-Serif" font-size="10.00">Parse</text>
</a>
</g>
</g>
<!-- Node7&#45;&gt;Node8 -->
<g id="edge51_Node000007_Node000008" class="edge">
<title>Node7&#45;&gt;Node8</title>
<g id="a_edge51_Node000007_Node000008"><a xlink:title=" ">
<path fill="none" stroke="#63b8ff" d="M205.11,-456.13C188.29,-457.57 170.68,-459.07 154.12,-460.49"/>
<polygon fill="#63b8ff" stroke="#63b8ff" points="205.8,-459.58 215.47,-455.25 205.21,-452.61 205.8,-459.58"/>
</a>
</g>
</g>
<!-- Node9&#45;&gt;Node8 -->
<g id="edge53_Node000009_Node000008" class="edge">
<title>Node9&#45;&gt;Node8</title>
<g id="a_edge53_Node000009_Node000008"><a xlink:title=" ">
<path fill="none" stroke="#63b8ff" d="M214.68,-479.34C195.07,-477.57 173.85,-475.65 154.12,-473.87"/>
<polygon fill="#63b8ff" stroke="#63b8ff" points="214.5,-482.83 224.77,-480.25 215.13,-475.86 214.5,-482.83"/>
</a>
</g>
</g>
<!-- Node13&#45;&gt;Node2 -->
<g id="edge65_Node000013_Node000002" class="edge">
<title>Node13&#45;&gt;Node2</title>
<g id="a_edge65_Node000013_Node000002"><a xlink:title=" ">
<path fill="none" stroke="#63b8ff" d="M429.83,-463.99C428.15,-465.24 426.54,-466.57 425,-468 380.11,-509.65 432.85,-558.25 389,-601 383.08,-606.77 376.01,-611.24 368.42,-614.68"/>
<polygon fill="#63b8ff" stroke="#63b8ff" points="432.07,-466.71 438.68,-458.43 428.35,-460.78 432.07,-466.71"/>
</a>
</g>
</g>
<!-- Node13&#45;&gt;Node3 -->
<g id="edge66_Node000013_Node000003" class="edge">
<title>Node13&#45;&gt;Node3</title>
<g id="a_edge66_Node000013_Node000003"><a xlink:title=" ">
<path fill="none" stroke="#63b8ff" d="M431.35,-463.46C429.15,-464.85 427.02,-466.36 425,-468 393.1,-493.79 420.26,-526.43 389,-553 380.28,-560.41 369.64,-565.6 358.62,-569.23"/>
<polygon fill="#63b8ff" stroke="#63b8ff" points="433.1,-466.49 440.21,-458.64 429.76,-460.34 433.1,-466.49"/>
</a>
</g>
</g>
<!-- Node13&#45;&gt;Node4 -->
<g id="edge67_Node000013_Node000004" class="edge">
<title>Node13&#45;&gt;Node4</title>
<g id="a_edge67_Node000013_Node000004"><a xlink:title=" ">
<path fill="none" stroke="#63b8ff" d="M438.51,-461.85C433.84,-463.64 429.3,-465.68 425,-468 404.8,-478.89 408.92,-493.62 389,-505 382.5,-508.71 375.45,-511.85 368.2,-514.51"/>
<polygon fill="#63b8ff" stroke="#63b8ff" points="439.94,-465.06 448.26,-458.51 437.67,-458.44 439.94,-465.06"/>
</a>
</g>
</g>
<!-- Node13&#45;&gt;Node5 -->
<g id="edge68_Node000013_Node000005" class="edge">
<title>Node13&#45;&gt;Node5</title>
<g id="a_edge68_Node000013_Node000005"><a xlink:title=" ">
<path fill="none" stroke="#63b8ff" d="M431.34,-434.55C429.14,-433.16 427.02,-431.64 425,-430 392.83,-403.88 420.51,-370.9 389,-344 380.3,-336.57 369.67,-331.37 358.64,-327.74"/>
<polygon fill="#63b8ff" stroke="#63b8ff" points="429.74,-437.67 440.2,-439.38 433.09,-431.52 429.74,-437.67"/>
</a>
</g>
</g>
<!-- Node13&#45;&gt;Node7 -->
<g id="edge62_Node000013_Node000007" class="edge">
<title>Node13&#45;&gt;Node7</title>
<g id="a_edge62_Node000013_Node000007"><a xlink:title=" ">
<path fill="none" stroke="#63b8ff" d="M428.51,-449C406.86,-449 384.19,-449 363.63,-449"/>
<polygon fill="#63b8ff" stroke="#63b8ff" points="428.71,-452.5 438.71,-449 428.71,-445.5 428.71,-452.5"/>
</a>
</g>
</g>
<!-- Node13&#45;&gt;Node9 -->
<g id="edge63_Node000013_Node000009" class="edge">
<title>Node13&#45;&gt;Node9</title>
<g id="a_edge63_Node000013_Node000009"><a xlink:title=" ">
<path fill="none" stroke="#63b8ff" d="M453.88,-460.11C421.05,-465.31 382.34,-471.45 350.83,-476.44"/>
<polygon fill="#63b8ff" stroke="#63b8ff" points="454.54,-463.55 463.87,-458.53 453.44,-456.64 454.54,-463.55"/>
</a>
</g>
</g>
<!-- Node13&#45;&gt;Node10 -->
<g id="edge64_Node000013_Node000010" class="edge">
<title>Node13&#45;&gt;Node10</title>
<g id="a_edge64_Node000013_Node000010"><a xlink:title=" ">
<path fill="none" stroke="#63b8ff" d="M462.29,-437.64C432.37,-432.13 396.19,-425.46 364.77,-419.68"/>
<polygon fill="#63b8ff" stroke="#63b8ff" points="461.71,-441.09 472.18,-439.46 462.98,-434.2 461.71,-441.09"/>
</a>
</g>
</g>
<!-- Node13&#45;&gt;Node11 -->
<g id="edge69_Node000013_Node000011" class="edge">
<title>Node13&#45;&gt;Node11</title>
<g id="a_edge69_Node000013_Node000011"><a xlink:title=" ">
<path fill="none" stroke="#63b8ff" d="M435.59,-435.67C431.92,-433.99 428.37,-432.1 425,-430 402.38,-415.87 411.61,-396.14 389,-382 382.8,-378.12 375.98,-375 368.92,-372.5"/>
<polygon fill="#63b8ff" stroke="#63b8ff" points="434.35,-438.94 444.93,-439.44 436.97,-432.45 434.35,-438.94"/>
</a>
</g>
</g>
<!-- Node13&#45;&gt;Node12 -->
<g id="edge70_Node000013_Node000012" class="edge">
<title>Node13&#45;&gt;Node12</title>
<g id="a_edge70_Node000013_Node000012"><a xlink:title=" ">
<path fill="none" stroke="#63b8ff" d="M429.82,-434.02C428.15,-432.77 426.54,-431.43 425,-430 379.84,-388.01 434.14,-338.01 389,-296 381.48,-289 372.19,-284.22 362.35,-281"/>
<polygon fill="#63b8ff" stroke="#63b8ff" points="428.34,-437.22 438.67,-439.57 432.07,-431.29 428.34,-437.22"/>
</a>
</g>
</g>
<!-- Node14&#45;&gt;Node2 -->
<g id="edge75_Node000014_Node000002" class="edge">
<title>Node14&#45;&gt;Node2</title>
<g id="a_edge75_Node000014_Node000002"><a xlink:title=" ">
<path fill="none" stroke="#63b8ff" d="M447.62,-416.15C439.23,-419.3 431.41,-423.76 425,-430 369.33,-484.15 443.05,-545.22 389,-601 383.12,-607.07 375.98,-611.7 368.27,-615.23"/>
<polygon fill="#63b8ff" stroke="#63b8ff" points="448.79,-419.45 457.3,-413.13 446.71,-412.77 448.79,-419.45"/>
</a>
</g>
</g>
<!-- Node14&#45;&gt;Node3 -->
<g id="edge76_Node000014_Node000003" class="edge">
<title>Node14&#45;&gt;Node3</title>
<g id="a_edge76_Node000014_Node000003"><a xlink:title=" ">
<path fill="none" stroke="#63b8ff" d="M447.71,-416.77C439.38,-419.82 431.56,-424.1 425,-430 382.67,-468.11 430.19,-513.65 389,-553 380.54,-561.09 369.82,-566.59 358.6,-570.31"/>
<polygon fill="#63b8ff" stroke="#63b8ff" points="448.77,-420.1 457.3,-413.81 446.71,-413.41 448.77,-420.1"/>
</a>
</g>
</g>
<!-- Node14&#45;&gt;Node4 -->
<g id="edge77_Node000014_Node000004" class="edge">
<title>Node14&#45;&gt;Node4</title>
<g id="a_edge77_Node000014_Node000004"><a xlink:title=" ">
<path fill="none" stroke="#63b8ff" d="M447.6,-418.18C439.48,-421.02 431.74,-424.86 425,-430 395.6,-452.42 417.72,-481.72 389,-505 382.85,-509.99 375.81,-513.96 368.4,-517.13"/>
<polygon fill="#63b8ff" stroke="#63b8ff" points="448.7,-421.5 457.27,-415.27 446.69,-414.8 448.7,-421.5"/>
</a>
</g>
</g>
<!-- Node14&#45;&gt;Node5 -->
<g id="edge78_Node000014_Node000005" class="edge">
<title>Node14&#45;&gt;Node5</title>
<g id="a_edge78_Node000014_Node000005"><a xlink:title=" ">
<path fill="none" stroke="#63b8ff" d="M448.9,-399.36C440.5,-396.35 432.34,-392.62 425,-388 403.61,-374.55 410.38,-357.46 389,-344 379.77,-338.18 369.23,-333.78 358.56,-330.44"/>
<polygon fill="#63b8ff" stroke="#63b8ff" points="447.86,-402.7 458.45,-402.46 450.03,-396.04 447.86,-402.7"/>
</a>
</g>
</g>
<!-- Node14&#45;&gt;Node7 -->
<g id="edge72_Node000014_Node000007" class="edge">
<title>Node14&#45;&gt;Node7</title>
<g id="a_edge72_Node000014_Node000007"><a xlink:title=" ">
<path fill="none" stroke="#63b8ff" d="M453.88,-423.11C421.05,-428.31 382.34,-434.45 350.83,-439.44"/>
<polygon fill="#63b8ff" stroke="#63b8ff" points="454.54,-426.55 463.87,-421.53 453.44,-419.64 454.54,-426.55"/>
</a>
</g>
</g>
<!-- Node14&#45;&gt;Node9 -->
<g id="edge73_Node000014_Node000009" class="edge">
<title>Node14&#45;&gt;Node9</title>
<g id="a_edge73_Node000014_Node000009"><a xlink:title=" ">
<path fill="none" stroke="#63b8ff" d="M447.63,-420.77C439.74,-423.16 432.04,-426.19 425,-430 404.54,-441.07 409.45,-456.92 389,-468 378.38,-473.76 366.26,-477.71 354.25,-480.42"/>
<polygon fill="#63b8ff" stroke="#63b8ff" points="448.58,-424.13 457.32,-418.14 446.75,-417.38 448.58,-424.13"/>
</a>
</g>
</g>
<!-- Node14&#45;&gt;Node10 -->
<g id="edge74_Node000014_Node000010" class="edge">
<title>Node14&#45;&gt;Node10</title>
<g id="a_edge74_Node000014_Node000010"><a xlink:title=" ">
<path fill="none" stroke="#63b8ff" d="M447.37,-410.03C420.76,-409.35 390.97,-408.58 364.57,-407.9"/>
<polygon fill="#63b8ff" stroke="#63b8ff" points="447.31,-413.53 457.4,-410.29 447.49,-406.53 447.31,-413.53"/>
</a>
</g>
</g>
<!-- Node14&#45;&gt;Node11 -->
<g id="edge79_Node000014_Node000011" class="edge">
<title>Node14&#45;&gt;Node11</title>
<g id="a_edge79_Node000014_Node000011"><a xlink:title=" ">
<path fill="none" stroke="#63b8ff" d="M472.36,-400.17C447.24,-394.5 416.58,-387.72 389,-382 373.57,-378.8 356.74,-375.48 341.42,-372.54"/>
<polygon fill="#63b8ff" stroke="#63b8ff" points="471.88,-403.65 482.41,-402.44 473.43,-396.82 471.88,-403.65"/>
</a>
</g>
</g>
<!-- Node14&#45;&gt;Node12 -->
<g id="edge80_Node000014_Node000012" class="edge">
<title>Node14&#45;&gt;Node12</title>
<g id="a_edge80_Node000014_Node000012"><a xlink:title=" ">
<path fill="none" stroke="#63b8ff" d="M494.2,-397.65C473.25,-386.59 445.43,-369.86 425,-350 404.32,-329.9 413.02,-311.97 389,-296 380.88,-290.6 371.6,-286.65 362.05,-283.78"/>
<polygon fill="#63b8ff" stroke="#63b8ff" points="492.79,-400.86 503.29,-402.32 495.99,-394.64 492.79,-400.86"/>
</a>
</g>
</g>
</g>
</svg>
