<?xml version="1.0" encoding="UTF-8" standalone="no"?>
<!DOCTYPE svg PUBLIC "-//W3C//DTD SVG 1.1//EN"
 "http://www.w3.org/Graphics/SVG/1.1/DTD/svg11.dtd">
<!-- Generated by graphviz version 2.43.0 (0)
 -->
<!-- Title: cam.curvecamtools.CamMeshGetPockets Pages: 1 -->
<svg width="166pt" height="228pt"
 viewBox="0.00 0.00 166.00 228.00" xmlns="http://www.w3.org/2000/svg" xmlns:xlink="http://www.w3.org/1999/xlink">
<g id="graph0" class="graph" transform="scale(1 1) rotate(0) translate(4 224)">
<title>cam.curvecamtools.CamMeshGetPockets</title>
<!-- Node1 -->
<g id="Node000001" class="node">
<title>Node1</title>
<g id="a_Node000001"><a xlink:title=" ">
<polygon fill="#999999" stroke="transparent" points="158,-135 0,-135 0,0 158,0 158,-135"/>
<text text-anchor="start" x="5" y="-122.5" font-family="Helvetica,sans-Serif" font-size="10.00">cam.curvecamtools.CamMesh</text>
<text text-anchor="start" x="51.5" y="-111.5" font-family="Helvetica,sans-Serif" font-size="10.00">GetPockets</text>
<text text-anchor="start" x="25" y="-96.5" font-family="Helvetica,sans-Serif" font-size="10.00">+</text>
<text text-anchor="start" x="59" y="-96.5" font-family="Helvetica,sans-Serif" font-size="10.00">bl_idname</text>
<text text-anchor="start" x="25" y="-81.5" font-family="Helvetica,sans-Serif" font-size="10.00">+</text>
<text text-anchor="start" x="59" y="-81.5" font-family="Helvetica,sans-Serif" font-size="10.00">bl_label</text>
<text text-anchor="start" x="25" y="-66.5" font-family="Helvetica,sans-Serif" font-size="10.00">+</text>
<text text-anchor="start" x="59" y="-66.5" font-family="Helvetica,sans-Serif" font-size="10.00">bl_options</text>
<text text-anchor="start" x="25" y="-51.5" font-family="Helvetica,sans-Serif" font-size="10.00">+</text>
<text text-anchor="start" x="59" y="-51.5" font-family="Helvetica,sans-Serif" font-size="10.00">threshold</text>
<text text-anchor="start" x="25" y="-36.5" font-family="Helvetica,sans-Serif" font-size="10.00">+</text>
<text text-anchor="start" x="59" y="-36.5" font-family="Helvetica,sans-Serif" font-size="10.00">zlimit</text>
<text text-anchor="start" x="25" y="-21.5" font-family="Helvetica,sans-Serif" font-size="10.00">+</text>
<text text-anchor="start" x="59" y="-21.5" font-family="Helvetica,sans-Serif" font-size="10.00">poll()</text>
<text text-anchor="start" x="25" y="-6.5" font-family="Helvetica,sans-Serif" font-size="10.00">+</text>
<text text-anchor="start" x="59" y="-6.5" font-family="Helvetica,sans-Serif" font-size="10.00">execute()</text>
<polygon fill="#666666" stroke="#666666" points="0,-106.5 0,-106.5 158,-106.5 158,-106.5 0,-106.5"/>
<polygon fill="#666666" stroke="#666666" points="0,-31.5 0,-31.5 57,-31.5 57,-31.5 0,-31.5"/>
<polygon fill="#666666" stroke="#666666" points="57,-31.5 57,-31.5 158,-31.5 158,-31.5 57,-31.5"/>
<polygon fill="none" stroke="#666666" points="0,0 0,-135 158,-135 158,0 0,0"/>
</a>
</g>
</g>
<!-- Node2 -->
<g id="Node000002" class="node">
<title>Node2</title>
<g id="a_Node000002"><a xlink:title=" ">
<polygon fill="white" stroke="transparent" points="105.5,-220 52.5,-220 52.5,-171 105.5,-171 105.5,-220"/>
<text text-anchor="start" x="58" y="-207.5" font-family="Helvetica,sans-Serif" font-size="10.00">Operator</text>
<text text-anchor="start" x="77.5" y="-192.5" font-family="Helvetica,sans-Serif" font-size="10.00"> </text>
<text text-anchor="start" x="77.5" y="-177.5" font-family="Helvetica,sans-Serif" font-size="10.00"> </text>
<polygon fill="#666666" stroke="#666666" points="53,-202.5 53,-202.5 106,-202.5 106,-202.5 53,-202.5"/>
<polygon fill="#666666" stroke="#666666" points="53,-187.5 53,-187.5 106,-187.5 106,-187.5 53,-187.5"/>
<polygon fill="none" stroke="#666666" points="52.5,-171 52.5,-220 105.5,-220 105.5,-171 52.5,-171"/>
</a>
</g>
</g>
<!-- Node2&#45;&gt;Node1 -->
<g id="edge2_Node000001_Node000002" class="edge">
<title>Node2&#45;&gt;Node1</title>
<g id="a_edge2_Node000001_Node000002"><a xlink:title=" ">
<path fill="none" stroke="#63b8ff" d="M79,-160.56C79,-152.65 79,-143.96 79,-135.17"/>
<polygon fill="none" stroke="#63b8ff" points="75.5,-160.8 79,-170.8 82.5,-160.8 75.5,-160.8"/>
</a>
</g>
</g>
</g>
</svg>
