<?xml version="1.0" encoding="UTF-8" standalone="no"?>
<!DOCTYPE svg PUBLIC "-//W3C//DTD SVG 1.1//EN"
 "http://www.w3.org/Graphics/SVG/1.1/DTD/svg11.dtd">
<!-- Generated by graphviz version 2.43.0 (0)
 -->
<!-- Title: cam.nc.makerbot_codes.Codes.GEAR_OFF Pages: 1 -->
<svg width="394pt" height="64pt"
 viewBox="0.00 0.00 394.00 64.00" xmlns="http://www.w3.org/2000/svg" xmlns:xlink="http://www.w3.org/1999/xlink">
<g id="graph0" class="graph" transform="scale(1 1) rotate(0) translate(4 60)">
<title>cam.nc.makerbot_codes.Codes.GEAR_OFF</title>
<!-- Node1 -->
<g id="Node000001" class="node">
<title>Node1</title>
<g id="a_Node000001"><a xlink:title=" ">
<polygon fill="#999999" stroke="#666666" points="386,-42.5 215,-42.5 215,-12.5 386,-12.5 386,-42.5"/>
<text text-anchor="start" x="223" y="-30.5" font-family="Helvetica,sans-Serif" font-size="10.00">cam.nc.makerbot_codes.Codes.</text>
<text text-anchor="middle" x="300.5" y="-19.5" font-family="Helvetica,sans-Serif" font-size="10.00">GEAR_OFF</text>
</a>
</g>
</g>
<!-- Node2 -->
<g id="Node000002" class="node">
<title>Node2</title>
<g id="a_Node000002"><a xlink:href="$classcam_1_1nc_1_1heiden_1_1Creator.html#adf50104e1d227a762a29624244061b16" xlink:title=" ">
<polygon fill="white" stroke="#666666" points="179,-56 0,-56 0,-37 179,-37 179,-56"/>
<text text-anchor="middle" x="89.5" y="-44" font-family="Helvetica,sans-Serif" font-size="10.00">cam.nc.heiden.Creator.gearrange</text>
</a>
</g>
</g>
<!-- Node1&#45;&gt;Node2 -->
<g id="edge3_Node000001_Node000002" class="edge">
<title>Node1&#45;&gt;Node2</title>
<g id="a_edge3_Node000001_Node000002"><a xlink:title=" ">
<path fill="none" stroke="#63b8ff" d="M204.8,-36.11C196.23,-36.89 187.58,-37.67 179.07,-38.45"/>
<polygon fill="#63b8ff" stroke="#63b8ff" points="205.15,-39.59 214.79,-35.2 204.52,-32.62 205.15,-39.59"/>
</a>
</g>
</g>
<!-- Node3 -->
<g id="Node000003" class="node">
<title>Node3</title>
<g id="a_Node000003"><a xlink:href="$classcam_1_1nc_1_1iso_1_1Creator.html#ae9be52dffec064b2051414859e10eaf3" xlink:title=" ">
<polygon fill="white" stroke="#666666" points="169.5,-19 9.5,-19 9.5,0 169.5,0 169.5,-19"/>
<text text-anchor="middle" x="89.5" y="-7" font-family="Helvetica,sans-Serif" font-size="10.00">cam.nc.iso.Creator.gearrange</text>
</a>
</g>
</g>
<!-- Node1&#45;&gt;Node3 -->
<g id="edge4_Node000001_Node000003" class="edge">
<title>Node1&#45;&gt;Node3</title>
<g id="a_edge4_Node000001_Node000003"><a xlink:title=" ">
<path fill="none" stroke="#63b8ff" d="M204.57,-19.32C192.87,-18.32 181.01,-17.3 169.59,-16.31"/>
<polygon fill="#63b8ff" stroke="#63b8ff" points="204.53,-22.83 214.79,-20.2 205.13,-15.86 204.53,-22.83"/>
</a>
</g>
</g>
</g>
</svg>
