<?xml version="1.0" encoding="UTF-8" standalone="no"?>
<!DOCTYPE svg PUBLIC "-//W3C//DTD SVG 1.1//EN"
 "http://www.w3.org/Graphics/SVG/1.1/DTD/svg11.dtd">
<!-- Generated by graphviz version 2.43.0 (0)
 -->
<!-- Title: cam.utils.addMaterialAreaObject Pages: 1 -->
<svg width="335pt" height="64pt"
 viewBox="0.00 0.00 335.00 64.00" xmlns="http://www.w3.org/2000/svg" xmlns:xlink="http://www.w3.org/1999/xlink">
<g id="graph0" class="graph" transform="scale(1 1) rotate(0) translate(4 60)">
<title>cam.utils.addMaterialAreaObject</title>
<!-- Node1 -->
<g id="Node000001" class="node">
<title>Node1</title>
<g id="a_Node000001"><a xlink:title=" ">
<polygon fill="#999999" stroke="#666666" points="327,-42.5 181,-42.5 181,-12.5 327,-12.5 327,-42.5"/>
<text text-anchor="start" x="189" y="-30.5" font-family="Helvetica,sans-Serif" font-size="10.00">cam.utils.addMaterialArea</text>
<text text-anchor="middle" x="254" y="-19.5" font-family="Helvetica,sans-Serif" font-size="10.00">Object</text>
</a>
</g>
</g>
<!-- Node2 -->
<g id="Node000002" class="node">
<title>Node2</title>
<g id="a_Node000002"><a xlink:href="$namespacecam_1_1utils.html#abafb35abb7922a381596aecf8536a430" xlink:title=" ">
<polygon fill="white" stroke="#666666" points="145,-56 0,-56 0,-37 145,-37 145,-56"/>
<text text-anchor="middle" x="72.5" y="-44" font-family="Helvetica,sans-Serif" font-size="10.00">cam.utils.update_material</text>
</a>
</g>
</g>
<!-- Node1&#45;&gt;Node2 -->
<g id="edge3_Node000001_Node000002" class="edge">
<title>Node1&#45;&gt;Node2</title>
<g id="a_edge3_Node000001_Node000002"><a xlink:title=" ">
<path fill="none" stroke="#63b8ff" d="M170.74,-36.21C162.15,-37.12 153.46,-38.04 145,-38.93"/>
<polygon fill="#63b8ff" stroke="#63b8ff" points="171.19,-39.68 180.77,-35.15 170.45,-32.72 171.19,-39.68"/>
</a>
</g>
</g>
<!-- Node3 -->
<g id="Node000003" class="node">
<title>Node3</title>
<g id="a_Node000003"><a xlink:href="$namespacecam_1_1utils.html#a384a3656b07f19a6badb9e9f353cd798" xlink:title=" ">
<polygon fill="white" stroke="#666666" points="142,-19 3,-19 3,0 142,0 142,-19"/>
<text text-anchor="middle" x="72.5" y="-7" font-family="Helvetica,sans-Serif" font-size="10.00">cam.utils.updateMaterial</text>
</a>
</g>
</g>
<!-- Node1&#45;&gt;Node3 -->
<g id="edge4_Node000001_Node000003" class="edge">
<title>Node1&#45;&gt;Node3</title>
<g id="a_edge4_Node000001_Node000003"><a xlink:title=" ">
<path fill="none" stroke="#63b8ff" d="M170.51,-19.23C161.01,-18.27 151.39,-17.31 142.09,-16.38"/>
<polygon fill="#63b8ff" stroke="#63b8ff" points="170.47,-22.74 180.77,-20.26 171.17,-15.78 170.47,-22.74"/>
</a>
</g>
</g>
</g>
</svg>
