<?xml version="1.0" encoding="UTF-8" standalone="no"?>
<!DOCTYPE svg PUBLIC "-//W3C//DTD SVG 1.1//EN"
 "http://www.w3.org/Graphics/SVG/1.1/DTD/svg11.dtd">
<!-- Generated by graphviz version 2.43.0 (0)
 -->
<!-- Title: cam.joinery.single_interlock Pages: 1 -->
<svg width="417pt" height="86pt"
 viewBox="0.00 0.00 417.00 86.00" xmlns="http://www.w3.org/2000/svg" xmlns:xlink="http://www.w3.org/1999/xlink">
<g id="graph0" class="graph" transform="scale(1 1) rotate(0) translate(4 82)">
<title>cam.joinery.single_interlock</title>
<!-- Node1 -->
<g id="Node000001" class="node">
<title>Node1</title>
<g id="a_Node000001"><a xlink:title=" ">
<polygon fill="#999999" stroke="#666666" points="105,-54 0,-54 0,-24 105,-24 105,-54"/>
<text text-anchor="start" x="8" y="-42" font-family="Helvetica,sans-Serif" font-size="10.00">cam.joinery.single</text>
<text text-anchor="middle" x="52.5" y="-31" font-family="Helvetica,sans-Serif" font-size="10.00">_interlock</text>
</a>
</g>
</g>
<!-- Node2 -->
<g id="Node000002" class="node">
<title>Node2</title>
<g id="a_Node000002"><a xlink:href="$namespacecam_1_1joinery.html#ae6f7cc58c00bb5e33071ee36267d7984" xlink:title=" ">
<polygon fill="white" stroke="#666666" points="260,-78 141,-78 141,-48 260,-48 260,-78"/>
<text text-anchor="start" x="149" y="-66" font-family="Helvetica,sans-Serif" font-size="10.00">cam.joinery.interlock</text>
<text text-anchor="middle" x="200.5" y="-55" font-family="Helvetica,sans-Serif" font-size="10.00">_groove</text>
</a>
</g>
</g>
<!-- Node1&#45;&gt;Node2 -->
<g id="edge5_Node000001_Node000002" class="edge">
<title>Node1&#45;&gt;Node2</title>
<g id="a_edge5_Node000001_Node000002"><a xlink:title=" ">
<path fill="none" stroke="#63b8ff" d="M105.39,-47.53C113.63,-48.88 122.27,-50.31 130.83,-51.71"/>
<polygon fill="#63b8ff" stroke="#63b8ff" points="130.38,-55.19 140.82,-53.35 131.52,-48.28 130.38,-55.19"/>
</a>
</g>
</g>
<!-- Node4 -->
<g id="Node000004" class="node">
<title>Node4</title>
<g id="a_Node000004"><a xlink:href="$namespacecam_1_1joinery.html#afc581b78151a7aa0780d7b58f9c5ed53" xlink:title=" ">
<polygon fill="white" stroke="#666666" points="260,-30 141,-30 141,0 260,0 260,-30"/>
<text text-anchor="start" x="149" y="-18" font-family="Helvetica,sans-Serif" font-size="10.00">cam.joinery.interlock</text>
<text text-anchor="middle" x="200.5" y="-7" font-family="Helvetica,sans-Serif" font-size="10.00">_twist</text>
</a>
</g>
</g>
<!-- Node1&#45;&gt;Node4 -->
<g id="edge7_Node000001_Node000004" class="edge">
<title>Node1&#45;&gt;Node4</title>
<g id="a_edge7_Node000001_Node000004"><a xlink:title=" ">
<path fill="none" stroke="#63b8ff" d="M105.39,-30.47C113.63,-29.12 122.27,-27.69 130.83,-26.29"/>
<polygon fill="#63b8ff" stroke="#63b8ff" points="131.52,-29.72 140.82,-24.65 130.38,-22.81 131.52,-29.72"/>
</a>
</g>
</g>
<!-- Node3 -->
<g id="Node000003" class="node">
<title>Node3</title>
<g id="a_Node000003"><a xlink:href="$namespacecam_1_1joinery.html#aa8f26b93ee93e064acfdfbe7c6e10f8d" xlink:title=" ">
<polygon fill="white" stroke="#666666" points="409,-48.5 296,-48.5 296,-29.5 409,-29.5 409,-48.5"/>
<text text-anchor="middle" x="352.5" y="-36.5" font-family="Helvetica,sans-Serif" font-size="10.00">cam.joinery.mortise</text>
</a>
</g>
</g>
<!-- Node2&#45;&gt;Node3 -->
<g id="edge6_Node000002_Node000003" class="edge">
<title>Node2&#45;&gt;Node3</title>
<g id="a_edge6_Node000002_Node000003"><a xlink:title=" ">
<path fill="none" stroke="#63b8ff" d="M260.35,-53.58C268.64,-52.26 277.2,-50.89 285.61,-49.54"/>
<polygon fill="#63b8ff" stroke="#63b8ff" points="286.44,-52.95 295.76,-47.92 285.33,-46.04 286.44,-52.95"/>
</a>
</g>
</g>
<!-- Node4&#45;&gt;Node3 -->
<g id="edge8_Node000004_Node000003" class="edge">
<title>Node4&#45;&gt;Node3</title>
<g id="a_edge8_Node000004_Node000003"><a xlink:title=" ">
<path fill="none" stroke="#63b8ff" d="M260.35,-24.42C268.64,-25.74 277.2,-27.11 285.61,-28.46"/>
<polygon fill="#63b8ff" stroke="#63b8ff" points="285.33,-31.96 295.76,-30.08 286.44,-25.05 285.33,-31.96"/>
</a>
</g>
</g>
</g>
</svg>
