<?xml version="1.0" encoding="UTF-8" standalone="no"?>
<!DOCTYPE svg PUBLIC "-//W3C//DTD SVG 1.1//EN"
 "http://www.w3.org/Graphics/SVG/1.1/DTD/svg11.dtd">
<!-- Generated by graphviz version 2.43.0 (0)
 -->
<!-- Title: cam.strategy.drill Pages: 1 -->
<svg width="299pt" height="101pt"
 viewBox="0.00 0.00 299.00 101.00" xmlns="http://www.w3.org/2000/svg" xmlns:xlink="http://www.w3.org/1999/xlink">
<g id="graph0" class="graph" transform="scale(1 1) rotate(0) translate(4 97)">
<title>cam.strategy.drill</title>
<!-- Node1 -->
<g id="Node000001" class="node">
<title>Node1</title>
<g id="a_Node000001"><a xlink:title=" ">
<polygon fill="#999999" stroke="#666666" points="101,-56 0,-56 0,-37 101,-37 101,-56"/>
<text text-anchor="middle" x="50.5" y="-44" font-family="Helvetica,sans-Serif" font-size="10.00">cam.strategy.drill</text>
</a>
</g>
</g>
<!-- Node2 -->
<g id="Node000002" class="node">
<title>Node2</title>
<g id="a_Node000002"><a xlink:href="$namespacecam_1_1strategy.html#a972d6afd961809855c279418b33d68b9" xlink:title=" ">
<polygon fill="white" stroke="#666666" points="281.5,-93 146.5,-93 146.5,-74 281.5,-74 281.5,-93"/>
<text text-anchor="middle" x="214" y="-81" font-family="Helvetica,sans-Serif" font-size="10.00">cam.strategy.checkminz</text>
</a>
</g>
</g>
<!-- Node1&#45;&gt;Node2 -->
<g id="edge4_Node000001_Node000002" class="edge">
<title>Node1&#45;&gt;Node2</title>
<g id="a_edge4_Node000001_Node000002"><a xlink:title=" ">
<path fill="none" stroke="#63b8ff" d="M93.09,-56.03C113.92,-60.8 139.34,-66.62 161.4,-71.68"/>
<polygon fill="#63b8ff" stroke="#63b8ff" points="160.74,-75.12 171.27,-73.94 162.3,-68.29 160.74,-75.12"/>
</a>
</g>
</g>
<!-- Node3 -->
<g id="Node000003" class="node">
<title>Node3</title>
<g id="a_Node000003"><a xlink:href="$namespacecam_1_1strategy.html#aca3f0f6ecc85cb369be195cb1d36a913" xlink:title=" ">
<polygon fill="white" stroke="#666666" points="291,-56 137,-56 137,-37 291,-37 291,-56"/>
<text text-anchor="middle" x="214" y="-44" font-family="Helvetica,sans-Serif" font-size="10.00">cam.strategy.chunksToMesh</text>
</a>
</g>
</g>
<!-- Node1&#45;&gt;Node3 -->
<g id="edge5_Node000001_Node000003" class="edge">
<title>Node1&#45;&gt;Node3</title>
<g id="a_edge5_Node000001_Node000003"><a xlink:title=" ">
<path fill="none" stroke="#63b8ff" d="M101.27,-46.5C109.4,-46.5 118.02,-46.5 126.73,-46.5"/>
<polygon fill="#63b8ff" stroke="#63b8ff" points="126.96,-50 136.96,-46.5 126.96,-43 126.96,-50"/>
</a>
</g>
</g>
<!-- Node4 -->
<g id="Node000004" class="node">
<title>Node4</title>
<g id="a_Node000004"><a xlink:href="$namespacecam_1_1strategy.html#af05502deb88ecda90e32059e42b321fb" xlink:title=" ">
<polygon fill="white" stroke="#666666" points="279.5,-19 148.5,-19 148.5,0 279.5,0 279.5,-19"/>
<text text-anchor="middle" x="214" y="-7" font-family="Helvetica,sans-Serif" font-size="10.00">cam.strategy.getLayers</text>
</a>
</g>
</g>
<!-- Node1&#45;&gt;Node4 -->
<g id="edge6_Node000001_Node000004" class="edge">
<title>Node1&#45;&gt;Node4</title>
<g id="a_edge6_Node000001_Node000004"><a xlink:title=" ">
<path fill="none" stroke="#63b8ff" d="M93.09,-36.97C113.92,-32.2 139.34,-26.38 161.4,-21.32"/>
<polygon fill="#63b8ff" stroke="#63b8ff" points="162.3,-24.71 171.27,-19.06 160.74,-17.88 162.3,-24.71"/>
</a>
</g>
</g>
</g>
</svg>
