<?xml version="1.0" encoding="UTF-8" standalone="no"?>
<!DOCTYPE svg PUBLIC "-//W3C//DTD SVG 1.1//EN"
 "http://www.w3.org/Graphics/SVG/1.1/DTD/svg11.dtd">
<!-- Generated by graphviz version 2.43.0 (0)
 -->
<!-- Title: cam.involute_gear.gear_q6 Pages: 1 -->
<svg width="351pt" height="76pt"
 viewBox="0.00 0.00 351.00 75.50" xmlns="http://www.w3.org/2000/svg" xmlns:xlink="http://www.w3.org/1999/xlink">
<g id="graph0" class="graph" transform="scale(1 1) rotate(0) translate(4 71.5)">
<title>cam.involute_gear.gear_q6</title>
<!-- Node1 -->
<g id="Node000001" class="node">
<title>Node1</title>
<g id="a_Node000001"><a xlink:title=" ">
<polygon fill="#999999" stroke="#666666" points="149,-45.5 0,-45.5 0,-26.5 149,-26.5 149,-45.5"/>
<text text-anchor="middle" x="74.5" y="-33.5" font-family="Helvetica,sans-Serif" font-size="10.00">cam.involute_gear.gear_q6</text>
</a>
</g>
</g>
<!-- Node2 -->
<g id="Node000002" class="node">
<title>Node2</title>
<g id="a_Node000002"><a xlink:href="$namespacecam_1_1involute__gear.html#af9e032dc811a4f74cea4ad00226e31b7" xlink:title=" ">
<polygon fill="white" stroke="#666666" points="343,-67.5 185,-67.5 185,-48.5 343,-48.5 343,-67.5"/>
<text text-anchor="middle" x="264" y="-55.5" font-family="Helvetica,sans-Serif" font-size="10.00">cam.involute_gear.gear_iang</text>
</a>
</g>
</g>
<!-- Node1&#45;&gt;Node2 -->
<g id="edge3_Node000001_Node000002" class="edge">
<title>Node1&#45;&gt;Node2</title>
<g id="a_edge3_Node000001_Node000002"><a xlink:title=" ">
<path fill="none" stroke="#63b8ff" d="M149.07,-44.63C157.47,-45.62 166.11,-46.63 174.68,-47.64"/>
<polygon fill="#63b8ff" stroke="#63b8ff" points="174.36,-51.12 184.7,-48.81 175.17,-44.17 174.36,-51.12"/>
</a>
</g>
</g>
<!-- Node3 -->
<g id="Node000003" class="node">
<title>Node3</title>
<g id="a_Node000003"><a xlink:href="$namespacecam_1_1involute__gear.html#a8458bc1ecdad9132006e80f2a2ff6771" xlink:title=" ">
<polygon fill="white" stroke="#666666" points="329.5,-30 198.5,-30 198.5,0 329.5,0 329.5,-30"/>
<text text-anchor="start" x="206.5" y="-18" font-family="Helvetica,sans-Serif" font-size="10.00">cam.involute_gear.gear</text>
<text text-anchor="middle" x="264" y="-7" font-family="Helvetica,sans-Serif" font-size="10.00">_polar</text>
</a>
</g>
</g>
<!-- Node1&#45;&gt;Node3 -->
<g id="edge4_Node000001_Node000003" class="edge">
<title>Node1&#45;&gt;Node3</title>
<g id="a_edge4_Node000001_Node000003"><a xlink:title=" ">
<path fill="none" stroke="#63b8ff" d="M149.07,-27.76C161.94,-26.32 175.34,-24.82 188.25,-23.37"/>
<polygon fill="#63b8ff" stroke="#63b8ff" points="188.92,-26.82 198.47,-22.23 188.14,-19.86 188.92,-26.82"/>
</a>
</g>
</g>
</g>
</svg>
