<?xml version="1.0" encoding="UTF-8" standalone="no"?>
<!DOCTYPE svg PUBLIC "-//W3C//DTD SVG 1.1//EN"
 "http://www.w3.org/Graphics/SVG/1.1/DTD/svg11.dtd">
<!-- Generated by graphviz version 2.43.0 (0)
 -->
<!-- Title: cam.joinery.distributed_interlock Pages: 1 -->
<svg width="581pt" height="100pt"
 viewBox="0.00 0.00 581.00 99.50" xmlns="http://www.w3.org/2000/svg" xmlns:xlink="http://www.w3.org/1999/xlink">
<g id="graph0" class="graph" transform="scale(1 1) rotate(0) translate(4 95.5)">
<title>cam.joinery.distributed_interlock</title>
<!-- Node1 -->
<g id="Node000001" class="node">
<title>Node1</title>
<g id="a_Node000001"><a xlink:title=" ">
<polygon fill="#999999" stroke="#666666" points="128,-75 0,-75 0,-45 128,-45 128,-75"/>
<text text-anchor="start" x="8" y="-63" font-family="Helvetica,sans-Serif" font-size="10.00">cam.joinery.distributed</text>
<text text-anchor="middle" x="64" y="-52" font-family="Helvetica,sans-Serif" font-size="10.00">_interlock</text>
</a>
</g>
</g>
<!-- Node2 -->
<g id="Node000002" class="node">
<title>Node2</title>
<g id="a_Node000002"><a xlink:href="$namespacecam_1_1joinery.html#af1aba5d7e1240c9c070b7a12efd28811" xlink:title=" ">
<polygon fill="white" stroke="#666666" points="268,-91.5 165,-91.5 165,-72.5 268,-72.5 268,-91.5"/>
<text text-anchor="middle" x="216.5" y="-79.5" font-family="Helvetica,sans-Serif" font-size="10.00">cam.joinery.angle</text>
</a>
</g>
</g>
<!-- Node1&#45;&gt;Node2 -->
<g id="edge7_Node000001_Node000002" class="edge">
<title>Node1&#45;&gt;Node2</title>
<g id="a_edge7_Node000001_Node000002"><a xlink:title=" ">
<path fill="none" stroke="#63b8ff" d="M128.39,-69.27C137.17,-70.55 146.16,-71.86 154.89,-73.14"/>
<polygon fill="#63b8ff" stroke="#63b8ff" points="154.57,-76.63 164.97,-74.61 155.58,-69.7 154.57,-76.63"/>
</a>
</g>
</g>
<!-- Node3 -->
<g id="Node000003" class="node">
<title>Node3</title>
<g id="a_Node000003"><a xlink:href="$namespacecam_1_1joinery.html#a622ab1f40f0bd8272a4dca69e9b1ed13" xlink:title=" ">
<polygon fill="white" stroke="#666666" points="269,-54 164,-54 164,-24 269,-24 269,-54"/>
<text text-anchor="start" x="172" y="-42" font-family="Helvetica,sans-Serif" font-size="10.00">cam.joinery.single</text>
<text text-anchor="middle" x="216.5" y="-31" font-family="Helvetica,sans-Serif" font-size="10.00">_interlock</text>
</a>
</g>
</g>
<!-- Node1&#45;&gt;Node3 -->
<g id="edge8_Node000001_Node000003" class="edge">
<title>Node1&#45;&gt;Node3</title>
<g id="a_edge8_Node000001_Node000003"><a xlink:title=" ">
<path fill="none" stroke="#63b8ff" d="M128.39,-51.15C136.73,-49.99 145.27,-48.8 153.58,-47.64"/>
<polygon fill="#63b8ff" stroke="#63b8ff" points="154.16,-51.09 163.58,-46.24 153.19,-44.16 154.16,-51.09"/>
</a>
</g>
</g>
<!-- Node4 -->
<g id="Node000004" class="node">
<title>Node4</title>
<g id="a_Node000004"><a xlink:href="$namespacecam_1_1joinery.html#ae6f7cc58c00bb5e33071ee36267d7984" xlink:title=" ">
<polygon fill="white" stroke="#666666" points="424,-78 305,-78 305,-48 424,-48 424,-78"/>
<text text-anchor="start" x="313" y="-66" font-family="Helvetica,sans-Serif" font-size="10.00">cam.joinery.interlock</text>
<text text-anchor="middle" x="364.5" y="-55" font-family="Helvetica,sans-Serif" font-size="10.00">_groove</text>
</a>
</g>
</g>
<!-- Node3&#45;&gt;Node4 -->
<g id="edge9_Node000003_Node000004" class="edge">
<title>Node3&#45;&gt;Node4</title>
<g id="a_edge9_Node000003_Node000004"><a xlink:title=" ">
<path fill="none" stroke="#63b8ff" d="M269.39,-47.53C277.63,-48.88 286.27,-50.31 294.83,-51.71"/>
<polygon fill="#63b8ff" stroke="#63b8ff" points="294.38,-55.19 304.82,-53.35 295.52,-48.28 294.38,-55.19"/>
</a>
</g>
</g>
<!-- Node6 -->
<g id="Node000006" class="node">
<title>Node6</title>
<g id="a_Node000006"><a xlink:href="$namespacecam_1_1joinery.html#afc581b78151a7aa0780d7b58f9c5ed53" xlink:title=" ">
<polygon fill="white" stroke="#666666" points="424,-30 305,-30 305,0 424,0 424,-30"/>
<text text-anchor="start" x="313" y="-18" font-family="Helvetica,sans-Serif" font-size="10.00">cam.joinery.interlock</text>
<text text-anchor="middle" x="364.5" y="-7" font-family="Helvetica,sans-Serif" font-size="10.00">_twist</text>
</a>
</g>
</g>
<!-- Node3&#45;&gt;Node6 -->
<g id="edge11_Node000003_Node000006" class="edge">
<title>Node3&#45;&gt;Node6</title>
<g id="a_edge11_Node000003_Node000006"><a xlink:title=" ">
<path fill="none" stroke="#63b8ff" d="M269.39,-30.47C277.63,-29.12 286.27,-27.69 294.83,-26.29"/>
<polygon fill="#63b8ff" stroke="#63b8ff" points="295.52,-29.72 304.82,-24.65 294.38,-22.81 295.52,-29.72"/>
</a>
</g>
</g>
<!-- Node5 -->
<g id="Node000005" class="node">
<title>Node5</title>
<g id="a_Node000005"><a xlink:href="$namespacecam_1_1joinery.html#aa8f26b93ee93e064acfdfbe7c6e10f8d" xlink:title=" ">
<polygon fill="white" stroke="#666666" points="573,-48.5 460,-48.5 460,-29.5 573,-29.5 573,-48.5"/>
<text text-anchor="middle" x="516.5" y="-36.5" font-family="Helvetica,sans-Serif" font-size="10.00">cam.joinery.mortise</text>
</a>
</g>
</g>
<!-- Node4&#45;&gt;Node5 -->
<g id="edge10_Node000004_Node000005" class="edge">
<title>Node4&#45;&gt;Node5</title>
<g id="a_edge10_Node000004_Node000005"><a xlink:title=" ">
<path fill="none" stroke="#63b8ff" d="M424.35,-53.58C432.64,-52.26 441.2,-50.89 449.61,-49.54"/>
<polygon fill="#63b8ff" stroke="#63b8ff" points="450.44,-52.95 459.76,-47.92 449.33,-46.04 450.44,-52.95"/>
</a>
</g>
</g>
<!-- Node6&#45;&gt;Node5 -->
<g id="edge12_Node000006_Node000005" class="edge">
<title>Node6&#45;&gt;Node5</title>
<g id="a_edge12_Node000006_Node000005"><a xlink:title=" ">
<path fill="none" stroke="#63b8ff" d="M424.35,-24.42C432.64,-25.74 441.2,-27.11 449.61,-28.46"/>
<polygon fill="#63b8ff" stroke="#63b8ff" points="449.33,-31.96 459.76,-30.08 450.44,-25.05 449.33,-31.96"/>
</a>
</g>
</g>
</g>
</svg>
