<?xml version="1.0" encoding="UTF-8" standalone="no"?>
<!DOCTYPE svg PUBLIC "-//W3C//DTD SVG 1.1//EN"
 "http://www.w3.org/Graphics/SVG/1.1/DTD/svg11.dtd">
<!-- Generated by graphviz version 2.43.0 (0)
 -->
<!-- Title: cam.nc.emc2.Creator.workplane Pages: 1 -->
<!--zoomable 733 -->

<svg id="main" version="1.1" xmlns="http://www.w3.org/2000/svg" xmlns:xlink="http://www.w3.org/1999/xlink" xml:space="preserve" onload="init(evt)">
<style type="text/css"><![CDATA[
.node, .edge {opacity: 0.7;}
.node.selected, .edge.selected {opacity: 1;}
.edge:hover path { stroke: red; }
.edge:hover polygon { stroke: red; fill: red; }
]]></style>

<defs>
  <circle id="rim" cx="0" cy="0" r="7"/>
  <circle id="rim2" cx="0" cy="0" r="3.5"/>
  <g id="zoomPlus">
    <use xlink:href="#rim" fill="#404040"><set attributeName="fill" to="#808080" begin="zoomplus.mouseover" end="zoomplus.mouseout"/></use>
    <path d="M-4,0h8M0,-4v8" fill="none" stroke="white" stroke-width="1.5" pointer-events="none"/>
  </g>
  <g id="zoomMin">
    <use xlink:href="#rim" fill="#404040"><set attributeName="fill" to="#808080" begin="zoomminus.mouseover" end="zoomminus.mouseout"/></use>
    <path d="M-4,0h8" fill="none" stroke="white" stroke-width="1.5" pointer-events="none"/>
  </g>
  <g id="arrowUp" transform="translate(30 24)">
    <use xlink:href="#rim"/>
    <path pointer-events="none" fill="none" stroke="white" stroke-width="1.5" d="M0,-3.0v7 M-2.5,-0.5L0,-3.0L2.5,-0.5"/>
  </g>
  <g id="arrowRight" transform="rotate(90) translate(36 -43)">
    <use xlink:href="#rim"/>
    <path pointer-events="none" fill="none" stroke="white" stroke-width="1.5" d="M0,-3.0v7 M-2.5,-0.5L0,-3.0L2.5,-0.5"/>
  </g>
  <g id="arrowDown" transform="rotate(180) translate(-30 -48)">
    <use xlink:href="#rim"/>
    <path pointer-events="none" fill="none" stroke="white" stroke-width="1.5" d="M0,-3.0v7 M-2.5,-0.5L0,-3.0L2.5,-0.5"/>
  </g>
  <g id="arrowLeft" transform="rotate(270) translate(-36 17)">
    <use xlink:href="#rim"/>
    <path pointer-events="none" fill="none" stroke="white" stroke-width="1.5" d="M0,-3.0v7 M-2.5,-0.5L0,-3.0L2.5,-0.5"/>
  </g>
  <g id="resetDef">
    <use xlink:href="#rim2" fill="#404040"><set attributeName="fill" to="#808080" begin="reset.mouseover" end="reset.mouseout"/></use>
  </g>
</defs>
<script type="application/ecmascript">
var viewWidth = 1286;
var viewHeight = 733;
var sectionId = 'dynsection-21';
</script>
<script type="application/ecmascript" xlink:href="svg.min.js"/>
<svg id="graph" class="graph">
<g id="viewport">
<title>cam.nc.emc2.Creator.workplane</title>
<!-- Node1 -->
<g id="Node000001" class="node">
<title>Node1</title>
<g id="a_Node000001"><a xlink:title=" ">
<polygon fill="#999999" stroke="#666666" points="174,-432.5 0,-432.5 0,-413.5 174,-413.5 174,-432.5"/>
<text text-anchor="middle" x="87" y="-420.5" font-family="Helvetica,sans-Serif" font-size="10.00">cam.nc.emc2.Creator.workplane</text>
</a>
</g>
</g>
<!-- Node2 -->
<g id="Node000002" class="node">
<title>Node2</title>
<g id="a_Node000002"><a xlink:href="classcam_1_1nc_1_1heiden_1_1Creator.html#a52ead3fb6e7e1ab456414dbbf2a6e28f" target="_top" xlink:title=" ">
<polygon fill="white" stroke="#666666" points="417.5,-724.5 225.5,-724.5 225.5,-705.5 417.5,-705.5 417.5,-724.5"/>
<text text-anchor="middle" x="321.5" y="-712.5" font-family="Helvetica,sans-Serif" font-size="10.00">cam.nc.heiden.Creator.WORKPLANE</text>
</a>
</g>
</g>
<!-- Node1&#45;&gt;Node2 -->
<g id="edge1_Node000001_Node000002" class="edge">
<title>Node1&#45;&gt;Node2</title>
<g id="a_edge1_Node000001_Node000002"><a xlink:title=" ">
<path fill="none" stroke="#63b8ff" d="M89.07,-432.75C94.05,-472.9 118.65,-626.59 210,-697 212.05,-698.58 214.19,-700.05 216.41,-701.41"/>
<polygon fill="#63b8ff" stroke="#63b8ff" points="214.79,-704.51 225.26,-706.13 218.08,-698.34 214.79,-704.51"/>
</a>
</g>
</g>
<!-- Node3 -->
<g id="Node000003" class="node">
<title>Node3</title>
<g id="a_Node000003"><a xlink:href="classcam_1_1nc_1_1iso_1_1Creator.html#ab80465085217d6580fc1aabbb0b879ea" target="_top" xlink:title=" ">
<polygon fill="white" stroke="#666666" points="408,-687.5 235,-687.5 235,-668.5 408,-668.5 408,-687.5"/>
<text text-anchor="middle" x="321.5" y="-675.5" font-family="Helvetica,sans-Serif" font-size="10.00">cam.nc.iso.Creator.WORKPLANE</text>
</a>
</g>
</g>
<!-- Node1&#45;&gt;Node3 -->
<g id="edge2_Node000001_Node000003" class="edge">
<title>Node1&#45;&gt;Node3</title>
<g id="a_edge2_Node000001_Node000003"><a xlink:title=" ">
<path fill="none" stroke="#63b8ff" d="M89.8,-432.63C97.16,-469.04 128.5,-599.33 210,-659 214.78,-662.5 219.98,-665.43 225.44,-667.89"/>
<polygon fill="#63b8ff" stroke="#63b8ff" points="224.26,-671.19 234.85,-671.59 226.82,-664.67 224.26,-671.19"/>
</a>
</g>
</g>
<!-- Node4 -->
<g id="Node000004" class="node">
<title>Node4</title>
<g id="a_Node000004"><a xlink:href="classcam_1_1nc_1_1makerbot__codes_1_1Codes.html#af9ee4781020d355397093563966747f2" target="_top" xlink:title=" ">
<polygon fill="white" stroke="#666666" points="407,-650 236,-650 236,-620 407,-620 407,-650"/>
<text text-anchor="start" x="244" y="-638" font-family="Helvetica,sans-Serif" font-size="10.00">cam.nc.makerbot_codes.Codes.</text>
<text text-anchor="middle" x="321.5" y="-627" font-family="Helvetica,sans-Serif" font-size="10.00">WORKPLANE</text>
</a>
</g>
</g>
<!-- Node1&#45;&gt;Node4 -->
<g id="edge3_Node000001_Node000004" class="edge">
<title>Node1&#45;&gt;Node4</title>
<g id="a_edge3_Node000001_Node000004"><a xlink:title=" ">
<path fill="none" stroke="#63b8ff" d="M91.24,-432.7C102.27,-464.1 141.49,-563.67 210,-611 215.14,-614.55 220.71,-617.59 226.53,-620.19"/>
<polygon fill="#63b8ff" stroke="#63b8ff" points="225.25,-623.45 235.84,-623.92 227.86,-616.95 225.25,-623.45"/>
</a>
</g>
</g>
<!-- Node5 -->
<g id="Node000005" class="node">
<title>Node5</title>
<g id="a_Node000005"><a xlink:href="classcam_1_1nc_1_1heiden_1_1Creator.html#aa9e52f6cb2890fca0c43ee07acbbd905" target="_top" xlink:title=" ">
<polygon fill="white" stroke="#666666" points="433,-601.5 210,-601.5 210,-582.5 433,-582.5 433,-601.5"/>
<text text-anchor="middle" x="321.5" y="-589.5" font-family="Helvetica,sans-Serif" font-size="10.00">cam.nc.heiden.Creator.WORKPLANE_BASE</text>
</a>
</g>
</g>
<!-- Node1&#45;&gt;Node5 -->
<g id="edge4_Node000001_Node000005" class="edge">
<title>Node1&#45;&gt;Node5</title>
<g id="a_edge4_Node000001_Node000005"><a xlink:title=" ">
<path fill="none" stroke="#63b8ff" d="M92.67,-432.82C106.32,-460.36 149.1,-538.61 210,-574 212.9,-575.68 215.91,-577.22 219,-578.63"/>
<polygon fill="#63b8ff" stroke="#63b8ff" points="217.92,-581.97 228.5,-582.46 220.54,-575.47 217.92,-581.97"/>
</a>
</g>
</g>
<!-- Node6 -->
<g id="Node000006" class="node">
<title>Node6</title>
<g id="a_Node000006"><a xlink:href="classcam_1_1nc_1_1iso_1_1Creator.html#a752fd783814bcdff2b247170902d7356" target="_top" xlink:title=" ">
<polygon fill="white" stroke="#666666" points="423.5,-564.5 219.5,-564.5 219.5,-545.5 423.5,-545.5 423.5,-564.5"/>
<text text-anchor="middle" x="321.5" y="-552.5" font-family="Helvetica,sans-Serif" font-size="10.00">cam.nc.iso.Creator.WORKPLANE_BASE</text>
</a>
</g>
</g>
<!-- Node1&#45;&gt;Node6 -->
<g id="edge5_Node000001_Node000006" class="edge">
<title>Node1&#45;&gt;Node6</title>
<g id="a_edge5_Node000001_Node000006"><a xlink:title=" ">
<path fill="none" stroke="#63b8ff" d="M95.02,-432.52C111.98,-454.75 157.71,-510.18 210,-536 214.91,-538.42 220.07,-540.54 225.38,-542.4"/>
<polygon fill="#63b8ff" stroke="#63b8ff" points="224.46,-545.78 235.05,-545.46 226.57,-539.11 224.46,-545.78"/>
</a>
</g>
</g>
<!-- Node7 -->
<g id="Node000007" class="node">
<title>Node7</title>
<g id="a_Node000007"><a xlink:href="classcam_1_1nc_1_1makerbot__codes_1_1Codes.html#aa55ea50066c308715e6915d6fc91a6e2" target="_top" xlink:title=" ">
<polygon fill="white" stroke="#666666" points="407,-527 236,-527 236,-497 407,-497 407,-527"/>
<text text-anchor="start" x="244" y="-515" font-family="Helvetica,sans-Serif" font-size="10.00">cam.nc.makerbot_codes.Codes.</text>
<text text-anchor="middle" x="321.5" y="-504" font-family="Helvetica,sans-Serif" font-size="10.00">WORKPLANE_BASE</text>
</a>
</g>
</g>
<!-- Node1&#45;&gt;Node7 -->
<g id="edge6_Node000001_Node000007" class="edge">
<title>Node1&#45;&gt;Node7</title>
<g id="a_edge6_Node000001_Node000007"><a xlink:title=" ">
<path fill="none" stroke="#63b8ff" d="M102.78,-432.61C125.12,-446.74 169.22,-473.04 210,-488 216.19,-490.27 222.66,-492.36 229.23,-494.28"/>
<polygon fill="#63b8ff" stroke="#63b8ff" points="228.33,-497.66 238.9,-496.96 230.2,-490.91 228.33,-497.66"/>
</a>
</g>
</g>
<!-- Node8 -->
<g id="Node000008" class="node">
<title>Node8</title>
<g id="a_Node000008"><a xlink:href="classcam_1_1nc_1_1cad__nc__read_1_1Parser.html#adcf2f47949df29f187f27fe985884633" target="_top" xlink:title=" ">
<polygon fill="white" stroke="#666666" points="409.5,-460.5 233.5,-460.5 233.5,-441.5 409.5,-441.5 409.5,-460.5"/>
<text text-anchor="middle" x="321.5" y="-448.5" font-family="Helvetica,sans-Serif" font-size="10.00">cam.nc.cad_nc_read.Parser.write</text>
</a>
</g>
</g>
<!-- Node1&#45;&gt;Node8 -->
<g id="edge7_Node000001_Node000008" class="edge">
<title>Node1&#45;&gt;Node8</title>
<g id="a_edge7_Node000001_Node000008"><a xlink:title=" ">
<path fill="none" stroke="#63b8ff" d="M167.04,-432.52C187.72,-435.01 210.16,-437.71 231.33,-440.26"/>
<polygon fill="#63b8ff" stroke="#63b8ff" points="230.94,-443.74 241.29,-441.46 231.78,-436.79 230.94,-443.74"/>
</a>
</g>
</g>
<!-- Node9 -->
<g id="Node000009" class="node">
<title>Node9</title>
<g id="a_Node000009"><a xlink:href="classcam_1_1nc_1_1hxml__writer_1_1HxmlWriter.html#aed6f93c98cb8c0e3f3e826e75b6d6f15" target="_top" xlink:title=" ">
<polygon fill="white" stroke="#666666" points="421,-405.5 222,-405.5 222,-386.5 421,-386.5 421,-405.5"/>
<text text-anchor="middle" x="321.5" y="-393.5" font-family="Helvetica,sans-Serif" font-size="10.00">cam.nc.hxml_writer.HxmlWriter.write</text>
</a>
</g>
</g>
<!-- Node1&#45;&gt;Node9 -->
<g id="edge9_Node000001_Node000009" class="edge">
<title>Node1&#45;&gt;Node9</title>
<g id="a_edge9_Node000001_Node000009"><a xlink:title=" ">
<path fill="none" stroke="#63b8ff" d="M169.97,-413.48C188.9,-411.28 209.16,-408.93 228.48,-406.69"/>
<polygon fill="#63b8ff" stroke="#63b8ff" points="228.96,-410.15 238.49,-405.52 228.15,-403.2 228.96,-410.15"/>
</a>
</g>
</g>
<!-- Node10 -->
<g id="Node000010" class="node">
<title>Node10</title>
<g id="a_Node000010"><a xlink:href="classcam_1_1nc_1_1iso_1_1Creator.html#abb81af5a0bdddfed387b71b68a51cc7a" target="_top" xlink:title="Internals.">
<polygon fill="white" stroke="#666666" points="389,-368.5 254,-368.5 254,-349.5 389,-349.5 389,-368.5"/>
<text text-anchor="middle" x="321.5" y="-356.5" font-family="Helvetica,sans-Serif" font-size="10.00">cam.nc.iso.Creator.write</text>
</a>
</g>
</g>
<!-- Node1&#45;&gt;Node10 -->
<g id="edge11_Node000001_Node000010" class="edge">
<title>Node1&#45;&gt;Node10</title>
<g id="a_edge11_Node000001_Node000010"><a xlink:title=" ">
<path fill="none" stroke="#63b8ff" d="M110.09,-413.45C134.23,-403.36 174.24,-387.58 210,-378 220.83,-375.1 232.39,-372.54 243.79,-370.32"/>
<polygon fill="#63b8ff" stroke="#63b8ff" points="244.57,-373.73 253.75,-368.45 243.28,-366.85 244.57,-373.73"/>
</a>
</g>
</g>
<!-- Node11 -->
<g id="Node000011" class="node">
<title>Node11</title>
<g id="a_Node000011"><a xlink:href="classcam_1_1nc_1_1nc_1_1Creator.html#a80f2134add83bfaaf2870d075d36ed8a" target="_top" xlink:title=" ">
<polygon fill="white" stroke="#666666" points="387.5,-313.5 255.5,-313.5 255.5,-294.5 387.5,-294.5 387.5,-313.5"/>
<text text-anchor="middle" x="321.5" y="-301.5" font-family="Helvetica,sans-Serif" font-size="10.00">cam.nc.nc.Creator.write</text>
</a>
</g>
</g>
<!-- Node1&#45;&gt;Node11 -->
<g id="edge12_Node000001_Node000011" class="edge">
<title>Node1&#45;&gt;Node11</title>
<g id="a_edge12_Node000001_Node000011"><a xlink:title=" ">
<path fill="none" stroke="#63b8ff" d="M99.8,-413.47C120.85,-396.85 166.73,-362.3 210,-341 230.36,-330.98 254.08,-322.64 274.32,-316.43"/>
<polygon fill="#63b8ff" stroke="#63b8ff" points="275.37,-319.77 283.95,-313.55 273.36,-313.06 275.37,-319.77"/>
</a>
</g>
</g>
<!-- Node12 -->
<g id="Node000012" class="node">
<title>Node12</title>
<g id="a_Node000012"><a xlink:href="classcam_1_1nc_1_1nclathe__read_1_1Parser.html#ab5ea283b461b57e48c8d5b0ad0a45694" target="_top" xlink:title=" ">
<polygon fill="white" stroke="#666666" points="410.5,-258.5 232.5,-258.5 232.5,-239.5 410.5,-239.5 410.5,-258.5"/>
<text text-anchor="middle" x="321.5" y="-246.5" font-family="Helvetica,sans-Serif" font-size="10.00">cam.nc.nclathe_read.Parser.write</text>
</a>
</g>
</g>
<!-- Node1&#45;&gt;Node12 -->
<g id="edge14_Node000001_Node000012" class="edge">
<title>Node1&#45;&gt;Node12</title>
<g id="a_edge14_Node000001_Node000012"><a xlink:title=" ">
<path fill="none" stroke="#63b8ff" d="M93.88,-413.5C109.61,-388.82 155.24,-322.13 210,-286 226.53,-275.09 246.58,-267.12 265.04,-261.42"/>
<polygon fill="#63b8ff" stroke="#63b8ff" points="266.19,-264.74 274.81,-258.57 264.23,-258.02 266.19,-264.74"/>
</a>
</g>
</g>
<!-- Node13 -->
<g id="Node000013" class="node">
<title>Node13</title>
<g id="a_Node000013"><a xlink:href="classcam_1_1nc_1_1recreator_1_1Redirector.html#a79cc974683588db3ef959189e7552c0d" target="_top" xlink:title="Programs.">
<polygon fill="white" stroke="#666666" points="411,-203.5 232,-203.5 232,-184.5 411,-184.5 411,-203.5"/>
<text text-anchor="middle" x="321.5" y="-191.5" font-family="Helvetica,sans-Serif" font-size="10.00">cam.nc.recreator.Redirector.write</text>
</a>
</g>
</g>
<!-- Node1&#45;&gt;Node13 -->
<g id="edge16_Node000001_Node000013" class="edge">
<title>Node1&#45;&gt;Node13</title>
<g id="a_edge16_Node000001_Node000013"><a xlink:title=" ">
<path fill="none" stroke="#63b8ff" d="M91.4,-413.4C102.91,-382.26 143.44,-283.08 210,-231 224.19,-219.9 241.87,-212.05 258.9,-206.52"/>
<polygon fill="#63b8ff" stroke="#63b8ff" points="260.26,-209.77 268.82,-203.53 258.24,-203.07 260.26,-209.77"/>
</a>
</g>
</g>
<!-- Node14 -->
<g id="Node000014" class="node">
<title>Node14</title>
<g id="a_Node000014"><a xlink:href="classcam_1_1nc_1_1format_1_1Address.html#aa21f0ffeb829537d9103759276c01a4b" target="_top" xlink:title=" ">
<polygon fill="white" stroke="#666666" points="400.5,-166.5 242.5,-166.5 242.5,-147.5 400.5,-147.5 400.5,-166.5"/>
<text text-anchor="middle" x="321.5" y="-154.5" font-family="Helvetica,sans-Serif" font-size="10.00">cam.nc.format.Address.write</text>
</a>
</g>
</g>
<!-- Node1&#45;&gt;Node14 -->
<g id="edge18_Node000001_Node000014" class="edge">
<title>Node1&#45;&gt;Node14</title>
<g id="a_edge18_Node000001_Node000014"><a xlink:title=" ">
<path fill="none" stroke="#63b8ff" d="M89.56,-413.45C96.18,-376.12 125.68,-238.93 210,-176 216.84,-170.9 224.58,-166.98 232.71,-164"/>
<polygon fill="#63b8ff" stroke="#63b8ff" points="233.93,-167.29 242.4,-160.92 231.81,-160.62 233.93,-167.29"/>
</a>
</g>
</g>
<!-- Node25 -->
<g id="Node000025" class="node">
<title>Node25</title>
<g id="a_Node000025"><a xlink:href="classcam_1_1nc_1_1format_1_1AddressPlusMinus.html#aaacea4c7b677f0a602dbc9023ff365d2" target="_top" xlink:title=" ">
<polygon fill="white" stroke="#666666" points="396.5,-129 246.5,-129 246.5,-99 396.5,-99 396.5,-129"/>
<text text-anchor="start" x="254.5" y="-117" font-family="Helvetica,sans-Serif" font-size="10.00">cam.nc.format.AddressPlus</text>
<text text-anchor="middle" x="321.5" y="-106" font-family="Helvetica,sans-Serif" font-size="10.00">Minus.write</text>
</a>
</g>
</g>
<!-- Node1&#45;&gt;Node25 -->
<g id="edge31_Node000001_Node000025" class="edge">
<title>Node1&#45;&gt;Node25</title>
<g id="a_edge31_Node000001_Node000025"><a xlink:title=" ">
<path fill="none" stroke="#63b8ff" d="M89.01,-413.28C93.78,-372.53 117.86,-214.07 210,-138 217.83,-131.53 227.02,-126.7 236.68,-123.1"/>
<polygon fill="#63b8ff" stroke="#63b8ff" points="238.06,-126.34 246.48,-119.91 235.88,-119.68 238.06,-126.34"/>
</a>
</g>
</g>
<!-- Node8&#45;&gt;Node8 -->
<g id="edge8_Node000008_Node000008" class="edge">
<title>Node8&#45;&gt;Node8</title>
<g id="a_edge8_Node000008_Node000008"><a xlink:title=" ">
<path fill="none" stroke="#63b8ff" d="M286.36,-460.58C269.26,-469.23 280.98,-478.5 321.5,-478.5 351.26,-478.5 365.48,-473.5 364.17,-467.42"/>
<polygon fill="#63b8ff" stroke="#63b8ff" points="366.4,-464.72 356.64,-460.58 361.69,-469.9 366.4,-464.72"/>
</a>
</g>
</g>
<!-- Node9&#45;&gt;Node9 -->
<g id="edge10_Node000009_Node000009" class="edge">
<title>Node9&#45;&gt;Node9</title>
<g id="a_edge10_Node000009_Node000009"><a xlink:title=" ">
<path fill="none" stroke="#63b8ff" d="M286.36,-405.58C269.26,-414.23 280.98,-423.5 321.5,-423.5 351.26,-423.5 365.48,-418.5 364.17,-412.42"/>
<polygon fill="#63b8ff" stroke="#63b8ff" points="366.4,-409.72 356.64,-405.58 361.69,-414.9 366.4,-409.72"/>
</a>
</g>
</g>
<!-- Node11&#45;&gt;Node11 -->
<g id="edge13_Node000011_Node000011" class="edge">
<title>Node11&#45;&gt;Node11</title>
<g id="a_edge13_Node000011_Node000011"><a xlink:title=" ">
<path fill="none" stroke="#63b8ff" d="M286.36,-313.58C269.26,-322.23 280.98,-331.5 321.5,-331.5 351.26,-331.5 365.48,-326.5 364.17,-320.42"/>
<polygon fill="#63b8ff" stroke="#63b8ff" points="366.4,-317.72 356.64,-313.58 361.69,-322.9 366.4,-317.72"/>
</a>
</g>
</g>
<!-- Node12&#45;&gt;Node12 -->
<g id="edge15_Node000012_Node000012" class="edge">
<title>Node12&#45;&gt;Node12</title>
<g id="a_edge15_Node000012_Node000012"><a xlink:title=" ">
<path fill="none" stroke="#63b8ff" d="M286.36,-258.58C269.26,-267.23 280.98,-276.5 321.5,-276.5 351.26,-276.5 365.48,-271.5 364.17,-265.42"/>
<polygon fill="#63b8ff" stroke="#63b8ff" points="366.4,-262.72 356.64,-258.58 361.69,-267.9 366.4,-262.72"/>
</a>
</g>
</g>
<!-- Node13&#45;&gt;Node13 -->
<g id="edge17_Node000013_Node000013" class="edge">
<title>Node13&#45;&gt;Node13</title>
<g id="a_edge17_Node000013_Node000013"><a xlink:title=" ">
<path fill="none" stroke="#63b8ff" d="M286.36,-203.58C269.26,-212.23 280.98,-221.5 321.5,-221.5 351.26,-221.5 365.48,-216.5 364.17,-210.42"/>
<polygon fill="#63b8ff" stroke="#63b8ff" points="366.4,-207.72 356.64,-203.58 361.69,-212.9 366.4,-207.72"/>
</a>
</g>
</g>
<!-- Node15 -->
<g id="Node000015" class="node">
<title>Node15</title>
<g id="a_Node000015"><a xlink:href="classcam_1_1async__op_1_1AsyncOperatorMixin.html#a9628cbca8e69ec75b2337171a02bf428" target="_top" xlink:title=" ">
<polygon fill="white" stroke="#666666" points="630,-150 469,-150 469,-120 630,-120 630,-150"/>
<text text-anchor="start" x="477" y="-138" font-family="Helvetica,sans-Serif" font-size="10.00">cam.async_op.AsyncOperator</text>
<text text-anchor="middle" x="549.5" y="-127" font-family="Helvetica,sans-Serif" font-size="10.00">Mixin.modal</text>
</a>
</g>
</g>
<!-- Node14&#45;&gt;Node15 -->
<g id="edge19_Node000014_Node000015" class="edge">
<title>Node14&#45;&gt;Node15</title>
<g id="a_edge19_Node000014_Node000015"><a xlink:title=" ">
<path fill="none" stroke="#63b8ff" d="M400.59,-149.4C419.39,-147.57 439.61,-145.6 458.89,-143.72"/>
<polygon fill="#63b8ff" stroke="#63b8ff" points="459.26,-147.2 468.87,-142.75 458.58,-140.24 459.26,-147.2"/>
</a>
</g>
</g>
<!-- Node16 -->
<g id="Node000016" class="node">
<title>Node16</title>
<g id="a_Node000016"><a xlink:href="classcam_1_1async__op_1_1AsyncOperatorMixin.html#a15a51cfd69d8e453e2e3d64386b1ebe3" target="_top" xlink:title=" ">
<polygon fill="white" stroke="#666666" points="827,-150 666,-150 666,-120 827,-120 827,-150"/>
<text text-anchor="start" x="674" y="-138" font-family="Helvetica,sans-Serif" font-size="10.00">cam.async_op.AsyncOperator</text>
<text text-anchor="middle" x="746.5" y="-127" font-family="Helvetica,sans-Serif" font-size="10.00">Mixin.tick</text>
</a>
</g>
</g>
<!-- Node15&#45;&gt;Node16 -->
<g id="edge20_Node000015_Node000016" class="edge">
<title>Node15&#45;&gt;Node16</title>
<g id="a_edge20_Node000015_Node000016"><a xlink:title=" ">
<path fill="none" stroke="#63b8ff" d="M630.1,-135C638.57,-135 647.24,-135 655.82,-135"/>
<polygon fill="#63b8ff" stroke="#63b8ff" points="655.84,-138.5 665.84,-135 655.84,-131.5 655.84,-138.5"/>
</a>
</g>
</g>
<!-- Node17 -->
<g id="Node000017" class="node">
<title>Node17</title>
<g id="a_Node000017"><a xlink:href="classcam_1_1async__op_1_1AsyncTestOperator.html#a42606ca890a957aa7070a4bc6f25228b" target="_top" xlink:title=" ">
<polygon fill="white" stroke="#666666" points="1084,-270 863,-270 863,-240 1084,-240 1084,-270"/>
<text text-anchor="start" x="871" y="-258" font-family="Helvetica,sans-Serif" font-size="10.00">cam.async_op.AsyncTestOperator.execute</text>
<text text-anchor="middle" x="973.5" y="-247" font-family="Helvetica,sans-Serif" font-size="10.00">_async</text>
</a>
</g>
</g>
<!-- Node16&#45;&gt;Node17 -->
<g id="edge21_Node000016_Node000017" class="edge">
<title>Node16&#45;&gt;Node17</title>
<g id="a_edge21_Node000016_Node000017"><a xlink:title=" ">
<path fill="none" stroke="#63b8ff" d="M761.18,-150.27C781.31,-171.74 821.07,-210.51 863,-231 867.09,-233 871.35,-234.84 875.72,-236.52"/>
<polygon fill="#63b8ff" stroke="#63b8ff" points="874.81,-239.91 885.41,-239.97 877.16,-233.32 874.81,-239.91"/>
</a>
</g>
</g>
<!-- Node18 -->
<g id="Node000018" class="node">
<title>Node18</title>
<g id="a_Node000018"><a xlink:href="classcam_1_1ops_1_1CalculatePath.html#a13dfe2f8578383234e74e58e2f292e1b" target="_top" xlink:title=" ">
<polygon fill="white" stroke="#666666" points="1058,-222 889,-222 889,-192 1058,-192 1058,-222"/>
<text text-anchor="start" x="897" y="-210" font-family="Helvetica,sans-Serif" font-size="10.00">cam.ops.CalculatePath.execute</text>
<text text-anchor="middle" x="973.5" y="-199" font-family="Helvetica,sans-Serif" font-size="10.00">_async</text>
</a>
</g>
</g>
<!-- Node16&#45;&gt;Node18 -->
<g id="edge22_Node000016_Node000018" class="edge">
<title>Node16&#45;&gt;Node18</title>
<g id="a_edge22_Node000016_Node000018"><a xlink:title=" ">
<path fill="none" stroke="#63b8ff" d="M779.29,-150.01C802.18,-160.38 834,-173.88 863,-183 870.31,-185.3 877.96,-187.46 885.68,-189.47"/>
<polygon fill="#63b8ff" stroke="#63b8ff" points="884.91,-192.89 895.46,-191.93 886.62,-186.1 884.91,-192.89"/>
</a>
</g>
</g>
<!-- Node20 -->
<g id="Node000020" class="node">
<title>Node20</title>
<g id="a_Node000020"><a xlink:href="classcam_1_1ops_1_1PathsChain.html#a6fc64e383ccf724b2325e18a82d53eae" target="_top" xlink:title=" ">
<polygon fill="white" stroke="#666666" points="1051.5,-174 895.5,-174 895.5,-144 1051.5,-144 1051.5,-174"/>
<text text-anchor="start" x="903.5" y="-162" font-family="Helvetica,sans-Serif" font-size="10.00">cam.ops.PathsChain.execute</text>
<text text-anchor="middle" x="973.5" y="-151" font-family="Helvetica,sans-Serif" font-size="10.00">_async</text>
</a>
</g>
</g>
<!-- Node16&#45;&gt;Node20 -->
<g id="edge24_Node000016_Node000020" class="edge">
<title>Node16&#45;&gt;Node20</title>
<g id="a_edge24_Node000016_Node000020"><a xlink:title=" ">
<path fill="none" stroke="#63b8ff" d="M827.14,-143.5C845.9,-145.5 865.98,-147.64 885.06,-149.67"/>
<polygon fill="#63b8ff" stroke="#63b8ff" points="884.92,-153.18 895.23,-150.76 885.66,-146.22 884.92,-153.18"/>
</a>
</g>
</g>
<!-- Node22 -->
<g id="Node000022" class="node">
<title>Node22</title>
<g id="a_Node000022"><a xlink:href="classcam_1_1ops_1_1CAMSimulate.html#a633151f17849d281fd52ce82c00356a7" target="_top" xlink:title=" ">
<polygon fill="white" stroke="#666666" points="1057.5,-126 889.5,-126 889.5,-96 1057.5,-96 1057.5,-126"/>
<text text-anchor="start" x="897.5" y="-114" font-family="Helvetica,sans-Serif" font-size="10.00">cam.ops.CAMSimulate.execute</text>
<text text-anchor="middle" x="973.5" y="-103" font-family="Helvetica,sans-Serif" font-size="10.00">_async</text>
</a>
</g>
</g>
<!-- Node16&#45;&gt;Node22 -->
<g id="edge27_Node000016_Node000022" class="edge">
<title>Node16&#45;&gt;Node22</title>
<g id="a_edge27_Node000016_Node000022"><a xlink:title=" ">
<path fill="none" stroke="#63b8ff" d="M827.14,-126.5C843.95,-124.71 861.82,-122.81 879.08,-120.97"/>
<polygon fill="#63b8ff" stroke="#63b8ff" points="879.58,-124.43 889.15,-119.89 878.84,-117.47 879.58,-124.43"/>
</a>
</g>
</g>
<!-- Node23 -->
<g id="Node000023" class="node">
<title>Node23</title>
<g id="a_Node000023"><a xlink:href="classcam_1_1ops_1_1CAMSimulateChain.html#a1e77c7ce21b3b7e3e38a12b6b62517e9" target="_top" xlink:title=" ">
<polygon fill="white" stroke="#666666" points="1071.5,-78 875.5,-78 875.5,-48 1071.5,-48 1071.5,-78"/>
<text text-anchor="start" x="883.5" y="-66" font-family="Helvetica,sans-Serif" font-size="10.00">cam.ops.CAMSimulateChain.execute</text>
<text text-anchor="middle" x="973.5" y="-55" font-family="Helvetica,sans-Serif" font-size="10.00">_async</text>
</a>
</g>
</g>
<!-- Node16&#45;&gt;Node23 -->
<g id="edge28_Node000016_Node000023" class="edge">
<title>Node16&#45;&gt;Node23</title>
<g id="a_edge28_Node000016_Node000023"><a xlink:title=" ">
<path fill="none" stroke="#63b8ff" d="M779.29,-119.99C802.18,-109.62 834,-96.12 863,-87 870.31,-84.7 877.96,-82.54 885.68,-80.53"/>
<polygon fill="#63b8ff" stroke="#63b8ff" points="886.62,-83.9 895.46,-78.07 884.91,-77.11 886.62,-83.9"/>
</a>
</g>
</g>
<!-- Node24 -->
<g id="Node000024" class="node">
<title>Node24</title>
<g id="a_Node000024"><a xlink:href="classcam_1_1async__op_1_1AsyncOperatorMixin.html#a2216ff6bb0dfd132f4ec4cf79b7cba2b" target="_top" xlink:title=" ">
<polygon fill="white" stroke="#666666" points="1054,-30 893,-30 893,0 1054,0 1054,-30"/>
<text text-anchor="start" x="901" y="-18" font-family="Helvetica,sans-Serif" font-size="10.00">cam.async_op.AsyncOperator</text>
<text text-anchor="middle" x="973.5" y="-7" font-family="Helvetica,sans-Serif" font-size="10.00">Mixin.show_progress</text>
</a>
</g>
</g>
<!-- Node16&#45;&gt;Node24 -->
<g id="edge30_Node000016_Node000024" class="edge">
<title>Node16&#45;&gt;Node24</title>
<g id="a_edge30_Node000016_Node000024"><a xlink:title=" ">
<path fill="none" stroke="#63b8ff" d="M761.18,-119.73C781.31,-98.26 821.07,-59.49 863,-39 869.43,-35.86 876.27,-33.12 883.28,-30.74"/>
<polygon fill="#63b8ff" stroke="#63b8ff" points="884.42,-34.05 892.91,-27.71 882.32,-27.37 884.42,-34.05"/>
</a>
</g>
</g>
<!-- Node19 -->
<g id="Node000019" class="node">
<title>Node19</title>
<g id="a_Node000019"><a xlink:href="namespacecam_1_1ops.html#aa8e95f7410a7ceb178db48f4f8c2d995" target="_top" xlink:title=" ">
<polygon fill="white" stroke="#666666" points="1255.5,-192.5 1142.5,-192.5 1142.5,-173.5 1255.5,-173.5 1255.5,-192.5"/>
<text text-anchor="middle" x="1199" y="-180.5" font-family="Helvetica,sans-Serif" font-size="10.00">cam.ops._calc_path</text>
</a>
</g>
</g>
<!-- Node18&#45;&gt;Node19 -->
<g id="edge23_Node000018_Node000019" class="edge">
<title>Node18&#45;&gt;Node19</title>
<g id="a_edge23_Node000018_Node000019"><a xlink:title=" ">
<path fill="none" stroke="#63b8ff" d="M1058.04,-198.03C1082.56,-195.4 1109.01,-192.56 1132.25,-190.06"/>
<polygon fill="#63b8ff" stroke="#63b8ff" points="1132.77,-193.52 1142.34,-188.98 1132.03,-186.56 1132.77,-193.52"/>
</a>
</g>
</g>
<!-- Node20&#45;&gt;Node19 -->
<g id="edge25_Node000020_Node000019" class="edge">
<title>Node20&#45;&gt;Node19</title>
<g id="a_edge25_Node000020_Node000019"><a xlink:title=" ">
<path fill="none" stroke="#63b8ff" d="M1051.73,-167.29C1077.9,-170.1 1106.87,-173.21 1132.08,-175.92"/>
<polygon fill="#63b8ff" stroke="#63b8ff" points="1131.95,-179.43 1142.27,-177.02 1132.7,-172.47 1131.95,-179.43"/>
</a>
</g>
</g>
<!-- Node21 -->
<g id="Node000021" class="node">
<title>Node21</title>
<g id="a_Node000021"><a xlink:href="namespacecam_1_1ops.html#ab55fb8ec9a00e021e8e4a1c3ecc97cb4" target="_top" xlink:title=" ">
<polygon fill="white" stroke="#666666" points="1278,-126.5 1120,-126.5 1120,-107.5 1278,-107.5 1278,-126.5"/>
<text text-anchor="middle" x="1199" y="-114.5" font-family="Helvetica,sans-Serif" font-size="10.00">cam.ops.getChainOperations</text>
</a>
</g>
</g>
<!-- Node20&#45;&gt;Node21 -->
<g id="edge26_Node000020_Node000021" class="edge">
<title>Node20&#45;&gt;Node21</title>
<g id="a_edge26_Node000020_Node000021"><a xlink:title=" ">
<path fill="none" stroke="#63b8ff" d="M1051.73,-144.49C1079.81,-139.21 1111.12,-133.33 1137.54,-128.36"/>
<polygon fill="#63b8ff" stroke="#63b8ff" points="1138.23,-131.79 1147.41,-126.51 1136.94,-124.91 1138.23,-131.79"/>
</a>
</g>
</g>
<!-- Node23&#45;&gt;Node21 -->
<g id="edge29_Node000023_Node000021" class="edge">
<title>Node23&#45;&gt;Node21</title>
<g id="a_edge29_Node000023_Node000021"><a xlink:title=" ">
<path fill="none" stroke="#63b8ff" d="M1045.28,-78.06C1058.19,-80.94 1071.51,-83.99 1084,-87 1106.91,-92.52 1132.28,-99.15 1153.25,-104.77"/>
<polygon fill="#63b8ff" stroke="#63b8ff" points="1152.6,-108.21 1163.17,-107.43 1154.42,-101.45 1152.6,-108.21"/>
</a>
</g>
</g>
<!-- Node25&#45;&gt;Node15 -->
<g id="edge32_Node000025_Node000015" class="edge">
<title>Node25&#45;&gt;Node15</title>
<g id="a_edge32_Node000025_Node000015"><a xlink:title=" ">
<path fill="none" stroke="#63b8ff" d="M396.5,-120.88C416.41,-122.73 438.17,-124.75 458.84,-126.67"/>
<polygon fill="#63b8ff" stroke="#63b8ff" points="458.6,-130.16 468.88,-127.6 459.25,-123.19 458.6,-130.16"/>
</a>
</g>
</g>
</g>
</svg>

<g id="navigator" transform="translate(0 0)" fill="#404254">
  <rect fill="#f2f5e9" fill-opacity="0.5" stroke="#606060" stroke-width=".5" x="0" y="0" width="60" height="60"/>
  <use id="zoomplus" xlink:href="#zoomPlus" x="17" y="9" onmousedown="handleZoom(evt,'in')"/>
  <use id="zoomminus" xlink:href="#zoomMin" x="42" y="9" onmousedown="handleZoom(evt,'out')"/>
  <use id="reset" xlink:href="#resetDef" x="30" y="36" onmousedown="handleReset()"/>
   <use id="arrowup" xlink:href="#arrowUp" x="0" y="0" onmousedown="handlePan(0,-1)"/>
  <use id="arrowright" xlink:href="#arrowRight" x="0" y="0" onmousedown="handlePan(1,0)"/>
  <use id="arrowdown" xlink:href="#arrowDown" x="0" y="0" onmousedown="handlePan(0,1)"/>
  <use id="arrowleft" xlink:href="#arrowLeft" x="0" y="0" onmousedown="handlePan(-1,0)"/>
</g>
<svg viewBox="0 0 15 15" width="100%" height="30px" preserveAspectRatio="xMaxYMin meet">
 <g id="arrow_out" transform="scale(0.3 0.3)">
  <a xlink:href="classcam_1_1nc_1_1emc2_1_1Creator_a8218700b9d0a8eaae13606f5834701b3_cgraph_org.svg" target="_base">
   <rect id="button" ry="5" rx="5" y="6" x="6" height="38" width="38"
        fill="#f2f5e9" fill-opacity="0.5" stroke="#606060" stroke-width="1.0"/>
   <path id="arrow"
     d="M 11.500037,31.436501 C 11.940474,20.09759 22.043105,11.32322 32.158766,21.979434 L 37.068811,17.246167 C 37.068811,17.246167 37.088388,32 37.088388,32 L 22.160133,31.978069 C 22.160133,31.978069 26.997745,27.140456 26.997745,27.140456 C 18.528582,18.264221 13.291696,25.230495 11.500037,31.436501 z"
     style="fill:#404040;"/>
  </a>
 </g>
</svg>

<style type='text/css'>
<![CDATA[
[data-mouse-over-selected='false'] { opacity: 0.7; }
[data-mouse-over-selected='true']  { opacity: 1.0; }
]]>
</style>
<script type="application/ecmascript"><![CDATA[
document.addEventListener('DOMContentLoaded', (event) => {
  highlightEdges();
  highlightAdjacentNodes();
});
]]></script>
</svg>
