<?xml version="1.0" encoding="UTF-8" standalone="no"?>
<!DOCTYPE svg PUBLIC "-//W3C//DTD SVG 1.1//EN"
 "http://www.w3.org/Graphics/SVG/1.1/DTD/svg11.dtd">
<!-- Generated by graphviz version 2.43.0 (0)
 -->
<!-- Title: cam.nc.nclathe_read.Parser.files_close Pages: 1 -->
<svg width="393pt" height="182pt"
 viewBox="0.00 0.00 393.00 182.00" xmlns="http://www.w3.org/2000/svg" xmlns:xlink="http://www.w3.org/1999/xlink">
<g id="graph0" class="graph" transform="scale(1 1) rotate(0) translate(4 178)">
<title>cam.nc.nclathe_read.Parser.files_close</title>
<!-- Node1 -->
<g id="Node000001" class="node">
<title>Node1</title>
<g id="a_Node000001"><a xlink:title=" ">
<polygon fill="#999999" stroke="#666666" points="385,-102 212,-102 212,-72 385,-72 385,-102"/>
<text text-anchor="start" x="220" y="-90" font-family="Helvetica,sans-Serif" font-size="10.00">cam.nc.nclathe_read.Parser.files</text>
<text text-anchor="middle" x="298.5" y="-79" font-family="Helvetica,sans-Serif" font-size="10.00">_close</text>
</a>
</g>
</g>
<!-- Node2 -->
<g id="Node000002" class="node">
<title>Node2</title>
<g id="a_Node000002"><a xlink:href="classcam_1_1nc_1_1cad__iso__read_1_1Parser.html#abf885d019794a8bef1b69f446c8851e1" target="_top" xlink:title=" ">
<polygon fill="white" stroke="#666666" points="165,-174 11,-174 11,-144 165,-144 165,-174"/>
<text text-anchor="start" x="19" y="-162" font-family="Helvetica,sans-Serif" font-size="10.00">cam.nc.cad_iso_read.Parser.</text>
<text text-anchor="middle" x="88" y="-151" font-family="Helvetica,sans-Serif" font-size="10.00">Parse</text>
</a>
</g>
</g>
<!-- Node1&#45;&gt;Node2 -->
<g id="edge1_Node000001_Node000002" class="edge">
<title>Node1&#45;&gt;Node2</title>
<g id="a_edge1_Node000001_Node000002"><a xlink:title=" ">
<path fill="none" stroke="#63b8ff" d="M252.84,-105.97C230.06,-115.31 201.78,-126.38 176,-135 166.64,-138.13 156.62,-141.17 146.82,-143.98"/>
<polygon fill="#63b8ff" stroke="#63b8ff" points="254.34,-109.14 262.25,-102.09 251.67,-102.67 254.34,-109.14"/>
</a>
</g>
</g>
<!-- Node3 -->
<g id="Node000003" class="node">
<title>Node3</title>
<g id="a_Node000003"><a xlink:href="classcam_1_1nc_1_1cad__read_1_1CAD__backplot.html#afce7c30e482cfb88a36593d4020909d7" target="_top" xlink:title=" ">
<polygon fill="white" stroke="#666666" points="149.5,-126 26.5,-126 26.5,-96 149.5,-96 149.5,-126"/>
<text text-anchor="start" x="34.5" y="-114" font-family="Helvetica,sans-Serif" font-size="10.00">cam.nc.cad_read.CAD</text>
<text text-anchor="middle" x="88" y="-103" font-family="Helvetica,sans-Serif" font-size="10.00">_backplot.Parse</text>
</a>
</g>
</g>
<!-- Node1&#45;&gt;Node3 -->
<g id="edge2_Node000001_Node000003" class="edge">
<title>Node1&#45;&gt;Node3</title>
<g id="a_edge2_Node000001_Node000003"><a xlink:title=" ">
<path fill="none" stroke="#63b8ff" d="M201.44,-98.06C183.78,-100.09 165.79,-102.16 149.54,-104.03"/>
<polygon fill="#63b8ff" stroke="#63b8ff" points="202.26,-101.49 211.79,-96.87 201.46,-94.53 202.26,-101.49"/>
</a>
</g>
</g>
<!-- Node4 -->
<g id="Node000004" class="node">
<title>Node4</title>
<g id="a_Node000004"><a xlink:href="classcam_1_1nc_1_1lathe1__read_1_1Parser.html#a4046e981f4f946bed728de957d10365f" target="_top" xlink:title=" ">
<polygon fill="white" stroke="#666666" points="162,-78 14,-78 14,-48 162,-48 162,-78"/>
<text text-anchor="start" x="22" y="-66" font-family="Helvetica,sans-Serif" font-size="10.00">cam.nc.lathe1_read.Parser.</text>
<text text-anchor="middle" x="88" y="-55" font-family="Helvetica,sans-Serif" font-size="10.00">Parse</text>
</a>
</g>
</g>
<!-- Node1&#45;&gt;Node4 -->
<g id="edge3_Node000001_Node000004" class="edge">
<title>Node1&#45;&gt;Node4</title>
<g id="a_edge3_Node000001_Node000004"><a xlink:title=" ">
<path fill="none" stroke="#63b8ff" d="M201.67,-75.97C188.36,-74.44 174.87,-72.88 162.07,-71.41"/>
<polygon fill="#63b8ff" stroke="#63b8ff" points="201.46,-79.47 211.79,-77.13 202.26,-72.51 201.46,-79.47"/>
</a>
</g>
</g>
<!-- Node5 -->
<g id="Node000005" class="node">
<title>Node5</title>
<g id="a_Node000005"><a xlink:href="classcam_1_1nc_1_1num__reader_1_1NumReader.html#ae908a2956d1e0cfd474a47540bee9759" target="_top" xlink:title=" ">
<polygon fill="white" stroke="#666666" points="176,-30 0,-30 0,0 176,0 176,-30"/>
<text text-anchor="start" x="8" y="-18" font-family="Helvetica,sans-Serif" font-size="10.00">cam.nc.num_reader.NumReader.</text>
<text text-anchor="middle" x="88" y="-7" font-family="Helvetica,sans-Serif" font-size="10.00">Parse</text>
</a>
</g>
</g>
<!-- Node1&#45;&gt;Node5 -->
<g id="edge4_Node000001_Node000005" class="edge">
<title>Node1&#45;&gt;Node5</title>
<g id="a_edge4_Node000001_Node000005"><a xlink:title=" ">
<path fill="none" stroke="#63b8ff" d="M252.84,-68.03C230.06,-58.69 201.78,-47.62 176,-39 166.64,-35.87 156.62,-32.83 146.82,-30.02"/>
<polygon fill="#63b8ff" stroke="#63b8ff" points="251.67,-71.33 262.25,-71.91 254.34,-64.86 251.67,-71.33"/>
</a>
</g>
</g>
</g>
</svg>
