<?xml version="1.0" encoding="UTF-8" standalone="no"?>
<!DOCTYPE svg PUBLIC "-//W3C//DTD SVG 1.1//EN"
 "http://www.w3.org/Graphics/SVG/1.1/DTD/svg11.dtd">
<!-- Generated by graphviz version 2.43.0 (0)
 -->
<!-- Title: cam.nc.hxml_writer.HxmlWriter.__del__ Pages: 1 -->
<svg width="417pt" height="51pt"
 viewBox="0.00 0.00 417.00 50.50" xmlns="http://www.w3.org/2000/svg" xmlns:xlink="http://www.w3.org/1999/xlink">
<g id="graph0" class="graph" transform="scale(1 1) rotate(0) translate(4 46.5)">
<title>cam.nc.hxml_writer.HxmlWriter.__del__</title>
<!-- Node1 -->
<g id="Node000001" class="node">
<title>Node1</title>
<g id="a_Node000001"><a xlink:title=" ">
<polygon fill="#999999" stroke="#666666" points="174,-30 0,-30 0,0 174,0 174,-30"/>
<text text-anchor="start" x="8" y="-18" font-family="Helvetica,sans-Serif" font-size="10.00">cam.nc.hxml_writer.HxmlWriter.</text>
<text text-anchor="middle" x="87" y="-7" font-family="Helvetica,sans-Serif" font-size="10.00">__del__</text>
</a>
</g>
</g>
<!-- Node2 -->
<g id="Node000002" class="node">
<title>Node2</title>
<g id="a_Node000002"><a xlink:href="classcam_1_1nc_1_1hxml__writer_1_1HxmlWriter.html#aed6f93c98cb8c0e3f3e826e75b6d6f15" target="_top" xlink:title=" ">
<polygon fill="white" stroke="#666666" points="409,-24.5 210,-24.5 210,-5.5 409,-5.5 409,-24.5"/>
<text text-anchor="middle" x="309.5" y="-12.5" font-family="Helvetica,sans-Serif" font-size="10.00">cam.nc.hxml_writer.HxmlWriter.write</text>
</a>
</g>
</g>
<!-- Node1&#45;&gt;Node2 -->
<g id="edge1_Node000001_Node000002" class="edge">
<title>Node1&#45;&gt;Node2</title>
<g id="a_edge1_Node000001_Node000002"><a xlink:title=" ">
<path fill="none" stroke="#63b8ff" d="M174.2,-15C182.62,-15 191.24,-15 199.84,-15"/>
<polygon fill="#63b8ff" stroke="#63b8ff" points="199.93,-18.5 209.93,-15 199.93,-11.5 199.93,-18.5"/>
</a>
</g>
</g>
<!-- Node2&#45;&gt;Node2 -->
<g id="edge2_Node000002_Node000002" class="edge">
<title>Node2&#45;&gt;Node2</title>
<g id="a_edge2_Node000002_Node000002"><a xlink:title=" ">
<path fill="none" stroke="#63b8ff" d="M275.28,-24.58C258.64,-33.23 270.04,-42.5 309.5,-42.5 338.48,-42.5 352.32,-37.5 351.04,-31.42"/>
<polygon fill="#63b8ff" stroke="#63b8ff" points="353.42,-28.85 343.72,-24.58 348.64,-33.96 353.42,-28.85"/>
</a>
</g>
</g>
</g>
</svg>
