<?xml version="1.0" encoding="UTF-8" standalone="no"?>
<!DOCTYPE svg PUBLIC "-//W3C//DTD SVG 1.1//EN"
 "http://www.w3.org/Graphics/SVG/1.1/DTD/svg11.dtd">
<!-- Generated by graphviz version 2.43.0 (0)
 -->
<!-- Title: cam.curvecamtools.CamCurveConvexHull Pages: 1 -->
<svg width="227pt" height="190pt"
 viewBox="0.00 0.00 226.50 190.00" xmlns="http://www.w3.org/2000/svg" xmlns:xlink="http://www.w3.org/1999/xlink">

<svg id="main" version="1.1" xmlns="http://www.w3.org/2000/svg" xmlns:xlink="http://www.w3.org/1999/xlink" xml:space="preserve" onload="init(evt)">
<style type="text/css"><![CDATA[
.node, .edge {opacity: 0.7;}
.node.selected, .edge.selected {opacity: 1;}
.edge:hover path { stroke: red; }
.edge:hover polygon { stroke: red; fill: red; }
]]></style>
<script type="application/ecmascript" xlink:href="svg.min.js"/>
<svg id="graph" class="graph">
<g id="graph0" class="graph" transform="scale(1 1) rotate(0) translate(4 186)">
<title>cam.curvecamtools.CamCurveConvexHull</title>
<!-- Node1 -->
<g id="Node000001" class="node">
<title>Node1</title>
<g id="a_Node000001"><a xlink:title=" ">
<polygon fill="#999999" stroke="transparent" points="163,-75 2,-75 2,0 163,0 163,-75"/>
<text text-anchor="start" x="7.5" y="-62.5" font-family="Helvetica,sans-Serif" font-size="10.00">cam.curvecamtools.CamCurve</text>
<text text-anchor="start" x="54.5" y="-51.5" font-family="Helvetica,sans-Serif" font-size="10.00">ConvexHull</text>
<text text-anchor="start" x="81" y="-36.5" font-family="Helvetica,sans-Serif" font-size="10.00"> </text>
<text text-anchor="start" x="30" y="-21.5" font-family="Helvetica,sans-Serif" font-size="10.00">+</text>
<text text-anchor="start" x="66.5" y="-21.5" font-family="Helvetica,sans-Serif" font-size="10.00">poll()</text>
<text text-anchor="start" x="30" y="-6.5" font-family="Helvetica,sans-Serif" font-size="10.00">+</text>
<text text-anchor="start" x="66.5" y="-6.5" font-family="Helvetica,sans-Serif" font-size="10.00">execute()</text>
<polygon fill="#666666" stroke="#666666" points="2.5,-46.5 2.5,-46.5 163.5,-46.5 163.5,-46.5 2.5,-46.5"/>
<polygon fill="#666666" stroke="#666666" points="2.5,-31.5 2.5,-31.5 163.5,-31.5 163.5,-31.5 2.5,-31.5"/>
<polygon fill="none" stroke="#666666" points="2,0 2,-75 163,-75 163,0 2,0"/>
</a>
</g>
</g>
<!-- Node2 -->
<g id="Node000002" class="node">
<title>Node2</title>
<g id="a_Node000002"><a xlink:title=" ">
<polygon fill="white" stroke="transparent" points="53,-182 0,-182 0,-133 53,-133 53,-182"/>
<text text-anchor="start" x="5.5" y="-169.5" font-family="Helvetica,sans-Serif" font-size="10.00">Operator</text>
<text text-anchor="start" x="25" y="-154.5" font-family="Helvetica,sans-Serif" font-size="10.00"> </text>
<text text-anchor="start" x="25" y="-139.5" font-family="Helvetica,sans-Serif" font-size="10.00"> </text>
<polygon fill="#666666" stroke="#666666" points="0.5,-164.5 0.5,-164.5 53.5,-164.5 53.5,-164.5 0.5,-164.5"/>
<polygon fill="#666666" stroke="#666666" points="0.5,-149.5 0.5,-149.5 53.5,-149.5 53.5,-149.5 0.5,-149.5"/>
<polygon fill="none" stroke="#666666" points="0,-133 0,-182 53,-182 53,-133 0,-133"/>
</a>
</g>
</g>
<!-- Node2&#45;&gt;Node1 -->
<g id="edge1_Node000001_Node000002" class="edge">
<title>Node2&#45;&gt;Node1</title>
<g id="a_edge1_Node000001_Node000002"><a xlink:title=" ">
<path fill="none" stroke="#63b8ff" d="M42.18,-123.47C49.32,-108.41 57.81,-90.53 65.15,-75.07"/>
<polygon fill="none" stroke="#63b8ff" points="38.82,-122.37 37.7,-132.9 45.15,-125.37 38.82,-122.37"/>
</a>
</g>
</g>
<!-- Node3 -->
<g id="Node000003" class="node">
<title>Node3</title>
<g id="a_Node000003"><a xlink:title=" ">
<polygon fill="white" stroke="transparent" points="94,-182 71,-182 71,-133 94,-133 94,-182"/>
<text text-anchor="start" x="76.5" y="-169.5" font-family="Helvetica,sans-Serif" font-size="10.00">str</text>
<text text-anchor="start" x="81" y="-154.5" font-family="Helvetica,sans-Serif" font-size="10.00"> </text>
<text text-anchor="start" x="81" y="-139.5" font-family="Helvetica,sans-Serif" font-size="10.00"> </text>
<polygon fill="#666666" stroke="#666666" points="71.5,-164.5 71.5,-164.5 94.5,-164.5 94.5,-164.5 71.5,-164.5"/>
<polygon fill="#666666" stroke="#666666" points="71.5,-149.5 71.5,-149.5 94.5,-149.5 94.5,-149.5 71.5,-149.5"/>
<polygon fill="none" stroke="#666666" points="71,-133 71,-182 94,-182 94,-133 71,-133"/>
</a>
</g>
</g>
<!-- Node3&#45;&gt;Node1 -->
<g id="edge2_Node000001_Node000003" class="edge">
<title>Node3&#45;&gt;Node1</title>
<g id="a_edge2_Node000001_Node000003"><a xlink:title=" ">
<path fill="none" stroke="#63b8ff" d="M82.5,-132.9C82.5,-119.85 82.5,-103.12 82.5,-87.39"/>
<polygon fill="none" stroke="#63b8ff" points="82.5,-87.07 78.5,-81.07 82.5,-75.07 86.5,-81.07 82.5,-87.07"/>
</a>
</g>
<text text-anchor="middle" x="114" y="-107" font-family="Helvetica,sans-Serif" font-size="10.00" fill="grey"> +bl_idname</text>
<text text-anchor="middle" x="114" y="-96" font-family="Helvetica,sans-Serif" font-size="10.00" fill="grey">+bl_label</text>
</g>
<!-- Node4 -->
<g id="Node000004" class="node">
<title>Node4</title>
<g id="a_Node000004"><a xlink:title=" ">
<polygon fill="white" stroke="transparent" points="183,-182 154,-182 154,-133 183,-133 183,-182"/>
<text text-anchor="start" x="159.5" y="-169.5" font-family="Helvetica,sans-Serif" font-size="10.00">dict</text>
<text text-anchor="start" x="167" y="-154.5" font-family="Helvetica,sans-Serif" font-size="10.00"> </text>
<text text-anchor="start" x="167" y="-139.5" font-family="Helvetica,sans-Serif" font-size="10.00"> </text>
<polygon fill="#666666" stroke="#666666" points="154.5,-164.5 154.5,-164.5 183.5,-164.5 183.5,-164.5 154.5,-164.5"/>
<polygon fill="#666666" stroke="#666666" points="154.5,-149.5 154.5,-149.5 183.5,-149.5 183.5,-149.5 154.5,-149.5"/>
<polygon fill="none" stroke="#666666" points="154,-133 154,-182 183,-182 183,-133 154,-133"/>
</a>
</g>
</g>
<!-- Node4&#45;&gt;Node1 -->
<g id="edge3_Node000001_Node000004" class="edge">
<title>Node4&#45;&gt;Node1</title>
<g id="a_edge3_Node000001_Node000004"><a xlink:title=" ">
<path fill="none" stroke="#63b8ff" d="M163.49,-132.79C160.08,-120.22 154.66,-104.94 146.5,-93 144.43,-89.97 142.14,-87 139.71,-84.12"/>
<polygon fill="none" stroke="#63b8ff" points="139.64,-84.05 132.63,-82.35 131.49,-75.23 138.5,-76.92 139.64,-84.05"/>
</a>
</g>
<text text-anchor="middle" x="187.5" y="-101.5" font-family="Helvetica,sans-Serif" font-size="10.00" fill="grey"> +bl_options</text>
</g>
</g>
</svg>
</svg>

<style type='text/css'>
<![CDATA[
[data-mouse-over-selected='false'] { opacity: 0.7; }
[data-mouse-over-selected='true']  { opacity: 1.0; }
]]>
</style>
<script type="application/ecmascript"><![CDATA[
document.addEventListener('DOMContentLoaded', (event) => {
  highlightEdges();
  highlightAdjacentNodes();
});
]]></script>
</svg>
