<?xml version="1.0" encoding="UTF-8" standalone="no"?>
<!DOCTYPE svg PUBLIC "-//W3C//DTD SVG 1.1//EN"
 "http://www.w3.org/Graphics/SVG/1.1/DTD/svg11.dtd">
<!-- Generated by graphviz version 2.43.0 (0)
 -->
<!-- Title: cam.ui_panels.movement.CAM_MOVEMENT_Properties Pages: 1 -->
<svg width="171pt" height="303pt"
 viewBox="0.00 0.00 171.00 303.00" xmlns="http://www.w3.org/2000/svg" xmlns:xlink="http://www.w3.org/1999/xlink">
<g id="graph0" class="graph" transform="scale(1 1) rotate(0) translate(4 299)">
<title>cam.ui_panels.movement.CAM_MOVEMENT_Properties</title>
<!-- Node1 -->
<g id="Node000001" class="node">
<title>Node1</title>
<g id="a_Node000001"><a xlink:title=" ">
<polygon fill="#999999" stroke="transparent" points="163,-210 0,-210 0,0 163,0 163,-210"/>
<text text-anchor="start" x="5.5" y="-198" font-family="Helvetica,sans-Serif" font-size="10.00">cam.ui_panels.movement.CAM</text>
<text text-anchor="start" x="23" y="-187" font-family="Helvetica,sans-Serif" font-size="10.00">_MOVEMENT_Properties</text>
<text text-anchor="start" x="17" y="-172" font-family="Helvetica,sans-Serif" font-size="10.00">+</text>
<text text-anchor="start" x="42.5" y="-172" font-family="Helvetica,sans-Serif" font-size="10.00">type</text>
<text text-anchor="start" x="17" y="-157" font-family="Helvetica,sans-Serif" font-size="10.00">+</text>
<text text-anchor="start" x="42.5" y="-157" font-family="Helvetica,sans-Serif" font-size="10.00">insideout</text>
<text text-anchor="start" x="17" y="-142" font-family="Helvetica,sans-Serif" font-size="10.00">+</text>
<text text-anchor="start" x="42.5" y="-142" font-family="Helvetica,sans-Serif" font-size="10.00">spindle_rotation</text>
<text text-anchor="start" x="17" y="-127" font-family="Helvetica,sans-Serif" font-size="10.00">+</text>
<text text-anchor="start" x="42.5" y="-127" font-family="Helvetica,sans-Serif" font-size="10.00">free_height</text>
<text text-anchor="start" x="17" y="-112" font-family="Helvetica,sans-Serif" font-size="10.00">+</text>
<text text-anchor="start" x="42.5" y="-112" font-family="Helvetica,sans-Serif" font-size="10.00">useG64</text>
<text text-anchor="start" x="17" y="-97" font-family="Helvetica,sans-Serif" font-size="10.00">+</text>
<text text-anchor="start" x="42.5" y="-97" font-family="Helvetica,sans-Serif" font-size="10.00">G64</text>
<text text-anchor="start" x="17" y="-82" font-family="Helvetica,sans-Serif" font-size="10.00">+</text>
<text text-anchor="start" x="42.5" y="-82" font-family="Helvetica,sans-Serif" font-size="10.00">parallel_step_back</text>
<text text-anchor="start" x="17" y="-67" font-family="Helvetica,sans-Serif" font-size="10.00">+</text>
<text text-anchor="start" x="42.5" y="-67" font-family="Helvetica,sans-Serif" font-size="10.00">helix_enter</text>
<text text-anchor="start" x="17" y="-52" font-family="Helvetica,sans-Serif" font-size="10.00">+</text>
<text text-anchor="start" x="42.5" y="-52" font-family="Helvetica,sans-Serif" font-size="10.00">ramp_in_angle</text>
<text text-anchor="start" x="17" y="-37" font-family="Helvetica,sans-Serif" font-size="10.00">+</text>
<text text-anchor="start" x="42.5" y="-37" font-family="Helvetica,sans-Serif" font-size="10.00">helix_diameter</text>
<text text-anchor="start" x="42.5" y="-22" font-family="Helvetica,sans-Serif" font-size="10.00">and 10 more...</text>
<text text-anchor="start" x="80" y="-7" font-family="Helvetica,sans-Serif" font-size="10.00"> </text>
<polygon fill="#666666" stroke="#666666" points="0.5,-182 0.5,-182 163.5,-182 163.5,-182 0.5,-182"/>
<polygon fill="#666666" stroke="#666666" points="0.5,-17 0.5,-17 40.5,-17 40.5,-17 0.5,-17"/>
<polygon fill="#666666" stroke="#666666" points="40.5,-17 40.5,-17 163.5,-17 163.5,-17 40.5,-17"/>
<polygon fill="none" stroke="#666666" points="0,0 0,-210 163,-210 163,0 0,0"/>
</a>
</g>
</g>
<!-- Node2 -->
<g id="Node000002" class="node">
<title>Node2</title>
<g id="a_Node000002"><a xlink:title=" ">
<polygon fill="white" stroke="transparent" points="122,-295 41,-295 41,-246 122,-246 122,-295"/>
<text text-anchor="start" x="46.5" y="-282.5" font-family="Helvetica,sans-Serif" font-size="10.00">PropertyGroup</text>
<text text-anchor="start" x="80" y="-267.5" font-family="Helvetica,sans-Serif" font-size="10.00"> </text>
<text text-anchor="start" x="80" y="-252.5" font-family="Helvetica,sans-Serif" font-size="10.00"> </text>
<polygon fill="#666666" stroke="#666666" points="41.5,-277.5 41.5,-277.5 122.5,-277.5 122.5,-277.5 41.5,-277.5"/>
<polygon fill="#666666" stroke="#666666" points="41.5,-262.5 41.5,-262.5 122.5,-262.5 122.5,-262.5 41.5,-262.5"/>
<polygon fill="none" stroke="#666666" points="41,-246 41,-295 122,-295 122,-246 41,-246"/>
</a>
</g>
</g>
<!-- Node2&#45;&gt;Node1 -->
<g id="edge1_Node000001_Node000002" class="edge">
<title>Node2&#45;&gt;Node1</title>
<g id="a_edge1_Node000001_Node000002"><a xlink:title=" ">
<path fill="none" stroke="#63b8ff" d="M81.5,-235.69C81.5,-227.89 81.5,-219.18 81.5,-210.08"/>
<polygon fill="none" stroke="#63b8ff" points="78,-235.73 81.5,-245.73 85,-235.73 78,-235.73"/>
</a>
</g>
</g>
</g>
</svg>
