<?xml version="1.0" encoding="UTF-8" standalone="no"?>
<!DOCTYPE svg PUBLIC "-//W3C//DTD SVG 1.1//EN"
 "http://www.w3.org/Graphics/SVG/1.1/DTD/svg11.dtd">
<!-- Generated by graphviz version 2.43.0 (0)
 -->
<!-- Title: cam.nc.iso.Creator.write_spindle Pages: 1 -->
<svg width="1223pt" height="487pt"
 viewBox="0.00 0.00 1223.00 486.50" xmlns="http://www.w3.org/2000/svg" xmlns:xlink="http://www.w3.org/1999/xlink">
<g id="graph0" class="graph" transform="scale(1 1) rotate(0) translate(4 482.5)">
<title>cam.nc.iso.Creator.write_spindle</title>
<!-- Node1 -->
<g id="Node000001" class="node">
<title>Node1</title>
<g id="a_Node000001"><a xlink:title=" ">
<polygon fill="#999999" stroke="#666666" points="135,-291 0,-291 0,-261 135,-261 135,-291"/>
<text text-anchor="start" x="8" y="-279" font-family="Helvetica,sans-Serif" font-size="10.00">cam.nc.iso.Creator.write</text>
<text text-anchor="middle" x="67.5" y="-268" font-family="Helvetica,sans-Serif" font-size="10.00">_spindle</text>
</a>
</g>
</g>
<!-- Node2 -->
<g id="Node000002" class="node">
<title>Node2</title>
<g id="a_Node000002"><a xlink:href="classcam_1_1nc_1_1cad__nc__read_1_1Parser.html#adcf2f47949df29f187f27fe985884633" target="_top" xlink:title=" ">
<polygon fill="white" stroke="#666666" points="358.5,-460.5 182.5,-460.5 182.5,-441.5 358.5,-441.5 358.5,-460.5"/>
<text text-anchor="middle" x="270.5" y="-448.5" font-family="Helvetica,sans-Serif" font-size="10.00">cam.nc.cad_nc_read.Parser.write</text>
</a>
</g>
</g>
<!-- Node1&#45;&gt;Node2 -->
<g id="edge1_Node000001_Node000002" class="edge">
<title>Node1&#45;&gt;Node2</title>
<g id="a_edge1_Node000001_Node000002"><a xlink:title=" ">
<path fill="none" stroke="#63b8ff" d="M73.63,-291.03C85.36,-322.92 117.32,-397.32 171,-433 173.3,-434.53 175.69,-435.93 178.15,-437.23"/>
<polygon fill="#63b8ff" stroke="#63b8ff" points="176.8,-440.46 187.35,-441.45 179.72,-434.1 176.8,-440.46"/>
</a>
</g>
</g>
<!-- Node3 -->
<g id="Node000003" class="node">
<title>Node3</title>
<g id="a_Node000003"><a xlink:href="classcam_1_1nc_1_1hxml__writer_1_1HxmlWriter.html#aed6f93c98cb8c0e3f3e826e75b6d6f15" target="_top" xlink:title=" ">
<polygon fill="white" stroke="#666666" points="370,-405.5 171,-405.5 171,-386.5 370,-386.5 370,-405.5"/>
<text text-anchor="middle" x="270.5" y="-393.5" font-family="Helvetica,sans-Serif" font-size="10.00">cam.nc.hxml_writer.HxmlWriter.write</text>
</a>
</g>
</g>
<!-- Node1&#45;&gt;Node3 -->
<g id="edge3_Node000001_Node000003" class="edge">
<title>Node1&#45;&gt;Node3</title>
<g id="a_edge3_Node000001_Node000003"><a xlink:title=" ">
<path fill="none" stroke="#63b8ff" d="M79.09,-291.33C95.79,-314.2 130.51,-356.83 171,-378 174.58,-379.87 178.32,-381.55 182.17,-383.06"/>
<polygon fill="#63b8ff" stroke="#63b8ff" points="181.31,-386.47 191.9,-386.47 183.62,-379.86 181.31,-386.47"/>
</a>
</g>
</g>
<!-- Node4 -->
<g id="Node000004" class="node">
<title>Node4</title>
<g id="a_Node000004"><a xlink:href="classcam_1_1nc_1_1iso_1_1Creator.html#abb81af5a0bdddfed387b71b68a51cc7a" target="_top" xlink:title="Internals.">
<polygon fill="white" stroke="#666666" points="338,-368.5 203,-368.5 203,-349.5 338,-349.5 338,-368.5"/>
<text text-anchor="middle" x="270.5" y="-356.5" font-family="Helvetica,sans-Serif" font-size="10.00">cam.nc.iso.Creator.write</text>
</a>
</g>
</g>
<!-- Node1&#45;&gt;Node4 -->
<g id="edge5_Node000001_Node000004" class="edge">
<title>Node1&#45;&gt;Node4</title>
<g id="a_edge5_Node000001_Node000004"><a xlink:title=" ">
<path fill="none" stroke="#63b8ff" d="M87.32,-291.1C107.01,-306.12 139.41,-328.64 171,-341 177.98,-343.73 185.4,-346.05 192.92,-348.02"/>
<polygon fill="#63b8ff" stroke="#63b8ff" points="192.28,-351.47 202.83,-350.42 193.93,-344.67 192.28,-351.47"/>
</a>
</g>
</g>
<!-- Node5 -->
<g id="Node000005" class="node">
<title>Node5</title>
<g id="a_Node000005"><a xlink:href="classcam_1_1nc_1_1nc_1_1Creator.html#a80f2134add83bfaaf2870d075d36ed8a" target="_top" xlink:title=" ">
<polygon fill="white" stroke="#666666" points="336.5,-313.5 204.5,-313.5 204.5,-294.5 336.5,-294.5 336.5,-313.5"/>
<text text-anchor="middle" x="270.5" y="-301.5" font-family="Helvetica,sans-Serif" font-size="10.00">cam.nc.nc.Creator.write</text>
</a>
</g>
</g>
<!-- Node1&#45;&gt;Node5 -->
<g id="edge6_Node000001_Node000005" class="edge">
<title>Node1&#45;&gt;Node5</title>
<g id="a_edge6_Node000001_Node000005"><a xlink:title=" ">
<path fill="none" stroke="#63b8ff" d="M135.15,-285.28C154.13,-287.93 174.93,-290.83 194.37,-293.53"/>
<polygon fill="#63b8ff" stroke="#63b8ff" points="194.01,-297.02 204.4,-294.93 194.98,-290.08 194.01,-297.02"/>
</a>
</g>
</g>
<!-- Node6 -->
<g id="Node000006" class="node">
<title>Node6</title>
<g id="a_Node000006"><a xlink:href="classcam_1_1nc_1_1nclathe__read_1_1Parser.html#ab5ea283b461b57e48c8d5b0ad0a45694" target="_top" xlink:title=" ">
<polygon fill="white" stroke="#666666" points="359.5,-258.5 181.5,-258.5 181.5,-239.5 359.5,-239.5 359.5,-258.5"/>
<text text-anchor="middle" x="270.5" y="-246.5" font-family="Helvetica,sans-Serif" font-size="10.00">cam.nc.nclathe_read.Parser.write</text>
</a>
</g>
</g>
<!-- Node1&#45;&gt;Node6 -->
<g id="edge8_Node000001_Node000006" class="edge">
<title>Node1&#45;&gt;Node6</title>
<g id="a_edge8_Node000001_Node000006"><a xlink:title=" ">
<path fill="none" stroke="#63b8ff" d="M135.15,-267.05C152.15,-264.76 170.62,-262.28 188.27,-259.91"/>
<polygon fill="#63b8ff" stroke="#63b8ff" points="189.1,-263.33 198.54,-258.53 188.17,-256.39 189.1,-263.33"/>
</a>
</g>
</g>
<!-- Node7 -->
<g id="Node000007" class="node">
<title>Node7</title>
<g id="a_Node000007"><a xlink:href="classcam_1_1nc_1_1recreator_1_1Redirector.html#a79cc974683588db3ef959189e7552c0d" target="_top" xlink:title="Programs.">
<polygon fill="white" stroke="#666666" points="360,-203.5 181,-203.5 181,-184.5 360,-184.5 360,-203.5"/>
<text text-anchor="middle" x="270.5" y="-191.5" font-family="Helvetica,sans-Serif" font-size="10.00">cam.nc.recreator.Redirector.write</text>
</a>
</g>
</g>
<!-- Node1&#45;&gt;Node7 -->
<g id="edge10_Node000001_Node000007" class="edge">
<title>Node1&#45;&gt;Node7</title>
<g id="a_edge10_Node000001_Node000007"><a xlink:title=" ">
<path fill="none" stroke="#63b8ff" d="M101.54,-260.95C121.53,-251.98 147.6,-240.52 171,-231 191.51,-222.65 214.68,-213.92 233.39,-207.03"/>
<polygon fill="#63b8ff" stroke="#63b8ff" points="234.82,-210.23 243.01,-203.51 232.42,-203.66 234.82,-210.23"/>
</a>
</g>
</g>
<!-- Node8 -->
<g id="Node000008" class="node">
<title>Node8</title>
<g id="a_Node000008"><a xlink:href="classcam_1_1nc_1_1format_1_1Address.html#aa21f0ffeb829537d9103759276c01a4b" target="_top" xlink:title=" ">
<polygon fill="white" stroke="#666666" points="349.5,-166.5 191.5,-166.5 191.5,-147.5 349.5,-147.5 349.5,-166.5"/>
<text text-anchor="middle" x="270.5" y="-154.5" font-family="Helvetica,sans-Serif" font-size="10.00">cam.nc.format.Address.write</text>
</a>
</g>
</g>
<!-- Node1&#45;&gt;Node8 -->
<g id="edge12_Node000001_Node000008" class="edge">
<title>Node1&#45;&gt;Node8</title>
<g id="a_edge12_Node000001_Node000008"><a xlink:title=" ">
<path fill="none" stroke="#63b8ff" d="M79.47,-260.65C96.4,-238.21 131.12,-196.85 171,-176 175.51,-173.64 180.28,-171.57 185.19,-169.76"/>
<polygon fill="#63b8ff" stroke="#63b8ff" points="186.38,-173.05 194.76,-166.57 184.17,-166.41 186.38,-173.05"/>
</a>
</g>
</g>
<!-- Node19 -->
<g id="Node000019" class="node">
<title>Node19</title>
<g id="a_Node000019"><a xlink:href="classcam_1_1nc_1_1format_1_1AddressPlusMinus.html#aaacea4c7b677f0a602dbc9023ff365d2" target="_top" xlink:title=" ">
<polygon fill="white" stroke="#666666" points="345.5,-129 195.5,-129 195.5,-99 345.5,-99 345.5,-129"/>
<text text-anchor="start" x="203.5" y="-117" font-family="Helvetica,sans-Serif" font-size="10.00">cam.nc.format.AddressPlus</text>
<text text-anchor="middle" x="270.5" y="-106" font-family="Helvetica,sans-Serif" font-size="10.00">Minus.write</text>
</a>
</g>
</g>
<!-- Node1&#45;&gt;Node19 -->
<g id="edge25_Node000001_Node000019" class="edge">
<title>Node1&#45;&gt;Node19</title>
<g id="a_edge25_Node000001_Node000019"><a xlink:title=" ">
<path fill="none" stroke="#63b8ff" d="M75.35,-260.82C89.11,-232.1 122.99,-169.83 171,-138 175.63,-134.93 180.62,-132.25 185.8,-129.92"/>
<polygon fill="#63b8ff" stroke="#63b8ff" points="187.35,-133.07 195.31,-126.07 184.72,-126.58 187.35,-133.07"/>
</a>
</g>
</g>
<!-- Node2&#45;&gt;Node2 -->
<g id="edge2_Node000002_Node000002" class="edge">
<title>Node2&#45;&gt;Node2</title>
<g id="a_edge2_Node000002_Node000002"><a xlink:title=" ">
<path fill="none" stroke="#63b8ff" d="M239.37,-460.58C224.22,-469.23 234.6,-478.5 270.5,-478.5 295.74,-478.5 308.37,-473.92 308.37,-468.19"/>
<polygon fill="#63b8ff" stroke="#63b8ff" points="310.89,-465.75 301.63,-460.58 305.65,-470.39 310.89,-465.75"/>
</a>
</g>
</g>
<!-- Node3&#45;&gt;Node3 -->
<g id="edge4_Node000003_Node000003" class="edge">
<title>Node3&#45;&gt;Node3</title>
<g id="a_edge4_Node000003_Node000003"><a xlink:title=" ">
<path fill="none" stroke="#63b8ff" d="M239.37,-405.58C224.22,-414.23 234.6,-423.5 270.5,-423.5 295.74,-423.5 308.37,-418.92 308.37,-413.19"/>
<polygon fill="#63b8ff" stroke="#63b8ff" points="310.89,-410.75 301.63,-405.58 305.65,-415.39 310.89,-410.75"/>
</a>
</g>
</g>
<!-- Node5&#45;&gt;Node5 -->
<g id="edge7_Node000005_Node000005" class="edge">
<title>Node5&#45;&gt;Node5</title>
<g id="a_edge7_Node000005_Node000005"><a xlink:title=" ">
<path fill="none" stroke="#63b8ff" d="M239.37,-313.58C224.22,-322.23 234.6,-331.5 270.5,-331.5 295.74,-331.5 308.37,-326.92 308.37,-321.19"/>
<polygon fill="#63b8ff" stroke="#63b8ff" points="310.89,-318.75 301.63,-313.58 305.65,-323.39 310.89,-318.75"/>
</a>
</g>
</g>
<!-- Node6&#45;&gt;Node6 -->
<g id="edge9_Node000006_Node000006" class="edge">
<title>Node6&#45;&gt;Node6</title>
<g id="a_edge9_Node000006_Node000006"><a xlink:title=" ">
<path fill="none" stroke="#63b8ff" d="M239.37,-258.58C224.22,-267.23 234.6,-276.5 270.5,-276.5 295.74,-276.5 308.37,-271.92 308.37,-266.19"/>
<polygon fill="#63b8ff" stroke="#63b8ff" points="310.89,-263.75 301.63,-258.58 305.65,-268.39 310.89,-263.75"/>
</a>
</g>
</g>
<!-- Node7&#45;&gt;Node7 -->
<g id="edge11_Node000007_Node000007" class="edge">
<title>Node7&#45;&gt;Node7</title>
<g id="a_edge11_Node000007_Node000007"><a xlink:title=" ">
<path fill="none" stroke="#63b8ff" d="M239.37,-203.58C224.22,-212.23 234.6,-221.5 270.5,-221.5 295.74,-221.5 308.37,-216.92 308.37,-211.19"/>
<polygon fill="#63b8ff" stroke="#63b8ff" points="310.89,-208.75 301.63,-203.58 305.65,-213.39 310.89,-208.75"/>
</a>
</g>
</g>
<!-- Node9 -->
<g id="Node000009" class="node">
<title>Node9</title>
<g id="a_Node000009"><a xlink:href="classcam_1_1async__op_1_1AsyncOperatorMixin.html#a9628cbca8e69ec75b2337171a02bf428" target="_top" xlink:title=" ">
<polygon fill="white" stroke="#666666" points="567,-150 406,-150 406,-120 567,-120 567,-150"/>
<text text-anchor="start" x="414" y="-138" font-family="Helvetica,sans-Serif" font-size="10.00">cam.async_op.AsyncOperator</text>
<text text-anchor="middle" x="486.5" y="-127" font-family="Helvetica,sans-Serif" font-size="10.00">Mixin.modal</text>
</a>
</g>
</g>
<!-- Node8&#45;&gt;Node9 -->
<g id="edge13_Node000008_Node000009" class="edge">
<title>Node8&#45;&gt;Node9</title>
<g id="a_edge13_Node000008_Node000009"><a xlink:title=" ">
<path fill="none" stroke="#63b8ff" d="M349.67,-148.96C364.65,-147.42 380.45,-145.8 395.77,-144.22"/>
<polygon fill="#63b8ff" stroke="#63b8ff" points="396.16,-147.7 405.75,-143.2 395.45,-140.74 396.16,-147.7"/>
</a>
</g>
</g>
<!-- Node10 -->
<g id="Node000010" class="node">
<title>Node10</title>
<g id="a_Node000010"><a xlink:href="classcam_1_1async__op_1_1AsyncOperatorMixin.html#a15a51cfd69d8e453e2e3d64386b1ebe3" target="_top" xlink:title=" ">
<polygon fill="white" stroke="#666666" points="764,-150 603,-150 603,-120 764,-120 764,-150"/>
<text text-anchor="start" x="611" y="-138" font-family="Helvetica,sans-Serif" font-size="10.00">cam.async_op.AsyncOperator</text>
<text text-anchor="middle" x="683.5" y="-127" font-family="Helvetica,sans-Serif" font-size="10.00">Mixin.tick</text>
</a>
</g>
</g>
<!-- Node9&#45;&gt;Node10 -->
<g id="edge14_Node000009_Node000010" class="edge">
<title>Node9&#45;&gt;Node10</title>
<g id="a_edge14_Node000009_Node000010"><a xlink:title=" ">
<path fill="none" stroke="#63b8ff" d="M567.1,-135C575.57,-135 584.24,-135 592.82,-135"/>
<polygon fill="#63b8ff" stroke="#63b8ff" points="592.84,-138.5 602.84,-135 592.84,-131.5 592.84,-138.5"/>
</a>
</g>
</g>
<!-- Node11 -->
<g id="Node000011" class="node">
<title>Node11</title>
<g id="a_Node000011"><a xlink:href="classcam_1_1async__op_1_1AsyncTestOperator.html#a42606ca890a957aa7070a4bc6f25228b" target="_top" xlink:title=" ">
<polygon fill="white" stroke="#666666" points="1021,-270 800,-270 800,-240 1021,-240 1021,-270"/>
<text text-anchor="start" x="808" y="-258" font-family="Helvetica,sans-Serif" font-size="10.00">cam.async_op.AsyncTestOperator.execute</text>
<text text-anchor="middle" x="910.5" y="-247" font-family="Helvetica,sans-Serif" font-size="10.00">_async</text>
</a>
</g>
</g>
<!-- Node10&#45;&gt;Node11 -->
<g id="edge15_Node000010_Node000011" class="edge">
<title>Node10&#45;&gt;Node11</title>
<g id="a_edge15_Node000010_Node000011"><a xlink:title=" ">
<path fill="none" stroke="#63b8ff" d="M698.18,-150.27C718.31,-171.74 758.07,-210.51 800,-231 804.09,-233 808.35,-234.84 812.72,-236.52"/>
<polygon fill="#63b8ff" stroke="#63b8ff" points="811.81,-239.91 822.41,-239.97 814.16,-233.32 811.81,-239.91"/>
</a>
</g>
</g>
<!-- Node12 -->
<g id="Node000012" class="node">
<title>Node12</title>
<g id="a_Node000012"><a xlink:href="classcam_1_1ops_1_1CalculatePath.html#a13dfe2f8578383234e74e58e2f292e1b" target="_top" xlink:title=" ">
<polygon fill="white" stroke="#666666" points="995,-222 826,-222 826,-192 995,-192 995,-222"/>
<text text-anchor="start" x="834" y="-210" font-family="Helvetica,sans-Serif" font-size="10.00">cam.ops.CalculatePath.execute</text>
<text text-anchor="middle" x="910.5" y="-199" font-family="Helvetica,sans-Serif" font-size="10.00">_async</text>
</a>
</g>
</g>
<!-- Node10&#45;&gt;Node12 -->
<g id="edge16_Node000010_Node000012" class="edge">
<title>Node10&#45;&gt;Node12</title>
<g id="a_edge16_Node000010_Node000012"><a xlink:title=" ">
<path fill="none" stroke="#63b8ff" d="M716.29,-150.01C739.18,-160.38 771,-173.88 800,-183 807.31,-185.3 814.96,-187.46 822.68,-189.47"/>
<polygon fill="#63b8ff" stroke="#63b8ff" points="821.91,-192.89 832.46,-191.93 823.62,-186.1 821.91,-192.89"/>
</a>
</g>
</g>
<!-- Node14 -->
<g id="Node000014" class="node">
<title>Node14</title>
<g id="a_Node000014"><a xlink:href="classcam_1_1ops_1_1PathsChain.html#a6fc64e383ccf724b2325e18a82d53eae" target="_top" xlink:title=" ">
<polygon fill="white" stroke="#666666" points="988.5,-174 832.5,-174 832.5,-144 988.5,-144 988.5,-174"/>
<text text-anchor="start" x="840.5" y="-162" font-family="Helvetica,sans-Serif" font-size="10.00">cam.ops.PathsChain.execute</text>
<text text-anchor="middle" x="910.5" y="-151" font-family="Helvetica,sans-Serif" font-size="10.00">_async</text>
</a>
</g>
</g>
<!-- Node10&#45;&gt;Node14 -->
<g id="edge18_Node000010_Node000014" class="edge">
<title>Node10&#45;&gt;Node14</title>
<g id="a_edge18_Node000010_Node000014"><a xlink:title=" ">
<path fill="none" stroke="#63b8ff" d="M764.14,-143.5C782.9,-145.5 802.98,-147.64 822.06,-149.67"/>
<polygon fill="#63b8ff" stroke="#63b8ff" points="821.92,-153.18 832.23,-150.76 822.66,-146.22 821.92,-153.18"/>
</a>
</g>
</g>
<!-- Node16 -->
<g id="Node000016" class="node">
<title>Node16</title>
<g id="a_Node000016"><a xlink:href="classcam_1_1ops_1_1CAMSimulate.html#a633151f17849d281fd52ce82c00356a7" target="_top" xlink:title=" ">
<polygon fill="white" stroke="#666666" points="994.5,-126 826.5,-126 826.5,-96 994.5,-96 994.5,-126"/>
<text text-anchor="start" x="834.5" y="-114" font-family="Helvetica,sans-Serif" font-size="10.00">cam.ops.CAMSimulate.execute</text>
<text text-anchor="middle" x="910.5" y="-103" font-family="Helvetica,sans-Serif" font-size="10.00">_async</text>
</a>
</g>
</g>
<!-- Node10&#45;&gt;Node16 -->
<g id="edge21_Node000010_Node000016" class="edge">
<title>Node10&#45;&gt;Node16</title>
<g id="a_edge21_Node000010_Node000016"><a xlink:title=" ">
<path fill="none" stroke="#63b8ff" d="M764.14,-126.5C780.95,-124.71 798.82,-122.81 816.08,-120.97"/>
<polygon fill="#63b8ff" stroke="#63b8ff" points="816.58,-124.43 826.15,-119.89 815.84,-117.47 816.58,-124.43"/>
</a>
</g>
</g>
<!-- Node17 -->
<g id="Node000017" class="node">
<title>Node17</title>
<g id="a_Node000017"><a xlink:href="classcam_1_1ops_1_1CAMSimulateChain.html#a1e77c7ce21b3b7e3e38a12b6b62517e9" target="_top" xlink:title=" ">
<polygon fill="white" stroke="#666666" points="1008.5,-78 812.5,-78 812.5,-48 1008.5,-48 1008.5,-78"/>
<text text-anchor="start" x="820.5" y="-66" font-family="Helvetica,sans-Serif" font-size="10.00">cam.ops.CAMSimulateChain.execute</text>
<text text-anchor="middle" x="910.5" y="-55" font-family="Helvetica,sans-Serif" font-size="10.00">_async</text>
</a>
</g>
</g>
<!-- Node10&#45;&gt;Node17 -->
<g id="edge22_Node000010_Node000017" class="edge">
<title>Node10&#45;&gt;Node17</title>
<g id="a_edge22_Node000010_Node000017"><a xlink:title=" ">
<path fill="none" stroke="#63b8ff" d="M716.29,-119.99C739.18,-109.62 771,-96.12 800,-87 807.31,-84.7 814.96,-82.54 822.68,-80.53"/>
<polygon fill="#63b8ff" stroke="#63b8ff" points="823.62,-83.9 832.46,-78.07 821.91,-77.11 823.62,-83.9"/>
</a>
</g>
</g>
<!-- Node18 -->
<g id="Node000018" class="node">
<title>Node18</title>
<g id="a_Node000018"><a xlink:href="classcam_1_1async__op_1_1AsyncOperatorMixin.html#a2216ff6bb0dfd132f4ec4cf79b7cba2b" target="_top" xlink:title=" ">
<polygon fill="white" stroke="#666666" points="991,-30 830,-30 830,0 991,0 991,-30"/>
<text text-anchor="start" x="838" y="-18" font-family="Helvetica,sans-Serif" font-size="10.00">cam.async_op.AsyncOperator</text>
<text text-anchor="middle" x="910.5" y="-7" font-family="Helvetica,sans-Serif" font-size="10.00">Mixin.show_progress</text>
</a>
</g>
</g>
<!-- Node10&#45;&gt;Node18 -->
<g id="edge24_Node000010_Node000018" class="edge">
<title>Node10&#45;&gt;Node18</title>
<g id="a_edge24_Node000010_Node000018"><a xlink:title=" ">
<path fill="none" stroke="#63b8ff" d="M698.18,-119.73C718.31,-98.26 758.07,-59.49 800,-39 806.43,-35.86 813.27,-33.12 820.28,-30.74"/>
<polygon fill="#63b8ff" stroke="#63b8ff" points="821.42,-34.05 829.91,-27.71 819.32,-27.37 821.42,-34.05"/>
</a>
</g>
</g>
<!-- Node13 -->
<g id="Node000013" class="node">
<title>Node13</title>
<g id="a_Node000013"><a xlink:href="namespacecam_1_1ops.html#aa8e95f7410a7ceb178db48f4f8c2d995" target="_top" xlink:title=" ">
<polygon fill="white" stroke="#666666" points="1192.5,-192.5 1079.5,-192.5 1079.5,-173.5 1192.5,-173.5 1192.5,-192.5"/>
<text text-anchor="middle" x="1136" y="-180.5" font-family="Helvetica,sans-Serif" font-size="10.00">cam.ops._calc_path</text>
</a>
</g>
</g>
<!-- Node12&#45;&gt;Node13 -->
<g id="edge17_Node000012_Node000013" class="edge">
<title>Node12&#45;&gt;Node13</title>
<g id="a_edge17_Node000012_Node000013"><a xlink:title=" ">
<path fill="none" stroke="#63b8ff" d="M995.04,-198.03C1019.56,-195.4 1046.01,-192.56 1069.25,-190.06"/>
<polygon fill="#63b8ff" stroke="#63b8ff" points="1069.77,-193.52 1079.34,-188.98 1069.03,-186.56 1069.77,-193.52"/>
</a>
</g>
</g>
<!-- Node14&#45;&gt;Node13 -->
<g id="edge19_Node000014_Node000013" class="edge">
<title>Node14&#45;&gt;Node13</title>
<g id="a_edge19_Node000014_Node000013"><a xlink:title=" ">
<path fill="none" stroke="#63b8ff" d="M988.73,-167.29C1014.9,-170.1 1043.87,-173.21 1069.08,-175.92"/>
<polygon fill="#63b8ff" stroke="#63b8ff" points="1068.95,-179.43 1079.27,-177.02 1069.7,-172.47 1068.95,-179.43"/>
</a>
</g>
</g>
<!-- Node15 -->
<g id="Node000015" class="node">
<title>Node15</title>
<g id="a_Node000015"><a xlink:href="namespacecam_1_1ops.html#ab55fb8ec9a00e021e8e4a1c3ecc97cb4" target="_top" xlink:title=" ">
<polygon fill="white" stroke="#666666" points="1215,-126.5 1057,-126.5 1057,-107.5 1215,-107.5 1215,-126.5"/>
<text text-anchor="middle" x="1136" y="-114.5" font-family="Helvetica,sans-Serif" font-size="10.00">cam.ops.getChainOperations</text>
</a>
</g>
</g>
<!-- Node14&#45;&gt;Node15 -->
<g id="edge20_Node000014_Node000015" class="edge">
<title>Node14&#45;&gt;Node15</title>
<g id="a_edge20_Node000014_Node000015"><a xlink:title=" ">
<path fill="none" stroke="#63b8ff" d="M988.73,-144.49C1016.81,-139.21 1048.12,-133.33 1074.54,-128.36"/>
<polygon fill="#63b8ff" stroke="#63b8ff" points="1075.23,-131.79 1084.41,-126.51 1073.94,-124.91 1075.23,-131.79"/>
</a>
</g>
</g>
<!-- Node17&#45;&gt;Node15 -->
<g id="edge23_Node000017_Node000015" class="edge">
<title>Node17&#45;&gt;Node15</title>
<g id="a_edge23_Node000017_Node000015"><a xlink:title=" ">
<path fill="none" stroke="#63b8ff" d="M982.28,-78.06C995.19,-80.94 1008.51,-83.99 1021,-87 1043.91,-92.52 1069.28,-99.15 1090.25,-104.77"/>
<polygon fill="#63b8ff" stroke="#63b8ff" points="1089.6,-108.21 1100.17,-107.43 1091.42,-101.45 1089.6,-108.21"/>
</a>
</g>
</g>
<!-- Node19&#45;&gt;Node9 -->
<g id="edge26_Node000019_Node000009" class="edge">
<title>Node19&#45;&gt;Node9</title>
<g id="a_edge26_Node000019_Node000009"><a xlink:title=" ">
<path fill="none" stroke="#63b8ff" d="M345.75,-121.29C361.84,-122.87 379.03,-124.55 395.65,-126.18"/>
<polygon fill="#63b8ff" stroke="#63b8ff" points="395.62,-129.7 405.92,-127.19 396.3,-122.73 395.62,-129.7"/>
</a>
</g>
</g>
</g>
</svg>
