<?xml version="1.0" encoding="UTF-8" standalone="no"?>
<!DOCTYPE svg PUBLIC "-//W3C//DTD SVG 1.1//EN"
 "http://www.w3.org/Graphics/SVG/1.1/DTD/svg11.dtd">
<!-- Generated by graphviz version 2.43.0 (0)
 -->
<!-- Title: cam.curvecamequation.CamSineCurve Pages: 1 -->
<!--zoomable 263 -->

<svg id="main" version="1.1" xmlns="http://www.w3.org/2000/svg" xmlns:xlink="http://www.w3.org/1999/xlink" xml:space="preserve" onload="init(evt)">
<style type="text/css"><![CDATA[
.node, .edge {opacity: 0.7;}
.node.selected, .edge.selected {opacity: 1;}
.edge:hover path { stroke: red; }
.edge:hover polygon { stroke: red; fill: red; }
]]></style>

<defs>
  <circle id="rim" cx="0" cy="0" r="7"/>
  <circle id="rim2" cx="0" cy="0" r="3.5"/>
  <g id="zoomPlus">
    <use xlink:href="#rim" fill="#404040"><set attributeName="fill" to="#808080" begin="zoomplus.mouseover" end="zoomplus.mouseout"/></use>
    <path d="M-4,0h8M0,-4v8" fill="none" stroke="white" stroke-width="1.5" pointer-events="none"/>
  </g>
  <g id="zoomMin">
    <use xlink:href="#rim" fill="#404040"><set attributeName="fill" to="#808080" begin="zoomminus.mouseover" end="zoomminus.mouseout"/></use>
    <path d="M-4,0h8" fill="none" stroke="white" stroke-width="1.5" pointer-events="none"/>
  </g>
  <g id="arrowUp" transform="translate(30 24)">
    <use xlink:href="#rim"/>
    <path pointer-events="none" fill="none" stroke="white" stroke-width="1.5" d="M0,-3.0v7 M-2.5,-0.5L0,-3.0L2.5,-0.5"/>
  </g>
  <g id="arrowRight" transform="rotate(90) translate(36 -43)">
    <use xlink:href="#rim"/>
    <path pointer-events="none" fill="none" stroke="white" stroke-width="1.5" d="M0,-3.0v7 M-2.5,-0.5L0,-3.0L2.5,-0.5"/>
  </g>
  <g id="arrowDown" transform="rotate(180) translate(-30 -48)">
    <use xlink:href="#rim"/>
    <path pointer-events="none" fill="none" stroke="white" stroke-width="1.5" d="M0,-3.0v7 M-2.5,-0.5L0,-3.0L2.5,-0.5"/>
  </g>
  <g id="arrowLeft" transform="rotate(270) translate(-36 17)">
    <use xlink:href="#rim"/>
    <path pointer-events="none" fill="none" stroke="white" stroke-width="1.5" d="M0,-3.0v7 M-2.5,-0.5L0,-3.0L2.5,-0.5"/>
  </g>
  <g id="resetDef">
    <use xlink:href="#rim2" fill="#404040"><set attributeName="fill" to="#808080" begin="reset.mouseover" end="reset.mouseout"/></use>
  </g>
</defs>
<script type="application/ecmascript">
var viewWidth = 534;
var viewHeight = 263;
var sectionId = 'dynsection-1';
</script>
<script type="application/ecmascript" xlink:href="svg.min.js"/>
<svg id="graph" class="graph">
<g id="viewport">
<title>cam.curvecamequation.CamSineCurve</title>
<!-- Node1 -->
<g id="Node000001" class="node">
<title>Node1</title>
<g id="a_Node000001"><a xlink:title=" ">
<polygon fill="#999999" stroke="transparent" points="286,-60 135,-60 135,0 286,0 286,-60"/>
<text text-anchor="start" x="140.5" y="-48" font-family="Helvetica,sans-Serif" font-size="10.00">cam.curvecamequation.Cam</text>
<text text-anchor="start" x="186" y="-37" font-family="Helvetica,sans-Serif" font-size="10.00">SineCurve</text>
<text text-anchor="start" x="209" y="-22" font-family="Helvetica,sans-Serif" font-size="10.00"> </text>
<text text-anchor="start" x="160.5" y="-7" font-family="Helvetica,sans-Serif" font-size="10.00">+</text>
<text text-anchor="start" x="194.5" y="-7" font-family="Helvetica,sans-Serif" font-size="10.00">execute()</text>
<polygon fill="#666666" stroke="#666666" points="135.5,-32 135.5,-32 286.5,-32 286.5,-32 135.5,-32"/>
<polygon fill="#666666" stroke="#666666" points="135.5,-17 135.5,-17 286.5,-17 286.5,-17 135.5,-17"/>
<polygon fill="none" stroke="#666666" points="135,0 135,-60 286,-60 286,0 135,0"/>
</a>
</g>
</g>
<!-- Node2 -->
<g id="Node000002" class="node">
<title>Node2</title>
<g id="a_Node000002"><a xlink:title=" ">
<polygon fill="white" stroke="transparent" points="53,-255 0,-255 0,-206 53,-206 53,-255"/>
<text text-anchor="start" x="5.5" y="-242.5" font-family="Helvetica,sans-Serif" font-size="10.00">Operator</text>
<text text-anchor="start" x="25" y="-227.5" font-family="Helvetica,sans-Serif" font-size="10.00"> </text>
<text text-anchor="start" x="25" y="-212.5" font-family="Helvetica,sans-Serif" font-size="10.00"> </text>
<polygon fill="#666666" stroke="#666666" points="0.5,-237.5 0.5,-237.5 53.5,-237.5 53.5,-237.5 0.5,-237.5"/>
<polygon fill="#666666" stroke="#666666" points="0.5,-222.5 0.5,-222.5 53.5,-222.5 53.5,-222.5 0.5,-222.5"/>
<polygon fill="none" stroke="#666666" points="0,-206 0,-255 53,-255 53,-206 0,-206"/>
</a>
</g>
</g>
<!-- Node2&#45;&gt;Node1 -->
<g id="edge1_Node000001_Node000002" class="edge">
<title>Node2&#45;&gt;Node1</title>
<g id="a_edge1_Node000001_Node000002"><a xlink:title=" ">
<path fill="none" stroke="#63b8ff" d="M26.25,-195.6C27.84,-161.61 35.53,-109.87 65.5,-78 83.63,-58.72 109.72,-47.33 134.79,-40.61"/>
<polygon fill="none" stroke="#63b8ff" points="22.74,-195.86 25.93,-205.96 29.74,-196.08 22.74,-195.86"/>
</a>
</g>
</g>
<!-- Node3 -->
<g id="Node000003" class="node">
<title>Node3</title>
<g id="a_Node000003"><a xlink:title=" ">
<polygon fill="white" stroke="transparent" points="94,-255 71,-255 71,-206 94,-206 94,-255"/>
<text text-anchor="start" x="76.5" y="-242.5" font-family="Helvetica,sans-Serif" font-size="10.00">str</text>
<text text-anchor="start" x="81" y="-227.5" font-family="Helvetica,sans-Serif" font-size="10.00"> </text>
<text text-anchor="start" x="81" y="-212.5" font-family="Helvetica,sans-Serif" font-size="10.00"> </text>
<polygon fill="#666666" stroke="#666666" points="71.5,-237.5 71.5,-237.5 94.5,-237.5 94.5,-237.5 71.5,-237.5"/>
<polygon fill="#666666" stroke="#666666" points="71.5,-222.5 71.5,-222.5 94.5,-222.5 94.5,-222.5 71.5,-222.5"/>
<polygon fill="none" stroke="#666666" points="71,-206 71,-255 94,-255 94,-206 71,-206"/>
</a>
</g>
</g>
<!-- Node3&#45;&gt;Node1 -->
<g id="edge2_Node000001_Node000003" class="edge">
<title>Node3&#45;&gt;Node1</title>
<g id="a_edge2_Node000001_Node000003"><a xlink:title=" ">
<path fill="none" stroke="#63b8ff" d="M75.91,-205.96C68.42,-173.83 60.46,-115.93 87.5,-78 96.59,-65.24 109.64,-55.95 123.86,-49.18"/>
<polygon fill="none" stroke="#63b8ff" points="123.87,-49.17 127.83,-43.14 134.92,-44.47 130.96,-50.5 123.87,-49.17"/>
</a>
</g>
<text text-anchor="middle" x="119" y="-136" font-family="Helvetica,sans-Serif" font-size="10.00" fill="grey"> +bl_idname</text>
<text text-anchor="middle" x="119" y="-125" font-family="Helvetica,sans-Serif" font-size="10.00" fill="grey">+bl_label</text>
</g>
<!-- Node4 -->
<g id="Node000004" class="node">
<title>Node4</title>
<g id="a_Node000004"><a xlink:title=" ">
<polygon fill="white" stroke="transparent" points="183,-255 154,-255 154,-206 183,-206 183,-255"/>
<text text-anchor="start" x="159.5" y="-242.5" font-family="Helvetica,sans-Serif" font-size="10.00">dict</text>
<text text-anchor="start" x="167" y="-227.5" font-family="Helvetica,sans-Serif" font-size="10.00"> </text>
<text text-anchor="start" x="167" y="-212.5" font-family="Helvetica,sans-Serif" font-size="10.00"> </text>
<polygon fill="#666666" stroke="#666666" points="154.5,-237.5 154.5,-237.5 183.5,-237.5 183.5,-237.5 154.5,-237.5"/>
<polygon fill="#666666" stroke="#666666" points="154.5,-222.5 154.5,-222.5 183.5,-222.5 183.5,-222.5 154.5,-222.5"/>
<polygon fill="none" stroke="#666666" points="154,-206 154,-255 183,-255 183,-206 154,-206"/>
</a>
</g>
</g>
<!-- Node4&#45;&gt;Node1 -->
<g id="edge3_Node000001_Node000004" class="edge">
<title>Node4&#45;&gt;Node1</title>
<g id="a_edge3_Node000001_Node000004"><a xlink:title=" ">
<path fill="none" stroke="#63b8ff" d="M162.52,-205.9C155.96,-175.2 148.44,-120.48 165.5,-78 166.58,-75.3 167.9,-72.67 169.4,-70.12"/>
<polygon fill="none" stroke="#63b8ff" points="169.52,-69.95 169.7,-62.75 176.42,-60.14 176.24,-67.34 169.52,-69.95"/>
</a>
</g>
<text text-anchor="middle" x="196.5" y="-130.5" font-family="Helvetica,sans-Serif" font-size="10.00" fill="grey"> +bl_options</text>
</g>
<!-- Node5 -->
<g id="Node000005" class="node">
<title>Node5</title>
<g id="a_Node000005"><a xlink:title=" ">
<polygon fill="white" stroke="transparent" points="287.5,-255 207.5,-255 207.5,-206 287.5,-206 287.5,-255"/>
<text text-anchor="start" x="212.5" y="-242.5" font-family="Helvetica,sans-Serif" font-size="10.00">EnumProperty</text>
<text text-anchor="start" x="245.5" y="-227.5" font-family="Helvetica,sans-Serif" font-size="10.00"> </text>
<text text-anchor="start" x="245.5" y="-212.5" font-family="Helvetica,sans-Serif" font-size="10.00"> </text>
<polygon fill="#666666" stroke="#666666" points="207.5,-237.5 207.5,-237.5 287.5,-237.5 287.5,-237.5 207.5,-237.5"/>
<polygon fill="#666666" stroke="#666666" points="207.5,-222.5 207.5,-222.5 287.5,-222.5 287.5,-222.5 207.5,-222.5"/>
<polygon fill="none" stroke="#666666" points="207.5,-206 207.5,-255 287.5,-255 287.5,-206 207.5,-206"/>
</a>
</g>
</g>
<!-- Node5&#45;&gt;Node1 -->
<g id="edge4_Node000001_Node000005" class="edge">
<title>Node5&#45;&gt;Node1</title>
<g id="a_edge4_Node000001_Node000005"><a xlink:title=" ">
<path fill="none" stroke="#63b8ff" d="M247.29,-205.98C246.51,-175.84 243.38,-122.19 231.5,-78 230.92,-75.86 230.26,-73.69 229.54,-71.53"/>
<polygon fill="none" stroke="#63b8ff" points="229.45,-71.28 223.58,-67.09 225.18,-60.06 231.05,-64.25 229.45,-71.28"/>
</a>
</g>
<text text-anchor="middle" x="263" y="-136" font-family="Helvetica,sans-Serif" font-size="10.00" fill="grey"> +axis</text>
<text text-anchor="middle" x="263" y="-125" font-family="Helvetica,sans-Serif" font-size="10.00" fill="grey">+wave</text>
</g>
<!-- Node6 -->
<g id="Node000006" class="node">
<title>Node6</title>
<g id="a_Node000006"><a xlink:title=" ">
<polygon fill="white" stroke="transparent" points="383,-255 306,-255 306,-206 383,-206 383,-255"/>
<text text-anchor="start" x="311.5" y="-242.5" font-family="Helvetica,sans-Serif" font-size="10.00">FloatProperty</text>
<text text-anchor="start" x="343" y="-227.5" font-family="Helvetica,sans-Serif" font-size="10.00"> </text>
<text text-anchor="start" x="343" y="-212.5" font-family="Helvetica,sans-Serif" font-size="10.00"> </text>
<polygon fill="#666666" stroke="#666666" points="306.5,-237.5 306.5,-237.5 383.5,-237.5 383.5,-237.5 306.5,-237.5"/>
<polygon fill="#666666" stroke="#666666" points="306.5,-222.5 306.5,-222.5 383.5,-222.5 383.5,-222.5 306.5,-222.5"/>
<polygon fill="none" stroke="#666666" points="306,-206 306,-255 383,-255 383,-206 306,-206"/>
</a>
</g>
</g>
<!-- Node6&#45;&gt;Node1 -->
<g id="edge5_Node000001_Node000006" class="edge">
<title>Node6&#45;&gt;Node1</title>
<g id="a_edge5_Node000001_Node000006"><a xlink:title=" ">
<path fill="none" stroke="#63b8ff" d="M339.94,-205.87C332.79,-173.91 316.32,-116.48 284.5,-78 281.61,-74.51 278.4,-71.2 274.97,-68.07"/>
<polygon fill="none" stroke="#63b8ff" points="274.72,-67.86 267.55,-67.12 265.48,-60.21 272.65,-60.96 274.72,-67.86"/>
</a>
</g>
<text text-anchor="middle" x="375.5" y="-180" font-family="Helvetica,sans-Serif" font-size="10.00" fill="grey"> +amplitude</text>
<text text-anchor="middle" x="375.5" y="-169" font-family="Helvetica,sans-Serif" font-size="10.00" fill="grey">+beatperiod</text>
<text text-anchor="middle" x="375.5" y="-158" font-family="Helvetica,sans-Serif" font-size="10.00" fill="grey">+maxt</text>
<text text-anchor="middle" x="375.5" y="-147" font-family="Helvetica,sans-Serif" font-size="10.00" fill="grey">+mint</text>
<text text-anchor="middle" x="375.5" y="-136" font-family="Helvetica,sans-Serif" font-size="10.00" fill="grey">+offset</text>
<text text-anchor="middle" x="375.5" y="-125" font-family="Helvetica,sans-Serif" font-size="10.00" fill="grey">+period</text>
<text text-anchor="middle" x="375.5" y="-114" font-family="Helvetica,sans-Serif" font-size="10.00" fill="grey">+shift</text>
<text text-anchor="start" x="334.5" y="-103" font-family="Helvetica,sans-Serif" font-size="10.00" fill="grey">+wave_angle</text>
<text text-anchor="middle" x="375.5" y="-92" font-family="Helvetica,sans-Serif" font-size="10.00" fill="grey">_offset</text>
<text text-anchor="middle" x="375.5" y="-81" font-family="Helvetica,sans-Serif" font-size="10.00" fill="grey">+wave_distance</text>
</g>
<!-- Node7 -->
<g id="Node000007" class="node">
<title>Node7</title>
<g id="a_Node000007"><a xlink:title=" ">
<polygon fill="white" stroke="transparent" points="474,-255 409,-255 409,-206 474,-206 474,-255"/>
<text text-anchor="start" x="414.5" y="-242.5" font-family="Helvetica,sans-Serif" font-size="10.00">IntProperty</text>
<text text-anchor="start" x="440" y="-227.5" font-family="Helvetica,sans-Serif" font-size="10.00"> </text>
<text text-anchor="start" x="440" y="-212.5" font-family="Helvetica,sans-Serif" font-size="10.00"> </text>
<polygon fill="#666666" stroke="#666666" points="409.5,-237.5 409.5,-237.5 474.5,-237.5 474.5,-237.5 409.5,-237.5"/>
<polygon fill="#666666" stroke="#666666" points="409.5,-222.5 409.5,-222.5 474.5,-222.5 474.5,-222.5 409.5,-222.5"/>
<polygon fill="none" stroke="#666666" points="409,-206 409,-255 474,-255 474,-206 409,-206"/>
</a>
</g>
</g>
<!-- Node7&#45;&gt;Node1 -->
<g id="edge6_Node000001_Node000007" class="edge">
<title>Node7&#45;&gt;Node1</title>
<g id="a_edge6_Node000001_Node000007"><a xlink:title=" ">
<path fill="none" stroke="#63b8ff" d="M445.53,-205.82C449.71,-172.73 451.73,-112.81 419.5,-78 402.81,-59.97 347.69,-48.04 298.25,-40.7"/>
<polygon fill="none" stroke="#63b8ff" points="298.04,-40.67 291.53,-43.79 286.16,-38.98 292.66,-35.87 298.04,-40.67"/>
</a>
</g>
<text text-anchor="middle" x="486.5" y="-136" font-family="Helvetica,sans-Serif" font-size="10.00" fill="grey"> +iteration</text>
<text text-anchor="middle" x="486.5" y="-125" font-family="Helvetica,sans-Serif" font-size="10.00" fill="grey">+wave_amount</text>
</g>
</g>
</svg>

<g id="navigator" transform="translate(0 0)" fill="#404254">
  <rect fill="#f2f5e9" fill-opacity="0.5" stroke="#606060" stroke-width=".5" x="0" y="0" width="60" height="60"/>
  <use id="zoomplus" xlink:href="#zoomPlus" x="17" y="9" onmousedown="handleZoom(evt,'in')"/>
  <use id="zoomminus" xlink:href="#zoomMin" x="42" y="9" onmousedown="handleZoom(evt,'out')"/>
  <use id="reset" xlink:href="#resetDef" x="30" y="36" onmousedown="handleReset()"/>
   <use id="arrowup" xlink:href="#arrowUp" x="0" y="0" onmousedown="handlePan(0,-1)"/>
  <use id="arrowright" xlink:href="#arrowRight" x="0" y="0" onmousedown="handlePan(1,0)"/>
  <use id="arrowdown" xlink:href="#arrowDown" x="0" y="0" onmousedown="handlePan(0,1)"/>
  <use id="arrowleft" xlink:href="#arrowLeft" x="0" y="0" onmousedown="handlePan(-1,0)"/>
</g>
<svg viewBox="0 0 15 15" width="100%" height="30px" preserveAspectRatio="xMaxYMin meet">
 <g id="arrow_out" transform="scale(0.3 0.3)">
  <a xlink:href="classcam_1_1curvecamequation_1_1CamSineCurve__coll__graph_org.svg" target="_base">
   <rect id="button" ry="5" rx="5" y="6" x="6" height="38" width="38"
        fill="#f2f5e9" fill-opacity="0.5" stroke="#606060" stroke-width="1.0"/>
   <path id="arrow"
     d="M 11.500037,31.436501 C 11.940474,20.09759 22.043105,11.32322 32.158766,21.979434 L 37.068811,17.246167 C 37.068811,17.246167 37.088388,32 37.088388,32 L 22.160133,31.978069 C 22.160133,31.978069 26.997745,27.140456 26.997745,27.140456 C 18.528582,18.264221 13.291696,25.230495 11.500037,31.436501 z"
     style="fill:#404040;"/>
  </a>
 </g>
</svg>

<style type='text/css'>
<![CDATA[
[data-mouse-over-selected='false'] { opacity: 0.7; }
[data-mouse-over-selected='true']  { opacity: 1.0; }
]]>
</style>
<script type="application/ecmascript"><![CDATA[
document.addEventListener('DOMContentLoaded', (event) => {
  highlightEdges();
  highlightAdjacentNodes();
});
]]></script>
</svg>
