<?xml version="1.0" encoding="UTF-8" standalone="no"?>
<!DOCTYPE svg PUBLIC "-//W3C//DTD SVG 1.1//EN"
 "http://www.w3.org/Graphics/SVG/1.1/DTD/svg11.dtd">
<!-- Generated by graphviz version 2.43.0 (0)
 -->
<!-- Title: cam.nc.hxml_writer.HxmlWriter.rapid Pages: 1 -->
<svg width="706pt" height="323pt"
 viewBox="0.00 0.00 706.00 323.00" xmlns="http://www.w3.org/2000/svg" xmlns:xlink="http://www.w3.org/1999/xlink">
<g id="graph0" class="graph" transform="scale(1 1) rotate(0) translate(4 319)">
<title>cam.nc.hxml_writer.HxmlWriter.rapid</title>
<!-- Node1 -->
<g id="Node000001" class="node">
<title>Node1</title>
<g id="a_Node000001"><a xlink:title=" ">
<polygon fill="#999999" stroke="#666666" points="199,-167 0,-167 0,-148 199,-148 199,-167"/>
<text text-anchor="middle" x="99.5" y="-155" font-family="Helvetica,sans-Serif" font-size="10.00">cam.nc.hxml_writer.HxmlWriter.rapid</text>
</a>
</g>
</g>
<!-- Node2 -->
<g id="Node000002" class="node">
<title>Node2</title>
<g id="a_Node000002"><a xlink:href="classcam_1_1nc_1_1hxml__writer_1_1HxmlWriter.html#a9ecbcbc437d91a80c11b77d2d9007887" target="_top" xlink:title=" ">
<polygon fill="white" stroke="#666666" points="456.5,-315 241.5,-315 241.5,-296 456.5,-296 456.5,-315"/>
<text text-anchor="middle" x="349" y="-303" font-family="Helvetica,sans-Serif" font-size="10.00">cam.nc.hxml_writer.HxmlWriter.add_line</text>
</a>
</g>
</g>
<!-- Node1&#45;&gt;Node2 -->
<g id="edge1_Node000001_Node000002" class="edge">
<title>Node1&#45;&gt;Node2</title>
<g id="a_edge1_Node000001_Node000002"><a xlink:title=" ">
<path fill="none" stroke="#63b8ff" d="M107.04,-167.02C124.53,-191.65 175.15,-257.61 235,-287.5 238.85,-289.42 242.86,-291.15 246.96,-292.7"/>
<polygon fill="#63b8ff" stroke="#63b8ff" points="246.12,-296.11 256.72,-296 248.37,-289.48 246.12,-296.11"/>
</a>
</g>
</g>
<!-- Node3 -->
<g id="Node000003" class="node">
<title>Node3</title>
<g id="a_Node000003"><a xlink:href="classcam_1_1nc_1_1cad__nc__read_1_1Parser.html#a738a961ed9cebf72a1d9ae2cd63c49f8" target="_top" xlink:title=" ">
<polygon fill="white" stroke="#666666" points="445,-278 253,-278 253,-259 445,-259 445,-278"/>
<text text-anchor="middle" x="349" y="-266" font-family="Helvetica,sans-Serif" font-size="10.00">cam.nc.cad_nc_read.Parser.add_line</text>
</a>
</g>
</g>
<!-- Node1&#45;&gt;Node3 -->
<g id="edge2_Node000001_Node000003" class="edge">
<title>Node1&#45;&gt;Node3</title>
<g id="a_edge2_Node000001_Node000003"><a xlink:title=" ">
<path fill="none" stroke="#63b8ff" d="M110.69,-167.02C131.95,-186.28 183.36,-229.79 235,-250.5 240.49,-252.7 246.24,-254.64 252.1,-256.33"/>
<polygon fill="#63b8ff" stroke="#63b8ff" points="251.49,-259.79 262.06,-258.98 253.29,-253.03 251.49,-259.79"/>
</a>
</g>
</g>
<!-- Node5 -->
<g id="Node000005" class="node">
<title>Node5</title>
<g id="a_Node000005"><a xlink:href="classcam_1_1nc_1_1nclathe__read_1_1Parser.html#a8e66fae75c57b080570f2893d2b8b4ba" target="_top" xlink:title=" ">
<polygon fill="white" stroke="#666666" points="446,-167 252,-167 252,-148 446,-148 446,-167"/>
<text text-anchor="middle" x="349" y="-155" font-family="Helvetica,sans-Serif" font-size="10.00">cam.nc.nclathe_read.Parser.add_line</text>
</a>
</g>
</g>
<!-- Node1&#45;&gt;Node5 -->
<g id="edge5_Node000001_Node000005" class="edge">
<title>Node1&#45;&gt;Node5</title>
<g id="a_edge5_Node000001_Node000005"><a xlink:title=" ">
<path fill="none" stroke="#63b8ff" d="M199.03,-157.5C213.02,-157.5 227.47,-157.5 241.6,-157.5"/>
<polygon fill="#63b8ff" stroke="#63b8ff" points="241.83,-161 251.83,-157.5 241.83,-154 241.83,-161"/>
</a>
</g>
</g>
<!-- Node7 -->
<g id="Node000007" class="node">
<title>Node7</title>
<g id="a_Node000007"><a xlink:href="classcam_1_1nc_1_1hxml__writer_1_1HxmlWriter.html#a6439ae429d6711afc62f954362e80aec" target="_top" xlink:title=" ">
<polygon fill="white" stroke="#666666" points="463,-56 235,-56 235,-37 463,-37 463,-56"/>
<text text-anchor="middle" x="349" y="-44" font-family="Helvetica,sans-Serif" font-size="10.00">cam.nc.hxml_writer.HxmlWriter.begin_path</text>
</a>
</g>
</g>
<!-- Node1&#45;&gt;Node7 -->
<g id="edge8_Node000001_Node000007" class="edge">
<title>Node1&#45;&gt;Node7</title>
<g id="a_edge8_Node000001_Node000007"><a xlink:title=" ">
<path fill="none" stroke="#63b8ff" d="M111.06,-147.83C132.58,-128.71 183.84,-86.13 235,-65.5 241.66,-62.82 248.69,-60.51 255.85,-58.53"/>
<polygon fill="#63b8ff" stroke="#63b8ff" points="256.84,-61.89 265.67,-56.03 255.12,-55.1 256.84,-61.89"/>
</a>
</g>
</g>
<!-- Node9 -->
<g id="Node000009" class="node">
<title>Node9</title>
<g id="a_Node000009"><a xlink:href="classcam_1_1nc_1_1cad__nc__read_1_1Parser.html#abe87a80c43087874e0199ed75fce10ee" target="_top" xlink:title=" ">
<polygon fill="white" stroke="#666666" points="451.5,-241 246.5,-241 246.5,-222 451.5,-222 451.5,-241"/>
<text text-anchor="middle" x="349" y="-229" font-family="Helvetica,sans-Serif" font-size="10.00">cam.nc.cad_nc_read.Parser.begin_path</text>
</a>
</g>
</g>
<!-- Node1&#45;&gt;Node9 -->
<g id="edge11_Node000001_Node000009" class="edge">
<title>Node1&#45;&gt;Node9</title>
<g id="a_edge11_Node000001_Node000009"><a xlink:title=" ">
<path fill="none" stroke="#63b8ff" d="M119.58,-167.15C145.2,-179.69 192.41,-201.43 235,-213.5 243.77,-215.99 253.03,-218.16 262.32,-220.05"/>
<polygon fill="#63b8ff" stroke="#63b8ff" points="261.91,-223.54 272.39,-222 263.24,-216.67 261.91,-223.54"/>
</a>
</g>
</g>
<!-- Node10 -->
<g id="Node000010" class="node">
<title>Node10</title>
<g id="a_Node000010"><a xlink:href="classcam_1_1nc_1_1nclathe__read_1_1Parser.html#a33c385668a944d4b5013c8cae753fda9" target="_top" xlink:title=" ">
<polygon fill="white" stroke="#666666" points="452.5,-130 245.5,-130 245.5,-111 452.5,-111 452.5,-130"/>
<text text-anchor="middle" x="349" y="-118" font-family="Helvetica,sans-Serif" font-size="10.00">cam.nc.nclathe_read.Parser.begin_path</text>
</a>
</g>
</g>
<!-- Node1&#45;&gt;Node10 -->
<g id="edge13_Node000001_Node000010" class="edge">
<title>Node1&#45;&gt;Node10</title>
<g id="a_edge13_Node000001_Node000010"><a xlink:title=" ">
<path fill="none" stroke="#63b8ff" d="M164.24,-147.97C197.74,-142.96 238.99,-136.8 273.91,-131.58"/>
<polygon fill="#63b8ff" stroke="#63b8ff" points="274.68,-135 284.05,-130.06 273.64,-128.08 274.68,-135"/>
</a>
</g>
</g>
<!-- Node11 -->
<g id="Node000011" class="node">
<title>Node11</title>
<g id="a_Node000011"><a xlink:href="classcam_1_1nc_1_1cad__nc__read_1_1Parser.html#ab6bd7ee59cd7649fb4d9f585124cbd54" target="_top" xlink:title=" ">
<polygon fill="white" stroke="#666666" points="447,-204 251,-204 251,-185 447,-185 447,-204"/>
<text text-anchor="middle" x="349" y="-192" font-family="Helvetica,sans-Serif" font-size="10.00">cam.nc.cad_nc_read.Parser.end_path</text>
</a>
</g>
</g>
<!-- Node1&#45;&gt;Node11 -->
<g id="edge15_Node000001_Node000011" class="edge">
<title>Node1&#45;&gt;Node11</title>
<g id="a_edge15_Node000001_Node000011"><a xlink:title=" ">
<path fill="none" stroke="#63b8ff" d="M164.24,-167.03C197.74,-172.04 238.99,-178.2 273.91,-183.42"/>
<polygon fill="#63b8ff" stroke="#63b8ff" points="273.64,-186.92 284.05,-184.94 274.68,-180 273.64,-186.92"/>
</a>
</g>
</g>
<!-- Node12 -->
<g id="Node000012" class="node">
<title>Node12</title>
<g id="a_Node000012"><a xlink:href="classcam_1_1nc_1_1hxml__writer_1_1HxmlWriter.html#a148b76fde9d4c7ea5430a17628e6c9ef" target="_top" xlink:title=" ">
<polygon fill="white" stroke="#666666" points="458.5,-19 239.5,-19 239.5,0 458.5,0 458.5,-19"/>
<text text-anchor="middle" x="349" y="-7" font-family="Helvetica,sans-Serif" font-size="10.00">cam.nc.hxml_writer.HxmlWriter.end_path</text>
</a>
</g>
</g>
<!-- Node1&#45;&gt;Node12 -->
<g id="edge17_Node000001_Node000012" class="edge">
<title>Node1&#45;&gt;Node12</title>
<g id="a_edge17_Node000001_Node000012"><a xlink:title=" ">
<path fill="none" stroke="#63b8ff" d="M107.33,-147.73C125.14,-123.09 175.73,-58.28 235,-28.5 239.83,-26.07 244.91,-23.95 250.14,-22.08"/>
<polygon fill="#63b8ff" stroke="#63b8ff" points="251.22,-25.41 259.66,-19.01 249.07,-18.75 251.22,-25.41"/>
</a>
</g>
</g>
<!-- Node13 -->
<g id="Node000013" class="node">
<title>Node13</title>
<g id="a_Node000013"><a xlink:href="classcam_1_1nc_1_1nclathe__read_1_1Parser.html#a92a9288e10124488c6b458a347afa9b7" target="_top" xlink:title=" ">
<polygon fill="white" stroke="#666666" points="448,-93 250,-93 250,-74 448,-74 448,-93"/>
<text text-anchor="middle" x="349" y="-81" font-family="Helvetica,sans-Serif" font-size="10.00">cam.nc.nclathe_read.Parser.end_path</text>
</a>
</g>
</g>
<!-- Node1&#45;&gt;Node13 -->
<g id="edge19_Node000001_Node000013" class="edge">
<title>Node1&#45;&gt;Node13</title>
<g id="a_edge19_Node000001_Node000013"><a xlink:title=" ">
<path fill="none" stroke="#63b8ff" d="M120.06,-147.89C145.82,-135.61 192.78,-114.52 235,-102.5 245.18,-99.6 256.01,-97.09 266.78,-94.92"/>
<polygon fill="#63b8ff" stroke="#63b8ff" points="267.47,-98.35 276.64,-93.03 266.16,-91.48 267.47,-98.35"/>
</a>
</g>
</g>
<!-- Node4 -->
<g id="Node000004" class="node">
<title>Node4</title>
<g id="a_Node000004"><a xlink:href="classcam_1_1nc_1_1cad__nc__read_1_1Parser.html#adcf2f47949df29f187f27fe985884633" target="_top" xlink:title=" ">
<polygon fill="white" stroke="#666666" points="686.5,-241 510.5,-241 510.5,-222 686.5,-222 686.5,-241"/>
<text text-anchor="middle" x="598.5" y="-229" font-family="Helvetica,sans-Serif" font-size="10.00">cam.nc.cad_nc_read.Parser.write</text>
</a>
</g>
</g>
<!-- Node3&#45;&gt;Node4 -->
<g id="edge3_Node000003_Node000004" class="edge">
<title>Node3&#45;&gt;Node4</title>
<g id="a_edge3_Node000003_Node000004"><a xlink:title=" ">
<path fill="none" stroke="#63b8ff" d="M413.74,-258.97C447.24,-253.96 488.49,-247.8 523.41,-242.58"/>
<polygon fill="#63b8ff" stroke="#63b8ff" points="524.18,-246 533.55,-241.06 523.14,-239.08 524.18,-246"/>
</a>
</g>
</g>
<!-- Node4&#45;&gt;Node4 -->
<g id="edge4_Node000004_Node000004" class="edge">
<title>Node4&#45;&gt;Node4</title>
<g id="a_edge4_Node000004_Node000004"><a xlink:title=" ">
<path fill="none" stroke="#63b8ff" d="M560.28,-241.08C541.68,-249.73 554.42,-259 598.5,-259 631.56,-259 646.99,-253.79 644.79,-247.53"/>
<polygon fill="#63b8ff" stroke="#63b8ff" points="646.72,-244.59 636.72,-241.08 642.35,-250.06 646.72,-244.59"/>
</a>
</g>
</g>
<!-- Node6 -->
<g id="Node000006" class="node">
<title>Node6</title>
<g id="a_Node000006"><a xlink:href="classcam_1_1nc_1_1nclathe__read_1_1Parser.html#ab5ea283b461b57e48c8d5b0ad0a45694" target="_top" xlink:title=" ">
<polygon fill="white" stroke="#666666" points="687.5,-130 509.5,-130 509.5,-111 687.5,-111 687.5,-130"/>
<text text-anchor="middle" x="598.5" y="-118" font-family="Helvetica,sans-Serif" font-size="10.00">cam.nc.nclathe_read.Parser.write</text>
</a>
</g>
</g>
<!-- Node5&#45;&gt;Node6 -->
<g id="edge6_Node000005_Node000006" class="edge">
<title>Node5&#45;&gt;Node6</title>
<g id="a_edge6_Node000005_Node000006"><a xlink:title=" ">
<path fill="none" stroke="#63b8ff" d="M413.74,-147.97C447.24,-142.96 488.49,-136.8 523.41,-131.58"/>
<polygon fill="#63b8ff" stroke="#63b8ff" points="524.18,-135 533.55,-130.06 523.14,-128.08 524.18,-135"/>
</a>
</g>
</g>
<!-- Node6&#45;&gt;Node6 -->
<g id="edge7_Node000006_Node000006" class="edge">
<title>Node6&#45;&gt;Node6</title>
<g id="a_edge7_Node000006_Node000006"><a xlink:title=" ">
<path fill="none" stroke="#63b8ff" d="M560.28,-130.08C541.68,-138.73 554.42,-148 598.5,-148 631.56,-148 646.99,-142.79 644.79,-136.53"/>
<polygon fill="#63b8ff" stroke="#63b8ff" points="646.72,-133.59 636.72,-130.08 642.35,-139.06 646.72,-133.59"/>
</a>
</g>
</g>
<!-- Node8 -->
<g id="Node000008" class="node">
<title>Node8</title>
<g id="a_Node000008"><a xlink:href="classcam_1_1nc_1_1hxml__writer_1_1HxmlWriter.html#aed6f93c98cb8c0e3f3e826e75b6d6f15" target="_top" xlink:title=" ">
<polygon fill="white" stroke="#666666" points="698,-38 499,-38 499,-19 698,-19 698,-38"/>
<text text-anchor="middle" x="598.5" y="-26" font-family="Helvetica,sans-Serif" font-size="10.00">cam.nc.hxml_writer.HxmlWriter.write</text>
</a>
</g>
</g>
<!-- Node7&#45;&gt;Node8 -->
<g id="edge9_Node000007_Node000008" class="edge">
<title>Node7&#45;&gt;Node8</title>
<g id="a_edge9_Node000007_Node000008"><a xlink:title=" ">
<path fill="none" stroke="#63b8ff" d="M463.25,-38.26C471.66,-37.65 480.14,-37.03 488.53,-36.42"/>
<polygon fill="#63b8ff" stroke="#63b8ff" points="488.99,-39.9 498.71,-35.68 488.48,-32.92 488.99,-39.9"/>
</a>
</g>
</g>
<!-- Node8&#45;&gt;Node8 -->
<g id="edge10_Node000008_Node000008" class="edge">
<title>Node8&#45;&gt;Node8</title>
<g id="a_edge10_Node000008_Node000008"><a xlink:title=" ">
<path fill="none" stroke="#63b8ff" d="M560.28,-38.08C541.68,-46.73 554.42,-56 598.5,-56 631.56,-56 646.99,-50.79 644.79,-44.53"/>
<polygon fill="#63b8ff" stroke="#63b8ff" points="646.72,-41.59 636.72,-38.08 642.35,-47.06 646.72,-41.59"/>
</a>
</g>
</g>
<!-- Node9&#45;&gt;Node4 -->
<g id="edge12_Node000009_Node000004" class="edge">
<title>Node9&#45;&gt;Node4</title>
<g id="a_edge12_Node000009_Node000004"><a xlink:title=" ">
<path fill="none" stroke="#63b8ff" d="M451.74,-231.5C467.71,-231.5 484.18,-231.5 500.05,-231.5"/>
<polygon fill="#63b8ff" stroke="#63b8ff" points="500.38,-235 510.38,-231.5 500.38,-228 500.38,-235"/>
</a>
</g>
</g>
<!-- Node10&#45;&gt;Node6 -->
<g id="edge14_Node000010_Node000006" class="edge">
<title>Node10&#45;&gt;Node6</title>
<g id="a_edge14_Node000010_Node000006"><a xlink:title=" ">
<path fill="none" stroke="#63b8ff" d="M452.81,-120.5C468.03,-120.5 483.68,-120.5 498.81,-120.5"/>
<polygon fill="#63b8ff" stroke="#63b8ff" points="499.19,-124 509.19,-120.5 499.19,-117 499.19,-124"/>
</a>
</g>
</g>
<!-- Node11&#45;&gt;Node4 -->
<g id="edge16_Node000011_Node000004" class="edge">
<title>Node11&#45;&gt;Node4</title>
<g id="a_edge16_Node000011_Node000004"><a xlink:title=" ">
<path fill="none" stroke="#63b8ff" d="M413.74,-204.03C447.24,-209.04 488.49,-215.2 523.41,-220.42"/>
<polygon fill="#63b8ff" stroke="#63b8ff" points="523.14,-223.92 533.55,-221.94 524.18,-217 523.14,-223.92"/>
</a>
</g>
</g>
<!-- Node12&#45;&gt;Node8 -->
<g id="edge18_Node000012_Node000008" class="edge">
<title>Node12&#45;&gt;Node8</title>
<g id="a_edge18_Node000012_Node000008"><a xlink:title=" ">
<path fill="none" stroke="#63b8ff" d="M458.56,-17.83C468.59,-18.6 478.76,-19.38 488.79,-20.15"/>
<polygon fill="#63b8ff" stroke="#63b8ff" points="488.54,-23.65 498.77,-20.92 489.07,-16.67 488.54,-23.65"/>
</a>
</g>
</g>
<!-- Node13&#45;&gt;Node6 -->
<g id="edge20_Node000013_Node000006" class="edge">
<title>Node13&#45;&gt;Node6</title>
<g id="a_edge20_Node000013_Node000006"><a xlink:title=" ">
<path fill="none" stroke="#63b8ff" d="M413.74,-93.03C447.24,-98.04 488.49,-104.2 523.41,-109.42"/>
<polygon fill="#63b8ff" stroke="#63b8ff" points="523.14,-112.92 533.55,-110.94 524.18,-106 523.14,-112.92"/>
</a>
</g>
</g>
</g>
</svg>
