<?xml version="1.0" encoding="UTF-8" standalone="no"?>
<!DOCTYPE svg PUBLIC "-//W3C//DTD SVG 1.1//EN"
 "http://www.w3.org/Graphics/SVG/1.1/DTD/svg11.dtd">
<!-- Generated by graphviz version 2.43.0 (0)
 -->
<!-- Title: cam.ui_panels.info.CAM_INFO_Properties Pages: 1 -->
<svg width="283pt" height="175pt"
 viewBox="0.00 0.00 283.00 175.00" xmlns="http://www.w3.org/2000/svg" xmlns:xlink="http://www.w3.org/1999/xlink">

<svg id="main" version="1.1" xmlns="http://www.w3.org/2000/svg" xmlns:xlink="http://www.w3.org/1999/xlink" xml:space="preserve" onload="init(evt)">
<style type="text/css"><![CDATA[
.node, .edge {opacity: 0.7;}
.node.selected, .edge.selected {opacity: 1;}
.edge:hover path { stroke: red; }
.edge:hover polygon { stroke: red; fill: red; }
]]></style>
<script type="application/ecmascript" xlink:href="svg.min.js"/>
<svg id="graph" class="graph">
<g id="graph0" class="graph" transform="scale(1 1) rotate(0) translate(4 171)">
<title>cam.ui_panels.info.CAM_INFO_Properties</title>
<!-- Node1 -->
<g id="Node000001" class="node">
<title>Node1</title>
<g id="a_Node000001"><a xlink:title=" ">
<polygon fill="#999999" stroke="transparent" points="203.5,-60 75.5,-60 75.5,0 203.5,0 203.5,-60"/>
<text text-anchor="start" x="80.5" y="-48" font-family="Helvetica,sans-Serif" font-size="10.00">cam.ui_panels.info.CAM</text>
<text text-anchor="start" x="97" y="-37" font-family="Helvetica,sans-Serif" font-size="10.00">_INFO_Properties</text>
<text text-anchor="start" x="137.5" y="-22" font-family="Helvetica,sans-Serif" font-size="10.00"> </text>
<text text-anchor="start" x="137.5" y="-7" font-family="Helvetica,sans-Serif" font-size="10.00"> </text>
<polygon fill="#666666" stroke="#666666" points="75.5,-32 75.5,-32 203.5,-32 203.5,-32 75.5,-32"/>
<polygon fill="#666666" stroke="#666666" points="75.5,-17 75.5,-17 203.5,-17 203.5,-17 75.5,-17"/>
<polygon fill="none" stroke="#666666" points="75.5,0 75.5,-60 203.5,-60 203.5,0 75.5,0"/>
</a>
</g>
</g>
<!-- Node2 -->
<g id="Node000002" class="node">
<title>Node2</title>
<g id="a_Node000002"><a xlink:title=" ">
<polygon fill="white" stroke="transparent" points="81,-167 0,-167 0,-118 81,-118 81,-167"/>
<text text-anchor="start" x="5.5" y="-154.5" font-family="Helvetica,sans-Serif" font-size="10.00">PropertyGroup</text>
<text text-anchor="start" x="39" y="-139.5" font-family="Helvetica,sans-Serif" font-size="10.00"> </text>
<text text-anchor="start" x="39" y="-124.5" font-family="Helvetica,sans-Serif" font-size="10.00"> </text>
<polygon fill="#666666" stroke="#666666" points="0.5,-149.5 0.5,-149.5 81.5,-149.5 81.5,-149.5 0.5,-149.5"/>
<polygon fill="#666666" stroke="#666666" points="0.5,-134.5 0.5,-134.5 81.5,-134.5 81.5,-134.5 0.5,-134.5"/>
<polygon fill="none" stroke="#666666" points="0,-118 0,-167 81,-167 81,-118 0,-118"/>
</a>
</g>
</g>
<!-- Node2&#45;&gt;Node1 -->
<g id="edge1_Node000001_Node000002" class="edge">
<title>Node2&#45;&gt;Node1</title>
<g id="a_edge1_Node000001_Node000002"><a xlink:title=" ">
<path fill="none" stroke="#63b8ff" d="M68.79,-109.93C82.81,-94.27 99.64,-75.49 113.36,-60.17"/>
<polygon fill="none" stroke="#63b8ff" points="65.8,-108.01 61.74,-117.79 71.02,-112.68 65.8,-108.01"/>
</a>
</g>
</g>
<!-- Node3 -->
<g id="Node000003" class="node">
<title>Node3</title>
<g id="a_Node000003"><a xlink:title=" ">
<polygon fill="white" stroke="transparent" points="179.5,-167 99.5,-167 99.5,-118 179.5,-118 179.5,-167"/>
<text text-anchor="start" x="104.5" y="-154.5" font-family="Helvetica,sans-Serif" font-size="10.00">StringProperty</text>
<text text-anchor="start" x="137.5" y="-139.5" font-family="Helvetica,sans-Serif" font-size="10.00"> </text>
<text text-anchor="start" x="137.5" y="-124.5" font-family="Helvetica,sans-Serif" font-size="10.00"> </text>
<polygon fill="#666666" stroke="#666666" points="99.5,-149.5 99.5,-149.5 179.5,-149.5 179.5,-149.5 99.5,-149.5"/>
<polygon fill="#666666" stroke="#666666" points="99.5,-134.5 99.5,-134.5 179.5,-134.5 179.5,-134.5 99.5,-134.5"/>
<polygon fill="none" stroke="#666666" points="99.5,-118 99.5,-167 179.5,-167 179.5,-118 99.5,-118"/>
</a>
</g>
</g>
<!-- Node3&#45;&gt;Node1 -->
<g id="edge2_Node000001_Node000003" class="edge">
<title>Node3&#45;&gt;Node1</title>
<g id="a_edge2_Node000001_Node000003"><a xlink:title=" ">
<path fill="none" stroke="#63b8ff" d="M139.5,-117.79C139.5,-104.62 139.5,-87.84 139.5,-72.55"/>
<polygon fill="none" stroke="#63b8ff" points="139.5,-72.17 135.5,-66.17 139.5,-60.17 143.5,-66.17 139.5,-72.17"/>
</a>
</g>
<text text-anchor="middle" x="167.5" y="-86.5" font-family="Helvetica,sans-Serif" font-size="10.00" fill="grey"> +warnings</text>
</g>
<!-- Node4 -->
<g id="Node000004" class="node">
<title>Node4</title>
<g id="a_Node000004"><a xlink:title=" ">
<polygon fill="white" stroke="transparent" points="275,-167 198,-167 198,-118 275,-118 275,-167"/>
<text text-anchor="start" x="203.5" y="-154.5" font-family="Helvetica,sans-Serif" font-size="10.00">FloatProperty</text>
<text text-anchor="start" x="235" y="-139.5" font-family="Helvetica,sans-Serif" font-size="10.00"> </text>
<text text-anchor="start" x="235" y="-124.5" font-family="Helvetica,sans-Serif" font-size="10.00"> </text>
<polygon fill="#666666" stroke="#666666" points="198.5,-149.5 198.5,-149.5 275.5,-149.5 275.5,-149.5 198.5,-149.5"/>
<polygon fill="#666666" stroke="#666666" points="198.5,-134.5 198.5,-134.5 275.5,-134.5 275.5,-134.5 198.5,-134.5"/>
<polygon fill="none" stroke="#666666" points="198,-118 198,-167 275,-167 275,-118 198,-118"/>
</a>
</g>
</g>
<!-- Node4&#45;&gt;Node1 -->
<g id="edge3_Node000001_Node000004" class="edge">
<title>Node4&#45;&gt;Node1</title>
<g id="a_edge3_Node000001_Node000004"><a xlink:title=" ">
<path fill="none" stroke="#63b8ff" d="M225.43,-117.77C218.9,-105.2 209.9,-89.93 199.5,-78 196.59,-74.66 193.42,-71.39 190.1,-68.23"/>
<polygon fill="none" stroke="#63b8ff" points="189.99,-68.14 182.86,-67.13 181.05,-60.15 188.19,-61.16 189.99,-68.14"/>
</a>
</g>
<text text-anchor="middle" x="241" y="-92" font-family="Helvetica,sans-Serif" font-size="10.00" fill="grey"> +chipload</text>
<text text-anchor="middle" x="241" y="-81" font-family="Helvetica,sans-Serif" font-size="10.00" fill="grey">+duration</text>
</g>
</g>
</svg>
</svg>

<style type='text/css'>
<![CDATA[
[data-mouse-over-selected='false'] { opacity: 0.7; }
[data-mouse-over-selected='true']  { opacity: 1.0; }
]]>
</style>
<script type="application/ecmascript"><![CDATA[
document.addEventListener('DOMContentLoaded', (event) => {
  highlightEdges();
  highlightAdjacentNodes();
});
]]></script>
</svg>
