<?xml version="1.0" encoding="UTF-8" standalone="no"?>
<!DOCTYPE svg PUBLIC "-//W3C//DTD SVG 1.1//EN"
 "http://www.w3.org/Graphics/SVG/1.1/DTD/svg11.dtd">
<!-- Generated by graphviz version 2.43.0 (0)
 -->
<!-- Title: cam.nc.winpc.Creator.TOOL Pages: 1 -->
<!--zoomable 408 -->

<svg id="main" version="1.1" xmlns="http://www.w3.org/2000/svg" xmlns:xlink="http://www.w3.org/1999/xlink" xml:space="preserve" onload="init(evt)">
<style type="text/css"><![CDATA[
.node, .edge {opacity: 0.7;}
.node.selected, .edge.selected {opacity: 1;}
.edge:hover path { stroke: red; }
.edge:hover polygon { stroke: red; fill: red; }
]]></style>

<defs>
  <circle id="rim" cx="0" cy="0" r="7"/>
  <circle id="rim2" cx="0" cy="0" r="3.5"/>
  <g id="zoomPlus">
    <use xlink:href="#rim" fill="#404040"><set attributeName="fill" to="#808080" begin="zoomplus.mouseover" end="zoomplus.mouseout"/></use>
    <path d="M-4,0h8M0,-4v8" fill="none" stroke="white" stroke-width="1.5" pointer-events="none"/>
  </g>
  <g id="zoomMin">
    <use xlink:href="#rim" fill="#404040"><set attributeName="fill" to="#808080" begin="zoomminus.mouseover" end="zoomminus.mouseout"/></use>
    <path d="M-4,0h8" fill="none" stroke="white" stroke-width="1.5" pointer-events="none"/>
  </g>
  <g id="arrowUp" transform="translate(30 24)">
    <use xlink:href="#rim"/>
    <path pointer-events="none" fill="none" stroke="white" stroke-width="1.5" d="M0,-3.0v7 M-2.5,-0.5L0,-3.0L2.5,-0.5"/>
  </g>
  <g id="arrowRight" transform="rotate(90) translate(36 -43)">
    <use xlink:href="#rim"/>
    <path pointer-events="none" fill="none" stroke="white" stroke-width="1.5" d="M0,-3.0v7 M-2.5,-0.5L0,-3.0L2.5,-0.5"/>
  </g>
  <g id="arrowDown" transform="rotate(180) translate(-30 -48)">
    <use xlink:href="#rim"/>
    <path pointer-events="none" fill="none" stroke="white" stroke-width="1.5" d="M0,-3.0v7 M-2.5,-0.5L0,-3.0L2.5,-0.5"/>
  </g>
  <g id="arrowLeft" transform="rotate(270) translate(-36 17)">
    <use xlink:href="#rim"/>
    <path pointer-events="none" fill="none" stroke="white" stroke-width="1.5" d="M0,-3.0v7 M-2.5,-0.5L0,-3.0L2.5,-0.5"/>
  </g>
  <g id="resetDef">
    <use xlink:href="#rim2" fill="#404040"><set attributeName="fill" to="#808080" begin="reset.mouseover" end="reset.mouseout"/></use>
  </g>
</defs>
<script type="application/ecmascript">
var viewWidth = 586;
var viewHeight = 408;
var sectionId = 'dynsection-7';
</script>
<script type="application/ecmascript" xlink:href="svg.min.js"/>
<svg id="graph" class="graph">
<g id="viewport">
<title>cam.nc.winpc.Creator.TOOL</title>
<!-- Node1 -->
<g id="Node000001" class="node">
<title>Node1</title>
<g id="a_Node000001"><a xlink:title=" ">
<polygon fill="#999999" stroke="#666666" points="151,-212 0,-212 0,-193 151,-193 151,-212"/>
<text text-anchor="middle" x="75.5" y="-200" font-family="Helvetica,sans-Serif" font-size="10.00">cam.nc.winpc.Creator.TOOL</text>
</a>
</g>
</g>
<!-- Node2 -->
<g id="Node000002" class="node">
<title>Node2</title>
<g id="a_Node000002"><a xlink:href="classcam_1_1nc_1_1emc2_1_1Creator.html#a47a9e4f5f35681f580765bba2f0f97a5" target="_top" xlink:title=" ">
<polygon fill="white" stroke="#666666" points="349.5,-400 195.5,-400 195.5,-381 349.5,-381 349.5,-400"/>
<text text-anchor="middle" x="272.5" y="-388" font-family="Helvetica,sans-Serif" font-size="10.00">cam.nc.emc2.Creator.SPACE</text>
</a>
</g>
</g>
<!-- Node1&#45;&gt;Node2 -->
<g id="edge1_Node000001_Node000002" class="edge">
<title>Node1&#45;&gt;Node2</title>
<g id="a_edge1_Node000001_Node000002"><a xlink:title=" ">
<path fill="none" stroke="#63b8ff" d="M79.72,-212.09C90.08,-241.39 125.5,-330.23 187,-372.5 189.24,-374.04 191.59,-375.45 194.01,-376.75"/>
<polygon fill="#63b8ff" stroke="#63b8ff" points="192.56,-379.93 203.1,-380.94 195.49,-373.57 192.56,-379.93"/>
</a>
</g>
</g>
<!-- Node3 -->
<g id="Node000003" class="node">
<title>Node3</title>
<g id="a_Node000003"><a xlink:href="classcam_1_1nc_1_1emc2b_1_1Creator.html#abff5586e78bb91681bd41dafdea5a9e7" target="_top" xlink:title=" ">
<polygon fill="white" stroke="#666666" points="352.5,-363 192.5,-363 192.5,-344 352.5,-344 352.5,-363"/>
<text text-anchor="middle" x="272.5" y="-351" font-family="Helvetica,sans-Serif" font-size="10.00">cam.nc.emc2b.Creator.SPACE</text>
</a>
</g>
</g>
<!-- Node1&#45;&gt;Node3 -->
<g id="edge2_Node000001_Node000003" class="edge">
<title>Node1&#45;&gt;Node3</title>
<g id="a_edge2_Node000001_Node000003"><a xlink:title=" ">
<path fill="none" stroke="#63b8ff" d="M81.68,-212.33C95.3,-237.15 134.69,-302.61 187,-334.5 190.61,-336.7 194.45,-338.65 198.42,-340.37"/>
<polygon fill="#63b8ff" stroke="#63b8ff" points="197.29,-343.69 207.88,-343.99 199.79,-337.15 197.29,-343.69"/>
</a>
</g>
</g>
<!-- Node4 -->
<g id="Node000004" class="node">
<title>Node4</title>
<g id="a_Node000004"><a xlink:href="classcam_1_1nc_1_1emc2tap_1_1CodesEMC2.html#a6a0d71a1c6e9f8a80228dc220a0e57ca" target="_top" xlink:title=" ">
<polygon fill="white" stroke="#666666" points="353,-325.5 192,-325.5 192,-295.5 353,-295.5 353,-325.5"/>
<text text-anchor="start" x="200" y="-313.5" font-family="Helvetica,sans-Serif" font-size="10.00">cam.nc.emc2tap.CodesEMC2.</text>
<text text-anchor="middle" x="272.5" y="-302.5" font-family="Helvetica,sans-Serif" font-size="10.00">SPACE</text>
</a>
</g>
</g>
<!-- Node1&#45;&gt;Node4 -->
<g id="edge3_Node000001_Node000004" class="edge">
<title>Node1&#45;&gt;Node4</title>
<g id="a_edge3_Node000001_Node000004"><a xlink:title=" ">
<path fill="none" stroke="#63b8ff" d="M86.29,-212.02C104.58,-229.29 145.83,-265.93 187,-286.5 190.76,-288.38 194.69,-290.13 198.71,-291.76"/>
<polygon fill="#63b8ff" stroke="#63b8ff" points="197.62,-295.09 208.21,-295.35 200.1,-288.54 197.62,-295.09"/>
</a>
</g>
</g>
<!-- Node5 -->
<g id="Node000005" class="node">
<title>Node5</title>
<g id="a_Node000005"><a xlink:href="classcam_1_1nc_1_1heiden_1_1Creator.html#a2c4277ffddaea0f92c906c6744f7a3bd" target="_top" xlink:title="Codes.">
<polygon fill="white" stroke="#666666" points="352.5,-277 192.5,-277 192.5,-258 352.5,-258 352.5,-277"/>
<text text-anchor="middle" x="272.5" y="-265" font-family="Helvetica,sans-Serif" font-size="10.00">cam.nc.heiden.Creator.SPACE</text>
</a>
</g>
</g>
<!-- Node1&#45;&gt;Node5 -->
<g id="edge4_Node000001_Node000005" class="edge">
<title>Node1&#45;&gt;Node5</title>
<g id="a_edge4_Node000001_Node000005"><a xlink:title=" ">
<path fill="none" stroke="#63b8ff" d="M96.47,-212.05C118.31,-222.2 154.52,-238.17 187,-248.5 195.14,-251.09 203.82,-253.46 212.41,-255.59"/>
<polygon fill="#63b8ff" stroke="#63b8ff" points="211.87,-259.06 222.41,-257.97 213.49,-252.25 211.87,-259.06"/>
</a>
</g>
</g>
<!-- Node6 -->
<g id="Node000006" class="node">
<title>Node6</title>
<g id="a_Node000006"><a xlink:href="classcam_1_1nc_1_1heiden530_1_1Creator.html#aa64b19b0edc2ac1f2d568b09ca2aebcb" target="_top" xlink:title="Codes.">
<polygon fill="white" stroke="#666666" points="346,-239.5 199,-239.5 199,-209.5 346,-209.5 346,-239.5"/>
<text text-anchor="start" x="207" y="-227.5" font-family="Helvetica,sans-Serif" font-size="10.00">cam.nc.heiden530.Creator.</text>
<text text-anchor="middle" x="272.5" y="-216.5" font-family="Helvetica,sans-Serif" font-size="10.00">SPACE</text>
</a>
</g>
</g>
<!-- Node1&#45;&gt;Node6 -->
<g id="edge5_Node000001_Node000006" class="edge">
<title>Node1&#45;&gt;Node6</title>
<g id="a_edge5_Node000001_Node000006"><a xlink:title=" ">
<path fill="none" stroke="#63b8ff" d="M151.06,-210.91C163.44,-212.31 176.35,-213.77 188.92,-215.18"/>
<polygon fill="#63b8ff" stroke="#63b8ff" points="188.59,-218.67 198.92,-216.31 189.37,-211.71 188.59,-218.67"/>
</a>
</g>
</g>
<!-- Node7 -->
<g id="Node000007" class="node">
<title>Node7</title>
<g id="a_Node000007"><a xlink:href="classcam_1_1nc_1_1iso_1_1Creator.html#a79463d437baaaf23c828a2c9e62393f3" target="_top" xlink:title=" ">
<polygon fill="white" stroke="#666666" points="343,-191 202,-191 202,-172 343,-172 343,-191"/>
<text text-anchor="middle" x="272.5" y="-179" font-family="Helvetica,sans-Serif" font-size="10.00">cam.nc.iso.Creator.SPACE</text>
</a>
</g>
</g>
<!-- Node1&#45;&gt;Node7 -->
<g id="edge6_Node000001_Node000007" class="edge">
<title>Node1&#45;&gt;Node7</title>
<g id="a_edge6_Node000001_Node000007"><a xlink:title=" ">
<path fill="none" stroke="#63b8ff" d="M151.06,-194.47C164.34,-193.04 178.22,-191.55 191.64,-190.1"/>
<polygon fill="#63b8ff" stroke="#63b8ff" points="192.23,-193.56 201.79,-189.01 191.48,-186.6 192.23,-193.56"/>
</a>
</g>
</g>
<!-- Node15 -->
<g id="Node000015" class="node">
<title>Node15</title>
<g id="a_Node000015"><a xlink:href="classcam_1_1nc_1_1makerbot__codes_1_1Codes.html#a497077e0e500cc8f419b8f3f61f008b4" target="_top" xlink:title=" ">
<polygon fill="white" stroke="#666666" points="358,-153.5 187,-153.5 187,-123.5 358,-123.5 358,-153.5"/>
<text text-anchor="start" x="195" y="-141.5" font-family="Helvetica,sans-Serif" font-size="10.00">cam.nc.makerbot_codes.Codes.</text>
<text text-anchor="middle" x="272.5" y="-130.5" font-family="Helvetica,sans-Serif" font-size="10.00">SPACE</text>
</a>
</g>
</g>
<!-- Node1&#45;&gt;Node15 -->
<g id="edge14_Node000001_Node000015" class="edge">
<title>Node1&#45;&gt;Node15</title>
<g id="a_edge14_Node000001_Node000015"><a xlink:title=" ">
<path fill="none" stroke="#63b8ff" d="M102.27,-192.98C124.58,-184.84 157.78,-172.97 187,-163.5 194.18,-161.17 201.74,-158.81 209.26,-156.52"/>
<polygon fill="#63b8ff" stroke="#63b8ff" points="210.52,-159.79 219.08,-153.55 208.5,-153.09 210.52,-159.79"/>
</a>
</g>
</g>
<!-- Node16 -->
<g id="Node000016" class="node">
<title>Node16</title>
<g id="a_Node000016"><a xlink:href="classcam_1_1nc_1_1series1_1_1Creator.html#a75918d23eef609baab85058fda3050d5" target="_top" xlink:title=" ">
<polygon fill="white" stroke="#666666" points="353.5,-105 191.5,-105 191.5,-86 353.5,-86 353.5,-105"/>
<text text-anchor="middle" x="272.5" y="-93" font-family="Helvetica,sans-Serif" font-size="10.00">cam.nc.series1.Creator.SPACE</text>
</a>
</g>
</g>
<!-- Node1&#45;&gt;Node16 -->
<g id="edge15_Node000001_Node000016" class="edge">
<title>Node1&#45;&gt;Node16</title>
<g id="a_edge15_Node000001_Node000016"><a xlink:title=" ">
<path fill="none" stroke="#63b8ff" d="M85.53,-192.85C103.19,-174.58 144.32,-134.95 187,-114.5 192.21,-112 197.76,-109.83 203.44,-107.93"/>
<polygon fill="#63b8ff" stroke="#63b8ff" points="204.51,-111.26 213.06,-105 202.47,-104.57 204.51,-111.26"/>
</a>
</g>
</g>
<!-- Node17 -->
<g id="Node000017" class="node">
<title>Node17</title>
<g id="a_Node000017"><a xlink:href="classcam_1_1nc_1_1shopbot__mtc_1_1Creator.html#a1512dbb5d0140eb216ed709a542261ac" target="_top" xlink:title="Codes.">
<polygon fill="white" stroke="#666666" points="352,-67.5 193,-67.5 193,-37.5 352,-37.5 352,-67.5"/>
<text text-anchor="start" x="201" y="-55.5" font-family="Helvetica,sans-Serif" font-size="10.00">cam.nc.shopbot_mtc.Creator.</text>
<text text-anchor="middle" x="272.5" y="-44.5" font-family="Helvetica,sans-Serif" font-size="10.00">SPACE</text>
</a>
</g>
</g>
<!-- Node1&#45;&gt;Node17 -->
<g id="edge16_Node000001_Node000017" class="edge">
<title>Node1&#45;&gt;Node17</title>
<g id="a_edge16_Node000001_Node000017"><a xlink:title=" ">
<path fill="none" stroke="#63b8ff" d="M82.12,-192.94C96.45,-169.4 136.83,-108.22 187,-76.5 189.62,-74.84 192.36,-73.3 195.18,-71.85"/>
<polygon fill="#63b8ff" stroke="#63b8ff" points="196.81,-74.96 204.43,-67.6 193.88,-68.6 196.81,-74.96"/>
</a>
</g>
</g>
<!-- Node18 -->
<g id="Node000018" class="node">
<title>Node18</title>
<g id="a_Node000018"><a xlink:href="classcam_1_1nc_1_1tnc151_1_1Creator.html#af5d9e50b2ff0e73cd7524e2145d55d76" target="_top" xlink:title=" ">
<polygon fill="white" stroke="#666666" points="352.5,-19 192.5,-19 192.5,0 352.5,0 352.5,-19"/>
<text text-anchor="middle" x="272.5" y="-7" font-family="Helvetica,sans-Serif" font-size="10.00">cam.nc.tnc151.Creator.SPACE</text>
</a>
</g>
</g>
<!-- Node1&#45;&gt;Node18 -->
<g id="edge17_Node000001_Node000018" class="edge">
<title>Node1&#45;&gt;Node18</title>
<g id="a_edge17_Node000001_Node000018"><a xlink:title=" ">
<path fill="none" stroke="#63b8ff" d="M79.67,-192.72C89.89,-162.83 124.95,-72.15 187,-28.5 189.85,-26.49 192.88,-24.69 196.04,-23.08"/>
<polygon fill="#63b8ff" stroke="#63b8ff" points="197.48,-26.27 205.19,-19.01 194.63,-19.87 197.48,-26.27"/>
</a>
</g>
</g>
<!-- Node8 -->
<g id="Node000008" class="node">
<title>Node8</title>
<g id="a_Node000008"><a xlink:href="classcam_1_1nc_1_1anilam__crusader__m_1_1Creator.html#a36f873a0248bcaa4cf2cfb220dc1b00c" target="_top" xlink:title="Codes.">
<polygon fill="white" stroke="#666666" points="554,-313.5 418,-313.5 418,-283.5 554,-283.5 554,-313.5"/>
<text text-anchor="start" x="426" y="-301.5" font-family="Helvetica,sans-Serif" font-size="10.00">cam.nc.anilam_crusader</text>
<text text-anchor="middle" x="486" y="-290.5" font-family="Helvetica,sans-Serif" font-size="10.00">_m.Creator.SPACE_STR</text>
</a>
</g>
</g>
<!-- Node7&#45;&gt;Node8 -->
<g id="edge7_Node000007_Node000008" class="edge">
<title>Node7&#45;&gt;Node8</title>
<g id="a_edge7_Node000007_Node000008"><a xlink:title=" ">
<path fill="none" stroke="#63b8ff" d="M341.96,-191.1C347.71,-193.59 353.17,-196.67 358,-200.5 386.68,-223.2 365.74,-251.28 394,-274.5 398.34,-278.07 403.15,-281.11 408.24,-283.7"/>
<polygon fill="#63b8ff" stroke="#63b8ff" points="407.08,-287.02 417.64,-287.9 409.93,-280.62 407.08,-287.02"/>
</a>
</g>
</g>
<!-- Node9 -->
<g id="Node000009" class="node">
<title>Node9</title>
<g id="a_Node000009"><a xlink:href="classcam_1_1nc_1_1fadal_1_1Creator.html#a97a50724edf2662eb4fe76b15516b638" target="_top" xlink:title="Codes.">
<polygon fill="white" stroke="#666666" points="574,-265 398,-265 398,-246 574,-246 574,-265"/>
<text text-anchor="middle" x="486" y="-253" font-family="Helvetica,sans-Serif" font-size="10.00">cam.nc.fadal.Creator.SPACE_STR</text>
</a>
</g>
</g>
<!-- Node7&#45;&gt;Node9 -->
<g id="edge8_Node000007_Node000009" class="edge">
<title>Node7&#45;&gt;Node9</title>
<g id="a_edge8_Node000007_Node000009"><a xlink:title=" ">
<path fill="none" stroke="#63b8ff" d="M335.51,-191.05C343.35,-193.51 351.05,-196.61 358,-200.5 378.02,-211.7 373.83,-226.56 394,-237.5 397.31,-239.3 400.77,-240.91 404.33,-242.37"/>
<polygon fill="#63b8ff" stroke="#63b8ff" points="403.36,-245.74 413.95,-245.87 405.75,-239.16 403.36,-245.74"/>
</a>
</g>
</g>
<!-- Node10 -->
<g id="Node000010" class="node">
<title>Node10</title>
<g id="a_Node000010"><a xlink:href="classcam_1_1nc_1_1gravos_1_1Creator.html#ac0bc0d26e8a92a65c0f33d696ad850f5" target="_top" xlink:title="Codes.">
<polygon fill="white" stroke="#666666" points="578,-228 394,-228 394,-209 578,-209 578,-228"/>
<text text-anchor="middle" x="486" y="-216" font-family="Helvetica,sans-Serif" font-size="10.00">cam.nc.gravos.Creator.SPACE_STR</text>
</a>
</g>
</g>
<!-- Node7&#45;&gt;Node10 -->
<g id="edge9_Node000007_Node000010" class="edge">
<title>Node7&#45;&gt;Node10</title>
<g id="a_edge9_Node000007_Node000010"><a xlink:title=" ">
<path fill="none" stroke="#63b8ff" d="M327.97,-191.03C356.1,-195.95 390.63,-201.99 420.14,-207.15"/>
<polygon fill="#63b8ff" stroke="#63b8ff" points="419.9,-210.66 430.35,-208.94 421.1,-203.77 419.9,-210.66"/>
</a>
</g>
</g>
<!-- Node11 -->
<g id="Node000011" class="node">
<title>Node11</title>
<g id="a_Node000011"><a xlink:href="classcam_1_1nc_1_1iso_1_1Creator.html#aa481cf1e394988751640fd5ce5af991e" target="_top" xlink:title="Codes.">
<polygon fill="white" stroke="#666666" points="568.5,-191 403.5,-191 403.5,-172 568.5,-172 568.5,-191"/>
<text text-anchor="middle" x="486" y="-179" font-family="Helvetica,sans-Serif" font-size="10.00">cam.nc.iso.Creator.SPACE_STR</text>
</a>
</g>
</g>
<!-- Node7&#45;&gt;Node11 -->
<g id="edge10_Node000007_Node000011" class="edge">
<title>Node7&#45;&gt;Node11</title>
<g id="a_edge10_Node000007_Node000011"><a xlink:title=" ">
<path fill="none" stroke="#63b8ff" d="M343.05,-181.5C359,-181.5 376.2,-181.5 392.94,-181.5"/>
<polygon fill="#63b8ff" stroke="#63b8ff" points="393.29,-185 403.29,-181.5 393.29,-178 393.29,-185"/>
</a>
</g>
</g>
<!-- Node12 -->
<g id="Node000012" class="node">
<title>Node12</title>
<g id="a_Node000012"><a xlink:href="classcam_1_1nc_1_1lynx__otter__o_1_1Creator.html#a73b176561e066abcdb256a1bf53a5fcc" target="_top" xlink:title="Codes.">
<polygon fill="white" stroke="#666666" points="564.5,-153.5 407.5,-153.5 407.5,-123.5 564.5,-123.5 564.5,-153.5"/>
<text text-anchor="start" x="415.5" y="-141.5" font-family="Helvetica,sans-Serif" font-size="10.00">cam.nc.lynx_otter_o.Creator.</text>
<text text-anchor="middle" x="486" y="-130.5" font-family="Helvetica,sans-Serif" font-size="10.00">SPACE_STR</text>
</a>
</g>
</g>
<!-- Node7&#45;&gt;Node12 -->
<g id="edge11_Node000007_Node000012" class="edge">
<title>Node7&#45;&gt;Node12</title>
<g id="a_edge11_Node000007_Node000012"><a xlink:title=" ">
<path fill="none" stroke="#63b8ff" d="M320.44,-171.96C344.18,-167.13 373.71,-161.13 401.18,-155.54"/>
<polygon fill="#63b8ff" stroke="#63b8ff" points="402.09,-158.93 411.19,-153.51 400.69,-152.07 402.09,-158.93"/>
</a>
</g>
</g>
<!-- Node13 -->
<g id="Node000013" class="node">
<title>Node13</title>
<g id="a_Node000013"><a xlink:href="classcam_1_1nc_1_1mach3_1_1Creator.html#aa461d578afa76c5af9bb5562b79d955a" target="_top" xlink:title="Codes.">
<polygon fill="white" stroke="#666666" points="578,-105 394,-105 394,-86 578,-86 578,-105"/>
<text text-anchor="middle" x="486" y="-93" font-family="Helvetica,sans-Serif" font-size="10.00">cam.nc.mach3.Creator.SPACE_STR</text>
</a>
</g>
</g>
<!-- Node7&#45;&gt;Node13 -->
<g id="edge12_Node000007_Node000013" class="edge">
<title>Node7&#45;&gt;Node13</title>
<g id="a_edge12_Node000007_Node000013"><a xlink:title=" ">
<path fill="none" stroke="#63b8ff" d="M338.64,-171.86C345.46,-169.41 352.07,-166.34 358,-162.5 380.39,-148.01 371.5,-128.81 394,-114.5 397.35,-112.37 400.9,-110.47 404.57,-108.78"/>
<polygon fill="#63b8ff" stroke="#63b8ff" points="405.97,-111.99 413.94,-105 403.35,-105.5 405.97,-111.99"/>
</a>
</g>
</g>
<!-- Node14 -->
<g id="Node000014" class="node">
<title>Node14</title>
<g id="a_Node000014"><a xlink:href="classcam_1_1nc_1_1winpc_1_1Creator.html#aae1cb93a5dd430719105fa03a054f654" target="_top" xlink:title="Codes.">
<polygon fill="white" stroke="#666666" points="575.5,-68 396.5,-68 396.5,-49 575.5,-49 575.5,-68"/>
<text text-anchor="middle" x="486" y="-56" font-family="Helvetica,sans-Serif" font-size="10.00">cam.nc.winpc.Creator.SPACE_STR</text>
</a>
</g>
</g>
<!-- Node7&#45;&gt;Node14 -->
<g id="edge13_Node000007_Node000014" class="edge">
<title>Node7&#45;&gt;Node14</title>
<g id="a_edge13_Node000007_Node000014"><a xlink:title=" ">
<path fill="none" stroke="#63b8ff" d="M342.61,-172C348.16,-169.49 353.39,-166.36 358,-162.5 389.75,-135.88 361.91,-102.71 394,-76.5 395.54,-75.24 397.15,-74.06 398.81,-72.95"/>
<polygon fill="#63b8ff" stroke="#63b8ff" points="400.54,-76 407.52,-68.03 397.09,-69.91 400.54,-76"/>
</a>
</g>
</g>
</g>
</svg>

<g id="navigator" transform="translate(0 0)" fill="#404254">
  <rect fill="#f2f5e9" fill-opacity="0.5" stroke="#606060" stroke-width=".5" x="0" y="0" width="60" height="60"/>
  <use id="zoomplus" xlink:href="#zoomPlus" x="17" y="9" onmousedown="handleZoom(evt,'in')"/>
  <use id="zoomminus" xlink:href="#zoomMin" x="42" y="9" onmousedown="handleZoom(evt,'out')"/>
  <use id="reset" xlink:href="#resetDef" x="30" y="36" onmousedown="handleReset()"/>
   <use id="arrowup" xlink:href="#arrowUp" x="0" y="0" onmousedown="handlePan(0,-1)"/>
  <use id="arrowright" xlink:href="#arrowRight" x="0" y="0" onmousedown="handlePan(1,0)"/>
  <use id="arrowdown" xlink:href="#arrowDown" x="0" y="0" onmousedown="handlePan(0,1)"/>
  <use id="arrowleft" xlink:href="#arrowLeft" x="0" y="0" onmousedown="handlePan(-1,0)"/>
</g>
<svg viewBox="0 0 15 15" width="100%" height="30px" preserveAspectRatio="xMaxYMin meet">
 <g id="arrow_out" transform="scale(0.3 0.3)">
  <a xlink:href="classcam_1_1nc_1_1winpc_1_1Creator_ac4abcb37279bb85454570b22a9f2edea_cgraph_org.svg" target="_base">
   <rect id="button" ry="5" rx="5" y="6" x="6" height="38" width="38"
        fill="#f2f5e9" fill-opacity="0.5" stroke="#606060" stroke-width="1.0"/>
   <path id="arrow"
     d="M 11.500037,31.436501 C 11.940474,20.09759 22.043105,11.32322 32.158766,21.979434 L 37.068811,17.246167 C 37.068811,17.246167 37.088388,32 37.088388,32 L 22.160133,31.978069 C 22.160133,31.978069 26.997745,27.140456 26.997745,27.140456 C 18.528582,18.264221 13.291696,25.230495 11.500037,31.436501 z"
     style="fill:#404040;"/>
  </a>
 </g>
</svg>

<style type='text/css'>
<![CDATA[
[data-mouse-over-selected='false'] { opacity: 0.7; }
[data-mouse-over-selected='true']  { opacity: 1.0; }
]]>
</style>
<script type="application/ecmascript"><![CDATA[
document.addEventListener('DOMContentLoaded', (event) => {
  highlightEdges();
  highlightAdjacentNodes();
});
]]></script>
</svg>
