<?xml version="1.0" encoding="UTF-8" standalone="no"?>
<!DOCTYPE svg PUBLIC "-//W3C//DTD SVG 1.1//EN"
 "http://www.w3.org/Graphics/SVG/1.1/DTD/svg11.dtd">
<!-- Generated by graphviz version 2.43.0 (0)
 -->
<!-- Title: cam.nc.iso.Creator.feed Pages: 1 -->
<!--zoomable 767 -->

<svg id="main" version="1.1" xmlns="http://www.w3.org/2000/svg" xmlns:xlink="http://www.w3.org/1999/xlink" xml:space="preserve" onload="init(evt)">
<style type="text/css"><![CDATA[
.node, .edge {opacity: 0.7;}
.node.selected, .edge.selected {opacity: 1;}
.edge:hover path { stroke: red; }
.edge:hover polygon { stroke: red; fill: red; }
]]></style>

<defs>
  <circle id="rim" cx="0" cy="0" r="7"/>
  <circle id="rim2" cx="0" cy="0" r="3.5"/>
  <g id="zoomPlus">
    <use xlink:href="#rim" fill="#404040"><set attributeName="fill" to="#808080" begin="zoomplus.mouseover" end="zoomplus.mouseout"/></use>
    <path d="M-4,0h8M0,-4v8" fill="none" stroke="white" stroke-width="1.5" pointer-events="none"/>
  </g>
  <g id="zoomMin">
    <use xlink:href="#rim" fill="#404040"><set attributeName="fill" to="#808080" begin="zoomminus.mouseover" end="zoomminus.mouseout"/></use>
    <path d="M-4,0h8" fill="none" stroke="white" stroke-width="1.5" pointer-events="none"/>
  </g>
  <g id="arrowUp" transform="translate(30 24)">
    <use xlink:href="#rim"/>
    <path pointer-events="none" fill="none" stroke="white" stroke-width="1.5" d="M0,-3.0v7 M-2.5,-0.5L0,-3.0L2.5,-0.5"/>
  </g>
  <g id="arrowRight" transform="rotate(90) translate(36 -43)">
    <use xlink:href="#rim"/>
    <path pointer-events="none" fill="none" stroke="white" stroke-width="1.5" d="M0,-3.0v7 M-2.5,-0.5L0,-3.0L2.5,-0.5"/>
  </g>
  <g id="arrowDown" transform="rotate(180) translate(-30 -48)">
    <use xlink:href="#rim"/>
    <path pointer-events="none" fill="none" stroke="white" stroke-width="1.5" d="M0,-3.0v7 M-2.5,-0.5L0,-3.0L2.5,-0.5"/>
  </g>
  <g id="arrowLeft" transform="rotate(270) translate(-36 17)">
    <use xlink:href="#rim"/>
    <path pointer-events="none" fill="none" stroke="white" stroke-width="1.5" d="M0,-3.0v7 M-2.5,-0.5L0,-3.0L2.5,-0.5"/>
  </g>
  <g id="resetDef">
    <use xlink:href="#rim2" fill="#404040"><set attributeName="fill" to="#808080" begin="reset.mouseover" end="reset.mouseout"/></use>
  </g>
</defs>
<script type="application/ecmascript">
var viewWidth = 746;
var viewHeight = 767;
var sectionId = 'dynsection-44';
</script>
<script type="application/ecmascript" xlink:href="svg.min.js"/>
<svg id="graph" class="graph">
<g id="viewport">
<title>cam.nc.iso.Creator.feed</title>
<!-- Node1 -->
<g id="Node000001" class="node">
<title>Node1</title>
<g id="a_Node000001"><a xlink:title=" ">
<polygon fill="#999999" stroke="#666666" points="738,-134.5 606,-134.5 606,-115.5 738,-115.5 738,-134.5"/>
<text text-anchor="middle" x="672" y="-122.5" font-family="Helvetica,sans-Serif" font-size="10.00">cam.nc.iso.Creator.feed</text>
</a>
</g>
</g>
<!-- Node2 -->
<g id="Node000002" class="node">
<title>Node2</title>
<g id="a_Node000002"><a xlink:href="classcam_1_1nc_1_1heiden_1_1Creator.html#a78c90cc7cedad79ff356840b59527774" target="_top" xlink:title=" ">
<polygon fill="white" stroke="#666666" points="563.5,-399.5 419.5,-399.5 419.5,-380.5 563.5,-380.5 563.5,-399.5"/>
<text text-anchor="middle" x="491.5" y="-387.5" font-family="Helvetica,sans-Serif" font-size="10.00">cam.nc.heiden.Creator.arc</text>
</a>
</g>
</g>
<!-- Node1&#45;&gt;Node2 -->
<g id="edge1_Node000001_Node000002" class="edge">
<title>Node1&#45;&gt;Node2</title>
<g id="a_edge1_Node000001_Node000002"><a xlink:title=" ">
<path fill="none" stroke="#63b8ff" d="M658.7,-143.27C623.81,-195.05 525.11,-341.59 498.94,-380.45"/>
<polygon fill="#63b8ff" stroke="#63b8ff" points="661.75,-145 664.44,-134.75 655.95,-141.08 661.75,-145"/>
</a>
</g>
</g>
<!-- Node3 -->
<g id="Node000003" class="node">
<title>Node3</title>
<g id="a_Node000003"><a xlink:href="classcam_1_1nc_1_1iso_1_1Creator.html#aed90658ba02dc4e25c565f6e3a70670d" target="_top" xlink:title=" ">
<polygon fill="white" stroke="#666666" points="365.5,-399.5 240.5,-399.5 240.5,-380.5 365.5,-380.5 365.5,-399.5"/>
<text text-anchor="middle" x="303" y="-387.5" font-family="Helvetica,sans-Serif" font-size="10.00">cam.nc.iso.Creator.arc</text>
</a>
</g>
</g>
<!-- Node1&#45;&gt;Node3 -->
<g id="edge38_Node000001_Node000003" class="edge">
<title>Node1&#45;&gt;Node3</title>
<g id="a_edge38_Node000001_Node000003"><a xlink:title=" ">
<path fill="none" stroke="#63b8ff" d="M649.17,-140.77C580.76,-190.16 371.94,-340.94 317.23,-380.45"/>
<polygon fill="#63b8ff" stroke="#63b8ff" points="651.44,-143.44 657.5,-134.75 647.35,-137.76 651.44,-143.44"/>
</a>
</g>
</g>
<!-- Node20 -->
<g id="Node000020" class="node">
<title>Node20</title>
<g id="a_Node000020"><a xlink:href="classcam_1_1nc_1_1heiden_1_1Creator.html#ab1ba24f0b927edab5d70c6642ceacfc4" target="_top" xlink:title=" ">
<polygon fill="white" stroke="#666666" points="377,-58.5 229,-58.5 229,-39.5 377,-39.5 377,-58.5"/>
<text text-anchor="middle" x="303" y="-46.5" font-family="Helvetica,sans-Serif" font-size="10.00">cam.nc.heiden.Creator.drill</text>
</a>
</g>
</g>
<!-- Node1&#45;&gt;Node20 -->
<g id="edge39_Node000001_Node000020" class="edge">
<title>Node1&#45;&gt;Node20</title>
<g id="a_edge39_Node000001_Node000020"><a xlink:title=" ">
<path fill="none" stroke="#63b8ff" d="M595.65,-121.07C543.29,-116.63 472.5,-107.16 413,-87 395.66,-81.13 394.04,-73.69 377,-67 368.62,-63.71 359.45,-60.88 350.53,-58.51"/>
<polygon fill="#63b8ff" stroke="#63b8ff" points="595.62,-124.58 605.87,-121.9 596.19,-117.6 595.62,-124.58"/>
</a>
</g>
</g>
<!-- Node21 -->
<g id="Node000021" class="node">
<title>Node21</title>
<g id="a_Node000021"><a xlink:href="classcam_1_1nc_1_1iso_1_1Creator.html#a61f29267aaaddc3d5c8471f9bf714cb3" target="_top" xlink:title=" ">
<polygon fill="white" stroke="#666666" points="367.5,-95.5 238.5,-95.5 238.5,-76.5 367.5,-76.5 367.5,-95.5"/>
<text text-anchor="middle" x="303" y="-83.5" font-family="Helvetica,sans-Serif" font-size="10.00">cam.nc.iso.Creator.drill</text>
</a>
</g>
</g>
<!-- Node1&#45;&gt;Node21 -->
<g id="edge41_Node000001_Node000021" class="edge">
<title>Node1&#45;&gt;Node21</title>
<g id="a_edge41_Node000001_Node000021"><a xlink:title=" ">
<path fill="none" stroke="#63b8ff" d="M595.77,-129.11C544.04,-130.58 473.94,-129.89 413,-120 404.98,-118.7 362.5,-105.11 333.01,-95.51"/>
<polygon fill="#63b8ff" stroke="#63b8ff" points="595.98,-132.61 605.87,-128.79 595.76,-125.61 595.98,-132.61"/>
</a>
</g>
</g>
<!-- Node22 -->
<g id="Node000022" class="node">
<title>Node22</title>
<g id="a_Node000022"><a xlink:href="classcam_1_1nc_1_1heiden_1_1Creator.html#a921825a14a9068d234377d7ac3b7777f" target="_top" xlink:title=" ">
<polygon fill="white" stroke="#666666" points="570,-78 413,-78 413,-48 570,-48 570,-78"/>
<text text-anchor="start" x="421" y="-66" font-family="Helvetica,sans-Serif" font-size="10.00">cam.nc.heiden.Creator.probe</text>
<text text-anchor="middle" x="491.5" y="-55" font-family="Helvetica,sans-Serif" font-size="10.00">_single_point</text>
</a>
</g>
</g>
<!-- Node1&#45;&gt;Node22 -->
<g id="edge43_Node000001_Node000022" class="edge">
<title>Node1&#45;&gt;Node22</title>
<g id="a_edge43_Node000001_Node000022"><a xlink:title=" ">
<path fill="none" stroke="#63b8ff" d="M633.91,-112.12C605.42,-102.22 566,-88.53 536.02,-78.12"/>
<polygon fill="#63b8ff" stroke="#63b8ff" points="632.91,-115.47 643.5,-115.45 635.2,-108.86 632.91,-115.47"/>
</a>
</g>
</g>
<!-- Node23 -->
<g id="Node000023" class="node">
<title>Node23</title>
<g id="a_Node000023"><a xlink:href="classcam_1_1nc_1_1iso_1_1Creator.html#adc5343ffd168991077858693d6a79fef" target="_top" xlink:title=" ">
<polygon fill="white" stroke="#666666" points="560.5,-30 422.5,-30 422.5,0 560.5,0 560.5,-30"/>
<text text-anchor="start" x="430.5" y="-18" font-family="Helvetica,sans-Serif" font-size="10.00">cam.nc.iso.Creator.probe</text>
<text text-anchor="middle" x="491.5" y="-7" font-family="Helvetica,sans-Serif" font-size="10.00">_single_point</text>
</a>
</g>
</g>
<!-- Node1&#45;&gt;Node23 -->
<g id="edge44_Node000001_Node000023" class="edge">
<title>Node1&#45;&gt;Node23</title>
<g id="a_edge44_Node000001_Node000023"><a xlink:title=" ">
<path fill="none" stroke="#63b8ff" d="M655.13,-107.81C636.46,-88.53 603.72,-57.55 570,-39 563.83,-35.61 557.11,-32.62 550.3,-30.02"/>
<polygon fill="#63b8ff" stroke="#63b8ff" points="652.8,-110.44 662.23,-115.28 657.88,-105.62 652.8,-110.44"/>
</a>
</g>
</g>
<!-- Node2&#45;&gt;Node2 -->
<g id="edge2_Node000002_Node000002" class="edge">
<title>Node2&#45;&gt;Node2</title>
<g id="a_edge2_Node000002_Node000002"><a xlink:title=" ">
<path fill="none" stroke="#63b8ff" d="M525.18,-407.95C524.22,-413.32 512.99,-417.5 491.5,-417.5 459.51,-417.5 450.26,-408.23 463.76,-399.58"/>
<polygon fill="#63b8ff" stroke="#63b8ff" points="527.89,-405.71 519.24,-399.58 522.18,-409.76 527.89,-405.71"/>
</a>
</g>
</g>
<!-- Node2&#45;&gt;Node3 -->
<g id="edge3_Node000002_Node000003" class="edge">
<title>Node2&#45;&gt;Node3</title>
<g id="a_edge3_Node000002_Node000003"><a xlink:title=" ">
<path fill="none" stroke="#63b8ff" d="M409.4,-383.3C394.75,-383.18 379.69,-383.28 365.7,-383.61"/>
<polygon fill="#63b8ff" stroke="#63b8ff" points="409.42,-386.8 419.46,-383.42 409.5,-379.8 409.42,-386.8"/>
</a>
</g>
</g>
<!-- Node4 -->
<g id="Node000004" class="node">
<title>Node4</title>
<g id="a_Node000004"><a xlink:href="classcam_1_1nc_1_1heiden_1_1Creator.html#a7c0262bb6935f21773e134b851cbff38" target="_top" xlink:title=" ">
<polygon fill="white" stroke="#666666" points="180.5,-560.5 12.5,-560.5 12.5,-541.5 180.5,-541.5 180.5,-560.5"/>
<text text-anchor="middle" x="96.5" y="-548.5" font-family="Helvetica,sans-Serif" font-size="10.00">cam.nc.heiden.Creator.arc_ccw</text>
</a>
</g>
</g>
<!-- Node2&#45;&gt;Node4 -->
<g id="edge22_Node000002_Node000004" class="edge">
<title>Node2&#45;&gt;Node4</title>
<g id="a_edge22_Node000002_Node000004"><a xlink:title=" ">
<path fill="none" stroke="#63b8ff" d="M478.16,-407.93C459.48,-433.55 421.45,-480.05 377,-503 315.97,-534.51 238.46,-545.93 180.55,-549.8"/>
<polygon fill="#63b8ff" stroke="#63b8ff" points="481.2,-409.7 484.14,-399.52 475.49,-405.64 481.2,-409.7"/>
</a>
</g>
</g>
<!-- Node5 -->
<g id="Node000005" class="node">
<title>Node5</title>
<g id="a_Node000005"><a xlink:href="classcam_1_1nc_1_1hpgl2d_1_1Creator.html#ae869adedb7242daa7c1b42302c182896" target="_top" xlink:title=" ">
<polygon fill="white" stroke="#666666" points="180.5,-522.5 12.5,-522.5 12.5,-503.5 180.5,-503.5 180.5,-522.5"/>
<text text-anchor="middle" x="96.5" y="-510.5" font-family="Helvetica,sans-Serif" font-size="10.00">cam.nc.hpgl2d.Creator.arc_ccw</text>
</a>
</g>
</g>
<!-- Node2&#45;&gt;Node5 -->
<g id="edge23_Node000002_Node000005" class="edge">
<title>Node2&#45;&gt;Node5</title>
<g id="a_edge23_Node000002_Node000005"><a xlink:title=" ">
<path fill="none" stroke="#63b8ff" d="M473.51,-406.68C452.65,-426.07 415.32,-457.39 377,-473 314.24,-498.56 237.75,-508.18 180.66,-511.62"/>
<polygon fill="#63b8ff" stroke="#63b8ff" points="476.06,-409.08 480.9,-399.65 471.24,-404 476.06,-409.08"/>
</a>
</g>
</g>
<!-- Node6 -->
<g id="Node000006" class="node">
<title>Node6</title>
<g id="a_Node000006"><a xlink:href="classcam_1_1nc_1_1iso_1_1Creator.html#a73623b6caaf8efee669803ee57ca97a9" target="_top" xlink:title=" ">
<polygon fill="white" stroke="#666666" points="171,-484.5 22,-484.5 22,-465.5 171,-465.5 171,-484.5"/>
<text text-anchor="middle" x="96.5" y="-472.5" font-family="Helvetica,sans-Serif" font-size="10.00">cam.nc.iso.Creator.arc_ccw</text>
</a>
</g>
</g>
<!-- Node2&#45;&gt;Node6 -->
<g id="edge24_Node000002_Node000006" class="edge">
<title>Node2&#45;&gt;Node6</title>
<g id="a_edge24_Node000002_Node000006"><a xlink:title=" ">
<path fill="none" stroke="#63b8ff" d="M467.09,-404.97C444.84,-418.4 409.98,-437.42 377,-447 309.09,-466.72 228.44,-473.08 171.27,-474.9"/>
<polygon fill="#63b8ff" stroke="#63b8ff" points="469.13,-407.83 475.81,-399.6 465.46,-401.86 469.13,-407.83"/>
</a>
</g>
</g>
<!-- Node7 -->
<g id="Node000007" class="node">
<title>Node7</title>
<g id="a_Node000007"><a xlink:href="classcam_1_1nc_1_1lathe1_1_1CreatorIso.html#a9eae946df7fc34b9a46e33a00d891c3d" target="_top" xlink:title=" ">
<polygon fill="white" stroke="#666666" points="187,-445.5 6,-445.5 6,-426.5 187,-426.5 187,-445.5"/>
<text text-anchor="middle" x="96.5" y="-433.5" font-family="Helvetica,sans-Serif" font-size="10.00">cam.nc.lathe1.CreatorIso.arc_ccw</text>
</a>
</g>
</g>
<!-- Node2&#45;&gt;Node7 -->
<g id="edge25_Node000002_Node000007" class="edge">
<title>Node2&#45;&gt;Node7</title>
<g id="a_edge25_Node000002_Node000007"><a xlink:title=" ">
<path fill="none" stroke="#63b8ff" d="M458.16,-403.25C435.79,-411.75 405.1,-422.07 377,-427 314.24,-438.01 242.36,-440.1 187.22,-439.51"/>
<polygon fill="#63b8ff" stroke="#63b8ff" points="459.46,-406.51 467.52,-399.63 456.93,-399.98 459.46,-406.51"/>
</a>
</g>
</g>
<!-- Node8 -->
<g id="Node000008" class="node">
<title>Node8</title>
<g id="a_Node000008"><a xlink:href="classcam_1_1nc_1_1makerbotHBP_1_1CreatorMakerbotHBP.html#aa7b30248f278113e0c9a324820824941" target="_top" xlink:title=" ">
<polygon fill="white" stroke="#666666" points="176,-403 17,-403 17,-373 176,-373 176,-403"/>
<text text-anchor="start" x="25" y="-391" font-family="Helvetica,sans-Serif" font-size="10.00">cam.nc.makerbotHBP.Creator</text>
<text text-anchor="middle" x="96.5" y="-380" font-family="Helvetica,sans-Serif" font-size="10.00">MakerbotHBP.arc_ccw</text>
</a>
</g>
</g>
<!-- Node2&#45;&gt;Node8 -->
<g id="edge26_Node000002_Node000008" class="edge">
<title>Node2&#45;&gt;Node8</title>
<g id="a_edge26_Node000002_Node000008"><a xlink:title=" ">
<path fill="none" stroke="#63b8ff" d="M431.23,-378.8C413.82,-376 394.71,-373.4 377,-372 311.43,-366.83 294.66,-368.02 229,-372 211.9,-373.04 193.61,-374.82 176.28,-376.84"/>
<polygon fill="#63b8ff" stroke="#63b8ff" points="430.82,-382.28 441.26,-380.46 431.97,-375.37 430.82,-382.28"/>
</a>
</g>
</g>
<!-- Node9 -->
<g id="Node000009" class="node">
<title>Node9</title>
<g id="a_Node000009"><a xlink:href="classcam_1_1nc_1_1recreator_1_1Redirector.html#a50bb4fcb175a9c87e1cf45a79cd54ff1" target="_top" xlink:title=" ">
<polygon fill="white" stroke="#666666" points="193,-353.5 0,-353.5 0,-334.5 193,-334.5 193,-353.5"/>
<text text-anchor="middle" x="96.5" y="-341.5" font-family="Helvetica,sans-Serif" font-size="10.00">cam.nc.recreator.Redirector.arc_ccw</text>
</a>
</g>
</g>
<!-- Node2&#45;&gt;Node9 -->
<g id="edge27_Node000002_Node000009" class="edge">
<title>Node2&#45;&gt;Node9</title>
<g id="a_edge27_Node000002_Node000009"><a xlink:title=" ">
<path fill="none" stroke="#63b8ff" d="M445.44,-378C424.73,-372.92 399.77,-367.4 377,-364 316.26,-354.92 247.45,-349.94 193.3,-347.21"/>
<polygon fill="#63b8ff" stroke="#63b8ff" points="444.69,-381.42 455.24,-380.45 446.38,-374.63 444.69,-381.42"/>
</a>
</g>
</g>
<!-- Node10 -->
<g id="Node000010" class="node">
<title>Node10</title>
<g id="a_Node000010"><a xlink:href="classcam_1_1nc_1_1rez2_1_1Creator.html#a7a7b089cf338846799311b5b1193a566" target="_top" xlink:title=" ">
<polygon fill="white" stroke="#666666" points="174.5,-313.5 18.5,-313.5 18.5,-294.5 174.5,-294.5 174.5,-313.5"/>
<text text-anchor="middle" x="96.5" y="-301.5" font-family="Helvetica,sans-Serif" font-size="10.00">cam.nc.rez2.Creator.arc_ccw</text>
</a>
</g>
</g>
<!-- Node2&#45;&gt;Node10 -->
<g id="edge28_Node000002_Node000010" class="edge">
<title>Node2&#45;&gt;Node10</title>
<g id="a_edge28_Node000002_Node000010"><a xlink:title=" ">
<path fill="none" stroke="#63b8ff" d="M461.14,-376.17C438.59,-366.1 406.43,-352.88 377,-345 309.85,-327.02 231.37,-316.38 174.69,-310.47"/>
<polygon fill="#63b8ff" stroke="#63b8ff" points="459.93,-379.47 470.48,-380.41 462.82,-373.09 459.93,-379.47"/>
</a>
</g>
</g>
<!-- Node11 -->
<g id="Node000011" class="node">
<title>Node11</title>
<g id="a_Node000011"><a xlink:href="classcam_1_1nc_1_1heiden_1_1Creator.html#afffaa9e4bad9251bb67ff287f47accda" target="_top" xlink:title=" ">
<polygon fill="white" stroke="#666666" points="178,-209.5 15,-209.5 15,-190.5 178,-190.5 178,-209.5"/>
<text text-anchor="middle" x="96.5" y="-197.5" font-family="Helvetica,sans-Serif" font-size="10.00">cam.nc.heiden.Creator.arc_cw</text>
</a>
</g>
</g>
<!-- Node2&#45;&gt;Node11 -->
<g id="edge29_Node000002_Node000011" class="edge">
<title>Node2&#45;&gt;Node11</title>
<g id="a_edge29_Node000002_Node000011"><a xlink:title=" ">
<path fill="none" stroke="#63b8ff" d="M478.75,-371.97C460.35,-345.24 422.13,-295.43 377,-269 315.86,-233.2 236.74,-215.89 178.29,-207.57"/>
<polygon fill="#63b8ff" stroke="#63b8ff" points="475.92,-374.04 484.41,-380.39 481.73,-370.14 475.92,-374.04"/>
</a>
</g>
</g>
<!-- Node12 -->
<g id="Node000012" class="node">
<title>Node12</title>
<g id="a_Node000012"><a xlink:href="classcam_1_1nc_1_1hpgl2d_1_1Creator.html#ae23fc4d361aa6de768d74b18324bae53" target="_top" xlink:title=" ">
<polygon fill="white" stroke="#666666" points="178,-171.5 15,-171.5 15,-152.5 178,-152.5 178,-171.5"/>
<text text-anchor="middle" x="96.5" y="-159.5" font-family="Helvetica,sans-Serif" font-size="10.00">cam.nc.hpgl2d.Creator.arc_cw</text>
</a>
</g>
</g>
<!-- Node2&#45;&gt;Node12 -->
<g id="edge30_Node000002_Node000012" class="edge">
<title>Node2&#45;&gt;Node12</title>
<g id="a_edge30_Node000002_Node000012"><a xlink:title=" ">
<path fill="none" stroke="#63b8ff" d="M484.08,-370.74C470.62,-333.63 435.78,-252.4 377,-213 318.31,-173.66 237.78,-162.37 178.24,-160.07"/>
<polygon fill="#63b8ff" stroke="#63b8ff" points="480.83,-372.07 487.44,-380.36 487.44,-369.77 480.83,-372.07"/>
</a>
</g>
</g>
<!-- Node13 -->
<g id="Node000013" class="node">
<title>Node13</title>
<g id="a_Node000013"><a xlink:href="classcam_1_1nc_1_1iso_1_1Creator.html#a334d38752a57cd7745f9361d583c68f6" target="_top" xlink:title=" ">
<polygon fill="white" stroke="#666666" points="168.5,-758.5 24.5,-758.5 24.5,-739.5 168.5,-739.5 168.5,-758.5"/>
<text text-anchor="middle" x="96.5" y="-746.5" font-family="Helvetica,sans-Serif" font-size="10.00">cam.nc.iso.Creator.arc_cw</text>
</a>
</g>
</g>
<!-- Node2&#45;&gt;Node13 -->
<g id="edge31_Node000002_Node000013" class="edge">
<title>Node2&#45;&gt;Node13</title>
<g id="a_edge31_Node000002_Node000013"><a xlink:title=" ">
<path fill="none" stroke="#63b8ff" d="M489.42,-409.82C485.32,-464.28 466.04,-617.18 377,-693 319.26,-742.17 230.49,-752.54 168.53,-752.94"/>
<polygon fill="#63b8ff" stroke="#63b8ff" points="492.92,-409.97 490.08,-399.76 485.93,-409.51 492.92,-409.97"/>
</a>
</g>
</g>
<!-- Node14 -->
<g id="Node000014" class="node">
<title>Node14</title>
<g id="a_Node000014"><a xlink:href="classcam_1_1nc_1_1lathe1_1_1CreatorIso.html#ae2f7d7587f9940cf9534e127f7234c4c" target="_top" xlink:title=" ">
<polygon fill="white" stroke="#666666" points="184.5,-720.5 8.5,-720.5 8.5,-701.5 184.5,-701.5 184.5,-720.5"/>
<text text-anchor="middle" x="96.5" y="-708.5" font-family="Helvetica,sans-Serif" font-size="10.00">cam.nc.lathe1.CreatorIso.arc_cw</text>
</a>
</g>
</g>
<!-- Node2&#45;&gt;Node14 -->
<g id="edge32_Node000002_Node000014" class="edge">
<title>Node2&#45;&gt;Node14</title>
<g id="a_edge32_Node000002_Node000014"><a xlink:title=" ">
<path fill="none" stroke="#63b8ff" d="M488.08,-409.68C480.95,-458.83 455.34,-587.61 377,-652 323.36,-696.09 244.8,-709.6 184.62,-712.79"/>
<polygon fill="#63b8ff" stroke="#63b8ff" points="491.56,-410.09 489.43,-399.71 484.62,-409.15 491.56,-410.09"/>
</a>
</g>
</g>
<!-- Node15 -->
<g id="Node000015" class="node">
<title>Node15</title>
<g id="a_Node000015"><a xlink:href="classcam_1_1nc_1_1makerbotHBP_1_1CreatorMakerbotHBP.html#a2cf899fa0839287bdca94b6207c078d6" target="_top" xlink:title=" ">
<polygon fill="white" stroke="#666666" points="176,-683 17,-683 17,-653 176,-653 176,-683"/>
<text text-anchor="start" x="25" y="-671" font-family="Helvetica,sans-Serif" font-size="10.00">cam.nc.makerbotHBP.Creator</text>
<text text-anchor="middle" x="96.5" y="-660" font-family="Helvetica,sans-Serif" font-size="10.00">MakerbotHBP.arc_cw</text>
</a>
</g>
</g>
<!-- Node2&#45;&gt;Node15 -->
<g id="edge33_Node000002_Node000015" class="edge">
<title>Node2&#45;&gt;Node15</title>
<g id="a_edge33_Node000002_Node000015"><a xlink:title=" ">
<path fill="none" stroke="#63b8ff" d="M486.43,-409.97C476.36,-454.04 445.9,-559.85 377,-612 319.39,-655.61 236.58,-667.69 176.06,-670.02"/>
<polygon fill="#63b8ff" stroke="#63b8ff" points="489.91,-410.45 488.61,-399.94 483.07,-408.97 489.91,-410.45"/>
</a>
</g>
</g>
<!-- Node16 -->
<g id="Node000016" class="node">
<title>Node16</title>
<g id="a_Node000016"><a xlink:href="classcam_1_1nc_1_1recreator_1_1Redirector.html#a54adbf876611896e0d8d530766a18964" target="_top" xlink:title=" ">
<polygon fill="white" stroke="#666666" points="190.5,-634.5 2.5,-634.5 2.5,-615.5 190.5,-615.5 190.5,-634.5"/>
<text text-anchor="middle" x="96.5" y="-622.5" font-family="Helvetica,sans-Serif" font-size="10.00">cam.nc.recreator.Redirector.arc_cw</text>
</a>
</g>
</g>
<!-- Node2&#45;&gt;Node16 -->
<g id="edge34_Node000002_Node000016" class="edge">
<title>Node2&#45;&gt;Node16</title>
<g id="a_edge34_Node000002_Node000016"><a xlink:title=" ">
<path fill="none" stroke="#63b8ff" d="M484.49,-409.46C471.58,-447.76 437.37,-532.77 377,-574 322.52,-611.21 248.68,-623.46 190.57,-626.67"/>
<polygon fill="#63b8ff" stroke="#63b8ff" points="487.94,-410.17 487.69,-399.57 481.28,-408.01 487.94,-410.17"/>
</a>
</g>
</g>
<!-- Node17 -->
<g id="Node000017" class="node">
<title>Node17</title>
<g id="a_Node000017"><a xlink:href="classcam_1_1nc_1_1rez2_1_1Creator.html#a96f30401310d0198de3d2d55da86510f" target="_top" xlink:title=" ">
<polygon fill="white" stroke="#666666" points="172,-597.5 21,-597.5 21,-578.5 172,-578.5 172,-597.5"/>
<text text-anchor="middle" x="96.5" y="-585.5" font-family="Helvetica,sans-Serif" font-size="10.00">cam.nc.rez2.Creator.arc_cw</text>
</a>
</g>
</g>
<!-- Node2&#45;&gt;Node17 -->
<g id="edge35_Node000002_Node000017" class="edge">
<title>Node2&#45;&gt;Node17</title>
<g id="a_edge35_Node000002_Node000017"><a xlink:title=" ">
<path fill="none" stroke="#63b8ff" d="M481.84,-408.63C465.95,-440.57 428.94,-505.38 377,-537 314.86,-574.84 231.54,-586 172.07,-588.67"/>
<polygon fill="#63b8ff" stroke="#63b8ff" points="485.05,-410.03 486.25,-399.5 478.75,-406.98 485.05,-410.03"/>
</a>
</g>
</g>
<!-- Node18 -->
<g id="Node000018" class="node">
<title>Node18</title>
<g id="a_Node000018"><a xlink:href="classcam_1_1nc_1_1cad__iso__read_1_1Parser.html#abf885d019794a8bef1b69f446c8851e1" target="_top" xlink:title=" ">
<polygon fill="white" stroke="#666666" points="173.5,-118 19.5,-118 19.5,-88 173.5,-88 173.5,-118"/>
<text text-anchor="start" x="27.5" y="-106" font-family="Helvetica,sans-Serif" font-size="10.00">cam.nc.cad_iso_read.Parser.</text>
<text text-anchor="middle" x="96.5" y="-95" font-family="Helvetica,sans-Serif" font-size="10.00">Parse</text>
</a>
</g>
</g>
<!-- Node2&#45;&gt;Node18 -->
<g id="edge36_Node000002_Node000018" class="edge">
<title>Node2&#45;&gt;Node18</title>
<g id="a_edge36_Node000002_Node000018"><a xlink:title=" ">
<path fill="none" stroke="#63b8ff" d="M486.8,-370.36C477.29,-325.56 447.58,-215.51 377,-161 318.95,-116.17 234.6,-103.79 173.77,-101.32"/>
<polygon fill="#63b8ff" stroke="#63b8ff" points="483.39,-371.16 488.8,-380.27 490.26,-369.77 483.39,-371.16"/>
</a>
</g>
</g>
<!-- Node19 -->
<g id="Node000019" class="node">
<title>Node19</title>
<g id="a_Node000019"><a xlink:href="classcam_1_1nc_1_1heiden__read_1_1Parser.html#a9c64dcddf3c2c0d3248079dde5314cfe" target="_top" xlink:title=" ">
<polygon fill="white" stroke="#666666" points="171.5,-270 21.5,-270 21.5,-240 171.5,-240 171.5,-270"/>
<text text-anchor="start" x="29.5" y="-258" font-family="Helvetica,sans-Serif" font-size="10.00">cam.nc.heiden_read.Parser.</text>
<text text-anchor="middle" x="96.5" y="-247" font-family="Helvetica,sans-Serif" font-size="10.00">Parsey</text>
</a>
</g>
</g>
<!-- Node2&#45;&gt;Node19 -->
<g id="edge37_Node000002_Node000019" class="edge">
<title>Node2&#45;&gt;Node19</title>
<g id="a_edge37_Node000002_Node000019"><a xlink:title=" ">
<path fill="none" stroke="#63b8ff" d="M471.76,-373.84C450.3,-356.2 413.39,-328.4 377,-313 310.59,-284.9 229.39,-270 171.65,-262.38"/>
<polygon fill="#63b8ff" stroke="#63b8ff" points="469.54,-376.55 479.46,-380.28 474.03,-371.18 469.54,-376.55"/>
</a>
</g>
</g>
<!-- Node3&#45;&gt;Node2 -->
<g id="edge4_Node000003_Node000002" class="edge">
<title>Node3&#45;&gt;Node2</title>
<g id="a_edge4_Node000003_Node000002"><a xlink:title=" ">
<path fill="none" stroke="#63b8ff" d="M375.95,-396.59C390.23,-396.81 405.21,-396.8 419.46,-396.58"/>
<polygon fill="#63b8ff" stroke="#63b8ff" points="375.77,-393.09 365.7,-396.39 375.63,-400.09 375.77,-393.09"/>
</a>
</g>
</g>
<!-- Node3&#45;&gt;Node3 -->
<g id="edge5_Node000003_Node000003" class="edge">
<title>Node3&#45;&gt;Node3</title>
<g id="a_edge5_Node000003_Node000003"><a xlink:title=" ">
<path fill="none" stroke="#63b8ff" d="M338.23,-407.57C337.72,-413.12 325.97,-417.5 303,-417.5 269.59,-417.5 259.93,-408.23 274.02,-399.58"/>
<polygon fill="#63b8ff" stroke="#63b8ff" points="340.9,-405.3 331.98,-399.58 335.39,-409.61 340.9,-405.3"/>
</a>
</g>
</g>
<!-- Node3&#45;&gt;Node4 -->
<g id="edge6_Node000003_Node000004" class="edge">
<title>Node3&#45;&gt;Node4</title>
<g id="a_edge6_Node000003_Node000004"><a xlink:title=" ">
<path fill="none" stroke="#63b8ff" d="M293.24,-408.76C277.72,-439.77 242.32,-501.33 193,-532 186.83,-535.84 180.03,-538.92 173,-541.4"/>
<polygon fill="#63b8ff" stroke="#63b8ff" points="296.51,-410.03 297.73,-399.5 290.22,-406.97 296.51,-410.03"/>
</a>
</g>
</g>
<!-- Node3&#45;&gt;Node5 -->
<g id="edge7_Node000003_Node000005" class="edge">
<title>Node3&#45;&gt;Node5</title>
<g id="a_edge7_Node000003_Node000005"><a xlink:title=" ">
<path fill="none" stroke="#63b8ff" d="M288.83,-407.72C270.24,-431.37 233.96,-472.72 193,-494 185.5,-497.9 177.29,-501 168.92,-503.46"/>
<polygon fill="#63b8ff" stroke="#63b8ff" points="291.75,-409.67 295.06,-399.6 286.2,-405.4 291.75,-409.67"/>
</a>
</g>
</g>
<!-- Node3&#45;&gt;Node6 -->
<g id="edge8_Node000003_Node000006" class="edge">
<title>Node3&#45;&gt;Node6</title>
<g id="a_edge8_Node000003_Node000006"><a xlink:title=" ">
<path fill="none" stroke="#63b8ff" d="M280.72,-405.61C259.51,-420.45 225.51,-442.31 193,-455 181.95,-459.31 169.81,-462.76 157.99,-465.5"/>
<polygon fill="#63b8ff" stroke="#63b8ff" points="282.86,-408.38 288.98,-399.73 278.8,-402.68 282.86,-408.38"/>
</a>
</g>
</g>
<!-- Node3&#45;&gt;Node7 -->
<g id="edge9_Node000003_Node000007" class="edge">
<title>Node3&#45;&gt;Node7</title>
<g id="a_edge9_Node000003_Node000007"><a xlink:title=" ">
<path fill="none" stroke="#63b8ff" d="M249.84,-401.73C215.73,-409.41 171.75,-419.3 139.82,-426.48"/>
<polygon fill="#63b8ff" stroke="#63b8ff" points="250.64,-405.14 259.63,-399.53 249.1,-398.31 250.64,-405.14"/>
</a>
</g>
</g>
<!-- Node3&#45;&gt;Node8 -->
<g id="edge10_Node000003_Node000008" class="edge">
<title>Node3&#45;&gt;Node8</title>
<g id="a_edge10_Node000003_Node000008"><a xlink:title=" ">
<path fill="none" stroke="#63b8ff" d="M230.22,-389.3C212.71,-389.13 193.88,-388.94 176.07,-388.77"/>
<polygon fill="#63b8ff" stroke="#63b8ff" points="230.33,-392.8 240.37,-389.4 230.4,-385.8 230.33,-392.8"/>
</a>
</g>
</g>
<!-- Node3&#45;&gt;Node9 -->
<g id="edge11_Node000003_Node000009" class="edge">
<title>Node3&#45;&gt;Node9</title>
<g id="a_edge11_Node000003_Node000009"><a xlink:title=" ">
<path fill="none" stroke="#63b8ff" d="M253.37,-378.1C234.54,-373.57 212.79,-368.43 193,-364 177.13,-360.45 159.73,-356.75 144.19,-353.51"/>
<polygon fill="#63b8ff" stroke="#63b8ff" points="252.67,-381.53 263.22,-380.47 254.32,-374.72 252.67,-381.53"/>
</a>
</g>
</g>
<!-- Node3&#45;&gt;Node10 -->
<g id="edge12_Node000003_Node000010" class="edge">
<title>Node3&#45;&gt;Node10</title>
<g id="a_edge12_Node000003_Node000010"><a xlink:title=" ">
<path fill="none" stroke="#63b8ff" d="M280.27,-374.54C258.97,-360.06 225.11,-338.78 193,-326 180.04,-320.84 165.58,-316.73 151.92,-313.53"/>
<polygon fill="#63b8ff" stroke="#63b8ff" points="278.37,-377.48 288.59,-380.29 282.35,-371.72 278.37,-377.48"/>
</a>
</g>
</g>
<!-- Node3&#45;&gt;Node11 -->
<g id="edge13_Node000003_Node000011" class="edge">
<title>Node3&#45;&gt;Node11</title>
<g id="a_edge13_Node000003_Node000011"><a xlink:title=" ">
<path fill="none" stroke="#63b8ff" d="M293.82,-370.59C278.78,-337.19 243.56,-268.79 193,-231 179.74,-221.09 163.16,-214.26 147.57,-209.6"/>
<polygon fill="#63b8ff" stroke="#63b8ff" points="290.78,-372.37 297.99,-380.12 297.19,-369.56 290.78,-372.37"/>
</a>
</g>
</g>
<!-- Node3&#45;&gt;Node12 -->
<g id="edge14_Node000003_Node000012" class="edge">
<title>Node3&#45;&gt;Node12</title>
<g id="a_edge14_Node000003_Node000012"><a xlink:title=" ">
<path fill="none" stroke="#63b8ff" d="M297.78,-370.34C287.67,-328.33 257.93,-229.67 193,-181 188,-177.25 182.44,-174.18 176.6,-171.69"/>
<polygon fill="#63b8ff" stroke="#63b8ff" points="294.38,-371.2 300.03,-380.17 301.21,-369.64 294.38,-371.2"/>
</a>
</g>
</g>
<!-- Node3&#45;&gt;Node13 -->
<g id="edge15_Node000003_Node000013" class="edge">
<title>Node3&#45;&gt;Node13</title>
<g id="a_edge15_Node000003_Node000013"><a xlink:title=" ">
<path fill="none" stroke="#63b8ff" d="M302.13,-409.8C301.35,-468.52 290.57,-642.95 193,-730 186.06,-736.19 177.7,-740.6 168.84,-743.7"/>
<polygon fill="#63b8ff" stroke="#63b8ff" points="305.63,-409.68 302.17,-399.66 298.63,-409.65 305.63,-409.68"/>
</a>
</g>
</g>
<!-- Node3&#45;&gt;Node14 -->
<g id="edge16_Node000003_Node000014" class="edge">
<title>Node3&#45;&gt;Node14</title>
<g id="a_edge16_Node000003_Node000014"><a xlink:title=" ">
<path fill="none" stroke="#63b8ff" d="M301.22,-409.75C297.95,-464 280.98,-616.32 193,-692 188.64,-695.75 183.76,-698.84 178.56,-701.37"/>
<polygon fill="#63b8ff" stroke="#63b8ff" points="304.72,-409.89 301.73,-399.72 297.73,-409.53 304.72,-409.89"/>
</a>
</g>
</g>
<!-- Node3&#45;&gt;Node15 -->
<g id="edge17_Node000003_Node000015" class="edge">
<title>Node3&#45;&gt;Node15</title>
<g id="a_edge17_Node000003_Node000015"><a xlink:title=" ">
<path fill="none" stroke="#63b8ff" d="M299.52,-409.55C292.4,-457.31 267.38,-580.6 193,-644 187.93,-648.32 182.18,-651.89 176.09,-654.82"/>
<polygon fill="#63b8ff" stroke="#63b8ff" points="303,-409.98 300.91,-399.59 296.06,-409.02 303,-409.98"/>
</a>
</g>
</g>
<!-- Node3&#45;&gt;Node16 -->
<g id="edge18_Node000003_Node000016" class="edge">
<title>Node3&#45;&gt;Node16</title>
<g id="a_edge18_Node000003_Node000016"><a xlink:title=" ">
<path fill="none" stroke="#63b8ff" d="M298.25,-409.57C288.88,-452.74 260.21,-556.35 193,-607 188.55,-610.35 183.67,-613.14 178.53,-615.45"/>
<polygon fill="#63b8ff" stroke="#63b8ff" points="301.68,-410.24 300.27,-399.74 294.83,-408.83 301.68,-410.24"/>
</a>
</g>
</g>
<!-- Node3&#45;&gt;Node17 -->
<g id="edge19_Node000003_Node000017" class="edge">
<title>Node3&#45;&gt;Node17</title>
<g id="a_edge19_Node000003_Node000017"><a xlink:title=" ">
<path fill="none" stroke="#63b8ff" d="M296.14,-409.53C283.76,-447.18 251.2,-529.64 193,-570 186.76,-574.33 179.76,-577.69 172.47,-580.29"/>
<polygon fill="#63b8ff" stroke="#63b8ff" points="299.55,-410.37 299.22,-399.78 292.87,-408.26 299.55,-410.37"/>
</a>
</g>
</g>
<!-- Node3&#45;&gt;Node18 -->
<g id="edge20_Node000003_Node000018" class="edge">
<title>Node3&#45;&gt;Node18</title>
<g id="a_edge20_Node000003_Node000018"><a xlink:title=" ">
<path fill="none" stroke="#63b8ff" d="M298.43,-370.1C289.2,-324.07 260.38,-209.11 193,-143 181.97,-132.17 167.57,-124.11 153.31,-118.17"/>
<polygon fill="#63b8ff" stroke="#63b8ff" points="295.01,-370.85 300.33,-380.02 301.89,-369.54 295.01,-370.85"/>
</a>
</g>
</g>
<!-- Node3&#45;&gt;Node19 -->
<g id="edge21_Node000003_Node000019" class="edge">
<title>Node3&#45;&gt;Node19</title>
<g id="a_edge21_Node000003_Node000019"><a xlink:title=" ">
<path fill="none" stroke="#63b8ff" d="M288.16,-372.62C269.05,-349.7 232.44,-309.53 193,-286 182.22,-279.57 169.95,-274.3 157.88,-270.06"/>
<polygon fill="#63b8ff" stroke="#63b8ff" points="285.56,-374.97 294.6,-380.49 290.98,-370.53 285.56,-374.97"/>
</a>
</g>
</g>
<!-- Node20&#45;&gt;Node18 -->
<g id="edge40_Node000020_Node000018" class="edge">
<title>Node20&#45;&gt;Node18</title>
<g id="a_edge40_Node000020_Node000018"><a xlink:title=" ">
<path fill="none" stroke="#63b8ff" d="M252.66,-60.98C244.74,-62.96 236.64,-65.01 229,-67 203.34,-73.67 174.97,-81.4 151.16,-87.98"/>
<polygon fill="#63b8ff" stroke="#63b8ff" points="253.69,-64.34 262.55,-58.53 252,-57.54 253.69,-64.34"/>
</a>
</g>
</g>
<!-- Node21&#45;&gt;Node18 -->
<g id="edge42_Node000021_Node000018" class="edge">
<title>Node21&#45;&gt;Node18</title>
<g id="a_edge42_Node000021_Node000018"><a xlink:title=" ">
<path fill="none" stroke="#63b8ff" d="M228.14,-92.14C210.41,-93.61 191.44,-95.19 173.61,-96.67"/>
<polygon fill="#63b8ff" stroke="#63b8ff" points="228.74,-95.6 238.42,-91.29 228.16,-88.63 228.74,-95.6"/>
</a>
</g>
</g>
</g>
</svg>

<g id="navigator" transform="translate(0 0)" fill="#404254">
  <rect fill="#f2f5e9" fill-opacity="0.5" stroke="#606060" stroke-width=".5" x="0" y="0" width="60" height="60"/>
  <use id="zoomplus" xlink:href="#zoomPlus" x="17" y="9" onmousedown="handleZoom(evt,'in')"/>
  <use id="zoomminus" xlink:href="#zoomMin" x="42" y="9" onmousedown="handleZoom(evt,'out')"/>
  <use id="reset" xlink:href="#resetDef" x="30" y="36" onmousedown="handleReset()"/>
   <use id="arrowup" xlink:href="#arrowUp" x="0" y="0" onmousedown="handlePan(0,-1)"/>
  <use id="arrowright" xlink:href="#arrowRight" x="0" y="0" onmousedown="handlePan(1,0)"/>
  <use id="arrowdown" xlink:href="#arrowDown" x="0" y="0" onmousedown="handlePan(0,1)"/>
  <use id="arrowleft" xlink:href="#arrowLeft" x="0" y="0" onmousedown="handlePan(-1,0)"/>
</g>
<svg viewBox="0 0 15 15" width="100%" height="30px" preserveAspectRatio="xMaxYMin meet">
 <g id="arrow_out" transform="scale(0.3 0.3)">
  <a xlink:href="classcam_1_1nc_1_1iso_1_1Creator_ad072e258b3de2c4fa8b1033f28d67bbb_icgraph_org.svg" target="_base">
   <rect id="button" ry="5" rx="5" y="6" x="6" height="38" width="38"
        fill="#f2f5e9" fill-opacity="0.5" stroke="#606060" stroke-width="1.0"/>
   <path id="arrow"
     d="M 11.500037,31.436501 C 11.940474,20.09759 22.043105,11.32322 32.158766,21.979434 L 37.068811,17.246167 C 37.068811,17.246167 37.088388,32 37.088388,32 L 22.160133,31.978069 C 22.160133,31.978069 26.997745,27.140456 26.997745,27.140456 C 18.528582,18.264221 13.291696,25.230495 11.500037,31.436501 z"
     style="fill:#404040;"/>
  </a>
 </g>
</svg>

<style type='text/css'>
<![CDATA[
[data-mouse-over-selected='false'] { opacity: 0.7; }
[data-mouse-over-selected='true']  { opacity: 1.0; }
]]>
</style>
<script type="application/ecmascript"><![CDATA[
document.addEventListener('DOMContentLoaded', (event) => {
  highlightEdges();
  highlightAdjacentNodes();
});
]]></script>
</svg>
