<?xml version="1.0" encoding="UTF-8" standalone="no"?>
<!DOCTYPE svg PUBLIC "-//W3C//DTD SVG 1.1//EN"
 "http://www.w3.org/Graphics/SVG/1.1/DTD/svg11.dtd">
<!-- Generated by graphviz version 2.43.0 (0)
 -->
<!-- Title: pie_area.VIEW3D_MT_PIE_Area Pages: 1 -->
<svg width="129pt" height="164pt"
 viewBox="0.00 0.00 128.50 164.00" xmlns="http://www.w3.org/2000/svg" xmlns:xlink="http://www.w3.org/1999/xlink">
<g id="graph0" class="graph" transform="scale(1 1) rotate(0) translate(4 160)">
<title>pie_area.VIEW3D_MT_PIE_Area</title>
<!-- Node1 -->
<g id="Node000001" class="node">
<title>Node1</title>
<g id="a_Node000001"><a xlink:title=" ">
<polygon fill="#999999" stroke="transparent" points="115,-60 0,-60 0,0 115,0 115,-60"/>
<text text-anchor="start" x="5.5" y="-48" font-family="Helvetica,sans-Serif" font-size="10.00">pie_area.VIEW3D_MT</text>
<text text-anchor="start" x="33.5" y="-37" font-family="Helvetica,sans-Serif" font-size="10.00">_PIE_Area</text>
<text text-anchor="start" x="56" y="-22" font-family="Helvetica,sans-Serif" font-size="10.00"> </text>
<text text-anchor="start" x="20" y="-7" font-family="Helvetica,sans-Serif" font-size="10.00">+</text>
<text text-anchor="start" x="48.5" y="-7" font-family="Helvetica,sans-Serif" font-size="10.00">draw()</text>
<polygon fill="#666666" stroke="#666666" points="0.5,-32 0.5,-32 115.5,-32 115.5,-32 0.5,-32"/>
<polygon fill="#666666" stroke="#666666" points="0.5,-17 0.5,-17 115.5,-17 115.5,-17 0.5,-17"/>
<polygon fill="none" stroke="#666666" points="0,0 0,-60 115,-60 115,0 0,0"/>
</a>
</g>
</g>
<!-- Node2 -->
<g id="Node000002" class="node">
<title>Node2</title>
<g id="a_Node000002"><a xlink:title=" ">
<polygon fill="white" stroke="transparent" points="52.5,-156 14.5,-156 14.5,-107 52.5,-107 52.5,-156"/>
<text text-anchor="start" x="19.5" y="-143.5" font-family="Helvetica,sans-Serif" font-size="10.00">Menu</text>
<text text-anchor="start" x="31.5" y="-128.5" font-family="Helvetica,sans-Serif" font-size="10.00"> </text>
<text text-anchor="start" x="31.5" y="-113.5" font-family="Helvetica,sans-Serif" font-size="10.00"> </text>
<polygon fill="#666666" stroke="#666666" points="14.5,-138.5 14.5,-138.5 52.5,-138.5 52.5,-138.5 14.5,-138.5"/>
<polygon fill="#666666" stroke="#666666" points="14.5,-123.5 14.5,-123.5 52.5,-123.5 52.5,-123.5 14.5,-123.5"/>
<polygon fill="none" stroke="#666666" points="14.5,-107 14.5,-156 52.5,-156 52.5,-107 14.5,-107"/>
</a>
</g>
</g>
<!-- Node2&#45;&gt;Node1 -->
<g id="edge1_Node000001_Node000002" class="edge">
<title>Node2&#45;&gt;Node1</title>
<g id="a_edge1_Node000001_Node000002"><a xlink:title=" ">
<path fill="none" stroke="#63b8ff" d="M41.61,-96.87C44.49,-84.94 47.7,-71.62 50.48,-60.1"/>
<polygon fill="none" stroke="#63b8ff" points="38.13,-96.38 39.19,-106.92 44.93,-98.02 38.13,-96.38"/>
</a>
</g>
</g>
<!-- Node3 -->
<g id="Node000003" class="node">
<title>Node3</title>
<g id="a_Node000003"><a xlink:title=" ">
<polygon fill="white" stroke="transparent" points="94,-156 71,-156 71,-107 94,-107 94,-156"/>
<text text-anchor="start" x="76.5" y="-143.5" font-family="Helvetica,sans-Serif" font-size="10.00">str</text>
<text text-anchor="start" x="81" y="-128.5" font-family="Helvetica,sans-Serif" font-size="10.00"> </text>
<text text-anchor="start" x="81" y="-113.5" font-family="Helvetica,sans-Serif" font-size="10.00"> </text>
<polygon fill="#666666" stroke="#666666" points="71.5,-138.5 71.5,-138.5 94.5,-138.5 94.5,-138.5 71.5,-138.5"/>
<polygon fill="#666666" stroke="#666666" points="71.5,-123.5 71.5,-123.5 94.5,-123.5 94.5,-123.5 71.5,-123.5"/>
<polygon fill="none" stroke="#666666" points="71,-107 71,-156 94,-156 94,-107 71,-107"/>
</a>
</g>
</g>
<!-- Node3&#45;&gt;Node1 -->
<g id="edge2_Node000001_Node000003" class="edge">
<title>Node3&#45;&gt;Node1</title>
<g id="a_edge2_Node000001_Node000003"><a xlink:title=" ">
<path fill="none" stroke="#63b8ff" d="M76.58,-106.92C73.96,-96.51 70.81,-83.97 67.83,-72.1"/>
<polygon fill="none" stroke="#63b8ff" points="67.74,-71.74 62.39,-66.9 64.81,-60.1 70.15,-64.95 67.74,-71.74"/>
</a>
</g>
<text text-anchor="middle" x="95.5" y="-81" font-family="Helvetica,sans-Serif" font-size="10.00" fill="grey"> +bl_label</text>
</g>
</g>
</svg>
