<?xml version="1.0" encoding="UTF-8" standalone="no"?>
<!DOCTYPE svg PUBLIC "-//W3C//DTD SVG 1.1//EN"
 "http://www.w3.org/Graphics/SVG/1.1/DTD/svg11.dtd">
<!-- Generated by graphviz version 2.43.0 (0)
 -->
<!-- Title: cam.nc.winpc.Creator.program_end Pages: 1 -->
<svg width="1317pt" height="1122pt"
 viewBox="0.00 0.00 1317.00 1121.75" xmlns="http://www.w3.org/2000/svg" xmlns:xlink="http://www.w3.org/1999/xlink">
<g id="graph0" class="graph" transform="scale(1 1) rotate(0) translate(4 1117.75)">
<title>cam.nc.winpc.Creator.program_end</title>
<!-- Node1 -->
<g id="Node000001" class="node">
<title>Node1</title>
<g id="a_Node000001"><a xlink:title=" ">
<polygon fill="#999999" stroke="#666666" points="189,-666.5 0,-666.5 0,-647.5 189,-647.5 189,-666.5"/>
<text text-anchor="middle" x="94.5" y="-654.5" font-family="Helvetica,sans-Serif" font-size="10.00">cam.nc.winpc.Creator.program_end</text>
</a>
</g>
</g>
<!-- Node2 -->
<g id="Node000002" class="node">
<title>Node2</title>
<g id="a_Node000002"><a xlink:href="classcam_1_1nc_1_1emc2b_1_1Creator.html#a344b2457825605210b4ac5bc64e6feef" target="_top" xlink:title=" ">
<polygon fill="white" stroke="#666666" points="431,-913.5 225,-913.5 225,-894.5 431,-894.5 431,-913.5"/>
<text text-anchor="middle" x="328" y="-901.5" font-family="Helvetica,sans-Serif" font-size="10.00">cam.nc.emc2b.Creator.PROGRAM_END</text>
</a>
</g>
</g>
<!-- Node1&#45;&gt;Node2 -->
<g id="edge1_Node000001_Node000002" class="edge">
<title>Node1&#45;&gt;Node2</title>
<g id="a_edge1_Node000001_Node000002"><a xlink:title=" ">
<path fill="none" stroke="#63b8ff" d="M98.17,-666.92C108.17,-702.14 146.95,-822.15 225,-880 230.83,-884.32 237.31,-887.88 244.11,-890.8"/>
<polygon fill="#63b8ff" stroke="#63b8ff" points="242.96,-894.11 253.55,-894.41 245.46,-887.57 242.96,-894.11"/>
</a>
</g>
</g>
<!-- Node3 -->
<g id="Node000003" class="node">
<title>Node3</title>
<g id="a_Node000003"><a xlink:href="classcam_1_1nc_1_1emc2_1_1Creator.html#a47a9e4f5f35681f580765bba2f0f97a5" target="_top" xlink:title=" ">
<polygon fill="white" stroke="#666666" points="629.5,-1102.5 475.5,-1102.5 475.5,-1083.5 629.5,-1083.5 629.5,-1102.5"/>
<text text-anchor="middle" x="552.5" y="-1090.5" font-family="Helvetica,sans-Serif" font-size="10.00">cam.nc.emc2.Creator.SPACE</text>
</a>
</g>
</g>
<!-- Node1&#45;&gt;Node3 -->
<g id="edge24_Node000001_Node000003" class="edge">
<title>Node1&#45;&gt;Node3</title>
<g id="a_edge24_Node000001_Node000003"><a xlink:title=" ">
<path fill="none" stroke="#63b8ff" d="M95.09,-666.72C93.51,-717.84 93.5,-957.35 225,-1063 303.35,-1125.95 428.94,-1116.34 499.33,-1104.31"/>
<polygon fill="#63b8ff" stroke="#63b8ff" points="500.08,-1107.73 509.31,-1102.53 498.85,-1100.84 500.08,-1107.73"/>
</a>
</g>
</g>
<!-- Node4 -->
<g id="Node000004" class="node">
<title>Node4</title>
<g id="a_Node000004"><a xlink:href="classcam_1_1nc_1_1emc2b_1_1Creator.html#abff5586e78bb91681bd41dafdea5a9e7" target="_top" xlink:title=" ">
<polygon fill="white" stroke="#666666" points="632.5,-1065.5 472.5,-1065.5 472.5,-1046.5 632.5,-1046.5 632.5,-1065.5"/>
<text text-anchor="middle" x="552.5" y="-1053.5" font-family="Helvetica,sans-Serif" font-size="10.00">cam.nc.emc2b.Creator.SPACE</text>
</a>
</g>
</g>
<!-- Node1&#45;&gt;Node4 -->
<g id="edge25_Node000001_Node000004" class="edge">
<title>Node1&#45;&gt;Node4</title>
<g id="a_edge25_Node000001_Node000004"><a xlink:title=" ">
<path fill="none" stroke="#63b8ff" d="M95.45,-666.77C95.77,-715.15 104.14,-930.51 225,-1025 303.24,-1086.17 426.43,-1078.38 497,-1067.2"/>
<polygon fill="#63b8ff" stroke="#63b8ff" points="497.73,-1070.62 507.02,-1065.53 496.58,-1063.72 497.73,-1070.62"/>
</a>
</g>
</g>
<!-- Node5 -->
<g id="Node000005" class="node">
<title>Node5</title>
<g id="a_Node000005"><a xlink:href="classcam_1_1nc_1_1emc2tap_1_1CodesEMC2.html#a6a0d71a1c6e9f8a80228dc220a0e57ca" target="_top" xlink:title=" ">
<polygon fill="white" stroke="#666666" points="633,-1028 472,-1028 472,-998 633,-998 633,-1028"/>
<text text-anchor="start" x="480" y="-1016" font-family="Helvetica,sans-Serif" font-size="10.00">cam.nc.emc2tap.CodesEMC2.</text>
<text text-anchor="middle" x="552.5" y="-1005" font-family="Helvetica,sans-Serif" font-size="10.00">SPACE</text>
</a>
</g>
</g>
<!-- Node1&#45;&gt;Node5 -->
<g id="edge26_Node000001_Node000005" class="edge">
<title>Node1&#45;&gt;Node5</title>
<g id="a_edge26_Node000001_Node000005"><a xlink:title=" ">
<path fill="none" stroke="#63b8ff" d="M95.83,-666.75C97.94,-712.31 113.4,-905.4 225,-988 294.47,-1039.41 396.57,-1038.58 468.05,-1029.42"/>
<polygon fill="#63b8ff" stroke="#63b8ff" points="468.93,-1032.83 478.37,-1028.02 467.98,-1025.9 468.93,-1032.83"/>
</a>
</g>
</g>
<!-- Node6 -->
<g id="Node000006" class="node">
<title>Node6</title>
<g id="a_Node000006"><a xlink:href="classcam_1_1nc_1_1heiden_1_1Creator.html#a2c4277ffddaea0f92c906c6744f7a3bd" target="_top" xlink:title="Codes.">
<polygon fill="white" stroke="#666666" points="632.5,-979.5 472.5,-979.5 472.5,-960.5 632.5,-960.5 632.5,-979.5"/>
<text text-anchor="middle" x="552.5" y="-967.5" font-family="Helvetica,sans-Serif" font-size="10.00">cam.nc.heiden.Creator.SPACE</text>
</a>
</g>
</g>
<!-- Node1&#45;&gt;Node6 -->
<g id="edge27_Node000001_Node000006" class="edge">
<title>Node1&#45;&gt;Node6</title>
<g id="a_edge27_Node000001_Node000006"><a xlink:title=" ">
<path fill="none" stroke="#63b8ff" d="M96.23,-666.69C100.03,-709.49 121.54,-882.57 225,-954 309.51,-1012.35 437.69,-996.2 505.57,-981.72"/>
<polygon fill="#63b8ff" stroke="#63b8ff" points="506.53,-985.1 515.53,-979.52 505.01,-978.26 506.53,-985.1"/>
</a>
</g>
</g>
<!-- Node7 -->
<g id="Node000007" class="node">
<title>Node7</title>
<g id="a_Node000007"><a xlink:href="classcam_1_1nc_1_1heiden530_1_1Creator.html#aa64b19b0edc2ac1f2d568b09ca2aebcb" target="_top" xlink:title="Codes.">
<polygon fill="white" stroke="#666666" points="626,-942 479,-942 479,-912 626,-912 626,-942"/>
<text text-anchor="start" x="487" y="-930" font-family="Helvetica,sans-Serif" font-size="10.00">cam.nc.heiden530.Creator.</text>
<text text-anchor="middle" x="552.5" y="-919" font-family="Helvetica,sans-Serif" font-size="10.00">SPACE</text>
</a>
</g>
</g>
<!-- Node1&#45;&gt;Node7 -->
<g id="edge28_Node000001_Node000007" class="edge">
<title>Node1&#45;&gt;Node7</title>
<g id="a_edge28_Node000001_Node000007"><a xlink:title=" ">
<path fill="none" stroke="#63b8ff" d="M96.65,-666.6C102.03,-706.75 128.7,-861.95 225,-923 304.86,-973.63 419.26,-959.98 489.29,-944.32"/>
<polygon fill="#63b8ff" stroke="#63b8ff" points="490.34,-947.67 499.29,-942 488.76,-940.85 490.34,-947.67"/>
</a>
</g>
</g>
<!-- Node8 -->
<g id="Node000008" class="node">
<title>Node8</title>
<g id="a_Node000008"><a xlink:href="classcam_1_1nc_1_1iso_1_1Creator.html#a79463d437baaaf23c828a2c9e62393f3" target="_top" xlink:title=" ">
<polygon fill="white" stroke="#666666" points="623,-893.5 482,-893.5 482,-874.5 623,-874.5 623,-893.5"/>
<text text-anchor="middle" x="552.5" y="-881.5" font-family="Helvetica,sans-Serif" font-size="10.00">cam.nc.iso.Creator.SPACE</text>
</a>
</g>
</g>
<!-- Node1&#45;&gt;Node8 -->
<g id="edge29_Node000001_Node000008" class="edge">
<title>Node1&#45;&gt;Node8</title>
<g id="a_edge29_Node000001_Node000008"><a xlink:title=" ">
<path fill="none" stroke="#63b8ff" d="M99.99,-666.87C113.86,-696.14 159.11,-782.92 225,-823 300.25,-868.77 401.93,-881.64 471.72,-884.57"/>
<polygon fill="#63b8ff" stroke="#63b8ff" points="471.65,-888.07 481.77,-884.94 471.91,-881.08 471.65,-888.07"/>
</a>
</g>
</g>
<!-- Node16 -->
<g id="Node000016" class="node">
<title>Node16</title>
<g id="a_Node000016"><a xlink:href="classcam_1_1nc_1_1makerbot__codes_1_1Codes.html#a497077e0e500cc8f419b8f3f61f008b4" target="_top" xlink:title=" ">
<polygon fill="white" stroke="#666666" points="638,-856 467,-856 467,-826 638,-826 638,-856"/>
<text text-anchor="start" x="475" y="-844" font-family="Helvetica,sans-Serif" font-size="10.00">cam.nc.makerbot_codes.Codes.</text>
<text text-anchor="middle" x="552.5" y="-833" font-family="Helvetica,sans-Serif" font-size="10.00">SPACE</text>
</a>
</g>
</g>
<!-- Node1&#45;&gt;Node16 -->
<g id="edge30_Node000001_Node000016" class="edge">
<title>Node1&#45;&gt;Node16</title>
<g id="a_edge30_Node000001_Node000016"><a xlink:title=" ">
<path fill="none" stroke="#63b8ff" d="M102.06,-666.52C119.16,-690.51 167.78,-753.66 225,-783 297.12,-819.98 388.65,-833.82 456.44,-838.8"/>
<polygon fill="#63b8ff" stroke="#63b8ff" points="456.47,-842.31 466.68,-839.5 456.95,-835.33 456.47,-842.31"/>
</a>
</g>
</g>
<!-- Node17 -->
<g id="Node000017" class="node">
<title>Node17</title>
<g id="a_Node000017"><a xlink:href="classcam_1_1nc_1_1series1_1_1Creator.html#a75918d23eef609baab85058fda3050d5" target="_top" xlink:title=" ">
<polygon fill="white" stroke="#666666" points="633.5,-807.5 471.5,-807.5 471.5,-788.5 633.5,-788.5 633.5,-807.5"/>
<text text-anchor="middle" x="552.5" y="-795.5" font-family="Helvetica,sans-Serif" font-size="10.00">cam.nc.series1.Creator.SPACE</text>
</a>
</g>
</g>
<!-- Node1&#45;&gt;Node17 -->
<g id="edge31_Node000001_Node000017" class="edge">
<title>Node1&#45;&gt;Node17</title>
<g id="a_edge31_Node000001_Node000017"><a xlink:title=" ">
<path fill="none" stroke="#63b8ff" d="M105.61,-666.51C126.24,-685.32 175.44,-727.14 225,-747 301.11,-777.5 393.99,-789.84 461.21,-794.79"/>
<polygon fill="#63b8ff" stroke="#63b8ff" points="461.13,-798.29 471.35,-795.5 461.62,-791.31 461.13,-798.29"/>
</a>
</g>
</g>
<!-- Node18 -->
<g id="Node000018" class="node">
<title>Node18</title>
<g id="a_Node000018"><a xlink:href="classcam_1_1nc_1_1shopbot__mtc_1_1Creator.html#a1512dbb5d0140eb216ed709a542261ac" target="_top" xlink:title="Codes.">
<polygon fill="white" stroke="#666666" points="632,-770 473,-770 473,-740 632,-740 632,-770"/>
<text text-anchor="start" x="481" y="-758" font-family="Helvetica,sans-Serif" font-size="10.00">cam.nc.shopbot_mtc.Creator.</text>
<text text-anchor="middle" x="552.5" y="-747" font-family="Helvetica,sans-Serif" font-size="10.00">SPACE</text>
</a>
</g>
</g>
<!-- Node1&#45;&gt;Node18 -->
<g id="edge32_Node000001_Node000018" class="edge">
<title>Node1&#45;&gt;Node18</title>
<g id="a_edge32_Node000001_Node000018"><a xlink:title=" ">
<path fill="none" stroke="#63b8ff" d="M111.61,-666.52C135.49,-680.15 182.07,-704.89 225,-717 303.63,-739.17 396.41,-748.43 462.94,-752.28"/>
<polygon fill="#63b8ff" stroke="#63b8ff" points="462.79,-755.78 472.97,-752.84 463.17,-748.79 462.79,-755.78"/>
</a>
</g>
</g>
<!-- Node19 -->
<g id="Node000019" class="node">
<title>Node19</title>
<g id="a_Node000019"><a xlink:href="classcam_1_1nc_1_1tnc151_1_1Creator.html#af5d9e50b2ff0e73cd7524e2145d55d76" target="_top" xlink:title=" ">
<polygon fill="white" stroke="#666666" points="632.5,-721.5 472.5,-721.5 472.5,-702.5 632.5,-702.5 632.5,-721.5"/>
<text text-anchor="middle" x="552.5" y="-709.5" font-family="Helvetica,sans-Serif" font-size="10.00">cam.nc.tnc151.Creator.SPACE</text>
</a>
</g>
</g>
<!-- Node1&#45;&gt;Node19 -->
<g id="edge33_Node000001_Node000019" class="edge">
<title>Node1&#45;&gt;Node19</title>
<g id="a_edge33_Node000001_Node000019"><a xlink:title=" ">
<path fill="none" stroke="#63b8ff" d="M121.37,-666.54C147.21,-675.6 188.27,-688.74 225,-695 304.4,-708.53 396.1,-712.28 462.07,-712.94"/>
<polygon fill="#63b8ff" stroke="#63b8ff" points="462.4,-716.44 472.43,-713.02 462.45,-709.44 462.4,-716.44"/>
</a>
</g>
</g>
<!-- Node20 -->
<g id="Node000020" class="node">
<title>Node20</title>
<g id="a_Node000020"><a xlink:href="classcam_1_1nc_1_1gravos_1_1Creator.html#a0a1d217761d010554ae2091f78a3e757" target="_top" xlink:title=" ">
<polygon fill="white" stroke="#666666" points="431,-685.5 225,-685.5 225,-666.5 431,-666.5 431,-685.5"/>
<text text-anchor="middle" x="328" y="-673.5" font-family="Helvetica,sans-Serif" font-size="10.00">cam.nc.gravos.Creator.PROGRAM_END</text>
</a>
</g>
</g>
<!-- Node1&#45;&gt;Node20 -->
<g id="edge19_Node000001_Node000020" class="edge">
<title>Node1&#45;&gt;Node20</title>
<g id="a_edge19_Node000001_Node000020"><a xlink:title=" ">
<path fill="none" stroke="#63b8ff" d="M189.33,-664.7C197.7,-665.39 206.24,-666.09 214.75,-666.79"/>
<polygon fill="#63b8ff" stroke="#63b8ff" points="214.47,-670.28 224.72,-667.61 215.04,-663.3 214.47,-670.28"/>
</a>
</g>
</g>
<!-- Node21 -->
<g id="Node000021" class="node">
<title>Node21</title>
<g id="a_Node000021"><a xlink:href="classcam_1_1nc_1_1grbl_1_1Creator.html#aa670b5bb9caacd860ec8870396e5800a" target="_top" xlink:title=" ">
<polygon fill="white" stroke="#666666" points="423.5,-648.5 232.5,-648.5 232.5,-629.5 423.5,-629.5 423.5,-648.5"/>
<text text-anchor="middle" x="328" y="-636.5" font-family="Helvetica,sans-Serif" font-size="10.00">cam.nc.grbl.Creator.PROGRAM_END</text>
</a>
</g>
</g>
<!-- Node1&#45;&gt;Node21 -->
<g id="edge20_Node000001_Node000021" class="edge">
<title>Node1&#45;&gt;Node21</title>
<g id="a_edge20_Node000001_Node000021"><a xlink:title=" ">
<path fill="none" stroke="#63b8ff" d="M189.33,-649.7C200.17,-648.86 211.28,-648 222.26,-647.14"/>
<polygon fill="#63b8ff" stroke="#63b8ff" points="222.59,-650.63 232.29,-646.36 222.05,-643.65 222.59,-650.63"/>
</a>
</g>
</g>
<!-- Node22 -->
<g id="Node000022" class="node">
<title>Node22</title>
<g id="a_Node000022"><a xlink:href="classcam_1_1nc_1_1iso_1_1Creator.html#a8705709f8177dd54b9737977dc14cc85" target="_top" xlink:title=" ">
<polygon fill="white" stroke="#666666" points="421.5,-611.5 234.5,-611.5 234.5,-592.5 421.5,-592.5 421.5,-611.5"/>
<text text-anchor="middle" x="328" y="-599.5" font-family="Helvetica,sans-Serif" font-size="10.00">cam.nc.iso.Creator.PROGRAM_END</text>
</a>
</g>
</g>
<!-- Node1&#45;&gt;Node22 -->
<g id="edge21_Node000001_Node000022" class="edge">
<title>Node1&#45;&gt;Node22</title>
<g id="a_edge21_Node000001_Node000022"><a xlink:title=" ">
<path fill="none" stroke="#63b8ff" d="M126.97,-647.42C153.07,-639.68 191.24,-628.82 225,-621 236.58,-618.32 248.98,-615.75 260.99,-613.43"/>
<polygon fill="#63b8ff" stroke="#63b8ff" points="261.8,-616.84 270.97,-611.53 260.49,-609.96 261.8,-616.84"/>
</a>
</g>
</g>
<!-- Node23 -->
<g id="Node000023" class="node">
<title>Node23</title>
<g id="a_Node000023"><a xlink:href="classcam_1_1nc_1_1lynx__otter__o_1_1Creator.html#a60a92a384193fbf62feb8c1e4a924084" target="_top" xlink:title=" ">
<polygon fill="white" stroke="#666666" points="406.5,-574 249.5,-574 249.5,-544 406.5,-544 406.5,-574"/>
<text text-anchor="start" x="257.5" y="-562" font-family="Helvetica,sans-Serif" font-size="10.00">cam.nc.lynx_otter_o.Creator.</text>
<text text-anchor="middle" x="328" y="-551" font-family="Helvetica,sans-Serif" font-size="10.00">PROGRAM_END</text>
</a>
</g>
</g>
<!-- Node1&#45;&gt;Node23 -->
<g id="edge22_Node000001_Node000023" class="edge">
<title>Node1&#45;&gt;Node23</title>
<g id="a_edge22_Node000001_Node000023"><a xlink:title=" ">
<path fill="none" stroke="#63b8ff" d="M109.61,-647.32C132.75,-631.87 180.6,-601.57 225,-584 231.38,-581.48 238.09,-579.15 244.89,-577.03"/>
<polygon fill="#63b8ff" stroke="#63b8ff" points="246.3,-580.26 254.89,-574.06 244.31,-573.55 246.3,-580.26"/>
</a>
</g>
</g>
<!-- Node24 -->
<g id="Node000024" class="node">
<title>Node24</title>
<g id="a_Node000024"><a xlink:href="classcam_1_1nc_1_1makerbot__codes_1_1Codes.html#a84aafa8d86e1a826e6ce2677d0d63727" target="_top" xlink:title=" ">
<polygon fill="white" stroke="#666666" points="413.5,-526 242.5,-526 242.5,-496 413.5,-496 413.5,-526"/>
<text text-anchor="start" x="250.5" y="-514" font-family="Helvetica,sans-Serif" font-size="10.00">cam.nc.makerbot_codes.Codes.</text>
<text text-anchor="middle" x="328" y="-503" font-family="Helvetica,sans-Serif" font-size="10.00">PROGRAM_END</text>
</a>
</g>
</g>
<!-- Node1&#45;&gt;Node24 -->
<g id="edge23_Node000001_Node000024" class="edge">
<title>Node1&#45;&gt;Node24</title>
<g id="a_edge23_Node000001_Node000024"><a xlink:title=" ">
<path fill="none" stroke="#63b8ff" d="M102.75,-647.3C120.7,-624.01 169.77,-564.69 225,-535 228.5,-533.12 232.16,-531.38 235.9,-529.78"/>
<polygon fill="#63b8ff" stroke="#63b8ff" points="237.34,-532.97 245.38,-526.07 234.79,-526.45 237.34,-532.97"/>
</a>
</g>
</g>
<!-- Node25 -->
<g id="Node000025" class="node">
<title>Node25</title>
<g id="a_Node000025"><a xlink:href="classcam_1_1nc_1_1cad__nc__read_1_1Parser.html#adcf2f47949df29f187f27fe985884633" target="_top" xlink:title=" ">
<polygon fill="white" stroke="#666666" points="416,-459.5 240,-459.5 240,-440.5 416,-440.5 416,-459.5"/>
<text text-anchor="middle" x="328" y="-447.5" font-family="Helvetica,sans-Serif" font-size="10.00">cam.nc.cad_nc_read.Parser.write</text>
</a>
</g>
</g>
<!-- Node1&#45;&gt;Node25 -->
<g id="edge34_Node000001_Node000025" class="edge">
<title>Node1&#45;&gt;Node25</title>
<g id="a_edge34_Node000001_Node000025"><a xlink:title=" ">
<path fill="none" stroke="#63b8ff" d="M100.25,-647.39C114.85,-618.79 161.92,-533.37 225,-487 239.65,-476.23 257.76,-468.32 274.64,-462.64"/>
<polygon fill="#63b8ff" stroke="#63b8ff" points="275.92,-465.91 284.39,-459.56 273.8,-459.24 275.92,-465.91"/>
</a>
</g>
</g>
<!-- Node26 -->
<g id="Node000026" class="node">
<title>Node26</title>
<g id="a_Node000026"><a xlink:href="classcam_1_1nc_1_1hxml__writer_1_1HxmlWriter.html#aed6f93c98cb8c0e3f3e826e75b6d6f15" target="_top" xlink:title=" ">
<polygon fill="white" stroke="#666666" points="427.5,-404.5 228.5,-404.5 228.5,-385.5 427.5,-385.5 427.5,-404.5"/>
<text text-anchor="middle" x="328" y="-392.5" font-family="Helvetica,sans-Serif" font-size="10.00">cam.nc.hxml_writer.HxmlWriter.write</text>
</a>
</g>
</g>
<!-- Node1&#45;&gt;Node26 -->
<g id="edge36_Node000001_Node000026" class="edge">
<title>Node1&#45;&gt;Node26</title>
<g id="a_edge36_Node000001_Node000026"><a xlink:title=" ">
<path fill="none" stroke="#63b8ff" d="M98.38,-647.3C109.13,-612.82 150.09,-494.88 225,-432 238.02,-421.07 254.54,-413.25 270.48,-407.7"/>
<polygon fill="#63b8ff" stroke="#63b8ff" points="271.84,-410.94 280.29,-404.53 269.69,-404.27 271.84,-410.94"/>
</a>
</g>
</g>
<!-- Node27 -->
<g id="Node000027" class="node">
<title>Node27</title>
<g id="a_Node000027"><a xlink:href="classcam_1_1nc_1_1iso_1_1Creator.html#abb81af5a0bdddfed387b71b68a51cc7a" target="_top" xlink:title="Internals.">
<polygon fill="white" stroke="#666666" points="395.5,-367.5 260.5,-367.5 260.5,-348.5 395.5,-348.5 395.5,-367.5"/>
<text text-anchor="middle" x="328" y="-355.5" font-family="Helvetica,sans-Serif" font-size="10.00">cam.nc.iso.Creator.write</text>
</a>
</g>
</g>
<!-- Node1&#45;&gt;Node27 -->
<g id="edge38_Node000001_Node000027" class="edge">
<title>Node1&#45;&gt;Node27</title>
<g id="a_edge38_Node000001_Node000027"><a xlink:title=" ">
<path fill="none" stroke="#63b8ff" d="M96.78,-647.36C102.68,-606.95 131.13,-449.98 225,-377 232.55,-371.13 241.35,-366.88 250.56,-363.83"/>
<polygon fill="#63b8ff" stroke="#63b8ff" points="251.61,-367.17 260.27,-361.06 249.69,-360.44 251.61,-367.17"/>
</a>
</g>
</g>
<!-- Node28 -->
<g id="Node000028" class="node">
<title>Node28</title>
<g id="a_Node000028"><a xlink:href="classcam_1_1nc_1_1nc_1_1Creator.html#a80f2134add83bfaaf2870d075d36ed8a" target="_top" xlink:title=" ">
<polygon fill="white" stroke="#666666" points="394,-312.5 262,-312.5 262,-293.5 394,-293.5 394,-312.5"/>
<text text-anchor="middle" x="328" y="-300.5" font-family="Helvetica,sans-Serif" font-size="10.00">cam.nc.nc.Creator.write</text>
</a>
</g>
</g>
<!-- Node1&#45;&gt;Node28 -->
<g id="edge39_Node000001_Node000028" class="edge">
<title>Node1&#45;&gt;Node28</title>
<g id="a_edge39_Node000001_Node000028"><a xlink:title=" ">
<path fill="none" stroke="#63b8ff" d="M96.6,-647.42C101.97,-605 129.19,-432.06 225,-340 236.42,-329.03 251.34,-321.27 266.23,-315.8"/>
<polygon fill="#63b8ff" stroke="#63b8ff" points="267.61,-319.03 275.98,-312.53 265.38,-312.39 267.61,-319.03"/>
</a>
</g>
</g>
<!-- Node29 -->
<g id="Node000029" class="node">
<title>Node29</title>
<g id="a_Node000029"><a xlink:href="classcam_1_1nc_1_1nclathe__read_1_1Parser.html#ab5ea283b461b57e48c8d5b0ad0a45694" target="_top" xlink:title=" ">
<polygon fill="white" stroke="#666666" points="417,-257.5 239,-257.5 239,-238.5 417,-238.5 417,-257.5"/>
<text text-anchor="middle" x="328" y="-245.5" font-family="Helvetica,sans-Serif" font-size="10.00">cam.nc.nclathe_read.Parser.write</text>
</a>
</g>
</g>
<!-- Node1&#45;&gt;Node29 -->
<g id="edge41_Node000001_Node000029" class="edge">
<title>Node1&#45;&gt;Node29</title>
<g id="a_edge41_Node000001_Node000029"><a xlink:title=" ">
<path fill="none" stroke="#63b8ff" d="M95.95,-647.4C98.63,-600.7 116.43,-394.99 225,-285 235.86,-274 250.23,-266.25 264.75,-260.8"/>
<polygon fill="#63b8ff" stroke="#63b8ff" points="265.95,-264.09 274.27,-257.54 263.68,-257.47 265.95,-264.09"/>
</a>
</g>
</g>
<!-- Node30 -->
<g id="Node000030" class="node">
<title>Node30</title>
<g id="a_Node000030"><a xlink:href="classcam_1_1nc_1_1recreator_1_1Redirector.html#a79cc974683588db3ef959189e7552c0d" target="_top" xlink:title="Programs.">
<polygon fill="white" stroke="#666666" points="417.5,-202.5 238.5,-202.5 238.5,-183.5 417.5,-183.5 417.5,-202.5"/>
<text text-anchor="middle" x="328" y="-190.5" font-family="Helvetica,sans-Serif" font-size="10.00">cam.nc.recreator.Redirector.write</text>
</a>
</g>
</g>
<!-- Node1&#45;&gt;Node30 -->
<g id="edge43_Node000001_Node000030" class="edge">
<title>Node1&#45;&gt;Node30</title>
<g id="a_edge43_Node000001_Node000030"><a xlink:title=" ">
<path fill="none" stroke="#63b8ff" d="M95.45,-647.39C95.7,-596.74 103.5,-358.19 225,-230 235.32,-219.11 249.09,-211.42 263.16,-205.99"/>
<polygon fill="#63b8ff" stroke="#63b8ff" points="264.63,-209.18 272.91,-202.57 262.32,-202.57 264.63,-209.18"/>
</a>
</g>
</g>
<!-- Node31 -->
<g id="Node000031" class="node">
<title>Node31</title>
<g id="a_Node000031"><a xlink:href="classcam_1_1nc_1_1format_1_1Address.html#aa21f0ffeb829537d9103759276c01a4b" target="_top" xlink:title=" ">
<polygon fill="white" stroke="#666666" points="407,-165.5 249,-165.5 249,-146.5 407,-146.5 407,-165.5"/>
<text text-anchor="middle" x="328" y="-153.5" font-family="Helvetica,sans-Serif" font-size="10.00">cam.nc.format.Address.write</text>
</a>
</g>
</g>
<!-- Node1&#45;&gt;Node31 -->
<g id="edge45_Node000001_Node000031" class="edge">
<title>Node1&#45;&gt;Node31</title>
<g id="a_edge45_Node000001_Node000031"><a xlink:title=" ">
<path fill="none" stroke="#63b8ff" d="M96.69,-647.26C104.52,-584.91 150.59,-242.18 225,-174 229.27,-170.09 234.07,-166.88 239.22,-164.25"/>
<polygon fill="#63b8ff" stroke="#63b8ff" points="240.99,-167.3 248.79,-160.13 238.22,-160.87 240.99,-167.3"/>
</a>
</g>
</g>
<!-- Node42 -->
<g id="Node000042" class="node">
<title>Node42</title>
<g id="a_Node000042"><a xlink:href="classcam_1_1nc_1_1format_1_1AddressPlusMinus.html#aaacea4c7b677f0a602dbc9023ff365d2" target="_top" xlink:title=" ">
<polygon fill="white" stroke="#666666" points="403,-128 253,-128 253,-98 403,-98 403,-128"/>
<text text-anchor="start" x="261" y="-116" font-family="Helvetica,sans-Serif" font-size="10.00">cam.nc.format.AddressPlus</text>
<text text-anchor="middle" x="328" y="-105" font-family="Helvetica,sans-Serif" font-size="10.00">Minus.write</text>
</a>
</g>
</g>
<!-- Node1&#45;&gt;Node42 -->
<g id="edge58_Node000001_Node000042" class="edge">
<title>Node1&#45;&gt;Node42</title>
<g id="a_edge58_Node000001_Node000042"><a xlink:title=" ">
<path fill="none" stroke="#63b8ff" d="M96.53,-647.42C103.68,-583.02 147.7,-213.3 225,-137 230.34,-131.73 236.61,-127.53 243.37,-124.2"/>
<polygon fill="#63b8ff" stroke="#63b8ff" points="245.01,-127.31 252.84,-120.18 242.27,-120.87 245.01,-127.31"/>
</a>
</g>
</g>
<!-- Node2&#45;&gt;Node3 -->
<g id="edge2_Node000002_Node000003" class="edge">
<title>Node2&#45;&gt;Node3</title>
<g id="a_edge2_Node000002_Node000003"><a xlink:title=" ">
<path fill="none" stroke="#63b8ff" d="M333.72,-913.67C348.67,-943.18 398.09,-1032.67 467,-1075 469.66,-1076.64 472.45,-1078.12 475.33,-1079.48"/>
<polygon fill="#63b8ff" stroke="#63b8ff" points="474.19,-1082.79 484.76,-1083.36 476.85,-1076.32 474.19,-1082.79"/>
</a>
</g>
</g>
<!-- Node2&#45;&gt;Node4 -->
<g id="edge3_Node000002_Node000004" class="edge">
<title>Node2&#45;&gt;Node4</title>
<g id="a_edge3_Node000002_Node000004"><a xlink:title=" ">
<path fill="none" stroke="#63b8ff" d="M335.83,-913.52C354.07,-938.18 406.65,-1004.5 467,-1037 471.24,-1039.29 475.75,-1041.3 480.39,-1043.07"/>
<polygon fill="#63b8ff" stroke="#63b8ff" points="479.45,-1046.45 490.05,-1046.37 481.72,-1039.82 479.45,-1046.45"/>
</a>
</g>
</g>
<!-- Node2&#45;&gt;Node5 -->
<g id="edge4_Node000002_Node000005" class="edge">
<title>Node2&#45;&gt;Node5</title>
<g id="a_edge4_Node000002_Node000005"><a xlink:title=" ">
<path fill="none" stroke="#63b8ff" d="M342.03,-913.74C365.75,-931.08 418.06,-967.47 467,-989 471.59,-991.02 476.4,-992.92 481.3,-994.69"/>
<polygon fill="#63b8ff" stroke="#63b8ff" points="480.18,-998.01 490.77,-997.95 482.45,-991.39 480.18,-998.01"/>
</a>
</g>
</g>
<!-- Node2&#45;&gt;Node6 -->
<g id="edge5_Node000002_Node000006" class="edge">
<title>Node2&#45;&gt;Node6</title>
<g id="a_edge5_Node000002_Node000006"><a xlink:title=" ">
<path fill="none" stroke="#63b8ff" d="M354.43,-913.58C381.93,-923.72 427.17,-939.77 467,-951 475.93,-953.52 485.46,-955.92 494.79,-958.13"/>
<polygon fill="#63b8ff" stroke="#63b8ff" points="494.26,-961.6 504.79,-960.43 495.83,-954.78 494.26,-961.6"/>
</a>
</g>
</g>
<!-- Node2&#45;&gt;Node7 -->
<g id="edge6_Node000002_Node000007" class="edge">
<title>Node2&#45;&gt;Node7</title>
<g id="a_edge6_Node000002_Node000007"><a xlink:title=" ">
<path fill="none" stroke="#63b8ff" d="M421.11,-913.52C436.89,-915.15 453.21,-916.84 468.74,-918.45"/>
<polygon fill="#63b8ff" stroke="#63b8ff" points="468.51,-921.94 478.82,-919.49 469.23,-914.98 468.51,-921.94"/>
</a>
</g>
</g>
<!-- Node2&#45;&gt;Node8 -->
<g id="edge7_Node000002_Node000008" class="edge">
<title>Node2&#45;&gt;Node8</title>
<g id="a_edge7_Node000002_Node000008"><a xlink:title=" ">
<path fill="none" stroke="#63b8ff" d="M431.13,-894.82C444.65,-893.6 458.36,-892.37 471.43,-891.2"/>
<polygon fill="#63b8ff" stroke="#63b8ff" points="472.13,-894.65 481.77,-890.27 471.5,-887.68 472.13,-894.65"/>
</a>
</g>
</g>
<!-- Node2&#45;&gt;Node16 -->
<g id="edge15_Node000002_Node000016" class="edge">
<title>Node2&#45;&gt;Node16</title>
<g id="a_edge15_Node000002_Node000016"><a xlink:title=" ">
<path fill="none" stroke="#63b8ff" d="M362.79,-894.43C396.04,-885.02 447.6,-870.42 488.43,-858.86"/>
<polygon fill="#63b8ff" stroke="#63b8ff" points="489.63,-862.16 498.29,-856.07 487.72,-855.42 489.63,-862.16"/>
</a>
</g>
</g>
<!-- Node2&#45;&gt;Node17 -->
<g id="edge16_Node000002_Node000017" class="edge">
<title>Node2&#45;&gt;Node17</title>
<g id="a_edge16_Node000002_Node000017"><a xlink:title=" ">
<path fill="none" stroke="#63b8ff" d="M341.14,-894.3C364.25,-876.32 416.74,-837.77 467,-817 473.16,-814.45 479.73,-812.22 486.36,-810.27"/>
<polygon fill="#63b8ff" stroke="#63b8ff" points="487.39,-813.61 496.11,-807.6 485.54,-806.86 487.39,-813.61"/>
</a>
</g>
</g>
<!-- Node2&#45;&gt;Node18 -->
<g id="edge17_Node000002_Node000018" class="edge">
<title>Node2&#45;&gt;Node18</title>
<g id="a_edge17_Node000002_Node000018"><a xlink:title=" ">
<path fill="none" stroke="#63b8ff" d="M336.96,-894.36C356.6,-871.18 409.93,-811.91 467,-780 470.94,-777.8 475.09,-775.77 479.35,-773.91"/>
<polygon fill="#63b8ff" stroke="#63b8ff" points="480.86,-777.08 488.83,-770.09 478.24,-770.58 480.86,-777.08"/>
</a>
</g>
</g>
<!-- Node2&#45;&gt;Node19 -->
<g id="edge18_Node000002_Node000019" class="edge">
<title>Node2&#45;&gt;Node19</title>
<g id="a_edge18_Node000002_Node000019"><a xlink:title=" ">
<path fill="none" stroke="#63b8ff" d="M333.71,-894.26C348.63,-864.5 397.96,-774.22 467,-731 470.42,-728.86 474.04,-726.96 477.8,-725.28"/>
<polygon fill="#63b8ff" stroke="#63b8ff" points="479.33,-728.43 487.35,-721.51 476.76,-721.92 479.33,-728.43"/>
</a>
</g>
</g>
<!-- Node9 -->
<g id="Node000009" class="node">
<title>Node9</title>
<g id="a_Node000009"><a xlink:href="classcam_1_1nc_1_1anilam__crusader__m_1_1Creator.html#a36f873a0248bcaa4cf2cfb220dc1b00c" target="_top" xlink:title="Codes.">
<polygon fill="white" stroke="#666666" points="834,-899 698,-899 698,-869 834,-869 834,-899"/>
<text text-anchor="start" x="706" y="-887" font-family="Helvetica,sans-Serif" font-size="10.00">cam.nc.anilam_crusader</text>
<text text-anchor="middle" x="766" y="-876" font-family="Helvetica,sans-Serif" font-size="10.00">_m.Creator.SPACE_STR</text>
</a>
</g>
</g>
<!-- Node8&#45;&gt;Node9 -->
<g id="edge8_Node000008_Node000009" class="edge">
<title>Node8&#45;&gt;Node9</title>
<g id="a_edge8_Node000008_Node000009"><a xlink:title=" ">
<path fill="none" stroke="#63b8ff" d="M623.05,-884C643.74,-884 666.54,-884 687.69,-884"/>
<polygon fill="#63b8ff" stroke="#63b8ff" points="687.93,-887.5 697.93,-884 687.93,-880.5 687.93,-887.5"/>
</a>
</g>
</g>
<!-- Node10 -->
<g id="Node000010" class="node">
<title>Node10</title>
<g id="a_Node000010"><a xlink:href="classcam_1_1nc_1_1fadal_1_1Creator.html#a97a50724edf2662eb4fe76b15516b638" target="_top" xlink:title="Codes.">
<polygon fill="white" stroke="#666666" points="854,-850.5 678,-850.5 678,-831.5 854,-831.5 854,-850.5"/>
<text text-anchor="middle" x="766" y="-838.5" font-family="Helvetica,sans-Serif" font-size="10.00">cam.nc.fadal.Creator.SPACE_STR</text>
</a>
</g>
</g>
<!-- Node8&#45;&gt;Node10 -->
<g id="edge9_Node000008_Node000010" class="edge">
<title>Node8&#45;&gt;Node10</title>
<g id="a_edge9_Node000008_Node000010"><a xlink:title=" ">
<path fill="none" stroke="#63b8ff" d="M600.44,-874.46C632.2,-868 674.34,-859.43 708.03,-852.58"/>
<polygon fill="#63b8ff" stroke="#63b8ff" points="709.09,-855.94 718.19,-850.52 707.7,-849.08 709.09,-855.94"/>
</a>
</g>
</g>
<!-- Node11 -->
<g id="Node000011" class="node">
<title>Node11</title>
<g id="a_Node000011"><a xlink:href="classcam_1_1nc_1_1gravos_1_1Creator.html#ac0bc0d26e8a92a65c0f33d696ad850f5" target="_top" xlink:title="Codes.">
<polygon fill="white" stroke="#666666" points="858,-813.5 674,-813.5 674,-794.5 858,-794.5 858,-813.5"/>
<text text-anchor="middle" x="766" y="-801.5" font-family="Helvetica,sans-Serif" font-size="10.00">cam.nc.gravos.Creator.SPACE_STR</text>
</a>
</g>
</g>
<!-- Node8&#45;&gt;Node11 -->
<g id="edge10_Node000008_Node000011" class="edge">
<title>Node8&#45;&gt;Node11</title>
<g id="a_edge10_Node000008_Node000011"><a xlink:title=" ">
<path fill="none" stroke="#63b8ff" d="M617.07,-874.42C624.41,-871.96 631.56,-868.88 638,-865 659.07,-852.32 652.84,-835.51 674,-823 677.67,-820.83 681.56,-818.9 685.57,-817.19"/>
<polygon fill="#63b8ff" stroke="#63b8ff" points="687.01,-820.39 695.13,-813.59 684.54,-813.84 687.01,-820.39"/>
</a>
</g>
</g>
<!-- Node12 -->
<g id="Node000012" class="node">
<title>Node12</title>
<g id="a_Node000012"><a xlink:href="classcam_1_1nc_1_1iso_1_1Creator.html#aa481cf1e394988751640fd5ce5af991e" target="_top" xlink:title="Codes.">
<polygon fill="white" stroke="#666666" points="848.5,-776.5 683.5,-776.5 683.5,-757.5 848.5,-757.5 848.5,-776.5"/>
<text text-anchor="middle" x="766" y="-764.5" font-family="Helvetica,sans-Serif" font-size="10.00">cam.nc.iso.Creator.SPACE_STR</text>
</a>
</g>
</g>
<!-- Node8&#45;&gt;Node12 -->
<g id="edge11_Node000008_Node000012" class="edge">
<title>Node8&#45;&gt;Node12</title>
<g id="a_edge11_Node000008_Node000012"><a xlink:title=" ">
<path fill="none" stroke="#63b8ff" d="M622.49,-874.35C628.06,-871.86 633.33,-868.79 638,-865 667.95,-840.67 643.87,-810.1 674,-786 676.1,-784.32 678.3,-782.79 680.6,-781.37"/>
<polygon fill="#63b8ff" stroke="#63b8ff" points="682.6,-784.28 689.84,-776.54 679.36,-778.07 682.6,-784.28"/>
</a>
</g>
</g>
<!-- Node13 -->
<g id="Node000013" class="node">
<title>Node13</title>
<g id="a_Node000013"><a xlink:href="classcam_1_1nc_1_1lynx__otter__o_1_1Creator.html#a73b176561e066abcdb256a1bf53a5fcc" target="_top" xlink:title="Codes.">
<polygon fill="white" stroke="#666666" points="844.5,-1022 687.5,-1022 687.5,-992 844.5,-992 844.5,-1022"/>
<text text-anchor="start" x="695.5" y="-1010" font-family="Helvetica,sans-Serif" font-size="10.00">cam.nc.lynx_otter_o.Creator.</text>
<text text-anchor="middle" x="766" y="-999" font-family="Helvetica,sans-Serif" font-size="10.00">SPACE_STR</text>
</a>
</g>
</g>
<!-- Node8&#45;&gt;Node13 -->
<g id="edge12_Node000008_Node000013" class="edge">
<title>Node8&#45;&gt;Node13</title>
<g id="a_edge12_Node000008_Node000013"><a xlink:title=" ">
<path fill="none" stroke="#63b8ff" d="M622.5,-893.63C628.07,-896.12 633.34,-899.2 638,-903 668.21,-927.65 644.25,-957.8 674,-983 675.37,-984.16 676.79,-985.27 678.26,-986.32"/>
<polygon fill="#63b8ff" stroke="#63b8ff" points="676.73,-989.49 687.07,-991.79 680.42,-983.55 676.73,-989.49"/>
</a>
</g>
</g>
<!-- Node14 -->
<g id="Node000014" class="node">
<title>Node14</title>
<g id="a_Node000014"><a xlink:href="classcam_1_1nc_1_1mach3_1_1Creator.html#aa461d578afa76c5af9bb5562b79d955a" target="_top" xlink:title="Codes.">
<polygon fill="white" stroke="#666666" points="858,-973.5 674,-973.5 674,-954.5 858,-954.5 858,-973.5"/>
<text text-anchor="middle" x="766" y="-961.5" font-family="Helvetica,sans-Serif" font-size="10.00">cam.nc.mach3.Creator.SPACE_STR</text>
</a>
</g>
</g>
<!-- Node8&#45;&gt;Node14 -->
<g id="edge13_Node000008_Node000014" class="edge">
<title>Node8&#45;&gt;Node14</title>
<g id="a_edge13_Node000008_Node000014"><a xlink:title=" ">
<path fill="none" stroke="#63b8ff" d="M617.12,-893.51C624.45,-895.98 631.58,-899.09 638,-903 659.28,-915.97 652.55,-933.3 674,-946 676.84,-947.68 679.81,-949.21 682.87,-950.6"/>
<polygon fill="#63b8ff" stroke="#63b8ff" points="681.69,-953.9 692.28,-954.35 684.29,-947.4 681.69,-953.9"/>
</a>
</g>
</g>
<!-- Node15 -->
<g id="Node000015" class="node">
<title>Node15</title>
<g id="a_Node000015"><a xlink:href="classcam_1_1nc_1_1winpc_1_1Creator.html#aae1cb93a5dd430719105fa03a054f654" target="_top" xlink:title="Codes.">
<polygon fill="white" stroke="#666666" points="855.5,-936.5 676.5,-936.5 676.5,-917.5 855.5,-917.5 855.5,-936.5"/>
<text text-anchor="middle" x="766" y="-924.5" font-family="Helvetica,sans-Serif" font-size="10.00">cam.nc.winpc.Creator.SPACE_STR</text>
</a>
</g>
</g>
<!-- Node8&#45;&gt;Node15 -->
<g id="edge14_Node000008_Node000015" class="edge">
<title>Node8&#45;&gt;Node15</title>
<g id="a_edge14_Node000008_Node000015"><a xlink:title=" ">
<path fill="none" stroke="#63b8ff" d="M600.44,-893.54C632.2,-900 674.34,-908.57 708.03,-915.42"/>
<polygon fill="#63b8ff" stroke="#63b8ff" points="707.7,-918.92 718.19,-917.48 709.09,-912.06 707.7,-918.92"/>
</a>
</g>
</g>
<!-- Node25&#45;&gt;Node25 -->
<g id="edge35_Node000025_Node000025" class="edge">
<title>Node25&#45;&gt;Node25</title>
<g id="a_edge35_Node000025_Node000025"><a xlink:title=" ">
<path fill="none" stroke="#63b8ff" d="M293.48,-459.58C276.68,-468.23 288.19,-477.5 328,-477.5 357.24,-477.5 371.21,-472.5 369.92,-466.42"/>
<polygon fill="#63b8ff" stroke="#63b8ff" points="372.24,-463.8 362.52,-459.58 367.49,-468.94 372.24,-463.8"/>
</a>
</g>
</g>
<!-- Node26&#45;&gt;Node26 -->
<g id="edge37_Node000026_Node000026" class="edge">
<title>Node26&#45;&gt;Node26</title>
<g id="a_edge37_Node000026_Node000026"><a xlink:title=" ">
<path fill="none" stroke="#63b8ff" d="M293.48,-404.58C276.68,-413.23 288.19,-422.5 328,-422.5 357.24,-422.5 371.21,-417.5 369.92,-411.42"/>
<polygon fill="#63b8ff" stroke="#63b8ff" points="372.24,-408.8 362.52,-404.58 367.49,-413.94 372.24,-408.8"/>
</a>
</g>
</g>
<!-- Node28&#45;&gt;Node28 -->
<g id="edge40_Node000028_Node000028" class="edge">
<title>Node28&#45;&gt;Node28</title>
<g id="a_edge40_Node000028_Node000028"><a xlink:title=" ">
<path fill="none" stroke="#63b8ff" d="M293.48,-312.58C276.68,-321.23 288.19,-330.5 328,-330.5 357.24,-330.5 371.21,-325.5 369.92,-319.42"/>
<polygon fill="#63b8ff" stroke="#63b8ff" points="372.24,-316.8 362.52,-312.58 367.49,-321.94 372.24,-316.8"/>
</a>
</g>
</g>
<!-- Node29&#45;&gt;Node29 -->
<g id="edge42_Node000029_Node000029" class="edge">
<title>Node29&#45;&gt;Node29</title>
<g id="a_edge42_Node000029_Node000029"><a xlink:title=" ">
<path fill="none" stroke="#63b8ff" d="M293.48,-257.58C276.68,-266.23 288.19,-275.5 328,-275.5 357.24,-275.5 371.21,-270.5 369.92,-264.42"/>
<polygon fill="#63b8ff" stroke="#63b8ff" points="372.24,-261.8 362.52,-257.58 367.49,-266.94 372.24,-261.8"/>
</a>
</g>
</g>
<!-- Node30&#45;&gt;Node30 -->
<g id="edge44_Node000030_Node000030" class="edge">
<title>Node30&#45;&gt;Node30</title>
<g id="a_edge44_Node000030_Node000030"><a xlink:title=" ">
<path fill="none" stroke="#63b8ff" d="M293.48,-202.58C276.68,-211.23 288.19,-220.5 328,-220.5 357.24,-220.5 371.21,-215.5 369.92,-209.42"/>
<polygon fill="#63b8ff" stroke="#63b8ff" points="372.24,-206.8 362.52,-202.58 367.49,-211.94 372.24,-206.8"/>
</a>
</g>
</g>
<!-- Node32 -->
<g id="Node000032" class="node">
<title>Node32</title>
<g id="a_Node000032"><a xlink:href="classcam_1_1async__op_1_1AsyncOperatorMixin.html#a9628cbca8e69ec75b2337171a02bf428" target="_top" xlink:title=" ">
<polygon fill="white" stroke="#666666" points="633,-150 472,-150 472,-120 633,-120 633,-150"/>
<text text-anchor="start" x="480" y="-138" font-family="Helvetica,sans-Serif" font-size="10.00">cam.async_op.AsyncOperator</text>
<text text-anchor="middle" x="552.5" y="-127" font-family="Helvetica,sans-Serif" font-size="10.00">Mixin.modal</text>
</a>
</g>
</g>
<!-- Node31&#45;&gt;Node32 -->
<g id="edge46_Node000031_Node000032" class="edge">
<title>Node31&#45;&gt;Node32</title>
<g id="a_edge46_Node000031_Node000032"><a xlink:title=" ">
<path fill="none" stroke="#63b8ff" d="M407.13,-148.63C424.69,-146.97 443.47,-145.2 461.47,-143.5"/>
<polygon fill="#63b8ff" stroke="#63b8ff" points="462.05,-146.96 471.67,-142.53 461.39,-139.99 462.05,-146.96"/>
</a>
</g>
</g>
<!-- Node33 -->
<g id="Node000033" class="node">
<title>Node33</title>
<g id="a_Node000033"><a xlink:href="classcam_1_1async__op_1_1AsyncOperatorMixin.html#a15a51cfd69d8e453e2e3d64386b1ebe3" target="_top" xlink:title=" ">
<polygon fill="white" stroke="#666666" points="846.5,-150 685.5,-150 685.5,-120 846.5,-120 846.5,-150"/>
<text text-anchor="start" x="693.5" y="-138" font-family="Helvetica,sans-Serif" font-size="10.00">cam.async_op.AsyncOperator</text>
<text text-anchor="middle" x="766" y="-127" font-family="Helvetica,sans-Serif" font-size="10.00">Mixin.tick</text>
</a>
</g>
</g>
<!-- Node32&#45;&gt;Node33 -->
<g id="edge47_Node000032_Node000033" class="edge">
<title>Node32&#45;&gt;Node33</title>
<g id="a_edge47_Node000032_Node000033"><a xlink:title=" ">
<path fill="none" stroke="#63b8ff" d="M633.16,-135C646.91,-135 661.3,-135 675.3,-135"/>
<polygon fill="#63b8ff" stroke="#63b8ff" points="675.41,-138.5 685.41,-135 675.41,-131.5 675.41,-138.5"/>
</a>
</g>
</g>
<!-- Node34 -->
<g id="Node000034" class="node">
<title>Node34</title>
<g id="a_Node000034"><a xlink:href="classcam_1_1async__op_1_1AsyncTestOperator.html#a42606ca890a957aa7070a4bc6f25228b" target="_top" xlink:title=" ">
<polygon fill="white" stroke="#666666" points="1115,-270 894,-270 894,-240 1115,-240 1115,-270"/>
<text text-anchor="start" x="902" y="-258" font-family="Helvetica,sans-Serif" font-size="10.00">cam.async_op.AsyncTestOperator.execute</text>
<text text-anchor="middle" x="1004.5" y="-247" font-family="Helvetica,sans-Serif" font-size="10.00">_async</text>
</a>
</g>
</g>
<!-- Node33&#45;&gt;Node34 -->
<g id="edge48_Node000033_Node000034" class="edge">
<title>Node33&#45;&gt;Node34</title>
<g id="a_edge48_Node000033_Node000034"><a xlink:title=" ">
<path fill="none" stroke="#63b8ff" d="M782.36,-150.21C804.88,-171.62 849.06,-210.31 894,-231 898.58,-233.11 903.35,-235.04 908.23,-236.8"/>
<polygon fill="#63b8ff" stroke="#63b8ff" points="907.13,-240.12 917.73,-239.98 909.36,-233.48 907.13,-240.12"/>
</a>
</g>
</g>
<!-- Node35 -->
<g id="Node000035" class="node">
<title>Node35</title>
<g id="a_Node000035"><a xlink:href="classcam_1_1ops_1_1CalculatePath.html#a13dfe2f8578383234e74e58e2f292e1b" target="_top" xlink:title=" ">
<polygon fill="white" stroke="#666666" points="1089,-222 920,-222 920,-192 1089,-192 1089,-222"/>
<text text-anchor="start" x="928" y="-210" font-family="Helvetica,sans-Serif" font-size="10.00">cam.ops.CalculatePath.execute</text>
<text text-anchor="middle" x="1004.5" y="-199" font-family="Helvetica,sans-Serif" font-size="10.00">_async</text>
</a>
</g>
</g>
<!-- Node33&#45;&gt;Node35 -->
<g id="edge49_Node000033_Node000035" class="edge">
<title>Node33&#45;&gt;Node35</title>
<g id="a_edge49_Node000033_Node000035"><a xlink:title=" ">
<path fill="none" stroke="#63b8ff" d="M802.65,-150.07C827.85,-160.33 862.59,-173.68 894,-183 901.76,-185.3 909.89,-187.49 918.06,-189.54"/>
<polygon fill="#63b8ff" stroke="#63b8ff" points="917.48,-193 928.03,-191.97 919.14,-186.2 917.48,-193"/>
</a>
</g>
</g>
<!-- Node37 -->
<g id="Node000037" class="node">
<title>Node37</title>
<g id="a_Node000037"><a xlink:href="classcam_1_1ops_1_1PathsChain.html#a6fc64e383ccf724b2325e18a82d53eae" target="_top" xlink:title=" ">
<polygon fill="white" stroke="#666666" points="1082.5,-174 926.5,-174 926.5,-144 1082.5,-144 1082.5,-174"/>
<text text-anchor="start" x="934.5" y="-162" font-family="Helvetica,sans-Serif" font-size="10.00">cam.ops.PathsChain.execute</text>
<text text-anchor="middle" x="1004.5" y="-151" font-family="Helvetica,sans-Serif" font-size="10.00">_async</text>
</a>
</g>
</g>
<!-- Node33&#45;&gt;Node37 -->
<g id="edge51_Node000033_Node000037" class="edge">
<title>Node33&#45;&gt;Node37</title>
<g id="a_edge51_Node000033_Node000037"><a xlink:title=" ">
<path fill="none" stroke="#63b8ff" d="M846.74,-143.09C869.05,-145.36 893.41,-147.83 916.14,-150.13"/>
<polygon fill="#63b8ff" stroke="#63b8ff" points="915.81,-153.62 926.11,-151.15 916.52,-146.65 915.81,-153.62"/>
</a>
</g>
</g>
<!-- Node39 -->
<g id="Node000039" class="node">
<title>Node39</title>
<g id="a_Node000039"><a xlink:href="classcam_1_1ops_1_1CAMSimulate.html#a633151f17849d281fd52ce82c00356a7" target="_top" xlink:title=" ">
<polygon fill="white" stroke="#666666" points="1088.5,-78 920.5,-78 920.5,-48 1088.5,-48 1088.5,-78"/>
<text text-anchor="start" x="928.5" y="-66" font-family="Helvetica,sans-Serif" font-size="10.00">cam.ops.CAMSimulate.execute</text>
<text text-anchor="middle" x="1004.5" y="-55" font-family="Helvetica,sans-Serif" font-size="10.00">_async</text>
</a>
</g>
</g>
<!-- Node33&#45;&gt;Node39 -->
<g id="edge54_Node000033_Node000039" class="edge">
<title>Node33&#45;&gt;Node39</title>
<g id="a_edge54_Node000033_Node000039"><a xlink:title=" ">
<path fill="none" stroke="#63b8ff" d="M802.65,-119.93C827.85,-109.67 862.59,-96.32 894,-87 901.76,-84.7 909.89,-82.51 918.06,-80.46"/>
<polygon fill="#63b8ff" stroke="#63b8ff" points="919.14,-83.8 928.03,-78.03 917.48,-77 919.14,-83.8"/>
</a>
</g>
</g>
<!-- Node40 -->
<g id="Node000040" class="node">
<title>Node40</title>
<g id="a_Node000040"><a xlink:href="classcam_1_1ops_1_1CAMSimulateChain.html#a1e77c7ce21b3b7e3e38a12b6b62517e9" target="_top" xlink:title=" ">
<polygon fill="white" stroke="#666666" points="1102.5,-126 906.5,-126 906.5,-96 1102.5,-96 1102.5,-126"/>
<text text-anchor="start" x="914.5" y="-114" font-family="Helvetica,sans-Serif" font-size="10.00">cam.ops.CAMSimulateChain.execute</text>
<text text-anchor="middle" x="1004.5" y="-103" font-family="Helvetica,sans-Serif" font-size="10.00">_async</text>
</a>
</g>
</g>
<!-- Node33&#45;&gt;Node40 -->
<g id="edge55_Node000033_Node000040" class="edge">
<title>Node33&#45;&gt;Node40</title>
<g id="a_edge55_Node000033_Node000040"><a xlink:title=" ">
<path fill="none" stroke="#63b8ff" d="M846.74,-126.91C862.62,-125.3 879.54,-123.58 896.17,-121.89"/>
<polygon fill="#63b8ff" stroke="#63b8ff" points="896.88,-125.34 906.47,-120.85 896.17,-118.37 896.88,-125.34"/>
</a>
</g>
</g>
<!-- Node41 -->
<g id="Node000041" class="node">
<title>Node41</title>
<g id="a_Node000041"><a xlink:href="classcam_1_1async__op_1_1AsyncOperatorMixin.html#a2216ff6bb0dfd132f4ec4cf79b7cba2b" target="_top" xlink:title=" ">
<polygon fill="white" stroke="#666666" points="1085,-30 924,-30 924,0 1085,0 1085,-30"/>
<text text-anchor="start" x="932" y="-18" font-family="Helvetica,sans-Serif" font-size="10.00">cam.async_op.AsyncOperator</text>
<text text-anchor="middle" x="1004.5" y="-7" font-family="Helvetica,sans-Serif" font-size="10.00">Mixin.show_progress</text>
</a>
</g>
</g>
<!-- Node33&#45;&gt;Node41 -->
<g id="edge57_Node000033_Node000041" class="edge">
<title>Node33&#45;&gt;Node41</title>
<g id="a_edge57_Node000033_Node000041"><a xlink:title=" ">
<path fill="none" stroke="#63b8ff" d="M782.36,-119.79C804.88,-98.38 849.06,-59.69 894,-39 900.44,-36.03 907.27,-33.43 914.24,-31.13"/>
<polygon fill="#63b8ff" stroke="#63b8ff" points="915.27,-34.48 923.81,-28.2 913.22,-27.78 915.27,-34.48"/>
</a>
</g>
</g>
<!-- Node36 -->
<g id="Node000036" class="node">
<title>Node36</title>
<g id="a_Node000036"><a xlink:href="namespacecam_1_1ops.html#aa8e95f7410a7ceb178db48f4f8c2d995" target="_top" xlink:title=" ">
<polygon fill="white" stroke="#666666" points="1286.5,-189.5 1173.5,-189.5 1173.5,-170.5 1286.5,-170.5 1286.5,-189.5"/>
<text text-anchor="middle" x="1230" y="-177.5" font-family="Helvetica,sans-Serif" font-size="10.00">cam.ops._calc_path</text>
</a>
</g>
</g>
<!-- Node35&#45;&gt;Node36 -->
<g id="edge50_Node000035_Node000036" class="edge">
<title>Node35&#45;&gt;Node36</title>
<g id="a_edge50_Node000035_Node000036"><a xlink:title=" ">
<path fill="none" stroke="#63b8ff" d="M1089.04,-196.91C1113.56,-193.95 1140.01,-190.75 1163.25,-187.94"/>
<polygon fill="#63b8ff" stroke="#63b8ff" points="1163.83,-191.4 1173.34,-186.72 1163,-184.45 1163.83,-191.4"/>
</a>
</g>
</g>
<!-- Node37&#45;&gt;Node36 -->
<g id="edge52_Node000037_Node000036" class="edge">
<title>Node37&#45;&gt;Node36</title>
<g id="a_edge52_Node000037_Node000036"><a xlink:title=" ">
<path fill="none" stroke="#63b8ff" d="M1082.73,-166.26C1108.9,-168.72 1137.87,-171.44 1163.08,-173.81"/>
<polygon fill="#63b8ff" stroke="#63b8ff" points="1162.99,-177.31 1173.27,-174.76 1163.64,-170.34 1162.99,-177.31"/>
</a>
</g>
</g>
<!-- Node38 -->
<g id="Node000038" class="node">
<title>Node38</title>
<g id="a_Node000038"><a xlink:href="namespacecam_1_1ops.html#ab55fb8ec9a00e021e8e4a1c3ecc97cb4" target="_top" xlink:title=" ">
<polygon fill="white" stroke="#666666" points="1309,-147.5 1151,-147.5 1151,-128.5 1309,-128.5 1309,-147.5"/>
<text text-anchor="middle" x="1230" y="-135.5" font-family="Helvetica,sans-Serif" font-size="10.00">cam.ops.getChainOperations</text>
</a>
</g>
</g>
<!-- Node37&#45;&gt;Node38 -->
<g id="edge53_Node000037_Node000038" class="edge">
<title>Node37&#45;&gt;Node38</title>
<g id="a_edge53_Node000037_Node000038"><a xlink:title=" ">
<path fill="none" stroke="#63b8ff" d="M1082.73,-151.74C1101.34,-150 1121.37,-148.11 1140.45,-146.32"/>
<polygon fill="#63b8ff" stroke="#63b8ff" points="1141,-149.78 1150.63,-145.36 1140.35,-142.81 1141,-149.78"/>
</a>
</g>
</g>
<!-- Node40&#45;&gt;Node38 -->
<g id="edge56_Node000040_Node000038" class="edge">
<title>Node40&#45;&gt;Node38</title>
<g id="a_edge56_Node000040_Node000038"><a xlink:title=" ">
<path fill="none" stroke="#63b8ff" d="M1102.56,-122.72C1115.29,-124.26 1128.28,-125.83 1140.86,-127.35"/>
<polygon fill="#63b8ff" stroke="#63b8ff" points="1140.5,-130.83 1150.84,-128.56 1141.34,-123.88 1140.5,-130.83"/>
</a>
</g>
</g>
<!-- Node42&#45;&gt;Node32 -->
<g id="edge59_Node000042_Node000032" class="edge">
<title>Node42&#45;&gt;Node32</title>
<g id="a_edge59_Node000042_Node000032"><a xlink:title=" ">
<path fill="none" stroke="#63b8ff" d="M403.09,-120.33C421.82,-122.18 442.14,-124.19 461.56,-126.11"/>
<polygon fill="#63b8ff" stroke="#63b8ff" points="461.32,-129.6 471.62,-127.1 462.01,-122.63 461.32,-129.6"/>
</a>
</g>
</g>
</g>
</svg>
