<?xml version="1.0" encoding="UTF-8" standalone="no"?>
<!DOCTYPE svg PUBLIC "-//W3C//DTD SVG 1.1//EN"
 "http://www.w3.org/Graphics/SVG/1.1/DTD/svg11.dtd">
<!-- Generated by graphviz version 2.43.0 (0)
 -->
<!-- Title: pie_chains.VIEW3D_MT_PIE_Chains Pages: 1 -->
<svg width="133pt" height="153pt"
 viewBox="0.00 0.00 133.00 153.00" xmlns="http://www.w3.org/2000/svg" xmlns:xlink="http://www.w3.org/1999/xlink">
<g id="graph0" class="graph" transform="scale(1 1) rotate(0) translate(4 149)">
<title>pie_chains.VIEW3D_MT_PIE_Chains</title>
<!-- Node1 -->
<g id="Node000001" class="node">
<title>Node1</title>
<g id="a_Node000001"><a xlink:title=" ">
<polygon fill="#999999" stroke="transparent" points="125,-60 0,-60 0,0 125,0 125,-60"/>
<text text-anchor="start" x="5.5" y="-48" font-family="Helvetica,sans-Serif" font-size="10.00">pie_chains.VIEW3D_MT</text>
<text text-anchor="start" x="33.5" y="-37" font-family="Helvetica,sans-Serif" font-size="10.00">_PIE_Chains</text>
<text text-anchor="start" x="20.5" y="-22" font-family="Helvetica,sans-Serif" font-size="10.00">+</text>
<text text-anchor="start" x="49.5" y="-22" font-family="Helvetica,sans-Serif" font-size="10.00">bl_label</text>
<text text-anchor="start" x="20.5" y="-7" font-family="Helvetica,sans-Serif" font-size="10.00">+</text>
<text text-anchor="start" x="49.5" y="-7" font-family="Helvetica,sans-Serif" font-size="10.00">draw()</text>
<polygon fill="#666666" stroke="#666666" points="0.5,-32 0.5,-32 125.5,-32 125.5,-32 0.5,-32"/>
<polygon fill="#666666" stroke="#666666" points="0.5,-17 0.5,-17 47.5,-17 47.5,-17 0.5,-17"/>
<polygon fill="#666666" stroke="#666666" points="47.5,-17 47.5,-17 125.5,-17 125.5,-17 47.5,-17"/>
<polygon fill="none" stroke="#666666" points="0,0 0,-60 125,-60 125,0 0,0"/>
</a>
</g>
</g>
<!-- Node2 -->
<g id="Node000002" class="node">
<title>Node2</title>
<g id="a_Node000002"><a xlink:title=" ">
<polygon fill="white" stroke="transparent" points="81.5,-145 43.5,-145 43.5,-96 81.5,-96 81.5,-145"/>
<text text-anchor="start" x="48.5" y="-132.5" font-family="Helvetica,sans-Serif" font-size="10.00">Menu</text>
<text text-anchor="start" x="60.5" y="-117.5" font-family="Helvetica,sans-Serif" font-size="10.00"> </text>
<text text-anchor="start" x="60.5" y="-102.5" font-family="Helvetica,sans-Serif" font-size="10.00"> </text>
<polygon fill="#666666" stroke="#666666" points="43.5,-127.5 43.5,-127.5 81.5,-127.5 81.5,-127.5 43.5,-127.5"/>
<polygon fill="#666666" stroke="#666666" points="43.5,-112.5 43.5,-112.5 81.5,-112.5 81.5,-112.5 43.5,-112.5"/>
<polygon fill="none" stroke="#666666" points="43.5,-96 43.5,-145 81.5,-145 81.5,-96 43.5,-96"/>
</a>
</g>
</g>
<!-- Node2&#45;&gt;Node1 -->
<g id="edge1_Node000001_Node000002" class="edge">
<title>Node2&#45;&gt;Node1</title>
<g id="a_edge1_Node000001_Node000002"><a xlink:title=" ">
<path fill="none" stroke="#63b8ff" d="M62.5,-85.55C62.5,-77.18 62.5,-68.28 62.5,-60.16"/>
<polygon fill="none" stroke="#63b8ff" points="59,-85.78 62.5,-95.78 66,-85.78 59,-85.78"/>
</a>
</g>
</g>
</g>
</svg>
