<?xml version="1.0" encoding="UTF-8" standalone="no"?>
<!DOCTYPE svg PUBLIC "-//W3C//DTD SVG 1.1//EN"
 "http://www.w3.org/Graphics/SVG/1.1/DTD/svg11.dtd">
<!-- Generated by graphviz version 2.43.0 (0)
 -->
<!-- Title: cam.nc.makerbotHBP.CreatorMakerbotHBP.build_bed_temp Pages: 1 -->
<svg width="1250pt" height="487pt"
 viewBox="0.00 0.00 1250.00 486.50" xmlns="http://www.w3.org/2000/svg" xmlns:xlink="http://www.w3.org/1999/xlink">
<g id="graph0" class="graph" transform="scale(1 1) rotate(0) translate(4 482.5)">
<title>cam.nc.makerbotHBP.CreatorMakerbotHBP.build_bed_temp</title>
<!-- Node1 -->
<g id="Node000001" class="node">
<title>Node1</title>
<g id="a_Node000001"><a xlink:title="Build Environment Control.">
<polygon fill="#999999" stroke="#666666" points="162,-291 0,-291 0,-261 162,-261 162,-291"/>
<text text-anchor="start" x="8" y="-279" font-family="Helvetica,sans-Serif" font-size="10.00">cam.nc.makerbotHBP.Creator</text>
<text text-anchor="middle" x="81" y="-268" font-family="Helvetica,sans-Serif" font-size="10.00">MakerbotHBP.build_bed_temp</text>
</a>
</g>
</g>
<!-- Node2 -->
<g id="Node000002" class="node">
<title>Node2</title>
<g id="a_Node000002"><a xlink:href="classcam_1_1nc_1_1cad__nc__read_1_1Parser.html#adcf2f47949df29f187f27fe985884633" target="_top" xlink:title=" ">
<polygon fill="white" stroke="#666666" points="385.5,-460.5 209.5,-460.5 209.5,-441.5 385.5,-441.5 385.5,-460.5"/>
<text text-anchor="middle" x="297.5" y="-448.5" font-family="Helvetica,sans-Serif" font-size="10.00">cam.nc.cad_nc_read.Parser.write</text>
</a>
</g>
</g>
<!-- Node1&#45;&gt;Node2 -->
<g id="edge1_Node000001_Node000002" class="edge">
<title>Node1&#45;&gt;Node2</title>
<g id="a_edge1_Node000001_Node000002"><a xlink:title=" ">
<path fill="none" stroke="#63b8ff" d="M88.4,-291.06C102.81,-322.99 141.06,-397.49 198,-433 200.64,-434.65 203.4,-436.15 206.24,-437.53"/>
<polygon fill="#63b8ff" stroke="#63b8ff" points="204.99,-440.8 215.56,-441.49 207.73,-434.36 204.99,-440.8"/>
</a>
</g>
</g>
<!-- Node3 -->
<g id="Node000003" class="node">
<title>Node3</title>
<g id="a_Node000003"><a xlink:href="classcam_1_1nc_1_1hxml__writer_1_1HxmlWriter.html#aed6f93c98cb8c0e3f3e826e75b6d6f15" target="_top" xlink:title=" ">
<polygon fill="white" stroke="#666666" points="397,-405.5 198,-405.5 198,-386.5 397,-386.5 397,-405.5"/>
<text text-anchor="middle" x="297.5" y="-393.5" font-family="Helvetica,sans-Serif" font-size="10.00">cam.nc.hxml_writer.HxmlWriter.write</text>
</a>
</g>
</g>
<!-- Node1&#45;&gt;Node3 -->
<g id="edge3_Node000001_Node000003" class="edge">
<title>Node1&#45;&gt;Node3</title>
<g id="a_edge3_Node000001_Node000003"><a xlink:title=" ">
<path fill="none" stroke="#63b8ff" d="M94.46,-291.31C113.97,-314.15 154.07,-356.73 198,-378 202.12,-379.99 206.43,-381.77 210.85,-383.34"/>
<polygon fill="#63b8ff" stroke="#63b8ff" points="210.08,-386.77 220.67,-386.5 212.22,-380.11 210.08,-386.77"/>
</a>
</g>
</g>
<!-- Node4 -->
<g id="Node000004" class="node">
<title>Node4</title>
<g id="a_Node000004"><a xlink:href="classcam_1_1nc_1_1iso_1_1Creator.html#abb81af5a0bdddfed387b71b68a51cc7a" target="_top" xlink:title="Internals.">
<polygon fill="white" stroke="#666666" points="365,-368.5 230,-368.5 230,-349.5 365,-349.5 365,-368.5"/>
<text text-anchor="middle" x="297.5" y="-356.5" font-family="Helvetica,sans-Serif" font-size="10.00">cam.nc.iso.Creator.write</text>
</a>
</g>
</g>
<!-- Node1&#45;&gt;Node4 -->
<g id="edge5_Node000001_Node000004" class="edge">
<title>Node1&#45;&gt;Node4</title>
<g id="a_edge5_Node000001_Node000004"><a xlink:title=" ">
<path fill="none" stroke="#63b8ff" d="M103.62,-291.01C126.17,-305.94 163.03,-328.4 198,-341 204.99,-343.52 212.4,-345.7 219.88,-347.58"/>
<polygon fill="#63b8ff" stroke="#63b8ff" points="219.21,-351.02 229.74,-349.89 220.8,-344.2 219.21,-351.02"/>
</a>
</g>
</g>
<!-- Node5 -->
<g id="Node000005" class="node">
<title>Node5</title>
<g id="a_Node000005"><a xlink:href="classcam_1_1nc_1_1nc_1_1Creator.html#a80f2134add83bfaaf2870d075d36ed8a" target="_top" xlink:title=" ">
<polygon fill="white" stroke="#666666" points="363.5,-313.5 231.5,-313.5 231.5,-294.5 363.5,-294.5 363.5,-313.5"/>
<text text-anchor="middle" x="297.5" y="-301.5" font-family="Helvetica,sans-Serif" font-size="10.00">cam.nc.nc.Creator.write</text>
</a>
</g>
</g>
<!-- Node1&#45;&gt;Node5 -->
<g id="edge6_Node000001_Node000005" class="edge">
<title>Node1&#45;&gt;Node5</title>
<g id="a_edge6_Node000001_Node000005"><a xlink:title=" ">
<path fill="none" stroke="#63b8ff" d="M162.18,-286.47C181.54,-288.99 202.17,-291.69 221.3,-294.18"/>
<polygon fill="#63b8ff" stroke="#63b8ff" points="221.08,-297.68 231.45,-295.51 221.99,-290.74 221.08,-297.68"/>
</a>
</g>
</g>
<!-- Node6 -->
<g id="Node000006" class="node">
<title>Node6</title>
<g id="a_Node000006"><a xlink:href="classcam_1_1nc_1_1nclathe__read_1_1Parser.html#ab5ea283b461b57e48c8d5b0ad0a45694" target="_top" xlink:title=" ">
<polygon fill="white" stroke="#666666" points="386.5,-258.5 208.5,-258.5 208.5,-239.5 386.5,-239.5 386.5,-258.5"/>
<text text-anchor="middle" x="297.5" y="-246.5" font-family="Helvetica,sans-Serif" font-size="10.00">cam.nc.nclathe_read.Parser.write</text>
</a>
</g>
</g>
<!-- Node1&#45;&gt;Node6 -->
<g id="edge8_Node000001_Node000006" class="edge">
<title>Node1&#45;&gt;Node6</title>
<g id="a_edge8_Node000001_Node000006"><a xlink:title=" ">
<path fill="none" stroke="#63b8ff" d="M162.18,-265.91C177.89,-263.93 194.44,-261.85 210.34,-259.85"/>
<polygon fill="#63b8ff" stroke="#63b8ff" points="211.2,-263.27 220.68,-258.54 210.32,-256.32 211.2,-263.27"/>
</a>
</g>
</g>
<!-- Node7 -->
<g id="Node000007" class="node">
<title>Node7</title>
<g id="a_Node000007"><a xlink:href="classcam_1_1nc_1_1recreator_1_1Redirector.html#a79cc974683588db3ef959189e7552c0d" target="_top" xlink:title="Programs.">
<polygon fill="white" stroke="#666666" points="387,-203.5 208,-203.5 208,-184.5 387,-184.5 387,-203.5"/>
<text text-anchor="middle" x="297.5" y="-191.5" font-family="Helvetica,sans-Serif" font-size="10.00">cam.nc.recreator.Redirector.write</text>
</a>
</g>
</g>
<!-- Node1&#45;&gt;Node7 -->
<g id="edge10_Node000001_Node000007" class="edge">
<title>Node1&#45;&gt;Node7</title>
<g id="a_edge10_Node000001_Node000007"><a xlink:title=" ">
<path fill="none" stroke="#63b8ff" d="M120.36,-261C142.94,-252.2 172.07,-240.9 198,-231 219.07,-222.96 242.73,-214.06 261.58,-207.01"/>
<polygon fill="#63b8ff" stroke="#63b8ff" points="262.82,-210.29 270.96,-203.51 260.37,-203.73 262.82,-210.29"/>
</a>
</g>
</g>
<!-- Node8 -->
<g id="Node000008" class="node">
<title>Node8</title>
<g id="a_Node000008"><a xlink:href="classcam_1_1nc_1_1format_1_1Address.html#aa21f0ffeb829537d9103759276c01a4b" target="_top" xlink:title=" ">
<polygon fill="white" stroke="#666666" points="376.5,-166.5 218.5,-166.5 218.5,-147.5 376.5,-147.5 376.5,-166.5"/>
<text text-anchor="middle" x="297.5" y="-154.5" font-family="Helvetica,sans-Serif" font-size="10.00">cam.nc.format.Address.write</text>
</a>
</g>
</g>
<!-- Node1&#45;&gt;Node8 -->
<g id="edge12_Node000001_Node000008" class="edge">
<title>Node1&#45;&gt;Node8</title>
<g id="a_edge12_Node000001_Node000008"><a xlink:title=" ">
<path fill="none" stroke="#63b8ff" d="M94.88,-260.68C114.63,-238.28 154.69,-196.98 198,-176 203.05,-173.56 208.38,-171.43 213.85,-169.57"/>
<polygon fill="#63b8ff" stroke="#63b8ff" points="215.27,-172.8 223.81,-166.52 213.22,-166.1 215.27,-172.8"/>
</a>
</g>
</g>
<!-- Node19 -->
<g id="Node000019" class="node">
<title>Node19</title>
<g id="a_Node000019"><a xlink:href="classcam_1_1nc_1_1format_1_1AddressPlusMinus.html#aaacea4c7b677f0a602dbc9023ff365d2" target="_top" xlink:title=" ">
<polygon fill="white" stroke="#666666" points="372.5,-129 222.5,-129 222.5,-99 372.5,-99 372.5,-129"/>
<text text-anchor="start" x="230.5" y="-117" font-family="Helvetica,sans-Serif" font-size="10.00">cam.nc.format.AddressPlus</text>
<text text-anchor="middle" x="297.5" y="-106" font-family="Helvetica,sans-Serif" font-size="10.00">Minus.write</text>
</a>
</g>
</g>
<!-- Node1&#45;&gt;Node19 -->
<g id="edge25_Node000001_Node000019" class="edge">
<title>Node1&#45;&gt;Node19</title>
<g id="a_edge25_Node000001_Node000019"><a xlink:title=" ">
<path fill="none" stroke="#63b8ff" d="M90.29,-260.83C106.81,-232.11 146.67,-169.85 198,-138 202.67,-135.1 207.67,-132.55 212.85,-130.31"/>
<polygon fill="#63b8ff" stroke="#63b8ff" points="214.29,-133.5 222.33,-126.6 211.74,-126.98 214.29,-133.5"/>
</a>
</g>
</g>
<!-- Node2&#45;&gt;Node2 -->
<g id="edge2_Node000002_Node000002" class="edge">
<title>Node2&#45;&gt;Node2</title>
<g id="a_edge2_Node000002_Node000002"><a xlink:title=" ">
<path fill="none" stroke="#63b8ff" d="M264.21,-460.58C248.01,-469.23 259.11,-478.5 297.5,-478.5 325.09,-478.5 338.59,-473.71 337.98,-467.81"/>
<polygon fill="#63b8ff" stroke="#63b8ff" points="340.33,-465.2 330.79,-460.58 335.36,-470.14 340.33,-465.2"/>
</a>
</g>
</g>
<!-- Node3&#45;&gt;Node3 -->
<g id="edge4_Node000003_Node000003" class="edge">
<title>Node3&#45;&gt;Node3</title>
<g id="a_edge4_Node000003_Node000003"><a xlink:title=" ">
<path fill="none" stroke="#63b8ff" d="M264.21,-405.58C248.01,-414.23 259.11,-423.5 297.5,-423.5 325.09,-423.5 338.59,-418.71 337.98,-412.81"/>
<polygon fill="#63b8ff" stroke="#63b8ff" points="340.33,-410.2 330.79,-405.58 335.36,-415.14 340.33,-410.2"/>
</a>
</g>
</g>
<!-- Node5&#45;&gt;Node5 -->
<g id="edge7_Node000005_Node000005" class="edge">
<title>Node5&#45;&gt;Node5</title>
<g id="a_edge7_Node000005_Node000005"><a xlink:title=" ">
<path fill="none" stroke="#63b8ff" d="M264.21,-313.58C248.01,-322.23 259.11,-331.5 297.5,-331.5 325.09,-331.5 338.59,-326.71 337.98,-320.81"/>
<polygon fill="#63b8ff" stroke="#63b8ff" points="340.33,-318.2 330.79,-313.58 335.36,-323.14 340.33,-318.2"/>
</a>
</g>
</g>
<!-- Node6&#45;&gt;Node6 -->
<g id="edge9_Node000006_Node000006" class="edge">
<title>Node6&#45;&gt;Node6</title>
<g id="a_edge9_Node000006_Node000006"><a xlink:title=" ">
<path fill="none" stroke="#63b8ff" d="M264.21,-258.58C248.01,-267.23 259.11,-276.5 297.5,-276.5 325.09,-276.5 338.59,-271.71 337.98,-265.81"/>
<polygon fill="#63b8ff" stroke="#63b8ff" points="340.33,-263.2 330.79,-258.58 335.36,-268.14 340.33,-263.2"/>
</a>
</g>
</g>
<!-- Node7&#45;&gt;Node7 -->
<g id="edge11_Node000007_Node000007" class="edge">
<title>Node7&#45;&gt;Node7</title>
<g id="a_edge11_Node000007_Node000007"><a xlink:title=" ">
<path fill="none" stroke="#63b8ff" d="M264.21,-203.58C248.01,-212.23 259.11,-221.5 297.5,-221.5 325.09,-221.5 338.59,-216.71 337.98,-210.81"/>
<polygon fill="#63b8ff" stroke="#63b8ff" points="340.33,-208.2 330.79,-203.58 335.36,-213.14 340.33,-208.2"/>
</a>
</g>
</g>
<!-- Node9 -->
<g id="Node000009" class="node">
<title>Node9</title>
<g id="a_Node000009"><a xlink:href="classcam_1_1async__op_1_1AsyncOperatorMixin.html#a9628cbca8e69ec75b2337171a02bf428" target="_top" xlink:title=" ">
<polygon fill="white" stroke="#666666" points="594,-150 433,-150 433,-120 594,-120 594,-150"/>
<text text-anchor="start" x="441" y="-138" font-family="Helvetica,sans-Serif" font-size="10.00">cam.async_op.AsyncOperator</text>
<text text-anchor="middle" x="513.5" y="-127" font-family="Helvetica,sans-Serif" font-size="10.00">Mixin.modal</text>
</a>
</g>
</g>
<!-- Node8&#45;&gt;Node9 -->
<g id="edge13_Node000008_Node000009" class="edge">
<title>Node8&#45;&gt;Node9</title>
<g id="a_edge13_Node000008_Node000009"><a xlink:title=" ">
<path fill="none" stroke="#63b8ff" d="M376.67,-148.96C391.65,-147.42 407.45,-145.8 422.77,-144.22"/>
<polygon fill="#63b8ff" stroke="#63b8ff" points="423.16,-147.7 432.75,-143.2 422.45,-140.74 423.16,-147.7"/>
</a>
</g>
</g>
<!-- Node10 -->
<g id="Node000010" class="node">
<title>Node10</title>
<g id="a_Node000010"><a xlink:href="classcam_1_1async__op_1_1AsyncOperatorMixin.html#a15a51cfd69d8e453e2e3d64386b1ebe3" target="_top" xlink:title=" ">
<polygon fill="white" stroke="#666666" points="791,-150 630,-150 630,-120 791,-120 791,-150"/>
<text text-anchor="start" x="638" y="-138" font-family="Helvetica,sans-Serif" font-size="10.00">cam.async_op.AsyncOperator</text>
<text text-anchor="middle" x="710.5" y="-127" font-family="Helvetica,sans-Serif" font-size="10.00">Mixin.tick</text>
</a>
</g>
</g>
<!-- Node9&#45;&gt;Node10 -->
<g id="edge14_Node000009_Node000010" class="edge">
<title>Node9&#45;&gt;Node10</title>
<g id="a_edge14_Node000009_Node000010"><a xlink:title=" ">
<path fill="none" stroke="#63b8ff" d="M594.1,-135C602.57,-135 611.24,-135 619.82,-135"/>
<polygon fill="#63b8ff" stroke="#63b8ff" points="619.84,-138.5 629.84,-135 619.84,-131.5 619.84,-138.5"/>
</a>
</g>
</g>
<!-- Node11 -->
<g id="Node000011" class="node">
<title>Node11</title>
<g id="a_Node000011"><a xlink:href="classcam_1_1async__op_1_1AsyncTestOperator.html#a42606ca890a957aa7070a4bc6f25228b" target="_top" xlink:title=" ">
<polygon fill="white" stroke="#666666" points="1048,-270 827,-270 827,-240 1048,-240 1048,-270"/>
<text text-anchor="start" x="835" y="-258" font-family="Helvetica,sans-Serif" font-size="10.00">cam.async_op.AsyncTestOperator.execute</text>
<text text-anchor="middle" x="937.5" y="-247" font-family="Helvetica,sans-Serif" font-size="10.00">_async</text>
</a>
</g>
</g>
<!-- Node10&#45;&gt;Node11 -->
<g id="edge15_Node000010_Node000011" class="edge">
<title>Node10&#45;&gt;Node11</title>
<g id="a_edge15_Node000010_Node000011"><a xlink:title=" ">
<path fill="none" stroke="#63b8ff" d="M725.18,-150.27C745.31,-171.74 785.07,-210.51 827,-231 831.09,-233 835.35,-234.84 839.72,-236.52"/>
<polygon fill="#63b8ff" stroke="#63b8ff" points="838.81,-239.91 849.41,-239.97 841.16,-233.32 838.81,-239.91"/>
</a>
</g>
</g>
<!-- Node12 -->
<g id="Node000012" class="node">
<title>Node12</title>
<g id="a_Node000012"><a xlink:href="classcam_1_1ops_1_1CalculatePath.html#a13dfe2f8578383234e74e58e2f292e1b" target="_top" xlink:title=" ">
<polygon fill="white" stroke="#666666" points="1022,-222 853,-222 853,-192 1022,-192 1022,-222"/>
<text text-anchor="start" x="861" y="-210" font-family="Helvetica,sans-Serif" font-size="10.00">cam.ops.CalculatePath.execute</text>
<text text-anchor="middle" x="937.5" y="-199" font-family="Helvetica,sans-Serif" font-size="10.00">_async</text>
</a>
</g>
</g>
<!-- Node10&#45;&gt;Node12 -->
<g id="edge16_Node000010_Node000012" class="edge">
<title>Node10&#45;&gt;Node12</title>
<g id="a_edge16_Node000010_Node000012"><a xlink:title=" ">
<path fill="none" stroke="#63b8ff" d="M743.29,-150.01C766.18,-160.38 798,-173.88 827,-183 834.31,-185.3 841.96,-187.46 849.68,-189.47"/>
<polygon fill="#63b8ff" stroke="#63b8ff" points="848.91,-192.89 859.46,-191.93 850.62,-186.1 848.91,-192.89"/>
</a>
</g>
</g>
<!-- Node14 -->
<g id="Node000014" class="node">
<title>Node14</title>
<g id="a_Node000014"><a xlink:href="classcam_1_1ops_1_1PathsChain.html#a6fc64e383ccf724b2325e18a82d53eae" target="_top" xlink:title=" ">
<polygon fill="white" stroke="#666666" points="1015.5,-174 859.5,-174 859.5,-144 1015.5,-144 1015.5,-174"/>
<text text-anchor="start" x="867.5" y="-162" font-family="Helvetica,sans-Serif" font-size="10.00">cam.ops.PathsChain.execute</text>
<text text-anchor="middle" x="937.5" y="-151" font-family="Helvetica,sans-Serif" font-size="10.00">_async</text>
</a>
</g>
</g>
<!-- Node10&#45;&gt;Node14 -->
<g id="edge18_Node000010_Node000014" class="edge">
<title>Node10&#45;&gt;Node14</title>
<g id="a_edge18_Node000010_Node000014"><a xlink:title=" ">
<path fill="none" stroke="#63b8ff" d="M791.14,-143.5C809.9,-145.5 829.98,-147.64 849.06,-149.67"/>
<polygon fill="#63b8ff" stroke="#63b8ff" points="848.92,-153.18 859.23,-150.76 849.66,-146.22 848.92,-153.18"/>
</a>
</g>
</g>
<!-- Node16 -->
<g id="Node000016" class="node">
<title>Node16</title>
<g id="a_Node000016"><a xlink:href="classcam_1_1ops_1_1CAMSimulate.html#a633151f17849d281fd52ce82c00356a7" target="_top" xlink:title=" ">
<polygon fill="white" stroke="#666666" points="1021.5,-126 853.5,-126 853.5,-96 1021.5,-96 1021.5,-126"/>
<text text-anchor="start" x="861.5" y="-114" font-family="Helvetica,sans-Serif" font-size="10.00">cam.ops.CAMSimulate.execute</text>
<text text-anchor="middle" x="937.5" y="-103" font-family="Helvetica,sans-Serif" font-size="10.00">_async</text>
</a>
</g>
</g>
<!-- Node10&#45;&gt;Node16 -->
<g id="edge21_Node000010_Node000016" class="edge">
<title>Node10&#45;&gt;Node16</title>
<g id="a_edge21_Node000010_Node000016"><a xlink:title=" ">
<path fill="none" stroke="#63b8ff" d="M791.14,-126.5C807.95,-124.71 825.82,-122.81 843.08,-120.97"/>
<polygon fill="#63b8ff" stroke="#63b8ff" points="843.58,-124.43 853.15,-119.89 842.84,-117.47 843.58,-124.43"/>
</a>
</g>
</g>
<!-- Node17 -->
<g id="Node000017" class="node">
<title>Node17</title>
<g id="a_Node000017"><a xlink:href="classcam_1_1ops_1_1CAMSimulateChain.html#a1e77c7ce21b3b7e3e38a12b6b62517e9" target="_top" xlink:title=" ">
<polygon fill="white" stroke="#666666" points="1035.5,-78 839.5,-78 839.5,-48 1035.5,-48 1035.5,-78"/>
<text text-anchor="start" x="847.5" y="-66" font-family="Helvetica,sans-Serif" font-size="10.00">cam.ops.CAMSimulateChain.execute</text>
<text text-anchor="middle" x="937.5" y="-55" font-family="Helvetica,sans-Serif" font-size="10.00">_async</text>
</a>
</g>
</g>
<!-- Node10&#45;&gt;Node17 -->
<g id="edge22_Node000010_Node000017" class="edge">
<title>Node10&#45;&gt;Node17</title>
<g id="a_edge22_Node000010_Node000017"><a xlink:title=" ">
<path fill="none" stroke="#63b8ff" d="M743.29,-119.99C766.18,-109.62 798,-96.12 827,-87 834.31,-84.7 841.96,-82.54 849.68,-80.53"/>
<polygon fill="#63b8ff" stroke="#63b8ff" points="850.62,-83.9 859.46,-78.07 848.91,-77.11 850.62,-83.9"/>
</a>
</g>
</g>
<!-- Node18 -->
<g id="Node000018" class="node">
<title>Node18</title>
<g id="a_Node000018"><a xlink:href="classcam_1_1async__op_1_1AsyncOperatorMixin.html#a2216ff6bb0dfd132f4ec4cf79b7cba2b" target="_top" xlink:title=" ">
<polygon fill="white" stroke="#666666" points="1018,-30 857,-30 857,0 1018,0 1018,-30"/>
<text text-anchor="start" x="865" y="-18" font-family="Helvetica,sans-Serif" font-size="10.00">cam.async_op.AsyncOperator</text>
<text text-anchor="middle" x="937.5" y="-7" font-family="Helvetica,sans-Serif" font-size="10.00">Mixin.show_progress</text>
</a>
</g>
</g>
<!-- Node10&#45;&gt;Node18 -->
<g id="edge24_Node000010_Node000018" class="edge">
<title>Node10&#45;&gt;Node18</title>
<g id="a_edge24_Node000010_Node000018"><a xlink:title=" ">
<path fill="none" stroke="#63b8ff" d="M725.18,-119.73C745.31,-98.26 785.07,-59.49 827,-39 833.43,-35.86 840.27,-33.12 847.28,-30.74"/>
<polygon fill="#63b8ff" stroke="#63b8ff" points="848.42,-34.05 856.91,-27.71 846.32,-27.37 848.42,-34.05"/>
</a>
</g>
</g>
<!-- Node13 -->
<g id="Node000013" class="node">
<title>Node13</title>
<g id="a_Node000013"><a xlink:href="namespacecam_1_1ops.html#aa8e95f7410a7ceb178db48f4f8c2d995" target="_top" xlink:title=" ">
<polygon fill="white" stroke="#666666" points="1219.5,-192.5 1106.5,-192.5 1106.5,-173.5 1219.5,-173.5 1219.5,-192.5"/>
<text text-anchor="middle" x="1163" y="-180.5" font-family="Helvetica,sans-Serif" font-size="10.00">cam.ops._calc_path</text>
</a>
</g>
</g>
<!-- Node12&#45;&gt;Node13 -->
<g id="edge17_Node000012_Node000013" class="edge">
<title>Node12&#45;&gt;Node13</title>
<g id="a_edge17_Node000012_Node000013"><a xlink:title=" ">
<path fill="none" stroke="#63b8ff" d="M1022.04,-198.03C1046.56,-195.4 1073.01,-192.56 1096.25,-190.06"/>
<polygon fill="#63b8ff" stroke="#63b8ff" points="1096.77,-193.52 1106.34,-188.98 1096.03,-186.56 1096.77,-193.52"/>
</a>
</g>
</g>
<!-- Node14&#45;&gt;Node13 -->
<g id="edge19_Node000014_Node000013" class="edge">
<title>Node14&#45;&gt;Node13</title>
<g id="a_edge19_Node000014_Node000013"><a xlink:title=" ">
<path fill="none" stroke="#63b8ff" d="M1015.73,-167.29C1041.9,-170.1 1070.87,-173.21 1096.08,-175.92"/>
<polygon fill="#63b8ff" stroke="#63b8ff" points="1095.95,-179.43 1106.27,-177.02 1096.7,-172.47 1095.95,-179.43"/>
</a>
</g>
</g>
<!-- Node15 -->
<g id="Node000015" class="node">
<title>Node15</title>
<g id="a_Node000015"><a xlink:href="namespacecam_1_1ops.html#ab55fb8ec9a00e021e8e4a1c3ecc97cb4" target="_top" xlink:title=" ">
<polygon fill="white" stroke="#666666" points="1242,-126.5 1084,-126.5 1084,-107.5 1242,-107.5 1242,-126.5"/>
<text text-anchor="middle" x="1163" y="-114.5" font-family="Helvetica,sans-Serif" font-size="10.00">cam.ops.getChainOperations</text>
</a>
</g>
</g>
<!-- Node14&#45;&gt;Node15 -->
<g id="edge20_Node000014_Node000015" class="edge">
<title>Node14&#45;&gt;Node15</title>
<g id="a_edge20_Node000014_Node000015"><a xlink:title=" ">
<path fill="none" stroke="#63b8ff" d="M1015.73,-144.49C1043.81,-139.21 1075.12,-133.33 1101.54,-128.36"/>
<polygon fill="#63b8ff" stroke="#63b8ff" points="1102.23,-131.79 1111.41,-126.51 1100.94,-124.91 1102.23,-131.79"/>
</a>
</g>
</g>
<!-- Node17&#45;&gt;Node15 -->
<g id="edge23_Node000017_Node000015" class="edge">
<title>Node17&#45;&gt;Node15</title>
<g id="a_edge23_Node000017_Node000015"><a xlink:title=" ">
<path fill="none" stroke="#63b8ff" d="M1009.28,-78.06C1022.19,-80.94 1035.51,-83.99 1048,-87 1070.91,-92.52 1096.28,-99.15 1117.25,-104.77"/>
<polygon fill="#63b8ff" stroke="#63b8ff" points="1116.6,-108.21 1127.17,-107.43 1118.42,-101.45 1116.6,-108.21"/>
</a>
</g>
</g>
<!-- Node19&#45;&gt;Node9 -->
<g id="edge26_Node000019_Node000009" class="edge">
<title>Node19&#45;&gt;Node9</title>
<g id="a_edge26_Node000019_Node000009"><a xlink:title=" ">
<path fill="none" stroke="#63b8ff" d="M372.75,-121.29C388.84,-122.87 406.03,-124.55 422.65,-126.18"/>
<polygon fill="#63b8ff" stroke="#63b8ff" points="422.62,-129.7 432.92,-127.19 423.3,-122.73 422.62,-129.7"/>
</a>
</g>
</g>
</g>
</svg>
