<?xml version="1.0" encoding="UTF-8" standalone="no"?>
<!DOCTYPE svg PUBLIC "-//W3C//DTD SVG 1.1//EN"
 "http://www.w3.org/Graphics/SVG/1.1/DTD/svg11.dtd">
<!-- Generated by graphviz version 2.43.0 (0)
 -->
<!-- Title: cam.nc.heiden.Creator.END_CANNED_CYCLE Pages: 1 -->
<svg width="354pt" height="86pt"
 viewBox="0.00 0.00 354.00 86.00" xmlns="http://www.w3.org/2000/svg" xmlns:xlink="http://www.w3.org/1999/xlink">
<g id="graph0" class="graph" transform="scale(1 1) rotate(0) translate(4 82)">
<title>cam.nc.heiden.Creator.END_CANNED_CYCLE</title>
<!-- Node1 -->
<g id="Node000001" class="node">
<title>Node1</title>
<g id="a_Node000001"><a xlink:title=" ">
<polygon fill="#999999" stroke="#666666" points="346,-54 196,-54 196,-24 346,-24 346,-54"/>
<text text-anchor="start" x="204" y="-42" font-family="Helvetica,sans-Serif" font-size="10.00">cam.nc.heiden.Creator.END</text>
<text text-anchor="middle" x="271" y="-31" font-family="Helvetica,sans-Serif" font-size="10.00">_CANNED_CYCLE</text>
</a>
</g>
</g>
<!-- Node2 -->
<g id="Node000002" class="node">
<title>Node2</title>
<g id="a_Node000002"><a xlink:href="classcam_1_1nc_1_1centroid1_1_1Creator.html#a55723d7e0c29bc58b08ae2b4ed9c966e" target="_top" xlink:title=" ">
<polygon fill="white" stroke="#666666" points="160,-78 0,-78 0,-48 160,-48 160,-78"/>
<text text-anchor="start" x="8" y="-66" font-family="Helvetica,sans-Serif" font-size="10.00">cam.nc.centroid1.Creator.end</text>
<text text-anchor="middle" x="80" y="-55" font-family="Helvetica,sans-Serif" font-size="10.00">_canned_cycle</text>
</a>
</g>
</g>
<!-- Node1&#45;&gt;Node2 -->
<g id="edge1_Node000001_Node000002" class="edge">
<title>Node1&#45;&gt;Node2</title>
<g id="a_edge1_Node000001_Node000002"><a xlink:title=" ">
<path fill="none" stroke="#63b8ff" d="M185.9,-49.68C177.37,-50.76 168.72,-51.86 160.24,-52.94"/>
<polygon fill="#63b8ff" stroke="#63b8ff" points="186.37,-53.15 195.84,-48.42 185.48,-46.2 186.37,-53.15"/>
</a>
</g>
</g>
<!-- Node3 -->
<g id="Node000003" class="node">
<title>Node3</title>
<g id="a_Node000003"><a xlink:href="classcam_1_1nc_1_1iso_1_1Creator.html#a8efd5882a839fbf1414b0982cd1befd0" target="_top" xlink:title=" ">
<polygon fill="white" stroke="#666666" points="144,-30 16,-30 16,0 144,0 144,-30"/>
<text text-anchor="start" x="24" y="-18" font-family="Helvetica,sans-Serif" font-size="10.00">cam.nc.iso.Creator.end</text>
<text text-anchor="middle" x="80" y="-7" font-family="Helvetica,sans-Serif" font-size="10.00">_canned_cycle</text>
</a>
</g>
</g>
<!-- Node1&#45;&gt;Node3 -->
<g id="edge2_Node000001_Node000003" class="edge">
<title>Node1&#45;&gt;Node3</title>
<g id="a_edge2_Node000001_Node000003"><a xlink:title=" ">
<path fill="none" stroke="#63b8ff" d="M185.76,-28.3C171.81,-26.53 157.56,-24.72 144.24,-23.03"/>
<polygon fill="#63b8ff" stroke="#63b8ff" points="185.48,-31.8 195.84,-29.58 186.37,-24.85 185.48,-31.8"/>
</a>
</g>
</g>
</g>
</svg>
