<?xml version="1.0" encoding="UTF-8" standalone="no"?>
<!DOCTYPE svg PUBLIC "-//W3C//DTD SVG 1.1//EN"
 "http://www.w3.org/Graphics/SVG/1.1/DTD/svg11.dtd">
<!-- Generated by graphviz version 2.43.0 (0)
 -->
<!-- Title: cam.nc.iso.Creator.POLAR_OFF Pages: 1 -->
<svg width="366pt" height="150pt"
 viewBox="0.00 0.00 366.00 149.50" xmlns="http://www.w3.org/2000/svg" xmlns:xlink="http://www.w3.org/1999/xlink">
<g id="graph0" class="graph" transform="scale(1 1) rotate(0) translate(4 145.5)">
<title>cam.nc.iso.Creator.POLAR_OFF</title>
<!-- Node1 -->
<g id="Node000001" class="node">
<title>Node1</title>
<g id="a_Node000001"><a xlink:title=" ">
<polygon fill="#999999" stroke="#666666" points="358,-74 190,-74 190,-55 358,-55 358,-74"/>
<text text-anchor="middle" x="274" y="-62" font-family="Helvetica,sans-Serif" font-size="10.00">cam.nc.iso.Creator.POLAR_OFF</text>
</a>
</g>
</g>
<!-- Node2 -->
<g id="Node000002" class="node">
<title>Node2</title>
<g id="a_Node000002"><a xlink:href="classcam_1_1nc_1_1anilam__crusader__m_1_1Creator.html#a4fc6100666add019cc30656ea2ea2085" target="_top" xlink:title=" ">
<polygon fill="white" stroke="#666666" points="145,-141.5 9,-141.5 9,-111.5 145,-111.5 145,-141.5"/>
<text text-anchor="start" x="17" y="-129.5" font-family="Helvetica,sans-Serif" font-size="10.00">cam.nc.anilam_crusader</text>
<text text-anchor="middle" x="77" y="-118.5" font-family="Helvetica,sans-Serif" font-size="10.00">_m.Creator.polar</text>
</a>
</g>
</g>
<!-- Node1&#45;&gt;Node2 -->
<g id="edge1_Node000001_Node000002" class="edge">
<title>Node1&#45;&gt;Node2</title>
<g id="a_edge1_Node000001_Node000002"><a xlink:title=" ">
<path fill="none" stroke="#63b8ff" d="M233.37,-77.19C210.23,-84.59 180.47,-94.09 154,-102.5 144.9,-105.39 135.18,-108.47 125.85,-111.42"/>
<polygon fill="#63b8ff" stroke="#63b8ff" points="234.72,-80.43 243.18,-74.05 232.59,-73.77 234.72,-80.43"/>
</a>
</g>
</g>
<!-- Node3 -->
<g id="Node000003" class="node">
<title>Node3</title>
<g id="a_Node000003"><a xlink:href="classcam_1_1nc_1_1emc2_1_1Creator.html#a722e5ed5c70739170c7ab76f123dd805" target="_top" xlink:title=" ">
<polygon fill="white" stroke="#666666" points="151,-93 3,-93 3,-74 151,-74 151,-93"/>
<text text-anchor="middle" x="77" y="-81" font-family="Helvetica,sans-Serif" font-size="10.00">cam.nc.emc2.Creator.polar</text>
</a>
</g>
</g>
<!-- Node1&#45;&gt;Node3 -->
<g id="edge2_Node000001_Node000003" class="edge">
<title>Node1&#45;&gt;Node3</title>
<g id="a_edge2_Node000001_Node000003"><a xlink:title=" ">
<path fill="none" stroke="#63b8ff" d="M179.76,-73.59C170.15,-74.52 160.48,-75.46 151.14,-76.37"/>
<polygon fill="#63b8ff" stroke="#63b8ff" points="180.12,-77.07 189.74,-72.61 179.44,-70.1 180.12,-77.07"/>
</a>
</g>
</g>
<!-- Node4 -->
<g id="Node000004" class="node">
<title>Node4</title>
<g id="a_Node000004"><a xlink:href="classcam_1_1nc_1_1heiden_1_1Creator.html#ac5ad033b4c6d8fd4ac1491750393a7ce" target="_top" xlink:title=" ">
<polygon fill="white" stroke="#666666" points="154,-56 0,-56 0,-37 154,-37 154,-56"/>
<text text-anchor="middle" x="77" y="-44" font-family="Helvetica,sans-Serif" font-size="10.00">cam.nc.heiden.Creator.polar</text>
</a>
</g>
</g>
<!-- Node1&#45;&gt;Node4 -->
<g id="edge3_Node000001_Node000004" class="edge">
<title>Node1&#45;&gt;Node4</title>
<g id="a_edge3_Node000001_Node000004"><a xlink:title=" ">
<path fill="none" stroke="#63b8ff" d="M179.73,-55.89C171.17,-55.1 162.57,-54.31 154.19,-53.53"/>
<polygon fill="#63b8ff" stroke="#63b8ff" points="179.46,-59.38 189.74,-56.81 180.1,-52.41 179.46,-59.38"/>
</a>
</g>
</g>
<!-- Node5 -->
<g id="Node000005" class="node">
<title>Node5</title>
<g id="a_Node000005"><a xlink:href="classcam_1_1nc_1_1iso_1_1Creator.html#a0a80136128b6466bdf30e894427d6bfb" target="_top" xlink:title=" ">
<polygon fill="white" stroke="#666666" points="144.5,-19 9.5,-19 9.5,0 144.5,0 144.5,-19"/>
<text text-anchor="middle" x="77" y="-7" font-family="Helvetica,sans-Serif" font-size="10.00">cam.nc.iso.Creator.polar</text>
</a>
</g>
</g>
<!-- Node1&#45;&gt;Node5 -->
<g id="edge4_Node000001_Node000005" class="edge">
<title>Node1&#45;&gt;Node5</title>
<g id="a_edge4_Node000001_Node000005"><a xlink:title=" ">
<path fill="none" stroke="#63b8ff" d="M233.03,-51.88C210,-44.74 180.46,-35.81 154,-28.5 142.33,-25.28 129.59,-22 117.93,-19.09"/>
<polygon fill="#63b8ff" stroke="#63b8ff" points="232.21,-55.29 242.79,-54.92 234.29,-48.6 232.21,-55.29"/>
</a>
</g>
</g>
</g>
</svg>
