<?xml version="1.0" encoding="UTF-8" standalone="no"?>
<!DOCTYPE svg PUBLIC "-//W3C//DTD SVG 1.1//EN"
 "http://www.w3.org/Graphics/SVG/1.1/DTD/svg11.dtd">
<!-- Generated by graphviz version 2.43.0 (0)
 -->
<!-- Title: cam.curvecamcreate.CamCurveFlatCone Pages: 1 -->
<svg width="416pt" height="219pt"
 viewBox="0.00 0.00 415.50 219.00" xmlns="http://www.w3.org/2000/svg" xmlns:xlink="http://www.w3.org/1999/xlink">
<g id="graph0" class="graph" transform="scale(1 1) rotate(0) translate(4 215)">
<title>cam.curvecamcreate.CamCurveFlatCone</title>
<!-- Node1 -->
<g id="Node000001" class="node">
<title>Node1</title>
<g id="a_Node000001"><a xlink:title=" ">
<polygon fill="#999999" stroke="transparent" points="252,-60 85,-60 85,0 252,0 252,-60"/>
<text text-anchor="start" x="90.5" y="-48" font-family="Helvetica,sans-Serif" font-size="10.00">cam.curvecamcreate.CamCurve</text>
<text text-anchor="start" x="147" y="-37" font-family="Helvetica,sans-Serif" font-size="10.00">FlatCone</text>
<text text-anchor="start" x="167" y="-22" font-family="Helvetica,sans-Serif" font-size="10.00"> </text>
<text text-anchor="start" x="114.5" y="-7" font-family="Helvetica,sans-Serif" font-size="10.00">+</text>
<text text-anchor="start" x="152.5" y="-7" font-family="Helvetica,sans-Serif" font-size="10.00">execute()</text>
<polygon fill="#666666" stroke="#666666" points="85.5,-32 85.5,-32 252.5,-32 252.5,-32 85.5,-32"/>
<polygon fill="#666666" stroke="#666666" points="85.5,-17 85.5,-17 252.5,-17 252.5,-17 85.5,-17"/>
<polygon fill="none" stroke="#666666" points="85,0 85,-60 252,-60 252,0 85,0"/>
</a>
</g>
</g>
<!-- Node2 -->
<g id="Node000002" class="node">
<title>Node2</title>
<g id="a_Node000002"><a xlink:title=" ">
<polygon fill="white" stroke="transparent" points="53,-211 0,-211 0,-162 53,-162 53,-211"/>
<text text-anchor="start" x="5.5" y="-198.5" font-family="Helvetica,sans-Serif" font-size="10.00">Operator</text>
<text text-anchor="start" x="25" y="-183.5" font-family="Helvetica,sans-Serif" font-size="10.00"> </text>
<text text-anchor="start" x="25" y="-168.5" font-family="Helvetica,sans-Serif" font-size="10.00"> </text>
<polygon fill="#666666" stroke="#666666" points="0.5,-193.5 0.5,-193.5 53.5,-193.5 53.5,-193.5 0.5,-193.5"/>
<polygon fill="#666666" stroke="#666666" points="0.5,-178.5 0.5,-178.5 53.5,-178.5 53.5,-178.5 0.5,-178.5"/>
<polygon fill="none" stroke="#666666" points="0,-162 0,-211 53,-211 53,-162 0,-162"/>
</a>
</g>
</g>
<!-- Node2&#45;&gt;Node1 -->
<g id="edge1_Node000001_Node000002" class="edge">
<title>Node2&#45;&gt;Node1</title>
<g id="a_edge1_Node000001_Node000002"><a xlink:title=" ">
<path fill="none" stroke="#63b8ff" d="M36.73,-152.27C45.19,-129.18 59.15,-98.92 79.5,-78 85.96,-71.36 93.55,-65.46 101.54,-60.27"/>
<polygon fill="none" stroke="#63b8ff" points="33.33,-151.4 33.33,-162 39.93,-153.71 33.33,-151.4"/>
</a>
</g>
</g>
<!-- Node3 -->
<g id="Node000003" class="node">
<title>Node3</title>
<g id="a_Node000003"><a xlink:title=" ">
<polygon fill="white" stroke="transparent" points="94,-211 71,-211 71,-162 94,-162 94,-211"/>
<text text-anchor="start" x="76.5" y="-198.5" font-family="Helvetica,sans-Serif" font-size="10.00">str</text>
<text text-anchor="start" x="81" y="-183.5" font-family="Helvetica,sans-Serif" font-size="10.00"> </text>
<text text-anchor="start" x="81" y="-168.5" font-family="Helvetica,sans-Serif" font-size="10.00"> </text>
<polygon fill="#666666" stroke="#666666" points="71.5,-193.5 71.5,-193.5 94.5,-193.5 94.5,-193.5 71.5,-193.5"/>
<polygon fill="#666666" stroke="#666666" points="71.5,-178.5 71.5,-178.5 94.5,-178.5 94.5,-178.5 71.5,-178.5"/>
<polygon fill="none" stroke="#666666" points="71,-162 71,-211 94,-211 94,-162 71,-162"/>
</a>
</g>
</g>
<!-- Node3&#45;&gt;Node1 -->
<g id="edge2_Node000001_Node000003" class="edge">
<title>Node3&#45;&gt;Node1</title>
<g id="a_edge2_Node000001_Node000003"><a xlink:title=" ">
<path fill="none" stroke="#63b8ff" d="M81.65,-161.84C81.91,-138.73 85.31,-103.42 101.5,-78 103.53,-74.81 105.87,-71.77 108.42,-68.89"/>
<polygon fill="none" stroke="#63b8ff" points="108.66,-68.65 110.13,-61.59 117.21,-60.23 115.74,-67.29 108.66,-68.65"/>
</a>
</g>
<text text-anchor="middle" x="133" y="-114" font-family="Helvetica,sans-Serif" font-size="10.00" fill="grey"> +bl_idname</text>
<text text-anchor="middle" x="133" y="-103" font-family="Helvetica,sans-Serif" font-size="10.00" fill="grey">+bl_label</text>
</g>
<!-- Node4 -->
<g id="Node000004" class="node">
<title>Node4</title>
<g id="a_Node000004"><a xlink:title=" ">
<polygon fill="white" stroke="transparent" points="183,-211 154,-211 154,-162 183,-162 183,-211"/>
<text text-anchor="start" x="159.5" y="-198.5" font-family="Helvetica,sans-Serif" font-size="10.00">dict</text>
<text text-anchor="start" x="167" y="-183.5" font-family="Helvetica,sans-Serif" font-size="10.00"> </text>
<text text-anchor="start" x="167" y="-168.5" font-family="Helvetica,sans-Serif" font-size="10.00"> </text>
<polygon fill="#666666" stroke="#666666" points="154.5,-193.5 154.5,-193.5 183.5,-193.5 183.5,-193.5 154.5,-193.5"/>
<polygon fill="#666666" stroke="#666666" points="154.5,-178.5 154.5,-178.5 183.5,-178.5 183.5,-178.5 154.5,-178.5"/>
<polygon fill="none" stroke="#666666" points="154,-162 154,-211 183,-211 183,-162 154,-162"/>
</a>
</g>
</g>
<!-- Node4&#45;&gt;Node1 -->
<g id="edge3_Node000001_Node000004" class="edge">
<title>Node4&#45;&gt;Node1</title>
<g id="a_edge3_Node000001_Node000004"><a xlink:title=" ">
<path fill="none" stroke="#63b8ff" d="M168.5,-161.7C168.5,-137.88 168.5,-100.77 168.5,-72.17"/>
<polygon fill="none" stroke="#63b8ff" points="168.5,-72.1 164.5,-66.1 168.5,-60.1 172.5,-66.1 168.5,-72.1"/>
</a>
</g>
<text text-anchor="middle" x="199.5" y="-108.5" font-family="Helvetica,sans-Serif" font-size="10.00" fill="grey"> +bl_options</text>
</g>
<!-- Node5 -->
<g id="Node000005" class="node">
<title>Node5</title>
<g id="a_Node000005"><a xlink:title=" ">
<polygon fill="white" stroke="transparent" points="292,-211 215,-211 215,-162 292,-162 292,-211"/>
<text text-anchor="start" x="220.5" y="-198.5" font-family="Helvetica,sans-Serif" font-size="10.00">FloatProperty</text>
<text text-anchor="start" x="252" y="-183.5" font-family="Helvetica,sans-Serif" font-size="10.00"> </text>
<text text-anchor="start" x="252" y="-168.5" font-family="Helvetica,sans-Serif" font-size="10.00"> </text>
<polygon fill="#666666" stroke="#666666" points="215.5,-193.5 215.5,-193.5 292.5,-193.5 292.5,-193.5 215.5,-193.5"/>
<polygon fill="#666666" stroke="#666666" points="215.5,-178.5 215.5,-178.5 292.5,-178.5 292.5,-178.5 215.5,-178.5"/>
<polygon fill="none" stroke="#666666" points="215,-162 215,-211 292,-211 292,-162 215,-162"/>
</a>
</g>
</g>
<!-- Node5&#45;&gt;Node1 -->
<g id="edge4_Node000001_Node000005" class="edge">
<title>Node5&#45;&gt;Node1</title>
<g id="a_edge4_Node000001_Node000005"><a xlink:title=" ">
<path fill="none" stroke="#63b8ff" d="M253.41,-161.91C252.29,-138.84 247.74,-103.57 231.5,-78 229.48,-74.82 227.16,-71.78 224.64,-68.88"/>
<polygon fill="none" stroke="#63b8ff" points="224.42,-68.66 217.35,-67.22 215.96,-60.15 223.03,-61.59 224.42,-68.66"/>
</a>
</g>
<text text-anchor="middle" x="286" y="-136" font-family="Helvetica,sans-Serif" font-size="10.00" fill="grey"> +height</text>
<text text-anchor="middle" x="286" y="-125" font-family="Helvetica,sans-Serif" font-size="10.00" fill="grey">+intake</text>
<text text-anchor="middle" x="286" y="-114" font-family="Helvetica,sans-Serif" font-size="10.00" fill="grey">+intake_skew</text>
<text text-anchor="middle" x="286" y="-103" font-family="Helvetica,sans-Serif" font-size="10.00" fill="grey">+large_d</text>
<text text-anchor="middle" x="286" y="-92" font-family="Helvetica,sans-Serif" font-size="10.00" fill="grey">+small_d</text>
<text text-anchor="middle" x="286" y="-81" font-family="Helvetica,sans-Serif" font-size="10.00" fill="grey">+tab</text>
</g>
<!-- Node6 -->
<g id="Node000006" class="node">
<title>Node6</title>
<g id="a_Node000006"><a xlink:title=" ">
<polygon fill="white" stroke="transparent" points="378,-211 313,-211 313,-162 378,-162 378,-211"/>
<text text-anchor="start" x="318.5" y="-198.5" font-family="Helvetica,sans-Serif" font-size="10.00">IntProperty</text>
<text text-anchor="start" x="344" y="-183.5" font-family="Helvetica,sans-Serif" font-size="10.00"> </text>
<text text-anchor="start" x="344" y="-168.5" font-family="Helvetica,sans-Serif" font-size="10.00"> </text>
<polygon fill="#666666" stroke="#666666" points="313.5,-193.5 313.5,-193.5 378.5,-193.5 378.5,-193.5 313.5,-193.5"/>
<polygon fill="#666666" stroke="#666666" points="313.5,-178.5 313.5,-178.5 378.5,-178.5 378.5,-178.5 313.5,-178.5"/>
<polygon fill="none" stroke="#666666" points="313,-162 313,-211 378,-211 378,-162 313,-162"/>
</a>
</g>
</g>
<!-- Node6&#45;&gt;Node1 -->
<g id="edge5_Node000001_Node000006" class="edge">
<title>Node6&#45;&gt;Node1</title>
<g id="a_edge5_Node000001_Node000006"><a xlink:title=" ">
<path fill="none" stroke="#63b8ff" d="M347.19,-161.89C347.58,-137.8 344.29,-100.81 323.5,-78 307.85,-60.83 286.17,-49.85 263.97,-42.85"/>
<polygon fill="none" stroke="#63b8ff" points="263.88,-42.83 257.02,-45.03 252.34,-39.54 259.21,-37.34 263.88,-42.83"/>
</a>
</g>
<text text-anchor="middle" x="377" y="-108.5" font-family="Helvetica,sans-Serif" font-size="10.00" fill="grey"> +resolution</text>
</g>
</g>
</svg>
