<?xml version="1.0" encoding="UTF-8" standalone="no"?>
<!DOCTYPE svg PUBLIC "-//W3C//DTD SVG 1.1//EN"
 "http://www.w3.org/Graphics/SVG/1.1/DTD/svg11.dtd">
<!-- Generated by graphviz version 2.43.0 (0)
 -->
<!-- Title: cam.nc.heiden.Creator.VARIABLE Pages: 1 -->
<svg width="439pt" height="138pt"
 viewBox="0.00 0.00 439.00 138.00" xmlns="http://www.w3.org/2000/svg" xmlns:xlink="http://www.w3.org/1999/xlink">
<g id="graph0" class="graph" transform="scale(1 1) rotate(0) translate(4 134)">
<title>cam.nc.heiden.Creator.VARIABLE</title>
<!-- Node1 -->
<g id="Node000001" class="node">
<title>Node1</title>
<g id="a_Node000001"><a xlink:title=" ">
<polygon fill="#999999" stroke="#666666" points="431,-74 255,-74 255,-55 431,-55 431,-74"/>
<text text-anchor="middle" x="343" y="-62" font-family="Helvetica,sans-Serif" font-size="10.00">cam.nc.heiden.Creator.VARIABLE</text>
</a>
</g>
</g>
<!-- Node2 -->
<g id="Node000002" class="node">
<title>Node2</title>
<g id="a_Node000002"><a xlink:href="classcam_1_1nc_1_1shopbot__mtc_1_1Creator.html#a82dfdc64f60aebd726b2c8a400591c53" target="_top" xlink:title=" ">
<polygon fill="white" stroke="#666666" points="209,-130 10,-130 10,-111 209,-111 209,-130"/>
<text text-anchor="middle" x="109.5" y="-118" font-family="Helvetica,sans-Serif" font-size="10.00">cam.nc.shopbot_mtc.Creator.variable</text>
</a>
</g>
</g>
<!-- Node1&#45;&gt;Node2 -->
<g id="edge1_Node000001_Node000002" class="edge">
<title>Node1&#45;&gt;Node2</title>
<g id="a_edge1_Node000001_Node000002"><a xlink:title=" ">
<path fill="none" stroke="#63b8ff" d="M305.41,-77.23C281.13,-85.32 248.44,-95.54 219,-102.5 205.43,-105.71 190.78,-108.55 176.77,-110.97"/>
<polygon fill="#63b8ff" stroke="#63b8ff" points="306.57,-80.53 314.93,-74.02 304.34,-73.9 306.57,-80.53"/>
</a>
</g>
</g>
<!-- Node3 -->
<g id="Node000003" class="node">
<title>Node3</title>
<g id="a_Node000003"><a xlink:href="classcam_1_1nc_1_1heiden_1_1Creator.html#aeaa3480468f78b1be737304bd08671cf" target="_top" xlink:title=" ">
<polygon fill="white" stroke="#666666" points="204,-93 15,-93 15,-74 204,-74 204,-93"/>
<text text-anchor="middle" x="109.5" y="-81" font-family="Helvetica,sans-Serif" font-size="10.00">cam.nc.heiden.Creator.variable_set</text>
</a>
</g>
</g>
<!-- Node1&#45;&gt;Node3 -->
<g id="edge2_Node000001_Node000003" class="edge">
<title>Node1&#45;&gt;Node3</title>
<g id="a_edge2_Node000001_Node000003"><a xlink:title=" ">
<path fill="none" stroke="#63b8ff" d="M244.64,-72.49C231.25,-73.59 217.52,-74.72 204.19,-75.81"/>
<polygon fill="#63b8ff" stroke="#63b8ff" points="245.13,-75.96 254.81,-71.66 244.56,-68.99 245.13,-75.96"/>
</a>
</g>
</g>
<!-- Node4 -->
<g id="Node000004" class="node">
<title>Node4</title>
<g id="a_Node000004"><a xlink:href="classcam_1_1nc_1_1iso_1_1Creator.html#a04092f294815f93711efb27477a1fb89" target="_top" xlink:title=" ">
<polygon fill="white" stroke="#666666" points="194.5,-56 24.5,-56 24.5,-37 194.5,-37 194.5,-56"/>
<text text-anchor="middle" x="109.5" y="-44" font-family="Helvetica,sans-Serif" font-size="10.00">cam.nc.iso.Creator.variable_set</text>
</a>
</g>
</g>
<!-- Node1&#45;&gt;Node4 -->
<g id="edge3_Node000001_Node000004" class="edge">
<title>Node1&#45;&gt;Node4</title>
<g id="a_edge3_Node000001_Node000004"><a xlink:title=" ">
<path fill="none" stroke="#63b8ff" d="M244.54,-56.92C227.92,-55.63 210.78,-54.3 194.55,-53.03"/>
<polygon fill="#63b8ff" stroke="#63b8ff" points="244.57,-60.43 254.81,-57.72 245.11,-53.46 244.57,-60.43"/>
</a>
</g>
</g>
<!-- Node5 -->
<g id="Node000005" class="node">
<title>Node5</title>
<g id="a_Node000005"><a xlink:href="classcam_1_1nc_1_1shopbot__mtc_1_1Creator.html#a8e088691db975c5165bd3be0b5171e67" target="_top" xlink:title=" ">
<polygon fill="white" stroke="#666666" points="219,-19 0,-19 0,0 219,0 219,-19"/>
<text text-anchor="middle" x="109.5" y="-7" font-family="Helvetica,sans-Serif" font-size="10.00">cam.nc.shopbot_mtc.Creator.variable_set</text>
</a>
</g>
</g>
<!-- Node1&#45;&gt;Node5 -->
<g id="edge4_Node000001_Node000005" class="edge">
<title>Node1&#45;&gt;Node5</title>
<g id="a_edge4_Node000001_Node000005"><a xlink:title=" ">
<path fill="none" stroke="#63b8ff" d="M303.1,-51.91C279.05,-44.42 247.44,-35.13 219,-28.5 203.82,-24.96 187.31,-21.75 171.85,-19.02"/>
<polygon fill="#63b8ff" stroke="#63b8ff" points="302.33,-55.33 312.92,-54.99 304.43,-48.66 302.33,-55.33"/>
</a>
</g>
</g>
</g>
</svg>
