<?xml version="1.0" encoding="UTF-8" standalone="no"?>
<!DOCTYPE svg PUBLIC "-//W3C//DTD SVG 1.1//EN"
 "http://www.w3.org/Graphics/SVG/1.1/DTD/svg11.dtd">
<!-- Generated by graphviz version 2.43.0 (0)
 -->
<!-- Title: cam.ui_panels.feedrate.CAM_FEEDRATE_Panel Pages: 1 -->
<svg width="619pt" height="488pt"
 viewBox="0.00 0.00 618.50 488.00" xmlns="http://www.w3.org/2000/svg" xmlns:xlink="http://www.w3.org/1999/xlink">
<g id="graph0" class="graph" transform="scale(1 1) rotate(0) translate(4 484)">
<title>cam.ui_panels.feedrate.CAM_FEEDRATE_Panel</title>
<!-- Node1 -->
<g id="Node000001" class="node">
<title>Node1</title>
<g id="a_Node000001"><a xlink:title=" ">
<polygon fill="#999999" stroke="transparent" points="455,-150 304,-150 304,0 455,0 455,-150"/>
<text text-anchor="start" x="309.5" y="-138" font-family="Helvetica,sans-Serif" font-size="10.00">cam.ui_panels.feedrate.CAM</text>
<text text-anchor="start" x="336" y="-127" font-family="Helvetica,sans-Serif" font-size="10.00">_FEEDRATE_Panel</text>
<text text-anchor="start" x="311.5" y="-112" font-family="Helvetica,sans-Serif" font-size="10.00">+</text>
<text text-anchor="start" x="327.5" y="-112" font-family="Helvetica,sans-Serif" font-size="10.00">op</text>
<text text-anchor="start" x="311.5" y="-97" font-family="Helvetica,sans-Serif" font-size="10.00">+</text>
<text text-anchor="start" x="327.5" y="-97" font-family="Helvetica,sans-Serif" font-size="10.00">context</text>
<text text-anchor="start" x="311.5" y="-82" font-family="Helvetica,sans-Serif" font-size="10.00">+</text>
<text text-anchor="start" x="327.5" y="-82" font-family="Helvetica,sans-Serif" font-size="10.00">draw_feedrate()</text>
<text text-anchor="start" x="311.5" y="-67" font-family="Helvetica,sans-Serif" font-size="10.00">+</text>
<text text-anchor="start" x="327.5" y="-67" font-family="Helvetica,sans-Serif" font-size="10.00">draw_sim_feedrate()</text>
<text text-anchor="start" x="311.5" y="-52" font-family="Helvetica,sans-Serif" font-size="10.00">+</text>
<text text-anchor="start" x="327.5" y="-52" font-family="Helvetica,sans-Serif" font-size="10.00">draw_plunge_feedrate()</text>
<text text-anchor="start" x="311.5" y="-37" font-family="Helvetica,sans-Serif" font-size="10.00">+</text>
<text text-anchor="start" x="327.5" y="-37" font-family="Helvetica,sans-Serif" font-size="10.00">draw_plunge_angle()</text>
<text text-anchor="start" x="311.5" y="-22" font-family="Helvetica,sans-Serif" font-size="10.00">+</text>
<text text-anchor="start" x="327.5" y="-22" font-family="Helvetica,sans-Serif" font-size="10.00">draw_spindle_rpm()</text>
<text text-anchor="start" x="311.5" y="-7" font-family="Helvetica,sans-Serif" font-size="10.00">+</text>
<text text-anchor="start" x="327.5" y="-7" font-family="Helvetica,sans-Serif" font-size="10.00">draw()</text>
<polygon fill="#666666" stroke="#666666" points="304.5,-122 304.5,-122 455.5,-122 455.5,-122 304.5,-122"/>
<polygon fill="#666666" stroke="#666666" points="304.5,-92 304.5,-92 325.5,-92 325.5,-92 304.5,-92"/>
<polygon fill="#666666" stroke="#666666" points="325.5,-92 325.5,-92 455.5,-92 455.5,-92 325.5,-92"/>
<polygon fill="none" stroke="#666666" points="304,0 304,-150 455,-150 455,0 304,0"/>
</a>
</g>
</g>
<!-- Node2 -->
<g id="Node000002" class="node">
<title>Node2</title>
<g id="a_Node000002"><a xlink:href="classcam_1_1ui__panels_1_1buttons__panel_1_1CAMButtonsPanel.html" target="_top" xlink:title=" ">
<polygon fill="white" stroke="transparent" points="277,-362 134,-362 134,-197 277,-197 277,-362"/>
<text text-anchor="start" x="145" y="-349.5" font-family="Helvetica,sans-Serif" font-size="10.00">cam.ui_panels.buttons</text>
<text text-anchor="start" x="145" y="-338.5" font-family="Helvetica,sans-Serif" font-size="10.00">_panel.CAMButtonsPanel</text>
<text text-anchor="start" x="138.5" y="-323.5" font-family="Helvetica,sans-Serif" font-size="10.00">+</text>
<text text-anchor="start" x="151.5" y="-323.5" font-family="Helvetica,sans-Serif" font-size="10.00">op</text>
<text text-anchor="start" x="138.5" y="-308.5" font-family="Helvetica,sans-Serif" font-size="10.00">+</text>
<text text-anchor="start" x="151.5" y="-308.5" font-family="Helvetica,sans-Serif" font-size="10.00">use_experimental</text>
<text text-anchor="start" x="138.5" y="-293.5" font-family="Helvetica,sans-Serif" font-size="10.00">+</text>
<text text-anchor="start" x="151.5" y="-293.5" font-family="Helvetica,sans-Serif" font-size="10.00">poll()</text>
<text text-anchor="start" x="138.5" y="-278.5" font-family="Helvetica,sans-Serif" font-size="10.00">+</text>
<text text-anchor="start" x="151.5" y="-278.5" font-family="Helvetica,sans-Serif" font-size="10.00">active_operation_index()</text>
<text text-anchor="start" x="138.5" y="-263.5" font-family="Helvetica,sans-Serif" font-size="10.00">+</text>
<text text-anchor="start" x="151.5" y="-263.5" font-family="Helvetica,sans-Serif" font-size="10.00">active_operation()</text>
<text text-anchor="start" x="138.5" y="-248.5" font-family="Helvetica,sans-Serif" font-size="10.00">+</text>
<text text-anchor="start" x="151.5" y="-248.5" font-family="Helvetica,sans-Serif" font-size="10.00">__init__()</text>
<text text-anchor="start" x="138.5" y="-233.5" font-family="Helvetica,sans-Serif" font-size="10.00">+</text>
<text text-anchor="start" x="151.5" y="-233.5" font-family="Helvetica,sans-Serif" font-size="10.00">operations_count()</text>
<text text-anchor="start" x="138.5" y="-218.5" font-family="Helvetica,sans-Serif" font-size="10.00">+</text>
<text text-anchor="start" x="151.5" y="-218.5" font-family="Helvetica,sans-Serif" font-size="10.00">has_operations()</text>
<text text-anchor="start" x="138.5" y="-203.5" font-family="Helvetica,sans-Serif" font-size="10.00">+</text>
<text text-anchor="start" x="151.5" y="-203.5" font-family="Helvetica,sans-Serif" font-size="10.00">has_correct_level()</text>
<polygon fill="#666666" stroke="#666666" points="134.5,-333.5 134.5,-333.5 277.5,-333.5 277.5,-333.5 134.5,-333.5"/>
<polygon fill="#666666" stroke="#666666" points="134.5,-303.5 134.5,-303.5 149.5,-303.5 149.5,-303.5 134.5,-303.5"/>
<polygon fill="#666666" stroke="#666666" points="149.5,-303.5 149.5,-303.5 277.5,-303.5 277.5,-303.5 149.5,-303.5"/>
<polygon fill="none" stroke="#666666" points="134,-197 134,-362 277,-362 277,-197 134,-197"/>
</a>
</g>
</g>
<!-- Node2&#45;&gt;Node1 -->
<g id="edge1_Node000001_Node000002" class="edge">
<title>Node2&#45;&gt;Node1</title>
<g id="a_edge1_Node000001_Node000002"><a xlink:title=" ">
<path fill="none" stroke="#63b8ff" d="M282.31,-189.11C293.46,-176.13 304.85,-162.88 315.71,-150.24"/>
<polygon fill="none" stroke="#63b8ff" points="279.63,-186.85 275.77,-196.72 284.94,-191.42 279.63,-186.85"/>
</a>
</g>
</g>
<!-- Node3 -->
<g id="Node000003" class="node">
<title>Node3</title>
<g id="a_Node000003"><a xlink:title=" ">
<polygon fill="white" stroke="transparent" points="23,-480 0,-480 0,-431 23,-431 23,-480"/>
<text text-anchor="start" x="5.5" y="-467.5" font-family="Helvetica,sans-Serif" font-size="10.00">str</text>
<text text-anchor="start" x="10" y="-452.5" font-family="Helvetica,sans-Serif" font-size="10.00"> </text>
<text text-anchor="start" x="10" y="-437.5" font-family="Helvetica,sans-Serif" font-size="10.00"> </text>
<polygon fill="#666666" stroke="#666666" points="0.5,-462.5 0.5,-462.5 23.5,-462.5 23.5,-462.5 0.5,-462.5"/>
<polygon fill="#666666" stroke="#666666" points="0.5,-447.5 0.5,-447.5 23.5,-447.5 23.5,-447.5 0.5,-447.5"/>
<polygon fill="none" stroke="#666666" points="0,-431 0,-480 23,-480 23,-431 0,-431"/>
</a>
</g>
</g>
<!-- Node3&#45;&gt;Node1 -->
<g id="edge6_Node000001_Node000003" class="edge">
<title>Node3&#45;&gt;Node1</title>
<g id="a_edge6_Node000001_Node000003"><a xlink:title=" ">
<path fill="none" stroke="#63b8ff" d="M8.91,-430.96C4.83,-381.33 2.61,-264.98 61.5,-197 119.72,-129.78 219.43,-99.78 291.71,-86.46"/>
<polygon fill="none" stroke="#63b8ff" points="292.14,-86.39 297.36,-81.41 303.96,-84.32 298.74,-89.29 292.14,-86.39"/>
</a>
</g>
<text text-anchor="middle" x="93" y="-282.5" font-family="Helvetica,sans-Serif" font-size="10.00" fill="grey"> +bl_idname</text>
<text text-anchor="middle" x="93" y="-271.5" font-family="Helvetica,sans-Serif" font-size="10.00" fill="grey">+bl_label</text>
</g>
<!-- Node3&#45;&gt;Node2 -->
<g id="edge2_Node000002_Node000003" class="edge">
<title>Node3&#45;&gt;Node2</title>
<g id="a_edge2_Node000002_Node000003"><a xlink:title=" ">
<path fill="none" stroke="#63b8ff" d="M17.53,-430.97C22.49,-415.2 30.8,-394.7 43.5,-380 55.87,-365.69 89.63,-344.26 123.15,-324.94"/>
<polygon fill="none" stroke="#63b8ff" points="123.57,-324.7 126.8,-318.25 133.99,-318.75 130.76,-325.2 123.57,-324.7"/>
</a>
</g>
<text text-anchor="middle" x="84" y="-405" font-family="Helvetica,sans-Serif" font-size="10.00" fill="grey"> +bl_context</text>
<text text-anchor="middle" x="84" y="-394" font-family="Helvetica,sans-Serif" font-size="10.00" fill="grey">+bl_region_type</text>
<text text-anchor="middle" x="84" y="-383" font-family="Helvetica,sans-Serif" font-size="10.00" fill="grey">+bl_space_type</text>
</g>
<!-- Node4 -->
<g id="Node000004" class="node">
<title>Node4</title>
<g id="a_Node000004"><a xlink:title=" ">
<polygon fill="white" stroke="transparent" points="147.5,-480 115.5,-480 115.5,-431 147.5,-431 147.5,-480"/>
<text text-anchor="start" x="120.5" y="-467.5" font-family="Helvetica,sans-Serif" font-size="10.00">bool</text>
<text text-anchor="start" x="129.5" y="-452.5" font-family="Helvetica,sans-Serif" font-size="10.00"> </text>
<text text-anchor="start" x="129.5" y="-437.5" font-family="Helvetica,sans-Serif" font-size="10.00"> </text>
<polygon fill="#666666" stroke="#666666" points="115.5,-462.5 115.5,-462.5 147.5,-462.5 147.5,-462.5 115.5,-462.5"/>
<polygon fill="#666666" stroke="#666666" points="115.5,-447.5 115.5,-447.5 147.5,-447.5 147.5,-447.5 115.5,-447.5"/>
<polygon fill="none" stroke="#666666" points="115.5,-431 115.5,-480 147.5,-480 147.5,-431 115.5,-431"/>
</a>
</g>
</g>
<!-- Node4&#45;&gt;Node2 -->
<g id="edge3_Node000002_Node000004" class="edge">
<title>Node4&#45;&gt;Node2</title>
<g id="a_edge3_Node000002_Node000004"><a xlink:title=" ">
<path fill="none" stroke="#63b8ff" d="M128.19,-430.73C126.98,-415.78 127.04,-396.31 132.5,-380 133.25,-377.75 134.08,-375.51 134.96,-373.29"/>
<polygon fill="none" stroke="#63b8ff" points="134.99,-373.22 133.8,-366.11 139.9,-362.27 141.1,-369.38 134.99,-373.22"/>
</a>
</g>
<text text-anchor="middle" x="187" y="-394" font-family="Helvetica,sans-Serif" font-size="10.00" fill="grey"> +always_show_panel</text>
</g>
<!-- Node5 -->
<g id="Node000005" class="node">
<title>Node5</title>
<g id="a_Node000005"><a xlink:title=" ">
<polygon fill="white" stroke="transparent" points="336,-480 307,-480 307,-431 336,-431 336,-480"/>
<text text-anchor="start" x="312.5" y="-467.5" font-family="Helvetica,sans-Serif" font-size="10.00">dict</text>
<text text-anchor="start" x="320" y="-452.5" font-family="Helvetica,sans-Serif" font-size="10.00"> </text>
<text text-anchor="start" x="320" y="-437.5" font-family="Helvetica,sans-Serif" font-size="10.00"> </text>
<polygon fill="#666666" stroke="#666666" points="307.5,-462.5 307.5,-462.5 336.5,-462.5 336.5,-462.5 307.5,-462.5"/>
<polygon fill="#666666" stroke="#666666" points="307.5,-447.5 307.5,-447.5 336.5,-447.5 336.5,-447.5 307.5,-447.5"/>
<polygon fill="none" stroke="#666666" points="307,-431 307,-480 336,-480 336,-431 307,-431"/>
</a>
</g>
</g>
<!-- Node5&#45;&gt;Node1 -->
<g id="edge8_Node000001_Node000005" class="edge">
<title>Node5&#45;&gt;Node1</title>
<g id="a_edge8_Node000001_Node000005"><a xlink:title=" ">
<path fill="none" stroke="#63b8ff" d="M336.22,-445.21C346.45,-437.85 359.31,-426.57 365.5,-413 385.11,-370.03 385.56,-247.4 383.22,-162.56"/>
<polygon fill="none" stroke="#63b8ff" points="383.21,-162.33 379.03,-156.45 382.85,-150.34 387.03,-156.21 383.21,-162.33"/>
</a>
</g>
<text text-anchor="middle" x="416" y="-277" font-family="Helvetica,sans-Serif" font-size="10.00" fill="grey"> +prop_level</text>
</g>
<!-- Node5&#45;&gt;Node2 -->
<g id="edge4_Node000002_Node000005" class="edge">
<title>Node5&#45;&gt;Node2</title>
<g id="a_edge4_Node000002_Node000005"><a xlink:title=" ">
<path fill="none" stroke="#63b8ff" d="M306.72,-446.68C294.1,-439.38 276.2,-427.47 264.5,-413 254.78,-400.99 246.33,-387.12 239.1,-372.98"/>
<polygon fill="none" stroke="#63b8ff" points="239.08,-372.92 232.85,-369.29 233.81,-362.14 240.04,-365.78 239.08,-372.92"/>
</a>
</g>
<text text-anchor="middle" x="315" y="-394" font-family="Helvetica,sans-Serif" font-size="10.00" fill="grey"> +COMPAT_ENGINES</text>
</g>
<!-- Node6 -->
<g id="Node000006" class="node">
<title>Node6</title>
<g id="a_Node000006"><a xlink:title=" ">
<polygon fill="white" stroke="transparent" points="498,-304 461,-304 461,-255 498,-255 498,-304"/>
<text text-anchor="start" x="466.5" y="-291.5" font-family="Helvetica,sans-Serif" font-size="10.00">Panel</text>
<text text-anchor="start" x="478" y="-276.5" font-family="Helvetica,sans-Serif" font-size="10.00"> </text>
<text text-anchor="start" x="478" y="-261.5" font-family="Helvetica,sans-Serif" font-size="10.00"> </text>
<polygon fill="#666666" stroke="#666666" points="461.5,-286.5 461.5,-286.5 498.5,-286.5 498.5,-286.5 461.5,-286.5"/>
<polygon fill="#666666" stroke="#666666" points="461.5,-271.5 461.5,-271.5 498.5,-271.5 498.5,-271.5 461.5,-271.5"/>
<polygon fill="none" stroke="#666666" points="461,-255 461,-304 498,-304 498,-255 461,-255"/>
</a>
</g>
</g>
<!-- Node6&#45;&gt;Node1 -->
<g id="edge5_Node000001_Node000006" class="edge">
<title>Node6&#45;&gt;Node1</title>
<g id="a_edge5_Node000001_Node000006"><a xlink:title=" ">
<path fill="none" stroke="#63b8ff" d="M467.22,-245.6C461.36,-230.59 454,-212.71 446.5,-197 439.16,-181.61 430.73,-165.45 422.4,-150.13"/>
<polygon fill="none" stroke="#63b8ff" points="463.98,-246.92 470.85,-254.99 470.51,-244.4 463.98,-246.92"/>
</a>
</g>
</g>
<!-- Node7 -->
<g id="Node000007" class="node">
<title>Node7</title>
<g id="a_Node000007"><a xlink:title=" ">
<polygon fill="white" stroke="transparent" points="539,-304 516,-304 516,-255 539,-255 539,-304"/>
<text text-anchor="start" x="521.5" y="-291.5" font-family="Helvetica,sans-Serif" font-size="10.00">int</text>
<text text-anchor="start" x="526" y="-276.5" font-family="Helvetica,sans-Serif" font-size="10.00"> </text>
<text text-anchor="start" x="526" y="-261.5" font-family="Helvetica,sans-Serif" font-size="10.00"> </text>
<polygon fill="#666666" stroke="#666666" points="516.5,-286.5 516.5,-286.5 539.5,-286.5 539.5,-286.5 516.5,-286.5"/>
<polygon fill="#666666" stroke="#666666" points="516.5,-271.5 516.5,-271.5 539.5,-271.5 539.5,-271.5 516.5,-271.5"/>
<polygon fill="none" stroke="#666666" points="516,-255 516,-304 539,-304 539,-255 516,-255"/>
</a>
</g>
</g>
<!-- Node7&#45;&gt;Node1 -->
<g id="edge7_Node000001_Node000007" class="edge">
<title>Node7&#45;&gt;Node1</title>
<g id="a_edge7_Node000001_Node000007"><a xlink:title=" ">
<path fill="none" stroke="#63b8ff" d="M525.27,-254.69C522.85,-237.68 517.83,-214.75 507.5,-197 495.97,-177.19 480.23,-158.62 463.72,-142.24"/>
<polygon fill="none" stroke="#63b8ff" points="463.68,-142.21 456.59,-140.93 455.04,-133.89 462.13,-135.16 463.68,-142.21"/>
</a>
</g>
<text text-anchor="middle" x="552" y="-171" font-family="Helvetica,sans-Serif" font-size="10.00" fill="grey"> +panel_interface_level</text>
</g>
</g>
</svg>
