<?xml version="1.0" encoding="UTF-8" standalone="no"?>
<!DOCTYPE svg PUBLIC "-//W3C//DTD SVG 1.1//EN"
 "http://www.w3.org/Graphics/SVG/1.1/DTD/svg11.dtd">
<!-- Generated by graphviz version 2.43.0 (0)
 -->
<!-- Title: cam.voronoi.Edge Pages: 1 -->
<svg width="215pt" height="295pt"
 viewBox="0.00 0.00 214.50 295.00" xmlns="http://www.w3.org/2000/svg" xmlns:xlink="http://www.w3.org/1999/xlink">

<svg id="main" version="1.1" xmlns="http://www.w3.org/2000/svg" xmlns:xlink="http://www.w3.org/1999/xlink" xml:space="preserve" onload="init(evt)">
<style type="text/css"><![CDATA[
.node, .edge {opacity: 0.7;}
.node.selected, .edge.selected {opacity: 1;}
.edge:hover path { stroke: red; }
.edge:hover polygon { stroke: red; fill: red; }
]]></style>
<script type="application/ecmascript" xlink:href="svg.min.js"/>
<svg id="graph" class="graph">
<g id="graph0" class="graph" transform="scale(1 1) rotate(0) translate(4 291)">
<title>cam.voronoi.Edge</title>
<!-- Node1 -->
<g id="Node000001" class="node">
<title>Node1</title>
<g id="a_Node000001"><a xlink:title=" ">
<polygon fill="#999999" stroke="transparent" points="119.5,-169 21.5,-169 21.5,0 119.5,0 119.5,-169"/>
<text text-anchor="start" x="26.5" y="-156.5" font-family="Helvetica,sans-Serif" font-size="10.00">cam.voronoi.Edge</text>
<text text-anchor="start" x="28" y="-141.5" font-family="Helvetica,sans-Serif" font-size="10.00">+</text>
<text text-anchor="start" x="43.5" y="-141.5" font-family="Helvetica,sans-Serif" font-size="10.00">a</text>
<text text-anchor="start" x="28" y="-126.5" font-family="Helvetica,sans-Serif" font-size="10.00">+</text>
<text text-anchor="start" x="43.5" y="-126.5" font-family="Helvetica,sans-Serif" font-size="10.00">b</text>
<text text-anchor="start" x="28" y="-111.5" font-family="Helvetica,sans-Serif" font-size="10.00">+</text>
<text text-anchor="start" x="43.5" y="-111.5" font-family="Helvetica,sans-Serif" font-size="10.00">c</text>
<text text-anchor="start" x="28" y="-96.5" font-family="Helvetica,sans-Serif" font-size="10.00">+</text>
<text text-anchor="start" x="43.5" y="-96.5" font-family="Helvetica,sans-Serif" font-size="10.00">ep</text>
<text text-anchor="start" x="28" y="-81.5" font-family="Helvetica,sans-Serif" font-size="10.00">+</text>
<text text-anchor="start" x="43.5" y="-81.5" font-family="Helvetica,sans-Serif" font-size="10.00">reg</text>
<text text-anchor="start" x="28" y="-66.5" font-family="Helvetica,sans-Serif" font-size="10.00">+</text>
<text text-anchor="start" x="43.5" y="-66.5" font-family="Helvetica,sans-Serif" font-size="10.00">edgenum</text>
<text text-anchor="start" x="28" y="-51.5" font-family="Helvetica,sans-Serif" font-size="10.00">+</text>
<text text-anchor="start" x="43.5" y="-51.5" font-family="Helvetica,sans-Serif" font-size="10.00">__init__()</text>
<text text-anchor="start" x="28" y="-36.5" font-family="Helvetica,sans-Serif" font-size="10.00">+</text>
<text text-anchor="start" x="43.5" y="-36.5" font-family="Helvetica,sans-Serif" font-size="10.00">dump()</text>
<text text-anchor="start" x="28" y="-21.5" font-family="Helvetica,sans-Serif" font-size="10.00">+</text>
<text text-anchor="start" x="43.5" y="-21.5" font-family="Helvetica,sans-Serif" font-size="10.00">setEndpoint()</text>
<text text-anchor="start" x="28" y="-6.5" font-family="Helvetica,sans-Serif" font-size="10.00">+</text>
<text text-anchor="start" x="43.5" y="-6.5" font-family="Helvetica,sans-Serif" font-size="10.00">bisect()</text>
<polygon fill="#666666" stroke="#666666" points="21.5,-151.5 21.5,-151.5 119.5,-151.5 119.5,-151.5 21.5,-151.5"/>
<polygon fill="#666666" stroke="#666666" points="21.5,-61.5 21.5,-61.5 41.5,-61.5 41.5,-61.5 21.5,-61.5"/>
<polygon fill="#666666" stroke="#666666" points="41.5,-61.5 41.5,-61.5 119.5,-61.5 119.5,-61.5 41.5,-61.5"/>
<polygon fill="none" stroke="#666666" points="21.5,0 21.5,-169 119.5,-169 119.5,0 21.5,0"/>
</a>
</g>
</g>
<!-- Node2 -->
<g id="Node000002" class="node">
<title>Node2</title>
<g id="a_Node000002"><a xlink:href="classobject.html" target="_top" xlink:title=" ">
<polygon fill="white" stroke="transparent" points="41,-287 0,-287 0,-238 41,-238 41,-287"/>
<text text-anchor="start" x="5.5" y="-274.5" font-family="Helvetica,sans-Serif" font-size="10.00">object</text>
<text text-anchor="start" x="19" y="-259.5" font-family="Helvetica,sans-Serif" font-size="10.00"> </text>
<text text-anchor="start" x="19" y="-244.5" font-family="Helvetica,sans-Serif" font-size="10.00"> </text>
<polygon fill="#666666" stroke="#666666" points="0.5,-269.5 0.5,-269.5 41.5,-269.5 41.5,-269.5 0.5,-269.5"/>
<polygon fill="#666666" stroke="#666666" points="0.5,-254.5 0.5,-254.5 41.5,-254.5 41.5,-254.5 0.5,-254.5"/>
<polygon fill="none" stroke="#666666" points="0,-238 0,-287 41,-287 41,-238 0,-238"/>
</a>
</g>
</g>
<!-- Node2&#45;&gt;Node1 -->
<g id="edge1_Node000001_Node000002" class="edge">
<title>Node2&#45;&gt;Node1</title>
<g id="a_edge1_Node000001_Node000002"><a xlink:title=" ">
<path fill="none" stroke="#63b8ff" d="M30.04,-227.93C34.8,-211.16 40.8,-190.06 46.7,-169.27"/>
<polygon fill="none" stroke="#63b8ff" points="26.61,-227.19 27.24,-237.76 33.34,-229.1 26.61,-227.19"/>
</a>
</g>
</g>
<!-- Node3 -->
<g id="Node000003" class="node">
<title>Node3</title>
<g id="a_Node000003"><a xlink:title=" ">
<polygon fill="white" stroke="transparent" points="82,-287 59,-287 59,-238 82,-238 82,-287"/>
<text text-anchor="start" x="64.5" y="-274.5" font-family="Helvetica,sans-Serif" font-size="10.00">int</text>
<text text-anchor="start" x="69" y="-259.5" font-family="Helvetica,sans-Serif" font-size="10.00"> </text>
<text text-anchor="start" x="69" y="-244.5" font-family="Helvetica,sans-Serif" font-size="10.00"> </text>
<polygon fill="#666666" stroke="#666666" points="59.5,-269.5 59.5,-269.5 82.5,-269.5 82.5,-269.5 59.5,-269.5"/>
<polygon fill="#666666" stroke="#666666" points="59.5,-254.5 59.5,-254.5 82.5,-254.5 82.5,-254.5 59.5,-254.5"/>
<polygon fill="none" stroke="#666666" points="59,-238 59,-287 82,-287 82,-238 59,-238"/>
</a>
</g>
</g>
<!-- Node3&#45;&gt;Node1 -->
<g id="edge2_Node000001_Node000003" class="edge">
<title>Node3&#45;&gt;Node1</title>
<g id="a_edge2_Node000001_Node000003"><a xlink:title=" ">
<path fill="none" stroke="#63b8ff" d="M70.5,-237.76C70.5,-222.79 70.5,-202.36 70.5,-181.33"/>
<polygon fill="none" stroke="#63b8ff" points="70.5,-181.27 66.5,-175.27 70.5,-169.27 74.5,-175.27 70.5,-181.27"/>
</a>
</g>
<text text-anchor="middle" x="104.5" y="-212" font-family="Helvetica,sans-Serif" font-size="10.00" fill="grey"> +EDGE_NUM</text>
<text text-anchor="middle" x="104.5" y="-201" font-family="Helvetica,sans-Serif" font-size="10.00" fill="grey">+LE</text>
<text text-anchor="middle" x="104.5" y="-190" font-family="Helvetica,sans-Serif" font-size="10.00" fill="grey">+RE</text>
</g>
<!-- Node4 -->
<g id="Node000004" class="node">
<title>Node4</title>
<g id="a_Node000004"><a xlink:title=" ">
<polygon fill="white" stroke="transparent" points="176,-287 147,-287 147,-238 176,-238 176,-287"/>
<text text-anchor="start" x="152.5" y="-274.5" font-family="Helvetica,sans-Serif" font-size="10.00">dict</text>
<text text-anchor="start" x="160" y="-259.5" font-family="Helvetica,sans-Serif" font-size="10.00"> </text>
<text text-anchor="start" x="160" y="-244.5" font-family="Helvetica,sans-Serif" font-size="10.00"> </text>
<polygon fill="#666666" stroke="#666666" points="147.5,-269.5 147.5,-269.5 176.5,-269.5 176.5,-269.5 147.5,-269.5"/>
<polygon fill="#666666" stroke="#666666" points="147.5,-254.5 147.5,-254.5 176.5,-254.5 176.5,-254.5 147.5,-254.5"/>
<polygon fill="none" stroke="#666666" points="147,-238 147,-287 176,-287 176,-238 147,-238"/>
</a>
</g>
</g>
<!-- Node4&#45;&gt;Node1 -->
<g id="edge3_Node000001_Node000004" class="edge">
<title>Node4&#45;&gt;Node1</title>
<g id="a_edge3_Node000001_Node000004"><a xlink:title=" ">
<path fill="none" stroke="#63b8ff" d="M156.54,-238C152.9,-222.98 147.23,-203.33 139.5,-187 135.53,-178.6 130.9,-170.12 125.97,-161.83"/>
<polygon fill="none" stroke="#63b8ff" points="125.87,-161.67 119.32,-158.66 119.58,-151.45 126.13,-154.46 125.87,-161.67"/>
</a>
</g>
<text text-anchor="middle" x="178.5" y="-201" font-family="Helvetica,sans-Serif" font-size="10.00" fill="grey"> +DELETED</text>
</g>
</g>
</svg>
</svg>

<style type='text/css'>
<![CDATA[
[data-mouse-over-selected='false'] { opacity: 0.7; }
[data-mouse-over-selected='true']  { opacity: 1.0; }
]]>
</style>
<script type="application/ecmascript"><![CDATA[
document.addEventListener('DOMContentLoaded', (event) => {
  highlightEdges();
  highlightAdjacentNodes();
});
]]></script>
</svg>
