<?xml version="1.0" encoding="UTF-8" standalone="no"?>
<!DOCTYPE svg PUBLIC "-//W3C//DTD SVG 1.1//EN"
 "http://www.w3.org/Graphics/SVG/1.1/DTD/svg11.dtd">
<!-- Generated by graphviz version 2.43.0 (0)
 -->
<!-- Title: cam.nc.fadal.Creator.program_end Pages: 1 -->
<!--zoomable 1016 -->

<svg id="main" version="1.1" xmlns="http://www.w3.org/2000/svg" xmlns:xlink="http://www.w3.org/1999/xlink" xml:space="preserve" onload="init(evt)">
<style type="text/css"><![CDATA[
.node, .edge {opacity: 0.7;}
.node.selected, .edge.selected {opacity: 1;}
.edge:hover path { stroke: red; }
.edge:hover polygon { stroke: red; fill: red; }
]]></style>

<defs>
  <circle id="rim" cx="0" cy="0" r="7"/>
  <circle id="rim2" cx="0" cy="0" r="3.5"/>
  <g id="zoomPlus">
    <use xlink:href="#rim" fill="#404040"><set attributeName="fill" to="#808080" begin="zoomplus.mouseover" end="zoomplus.mouseout"/></use>
    <path d="M-4,0h8M0,-4v8" fill="none" stroke="white" stroke-width="1.5" pointer-events="none"/>
  </g>
  <g id="zoomMin">
    <use xlink:href="#rim" fill="#404040"><set attributeName="fill" to="#808080" begin="zoomminus.mouseover" end="zoomminus.mouseout"/></use>
    <path d="M-4,0h8" fill="none" stroke="white" stroke-width="1.5" pointer-events="none"/>
  </g>
  <g id="arrowUp" transform="translate(30 24)">
    <use xlink:href="#rim"/>
    <path pointer-events="none" fill="none" stroke="white" stroke-width="1.5" d="M0,-3.0v7 M-2.5,-0.5L0,-3.0L2.5,-0.5"/>
  </g>
  <g id="arrowRight" transform="rotate(90) translate(36 -43)">
    <use xlink:href="#rim"/>
    <path pointer-events="none" fill="none" stroke="white" stroke-width="1.5" d="M0,-3.0v7 M-2.5,-0.5L0,-3.0L2.5,-0.5"/>
  </g>
  <g id="arrowDown" transform="rotate(180) translate(-30 -48)">
    <use xlink:href="#rim"/>
    <path pointer-events="none" fill="none" stroke="white" stroke-width="1.5" d="M0,-3.0v7 M-2.5,-0.5L0,-3.0L2.5,-0.5"/>
  </g>
  <g id="arrowLeft" transform="rotate(270) translate(-36 17)">
    <use xlink:href="#rim"/>
    <path pointer-events="none" fill="none" stroke="white" stroke-width="1.5" d="M0,-3.0v7 M-2.5,-0.5L0,-3.0L2.5,-0.5"/>
  </g>
  <g id="resetDef">
    <use xlink:href="#rim2" fill="#404040"><set attributeName="fill" to="#808080" begin="reset.mouseover" end="reset.mouseout"/></use>
  </g>
</defs>
<script type="application/ecmascript">
var viewWidth = 1306;
var viewHeight = 1016;
var sectionId = 'dynsection-3';
</script>
<script type="application/ecmascript" xlink:href="svg.min.js"/>
<svg id="graph" class="graph">
<g id="viewport">
<title>cam.nc.fadal.Creator.program_end</title>
<!-- Node1 -->
<g id="Node000001" class="node">
<title>Node1</title>
<g id="a_Node000001"><a xlink:title=" ">
<polygon fill="#999999" stroke="#666666" points="185,-597.5 0,-597.5 0,-578.5 185,-578.5 185,-597.5"/>
<text text-anchor="middle" x="92.5" y="-585.5" font-family="Helvetica,sans-Serif" font-size="10.00">cam.nc.fadal.Creator.program_end</text>
</a>
</g>
</g>
<!-- Node2 -->
<g id="Node000002" class="node">
<title>Node2</title>
<g id="a_Node000002"><a xlink:href="classcam_1_1nc_1_1heiden_1_1Creator.html#a735510a8c1acc68282af28cdabc80e32" target="_top" xlink:title=" ">
<polygon fill="white" stroke="#666666" points="408.5,-1008 232.5,-1008 232.5,-978 408.5,-978 408.5,-1008"/>
<text text-anchor="start" x="240.5" y="-996" font-family="Helvetica,sans-Serif" font-size="10.00">cam.nc.heiden.Creator.MACHINE</text>
<text text-anchor="middle" x="320.5" y="-985" font-family="Helvetica,sans-Serif" font-size="10.00">_COORDINATES</text>
</a>
</g>
</g>
<!-- Node1&#45;&gt;Node2 -->
<g id="edge1_Node000001_Node000002" class="edge">
<title>Node1&#45;&gt;Node2</title>
<g id="a_edge1_Node000001_Node000002"><a xlink:title=" ">
<path fill="none" stroke="#63b8ff" d="M93.56,-597.75C94.39,-646.11 104.7,-862.07 221,-969 222.13,-970.04 223.31,-971.04 224.51,-972"/>
<polygon fill="#63b8ff" stroke="#63b8ff" points="222.68,-974.99 232.91,-977.74 226.63,-969.21 222.68,-974.99"/>
</a>
</g>
</g>
<!-- Node3 -->
<g id="Node000003" class="node">
<title>Node3</title>
<g id="a_Node000003"><a xlink:href="classcam_1_1nc_1_1iso_1_1Creator.html#a73a16afaed0d5eb16c0e47e492546045" target="_top" xlink:title=" ">
<polygon fill="white" stroke="#666666" points="399,-960 242,-960 242,-930 399,-930 399,-960"/>
<text text-anchor="start" x="250" y="-948" font-family="Helvetica,sans-Serif" font-size="10.00">cam.nc.iso.Creator.MACHINE</text>
<text text-anchor="middle" x="320.5" y="-937" font-family="Helvetica,sans-Serif" font-size="10.00">_COORDINATES</text>
</a>
</g>
</g>
<!-- Node1&#45;&gt;Node3 -->
<g id="edge2_Node000001_Node000003" class="edge">
<title>Node1&#45;&gt;Node3</title>
<g id="a_edge2_Node000001_Node000003"><a xlink:title=" ">
<path fill="none" stroke="#63b8ff" d="M94.26,-597.75C98.19,-641.72 120.23,-823.4 221,-916 224.66,-919.37 228.7,-922.34 232.98,-924.98"/>
<polygon fill="#63b8ff" stroke="#63b8ff" points="231.62,-928.22 242.08,-929.91 234.96,-922.07 231.62,-928.22"/>
</a>
</g>
</g>
<!-- Node4 -->
<g id="Node000004" class="node">
<title>Node4</title>
<g id="a_Node000004"><a xlink:href="classcam_1_1nc_1_1makerbot__codes_1_1Codes.html#a4eee078a4a7a1b1d7917873f26eda43d" target="_top" xlink:title=" ">
<polygon fill="white" stroke="#666666" points="406,-722 235,-722 235,-692 406,-692 406,-722"/>
<text text-anchor="start" x="243" y="-710" font-family="Helvetica,sans-Serif" font-size="10.00">cam.nc.makerbot_codes.Codes.</text>
<text text-anchor="middle" x="320.5" y="-699" font-family="Helvetica,sans-Serif" font-size="10.00">MACHINE_COORDINATES</text>
</a>
</g>
</g>
<!-- Node1&#45;&gt;Node4 -->
<g id="edge3_Node000001_Node000004" class="edge">
<title>Node1&#45;&gt;Node4</title>
<g id="a_edge3_Node000001_Node000004"><a xlink:title=" ">
<path fill="none" stroke="#63b8ff" d="M104.31,-597.53C125.36,-615.64 173.92,-655.23 221,-678 229.25,-681.99 238.16,-685.55 247.13,-688.68"/>
<polygon fill="#63b8ff" stroke="#63b8ff" points="246.26,-692.08 256.86,-691.92 248.47,-685.44 246.26,-692.08"/>
</a>
</g>
</g>
<!-- Node5 -->
<g id="Node000005" class="node">
<title>Node5</title>
<g id="a_Node000005"><a xlink:href="classcam_1_1nc_1_1emc2_1_1Creator.html#a47a9e4f5f35681f580765bba2f0f97a5" target="_top" xlink:title=" ">
<polygon fill="white" stroke="#666666" points="618.5,-910.5 464.5,-910.5 464.5,-891.5 618.5,-891.5 618.5,-910.5"/>
<text text-anchor="middle" x="541.5" y="-898.5" font-family="Helvetica,sans-Serif" font-size="10.00">cam.nc.emc2.Creator.SPACE</text>
</a>
</g>
</g>
<!-- Node1&#45;&gt;Node5 -->
<g id="edge21_Node000001_Node000005" class="edge">
<title>Node1&#45;&gt;Node5</title>
<g id="a_edge21_Node000001_Node000005"><a xlink:title=" ">
<path fill="none" stroke="#63b8ff" d="M94.66,-597.59C100.09,-637.76 126.77,-793.53 221,-862 291.13,-912.95 393.58,-916.48 463.43,-911.34"/>
<polygon fill="#63b8ff" stroke="#63b8ff" points="463.81,-914.82 473.49,-910.53 463.24,-907.85 463.81,-914.82"/>
</a>
</g>
</g>
<!-- Node6 -->
<g id="Node000006" class="node">
<title>Node6</title>
<g id="a_Node000006"><a xlink:href="classcam_1_1nc_1_1emc2b_1_1Creator.html#abff5586e78bb91681bd41dafdea5a9e7" target="_top" xlink:title=" ">
<polygon fill="white" stroke="#666666" points="621.5,-872.5 461.5,-872.5 461.5,-853.5 621.5,-853.5 621.5,-872.5"/>
<text text-anchor="middle" x="541.5" y="-860.5" font-family="Helvetica,sans-Serif" font-size="10.00">cam.nc.emc2b.Creator.SPACE</text>
</a>
</g>
</g>
<!-- Node1&#45;&gt;Node6 -->
<g id="edge22_Node000001_Node000006" class="edge">
<title>Node1&#45;&gt;Node6</title>
<g id="a_edge22_Node000001_Node000006"><a xlink:title=" ">
<path fill="none" stroke="#63b8ff" d="M95.39,-597.51C103.18,-634.08 136.55,-766.41 221,-824 288.3,-869.89 382.55,-876.16 451.23,-873.06"/>
<polygon fill="#63b8ff" stroke="#63b8ff" points="451.8,-876.53 461.6,-872.51 451.43,-869.54 451.8,-876.53"/>
</a>
</g>
</g>
<!-- Node7 -->
<g id="Node000007" class="node">
<title>Node7</title>
<g id="a_Node000007"><a xlink:href="classcam_1_1nc_1_1emc2tap_1_1CodesEMC2.html#a6a0d71a1c6e9f8a80228dc220a0e57ca" target="_top" xlink:title=" ">
<polygon fill="white" stroke="#666666" points="622,-835 461,-835 461,-805 622,-805 622,-835"/>
<text text-anchor="start" x="469" y="-823" font-family="Helvetica,sans-Serif" font-size="10.00">cam.nc.emc2tap.CodesEMC2.</text>
<text text-anchor="middle" x="541.5" y="-812" font-family="Helvetica,sans-Serif" font-size="10.00">SPACE</text>
</a>
</g>
</g>
<!-- Node1&#45;&gt;Node7 -->
<g id="edge23_Node000001_Node000007" class="edge">
<title>Node1&#45;&gt;Node7</title>
<g id="a_edge23_Node000001_Node000007"><a xlink:title=" ">
<path fill="none" stroke="#63b8ff" d="M96.3,-597.76C106.47,-631.3 144.96,-742.26 221,-789 289.64,-831.19 382.66,-835.61 450.62,-831.47"/>
<polygon fill="#63b8ff" stroke="#63b8ff" points="451.15,-834.94 460.88,-830.77 450.67,-827.96 451.15,-834.94"/>
</a>
</g>
</g>
<!-- Node8 -->
<g id="Node000008" class="node">
<title>Node8</title>
<g id="a_Node000008"><a xlink:href="classcam_1_1nc_1_1heiden_1_1Creator.html#a2c4277ffddaea0f92c906c6744f7a3bd" target="_top" xlink:title="Codes.">
<polygon fill="white" stroke="#666666" points="621.5,-786.5 461.5,-786.5 461.5,-767.5 621.5,-767.5 621.5,-786.5"/>
<text text-anchor="middle" x="541.5" y="-774.5" font-family="Helvetica,sans-Serif" font-size="10.00">cam.nc.heiden.Creator.SPACE</text>
</a>
</g>
</g>
<!-- Node1&#45;&gt;Node8 -->
<g id="edge24_Node000001_Node000008" class="edge">
<title>Node1&#45;&gt;Node8</title>
<g id="a_edge24_Node000001_Node000008"><a xlink:title=" ">
<path fill="none" stroke="#63b8ff" d="M97.23,-597.63C109.48,-627.81 151.79,-720.79 221,-758 301.88,-801.49 411.49,-796.75 479.02,-787.92"/>
<polygon fill="#63b8ff" stroke="#63b8ff" points="479.65,-791.37 489.08,-786.54 478.7,-784.43 479.65,-791.37"/>
</a>
</g>
</g>
<!-- Node9 -->
<g id="Node000009" class="node">
<title>Node9</title>
<g id="a_Node000009"><a xlink:href="classcam_1_1nc_1_1heiden530_1_1Creator.html#aa64b19b0edc2ac1f2d568b09ca2aebcb" target="_top" xlink:title="Codes.">
<polygon fill="white" stroke="#666666" points="615,-749 468,-749 468,-719 615,-719 615,-749"/>
<text text-anchor="start" x="476" y="-737" font-family="Helvetica,sans-Serif" font-size="10.00">cam.nc.heiden530.Creator.</text>
<text text-anchor="middle" x="541.5" y="-726" font-family="Helvetica,sans-Serif" font-size="10.00">SPACE</text>
</a>
</g>
</g>
<!-- Node1&#45;&gt;Node9 -->
<g id="edge25_Node000001_Node000009" class="edge">
<title>Node1&#45;&gt;Node9</title>
<g id="a_edge25_Node000001_Node000009"><a xlink:title=" ">
<path fill="none" stroke="#63b8ff" d="M98.41,-597.79C112.77,-625.14 157.7,-702.27 221,-731 296.67,-765.34 393.19,-760.52 460.25,-750.61"/>
<polygon fill="#63b8ff" stroke="#63b8ff" points="460.99,-754.03 470.33,-749.04 459.91,-747.12 460.99,-754.03"/>
</a>
</g>
</g>
<!-- Node10 -->
<g id="Node000010" class="node">
<title>Node10</title>
<g id="a_Node000010"><a xlink:href="classcam_1_1nc_1_1iso_1_1Creator.html#a79463d437baaaf23c828a2c9e62393f3" target="_top" xlink:title=" ">
<polygon fill="white" stroke="#666666" points="612,-700.5 471,-700.5 471,-681.5 612,-681.5 612,-700.5"/>
<text text-anchor="middle" x="541.5" y="-688.5" font-family="Helvetica,sans-Serif" font-size="10.00">cam.nc.iso.Creator.SPACE</text>
</a>
</g>
</g>
<!-- Node1&#45;&gt;Node10 -->
<g id="edge26_Node000001_Node000010" class="edge">
<title>Node1&#45;&gt;Node10</title>
<g id="a_edge26_Node000001_Node000010"><a xlink:title=" ">
<path fill="none" stroke="#63b8ff" d="M115.19,-597.62C140.24,-608.37 182.88,-625.64 221,-636 301.3,-657.82 395.41,-672.78 460.6,-681.53"/>
<polygon fill="#63b8ff" stroke="#63b8ff" points="460.43,-685.03 470.81,-682.88 461.35,-678.09 460.43,-685.03"/>
</a>
</g>
</g>
<!-- Node18 -->
<g id="Node000018" class="node">
<title>Node18</title>
<g id="a_Node000018"><a xlink:href="classcam_1_1nc_1_1makerbot__codes_1_1Codes.html#a497077e0e500cc8f419b8f3f61f008b4" target="_top" xlink:title=" ">
<polygon fill="white" stroke="#666666" points="627,-663 456,-663 456,-633 627,-633 627,-663"/>
<text text-anchor="start" x="464" y="-651" font-family="Helvetica,sans-Serif" font-size="10.00">cam.nc.makerbot_codes.Codes.</text>
<text text-anchor="middle" x="541.5" y="-640" font-family="Helvetica,sans-Serif" font-size="10.00">SPACE</text>
</a>
</g>
</g>
<!-- Node1&#45;&gt;Node18 -->
<g id="edge27_Node000001_Node000018" class="edge">
<title>Node1&#45;&gt;Node18</title>
<g id="a_edge27_Node000001_Node000018"><a xlink:title=" ">
<path fill="none" stroke="#63b8ff" d="M144.89,-597.5C168.1,-601.63 195.88,-606.34 221,-610 296.42,-620.98 382.21,-631.06 445.89,-638.07"/>
<polygon fill="#63b8ff" stroke="#63b8ff" points="445.6,-641.55 455.92,-639.16 446.36,-634.6 445.6,-641.55"/>
</a>
</g>
</g>
<!-- Node19 -->
<g id="Node000019" class="node">
<title>Node19</title>
<g id="a_Node000019"><a xlink:href="classcam_1_1nc_1_1series1_1_1Creator.html#a75918d23eef609baab85058fda3050d5" target="_top" xlink:title=" ">
<polygon fill="white" stroke="#666666" points="622.5,-613.5 460.5,-613.5 460.5,-594.5 622.5,-594.5 622.5,-613.5"/>
<text text-anchor="middle" x="541.5" y="-601.5" font-family="Helvetica,sans-Serif" font-size="10.00">cam.nc.series1.Creator.SPACE</text>
</a>
</g>
</g>
<!-- Node1&#45;&gt;Node19 -->
<g id="edge28_Node000001_Node000019" class="edge">
<title>Node1&#45;&gt;Node19</title>
<g id="a_edge28_Node000001_Node000019"><a xlink:title=" ">
<path fill="none" stroke="#63b8ff" d="M185.04,-591.28C262.53,-594.05 372.99,-598 450.14,-600.77"/>
<polygon fill="#63b8ff" stroke="#63b8ff" points="450.21,-604.27 460.33,-601.13 450.46,-597.27 450.21,-604.27"/>
</a>
</g>
</g>
<!-- Node20 -->
<g id="Node000020" class="node">
<title>Node20</title>
<g id="a_Node000020"><a xlink:href="classcam_1_1nc_1_1shopbot__mtc_1_1Creator.html#a1512dbb5d0140eb216ed709a542261ac" target="_top" xlink:title="Codes.">
<polygon fill="white" stroke="#666666" points="621,-574 462,-574 462,-544 621,-544 621,-574"/>
<text text-anchor="start" x="470" y="-562" font-family="Helvetica,sans-Serif" font-size="10.00">cam.nc.shopbot_mtc.Creator.</text>
<text text-anchor="middle" x="541.5" y="-551" font-family="Helvetica,sans-Serif" font-size="10.00">SPACE</text>
</a>
</g>
</g>
<!-- Node1&#45;&gt;Node20 -->
<g id="edge29_Node000001_Node000020" class="edge">
<title>Node1&#45;&gt;Node20</title>
<g id="a_edge29_Node000001_Node000020"><a xlink:title=" ">
<path fill="none" stroke="#63b8ff" d="M185.04,-582.06C263.01,-577 374.38,-569.78 451.6,-564.77"/>
<polygon fill="#63b8ff" stroke="#63b8ff" points="452.03,-568.25 461.78,-564.11 451.58,-561.26 452.03,-568.25"/>
</a>
</g>
</g>
<!-- Node21 -->
<g id="Node000021" class="node">
<title>Node21</title>
<g id="a_Node000021"><a xlink:href="classcam_1_1nc_1_1tnc151_1_1Creator.html#af5d9e50b2ff0e73cd7524e2145d55d76" target="_top" xlink:title=" ">
<polygon fill="white" stroke="#666666" points="621.5,-521.5 461.5,-521.5 461.5,-502.5 621.5,-502.5 621.5,-521.5"/>
<text text-anchor="middle" x="541.5" y="-509.5" font-family="Helvetica,sans-Serif" font-size="10.00">cam.nc.tnc151.Creator.SPACE</text>
</a>
</g>
</g>
<!-- Node1&#45;&gt;Node21 -->
<g id="edge30_Node000001_Node000021" class="edge">
<title>Node1&#45;&gt;Node21</title>
<g id="a_edge30_Node000001_Node000021"><a xlink:title=" ">
<path fill="none" stroke="#63b8ff" d="M140.06,-578.46C164.17,-573.62 194.13,-567.78 221,-563 304.86,-548.09 401.47,-532.95 466.31,-523.08"/>
<polygon fill="#63b8ff" stroke="#63b8ff" points="467.07,-526.51 476.44,-521.55 466.02,-519.59 467.07,-526.51"/>
</a>
</g>
</g>
<!-- Node22 -->
<g id="Node000022" class="node">
<title>Node22</title>
<g id="a_Node000022"><a xlink:href="classcam_1_1nc_1_1cad__nc__read_1_1Parser.html#adcf2f47949df29f187f27fe985884633" target="_top" xlink:title=" ">
<polygon fill="white" stroke="#666666" points="408.5,-465.5 232.5,-465.5 232.5,-446.5 408.5,-446.5 408.5,-465.5"/>
<text text-anchor="middle" x="320.5" y="-453.5" font-family="Helvetica,sans-Serif" font-size="10.00">cam.nc.cad_nc_read.Parser.write</text>
</a>
</g>
</g>
<!-- Node1&#45;&gt;Node22 -->
<g id="edge31_Node000001_Node000022" class="edge">
<title>Node1&#45;&gt;Node22</title>
<g id="a_edge31_Node000001_Node000022"><a xlink:title=" ">
<path fill="none" stroke="#63b8ff" d="M105.24,-578.42C127.08,-560.9 175.81,-523.21 221,-498 240.91,-486.89 264.34,-476.79 283.36,-469.28"/>
<polygon fill="#63b8ff" stroke="#63b8ff" points="284.8,-472.47 292.86,-465.59 282.27,-465.95 284.8,-472.47"/>
</a>
</g>
</g>
<!-- Node23 -->
<g id="Node000023" class="node">
<title>Node23</title>
<g id="a_Node000023"><a xlink:href="classcam_1_1nc_1_1hxml__writer_1_1HxmlWriter.html#aed6f93c98cb8c0e3f3e826e75b6d6f15" target="_top" xlink:title=" ">
<polygon fill="white" stroke="#666666" points="420,-410.5 221,-410.5 221,-391.5 420,-391.5 420,-410.5"/>
<text text-anchor="middle" x="320.5" y="-398.5" font-family="Helvetica,sans-Serif" font-size="10.00">cam.nc.hxml_writer.HxmlWriter.write</text>
</a>
</g>
</g>
<!-- Node1&#45;&gt;Node23 -->
<g id="edge33_Node000001_Node000023" class="edge">
<title>Node1&#45;&gt;Node23</title>
<g id="a_edge33_Node000001_Node000023"><a xlink:title=" ">
<path fill="none" stroke="#63b8ff" d="M99.13,-578.47C115.02,-552.36 162.85,-478.89 221,-438 235.99,-427.46 254.36,-419.5 271.15,-413.71"/>
<polygon fill="#63b8ff" stroke="#63b8ff" points="272.4,-416.99 280.82,-410.56 270.23,-410.33 272.4,-416.99"/>
</a>
</g>
</g>
<!-- Node24 -->
<g id="Node000024" class="node">
<title>Node24</title>
<g id="a_Node000024"><a xlink:href="classcam_1_1nc_1_1iso_1_1Creator.html#abb81af5a0bdddfed387b71b68a51cc7a" target="_top" xlink:title="Internals.">
<polygon fill="white" stroke="#666666" points="388,-373.5 253,-373.5 253,-354.5 388,-354.5 388,-373.5"/>
<text text-anchor="middle" x="320.5" y="-361.5" font-family="Helvetica,sans-Serif" font-size="10.00">cam.nc.iso.Creator.write</text>
</a>
</g>
</g>
<!-- Node1&#45;&gt;Node24 -->
<g id="edge35_Node000001_Node000024" class="edge">
<title>Node1&#45;&gt;Node24</title>
<g id="a_edge35_Node000001_Node000024"><a xlink:title=" ">
<path fill="none" stroke="#63b8ff" d="M96.4,-578.31C106.92,-544.97 146.41,-434.3 221,-383 227.73,-378.37 235.31,-374.8 243.19,-372.05"/>
<polygon fill="#63b8ff" stroke="#63b8ff" points="244.36,-375.35 252.92,-369.1 242.33,-368.66 244.36,-375.35"/>
</a>
</g>
</g>
<!-- Node25 -->
<g id="Node000025" class="node">
<title>Node25</title>
<g id="a_Node000025"><a xlink:href="classcam_1_1nc_1_1nc_1_1Creator.html#a80f2134add83bfaaf2870d075d36ed8a" target="_top" xlink:title=" ">
<polygon fill="white" stroke="#666666" points="386.5,-318.5 254.5,-318.5 254.5,-299.5 386.5,-299.5 386.5,-318.5"/>
<text text-anchor="middle" x="320.5" y="-306.5" font-family="Helvetica,sans-Serif" font-size="10.00">cam.nc.nc.Creator.write</text>
</a>
</g>
</g>
<!-- Node1&#45;&gt;Node25 -->
<g id="edge36_Node000001_Node000025" class="edge">
<title>Node1&#45;&gt;Node25</title>
<g id="a_edge36_Node000001_Node000025"><a xlink:title=" ">
<path fill="none" stroke="#63b8ff" d="M95.96,-578.11C105.49,-541.81 143.35,-414.47 221,-346 233.25,-335.2 248.96,-327.43 264.22,-321.89"/>
<polygon fill="#63b8ff" stroke="#63b8ff" points="265.77,-325.06 274.14,-318.56 263.54,-318.42 265.77,-325.06"/>
</a>
</g>
</g>
<!-- Node26 -->
<g id="Node000026" class="node">
<title>Node26</title>
<g id="a_Node000026"><a xlink:href="classcam_1_1nc_1_1nclathe__read_1_1Parser.html#ab5ea283b461b57e48c8d5b0ad0a45694" target="_top" xlink:title=" ">
<polygon fill="white" stroke="#666666" points="409.5,-263.5 231.5,-263.5 231.5,-244.5 409.5,-244.5 409.5,-263.5"/>
<text text-anchor="middle" x="320.5" y="-251.5" font-family="Helvetica,sans-Serif" font-size="10.00">cam.nc.nclathe_read.Parser.write</text>
</a>
</g>
</g>
<!-- Node1&#45;&gt;Node26 -->
<g id="edge38_Node000001_Node000026" class="edge">
<title>Node1&#45;&gt;Node26</title>
<g id="a_edge38_Node000001_Node000026"><a xlink:title=" ">
<path fill="none" stroke="#63b8ff" d="M94.88,-578.23C101.19,-537.2 130.91,-377.03 221,-291 232.43,-280.08 247.39,-272.32 262.19,-266.82"/>
<polygon fill="#63b8ff" stroke="#63b8ff" points="263.51,-270.07 271.85,-263.53 261.26,-263.44 263.51,-270.07"/>
</a>
</g>
</g>
<!-- Node27 -->
<g id="Node000027" class="node">
<title>Node27</title>
<g id="a_Node000027"><a xlink:href="classcam_1_1nc_1_1recreator_1_1Redirector.html#a79cc974683588db3ef959189e7552c0d" target="_top" xlink:title="Programs.">
<polygon fill="white" stroke="#666666" points="410,-208.5 231,-208.5 231,-189.5 410,-189.5 410,-208.5"/>
<text text-anchor="middle" x="320.5" y="-196.5" font-family="Helvetica,sans-Serif" font-size="10.00">cam.nc.recreator.Redirector.write</text>
</a>
</g>
</g>
<!-- Node1&#45;&gt;Node27 -->
<g id="edge40_Node000001_Node000027" class="edge">
<title>Node1&#45;&gt;Node27</title>
<g id="a_edge40_Node000001_Node000027"><a xlink:title=" ">
<path fill="none" stroke="#63b8ff" d="M94.13,-578.34C97.61,-533.1 118.2,-340.02 221,-236 231.85,-225.02 246.27,-217.26 260.72,-211.79"/>
<polygon fill="#63b8ff" stroke="#63b8ff" points="261.87,-215.09 270.18,-208.51 259.58,-208.48 261.87,-215.09"/>
</a>
</g>
</g>
<!-- Node28 -->
<g id="Node000028" class="node">
<title>Node28</title>
<g id="a_Node000028"><a xlink:href="classcam_1_1nc_1_1format_1_1Address.html#aa21f0ffeb829537d9103759276c01a4b" target="_top" xlink:title=" ">
<polygon fill="white" stroke="#666666" points="399.5,-122.5 241.5,-122.5 241.5,-103.5 399.5,-103.5 399.5,-122.5"/>
<text text-anchor="middle" x="320.5" y="-110.5" font-family="Helvetica,sans-Serif" font-size="10.00">cam.nc.format.Address.write</text>
</a>
</g>
</g>
<!-- Node1&#45;&gt;Node28 -->
<g id="edge42_Node000001_Node000028" class="edge">
<title>Node1&#45;&gt;Node28</title>
<g id="a_edge42_Node000001_Node000028"><a xlink:title=" ">
<path fill="none" stroke="#63b8ff" d="M94.8,-578.43C103.14,-518.62 150.86,-196.6 221,-132 224.41,-128.86 228.17,-126.17 232.17,-123.87"/>
<polygon fill="#63b8ff" stroke="#63b8ff" points="233.84,-126.95 241.29,-119.42 230.77,-120.66 233.84,-126.95"/>
</a>
</g>
</g>
<!-- Node39 -->
<g id="Node000039" class="node">
<title>Node39</title>
<g id="a_Node000039"><a xlink:href="classcam_1_1nc_1_1format_1_1AddressPlusMinus.html#aaacea4c7b677f0a602dbc9023ff365d2" target="_top" xlink:title=" ">
<polygon fill="white" stroke="#666666" points="395.5,-171 245.5,-171 245.5,-141 395.5,-141 395.5,-171"/>
<text text-anchor="start" x="253.5" y="-159" font-family="Helvetica,sans-Serif" font-size="10.00">cam.nc.format.AddressPlus</text>
<text text-anchor="middle" x="320.5" y="-148" font-family="Helvetica,sans-Serif" font-size="10.00">Minus.write</text>
</a>
</g>
</g>
<!-- Node1&#45;&gt;Node39 -->
<g id="edge55_Node000001_Node000039" class="edge">
<title>Node1&#45;&gt;Node39</title>
<g id="a_edge55_Node000001_Node000039"><a xlink:title=" ">
<path fill="none" stroke="#63b8ff" d="M93.31,-578.25C92.89,-527.93 97.87,-295.51 221,-180 225.44,-175.83 230.48,-172.36 235.87,-169.46"/>
<polygon fill="#63b8ff" stroke="#63b8ff" points="237.65,-172.49 245.25,-165.1 234.7,-166.14 237.65,-172.49"/>
</a>
</g>
</g>
<!-- Node4&#45;&gt;Node5 -->
<g id="edge4_Node000004_Node000005" class="edge">
<title>Node4&#45;&gt;Node5</title>
<g id="a_edge4_Node000004_Node000005"><a xlink:title=" ">
<path fill="none" stroke="#63b8ff" d="M328.47,-722.02C345.19,-756.3 391.09,-840.54 456,-882 459.33,-884.12 462.86,-886.01 466.52,-887.69"/>
<polygon fill="#63b8ff" stroke="#63b8ff" points="465.26,-890.96 475.84,-891.45 467.88,-884.46 465.26,-890.96"/>
</a>
</g>
</g>
<!-- Node4&#45;&gt;Node6 -->
<g id="edge5_Node000004_Node000006" class="edge">
<title>Node4&#45;&gt;Node6</title>
<g id="a_edge5_Node000004_Node000006"><a xlink:title=" ">
<path fill="none" stroke="#63b8ff" d="M331.72,-722.12C351.89,-750.73 399.79,-812.71 456,-844 460.13,-846.3 464.53,-848.32 469.06,-850.1"/>
<polygon fill="#63b8ff" stroke="#63b8ff" points="467.91,-853.41 478.5,-853.42 470.23,-846.8 467.91,-853.41"/>
</a>
</g>
</g>
<!-- Node4&#45;&gt;Node7 -->
<g id="edge6_Node000004_Node000007" class="edge">
<title>Node4&#45;&gt;Node7</title>
<g id="a_edge6_Node000004_Node000007"><a xlink:title=" ">
<path fill="none" stroke="#63b8ff" d="M340.43,-722.28C365.5,-741.85 411.73,-775.66 456,-796 460.28,-797.97 464.75,-799.81 469.32,-801.52"/>
<polygon fill="#63b8ff" stroke="#63b8ff" points="468.18,-804.83 478.77,-804.88 470.52,-798.23 468.18,-804.83"/>
</a>
</g>
</g>
<!-- Node4&#45;&gt;Node8 -->
<g id="edge7_Node000004_Node000008" class="edge">
<title>Node4&#45;&gt;Node8</title>
<g id="a_edge7_Node000004_Node000008"><a xlink:title=" ">
<path fill="none" stroke="#63b8ff" d="M356.99,-722.03C383.84,-733.02 421.8,-747.73 456,-758 464.48,-760.55 473.52,-762.93 482.42,-765.08"/>
<polygon fill="#63b8ff" stroke="#63b8ff" points="481.84,-768.54 492.38,-767.41 483.44,-761.72 481.84,-768.54"/>
</a>
</g>
</g>
<!-- Node4&#45;&gt;Node9 -->
<g id="edge8_Node000004_Node000009" class="edge">
<title>Node4&#45;&gt;Node9</title>
<g id="a_edge8_Node000004_Node000009"><a xlink:title=" ">
<path fill="none" stroke="#63b8ff" d="M406.17,-717.44C423.02,-719.52 440.69,-721.69 457.48,-723.76"/>
<polygon fill="#63b8ff" stroke="#63b8ff" points="457.45,-727.29 467.8,-725.04 458.31,-720.34 457.45,-727.29"/>
</a>
</g>
</g>
<!-- Node4&#45;&gt;Node10 -->
<g id="edge9_Node000004_Node000010" class="edge">
<title>Node4&#45;&gt;Node10</title>
<g id="a_edge9_Node000004_Node000010"><a xlink:title=" ">
<path fill="none" stroke="#63b8ff" d="M406.17,-700.81C424.08,-699.51 442.93,-698.13 460.65,-696.83"/>
<polygon fill="#63b8ff" stroke="#63b8ff" points="461.22,-700.3 470.94,-696.08 460.71,-693.32 461.22,-700.3"/>
</a>
</g>
</g>
<!-- Node4&#45;&gt;Node18 -->
<g id="edge17_Node000004_Node000018" class="edge">
<title>Node4&#45;&gt;Node18</title>
<g id="a_edge17_Node000004_Node000018"><a xlink:title=" ">
<path fill="none" stroke="#63b8ff" d="M377.33,-691.96C407.06,-683.95 443.81,-674.05 474.89,-665.67"/>
<polygon fill="#63b8ff" stroke="#63b8ff" points="476.03,-668.99 484.77,-663.01 474.21,-662.24 476.03,-668.99"/>
</a>
</g>
</g>
<!-- Node4&#45;&gt;Node19 -->
<g id="edge18_Node000004_Node000019" class="edge">
<title>Node4&#45;&gt;Node19</title>
<g id="a_edge18_Node000004_Node000019"><a xlink:title=" ">
<path fill="none" stroke="#63b8ff" d="M341.36,-691.89C366.67,-673.32 412.4,-642.06 456,-624 463.15,-621.04 470.83,-618.46 478.54,-616.23"/>
<polygon fill="#63b8ff" stroke="#63b8ff" points="479.54,-619.59 488.28,-613.59 477.71,-612.83 479.54,-619.59"/>
</a>
</g>
</g>
<!-- Node4&#45;&gt;Node20 -->
<g id="edge19_Node000004_Node000020" class="edge">
<title>Node4&#45;&gt;Node20</title>
<g id="a_edge19_Node000004_Node000020"><a xlink:title=" ">
<path fill="none" stroke="#63b8ff" d="M334.44,-691.74C356.77,-666.32 405.06,-615.23 456,-586 461.13,-583.05 466.63,-580.38 472.27,-577.97"/>
<polygon fill="#63b8ff" stroke="#63b8ff" points="473.85,-581.11 481.84,-574.16 471.26,-574.61 473.85,-581.11"/>
</a>
</g>
</g>
<!-- Node4&#45;&gt;Node21 -->
<g id="edge20_Node000004_Node000021" class="edge">
<title>Node4&#45;&gt;Node21</title>
<g id="a_edge20_Node000004_Node000021"><a xlink:title=" ">
<path fill="none" stroke="#63b8ff" d="M328.93,-691.93C346.28,-658.34 392.85,-576.96 456,-535 462.01,-531.01 468.69,-527.71 475.59,-524.98"/>
<polygon fill="#63b8ff" stroke="#63b8ff" points="476.85,-528.24 485.09,-521.59 474.5,-521.65 476.85,-528.24"/>
</a>
</g>
</g>
<!-- Node11 -->
<g id="Node000011" class="node">
<title>Node11</title>
<g id="a_Node000011"><a xlink:href="classcam_1_1nc_1_1anilam__crusader__m_1_1Creator.html#a36f873a0248bcaa4cf2cfb220dc1b00c" target="_top" xlink:title="Codes.">
<polygon fill="white" stroke="#666666" points="823,-706 687,-706 687,-676 823,-676 823,-706"/>
<text text-anchor="start" x="695" y="-694" font-family="Helvetica,sans-Serif" font-size="10.00">cam.nc.anilam_crusader</text>
<text text-anchor="middle" x="755" y="-683" font-family="Helvetica,sans-Serif" font-size="10.00">_m.Creator.SPACE_STR</text>
</a>
</g>
</g>
<!-- Node10&#45;&gt;Node11 -->
<g id="edge10_Node000010_Node000011" class="edge">
<title>Node10&#45;&gt;Node11</title>
<g id="a_edge10_Node000010_Node000011"><a xlink:title=" ">
<path fill="none" stroke="#63b8ff" d="M612.05,-691C632.74,-691 655.54,-691 676.69,-691"/>
<polygon fill="#63b8ff" stroke="#63b8ff" points="676.93,-694.5 686.93,-691 676.93,-687.5 676.93,-694.5"/>
</a>
</g>
</g>
<!-- Node12 -->
<g id="Node000012" class="node">
<title>Node12</title>
<g id="a_Node000012"><a xlink:href="classcam_1_1nc_1_1fadal_1_1Creator.html#a97a50724edf2662eb4fe76b15516b638" target="_top" xlink:title="Codes.">
<polygon fill="white" stroke="#666666" points="843,-657.5 667,-657.5 667,-638.5 843,-638.5 843,-657.5"/>
<text text-anchor="middle" x="755" y="-645.5" font-family="Helvetica,sans-Serif" font-size="10.00">cam.nc.fadal.Creator.SPACE_STR</text>
</a>
</g>
</g>
<!-- Node10&#45;&gt;Node12 -->
<g id="edge11_Node000010_Node000012" class="edge">
<title>Node10&#45;&gt;Node12</title>
<g id="a_edge11_Node000010_Node000012"><a xlink:title=" ">
<path fill="none" stroke="#63b8ff" d="M589.44,-681.46C621.2,-675 663.34,-666.43 697.03,-659.58"/>
<polygon fill="#63b8ff" stroke="#63b8ff" points="698.09,-662.94 707.19,-657.52 696.7,-656.08 698.09,-662.94"/>
</a>
</g>
</g>
<!-- Node13 -->
<g id="Node000013" class="node">
<title>Node13</title>
<g id="a_Node000013"><a xlink:href="classcam_1_1nc_1_1gravos_1_1Creator.html#ac0bc0d26e8a92a65c0f33d696ad850f5" target="_top" xlink:title="Codes.">
<polygon fill="white" stroke="#666666" points="847,-620.5 663,-620.5 663,-601.5 847,-601.5 847,-620.5"/>
<text text-anchor="middle" x="755" y="-608.5" font-family="Helvetica,sans-Serif" font-size="10.00">cam.nc.gravos.Creator.SPACE_STR</text>
</a>
</g>
</g>
<!-- Node10&#45;&gt;Node13 -->
<g id="edge12_Node000010_Node000013" class="edge">
<title>Node10&#45;&gt;Node13</title>
<g id="a_edge12_Node000010_Node000013"><a xlink:title=" ">
<path fill="none" stroke="#63b8ff" d="M606.07,-681.42C613.41,-678.96 620.56,-675.88 627,-672 648.07,-659.32 641.84,-642.51 663,-630 666.67,-627.83 670.56,-625.9 674.57,-624.19"/>
<polygon fill="#63b8ff" stroke="#63b8ff" points="676.01,-627.39 684.13,-620.59 673.54,-620.84 676.01,-627.39"/>
</a>
</g>
</g>
<!-- Node14 -->
<g id="Node000014" class="node">
<title>Node14</title>
<g id="a_Node000014"><a xlink:href="classcam_1_1nc_1_1iso_1_1Creator.html#aa481cf1e394988751640fd5ce5af991e" target="_top" xlink:title="Codes.">
<polygon fill="white" stroke="#666666" points="837.5,-583.5 672.5,-583.5 672.5,-564.5 837.5,-564.5 837.5,-583.5"/>
<text text-anchor="middle" x="755" y="-571.5" font-family="Helvetica,sans-Serif" font-size="10.00">cam.nc.iso.Creator.SPACE_STR</text>
</a>
</g>
</g>
<!-- Node10&#45;&gt;Node14 -->
<g id="edge13_Node000010_Node000014" class="edge">
<title>Node10&#45;&gt;Node14</title>
<g id="a_edge13_Node000010_Node000014"><a xlink:title=" ">
<path fill="none" stroke="#63b8ff" d="M611.49,-681.35C617.06,-678.86 622.33,-675.79 627,-672 656.95,-647.67 632.87,-617.1 663,-593 665.1,-591.32 667.3,-589.79 669.6,-588.37"/>
<polygon fill="#63b8ff" stroke="#63b8ff" points="671.6,-591.28 678.84,-583.54 668.36,-585.07 671.6,-591.28"/>
</a>
</g>
</g>
<!-- Node15 -->
<g id="Node000015" class="node">
<title>Node15</title>
<g id="a_Node000015"><a xlink:href="classcam_1_1nc_1_1lynx__otter__o_1_1Creator.html#a73b176561e066abcdb256a1bf53a5fcc" target="_top" xlink:title="Codes.">
<polygon fill="white" stroke="#666666" points="833.5,-829 676.5,-829 676.5,-799 833.5,-799 833.5,-829"/>
<text text-anchor="start" x="684.5" y="-817" font-family="Helvetica,sans-Serif" font-size="10.00">cam.nc.lynx_otter_o.Creator.</text>
<text text-anchor="middle" x="755" y="-806" font-family="Helvetica,sans-Serif" font-size="10.00">SPACE_STR</text>
</a>
</g>
</g>
<!-- Node10&#45;&gt;Node15 -->
<g id="edge14_Node000010_Node000015" class="edge">
<title>Node10&#45;&gt;Node15</title>
<g id="a_edge14_Node000010_Node000015"><a xlink:title=" ">
<path fill="none" stroke="#63b8ff" d="M611.5,-700.63C617.07,-703.12 622.34,-706.2 627,-710 657.21,-734.65 633.25,-764.8 663,-790 664.37,-791.16 665.79,-792.27 667.26,-793.32"/>
<polygon fill="#63b8ff" stroke="#63b8ff" points="665.73,-796.49 676.07,-798.79 669.42,-790.55 665.73,-796.49"/>
</a>
</g>
</g>
<!-- Node16 -->
<g id="Node000016" class="node">
<title>Node16</title>
<g id="a_Node000016"><a xlink:href="classcam_1_1nc_1_1mach3_1_1Creator.html#aa461d578afa76c5af9bb5562b79d955a" target="_top" xlink:title="Codes.">
<polygon fill="white" stroke="#666666" points="847,-780.5 663,-780.5 663,-761.5 847,-761.5 847,-780.5"/>
<text text-anchor="middle" x="755" y="-768.5" font-family="Helvetica,sans-Serif" font-size="10.00">cam.nc.mach3.Creator.SPACE_STR</text>
</a>
</g>
</g>
<!-- Node10&#45;&gt;Node16 -->
<g id="edge15_Node000010_Node000016" class="edge">
<title>Node10&#45;&gt;Node16</title>
<g id="a_edge15_Node000010_Node000016"><a xlink:title=" ">
<path fill="none" stroke="#63b8ff" d="M606.12,-700.51C613.45,-702.98 620.58,-706.09 627,-710 648.28,-722.97 641.55,-740.3 663,-753 665.84,-754.68 668.81,-756.21 671.87,-757.6"/>
<polygon fill="#63b8ff" stroke="#63b8ff" points="670.69,-760.9 681.28,-761.35 673.29,-754.4 670.69,-760.9"/>
</a>
</g>
</g>
<!-- Node17 -->
<g id="Node000017" class="node">
<title>Node17</title>
<g id="a_Node000017"><a xlink:href="classcam_1_1nc_1_1winpc_1_1Creator.html#aae1cb93a5dd430719105fa03a054f654" target="_top" xlink:title="Codes.">
<polygon fill="white" stroke="#666666" points="844.5,-743.5 665.5,-743.5 665.5,-724.5 844.5,-724.5 844.5,-743.5"/>
<text text-anchor="middle" x="755" y="-731.5" font-family="Helvetica,sans-Serif" font-size="10.00">cam.nc.winpc.Creator.SPACE_STR</text>
</a>
</g>
</g>
<!-- Node10&#45;&gt;Node17 -->
<g id="edge16_Node000010_Node000017" class="edge">
<title>Node10&#45;&gt;Node17</title>
<g id="a_edge16_Node000010_Node000017"><a xlink:title=" ">
<path fill="none" stroke="#63b8ff" d="M589.44,-700.54C621.2,-707 663.34,-715.57 697.03,-722.42"/>
<polygon fill="#63b8ff" stroke="#63b8ff" points="696.7,-725.92 707.19,-724.48 698.09,-719.06 696.7,-725.92"/>
</a>
</g>
</g>
<!-- Node22&#45;&gt;Node22 -->
<g id="edge32_Node000022_Node000022" class="edge">
<title>Node22&#45;&gt;Node22</title>
<g id="a_edge32_Node000022_Node000022"><a xlink:title=" ">
<path fill="none" stroke="#63b8ff" d="M286.59,-465.58C270.1,-474.23 281.4,-483.5 320.5,-483.5 348.6,-483.5 362.35,-478.71 361.73,-472.81"/>
<polygon fill="#63b8ff" stroke="#63b8ff" points="363.98,-470.12 354.41,-465.58 359.07,-475.1 363.98,-470.12"/>
</a>
</g>
</g>
<!-- Node23&#45;&gt;Node23 -->
<g id="edge34_Node000023_Node000023" class="edge">
<title>Node23&#45;&gt;Node23</title>
<g id="a_edge34_Node000023_Node000023"><a xlink:title=" ">
<path fill="none" stroke="#63b8ff" d="M286.59,-410.58C270.1,-419.23 281.4,-428.5 320.5,-428.5 348.6,-428.5 362.35,-423.71 361.73,-417.81"/>
<polygon fill="#63b8ff" stroke="#63b8ff" points="363.98,-415.12 354.41,-410.58 359.07,-420.1 363.98,-415.12"/>
</a>
</g>
</g>
<!-- Node25&#45;&gt;Node25 -->
<g id="edge37_Node000025_Node000025" class="edge">
<title>Node25&#45;&gt;Node25</title>
<g id="a_edge37_Node000025_Node000025"><a xlink:title=" ">
<path fill="none" stroke="#63b8ff" d="M286.59,-318.58C270.1,-327.23 281.4,-336.5 320.5,-336.5 348.6,-336.5 362.35,-331.71 361.73,-325.81"/>
<polygon fill="#63b8ff" stroke="#63b8ff" points="363.98,-323.12 354.41,-318.58 359.07,-328.1 363.98,-323.12"/>
</a>
</g>
</g>
<!-- Node26&#45;&gt;Node26 -->
<g id="edge39_Node000026_Node000026" class="edge">
<title>Node26&#45;&gt;Node26</title>
<g id="a_edge39_Node000026_Node000026"><a xlink:title=" ">
<path fill="none" stroke="#63b8ff" d="M286.59,-263.58C270.1,-272.23 281.4,-281.5 320.5,-281.5 348.6,-281.5 362.35,-276.71 361.73,-270.81"/>
<polygon fill="#63b8ff" stroke="#63b8ff" points="363.98,-268.12 354.41,-263.58 359.07,-273.1 363.98,-268.12"/>
</a>
</g>
</g>
<!-- Node27&#45;&gt;Node27 -->
<g id="edge41_Node000027_Node000027" class="edge">
<title>Node27&#45;&gt;Node27</title>
<g id="a_edge41_Node000027_Node000027"><a xlink:title=" ">
<path fill="none" stroke="#63b8ff" d="M286.59,-208.58C270.1,-217.23 281.4,-226.5 320.5,-226.5 348.6,-226.5 362.35,-221.71 361.73,-215.81"/>
<polygon fill="#63b8ff" stroke="#63b8ff" points="363.98,-213.12 354.41,-208.58 359.07,-218.1 363.98,-213.12"/>
</a>
</g>
</g>
<!-- Node29 -->
<g id="Node000029" class="node">
<title>Node29</title>
<g id="a_Node000029"><a xlink:href="classcam_1_1async__op_1_1AsyncOperatorMixin.html#a9628cbca8e69ec75b2337171a02bf428" target="_top" xlink:title=" ">
<polygon fill="white" stroke="#666666" points="622,-150 461,-150 461,-120 622,-120 622,-150"/>
<text text-anchor="start" x="469" y="-138" font-family="Helvetica,sans-Serif" font-size="10.00">cam.async_op.AsyncOperator</text>
<text text-anchor="middle" x="541.5" y="-127" font-family="Helvetica,sans-Serif" font-size="10.00">Mixin.modal</text>
</a>
</g>
</g>
<!-- Node28&#45;&gt;Node29 -->
<g id="edge43_Node000028_Node000029" class="edge">
<title>Node28&#45;&gt;Node29</title>
<g id="a_edge43_Node000028_Node000029"><a xlink:title=" ">
<path fill="none" stroke="#63b8ff" d="M399.64,-120.85C416.12,-122.5 433.63,-124.26 450.51,-125.96"/>
<polygon fill="#63b8ff" stroke="#63b8ff" points="450.62,-129.49 460.92,-127.01 451.32,-122.52 450.62,-129.49"/>
</a>
</g>
</g>
<!-- Node30 -->
<g id="Node000030" class="node">
<title>Node30</title>
<g id="a_Node000030"><a xlink:href="classcam_1_1async__op_1_1AsyncOperatorMixin.html#a15a51cfd69d8e453e2e3d64386b1ebe3" target="_top" xlink:title=" ">
<polygon fill="white" stroke="#666666" points="835.5,-150 674.5,-150 674.5,-120 835.5,-120 835.5,-150"/>
<text text-anchor="start" x="682.5" y="-138" font-family="Helvetica,sans-Serif" font-size="10.00">cam.async_op.AsyncOperator</text>
<text text-anchor="middle" x="755" y="-127" font-family="Helvetica,sans-Serif" font-size="10.00">Mixin.tick</text>
</a>
</g>
</g>
<!-- Node29&#45;&gt;Node30 -->
<g id="edge44_Node000029_Node000030" class="edge">
<title>Node29&#45;&gt;Node30</title>
<g id="a_edge44_Node000029_Node000030"><a xlink:title=" ">
<path fill="none" stroke="#63b8ff" d="M622.16,-135C635.91,-135 650.3,-135 664.3,-135"/>
<polygon fill="#63b8ff" stroke="#63b8ff" points="664.41,-138.5 674.41,-135 664.41,-131.5 664.41,-138.5"/>
</a>
</g>
</g>
<!-- Node31 -->
<g id="Node000031" class="node">
<title>Node31</title>
<g id="a_Node000031"><a xlink:href="classcam_1_1async__op_1_1AsyncTestOperator.html#a42606ca890a957aa7070a4bc6f25228b" target="_top" xlink:title=" ">
<polygon fill="white" stroke="#666666" points="1104,-270 883,-270 883,-240 1104,-240 1104,-270"/>
<text text-anchor="start" x="891" y="-258" font-family="Helvetica,sans-Serif" font-size="10.00">cam.async_op.AsyncTestOperator.execute</text>
<text text-anchor="middle" x="993.5" y="-247" font-family="Helvetica,sans-Serif" font-size="10.00">_async</text>
</a>
</g>
</g>
<!-- Node30&#45;&gt;Node31 -->
<g id="edge45_Node000030_Node000031" class="edge">
<title>Node30&#45;&gt;Node31</title>
<g id="a_edge45_Node000030_Node000031"><a xlink:title=" ">
<path fill="none" stroke="#63b8ff" d="M771.36,-150.21C793.88,-171.62 838.06,-210.31 883,-231 887.58,-233.11 892.35,-235.04 897.23,-236.8"/>
<polygon fill="#63b8ff" stroke="#63b8ff" points="896.13,-240.12 906.73,-239.98 898.36,-233.48 896.13,-240.12"/>
</a>
</g>
</g>
<!-- Node32 -->
<g id="Node000032" class="node">
<title>Node32</title>
<g id="a_Node000032"><a xlink:href="classcam_1_1ops_1_1CalculatePath.html#a13dfe2f8578383234e74e58e2f292e1b" target="_top" xlink:title=" ">
<polygon fill="white" stroke="#666666" points="1078,-222 909,-222 909,-192 1078,-192 1078,-222"/>
<text text-anchor="start" x="917" y="-210" font-family="Helvetica,sans-Serif" font-size="10.00">cam.ops.CalculatePath.execute</text>
<text text-anchor="middle" x="993.5" y="-199" font-family="Helvetica,sans-Serif" font-size="10.00">_async</text>
</a>
</g>
</g>
<!-- Node30&#45;&gt;Node32 -->
<g id="edge46_Node000030_Node000032" class="edge">
<title>Node30&#45;&gt;Node32</title>
<g id="a_edge46_Node000030_Node000032"><a xlink:title=" ">
<path fill="none" stroke="#63b8ff" d="M791.65,-150.07C816.85,-160.33 851.59,-173.68 883,-183 890.76,-185.3 898.89,-187.49 907.06,-189.54"/>
<polygon fill="#63b8ff" stroke="#63b8ff" points="906.48,-193 917.03,-191.97 908.14,-186.2 906.48,-193"/>
</a>
</g>
</g>
<!-- Node34 -->
<g id="Node000034" class="node">
<title>Node34</title>
<g id="a_Node000034"><a xlink:href="classcam_1_1ops_1_1PathsChain.html#a6fc64e383ccf724b2325e18a82d53eae" target="_top" xlink:title=" ">
<polygon fill="white" stroke="#666666" points="1071.5,-174 915.5,-174 915.5,-144 1071.5,-144 1071.5,-174"/>
<text text-anchor="start" x="923.5" y="-162" font-family="Helvetica,sans-Serif" font-size="10.00">cam.ops.PathsChain.execute</text>
<text text-anchor="middle" x="993.5" y="-151" font-family="Helvetica,sans-Serif" font-size="10.00">_async</text>
</a>
</g>
</g>
<!-- Node30&#45;&gt;Node34 -->
<g id="edge48_Node000030_Node000034" class="edge">
<title>Node30&#45;&gt;Node34</title>
<g id="a_edge48_Node000030_Node000034"><a xlink:title=" ">
<path fill="none" stroke="#63b8ff" d="M835.74,-143.09C858.05,-145.36 882.41,-147.83 905.14,-150.13"/>
<polygon fill="#63b8ff" stroke="#63b8ff" points="904.81,-153.62 915.11,-151.15 905.52,-146.65 904.81,-153.62"/>
</a>
</g>
</g>
<!-- Node36 -->
<g id="Node000036" class="node">
<title>Node36</title>
<g id="a_Node000036"><a xlink:href="classcam_1_1ops_1_1CAMSimulate.html#a633151f17849d281fd52ce82c00356a7" target="_top" xlink:title=" ">
<polygon fill="white" stroke="#666666" points="1077.5,-78 909.5,-78 909.5,-48 1077.5,-48 1077.5,-78"/>
<text text-anchor="start" x="917.5" y="-66" font-family="Helvetica,sans-Serif" font-size="10.00">cam.ops.CAMSimulate.execute</text>
<text text-anchor="middle" x="993.5" y="-55" font-family="Helvetica,sans-Serif" font-size="10.00">_async</text>
</a>
</g>
</g>
<!-- Node30&#45;&gt;Node36 -->
<g id="edge51_Node000030_Node000036" class="edge">
<title>Node30&#45;&gt;Node36</title>
<g id="a_edge51_Node000030_Node000036"><a xlink:title=" ">
<path fill="none" stroke="#63b8ff" d="M791.65,-119.93C816.85,-109.67 851.59,-96.32 883,-87 890.76,-84.7 898.89,-82.51 907.06,-80.46"/>
<polygon fill="#63b8ff" stroke="#63b8ff" points="908.14,-83.8 917.03,-78.03 906.48,-77 908.14,-83.8"/>
</a>
</g>
</g>
<!-- Node37 -->
<g id="Node000037" class="node">
<title>Node37</title>
<g id="a_Node000037"><a xlink:href="classcam_1_1ops_1_1CAMSimulateChain.html#a1e77c7ce21b3b7e3e38a12b6b62517e9" target="_top" xlink:title=" ">
<polygon fill="white" stroke="#666666" points="1091.5,-126 895.5,-126 895.5,-96 1091.5,-96 1091.5,-126"/>
<text text-anchor="start" x="903.5" y="-114" font-family="Helvetica,sans-Serif" font-size="10.00">cam.ops.CAMSimulateChain.execute</text>
<text text-anchor="middle" x="993.5" y="-103" font-family="Helvetica,sans-Serif" font-size="10.00">_async</text>
</a>
</g>
</g>
<!-- Node30&#45;&gt;Node37 -->
<g id="edge52_Node000030_Node000037" class="edge">
<title>Node30&#45;&gt;Node37</title>
<g id="a_edge52_Node000030_Node000037"><a xlink:title=" ">
<path fill="none" stroke="#63b8ff" d="M835.74,-126.91C851.62,-125.3 868.54,-123.58 885.17,-121.89"/>
<polygon fill="#63b8ff" stroke="#63b8ff" points="885.88,-125.34 895.47,-120.85 885.17,-118.37 885.88,-125.34"/>
</a>
</g>
</g>
<!-- Node38 -->
<g id="Node000038" class="node">
<title>Node38</title>
<g id="a_Node000038"><a xlink:href="classcam_1_1async__op_1_1AsyncOperatorMixin.html#a2216ff6bb0dfd132f4ec4cf79b7cba2b" target="_top" xlink:title=" ">
<polygon fill="white" stroke="#666666" points="1074,-30 913,-30 913,0 1074,0 1074,-30"/>
<text text-anchor="start" x="921" y="-18" font-family="Helvetica,sans-Serif" font-size="10.00">cam.async_op.AsyncOperator</text>
<text text-anchor="middle" x="993.5" y="-7" font-family="Helvetica,sans-Serif" font-size="10.00">Mixin.show_progress</text>
</a>
</g>
</g>
<!-- Node30&#45;&gt;Node38 -->
<g id="edge54_Node000030_Node000038" class="edge">
<title>Node30&#45;&gt;Node38</title>
<g id="a_edge54_Node000030_Node000038"><a xlink:title=" ">
<path fill="none" stroke="#63b8ff" d="M771.36,-119.79C793.88,-98.38 838.06,-59.69 883,-39 889.44,-36.03 896.27,-33.43 903.24,-31.13"/>
<polygon fill="#63b8ff" stroke="#63b8ff" points="904.27,-34.48 912.81,-28.2 902.22,-27.78 904.27,-34.48"/>
</a>
</g>
</g>
<!-- Node33 -->
<g id="Node000033" class="node">
<title>Node33</title>
<g id="a_Node000033"><a xlink:href="namespacecam_1_1ops.html#aa8e95f7410a7ceb178db48f4f8c2d995" target="_top" xlink:title=" ">
<polygon fill="white" stroke="#666666" points="1275.5,-189.5 1162.5,-189.5 1162.5,-170.5 1275.5,-170.5 1275.5,-189.5"/>
<text text-anchor="middle" x="1219" y="-177.5" font-family="Helvetica,sans-Serif" font-size="10.00">cam.ops._calc_path</text>
</a>
</g>
</g>
<!-- Node32&#45;&gt;Node33 -->
<g id="edge47_Node000032_Node000033" class="edge">
<title>Node32&#45;&gt;Node33</title>
<g id="a_edge47_Node000032_Node000033"><a xlink:title=" ">
<path fill="none" stroke="#63b8ff" d="M1078.04,-196.91C1102.56,-193.95 1129.01,-190.75 1152.25,-187.94"/>
<polygon fill="#63b8ff" stroke="#63b8ff" points="1152.83,-191.4 1162.34,-186.72 1152,-184.45 1152.83,-191.4"/>
</a>
</g>
</g>
<!-- Node34&#45;&gt;Node33 -->
<g id="edge49_Node000034_Node000033" class="edge">
<title>Node34&#45;&gt;Node33</title>
<g id="a_edge49_Node000034_Node000033"><a xlink:title=" ">
<path fill="none" stroke="#63b8ff" d="M1071.73,-166.26C1097.9,-168.72 1126.87,-171.44 1152.08,-173.81"/>
<polygon fill="#63b8ff" stroke="#63b8ff" points="1151.99,-177.31 1162.27,-174.76 1152.64,-170.34 1151.99,-177.31"/>
</a>
</g>
</g>
<!-- Node35 -->
<g id="Node000035" class="node">
<title>Node35</title>
<g id="a_Node000035"><a xlink:href="namespacecam_1_1ops.html#ab55fb8ec9a00e021e8e4a1c3ecc97cb4" target="_top" xlink:title=" ">
<polygon fill="white" stroke="#666666" points="1298,-147.5 1140,-147.5 1140,-128.5 1298,-128.5 1298,-147.5"/>
<text text-anchor="middle" x="1219" y="-135.5" font-family="Helvetica,sans-Serif" font-size="10.00">cam.ops.getChainOperations</text>
</a>
</g>
</g>
<!-- Node34&#45;&gt;Node35 -->
<g id="edge50_Node000034_Node000035" class="edge">
<title>Node34&#45;&gt;Node35</title>
<g id="a_edge50_Node000034_Node000035"><a xlink:title=" ">
<path fill="none" stroke="#63b8ff" d="M1071.73,-151.74C1090.34,-150 1110.37,-148.11 1129.45,-146.32"/>
<polygon fill="#63b8ff" stroke="#63b8ff" points="1130,-149.78 1139.63,-145.36 1129.35,-142.81 1130,-149.78"/>
</a>
</g>
</g>
<!-- Node37&#45;&gt;Node35 -->
<g id="edge53_Node000037_Node000035" class="edge">
<title>Node37&#45;&gt;Node35</title>
<g id="a_edge53_Node000037_Node000035"><a xlink:title=" ">
<path fill="none" stroke="#63b8ff" d="M1091.56,-122.72C1104.29,-124.26 1117.28,-125.83 1129.86,-127.35"/>
<polygon fill="#63b8ff" stroke="#63b8ff" points="1129.5,-130.83 1139.84,-128.56 1130.34,-123.88 1129.5,-130.83"/>
</a>
</g>
</g>
<!-- Node39&#45;&gt;Node29 -->
<g id="edge56_Node000039_Node000029" class="edge">
<title>Node39&#45;&gt;Node29</title>
<g id="a_edge56_Node000039_Node000029"><a xlink:title=" ">
<path fill="none" stroke="#63b8ff" d="M395.64,-148.89C413.34,-147.19 432.41,-145.36 450.72,-143.61"/>
<polygon fill="#63b8ff" stroke="#63b8ff" points="451.19,-147.08 460.81,-142.64 450.52,-140.11 451.19,-147.08"/>
</a>
</g>
</g>
</g>
</svg>

<g id="navigator" transform="translate(0 0)" fill="#404254">
  <rect fill="#f2f5e9" fill-opacity="0.5" stroke="#606060" stroke-width=".5" x="0" y="0" width="60" height="60"/>
  <use id="zoomplus" xlink:href="#zoomPlus" x="17" y="9" onmousedown="handleZoom(evt,'in')"/>
  <use id="zoomminus" xlink:href="#zoomMin" x="42" y="9" onmousedown="handleZoom(evt,'out')"/>
  <use id="reset" xlink:href="#resetDef" x="30" y="36" onmousedown="handleReset()"/>
   <use id="arrowup" xlink:href="#arrowUp" x="0" y="0" onmousedown="handlePan(0,-1)"/>
  <use id="arrowright" xlink:href="#arrowRight" x="0" y="0" onmousedown="handlePan(1,0)"/>
  <use id="arrowdown" xlink:href="#arrowDown" x="0" y="0" onmousedown="handlePan(0,1)"/>
  <use id="arrowleft" xlink:href="#arrowLeft" x="0" y="0" onmousedown="handlePan(-1,0)"/>
</g>
<svg viewBox="0 0 15 15" width="100%" height="30px" preserveAspectRatio="xMaxYMin meet">
 <g id="arrow_out" transform="scale(0.3 0.3)">
  <a xlink:href="classcam_1_1nc_1_1fadal_1_1Creator_a5a6e7eaa1a0ebbb61d8b293f36293217_cgraph_org.svg" target="_base">
   <rect id="button" ry="5" rx="5" y="6" x="6" height="38" width="38"
        fill="#f2f5e9" fill-opacity="0.5" stroke="#606060" stroke-width="1.0"/>
   <path id="arrow"
     d="M 11.500037,31.436501 C 11.940474,20.09759 22.043105,11.32322 32.158766,21.979434 L 37.068811,17.246167 C 37.068811,17.246167 37.088388,32 37.088388,32 L 22.160133,31.978069 C 22.160133,31.978069 26.997745,27.140456 26.997745,27.140456 C 18.528582,18.264221 13.291696,25.230495 11.500037,31.436501 z"
     style="fill:#404040;"/>
  </a>
 </g>
</svg>

<style type='text/css'>
<![CDATA[
[data-mouse-over-selected='false'] { opacity: 0.7; }
[data-mouse-over-selected='true']  { opacity: 1.0; }
]]>
</style>
<script type="application/ecmascript"><![CDATA[
document.addEventListener('DOMContentLoaded', (event) => {
  highlightEdges();
  highlightAdjacentNodes();
});
]]></script>
</svg>
