<?xml version="1.0" encoding="UTF-8" standalone="no"?>
<!DOCTYPE svg PUBLIC "-//W3C//DTD SVG 1.1//EN"
 "http://www.w3.org/Graphics/SVG/1.1/DTD/svg11.dtd">
<!-- Generated by graphviz version 2.43.0 (0)
 -->
<!-- Title: cam.ui_panels.material.CAM_MATERIAL_Panel Pages: 1 -->
<!--zoomable 465 -->

<svg id="main" version="1.1" xmlns="http://www.w3.org/2000/svg" xmlns:xlink="http://www.w3.org/1999/xlink" xml:space="preserve" onload="init(evt)">
<style type="text/css"><![CDATA[
.node, .edge {opacity: 0.7;}
.node.selected, .edge.selected {opacity: 1;}
.edge:hover path { stroke: red; }
.edge:hover polygon { stroke: red; fill: red; }
]]></style>

<defs>
  <circle id="rim" cx="0" cy="0" r="7"/>
  <circle id="rim2" cx="0" cy="0" r="3.5"/>
  <g id="zoomPlus">
    <use xlink:href="#rim" fill="#404040"><set attributeName="fill" to="#808080" begin="zoomplus.mouseover" end="zoomplus.mouseout"/></use>
    <path d="M-4,0h8M0,-4v8" fill="none" stroke="white" stroke-width="1.5" pointer-events="none"/>
  </g>
  <g id="zoomMin">
    <use xlink:href="#rim" fill="#404040"><set attributeName="fill" to="#808080" begin="zoomminus.mouseover" end="zoomminus.mouseout"/></use>
    <path d="M-4,0h8" fill="none" stroke="white" stroke-width="1.5" pointer-events="none"/>
  </g>
  <g id="arrowUp" transform="translate(30 24)">
    <use xlink:href="#rim"/>
    <path pointer-events="none" fill="none" stroke="white" stroke-width="1.5" d="M0,-3.0v7 M-2.5,-0.5L0,-3.0L2.5,-0.5"/>
  </g>
  <g id="arrowRight" transform="rotate(90) translate(36 -43)">
    <use xlink:href="#rim"/>
    <path pointer-events="none" fill="none" stroke="white" stroke-width="1.5" d="M0,-3.0v7 M-2.5,-0.5L0,-3.0L2.5,-0.5"/>
  </g>
  <g id="arrowDown" transform="rotate(180) translate(-30 -48)">
    <use xlink:href="#rim"/>
    <path pointer-events="none" fill="none" stroke="white" stroke-width="1.5" d="M0,-3.0v7 M-2.5,-0.5L0,-3.0L2.5,-0.5"/>
  </g>
  <g id="arrowLeft" transform="rotate(270) translate(-36 17)">
    <use xlink:href="#rim"/>
    <path pointer-events="none" fill="none" stroke="white" stroke-width="1.5" d="M0,-3.0v7 M-2.5,-0.5L0,-3.0L2.5,-0.5"/>
  </g>
  <g id="resetDef">
    <use xlink:href="#rim2" fill="#404040"><set attributeName="fill" to="#808080" begin="reset.mouseover" end="reset.mouseout"/></use>
  </g>
</defs>
<script type="application/ecmascript">
var viewWidth = 619;
var viewHeight = 465;
var sectionId = 'dynsection-1';
</script>
<script type="application/ecmascript" xlink:href="svg.min.js"/>
<svg id="graph" class="graph">
<g id="viewport">
<title>cam.ui_panels.material.CAM_MATERIAL_Panel</title>
<!-- Node1 -->
<g id="Node000001" class="node">
<title>Node1</title>
<g id="a_Node000001"><a xlink:title=" ">
<polygon fill="#999999" stroke="transparent" points="455,-127 304,-127 304,0 455,0 455,-127"/>
<text text-anchor="start" x="309.5" y="-114.5" font-family="Helvetica,sans-Serif" font-size="10.00">cam.ui_panels.material.CAM</text>
<text text-anchor="start" x="337" y="-103.5" font-family="Helvetica,sans-Serif" font-size="10.00">_MATERIAL_Panel</text>
<text text-anchor="start" x="313" y="-88.5" font-family="Helvetica,sans-Serif" font-size="10.00">+</text>
<text text-anchor="start" x="330.5" y="-88.5" font-family="Helvetica,sans-Serif" font-size="10.00">context</text>
<text text-anchor="start" x="313" y="-73.5" font-family="Helvetica,sans-Serif" font-size="10.00">+</text>
<text text-anchor="start" x="330.5" y="-73.5" font-family="Helvetica,sans-Serif" font-size="10.00">draw_estimate_from</text>
<text text-anchor="start" x="330.5" y="-62.5" font-family="Helvetica,sans-Serif" font-size="10.00">_image()</text>
<text text-anchor="start" x="313" y="-47.5" font-family="Helvetica,sans-Serif" font-size="10.00">+</text>
<text text-anchor="start" x="330.5" y="-47.5" font-family="Helvetica,sans-Serif" font-size="10.00">draw_estimate_from</text>
<text text-anchor="start" x="330.5" y="-36.5" font-family="Helvetica,sans-Serif" font-size="10.00">_object()</text>
<text text-anchor="start" x="313" y="-21.5" font-family="Helvetica,sans-Serif" font-size="10.00">+</text>
<text text-anchor="start" x="330.5" y="-21.5" font-family="Helvetica,sans-Serif" font-size="10.00">draw_axis_alignment()</text>
<text text-anchor="start" x="313" y="-6.5" font-family="Helvetica,sans-Serif" font-size="10.00">+</text>
<text text-anchor="start" x="330.5" y="-6.5" font-family="Helvetica,sans-Serif" font-size="10.00">draw()</text>
<polygon fill="#666666" stroke="#666666" points="304.5,-98.5 304.5,-98.5 455.5,-98.5 455.5,-98.5 304.5,-98.5"/>
<polygon fill="#666666" stroke="#666666" points="304.5,-83.5 304.5,-83.5 328.5,-83.5 328.5,-83.5 304.5,-83.5"/>
<polygon fill="#666666" stroke="#666666" points="328.5,-83.5 328.5,-83.5 455.5,-83.5 455.5,-83.5 328.5,-83.5"/>
<polygon fill="none" stroke="#666666" points="304,0 304,-127 455,-127 455,0 304,0"/>
</a>
</g>
</g>
<!-- Node2 -->
<g id="Node000002" class="node">
<title>Node2</title>
<g id="a_Node000002"><a xlink:href="classcam_1_1ui__panels_1_1buttons__panel_1_1CAMButtonsPanel.html" target="_top" xlink:title=" ">
<polygon fill="white" stroke="transparent" points="277,-339 134,-339 134,-174 277,-174 277,-339"/>
<text text-anchor="start" x="145" y="-326.5" font-family="Helvetica,sans-Serif" font-size="10.00">cam.ui_panels.buttons</text>
<text text-anchor="start" x="145" y="-315.5" font-family="Helvetica,sans-Serif" font-size="10.00">_panel.CAMButtonsPanel</text>
<text text-anchor="start" x="138.5" y="-300.5" font-family="Helvetica,sans-Serif" font-size="10.00">+</text>
<text text-anchor="start" x="151.5" y="-300.5" font-family="Helvetica,sans-Serif" font-size="10.00">op</text>
<text text-anchor="start" x="138.5" y="-285.5" font-family="Helvetica,sans-Serif" font-size="10.00">+</text>
<text text-anchor="start" x="151.5" y="-285.5" font-family="Helvetica,sans-Serif" font-size="10.00">use_experimental</text>
<text text-anchor="start" x="138.5" y="-270.5" font-family="Helvetica,sans-Serif" font-size="10.00">+</text>
<text text-anchor="start" x="151.5" y="-270.5" font-family="Helvetica,sans-Serif" font-size="10.00">poll()</text>
<text text-anchor="start" x="138.5" y="-255.5" font-family="Helvetica,sans-Serif" font-size="10.00">+</text>
<text text-anchor="start" x="151.5" y="-255.5" font-family="Helvetica,sans-Serif" font-size="10.00">active_operation_index()</text>
<text text-anchor="start" x="138.5" y="-240.5" font-family="Helvetica,sans-Serif" font-size="10.00">+</text>
<text text-anchor="start" x="151.5" y="-240.5" font-family="Helvetica,sans-Serif" font-size="10.00">active_operation()</text>
<text text-anchor="start" x="138.5" y="-225.5" font-family="Helvetica,sans-Serif" font-size="10.00">+</text>
<text text-anchor="start" x="151.5" y="-225.5" font-family="Helvetica,sans-Serif" font-size="10.00">__init__()</text>
<text text-anchor="start" x="138.5" y="-210.5" font-family="Helvetica,sans-Serif" font-size="10.00">+</text>
<text text-anchor="start" x="151.5" y="-210.5" font-family="Helvetica,sans-Serif" font-size="10.00">operations_count()</text>
<text text-anchor="start" x="138.5" y="-195.5" font-family="Helvetica,sans-Serif" font-size="10.00">+</text>
<text text-anchor="start" x="151.5" y="-195.5" font-family="Helvetica,sans-Serif" font-size="10.00">has_operations()</text>
<text text-anchor="start" x="138.5" y="-180.5" font-family="Helvetica,sans-Serif" font-size="10.00">+</text>
<text text-anchor="start" x="151.5" y="-180.5" font-family="Helvetica,sans-Serif" font-size="10.00">has_correct_level()</text>
<polygon fill="#666666" stroke="#666666" points="134.5,-310.5 134.5,-310.5 277.5,-310.5 277.5,-310.5 134.5,-310.5"/>
<polygon fill="#666666" stroke="#666666" points="134.5,-280.5 134.5,-280.5 149.5,-280.5 149.5,-280.5 134.5,-280.5"/>
<polygon fill="#666666" stroke="#666666" points="149.5,-280.5 149.5,-280.5 277.5,-280.5 277.5,-280.5 149.5,-280.5"/>
<polygon fill="none" stroke="#666666" points="134,-174 134,-339 277,-339 277,-174 134,-174"/>
</a>
</g>
</g>
<!-- Node2&#45;&gt;Node1 -->
<g id="edge1_Node000001_Node000002" class="edge">
<title>Node2&#45;&gt;Node1</title>
<g id="a_edge1_Node000001_Node000002"><a xlink:title=" ">
<path fill="none" stroke="#63b8ff" d="M283.78,-169.57C296.76,-155.32 310,-140.79 322.33,-127.26"/>
<polygon fill="none" stroke="#63b8ff" points="281.17,-167.24 277.03,-176.99 286.35,-171.95 281.17,-167.24"/>
</a>
</g>
</g>
<!-- Node3 -->
<g id="Node000003" class="node">
<title>Node3</title>
<g id="a_Node000003"><a xlink:title=" ">
<polygon fill="white" stroke="transparent" points="23,-457 0,-457 0,-408 23,-408 23,-457"/>
<text text-anchor="start" x="5.5" y="-444.5" font-family="Helvetica,sans-Serif" font-size="10.00">str</text>
<text text-anchor="start" x="10" y="-429.5" font-family="Helvetica,sans-Serif" font-size="10.00"> </text>
<text text-anchor="start" x="10" y="-414.5" font-family="Helvetica,sans-Serif" font-size="10.00"> </text>
<polygon fill="#666666" stroke="#666666" points="0.5,-439.5 0.5,-439.5 23.5,-439.5 23.5,-439.5 0.5,-439.5"/>
<polygon fill="#666666" stroke="#666666" points="0.5,-424.5 0.5,-424.5 23.5,-424.5 23.5,-424.5 0.5,-424.5"/>
<polygon fill="none" stroke="#666666" points="0,-408 0,-457 23,-457 23,-408 0,-408"/>
</a>
</g>
</g>
<!-- Node3&#45;&gt;Node1 -->
<g id="edge6_Node000001_Node000003" class="edge">
<title>Node3&#45;&gt;Node1</title>
<g id="a_edge6_Node000001_Node000003"><a xlink:title=" ">
<path fill="none" stroke="#63b8ff" d="M8.75,-407.81C4.33,-357.9 1.54,-241.03 61.5,-174 120.01,-108.59 219.44,-82.24 291.56,-71.63"/>
<polygon fill="none" stroke="#63b8ff" points="291.9,-71.59 297.3,-66.8 303.79,-69.95 298.4,-74.73 291.9,-71.59"/>
</a>
</g>
<text text-anchor="middle" x="93" y="-259.5" font-family="Helvetica,sans-Serif" font-size="10.00" fill="grey"> +bl_idname</text>
<text text-anchor="middle" x="93" y="-248.5" font-family="Helvetica,sans-Serif" font-size="10.00" fill="grey">+bl_label</text>
</g>
<!-- Node3&#45;&gt;Node2 -->
<g id="edge2_Node000002_Node000003" class="edge">
<title>Node3&#45;&gt;Node2</title>
<g id="a_edge2_Node000002_Node000003"><a xlink:title=" ">
<path fill="none" stroke="#63b8ff" d="M17.53,-407.97C22.49,-392.2 30.8,-371.7 43.5,-357 55.87,-342.69 89.63,-321.26 123.15,-301.94"/>
<polygon fill="none" stroke="#63b8ff" points="123.57,-301.7 126.8,-295.25 133.99,-295.75 130.76,-302.2 123.57,-301.7"/>
</a>
</g>
<text text-anchor="middle" x="84" y="-382" font-family="Helvetica,sans-Serif" font-size="10.00" fill="grey"> +bl_context</text>
<text text-anchor="middle" x="84" y="-371" font-family="Helvetica,sans-Serif" font-size="10.00" fill="grey">+bl_region_type</text>
<text text-anchor="middle" x="84" y="-360" font-family="Helvetica,sans-Serif" font-size="10.00" fill="grey">+bl_space_type</text>
</g>
<!-- Node4 -->
<g id="Node000004" class="node">
<title>Node4</title>
<g id="a_Node000004"><a xlink:title=" ">
<polygon fill="white" stroke="transparent" points="147.5,-457 115.5,-457 115.5,-408 147.5,-408 147.5,-457"/>
<text text-anchor="start" x="120.5" y="-444.5" font-family="Helvetica,sans-Serif" font-size="10.00">bool</text>
<text text-anchor="start" x="129.5" y="-429.5" font-family="Helvetica,sans-Serif" font-size="10.00"> </text>
<text text-anchor="start" x="129.5" y="-414.5" font-family="Helvetica,sans-Serif" font-size="10.00"> </text>
<polygon fill="#666666" stroke="#666666" points="115.5,-439.5 115.5,-439.5 147.5,-439.5 147.5,-439.5 115.5,-439.5"/>
<polygon fill="#666666" stroke="#666666" points="115.5,-424.5 115.5,-424.5 147.5,-424.5 147.5,-424.5 115.5,-424.5"/>
<polygon fill="none" stroke="#666666" points="115.5,-408 115.5,-457 147.5,-457 147.5,-408 115.5,-408"/>
</a>
</g>
</g>
<!-- Node4&#45;&gt;Node2 -->
<g id="edge3_Node000002_Node000004" class="edge">
<title>Node4&#45;&gt;Node2</title>
<g id="a_edge3_Node000002_Node000004"><a xlink:title=" ">
<path fill="none" stroke="#63b8ff" d="M128.19,-407.73C126.98,-392.78 127.04,-373.31 132.5,-357 133.25,-354.75 134.08,-352.51 134.96,-350.29"/>
<polygon fill="none" stroke="#63b8ff" points="134.99,-350.22 133.8,-343.11 139.9,-339.27 141.1,-346.38 134.99,-350.22"/>
</a>
</g>
<text text-anchor="middle" x="187" y="-371" font-family="Helvetica,sans-Serif" font-size="10.00" fill="grey"> +always_show_panel</text>
</g>
<!-- Node5 -->
<g id="Node000005" class="node">
<title>Node5</title>
<g id="a_Node000005"><a xlink:title=" ">
<polygon fill="white" stroke="transparent" points="336,-457 307,-457 307,-408 336,-408 336,-457"/>
<text text-anchor="start" x="312.5" y="-444.5" font-family="Helvetica,sans-Serif" font-size="10.00">dict</text>
<text text-anchor="start" x="320" y="-429.5" font-family="Helvetica,sans-Serif" font-size="10.00"> </text>
<text text-anchor="start" x="320" y="-414.5" font-family="Helvetica,sans-Serif" font-size="10.00"> </text>
<polygon fill="#666666" stroke="#666666" points="307.5,-439.5 307.5,-439.5 336.5,-439.5 336.5,-439.5 307.5,-439.5"/>
<polygon fill="#666666" stroke="#666666" points="307.5,-424.5 307.5,-424.5 336.5,-424.5 336.5,-424.5 307.5,-424.5"/>
<polygon fill="none" stroke="#666666" points="307,-408 307,-457 336,-457 336,-408 307,-408"/>
</a>
</g>
</g>
<!-- Node5&#45;&gt;Node1 -->
<g id="edge8_Node000001_Node000005" class="edge">
<title>Node5&#45;&gt;Node1</title>
<g id="a_edge8_Node000001_Node000005"><a xlink:title=" ">
<path fill="none" stroke="#63b8ff" d="M336.22,-422.21C346.44,-414.85 359.3,-403.56 365.5,-390 385.18,-346.96 385.11,-221.11 382.71,-139.09"/>
<polygon fill="none" stroke="#63b8ff" points="382.71,-139.07 378.52,-133.2 382.33,-127.08 386.51,-132.95 382.71,-139.07"/>
</a>
</g>
<text text-anchor="middle" x="416" y="-254" font-family="Helvetica,sans-Serif" font-size="10.00" fill="grey"> +prop_level</text>
</g>
<!-- Node5&#45;&gt;Node2 -->
<g id="edge4_Node000002_Node000005" class="edge">
<title>Node5&#45;&gt;Node2</title>
<g id="a_edge4_Node000002_Node000005"><a xlink:title=" ">
<path fill="none" stroke="#63b8ff" d="M306.72,-423.68C294.1,-416.38 276.2,-404.47 264.5,-390 254.78,-377.99 246.33,-364.12 239.1,-349.98"/>
<polygon fill="none" stroke="#63b8ff" points="239.08,-349.92 232.85,-346.29 233.81,-339.14 240.04,-342.78 239.08,-349.92"/>
</a>
</g>
<text text-anchor="middle" x="315" y="-371" font-family="Helvetica,sans-Serif" font-size="10.00" fill="grey"> +COMPAT_ENGINES</text>
</g>
<!-- Node6 -->
<g id="Node000006" class="node">
<title>Node6</title>
<g id="a_Node000006"><a xlink:title=" ">
<polygon fill="white" stroke="transparent" points="498,-281 461,-281 461,-232 498,-232 498,-281"/>
<text text-anchor="start" x="466.5" y="-268.5" font-family="Helvetica,sans-Serif" font-size="10.00">Panel</text>
<text text-anchor="start" x="478" y="-253.5" font-family="Helvetica,sans-Serif" font-size="10.00"> </text>
<text text-anchor="start" x="478" y="-238.5" font-family="Helvetica,sans-Serif" font-size="10.00"> </text>
<polygon fill="#666666" stroke="#666666" points="461.5,-263.5 461.5,-263.5 498.5,-263.5 498.5,-263.5 461.5,-263.5"/>
<polygon fill="#666666" stroke="#666666" points="461.5,-248.5 461.5,-248.5 498.5,-248.5 498.5,-248.5 461.5,-248.5"/>
<polygon fill="none" stroke="#666666" points="461,-232 461,-281 498,-281 498,-232 461,-232"/>
</a>
</g>
</g>
<!-- Node6&#45;&gt;Node1 -->
<g id="edge5_Node000001_Node000006" class="edge">
<title>Node6&#45;&gt;Node1</title>
<g id="a_edge5_Node000001_Node000006"><a xlink:title=" ">
<path fill="none" stroke="#63b8ff" d="M467.54,-222.44C461.74,-207.41 454.34,-189.54 446.5,-174 438.68,-158.48 429.4,-142.25 420.28,-127.18"/>
<polygon fill="none" stroke="#63b8ff" points="464.29,-223.75 471.11,-231.86 470.84,-221.27 464.29,-223.75"/>
</a>
</g>
</g>
<!-- Node7 -->
<g id="Node000007" class="node">
<title>Node7</title>
<g id="a_Node000007"><a xlink:title=" ">
<polygon fill="white" stroke="transparent" points="539,-281 516,-281 516,-232 539,-232 539,-281"/>
<text text-anchor="start" x="521.5" y="-268.5" font-family="Helvetica,sans-Serif" font-size="10.00">int</text>
<text text-anchor="start" x="526" y="-253.5" font-family="Helvetica,sans-Serif" font-size="10.00"> </text>
<text text-anchor="start" x="526" y="-238.5" font-family="Helvetica,sans-Serif" font-size="10.00"> </text>
<polygon fill="#666666" stroke="#666666" points="516.5,-263.5 516.5,-263.5 539.5,-263.5 539.5,-263.5 516.5,-263.5"/>
<polygon fill="#666666" stroke="#666666" points="516.5,-248.5 516.5,-248.5 539.5,-248.5 539.5,-248.5 516.5,-248.5"/>
<polygon fill="none" stroke="#666666" points="516,-232 516,-281 539,-281 539,-232 516,-232"/>
</a>
</g>
</g>
<!-- Node7&#45;&gt;Node1 -->
<g id="edge7_Node000001_Node000007" class="edge">
<title>Node7&#45;&gt;Node1</title>
<g id="a_edge7_Node000001_Node000007"><a xlink:title=" ">
<path fill="none" stroke="#63b8ff" d="M525.59,-231.89C523.31,-214.77 518.35,-191.62 507.5,-174 496.12,-155.51 480.57,-138.53 464.23,-123.75"/>
<polygon fill="none" stroke="#63b8ff" points="464.13,-123.66 456.98,-122.73 455.09,-115.77 462.24,-116.7 464.13,-123.66"/>
</a>
</g>
<text text-anchor="middle" x="552" y="-148" font-family="Helvetica,sans-Serif" font-size="10.00" fill="grey"> +panel_interface_level</text>
</g>
</g>
</svg>

<g id="navigator" transform="translate(0 0)" fill="#404254">
  <rect fill="#f2f5e9" fill-opacity="0.5" stroke="#606060" stroke-width=".5" x="0" y="0" width="60" height="60"/>
  <use id="zoomplus" xlink:href="#zoomPlus" x="17" y="9" onmousedown="handleZoom(evt,'in')"/>
  <use id="zoomminus" xlink:href="#zoomMin" x="42" y="9" onmousedown="handleZoom(evt,'out')"/>
  <use id="reset" xlink:href="#resetDef" x="30" y="36" onmousedown="handleReset()"/>
   <use id="arrowup" xlink:href="#arrowUp" x="0" y="0" onmousedown="handlePan(0,-1)"/>
  <use id="arrowright" xlink:href="#arrowRight" x="0" y="0" onmousedown="handlePan(1,0)"/>
  <use id="arrowdown" xlink:href="#arrowDown" x="0" y="0" onmousedown="handlePan(0,1)"/>
  <use id="arrowleft" xlink:href="#arrowLeft" x="0" y="0" onmousedown="handlePan(-1,0)"/>
</g>
<svg viewBox="0 0 15 15" width="100%" height="30px" preserveAspectRatio="xMaxYMin meet">
 <g id="arrow_out" transform="scale(0.3 0.3)">
  <a xlink:href="classcam_1_1ui__panels_1_1material_1_1CAM__MATERIAL__Panel__coll__graph_org.svg" target="_base">
   <rect id="button" ry="5" rx="5" y="6" x="6" height="38" width="38"
        fill="#f2f5e9" fill-opacity="0.5" stroke="#606060" stroke-width="1.0"/>
   <path id="arrow"
     d="M 11.500037,31.436501 C 11.940474,20.09759 22.043105,11.32322 32.158766,21.979434 L 37.068811,17.246167 C 37.068811,17.246167 37.088388,32 37.088388,32 L 22.160133,31.978069 C 22.160133,31.978069 26.997745,27.140456 26.997745,27.140456 C 18.528582,18.264221 13.291696,25.230495 11.500037,31.436501 z"
     style="fill:#404040;"/>
  </a>
 </g>
</svg>

<style type='text/css'>
<![CDATA[
[data-mouse-over-selected='false'] { opacity: 0.7; }
[data-mouse-over-selected='true']  { opacity: 1.0; }
]]>
</style>
<script type="application/ecmascript"><![CDATA[
document.addEventListener('DOMContentLoaded', (event) => {
  highlightEdges();
  highlightAdjacentNodes();
});
]]></script>
</svg>
