<?xml version="1.0" encoding="UTF-8" standalone="no"?>
<!DOCTYPE svg PUBLIC "-//W3C//DTD SVG 1.1//EN"
 "http://www.w3.org/Graphics/SVG/1.1/DTD/svg11.dtd">
<!-- Generated by graphviz version 2.43.0 (0)
 -->
<!-- Title: cam.nc.iso.Creator.PLANE_XZ Pages: 1 -->
<svg width="349pt" height="134pt"
 viewBox="0.00 0.00 349.00 134.00" xmlns="http://www.w3.org/2000/svg" xmlns:xlink="http://www.w3.org/1999/xlink">
<g id="graph0" class="graph" transform="scale(1 1) rotate(0) translate(4 130)">
<title>cam.nc.iso.Creator.PLANE_XZ</title>
<!-- Node1 -->
<g id="Node000001" class="node">
<title>Node1</title>
<g id="a_Node000001"><a xlink:title=" ">
<polygon fill="#999999" stroke="#666666" points="341,-72.5 180,-72.5 180,-53.5 341,-53.5 341,-72.5"/>
<text text-anchor="middle" x="260.5" y="-60.5" font-family="Helvetica,sans-Serif" font-size="10.00">cam.nc.iso.Creator.PLANE_XZ</text>
</a>
</g>
</g>
<!-- Node2 -->
<g id="Node000002" class="node">
<title>Node2</title>
<g id="a_Node000002"><a xlink:href="classcam_1_1nc_1_1emc2_1_1Creator.html#a4781d919cc132cc1cc62fd5a9374b5df" target="_top" xlink:title=" ">
<polygon fill="white" stroke="#666666" points="141,-126 3,-126 3,-96 141,-96 141,-126"/>
<text text-anchor="start" x="11" y="-114" font-family="Helvetica,sans-Serif" font-size="10.00">cam.nc.emc2.Creator.set</text>
<text text-anchor="middle" x="72" y="-103" font-family="Helvetica,sans-Serif" font-size="10.00">_plane</text>
</a>
</g>
</g>
<!-- Node1&#45;&gt;Node2 -->
<g id="edge1_Node000001_Node000002" class="edge">
<title>Node1&#45;&gt;Node2</title>
<g id="a_edge1_Node000001_Node000002"><a xlink:title=" ">
<path fill="none" stroke="#63b8ff" d="M212.41,-75.12C187.85,-81.44 157.58,-89.23 131.53,-95.94"/>
<polygon fill="#63b8ff" stroke="#63b8ff" points="213.4,-78.48 222.21,-72.6 211.65,-71.7 213.4,-78.48"/>
</a>
</g>
</g>
<!-- Node3 -->
<g id="Node000003" class="node">
<title>Node3</title>
<g id="a_Node000003"><a xlink:href="classcam_1_1nc_1_1heiden_1_1Creator.html#ab5ea49e0893c276ff3c59180907039c0" target="_top" xlink:title=" ">
<polygon fill="white" stroke="#666666" points="144,-78 0,-78 0,-48 144,-48 144,-78"/>
<text text-anchor="start" x="8" y="-66" font-family="Helvetica,sans-Serif" font-size="10.00">cam.nc.heiden.Creator.set</text>
<text text-anchor="middle" x="72" y="-55" font-family="Helvetica,sans-Serif" font-size="10.00">_plane</text>
</a>
</g>
</g>
<!-- Node1&#45;&gt;Node3 -->
<g id="edge2_Node000001_Node000003" class="edge">
<title>Node1&#45;&gt;Node3</title>
<g id="a_edge2_Node000001_Node000003"><a xlink:title=" ">
<path fill="none" stroke="#63b8ff" d="M169.79,-63C161.17,-63 152.52,-63 144.11,-63"/>
<polygon fill="#63b8ff" stroke="#63b8ff" points="169.87,-66.5 179.87,-63 169.87,-59.5 169.87,-66.5"/>
</a>
</g>
</g>
<!-- Node4 -->
<g id="Node000004" class="node">
<title>Node4</title>
<g id="a_Node000004"><a xlink:href="classcam_1_1nc_1_1iso_1_1Creator.html#a94ebb21d1db6f13b80e1679559360ecf" target="_top" xlink:title=" ">
<polygon fill="white" stroke="#666666" points="134.5,-30 9.5,-30 9.5,0 134.5,0 134.5,-30"/>
<text text-anchor="start" x="17.5" y="-18" font-family="Helvetica,sans-Serif" font-size="10.00">cam.nc.iso.Creator.set</text>
<text text-anchor="middle" x="72" y="-7" font-family="Helvetica,sans-Serif" font-size="10.00">_plane</text>
</a>
</g>
</g>
<!-- Node1&#45;&gt;Node4 -->
<g id="edge3_Node000001_Node000004" class="edge">
<title>Node1&#45;&gt;Node4</title>
<g id="a_edge3_Node000001_Node000004"><a xlink:title=" ">
<path fill="none" stroke="#63b8ff" d="M212.41,-50.88C187.85,-44.56 157.58,-36.77 131.53,-30.06"/>
<polygon fill="#63b8ff" stroke="#63b8ff" points="211.65,-54.3 222.21,-53.4 213.4,-47.52 211.65,-54.3"/>
</a>
</g>
</g>
</g>
</svg>
