<?xml version="1.0" encoding="UTF-8" standalone="no"?>
<!DOCTYPE svg PUBLIC "-//W3C//DTD SVG 1.1//EN"
 "http://www.w3.org/Graphics/SVG/1.1/DTD/svg11.dtd">
<!-- Generated by graphviz version 2.43.0 (0)
 -->
<!-- Title: cam.nc.iso.Creator.A Pages: 1 -->
<!--zoomable 1022 -->

<svg id="main" version="1.1" xmlns="http://www.w3.org/2000/svg" xmlns:xlink="http://www.w3.org/1999/xlink" xml:space="preserve" onload="init(evt)">
<style type="text/css"><![CDATA[
.node, .edge {opacity: 0.7;}
.node.selected, .edge.selected {opacity: 1;}
.edge:hover path { stroke: red; }
.edge:hover polygon { stroke: red; fill: red; }
]]></style>

<defs>
  <circle id="rim" cx="0" cy="0" r="7"/>
  <circle id="rim2" cx="0" cy="0" r="3.5"/>
  <g id="zoomPlus">
    <use xlink:href="#rim" fill="#404040"><set attributeName="fill" to="#808080" begin="zoomplus.mouseover" end="zoomplus.mouseout"/></use>
    <path d="M-4,0h8M0,-4v8" fill="none" stroke="white" stroke-width="1.5" pointer-events="none"/>
  </g>
  <g id="zoomMin">
    <use xlink:href="#rim" fill="#404040"><set attributeName="fill" to="#808080" begin="zoomminus.mouseover" end="zoomminus.mouseout"/></use>
    <path d="M-4,0h8" fill="none" stroke="white" stroke-width="1.5" pointer-events="none"/>
  </g>
  <g id="arrowUp" transform="translate(30 24)">
    <use xlink:href="#rim"/>
    <path pointer-events="none" fill="none" stroke="white" stroke-width="1.5" d="M0,-3.0v7 M-2.5,-0.5L0,-3.0L2.5,-0.5"/>
  </g>
  <g id="arrowRight" transform="rotate(90) translate(36 -43)">
    <use xlink:href="#rim"/>
    <path pointer-events="none" fill="none" stroke="white" stroke-width="1.5" d="M0,-3.0v7 M-2.5,-0.5L0,-3.0L2.5,-0.5"/>
  </g>
  <g id="arrowDown" transform="rotate(180) translate(-30 -48)">
    <use xlink:href="#rim"/>
    <path pointer-events="none" fill="none" stroke="white" stroke-width="1.5" d="M0,-3.0v7 M-2.5,-0.5L0,-3.0L2.5,-0.5"/>
  </g>
  <g id="arrowLeft" transform="rotate(270) translate(-36 17)">
    <use xlink:href="#rim"/>
    <path pointer-events="none" fill="none" stroke="white" stroke-width="1.5" d="M0,-3.0v7 M-2.5,-0.5L0,-3.0L2.5,-0.5"/>
  </g>
  <g id="resetDef">
    <use xlink:href="#rim2" fill="#404040"><set attributeName="fill" to="#808080" begin="reset.mouseover" end="reset.mouseout"/></use>
  </g>
</defs>
<script type="application/ecmascript">
var viewWidth = 940;
var viewHeight = 1022;
var sectionId = 'dynsection-2';
</script>
<script type="application/ecmascript" xlink:href="svg.min.js"/>
<svg id="graph" class="graph">
<g id="viewport">
<title>cam.nc.iso.Creator.A</title>
<!-- Node1 -->
<g id="Node000001" class="node">
<title>Node1</title>
<g id="a_Node000001"><a xlink:title=" ">
<polygon fill="#999999" stroke="#666666" points="932,-232.21 815,-232.21 815,-213.21 932,-213.21 932,-232.21"/>
<text text-anchor="middle" x="873.5" y="-220.21" font-family="Helvetica,sans-Serif" font-size="10.00">cam.nc.iso.Creator.A</text>
</a>
</g>
</g>
<!-- Node2 -->
<g id="Node000002" class="node">
<title>Node2</title>
<g id="a_Node000002"><a xlink:href="classcam_1_1nc_1_1iso_1_1Creator.html#ad072e258b3de2c4fa8b1033f28d67bbb" target="_top" xlink:title=" ">
<polygon fill="white" stroke="#666666" points="768,-350.21 636,-350.21 636,-331.21 768,-331.21 768,-350.21"/>
<text text-anchor="middle" x="702" y="-338.21" font-family="Helvetica,sans-Serif" font-size="10.00">cam.nc.iso.Creator.feed</text>
</a>
</g>
</g>
<!-- Node1&#45;&gt;Node2 -->
<g id="edge1_Node000001_Node000002" class="edge">
<title>Node1&#45;&gt;Node2</title>
<g id="a_edge1_Node000001_Node000002"><a xlink:title=" ">
<path fill="none" stroke="#63b8ff" d="M850.38,-238.11C814.97,-262.76 746.53,-310.4 717.06,-330.92"/>
<polygon fill="#63b8ff" stroke="#63b8ff" points="852.42,-240.95 858.63,-232.36 848.42,-235.2 852.42,-240.95"/>
</a>
</g>
</g>
<!-- Node25 -->
<g id="Node000025" class="node">
<title>Node25</title>
<g id="a_Node000025"><a xlink:href="classcam_1_1nc_1_1heiden_1_1Creator.html#a2262faed4f078201d3fab4c023d3e1d2" target="_top" xlink:title="Moves.">
<polygon fill="white" stroke="#666666" points="779,-190.21 625,-190.21 625,-171.21 779,-171.21 779,-190.21"/>
<text text-anchor="middle" x="702" y="-178.21" font-family="Helvetica,sans-Serif" font-size="10.00">cam.nc.heiden.Creator.rapid</text>
</a>
</g>
</g>
<!-- Node1&#45;&gt;Node25 -->
<g id="edge46_Node000001_Node000025" class="edge">
<title>Node1&#45;&gt;Node25</title>
<g id="a_edge46_Node000001_Node000025"><a xlink:title=" ">
<path fill="none" stroke="#63b8ff" d="M824.31,-210.77C798.11,-204.27 766.14,-196.35 741.6,-190.27"/>
<polygon fill="#63b8ff" stroke="#63b8ff" points="823.49,-214.17 834.04,-213.18 825.17,-207.37 823.49,-214.17"/>
</a>
</g>
</g>
<!-- Node30 -->
<g id="Node000030" class="node">
<title>Node30</title>
<g id="a_Node000030"><a xlink:href="classcam_1_1nc_1_1iso_1_1Creator.html#a64bd7544d638558d278746433d3855d6" target="_top" xlink:title="Moves.">
<polygon fill="white" stroke="#666666" points="769.5,-232.21 634.5,-232.21 634.5,-213.21 769.5,-213.21 769.5,-232.21"/>
<text text-anchor="middle" x="702" y="-220.21" font-family="Helvetica,sans-Serif" font-size="10.00">cam.nc.iso.Creator.rapid</text>
</a>
</g>
</g>
<!-- Node1&#45;&gt;Node30 -->
<g id="edge56_Node000001_Node000030" class="edge">
<title>Node1&#45;&gt;Node30</title>
<g id="a_edge56_Node000001_Node000030"><a xlink:title=" ">
<path fill="none" stroke="#63b8ff" d="M804.64,-222.71C793.11,-222.71 781.14,-222.71 769.64,-222.71"/>
<polygon fill="#63b8ff" stroke="#63b8ff" points="804.64,-226.21 814.64,-222.71 804.64,-219.21 804.64,-226.21"/>
</a>
</g>
</g>
<!-- Node3 -->
<g id="Node000003" class="node">
<title>Node3</title>
<g id="a_Node000003"><a xlink:href="classcam_1_1nc_1_1heiden_1_1Creator.html#a78c90cc7cedad79ff356840b59527774" target="_top" xlink:title=" ">
<polygon fill="white" stroke="#666666" points="561.5,-655.21 417.5,-655.21 417.5,-636.21 561.5,-636.21 561.5,-655.21"/>
<text text-anchor="middle" x="489.5" y="-643.21" font-family="Helvetica,sans-Serif" font-size="10.00">cam.nc.heiden.Creator.arc</text>
</a>
</g>
</g>
<!-- Node2&#45;&gt;Node3 -->
<g id="edge2_Node000002_Node000003" class="edge">
<title>Node2&#45;&gt;Node3</title>
<g id="a_edge2_Node000002_Node000003"><a xlink:title=" ">
<path fill="none" stroke="#63b8ff" d="M691.57,-359.28C673.5,-394.23 631.98,-471.69 589,-531.71 559.46,-572.96 518.12,-617.16 499.84,-636.15"/>
<polygon fill="#63b8ff" stroke="#63b8ff" points="694.76,-360.72 696.21,-350.22 688.53,-357.52 694.76,-360.72"/>
</a>
</g>
</g>
<!-- Node4 -->
<g id="Node000004" class="node">
<title>Node4</title>
<g id="a_Node000004"><a xlink:href="classcam_1_1nc_1_1iso_1_1Creator.html#aed90658ba02dc4e25c565f6e3a70670d" target="_top" xlink:title=" ">
<polygon fill="white" stroke="#666666" points="354,-655.21 229,-655.21 229,-636.21 354,-636.21 354,-655.21"/>
<text text-anchor="middle" x="291.5" y="-643.21" font-family="Helvetica,sans-Serif" font-size="10.00">cam.nc.iso.Creator.arc</text>
</a>
</g>
</g>
<!-- Node2&#45;&gt;Node4 -->
<g id="edge39_Node000002_Node000004" class="edge">
<title>Node2&#45;&gt;Node4</title>
<g id="a_edge39_Node000002_Node000004"><a xlink:title=" ">
<path fill="none" stroke="#63b8ff" d="M679.77,-356.56C606.28,-411.43 364.04,-592.29 305.38,-636.09"/>
<polygon fill="#63b8ff" stroke="#63b8ff" points="681.95,-359.3 687.87,-350.51 677.76,-353.69 681.95,-359.3"/>
</a>
</g>
</g>
<!-- Node21 -->
<g id="Node000021" class="node">
<title>Node21</title>
<g id="a_Node000021"><a xlink:href="classcam_1_1nc_1_1heiden_1_1Creator.html#ab1ba24f0b927edab5d70c6642ceacfc4" target="_top" xlink:title=" ">
<polygon fill="white" stroke="#666666" points="563.5,-350.21 415.5,-350.21 415.5,-331.21 563.5,-331.21 563.5,-350.21"/>
<text text-anchor="middle" x="489.5" y="-338.21" font-family="Helvetica,sans-Serif" font-size="10.00">cam.nc.heiden.Creator.drill</text>
</a>
</g>
</g>
<!-- Node2&#45;&gt;Node21 -->
<g id="edge40_Node000002_Node000021" class="edge">
<title>Node2&#45;&gt;Node21</title>
<g id="a_edge40_Node000002_Node000021"><a xlink:title=" ">
<path fill="none" stroke="#63b8ff" d="M625.77,-340.71C605.61,-340.71 583.85,-340.71 563.8,-340.71"/>
<polygon fill="#63b8ff" stroke="#63b8ff" points="625.84,-344.21 635.84,-340.71 625.84,-337.21 625.84,-344.21"/>
</a>
</g>
</g>
<!-- Node22 -->
<g id="Node000022" class="node">
<title>Node22</title>
<g id="a_Node000022"><a xlink:href="classcam_1_1nc_1_1iso_1_1Creator.html#a61f29267aaaddc3d5c8471f9bf714cb3" target="_top" xlink:title=" ">
<polygon fill="white" stroke="#666666" points="554,-313.21 425,-313.21 425,-294.21 554,-294.21 554,-313.21"/>
<text text-anchor="middle" x="489.5" y="-301.21" font-family="Helvetica,sans-Serif" font-size="10.00">cam.nc.iso.Creator.drill</text>
</a>
</g>
</g>
<!-- Node2&#45;&gt;Node22 -->
<g id="edge42_Node000002_Node000022" class="edge">
<title>Node2&#45;&gt;Node22</title>
<g id="a_edge42_Node000002_Node000022"><a xlink:title=" ">
<path fill="none" stroke="#63b8ff" d="M636.64,-329.39C607.29,-324.24 572.92,-318.19 544.89,-313.27"/>
<polygon fill="#63b8ff" stroke="#63b8ff" points="636.34,-332.89 646.79,-331.18 637.55,-326 636.34,-332.89"/>
</a>
</g>
</g>
<!-- Node23 -->
<g id="Node000023" class="node">
<title>Node23</title>
<g id="a_Node000023"><a xlink:href="classcam_1_1nc_1_1heiden_1_1Creator.html#a921825a14a9068d234377d7ac3b7777f" target="_top" xlink:title=" ">
<polygon fill="white" stroke="#666666" points="568,-237.71 411,-237.71 411,-207.71 568,-207.71 568,-237.71"/>
<text text-anchor="start" x="419" y="-225.71" font-family="Helvetica,sans-Serif" font-size="10.00">cam.nc.heiden.Creator.probe</text>
<text text-anchor="middle" x="489.5" y="-214.71" font-family="Helvetica,sans-Serif" font-size="10.00">_single_point</text>
</a>
</g>
</g>
<!-- Node2&#45;&gt;Node23 -->
<g id="edge44_Node000002_Node000023" class="edge">
<title>Node2&#45;&gt;Node23</title>
<g id="a_edge44_Node000002_Node000023"><a xlink:title=" ">
<path fill="none" stroke="#63b8ff" d="M674.84,-326.04C634.64,-303.51 558.05,-260.57 517.4,-237.79"/>
<polygon fill="#63b8ff" stroke="#63b8ff" points="673.34,-329.21 683.77,-331.05 676.76,-323.11 673.34,-329.21"/>
</a>
</g>
</g>
<!-- Node24 -->
<g id="Node000024" class="node">
<title>Node24</title>
<g id="a_Node000024"><a xlink:href="classcam_1_1nc_1_1iso_1_1Creator.html#adc5343ffd168991077858693d6a79fef" target="_top" xlink:title=" ">
<polygon fill="white" stroke="#666666" points="558.5,-398.71 420.5,-398.71 420.5,-368.71 558.5,-368.71 558.5,-398.71"/>
<text text-anchor="start" x="428.5" y="-386.71" font-family="Helvetica,sans-Serif" font-size="10.00">cam.nc.iso.Creator.probe</text>
<text text-anchor="middle" x="489.5" y="-375.71" font-family="Helvetica,sans-Serif" font-size="10.00">_single_point</text>
</a>
</g>
</g>
<!-- Node2&#45;&gt;Node24 -->
<g id="edge45_Node000002_Node000024" class="edge">
<title>Node2&#45;&gt;Node24</title>
<g id="a_edge45_Node000002_Node000024"><a xlink:title=" ">
<path fill="none" stroke="#63b8ff" d="M644.44,-352.26C618.03,-357.66 586.38,-364.12 558.66,-369.78"/>
<polygon fill="#63b8ff" stroke="#63b8ff" points="645.19,-355.68 654.28,-350.25 643.79,-348.82 645.19,-355.68"/>
</a>
</g>
</g>
<!-- Node3&#45;&gt;Node3 -->
<g id="edge3_Node000003_Node000003" class="edge">
<title>Node3&#45;&gt;Node3</title>
<g id="a_edge3_Node000003_Node000003"><a xlink:title=" ">
<path fill="none" stroke="#63b8ff" d="M526.62,-662.9C526.62,-668.63 514.24,-673.21 489.5,-673.21 454.31,-673.21 444.14,-663.94 458.98,-655.29"/>
<polygon fill="#63b8ff" stroke="#63b8ff" points="529.22,-660.55 520.02,-655.29 523.93,-665.13 529.22,-660.55"/>
</a>
</g>
</g>
<!-- Node3&#45;&gt;Node4 -->
<g id="edge4_Node000003_Node000004" class="edge">
<title>Node3&#45;&gt;Node4</title>
<g id="a_edge4_Node000003_Node000004"><a xlink:title=" ">
<path fill="none" stroke="#63b8ff" d="M407.15,-639.04C389.45,-638.86 371.01,-638.97 354.23,-639.39"/>
<polygon fill="#63b8ff" stroke="#63b8ff" points="407.41,-642.55 417.46,-639.19 407.51,-635.55 407.41,-642.55"/>
</a>
</g>
</g>
<!-- Node5 -->
<g id="Node000005" class="node">
<title>Node5</title>
<g id="a_Node000005"><a xlink:href="classcam_1_1nc_1_1heiden_1_1Creator.html#a7c0262bb6935f21773e134b851cbff38" target="_top" xlink:title=" ">
<polygon fill="white" stroke="#666666" points="180.5,-652.21 12.5,-652.21 12.5,-633.21 180.5,-633.21 180.5,-652.21"/>
<text text-anchor="middle" x="96.5" y="-640.21" font-family="Helvetica,sans-Serif" font-size="10.00">cam.nc.heiden.Creator.arc_ccw</text>
</a>
</g>
</g>
<!-- Node3&#45;&gt;Node5 -->
<g id="edge23_Node000003_Node000005" class="edge">
<title>Node3&#45;&gt;Node5</title>
<g id="a_edge23_Node000003_Node000005"><a xlink:title=" ">
<path fill="none" stroke="#63b8ff" d="M419.92,-634.74C398.84,-631.85 375.51,-629.14 354,-627.71 298.57,-624.01 284.47,-624.55 229,-627.71 209.16,-628.83 187.71,-630.91 168.01,-633.17"/>
<polygon fill="#63b8ff" stroke="#63b8ff" points="419.69,-638.24 430.08,-636.17 420.66,-631.31 419.69,-638.24"/>
</a>
</g>
</g>
<!-- Node6 -->
<g id="Node000006" class="node">
<title>Node6</title>
<g id="a_Node000006"><a xlink:href="classcam_1_1nc_1_1hpgl2d_1_1Creator.html#ae869adedb7242daa7c1b42302c182896" target="_top" xlink:title=" ">
<polygon fill="white" stroke="#666666" points="180.5,-613.21 12.5,-613.21 12.5,-594.21 180.5,-594.21 180.5,-613.21"/>
<text text-anchor="middle" x="96.5" y="-601.21" font-family="Helvetica,sans-Serif" font-size="10.00">cam.nc.hpgl2d.Creator.arc_ccw</text>
</a>
</g>
</g>
<!-- Node3&#45;&gt;Node6 -->
<g id="edge24_Node000003_Node000006" class="edge">
<title>Node3&#45;&gt;Node6</title>
<g id="a_edge24_Node000003_Node000006"><a xlink:title=" ">
<path fill="none" stroke="#63b8ff" d="M434.66,-634.2C410.15,-629.35 380.72,-624.06 354,-620.71 296.32,-613.46 230.94,-609.19 180.62,-606.74"/>
<polygon fill="#63b8ff" stroke="#63b8ff" points="433.99,-637.64 444.48,-636.17 435.37,-630.77 433.99,-637.64"/>
</a>
</g>
</g>
<!-- Node7 -->
<g id="Node000007" class="node">
<title>Node7</title>
<g id="a_Node000007"><a xlink:href="classcam_1_1nc_1_1iso_1_1Creator.html#a73623b6caaf8efee669803ee57ca97a9" target="_top" xlink:title=" ">
<polygon fill="white" stroke="#666666" points="171,-572.21 22,-572.21 22,-553.21 171,-553.21 171,-572.21"/>
<text text-anchor="middle" x="96.5" y="-560.21" font-family="Helvetica,sans-Serif" font-size="10.00">cam.nc.iso.Creator.arc_ccw</text>
</a>
</g>
</g>
<!-- Node3&#45;&gt;Node7 -->
<g id="edge25_Node000003_Node000007" class="edge">
<title>Node3&#45;&gt;Node7</title>
<g id="a_edge25_Node000003_Node000007"><a xlink:title=" ">
<path fill="none" stroke="#63b8ff" d="M450.44,-633.02C423.69,-624.45 386.94,-613.33 354,-605.71 291.98,-591.34 220.46,-579.76 168.73,-572.25"/>
<polygon fill="#63b8ff" stroke="#63b8ff" points="449.58,-636.43 460.17,-636.17 451.74,-629.77 449.58,-636.43"/>
</a>
</g>
</g>
<!-- Node8 -->
<g id="Node000008" class="node">
<title>Node8</title>
<g id="a_Node000008"><a xlink:href="classcam_1_1nc_1_1lathe1_1_1CreatorIso.html#a9eae946df7fc34b9a46e33a00d891c3d" target="_top" xlink:title=" ">
<polygon fill="white" stroke="#666666" points="187,-526.21 6,-526.21 6,-507.21 187,-507.21 187,-526.21"/>
<text text-anchor="middle" x="96.5" y="-514.21" font-family="Helvetica,sans-Serif" font-size="10.00">cam.nc.lathe1.CreatorIso.arc_ccw</text>
</a>
</g>
</g>
<!-- Node3&#45;&gt;Node8 -->
<g id="edge26_Node000003_Node000008" class="edge">
<title>Node3&#45;&gt;Node8</title>
<g id="a_edge26_Node000003_Node000008"><a xlink:title=" ">
<path fill="none" stroke="#63b8ff" d="M463.56,-630.85C437.14,-615.66 393.83,-592.28 354,-577.71 287.16,-553.25 206.88,-536 154.15,-526.22"/>
<polygon fill="#63b8ff" stroke="#63b8ff" points="462.09,-634.05 472.49,-636.05 465.61,-627.99 462.09,-634.05"/>
</a>
</g>
</g>
<!-- Node9 -->
<g id="Node000009" class="node">
<title>Node9</title>
<g id="a_Node000009"><a xlink:href="classcam_1_1nc_1_1makerbotHBP_1_1CreatorMakerbotHBP.html#aa7b30248f278113e0c9a324820824941" target="_top" xlink:title=" ">
<polygon fill="white" stroke="#666666" points="176,-470.71 17,-470.71 17,-440.71 176,-440.71 176,-470.71"/>
<text text-anchor="start" x="25" y="-458.71" font-family="Helvetica,sans-Serif" font-size="10.00">cam.nc.makerbotHBP.Creator</text>
<text text-anchor="middle" x="96.5" y="-447.71" font-family="Helvetica,sans-Serif" font-size="10.00">MakerbotHBP.arc_ccw</text>
</a>
</g>
</g>
<!-- Node3&#45;&gt;Node9 -->
<g id="edge27_Node000003_Node000009" class="edge">
<title>Node3&#45;&gt;Node9</title>
<g id="a_edge27_Node000003_Node000009"><a xlink:title=" ">
<path fill="none" stroke="#63b8ff" d="M471.68,-628.72C447.58,-605.24 400.93,-562.92 354,-537.71 294.69,-505.85 220.95,-483.88 167.77,-470.76"/>
<polygon fill="#63b8ff" stroke="#63b8ff" points="469.39,-631.37 478.96,-635.91 474.31,-626.39 469.39,-631.37"/>
</a>
</g>
</g>
<!-- Node10 -->
<g id="Node000010" class="node">
<title>Node10</title>
<g id="a_Node000010"><a xlink:href="classcam_1_1nc_1_1recreator_1_1Redirector.html#a50bb4fcb175a9c87e1cf45a79cd54ff1" target="_top" xlink:title=" ">
<polygon fill="white" stroke="#666666" points="193,-1014.21 0,-1014.21 0,-995.21 193,-995.21 193,-1014.21"/>
<text text-anchor="middle" x="96.5" y="-1002.21" font-family="Helvetica,sans-Serif" font-size="10.00">cam.nc.recreator.Redirector.arc_ccw</text>
</a>
</g>
</g>
<!-- Node3&#45;&gt;Node10 -->
<g id="edge28_Node000003_Node000010" class="edge">
<title>Node3&#45;&gt;Node10</title>
<g id="a_edge28_Node000003_Node000010"><a xlink:title=" ">
<path fill="none" stroke="#63b8ff" d="M485.37,-665.44C475.92,-718.42 442.65,-864.85 354,-940.71 309.62,-978.68 245.99,-994.71 193.2,-1001.24"/>
<polygon fill="#63b8ff" stroke="#63b8ff" points="488.86,-665.8 487.08,-655.36 481.96,-664.63 488.86,-665.8"/>
</a>
</g>
</g>
<!-- Node11 -->
<g id="Node000011" class="node">
<title>Node11</title>
<g id="a_Node000011"><a xlink:href="classcam_1_1nc_1_1rez2_1_1Creator.html#a7a7b089cf338846799311b5b1193a566" target="_top" xlink:title=" ">
<polygon fill="white" stroke="#666666" points="174.5,-976.21 18.5,-976.21 18.5,-957.21 174.5,-957.21 174.5,-976.21"/>
<text text-anchor="middle" x="96.5" y="-964.21" font-family="Helvetica,sans-Serif" font-size="10.00">cam.nc.rez2.Creator.arc_ccw</text>
</a>
</g>
</g>
<!-- Node3&#45;&gt;Node11 -->
<g id="edge29_Node000003_Node000011" class="edge">
<title>Node3&#45;&gt;Node11</title>
<g id="a_edge29_Node000003_Node000011"><a xlink:title=" ">
<path fill="none" stroke="#63b8ff" d="M483.84,-665.23C471.42,-712.94 432.96,-836.23 354,-900.71 303.42,-942 230.04,-957.79 174.7,-963.67"/>
<polygon fill="#63b8ff" stroke="#63b8ff" points="487.29,-665.84 486.33,-655.29 480.5,-664.13 487.29,-665.84"/>
</a>
</g>
</g>
<!-- Node12 -->
<g id="Node000012" class="node">
<title>Node12</title>
<g id="a_Node000012"><a xlink:href="classcam_1_1nc_1_1heiden_1_1Creator.html#afffaa9e4bad9251bb67ff287f47accda" target="_top" xlink:title=" ">
<polygon fill="white" stroke="#666666" points="178,-938.21 15,-938.21 15,-919.21 178,-919.21 178,-938.21"/>
<text text-anchor="middle" x="96.5" y="-926.21" font-family="Helvetica,sans-Serif" font-size="10.00">cam.nc.heiden.Creator.arc_cw</text>
</a>
</g>
</g>
<!-- Node3&#45;&gt;Node12 -->
<g id="edge30_Node000003_Node000012" class="edge">
<title>Node3&#45;&gt;Node12</title>
<g id="a_edge30_Node000003_Node000012"><a xlink:title=" ">
<path fill="none" stroke="#63b8ff" d="M481.74,-665.2C466.12,-707.37 423.45,-807.51 354,-860.71 303.44,-899.43 232.68,-916.17 178.29,-923.36"/>
<polygon fill="#63b8ff" stroke="#63b8ff" points="485.11,-666.17 485.2,-655.58 478.52,-663.8 485.11,-666.17"/>
</a>
</g>
</g>
<!-- Node13 -->
<g id="Node000013" class="node">
<title>Node13</title>
<g id="a_Node000013"><a xlink:href="classcam_1_1nc_1_1hpgl2d_1_1Creator.html#ae23fc4d361aa6de768d74b18324bae53" target="_top" xlink:title=" ">
<polygon fill="white" stroke="#666666" points="178,-900.21 15,-900.21 15,-881.21 178,-881.21 178,-900.21"/>
<text text-anchor="middle" x="96.5" y="-888.21" font-family="Helvetica,sans-Serif" font-size="10.00">cam.nc.hpgl2d.Creator.arc_cw</text>
</a>
</g>
</g>
<!-- Node3&#45;&gt;Node13 -->
<g id="edge31_Node000003_Node000013" class="edge">
<title>Node3&#45;&gt;Node13</title>
<g id="a_edge31_Node000003_Node000013"><a xlink:title=" ">
<path fill="none" stroke="#63b8ff" d="M479.4,-664.42C460.9,-700.52 415.38,-779.97 354,-822.71 302.01,-858.9 231.88,-875.83 178.08,-883.75"/>
<polygon fill="#63b8ff" stroke="#63b8ff" points="482.55,-665.96 483.9,-655.45 476.29,-662.82 482.55,-665.96"/>
</a>
</g>
</g>
<!-- Node14 -->
<g id="Node000014" class="node">
<title>Node14</title>
<g id="a_Node000014"><a xlink:href="classcam_1_1nc_1_1iso_1_1Creator.html#a334d38752a57cd7745f9361d583c68f6" target="_top" xlink:title=" ">
<polygon fill="white" stroke="#666666" points="168.5,-862.21 24.5,-862.21 24.5,-843.21 168.5,-843.21 168.5,-862.21"/>
<text text-anchor="middle" x="96.5" y="-850.21" font-family="Helvetica,sans-Serif" font-size="10.00">cam.nc.iso.Creator.arc_cw</text>
</a>
</g>
</g>
<!-- Node3&#45;&gt;Node14 -->
<g id="edge32_Node000003_Node000014" class="edge">
<title>Node3&#45;&gt;Node14</title>
<g id="a_edge32_Node000003_Node000014"><a xlink:title=" ">
<path fill="none" stroke="#63b8ff" d="M476.07,-663.73C454.62,-693.52 407.72,-752.95 354,-785.71 297.22,-820.33 222.81,-837.22 168.77,-845.35"/>
<polygon fill="#63b8ff" stroke="#63b8ff" points="478.98,-665.69 481.9,-655.51 473.26,-661.65 478.98,-665.69"/>
</a>
</g>
</g>
<!-- Node15 -->
<g id="Node000015" class="node">
<title>Node15</title>
<g id="a_Node000015"><a xlink:href="classcam_1_1nc_1_1lathe1_1_1CreatorIso.html#ae2f7d7587f9940cf9534e127f7234c4c" target="_top" xlink:title=" ">
<polygon fill="white" stroke="#666666" points="184.5,-824.21 8.5,-824.21 8.5,-805.21 184.5,-805.21 184.5,-824.21"/>
<text text-anchor="middle" x="96.5" y="-812.21" font-family="Helvetica,sans-Serif" font-size="10.00">cam.nc.lathe1.CreatorIso.arc_cw</text>
</a>
</g>
</g>
<!-- Node3&#45;&gt;Node15 -->
<g id="edge33_Node000003_Node000015" class="edge">
<title>Node3&#45;&gt;Node15</title>
<g id="a_edge33_Node000003_Node000015"><a xlink:title=" ">
<path fill="none" stroke="#63b8ff" d="M471.78,-662.68C447.8,-686.07 401.29,-728.03 354,-751.71 296.9,-780.3 226.03,-796.42 173.26,-805.19"/>
<polygon fill="#63b8ff" stroke="#63b8ff" points="474.38,-665.03 479.02,-655.51 469.45,-660.06 474.38,-665.03"/>
</a>
</g>
</g>
<!-- Node16 -->
<g id="Node000016" class="node">
<title>Node16</title>
<g id="a_Node000016"><a xlink:href="classcam_1_1nc_1_1makerbotHBP_1_1CreatorMakerbotHBP.html#a2cf899fa0839287bdca94b6207c078d6" target="_top" xlink:title=" ">
<polygon fill="white" stroke="#666666" points="176,-785.71 17,-785.71 17,-755.71 176,-755.71 176,-785.71"/>
<text text-anchor="start" x="25" y="-773.71" font-family="Helvetica,sans-Serif" font-size="10.00">cam.nc.makerbotHBP.Creator</text>
<text text-anchor="middle" x="96.5" y="-762.71" font-family="Helvetica,sans-Serif" font-size="10.00">MakerbotHBP.arc_cw</text>
</a>
</g>
</g>
<!-- Node3&#45;&gt;Node16 -->
<g id="edge34_Node000003_Node000016" class="edge">
<title>Node3&#45;&gt;Node16</title>
<g id="a_edge34_Node000003_Node000016"><a xlink:title=" ">
<path fill="none" stroke="#63b8ff" d="M466.87,-661.16C441.18,-678.76 396.47,-707.09 354,-722.71 296.39,-743.9 227.9,-756.1 176.2,-762.9"/>
<polygon fill="#63b8ff" stroke="#63b8ff" points="468.91,-664 475.12,-655.42 464.91,-658.26 468.91,-664"/>
</a>
</g>
</g>
<!-- Node17 -->
<g id="Node000017" class="node">
<title>Node17</title>
<g id="a_Node000017"><a xlink:href="classcam_1_1nc_1_1recreator_1_1Redirector.html#a54adbf876611896e0d8d530766a18964" target="_top" xlink:title=" ">
<polygon fill="white" stroke="#666666" points="190.5,-735.21 2.5,-735.21 2.5,-716.21 190.5,-716.21 190.5,-735.21"/>
<text text-anchor="middle" x="96.5" y="-723.21" font-family="Helvetica,sans-Serif" font-size="10.00">cam.nc.recreator.Redirector.arc_cw</text>
</a>
</g>
</g>
<!-- Node3&#45;&gt;Node17 -->
<g id="edge35_Node000003_Node000017" class="edge">
<title>Node3&#45;&gt;Node17</title>
<g id="a_edge35_Node000003_Node000017"><a xlink:title=" ">
<path fill="none" stroke="#63b8ff" d="M460.34,-659.73C433.65,-672.36 392.08,-690.33 354,-699.71 300.76,-712.81 239.74,-719.33 190.58,-722.56"/>
<polygon fill="#63b8ff" stroke="#63b8ff" points="461.97,-662.83 469.47,-655.34 458.94,-656.52 461.97,-662.83"/>
</a>
</g>
</g>
<!-- Node18 -->
<g id="Node000018" class="node">
<title>Node18</title>
<g id="a_Node000018"><a xlink:href="classcam_1_1nc_1_1rez2_1_1Creator.html#a96f30401310d0198de3d2d55da86510f" target="_top" xlink:title=" ">
<polygon fill="white" stroke="#666666" points="172,-695.21 21,-695.21 21,-676.21 172,-676.21 172,-695.21"/>
<text text-anchor="middle" x="96.5" y="-683.21" font-family="Helvetica,sans-Serif" font-size="10.00">cam.nc.rez2.Creator.arc_cw</text>
</a>
</g>
</g>
<!-- Node3&#45;&gt;Node18 -->
<g id="edge36_Node000003_Node000018" class="edge">
<title>Node3&#45;&gt;Node18</title>
<g id="a_edge36_Node000003_Node000018"><a xlink:title=" ">
<path fill="none" stroke="#63b8ff" d="M452.18,-658.43C425.41,-667.13 387.92,-677.92 354,-682.71 293.25,-691.27 223.62,-691.49 172.24,-689.86"/>
<polygon fill="#63b8ff" stroke="#63b8ff" points="453.49,-661.68 461.88,-655.22 451.29,-655.04 453.49,-661.68"/>
</a>
</g>
</g>
<!-- Node19 -->
<g id="Node000019" class="node">
<title>Node19</title>
<g id="a_Node000019"><a xlink:href="classcam_1_1nc_1_1cad__iso__read_1_1Parser.html#abf885d019794a8bef1b69f446c8851e1" target="_top" xlink:title=" ">
<polygon fill="white" stroke="#666666" points="173.5,-389.71 19.5,-389.71 19.5,-359.71 173.5,-359.71 173.5,-389.71"/>
<text text-anchor="start" x="27.5" y="-377.71" font-family="Helvetica,sans-Serif" font-size="10.00">cam.nc.cad_iso_read.Parser.</text>
<text text-anchor="middle" x="96.5" y="-366.71" font-family="Helvetica,sans-Serif" font-size="10.00">Parse</text>
</a>
</g>
</g>
<!-- Node3&#45;&gt;Node19 -->
<g id="edge37_Node000003_Node000019" class="edge">
<title>Node3&#45;&gt;Node19</title>
<g id="a_edge37_Node000003_Node000019"><a xlink:title=" ">
<path fill="none" stroke="#63b8ff" d="M477.47,-627.34C456.93,-594.49 409.78,-525.23 354,-483.71 291.99,-437.56 207.49,-406.56 152.72,-389.77"/>
<polygon fill="#63b8ff" stroke="#63b8ff" points="474.54,-629.26 482.76,-635.94 480.51,-625.59 474.54,-629.26"/>
</a>
</g>
</g>
<!-- Node20 -->
<g id="Node000020" class="node">
<title>Node20</title>
<g id="a_Node000020"><a xlink:href="classcam_1_1nc_1_1heiden__read_1_1Parser.html#a9c64dcddf3c2c0d3248079dde5314cfe" target="_top" xlink:title=" ">
<polygon fill="white" stroke="#666666" points="171.5,-327.71 21.5,-327.71 21.5,-297.71 171.5,-297.71 171.5,-327.71"/>
<text text-anchor="start" x="29.5" y="-315.71" font-family="Helvetica,sans-Serif" font-size="10.00">cam.nc.heiden_read.Parser.</text>
<text text-anchor="middle" x="96.5" y="-304.71" font-family="Helvetica,sans-Serif" font-size="10.00">Parsey</text>
</a>
</g>
</g>
<!-- Node3&#45;&gt;Node20 -->
<g id="edge38_Node000003_Node000020" class="edge">
<title>Node3&#45;&gt;Node20</title>
<g id="a_edge38_Node000003_Node000020"><a xlink:title=" ">
<path fill="none" stroke="#63b8ff" d="M482.11,-626.11C466.88,-582.25 424.34,-475.29 354,-414.71 300.99,-369.05 225.01,-342.29 169.51,-327.73"/>
<polygon fill="#63b8ff" stroke="#63b8ff" points="478.88,-627.48 485.4,-635.83 485.51,-625.24 478.88,-627.48"/>
</a>
</g>
</g>
<!-- Node4&#45;&gt;Node3 -->
<g id="edge5_Node000004_Node000003" class="edge">
<title>Node4&#45;&gt;Node3</title>
<g id="a_edge5_Node000004_Node000003"><a xlink:title=" ">
<path fill="none" stroke="#63b8ff" d="M364.28,-652.24C381.63,-652.53 400.15,-652.53 417.46,-652.22"/>
<polygon fill="#63b8ff" stroke="#63b8ff" points="364.3,-648.74 354.23,-652.03 364.15,-655.74 364.3,-648.74"/>
</a>
</g>
</g>
<!-- Node4&#45;&gt;Node4 -->
<g id="edge6_Node000004_Node000004" class="edge">
<title>Node4&#45;&gt;Node4</title>
<g id="a_edge6_Node000004_Node000004"><a xlink:title=" ">
<path fill="none" stroke="#63b8ff" d="M327.86,-663.28C327.32,-668.83 315.21,-673.21 291.5,-673.21 257.02,-673.21 247.05,-663.94 261.6,-655.29"/>
<polygon fill="#63b8ff" stroke="#63b8ff" points="330.41,-660.87 321.4,-655.29 324.96,-665.27 330.41,-660.87"/>
</a>
</g>
</g>
<!-- Node4&#45;&gt;Node5 -->
<g id="edge7_Node000004_Node000005" class="edge">
<title>Node4&#45;&gt;Node5</title>
<g id="a_edge7_Node000004_Node000005"><a xlink:title=" ">
<path fill="none" stroke="#63b8ff" d="M218.66,-644.59C206.29,-644.4 193.34,-644.2 180.69,-644"/>
<polygon fill="#63b8ff" stroke="#63b8ff" points="218.85,-648.09 228.9,-644.75 218.96,-641.09 218.85,-648.09"/>
</a>
</g>
</g>
<!-- Node4&#45;&gt;Node6 -->
<g id="edge8_Node000004_Node000006" class="edge">
<title>Node4&#45;&gt;Node6</title>
<g id="a_edge8_Node000004_Node000006"><a xlink:title=" ">
<path fill="none" stroke="#63b8ff" d="M236.8,-634.02C206.76,-627.48 169.77,-619.43 141.46,-613.27"/>
<polygon fill="#63b8ff" stroke="#63b8ff" points="236.19,-637.47 246.71,-636.18 237.68,-630.63 236.19,-637.47"/>
</a>
</g>
</g>
<!-- Node4&#45;&gt;Node7 -->
<g id="edge9_Node000004_Node000007" class="edge">
<title>Node4&#45;&gt;Node7</title>
<g id="a_edge9_Node000004_Node000007"><a xlink:title=" ">
<path fill="none" stroke="#63b8ff" d="M269.73,-630.23C250.68,-616.7 221.2,-597.43 193,-585.71 179.46,-580.08 164.24,-575.63 149.99,-572.22"/>
<polygon fill="#63b8ff" stroke="#63b8ff" points="267.8,-633.15 277.96,-636.17 271.9,-627.48 267.8,-633.15"/>
</a>
</g>
</g>
<!-- Node4&#45;&gt;Node8 -->
<g id="edge10_Node000004_Node000008" class="edge">
<title>Node4&#45;&gt;Node8</title>
<g id="a_edge10_Node000004_Node000008"><a xlink:title=" ">
<path fill="none" stroke="#63b8ff" d="M277.82,-627.68C260.97,-605.05 229.1,-566.55 193,-544.71 179.4,-536.48 163.24,-530.55 148.12,-526.33"/>
<polygon fill="#63b8ff" stroke="#63b8ff" points="275.19,-630.01 283.9,-636.05 280.85,-625.9 275.19,-630.01"/>
</a>
</g>
</g>
<!-- Node4&#45;&gt;Node9 -->
<g id="edge11_Node000004_Node000009" class="edge">
<title>Node4&#45;&gt;Node9</title>
<g id="a_edge11_Node000004_Node000009"><a xlink:title=" ">
<path fill="none" stroke="#63b8ff" d="M282.35,-627C268.2,-596.46 236.41,-535.58 193,-498.71 179,-486.82 161.18,-477.62 144.74,-470.83"/>
<polygon fill="#63b8ff" stroke="#63b8ff" points="279.16,-628.45 286.46,-636.12 285.54,-625.57 279.16,-628.45"/>
</a>
</g>
</g>
<!-- Node4&#45;&gt;Node10 -->
<g id="edge12_Node000004_Node000010" class="edge">
<title>Node4&#45;&gt;Node10</title>
<g id="a_edge12_Node000004_Node000010"><a xlink:title=" ">
<path fill="none" stroke="#63b8ff" d="M287.55,-665.56C277.36,-731.41 241.59,-940.99 193,-985.71 188.9,-989.48 184.26,-992.6 179.3,-995.17"/>
<polygon fill="#63b8ff" stroke="#63b8ff" points="291.06,-665.73 289.1,-655.32 284.14,-664.68 291.06,-665.73"/>
</a>
</g>
</g>
<!-- Node4&#45;&gt;Node11 -->
<g id="edge13_Node000004_Node000011" class="edge">
<title>Node4&#45;&gt;Node11</title>
<g id="a_edge13_Node000004_Node000011"><a xlink:title=" ">
<path fill="none" stroke="#63b8ff" d="M290.53,-665.73C289.44,-720.12 278.49,-871.59 193,-947.71 187.57,-952.54 181.27,-956.29 174.55,-959.17"/>
<polygon fill="#63b8ff" stroke="#63b8ff" points="294.03,-665.43 290.63,-655.4 287.03,-665.36 294.03,-665.43"/>
</a>
</g>
</g>
<!-- Node4&#45;&gt;Node12 -->
<g id="edge14_Node000004_Node000012" class="edge">
<title>Node4&#45;&gt;Node12</title>
<g id="a_edge14_Node000004_Node000012"><a xlink:title=" ">
<path fill="none" stroke="#63b8ff" d="M289.48,-665.51C285.81,-715.01 269.02,-844.8 193,-909.71 188.5,-913.55 183.45,-916.7 178.07,-919.26"/>
<polygon fill="#63b8ff" stroke="#63b8ff" points="292.99,-665.43 290.14,-655.23 286.01,-664.99 292.99,-665.43"/>
</a>
</g>
</g>
<!-- Node4&#45;&gt;Node13 -->
<g id="edge15_Node000004_Node000013" class="edge">
<title>Node4&#45;&gt;Node13</title>
<g id="a_edge15_Node000004_Node000013"><a xlink:title=" ">
<path fill="none" stroke="#63b8ff" d="M288.14,-665.34C281.7,-709.67 259.64,-817.83 193,-871.71 188.27,-875.53 182.98,-878.66 177.38,-881.21"/>
<polygon fill="#63b8ff" stroke="#63b8ff" points="291.62,-665.67 289.48,-655.3 284.69,-664.74 291.62,-665.67"/>
</a>
</g>
</g>
<!-- Node4&#45;&gt;Node14 -->
<g id="edge16_Node000004_Node000014" class="edge">
<title>Node4&#45;&gt;Node14</title>
<g id="a_edge16_Node000004_Node000014"><a xlink:title=" ">
<path fill="none" stroke="#63b8ff" d="M286.26,-665.44C276.83,-704.3 250.25,-790.69 193,-833.71 185.84,-839.09 177.55,-843.06 168.9,-845.97"/>
<polygon fill="#63b8ff" stroke="#63b8ff" points="289.74,-665.94 288.57,-655.41 282.92,-664.37 289.74,-665.94"/>
</a>
</g>
</g>
<!-- Node4&#45;&gt;Node15 -->
<g id="edge17_Node000004_Node000015" class="edge">
<title>Node4&#45;&gt;Node15</title>
<g id="a_edge17_Node000004_Node000015"><a xlink:title=" ">
<path fill="none" stroke="#63b8ff" d="M283.63,-664.84C271.01,-697.1 240.95,-761.98 193,-794.71 186.7,-799 179.67,-802.41 172.35,-805.1"/>
<polygon fill="#63b8ff" stroke="#63b8ff" points="287,-665.84 287.24,-655.25 280.45,-663.37 287,-665.84"/>
</a>
</g>
</g>
<!-- Node4&#45;&gt;Node16 -->
<g id="edge18_Node000004_Node000016" class="edge">
<title>Node4&#45;&gt;Node16</title>
<g id="a_edge18_Node000004_Node000016"><a xlink:title=" ">
<path fill="none" stroke="#63b8ff" d="M277.8,-663.48C260.94,-685.77 229.05,-723.61 193,-744.71 185.73,-748.96 177.75,-752.54 169.59,-755.54"/>
<polygon fill="#63b8ff" stroke="#63b8ff" points="280.76,-665.36 283.89,-655.23 275.13,-661.2 280.76,-665.36"/>
</a>
</g>
</g>
<!-- Node4&#45;&gt;Node17 -->
<g id="edge19_Node000004_Node000017" class="edge">
<title>Node4&#45;&gt;Node17</title>
<g id="a_edge19_Node000004_Node000017"><a xlink:title=" ">
<path fill="none" stroke="#63b8ff" d="M269.43,-661.27C250.37,-674.64 221.07,-693.48 193,-704.71 181.1,-709.46 167.91,-713.24 155.23,-716.2"/>
<polygon fill="#63b8ff" stroke="#63b8ff" points="271.56,-664.04 277.67,-655.38 267.49,-658.35 271.56,-664.04"/>
</a>
</g>
</g>
<!-- Node4&#45;&gt;Node18 -->
<g id="edge20_Node000004_Node000018" class="edge">
<title>Node4&#45;&gt;Node18</title>
<g id="a_edge20_Node000004_Node000018"><a xlink:title=" ">
<path fill="none" stroke="#63b8ff" d="M234.31,-657.35C205.41,-663.34 170.62,-670.55 143.35,-676.2"/>
<polygon fill="#63b8ff" stroke="#63b8ff" points="235.19,-660.74 244.27,-655.29 233.77,-653.89 235.19,-660.74"/>
</a>
</g>
</g>
<!-- Node4&#45;&gt;Node19 -->
<g id="edge21_Node000004_Node000019" class="edge">
<title>Node4&#45;&gt;Node19</title>
<g id="a_edge21_Node000004_Node000019"><a xlink:title=" ">
<path fill="none" stroke="#63b8ff" d="M285.82,-626.1C275.32,-585.6 246.51,-491.49 193,-431.71 176.77,-413.58 153.39,-399.49 133.82,-389.85"/>
<polygon fill="#63b8ff" stroke="#63b8ff" points="282.48,-627.18 288.3,-636.03 289.27,-625.48 282.48,-627.18"/>
</a>
</g>
</g>
<!-- Node4&#45;&gt;Node20 -->
<g id="edge22_Node000004_Node000020" class="edge">
<title>Node4&#45;&gt;Node20</title>
<g id="a_edge22_Node000004_Node000020"><a xlink:title=" ">
<path fill="none" stroke="#63b8ff" d="M289.54,-625.89C285.96,-573.85 269.34,-431.73 193,-350.71 183.58,-340.71 171.18,-333.28 158.46,-327.79"/>
<polygon fill="#63b8ff" stroke="#63b8ff" points="286.05,-626.32 290.14,-636.09 293.04,-625.9 286.05,-626.32"/>
</a>
</g>
</g>
<!-- Node21&#45;&gt;Node19 -->
<g id="edge41_Node000021_Node000019" class="edge">
<title>Node21&#45;&gt;Node19</title>
<g id="a_edge41_Node000021_Node000019"><a xlink:title=" ">
<path fill="none" stroke="#63b8ff" d="M405.08,-347.96C336.48,-353.93 240.07,-362.31 173.56,-368.09"/>
<polygon fill="#63b8ff" stroke="#63b8ff" points="405.76,-351.42 415.41,-347.06 405.15,-344.44 405.76,-351.42"/>
</a>
</g>
</g>
<!-- Node22&#45;&gt;Node19 -->
<g id="edge43_Node000022_Node000019" class="edge">
<title>Node22&#45;&gt;Node19</title>
<g id="a_edge43_Node000022_Node000019"><a xlink:title=" ">
<path fill="none" stroke="#63b8ff" d="M418.7,-314.87C366.4,-323.4 293.11,-335.69 229,-347.71 209.3,-351.4 188,-355.66 168.39,-359.68"/>
<polygon fill="#63b8ff" stroke="#63b8ff" points="419.57,-318.28 428.88,-313.22 418.44,-311.37 419.57,-318.28"/>
</a>
</g>
</g>
<!-- Node25&#45;&gt;Node20 -->
<g id="edge49_Node000025_Node000020" class="edge">
<title>Node25&#45;&gt;Node20</title>
<g id="a_edge49_Node000025_Node000020"><a xlink:title=" ">
<path fill="none" stroke="#63b8ff" d="M693.9,-161.74C679.9,-127.48 645.14,-56.18 589,-27.71 510.12,12.31 471.93,5.61 390,-27.71 248.79,-85.13 138.46,-247.12 106.74,-297.54"/>
<polygon fill="#63b8ff" stroke="#63b8ff" points="690.66,-163.07 697.58,-171.1 697.17,-160.51 690.66,-163.07"/>
</a>
</g>
</g>
<!-- Node25&#45;&gt;Node21 -->
<g id="edge47_Node000025_Node000021" class="edge">
<title>Node25&#45;&gt;Node21</title>
<g id="a_edge47_Node000025_Node000021"><a xlink:title=" ">
<path fill="none" stroke="#63b8ff" d="M638.3,-194.73C633.43,-197.48 628.89,-200.77 625,-204.71 586.42,-243.67 629.94,-286.24 589,-322.71 581.73,-329.18 572.93,-333.69 563.61,-336.77"/>
<polygon fill="#63b8ff" stroke="#63b8ff" points="639.91,-197.84 647.39,-190.34 636.86,-191.54 639.91,-197.84"/>
</a>
</g>
</g>
<!-- Node25&#45;&gt;Node22 -->
<g id="edge48_Node000025_Node000022" class="edge">
<title>Node25&#45;&gt;Node22</title>
<g id="a_edge48_Node000025_Node000022"><a xlink:title=" ">
<path fill="none" stroke="#63b8ff" d="M647.07,-193.58C639.34,-196.59 631.73,-200.26 625,-204.71 604.49,-218.26 607.91,-230.99 589,-246.71 564.69,-266.91 532.29,-284.13 511.41,-294.2"/>
<polygon fill="#63b8ff" stroke="#63b8ff" points="648.26,-196.87 656.52,-190.23 645.92,-190.28 648.26,-196.87"/>
</a>
</g>
</g>
<!-- Node25&#45;&gt;Node23 -->
<g id="edge52_Node000025_Node000023" class="edge">
<title>Node25&#45;&gt;Node23</title>
<g id="a_edge52_Node000025_Node000023"><a xlink:title=" ">
<path fill="none" stroke="#63b8ff" d="M643.25,-192.23C619.32,-197 591.25,-202.6 565.74,-207.69"/>
<polygon fill="#63b8ff" stroke="#63b8ff" points="644.11,-195.63 653.23,-190.24 642.74,-188.76 644.11,-195.63"/>
</a>
</g>
</g>
<!-- Node25&#45;&gt;Node24 -->
<g id="edge53_Node000025_Node000024" class="edge">
<title>Node25&#45;&gt;Node24</title>
<g id="a_edge53_Node000025_Node000024"><a xlink:title=" ">
<path fill="none" stroke="#63b8ff" d="M637.22,-194.93C632.71,-197.64 628.55,-200.87 625,-204.71 576.97,-256.62 638.74,-309.43 589,-359.71 580.71,-368.09 570.01,-373.73 558.73,-377.49"/>
<polygon fill="#63b8ff" stroke="#63b8ff" points="638.94,-197.98 646.25,-190.32 635.75,-191.75 638.94,-197.98"/>
</a>
</g>
</g>
<!-- Node26 -->
<g id="Node000026" class="node">
<title>Node26</title>
<g id="a_Node000026"><a xlink:href="classcam_1_1nc_1_1heiden_1_1Creator.html#ae8e86bcc6f05521bf4b639128e3241ee" target="_top" xlink:title=" ">
<polygon fill="white" stroke="#666666" points="568,-66.71 411,-66.71 411,-36.71 568,-36.71 568,-66.71"/>
<text text-anchor="start" x="419" y="-54.71" font-family="Helvetica,sans-Serif" font-size="10.00">cam.nc.heiden.Creator.probe</text>
<text text-anchor="middle" x="489.5" y="-43.71" font-family="Helvetica,sans-Serif" font-size="10.00">_downward_point</text>
</a>
</g>
</g>
<!-- Node25&#45;&gt;Node26 -->
<g id="edge50_Node000025_Node000026" class="edge">
<title>Node25&#45;&gt;Node26</title>
<g id="a_edge50_Node000025_Node000026"><a xlink:title=" ">
<path fill="none" stroke="#63b8ff" d="M687.26,-163.08C667.92,-139.51 630.36,-98.09 589,-75.71 582.42,-72.15 575.31,-69.11 568.03,-66.51"/>
<polygon fill="#63b8ff" stroke="#63b8ff" points="684.76,-165.56 693.75,-171.16 690.22,-161.17 684.76,-165.56"/>
</a>
</g>
</g>
<!-- Node27 -->
<g id="Node000027" class="node">
<title>Node27</title>
<g id="a_Node000027"><a xlink:href="classcam_1_1nc_1_1iso_1_1Creator.html#a40689f45d25f7f726d11a172b608c0a4" target="_top" xlink:title=" ">
<polygon fill="white" stroke="#666666" points="558.5,-189.71 420.5,-189.71 420.5,-159.71 558.5,-159.71 558.5,-189.71"/>
<text text-anchor="start" x="428.5" y="-177.71" font-family="Helvetica,sans-Serif" font-size="10.00">cam.nc.iso.Creator.probe</text>
<text text-anchor="middle" x="489.5" y="-166.71" font-family="Helvetica,sans-Serif" font-size="10.00">_downward_point</text>
</a>
</g>
</g>
<!-- Node25&#45;&gt;Node27 -->
<g id="edge51_Node000025_Node000027" class="edge">
<title>Node25&#45;&gt;Node27</title>
<g id="a_edge51_Node000025_Node000027"><a xlink:title=" ">
<path fill="none" stroke="#63b8ff" d="M614.7,-178.25C595.97,-177.71 576.42,-177.16 558.51,-176.65"/>
<polygon fill="#63b8ff" stroke="#63b8ff" points="614.61,-181.75 624.71,-178.53 614.81,-174.75 614.61,-181.75"/>
</a>
</g>
</g>
<!-- Node28 -->
<g id="Node000028" class="node">
<title>Node28</title>
<g id="a_Node000028"><a xlink:href="classcam_1_1nc_1_1emc2tap_1_1CreatorEMC2tap.html#ae7c40089d2816698fbe6cfbc9a10a052" target="_top" xlink:title=" ">
<polygon fill="white" stroke="#666666" points="589,-141.21 390,-141.21 390,-122.21 589,-122.21 589,-141.21"/>
<text text-anchor="middle" x="489.5" y="-129.21" font-family="Helvetica,sans-Serif" font-size="10.00">cam.nc.emc2tap.CreatorEMC2tap.tap</text>
</a>
</g>
</g>
<!-- Node25&#45;&gt;Node28 -->
<g id="edge54_Node000025_Node000028" class="edge">
<title>Node25&#45;&gt;Node28</title>
<g id="a_edge54_Node000025_Node000028"><a xlink:title=" ">
<path fill="none" stroke="#63b8ff" d="M658.03,-168.43C637.26,-162.69 611.93,-155.98 589,-150.71 574.32,-147.33 558.31,-144.06 543.55,-141.22"/>
<polygon fill="#63b8ff" stroke="#63b8ff" points="657.26,-171.85 667.83,-171.16 659.13,-165.1 657.26,-171.85"/>
</a>
</g>
</g>
<!-- Node29 -->
<g id="Node000029" class="node">
<title>Node29</title>
<g id="a_Node000029"><a xlink:href="classcam_1_1nc_1_1heiden_1_1Creator.html#a706db14683812bb3b86db958d7faa05a" target="_top" xlink:title=" ">
<polygon fill="white" stroke="#666666" points="562,-104.21 417,-104.21 417,-85.21 562,-85.21 562,-104.21"/>
<text text-anchor="middle" x="489.5" y="-92.21" font-family="Helvetica,sans-Serif" font-size="10.00">cam.nc.heiden.Creator.tap</text>
</a>
</g>
</g>
<!-- Node25&#45;&gt;Node29 -->
<g id="edge55_Node000025_Node000029" class="edge">
<title>Node25&#45;&gt;Node29</title>
<g id="a_edge55_Node000025_Node000029"><a xlink:title=" ">
<path fill="none" stroke="#63b8ff" d="M680.61,-165.15C659.02,-149.47 623.39,-125.78 589,-112.71 579.98,-109.28 570.24,-106.49 560.52,-104.23"/>
<polygon fill="#63b8ff" stroke="#63b8ff" points="678.57,-167.99 688.69,-171.12 682.73,-162.36 678.57,-167.99"/>
</a>
</g>
</g>
<!-- Node30&#45;&gt;Node20 -->
<g id="edge59_Node000030_Node000020" class="edge">
<title>Node30&#45;&gt;Node20</title>
<g id="a_edge59_Node000030_Node000020"><a xlink:title=" ">
<path fill="none" stroke="#63b8ff" d="M650.18,-234.47C631.07,-238.66 609.09,-243.21 589,-246.71 441.84,-272.32 268.39,-293.53 171.88,-304.54"/>
<polygon fill="#63b8ff" stroke="#63b8ff" points="651.18,-237.83 660.19,-232.25 649.67,-231 651.18,-237.83"/>
</a>
</g>
</g>
<!-- Node30&#45;&gt;Node21 -->
<g id="edge57_Node000030_Node000021" class="edge">
<title>Node30&#45;&gt;Node21</title>
<g id="a_edge57_Node000030_Node000021"><a xlink:title=" ">
<path fill="none" stroke="#63b8ff" d="M686.96,-240.16C667.51,-263.04 630.11,-302.6 589,-322.71 581.04,-326.6 572.33,-329.66 563.51,-332.06"/>
<polygon fill="#63b8ff" stroke="#63b8ff" points="689.8,-242.22 693.5,-232.29 684.42,-237.74 689.8,-242.22"/>
</a>
</g>
</g>
<!-- Node30&#45;&gt;Node22 -->
<g id="edge58_Node000030_Node000022" class="edge">
<title>Node30&#45;&gt;Node22</title>
<g id="a_edge58_Node000030_Node000022"><a xlink:title=" ">
<path fill="none" stroke="#63b8ff" d="M676.45,-237.3C654.25,-249.98 620.33,-268.1 589,-279.71 573.16,-285.58 555.34,-290.42 539.27,-294.18"/>
<polygon fill="#63b8ff" stroke="#63b8ff" points="678.31,-240.27 685.21,-232.23 674.8,-234.21 678.31,-240.27"/>
</a>
</g>
</g>
<!-- Node30&#45;&gt;Node23 -->
<g id="edge62_Node000030_Node000023" class="edge">
<title>Node30&#45;&gt;Node23</title>
<g id="a_edge62_Node000030_Node000023"><a xlink:title=" ">
<path fill="none" stroke="#63b8ff" d="M624.36,-222.71C606.02,-222.71 586.44,-222.71 568.06,-222.71"/>
<polygon fill="#63b8ff" stroke="#63b8ff" points="624.4,-226.21 634.4,-222.71 624.4,-219.21 624.4,-226.21"/>
</a>
</g>
</g>
<!-- Node30&#45;&gt;Node24 -->
<g id="edge63_Node000030_Node000024" class="edge">
<title>Node30&#45;&gt;Node24</title>
<g id="a_edge63_Node000030_Node000024"><a xlink:title=" ">
<path fill="none" stroke="#63b8ff" d="M687.67,-240.24C660.84,-275.36 601.76,-351.67 589,-359.71 579.77,-365.52 569.23,-369.93 558.56,-373.27"/>
<polygon fill="#63b8ff" stroke="#63b8ff" points="690.47,-242.34 693.75,-232.27 684.91,-238.1 690.47,-242.34"/>
</a>
</g>
</g>
<!-- Node30&#45;&gt;Node26 -->
<g id="edge60_Node000030_Node000026" class="edge">
<title>Node30&#45;&gt;Node26</title>
<g id="a_edge60_Node000030_Node000026"><a xlink:title=" ">
<path fill="none" stroke="#63b8ff" d="M636.47,-208.56C632.28,-206.07 628.4,-203.14 625,-199.71 584.65,-158.9 630.45,-115.39 589,-75.71 583.02,-69.99 575.92,-65.56 568.31,-62.14"/>
<polygon fill="#63b8ff" stroke="#63b8ff" points="634.91,-211.69 645.41,-213.08 638.07,-205.44 634.91,-211.69"/>
</a>
</g>
</g>
<!-- Node30&#45;&gt;Node27 -->
<g id="edge61_Node000030_Node000027" class="edge">
<title>Node30&#45;&gt;Node27</title>
<g id="a_edge61_Node000030_Node000027"><a xlink:title=" ">
<path fill="none" stroke="#63b8ff" d="M649.17,-210.89C621.14,-204.5 586.23,-196.54 556.3,-189.71"/>
<polygon fill="#63b8ff" stroke="#63b8ff" points="648.63,-214.36 659.16,-213.17 650.19,-207.53 648.63,-214.36"/>
</a>
</g>
</g>
<!-- Node30&#45;&gt;Node28 -->
<g id="edge64_Node000030_Node000028" class="edge">
<title>Node30&#45;&gt;Node28</title>
<g id="a_edge64_Node000030_Node000028"><a xlink:title=" ">
<path fill="none" stroke="#63b8ff" d="M643.12,-209.57C636.72,-206.86 630.52,-203.61 625,-199.71 602.94,-184.1 611.84,-165.15 589,-150.71 582.89,-146.84 576.17,-143.73 569.21,-141.24"/>
<polygon fill="#63b8ff" stroke="#63b8ff" points="642.02,-212.89 652.61,-213.16 644.5,-206.35 642.02,-212.89"/>
</a>
</g>
</g>
<!-- Node30&#45;&gt;Node29 -->
<g id="edge65_Node000030_Node000029" class="edge">
<title>Node30&#45;&gt;Node29</title>
<g id="a_edge65_Node000030_Node000029"><a xlink:title=" ">
<path fill="none" stroke="#63b8ff" d="M638.12,-208.81C633.38,-206.27 628.92,-203.26 625,-199.71 593.99,-171.61 621.55,-139.01 589,-112.71 581.16,-106.37 571.81,-101.98 562.05,-98.98"/>
<polygon fill="#63b8ff" stroke="#63b8ff" points="636.97,-212.13 647.52,-213.14 639.9,-205.78 636.97,-212.13"/>
</a>
</g>
</g>
</g>
</svg>

<g id="navigator" transform="translate(0 0)" fill="#404254">
  <rect fill="#f2f5e9" fill-opacity="0.5" stroke="#606060" stroke-width=".5" x="0" y="0" width="60" height="60"/>
  <use id="zoomplus" xlink:href="#zoomPlus" x="17" y="9" onmousedown="handleZoom(evt,'in')"/>
  <use id="zoomminus" xlink:href="#zoomMin" x="42" y="9" onmousedown="handleZoom(evt,'out')"/>
  <use id="reset" xlink:href="#resetDef" x="30" y="36" onmousedown="handleReset()"/>
   <use id="arrowup" xlink:href="#arrowUp" x="0" y="0" onmousedown="handlePan(0,-1)"/>
  <use id="arrowright" xlink:href="#arrowRight" x="0" y="0" onmousedown="handlePan(1,0)"/>
  <use id="arrowdown" xlink:href="#arrowDown" x="0" y="0" onmousedown="handlePan(0,1)"/>
  <use id="arrowleft" xlink:href="#arrowLeft" x="0" y="0" onmousedown="handlePan(-1,0)"/>
</g>
<svg viewBox="0 0 15 15" width="100%" height="30px" preserveAspectRatio="xMaxYMin meet">
 <g id="arrow_out" transform="scale(0.3 0.3)">
  <a xlink:href="classcam_1_1nc_1_1iso_1_1Creator_a0325c52e11048b3d689ad38876b9c1c6_icgraph_org.svg" target="_base">
   <rect id="button" ry="5" rx="5" y="6" x="6" height="38" width="38"
        fill="#f2f5e9" fill-opacity="0.5" stroke="#606060" stroke-width="1.0"/>
   <path id="arrow"
     d="M 11.500037,31.436501 C 11.940474,20.09759 22.043105,11.32322 32.158766,21.979434 L 37.068811,17.246167 C 37.068811,17.246167 37.088388,32 37.088388,32 L 22.160133,31.978069 C 22.160133,31.978069 26.997745,27.140456 26.997745,27.140456 C 18.528582,18.264221 13.291696,25.230495 11.500037,31.436501 z"
     style="fill:#404040;"/>
  </a>
 </g>
</svg>

<style type='text/css'>
<![CDATA[
[data-mouse-over-selected='false'] { opacity: 0.7; }
[data-mouse-over-selected='true']  { opacity: 1.0; }
]]>
</style>
<script type="application/ecmascript"><![CDATA[
document.addEventListener('DOMContentLoaded', (event) => {
  highlightEdges();
  highlightAdjacentNodes();
});
]]></script>
</svg>
