<?xml version="1.0" encoding="UTF-8" standalone="no"?>
<!DOCTYPE svg PUBLIC "-//W3C//DTD SVG 1.1//EN"
 "http://www.w3.org/Graphics/SVG/1.1/DTD/svg11.dtd">
<!-- Generated by graphviz version 2.43.0 (0)
 -->
<!-- Title: cam.nc.heiden.Creator.polar Pages: 1 -->
<svg width="812pt" height="482pt"
 viewBox="0.00 0.00 812.00 481.50" xmlns="http://www.w3.org/2000/svg" xmlns:xlink="http://www.w3.org/1999/xlink">
<g id="graph0" class="graph" transform="scale(1 1) rotate(0) translate(4 477.5)">
<title>cam.nc.heiden.Creator.polar</title>
<!-- Node1 -->
<g id="Node000001" class="node">
<title>Node1</title>
<g id="a_Node000001"><a xlink:title=" ">
<polygon fill="#999999" stroke="#666666" points="154,-200 0,-200 0,-181 154,-181 154,-200"/>
<text text-anchor="middle" x="77" y="-188" font-family="Helvetica,sans-Serif" font-size="10.00">cam.nc.heiden.Creator.polar</text>
</a>
</g>
</g>
<!-- Node2 -->
<g id="Node000002" class="node">
<title>Node2</title>
<g id="a_Node000002"><a xlink:href="classcam_1_1nc_1_1heiden_1_1Creator.html#a5bd0dced4c9e9385a86e2ddb02fdcf17" target="_top" xlink:title=" ">
<polygon fill="white" stroke="#666666" points="377,-304 190,-304 190,-285 377,-285 377,-304"/>
<text text-anchor="middle" x="283.5" y="-292" font-family="Helvetica,sans-Serif" font-size="10.00">cam.nc.heiden.Creator.POLAR_OFF</text>
</a>
</g>
</g>
<!-- Node1&#45;&gt;Node2 -->
<g id="edge1_Node000001_Node000002" class="edge">
<title>Node1&#45;&gt;Node2</title>
<g id="a_edge1_Node000001_Node000002"><a xlink:title=" ">
<path fill="none" stroke="#63b8ff" d="M87.17,-200.03C105.11,-218.05 146.87,-257.06 190,-276.5 194.64,-278.59 199.51,-280.44 204.49,-282.07"/>
<polygon fill="#63b8ff" stroke="#63b8ff" points="203.6,-285.46 214.18,-284.96 205.6,-278.75 203.6,-285.46"/>
</a>
</g>
</g>
<!-- Node3 -->
<g id="Node000003" class="node">
<title>Node3</title>
<g id="a_Node000003"><a xlink:href="classcam_1_1nc_1_1iso_1_1Creator.html#a2c3f9740f5e29eee583ba1e9ab37a2cd" target="_top" xlink:title=" ">
<polygon fill="white" stroke="#666666" points="367.5,-267 199.5,-267 199.5,-248 367.5,-248 367.5,-267"/>
<text text-anchor="middle" x="283.5" y="-255" font-family="Helvetica,sans-Serif" font-size="10.00">cam.nc.iso.Creator.POLAR_OFF</text>
</a>
</g>
</g>
<!-- Node1&#45;&gt;Node3 -->
<g id="edge2_Node000001_Node000003" class="edge">
<title>Node1&#45;&gt;Node3</title>
<g id="a_edge2_Node000001_Node000003"><a xlink:title=" ">
<path fill="none" stroke="#63b8ff" d="M96.97,-200.04C118.9,-210.73 156.29,-227.93 190,-238.5 198.62,-241.2 207.81,-243.62 216.93,-245.75"/>
<polygon fill="#63b8ff" stroke="#63b8ff" points="216.24,-249.18 226.76,-247.95 217.77,-242.35 216.24,-249.18"/>
</a>
</g>
</g>
<!-- Node4 -->
<g id="Node000004" class="node">
<title>Node4</title>
<g id="a_Node000004"><a xlink:href="classcam_1_1nc_1_1makerbot__codes_1_1Codes.html#a2b86939a1ef78cc4a6bb0cfb955d7376" target="_top" xlink:title=" ">
<polygon fill="white" stroke="#666666" points="369,-229.5 198,-229.5 198,-199.5 369,-199.5 369,-229.5"/>
<text text-anchor="start" x="206" y="-217.5" font-family="Helvetica,sans-Serif" font-size="10.00">cam.nc.makerbot_codes.Codes.</text>
<text text-anchor="middle" x="283.5" y="-206.5" font-family="Helvetica,sans-Serif" font-size="10.00">POLAR_OFF</text>
</a>
</g>
</g>
<!-- Node1&#45;&gt;Node4 -->
<g id="edge3_Node000001_Node000004" class="edge">
<title>Node1&#45;&gt;Node4</title>
<g id="a_edge3_Node000001_Node000004"><a xlink:title=" ">
<path fill="none" stroke="#63b8ff" d="M154.15,-199.44C165.02,-200.71 176.31,-202.04 187.48,-203.35"/>
<polygon fill="#63b8ff" stroke="#63b8ff" points="187.35,-206.86 197.69,-204.55 188.17,-199.91 187.35,-206.86"/>
</a>
</g>
</g>
<!-- Node22 -->
<g id="Node000022" class="node">
<title>Node22</title>
<g id="a_Node000022"><a xlink:href="classcam_1_1nc_1_1heiden_1_1Creator.html#abebf2a6602b20d6619e556dcf8050072" target="_top" xlink:title=" ">
<polygon fill="white" stroke="#666666" points="374.5,-133 192.5,-133 192.5,-114 374.5,-114 374.5,-133"/>
<text text-anchor="middle" x="283.5" y="-121" font-family="Helvetica,sans-Serif" font-size="10.00">cam.nc.heiden.Creator.POLAR_ON</text>
</a>
</g>
</g>
<!-- Node1&#45;&gt;Node22 -->
<g id="edge21_Node000001_Node000022" class="edge">
<title>Node1&#45;&gt;Node22</title>
<g id="a_edge21_Node000001_Node000022"><a xlink:title=" ">
<path fill="none" stroke="#63b8ff" d="M96.97,-180.96C118.9,-170.27 156.29,-153.07 190,-142.5 198.62,-139.8 207.81,-137.38 216.93,-135.25"/>
<polygon fill="#63b8ff" stroke="#63b8ff" points="217.77,-138.65 226.76,-133.05 216.24,-131.82 217.77,-138.65"/>
</a>
</g>
</g>
<!-- Node23 -->
<g id="Node000023" class="node">
<title>Node23</title>
<g id="a_Node000023"><a xlink:href="classcam_1_1nc_1_1iso_1_1Creator.html#a1193f838840ce951f92d404655f2d7e6" target="_top" xlink:title=" ">
<polygon fill="white" stroke="#666666" points="365.5,-96 201.5,-96 201.5,-77 365.5,-77 365.5,-96"/>
<text text-anchor="middle" x="283.5" y="-84" font-family="Helvetica,sans-Serif" font-size="10.00">cam.nc.iso.Creator.POLAR_ON</text>
</a>
</g>
</g>
<!-- Node1&#45;&gt;Node23 -->
<g id="edge22_Node000001_Node000023" class="edge">
<title>Node1&#45;&gt;Node23</title>
<g id="a_edge22_Node000001_Node000023"><a xlink:title=" ">
<path fill="none" stroke="#63b8ff" d="M87.17,-180.97C105.11,-162.95 146.87,-123.94 190,-104.5 194.64,-102.41 199.51,-100.56 204.49,-98.93"/>
<polygon fill="#63b8ff" stroke="#63b8ff" points="205.6,-102.25 214.18,-96.04 203.6,-95.54 205.6,-102.25"/>
</a>
</g>
</g>
<!-- Node24 -->
<g id="Node000024" class="node">
<title>Node24</title>
<g id="a_Node000024"><a xlink:href="classcam_1_1nc_1_1makerbot__codes_1_1Codes.html#a759a3734dbd03221294b47bf757cad72" target="_top" xlink:title=" ">
<polygon fill="white" stroke="#666666" points="369,-181.5 198,-181.5 198,-151.5 369,-151.5 369,-181.5"/>
<text text-anchor="start" x="206" y="-169.5" font-family="Helvetica,sans-Serif" font-size="10.00">cam.nc.makerbot_codes.Codes.</text>
<text text-anchor="middle" x="283.5" y="-158.5" font-family="Helvetica,sans-Serif" font-size="10.00">POLAR_ON</text>
</a>
</g>
</g>
<!-- Node1&#45;&gt;Node24 -->
<g id="edge23_Node000001_Node000024" class="edge">
<title>Node1&#45;&gt;Node24</title>
<g id="a_edge23_Node000001_Node000024"><a xlink:title=" ">
<path fill="none" stroke="#63b8ff" d="M154.15,-181.56C165.02,-180.29 176.31,-178.96 187.48,-177.65"/>
<polygon fill="#63b8ff" stroke="#63b8ff" points="188.17,-181.09 197.69,-176.45 187.35,-174.14 188.17,-181.09"/>
</a>
</g>
</g>
<!-- Node5 -->
<g id="Node000005" class="node">
<title>Node5</title>
<g id="a_Node000005"><a xlink:href="classcam_1_1nc_1_1emc2_1_1Creator.html#a47a9e4f5f35681f580765bba2f0f97a5" target="_top" xlink:title=" ">
<polygon fill="white" stroke="#666666" points="575.5,-142 421.5,-142 421.5,-123 575.5,-123 575.5,-142"/>
<text text-anchor="middle" x="498.5" y="-130" font-family="Helvetica,sans-Serif" font-size="10.00">cam.nc.emc2.Creator.SPACE</text>
</a>
</g>
</g>
<!-- Node4&#45;&gt;Node5 -->
<g id="edge4_Node000004_Node000005" class="edge">
<title>Node4&#45;&gt;Node5</title>
<g id="a_edge4_Node000004_Node000005"><a xlink:title=" ">
<path fill="none" stroke="#63b8ff" d="M358.82,-199.43C365.17,-196.9 371.33,-193.95 377,-190.5 397.44,-178.08 392.29,-162.47 413,-150.5 416.01,-148.76 419.17,-147.19 422.43,-145.76"/>
<polygon fill="#63b8ff" stroke="#63b8ff" points="423.75,-149.01 431.83,-142.15 421.24,-142.47 423.75,-149.01"/>
</a>
</g>
</g>
<!-- Node6 -->
<g id="Node000006" class="node">
<title>Node6</title>
<g id="a_Node000006"><a xlink:href="classcam_1_1nc_1_1emc2b_1_1Creator.html#abff5586e78bb91681bd41dafdea5a9e7" target="_top" xlink:title=" ">
<polygon fill="white" stroke="#666666" points="578.5,-105 418.5,-105 418.5,-86 578.5,-86 578.5,-105"/>
<text text-anchor="middle" x="498.5" y="-93" font-family="Helvetica,sans-Serif" font-size="10.00">cam.nc.emc2b.Creator.SPACE</text>
</a>
</g>
</g>
<!-- Node4&#45;&gt;Node6 -->
<g id="edge5_Node000004_Node000006" class="edge">
<title>Node4&#45;&gt;Node6</title>
<g id="a_edge5_Node000004_Node000006"><a xlink:title=" ">
<path fill="none" stroke="#63b8ff" d="M363.65,-199.33C368.41,-196.82 372.92,-193.89 377,-190.5 406.05,-166.35 383.43,-137.01 413,-113.5 414.59,-112.24 416.24,-111.06 417.95,-109.96"/>
<polygon fill="#63b8ff" stroke="#63b8ff" points="419.8,-112.94 426.91,-105.09 416.45,-106.79 419.8,-112.94"/>
</a>
</g>
</g>
<!-- Node7 -->
<g id="Node000007" class="node">
<title>Node7</title>
<g id="a_Node000007"><a xlink:href="classcam_1_1nc_1_1emc2tap_1_1CodesEMC2.html#a6a0d71a1c6e9f8a80228dc220a0e57ca" target="_top" xlink:title=" ">
<polygon fill="white" stroke="#666666" points="579,-67.5 418,-67.5 418,-37.5 579,-37.5 579,-67.5"/>
<text text-anchor="start" x="426" y="-55.5" font-family="Helvetica,sans-Serif" font-size="10.00">cam.nc.emc2tap.CodesEMC2.</text>
<text text-anchor="middle" x="498.5" y="-44.5" font-family="Helvetica,sans-Serif" font-size="10.00">SPACE</text>
</a>
</g>
</g>
<!-- Node4&#45;&gt;Node7 -->
<g id="edge6_Node000004_Node000007" class="edge">
<title>Node4&#45;&gt;Node7</title>
<g id="a_edge6_Node000004_Node000007"><a xlink:title=" ">
<path fill="none" stroke="#63b8ff" d="M365.05,-199.42C369.36,-196.88 373.39,-193.93 377,-190.5 415.54,-153.92 374.89,-113.52 413,-76.5 414.09,-75.44 415.23,-74.42 416.41,-73.45"/>
<polygon fill="#63b8ff" stroke="#63b8ff" points="418.49,-76.26 424.67,-67.66 414.47,-70.53 418.49,-76.26"/>
</a>
</g>
</g>
<!-- Node8 -->
<g id="Node000008" class="node">
<title>Node8</title>
<g id="a_Node000008"><a xlink:href="classcam_1_1nc_1_1heiden_1_1Creator.html#a2c4277ffddaea0f92c906c6744f7a3bd" target="_top" xlink:title="Codes.">
<polygon fill="white" stroke="#666666" points="578.5,-19 418.5,-19 418.5,0 578.5,0 578.5,-19"/>
<text text-anchor="middle" x="498.5" y="-7" font-family="Helvetica,sans-Serif" font-size="10.00">cam.nc.heiden.Creator.SPACE</text>
</a>
</g>
</g>
<!-- Node4&#45;&gt;Node8 -->
<g id="edge7_Node000004_Node000008" class="edge">
<title>Node4&#45;&gt;Node8</title>
<g id="a_edge7_Node000004_Node000008"><a xlink:title=" ">
<path fill="none" stroke="#63b8ff" d="M366.24,-199.25C370.15,-196.74 373.77,-193.84 377,-190.5 428.23,-137.44 360.91,-80.72 413,-28.5 414.28,-27.22 415.62,-26.02 417.02,-24.89"/>
<polygon fill="#63b8ff" stroke="#63b8ff" points="419.21,-27.64 425.62,-19.2 415.35,-21.8 419.21,-27.64"/>
</a>
</g>
</g>
<!-- Node9 -->
<g id="Node000009" class="node">
<title>Node9</title>
<g id="a_Node000009"><a xlink:href="classcam_1_1nc_1_1heiden530_1_1Creator.html#aa64b19b0edc2ac1f2d568b09ca2aebcb" target="_top" xlink:title="Codes.">
<polygon fill="white" stroke="#666666" points="572,-399.5 425,-399.5 425,-369.5 572,-369.5 572,-399.5"/>
<text text-anchor="start" x="433" y="-387.5" font-family="Helvetica,sans-Serif" font-size="10.00">cam.nc.heiden530.Creator.</text>
<text text-anchor="middle" x="498.5" y="-376.5" font-family="Helvetica,sans-Serif" font-size="10.00">SPACE</text>
</a>
</g>
</g>
<!-- Node4&#45;&gt;Node9 -->
<g id="edge8_Node000004_Node000009" class="edge">
<title>Node4&#45;&gt;Node9</title>
<g id="a_edge8_Node000004_Node000009"><a xlink:title=" ">
<path fill="none" stroke="#63b8ff" d="M365.55,-229.75C369.68,-232.26 373.54,-235.15 377,-238.5 417.63,-277.81 372.82,-320.73 413,-360.5 414.12,-361.61 415.28,-362.66 416.49,-363.67"/>
<polygon fill="#63b8ff" stroke="#63b8ff" points="414.8,-366.76 424.99,-369.65 418.83,-361.04 414.8,-366.76"/>
</a>
</g>
</g>
<!-- Node10 -->
<g id="Node000010" class="node">
<title>Node10</title>
<g id="a_Node000010"><a xlink:href="classcam_1_1nc_1_1iso_1_1Creator.html#a79463d437baaaf23c828a2c9e62393f3" target="_top" xlink:title=" ">
<polygon fill="white" stroke="#666666" points="569,-351 428,-351 428,-332 569,-332 569,-351"/>
<text text-anchor="middle" x="498.5" y="-339" font-family="Helvetica,sans-Serif" font-size="10.00">cam.nc.iso.Creator.SPACE</text>
</a>
</g>
</g>
<!-- Node4&#45;&gt;Node10 -->
<g id="edge9_Node000004_Node000010" class="edge">
<title>Node4&#45;&gt;Node10</title>
<g id="a_edge9_Node000004_Node000010"><a xlink:title=" ">
<path fill="none" stroke="#63b8ff" d="M363.78,-229.52C368.51,-232.07 372.97,-235.04 377,-238.5 407.81,-264.97 381.77,-296.53 413,-322.5 415.02,-324.18 417.17,-325.72 419.4,-327.13"/>
<polygon fill="#63b8ff" stroke="#63b8ff" points="417.95,-330.33 428.42,-331.96 421.25,-324.16 417.95,-330.33"/>
</a>
</g>
</g>
<!-- Node18 -->
<g id="Node000018" class="node">
<title>Node18</title>
<g id="a_Node000018"><a xlink:href="classcam_1_1nc_1_1makerbot__codes_1_1Codes.html#a497077e0e500cc8f419b8f3f61f008b4" target="_top" xlink:title=" ">
<polygon fill="white" stroke="#666666" points="584,-313.5 413,-313.5 413,-283.5 584,-283.5 584,-313.5"/>
<text text-anchor="start" x="421" y="-301.5" font-family="Helvetica,sans-Serif" font-size="10.00">cam.nc.makerbot_codes.Codes.</text>
<text text-anchor="middle" x="498.5" y="-290.5" font-family="Helvetica,sans-Serif" font-size="10.00">SPACE</text>
</a>
</g>
</g>
<!-- Node4&#45;&gt;Node18 -->
<g id="edge17_Node000004_Node000018" class="edge">
<title>Node4&#45;&gt;Node18</title>
<g id="a_edge17_Node000004_Node000018"><a xlink:title=" ">
<path fill="none" stroke="#63b8ff" d="M357.67,-229.52C364.4,-232.07 370.95,-235.04 377,-238.5 396.64,-249.74 393.49,-263.04 413,-274.5 415.98,-276.25 419.1,-277.88 422.31,-279.4"/>
<polygon fill="#63b8ff" stroke="#63b8ff" points="420.97,-282.63 431.53,-283.37 423.74,-276.2 420.97,-282.63"/>
</a>
</g>
</g>
<!-- Node19 -->
<g id="Node000019" class="node">
<title>Node19</title>
<g id="a_Node000019"><a xlink:href="classcam_1_1nc_1_1series1_1_1Creator.html#a75918d23eef609baab85058fda3050d5" target="_top" xlink:title=" ">
<polygon fill="white" stroke="#666666" points="579.5,-265 417.5,-265 417.5,-246 579.5,-246 579.5,-265"/>
<text text-anchor="middle" x="498.5" y="-253" font-family="Helvetica,sans-Serif" font-size="10.00">cam.nc.series1.Creator.SPACE</text>
</a>
</g>
</g>
<!-- Node4&#45;&gt;Node19 -->
<g id="edge18_Node000004_Node000019" class="edge">
<title>Node4&#45;&gt;Node19</title>
<g id="a_edge18_Node000004_Node000019"><a xlink:title=" ">
<path fill="none" stroke="#63b8ff" d="M362.6,-229.53C387.43,-234.31 414.47,-239.52 437.78,-244"/>
<polygon fill="#63b8ff" stroke="#63b8ff" points="437.38,-247.49 447.86,-245.95 438.71,-240.62 437.38,-247.49"/>
</a>
</g>
</g>
<!-- Node20 -->
<g id="Node000020" class="node">
<title>Node20</title>
<g id="a_Node000020"><a xlink:href="classcam_1_1nc_1_1shopbot__mtc_1_1Creator.html#a1512dbb5d0140eb216ed709a542261ac" target="_top" xlink:title="Codes.">
<polygon fill="white" stroke="#666666" points="578,-227.5 419,-227.5 419,-197.5 578,-197.5 578,-227.5"/>
<text text-anchor="start" x="427" y="-215.5" font-family="Helvetica,sans-Serif" font-size="10.00">cam.nc.shopbot_mtc.Creator.</text>
<text text-anchor="middle" x="498.5" y="-204.5" font-family="Helvetica,sans-Serif" font-size="10.00">SPACE</text>
</a>
</g>
</g>
<!-- Node4&#45;&gt;Node20 -->
<g id="edge19_Node000004_Node000020" class="edge">
<title>Node4&#45;&gt;Node20</title>
<g id="a_edge19_Node000004_Node000020"><a xlink:title=" ">
<path fill="none" stroke="#63b8ff" d="M369.3,-213.7C382.2,-213.58 395.55,-213.46 408.55,-213.34"/>
<polygon fill="#63b8ff" stroke="#63b8ff" points="408.91,-216.83 418.88,-213.24 408.84,-209.83 408.91,-216.83"/>
</a>
</g>
</g>
<!-- Node21 -->
<g id="Node000021" class="node">
<title>Node21</title>
<g id="a_Node000021"><a xlink:href="classcam_1_1nc_1_1tnc151_1_1Creator.html#af5d9e50b2ff0e73cd7524e2145d55d76" target="_top" xlink:title=" ">
<polygon fill="white" stroke="#666666" points="578.5,-179 418.5,-179 418.5,-160 578.5,-160 578.5,-179"/>
<text text-anchor="middle" x="498.5" y="-167" font-family="Helvetica,sans-Serif" font-size="10.00">cam.nc.tnc151.Creator.SPACE</text>
</a>
</g>
</g>
<!-- Node4&#45;&gt;Node21 -->
<g id="edge20_Node000004_Node000021" class="edge">
<title>Node4&#45;&gt;Node21</title>
<g id="a_edge20_Node000004_Node000021"><a xlink:title=" ">
<path fill="none" stroke="#63b8ff" d="M355.72,-199.45C384.03,-193.47 416.09,-186.7 442.56,-181.11"/>
<polygon fill="#63b8ff" stroke="#63b8ff" points="443.34,-184.52 452.41,-179.03 441.9,-177.67 443.34,-184.52"/>
</a>
</g>
</g>
<!-- Node11 -->
<g id="Node000011" class="node">
<title>Node11</title>
<g id="a_Node000011"><a xlink:href="classcam_1_1nc_1_1anilam__crusader__m_1_1Creator.html#a36f873a0248bcaa4cf2cfb220dc1b00c" target="_top" xlink:title="Codes.">
<polygon fill="white" stroke="#666666" points="780,-473.5 644,-473.5 644,-443.5 780,-443.5 780,-473.5"/>
<text text-anchor="start" x="652" y="-461.5" font-family="Helvetica,sans-Serif" font-size="10.00">cam.nc.anilam_crusader</text>
<text text-anchor="middle" x="712" y="-450.5" font-family="Helvetica,sans-Serif" font-size="10.00">_m.Creator.SPACE_STR</text>
</a>
</g>
</g>
<!-- Node10&#45;&gt;Node11 -->
<g id="edge10_Node000010_Node000011" class="edge">
<title>Node10&#45;&gt;Node11</title>
<g id="a_edge10_Node000010_Node000011"><a xlink:title=" ">
<path fill="none" stroke="#63b8ff" d="M567.96,-351.1C573.71,-353.59 579.17,-356.67 584,-360.5 612.68,-383.2 591.74,-411.28 620,-434.5 624.34,-438.07 629.15,-441.11 634.24,-443.7"/>
<polygon fill="#63b8ff" stroke="#63b8ff" points="633.08,-447.02 643.64,-447.9 635.93,-440.62 633.08,-447.02"/>
</a>
</g>
</g>
<!-- Node12 -->
<g id="Node000012" class="node">
<title>Node12</title>
<g id="a_Node000012"><a xlink:href="classcam_1_1nc_1_1fadal_1_1Creator.html#a97a50724edf2662eb4fe76b15516b638" target="_top" xlink:title="Codes.">
<polygon fill="white" stroke="#666666" points="800,-425 624,-425 624,-406 800,-406 800,-425"/>
<text text-anchor="middle" x="712" y="-413" font-family="Helvetica,sans-Serif" font-size="10.00">cam.nc.fadal.Creator.SPACE_STR</text>
</a>
</g>
</g>
<!-- Node10&#45;&gt;Node12 -->
<g id="edge11_Node000010_Node000012" class="edge">
<title>Node10&#45;&gt;Node12</title>
<g id="a_edge11_Node000010_Node000012"><a xlink:title=" ">
<path fill="none" stroke="#63b8ff" d="M561.51,-351.05C569.35,-353.51 577.05,-356.61 584,-360.5 604.02,-371.7 599.83,-386.56 620,-397.5 623.31,-399.3 626.77,-400.91 630.33,-402.37"/>
<polygon fill="#63b8ff" stroke="#63b8ff" points="629.36,-405.74 639.95,-405.87 631.75,-399.16 629.36,-405.74"/>
</a>
</g>
</g>
<!-- Node13 -->
<g id="Node000013" class="node">
<title>Node13</title>
<g id="a_Node000013"><a xlink:href="classcam_1_1nc_1_1gravos_1_1Creator.html#ac0bc0d26e8a92a65c0f33d696ad850f5" target="_top" xlink:title="Codes.">
<polygon fill="white" stroke="#666666" points="804,-388 620,-388 620,-369 804,-369 804,-388"/>
<text text-anchor="middle" x="712" y="-376" font-family="Helvetica,sans-Serif" font-size="10.00">cam.nc.gravos.Creator.SPACE_STR</text>
</a>
</g>
</g>
<!-- Node10&#45;&gt;Node13 -->
<g id="edge12_Node000010_Node000013" class="edge">
<title>Node10&#45;&gt;Node13</title>
<g id="a_edge12_Node000010_Node000013"><a xlink:title=" ">
<path fill="none" stroke="#63b8ff" d="M553.97,-351.03C582.1,-355.95 616.63,-361.99 646.14,-367.15"/>
<polygon fill="#63b8ff" stroke="#63b8ff" points="645.9,-370.66 656.35,-368.94 647.1,-363.77 645.9,-370.66"/>
</a>
</g>
</g>
<!-- Node14 -->
<g id="Node000014" class="node">
<title>Node14</title>
<g id="a_Node000014"><a xlink:href="classcam_1_1nc_1_1iso_1_1Creator.html#aa481cf1e394988751640fd5ce5af991e" target="_top" xlink:title="Codes.">
<polygon fill="white" stroke="#666666" points="794.5,-351 629.5,-351 629.5,-332 794.5,-332 794.5,-351"/>
<text text-anchor="middle" x="712" y="-339" font-family="Helvetica,sans-Serif" font-size="10.00">cam.nc.iso.Creator.SPACE_STR</text>
</a>
</g>
</g>
<!-- Node10&#45;&gt;Node14 -->
<g id="edge13_Node000010_Node000014" class="edge">
<title>Node10&#45;&gt;Node14</title>
<g id="a_edge13_Node000010_Node000014"><a xlink:title=" ">
<path fill="none" stroke="#63b8ff" d="M569.05,-341.5C585,-341.5 602.2,-341.5 618.94,-341.5"/>
<polygon fill="#63b8ff" stroke="#63b8ff" points="619.29,-345 629.29,-341.5 619.29,-338 619.29,-345"/>
</a>
</g>
</g>
<!-- Node15 -->
<g id="Node000015" class="node">
<title>Node15</title>
<g id="a_Node000015"><a xlink:href="classcam_1_1nc_1_1lynx__otter__o_1_1Creator.html#a73b176561e066abcdb256a1bf53a5fcc" target="_top" xlink:title="Codes.">
<polygon fill="white" stroke="#666666" points="790.5,-313.5 633.5,-313.5 633.5,-283.5 790.5,-283.5 790.5,-313.5"/>
<text text-anchor="start" x="641.5" y="-301.5" font-family="Helvetica,sans-Serif" font-size="10.00">cam.nc.lynx_otter_o.Creator.</text>
<text text-anchor="middle" x="712" y="-290.5" font-family="Helvetica,sans-Serif" font-size="10.00">SPACE_STR</text>
</a>
</g>
</g>
<!-- Node10&#45;&gt;Node15 -->
<g id="edge14_Node000010_Node000015" class="edge">
<title>Node10&#45;&gt;Node15</title>
<g id="a_edge14_Node000010_Node000015"><a xlink:title=" ">
<path fill="none" stroke="#63b8ff" d="M546.44,-331.96C570.18,-327.13 599.71,-321.13 627.18,-315.54"/>
<polygon fill="#63b8ff" stroke="#63b8ff" points="628.09,-318.93 637.19,-313.51 626.69,-312.07 628.09,-318.93"/>
</a>
</g>
</g>
<!-- Node16 -->
<g id="Node000016" class="node">
<title>Node16</title>
<g id="a_Node000016"><a xlink:href="classcam_1_1nc_1_1mach3_1_1Creator.html#aa461d578afa76c5af9bb5562b79d955a" target="_top" xlink:title="Codes.">
<polygon fill="white" stroke="#666666" points="804,-265 620,-265 620,-246 804,-246 804,-265"/>
<text text-anchor="middle" x="712" y="-253" font-family="Helvetica,sans-Serif" font-size="10.00">cam.nc.mach3.Creator.SPACE_STR</text>
</a>
</g>
</g>
<!-- Node10&#45;&gt;Node16 -->
<g id="edge15_Node000010_Node000016" class="edge">
<title>Node10&#45;&gt;Node16</title>
<g id="a_edge15_Node000010_Node000016"><a xlink:title=" ">
<path fill="none" stroke="#63b8ff" d="M564.64,-331.86C571.46,-329.41 578.07,-326.34 584,-322.5 606.39,-308.01 597.5,-288.81 620,-274.5 623.35,-272.37 626.9,-270.47 630.57,-268.78"/>
<polygon fill="#63b8ff" stroke="#63b8ff" points="631.97,-271.99 639.94,-265 629.35,-265.5 631.97,-271.99"/>
</a>
</g>
</g>
<!-- Node17 -->
<g id="Node000017" class="node">
<title>Node17</title>
<g id="a_Node000017"><a xlink:href="classcam_1_1nc_1_1winpc_1_1Creator.html#aae1cb93a5dd430719105fa03a054f654" target="_top" xlink:title="Codes.">
<polygon fill="white" stroke="#666666" points="801.5,-228 622.5,-228 622.5,-209 801.5,-209 801.5,-228"/>
<text text-anchor="middle" x="712" y="-216" font-family="Helvetica,sans-Serif" font-size="10.00">cam.nc.winpc.Creator.SPACE_STR</text>
</a>
</g>
</g>
<!-- Node10&#45;&gt;Node17 -->
<g id="edge16_Node000010_Node000017" class="edge">
<title>Node10&#45;&gt;Node17</title>
<g id="a_edge16_Node000010_Node000017"><a xlink:title=" ">
<path fill="none" stroke="#63b8ff" d="M568.61,-332C574.16,-329.49 579.39,-326.36 584,-322.5 615.75,-295.88 587.91,-262.71 620,-236.5 621.54,-235.24 623.15,-234.06 624.81,-232.95"/>
<polygon fill="#63b8ff" stroke="#63b8ff" points="626.54,-236 633.52,-228.03 623.09,-229.91 626.54,-236"/>
</a>
</g>
</g>
<!-- Node24&#45;&gt;Node5 -->
<g id="edge24_Node000024_Node000005" class="edge">
<title>Node24&#45;&gt;Node5</title>
<g id="a_edge24_Node000024_Node000005"><a xlink:title=" ">
<path fill="none" stroke="#63b8ff" d="M369.3,-152.96C388.77,-149.86 409.25,-146.59 427.99,-143.6"/>
<polygon fill="#63b8ff" stroke="#63b8ff" points="428.58,-147.05 437.9,-142.01 427.48,-140.13 428.58,-147.05"/>
</a>
</g>
</g>
<!-- Node24&#45;&gt;Node6 -->
<g id="edge25_Node000024_Node000006" class="edge">
<title>Node24&#45;&gt;Node6</title>
<g id="a_edge25_Node000024_Node000006"><a xlink:title=" ">
<path fill="none" stroke="#63b8ff" d="M352.84,-151.36C361.17,-148.55 369.41,-145.29 377,-141.5 395.14,-132.46 394.62,-122.05 413,-113.5 417.36,-111.47 421.95,-109.67 426.65,-108.07"/>
<polygon fill="#63b8ff" stroke="#63b8ff" points="427.89,-111.35 436.41,-105.05 425.82,-104.66 427.89,-111.35"/>
</a>
</g>
</g>
<!-- Node24&#45;&gt;Node7 -->
<g id="edge26_Node000024_Node000007" class="edge">
<title>Node24&#45;&gt;Node7</title>
<g id="a_edge26_Node000024_Node000007"><a xlink:title=" ">
<path fill="none" stroke="#63b8ff" d="M360.66,-151.47C366.49,-148.69 372.02,-145.4 377,-141.5 403,-121.14 387.13,-97.03 413,-76.5 414.61,-75.22 416.29,-74.01 418.02,-72.86"/>
<polygon fill="#63b8ff" stroke="#63b8ff" points="420.15,-75.67 427.07,-67.65 416.66,-69.61 420.15,-75.67"/>
</a>
</g>
</g>
<!-- Node24&#45;&gt;Node8 -->
<g id="edge27_Node000024_Node000008" class="edge">
<title>Node24&#45;&gt;Node8</title>
<g id="a_edge27_Node000024_Node000008"><a xlink:title=" ">
<path fill="none" stroke="#63b8ff" d="M363.75,-151.28C368.55,-148.53 373.03,-145.29 377,-141.5 415.09,-105.07 374.14,-64.11 413,-28.5 414.54,-27.09 416.16,-25.78 417.85,-24.56"/>
<polygon fill="#63b8ff" stroke="#63b8ff" points="420.03,-27.33 426.79,-19.17 416.42,-21.33 420.03,-27.33"/>
</a>
</g>
</g>
<!-- Node24&#45;&gt;Node9 -->
<g id="edge28_Node000024_Node000009" class="edge">
<title>Node24&#45;&gt;Node9</title>
<g id="a_edge28_Node000024_Node000009"><a xlink:title=" ">
<path fill="none" stroke="#63b8ff" d="M366.28,-181.71C370.18,-184.23 373.79,-187.14 377,-190.5 430.36,-246.33 360.28,-304.06 413,-360.5 414.07,-361.65 415.2,-362.74 416.37,-363.79"/>
<polygon fill="#63b8ff" stroke="#63b8ff" points="414.56,-366.81 424.67,-369.97 418.74,-361.19 414.56,-366.81"/>
</a>
</g>
</g>
<!-- Node24&#45;&gt;Node10 -->
<g id="edge29_Node000024_Node000010" class="edge">
<title>Node24&#45;&gt;Node10</title>
<g id="a_edge29_Node000024_Node000010"><a xlink:title=" ">
<path fill="none" stroke="#63b8ff" d="M365.63,-181.67C369.74,-184.2 373.58,-187.12 377,-190.5 420.26,-233.23 369.04,-280.48 413,-322.5 414.9,-324.32 416.94,-325.98 419.08,-327.49"/>
<polygon fill="#63b8ff" stroke="#63b8ff" points="417.43,-330.58 427.83,-332.62 420.98,-324.54 417.43,-330.58"/>
</a>
</g>
</g>
<!-- Node24&#45;&gt;Node18 -->
<g id="edge30_Node000024_Node000018" class="edge">
<title>Node24&#45;&gt;Node18</title>
<g id="a_edge30_Node000024_Node000018"><a xlink:title=" ">
<path fill="none" stroke="#63b8ff" d="M363.78,-181.52C368.51,-184.07 372.97,-187.04 377,-190.5 407.81,-216.97 382.5,-247.68 413,-274.5 414.34,-275.68 415.73,-276.8 417.17,-277.86"/>
<polygon fill="#63b8ff" stroke="#63b8ff" points="415.54,-280.97 425.86,-283.38 419.3,-275.07 415.54,-280.97"/>
</a>
</g>
</g>
<!-- Node24&#45;&gt;Node19 -->
<g id="edge31_Node000024_Node000019" class="edge">
<title>Node24&#45;&gt;Node19</title>
<g id="a_edge31_Node000024_Node000019"><a xlink:title=" ">
<path fill="none" stroke="#63b8ff" d="M360.02,-181.55C365.98,-184.08 371.73,-187.04 377,-190.5 398.71,-204.73 391.06,-222.62 413,-236.5 416.34,-238.61 419.88,-240.49 423.54,-242.16"/>
<polygon fill="#63b8ff" stroke="#63b8ff" points="422.29,-245.43 432.88,-245.89 424.9,-238.93 422.29,-245.43"/>
</a>
</g>
</g>
<!-- Node24&#45;&gt;Node20 -->
<g id="edge32_Node000024_Node000020" class="edge">
<title>Node24&#45;&gt;Node20</title>
<g id="a_edge32_Node000024_Node000020"><a xlink:title=" ">
<path fill="none" stroke="#63b8ff" d="M354.24,-181.56C374.67,-185.97 397.15,-190.83 418.12,-195.36"/>
<polygon fill="#63b8ff" stroke="#63b8ff" points="417.45,-198.79 427.96,-197.48 418.93,-191.95 417.45,-198.79"/>
</a>
</g>
</g>
<!-- Node24&#45;&gt;Node21 -->
<g id="edge33_Node000024_Node000021" class="edge">
<title>Node24&#45;&gt;Node21</title>
<g id="a_edge33_Node000024_Node000021"><a xlink:title=" ">
<path fill="none" stroke="#63b8ff" d="M369.3,-167.69C382.02,-167.87 395.18,-168.06 407.99,-168.24"/>
<polygon fill="#63b8ff" stroke="#63b8ff" points="408.14,-171.74 418.19,-168.38 408.24,-164.74 408.14,-171.74"/>
</a>
</g>
</g>
</g>
</svg>
