<?xml version="1.0" encoding="UTF-8" standalone="no"?>
<!DOCTYPE svg PUBLIC "-//W3C//DTD SVG 1.1//EN"
 "http://www.w3.org/Graphics/SVG/1.1/DTD/svg11.dtd">
<!-- Generated by graphviz version 2.43.0 (0)
 -->
<!-- Title: cam.nc.lathe1.CreatorIso.rapid Pages: 1 -->
<svg width="600pt" height="379pt"
 viewBox="0.00 0.00 600.00 379.00" xmlns="http://www.w3.org/2000/svg" xmlns:xlink="http://www.w3.org/1999/xlink">
<g id="graph0" class="graph" transform="scale(1 1) rotate(0) translate(4 375)">
<title>cam.nc.lathe1.CreatorIso.rapid</title>
<!-- Node1 -->
<g id="Node000001" class="node">
<title>Node1</title>
<g id="a_Node000001"><a xlink:title="Moves.">
<polygon fill="#999999" stroke="#666666" points="592,-195 425,-195 425,-176 592,-176 592,-195"/>
<text text-anchor="middle" x="508.5" y="-183" font-family="Helvetica,sans-Serif" font-size="10.00">cam.nc.lathe1.CreatorIso.rapid</text>
</a>
</g>
</g>
<!-- Node2 -->
<g id="Node000002" class="node">
<title>Node2</title>
<g id="a_Node000002"><a xlink:href="classcam_1_1nc_1_1heiden_1_1Creator.html#ab1ba24f0b927edab5d70c6642ceacfc4" target="_top" xlink:title=" ">
<polygon fill="white" stroke="#666666" points="363.5,-371 215.5,-371 215.5,-352 363.5,-352 363.5,-371"/>
<text text-anchor="middle" x="289.5" y="-359" font-family="Helvetica,sans-Serif" font-size="10.00">cam.nc.heiden.Creator.drill</text>
</a>
</g>
</g>
<!-- Node1&#45;&gt;Node2 -->
<g id="edge1_Node000001_Node000002" class="edge">
<title>Node1&#45;&gt;Node2</title>
<g id="a_edge1_Node000001_Node000002"><a xlink:title=" ">
<path fill="none" stroke="#63b8ff" d="M499.06,-204.59C482.97,-238.56 444.49,-309.17 389,-343.5 381.24,-348.3 372.52,-351.89 363.56,-354.56"/>
<polygon fill="#63b8ff" stroke="#63b8ff" points="502.33,-205.85 503.33,-195.3 495.97,-202.93 502.33,-205.85"/>
</a>
</g>
</g>
<!-- Node4 -->
<g id="Node000004" class="node">
<title>Node4</title>
<g id="a_Node000004"><a xlink:href="classcam_1_1nc_1_1iso_1_1Creator.html#a61f29267aaaddc3d5c8471f9bf714cb3" target="_top" xlink:title=" ">
<polygon fill="white" stroke="#666666" points="354,-334 225,-334 225,-315 354,-315 354,-334"/>
<text text-anchor="middle" x="289.5" y="-322" font-family="Helvetica,sans-Serif" font-size="10.00">cam.nc.iso.Creator.drill</text>
</a>
</g>
</g>
<!-- Node1&#45;&gt;Node4 -->
<g id="edge3_Node000001_Node000004" class="edge">
<title>Node1&#45;&gt;Node4</title>
<g id="a_edge3_Node000001_Node000004"><a xlink:title=" ">
<path fill="none" stroke="#63b8ff" d="M495.17,-203.67C475.88,-230.54 435.88,-280.43 389,-305.5 378.33,-311.21 366.19,-315.22 354.17,-318.03"/>
<polygon fill="#63b8ff" stroke="#63b8ff" points="498.23,-205.39 501.11,-195.2 492.5,-201.38 498.23,-205.39"/>
</a>
</g>
</g>
<!-- Node5 -->
<g id="Node000005" class="node">
<title>Node5</title>
<g id="a_Node000005"><a xlink:href="classcam_1_1nc_1_1heiden__read_1_1Parser.html#a9c64dcddf3c2c0d3248079dde5314cfe" target="_top" xlink:title=" ">
<polygon fill="white" stroke="#666666" points="364.5,-296.5 214.5,-296.5 214.5,-266.5 364.5,-266.5 364.5,-296.5"/>
<text text-anchor="start" x="222.5" y="-284.5" font-family="Helvetica,sans-Serif" font-size="10.00">cam.nc.heiden_read.Parser.</text>
<text text-anchor="middle" x="289.5" y="-273.5" font-family="Helvetica,sans-Serif" font-size="10.00">Parsey</text>
</a>
</g>
</g>
<!-- Node1&#45;&gt;Node5 -->
<g id="edge5_Node000001_Node000005" class="edge">
<title>Node1&#45;&gt;Node5</title>
<g id="a_edge5_Node000001_Node000005"><a xlink:title=" ">
<path fill="none" stroke="#63b8ff" d="M486.44,-201.06C463.53,-217.31 425.33,-242.46 389,-257.5 380.87,-260.87 372.16,-263.83 363.4,-266.43"/>
<polygon fill="#63b8ff" stroke="#63b8ff" points="488.63,-203.79 494.71,-195.11 484.55,-198.11 488.63,-203.79"/>
</a>
</g>
</g>
<!-- Node6 -->
<g id="Node000006" class="node">
<title>Node6</title>
<g id="a_Node000006"><a xlink:href="classcam_1_1nc_1_1heiden_1_1Creator.html#ae8e86bcc6f05521bf4b639128e3241ee" target="_top" xlink:title=" ">
<polygon fill="white" stroke="#666666" points="368,-248.5 211,-248.5 211,-218.5 368,-218.5 368,-248.5"/>
<text text-anchor="start" x="219" y="-236.5" font-family="Helvetica,sans-Serif" font-size="10.00">cam.nc.heiden.Creator.probe</text>
<text text-anchor="middle" x="289.5" y="-225.5" font-family="Helvetica,sans-Serif" font-size="10.00">_downward_point</text>
</a>
</g>
</g>
<!-- Node1&#45;&gt;Node6 -->
<g id="edge6_Node000001_Node000006" class="edge">
<title>Node1&#45;&gt;Node6</title>
<g id="a_edge6_Node000001_Node000006"><a xlink:title=" ">
<path fill="none" stroke="#63b8ff" d="M454.45,-197.24C425.49,-203.64 389.32,-211.64 358.33,-218.5"/>
<polygon fill="#63b8ff" stroke="#63b8ff" points="455.36,-200.62 464.37,-195.04 453.85,-193.78 455.36,-200.62"/>
</a>
</g>
</g>
<!-- Node7 -->
<g id="Node000007" class="node">
<title>Node7</title>
<g id="a_Node000007"><a xlink:href="classcam_1_1nc_1_1iso_1_1Creator.html#a40689f45d25f7f726d11a172b608c0a4" target="_top" xlink:title=" ">
<polygon fill="white" stroke="#666666" points="358.5,-200.5 220.5,-200.5 220.5,-170.5 358.5,-170.5 358.5,-200.5"/>
<text text-anchor="start" x="228.5" y="-188.5" font-family="Helvetica,sans-Serif" font-size="10.00">cam.nc.iso.Creator.probe</text>
<text text-anchor="middle" x="289.5" y="-177.5" font-family="Helvetica,sans-Serif" font-size="10.00">_downward_point</text>
</a>
</g>
</g>
<!-- Node1&#45;&gt;Node7 -->
<g id="edge7_Node000001_Node000007" class="edge">
<title>Node1&#45;&gt;Node7</title>
<g id="a_edge7_Node000001_Node000007"><a xlink:title=" ">
<path fill="none" stroke="#63b8ff" d="M414.79,-185.5C396.01,-185.5 376.58,-185.5 358.82,-185.5"/>
<polygon fill="#63b8ff" stroke="#63b8ff" points="414.84,-189 424.84,-185.5 414.84,-182 414.84,-189"/>
</a>
</g>
</g>
<!-- Node8 -->
<g id="Node000008" class="node">
<title>Node8</title>
<g id="a_Node000008"><a xlink:href="classcam_1_1nc_1_1heiden_1_1Creator.html#a921825a14a9068d234377d7ac3b7777f" target="_top" xlink:title=" ">
<polygon fill="white" stroke="#666666" points="368,-152.5 211,-152.5 211,-122.5 368,-122.5 368,-152.5"/>
<text text-anchor="start" x="219" y="-140.5" font-family="Helvetica,sans-Serif" font-size="10.00">cam.nc.heiden.Creator.probe</text>
<text text-anchor="middle" x="289.5" y="-129.5" font-family="Helvetica,sans-Serif" font-size="10.00">_single_point</text>
</a>
</g>
</g>
<!-- Node1&#45;&gt;Node8 -->
<g id="edge8_Node000001_Node000008" class="edge">
<title>Node1&#45;&gt;Node8</title>
<g id="a_edge8_Node000001_Node000008"><a xlink:title=" ">
<path fill="none" stroke="#63b8ff" d="M454.45,-173.76C425.49,-167.36 389.32,-159.36 358.33,-152.5"/>
<polygon fill="#63b8ff" stroke="#63b8ff" points="453.85,-177.22 464.37,-175.96 455.36,-170.38 453.85,-177.22"/>
</a>
</g>
</g>
<!-- Node9 -->
<g id="Node000009" class="node">
<title>Node9</title>
<g id="a_Node000009"><a xlink:href="classcam_1_1nc_1_1iso_1_1Creator.html#adc5343ffd168991077858693d6a79fef" target="_top" xlink:title=" ">
<polygon fill="white" stroke="#666666" points="358.5,-104.5 220.5,-104.5 220.5,-74.5 358.5,-74.5 358.5,-104.5"/>
<text text-anchor="start" x="228.5" y="-92.5" font-family="Helvetica,sans-Serif" font-size="10.00">cam.nc.iso.Creator.probe</text>
<text text-anchor="middle" x="289.5" y="-81.5" font-family="Helvetica,sans-Serif" font-size="10.00">_single_point</text>
</a>
</g>
</g>
<!-- Node1&#45;&gt;Node9 -->
<g id="edge9_Node000001_Node000009" class="edge">
<title>Node1&#45;&gt;Node9</title>
<g id="a_edge9_Node000001_Node000009"><a xlink:title=" ">
<path fill="none" stroke="#63b8ff" d="M486.44,-169.94C463.53,-153.69 425.33,-128.54 389,-113.5 379.41,-109.53 369,-106.11 358.67,-103.21"/>
<polygon fill="#63b8ff" stroke="#63b8ff" points="484.55,-172.89 494.71,-175.89 488.63,-167.21 484.55,-172.89"/>
</a>
</g>
</g>
<!-- Node10 -->
<g id="Node000010" class="node">
<title>Node10</title>
<g id="a_Node000010"><a xlink:href="classcam_1_1nc_1_1emc2tap_1_1CreatorEMC2tap.html#ae7c40089d2816698fbe6cfbc9a10a052" target="_top" xlink:title=" ">
<polygon fill="white" stroke="#666666" points="389,-56 190,-56 190,-37 389,-37 389,-56"/>
<text text-anchor="middle" x="289.5" y="-44" font-family="Helvetica,sans-Serif" font-size="10.00">cam.nc.emc2tap.CreatorEMC2tap.tap</text>
</a>
</g>
</g>
<!-- Node1&#45;&gt;Node10 -->
<g id="edge10_Node000001_Node000010" class="edge">
<title>Node1&#45;&gt;Node10</title>
<g id="a_edge10_Node000001_Node000010"><a xlink:title=" ">
<path fill="none" stroke="#63b8ff" d="M495.17,-167.33C475.88,-140.46 435.88,-90.57 389,-65.5 381.71,-61.6 373.73,-58.49 365.57,-56.02"/>
<polygon fill="#63b8ff" stroke="#63b8ff" points="492.5,-169.62 501.11,-175.8 498.23,-165.61 492.5,-169.62"/>
</a>
</g>
</g>
<!-- Node11 -->
<g id="Node000011" class="node">
<title>Node11</title>
<g id="a_Node000011"><a xlink:href="classcam_1_1nc_1_1heiden_1_1Creator.html#a706db14683812bb3b86db958d7faa05a" target="_top" xlink:title=" ">
<polygon fill="white" stroke="#666666" points="362,-19 217,-19 217,0 362,0 362,-19"/>
<text text-anchor="middle" x="289.5" y="-7" font-family="Helvetica,sans-Serif" font-size="10.00">cam.nc.heiden.Creator.tap</text>
</a>
</g>
</g>
<!-- Node1&#45;&gt;Node11 -->
<g id="edge11_Node000001_Node000011" class="edge">
<title>Node1&#45;&gt;Node11</title>
<g id="a_edge11_Node000001_Node000011"><a xlink:title=" ">
<path fill="none" stroke="#63b8ff" d="M498.99,-166.58C482.79,-132.91 444.15,-62.88 389,-28.5 380.8,-23.39 371.52,-19.6 362.02,-16.8"/>
<polygon fill="#63b8ff" stroke="#63b8ff" points="495.89,-168.21 503.29,-175.79 502.23,-165.25 495.89,-168.21"/>
</a>
</g>
</g>
<!-- Node3 -->
<g id="Node000003" class="node">
<title>Node3</title>
<g id="a_Node000003"><a xlink:href="classcam_1_1nc_1_1cad__iso__read_1_1Parser.html#abf885d019794a8bef1b69f446c8851e1" target="_top" xlink:title=" ">
<polygon fill="white" stroke="#666666" points="154,-357.5 0,-357.5 0,-327.5 154,-327.5 154,-357.5"/>
<text text-anchor="start" x="8" y="-345.5" font-family="Helvetica,sans-Serif" font-size="10.00">cam.nc.cad_iso_read.Parser.</text>
<text text-anchor="middle" x="77" y="-334.5" font-family="Helvetica,sans-Serif" font-size="10.00">Parse</text>
</a>
</g>
</g>
<!-- Node2&#45;&gt;Node3 -->
<g id="edge2_Node000002_Node000003" class="edge">
<title>Node2&#45;&gt;Node3</title>
<g id="a_edge2_Node000002_Node000003"><a xlink:title=" ">
<path fill="none" stroke="#63b8ff" d="M205.11,-353.97C188.29,-352.45 170.68,-350.87 154.12,-349.37"/>
<polygon fill="#63b8ff" stroke="#63b8ff" points="205.19,-357.49 215.47,-354.91 205.82,-350.52 205.19,-357.49"/>
</a>
</g>
</g>
<!-- Node4&#45;&gt;Node3 -->
<g id="edge4_Node000004_Node000003" class="edge">
<title>Node4&#45;&gt;Node3</title>
<g id="a_edge4_Node000004_Node000003"><a xlink:title=" ">
<path fill="none" stroke="#63b8ff" d="M214.68,-330.81C195.07,-332.49 173.85,-334.3 154.12,-335.99"/>
<polygon fill="#63b8ff" stroke="#63b8ff" points="215.11,-334.29 224.77,-329.95 214.51,-327.31 215.11,-334.29"/>
</a>
</g>
</g>
</g>
</svg>
