<?xml version="1.0" encoding="UTF-8" standalone="no"?>
<!DOCTYPE svg PUBLIC "-//W3C//DTD SVG 1.1//EN"
 "http://www.w3.org/Graphics/SVG/1.1/DTD/svg11.dtd">
<!-- Generated by graphviz version 2.43.0 (0)
 -->
<!-- Title: cam.nc.recreator.Redirector.coolant Pages: 1 -->
<svg width="615pt" height="122pt"
 viewBox="0.00 0.00 615.00 122.00" xmlns="http://www.w3.org/2000/svg" xmlns:xlink="http://www.w3.org/1999/xlink">
<g id="graph0" class="graph" transform="scale(1 1) rotate(0) translate(4 118)">
<title>cam.nc.recreator.Redirector.coolant</title>
<!-- Node1 -->
<g id="Node000001" class="node">
<title>Node1</title>
<g id="a_Node000001"><a xlink:title=" ">
<polygon fill="#999999" stroke="#666666" points="190,-56 0,-56 0,-37 190,-37 190,-56"/>
<text text-anchor="middle" x="95" y="-44" font-family="Helvetica,sans-Serif" font-size="10.00">cam.nc.recreator.Redirector.coolant</text>
</a>
</g>
</g>
<!-- Node1&#45;&gt;Node1 -->
<g id="edge1_Node000001_Node000001" class="edge">
<title>Node1&#45;&gt;Node1</title>
<g id="a_edge1_Node000001_Node000001"><a xlink:title=" ">
<path fill="none" stroke="#63b8ff" d="M59.86,-56.08C42.76,-64.73 54.48,-74 95,-74 124.76,-74 138.98,-69 137.67,-62.92"/>
<polygon fill="#63b8ff" stroke="#63b8ff" points="139.9,-60.22 130.14,-56.08 135.19,-65.4 139.9,-60.22"/>
</a>
</g>
</g>
<!-- Node2 -->
<g id="Node000002" class="node">
<title>Node2</title>
<g id="a_Node000002"><a xlink:href="classcam_1_1nc_1_1attach_1_1Creator.html#a15a75411685b954b0073489b30f1342e" target="_top" xlink:title=" ">
<polygon fill="white" stroke="#666666" points="408.5,-93 239.5,-93 239.5,-74 408.5,-74 408.5,-93"/>
<text text-anchor="middle" x="324" y="-81" font-family="Helvetica,sans-Serif" font-size="10.00">cam.nc.attach.Creator.cut_path</text>
</a>
</g>
</g>
<!-- Node1&#45;&gt;Node2 -->
<g id="edge2_Node000001_Node000002" class="edge">
<title>Node1&#45;&gt;Node2</title>
<g id="a_edge2_Node000001_Node000002"><a xlink:title=" ">
<path fill="none" stroke="#63b8ff" d="M154.46,-56.03C184.92,-60.99 222.37,-67.1 254.22,-72.29"/>
<polygon fill="#63b8ff" stroke="#63b8ff" points="253.91,-75.79 264.35,-73.94 255.04,-68.88 253.91,-75.79"/>
</a>
</g>
</g>
<!-- Node5 -->
<g id="Node000005" class="node">
<title>Node5</title>
<g id="a_Node000005"><a xlink:href="classcam_1_1nc_1_1drag__knife_1_1Creator.html#a5db2841a5c931c72702e9bb7752ea731" target="_top" xlink:title=" ">
<polygon fill="white" stroke="#666666" points="419,-56 229,-56 229,-37 419,-37 419,-56"/>
<text text-anchor="middle" x="324" y="-44" font-family="Helvetica,sans-Serif" font-size="10.00">cam.nc.drag_knife.Creator.cut_path</text>
</a>
</g>
</g>
<!-- Node1&#45;&gt;Node5 -->
<g id="edge5_Node000001_Node000005" class="edge">
<title>Node1&#45;&gt;Node5</title>
<g id="a_edge5_Node000001_Node000005"><a xlink:title=" ">
<path fill="none" stroke="#63b8ff" d="M190.3,-46.5C199.69,-46.5 209.26,-46.5 218.75,-46.5"/>
<polygon fill="#63b8ff" stroke="#63b8ff" points="219,-50 229,-46.5 219,-43 219,-50"/>
</a>
</g>
</g>
<!-- Node6 -->
<g id="Node000006" class="node">
<title>Node6</title>
<g id="a_Node000006"><a xlink:href="classcam_1_1nc_1_1recreator_1_1Redirector.html#ace3039c310a7ee83dafe4fee4382f511" target="_top" xlink:title=" ">
<polygon fill="white" stroke="#666666" points="422,-19 226,-19 226,0 422,0 422,-19"/>
<text text-anchor="middle" x="324" y="-7" font-family="Helvetica,sans-Serif" font-size="10.00">cam.nc.recreator.Redirector.cut_path</text>
</a>
</g>
</g>
<!-- Node1&#45;&gt;Node6 -->
<g id="edge6_Node000001_Node000006" class="edge">
<title>Node1&#45;&gt;Node6</title>
<g id="a_edge6_Node000001_Node000006"><a xlink:title=" ">
<path fill="none" stroke="#63b8ff" d="M154.46,-36.97C184.92,-32.01 222.37,-25.9 254.22,-20.71"/>
<polygon fill="#63b8ff" stroke="#63b8ff" points="255.04,-24.12 264.35,-19.06 253.91,-17.21 255.04,-24.12"/>
</a>
</g>
</g>
<!-- Node3 -->
<g id="Node000003" class="node">
<title>Node3</title>
<g id="a_Node000003"><a xlink:href="classcam_1_1nc_1_1attach_1_1Creator.html#a27a17497f0889323fd31aab4f857e577" target="_top" xlink:title=" ">
<polygon fill="white" stroke="#666666" points="607,-114 458,-114 458,-95 607,-95 607,-114"/>
<text text-anchor="middle" x="532.5" y="-102" font-family="Helvetica,sans-Serif" font-size="10.00">cam.nc.attach.Creator.feed</text>
</a>
</g>
</g>
<!-- Node2&#45;&gt;Node3 -->
<g id="edge3_Node000002_Node000003" class="edge">
<title>Node2&#45;&gt;Node3</title>
<g id="a_edge3_Node000002_Node000003"><a xlink:title=" ">
<path fill="none" stroke="#63b8ff" d="M408.69,-92.01C421.57,-93.32 434.87,-94.67 447.76,-95.98"/>
<polygon fill="#63b8ff" stroke="#63b8ff" points="447.68,-99.49 457.98,-97.02 448.38,-92.53 447.68,-99.49"/>
</a>
</g>
</g>
<!-- Node4 -->
<g id="Node000004" class="node">
<title>Node4</title>
<g id="a_Node000004"><a xlink:href="classcam_1_1nc_1_1attach_1_1Creator.html#a64e13dd00fd58d3db3818de0d188bafa" target="_top" xlink:title="Shift in Z.">
<polygon fill="white" stroke="#666666" points="603.5,-76.5 461.5,-76.5 461.5,-46.5 603.5,-46.5 603.5,-76.5"/>
<text text-anchor="start" x="469.5" y="-64.5" font-family="Helvetica,sans-Serif" font-size="10.00">cam.nc.attach.Creator.set</text>
<text text-anchor="middle" x="532.5" y="-53.5" font-family="Helvetica,sans-Serif" font-size="10.00">PdcfIfNotSet</text>
</a>
</g>
</g>
<!-- Node2&#45;&gt;Node4 -->
<g id="edge4_Node000002_Node000004" class="edge">
<title>Node2&#45;&gt;Node4</title>
<g id="a_edge4_Node000002_Node000004"><a xlink:title=" ">
<path fill="none" stroke="#63b8ff" d="M408.69,-74.58C422.73,-73.09 437.26,-71.54 451.21,-70.05"/>
<polygon fill="#63b8ff" stroke="#63b8ff" points="451.67,-73.52 461.24,-68.98 450.93,-66.56 451.67,-73.52"/>
</a>
</g>
</g>
</g>
</svg>
