<?xml version="1.0" encoding="UTF-8" standalone="no"?>
<!DOCTYPE svg PUBLIC "-//W3C//DTD SVG 1.1//EN"
 "http://www.w3.org/Graphics/SVG/1.1/DTD/svg11.dtd">
<!-- Generated by graphviz version 2.43.0 (0)
 -->
<!-- Title: cam.nc.emc2tap.CreatorEMC2tap Pages: 1 -->
<svg width="182pt" height="217pt"
 viewBox="0.00 0.00 182.00 217.00" xmlns="http://www.w3.org/2000/svg" xmlns:xlink="http://www.w3.org/1999/xlink">

<svg id="main" version="1.1" xmlns="http://www.w3.org/2000/svg" xmlns:xlink="http://www.w3.org/1999/xlink" xml:space="preserve" onload="init(evt)">
<style type="text/css"><![CDATA[
.node, .edge {opacity: 0.7;}
.node.selected, .edge.selected {opacity: 1;}
.edge:hover path { stroke: red; }
.edge:hover polygon { stroke: red; fill: red; }
]]></style>
<script type="application/ecmascript" xlink:href="svg.min.js"/>
<svg id="graph" class="graph">
<g id="graph0" class="graph" transform="scale(1 1) rotate(0) translate(4 213)">
<title>cam.nc.emc2tap.CreatorEMC2tap</title>
<!-- Node1 -->
<g id="Node000001" class="node">
<title>Node1</title>
<g id="a_Node000001"><a xlink:title=" ">
<polygon fill="#999999" stroke="transparent" points="174,-124 0,-124 0,0 174,0 174,-124"/>
<text text-anchor="start" x="5" y="-112" font-family="Helvetica,sans-Serif" font-size="10.00">cam.nc.emc2tap.CreatorEMC2tap</text>
<text text-anchor="start" x="33.5" y="-97" font-family="Helvetica,sans-Serif" font-size="10.00">+</text>
<text text-anchor="start" x="76" y="-97" font-family="Helvetica,sans-Serif" font-size="10.00">x</text>
<text text-anchor="start" x="33.5" y="-82" font-family="Helvetica,sans-Serif" font-size="10.00">+</text>
<text text-anchor="start" x="76" y="-82" font-family="Helvetica,sans-Serif" font-size="10.00">y</text>
<text text-anchor="start" x="33.5" y="-67" font-family="Helvetica,sans-Serif" font-size="10.00">+</text>
<text text-anchor="start" x="76" y="-67" font-family="Helvetica,sans-Serif" font-size="10.00">ffmt</text>
<text text-anchor="start" x="33.5" y="-52" font-family="Helvetica,sans-Serif" font-size="10.00">+</text>
<text text-anchor="start" x="76" y="-52" font-family="Helvetica,sans-Serif" font-size="10.00">z</text>
<text text-anchor="start" x="33.5" y="-37" font-family="Helvetica,sans-Serif" font-size="10.00">+</text>
<text text-anchor="start" x="76" y="-37" font-family="Helvetica,sans-Serif" font-size="10.00">creator</text>
<text text-anchor="start" x="33.5" y="-22" font-family="Helvetica,sans-Serif" font-size="10.00">+</text>
<text text-anchor="start" x="76" y="-22" font-family="Helvetica,sans-Serif" font-size="10.00">init()</text>
<text text-anchor="start" x="33.5" y="-7" font-family="Helvetica,sans-Serif" font-size="10.00">+</text>
<text text-anchor="start" x="76" y="-7" font-family="Helvetica,sans-Serif" font-size="10.00">tap()</text>
<polygon fill="#666666" stroke="#666666" points="0,-107 0,-107 174,-107 174,-107 0,-107"/>
<polygon fill="#666666" stroke="#666666" points="0,-32 0,-32 74,-32 74,-32 0,-32"/>
<polygon fill="#666666" stroke="#666666" points="74,-32 74,-32 174,-32 174,-32 74,-32"/>
<polygon fill="none" stroke="#666666" points="0,0 0,-124 174,-124 174,0 0,0"/>
</a>
</g>
</g>
<!-- Node2 -->
<g id="Node000002" class="node">
<title>Node2</title>
<g id="a_Node000002"><a xlink:title=" ">
<polygon fill="white" stroke="transparent" points="140.5,-209 33.5,-209 33.5,-160 140.5,-160 140.5,-209"/>
<text text-anchor="start" x="39" y="-196.5" font-family="Helvetica,sans-Serif" font-size="10.00">emc2::CreatorEMC2</text>
<text text-anchor="start" x="85.5" y="-181.5" font-family="Helvetica,sans-Serif" font-size="10.00"> </text>
<text text-anchor="start" x="85.5" y="-166.5" font-family="Helvetica,sans-Serif" font-size="10.00"> </text>
<polygon fill="#666666" stroke="#666666" points="34,-191.5 34,-191.5 141,-191.5 141,-191.5 34,-191.5"/>
<polygon fill="#666666" stroke="#666666" points="34,-176.5 34,-176.5 141,-176.5 141,-176.5 34,-176.5"/>
<polygon fill="none" stroke="#666666" points="33.5,-160 33.5,-209 140.5,-209 140.5,-160 33.5,-160"/>
</a>
</g>
</g>
<!-- Node2&#45;&gt;Node1 -->
<g id="edge1_Node000001_Node000002" class="edge">
<title>Node2&#45;&gt;Node1</title>
<g id="a_edge1_Node000001_Node000002"><a xlink:title=" ">
<path fill="none" stroke="#63b8ff" d="M87,-149.94C87,-141.91 87,-133.08 87,-124.23"/>
<polygon fill="none" stroke="#63b8ff" points="83.5,-149.98 87,-159.98 90.5,-149.98 83.5,-149.98"/>
</a>
</g>
</g>
</g>
</svg>
</svg>

<style type='text/css'>
<![CDATA[
[data-mouse-over-selected='false'] { opacity: 0.7; }
[data-mouse-over-selected='true']  { opacity: 1.0; }
]]>
</style>
<script type="application/ecmascript"><![CDATA[
document.addEventListener('DOMContentLoaded', (event) => {
  highlightEdges();
  highlightAdjacentNodes();
});
]]></script>
</svg>
