<?xml version="1.0" encoding="UTF-8" standalone="no"?>
<!DOCTYPE svg PUBLIC "-//W3C//DTD SVG 1.1//EN"
 "http://www.w3.org/Graphics/SVG/1.1/DTD/svg11.dtd">
<!-- Generated by graphviz version 2.43.0 (0)
 -->
<!-- Title: cam.nc.cad_iso_read.Parser Pages: 1 -->
<svg width="154pt" height="322pt"
 viewBox="0.00 0.00 154.00 322.00" xmlns="http://www.w3.org/2000/svg" xmlns:xlink="http://www.w3.org/1999/xlink">

<svg id="main" version="1.1" xmlns="http://www.w3.org/2000/svg" xmlns:xlink="http://www.w3.org/1999/xlink" xml:space="preserve" onload="init(evt)">
<style type="text/css"><![CDATA[
.node, .edge {opacity: 0.7;}
.node.selected, .edge.selected {opacity: 1;}
.edge:hover path { stroke: red; }
.edge:hover polygon { stroke: red; fill: red; }
]]></style>
<script type="application/ecmascript" xlink:href="svg.min.js"/>
<svg id="graph" class="graph">
<g id="graph0" class="graph" transform="scale(1 1) rotate(0) translate(4 318)">
<title>cam.nc.cad_iso_read.Parser</title>
<!-- Node1 -->
<g id="Node000001" class="node">
<title>Node1</title>
<g id="a_Node000001"><a xlink:title=" ">
<polygon fill="#999999" stroke="transparent" points="146,-229 0,-229 0,0 146,0 146,-229"/>
<text text-anchor="start" x="5" y="-216.5" font-family="Helvetica,sans-Serif" font-size="10.00">cam.nc.cad_iso_read.Parser</text>
<text text-anchor="start" x="17.5" y="-201.5" font-family="Helvetica,sans-Serif" font-size="10.00">+</text>
<text text-anchor="start" x="44" y="-201.5" font-family="Helvetica,sans-Serif" font-size="10.00">pattern_main</text>
<text text-anchor="start" x="17.5" y="-186.5" font-family="Helvetica,sans-Serif" font-size="10.00">+</text>
<text text-anchor="start" x="44" y="-186.5" font-family="Helvetica,sans-Serif" font-size="10.00">col</text>
<text text-anchor="start" x="17.5" y="-171.5" font-family="Helvetica,sans-Serif" font-size="10.00">+</text>
<text text-anchor="start" x="44" y="-171.5" font-family="Helvetica,sans-Serif" font-size="10.00">a</text>
<text text-anchor="start" x="17.5" y="-156.5" font-family="Helvetica,sans-Serif" font-size="10.00">+</text>
<text text-anchor="start" x="44" y="-156.5" font-family="Helvetica,sans-Serif" font-size="10.00">move</text>
<text text-anchor="start" x="17.5" y="-141.5" font-family="Helvetica,sans-Serif" font-size="10.00">+</text>
<text text-anchor="start" x="44" y="-141.5" font-family="Helvetica,sans-Serif" font-size="10.00">b</text>
<text text-anchor="start" x="17.5" y="-126.5" font-family="Helvetica,sans-Serif" font-size="10.00">+</text>
<text text-anchor="start" x="44" y="-126.5" font-family="Helvetica,sans-Serif" font-size="10.00">c</text>
<text text-anchor="start" x="17.5" y="-111.5" font-family="Helvetica,sans-Serif" font-size="10.00">+</text>
<text text-anchor="start" x="44" y="-111.5" font-family="Helvetica,sans-Serif" font-size="10.00">f</text>
<text text-anchor="start" x="17.5" y="-96.5" font-family="Helvetica,sans-Serif" font-size="10.00">+</text>
<text text-anchor="start" x="44" y="-96.5" font-family="Helvetica,sans-Serif" font-size="10.00">path_col</text>
<text text-anchor="start" x="17.5" y="-81.5" font-family="Helvetica,sans-Serif" font-size="10.00">+</text>
<text text-anchor="start" x="44" y="-81.5" font-family="Helvetica,sans-Serif" font-size="10.00">arc</text>
<text text-anchor="start" x="17.5" y="-66.5" font-family="Helvetica,sans-Serif" font-size="10.00">+</text>
<text text-anchor="start" x="44" y="-66.5" font-family="Helvetica,sans-Serif" font-size="10.00">no_move</text>
<text text-anchor="start" x="44" y="-51.5" font-family="Helvetica,sans-Serif" font-size="10.00">and 12 more...</text>
<text text-anchor="start" x="17.5" y="-36.5" font-family="Helvetica,sans-Serif" font-size="10.00">+</text>
<text text-anchor="start" x="44" y="-36.5" font-family="Helvetica,sans-Serif" font-size="10.00">__init__()</text>
<text text-anchor="start" x="17.5" y="-21.5" font-family="Helvetica,sans-Serif" font-size="10.00">+</text>
<text text-anchor="start" x="44" y="-21.5" font-family="Helvetica,sans-Serif" font-size="10.00">ParseWord()</text>
<text text-anchor="start" x="17.5" y="-6.5" font-family="Helvetica,sans-Serif" font-size="10.00">+</text>
<text text-anchor="start" x="44" y="-6.5" font-family="Helvetica,sans-Serif" font-size="10.00">Parse()</text>
<polygon fill="#666666" stroke="#666666" points="0,-211.5 0,-211.5 146,-211.5 146,-211.5 0,-211.5"/>
<polygon fill="#666666" stroke="#666666" points="0,-46.5 0,-46.5 42,-46.5 42,-46.5 0,-46.5"/>
<polygon fill="#666666" stroke="#666666" points="42,-46.5 42,-46.5 146,-46.5 146,-46.5 42,-46.5"/>
<polygon fill="none" stroke="#666666" points="0,0 0,-229 146,-229 146,0 0,0"/>
</a>
</g>
</g>
<!-- Node2 -->
<g id="Node000002" class="node">
<title>Node2</title>
<g id="a_Node000002"><a xlink:title=" ">
<polygon fill="white" stroke="transparent" points="102,-314 44,-314 44,-265 102,-265 102,-314"/>
<text text-anchor="start" x="49" y="-301.5" font-family="Helvetica,sans-Serif" font-size="10.00">nc::Parser</text>
<text text-anchor="start" x="71" y="-286.5" font-family="Helvetica,sans-Serif" font-size="10.00"> </text>
<text text-anchor="start" x="71" y="-271.5" font-family="Helvetica,sans-Serif" font-size="10.00"> </text>
<polygon fill="#666666" stroke="#666666" points="44,-296.5 44,-296.5 102,-296.5 102,-296.5 44,-296.5"/>
<polygon fill="#666666" stroke="#666666" points="44,-281.5 44,-281.5 102,-281.5 102,-281.5 44,-281.5"/>
<polygon fill="none" stroke="#666666" points="44,-265 44,-314 102,-314 102,-265 44,-265"/>
</a>
</g>
</g>
<!-- Node2&#45;&gt;Node1 -->
<g id="edge1_Node000001_Node000002" class="edge">
<title>Node2&#45;&gt;Node1</title>
<g id="a_edge1_Node000001_Node000002"><a xlink:title=" ">
<path fill="none" stroke="#63b8ff" d="M73,-254.77C73,-246.96 73,-238.21 73,-229.01"/>
<polygon fill="none" stroke="#63b8ff" points="69.5,-254.81 73,-264.81 76.5,-254.81 69.5,-254.81"/>
</a>
</g>
</g>
</g>
</svg>
</svg>

<style type='text/css'>
<![CDATA[
[data-mouse-over-selected='false'] { opacity: 0.7; }
[data-mouse-over-selected='true']  { opacity: 1.0; }
]]>
</style>
<script type="application/ecmascript"><![CDATA[
document.addEventListener('DOMContentLoaded', (event) => {
  highlightEdges();
  highlightAdjacentNodes();
});
]]></script>
</svg>
