<?xml version="1.0" encoding="UTF-8" standalone="no"?>
<!DOCTYPE svg PUBLIC "-//W3C//DTD SVG 1.1//EN"
 "http://www.w3.org/Graphics/SVG/1.1/DTD/svg11.dtd">
<!-- Generated by graphviz version 2.43.0 (0)
 -->
<!-- Title: cam.cam_operation.camOperation Pages: 1 -->
<svg width="1046pt" height="424pt"
 viewBox="0.00 0.00 1045.50 424.00" xmlns="http://www.w3.org/2000/svg" xmlns:xlink="http://www.w3.org/1999/xlink">
<g id="graph0" class="graph" transform="scale(1 1) rotate(0) translate(4 420)">
<title>cam.cam_operation.camOperation</title>
<!-- Node1 -->
<g id="Node000001" class="node">
<title>Node1</title>
<g id="a_Node000001"><a xlink:title=" ">
<polygon fill="#999999" stroke="transparent" points="595,-199 416,-199 416,0 595,0 595,-199"/>
<text text-anchor="start" x="421.5" y="-186.5" font-family="Helvetica,sans-Serif" font-size="10.00">cam.cam_operation.camOperation</text>
<text text-anchor="start" x="428" y="-171.5" font-family="Helvetica,sans-Serif" font-size="10.00">+</text>
<text text-anchor="start" x="448.5" y="-171.5" font-family="Helvetica,sans-Serif" font-size="10.00">name</text>
<text text-anchor="start" x="428" y="-156.5" font-family="Helvetica,sans-Serif" font-size="10.00">+</text>
<text text-anchor="start" x="448.5" y="-156.5" font-family="Helvetica,sans-Serif" font-size="10.00">filename</text>
<text text-anchor="start" x="428" y="-141.5" font-family="Helvetica,sans-Serif" font-size="10.00">+</text>
<text text-anchor="start" x="448.5" y="-141.5" font-family="Helvetica,sans-Serif" font-size="10.00">remove_redundant_points</text>
<text text-anchor="start" x="428" y="-126.5" font-family="Helvetica,sans-Serif" font-size="10.00">+</text>
<text text-anchor="start" x="448.5" y="-126.5" font-family="Helvetica,sans-Serif" font-size="10.00">hide_all_others</text>
<text text-anchor="start" x="428" y="-111.5" font-family="Helvetica,sans-Serif" font-size="10.00">+</text>
<text text-anchor="start" x="448.5" y="-111.5" font-family="Helvetica,sans-Serif" font-size="10.00">parent_path_to_object</text>
<text text-anchor="start" x="428" y="-96.5" font-family="Helvetica,sans-Serif" font-size="10.00">+</text>
<text text-anchor="start" x="448.5" y="-96.5" font-family="Helvetica,sans-Serif" font-size="10.00">object_name</text>
<text text-anchor="start" x="428" y="-81.5" font-family="Helvetica,sans-Serif" font-size="10.00">+</text>
<text text-anchor="start" x="448.5" y="-81.5" font-family="Helvetica,sans-Serif" font-size="10.00">source_image_name</text>
<text text-anchor="start" x="428" y="-66.5" font-family="Helvetica,sans-Serif" font-size="10.00">+</text>
<text text-anchor="start" x="448.5" y="-66.5" font-family="Helvetica,sans-Serif" font-size="10.00">cutter_object_name</text>
<text text-anchor="start" x="428" y="-51.5" font-family="Helvetica,sans-Serif" font-size="10.00">+</text>
<text text-anchor="start" x="448.5" y="-51.5" font-family="Helvetica,sans-Serif" font-size="10.00">strategy</text>
<text text-anchor="start" x="428" y="-36.5" font-family="Helvetica,sans-Serif" font-size="10.00">+</text>
<text text-anchor="start" x="448.5" y="-36.5" font-family="Helvetica,sans-Serif" font-size="10.00">strategy4axis</text>
<text text-anchor="start" x="448.5" y="-21.5" font-family="Helvetica,sans-Serif" font-size="10.00">and 82 more...</text>
<text text-anchor="start" x="504" y="-6.5" font-family="Helvetica,sans-Serif" font-size="10.00"> </text>
<polygon fill="#666666" stroke="#666666" points="416.5,-181.5 416.5,-181.5 595.5,-181.5 595.5,-181.5 416.5,-181.5"/>
<polygon fill="#666666" stroke="#666666" points="416.5,-16.5 416.5,-16.5 446.5,-16.5 446.5,-16.5 416.5,-16.5"/>
<polygon fill="#666666" stroke="#666666" points="446.5,-16.5 446.5,-16.5 595.5,-16.5 595.5,-16.5 446.5,-16.5"/>
<polygon fill="none" stroke="#666666" points="416,0 416,-199 595,-199 595,0 416,0"/>
</a>
</g>
</g>
<!-- Node2 -->
<g id="Node000002" class="node">
<title>Node2</title>
<g id="a_Node000002"><a xlink:title=" ">
<polygon fill="white" stroke="transparent" points="81,-416 0,-416 0,-367 81,-367 81,-416"/>
<text text-anchor="start" x="5.5" y="-403.5" font-family="Helvetica,sans-Serif" font-size="10.00">PropertyGroup</text>
<text text-anchor="start" x="39" y="-388.5" font-family="Helvetica,sans-Serif" font-size="10.00"> </text>
<text text-anchor="start" x="39" y="-373.5" font-family="Helvetica,sans-Serif" font-size="10.00"> </text>
<polygon fill="#666666" stroke="#666666" points="0.5,-398.5 0.5,-398.5 81.5,-398.5 81.5,-398.5 0.5,-398.5"/>
<polygon fill="#666666" stroke="#666666" points="0.5,-383.5 0.5,-383.5 81.5,-383.5 81.5,-383.5 0.5,-383.5"/>
<polygon fill="none" stroke="#666666" points="0,-367 0,-416 81,-416 81,-367 0,-367"/>
</a>
</g>
</g>
<!-- Node2&#45;&gt;Node1 -->
<g id="edge1_Node000001_Node000002" class="edge">
<title>Node2&#45;&gt;Node1</title>
<g id="a_edge1_Node000001_Node000002"><a xlink:title=" ">
<path fill="none" stroke="#63b8ff" d="M48.68,-357.01C59.94,-317.9 83.94,-253.87 127.5,-217 209.53,-147.56 332.53,-119.48 415.75,-108.15"/>
<polygon fill="none" stroke="#63b8ff" points="45.25,-356.29 45.96,-366.86 52,-358.15 45.25,-356.29"/>
</a>
</g>
</g>
<!-- Node3 -->
<g id="Node000003" class="node">
<title>Node3</title>
<g id="a_Node000003"><a xlink:title=" ">
<polygon fill="white" stroke="transparent" points="185.5,-416 99.5,-416 99.5,-367 185.5,-367 185.5,-416"/>
<text text-anchor="start" x="104.5" y="-403.5" font-family="Helvetica,sans-Serif" font-size="10.00">PointerProperty</text>
<text text-anchor="start" x="140.5" y="-388.5" font-family="Helvetica,sans-Serif" font-size="10.00"> </text>
<text text-anchor="start" x="140.5" y="-373.5" font-family="Helvetica,sans-Serif" font-size="10.00"> </text>
<polygon fill="#666666" stroke="#666666" points="99.5,-398.5 99.5,-398.5 185.5,-398.5 185.5,-398.5 99.5,-398.5"/>
<polygon fill="#666666" stroke="#666666" points="99.5,-383.5 99.5,-383.5 185.5,-383.5 185.5,-383.5 99.5,-383.5"/>
<polygon fill="none" stroke="#666666" points="99.5,-367 99.5,-416 185.5,-416 185.5,-367 99.5,-367"/>
</a>
</g>
</g>
<!-- Node3&#45;&gt;Node1 -->
<g id="edge2_Node000001_Node000003" class="edge">
<title>Node3&#45;&gt;Node1</title>
<g id="a_edge2_Node000001_Node000003"><a xlink:title=" ">
<path fill="none" stroke="#63b8ff" d="M137.11,-366.83C130.31,-330.45 123.27,-260.47 157.5,-217 215.98,-142.72 323.58,-115.41 403.72,-105.58"/>
<polygon fill="none" stroke="#63b8ff" points="403.91,-105.55 409.41,-100.9 415.83,-104.19 410.32,-108.85 403.91,-105.55"/>
</a>
</g>
<text text-anchor="middle" x="192.5" y="-297" font-family="Helvetica,sans-Serif" font-size="10.00" fill="grey"> +info</text>
<text text-anchor="middle" x="192.5" y="-286" font-family="Helvetica,sans-Serif" font-size="10.00" fill="grey">+material</text>
<text text-anchor="middle" x="192.5" y="-275" font-family="Helvetica,sans-Serif" font-size="10.00" fill="grey">+movement</text>
<text text-anchor="middle" x="192.5" y="-264" font-family="Helvetica,sans-Serif" font-size="10.00" fill="grey">+optimisation</text>
</g>
<!-- Node4 -->
<g id="Node000004" class="node">
<title>Node4</title>
<g id="a_Node000004"><a xlink:title=" ">
<polygon fill="white" stroke="transparent" points="283.5,-416 203.5,-416 203.5,-367 283.5,-367 283.5,-416"/>
<text text-anchor="start" x="208.5" y="-403.5" font-family="Helvetica,sans-Serif" font-size="10.00">StringProperty</text>
<text text-anchor="start" x="241.5" y="-388.5" font-family="Helvetica,sans-Serif" font-size="10.00"> </text>
<text text-anchor="start" x="241.5" y="-373.5" font-family="Helvetica,sans-Serif" font-size="10.00"> </text>
<polygon fill="#666666" stroke="#666666" points="203.5,-398.5 203.5,-398.5 283.5,-398.5 283.5,-398.5 203.5,-398.5"/>
<polygon fill="#666666" stroke="#666666" points="203.5,-383.5 203.5,-383.5 283.5,-383.5 283.5,-383.5 203.5,-383.5"/>
<polygon fill="none" stroke="#666666" points="203.5,-367 203.5,-416 283.5,-416 283.5,-367 203.5,-367"/>
</a>
</g>
</g>
<!-- Node4&#45;&gt;Node1 -->
<g id="edge3_Node000001_Node000004" class="edge">
<title>Node4&#45;&gt;Node1</title>
<g id="a_edge3_Node000001_Node000004"><a xlink:title=" ">
<path fill="none" stroke="#63b8ff" d="M237.95,-366.76C231.01,-330.91 223.49,-262.34 254.5,-217 288.8,-166.85 350.46,-137.81 404.09,-121.27"/>
<polygon fill="none" stroke="#63b8ff" points="404.24,-121.23 408.86,-115.69 415.75,-117.83 411.13,-123.37 404.24,-121.23"/>
</a>
</g>
<text text-anchor="middle" x="303" y="-341" font-family="Helvetica,sans-Serif" font-size="10.00" fill="grey"> +Laser_cmd</text>
<text text-anchor="middle" x="303" y="-330" font-family="Helvetica,sans-Serif" font-size="10.00" fill="grey">+Laser_off</text>
<text text-anchor="middle" x="303" y="-319" font-family="Helvetica,sans-Serif" font-size="10.00" fill="grey">+Laser_on</text>
<text text-anchor="middle" x="303" y="-308" font-family="Helvetica,sans-Serif" font-size="10.00" fill="grey">+Plasma_off</text>
<text text-anchor="middle" x="303" y="-297" font-family="Helvetica,sans-Serif" font-size="10.00" fill="grey">+Plasma_on</text>
<text text-anchor="start" x="254.5" y="-286" font-family="Helvetica,sans-Serif" font-size="10.00" fill="grey">+bridges_collection</text>
<text text-anchor="middle" x="303" y="-275" font-family="Helvetica,sans-Serif" font-size="10.00" fill="grey">_name</text>
<text text-anchor="middle" x="303" y="-264" font-family="Helvetica,sans-Serif" font-size="10.00" fill="grey">+changedata</text>
<text text-anchor="middle" x="303" y="-253" font-family="Helvetica,sans-Serif" font-size="10.00" fill="grey">+collection_name</text>
<text text-anchor="middle" x="303" y="-242" font-family="Helvetica,sans-Serif" font-size="10.00" fill="grey">+curve_object</text>
<text text-anchor="middle" x="303" y="-231" font-family="Helvetica,sans-Serif" font-size="10.00" fill="grey">+curve_object1</text>
<text text-anchor="middle" x="303" y="-220" font-family="Helvetica,sans-Serif" font-size="10.00" fill="grey">...</text>
</g>
<!-- Node5 -->
<g id="Node000005" class="node">
<title>Node5</title>
<g id="a_Node000005"><a xlink:title=" ">
<polygon fill="white" stroke="transparent" points="396.5,-416 322.5,-416 322.5,-367 396.5,-367 396.5,-416"/>
<text text-anchor="start" x="327.5" y="-403.5" font-family="Helvetica,sans-Serif" font-size="10.00">BoolProperty</text>
<text text-anchor="start" x="357.5" y="-388.5" font-family="Helvetica,sans-Serif" font-size="10.00"> </text>
<text text-anchor="start" x="357.5" y="-373.5" font-family="Helvetica,sans-Serif" font-size="10.00"> </text>
<polygon fill="#666666" stroke="#666666" points="322.5,-398.5 322.5,-398.5 396.5,-398.5 396.5,-398.5 322.5,-398.5"/>
<polygon fill="#666666" stroke="#666666" points="322.5,-383.5 322.5,-383.5 396.5,-383.5 396.5,-383.5 322.5,-383.5"/>
<polygon fill="none" stroke="#666666" points="322.5,-367 322.5,-416 396.5,-416 396.5,-367 322.5,-367"/>
</a>
</g>
</g>
<!-- Node5&#45;&gt;Node1 -->
<g id="edge4_Node000001_Node000005" class="edge">
<title>Node5&#45;&gt;Node1</title>
<g id="a_edge4_Node000001_Node000005"><a xlink:title=" ">
<path fill="none" stroke="#63b8ff" d="M357.04,-366.86C354.48,-332.03 353.79,-265.79 378.5,-217 385.95,-202.29 396.08,-188.51 407.39,-175.94"/>
<polygon fill="none" stroke="#63b8ff" points="407.58,-175.74 408.79,-168.64 415.81,-167.01 414.61,-174.12 407.58,-175.74"/>
</a>
</g>
<text text-anchor="middle" x="440" y="-341" font-family="Helvetica,sans-Serif" font-size="10.00" fill="grey"> +A_along_x</text>
<text text-anchor="middle" x="440" y="-330" font-family="Helvetica,sans-Serif" font-size="10.00" fill="grey">+add_mesh_for_medial</text>
<text text-anchor="middle" x="440" y="-319" font-family="Helvetica,sans-Serif" font-size="10.00" fill="grey">+add_pocket_for_medial</text>
<text text-anchor="middle" x="440" y="-308" font-family="Helvetica,sans-Serif" font-size="10.00" fill="grey">+ambient_cutter_restrict</text>
<text text-anchor="middle" x="440" y="-297" font-family="Helvetica,sans-Serif" font-size="10.00" fill="grey">+array</text>
<text text-anchor="middle" x="440" y="-286" font-family="Helvetica,sans-Serif" font-size="10.00" fill="grey">+auto_export</text>
<text text-anchor="middle" x="440" y="-275" font-family="Helvetica,sans-Serif" font-size="10.00" fill="grey">+changed</text>
<text text-anchor="middle" x="440" y="-264" font-family="Helvetica,sans-Serif" font-size="10.00" fill="grey">+computing</text>
<text text-anchor="start" x="378.5" y="-253" font-family="Helvetica,sans-Serif" font-size="10.00" fill="grey">+do_simulation</text>
<text text-anchor="middle" x="440" y="-242" font-family="Helvetica,sans-Serif" font-size="10.00" fill="grey">_feedrate</text>
<text text-anchor="middle" x="440" y="-231" font-family="Helvetica,sans-Serif" font-size="10.00" fill="grey">+dont_merge</text>
<text text-anchor="middle" x="440" y="-220" font-family="Helvetica,sans-Serif" font-size="10.00" fill="grey">...</text>
</g>
<!-- Node6 -->
<g id="Node000006" class="node">
<title>Node6</title>
<g id="a_Node000006"><a xlink:title=" ">
<polygon fill="white" stroke="transparent" points="538,-416 473,-416 473,-367 538,-367 538,-416"/>
<text text-anchor="start" x="478.5" y="-403.5" font-family="Helvetica,sans-Serif" font-size="10.00">IntProperty</text>
<text text-anchor="start" x="504" y="-388.5" font-family="Helvetica,sans-Serif" font-size="10.00"> </text>
<text text-anchor="start" x="504" y="-373.5" font-family="Helvetica,sans-Serif" font-size="10.00"> </text>
<polygon fill="#666666" stroke="#666666" points="473.5,-398.5 473.5,-398.5 538.5,-398.5 538.5,-398.5 473.5,-398.5"/>
<polygon fill="#666666" stroke="#666666" points="473.5,-383.5 473.5,-383.5 538.5,-383.5 538.5,-383.5 473.5,-383.5"/>
<polygon fill="none" stroke="#666666" points="473,-367 473,-416 538,-416 538,-367 473,-367"/>
</a>
</g>
</g>
<!-- Node6&#45;&gt;Node1 -->
<g id="edge5_Node000001_Node000006" class="edge">
<title>Node6&#45;&gt;Node1</title>
<g id="a_edge5_Node000001_Node000006"><a xlink:title=" ">
<path fill="none" stroke="#63b8ff" d="M505.5,-366.77C505.5,-332.86 505.5,-268.33 505.5,-211.29"/>
<polygon fill="none" stroke="#63b8ff" points="505.5,-211.25 501.5,-205.25 505.5,-199.25 509.5,-205.25 505.5,-211.25"/>
</a>
</g>
<text text-anchor="middle" x="546" y="-319" font-family="Helvetica,sans-Serif" font-size="10.00" fill="grey"> +array_x_count</text>
<text text-anchor="middle" x="546" y="-308" font-family="Helvetica,sans-Serif" font-size="10.00" fill="grey">+array_y_count</text>
<text text-anchor="middle" x="546" y="-297" font-family="Helvetica,sans-Serif" font-size="10.00" fill="grey">+cutter_flutes</text>
<text text-anchor="middle" x="546" y="-286" font-family="Helvetica,sans-Serif" font-size="10.00" fill="grey">+cutter_id</text>
<text text-anchor="middle" x="546" y="-275" font-family="Helvetica,sans-Serif" font-size="10.00" fill="grey">+outlines_count</text>
<text text-anchor="middle" x="546" y="-264" font-family="Helvetica,sans-Serif" font-size="10.00" fill="grey">+pid</text>
<text text-anchor="middle" x="546" y="-253" font-family="Helvetica,sans-Serif" font-size="10.00" fill="grey">+profile_start</text>
<text text-anchor="middle" x="546" y="-242" font-family="Helvetica,sans-Serif" font-size="10.00" fill="grey">+simplify_tol</text>
</g>
<!-- Node7 -->
<g id="Node000007" class="node">
<title>Node7</title>
<g id="a_Node000007"><a xlink:title=" ">
<polygon fill="white" stroke="transparent" points="649.5,-416 569.5,-416 569.5,-367 649.5,-367 649.5,-416"/>
<text text-anchor="start" x="574.5" y="-403.5" font-family="Helvetica,sans-Serif" font-size="10.00">EnumProperty</text>
<text text-anchor="start" x="607.5" y="-388.5" font-family="Helvetica,sans-Serif" font-size="10.00"> </text>
<text text-anchor="start" x="607.5" y="-373.5" font-family="Helvetica,sans-Serif" font-size="10.00"> </text>
<polygon fill="#666666" stroke="#666666" points="569.5,-398.5 569.5,-398.5 649.5,-398.5 649.5,-398.5 569.5,-398.5"/>
<polygon fill="#666666" stroke="#666666" points="569.5,-383.5 569.5,-383.5 649.5,-383.5 649.5,-383.5 569.5,-383.5"/>
<polygon fill="none" stroke="#666666" points="569.5,-367 569.5,-416 649.5,-416 649.5,-367 569.5,-367"/>
</a>
</g>
</g>
<!-- Node7&#45;&gt;Node1 -->
<g id="edge6_Node000001_Node000007" class="edge">
<title>Node7&#45;&gt;Node1</title>
<g id="a_edge6_Node000001_Node000007"><a xlink:title=" ">
<path fill="none" stroke="#63b8ff" d="M610.06,-366.89C610.09,-332.67 607.19,-267.82 587.5,-217 586.59,-214.66 585.63,-212.32 584.61,-209.98"/>
<polygon fill="none" stroke="#63b8ff" points="584.61,-209.98 578.44,-206.25 579.51,-199.12 585.68,-202.85 584.61,-209.98"/>
</a>
</g>
<text text-anchor="middle" x="662.5" y="-335.5" font-family="Helvetica,sans-Serif" font-size="10.00" fill="grey"> +ambient_behaviour</text>
<text text-anchor="middle" x="662.5" y="-324.5" font-family="Helvetica,sans-Serif" font-size="10.00" fill="grey">+cut_type</text>
<text text-anchor="middle" x="662.5" y="-313.5" font-family="Helvetica,sans-Serif" font-size="10.00" fill="grey">+cutter_type</text>
<text text-anchor="middle" x="662.5" y="-302.5" font-family="Helvetica,sans-Serif" font-size="10.00" fill="grey">+drill_type</text>
<text text-anchor="middle" x="662.5" y="-291.5" font-family="Helvetica,sans-Serif" font-size="10.00" fill="grey">+geometry_source</text>
<text text-anchor="middle" x="662.5" y="-280.5" font-family="Helvetica,sans-Serif" font-size="10.00" fill="grey">+machine_axes</text>
<text text-anchor="middle" x="662.5" y="-269.5" font-family="Helvetica,sans-Serif" font-size="10.00" fill="grey">+minz_from</text>
<text text-anchor="middle" x="662.5" y="-258.5" font-family="Helvetica,sans-Serif" font-size="10.00" fill="grey">+pocket_option</text>
<text text-anchor="middle" x="662.5" y="-247.5" font-family="Helvetica,sans-Serif" font-size="10.00" fill="grey">+rotary_axis_1</text>
<text text-anchor="middle" x="662.5" y="-236.5" font-family="Helvetica,sans-Serif" font-size="10.00" fill="grey">+rotary_axis_2</text>
<text text-anchor="middle" x="662.5" y="-225.5" font-family="Helvetica,sans-Serif" font-size="10.00" fill="grey">...</text>
</g>
<!-- Node8 -->
<g id="Node000008" class="node">
<title>Node8</title>
<g id="a_Node000008"><a xlink:title=" ">
<polygon fill="white" stroke="transparent" points="777,-416 700,-416 700,-367 777,-367 777,-416"/>
<text text-anchor="start" x="705.5" y="-403.5" font-family="Helvetica,sans-Serif" font-size="10.00">FloatProperty</text>
<text text-anchor="start" x="737" y="-388.5" font-family="Helvetica,sans-Serif" font-size="10.00"> </text>
<text text-anchor="start" x="737" y="-373.5" font-family="Helvetica,sans-Serif" font-size="10.00"> </text>
<polygon fill="#666666" stroke="#666666" points="700.5,-398.5 700.5,-398.5 777.5,-398.5 777.5,-398.5 700.5,-398.5"/>
<polygon fill="#666666" stroke="#666666" points="700.5,-383.5 700.5,-383.5 777.5,-383.5 777.5,-383.5 700.5,-383.5"/>
<polygon fill="none" stroke="#666666" points="700,-367 700,-416 777,-416 777,-367 700,-367"/>
</a>
</g>
</g>
<!-- Node8&#45;&gt;Node1 -->
<g id="edge7_Node000001_Node000008" class="edge">
<title>Node8&#45;&gt;Node1</title>
<g id="a_edge7_Node000001_Node000008"><a xlink:title=" ">
<path fill="none" stroke="#63b8ff" d="M738.11,-366.94C736.99,-325.32 732.74,-240.93 716.5,-217 690.3,-178.38 646.88,-151.3 606.22,-133.04"/>
<polygon fill="none" stroke="#63b8ff" points="606.13,-133 599.04,-134.29 595.12,-128.23 602.21,-126.95 606.13,-133"/>
</a>
</g>
<text text-anchor="middle" x="785.5" y="-335.5" font-family="Helvetica,sans-Serif" font-size="10.00" fill="grey"> +Laser_delay</text>
<text text-anchor="middle" x="785.5" y="-324.5" font-family="Helvetica,sans-Serif" font-size="10.00" fill="grey">+Plasma_delay</text>
<text text-anchor="middle" x="785.5" y="-313.5" font-family="Helvetica,sans-Serif" font-size="10.00" fill="grey">+Plasma_dwell</text>
<text text-anchor="middle" x="785.5" y="-302.5" font-family="Helvetica,sans-Serif" font-size="10.00" fill="grey">+ambient_radius</text>
<text text-anchor="middle" x="785.5" y="-291.5" font-family="Helvetica,sans-Serif" font-size="10.00" fill="grey">+array_x_distance</text>
<text text-anchor="middle" x="785.5" y="-280.5" font-family="Helvetica,sans-Serif" font-size="10.00" fill="grey">+array_y_distance</text>
<text text-anchor="middle" x="785.5" y="-269.5" font-family="Helvetica,sans-Serif" font-size="10.00" fill="grey">+ball_radius</text>
<text text-anchor="middle" x="785.5" y="-258.5" font-family="Helvetica,sans-Serif" font-size="10.00" fill="grey">+bridges_height</text>
<text text-anchor="middle" x="785.5" y="-247.5" font-family="Helvetica,sans-Serif" font-size="10.00" fill="grey">+bridges_width</text>
<text text-anchor="middle" x="785.5" y="-236.5" font-family="Helvetica,sans-Serif" font-size="10.00" fill="grey">+bull_corner_radius</text>
<text text-anchor="middle" x="785.5" y="-225.5" font-family="Helvetica,sans-Serif" font-size="10.00" fill="grey">...</text>
</g>
<!-- Node9 -->
<g id="Node000009" class="node">
<title>Node9</title>
<g id="a_Node000009"><a xlink:title=" ">
<polygon fill="white" stroke="transparent" points="913,-416 806,-416 806,-367 913,-367 913,-416"/>
<text text-anchor="start" x="811.5" y="-403.5" font-family="Helvetica,sans-Serif" font-size="10.00">FloatVectorProperty</text>
<text text-anchor="start" x="858" y="-388.5" font-family="Helvetica,sans-Serif" font-size="10.00"> </text>
<text text-anchor="start" x="858" y="-373.5" font-family="Helvetica,sans-Serif" font-size="10.00"> </text>
<polygon fill="#666666" stroke="#666666" points="806.5,-398.5 806.5,-398.5 913.5,-398.5 913.5,-398.5 806.5,-398.5"/>
<polygon fill="#666666" stroke="#666666" points="806.5,-383.5 806.5,-383.5 913.5,-383.5 913.5,-383.5 806.5,-383.5"/>
<polygon fill="none" stroke="#666666" points="806,-367 806,-416 913,-416 913,-367 806,-367"/>
</a>
</g>
</g>
<!-- Node9&#45;&gt;Node1 -->
<g id="edge8_Node000001_Node000009" class="edge">
<title>Node9&#45;&gt;Node1</title>
<g id="a_edge8_Node000001_Node000009"><a xlink:title=" ">
<path fill="none" stroke="#63b8ff" d="M859.49,-366.99C859,-325.03 855.73,-239.55 837.5,-217 781.83,-148.12 682.72,-119.89 607.23,-108.36"/>
<polygon fill="none" stroke="#63b8ff" points="607.21,-108.36 600.7,-111.46 595.33,-106.65 601.84,-103.55 607.21,-108.36"/>
</a>
</g>
<text text-anchor="middle" x="897" y="-297" font-family="Helvetica,sans-Serif" font-size="10.00" fill="grey"> +max</text>
<text text-anchor="middle" x="897" y="-286" font-family="Helvetica,sans-Serif" font-size="10.00" fill="grey">+min</text>
<text text-anchor="start" x="858.5" y="-275" font-family="Helvetica,sans-Serif" font-size="10.00" fill="grey">+source_image</text>
<text text-anchor="middle" x="897" y="-264" font-family="Helvetica,sans-Serif" font-size="10.00" fill="grey">_offset</text>
</g>
<!-- Node10 -->
<g id="Node000010" class="node">
<title>Node10</title>
<g id="a_Node000010"><a xlink:title=" ">
<polygon fill="white" stroke="transparent" points="971,-416 948,-416 948,-367 971,-367 971,-416"/>
<text text-anchor="start" x="953.5" y="-403.5" font-family="Helvetica,sans-Serif" font-size="10.00">int</text>
<text text-anchor="start" x="958" y="-388.5" font-family="Helvetica,sans-Serif" font-size="10.00"> </text>
<text text-anchor="start" x="958" y="-373.5" font-family="Helvetica,sans-Serif" font-size="10.00"> </text>
<polygon fill="#666666" stroke="#666666" points="948.5,-398.5 948.5,-398.5 971.5,-398.5 971.5,-398.5 948.5,-398.5"/>
<polygon fill="#666666" stroke="#666666" points="948.5,-383.5 948.5,-383.5 971.5,-383.5 971.5,-383.5 948.5,-383.5"/>
<polygon fill="none" stroke="#666666" points="948,-367 948,-416 971,-416 971,-367 948,-367"/>
</a>
</g>
</g>
<!-- Node10&#45;&gt;Node1 -->
<g id="edge9_Node000001_Node000010" class="edge">
<title>Node10&#45;&gt;Node1</title>
<g id="a_edge9_Node000001_Node000010"><a xlink:title=" ">
<path fill="none" stroke="#63b8ff" d="M964.01,-366.74C969.54,-329.94 974.1,-259.01 937.5,-217 894.54,-167.7 721.23,-132.85 607.61,-114.78"/>
<polygon fill="none" stroke="#63b8ff" points="607.29,-114.73 600.74,-117.75 595.44,-112.87 601.98,-109.85 607.29,-114.73"/>
</a>
</g>
<text text-anchor="middle" x="1002.5" y="-280.5" font-family="Helvetica,sans-Serif" font-size="10.00" fill="grey"> +borderwidth</text>
</g>
</g>
</svg>
