<?xml version="1.0" encoding="UTF-8" standalone="no"?>
<!DOCTYPE svg PUBLIC "-//W3C//DTD SVG 1.1//EN"
 "http://www.w3.org/Graphics/SVG/1.1/DTD/svg11.dtd">
<!-- Generated by graphviz version 2.43.0 (0)
 -->
<!-- Title: cam.nc.hxml_writer.HxmlWriter.add_arc Pages: 1 -->
<!--zoomable 257 -->

<svg id="main" version="1.1" xmlns="http://www.w3.org/2000/svg" xmlns:xlink="http://www.w3.org/1999/xlink" xml:space="preserve" onload="init(evt)">
<style type="text/css"><![CDATA[
.node, .edge {opacity: 0.7;}
.node.selected, .edge.selected {opacity: 1;}
.edge:hover path { stroke: red; }
.edge:hover polygon { stroke: red; fill: red; }
]]></style>

<defs>
  <circle id="rim" cx="0" cy="0" r="7"/>
  <circle id="rim2" cx="0" cy="0" r="3.5"/>
  <g id="zoomPlus">
    <use xlink:href="#rim" fill="#404040"><set attributeName="fill" to="#808080" begin="zoomplus.mouseover" end="zoomplus.mouseout"/></use>
    <path d="M-4,0h8M0,-4v8" fill="none" stroke="white" stroke-width="1.5" pointer-events="none"/>
  </g>
  <g id="zoomMin">
    <use xlink:href="#rim" fill="#404040"><set attributeName="fill" to="#808080" begin="zoomminus.mouseover" end="zoomminus.mouseout"/></use>
    <path d="M-4,0h8" fill="none" stroke="white" stroke-width="1.5" pointer-events="none"/>
  </g>
  <g id="arrowUp" transform="translate(30 24)">
    <use xlink:href="#rim"/>
    <path pointer-events="none" fill="none" stroke="white" stroke-width="1.5" d="M0,-3.0v7 M-2.5,-0.5L0,-3.0L2.5,-0.5"/>
  </g>
  <g id="arrowRight" transform="rotate(90) translate(36 -43)">
    <use xlink:href="#rim"/>
    <path pointer-events="none" fill="none" stroke="white" stroke-width="1.5" d="M0,-3.0v7 M-2.5,-0.5L0,-3.0L2.5,-0.5"/>
  </g>
  <g id="arrowDown" transform="rotate(180) translate(-30 -48)">
    <use xlink:href="#rim"/>
    <path pointer-events="none" fill="none" stroke="white" stroke-width="1.5" d="M0,-3.0v7 M-2.5,-0.5L0,-3.0L2.5,-0.5"/>
  </g>
  <g id="arrowLeft" transform="rotate(270) translate(-36 17)">
    <use xlink:href="#rim"/>
    <path pointer-events="none" fill="none" stroke="white" stroke-width="1.5" d="M0,-3.0v7 M-2.5,-0.5L0,-3.0L2.5,-0.5"/>
  </g>
  <g id="resetDef">
    <use xlink:href="#rim2" fill="#404040"><set attributeName="fill" to="#808080" begin="reset.mouseover" end="reset.mouseout"/></use>
  </g>
</defs>
<script type="application/ecmascript">
var viewWidth = 867;
var viewHeight = 257;
var sectionId = 'dynsection-3';
</script>
<script type="application/ecmascript" xlink:href="svg.min.js"/>
<svg id="graph" class="graph">
<g id="viewport">
<title>cam.nc.hxml_writer.HxmlWriter.add_arc</title>
<!-- Node1 -->
<g id="Node000001" class="node">
<title>Node1</title>
<g id="a_Node000001"><a xlink:title=" ">
<polygon fill="#999999" stroke="#666666" points="859,-144.5 647,-144.5 647,-125.5 859,-125.5 859,-144.5"/>
<text text-anchor="middle" x="753" y="-132.5" font-family="Helvetica,sans-Serif" font-size="10.00">cam.nc.hxml_writer.HxmlWriter.add_arc</text>
</a>
</g>
</g>
<!-- Node2 -->
<g id="Node000002" class="node">
<title>Node2</title>
<g id="a_Node000002"><a xlink:href="classcam_1_1nc_1_1hxml__writer_1_1HxmlWriter.html#aa89fa08595ee9733078e37d1692857f3" target="_top" xlink:title=" ">
<polygon fill="white" stroke="#666666" points="611,-248.5 398,-248.5 398,-229.5 611,-229.5 611,-248.5"/>
<text text-anchor="middle" x="504.5" y="-236.5" font-family="Helvetica,sans-Serif" font-size="10.00">cam.nc.hxml_writer.HxmlWriter.arc_ccw</text>
</a>
</g>
</g>
<!-- Node1&#45;&gt;Node2 -->
<g id="edge1_Node000001_Node000002" class="edge">
<title>Node1&#45;&gt;Node2</title>
<g id="a_edge1_Node000001_Node000002"><a xlink:title=" ">
<path fill="none" stroke="#63b8ff" d="M731.98,-150.64C705.74,-170.29 657.56,-203.56 611,-221 601.86,-224.42 592.04,-227.2 582.19,-229.45"/>
<polygon fill="#63b8ff" stroke="#63b8ff" points="734.16,-153.37 740,-144.54 729.92,-147.8 734.16,-153.37"/>
</a>
</g>
</g>
<!-- Node3 -->
<g id="Node000003" class="node">
<title>Node3</title>
<g id="a_Node000003"><a xlink:href="classcam_1_1nc_1_1hxml__writer_1_1HxmlWriter.html#a403fdf3735ec6e70365ddac2a134222f" target="_top" xlink:title=" ">
<polygon fill="white" stroke="#666666" points="608.5,-211.5 400.5,-211.5 400.5,-192.5 608.5,-192.5 608.5,-211.5"/>
<text text-anchor="middle" x="504.5" y="-199.5" font-family="Helvetica,sans-Serif" font-size="10.00">cam.nc.hxml_writer.HxmlWriter.arc_cw</text>
</a>
</g>
</g>
<!-- Node1&#45;&gt;Node3 -->
<g id="edge2_Node000001_Node000003" class="edge">
<title>Node1&#45;&gt;Node3</title>
<g id="a_edge2_Node000001_Node000003"><a xlink:title=" ">
<path fill="none" stroke="#63b8ff" d="M718.21,-148.1C689.91,-158.68 648.29,-173.35 611,-183 596.95,-186.64 581.66,-189.82 567.2,-192.49"/>
<polygon fill="#63b8ff" stroke="#63b8ff" points="719.51,-151.35 727.63,-144.54 717.04,-144.8 719.51,-151.35"/>
</a>
</g>
</g>
<!-- Node4 -->
<g id="Node000004" class="node">
<title>Node4</title>
<g id="a_Node000004"><a xlink:href="classcam_1_1nc_1_1cad__iso__read_1_1Parser.html#abf885d019794a8bef1b69f446c8851e1" target="_top" xlink:title=" ">
<polygon fill="white" stroke="#666666" points="581.5,-174 427.5,-174 427.5,-144 581.5,-144 581.5,-174"/>
<text text-anchor="start" x="435.5" y="-162" font-family="Helvetica,sans-Serif" font-size="10.00">cam.nc.cad_iso_read.Parser.</text>
<text text-anchor="middle" x="504.5" y="-151" font-family="Helvetica,sans-Serif" font-size="10.00">Parse</text>
</a>
</g>
</g>
<!-- Node1&#45;&gt;Node4 -->
<g id="edge3_Node000001_Node000004" class="edge">
<title>Node1&#45;&gt;Node4</title>
<g id="a_edge3_Node000001_Node000004"><a xlink:title=" ">
<path fill="none" stroke="#63b8ff" d="M644,-145.51C623.06,-147.55 601.53,-149.65 581.87,-151.56"/>
<polygon fill="#63b8ff" stroke="#63b8ff" points="644.61,-148.97 654.22,-144.52 643.93,-142.01 644.61,-148.97"/>
</a>
</g>
</g>
<!-- Node5 -->
<g id="Node000005" class="node">
<title>Node5</title>
<g id="a_Node000005"><a xlink:href="classcam_1_1nc_1_1cad__read_1_1CAD__backplot.html#afce7c30e482cfb88a36593d4020909d7" target="_top" xlink:title=" ">
<polygon fill="white" stroke="#666666" points="566,-126 443,-126 443,-96 566,-96 566,-126"/>
<text text-anchor="start" x="451" y="-114" font-family="Helvetica,sans-Serif" font-size="10.00">cam.nc.cad_read.CAD</text>
<text text-anchor="middle" x="504.5" y="-103" font-family="Helvetica,sans-Serif" font-size="10.00">_backplot.Parse</text>
</a>
</g>
</g>
<!-- Node1&#45;&gt;Node5 -->
<g id="edge4_Node000001_Node000005" class="edge">
<title>Node1&#45;&gt;Node5</title>
<g id="a_edge4_Node000001_Node000005"><a xlink:title=" ">
<path fill="none" stroke="#63b8ff" d="M644.06,-124.49C617.39,-121.89 589.74,-119.2 566.23,-116.91"/>
<polygon fill="#63b8ff" stroke="#63b8ff" points="643.93,-127.99 654.22,-125.48 644.61,-121.03 643.93,-127.99"/>
</a>
</g>
</g>
<!-- Node6 -->
<g id="Node000006" class="node">
<title>Node6</title>
<g id="a_Node000006"><a xlink:href="classcam_1_1nc_1_1lathe1__read_1_1Parser.html#a4046e981f4f946bed728de957d10365f" target="_top" xlink:title=" ">
<polygon fill="white" stroke="#666666" points="578.5,-78 430.5,-78 430.5,-48 578.5,-48 578.5,-78"/>
<text text-anchor="start" x="438.5" y="-66" font-family="Helvetica,sans-Serif" font-size="10.00">cam.nc.lathe1_read.Parser.</text>
<text text-anchor="middle" x="504.5" y="-55" font-family="Helvetica,sans-Serif" font-size="10.00">Parse</text>
</a>
</g>
</g>
<!-- Node1&#45;&gt;Node6 -->
<g id="edge5_Node000001_Node000006" class="edge">
<title>Node1&#45;&gt;Node6</title>
<g id="a_edge5_Node000001_Node000006"><a xlink:title=" ">
<path fill="none" stroke="#63b8ff" d="M717.06,-121.97C688.72,-111.67 647.61,-97.37 611,-87 599.88,-83.85 588.02,-80.83 576.41,-78.06"/>
<polygon fill="#63b8ff" stroke="#63b8ff" points="715.93,-125.28 726.52,-125.43 718.33,-118.71 715.93,-125.28"/>
</a>
</g>
</g>
<!-- Node7 -->
<g id="Node000007" class="node">
<title>Node7</title>
<g id="a_Node000007"><a xlink:href="classcam_1_1nc_1_1hpgl2d__read_1_1Parser.html#afa14f139b2b41ae0e70c8ee16d661e31" target="_top" xlink:title=" ">
<polygon fill="white" stroke="#666666" points="579.5,-30 429.5,-30 429.5,0 579.5,0 579.5,-30"/>
<text text-anchor="start" x="437.5" y="-18" font-family="Helvetica,sans-Serif" font-size="10.00">cam.nc.hpgl2d_read.Parser.</text>
<text text-anchor="middle" x="504.5" y="-7" font-family="Helvetica,sans-Serif" font-size="10.00">ParseAA</text>
</a>
</g>
</g>
<!-- Node1&#45;&gt;Node7 -->
<g id="edge6_Node000001_Node000007" class="edge">
<title>Node1&#45;&gt;Node7</title>
<g id="a_edge6_Node000001_Node000007"><a xlink:title=" ">
<path fill="none" stroke="#63b8ff" d="M733.34,-118.87C707.56,-97.42 658.81,-59.82 611,-39 601.1,-34.69 590.32,-31.1 579.56,-28.13"/>
<polygon fill="#63b8ff" stroke="#63b8ff" points="731.27,-121.7 741.16,-125.47 735.78,-116.35 731.27,-121.7"/>
</a>
</g>
</g>
<!-- Node8 -->
<g id="Node000008" class="node">
<title>Node8</title>
<g id="a_Node000008"><a xlink:href="classcam_1_1nc_1_1hpgl2d__read_1_1Parser.html#a0b707cfa8f85f48082f4e827cd2e4de2" target="_top" xlink:title=" ">
<polygon fill="white" stroke="#666666" points="362,-30 212,-30 212,0 362,0 362,-30"/>
<text text-anchor="start" x="220" y="-18" font-family="Helvetica,sans-Serif" font-size="10.00">cam.nc.hpgl2d_read.Parser.</text>
<text text-anchor="middle" x="287" y="-7" font-family="Helvetica,sans-Serif" font-size="10.00">ParseFromFirstLetter</text>
</a>
</g>
</g>
<!-- Node7&#45;&gt;Node8 -->
<g id="edge7_Node000007_Node000008" class="edge">
<title>Node7&#45;&gt;Node8</title>
<g id="a_edge7_Node000007_Node000008"><a xlink:title=" ">
<path fill="none" stroke="#63b8ff" d="M419.31,-15C400.5,-15 380.68,-15 362.3,-15"/>
<polygon fill="#63b8ff" stroke="#63b8ff" points="419.34,-18.5 429.34,-15 419.34,-11.5 419.34,-18.5"/>
</a>
</g>
</g>
<!-- Node9 -->
<g id="Node000009" class="node">
<title>Node9</title>
<g id="a_Node000009"><a xlink:href="classcam_1_1nc_1_1num__reader_1_1NumReader.html#ae908a2956d1e0cfd474a47540bee9759" target="_top" xlink:title=" ">
<polygon fill="white" stroke="#666666" points="176,-30 0,-30 0,0 176,0 176,-30"/>
<text text-anchor="start" x="8" y="-18" font-family="Helvetica,sans-Serif" font-size="10.00">cam.nc.num_reader.NumReader.</text>
<text text-anchor="middle" x="88" y="-7" font-family="Helvetica,sans-Serif" font-size="10.00">Parse</text>
</a>
</g>
</g>
<!-- Node8&#45;&gt;Node9 -->
<g id="edge8_Node000008_Node000009" class="edge">
<title>Node8&#45;&gt;Node9</title>
<g id="a_edge8_Node000008_Node000009"><a xlink:title=" ">
<path fill="none" stroke="#63b8ff" d="M201.58,-15C193.12,-15 184.53,-15 176.05,-15"/>
<polygon fill="#63b8ff" stroke="#63b8ff" points="201.8,-18.5 211.8,-15 201.8,-11.5 201.8,-18.5"/>
</a>
</g>
</g>
</g>
</svg>

<g id="navigator" transform="translate(0 0)" fill="#404254">
  <rect fill="#f2f5e9" fill-opacity="0.5" stroke="#606060" stroke-width=".5" x="0" y="0" width="60" height="60"/>
  <use id="zoomplus" xlink:href="#zoomPlus" x="17" y="9" onmousedown="handleZoom(evt,'in')"/>
  <use id="zoomminus" xlink:href="#zoomMin" x="42" y="9" onmousedown="handleZoom(evt,'out')"/>
  <use id="reset" xlink:href="#resetDef" x="30" y="36" onmousedown="handleReset()"/>
   <use id="arrowup" xlink:href="#arrowUp" x="0" y="0" onmousedown="handlePan(0,-1)"/>
  <use id="arrowright" xlink:href="#arrowRight" x="0" y="0" onmousedown="handlePan(1,0)"/>
  <use id="arrowdown" xlink:href="#arrowDown" x="0" y="0" onmousedown="handlePan(0,1)"/>
  <use id="arrowleft" xlink:href="#arrowLeft" x="0" y="0" onmousedown="handlePan(-1,0)"/>
</g>
<svg viewBox="0 0 15 15" width="100%" height="30px" preserveAspectRatio="xMaxYMin meet">
 <g id="arrow_out" transform="scale(0.3 0.3)">
  <a xlink:href="classcam_1_1nc_1_1hxml__writer_1_1HxmlWriter_a475e3852584eaa4d673a094b0897132c_icgraph_org.svg" target="_base">
   <rect id="button" ry="5" rx="5" y="6" x="6" height="38" width="38"
        fill="#f2f5e9" fill-opacity="0.5" stroke="#606060" stroke-width="1.0"/>
   <path id="arrow"
     d="M 11.500037,31.436501 C 11.940474,20.09759 22.043105,11.32322 32.158766,21.979434 L 37.068811,17.246167 C 37.068811,17.246167 37.088388,32 37.088388,32 L 22.160133,31.978069 C 22.160133,31.978069 26.997745,27.140456 26.997745,27.140456 C 18.528582,18.264221 13.291696,25.230495 11.500037,31.436501 z"
     style="fill:#404040;"/>
  </a>
 </g>
</svg>

<style type='text/css'>
<![CDATA[
[data-mouse-over-selected='false'] { opacity: 0.7; }
[data-mouse-over-selected='true']  { opacity: 1.0; }
]]>
</style>
<script type="application/ecmascript"><![CDATA[
document.addEventListener('DOMContentLoaded', (event) => {
  highlightEdges();
  highlightAdjacentNodes();
});
]]></script>
</svg>
