<?xml version="1.0" encoding="UTF-8" standalone="no"?>
<!DOCTYPE svg PUBLIC "-//W3C//DTD SVG 1.1//EN"
 "http://www.w3.org/Graphics/SVG/1.1/DTD/svg11.dtd">
<!-- Generated by graphviz version 2.43.0 (0)
 -->
<!-- Title: cam.nc.recreator.Redirector.sub_begin Pages: 1 -->
<svg width="596pt" height="122pt"
 viewBox="0.00 0.00 596.00 122.00" xmlns="http://www.w3.org/2000/svg" xmlns:xlink="http://www.w3.org/1999/xlink">
<g id="graph0" class="graph" transform="scale(1 1) rotate(0) translate(4 118)">
<title>cam.nc.recreator.Redirector.sub_begin</title>
<!-- Node1 -->
<g id="Node000001" class="node">
<title>Node1</title>
<g id="a_Node000001"><a xlink:title="Subprograms.">
<polygon fill="#999999" stroke="#666666" points="171,-61.5 0,-61.5 0,-31.5 171,-31.5 171,-61.5"/>
<text text-anchor="start" x="8" y="-49.5" font-family="Helvetica,sans-Serif" font-size="10.00">cam.nc.recreator.Redirector.sub</text>
<text text-anchor="middle" x="85.5" y="-38.5" font-family="Helvetica,sans-Serif" font-size="10.00">_begin</text>
</a>
</g>
</g>
<!-- Node1&#45;&gt;Node1 -->
<g id="edge6_Node000001_Node000001" class="edge">
<title>Node1&#45;&gt;Node1</title>
<g id="a_edge6_Node000001_Node000001"><a xlink:title=" ">
<path fill="none" stroke="#63b8ff" d="M47.18,-61.78C38.66,-70.91 51.44,-79.5 85.5,-79.5 105.72,-79.5 118.44,-76.47 123.66,-72.1"/>
<polygon fill="#63b8ff" stroke="#63b8ff" points="127.16,-71.83 123.82,-61.78 120.16,-71.72 127.16,-71.83"/>
</a>
</g>
</g>
<!-- Node2 -->
<g id="Node000002" class="node">
<title>Node2</title>
<g id="a_Node000002"><a xlink:href="classcam_1_1nc_1_1attach_1_1Creator.html#a15a75411685b954b0073489b30f1342e" target="_top" xlink:title=" ">
<polygon fill="white" stroke="#666666" points="389.5,-93 220.5,-93 220.5,-74 389.5,-74 389.5,-93"/>
<text text-anchor="middle" x="305" y="-81" font-family="Helvetica,sans-Serif" font-size="10.00">cam.nc.attach.Creator.cut_path</text>
</a>
</g>
</g>
<!-- Node1&#45;&gt;Node2 -->
<g id="edge1_Node000001_Node000002" class="edge">
<title>Node1&#45;&gt;Node2</title>
<g id="a_edge1_Node000001_Node000002"><a xlink:title=" ">
<path fill="none" stroke="#63b8ff" d="M171.21,-60.91C193.35,-64.68 216.9,-68.68 237.91,-72.26"/>
<polygon fill="#63b8ff" stroke="#63b8ff" points="237.56,-75.75 248.01,-73.97 238.73,-68.85 237.56,-75.75"/>
</a>
</g>
</g>
<!-- Node5 -->
<g id="Node000005" class="node">
<title>Node5</title>
<g id="a_Node000005"><a xlink:href="classcam_1_1nc_1_1drag__knife_1_1Creator.html#a5db2841a5c931c72702e9bb7752ea731" target="_top" xlink:title=" ">
<polygon fill="white" stroke="#666666" points="400,-56 210,-56 210,-37 400,-37 400,-56"/>
<text text-anchor="middle" x="305" y="-44" font-family="Helvetica,sans-Serif" font-size="10.00">cam.nc.drag_knife.Creator.cut_path</text>
</a>
</g>
</g>
<!-- Node1&#45;&gt;Node5 -->
<g id="edge4_Node000001_Node000005" class="edge">
<title>Node1&#45;&gt;Node5</title>
<g id="a_edge4_Node000001_Node000005"><a xlink:title=" ">
<path fill="none" stroke="#63b8ff" d="M171.21,-46.5C180.5,-46.5 190.03,-46.5 199.52,-46.5"/>
<polygon fill="#63b8ff" stroke="#63b8ff" points="199.78,-50 209.78,-46.5 199.78,-43 199.78,-50"/>
</a>
</g>
</g>
<!-- Node6 -->
<g id="Node000006" class="node">
<title>Node6</title>
<g id="a_Node000006"><a xlink:href="classcam_1_1nc_1_1recreator_1_1Redirector.html#ace3039c310a7ee83dafe4fee4382f511" target="_top" xlink:title=" ">
<polygon fill="white" stroke="#666666" points="403,-19 207,-19 207,0 403,0 403,-19"/>
<text text-anchor="middle" x="305" y="-7" font-family="Helvetica,sans-Serif" font-size="10.00">cam.nc.recreator.Redirector.cut_path</text>
</a>
</g>
</g>
<!-- Node1&#45;&gt;Node6 -->
<g id="edge5_Node000001_Node000006" class="edge">
<title>Node1&#45;&gt;Node6</title>
<g id="a_edge5_Node000001_Node000006"><a xlink:title=" ">
<path fill="none" stroke="#63b8ff" d="M171.21,-32.09C193.35,-28.32 216.9,-24.32 237.91,-20.74"/>
<polygon fill="#63b8ff" stroke="#63b8ff" points="238.73,-24.15 248.01,-19.03 237.56,-17.25 238.73,-24.15"/>
</a>
</g>
</g>
<!-- Node3 -->
<g id="Node000003" class="node">
<title>Node3</title>
<g id="a_Node000003"><a xlink:href="classcam_1_1nc_1_1attach_1_1Creator.html#a27a17497f0889323fd31aab4f857e577" target="_top" xlink:title=" ">
<polygon fill="white" stroke="#666666" points="588,-114 439,-114 439,-95 588,-95 588,-114"/>
<text text-anchor="middle" x="513.5" y="-102" font-family="Helvetica,sans-Serif" font-size="10.00">cam.nc.attach.Creator.feed</text>
</a>
</g>
</g>
<!-- Node2&#45;&gt;Node3 -->
<g id="edge2_Node000002_Node000003" class="edge">
<title>Node2&#45;&gt;Node3</title>
<g id="a_edge2_Node000002_Node000003"><a xlink:title=" ">
<path fill="none" stroke="#63b8ff" d="M389.69,-92.01C402.57,-93.32 415.87,-94.67 428.76,-95.98"/>
<polygon fill="#63b8ff" stroke="#63b8ff" points="428.68,-99.49 438.98,-97.02 429.38,-92.53 428.68,-99.49"/>
</a>
</g>
</g>
<!-- Node4 -->
<g id="Node000004" class="node">
<title>Node4</title>
<g id="a_Node000004"><a xlink:href="classcam_1_1nc_1_1attach_1_1Creator.html#a64e13dd00fd58d3db3818de0d188bafa" target="_top" xlink:title="Shift in Z.">
<polygon fill="white" stroke="#666666" points="584.5,-76.5 442.5,-76.5 442.5,-46.5 584.5,-46.5 584.5,-76.5"/>
<text text-anchor="start" x="450.5" y="-64.5" font-family="Helvetica,sans-Serif" font-size="10.00">cam.nc.attach.Creator.set</text>
<text text-anchor="middle" x="513.5" y="-53.5" font-family="Helvetica,sans-Serif" font-size="10.00">PdcfIfNotSet</text>
</a>
</g>
</g>
<!-- Node2&#45;&gt;Node4 -->
<g id="edge3_Node000002_Node000004" class="edge">
<title>Node2&#45;&gt;Node4</title>
<g id="a_edge3_Node000002_Node000004"><a xlink:title=" ">
<path fill="none" stroke="#63b8ff" d="M389.69,-74.58C403.73,-73.09 418.26,-71.54 432.21,-70.05"/>
<polygon fill="#63b8ff" stroke="#63b8ff" points="432.67,-73.52 442.24,-68.98 431.93,-66.56 432.67,-73.52"/>
</a>
</g>
</g>
</g>
</svg>
