<?xml version="1.0" encoding="UTF-8" standalone="no"?>
<!DOCTYPE svg PUBLIC "-//W3C//DTD SVG 1.1//EN"
 "http://www.w3.org/Graphics/SVG/1.1/DTD/svg11.dtd">
<!-- Generated by graphviz version 2.43.0 (0)
 -->
<!-- Title: cam.nc.hpgl2d_read.Parser.ParseFromFirstLetter Pages: 1 -->
<!--zoomable 520 -->

<svg id="main" version="1.1" xmlns="http://www.w3.org/2000/svg" xmlns:xlink="http://www.w3.org/1999/xlink" xml:space="preserve" onload="init(evt)">
<style type="text/css"><![CDATA[
.node, .edge {opacity: 0.7;}
.node.selected, .edge.selected {opacity: 1;}
.edge:hover path { stroke: red; }
.edge:hover polygon { stroke: red; fill: red; }
]]></style>

<defs>
  <circle id="rim" cx="0" cy="0" r="7"/>
  <circle id="rim2" cx="0" cy="0" r="3.5"/>
  <g id="zoomPlus">
    <use xlink:href="#rim" fill="#404040"><set attributeName="fill" to="#808080" begin="zoomplus.mouseover" end="zoomplus.mouseout"/></use>
    <path d="M-4,0h8M0,-4v8" fill="none" stroke="white" stroke-width="1.5" pointer-events="none"/>
  </g>
  <g id="zoomMin">
    <use xlink:href="#rim" fill="#404040"><set attributeName="fill" to="#808080" begin="zoomminus.mouseover" end="zoomminus.mouseout"/></use>
    <path d="M-4,0h8" fill="none" stroke="white" stroke-width="1.5" pointer-events="none"/>
  </g>
  <g id="arrowUp" transform="translate(30 24)">
    <use xlink:href="#rim"/>
    <path pointer-events="none" fill="none" stroke="white" stroke-width="1.5" d="M0,-3.0v7 M-2.5,-0.5L0,-3.0L2.5,-0.5"/>
  </g>
  <g id="arrowRight" transform="rotate(90) translate(36 -43)">
    <use xlink:href="#rim"/>
    <path pointer-events="none" fill="none" stroke="white" stroke-width="1.5" d="M0,-3.0v7 M-2.5,-0.5L0,-3.0L2.5,-0.5"/>
  </g>
  <g id="arrowDown" transform="rotate(180) translate(-30 -48)">
    <use xlink:href="#rim"/>
    <path pointer-events="none" fill="none" stroke="white" stroke-width="1.5" d="M0,-3.0v7 M-2.5,-0.5L0,-3.0L2.5,-0.5"/>
  </g>
  <g id="arrowLeft" transform="rotate(270) translate(-36 17)">
    <use xlink:href="#rim"/>
    <path pointer-events="none" fill="none" stroke="white" stroke-width="1.5" d="M0,-3.0v7 M-2.5,-0.5L0,-3.0L2.5,-0.5"/>
  </g>
  <g id="resetDef">
    <use xlink:href="#rim2" fill="#404040"><set attributeName="fill" to="#808080" begin="reset.mouseover" end="reset.mouseout"/></use>
  </g>
</defs>
<script type="application/ecmascript">
var viewWidth = 843;
var viewHeight = 520;
var sectionId = 'dynsection-4';
</script>
<script type="application/ecmascript" xlink:href="svg.min.js"/>
<svg id="graph" class="graph">
<g id="viewport">
<title>cam.nc.hpgl2d_read.Parser.ParseFromFirstLetter</title>
<!-- Node1 -->
<g id="Node000001" class="node">
<title>Node1</title>
<g id="a_Node000001"><a xlink:title=" ">
<polygon fill="#999999" stroke="#666666" points="150,-252 0,-252 0,-222 150,-222 150,-252"/>
<text text-anchor="start" x="8" y="-240" font-family="Helvetica,sans-Serif" font-size="10.00">cam.nc.hpgl2d_read.Parser.</text>
<text text-anchor="middle" x="75" y="-229" font-family="Helvetica,sans-Serif" font-size="10.00">ParseFromFirstLetter</text>
</a>
</g>
</g>
<!-- Node2 -->
<g id="Node000002" class="node">
<title>Node2</title>
<g id="a_Node000002"><a xlink:href="classcam_1_1nc_1_1hpgl2d__read_1_1Parser.html#afa14f139b2b41ae0e70c8ee16d661e31" target="_top" xlink:title=" ">
<polygon fill="white" stroke="#666666" points="336,-276 186,-276 186,-246 336,-246 336,-276"/>
<text text-anchor="start" x="194" y="-264" font-family="Helvetica,sans-Serif" font-size="10.00">cam.nc.hpgl2d_read.Parser.</text>
<text text-anchor="middle" x="261" y="-253" font-family="Helvetica,sans-Serif" font-size="10.00">ParseAA</text>
</a>
</g>
</g>
<!-- Node1&#45;&gt;Node2 -->
<g id="edge1_Node000001_Node000002" class="edge">
<title>Node1&#45;&gt;Node2</title>
<g id="a_edge1_Node000001_Node000002"><a xlink:title=" ">
<path fill="none" stroke="#63b8ff" d="M150.04,-246.66C158.51,-247.76 167.19,-248.89 175.78,-250.02"/>
<polygon fill="#63b8ff" stroke="#63b8ff" points="175.44,-253.5 185.81,-251.32 176.34,-246.56 175.44,-253.5"/>
</a>
</g>
</g>
<!-- Node20 -->
<g id="Node000020" class="node">
<title>Node20</title>
<g id="a_Node000020"><a xlink:href="classcam_1_1nc_1_1hpgl2d__read_1_1Parser.html#a74d4c54cf7433206fcad1635112d3b61" target="_top" xlink:title=" ">
<polygon fill="white" stroke="#666666" points="336,-228 186,-228 186,-198 336,-198 336,-228"/>
<text text-anchor="start" x="194" y="-216" font-family="Helvetica,sans-Serif" font-size="10.00">cam.nc.hpgl2d_read.Parser.</text>
<text text-anchor="middle" x="261" y="-205" font-family="Helvetica,sans-Serif" font-size="10.00">ParsePuOrPd</text>
</a>
</g>
</g>
<!-- Node1&#45;&gt;Node20 -->
<g id="edge30_Node000001_Node000020" class="edge">
<title>Node1&#45;&gt;Node20</title>
<g id="a_edge30_Node000001_Node000020"><a xlink:title=" ">
<path fill="none" stroke="#63b8ff" d="M150.04,-227.34C158.51,-226.24 167.19,-225.11 175.78,-223.98"/>
<polygon fill="#63b8ff" stroke="#63b8ff" points="176.34,-227.44 185.81,-222.68 175.44,-220.5 176.34,-227.44"/>
</a>
</g>
</g>
<!-- Node3 -->
<g id="Node000003" class="node">
<title>Node3</title>
<g id="a_Node000003"><a xlink:href="classcam_1_1nc_1_1hxml__writer_1_1HxmlWriter.html#a475e3852584eaa4d673a094b0897132c" target="_top" xlink:title=" ">
<polygon fill="white" stroke="#666666" points="592,-437.5 380,-437.5 380,-418.5 592,-418.5 592,-437.5"/>
<text text-anchor="middle" x="486" y="-425.5" font-family="Helvetica,sans-Serif" font-size="10.00">cam.nc.hxml_writer.HxmlWriter.add_arc</text>
</a>
</g>
</g>
<!-- Node2&#45;&gt;Node3 -->
<g id="edge2_Node000002_Node000003" class="edge">
<title>Node2&#45;&gt;Node3</title>
<g id="a_edge2_Node000002_Node000003"><a xlink:title=" ">
<path fill="none" stroke="#63b8ff" d="M268.42,-276.32C282.28,-307.31 318.15,-377.25 372,-410 374.67,-411.62 377.44,-413.12 380.29,-414.49"/>
<polygon fill="#63b8ff" stroke="#63b8ff" points="379.04,-417.76 389.61,-418.47 381.79,-411.32 379.04,-417.76"/>
</a>
</g>
</g>
<!-- Node5 -->
<g id="Node000005" class="node">
<title>Node5</title>
<g id="a_Node000005"><a xlink:href="classcam_1_1nc_1_1cad__nc__read_1_1Parser.html#a7d77e08170185d002ab8782d4d9e5318" target="_top" xlink:title=" ">
<polygon fill="white" stroke="#666666" points="580.5,-363.5 391.5,-363.5 391.5,-344.5 580.5,-344.5 580.5,-363.5"/>
<text text-anchor="middle" x="486" y="-351.5" font-family="Helvetica,sans-Serif" font-size="10.00">cam.nc.cad_nc_read.Parser.add_arc</text>
</a>
</g>
</g>
<!-- Node2&#45;&gt;Node5 -->
<g id="edge5_Node000002_Node000005" class="edge">
<title>Node2&#45;&gt;Node5</title>
<g id="a_edge5_Node000002_Node000005"><a xlink:title=" ">
<path fill="none" stroke="#63b8ff" d="M278.9,-276.1C299.39,-293.51 335.7,-321.58 372,-336 377.56,-338.21 383.37,-340.15 389.31,-341.85"/>
<polygon fill="#63b8ff" stroke="#63b8ff" points="388.82,-345.34 399.38,-344.49 390.59,-338.57 388.82,-345.34"/>
</a>
</g>
</g>
<!-- Node7 -->
<g id="Node000007" class="node">
<title>Node7</title>
<g id="a_Node000007"><a xlink:href="classcam_1_1nc_1_1nclathe__read_1_1Parser.html#af831cf56257fb77f7e451e315631e4f5" target="_top" xlink:title=" ">
<polygon fill="white" stroke="#666666" points="581.5,-141.5 390.5,-141.5 390.5,-122.5 581.5,-122.5 581.5,-141.5"/>
<text text-anchor="middle" x="486" y="-129.5" font-family="Helvetica,sans-Serif" font-size="10.00">cam.nc.nclathe_read.Parser.add_arc</text>
</a>
</g>
</g>
<!-- Node2&#45;&gt;Node7 -->
<g id="edge8_Node000002_Node000007" class="edge">
<title>Node2&#45;&gt;Node7</title>
<g id="a_edge8_Node000002_Node000007"><a xlink:title=" ">
<path fill="none" stroke="#63b8ff" d="M323.38,-245.99C327.94,-243.45 332.22,-240.48 336,-237 366.49,-208.94 339.53,-176.75 372,-151 374.85,-148.74 377.88,-146.7 381.03,-144.87"/>
<polygon fill="#63b8ff" stroke="#63b8ff" points="382.87,-147.86 390.23,-140.24 379.73,-141.61 382.87,-147.86"/>
</a>
</g>
</g>
<!-- Node9 -->
<g id="Node000009" class="node">
<title>Node9</title>
<g id="a_Node000009"><a xlink:href="classcam_1_1nc_1_1hxml__writer_1_1HxmlWriter.html#a9ecbcbc437d91a80c11b77d2d9007887" target="_top" xlink:title=" ">
<polygon fill="white" stroke="#666666" points="593.5,-400.5 378.5,-400.5 378.5,-381.5 593.5,-381.5 593.5,-400.5"/>
<text text-anchor="middle" x="486" y="-388.5" font-family="Helvetica,sans-Serif" font-size="10.00">cam.nc.hxml_writer.HxmlWriter.add_line</text>
</a>
</g>
</g>
<!-- Node2&#45;&gt;Node9 -->
<g id="edge11_Node000002_Node000009" class="edge">
<title>Node2&#45;&gt;Node9</title>
<g id="a_edge11_Node000002_Node000009"><a xlink:title=" ">
<path fill="none" stroke="#63b8ff" d="M272.07,-276.33C289.29,-301.17 326.95,-349.76 372,-373 375.57,-374.84 379.29,-376.51 383.1,-378.01"/>
<polygon fill="#63b8ff" stroke="#63b8ff" points="382.15,-381.38 392.74,-381.42 384.48,-374.78 382.15,-381.38"/>
</a>
</g>
</g>
<!-- Node10 -->
<g id="Node000010" class="node">
<title>Node10</title>
<g id="a_Node000010"><a xlink:href="classcam_1_1nc_1_1cad__nc__read_1_1Parser.html#a738a961ed9cebf72a1d9ae2cd63c49f8" target="_top" xlink:title=" ">
<polygon fill="white" stroke="#666666" points="582,-326.5 390,-326.5 390,-307.5 582,-307.5 582,-326.5"/>
<text text-anchor="middle" x="486" y="-314.5" font-family="Helvetica,sans-Serif" font-size="10.00">cam.nc.cad_nc_read.Parser.add_line</text>
</a>
</g>
</g>
<!-- Node2&#45;&gt;Node10 -->
<g id="edge12_Node000002_Node000010" class="edge">
<title>Node2&#45;&gt;Node10</title>
<g id="a_edge12_Node000002_Node000010"><a xlink:title=" ">
<path fill="none" stroke="#63b8ff" d="M300.19,-276.04C321.13,-283.81 347.7,-292.92 372,-299 382,-301.5 392.6,-303.73 403.13,-305.69"/>
<polygon fill="#63b8ff" stroke="#63b8ff" points="402.73,-309.18 413.19,-307.49 403.96,-302.29 402.73,-309.18"/>
</a>
</g>
</g>
<!-- Node11 -->
<g id="Node000011" class="node">
<title>Node11</title>
<g id="a_Node000011"><a xlink:href="classcam_1_1nc_1_1nclathe__read_1_1Parser.html#a8e66fae75c57b080570f2893d2b8b4ba" target="_top" xlink:title=" ">
<polygon fill="white" stroke="#666666" points="583,-67.5 389,-67.5 389,-48.5 583,-48.5 583,-67.5"/>
<text text-anchor="middle" x="486" y="-55.5" font-family="Helvetica,sans-Serif" font-size="10.00">cam.nc.nclathe_read.Parser.add_line</text>
</a>
</g>
</g>
<!-- Node2&#45;&gt;Node11 -->
<g id="edge14_Node000002_Node000011" class="edge">
<title>Node2&#45;&gt;Node11</title>
<g id="a_edge14_Node000002_Node000011"><a xlink:title=" ">
<path fill="none" stroke="#63b8ff" d="M325.46,-245.82C329.33,-243.31 332.91,-240.4 336,-237 385.36,-182.78 318.57,-126.21 372,-76 374.5,-73.65 377.17,-71.54 379.99,-69.64"/>
<polygon fill="#63b8ff" stroke="#63b8ff" points="381.89,-72.58 388.82,-64.57 378.41,-66.51 381.89,-72.58"/>
</a>
</g>
</g>
<!-- Node12 -->
<g id="Node000012" class="node">
<title>Node12</title>
<g id="a_Node000012"><a xlink:href="classcam_1_1nc_1_1num__reader_1_1NumReader.html#abe0336cd15995dde1a46134b56f1c2b2" target="_top" xlink:title=" ">
<polygon fill="white" stroke="#666666" points="597.5,-289.5 374.5,-289.5 374.5,-270.5 597.5,-270.5 597.5,-289.5"/>
<text text-anchor="middle" x="486" y="-277.5" font-family="Helvetica,sans-Serif" font-size="10.00">cam.nc.num_reader.NumReader.add_word</text>
</a>
</g>
</g>
<!-- Node2&#45;&gt;Node12 -->
<g id="edge16_Node000002_Node000012" class="edge">
<title>Node2&#45;&gt;Node12</title>
<g id="a_edge16_Node000002_Node000012"><a xlink:title=" ">
<path fill="none" stroke="#63b8ff" d="M336.26,-267.33C345.38,-268.1 354.87,-268.91 364.46,-269.73"/>
<polygon fill="#63b8ff" stroke="#63b8ff" points="364.21,-273.22 374.47,-270.58 364.81,-266.25 364.21,-273.22"/>
</a>
</g>
</g>
<!-- Node13 -->
<g id="Node000013" class="node">
<title>Node13</title>
<g id="a_Node000013"><a xlink:href="classcam_1_1nc_1_1hxml__writer_1_1HxmlWriter.html#a6439ae429d6711afc62f954362e80aec" target="_top" xlink:title=" ">
<polygon fill="white" stroke="#666666" points="600,-511.5 372,-511.5 372,-492.5 600,-492.5 600,-511.5"/>
<text text-anchor="middle" x="486" y="-499.5" font-family="Helvetica,sans-Serif" font-size="10.00">cam.nc.hxml_writer.HxmlWriter.begin_path</text>
</a>
</g>
</g>
<!-- Node2&#45;&gt;Node13 -->
<g id="edge17_Node000002_Node000013" class="edge">
<title>Node2&#45;&gt;Node13</title>
<g id="a_edge17_Node000002_Node000013"><a xlink:title=" ">
<path fill="none" stroke="#63b8ff" d="M264.58,-276.26C272.41,-317.35 299.9,-430.85 372,-484 373.68,-485.24 375.41,-486.4 377.19,-487.5"/>
<polygon fill="#63b8ff" stroke="#63b8ff" points="375.95,-490.81 386.41,-492.45 379.26,-484.64 375.95,-490.81"/>
</a>
</g>
</g>
<!-- Node14 -->
<g id="Node000014" class="node">
<title>Node14</title>
<g id="a_Node000014"><a xlink:href="classcam_1_1nc_1_1cad__nc__read_1_1Parser.html#abe87a80c43087874e0199ed75fce10ee" target="_top" xlink:title=" ">
<polygon fill="white" stroke="#666666" points="588.5,-252.5 383.5,-252.5 383.5,-233.5 588.5,-233.5 588.5,-252.5"/>
<text text-anchor="middle" x="486" y="-240.5" font-family="Helvetica,sans-Serif" font-size="10.00">cam.nc.cad_nc_read.Parser.begin_path</text>
</a>
</g>
</g>
<!-- Node2&#45;&gt;Node14 -->
<g id="edge19_Node000002_Node000014" class="edge">
<title>Node2&#45;&gt;Node14</title>
<g id="a_edge19_Node000002_Node000014"><a xlink:title=" ">
<path fill="none" stroke="#63b8ff" d="M336.26,-255.01C348.15,-254.05 360.69,-253.03 373.23,-252.02"/>
<polygon fill="#63b8ff" stroke="#63b8ff" points="373.59,-255.5 383.28,-251.21 373.03,-248.53 373.59,-255.5"/>
</a>
</g>
</g>
<!-- Node15 -->
<g id="Node000015" class="node">
<title>Node15</title>
<g id="a_Node000015"><a xlink:href="classcam_1_1nc_1_1nclathe__read_1_1Parser.html#a33c385668a944d4b5013c8cae753fda9" target="_top" xlink:title=" ">
<polygon fill="white" stroke="#666666" points="589.5,-178.5 382.5,-178.5 382.5,-159.5 589.5,-159.5 589.5,-178.5"/>
<text text-anchor="middle" x="486" y="-166.5" font-family="Helvetica,sans-Serif" font-size="10.00">cam.nc.nclathe_read.Parser.begin_path</text>
</a>
</g>
</g>
<!-- Node2&#45;&gt;Node15 -->
<g id="edge21_Node000002_Node000015" class="edge">
<title>Node2&#45;&gt;Node15</title>
<g id="a_edge21_Node000002_Node000015"><a xlink:title=" ">
<path fill="none" stroke="#63b8ff" d="M320.66,-245.86C326.08,-243.33 331.29,-240.4 336,-237 357.91,-221.18 348.99,-202.17 372,-188 375.38,-185.92 378.92,-184.05 382.58,-182.36"/>
<polygon fill="#63b8ff" stroke="#63b8ff" points="383.95,-185.58 391.87,-178.56 381.29,-179.11 383.95,-185.58"/>
</a>
</g>
</g>
<!-- Node16 -->
<g id="Node000016" class="node">
<title>Node16</title>
<g id="a_Node000016"><a xlink:href="classcam_1_1nc_1_1cad__nc__read_1_1Parser.html#ab6bd7ee59cd7649fb4d9f585124cbd54" target="_top" xlink:title=" ">
<polygon fill="white" stroke="#666666" points="584,-215.5 388,-215.5 388,-196.5 584,-196.5 584,-215.5"/>
<text text-anchor="middle" x="486" y="-203.5" font-family="Helvetica,sans-Serif" font-size="10.00">cam.nc.cad_nc_read.Parser.end_path</text>
</a>
</g>
</g>
<!-- Node2&#45;&gt;Node16 -->
<g id="edge23_Node000002_Node000016" class="edge">
<title>Node2&#45;&gt;Node16</title>
<g id="a_edge23_Node000002_Node000016"><a xlink:title=" ">
<path fill="none" stroke="#63b8ff" d="M308.6,-245.95C317.69,-243 327.15,-239.91 336,-237 352.02,-231.73 355.63,-229.08 372,-225 383.46,-222.14 395.68,-219.59 407.7,-217.35"/>
<polygon fill="#63b8ff" stroke="#63b8ff" points="408.5,-220.77 417.72,-215.55 407.26,-213.88 408.5,-220.77"/>
</a>
</g>
</g>
<!-- Node17 -->
<g id="Node000017" class="node">
<title>Node17</title>
<g id="a_Node000017"><a xlink:href="classcam_1_1nc_1_1hxml__writer_1_1HxmlWriter.html#a148b76fde9d4c7ea5430a17628e6c9ef" target="_top" xlink:title=" ">
<polygon fill="white" stroke="#666666" points="595.5,-474.5 376.5,-474.5 376.5,-455.5 595.5,-455.5 595.5,-474.5"/>
<text text-anchor="middle" x="486" y="-462.5" font-family="Helvetica,sans-Serif" font-size="10.00">cam.nc.hxml_writer.HxmlWriter.end_path</text>
</a>
</g>
</g>
<!-- Node2&#45;&gt;Node17 -->
<g id="edge25_Node000002_Node000017" class="edge">
<title>Node2&#45;&gt;Node17</title>
<g id="a_edge25_Node000002_Node000017"><a xlink:title=" ">
<path fill="none" stroke="#63b8ff" d="M266.1,-276.11C276.76,-312.31 309.03,-404.17 372,-447 373.97,-448.34 376,-449.59 378.09,-450.76"/>
<polygon fill="#63b8ff" stroke="#63b8ff" points="377.02,-454.14 387.54,-455.4 380.1,-447.85 377.02,-454.14"/>
</a>
</g>
</g>
<!-- Node18 -->
<g id="Node000018" class="node">
<title>Node18</title>
<g id="a_Node000018"><a xlink:href="classcam_1_1nc_1_1nclathe__read_1_1Parser.html#a92a9288e10124488c6b458a347afa9b7" target="_top" xlink:title=" ">
<polygon fill="white" stroke="#666666" points="585,-104.5 387,-104.5 387,-85.5 585,-85.5 585,-104.5"/>
<text text-anchor="middle" x="486" y="-92.5" font-family="Helvetica,sans-Serif" font-size="10.00">cam.nc.nclathe_read.Parser.end_path</text>
</a>
</g>
</g>
<!-- Node2&#45;&gt;Node18 -->
<g id="edge27_Node000002_Node000018" class="edge">
<title>Node2&#45;&gt;Node18</title>
<g id="a_edge27_Node000002_Node000018"><a xlink:title=" ">
<path fill="none" stroke="#63b8ff" d="M324.87,-245.81C328.94,-243.31 332.71,-240.39 336,-237 375.94,-195.8 328.97,-150.97 372,-113 373.95,-111.27 376.01,-109.68 378.14,-108.2"/>
<polygon fill="#63b8ff" stroke="#63b8ff" points="379.93,-111.21 386.74,-103.1 376.35,-105.19 379.93,-111.21"/>
</a>
</g>
</g>
<!-- Node19 -->
<g id="Node000019" class="node">
<title>Node19</title>
<g id="a_Node000019"><a xlink:href="classcam_1_1nc_1_1num__reader_1_1NumReader.html#aa6859eeefd5788834891f727ae66d342" target="_top" xlink:title=" ">
<polygon fill="white" stroke="#666666" points="581.5,-30 390.5,-30 390.5,0 581.5,0 581.5,-30"/>
<text text-anchor="start" x="398.5" y="-18" font-family="Helvetica,sans-Serif" font-size="10.00">cam.nc.num_reader.NumReader.get</text>
<text text-anchor="middle" x="486" y="-7" font-family="Helvetica,sans-Serif" font-size="10.00">_number</text>
</a>
</g>
</g>
<!-- Node2&#45;&gt;Node19 -->
<g id="edge29_Node000002_Node000019" class="edge">
<title>Node2&#45;&gt;Node19</title>
<g id="a_edge29_Node000002_Node000019"><a xlink:title=" ">
<path fill="none" stroke="#63b8ff" d="M325.61,-245.96C329.45,-243.42 332.98,-240.46 336,-237 394.88,-169.67 309.69,-103.17 372,-39 374.9,-36.01 378.08,-33.35 381.47,-30.98"/>
<polygon fill="#63b8ff" stroke="#63b8ff" points="383.52,-33.83 390.28,-25.68 379.91,-27.83 383.52,-33.83"/>
</a>
</g>
</g>
<!-- Node4 -->
<g id="Node000004" class="node">
<title>Node4</title>
<g id="a_Node000004"><a xlink:href="classcam_1_1nc_1_1hxml__writer_1_1HxmlWriter.html#aed6f93c98cb8c0e3f3e826e75b6d6f15" target="_top" xlink:title=" ">
<polygon fill="white" stroke="#666666" points="835,-474.5 636,-474.5 636,-455.5 835,-455.5 835,-474.5"/>
<text text-anchor="middle" x="735.5" y="-462.5" font-family="Helvetica,sans-Serif" font-size="10.00">cam.nc.hxml_writer.HxmlWriter.write</text>
</a>
</g>
</g>
<!-- Node3&#45;&gt;Node4 -->
<g id="edge3_Node000003_Node000004" class="edge">
<title>Node3&#45;&gt;Node4</title>
<g id="a_edge3_Node000003_Node000004"><a xlink:title=" ">
<path fill="none" stroke="#63b8ff" d="M550.74,-437.53C584.24,-442.54 625.49,-448.7 660.41,-453.92"/>
<polygon fill="#63b8ff" stroke="#63b8ff" points="660.14,-457.42 670.55,-455.44 661.18,-450.5 660.14,-457.42"/>
</a>
</g>
</g>
<!-- Node4&#45;&gt;Node4 -->
<g id="edge4_Node000004_Node000004" class="edge">
<title>Node4&#45;&gt;Node4</title>
<g id="a_edge4_Node000004_Node000004"><a xlink:title=" ">
<path fill="none" stroke="#63b8ff" d="M697.28,-474.58C678.68,-483.23 691.42,-492.5 735.5,-492.5 768.56,-492.5 783.99,-487.29 781.79,-481.03"/>
<polygon fill="#63b8ff" stroke="#63b8ff" points="783.72,-478.09 773.72,-474.58 779.35,-483.56 783.72,-478.09"/>
</a>
</g>
</g>
<!-- Node6 -->
<g id="Node000006" class="node">
<title>Node6</title>
<g id="a_Node000006"><a xlink:href="classcam_1_1nc_1_1cad__nc__read_1_1Parser.html#adcf2f47949df29f187f27fe985884633" target="_top" xlink:title=" ">
<polygon fill="white" stroke="#666666" points="823.5,-289.5 647.5,-289.5 647.5,-270.5 823.5,-270.5 823.5,-289.5"/>
<text text-anchor="middle" x="735.5" y="-277.5" font-family="Helvetica,sans-Serif" font-size="10.00">cam.nc.cad_nc_read.Parser.write</text>
</a>
</g>
</g>
<!-- Node5&#45;&gt;Node6 -->
<g id="edge6_Node000005_Node000006" class="edge">
<title>Node5&#45;&gt;Node6</title>
<g id="a_edge6_Node000005_Node000006"><a xlink:title=" ">
<path fill="none" stroke="#63b8ff" d="M562.61,-344.5C575.21,-342.19 588.05,-339.39 600,-336 637.93,-325.25 679.53,-306.83 706.27,-294.07"/>
<polygon fill="#63b8ff" stroke="#63b8ff" points="707.94,-297.15 715.42,-289.65 704.89,-290.85 707.94,-297.15"/>
</a>
</g>
</g>
<!-- Node6&#45;&gt;Node6 -->
<g id="edge7_Node000006_Node000006" class="edge">
<title>Node6&#45;&gt;Node6</title>
<g id="a_edge7_Node000006_Node000006"><a xlink:title=" ">
<path fill="none" stroke="#63b8ff" d="M697.28,-289.58C678.68,-298.23 691.42,-307.5 735.5,-307.5 768.56,-307.5 783.99,-302.29 781.79,-296.03"/>
<polygon fill="#63b8ff" stroke="#63b8ff" points="783.72,-293.09 773.72,-289.58 779.35,-298.56 783.72,-293.09"/>
</a>
</g>
</g>
<!-- Node8 -->
<g id="Node000008" class="node">
<title>Node8</title>
<g id="a_Node000008"><a xlink:href="classcam_1_1nc_1_1nclathe__read_1_1Parser.html#ab5ea283b461b57e48c8d5b0ad0a45694" target="_top" xlink:title=" ">
<polygon fill="white" stroke="#666666" points="824.5,-123.5 646.5,-123.5 646.5,-104.5 824.5,-104.5 824.5,-123.5"/>
<text text-anchor="middle" x="735.5" y="-111.5" font-family="Helvetica,sans-Serif" font-size="10.00">cam.nc.nclathe_read.Parser.write</text>
</a>
</g>
</g>
<!-- Node7&#45;&gt;Node8 -->
<g id="edge9_Node000007_Node000008" class="edge">
<title>Node7&#45;&gt;Node8</title>
<g id="a_edge9_Node000007_Node000008"><a xlink:title=" ">
<path fill="none" stroke="#63b8ff" d="M581.63,-125.12C599.51,-123.82 618.25,-122.45 636.23,-121.15"/>
<polygon fill="#63b8ff" stroke="#63b8ff" points="636.71,-124.62 646.43,-120.4 636.2,-117.64 636.71,-124.62"/>
</a>
</g>
</g>
<!-- Node8&#45;&gt;Node8 -->
<g id="edge10_Node000008_Node000008" class="edge">
<title>Node8&#45;&gt;Node8</title>
<g id="a_edge10_Node000008_Node000008"><a xlink:title=" ">
<path fill="none" stroke="#63b8ff" d="M697.28,-123.58C678.68,-132.23 691.42,-141.5 735.5,-141.5 768.56,-141.5 783.99,-136.29 781.79,-130.03"/>
<polygon fill="#63b8ff" stroke="#63b8ff" points="783.72,-127.09 773.72,-123.58 779.35,-132.56 783.72,-127.09"/>
</a>
</g>
</g>
<!-- Node10&#45;&gt;Node6 -->
<g id="edge13_Node000010_Node000006" class="edge">
<title>Node10&#45;&gt;Node6</title>
<g id="a_edge13_Node000010_Node000006"><a xlink:title=" ">
<path fill="none" stroke="#63b8ff" d="M550.74,-307.47C584.24,-302.46 625.49,-296.3 660.41,-291.08"/>
<polygon fill="#63b8ff" stroke="#63b8ff" points="661.18,-294.5 670.55,-289.56 660.14,-287.58 661.18,-294.5"/>
</a>
</g>
</g>
<!-- Node11&#45;&gt;Node8 -->
<g id="edge15_Node000011_Node000008" class="edge">
<title>Node11&#45;&gt;Node8</title>
<g id="a_edge15_Node000011_Node000008"><a xlink:title=" ">
<path fill="none" stroke="#63b8ff" d="M555.06,-67.52C569.94,-69.96 585.55,-72.82 600,-76 632.25,-83.1 668.23,-93.39 694.86,-101.47"/>
<polygon fill="#63b8ff" stroke="#63b8ff" points="693.99,-104.87 704.57,-104.45 696.04,-98.18 693.99,-104.87"/>
</a>
</g>
</g>
<!-- Node13&#45;&gt;Node4 -->
<g id="edge18_Node000013_Node000004" class="edge">
<title>Node13&#45;&gt;Node4</title>
<g id="a_edge18_Node000013_Node000004"><a xlink:title=" ">
<path fill="none" stroke="#63b8ff" d="M550.74,-492.47C584.24,-487.46 625.49,-481.3 660.41,-476.08"/>
<polygon fill="#63b8ff" stroke="#63b8ff" points="661.18,-479.5 670.55,-474.56 660.14,-472.58 661.18,-479.5"/>
</a>
</g>
</g>
<!-- Node14&#45;&gt;Node6 -->
<g id="edge20_Node000014_Node000006" class="edge">
<title>Node14&#45;&gt;Node6</title>
<g id="a_edge20_Node000014_Node000006"><a xlink:title=" ">
<path fill="none" stroke="#63b8ff" d="M550.74,-252.53C584.24,-257.54 625.49,-263.7 660.41,-268.92"/>
<polygon fill="#63b8ff" stroke="#63b8ff" points="660.14,-272.42 670.55,-270.44 661.18,-265.5 660.14,-272.42"/>
</a>
</g>
</g>
<!-- Node15&#45;&gt;Node8 -->
<g id="edge22_Node000015_Node000008" class="edge">
<title>Node15&#45;&gt;Node8</title>
<g id="a_edge22_Node000015_Node000008"><a xlink:title=" ">
<path fill="none" stroke="#63b8ff" d="M554.75,-159.46C569.71,-157 585.44,-154.15 600,-151 631.9,-144.09 667.49,-134.2 694.05,-126.39"/>
<polygon fill="#63b8ff" stroke="#63b8ff" points="695.17,-129.7 703.76,-123.5 693.17,-122.99 695.17,-129.7"/>
</a>
</g>
</g>
<!-- Node16&#45;&gt;Node6 -->
<g id="edge24_Node000016_Node000006" class="edge">
<title>Node16&#45;&gt;Node6</title>
<g id="a_edge24_Node000016_Node000006"><a xlink:title=" ">
<path fill="none" stroke="#63b8ff" d="M558.36,-215.53C572.3,-218.08 586.7,-221.21 600,-225 637.6,-235.71 678.97,-253.6 705.76,-266.06"/>
<polygon fill="#63b8ff" stroke="#63b8ff" points="704.4,-269.29 714.94,-270.39 707.38,-262.96 704.4,-269.29"/>
</a>
</g>
</g>
<!-- Node17&#45;&gt;Node4 -->
<g id="edge26_Node000017_Node000004" class="edge">
<title>Node17&#45;&gt;Node4</title>
<g id="a_edge26_Node000017_Node000004"><a xlink:title=" ">
<path fill="none" stroke="#63b8ff" d="M595.56,-465C605.49,-465 615.55,-465 625.48,-465"/>
<polygon fill="#63b8ff" stroke="#63b8ff" points="625.77,-468.5 635.77,-465 625.77,-461.5 625.77,-468.5"/>
</a>
</g>
</g>
<!-- Node18&#45;&gt;Node8 -->
<g id="edge28_Node000018_Node000008" class="edge">
<title>Node18&#45;&gt;Node8</title>
<g id="a_edge28_Node000018_Node000008"><a xlink:title=" ">
<path fill="none" stroke="#63b8ff" d="M585.17,-102.54C601.94,-103.82 619.36,-105.16 636.13,-106.45"/>
<polygon fill="#63b8ff" stroke="#63b8ff" points="636.24,-109.97 646.47,-107.24 636.77,-102.99 636.24,-109.97"/>
</a>
</g>
</g>
</g>
</svg>

<g id="navigator" transform="translate(0 0)" fill="#404254">
  <rect fill="#f2f5e9" fill-opacity="0.5" stroke="#606060" stroke-width=".5" x="0" y="0" width="60" height="60"/>
  <use id="zoomplus" xlink:href="#zoomPlus" x="17" y="9" onmousedown="handleZoom(evt,'in')"/>
  <use id="zoomminus" xlink:href="#zoomMin" x="42" y="9" onmousedown="handleZoom(evt,'out')"/>
  <use id="reset" xlink:href="#resetDef" x="30" y="36" onmousedown="handleReset()"/>
   <use id="arrowup" xlink:href="#arrowUp" x="0" y="0" onmousedown="handlePan(0,-1)"/>
  <use id="arrowright" xlink:href="#arrowRight" x="0" y="0" onmousedown="handlePan(1,0)"/>
  <use id="arrowdown" xlink:href="#arrowDown" x="0" y="0" onmousedown="handlePan(0,1)"/>
  <use id="arrowleft" xlink:href="#arrowLeft" x="0" y="0" onmousedown="handlePan(-1,0)"/>
</g>
<svg viewBox="0 0 15 15" width="100%" height="30px" preserveAspectRatio="xMaxYMin meet">
 <g id="arrow_out" transform="scale(0.3 0.3)">
  <a xlink:href="classcam_1_1nc_1_1hpgl2d__read_1_1Parser_a0b707cfa8f85f48082f4e827cd2e4de2_cgraph_org.svg" target="_base">
   <rect id="button" ry="5" rx="5" y="6" x="6" height="38" width="38"
        fill="#f2f5e9" fill-opacity="0.5" stroke="#606060" stroke-width="1.0"/>
   <path id="arrow"
     d="M 11.500037,31.436501 C 11.940474,20.09759 22.043105,11.32322 32.158766,21.979434 L 37.068811,17.246167 C 37.068811,17.246167 37.088388,32 37.088388,32 L 22.160133,31.978069 C 22.160133,31.978069 26.997745,27.140456 26.997745,27.140456 C 18.528582,18.264221 13.291696,25.230495 11.500037,31.436501 z"
     style="fill:#404040;"/>
  </a>
 </g>
</svg>

<style type='text/css'>
<![CDATA[
[data-mouse-over-selected='false'] { opacity: 0.7; }
[data-mouse-over-selected='true']  { opacity: 1.0; }
]]>
</style>
<script type="application/ecmascript"><![CDATA[
document.addEventListener('DOMContentLoaded', (event) => {
  highlightEdges();
  highlightAdjacentNodes();
});
]]></script>
</svg>
