<?xml version="1.0" encoding="UTF-8" standalone="no"?>
<!DOCTYPE svg PUBLIC "-//W3C//DTD SVG 1.1//EN"
 "http://www.w3.org/Graphics/SVG/1.1/DTD/svg11.dtd">
<!-- Generated by graphviz version 2.43.0 (0)
 -->
<!-- Title: cam.nc.hpgl3d.Creator.get_machine_xyz Pages: 1 -->
<!--zoomable 937 -->

<svg id="main" version="1.1" xmlns="http://www.w3.org/2000/svg" xmlns:xlink="http://www.w3.org/1999/xlink" xml:space="preserve" onload="init(evt)">
<style type="text/css"><![CDATA[
.node, .edge {opacity: 0.7;}
.node.selected, .edge.selected {opacity: 1;}
.edge:hover path { stroke: red; }
.edge:hover polygon { stroke: red; fill: red; }
]]></style>

<defs>
  <circle id="rim" cx="0" cy="0" r="7"/>
  <circle id="rim2" cx="0" cy="0" r="3.5"/>
  <g id="zoomPlus">
    <use xlink:href="#rim" fill="#404040"><set attributeName="fill" to="#808080" begin="zoomplus.mouseover" end="zoomplus.mouseout"/></use>
    <path d="M-4,0h8M0,-4v8" fill="none" stroke="white" stroke-width="1.5" pointer-events="none"/>
  </g>
  <g id="zoomMin">
    <use xlink:href="#rim" fill="#404040"><set attributeName="fill" to="#808080" begin="zoomminus.mouseover" end="zoomminus.mouseout"/></use>
    <path d="M-4,0h8" fill="none" stroke="white" stroke-width="1.5" pointer-events="none"/>
  </g>
  <g id="arrowUp" transform="translate(30 24)">
    <use xlink:href="#rim"/>
    <path pointer-events="none" fill="none" stroke="white" stroke-width="1.5" d="M0,-3.0v7 M-2.5,-0.5L0,-3.0L2.5,-0.5"/>
  </g>
  <g id="arrowRight" transform="rotate(90) translate(36 -43)">
    <use xlink:href="#rim"/>
    <path pointer-events="none" fill="none" stroke="white" stroke-width="1.5" d="M0,-3.0v7 M-2.5,-0.5L0,-3.0L2.5,-0.5"/>
  </g>
  <g id="arrowDown" transform="rotate(180) translate(-30 -48)">
    <use xlink:href="#rim"/>
    <path pointer-events="none" fill="none" stroke="white" stroke-width="1.5" d="M0,-3.0v7 M-2.5,-0.5L0,-3.0L2.5,-0.5"/>
  </g>
  <g id="arrowLeft" transform="rotate(270) translate(-36 17)">
    <use xlink:href="#rim"/>
    <path pointer-events="none" fill="none" stroke="white" stroke-width="1.5" d="M0,-3.0v7 M-2.5,-0.5L0,-3.0L2.5,-0.5"/>
  </g>
  <g id="resetDef">
    <use xlink:href="#rim2" fill="#404040"><set attributeName="fill" to="#808080" begin="reset.mouseover" end="reset.mouseout"/></use>
  </g>
</defs>
<script type="application/ecmascript">
var viewWidth = 968;
var viewHeight = 937;
var sectionId = 'dynsection-5';
</script>
<script type="application/ecmascript" xlink:href="svg.min.js"/>
<svg id="graph" class="graph">
<g id="viewport">
<title>cam.nc.hpgl3d.Creator.get_machine_xyz</title>
<!-- Node1 -->
<g id="Node000001" class="node">
<title>Node1</title>
<g id="a_Node000001"><a xlink:title=" ">
<polygon fill="#999999" stroke="#666666" points="960,-257.5 815,-257.5 815,-227.5 960,-227.5 960,-257.5"/>
<text text-anchor="start" x="823" y="-245.5" font-family="Helvetica,sans-Serif" font-size="10.00">cam.nc.hpgl3d.Creator.get</text>
<text text-anchor="middle" x="887.5" y="-234.5" font-family="Helvetica,sans-Serif" font-size="10.00">_machine_xyz</text>
</a>
</g>
</g>
<!-- Node2 -->
<g id="Node000002" class="node">
<title>Node2</title>
<g id="a_Node000002"><a xlink:href="classcam_1_1nc_1_1hpgl3d_1_1Creator.html#a12b9a33fb5cfbdff48b640e61cbea77d" target="_top" xlink:title=" ">
<polygon fill="white" stroke="#666666" points="777.5,-314 626.5,-314 626.5,-295 777.5,-295 777.5,-314"/>
<text text-anchor="middle" x="702" y="-302" font-family="Helvetica,sans-Serif" font-size="10.00">cam.nc.hpgl3d.Creator.feed</text>
</a>
</g>
</g>
<!-- Node1&#45;&gt;Node2 -->
<g id="edge1_Node000001_Node000002" class="edge">
<title>Node1&#45;&gt;Node2</title>
<g id="a_edge1_Node000001_Node000002"><a xlink:title=" ">
<path fill="none" stroke="#63b8ff" d="M832.51,-260.74C799.35,-271.95 758.2,-285.85 731.31,-294.93"/>
<polygon fill="#63b8ff" stroke="#63b8ff" points="833.73,-264.03 842.08,-257.51 831.49,-257.39 833.73,-264.03"/>
</a>
</g>
</g>
<!-- Node25 -->
<g id="Node000025" class="node">
<title>Node25</title>
<g id="a_Node000025"><a xlink:href="classcam_1_1nc_1_1hpgl3d_1_1Creator.html#ac4ee4e0cb11891159d4e59467650aa76" target="_top" xlink:title="Moves.">
<polygon fill="white" stroke="#666666" points="779,-209 625,-209 625,-190 779,-190 779,-209"/>
<text text-anchor="middle" x="702" y="-197" font-family="Helvetica,sans-Serif" font-size="10.00">cam.nc.hpgl3d.Creator.rapid</text>
</a>
</g>
</g>
<!-- Node1&#45;&gt;Node25 -->
<g id="edge46_Node000001_Node000025" class="edge">
<title>Node1&#45;&gt;Node25</title>
<g id="a_edge46_Node000001_Node000025"><a xlink:title=" ">
<path fill="none" stroke="#63b8ff" d="M812.38,-225.13C788.91,-219.63 763.84,-213.76 743.64,-209.02"/>
<polygon fill="#63b8ff" stroke="#63b8ff" points="811.79,-228.59 822.32,-227.46 813.38,-221.77 811.79,-228.59"/>
</a>
</g>
</g>
<!-- Node3 -->
<g id="Node000003" class="node">
<title>Node3</title>
<g id="a_Node000003"><a xlink:href="classcam_1_1nc_1_1heiden_1_1Creator.html#a78c90cc7cedad79ff356840b59527774" target="_top" xlink:title=" ">
<polygon fill="white" stroke="#666666" points="561.5,-590 417.5,-590 417.5,-571 561.5,-571 561.5,-590"/>
<text text-anchor="middle" x="489.5" y="-578" font-family="Helvetica,sans-Serif" font-size="10.00">cam.nc.heiden.Creator.arc</text>
</a>
</g>
</g>
<!-- Node2&#45;&gt;Node3 -->
<g id="edge2_Node000002_Node000003" class="edge">
<title>Node2&#45;&gt;Node3</title>
<g id="a_edge2_Node000002_Node000003"><a xlink:title=" ">
<path fill="none" stroke="#63b8ff" d="M687.6,-322.07C647.42,-374.75 528.84,-530.23 497.93,-570.75"/>
<polygon fill="#63b8ff" stroke="#63b8ff" points="690.47,-324.07 693.75,-314 684.91,-319.83 690.47,-324.07"/>
</a>
</g>
</g>
<!-- Node4 -->
<g id="Node000004" class="node">
<title>Node4</title>
<g id="a_Node000004"><a xlink:href="classcam_1_1nc_1_1iso_1_1Creator.html#aed90658ba02dc4e25c565f6e3a70670d" target="_top" xlink:title=" ">
<polygon fill="white" stroke="#666666" points="354,-646 229,-646 229,-627 354,-627 354,-646"/>
<text text-anchor="middle" x="291.5" y="-634" font-family="Helvetica,sans-Serif" font-size="10.00">cam.nc.iso.Creator.arc</text>
</a>
</g>
</g>
<!-- Node2&#45;&gt;Node4 -->
<g id="edge39_Node000002_Node000004" class="edge">
<title>Node2&#45;&gt;Node4</title>
<g id="a_edge39_Node000002_Node000004"><a xlink:title=" ">
<path fill="none" stroke="#63b8ff" d="M700.83,-324.1C699.16,-380.62 685.82,-544.57 589,-617.5 512.57,-675.07 391.23,-659.18 330.19,-646.07"/>
<polygon fill="#63b8ff" stroke="#63b8ff" points="704.33,-324.08 701.03,-314.01 697.33,-323.94 704.33,-324.08"/>
</a>
</g>
</g>
<!-- Node21 -->
<g id="Node000021" class="node">
<title>Node21</title>
<g id="a_Node000021"><a xlink:href="classcam_1_1nc_1_1heiden_1_1Creator.html#ab1ba24f0b927edab5d70c6642ceacfc4" target="_top" xlink:title=" ">
<polygon fill="white" stroke="#666666" points="563.5,-190 415.5,-190 415.5,-171 563.5,-171 563.5,-190"/>
<text text-anchor="middle" x="489.5" y="-178" font-family="Helvetica,sans-Serif" font-size="10.00">cam.nc.heiden.Creator.drill</text>
</a>
</g>
</g>
<!-- Node2&#45;&gt;Node21 -->
<g id="edge40_Node000002_Node000021" class="edge">
<title>Node2&#45;&gt;Node21</title>
<g id="a_edge40_Node000002_Node000021"><a xlink:title=" ">
<path fill="none" stroke="#63b8ff" d="M676.45,-289.68C653.8,-276.03 619.21,-255.27 589,-237.5 560.39,-220.67 526.91,-201.38 507.27,-190.11"/>
<polygon fill="#63b8ff" stroke="#63b8ff" points="674.72,-292.72 685.09,-294.89 678.34,-286.72 674.72,-292.72"/>
</a>
</g>
</g>
<!-- Node22 -->
<g id="Node000022" class="node">
<title>Node22</title>
<g id="a_Node000022"><a xlink:href="classcam_1_1nc_1_1iso_1_1Creator.html#a61f29267aaaddc3d5c8471f9bf714cb3" target="_top" xlink:title=" ">
<polygon fill="white" stroke="#666666" points="554,-314 425,-314 425,-295 554,-295 554,-314"/>
<text text-anchor="middle" x="489.5" y="-302" font-family="Helvetica,sans-Serif" font-size="10.00">cam.nc.iso.Creator.drill</text>
</a>
</g>
</g>
<!-- Node2&#45;&gt;Node22 -->
<g id="edge42_Node000002_Node000022" class="edge">
<title>Node2&#45;&gt;Node22</title>
<g id="a_edge42_Node000002_Node000022"><a xlink:title=" ">
<path fill="none" stroke="#63b8ff" d="M616.39,-304.5C595.61,-304.5 573.7,-304.5 554.1,-304.5"/>
<polygon fill="#63b8ff" stroke="#63b8ff" points="616.49,-308 626.49,-304.5 616.49,-301 616.49,-308"/>
</a>
</g>
</g>
<!-- Node23 -->
<g id="Node000023" class="node">
<title>Node23</title>
<g id="a_Node000023"><a xlink:href="classcam_1_1nc_1_1heiden_1_1Creator.html#a921825a14a9068d234377d7ac3b7777f" target="_top" xlink:title=" ">
<polygon fill="white" stroke="#666666" points="568,-276.5 411,-276.5 411,-246.5 568,-246.5 568,-276.5"/>
<text text-anchor="start" x="419" y="-264.5" font-family="Helvetica,sans-Serif" font-size="10.00">cam.nc.heiden.Creator.probe</text>
<text text-anchor="middle" x="489.5" y="-253.5" font-family="Helvetica,sans-Serif" font-size="10.00">_single_point</text>
</a>
</g>
</g>
<!-- Node2&#45;&gt;Node23 -->
<g id="edge44_Node000002_Node000023" class="edge">
<title>Node2&#45;&gt;Node23</title>
<g id="a_edge44_Node000002_Node000023"><a xlink:title=" ">
<path fill="none" stroke="#63b8ff" d="M644.35,-292.93C619.63,-287.88 590.33,-281.89 563.96,-276.51"/>
<polygon fill="#63b8ff" stroke="#63b8ff" points="643.79,-296.38 654.28,-294.96 645.19,-289.53 643.79,-296.38"/>
</a>
</g>
</g>
<!-- Node24 -->
<g id="Node000024" class="node">
<title>Node24</title>
<g id="a_Node000024"><a xlink:href="classcam_1_1nc_1_1iso_1_1Creator.html#adc5343ffd168991077858693d6a79fef" target="_top" xlink:title=" ">
<polygon fill="white" stroke="#666666" points="558.5,-362.5 420.5,-362.5 420.5,-332.5 558.5,-332.5 558.5,-362.5"/>
<text text-anchor="start" x="428.5" y="-350.5" font-family="Helvetica,sans-Serif" font-size="10.00">cam.nc.iso.Creator.probe</text>
<text text-anchor="middle" x="489.5" y="-339.5" font-family="Helvetica,sans-Serif" font-size="10.00">_single_point</text>
</a>
</g>
</g>
<!-- Node2&#45;&gt;Node24 -->
<g id="edge45_Node000002_Node000024" class="edge">
<title>Node2&#45;&gt;Node24</title>
<g id="a_edge45_Node000002_Node000024"><a xlink:title=" ">
<path fill="none" stroke="#63b8ff" d="M644.44,-316.05C618.03,-321.45 586.38,-327.91 558.66,-333.58"/>
<polygon fill="#63b8ff" stroke="#63b8ff" points="645.19,-319.47 654.28,-314.04 643.79,-312.62 645.19,-319.47"/>
</a>
</g>
</g>
<!-- Node3&#45;&gt;Node3 -->
<g id="edge3_Node000003_Node000003" class="edge">
<title>Node3&#45;&gt;Node3</title>
<g id="a_edge3_Node000003_Node000003"><a xlink:title=" ">
<path fill="none" stroke="#63b8ff" d="M526.62,-597.69C526.62,-603.42 514.24,-608 489.5,-608 454.31,-608 444.14,-598.73 458.98,-590.08"/>
<polygon fill="#63b8ff" stroke="#63b8ff" points="529.22,-595.34 520.02,-590.08 523.93,-599.93 529.22,-595.34"/>
</a>
</g>
</g>
<!-- Node3&#45;&gt;Node4 -->
<g id="edge4_Node000003_Node000004" class="edge">
<title>Node3&#45;&gt;Node4</title>
<g id="a_edge4_Node000003_Node000004"><a xlink:title=" ">
<path fill="none" stroke="#63b8ff" d="M423.82,-592.59C384.43,-602.96 336.89,-617.29 311.19,-626.99"/>
<polygon fill="#63b8ff" stroke="#63b8ff" points="424.84,-595.94 433.64,-590.04 423.08,-589.16 424.84,-595.94"/>
</a>
</g>
</g>
<!-- Node5 -->
<g id="Node000005" class="node">
<title>Node5</title>
<g id="a_Node000005"><a xlink:href="classcam_1_1nc_1_1heiden_1_1Creator.html#a7c0262bb6935f21773e134b851cbff38" target="_top" xlink:title=" ">
<polygon fill="white" stroke="#666666" points="180.5,-688 12.5,-688 12.5,-669 180.5,-669 180.5,-688"/>
<text text-anchor="middle" x="96.5" y="-676" font-family="Helvetica,sans-Serif" font-size="10.00">cam.nc.heiden.Creator.arc_ccw</text>
</a>
</g>
</g>
<!-- Node3&#45;&gt;Node5 -->
<g id="edge23_Node000003_Node000005" class="edge">
<title>Node3&#45;&gt;Node5</title>
<g id="a_edge23_Node000003_Node000005"><a xlink:title=" ">
<path fill="none" stroke="#63b8ff" d="M471.33,-597.49C447.41,-619.85 401.61,-658.13 354,-673.5 294.02,-692.86 221.98,-692.35 169.54,-688.01"/>
<polygon fill="#63b8ff" stroke="#63b8ff" points="474.03,-599.74 478.84,-590.3 469.19,-594.68 474.03,-599.74"/>
</a>
</g>
</g>
<!-- Node6 -->
<g id="Node000006" class="node">
<title>Node6</title>
<g id="a_Node000006"><a xlink:href="classcam_1_1nc_1_1hpgl2d_1_1Creator.html#ae869adedb7242daa7c1b42302c182896" target="_top" xlink:title=" ">
<polygon fill="white" stroke="#666666" points="180.5,-645 12.5,-645 12.5,-626 180.5,-626 180.5,-645"/>
<text text-anchor="middle" x="96.5" y="-633" font-family="Helvetica,sans-Serif" font-size="10.00">cam.nc.hpgl2d.Creator.arc_ccw</text>
</a>
</g>
</g>
<!-- Node3&#45;&gt;Node6 -->
<g id="edge24_Node000003_Node000006" class="edge">
<title>Node3&#45;&gt;Node6</title>
<g id="a_edge24_Node000003_Node000006"><a xlink:title=" ">
<path fill="none" stroke="#63b8ff" d="M410.51,-591.47C338.82,-601.56 233.6,-616.36 165.31,-625.96"/>
<polygon fill="#63b8ff" stroke="#63b8ff" points="411.42,-594.88 420.84,-590.02 410.45,-587.94 411.42,-594.88"/>
</a>
</g>
</g>
<!-- Node7 -->
<g id="Node000007" class="node">
<title>Node7</title>
<g id="a_Node000007"><a xlink:href="classcam_1_1nc_1_1iso_1_1Creator.html#a73623b6caaf8efee669803ee57ca97a9" target="_top" xlink:title=" ">
<polygon fill="white" stroke="#666666" points="171,-608 22,-608 22,-589 171,-589 171,-608"/>
<text text-anchor="middle" x="96.5" y="-596" font-family="Helvetica,sans-Serif" font-size="10.00">cam.nc.iso.Creator.arc_ccw</text>
</a>
</g>
</g>
<!-- Node3&#45;&gt;Node7 -->
<g id="edge25_Node000003_Node000007" class="edge">
<title>Node3&#45;&gt;Node7</title>
<g id="a_edge25_Node000003_Node000007"><a xlink:title=" ">
<path fill="none" stroke="#63b8ff" d="M407.38,-579.86C356.17,-579.93 288.66,-580.87 229,-584.5 210.21,-585.64 189.96,-587.49 171.12,-589.47"/>
<polygon fill="#63b8ff" stroke="#63b8ff" points="407.39,-583.36 417.39,-579.86 407.39,-576.36 407.39,-583.36"/>
</a>
</g>
</g>
<!-- Node8 -->
<g id="Node000008" class="node">
<title>Node8</title>
<g id="a_Node000008"><a xlink:href="classcam_1_1nc_1_1lathe1_1_1CreatorIso.html#a9eae946df7fc34b9a46e33a00d891c3d" target="_top" xlink:title=" ">
<polygon fill="white" stroke="#666666" points="187,-571 6,-571 6,-552 187,-552 187,-571"/>
<text text-anchor="middle" x="96.5" y="-559" font-family="Helvetica,sans-Serif" font-size="10.00">cam.nc.lathe1.CreatorIso.arc_ccw</text>
</a>
</g>
</g>
<!-- Node3&#45;&gt;Node8 -->
<g id="edge26_Node000003_Node000008" class="edge">
<title>Node3&#45;&gt;Node8</title>
<g id="a_edge26_Node000003_Node000008"><a xlink:title=" ">
<path fill="none" stroke="#63b8ff" d="M407.16,-576.55C342.95,-573.43 253.45,-569.08 187.17,-565.86"/>
<polygon fill="#63b8ff" stroke="#63b8ff" points="407.08,-580.05 417.24,-577.04 407.42,-573.06 407.08,-580.05"/>
</a>
</g>
</g>
<!-- Node9 -->
<g id="Node000009" class="node">
<title>Node9</title>
<g id="a_Node000009"><a xlink:href="classcam_1_1nc_1_1makerbotHBP_1_1CreatorMakerbotHBP.html#aa7b30248f278113e0c9a324820824941" target="_top" xlink:title=" ">
<polygon fill="white" stroke="#666666" points="176,-532.5 17,-532.5 17,-502.5 176,-502.5 176,-532.5"/>
<text text-anchor="start" x="25" y="-520.5" font-family="Helvetica,sans-Serif" font-size="10.00">cam.nc.makerbotHBP.Creator</text>
<text text-anchor="middle" x="96.5" y="-509.5" font-family="Helvetica,sans-Serif" font-size="10.00">MakerbotHBP.arc_ccw</text>
</a>
</g>
</g>
<!-- Node3&#45;&gt;Node9 -->
<g id="edge27_Node000003_Node000009" class="edge">
<title>Node3&#45;&gt;Node9</title>
<g id="a_edge27_Node000003_Node000009"><a xlink:title=" ">
<path fill="none" stroke="#63b8ff" d="M418.91,-569.29C350.77,-558.31 247.11,-541.61 176.05,-530.16"/>
<polygon fill="#63b8ff" stroke="#63b8ff" points="418.69,-572.8 429.12,-570.93 419.8,-565.89 418.69,-572.8"/>
</a>
</g>
</g>
<!-- Node10 -->
<g id="Node000010" class="node">
<title>Node10</title>
<g id="a_Node000010"><a xlink:href="classcam_1_1nc_1_1recreator_1_1Redirector.html#a50bb4fcb175a9c87e1cf45a79cd54ff1" target="_top" xlink:title=" ">
<polygon fill="white" stroke="#666666" points="193,-482 0,-482 0,-463 193,-463 193,-482"/>
<text text-anchor="middle" x="96.5" y="-470" font-family="Helvetica,sans-Serif" font-size="10.00">cam.nc.recreator.Redirector.arc_ccw</text>
</a>
</g>
</g>
<!-- Node3&#45;&gt;Node10 -->
<g id="edge28_Node000003_Node000010" class="edge">
<title>Node3&#45;&gt;Node10</title>
<g id="a_edge28_Node000003_Node000010"><a xlink:title=" ">
<path fill="none" stroke="#63b8ff" d="M452.11,-567.58C425.17,-558.2 387.48,-545.46 354,-535.5 283.12,-514.42 264.9,-510.78 193,-493.5 176.66,-489.57 158.67,-485.54 142.76,-482.08"/>
<polygon fill="#63b8ff" stroke="#63b8ff" points="451.28,-571 461.87,-571 453.59,-564.39 451.28,-571"/>
</a>
</g>
</g>
<!-- Node11 -->
<g id="Node000011" class="node">
<title>Node11</title>
<g id="a_Node000011"><a xlink:href="classcam_1_1nc_1_1rez2_1_1Creator.html#a7a7b089cf338846799311b5b1193a566" target="_top" xlink:title=" ">
<polygon fill="white" stroke="#666666" points="174.5,-442 18.5,-442 18.5,-423 174.5,-423 174.5,-442"/>
<text text-anchor="middle" x="96.5" y="-430" font-family="Helvetica,sans-Serif" font-size="10.00">cam.nc.rez2.Creator.arc_ccw</text>
</a>
</g>
</g>
<!-- Node3&#45;&gt;Node11 -->
<g id="edge29_Node000003_Node000011" class="edge">
<title>Node3&#45;&gt;Node11</title>
<g id="a_edge29_Node000003_Node000011"><a xlink:title=" ">
<path fill="none" stroke="#63b8ff" d="M467.65,-564.93C442.07,-546.49 396.83,-515.96 354,-497.5 285.98,-468.19 264.88,-472.37 193,-454.5 175.83,-450.23 156.85,-445.8 140.36,-442.04"/>
<polygon fill="#63b8ff" stroke="#63b8ff" points="465.7,-567.84 475.84,-570.91 469.82,-562.19 465.7,-567.84"/>
</a>
</g>
</g>
<!-- Node12 -->
<g id="Node000012" class="node">
<title>Node12</title>
<g id="a_Node000012"><a xlink:href="classcam_1_1nc_1_1heiden_1_1Creator.html#afffaa9e4bad9251bb67ff287f47accda" target="_top" xlink:title=" ">
<polygon fill="white" stroke="#666666" points="178,-398 15,-398 15,-379 178,-379 178,-398"/>
<text text-anchor="middle" x="96.5" y="-386" font-family="Helvetica,sans-Serif" font-size="10.00">cam.nc.heiden.Creator.arc_cw</text>
</a>
</g>
</g>
<!-- Node3&#45;&gt;Node12 -->
<g id="edge30_Node000003_Node000012" class="edge">
<title>Node3&#45;&gt;Node12</title>
<g id="a_edge30_Node000003_Node000012"><a xlink:title=" ">
<path fill="none" stroke="#63b8ff" d="M474.33,-563.24C451.67,-536.76 404.63,-486.27 354,-458.5 294.51,-425.87 218.76,-407.63 165.05,-398.02"/>
<polygon fill="#63b8ff" stroke="#63b8ff" points="471.69,-565.54 480.81,-570.94 477.05,-561.03 471.69,-565.54"/>
</a>
</g>
</g>
<!-- Node13 -->
<g id="Node000013" class="node">
<title>Node13</title>
<g id="a_Node000013"><a xlink:href="classcam_1_1nc_1_1hpgl2d_1_1Creator.html#ae23fc4d361aa6de768d74b18324bae53" target="_top" xlink:title=" ">
<polygon fill="white" stroke="#666666" points="178,-929 15,-929 15,-910 178,-910 178,-929"/>
<text text-anchor="middle" x="96.5" y="-917" font-family="Helvetica,sans-Serif" font-size="10.00">cam.nc.hpgl2d.Creator.arc_cw</text>
</a>
</g>
</g>
<!-- Node3&#45;&gt;Node13 -->
<g id="edge31_Node000003_Node000013" class="edge">
<title>Node3&#45;&gt;Node13</title>
<g id="a_edge31_Node000003_Node000013"><a xlink:title=" ">
<path fill="none" stroke="#63b8ff" d="M485.08,-600.15C475.04,-651.62 440.73,-791.22 354,-861.5 304.61,-901.53 233.06,-915.17 178.07,-919.29"/>
<polygon fill="#63b8ff" stroke="#63b8ff" points="488.57,-600.52 486.95,-590.05 481.68,-599.25 488.57,-600.52"/>
</a>
</g>
</g>
<!-- Node14 -->
<g id="Node000014" class="node">
<title>Node14</title>
<g id="a_Node000014"><a xlink:href="classcam_1_1nc_1_1iso_1_1Creator.html#a334d38752a57cd7745f9361d583c68f6" target="_top" xlink:title=" ">
<polygon fill="white" stroke="#666666" points="168.5,-891 24.5,-891 24.5,-872 168.5,-872 168.5,-891"/>
<text text-anchor="middle" x="96.5" y="-879" font-family="Helvetica,sans-Serif" font-size="10.00">cam.nc.iso.Creator.arc_cw</text>
</a>
</g>
</g>
<!-- Node3&#45;&gt;Node14 -->
<g id="edge32_Node000003_Node000014" class="edge">
<title>Node3&#45;&gt;Node14</title>
<g id="a_edge32_Node000003_Node000014"><a xlink:title=" ">
<path fill="none" stroke="#63b8ff" d="M483.55,-599.98C470.71,-646.42 431.74,-764.22 354,-823.5 300.72,-864.13 224.24,-877.23 168.66,-881.02"/>
<polygon fill="#63b8ff" stroke="#63b8ff" points="486.95,-600.81 486.15,-590.25 480.19,-599.01 486.95,-600.81"/>
</a>
</g>
</g>
<!-- Node15 -->
<g id="Node000015" class="node">
<title>Node15</title>
<g id="a_Node000015"><a xlink:href="classcam_1_1nc_1_1lathe1_1_1CreatorIso.html#ae2f7d7587f9940cf9534e127f7234c4c" target="_top" xlink:title=" ">
<polygon fill="white" stroke="#666666" points="184.5,-853 8.5,-853 8.5,-834 184.5,-834 184.5,-853"/>
<text text-anchor="middle" x="96.5" y="-841" font-family="Helvetica,sans-Serif" font-size="10.00">cam.nc.lathe1.CreatorIso.arc_cw</text>
</a>
</g>
</g>
<!-- Node3&#45;&gt;Node15 -->
<g id="edge33_Node000003_Node000015" class="edge">
<title>Node3&#45;&gt;Node15</title>
<g id="a_edge33_Node000003_Node000015"><a xlink:title=" ">
<path fill="none" stroke="#63b8ff" d="M481.64,-599.77C465.94,-640.98 423.31,-737.84 354,-786.5 304.62,-821.16 237.81,-835.22 184.75,-840.72"/>
<polygon fill="#63b8ff" stroke="#63b8ff" points="485.02,-600.73 485.21,-590.13 478.46,-598.3 485.02,-600.73"/>
</a>
</g>
</g>
<!-- Node16 -->
<g id="Node000016" class="node">
<title>Node16</title>
<g id="a_Node000016"><a xlink:href="classcam_1_1nc_1_1makerbotHBP_1_1CreatorMakerbotHBP.html#a2cf899fa0839287bdca94b6207c078d6" target="_top" xlink:title=" ">
<polygon fill="white" stroke="#666666" points="176,-815.5 17,-815.5 17,-785.5 176,-785.5 176,-815.5"/>
<text text-anchor="start" x="25" y="-803.5" font-family="Helvetica,sans-Serif" font-size="10.00">cam.nc.makerbotHBP.Creator</text>
<text text-anchor="middle" x="96.5" y="-792.5" font-family="Helvetica,sans-Serif" font-size="10.00">MakerbotHBP.arc_cw</text>
</a>
</g>
</g>
<!-- Node3&#45;&gt;Node16 -->
<g id="edge34_Node000003_Node000016" class="edge">
<title>Node3&#45;&gt;Node16</title>
<g id="a_edge34_Node000003_Node000016"><a xlink:title=" ">
<path fill="none" stroke="#63b8ff" d="M479.42,-599.75C461.2,-636.08 416.51,-714.51 354,-752.5 300.38,-785.09 229.7,-796.46 176.12,-800.04"/>
<polygon fill="#63b8ff" stroke="#63b8ff" points="482.79,-600.82 484.03,-590.3 476.5,-597.75 482.79,-600.82"/>
</a>
</g>
</g>
<!-- Node17 -->
<g id="Node000017" class="node">
<title>Node17</title>
<g id="a_Node000017"><a xlink:href="classcam_1_1nc_1_1recreator_1_1Redirector.html#a54adbf876611896e0d8d530766a18964" target="_top" xlink:title=" ">
<polygon fill="white" stroke="#666666" points="190.5,-766 2.5,-766 2.5,-747 190.5,-747 190.5,-766"/>
<text text-anchor="middle" x="96.5" y="-754" font-family="Helvetica,sans-Serif" font-size="10.00">cam.nc.recreator.Redirector.arc_cw</text>
</a>
</g>
</g>
<!-- Node3&#45;&gt;Node17 -->
<g id="edge35_Node000003_Node000017" class="edge">
<title>Node3&#45;&gt;Node17</title>
<g id="a_edge35_Node000003_Node000017"><a xlink:title=" ">
<path fill="none" stroke="#63b8ff" d="M477.27,-598.84C456.98,-630.16 411,-693.39 354,-722.5 303.89,-748.09 241.42,-756.78 190.67,-758.98"/>
<polygon fill="#63b8ff" stroke="#63b8ff" points="480.33,-600.54 482.72,-590.22 474.42,-596.8 480.33,-600.54"/>
</a>
</g>
</g>
<!-- Node18 -->
<g id="Node000018" class="node">
<title>Node18</title>
<g id="a_Node000018"><a xlink:href="classcam_1_1nc_1_1rez2_1_1Creator.html#a96f30401310d0198de3d2d55da86510f" target="_top" xlink:title=" ">
<polygon fill="white" stroke="#666666" points="172,-728 21,-728 21,-709 172,-709 172,-728"/>
<text text-anchor="middle" x="96.5" y="-716" font-family="Helvetica,sans-Serif" font-size="10.00">cam.nc.rez2.Creator.arc_cw</text>
</a>
</g>
</g>
<!-- Node3&#45;&gt;Node18 -->
<g id="edge36_Node000003_Node000018" class="edge">
<title>Node3&#45;&gt;Node18</title>
<g id="a_edge36_Node000003_Node000018"><a xlink:title=" ">
<path fill="none" stroke="#63b8ff" d="M474.34,-598.17C451.97,-624.63 405.64,-673.76 354,-695.5 296.31,-719.78 225.01,-724.39 172.23,-723.57"/>
<polygon fill="#63b8ff" stroke="#63b8ff" points="477.31,-600.07 480.98,-590.14 471.91,-595.61 477.31,-600.07"/>
</a>
</g>
</g>
<!-- Node19 -->
<g id="Node000019" class="node">
<title>Node19</title>
<g id="a_Node000019"><a xlink:href="classcam_1_1nc_1_1cad__iso__read_1_1Parser.html#abf885d019794a8bef1b69f446c8851e1" target="_top" xlink:title=" ">
<polygon fill="white" stroke="#666666" points="173.5,-285.5 19.5,-285.5 19.5,-255.5 173.5,-255.5 173.5,-285.5"/>
<text text-anchor="start" x="27.5" y="-273.5" font-family="Helvetica,sans-Serif" font-size="10.00">cam.nc.cad_iso_read.Parser.</text>
<text text-anchor="middle" x="96.5" y="-262.5" font-family="Helvetica,sans-Serif" font-size="10.00">Parse</text>
</a>
</g>
</g>
<!-- Node3&#45;&gt;Node19 -->
<g id="edge37_Node000003_Node000019" class="edge">
<title>Node3&#45;&gt;Node19</title>
<g id="a_edge37_Node000003_Node000019"><a xlink:title=" ">
<path fill="none" stroke="#63b8ff" d="M482.46,-560.98C467.84,-516.92 426.29,-409.1 354,-351.5 302.05,-310.1 228.63,-289.7 173.65,-279.74"/>
<polygon fill="#63b8ff" stroke="#63b8ff" points="479.14,-562.07 485.53,-570.52 485.8,-559.92 479.14,-562.07"/>
</a>
</g>
</g>
<!-- Node20 -->
<g id="Node000020" class="node">
<title>Node20</title>
<g id="a_Node000020"><a xlink:href="classcam_1_1nc_1_1heiden__read_1_1Parser.html#a9c64dcddf3c2c0d3248079dde5314cfe" target="_top" xlink:title=" ">
<polygon fill="white" stroke="#666666" points="171.5,-347.5 21.5,-347.5 21.5,-317.5 171.5,-317.5 171.5,-347.5"/>
<text text-anchor="start" x="29.5" y="-335.5" font-family="Helvetica,sans-Serif" font-size="10.00">cam.nc.heiden_read.Parser.</text>
<text text-anchor="middle" x="96.5" y="-324.5" font-family="Helvetica,sans-Serif" font-size="10.00">Parsey</text>
</a>
</g>
</g>
<!-- Node3&#45;&gt;Node20 -->
<g id="edge38_Node000003_Node000020" class="edge">
<title>Node3&#45;&gt;Node20</title>
<g id="a_edge38_Node000003_Node000020"><a xlink:title=" ">
<path fill="none" stroke="#63b8ff" d="M478.78,-561.33C459.76,-525.76 414.18,-449.46 354,-408.5 299.19,-371.2 225.75,-351.86 171.5,-342.06"/>
<polygon fill="#63b8ff" stroke="#63b8ff" points="475.89,-563.35 483.62,-570.6 482.09,-560.11 475.89,-563.35"/>
</a>
</g>
</g>
<!-- Node4&#45;&gt;Node3 -->
<g id="edge5_Node000004_Node000003" class="edge">
<title>Node4&#45;&gt;Node3</title>
<g id="a_edge5_Node000004_Node000003"><a xlink:title=" ">
<path fill="none" stroke="#63b8ff" d="M357.27,-624.39C396.59,-614.03 444,-599.75 469.71,-590.05"/>
<polygon fill="#63b8ff" stroke="#63b8ff" points="356.26,-621.03 347.46,-626.93 358.02,-627.81 356.26,-621.03"/>
</a>
</g>
</g>
<!-- Node4&#45;&gt;Node4 -->
<g id="edge6_Node000004_Node000004" class="edge">
<title>Node4&#45;&gt;Node4</title>
<g id="a_edge6_Node000004_Node000004"><a xlink:title=" ">
<path fill="none" stroke="#63b8ff" d="M327.86,-654.07C327.32,-659.62 315.21,-664 291.5,-664 257.02,-664 247.05,-654.73 261.6,-646.08"/>
<polygon fill="#63b8ff" stroke="#63b8ff" points="330.41,-651.66 321.4,-646.08 324.96,-656.06 330.41,-651.66"/>
</a>
</g>
</g>
<!-- Node4&#45;&gt;Node5 -->
<g id="edge7_Node000004_Node000005" class="edge">
<title>Node4&#45;&gt;Node5</title>
<g id="a_edge7_Node000004_Node000005"><a xlink:title=" ">
<path fill="none" stroke="#63b8ff" d="M236.8,-648.19C206.76,-654.72 169.77,-662.77 141.46,-668.93"/>
<polygon fill="#63b8ff" stroke="#63b8ff" points="237.68,-651.58 246.71,-646.03 236.19,-644.74 237.68,-651.58"/>
</a>
</g>
</g>
<!-- Node4&#45;&gt;Node6 -->
<g id="edge8_Node000004_Node000006" class="edge">
<title>Node4&#45;&gt;Node6</title>
<g id="a_edge8_Node000004_Node000006"><a xlink:title=" ">
<path fill="none" stroke="#63b8ff" d="M218.66,-636.13C206.29,-636.06 193.34,-636 180.69,-635.93"/>
<polygon fill="#63b8ff" stroke="#63b8ff" points="218.88,-639.63 228.9,-636.18 218.92,-632.63 218.88,-639.63"/>
</a>
</g>
</g>
<!-- Node4&#45;&gt;Node7 -->
<g id="edge9_Node000004_Node000007" class="edge">
<title>Node4&#45;&gt;Node7</title>
<g id="a_edge9_Node000004_Node000007"><a xlink:title=" ">
<path fill="none" stroke="#63b8ff" d="M231.9,-624.96C204.37,-619.54 171.95,-613.16 145.85,-608.02"/>
<polygon fill="#63b8ff" stroke="#63b8ff" points="231.31,-628.41 241.8,-626.91 232.66,-621.55 231.31,-628.41"/>
</a>
</g>
</g>
<!-- Node4&#45;&gt;Node8 -->
<g id="edge10_Node000004_Node000008" class="edge">
<title>Node4&#45;&gt;Node8</title>
<g id="a_edge10_Node000004_Node000008"><a xlink:title=" ">
<path fill="none" stroke="#63b8ff" d="M268.7,-621.21C249.59,-608.49 220.61,-590.86 193,-580.5 182.71,-576.64 171.49,-573.52 160.48,-571"/>
<polygon fill="#63b8ff" stroke="#63b8ff" points="266.76,-624.12 277,-626.83 270.69,-618.32 266.76,-624.12"/>
</a>
</g>
</g>
<!-- Node4&#45;&gt;Node9 -->
<g id="edge11_Node000004_Node000009" class="edge">
<title>Node4&#45;&gt;Node9</title>
<g id="a_edge11_Node000004_Node000009"><a xlink:title=" ">
<path fill="none" stroke="#63b8ff" d="M277.03,-619.19C259.78,-598.21 227.92,-563.2 193,-543.5 185.37,-539.19 176.99,-535.57 168.46,-532.53"/>
<polygon fill="#63b8ff" stroke="#63b8ff" points="274.31,-621.39 283.3,-626.99 279.76,-617.01 274.31,-621.39"/>
</a>
</g>
</g>
<!-- Node4&#45;&gt;Node10 -->
<g id="edge12_Node000004_Node000010" class="edge">
<title>Node4&#45;&gt;Node10</title>
<g id="a_edge12_Node000004_Node000010"><a xlink:title=" ">
<path fill="none" stroke="#63b8ff" d="M283.19,-617.73C270.08,-586.68 239.52,-524.95 193,-493.5 185.83,-488.65 177.72,-484.9 169.34,-482"/>
<polygon fill="#63b8ff" stroke="#63b8ff" points="279.95,-619.05 286.96,-626.99 286.43,-616.41 279.95,-619.05"/>
</a>
</g>
</g>
<!-- Node4&#45;&gt;Node11 -->
<g id="edge13_Node000004_Node000011" class="edge">
<title>Node4&#45;&gt;Node11</title>
<g id="a_edge13_Node000004_Node000011"><a xlink:title=" ">
<path fill="none" stroke="#63b8ff" d="M285.81,-617C275.71,-579.36 248.21,-496.7 193,-454.5 186.11,-449.23 178.17,-445.19 169.88,-442.09"/>
<polygon fill="#63b8ff" stroke="#63b8ff" points="282.44,-617.92 288.31,-626.75 289.22,-616.19 282.44,-617.92"/>
</a>
</g>
</g>
<!-- Node4&#45;&gt;Node12 -->
<g id="edge14_Node000004_Node000012" class="edge">
<title>Node4&#45;&gt;Node12</title>
<g id="a_edge14_Node000004_Node000012"><a xlink:title=" ">
<path fill="none" stroke="#63b8ff" d="M287.61,-616.65C280.22,-573.21 256.51,-469.25 193,-414.5 184.54,-407.21 174.22,-401.94 163.53,-398.14"/>
<polygon fill="#63b8ff" stroke="#63b8ff" points="284.19,-617.44 289.22,-626.77 291.11,-616.34 284.19,-617.44"/>
</a>
</g>
</g>
<!-- Node4&#45;&gt;Node13 -->
<g id="edge15_Node000004_Node000013" class="edge">
<title>Node4&#45;&gt;Node13</title>
<g id="a_edge15_Node000004_Node000013"><a xlink:title=" ">
<path fill="none" stroke="#63b8ff" d="M289.48,-656.31C285.81,-705.81 269.02,-835.59 193,-900.5 188.5,-904.34 183.45,-907.49 178.07,-910.06"/>
<polygon fill="#63b8ff" stroke="#63b8ff" points="292.99,-656.23 290.14,-646.02 286.01,-655.78 292.99,-656.23"/>
</a>
</g>
</g>
<!-- Node4&#45;&gt;Node14 -->
<g id="edge16_Node000004_Node000014" class="edge">
<title>Node4&#45;&gt;Node14</title>
<g id="a_edge16_Node000004_Node000014"><a xlink:title=" ">
<path fill="none" stroke="#63b8ff" d="M288.14,-656.14C281.7,-700.47 259.64,-808.62 193,-862.5 185.9,-868.24 177.55,-872.4 168.79,-875.4"/>
<polygon fill="#63b8ff" stroke="#63b8ff" points="291.62,-656.46 289.48,-646.09 284.69,-655.54 291.62,-656.46"/>
</a>
</g>
</g>
<!-- Node4&#45;&gt;Node15 -->
<g id="edge17_Node000004_Node000015" class="edge">
<title>Node4&#45;&gt;Node15</title>
<g id="a_edge17_Node000004_Node000015"><a xlink:title=" ">
<path fill="none" stroke="#63b8ff" d="M286.26,-656.24C276.83,-695.1 250.25,-781.48 193,-824.5 188,-828.26 182.45,-831.33 176.61,-833.82"/>
<polygon fill="#63b8ff" stroke="#63b8ff" points="289.74,-656.73 288.57,-646.2 282.92,-655.17 289.74,-656.73"/>
</a>
</g>
</g>
<!-- Node4&#45;&gt;Node16 -->
<g id="edge18_Node000004_Node000016" class="edge">
<title>Node4&#45;&gt;Node16</title>
<g id="a_edge18_Node000004_Node000016"><a xlink:title=" ">
<path fill="none" stroke="#63b8ff" d="M282.33,-655.82C268.51,-686.1 237.6,-744.49 193,-775.5 187.37,-779.41 181.17,-782.71 174.71,-785.5"/>
<polygon fill="#63b8ff" stroke="#63b8ff" points="285.66,-656.93 286.5,-646.37 279.26,-654.1 285.66,-656.93"/>
</a>
</g>
</g>
<!-- Node4&#45;&gt;Node17 -->
<g id="edge19_Node000004_Node000017" class="edge">
<title>Node4&#45;&gt;Node17</title>
<g id="a_edge19_Node000004_Node000017"><a xlink:title=" ">
<path fill="none" stroke="#63b8ff" d="M278.58,-654.38C262.18,-677.46 230.39,-717.09 193,-737.5 185.88,-741.39 178.07,-744.49 170.08,-746.95"/>
<polygon fill="#63b8ff" stroke="#63b8ff" points="281.47,-656.36 284.28,-646.14 275.71,-652.38 281.47,-656.36"/>
</a>
</g>
</g>
<!-- Node4&#45;&gt;Node18 -->
<g id="edge20_Node000004_Node000018" class="edge">
<title>Node4&#45;&gt;Node18</title>
<g id="a_edge20_Node000004_Node000018"><a xlink:title=" ">
<path fill="none" stroke="#63b8ff" d="M270.15,-652.16C251.17,-666.03 221.56,-685.83 193,-697.5 181.37,-702.25 168.48,-706.01 156.04,-708.95"/>
<polygon fill="#63b8ff" stroke="#63b8ff" points="272.39,-654.85 278.32,-646.07 268.21,-649.23 272.39,-654.85"/>
</a>
</g>
</g>
<!-- Node4&#45;&gt;Node19 -->
<g id="edge21_Node000004_Node000019" class="edge">
<title>Node4&#45;&gt;Node19</title>
<g id="a_edge21_Node000004_Node000019"><a xlink:title=" ">
<path fill="none" stroke="#63b8ff" d="M290.31,-616.38C288.7,-560.24 276.63,-400 193,-308.5 183.85,-298.49 171.72,-291.07 159.18,-285.59"/>
<polygon fill="#63b8ff" stroke="#63b8ff" points="286.82,-616.79 290.52,-626.72 293.82,-616.65 286.82,-616.79"/>
</a>
</g>
</g>
<!-- Node4&#45;&gt;Node20 -->
<g id="edge22_Node000004_Node000020" class="edge">
<title>Node4&#45;&gt;Node20</title>
<g id="a_edge22_Node000004_Node000020"><a xlink:title=" ">
<path fill="none" stroke="#63b8ff" d="M288.7,-616.7C283.27,-568.22 262.86,-442.3 193,-370.5 183.29,-360.52 170.64,-353.1 157.73,-347.6"/>
<polygon fill="#63b8ff" stroke="#63b8ff" points="285.23,-617.21 289.73,-626.8 292.2,-616.5 285.23,-617.21"/>
</a>
</g>
</g>
<!-- Node21&#45;&gt;Node19 -->
<g id="edge41_Node000021_Node000019" class="edge">
<title>Node21&#45;&gt;Node19</title>
<g id="a_edge41_Node000021_Node000019"><a xlink:title=" ">
<path fill="none" stroke="#63b8ff" d="M405.19,-180.38C353.57,-182.21 286.4,-188.08 229,-204.5 188.97,-215.95 146.6,-239.58 121.11,-255.23"/>
<polygon fill="#63b8ff" stroke="#63b8ff" points="405.41,-183.87 415.3,-180.06 405.19,-176.87 405.41,-183.87"/>
</a>
</g>
</g>
<!-- Node22&#45;&gt;Node19 -->
<g id="edge43_Node000022_Node000019" class="edge">
<title>Node22&#45;&gt;Node19</title>
<g id="a_edge43_Node000022_Node000019"><a xlink:title=" ">
<path fill="none" stroke="#63b8ff" d="M429.05,-293.07C400.12,-287.67 368.5,-282.07 354,-280.5 293.63,-273.97 224.87,-271.56 173.74,-270.73"/>
<polygon fill="#63b8ff" stroke="#63b8ff" points="428.67,-296.56 439.14,-294.96 429.96,-289.68 428.67,-296.56"/>
</a>
</g>
</g>
<!-- Node25&#45;&gt;Node20 -->
<g id="edge49_Node000025_Node000020" class="edge">
<title>Node25&#45;&gt;Node20</title>
<g id="a_edge49_Node000025_Node000020"><a xlink:title=" ">
<path fill="none" stroke="#63b8ff" d="M614.63,-205.57C551.8,-211.06 464.96,-220.91 390,-237.5 296.69,-258.15 190.86,-296.37 135.64,-317.49"/>
<polygon fill="#63b8ff" stroke="#63b8ff" points="615.23,-209.03 624.9,-204.69 614.64,-202.05 615.23,-209.03"/>
</a>
</g>
</g>
<!-- Node25&#45;&gt;Node21 -->
<g id="edge47_Node000025_Node000021" class="edge">
<title>Node25&#45;&gt;Node21</title>
<g id="a_edge47_Node000025_Node000021"><a xlink:title=" ">
<path fill="none" stroke="#63b8ff" d="M614.34,-191.68C597.52,-190.16 580.05,-188.58 563.72,-187.11"/>
<polygon fill="#63b8ff" stroke="#63b8ff" points="614.43,-195.2 624.71,-192.61 615.06,-188.23 614.43,-195.2"/>
</a>
</g>
</g>
<!-- Node25&#45;&gt;Node22 -->
<g id="edge48_Node000025_Node000022" class="edge">
<title>Node25&#45;&gt;Node22</title>
<g id="a_edge48_Node000025_Node000022"><a xlink:title=" ">
<path fill="none" stroke="#63b8ff" d="M684.58,-216.17C664.09,-235.94 627.09,-268.37 589,-285.5 578.12,-290.39 566.01,-294.03 554.11,-296.73"/>
<polygon fill="#63b8ff" stroke="#63b8ff" points="687.16,-218.55 691.83,-209.04 682.25,-213.56 687.16,-218.55"/>
</a>
</g>
</g>
<!-- Node25&#45;&gt;Node23 -->
<g id="edge52_Node000025_Node000023" class="edge">
<title>Node25&#45;&gt;Node23</title>
<g id="a_edge52_Node000025_Node000023"><a xlink:title=" ">
<path fill="none" stroke="#63b8ff" d="M659.05,-211.86C638.03,-218.06 612.17,-225.68 589,-232.5 573.61,-237.03 556.87,-241.96 541.62,-246.45"/>
<polygon fill="#63b8ff" stroke="#63b8ff" points="660.05,-215.22 668.65,-209.03 658.07,-208.5 660.05,-215.22"/>
</a>
</g>
</g>
<!-- Node25&#45;&gt;Node24 -->
<g id="edge53_Node000025_Node000024" class="edge">
<title>Node25&#45;&gt;Node24</title>
<g id="a_edge53_Node000025_Node000024"><a xlink:title=" ">
<path fill="none" stroke="#63b8ff" d="M685.77,-216.9C656.57,-250.18 595.06,-319.89 589,-323.5 579.7,-329.04 569.19,-333.31 558.58,-336.59"/>
<polygon fill="#63b8ff" stroke="#63b8ff" points="688.48,-219.11 692.44,-209.28 683.22,-214.5 688.48,-219.11"/>
</a>
</g>
</g>
<!-- Node26 -->
<g id="Node000026" class="node">
<title>Node26</title>
<g id="a_Node000026"><a xlink:href="classcam_1_1nc_1_1heiden_1_1Creator.html#ae8e86bcc6f05521bf4b639128e3241ee" target="_top" xlink:title=" ">
<polygon fill="white" stroke="#666666" points="568,-152.5 411,-152.5 411,-122.5 568,-122.5 568,-152.5"/>
<text text-anchor="start" x="419" y="-140.5" font-family="Helvetica,sans-Serif" font-size="10.00">cam.nc.heiden.Creator.probe</text>
<text text-anchor="middle" x="489.5" y="-129.5" font-family="Helvetica,sans-Serif" font-size="10.00">_downward_point</text>
</a>
</g>
</g>
<!-- Node25&#45;&gt;Node26 -->
<g id="edge50_Node000025_Node000026" class="edge">
<title>Node25&#45;&gt;Node26</title>
<g id="a_edge50_Node000025_Node000026"><a xlink:title=" ">
<path fill="none" stroke="#63b8ff" d="M665.41,-186.53C643.53,-178.78 614.82,-169.01 589,-161.5 578.27,-158.38 566.8,-155.33 555.62,-152.51"/>
<polygon fill="#63b8ff" stroke="#63b8ff" points="664.36,-189.87 674.96,-189.94 666.71,-183.28 664.36,-189.87"/>
</a>
</g>
</g>
<!-- Node27 -->
<g id="Node000027" class="node">
<title>Node27</title>
<g id="a_Node000027"><a xlink:href="classcam_1_1nc_1_1iso_1_1Creator.html#a40689f45d25f7f726d11a172b608c0a4" target="_top" xlink:title=" ">
<polygon fill="white" stroke="#666666" points="558.5,-104.5 420.5,-104.5 420.5,-74.5 558.5,-74.5 558.5,-104.5"/>
<text text-anchor="start" x="428.5" y="-92.5" font-family="Helvetica,sans-Serif" font-size="10.00">cam.nc.iso.Creator.probe</text>
<text text-anchor="middle" x="489.5" y="-81.5" font-family="Helvetica,sans-Serif" font-size="10.00">_downward_point</text>
</a>
</g>
</g>
<!-- Node25&#45;&gt;Node27 -->
<g id="edge51_Node000025_Node000027" class="edge">
<title>Node25&#45;&gt;Node27</title>
<g id="a_edge51_Node000025_Node000027"><a xlink:title=" ">
<path fill="none" stroke="#63b8ff" d="M684.11,-182.83C663.42,-163.34 626.47,-131.46 589,-113.5 579.48,-108.94 569.01,-105.19 558.56,-102.14"/>
<polygon fill="#63b8ff" stroke="#63b8ff" points="681.82,-185.48 691.46,-189.88 686.67,-180.43 681.82,-185.48"/>
</a>
</g>
</g>
<!-- Node28 -->
<g id="Node000028" class="node">
<title>Node28</title>
<g id="a_Node000028"><a xlink:href="classcam_1_1nc_1_1emc2tap_1_1CreatorEMC2tap.html#ae7c40089d2816698fbe6cfbc9a10a052" target="_top" xlink:title=" ">
<polygon fill="white" stroke="#666666" points="589,-56 390,-56 390,-37 589,-37 589,-56"/>
<text text-anchor="middle" x="489.5" y="-44" font-family="Helvetica,sans-Serif" font-size="10.00">cam.nc.emc2tap.CreatorEMC2tap.tap</text>
</a>
</g>
</g>
<!-- Node25&#45;&gt;Node28 -->
<g id="edge54_Node000025_Node000028" class="edge">
<title>Node25&#45;&gt;Node28</title>
<g id="a_edge54_Node000025_Node000028"><a xlink:title=" ">
<path fill="none" stroke="#63b8ff" d="M691.11,-180.91C674.33,-151.33 637.34,-93.99 589,-65.5 582.4,-61.61 575.16,-58.49 567.69,-56"/>
<polygon fill="#63b8ff" stroke="#63b8ff" points="688.11,-182.73 696.01,-189.79 694.24,-179.34 688.11,-182.73"/>
</a>
</g>
</g>
<!-- Node29 -->
<g id="Node000029" class="node">
<title>Node29</title>
<g id="a_Node000029"><a xlink:href="classcam_1_1nc_1_1heiden_1_1Creator.html#a706db14683812bb3b86db958d7faa05a" target="_top" xlink:title=" ">
<polygon fill="white" stroke="#666666" points="562,-19 417,-19 417,0 562,0 562,-19"/>
<text text-anchor="middle" x="489.5" y="-7" font-family="Helvetica,sans-Serif" font-size="10.00">cam.nc.heiden.Creator.tap</text>
</a>
</g>
</g>
<!-- Node25&#45;&gt;Node29 -->
<g id="edge55_Node000025_Node000029" class="edge">
<title>Node25&#45;&gt;Node29</title>
<g id="a_edge55_Node000025_Node000029"><a xlink:title=" ">
<path fill="none" stroke="#63b8ff" d="M694.38,-180.27C680.82,-143.98 646.24,-65.59 589,-27.5 580.9,-22.11 571.62,-18.21 562.08,-15.42"/>
<polygon fill="#63b8ff" stroke="#63b8ff" points="691.1,-181.49 697.79,-189.71 697.69,-179.12 691.1,-181.49"/>
</a>
</g>
</g>
</g>
</svg>

<g id="navigator" transform="translate(0 0)" fill="#404254">
  <rect fill="#f2f5e9" fill-opacity="0.5" stroke="#606060" stroke-width=".5" x="0" y="0" width="60" height="60"/>
  <use id="zoomplus" xlink:href="#zoomPlus" x="17" y="9" onmousedown="handleZoom(evt,'in')"/>
  <use id="zoomminus" xlink:href="#zoomMin" x="42" y="9" onmousedown="handleZoom(evt,'out')"/>
  <use id="reset" xlink:href="#resetDef" x="30" y="36" onmousedown="handleReset()"/>
   <use id="arrowup" xlink:href="#arrowUp" x="0" y="0" onmousedown="handlePan(0,-1)"/>
  <use id="arrowright" xlink:href="#arrowRight" x="0" y="0" onmousedown="handlePan(1,0)"/>
  <use id="arrowdown" xlink:href="#arrowDown" x="0" y="0" onmousedown="handlePan(0,1)"/>
  <use id="arrowleft" xlink:href="#arrowLeft" x="0" y="0" onmousedown="handlePan(-1,0)"/>
</g>
<svg viewBox="0 0 15 15" width="100%" height="30px" preserveAspectRatio="xMaxYMin meet">
 <g id="arrow_out" transform="scale(0.3 0.3)">
  <a xlink:href="classcam_1_1nc_1_1hpgl3d_1_1Creator_ad2ebb67f72b382a47c9b07f0ef987587_icgraph_org.svg" target="_base">
   <rect id="button" ry="5" rx="5" y="6" x="6" height="38" width="38"
        fill="#f2f5e9" fill-opacity="0.5" stroke="#606060" stroke-width="1.0"/>
   <path id="arrow"
     d="M 11.500037,31.436501 C 11.940474,20.09759 22.043105,11.32322 32.158766,21.979434 L 37.068811,17.246167 C 37.068811,17.246167 37.088388,32 37.088388,32 L 22.160133,31.978069 C 22.160133,31.978069 26.997745,27.140456 26.997745,27.140456 C 18.528582,18.264221 13.291696,25.230495 11.500037,31.436501 z"
     style="fill:#404040;"/>
  </a>
 </g>
</svg>

<style type='text/css'>
<![CDATA[
[data-mouse-over-selected='false'] { opacity: 0.7; }
[data-mouse-over-selected='true']  { opacity: 1.0; }
]]>
</style>
<script type="application/ecmascript"><![CDATA[
document.addEventListener('DOMContentLoaded', (event) => {
  highlightEdges();
  highlightAdjacentNodes();
});
]]></script>
</svg>
