<?xml version="1.0" encoding="UTF-8" standalone="no"?>
<!DOCTYPE svg PUBLIC "-//W3C//DTD SVG 1.1//EN"
 "http://www.w3.org/Graphics/SVG/1.1/DTD/svg11.dtd">
<!-- Generated by graphviz version 2.43.0 (0)
 -->
<!-- Title: cam.nc.shopbot_mtc.Creator.feed Pages: 1 -->
<!--zoomable 487 -->

<svg id="main" version="1.1" xmlns="http://www.w3.org/2000/svg" xmlns:xlink="http://www.w3.org/1999/xlink" xml:space="preserve" onload="init(evt)">
<style type="text/css"><![CDATA[
.node, .edge {opacity: 0.7;}
.node.selected, .edge.selected {opacity: 1;}
.edge:hover path { stroke: red; }
.edge:hover polygon { stroke: red; fill: red; }
]]></style>

<defs>
  <circle id="rim" cx="0" cy="0" r="7"/>
  <circle id="rim2" cx="0" cy="0" r="3.5"/>
  <g id="zoomPlus">
    <use xlink:href="#rim" fill="#404040"><set attributeName="fill" to="#808080" begin="zoomplus.mouseover" end="zoomplus.mouseout"/></use>
    <path d="M-4,0h8M0,-4v8" fill="none" stroke="white" stroke-width="1.5" pointer-events="none"/>
  </g>
  <g id="zoomMin">
    <use xlink:href="#rim" fill="#404040"><set attributeName="fill" to="#808080" begin="zoomminus.mouseover" end="zoomminus.mouseout"/></use>
    <path d="M-4,0h8" fill="none" stroke="white" stroke-width="1.5" pointer-events="none"/>
  </g>
  <g id="arrowUp" transform="translate(30 24)">
    <use xlink:href="#rim"/>
    <path pointer-events="none" fill="none" stroke="white" stroke-width="1.5" d="M0,-3.0v7 M-2.5,-0.5L0,-3.0L2.5,-0.5"/>
  </g>
  <g id="arrowRight" transform="rotate(90) translate(36 -43)">
    <use xlink:href="#rim"/>
    <path pointer-events="none" fill="none" stroke="white" stroke-width="1.5" d="M0,-3.0v7 M-2.5,-0.5L0,-3.0L2.5,-0.5"/>
  </g>
  <g id="arrowDown" transform="rotate(180) translate(-30 -48)">
    <use xlink:href="#rim"/>
    <path pointer-events="none" fill="none" stroke="white" stroke-width="1.5" d="M0,-3.0v7 M-2.5,-0.5L0,-3.0L2.5,-0.5"/>
  </g>
  <g id="arrowLeft" transform="rotate(270) translate(-36 17)">
    <use xlink:href="#rim"/>
    <path pointer-events="none" fill="none" stroke="white" stroke-width="1.5" d="M0,-3.0v7 M-2.5,-0.5L0,-3.0L2.5,-0.5"/>
  </g>
  <g id="resetDef">
    <use xlink:href="#rim2" fill="#404040"><set attributeName="fill" to="#808080" begin="reset.mouseover" end="reset.mouseout"/></use>
  </g>
</defs>
<script type="application/ecmascript">
var viewWidth = 1269;
var viewHeight = 487;
var sectionId = 'dynsection-9';
</script>
<script type="application/ecmascript" xlink:href="svg.min.js"/>
<svg id="graph" class="graph">
<g id="viewport">
<title>cam.nc.shopbot_mtc.Creator.feed</title>
<!-- Node1 -->
<g id="Node000001" class="node">
<title>Node1</title>
<g id="a_Node000001"><a xlink:title=" ">
<polygon fill="#999999" stroke="#666666" points="181,-285.5 0,-285.5 0,-266.5 181,-266.5 181,-285.5"/>
<text text-anchor="middle" x="90.5" y="-273.5" font-family="Helvetica,sans-Serif" font-size="10.00">cam.nc.shopbot_mtc.Creator.feed</text>
</a>
</g>
</g>
<!-- Node2 -->
<g id="Node000002" class="node">
<title>Node2</title>
<g id="a_Node000002"><a xlink:href="classcam_1_1nc_1_1cad__nc__read_1_1Parser.html#adcf2f47949df29f187f27fe985884633" target="_top" xlink:title=" ">
<polygon fill="white" stroke="#666666" points="404.5,-460.5 228.5,-460.5 228.5,-441.5 404.5,-441.5 404.5,-460.5"/>
<text text-anchor="middle" x="316.5" y="-448.5" font-family="Helvetica,sans-Serif" font-size="10.00">cam.nc.cad_nc_read.Parser.write</text>
</a>
</g>
</g>
<!-- Node1&#45;&gt;Node2 -->
<g id="edge1_Node000001_Node000002" class="edge">
<title>Node1&#45;&gt;Node2</title>
<g id="a_edge1_Node000001_Node000002"><a xlink:title=" ">
<path fill="none" stroke="#63b8ff" d="M96.11,-285.74C109.94,-313.84 154.09,-395.41 217,-433 219.84,-434.69 222.79,-436.24 225.84,-437.64"/>
<polygon fill="#63b8ff" stroke="#63b8ff" points="224.62,-440.92 235.2,-441.44 227.26,-434.44 224.62,-440.92"/>
</a>
</g>
</g>
<!-- Node3 -->
<g id="Node000003" class="node">
<title>Node3</title>
<g id="a_Node000003"><a xlink:href="classcam_1_1nc_1_1hxml__writer_1_1HxmlWriter.html#aed6f93c98cb8c0e3f3e826e75b6d6f15" target="_top" xlink:title=" ">
<polygon fill="white" stroke="#666666" points="416,-405.5 217,-405.5 217,-386.5 416,-386.5 416,-405.5"/>
<text text-anchor="middle" x="316.5" y="-393.5" font-family="Helvetica,sans-Serif" font-size="10.00">cam.nc.hxml_writer.HxmlWriter.write</text>
</a>
</g>
</g>
<!-- Node1&#45;&gt;Node3 -->
<g id="edge3_Node000001_Node000003" class="edge">
<title>Node1&#45;&gt;Node3</title>
<g id="a_edge3_Node000001_Node000003"><a xlink:title=" ">
<path fill="none" stroke="#63b8ff" d="M100.13,-285.75C119.05,-306.45 166.51,-354.74 217,-378 221.41,-380.03 226.02,-381.83 230.75,-383.43"/>
<polygon fill="#63b8ff" stroke="#63b8ff" points="229.99,-386.86 240.58,-386.43 232.04,-380.16 229.99,-386.86"/>
</a>
</g>
</g>
<!-- Node4 -->
<g id="Node000004" class="node">
<title>Node4</title>
<g id="a_Node000004"><a xlink:href="classcam_1_1nc_1_1iso_1_1Creator.html#abb81af5a0bdddfed387b71b68a51cc7a" target="_top" xlink:title="Internals.">
<polygon fill="white" stroke="#666666" points="384,-368.5 249,-368.5 249,-349.5 384,-349.5 384,-368.5"/>
<text text-anchor="middle" x="316.5" y="-356.5" font-family="Helvetica,sans-Serif" font-size="10.00">cam.nc.iso.Creator.write</text>
</a>
</g>
</g>
<!-- Node1&#45;&gt;Node4 -->
<g id="edge5_Node000001_Node000004" class="edge">
<title>Node1&#45;&gt;Node4</title>
<g id="a_edge5_Node000001_Node000004"><a xlink:title=" ">
<path fill="none" stroke="#63b8ff" d="M106.3,-285.53C129.14,-299.8 174.74,-326.56 217,-341 224.03,-343.4 231.47,-345.51 238.97,-347.34"/>
<polygon fill="#63b8ff" stroke="#63b8ff" points="238.31,-350.78 248.84,-349.6 239.88,-343.96 238.31,-350.78"/>
</a>
</g>
</g>
<!-- Node5 -->
<g id="Node000005" class="node">
<title>Node5</title>
<g id="a_Node000005"><a xlink:href="classcam_1_1nc_1_1nc_1_1Creator.html#a80f2134add83bfaaf2870d075d36ed8a" target="_top" xlink:title=" ">
<polygon fill="white" stroke="#666666" points="382.5,-313.5 250.5,-313.5 250.5,-294.5 382.5,-294.5 382.5,-313.5"/>
<text text-anchor="middle" x="316.5" y="-301.5" font-family="Helvetica,sans-Serif" font-size="10.00">cam.nc.nc.Creator.write</text>
</a>
</g>
</g>
<!-- Node1&#45;&gt;Node5 -->
<g id="edge6_Node000001_Node000005" class="edge">
<title>Node1&#45;&gt;Node5</title>
<g id="a_edge6_Node000001_Node000005"><a xlink:title=" ">
<path fill="none" stroke="#63b8ff" d="M167.65,-285.52C191.07,-288.45 216.83,-291.67 240.2,-294.59"/>
<polygon fill="#63b8ff" stroke="#63b8ff" points="240.04,-298.09 250.4,-295.86 240.91,-291.15 240.04,-298.09"/>
</a>
</g>
</g>
<!-- Node6 -->
<g id="Node000006" class="node">
<title>Node6</title>
<g id="a_Node000006"><a xlink:href="classcam_1_1nc_1_1nclathe__read_1_1Parser.html#ab5ea283b461b57e48c8d5b0ad0a45694" target="_top" xlink:title=" ">
<polygon fill="white" stroke="#666666" points="405.5,-258.5 227.5,-258.5 227.5,-239.5 405.5,-239.5 405.5,-258.5"/>
<text text-anchor="middle" x="316.5" y="-246.5" font-family="Helvetica,sans-Serif" font-size="10.00">cam.nc.nclathe_read.Parser.write</text>
</a>
</g>
</g>
<!-- Node1&#45;&gt;Node6 -->
<g id="edge8_Node000001_Node000006" class="edge">
<title>Node1&#45;&gt;Node6</title>
<g id="a_edge8_Node000001_Node000006"><a xlink:title=" ">
<path fill="none" stroke="#63b8ff" d="M170.47,-266.48C188.54,-264.3 207.87,-261.97 226.33,-259.75"/>
<polygon fill="#63b8ff" stroke="#63b8ff" points="226.97,-263.2 236.48,-258.52 226.14,-256.25 226.97,-263.2"/>
</a>
</g>
</g>
<!-- Node7 -->
<g id="Node000007" class="node">
<title>Node7</title>
<g id="a_Node000007"><a xlink:href="classcam_1_1nc_1_1recreator_1_1Redirector.html#a79cc974683588db3ef959189e7552c0d" target="_top" xlink:title="Programs.">
<polygon fill="white" stroke="#666666" points="406,-203.5 227,-203.5 227,-184.5 406,-184.5 406,-203.5"/>
<text text-anchor="middle" x="316.5" y="-191.5" font-family="Helvetica,sans-Serif" font-size="10.00">cam.nc.recreator.Redirector.write</text>
</a>
</g>
</g>
<!-- Node1&#45;&gt;Node7 -->
<g id="edge10_Node000001_Node000007" class="edge">
<title>Node1&#45;&gt;Node7</title>
<g id="a_edge10_Node000001_Node000007"><a xlink:title=" ">
<path fill="none" stroke="#63b8ff" d="M117.63,-266.43C157.85,-251.71 234.96,-223.48 280.13,-206.95"/>
<polygon fill="#63b8ff" stroke="#63b8ff" points="281.35,-210.23 289.53,-203.51 278.94,-203.66 281.35,-210.23"/>
</a>
</g>
</g>
<!-- Node8 -->
<g id="Node000008" class="node">
<title>Node8</title>
<g id="a_Node000008"><a xlink:href="classcam_1_1nc_1_1format_1_1Address.html#aa21f0ffeb829537d9103759276c01a4b" target="_top" xlink:title=" ">
<polygon fill="white" stroke="#666666" points="395.5,-166.5 237.5,-166.5 237.5,-147.5 395.5,-147.5 395.5,-166.5"/>
<text text-anchor="middle" x="316.5" y="-154.5" font-family="Helvetica,sans-Serif" font-size="10.00">cam.nc.format.Address.write</text>
</a>
</g>
</g>
<!-- Node1&#45;&gt;Node8 -->
<g id="edge12_Node000001_Node000008" class="edge">
<title>Node1&#45;&gt;Node8</title>
<g id="a_edge12_Node000001_Node000008"><a xlink:title=" ">
<path fill="none" stroke="#63b8ff" d="M100.19,-266.48C119.22,-246.28 166.9,-199.08 217,-176 222.42,-173.5 228.16,-171.33 234.02,-169.45"/>
<polygon fill="#63b8ff" stroke="#63b8ff" points="235.37,-172.7 243.99,-166.54 233.41,-165.98 235.37,-172.7"/>
</a>
</g>
</g>
<!-- Node19 -->
<g id="Node000019" class="node">
<title>Node19</title>
<g id="a_Node000019"><a xlink:href="classcam_1_1nc_1_1format_1_1AddressPlusMinus.html#aaacea4c7b677f0a602dbc9023ff365d2" target="_top" xlink:title=" ">
<polygon fill="white" stroke="#666666" points="391.5,-129 241.5,-129 241.5,-99 391.5,-99 391.5,-129"/>
<text text-anchor="start" x="249.5" y="-117" font-family="Helvetica,sans-Serif" font-size="10.00">cam.nc.format.AddressPlus</text>
<text text-anchor="middle" x="316.5" y="-106" font-family="Helvetica,sans-Serif" font-size="10.00">Minus.write</text>
</a>
</g>
</g>
<!-- Node1&#45;&gt;Node19 -->
<g id="edge25_Node000001_Node000019" class="edge">
<title>Node1&#45;&gt;Node19</title>
<g id="a_edge25_Node000001_Node000019"><a xlink:title=" ">
<path fill="none" stroke="#63b8ff" d="M97.43,-266.16C113.33,-240.66 159.64,-172.06 217,-138 221.68,-135.22 226.67,-132.76 231.82,-130.59"/>
<polygon fill="#63b8ff" stroke="#63b8ff" points="233.16,-133.82 241.25,-126.97 230.66,-127.29 233.16,-133.82"/>
</a>
</g>
</g>
<!-- Node2&#45;&gt;Node2 -->
<g id="edge2_Node000002_Node000002" class="edge">
<title>Node2&#45;&gt;Node2</title>
<g id="a_edge2_Node000002_Node000002"><a xlink:title=" ">
<path fill="none" stroke="#63b8ff" d="M283.21,-460.58C267.01,-469.23 278.11,-478.5 316.5,-478.5 344.09,-478.5 357.59,-473.71 356.98,-467.81"/>
<polygon fill="#63b8ff" stroke="#63b8ff" points="359.33,-465.2 349.79,-460.58 354.36,-470.14 359.33,-465.2"/>
</a>
</g>
</g>
<!-- Node3&#45;&gt;Node3 -->
<g id="edge4_Node000003_Node000003" class="edge">
<title>Node3&#45;&gt;Node3</title>
<g id="a_edge4_Node000003_Node000003"><a xlink:title=" ">
<path fill="none" stroke="#63b8ff" d="M283.21,-405.58C267.01,-414.23 278.11,-423.5 316.5,-423.5 344.09,-423.5 357.59,-418.71 356.98,-412.81"/>
<polygon fill="#63b8ff" stroke="#63b8ff" points="359.33,-410.2 349.79,-405.58 354.36,-415.14 359.33,-410.2"/>
</a>
</g>
</g>
<!-- Node5&#45;&gt;Node5 -->
<g id="edge7_Node000005_Node000005" class="edge">
<title>Node5&#45;&gt;Node5</title>
<g id="a_edge7_Node000005_Node000005"><a xlink:title=" ">
<path fill="none" stroke="#63b8ff" d="M283.21,-313.58C267.01,-322.23 278.11,-331.5 316.5,-331.5 344.09,-331.5 357.59,-326.71 356.98,-320.81"/>
<polygon fill="#63b8ff" stroke="#63b8ff" points="359.33,-318.2 349.79,-313.58 354.36,-323.14 359.33,-318.2"/>
</a>
</g>
</g>
<!-- Node6&#45;&gt;Node6 -->
<g id="edge9_Node000006_Node000006" class="edge">
<title>Node6&#45;&gt;Node6</title>
<g id="a_edge9_Node000006_Node000006"><a xlink:title=" ">
<path fill="none" stroke="#63b8ff" d="M283.21,-258.58C267.01,-267.23 278.11,-276.5 316.5,-276.5 344.09,-276.5 357.59,-271.71 356.98,-265.81"/>
<polygon fill="#63b8ff" stroke="#63b8ff" points="359.33,-263.2 349.79,-258.58 354.36,-268.14 359.33,-263.2"/>
</a>
</g>
</g>
<!-- Node7&#45;&gt;Node7 -->
<g id="edge11_Node000007_Node000007" class="edge">
<title>Node7&#45;&gt;Node7</title>
<g id="a_edge11_Node000007_Node000007"><a xlink:title=" ">
<path fill="none" stroke="#63b8ff" d="M283.21,-203.58C267.01,-212.23 278.11,-221.5 316.5,-221.5 344.09,-221.5 357.59,-216.71 356.98,-210.81"/>
<polygon fill="#63b8ff" stroke="#63b8ff" points="359.33,-208.2 349.79,-203.58 354.36,-213.14 359.33,-208.2"/>
</a>
</g>
</g>
<!-- Node9 -->
<g id="Node000009" class="node">
<title>Node9</title>
<g id="a_Node000009"><a xlink:href="classcam_1_1async__op_1_1AsyncOperatorMixin.html#a9628cbca8e69ec75b2337171a02bf428" target="_top" xlink:title=" ">
<polygon fill="white" stroke="#666666" points="613,-150 452,-150 452,-120 613,-120 613,-150"/>
<text text-anchor="start" x="460" y="-138" font-family="Helvetica,sans-Serif" font-size="10.00">cam.async_op.AsyncOperator</text>
<text text-anchor="middle" x="532.5" y="-127" font-family="Helvetica,sans-Serif" font-size="10.00">Mixin.modal</text>
</a>
</g>
</g>
<!-- Node8&#45;&gt;Node9 -->
<g id="edge13_Node000008_Node000009" class="edge">
<title>Node8&#45;&gt;Node9</title>
<g id="a_edge13_Node000008_Node000009"><a xlink:title=" ">
<path fill="none" stroke="#63b8ff" d="M395.67,-148.96C410.65,-147.42 426.45,-145.8 441.77,-144.22"/>
<polygon fill="#63b8ff" stroke="#63b8ff" points="442.16,-147.7 451.75,-143.2 441.45,-140.74 442.16,-147.7"/>
</a>
</g>
</g>
<!-- Node10 -->
<g id="Node000010" class="node">
<title>Node10</title>
<g id="a_Node000010"><a xlink:href="classcam_1_1async__op_1_1AsyncOperatorMixin.html#a15a51cfd69d8e453e2e3d64386b1ebe3" target="_top" xlink:title=" ">
<polygon fill="white" stroke="#666666" points="810,-150 649,-150 649,-120 810,-120 810,-150"/>
<text text-anchor="start" x="657" y="-138" font-family="Helvetica,sans-Serif" font-size="10.00">cam.async_op.AsyncOperator</text>
<text text-anchor="middle" x="729.5" y="-127" font-family="Helvetica,sans-Serif" font-size="10.00">Mixin.tick</text>
</a>
</g>
</g>
<!-- Node9&#45;&gt;Node10 -->
<g id="edge14_Node000009_Node000010" class="edge">
<title>Node9&#45;&gt;Node10</title>
<g id="a_edge14_Node000009_Node000010"><a xlink:title=" ">
<path fill="none" stroke="#63b8ff" d="M613.1,-135C621.57,-135 630.24,-135 638.82,-135"/>
<polygon fill="#63b8ff" stroke="#63b8ff" points="638.84,-138.5 648.84,-135 638.84,-131.5 638.84,-138.5"/>
</a>
</g>
</g>
<!-- Node11 -->
<g id="Node000011" class="node">
<title>Node11</title>
<g id="a_Node000011"><a xlink:href="classcam_1_1async__op_1_1AsyncTestOperator.html#a42606ca890a957aa7070a4bc6f25228b" target="_top" xlink:title=" ">
<polygon fill="white" stroke="#666666" points="1067,-270 846,-270 846,-240 1067,-240 1067,-270"/>
<text text-anchor="start" x="854" y="-258" font-family="Helvetica,sans-Serif" font-size="10.00">cam.async_op.AsyncTestOperator.execute</text>
<text text-anchor="middle" x="956.5" y="-247" font-family="Helvetica,sans-Serif" font-size="10.00">_async</text>
</a>
</g>
</g>
<!-- Node10&#45;&gt;Node11 -->
<g id="edge15_Node000010_Node000011" class="edge">
<title>Node10&#45;&gt;Node11</title>
<g id="a_edge15_Node000010_Node000011"><a xlink:title=" ">
<path fill="none" stroke="#63b8ff" d="M744.18,-150.27C764.31,-171.74 804.07,-210.51 846,-231 850.09,-233 854.35,-234.84 858.72,-236.52"/>
<polygon fill="#63b8ff" stroke="#63b8ff" points="857.81,-239.91 868.41,-239.97 860.16,-233.32 857.81,-239.91"/>
</a>
</g>
</g>
<!-- Node12 -->
<g id="Node000012" class="node">
<title>Node12</title>
<g id="a_Node000012"><a xlink:href="classcam_1_1ops_1_1CalculatePath.html#a13dfe2f8578383234e74e58e2f292e1b" target="_top" xlink:title=" ">
<polygon fill="white" stroke="#666666" points="1041,-222 872,-222 872,-192 1041,-192 1041,-222"/>
<text text-anchor="start" x="880" y="-210" font-family="Helvetica,sans-Serif" font-size="10.00">cam.ops.CalculatePath.execute</text>
<text text-anchor="middle" x="956.5" y="-199" font-family="Helvetica,sans-Serif" font-size="10.00">_async</text>
</a>
</g>
</g>
<!-- Node10&#45;&gt;Node12 -->
<g id="edge16_Node000010_Node000012" class="edge">
<title>Node10&#45;&gt;Node12</title>
<g id="a_edge16_Node000010_Node000012"><a xlink:title=" ">
<path fill="none" stroke="#63b8ff" d="M762.29,-150.01C785.18,-160.38 817,-173.88 846,-183 853.31,-185.3 860.96,-187.46 868.68,-189.47"/>
<polygon fill="#63b8ff" stroke="#63b8ff" points="867.91,-192.89 878.46,-191.93 869.62,-186.1 867.91,-192.89"/>
</a>
</g>
</g>
<!-- Node14 -->
<g id="Node000014" class="node">
<title>Node14</title>
<g id="a_Node000014"><a xlink:href="classcam_1_1ops_1_1PathsChain.html#a6fc64e383ccf724b2325e18a82d53eae" target="_top" xlink:title=" ">
<polygon fill="white" stroke="#666666" points="1034.5,-174 878.5,-174 878.5,-144 1034.5,-144 1034.5,-174"/>
<text text-anchor="start" x="886.5" y="-162" font-family="Helvetica,sans-Serif" font-size="10.00">cam.ops.PathsChain.execute</text>
<text text-anchor="middle" x="956.5" y="-151" font-family="Helvetica,sans-Serif" font-size="10.00">_async</text>
</a>
</g>
</g>
<!-- Node10&#45;&gt;Node14 -->
<g id="edge18_Node000010_Node000014" class="edge">
<title>Node10&#45;&gt;Node14</title>
<g id="a_edge18_Node000010_Node000014"><a xlink:title=" ">
<path fill="none" stroke="#63b8ff" d="M810.14,-143.5C828.9,-145.5 848.98,-147.64 868.06,-149.67"/>
<polygon fill="#63b8ff" stroke="#63b8ff" points="867.92,-153.18 878.23,-150.76 868.66,-146.22 867.92,-153.18"/>
</a>
</g>
</g>
<!-- Node16 -->
<g id="Node000016" class="node">
<title>Node16</title>
<g id="a_Node000016"><a xlink:href="classcam_1_1ops_1_1CAMSimulate.html#a633151f17849d281fd52ce82c00356a7" target="_top" xlink:title=" ">
<polygon fill="white" stroke="#666666" points="1040.5,-126 872.5,-126 872.5,-96 1040.5,-96 1040.5,-126"/>
<text text-anchor="start" x="880.5" y="-114" font-family="Helvetica,sans-Serif" font-size="10.00">cam.ops.CAMSimulate.execute</text>
<text text-anchor="middle" x="956.5" y="-103" font-family="Helvetica,sans-Serif" font-size="10.00">_async</text>
</a>
</g>
</g>
<!-- Node10&#45;&gt;Node16 -->
<g id="edge21_Node000010_Node000016" class="edge">
<title>Node10&#45;&gt;Node16</title>
<g id="a_edge21_Node000010_Node000016"><a xlink:title=" ">
<path fill="none" stroke="#63b8ff" d="M810.14,-126.5C826.95,-124.71 844.82,-122.81 862.08,-120.97"/>
<polygon fill="#63b8ff" stroke="#63b8ff" points="862.58,-124.43 872.15,-119.89 861.84,-117.47 862.58,-124.43"/>
</a>
</g>
</g>
<!-- Node17 -->
<g id="Node000017" class="node">
<title>Node17</title>
<g id="a_Node000017"><a xlink:href="classcam_1_1ops_1_1CAMSimulateChain.html#a1e77c7ce21b3b7e3e38a12b6b62517e9" target="_top" xlink:title=" ">
<polygon fill="white" stroke="#666666" points="1054.5,-78 858.5,-78 858.5,-48 1054.5,-48 1054.5,-78"/>
<text text-anchor="start" x="866.5" y="-66" font-family="Helvetica,sans-Serif" font-size="10.00">cam.ops.CAMSimulateChain.execute</text>
<text text-anchor="middle" x="956.5" y="-55" font-family="Helvetica,sans-Serif" font-size="10.00">_async</text>
</a>
</g>
</g>
<!-- Node10&#45;&gt;Node17 -->
<g id="edge22_Node000010_Node000017" class="edge">
<title>Node10&#45;&gt;Node17</title>
<g id="a_edge22_Node000010_Node000017"><a xlink:title=" ">
<path fill="none" stroke="#63b8ff" d="M762.29,-119.99C785.18,-109.62 817,-96.12 846,-87 853.31,-84.7 860.96,-82.54 868.68,-80.53"/>
<polygon fill="#63b8ff" stroke="#63b8ff" points="869.62,-83.9 878.46,-78.07 867.91,-77.11 869.62,-83.9"/>
</a>
</g>
</g>
<!-- Node18 -->
<g id="Node000018" class="node">
<title>Node18</title>
<g id="a_Node000018"><a xlink:href="classcam_1_1async__op_1_1AsyncOperatorMixin.html#a2216ff6bb0dfd132f4ec4cf79b7cba2b" target="_top" xlink:title=" ">
<polygon fill="white" stroke="#666666" points="1037,-30 876,-30 876,0 1037,0 1037,-30"/>
<text text-anchor="start" x="884" y="-18" font-family="Helvetica,sans-Serif" font-size="10.00">cam.async_op.AsyncOperator</text>
<text text-anchor="middle" x="956.5" y="-7" font-family="Helvetica,sans-Serif" font-size="10.00">Mixin.show_progress</text>
</a>
</g>
</g>
<!-- Node10&#45;&gt;Node18 -->
<g id="edge24_Node000010_Node000018" class="edge">
<title>Node10&#45;&gt;Node18</title>
<g id="a_edge24_Node000010_Node000018"><a xlink:title=" ">
<path fill="none" stroke="#63b8ff" d="M744.18,-119.73C764.31,-98.26 804.07,-59.49 846,-39 852.43,-35.86 859.27,-33.12 866.28,-30.74"/>
<polygon fill="#63b8ff" stroke="#63b8ff" points="867.42,-34.05 875.91,-27.71 865.32,-27.37 867.42,-34.05"/>
</a>
</g>
</g>
<!-- Node13 -->
<g id="Node000013" class="node">
<title>Node13</title>
<g id="a_Node000013"><a xlink:href="namespacecam_1_1ops.html#aa8e95f7410a7ceb178db48f4f8c2d995" target="_top" xlink:title=" ">
<polygon fill="white" stroke="#666666" points="1238.5,-192.5 1125.5,-192.5 1125.5,-173.5 1238.5,-173.5 1238.5,-192.5"/>
<text text-anchor="middle" x="1182" y="-180.5" font-family="Helvetica,sans-Serif" font-size="10.00">cam.ops._calc_path</text>
</a>
</g>
</g>
<!-- Node12&#45;&gt;Node13 -->
<g id="edge17_Node000012_Node000013" class="edge">
<title>Node12&#45;&gt;Node13</title>
<g id="a_edge17_Node000012_Node000013"><a xlink:title=" ">
<path fill="none" stroke="#63b8ff" d="M1041.04,-198.03C1065.56,-195.4 1092.01,-192.56 1115.25,-190.06"/>
<polygon fill="#63b8ff" stroke="#63b8ff" points="1115.77,-193.52 1125.34,-188.98 1115.03,-186.56 1115.77,-193.52"/>
</a>
</g>
</g>
<!-- Node14&#45;&gt;Node13 -->
<g id="edge19_Node000014_Node000013" class="edge">
<title>Node14&#45;&gt;Node13</title>
<g id="a_edge19_Node000014_Node000013"><a xlink:title=" ">
<path fill="none" stroke="#63b8ff" d="M1034.73,-167.29C1060.9,-170.1 1089.87,-173.21 1115.08,-175.92"/>
<polygon fill="#63b8ff" stroke="#63b8ff" points="1114.95,-179.43 1125.27,-177.02 1115.7,-172.47 1114.95,-179.43"/>
</a>
</g>
</g>
<!-- Node15 -->
<g id="Node000015" class="node">
<title>Node15</title>
<g id="a_Node000015"><a xlink:href="namespacecam_1_1ops.html#ab55fb8ec9a00e021e8e4a1c3ecc97cb4" target="_top" xlink:title=" ">
<polygon fill="white" stroke="#666666" points="1261,-126.5 1103,-126.5 1103,-107.5 1261,-107.5 1261,-126.5"/>
<text text-anchor="middle" x="1182" y="-114.5" font-family="Helvetica,sans-Serif" font-size="10.00">cam.ops.getChainOperations</text>
</a>
</g>
</g>
<!-- Node14&#45;&gt;Node15 -->
<g id="edge20_Node000014_Node000015" class="edge">
<title>Node14&#45;&gt;Node15</title>
<g id="a_edge20_Node000014_Node000015"><a xlink:title=" ">
<path fill="none" stroke="#63b8ff" d="M1034.73,-144.49C1062.81,-139.21 1094.12,-133.33 1120.54,-128.36"/>
<polygon fill="#63b8ff" stroke="#63b8ff" points="1121.23,-131.79 1130.41,-126.51 1119.94,-124.91 1121.23,-131.79"/>
</a>
</g>
</g>
<!-- Node17&#45;&gt;Node15 -->
<g id="edge23_Node000017_Node000015" class="edge">
<title>Node17&#45;&gt;Node15</title>
<g id="a_edge23_Node000017_Node000015"><a xlink:title=" ">
<path fill="none" stroke="#63b8ff" d="M1028.28,-78.06C1041.19,-80.94 1054.51,-83.99 1067,-87 1089.91,-92.52 1115.28,-99.15 1136.25,-104.77"/>
<polygon fill="#63b8ff" stroke="#63b8ff" points="1135.6,-108.21 1146.17,-107.43 1137.42,-101.45 1135.6,-108.21"/>
</a>
</g>
</g>
<!-- Node19&#45;&gt;Node9 -->
<g id="edge26_Node000019_Node000009" class="edge">
<title>Node19&#45;&gt;Node9</title>
<g id="a_edge26_Node000019_Node000009"><a xlink:title=" ">
<path fill="none" stroke="#63b8ff" d="M391.75,-121.29C407.84,-122.87 425.03,-124.55 441.65,-126.18"/>
<polygon fill="#63b8ff" stroke="#63b8ff" points="441.62,-129.7 451.92,-127.19 442.3,-122.73 441.62,-129.7"/>
</a>
</g>
</g>
</g>
</svg>

<g id="navigator" transform="translate(0 0)" fill="#404254">
  <rect fill="#f2f5e9" fill-opacity="0.5" stroke="#606060" stroke-width=".5" x="0" y="0" width="60" height="60"/>
  <use id="zoomplus" xlink:href="#zoomPlus" x="17" y="9" onmousedown="handleZoom(evt,'in')"/>
  <use id="zoomminus" xlink:href="#zoomMin" x="42" y="9" onmousedown="handleZoom(evt,'out')"/>
  <use id="reset" xlink:href="#resetDef" x="30" y="36" onmousedown="handleReset()"/>
   <use id="arrowup" xlink:href="#arrowUp" x="0" y="0" onmousedown="handlePan(0,-1)"/>
  <use id="arrowright" xlink:href="#arrowRight" x="0" y="0" onmousedown="handlePan(1,0)"/>
  <use id="arrowdown" xlink:href="#arrowDown" x="0" y="0" onmousedown="handlePan(0,1)"/>
  <use id="arrowleft" xlink:href="#arrowLeft" x="0" y="0" onmousedown="handlePan(-1,0)"/>
</g>
<svg viewBox="0 0 15 15" width="100%" height="30px" preserveAspectRatio="xMaxYMin meet">
 <g id="arrow_out" transform="scale(0.3 0.3)">
  <a xlink:href="classcam_1_1nc_1_1shopbot__mtc_1_1Creator_ac0e16a54513308eba0a390bb80518db7_cgraph_org.svg" target="_base">
   <rect id="button" ry="5" rx="5" y="6" x="6" height="38" width="38"
        fill="#f2f5e9" fill-opacity="0.5" stroke="#606060" stroke-width="1.0"/>
   <path id="arrow"
     d="M 11.500037,31.436501 C 11.940474,20.09759 22.043105,11.32322 32.158766,21.979434 L 37.068811,17.246167 C 37.068811,17.246167 37.088388,32 37.088388,32 L 22.160133,31.978069 C 22.160133,31.978069 26.997745,27.140456 26.997745,27.140456 C 18.528582,18.264221 13.291696,25.230495 11.500037,31.436501 z"
     style="fill:#404040;"/>
  </a>
 </g>
</svg>

<style type='text/css'>
<![CDATA[
[data-mouse-over-selected='false'] { opacity: 0.7; }
[data-mouse-over-selected='true']  { opacity: 1.0; }
]]>
</style>
<script type="application/ecmascript"><![CDATA[
document.addEventListener('DOMContentLoaded', (event) => {
  highlightEdges();
  highlightAdjacentNodes();
});
]]></script>
</svg>
