<?xml version="1.0" encoding="UTF-8" standalone="no"?>
<!DOCTYPE svg PUBLIC "-//W3C//DTD SVG 1.1//EN"
 "http://www.w3.org/Graphics/SVG/1.1/DTD/svg11.dtd">
<!-- Generated by graphviz version 2.43.0 (0)
 -->
<!-- Title: cam.ui_panels.info.CAM_INFO_Panel Pages: 1 -->
<!--zoomable 509 -->

<svg id="main" version="1.1" xmlns="http://www.w3.org/2000/svg" xmlns:xlink="http://www.w3.org/1999/xlink" xml:space="preserve" onload="init(evt)">
<style type="text/css"><![CDATA[
.node, .edge {opacity: 0.7;}
.node.selected, .edge.selected {opacity: 1;}
.edge:hover path { stroke: red; }
.edge:hover polygon { stroke: red; fill: red; }
]]></style>

<defs>
  <circle id="rim" cx="0" cy="0" r="7"/>
  <circle id="rim2" cx="0" cy="0" r="3.5"/>
  <g id="zoomPlus">
    <use xlink:href="#rim" fill="#404040"><set attributeName="fill" to="#808080" begin="zoomplus.mouseover" end="zoomplus.mouseout"/></use>
    <path d="M-4,0h8M0,-4v8" fill="none" stroke="white" stroke-width="1.5" pointer-events="none"/>
  </g>
  <g id="zoomMin">
    <use xlink:href="#rim" fill="#404040"><set attributeName="fill" to="#808080" begin="zoomminus.mouseover" end="zoomminus.mouseout"/></use>
    <path d="M-4,0h8" fill="none" stroke="white" stroke-width="1.5" pointer-events="none"/>
  </g>
  <g id="arrowUp" transform="translate(30 24)">
    <use xlink:href="#rim"/>
    <path pointer-events="none" fill="none" stroke="white" stroke-width="1.5" d="M0,-3.0v7 M-2.5,-0.5L0,-3.0L2.5,-0.5"/>
  </g>
  <g id="arrowRight" transform="rotate(90) translate(36 -43)">
    <use xlink:href="#rim"/>
    <path pointer-events="none" fill="none" stroke="white" stroke-width="1.5" d="M0,-3.0v7 M-2.5,-0.5L0,-3.0L2.5,-0.5"/>
  </g>
  <g id="arrowDown" transform="rotate(180) translate(-30 -48)">
    <use xlink:href="#rim"/>
    <path pointer-events="none" fill="none" stroke="white" stroke-width="1.5" d="M0,-3.0v7 M-2.5,-0.5L0,-3.0L2.5,-0.5"/>
  </g>
  <g id="arrowLeft" transform="rotate(270) translate(-36 17)">
    <use xlink:href="#rim"/>
    <path pointer-events="none" fill="none" stroke="white" stroke-width="1.5" d="M0,-3.0v7 M-2.5,-0.5L0,-3.0L2.5,-0.5"/>
  </g>
  <g id="resetDef">
    <use xlink:href="#rim2" fill="#404040"><set attributeName="fill" to="#808080" begin="reset.mouseover" end="reset.mouseout"/></use>
  </g>
</defs>
<script type="application/ecmascript">
var viewWidth = 212;
var viewHeight = 509;
var sectionId = 'dynsection-0';
</script>
<script type="application/ecmascript" xlink:href="svg.min.js"/>
<svg id="graph" class="graph">
<g id="viewport">
<title>cam.ui_panels.info.CAM_INFO_Panel</title>
<!-- Node1 -->
<g id="Node000001" class="node">
<title>Node1</title>
<g id="a_Node000001"><a xlink:title=" ">
<polygon fill="#999999" stroke="transparent" points="204,-225 47,-225 47,0 204,0 204,-225"/>
<text text-anchor="start" x="67" y="-212.5" font-family="Helvetica,sans-Serif" font-size="10.00">cam.ui_panels.info.CAM</text>
<text text-anchor="start" x="95.5" y="-201.5" font-family="Helvetica,sans-Serif" font-size="10.00">_INFO_Panel</text>
<text text-anchor="start" x="51.5" y="-186.5" font-family="Helvetica,sans-Serif" font-size="10.00">+</text>
<text text-anchor="start" x="64.5" y="-186.5" font-family="Helvetica,sans-Serif" font-size="10.00">context</text>
<text text-anchor="start" x="51.5" y="-171.5" font-family="Helvetica,sans-Serif" font-size="10.00">+</text>
<text text-anchor="start" x="64.5" y="-171.5" font-family="Helvetica,sans-Serif" font-size="10.00">bl_label</text>
<text text-anchor="start" x="51.5" y="-156.5" font-family="Helvetica,sans-Serif" font-size="10.00">+</text>
<text text-anchor="start" x="64.5" y="-156.5" font-family="Helvetica,sans-Serif" font-size="10.00">bl_idname</text>
<text text-anchor="start" x="51.5" y="-141.5" font-family="Helvetica,sans-Serif" font-size="10.00">+</text>
<text text-anchor="start" x="64.5" y="-141.5" font-family="Helvetica,sans-Serif" font-size="10.00">panel_interface_level</text>
<text text-anchor="start" x="51.5" y="-126.5" font-family="Helvetica,sans-Serif" font-size="10.00">+</text>
<text text-anchor="start" x="64.5" y="-126.5" font-family="Helvetica,sans-Serif" font-size="10.00">always_show_panel</text>
<text text-anchor="start" x="51.5" y="-111.5" font-family="Helvetica,sans-Serif" font-size="10.00">+</text>
<text text-anchor="start" x="64.5" y="-111.5" font-family="Helvetica,sans-Serif" font-size="10.00">prop_level</text>
<text text-anchor="start" x="51.5" y="-96.5" font-family="Helvetica,sans-Serif" font-size="10.00">+</text>
<text text-anchor="start" x="64.5" y="-96.5" font-family="Helvetica,sans-Serif" font-size="10.00">draw_blendercam_version()</text>
<text text-anchor="start" x="51.5" y="-81.5" font-family="Helvetica,sans-Serif" font-size="10.00">+</text>
<text text-anchor="start" x="64.5" y="-81.5" font-family="Helvetica,sans-Serif" font-size="10.00">draw_opencamlib_version()</text>
<text text-anchor="start" x="51.5" y="-66.5" font-family="Helvetica,sans-Serif" font-size="10.00">+</text>
<text text-anchor="start" x="64.5" y="-66.5" font-family="Helvetica,sans-Serif" font-size="10.00">draw_op_warnings()</text>
<text text-anchor="start" x="51.5" y="-51.5" font-family="Helvetica,sans-Serif" font-size="10.00">+</text>
<text text-anchor="start" x="64.5" y="-51.5" font-family="Helvetica,sans-Serif" font-size="10.00">draw_op_time()</text>
<text text-anchor="start" x="51.5" y="-36.5" font-family="Helvetica,sans-Serif" font-size="10.00">+</text>
<text text-anchor="start" x="64.5" y="-36.5" font-family="Helvetica,sans-Serif" font-size="10.00">draw_op_chipload()</text>
<text text-anchor="start" x="51.5" y="-21.5" font-family="Helvetica,sans-Serif" font-size="10.00">+</text>
<text text-anchor="start" x="64.5" y="-21.5" font-family="Helvetica,sans-Serif" font-size="10.00">draw_op_money_cost()</text>
<text text-anchor="start" x="51.5" y="-6.5" font-family="Helvetica,sans-Serif" font-size="10.00">+</text>
<text text-anchor="start" x="64.5" y="-6.5" font-family="Helvetica,sans-Serif" font-size="10.00">draw()</text>
<polygon fill="#666666" stroke="#666666" points="47.5,-196.5 47.5,-196.5 204.5,-196.5 204.5,-196.5 47.5,-196.5"/>
<polygon fill="#666666" stroke="#666666" points="47.5,-106.5 47.5,-106.5 62.5,-106.5 62.5,-106.5 47.5,-106.5"/>
<polygon fill="#666666" stroke="#666666" points="62.5,-106.5 62.5,-106.5 204.5,-106.5 204.5,-106.5 62.5,-106.5"/>
<polygon fill="none" stroke="#666666" points="47,0 47,-225 204,-225 204,0 47,0"/>
</a>
</g>
</g>
<!-- Node2 -->
<g id="Node000002" class="node">
<title>Node2</title>
<g id="a_Node000002"><a xlink:href="classcam_1_1ui__panels_1_1buttons__panel_1_1CAMButtonsPanel.html" target="_top" xlink:title=" ">
<polygon fill="white" stroke="transparent" points="143,-501 0,-501 0,-261 143,-261 143,-501"/>
<text text-anchor="start" x="11" y="-489" font-family="Helvetica,sans-Serif" font-size="10.00">cam.ui_panels.buttons</text>
<text text-anchor="start" x="11" y="-478" font-family="Helvetica,sans-Serif" font-size="10.00">_panel.CAMButtonsPanel</text>
<text text-anchor="start" x="4.5" y="-463" font-family="Helvetica,sans-Serif" font-size="10.00">+</text>
<text text-anchor="start" x="17.5" y="-463" font-family="Helvetica,sans-Serif" font-size="10.00">op</text>
<text text-anchor="start" x="4.5" y="-448" font-family="Helvetica,sans-Serif" font-size="10.00">+</text>
<text text-anchor="start" x="17.5" y="-448" font-family="Helvetica,sans-Serif" font-size="10.00">use_experimental</text>
<text text-anchor="start" x="4.5" y="-433" font-family="Helvetica,sans-Serif" font-size="10.00">+</text>
<text text-anchor="start" x="17.5" y="-433" font-family="Helvetica,sans-Serif" font-size="10.00">bl_space_type</text>
<text text-anchor="start" x="4.5" y="-418" font-family="Helvetica,sans-Serif" font-size="10.00">+</text>
<text text-anchor="start" x="17.5" y="-418" font-family="Helvetica,sans-Serif" font-size="10.00">bl_region_type</text>
<text text-anchor="start" x="4.5" y="-403" font-family="Helvetica,sans-Serif" font-size="10.00">+</text>
<text text-anchor="start" x="17.5" y="-403" font-family="Helvetica,sans-Serif" font-size="10.00">bl_context</text>
<text text-anchor="start" x="4.5" y="-388" font-family="Helvetica,sans-Serif" font-size="10.00">+</text>
<text text-anchor="start" x="17.5" y="-388" font-family="Helvetica,sans-Serif" font-size="10.00">always_show_panel</text>
<text text-anchor="start" x="4.5" y="-373" font-family="Helvetica,sans-Serif" font-size="10.00">+</text>
<text text-anchor="start" x="17.5" y="-373" font-family="Helvetica,sans-Serif" font-size="10.00">COMPAT_ENGINES</text>
<text text-anchor="start" x="4.5" y="-358" font-family="Helvetica,sans-Serif" font-size="10.00">+</text>
<text text-anchor="start" x="17.5" y="-358" font-family="Helvetica,sans-Serif" font-size="10.00">poll()</text>
<text text-anchor="start" x="4.5" y="-343" font-family="Helvetica,sans-Serif" font-size="10.00">+</text>
<text text-anchor="start" x="17.5" y="-343" font-family="Helvetica,sans-Serif" font-size="10.00">active_operation_index()</text>
<text text-anchor="start" x="4.5" y="-328" font-family="Helvetica,sans-Serif" font-size="10.00">+</text>
<text text-anchor="start" x="17.5" y="-328" font-family="Helvetica,sans-Serif" font-size="10.00">active_operation()</text>
<text text-anchor="start" x="4.5" y="-313" font-family="Helvetica,sans-Serif" font-size="10.00">+</text>
<text text-anchor="start" x="17.5" y="-313" font-family="Helvetica,sans-Serif" font-size="10.00">__init__()</text>
<text text-anchor="start" x="4.5" y="-298" font-family="Helvetica,sans-Serif" font-size="10.00">+</text>
<text text-anchor="start" x="17.5" y="-298" font-family="Helvetica,sans-Serif" font-size="10.00">operations_count()</text>
<text text-anchor="start" x="4.5" y="-283" font-family="Helvetica,sans-Serif" font-size="10.00">+</text>
<text text-anchor="start" x="17.5" y="-283" font-family="Helvetica,sans-Serif" font-size="10.00">has_operations()</text>
<text text-anchor="start" x="4.5" y="-268" font-family="Helvetica,sans-Serif" font-size="10.00">+</text>
<text text-anchor="start" x="17.5" y="-268" font-family="Helvetica,sans-Serif" font-size="10.00">has_correct_level()</text>
<polygon fill="#666666" stroke="#666666" points="0.5,-473 0.5,-473 143.5,-473 143.5,-473 0.5,-473"/>
<polygon fill="#666666" stroke="#666666" points="0.5,-368 0.5,-368 15.5,-368 15.5,-368 0.5,-368"/>
<polygon fill="#666666" stroke="#666666" points="15.5,-368 15.5,-368 143.5,-368 143.5,-368 15.5,-368"/>
<polygon fill="none" stroke="#666666" points="0,-261 0,-501 143,-501 143,-261 0,-261"/>
</a>
</g>
</g>
<!-- Node2&#45;&gt;Node1 -->
<g id="edge1_Node000001_Node000002" class="edge">
<title>Node2&#45;&gt;Node1</title>
<g id="a_edge1_Node000001_Node000002"><a xlink:title=" ">
<path fill="none" stroke="#63b8ff" d="M97.68,-250.81C99.4,-242.31 101.13,-233.78 102.83,-225.37"/>
<polygon fill="none" stroke="#63b8ff" points="94.21,-250.28 95.66,-260.78 101.07,-251.67 94.21,-250.28"/>
</a>
</g>
</g>
<!-- Node3 -->
<g id="Node000003" class="node">
<title>Node3</title>
<g id="a_Node000003"><a xlink:title=" ">
<polygon fill="white" stroke="transparent" points="198,-405.5 161,-405.5 161,-356.5 198,-356.5 198,-405.5"/>
<text text-anchor="start" x="166.5" y="-393" font-family="Helvetica,sans-Serif" font-size="10.00">Panel</text>
<text text-anchor="start" x="178" y="-378" font-family="Helvetica,sans-Serif" font-size="10.00"> </text>
<text text-anchor="start" x="178" y="-363" font-family="Helvetica,sans-Serif" font-size="10.00"> </text>
<polygon fill="#666666" stroke="#666666" points="161.5,-388 161.5,-388 198.5,-388 198.5,-388 161.5,-388"/>
<polygon fill="#666666" stroke="#666666" points="161.5,-373 161.5,-373 198.5,-373 198.5,-373 161.5,-373"/>
<polygon fill="none" stroke="#666666" points="161,-356.5 161,-405.5 198,-405.5 198,-356.5 161,-356.5"/>
</a>
</g>
</g>
<!-- Node3&#45;&gt;Node1 -->
<g id="edge2_Node000001_Node000003" class="edge">
<title>Node3&#45;&gt;Node1</title>
<g id="a_edge2_Node000001_Node000003"><a xlink:title=" ">
<path fill="none" stroke="#63b8ff" d="M172.66,-346.24C166.46,-315.64 156.97,-268.79 148.12,-225.12"/>
<polygon fill="none" stroke="#63b8ff" points="169.29,-347.24 174.71,-356.35 176.15,-345.85 169.29,-347.24"/>
</a>
</g>
</g>
</g>
</svg>

<g id="navigator" transform="translate(0 0)" fill="#404254">
  <rect fill="#f2f5e9" fill-opacity="0.5" stroke="#606060" stroke-width=".5" x="0" y="0" width="60" height="60"/>
  <use id="zoomplus" xlink:href="#zoomPlus" x="17" y="9" onmousedown="handleZoom(evt,'in')"/>
  <use id="zoomminus" xlink:href="#zoomMin" x="42" y="9" onmousedown="handleZoom(evt,'out')"/>
  <use id="reset" xlink:href="#resetDef" x="30" y="36" onmousedown="handleReset()"/>
   <use id="arrowup" xlink:href="#arrowUp" x="0" y="0" onmousedown="handlePan(0,-1)"/>
  <use id="arrowright" xlink:href="#arrowRight" x="0" y="0" onmousedown="handlePan(1,0)"/>
  <use id="arrowdown" xlink:href="#arrowDown" x="0" y="0" onmousedown="handlePan(0,1)"/>
  <use id="arrowleft" xlink:href="#arrowLeft" x="0" y="0" onmousedown="handlePan(-1,0)"/>
</g>
<svg viewBox="0 0 15 15" width="100%" height="30px" preserveAspectRatio="xMaxYMin meet">
 <g id="arrow_out" transform="scale(0.3 0.3)">
  <a xlink:href="classcam_1_1ui__panels_1_1info_1_1CAM__INFO__Panel__inherit__graph_org.svg" target="_base">
   <rect id="button" ry="5" rx="5" y="6" x="6" height="38" width="38"
        fill="#f2f5e9" fill-opacity="0.5" stroke="#606060" stroke-width="1.0"/>
   <path id="arrow"
     d="M 11.500037,31.436501 C 11.940474,20.09759 22.043105,11.32322 32.158766,21.979434 L 37.068811,17.246167 C 37.068811,17.246167 37.088388,32 37.088388,32 L 22.160133,31.978069 C 22.160133,31.978069 26.997745,27.140456 26.997745,27.140456 C 18.528582,18.264221 13.291696,25.230495 11.500037,31.436501 z"
     style="fill:#404040;"/>
  </a>
 </g>
</svg>

<style type='text/css'>
<![CDATA[
[data-mouse-over-selected='false'] { opacity: 0.7; }
[data-mouse-over-selected='true']  { opacity: 1.0; }
]]>
</style>
<script type="application/ecmascript"><![CDATA[
document.addEventListener('DOMContentLoaded', (event) => {
  highlightEdges();
  highlightAdjacentNodes();
});
]]></script>
</svg>
