<?xml version="1.0" encoding="UTF-8" standalone="no"?>
<!DOCTYPE svg PUBLIC "-//W3C//DTD SVG 1.1//EN"
 "http://www.w3.org/Graphics/SVG/1.1/DTD/svg11.dtd">
<!-- Generated by graphviz version 2.43.0 (0)
 -->
<!-- Title: cam.nc.rez2.Creator Pages: 1 -->
<svg width="117pt" height="622pt"
 viewBox="0.00 0.00 117.00 622.00" xmlns="http://www.w3.org/2000/svg" xmlns:xlink="http://www.w3.org/1999/xlink">
<g id="graph0" class="graph" transform="scale(1 1) rotate(0) translate(4 618)">
<title>cam.nc.rez2.Creator</title>
<!-- Node1 -->
<g id="Node000001" class="node">
<title>Node1</title>
<g id="a_Node000001"><a xlink:title=" ">
<polygon fill="#999999" stroke="transparent" points="109,-364 0,-364 0,0 109,0 109,-364"/>
<text text-anchor="start" x="5.5" y="-352" font-family="Helvetica,sans-Serif" font-size="10.00">cam.nc.rez2.Creator</text>
<text text-anchor="start" x="5" y="-337" font-family="Helvetica,sans-Serif" font-size="10.00">+</text>
<text text-anchor="start" x="18.5" y="-337" font-family="Helvetica,sans-Serif" font-size="10.00">a</text>
<text text-anchor="start" x="5" y="-322" font-family="Helvetica,sans-Serif" font-size="10.00">+</text>
<text text-anchor="start" x="18.5" y="-322" font-family="Helvetica,sans-Serif" font-size="10.00">b</text>
<text text-anchor="start" x="5" y="-307" font-family="Helvetica,sans-Serif" font-size="10.00">+</text>
<text text-anchor="start" x="18.5" y="-307" font-family="Helvetica,sans-Serif" font-size="10.00">c</text>
<text text-anchor="start" x="5" y="-292" font-family="Helvetica,sans-Serif" font-size="10.00">+</text>
<text text-anchor="start" x="18.5" y="-292" font-family="Helvetica,sans-Serif" font-size="10.00">f</text>
<text text-anchor="start" x="5" y="-277" font-family="Helvetica,sans-Serif" font-size="10.00">+</text>
<text text-anchor="start" x="18.5" y="-277" font-family="Helvetica,sans-Serif" font-size="10.00">fh</text>
<text text-anchor="start" x="5" y="-262" font-family="Helvetica,sans-Serif" font-size="10.00">+</text>
<text text-anchor="start" x="18.5" y="-262" font-family="Helvetica,sans-Serif" font-size="10.00">fv</text>
<text text-anchor="start" x="5" y="-247" font-family="Helvetica,sans-Serif" font-size="10.00">+</text>
<text text-anchor="start" x="18.5" y="-247" font-family="Helvetica,sans-Serif" font-size="10.00">fhv</text>
<text text-anchor="start" x="5" y="-232" font-family="Helvetica,sans-Serif" font-size="10.00">+</text>
<text text-anchor="start" x="18.5" y="-232" font-family="Helvetica,sans-Serif" font-size="10.00">g</text>
<text text-anchor="start" x="5" y="-217" font-family="Helvetica,sans-Serif" font-size="10.00">+</text>
<text text-anchor="start" x="18.5" y="-217" font-family="Helvetica,sans-Serif" font-size="10.00">i</text>
<text text-anchor="start" x="5" y="-202" font-family="Helvetica,sans-Serif" font-size="10.00">+</text>
<text text-anchor="start" x="18.5" y="-202" font-family="Helvetica,sans-Serif" font-size="10.00">j</text>
<text text-anchor="start" x="18.5" y="-187" font-family="Helvetica,sans-Serif" font-size="10.00">and 16 more...</text>
<text text-anchor="start" x="5" y="-172" font-family="Helvetica,sans-Serif" font-size="10.00">+</text>
<text text-anchor="start" x="18.5" y="-172" font-family="Helvetica,sans-Serif" font-size="10.00">creator</text>
<text text-anchor="start" x="5" y="-157" font-family="Helvetica,sans-Serif" font-size="10.00">+</text>
<text text-anchor="start" x="18.5" y="-157" font-family="Helvetica,sans-Serif" font-size="10.00">__init__()</text>
<text text-anchor="start" x="5" y="-142" font-family="Helvetica,sans-Serif" font-size="10.00">+</text>
<text text-anchor="start" x="18.5" y="-142" font-family="Helvetica,sans-Serif" font-size="10.00">FORMAT_IN()</text>
<text text-anchor="start" x="5" y="-127" font-family="Helvetica,sans-Serif" font-size="10.00">+</text>
<text text-anchor="start" x="18.5" y="-127" font-family="Helvetica,sans-Serif" font-size="10.00">FORMAT_MM()</text>
<text text-anchor="start" x="5" y="-112" font-family="Helvetica,sans-Serif" font-size="10.00">+</text>
<text text-anchor="start" x="18.5" y="-112" font-family="Helvetica,sans-Serif" font-size="10.00">COMMENT()</text>
<text text-anchor="start" x="5" y="-97" font-family="Helvetica,sans-Serif" font-size="10.00">+</text>
<text text-anchor="start" x="18.5" y="-97" font-family="Helvetica,sans-Serif" font-size="10.00">write_feedrate()</text>
<text text-anchor="start" x="5" y="-82" font-family="Helvetica,sans-Serif" font-size="10.00">+</text>
<text text-anchor="start" x="18.5" y="-82" font-family="Helvetica,sans-Serif" font-size="10.00">write_preps()</text>
<text text-anchor="start" x="5" y="-67" font-family="Helvetica,sans-Serif" font-size="10.00">+</text>
<text text-anchor="start" x="18.5" y="-67" font-family="Helvetica,sans-Serif" font-size="10.00">write_misc()</text>
<text text-anchor="start" x="5" y="-52" font-family="Helvetica,sans-Serif" font-size="10.00">+</text>
<text text-anchor="start" x="18.5" y="-52" font-family="Helvetica,sans-Serif" font-size="10.00">write_blocknum()</text>
<text text-anchor="start" x="5" y="-37" font-family="Helvetica,sans-Serif" font-size="10.00">+</text>
<text text-anchor="start" x="18.5" y="-37" font-family="Helvetica,sans-Serif" font-size="10.00">write_spindle()</text>
<text text-anchor="start" x="5" y="-22" font-family="Helvetica,sans-Serif" font-size="10.00">+</text>
<text text-anchor="start" x="18.5" y="-22" font-family="Helvetica,sans-Serif" font-size="10.00">program_begin()</text>
<text text-anchor="start" x="18.5" y="-7" font-family="Helvetica,sans-Serif" font-size="10.00">and 44 more...</text>
<polygon fill="#666666" stroke="#666666" points="0.5,-347 0.5,-347 109.5,-347 109.5,-347 0.5,-347"/>
<polygon fill="#666666" stroke="#666666" points="0.5,-167 0.5,-167 16.5,-167 16.5,-167 0.5,-167"/>
<polygon fill="#666666" stroke="#666666" points="16.5,-167 16.5,-167 109.5,-167 109.5,-167 16.5,-167"/>
<polygon fill="none" stroke="#666666" points="0,0 0,-364 109,-364 109,0 0,0"/>
</a>
</g>
</g>
<!-- Node2 -->
<g id="Node000002" class="node">
<title>Node2</title>
<g id="a_Node000002"><a xlink:href="classcam_1_1nc_1_1nc_1_1Creator.html" target="_top" xlink:title=" ">
<polygon fill="white" stroke="transparent" points="106,-614 3,-614 3,-400 106,-400 106,-614"/>
<text text-anchor="start" x="10.5" y="-602" font-family="Helvetica,sans-Serif" font-size="10.00">cam.nc.nc.Creator</text>
<text text-anchor="start" x="7.5" y="-587" font-family="Helvetica,sans-Serif" font-size="10.00">+</text>
<text text-anchor="start" x="20.5" y="-587" font-family="Helvetica,sans-Serif" font-size="10.00">file</text>
<text text-anchor="start" x="7.5" y="-572" font-family="Helvetica,sans-Serif" font-size="10.00">+</text>
<text text-anchor="start" x="20.5" y="-572" font-family="Helvetica,sans-Serif" font-size="10.00">filename</text>
<text text-anchor="start" x="7.5" y="-557" font-family="Helvetica,sans-Serif" font-size="10.00">+</text>
<text text-anchor="start" x="20.5" y="-557" font-family="Helvetica,sans-Serif" font-size="10.00">__init__()</text>
<text text-anchor="start" x="7.5" y="-542" font-family="Helvetica,sans-Serif" font-size="10.00">+</text>
<text text-anchor="start" x="20.5" y="-542" font-family="Helvetica,sans-Serif" font-size="10.00">file_open()</text>
<text text-anchor="start" x="7.5" y="-527" font-family="Helvetica,sans-Serif" font-size="10.00">+</text>
<text text-anchor="start" x="20.5" y="-527" font-family="Helvetica,sans-Serif" font-size="10.00">file_close()</text>
<text text-anchor="start" x="7.5" y="-512" font-family="Helvetica,sans-Serif" font-size="10.00">+</text>
<text text-anchor="start" x="20.5" y="-512" font-family="Helvetica,sans-Serif" font-size="10.00">write()</text>
<text text-anchor="start" x="7.5" y="-497" font-family="Helvetica,sans-Serif" font-size="10.00">+</text>
<text text-anchor="start" x="20.5" y="-497" font-family="Helvetica,sans-Serif" font-size="10.00">writem()</text>
<text text-anchor="start" x="7.5" y="-482" font-family="Helvetica,sans-Serif" font-size="10.00">+</text>
<text text-anchor="start" x="20.5" y="-482" font-family="Helvetica,sans-Serif" font-size="10.00">program_begin()</text>
<text text-anchor="start" x="7.5" y="-467" font-family="Helvetica,sans-Serif" font-size="10.00">+</text>
<text text-anchor="start" x="20.5" y="-467" font-family="Helvetica,sans-Serif" font-size="10.00">add_stock()</text>
<text text-anchor="start" x="7.5" y="-452" font-family="Helvetica,sans-Serif" font-size="10.00">+</text>
<text text-anchor="start" x="20.5" y="-452" font-family="Helvetica,sans-Serif" font-size="10.00">program_stop()</text>
<text text-anchor="start" x="7.5" y="-437" font-family="Helvetica,sans-Serif" font-size="10.00">+</text>
<text text-anchor="start" x="20.5" y="-437" font-family="Helvetica,sans-Serif" font-size="10.00">program_end()</text>
<text text-anchor="start" x="7.5" y="-422" font-family="Helvetica,sans-Serif" font-size="10.00">+</text>
<text text-anchor="start" x="20.5" y="-422" font-family="Helvetica,sans-Serif" font-size="10.00">flush_nc()</text>
<text text-anchor="start" x="20.5" y="-407" font-family="Helvetica,sans-Serif" font-size="10.00">and 77 more...</text>
<polygon fill="#666666" stroke="#666666" points="3.5,-597 3.5,-597 106.5,-597 106.5,-597 3.5,-597"/>
<polygon fill="#666666" stroke="#666666" points="3.5,-567 3.5,-567 18.5,-567 18.5,-567 3.5,-567"/>
<polygon fill="#666666" stroke="#666666" points="18.5,-567 18.5,-567 106.5,-567 106.5,-567 18.5,-567"/>
<polygon fill="none" stroke="#666666" points="3,-400 3,-614 106,-614 106,-400 3,-400"/>
</a>
</g>
</g>
<!-- Node2&#45;&gt;Node1 -->
<g id="edge1_Node000001_Node000002" class="edge">
<title>Node2&#45;&gt;Node1</title>
<g id="a_edge1_Node000001_Node000002"><a xlink:title=" ">
<path fill="none" stroke="#63b8ff" d="M54.5,-389.64C54.5,-381.25 54.5,-372.67 54.5,-364.03"/>
<polygon fill="none" stroke="#63b8ff" points="51,-389.79 54.5,-399.79 58,-389.79 51,-389.79"/>
</a>
</g>
</g>
</g>
</svg>
