<?xml version="1.0" encoding="UTF-8" standalone="no"?>
<!DOCTYPE svg PUBLIC "-//W3C//DTD SVG 1.1//EN"
 "http://www.w3.org/Graphics/SVG/1.1/DTD/svg11.dtd">
<!-- Generated by graphviz version 2.43.0 (0)
 -->
<!-- Title: cam.nc.nc.Creator.rapid Pages: 1 -->
<svg width="565pt" height="379pt"
 viewBox="0.00 0.00 565.00 379.00" xmlns="http://www.w3.org/2000/svg" xmlns:xlink="http://www.w3.org/1999/xlink">
<g id="graph0" class="graph" transform="scale(1 1) rotate(0) translate(4 375)">
<title>cam.nc.nc.Creator.rapid</title>
<!-- Node1 -->
<g id="Node000001" class="node">
<title>Node1</title>
<g id="a_Node000001"><a xlink:title="Moves.">
<polygon fill="#999999" stroke="#666666" points="557,-195 425,-195 425,-176 557,-176 557,-195"/>
<text text-anchor="middle" x="491" y="-183" font-family="Helvetica,sans-Serif" font-size="10.00">cam.nc.nc.Creator.rapid</text>
</a>
</g>
</g>
<!-- Node2 -->
<g id="Node000002" class="node">
<title>Node2</title>
<g id="a_Node000002"><a xlink:href="classcam_1_1nc_1_1heiden_1_1Creator.html#ab1ba24f0b927edab5d70c6642ceacfc4" target="_top" xlink:title=" ">
<polygon fill="white" stroke="#666666" points="363.5,-371 215.5,-371 215.5,-352 363.5,-352 363.5,-371"/>
<text text-anchor="middle" x="289.5" y="-359" font-family="Helvetica,sans-Serif" font-size="10.00">cam.nc.heiden.Creator.drill</text>
</a>
</g>
</g>
<!-- Node1&#45;&gt;Node2 -->
<g id="edge1_Node000001_Node000002" class="edge">
<title>Node1&#45;&gt;Node2</title>
<g id="a_edge1_Node000001_Node000002"><a xlink:title=" ">
<path fill="none" stroke="#63b8ff" d="M483.46,-204.99C470.95,-239.06 440.21,-309.11 389,-343.5 381.35,-348.64 372.65,-352.42 363.65,-355.18"/>
<polygon fill="#63b8ff" stroke="#63b8ff" points="486.86,-205.87 486.89,-195.28 480.26,-203.54 486.86,-205.87"/>
</a>
</g>
</g>
<!-- Node4 -->
<g id="Node000004" class="node">
<title>Node4</title>
<g id="a_Node000004"><a xlink:href="classcam_1_1nc_1_1iso_1_1Creator.html#a61f29267aaaddc3d5c8471f9bf714cb3" target="_top" xlink:title=" ">
<polygon fill="white" stroke="#666666" points="354,-334 225,-334 225,-315 354,-315 354,-334"/>
<text text-anchor="middle" x="289.5" y="-322" font-family="Helvetica,sans-Serif" font-size="10.00">cam.nc.iso.Creator.drill</text>
</a>
</g>
</g>
<!-- Node1&#45;&gt;Node4 -->
<g id="edge3_Node000001_Node000004" class="edge">
<title>Node1&#45;&gt;Node4</title>
<g id="a_edge3_Node000001_Node000004"><a xlink:title=" ">
<path fill="none" stroke="#63b8ff" d="M479.96,-204.03C464.32,-231 431.46,-280.58 389,-305.5 378.41,-311.72 366.18,-315.95 354.03,-318.82"/>
<polygon fill="#63b8ff" stroke="#63b8ff" points="483.08,-205.63 484.94,-195.2 476.98,-202.2 483.08,-205.63"/>
</a>
</g>
</g>
<!-- Node5 -->
<g id="Node000005" class="node">
<title>Node5</title>
<g id="a_Node000005"><a xlink:href="classcam_1_1nc_1_1heiden__read_1_1Parser.html#a9c64dcddf3c2c0d3248079dde5314cfe" target="_top" xlink:title=" ">
<polygon fill="white" stroke="#666666" points="364.5,-296.5 214.5,-296.5 214.5,-266.5 364.5,-266.5 364.5,-296.5"/>
<text text-anchor="start" x="222.5" y="-284.5" font-family="Helvetica,sans-Serif" font-size="10.00">cam.nc.heiden_read.Parser.</text>
<text text-anchor="middle" x="289.5" y="-273.5" font-family="Helvetica,sans-Serif" font-size="10.00">Parsey</text>
</a>
</g>
</g>
<!-- Node1&#45;&gt;Node5 -->
<g id="edge5_Node000001_Node000005" class="edge">
<title>Node1&#45;&gt;Node5</title>
<g id="a_edge5_Node000001_Node000005"><a xlink:title=" ">
<path fill="none" stroke="#63b8ff" d="M471.68,-201.88C452.41,-218.27 420.56,-243.06 389,-257.5 381.32,-261.02 373.05,-264.06 364.7,-266.68"/>
<polygon fill="#63b8ff" stroke="#63b8ff" points="474.1,-204.41 479.36,-195.22 469.51,-199.12 474.1,-204.41"/>
</a>
</g>
</g>
<!-- Node6 -->
<g id="Node000006" class="node">
<title>Node6</title>
<g id="a_Node000006"><a xlink:href="classcam_1_1nc_1_1heiden_1_1Creator.html#ae8e86bcc6f05521bf4b639128e3241ee" target="_top" xlink:title=" ">
<polygon fill="white" stroke="#666666" points="368,-248.5 211,-248.5 211,-218.5 368,-218.5 368,-248.5"/>
<text text-anchor="start" x="219" y="-236.5" font-family="Helvetica,sans-Serif" font-size="10.00">cam.nc.heiden.Creator.probe</text>
<text text-anchor="middle" x="289.5" y="-225.5" font-family="Helvetica,sans-Serif" font-size="10.00">_downward_point</text>
</a>
</g>
</g>
<!-- Node1&#45;&gt;Node6 -->
<g id="edge6_Node000001_Node000006" class="edge">
<title>Node1&#45;&gt;Node6</title>
<g id="a_edge6_Node000001_Node000006"><a xlink:title=" ">
<path fill="none" stroke="#63b8ff" d="M440.32,-197.45C413.93,-203.8 381.22,-211.67 353.11,-218.44"/>
<polygon fill="#63b8ff" stroke="#63b8ff" points="441.2,-200.84 450.11,-195.1 439.57,-194.03 441.2,-200.84"/>
</a>
</g>
</g>
<!-- Node7 -->
<g id="Node000007" class="node">
<title>Node7</title>
<g id="a_Node000007"><a xlink:href="classcam_1_1nc_1_1iso_1_1Creator.html#a40689f45d25f7f726d11a172b608c0a4" target="_top" xlink:title=" ">
<polygon fill="white" stroke="#666666" points="358.5,-200.5 220.5,-200.5 220.5,-170.5 358.5,-170.5 358.5,-200.5"/>
<text text-anchor="start" x="228.5" y="-188.5" font-family="Helvetica,sans-Serif" font-size="10.00">cam.nc.iso.Creator.probe</text>
<text text-anchor="middle" x="289.5" y="-177.5" font-family="Helvetica,sans-Serif" font-size="10.00">_downward_point</text>
</a>
</g>
</g>
<!-- Node1&#45;&gt;Node7 -->
<g id="edge7_Node000001_Node000007" class="edge">
<title>Node1&#45;&gt;Node7</title>
<g id="a_edge7_Node000001_Node000007"><a xlink:title=" ">
<path fill="none" stroke="#63b8ff" d="M414.83,-185.5C396.35,-185.5 376.67,-185.5 358.54,-185.5"/>
<polygon fill="#63b8ff" stroke="#63b8ff" points="414.95,-189 424.95,-185.5 414.95,-182 414.95,-189"/>
</a>
</g>
</g>
<!-- Node8 -->
<g id="Node000008" class="node">
<title>Node8</title>
<g id="a_Node000008"><a xlink:href="classcam_1_1nc_1_1heiden_1_1Creator.html#a921825a14a9068d234377d7ac3b7777f" target="_top" xlink:title=" ">
<polygon fill="white" stroke="#666666" points="368,-152.5 211,-152.5 211,-122.5 368,-122.5 368,-152.5"/>
<text text-anchor="start" x="219" y="-140.5" font-family="Helvetica,sans-Serif" font-size="10.00">cam.nc.heiden.Creator.probe</text>
<text text-anchor="middle" x="289.5" y="-129.5" font-family="Helvetica,sans-Serif" font-size="10.00">_single_point</text>
</a>
</g>
</g>
<!-- Node1&#45;&gt;Node8 -->
<g id="edge8_Node000001_Node000008" class="edge">
<title>Node1&#45;&gt;Node8</title>
<g id="a_edge8_Node000001_Node000008"><a xlink:title=" ">
<path fill="none" stroke="#63b8ff" d="M440.32,-173.55C413.93,-167.2 381.22,-159.33 353.11,-152.56"/>
<polygon fill="#63b8ff" stroke="#63b8ff" points="439.57,-176.97 450.11,-175.9 441.2,-170.16 439.57,-176.97"/>
</a>
</g>
</g>
<!-- Node9 -->
<g id="Node000009" class="node">
<title>Node9</title>
<g id="a_Node000009"><a xlink:href="classcam_1_1nc_1_1iso_1_1Creator.html#adc5343ffd168991077858693d6a79fef" target="_top" xlink:title=" ">
<polygon fill="white" stroke="#666666" points="358.5,-104.5 220.5,-104.5 220.5,-74.5 358.5,-74.5 358.5,-104.5"/>
<text text-anchor="start" x="228.5" y="-92.5" font-family="Helvetica,sans-Serif" font-size="10.00">cam.nc.iso.Creator.probe</text>
<text text-anchor="middle" x="289.5" y="-81.5" font-family="Helvetica,sans-Serif" font-size="10.00">_single_point</text>
</a>
</g>
</g>
<!-- Node1&#45;&gt;Node9 -->
<g id="edge9_Node000001_Node000009" class="edge">
<title>Node1&#45;&gt;Node9</title>
<g id="a_edge9_Node000001_Node000009"><a xlink:title=" ">
<path fill="none" stroke="#63b8ff" d="M471.68,-169.12C452.41,-152.73 420.56,-127.94 389,-113.5 379.48,-109.14 369.06,-105.51 358.68,-102.51"/>
<polygon fill="#63b8ff" stroke="#63b8ff" points="469.51,-171.88 479.36,-175.78 474.1,-166.59 469.51,-171.88"/>
</a>
</g>
</g>
<!-- Node10 -->
<g id="Node000010" class="node">
<title>Node10</title>
<g id="a_Node000010"><a xlink:href="classcam_1_1nc_1_1emc2tap_1_1CreatorEMC2tap.html#ae7c40089d2816698fbe6cfbc9a10a052" target="_top" xlink:title=" ">
<polygon fill="white" stroke="#666666" points="389,-56 190,-56 190,-37 389,-37 389,-56"/>
<text text-anchor="middle" x="289.5" y="-44" font-family="Helvetica,sans-Serif" font-size="10.00">cam.nc.emc2tap.CreatorEMC2tap.tap</text>
</a>
</g>
</g>
<!-- Node1&#45;&gt;Node10 -->
<g id="edge10_Node000001_Node000010" class="edge">
<title>Node1&#45;&gt;Node10</title>
<g id="a_edge10_Node000001_Node000010"><a xlink:title=" ">
<path fill="none" stroke="#63b8ff" d="M479.96,-166.97C464.32,-140 431.46,-90.42 389,-65.5 382.39,-61.62 375.15,-58.51 367.67,-56.03"/>
<polygon fill="#63b8ff" stroke="#63b8ff" points="476.98,-168.8 484.94,-175.8 483.08,-165.37 476.98,-168.8"/>
</a>
</g>
</g>
<!-- Node11 -->
<g id="Node000011" class="node">
<title>Node11</title>
<g id="a_Node000011"><a xlink:href="classcam_1_1nc_1_1heiden_1_1Creator.html#a706db14683812bb3b86db958d7faa05a" target="_top" xlink:title=" ">
<polygon fill="white" stroke="#666666" points="362,-19 217,-19 217,0 362,0 362,-19"/>
<text text-anchor="middle" x="289.5" y="-7" font-family="Helvetica,sans-Serif" font-size="10.00">cam.nc.heiden.Creator.tap</text>
</a>
</g>
</g>
<!-- Node1&#45;&gt;Node11 -->
<g id="edge11_Node000001_Node000011" class="edge">
<title>Node1&#45;&gt;Node11</title>
<g id="a_edge11_Node000001_Node000011"><a xlink:title=" ">
<path fill="none" stroke="#63b8ff" d="M483.39,-166.18C470.77,-132.4 439.87,-62.92 389,-28.5 380.92,-23.03 371.67,-19.05 362.13,-16.16"/>
<polygon fill="#63b8ff" stroke="#63b8ff" points="480.17,-167.58 486.85,-175.81 486.76,-165.21 480.17,-167.58"/>
</a>
</g>
</g>
<!-- Node3 -->
<g id="Node000003" class="node">
<title>Node3</title>
<g id="a_Node000003"><a xlink:href="classcam_1_1nc_1_1cad__iso__read_1_1Parser.html#abf885d019794a8bef1b69f446c8851e1" target="_top" xlink:title=" ">
<polygon fill="white" stroke="#666666" points="154,-357.5 0,-357.5 0,-327.5 154,-327.5 154,-357.5"/>
<text text-anchor="start" x="8" y="-345.5" font-family="Helvetica,sans-Serif" font-size="10.00">cam.nc.cad_iso_read.Parser.</text>
<text text-anchor="middle" x="77" y="-334.5" font-family="Helvetica,sans-Serif" font-size="10.00">Parse</text>
</a>
</g>
</g>
<!-- Node2&#45;&gt;Node3 -->
<g id="edge2_Node000002_Node000003" class="edge">
<title>Node2&#45;&gt;Node3</title>
<g id="a_edge2_Node000002_Node000003"><a xlink:title=" ">
<path fill="none" stroke="#63b8ff" d="M205.11,-353.97C188.29,-352.45 170.68,-350.87 154.12,-349.37"/>
<polygon fill="#63b8ff" stroke="#63b8ff" points="205.19,-357.49 215.47,-354.91 205.82,-350.52 205.19,-357.49"/>
</a>
</g>
</g>
<!-- Node4&#45;&gt;Node3 -->
<g id="edge4_Node000004_Node000003" class="edge">
<title>Node4&#45;&gt;Node3</title>
<g id="a_edge4_Node000004_Node000003"><a xlink:title=" ">
<path fill="none" stroke="#63b8ff" d="M214.68,-330.81C195.07,-332.49 173.85,-334.3 154.12,-335.99"/>
<polygon fill="#63b8ff" stroke="#63b8ff" points="215.11,-334.29 224.77,-329.95 214.51,-327.31 215.11,-334.29"/>
</a>
</g>
</g>
</g>
</svg>
