<?xml version="1.0" encoding="UTF-8" standalone="no"?>
<!DOCTYPE svg PUBLIC "-//W3C//DTD SVG 1.1//EN"
 "http://www.w3.org/Graphics/SVG/1.1/DTD/svg11.dtd">
<!-- Generated by graphviz version 2.43.0 (0)
 -->
<!-- Title: cam.nc.tnc151.Creator.metric Pages: 1 -->
<svg width="1439pt" height="487pt"
 viewBox="0.00 0.00 1439.00 486.50" xmlns="http://www.w3.org/2000/svg" xmlns:xlink="http://www.w3.org/1999/xlink">
<g id="graph0" class="graph" transform="scale(1 1) rotate(0) translate(4 482.5)">
<title>cam.nc.tnc151.Creator.metric</title>
<!-- Node1 -->
<g id="Node000001" class="node">
<title>Node1</title>
<g id="a_Node000001"><a xlink:title=" ">
<polygon fill="#999999" stroke="#666666" points="161,-285.5 0,-285.5 0,-266.5 161,-266.5 161,-285.5"/>
<text text-anchor="middle" x="80.5" y="-273.5" font-family="Helvetica,sans-Serif" font-size="10.00">cam.nc.tnc151.Creator.metric</text>
</a>
</g>
</g>
<!-- Node2 -->
<g id="Node000002" class="node">
<title>Node2</title>
<g id="a_Node000002"><a xlink:href="classcam_1_1nc_1_1cad__nc__read_1_1Parser.html#adcf2f47949df29f187f27fe985884633" target="_top" xlink:title=" ">
<polygon fill="white" stroke="#666666" points="574.5,-460.5 398.5,-460.5 398.5,-441.5 574.5,-441.5 574.5,-460.5"/>
<text text-anchor="middle" x="486.5" y="-448.5" font-family="Helvetica,sans-Serif" font-size="10.00">cam.nc.cad_nc_read.Parser.write</text>
</a>
</g>
</g>
<!-- Node1&#45;&gt;Node2 -->
<g id="edge1_Node000001_Node000002" class="edge">
<title>Node1&#45;&gt;Node2</title>
<g id="a_edge1_Node000001_Node000002"><a xlink:title=" ">
<path fill="none" stroke="#63b8ff" d="M90.05,-285.78C107.94,-305.64 151.44,-350.96 197,-376 259.49,-410.34 338.28,-429.44 397.73,-439.76"/>
<polygon fill="#63b8ff" stroke="#63b8ff" points="397.4,-443.25 407.84,-441.46 398.56,-436.35 397.4,-443.25"/>
</a>
</g>
</g>
<!-- Node3 -->
<g id="Node000003" class="node">
<title>Node3</title>
<g id="a_Node000003"><a xlink:href="classcam_1_1nc_1_1hxml__writer_1_1HxmlWriter.html#aed6f93c98cb8c0e3f3e826e75b6d6f15" target="_top" xlink:title=" ">
<polygon fill="white" stroke="#666666" points="586,-405.5 387,-405.5 387,-386.5 586,-386.5 586,-405.5"/>
<text text-anchor="middle" x="486.5" y="-393.5" font-family="Helvetica,sans-Serif" font-size="10.00">cam.nc.hxml_writer.HxmlWriter.write</text>
</a>
</g>
</g>
<!-- Node1&#45;&gt;Node3 -->
<g id="edge3_Node000001_Node000003" class="edge">
<title>Node1&#45;&gt;Node3</title>
<g id="a_edge3_Node000001_Node000003"><a xlink:title=" ">
<path fill="none" stroke="#63b8ff" d="M94.24,-285.58C114.75,-300.49 156.86,-329.11 197,-344 254.39,-365.29 321.53,-378.05 376.59,-385.6"/>
<polygon fill="#63b8ff" stroke="#63b8ff" points="376.35,-389.1 386.72,-386.95 377.27,-382.16 376.35,-389.1"/>
</a>
</g>
</g>
<!-- Node4 -->
<g id="Node000004" class="node">
<title>Node4</title>
<g id="a_Node000004"><a xlink:href="classcam_1_1nc_1_1iso_1_1Creator.html#abb81af5a0bdddfed387b71b68a51cc7a" target="_top" xlink:title="Internals.">
<polygon fill="white" stroke="#666666" points="554,-368.5 419,-368.5 419,-349.5 554,-349.5 554,-368.5"/>
<text text-anchor="middle" x="486.5" y="-356.5" font-family="Helvetica,sans-Serif" font-size="10.00">cam.nc.iso.Creator.write</text>
</a>
</g>
</g>
<!-- Node1&#45;&gt;Node4 -->
<g id="edge5_Node000001_Node000004" class="edge">
<title>Node1&#45;&gt;Node4</title>
<g id="a_edge5_Node000001_Node000004"><a xlink:title=" ">
<path fill="none" stroke="#63b8ff" d="M104.1,-285.52C127.1,-294.84 163.95,-308.81 197,-317 267.68,-334.51 350.03,-345.6 408.61,-351.96"/>
<polygon fill="#63b8ff" stroke="#63b8ff" points="408.59,-355.48 418.9,-353.06 409.33,-348.52 408.59,-355.48"/>
</a>
</g>
</g>
<!-- Node5 -->
<g id="Node000005" class="node">
<title>Node5</title>
<g id="a_Node000005"><a xlink:href="classcam_1_1nc_1_1nc_1_1Creator.html#a80f2134add83bfaaf2870d075d36ed8a" target="_top" xlink:title=" ">
<polygon fill="white" stroke="#666666" points="552.5,-313.5 420.5,-313.5 420.5,-294.5 552.5,-294.5 552.5,-313.5"/>
<text text-anchor="middle" x="486.5" y="-301.5" font-family="Helvetica,sans-Serif" font-size="10.00">cam.nc.nc.Creator.write</text>
</a>
</g>
</g>
<!-- Node1&#45;&gt;Node5 -->
<g id="edge6_Node000001_Node000005" class="edge">
<title>Node1&#45;&gt;Node5</title>
<g id="a_edge6_Node000001_Node000005"><a xlink:title=" ">
<path fill="none" stroke="#63b8ff" d="M118.4,-285.55C140.94,-290.9 170.43,-297.08 197,-300 268.98,-307.9 351.67,-308.16 410.02,-306.88"/>
<polygon fill="#63b8ff" stroke="#63b8ff" points="410.34,-310.37 420.26,-306.63 410.18,-303.37 410.34,-310.37"/>
</a>
</g>
</g>
<!-- Node6 -->
<g id="Node000006" class="node">
<title>Node6</title>
<g id="a_Node000006"><a xlink:href="classcam_1_1nc_1_1nclathe__read_1_1Parser.html#ab5ea283b461b57e48c8d5b0ad0a45694" target="_top" xlink:title=" ">
<polygon fill="white" stroke="#666666" points="575.5,-258.5 397.5,-258.5 397.5,-239.5 575.5,-239.5 575.5,-258.5"/>
<text text-anchor="middle" x="486.5" y="-246.5" font-family="Helvetica,sans-Serif" font-size="10.00">cam.nc.nclathe_read.Parser.write</text>
</a>
</g>
</g>
<!-- Node1&#45;&gt;Node6 -->
<g id="edge8_Node000001_Node000006" class="edge">
<title>Node1&#45;&gt;Node6</title>
<g id="a_edge8_Node000001_Node000006"><a xlink:title=" ">
<path fill="none" stroke="#63b8ff" d="M118.14,-266.48C140.71,-261.1 170.33,-254.88 197,-252 260.06,-245.19 331.31,-244.38 387.23,-245.3"/>
<polygon fill="#63b8ff" stroke="#63b8ff" points="387.43,-248.81 397.49,-245.49 387.56,-241.81 387.43,-248.81"/>
</a>
</g>
</g>
<!-- Node7 -->
<g id="Node000007" class="node">
<title>Node7</title>
<g id="a_Node000007"><a xlink:href="classcam_1_1nc_1_1recreator_1_1Redirector.html#a79cc974683588db3ef959189e7552c0d" target="_top" xlink:title="Programs.">
<polygon fill="white" stroke="#666666" points="576,-203.5 397,-203.5 397,-184.5 576,-184.5 576,-203.5"/>
<text text-anchor="middle" x="486.5" y="-191.5" font-family="Helvetica,sans-Serif" font-size="10.00">cam.nc.recreator.Redirector.write</text>
</a>
</g>
</g>
<!-- Node1&#45;&gt;Node7 -->
<g id="edge10_Node000001_Node000007" class="edge">
<title>Node1&#45;&gt;Node7</title>
<g id="a_edge10_Node000001_Node000007"><a xlink:title=" ">
<path fill="none" stroke="#63b8ff" d="M108.27,-266.45C131.49,-258.46 166.12,-247.23 197,-240 263.03,-224.53 338.8,-212.67 396.11,-204.87"/>
<polygon fill="#63b8ff" stroke="#63b8ff" points="396.79,-208.31 406.23,-203.51 395.85,-201.37 396.79,-208.31"/>
</a>
</g>
</g>
<!-- Node8 -->
<g id="Node000008" class="node">
<title>Node8</title>
<g id="a_Node000008"><a xlink:href="classcam_1_1nc_1_1format_1_1Address.html#aa21f0ffeb829537d9103759276c01a4b" target="_top" xlink:title=" ">
<polygon fill="white" stroke="#666666" points="565.5,-166.5 407.5,-166.5 407.5,-147.5 565.5,-147.5 565.5,-166.5"/>
<text text-anchor="middle" x="486.5" y="-154.5" font-family="Helvetica,sans-Serif" font-size="10.00">cam.nc.format.Address.write</text>
</a>
</g>
</g>
<!-- Node1&#45;&gt;Node8 -->
<g id="edge12_Node000001_Node000008" class="edge">
<title>Node1&#45;&gt;Node8</title>
<g id="a_edge12_Node000001_Node000008"><a xlink:title=" ">
<path fill="none" stroke="#63b8ff" d="M94.24,-266.41C114.74,-251.47 156.83,-222.82 197,-208 261.71,-184.12 338.82,-171.23 397.03,-164.38"/>
<polygon fill="#63b8ff" stroke="#63b8ff" points="397.76,-167.82 407.3,-163.22 396.97,-160.87 397.76,-167.82"/>
</a>
</g>
</g>
<!-- Node19 -->
<g id="Node000019" class="node">
<title>Node19</title>
<g id="a_Node000019"><a xlink:href="classcam_1_1nc_1_1format_1_1AddressPlusMinus.html#aaacea4c7b677f0a602dbc9023ff365d2" target="_top" xlink:title=" ">
<polygon fill="white" stroke="#666666" points="561.5,-129 411.5,-129 411.5,-99 561.5,-99 561.5,-129"/>
<text text-anchor="start" x="419.5" y="-117" font-family="Helvetica,sans-Serif" font-size="10.00">cam.nc.format.AddressPlus</text>
<text text-anchor="middle" x="486.5" y="-106" font-family="Helvetica,sans-Serif" font-size="10.00">Minus.write</text>
</a>
</g>
</g>
<!-- Node1&#45;&gt;Node19 -->
<g id="edge25_Node000001_Node000019" class="edge">
<title>Node1&#45;&gt;Node19</title>
<g id="a_edge25_Node000001_Node000019"><a xlink:title=" ">
<path fill="none" stroke="#63b8ff" d="M88.6,-266.21C104.99,-244.43 147.81,-191.93 197,-167 260.77,-134.68 341.35,-121.87 401.13,-116.89"/>
<polygon fill="#63b8ff" stroke="#63b8ff" points="401.59,-120.37 411.29,-116.1 401.05,-113.39 401.59,-120.37"/>
</a>
</g>
</g>
<!-- Node20 -->
<g id="Node000020" class="node">
<title>Node20</title>
<g id="a_Node000020"><a xlink:href="classcam_1_1nc_1_1tnc151_1_1Creator.html#ac52521a23b5a97bc452ff497f2fa4d7c" target="_top" xlink:title=" ">
<polygon fill="white" stroke="#666666" points="351,-291 197,-291 197,-261 351,-261 351,-291"/>
<text text-anchor="start" x="205" y="-279" font-family="Helvetica,sans-Serif" font-size="10.00">cam.nc.tnc151.Creator.write</text>
<text text-anchor="middle" x="274" y="-268" font-family="Helvetica,sans-Serif" font-size="10.00">_waiting_program_begin</text>
</a>
</g>
</g>
<!-- Node1&#45;&gt;Node20 -->
<g id="edge27_Node000001_Node000020" class="edge">
<title>Node1&#45;&gt;Node20</title>
<g id="a_edge27_Node000001_Node000020"><a xlink:title=" ">
<path fill="none" stroke="#63b8ff" d="M161.05,-276C169.45,-276 178.02,-276 186.5,-276"/>
<polygon fill="#63b8ff" stroke="#63b8ff" points="186.77,-279.5 196.77,-276 186.77,-272.5 186.77,-279.5"/>
</a>
</g>
</g>
<!-- Node2&#45;&gt;Node2 -->
<g id="edge2_Node000002_Node000002" class="edge">
<title>Node2&#45;&gt;Node2</title>
<g id="a_edge2_Node000002_Node000002"><a xlink:title=" ">
<path fill="none" stroke="#63b8ff" d="M453.82,-460.58C437.93,-469.23 448.82,-478.5 486.5,-478.5 513.58,-478.5 526.83,-473.71 526.23,-467.81"/>
<polygon fill="#63b8ff" stroke="#63b8ff" points="528.67,-465.29 519.18,-460.58 523.66,-470.18 528.67,-465.29"/>
</a>
</g>
</g>
<!-- Node3&#45;&gt;Node3 -->
<g id="edge4_Node000003_Node000003" class="edge">
<title>Node3&#45;&gt;Node3</title>
<g id="a_edge4_Node000003_Node000003"><a xlink:title=" ">
<path fill="none" stroke="#63b8ff" d="M453.82,-405.58C437.93,-414.23 448.82,-423.5 486.5,-423.5 513.58,-423.5 526.83,-418.71 526.23,-412.81"/>
<polygon fill="#63b8ff" stroke="#63b8ff" points="528.67,-410.29 519.18,-405.58 523.66,-415.18 528.67,-410.29"/>
</a>
</g>
</g>
<!-- Node5&#45;&gt;Node5 -->
<g id="edge7_Node000005_Node000005" class="edge">
<title>Node5&#45;&gt;Node5</title>
<g id="a_edge7_Node000005_Node000005"><a xlink:title=" ">
<path fill="none" stroke="#63b8ff" d="M453.82,-313.58C437.93,-322.23 448.82,-331.5 486.5,-331.5 513.58,-331.5 526.83,-326.71 526.23,-320.81"/>
<polygon fill="#63b8ff" stroke="#63b8ff" points="528.67,-318.29 519.18,-313.58 523.66,-323.18 528.67,-318.29"/>
</a>
</g>
</g>
<!-- Node6&#45;&gt;Node6 -->
<g id="edge9_Node000006_Node000006" class="edge">
<title>Node6&#45;&gt;Node6</title>
<g id="a_edge9_Node000006_Node000006"><a xlink:title=" ">
<path fill="none" stroke="#63b8ff" d="M453.82,-258.58C437.93,-267.23 448.82,-276.5 486.5,-276.5 513.58,-276.5 526.83,-271.71 526.23,-265.81"/>
<polygon fill="#63b8ff" stroke="#63b8ff" points="528.67,-263.29 519.18,-258.58 523.66,-268.18 528.67,-263.29"/>
</a>
</g>
</g>
<!-- Node7&#45;&gt;Node7 -->
<g id="edge11_Node000007_Node000007" class="edge">
<title>Node7&#45;&gt;Node7</title>
<g id="a_edge11_Node000007_Node000007"><a xlink:title=" ">
<path fill="none" stroke="#63b8ff" d="M453.82,-203.58C437.93,-212.23 448.82,-221.5 486.5,-221.5 513.58,-221.5 526.83,-216.71 526.23,-210.81"/>
<polygon fill="#63b8ff" stroke="#63b8ff" points="528.67,-208.29 519.18,-203.58 523.66,-213.18 528.67,-208.29"/>
</a>
</g>
</g>
<!-- Node9 -->
<g id="Node000009" class="node">
<title>Node9</title>
<g id="a_Node000009"><a xlink:href="classcam_1_1async__op_1_1AsyncOperatorMixin.html#a9628cbca8e69ec75b2337171a02bf428" target="_top" xlink:title=" ">
<polygon fill="white" stroke="#666666" points="783,-150 622,-150 622,-120 783,-120 783,-150"/>
<text text-anchor="start" x="630" y="-138" font-family="Helvetica,sans-Serif" font-size="10.00">cam.async_op.AsyncOperator</text>
<text text-anchor="middle" x="702.5" y="-127" font-family="Helvetica,sans-Serif" font-size="10.00">Mixin.modal</text>
</a>
</g>
</g>
<!-- Node8&#45;&gt;Node9 -->
<g id="edge13_Node000008_Node000009" class="edge">
<title>Node8&#45;&gt;Node9</title>
<g id="a_edge13_Node000008_Node000009"><a xlink:title=" ">
<path fill="none" stroke="#63b8ff" d="M565.67,-148.96C580.65,-147.42 596.45,-145.8 611.77,-144.22"/>
<polygon fill="#63b8ff" stroke="#63b8ff" points="612.16,-147.7 621.75,-143.2 611.45,-140.74 612.16,-147.7"/>
</a>
</g>
</g>
<!-- Node10 -->
<g id="Node000010" class="node">
<title>Node10</title>
<g id="a_Node000010"><a xlink:href="classcam_1_1async__op_1_1AsyncOperatorMixin.html#a15a51cfd69d8e453e2e3d64386b1ebe3" target="_top" xlink:title=" ">
<polygon fill="white" stroke="#666666" points="980,-150 819,-150 819,-120 980,-120 980,-150"/>
<text text-anchor="start" x="827" y="-138" font-family="Helvetica,sans-Serif" font-size="10.00">cam.async_op.AsyncOperator</text>
<text text-anchor="middle" x="899.5" y="-127" font-family="Helvetica,sans-Serif" font-size="10.00">Mixin.tick</text>
</a>
</g>
</g>
<!-- Node9&#45;&gt;Node10 -->
<g id="edge14_Node000009_Node000010" class="edge">
<title>Node9&#45;&gt;Node10</title>
<g id="a_edge14_Node000009_Node000010"><a xlink:title=" ">
<path fill="none" stroke="#63b8ff" d="M783.1,-135C791.57,-135 800.24,-135 808.82,-135"/>
<polygon fill="#63b8ff" stroke="#63b8ff" points="808.84,-138.5 818.84,-135 808.84,-131.5 808.84,-138.5"/>
</a>
</g>
</g>
<!-- Node11 -->
<g id="Node000011" class="node">
<title>Node11</title>
<g id="a_Node000011"><a xlink:href="classcam_1_1async__op_1_1AsyncTestOperator.html#a42606ca890a957aa7070a4bc6f25228b" target="_top" xlink:title=" ">
<polygon fill="white" stroke="#666666" points="1237,-270 1016,-270 1016,-240 1237,-240 1237,-270"/>
<text text-anchor="start" x="1024" y="-258" font-family="Helvetica,sans-Serif" font-size="10.00">cam.async_op.AsyncTestOperator.execute</text>
<text text-anchor="middle" x="1126.5" y="-247" font-family="Helvetica,sans-Serif" font-size="10.00">_async</text>
</a>
</g>
</g>
<!-- Node10&#45;&gt;Node11 -->
<g id="edge15_Node000010_Node000011" class="edge">
<title>Node10&#45;&gt;Node11</title>
<g id="a_edge15_Node000010_Node000011"><a xlink:title=" ">
<path fill="none" stroke="#63b8ff" d="M914.18,-150.27C934.31,-171.74 974.07,-210.51 1016,-231 1020.09,-233 1024.35,-234.84 1028.72,-236.52"/>
<polygon fill="#63b8ff" stroke="#63b8ff" points="1027.81,-239.91 1038.41,-239.97 1030.16,-233.32 1027.81,-239.91"/>
</a>
</g>
</g>
<!-- Node12 -->
<g id="Node000012" class="node">
<title>Node12</title>
<g id="a_Node000012"><a xlink:href="classcam_1_1ops_1_1CalculatePath.html#a13dfe2f8578383234e74e58e2f292e1b" target="_top" xlink:title=" ">
<polygon fill="white" stroke="#666666" points="1211,-222 1042,-222 1042,-192 1211,-192 1211,-222"/>
<text text-anchor="start" x="1050" y="-210" font-family="Helvetica,sans-Serif" font-size="10.00">cam.ops.CalculatePath.execute</text>
<text text-anchor="middle" x="1126.5" y="-199" font-family="Helvetica,sans-Serif" font-size="10.00">_async</text>
</a>
</g>
</g>
<!-- Node10&#45;&gt;Node12 -->
<g id="edge16_Node000010_Node000012" class="edge">
<title>Node10&#45;&gt;Node12</title>
<g id="a_edge16_Node000010_Node000012"><a xlink:title=" ">
<path fill="none" stroke="#63b8ff" d="M932.29,-150.01C955.18,-160.38 987,-173.88 1016,-183 1023.31,-185.3 1030.96,-187.46 1038.68,-189.47"/>
<polygon fill="#63b8ff" stroke="#63b8ff" points="1037.91,-192.89 1048.46,-191.93 1039.62,-186.1 1037.91,-192.89"/>
</a>
</g>
</g>
<!-- Node14 -->
<g id="Node000014" class="node">
<title>Node14</title>
<g id="a_Node000014"><a xlink:href="classcam_1_1ops_1_1PathsChain.html#a6fc64e383ccf724b2325e18a82d53eae" target="_top" xlink:title=" ">
<polygon fill="white" stroke="#666666" points="1204.5,-174 1048.5,-174 1048.5,-144 1204.5,-144 1204.5,-174"/>
<text text-anchor="start" x="1056.5" y="-162" font-family="Helvetica,sans-Serif" font-size="10.00">cam.ops.PathsChain.execute</text>
<text text-anchor="middle" x="1126.5" y="-151" font-family="Helvetica,sans-Serif" font-size="10.00">_async</text>
</a>
</g>
</g>
<!-- Node10&#45;&gt;Node14 -->
<g id="edge18_Node000010_Node000014" class="edge">
<title>Node10&#45;&gt;Node14</title>
<g id="a_edge18_Node000010_Node000014"><a xlink:title=" ">
<path fill="none" stroke="#63b8ff" d="M980.14,-143.5C998.9,-145.5 1018.98,-147.64 1038.06,-149.67"/>
<polygon fill="#63b8ff" stroke="#63b8ff" points="1037.92,-153.18 1048.23,-150.76 1038.66,-146.22 1037.92,-153.18"/>
</a>
</g>
</g>
<!-- Node16 -->
<g id="Node000016" class="node">
<title>Node16</title>
<g id="a_Node000016"><a xlink:href="classcam_1_1ops_1_1CAMSimulate.html#a633151f17849d281fd52ce82c00356a7" target="_top" xlink:title=" ">
<polygon fill="white" stroke="#666666" points="1210.5,-78 1042.5,-78 1042.5,-48 1210.5,-48 1210.5,-78"/>
<text text-anchor="start" x="1050.5" y="-66" font-family="Helvetica,sans-Serif" font-size="10.00">cam.ops.CAMSimulate.execute</text>
<text text-anchor="middle" x="1126.5" y="-55" font-family="Helvetica,sans-Serif" font-size="10.00">_async</text>
</a>
</g>
</g>
<!-- Node10&#45;&gt;Node16 -->
<g id="edge21_Node000010_Node000016" class="edge">
<title>Node10&#45;&gt;Node16</title>
<g id="a_edge21_Node000010_Node000016"><a xlink:title=" ">
<path fill="none" stroke="#63b8ff" d="M932.29,-119.99C955.18,-109.62 987,-96.12 1016,-87 1023.31,-84.7 1030.96,-82.54 1038.68,-80.53"/>
<polygon fill="#63b8ff" stroke="#63b8ff" points="1039.62,-83.9 1048.46,-78.07 1037.91,-77.11 1039.62,-83.9"/>
</a>
</g>
</g>
<!-- Node17 -->
<g id="Node000017" class="node">
<title>Node17</title>
<g id="a_Node000017"><a xlink:href="classcam_1_1ops_1_1CAMSimulateChain.html#a1e77c7ce21b3b7e3e38a12b6b62517e9" target="_top" xlink:title=" ">
<polygon fill="white" stroke="#666666" points="1224.5,-126 1028.5,-126 1028.5,-96 1224.5,-96 1224.5,-126"/>
<text text-anchor="start" x="1036.5" y="-114" font-family="Helvetica,sans-Serif" font-size="10.00">cam.ops.CAMSimulateChain.execute</text>
<text text-anchor="middle" x="1126.5" y="-103" font-family="Helvetica,sans-Serif" font-size="10.00">_async</text>
</a>
</g>
</g>
<!-- Node10&#45;&gt;Node17 -->
<g id="edge22_Node000010_Node000017" class="edge">
<title>Node10&#45;&gt;Node17</title>
<g id="a_edge22_Node000010_Node000017"><a xlink:title=" ">
<path fill="none" stroke="#63b8ff" d="M980.14,-126.5C992.41,-125.2 1005.25,-123.83 1018.01,-122.47"/>
<polygon fill="#63b8ff" stroke="#63b8ff" points="1018.63,-125.92 1028.21,-121.38 1017.89,-118.96 1018.63,-125.92"/>
</a>
</g>
</g>
<!-- Node18 -->
<g id="Node000018" class="node">
<title>Node18</title>
<g id="a_Node000018"><a xlink:href="classcam_1_1async__op_1_1AsyncOperatorMixin.html#a2216ff6bb0dfd132f4ec4cf79b7cba2b" target="_top" xlink:title=" ">
<polygon fill="white" stroke="#666666" points="1207,-30 1046,-30 1046,0 1207,0 1207,-30"/>
<text text-anchor="start" x="1054" y="-18" font-family="Helvetica,sans-Serif" font-size="10.00">cam.async_op.AsyncOperator</text>
<text text-anchor="middle" x="1126.5" y="-7" font-family="Helvetica,sans-Serif" font-size="10.00">Mixin.show_progress</text>
</a>
</g>
</g>
<!-- Node10&#45;&gt;Node18 -->
<g id="edge24_Node000010_Node000018" class="edge">
<title>Node10&#45;&gt;Node18</title>
<g id="a_edge24_Node000010_Node000018"><a xlink:title=" ">
<path fill="none" stroke="#63b8ff" d="M914.18,-119.73C934.31,-98.26 974.07,-59.49 1016,-39 1022.43,-35.86 1029.27,-33.12 1036.28,-30.74"/>
<polygon fill="#63b8ff" stroke="#63b8ff" points="1037.42,-34.05 1045.91,-27.71 1035.32,-27.37 1037.42,-34.05"/>
</a>
</g>
</g>
<!-- Node13 -->
<g id="Node000013" class="node">
<title>Node13</title>
<g id="a_Node000013"><a xlink:href="namespacecam_1_1ops.html#aa8e95f7410a7ceb178db48f4f8c2d995" target="_top" xlink:title=" ">
<polygon fill="white" stroke="#666666" points="1408.5,-189.5 1295.5,-189.5 1295.5,-170.5 1408.5,-170.5 1408.5,-189.5"/>
<text text-anchor="middle" x="1352" y="-177.5" font-family="Helvetica,sans-Serif" font-size="10.00">cam.ops._calc_path</text>
</a>
</g>
</g>
<!-- Node12&#45;&gt;Node13 -->
<g id="edge17_Node000012_Node000013" class="edge">
<title>Node12&#45;&gt;Node13</title>
<g id="a_edge17_Node000012_Node000013"><a xlink:title=" ">
<path fill="none" stroke="#63b8ff" d="M1211.04,-196.91C1235.56,-193.95 1262.01,-190.75 1285.25,-187.94"/>
<polygon fill="#63b8ff" stroke="#63b8ff" points="1285.83,-191.4 1295.34,-186.72 1285,-184.45 1285.83,-191.4"/>
</a>
</g>
</g>
<!-- Node14&#45;&gt;Node13 -->
<g id="edge19_Node000014_Node000013" class="edge">
<title>Node14&#45;&gt;Node13</title>
<g id="a_edge19_Node000014_Node000013"><a xlink:title=" ">
<path fill="none" stroke="#63b8ff" d="M1204.73,-166.26C1230.9,-168.72 1259.87,-171.44 1285.08,-173.81"/>
<polygon fill="#63b8ff" stroke="#63b8ff" points="1284.99,-177.31 1295.27,-174.76 1285.64,-170.34 1284.99,-177.31"/>
</a>
</g>
</g>
<!-- Node15 -->
<g id="Node000015" class="node">
<title>Node15</title>
<g id="a_Node000015"><a xlink:href="namespacecam_1_1ops.html#ab55fb8ec9a00e021e8e4a1c3ecc97cb4" target="_top" xlink:title=" ">
<polygon fill="white" stroke="#666666" points="1431,-147.5 1273,-147.5 1273,-128.5 1431,-128.5 1431,-147.5"/>
<text text-anchor="middle" x="1352" y="-135.5" font-family="Helvetica,sans-Serif" font-size="10.00">cam.ops.getChainOperations</text>
</a>
</g>
</g>
<!-- Node14&#45;&gt;Node15 -->
<g id="edge20_Node000014_Node000015" class="edge">
<title>Node14&#45;&gt;Node15</title>
<g id="a_edge20_Node000014_Node000015"><a xlink:title=" ">
<path fill="none" stroke="#63b8ff" d="M1204.73,-151.74C1223.34,-150 1243.37,-148.11 1262.45,-146.32"/>
<polygon fill="#63b8ff" stroke="#63b8ff" points="1263,-149.78 1272.63,-145.36 1262.35,-142.81 1263,-149.78"/>
</a>
</g>
</g>
<!-- Node17&#45;&gt;Node15 -->
<g id="edge23_Node000017_Node000015" class="edge">
<title>Node17&#45;&gt;Node15</title>
<g id="a_edge23_Node000017_Node000015"><a xlink:title=" ">
<path fill="none" stroke="#63b8ff" d="M1224.56,-122.72C1237.29,-124.26 1250.28,-125.83 1262.86,-127.35"/>
<polygon fill="#63b8ff" stroke="#63b8ff" points="1262.5,-130.83 1272.84,-128.56 1263.34,-123.88 1262.5,-130.83"/>
</a>
</g>
</g>
<!-- Node19&#45;&gt;Node9 -->
<g id="edge26_Node000019_Node000009" class="edge">
<title>Node19&#45;&gt;Node9</title>
<g id="a_edge26_Node000019_Node000009"><a xlink:title=" ">
<path fill="none" stroke="#63b8ff" d="M561.75,-121.29C577.84,-122.87 595.03,-124.55 611.65,-126.18"/>
<polygon fill="#63b8ff" stroke="#63b8ff" points="611.62,-129.7 621.92,-127.19 612.3,-122.73 611.62,-129.7"/>
</a>
</g>
</g>
<!-- Node20&#45;&gt;Node2 -->
<g id="edge28_Node000020_Node000002" class="edge">
<title>Node20&#45;&gt;Node2</title>
<g id="a_edge28_Node000020_Node000002"><a xlink:title=" ">
<path fill="none" stroke="#63b8ff" d="M281.03,-291.05C294.65,-322.97 331.04,-397.45 387,-433 389.48,-434.57 392.05,-436.02 394.71,-437.34"/>
<polygon fill="#63b8ff" stroke="#63b8ff" points="393.43,-440.6 404,-441.4 396.24,-434.19 393.43,-440.6"/>
</a>
</g>
</g>
<!-- Node20&#45;&gt;Node3 -->
<g id="edge29_Node000020_Node000003" class="edge">
<title>Node20&#45;&gt;Node3</title>
<g id="a_edge29_Node000020_Node000003"><a xlink:title=" ">
<path fill="none" stroke="#63b8ff" d="M286.91,-291.32C305.59,-314.17 344.1,-356.76 387,-378 391.01,-379.98 395.21,-381.75 399.51,-383.33"/>
<polygon fill="#63b8ff" stroke="#63b8ff" points="398.5,-386.68 409.09,-386.47 400.68,-380.03 398.5,-386.68"/>
</a>
</g>
</g>
<!-- Node20&#45;&gt;Node4 -->
<g id="edge30_Node000020_Node000004" class="edge">
<title>Node20&#45;&gt;Node4</title>
<g id="a_edge30_Node000020_Node000004"><a xlink:title=" ">
<path fill="none" stroke="#63b8ff" d="M295.79,-291.04C317.5,-306 353.04,-328.48 387,-341 394.03,-343.59 401.49,-345.82 409.03,-347.74"/>
<polygon fill="#63b8ff" stroke="#63b8ff" points="408.42,-351.19 418.96,-350.08 410.03,-344.38 408.42,-351.19"/>
</a>
</g>
</g>
<!-- Node20&#45;&gt;Node5 -->
<g id="edge31_Node000020_Node000005" class="edge">
<title>Node20&#45;&gt;Node5</title>
<g id="a_edge31_Node000020_Node000005"><a xlink:title=" ">
<path fill="none" stroke="#63b8ff" d="M351.29,-286.15C370.44,-288.7 390.98,-291.43 410.08,-293.97"/>
<polygon fill="#63b8ff" stroke="#63b8ff" points="409.86,-297.47 420.23,-295.32 410.78,-290.53 409.86,-297.47"/>
</a>
</g>
</g>
<!-- Node20&#45;&gt;Node6 -->
<g id="edge32_Node000020_Node000006" class="edge">
<title>Node20&#45;&gt;Node6</title>
<g id="a_edge32_Node000020_Node000006"><a xlink:title=" ">
<path fill="none" stroke="#63b8ff" d="M351.29,-266.21C367.47,-264.14 384.63,-261.94 401.09,-259.83"/>
<polygon fill="#63b8ff" stroke="#63b8ff" points="401.75,-263.27 411.23,-258.53 400.86,-256.33 401.75,-263.27"/>
</a>
</g>
</g>
<!-- Node20&#45;&gt;Node7 -->
<g id="edge33_Node000020_Node000007" class="edge">
<title>Node20&#45;&gt;Node7</title>
<g id="a_edge33_Node000020_Node000007"><a xlink:title=" ">
<path fill="none" stroke="#63b8ff" d="M311.74,-260.99C333.56,-252.14 361.8,-240.79 387,-231 407.78,-222.92 431.14,-214.14 449.89,-207.15"/>
<polygon fill="#63b8ff" stroke="#63b8ff" points="451.36,-210.34 459.52,-203.58 448.92,-203.78 451.36,-210.34"/>
</a>
</g>
</g>
<!-- Node20&#45;&gt;Node8 -->
<g id="edge34_Node000020_Node000008" class="edge">
<title>Node20&#45;&gt;Node8</title>
<g id="a_edge34_Node000020_Node000008"><a xlink:title=" ">
<path fill="none" stroke="#63b8ff" d="M287.32,-260.67C306.24,-238.26 344.72,-196.93 387,-176 391.93,-173.56 397.14,-171.43 402.48,-169.58"/>
<polygon fill="#63b8ff" stroke="#63b8ff" points="403.73,-172.86 412.22,-166.53 401.63,-166.18 403.73,-172.86"/>
</a>
</g>
</g>
<!-- Node20&#45;&gt;Node19 -->
<g id="edge35_Node000020_Node000019" class="edge">
<title>Node20&#45;&gt;Node19</title>
<g id="a_edge35_Node000020_Node000019"><a xlink:title=" ">
<path fill="none" stroke="#63b8ff" d="M282.92,-260.98C298.73,-232.54 336.99,-170.85 387,-139 391.65,-136.04 396.63,-133.43 401.8,-131.13"/>
<polygon fill="#63b8ff" stroke="#63b8ff" points="403.3,-134.3 411.26,-127.31 400.68,-127.8 403.3,-134.3"/>
</a>
</g>
</g>
</g>
</svg>
