<?xml version="1.0" encoding="UTF-8" standalone="no"?>
<!DOCTYPE svg PUBLIC "-//W3C//DTD SVG 1.1//EN"
 "http://www.w3.org/Graphics/SVG/1.1/DTD/svg11.dtd">
<!-- Generated by graphviz version 2.43.0 (0)
 -->
<!-- Title: cam.ui_panels.movement.CAM_MOVEMENT_Properties Pages: 1 -->
<svg width="475pt" height="263pt"
 viewBox="0.00 0.00 474.50 263.00" xmlns="http://www.w3.org/2000/svg" xmlns:xlink="http://www.w3.org/1999/xlink">
<g id="graph0" class="graph" transform="scale(1 1) rotate(0) translate(4 259)">
<title>cam.ui_panels.movement.CAM_MOVEMENT_Properties</title>
<!-- Node1 -->
<g id="Node000001" class="node">
<title>Node1</title>
<g id="a_Node000001"><a xlink:title=" ">
<polygon fill="#999999" stroke="transparent" points="276,-60 113,-60 113,0 276,0 276,-60"/>
<text text-anchor="start" x="118.5" y="-48" font-family="Helvetica,sans-Serif" font-size="10.00">cam.ui_panels.movement.CAM</text>
<text text-anchor="start" x="136" y="-37" font-family="Helvetica,sans-Serif" font-size="10.00">_MOVEMENT_Properties</text>
<text text-anchor="start" x="193" y="-22" font-family="Helvetica,sans-Serif" font-size="10.00"> </text>
<text text-anchor="start" x="193" y="-7" font-family="Helvetica,sans-Serif" font-size="10.00"> </text>
<polygon fill="#666666" stroke="#666666" points="113.5,-32 113.5,-32 276.5,-32 276.5,-32 113.5,-32"/>
<polygon fill="#666666" stroke="#666666" points="113.5,-17 113.5,-17 276.5,-17 276.5,-17 113.5,-17"/>
<polygon fill="none" stroke="#666666" points="113,0 113,-60 276,-60 276,0 113,0"/>
</a>
</g>
</g>
<!-- Node2 -->
<g id="Node000002" class="node">
<title>Node2</title>
<g id="a_Node000002"><a xlink:title=" ">
<polygon fill="white" stroke="transparent" points="81,-255 0,-255 0,-206 81,-206 81,-255"/>
<text text-anchor="start" x="5.5" y="-242.5" font-family="Helvetica,sans-Serif" font-size="10.00">PropertyGroup</text>
<text text-anchor="start" x="39" y="-227.5" font-family="Helvetica,sans-Serif" font-size="10.00"> </text>
<text text-anchor="start" x="39" y="-212.5" font-family="Helvetica,sans-Serif" font-size="10.00"> </text>
<polygon fill="#666666" stroke="#666666" points="0.5,-237.5 0.5,-237.5 81.5,-237.5 81.5,-237.5 0.5,-237.5"/>
<polygon fill="#666666" stroke="#666666" points="0.5,-222.5 0.5,-222.5 81.5,-222.5 81.5,-222.5 0.5,-222.5"/>
<polygon fill="none" stroke="#666666" points="0,-206 0,-255 81,-255 81,-206 0,-206"/>
</a>
</g>
</g>
<!-- Node2&#45;&gt;Node1 -->
<g id="edge1_Node000001_Node000002" class="edge">
<title>Node2&#45;&gt;Node1</title>
<g id="a_edge1_Node000001_Node000002"><a xlink:title=" ">
<path fill="none" stroke="#63b8ff" d="M53.19,-196.16C66.87,-163.35 91.12,-113.21 123.5,-78 129.4,-71.58 136.36,-65.62 143.56,-60.26"/>
<polygon fill="none" stroke="#63b8ff" points="49.81,-195.16 49.28,-205.74 56.29,-197.8 49.81,-195.16"/>
</a>
</g>
</g>
<!-- Node3 -->
<g id="Node000003" class="node">
<title>Node3</title>
<g id="a_Node000003"><a xlink:title=" ">
<polygon fill="white" stroke="transparent" points="179.5,-255 99.5,-255 99.5,-206 179.5,-206 179.5,-255"/>
<text text-anchor="start" x="104.5" y="-242.5" font-family="Helvetica,sans-Serif" font-size="10.00">EnumProperty</text>
<text text-anchor="start" x="137.5" y="-227.5" font-family="Helvetica,sans-Serif" font-size="10.00"> </text>
<text text-anchor="start" x="137.5" y="-212.5" font-family="Helvetica,sans-Serif" font-size="10.00"> </text>
<polygon fill="#666666" stroke="#666666" points="99.5,-237.5 99.5,-237.5 179.5,-237.5 179.5,-237.5 99.5,-237.5"/>
<polygon fill="#666666" stroke="#666666" points="99.5,-222.5 99.5,-222.5 179.5,-222.5 179.5,-222.5 99.5,-222.5"/>
<polygon fill="none" stroke="#666666" points="99.5,-206 99.5,-255 179.5,-255 179.5,-206 99.5,-206"/>
</a>
</g>
</g>
<!-- Node3&#45;&gt;Node1 -->
<g id="edge2_Node000001_Node000003" class="edge">
<title>Node3&#45;&gt;Node1</title>
<g id="a_edge2_Node000001_Node000003"><a xlink:title=" ">
<path fill="none" stroke="#63b8ff" d="M133.91,-205.89C127.84,-174.95 121.34,-119.71 140.5,-78 141.86,-75.03 143.52,-72.18 145.38,-69.45"/>
<polygon fill="none" stroke="#63b8ff" points="145.4,-69.42 146.07,-62.24 152.96,-60.1 152.29,-67.28 145.4,-69.42"/>
</a>
</g>
<text text-anchor="middle" x="184.5" y="-141.5" font-family="Helvetica,sans-Serif" font-size="10.00" fill="grey"> +insideout</text>
<text text-anchor="middle" x="184.5" y="-130.5" font-family="Helvetica,sans-Serif" font-size="10.00" fill="grey">+spindle_rotation</text>
<text text-anchor="middle" x="184.5" y="-119.5" font-family="Helvetica,sans-Serif" font-size="10.00" fill="grey">+type</text>
</g>
<!-- Node4 -->
<g id="Node000004" class="node">
<title>Node4</title>
<g id="a_Node000004"><a xlink:title=" ">
<polygon fill="white" stroke="transparent" points="289,-255 212,-255 212,-206 289,-206 289,-255"/>
<text text-anchor="start" x="217.5" y="-242.5" font-family="Helvetica,sans-Serif" font-size="10.00">FloatProperty</text>
<text text-anchor="start" x="249" y="-227.5" font-family="Helvetica,sans-Serif" font-size="10.00"> </text>
<text text-anchor="start" x="249" y="-212.5" font-family="Helvetica,sans-Serif" font-size="10.00"> </text>
<polygon fill="#666666" stroke="#666666" points="212.5,-237.5 212.5,-237.5 289.5,-237.5 289.5,-237.5 212.5,-237.5"/>
<polygon fill="#666666" stroke="#666666" points="212.5,-222.5 212.5,-222.5 289.5,-222.5 289.5,-222.5 212.5,-222.5"/>
<polygon fill="none" stroke="#666666" points="212,-206 212,-255 289,-255 289,-206 212,-206"/>
</a>
</g>
</g>
<!-- Node4&#45;&gt;Node1 -->
<g id="edge3_Node000001_Node000004" class="edge">
<title>Node4&#45;&gt;Node1</title>
<g id="a_edge3_Node000001_Node000004"><a xlink:title=" ">
<path fill="none" stroke="#63b8ff" d="M250.52,-205.75C249.77,-175.13 245.83,-120.73 228.5,-78 227.49,-75.5 226.31,-73 225.02,-70.54"/>
<polygon fill="none" stroke="#63b8ff" points="224.91,-70.36 218.4,-67.26 218.76,-60.06 225.27,-63.16 224.91,-70.36"/>
</a>
</g>
<text text-anchor="middle" x="293.5" y="-180" font-family="Helvetica,sans-Serif" font-size="10.00" fill="grey"> +G64</text>
<text text-anchor="middle" x="293.5" y="-169" font-family="Helvetica,sans-Serif" font-size="10.00" fill="grey">+free_height</text>
<text text-anchor="middle" x="293.5" y="-158" font-family="Helvetica,sans-Serif" font-size="10.00" fill="grey">+helix_diameter</text>
<text text-anchor="middle" x="293.5" y="-147" font-family="Helvetica,sans-Serif" font-size="10.00" fill="grey">+merge_dist</text>
<text text-anchor="start" x="249.5" y="-136" font-family="Helvetica,sans-Serif" font-size="10.00" fill="grey">+protect_vertical</text>
<text text-anchor="middle" x="293.5" y="-125" font-family="Helvetica,sans-Serif" font-size="10.00" fill="grey">_limit</text>
<text text-anchor="middle" x="293.5" y="-114" font-family="Helvetica,sans-Serif" font-size="10.00" fill="grey">+ramp_in_angle</text>
<text text-anchor="middle" x="293.5" y="-103" font-family="Helvetica,sans-Serif" font-size="10.00" fill="grey">+ramp_out_angle</text>
<text text-anchor="middle" x="293.5" y="-92" font-family="Helvetica,sans-Serif" font-size="10.00" fill="grey">+retract_height</text>
<text text-anchor="middle" x="293.5" y="-81" font-family="Helvetica,sans-Serif" font-size="10.00" fill="grey">+retract_radius</text>
</g>
<!-- Node5 -->
<g id="Node000005" class="node">
<title>Node5</title>
<g id="a_Node000005"><a xlink:title=" ">
<polygon fill="white" stroke="transparent" points="398.5,-255 324.5,-255 324.5,-206 398.5,-206 398.5,-255"/>
<text text-anchor="start" x="329.5" y="-242.5" font-family="Helvetica,sans-Serif" font-size="10.00">BoolProperty</text>
<text text-anchor="start" x="359.5" y="-227.5" font-family="Helvetica,sans-Serif" font-size="10.00"> </text>
<text text-anchor="start" x="359.5" y="-212.5" font-family="Helvetica,sans-Serif" font-size="10.00"> </text>
<polygon fill="#666666" stroke="#666666" points="324.5,-237.5 324.5,-237.5 398.5,-237.5 398.5,-237.5 324.5,-237.5"/>
<polygon fill="#666666" stroke="#666666" points="324.5,-222.5 324.5,-222.5 398.5,-222.5 398.5,-222.5 324.5,-222.5"/>
<polygon fill="none" stroke="#666666" points="324.5,-206 324.5,-255 398.5,-255 398.5,-206 324.5,-206"/>
</a>
</g>
</g>
<!-- Node5&#45;&gt;Node1 -->
<g id="edge4_Node000001_Node000005" class="edge">
<title>Node5&#45;&gt;Node1</title>
<g id="a_edge4_Node000001_Node000005"><a xlink:title=" ">
<path fill="none" stroke="#63b8ff" d="M365.11,-205.95C368.73,-173.28 370.01,-114.16 339.5,-78 326.16,-62.19 307.45,-51.65 287.9,-44.64"/>
<polygon fill="none" stroke="#63b8ff" points="287.74,-44.59 280.8,-46.56 276.32,-40.91 283.25,-38.94 287.74,-44.59"/>
</a>
</g>
<text text-anchor="middle" x="416.5" y="-169" font-family="Helvetica,sans-Serif" font-size="10.00" fill="grey"> +helix_enter</text>
<text text-anchor="middle" x="416.5" y="-158" font-family="Helvetica,sans-Serif" font-size="10.00" fill="grey">+parallel_step_back</text>
<text text-anchor="middle" x="416.5" y="-147" font-family="Helvetica,sans-Serif" font-size="10.00" fill="grey">+protect_vertical</text>
<text text-anchor="middle" x="416.5" y="-136" font-family="Helvetica,sans-Serif" font-size="10.00" fill="grey">+ramp</text>
<text text-anchor="middle" x="416.5" y="-125" font-family="Helvetica,sans-Serif" font-size="10.00" fill="grey">+ramp_out</text>
<text text-anchor="middle" x="416.5" y="-114" font-family="Helvetica,sans-Serif" font-size="10.00" fill="grey">+retract_tangential</text>
<text text-anchor="middle" x="416.5" y="-103" font-family="Helvetica,sans-Serif" font-size="10.00" fill="grey">+stay_low</text>
<text text-anchor="middle" x="416.5" y="-92" font-family="Helvetica,sans-Serif" font-size="10.00" fill="grey">+useG64</text>
</g>
</g>
</svg>
