<?xml version="1.0" encoding="UTF-8" standalone="no"?>
<!DOCTYPE svg PUBLIC "-//W3C//DTD SVG 1.1//EN"
 "http://www.w3.org/Graphics/SVG/1.1/DTD/svg11.dtd">
<!-- Generated by graphviz version 2.43.0 (0)
 -->
<!-- Title: cam.ui_panels.optimisation.CAM_OPTIMISATION_Panel Pages: 1 -->
<!--zoomable 559 -->

<svg id="main" version="1.1" xmlns="http://www.w3.org/2000/svg" xmlns:xlink="http://www.w3.org/1999/xlink" xml:space="preserve" onload="init(evt)">
<style type="text/css"><![CDATA[
.node, .edge {opacity: 0.7;}
.node.selected, .edge.selected {opacity: 1;}
.edge:hover path { stroke: red; }
.edge:hover polygon { stroke: red; fill: red; }
]]></style>

<defs>
  <circle id="rim" cx="0" cy="0" r="7"/>
  <circle id="rim2" cx="0" cy="0" r="3.5"/>
  <g id="zoomPlus">
    <use xlink:href="#rim" fill="#404040"><set attributeName="fill" to="#808080" begin="zoomplus.mouseover" end="zoomplus.mouseout"/></use>
    <path d="M-4,0h8M0,-4v8" fill="none" stroke="white" stroke-width="1.5" pointer-events="none"/>
  </g>
  <g id="zoomMin">
    <use xlink:href="#rim" fill="#404040"><set attributeName="fill" to="#808080" begin="zoomminus.mouseover" end="zoomminus.mouseout"/></use>
    <path d="M-4,0h8" fill="none" stroke="white" stroke-width="1.5" pointer-events="none"/>
  </g>
  <g id="arrowUp" transform="translate(30 24)">
    <use xlink:href="#rim"/>
    <path pointer-events="none" fill="none" stroke="white" stroke-width="1.5" d="M0,-3.0v7 M-2.5,-0.5L0,-3.0L2.5,-0.5"/>
  </g>
  <g id="arrowRight" transform="rotate(90) translate(36 -43)">
    <use xlink:href="#rim"/>
    <path pointer-events="none" fill="none" stroke="white" stroke-width="1.5" d="M0,-3.0v7 M-2.5,-0.5L0,-3.0L2.5,-0.5"/>
  </g>
  <g id="arrowDown" transform="rotate(180) translate(-30 -48)">
    <use xlink:href="#rim"/>
    <path pointer-events="none" fill="none" stroke="white" stroke-width="1.5" d="M0,-3.0v7 M-2.5,-0.5L0,-3.0L2.5,-0.5"/>
  </g>
  <g id="arrowLeft" transform="rotate(270) translate(-36 17)">
    <use xlink:href="#rim"/>
    <path pointer-events="none" fill="none" stroke="white" stroke-width="1.5" d="M0,-3.0v7 M-2.5,-0.5L0,-3.0L2.5,-0.5"/>
  </g>
  <g id="resetDef">
    <use xlink:href="#rim2" fill="#404040"><set attributeName="fill" to="#808080" begin="reset.mouseover" end="reset.mouseout"/></use>
  </g>
</defs>
<script type="application/ecmascript">
var viewWidth = 418;
var viewHeight = 559;
var sectionId = 'dynsection-1';
</script>
<script type="application/ecmascript" xlink:href="svg.min.js"/>
<svg id="graph" class="graph">
<g id="viewport">
<title>cam.ui_panels.optimisation.CAM_OPTIMISATION_Panel</title>
<!-- Node1 -->
<g id="Node000001" class="node">
<title>Node1</title>
<g id="a_Node000001"><a xlink:title=" ">
<polygon fill="#999999" stroke="transparent" points="319.66,-221 170.66,-221 170.66,0 319.66,0 319.66,-221"/>
<text text-anchor="start" x="176.16" y="-208.5" font-family="Helvetica,sans-Serif" font-size="10.00">cam.ui_panels.optimisation.</text>
<text text-anchor="start" x="180.16" y="-197.5" font-family="Helvetica,sans-Serif" font-size="10.00">CAM_OPTIMISATION_Panel</text>
<text text-anchor="start" x="176.66" y="-182.5" font-family="Helvetica,sans-Serif" font-size="10.00">+</text>
<text text-anchor="start" x="191.16" y="-182.5" font-family="Helvetica,sans-Serif" font-size="10.00">exact_possible</text>
<text text-anchor="start" x="176.66" y="-167.5" font-family="Helvetica,sans-Serif" font-size="10.00">+</text>
<text text-anchor="start" x="191.16" y="-167.5" font-family="Helvetica,sans-Serif" font-size="10.00">op</text>
<text text-anchor="start" x="176.66" y="-152.5" font-family="Helvetica,sans-Serif" font-size="10.00">+</text>
<text text-anchor="start" x="191.16" y="-152.5" font-family="Helvetica,sans-Serif" font-size="10.00">context</text>
<text text-anchor="start" x="176.66" y="-137.5" font-family="Helvetica,sans-Serif" font-size="10.00">+</text>
<text text-anchor="start" x="191.16" y="-137.5" font-family="Helvetica,sans-Serif" font-size="10.00">draw_optimize()</text>
<text text-anchor="start" x="176.66" y="-122.5" font-family="Helvetica,sans-Serif" font-size="10.00">+</text>
<text text-anchor="start" x="191.16" y="-122.5" font-family="Helvetica,sans-Serif" font-size="10.00">draw_exact_mode()</text>
<text text-anchor="start" x="176.66" y="-107.5" font-family="Helvetica,sans-Serif" font-size="10.00">+</text>
<text text-anchor="start" x="191.16" y="-107.5" font-family="Helvetica,sans-Serif" font-size="10.00">draw_use_opencamlib()</text>
<text text-anchor="start" x="176.66" y="-92.5" font-family="Helvetica,sans-Serif" font-size="10.00">+</text>
<text text-anchor="start" x="191.16" y="-92.5" font-family="Helvetica,sans-Serif" font-size="10.00">draw_simulation_detail()</text>
<text text-anchor="start" x="176.66" y="-77.5" font-family="Helvetica,sans-Serif" font-size="10.00">+</text>
<text text-anchor="start" x="191.16" y="-77.5" font-family="Helvetica,sans-Serif" font-size="10.00">draw_simplify_gcode()</text>
<text text-anchor="start" x="176.66" y="-62.5" font-family="Helvetica,sans-Serif" font-size="10.00">+</text>
<text text-anchor="start" x="191.16" y="-62.5" font-family="Helvetica,sans-Serif" font-size="10.00">draw_use_modifiers()</text>
<text text-anchor="start" x="176.66" y="-47.5" font-family="Helvetica,sans-Serif" font-size="10.00">+</text>
<text text-anchor="start" x="191.16" y="-47.5" font-family="Helvetica,sans-Serif" font-size="10.00">draw_hide_all_others()</text>
<text text-anchor="start" x="176.66" y="-32.5" font-family="Helvetica,sans-Serif" font-size="10.00">+</text>
<text text-anchor="start" x="191.16" y="-32.5" font-family="Helvetica,sans-Serif" font-size="10.00">draw_parent_path_to</text>
<text text-anchor="start" x="191.16" y="-21.5" font-family="Helvetica,sans-Serif" font-size="10.00">_object()</text>
<text text-anchor="start" x="176.66" y="-6.5" font-family="Helvetica,sans-Serif" font-size="10.00">+</text>
<text text-anchor="start" x="191.16" y="-6.5" font-family="Helvetica,sans-Serif" font-size="10.00">draw()</text>
<polygon fill="#666666" stroke="#666666" points="171.16,-192.5 171.16,-192.5 320.16,-192.5 320.16,-192.5 171.16,-192.5"/>
<polygon fill="#666666" stroke="#666666" points="171.16,-147.5 171.16,-147.5 189.16,-147.5 189.16,-147.5 171.16,-147.5"/>
<polygon fill="#666666" stroke="#666666" points="189.16,-147.5 189.16,-147.5 320.16,-147.5 320.16,-147.5 189.16,-147.5"/>
<polygon fill="none" stroke="#666666" points="170.66,0 170.66,-221 319.66,-221 319.66,0 170.66,0"/>
</a>
</g>
</g>
<!-- Node2 -->
<g id="Node000002" class="node">
<title>Node2</title>
<g id="a_Node000002"><a xlink:href="classcam_1_1ui__panels_1_1buttons__panel_1_1CAMButtonsPanel.html" target="_top" xlink:title=" ">
<polygon fill="white" stroke="transparent" points="235.66,-433 92.66,-433 92.66,-268 235.66,-268 235.66,-433"/>
<text text-anchor="start" x="103.66" y="-420.5" font-family="Helvetica,sans-Serif" font-size="10.00">cam.ui_panels.buttons</text>
<text text-anchor="start" x="103.66" y="-409.5" font-family="Helvetica,sans-Serif" font-size="10.00">_panel.CAMButtonsPanel</text>
<text text-anchor="start" x="97.16" y="-394.5" font-family="Helvetica,sans-Serif" font-size="10.00">+</text>
<text text-anchor="start" x="110.16" y="-394.5" font-family="Helvetica,sans-Serif" font-size="10.00">op</text>
<text text-anchor="start" x="97.16" y="-379.5" font-family="Helvetica,sans-Serif" font-size="10.00">+</text>
<text text-anchor="start" x="110.16" y="-379.5" font-family="Helvetica,sans-Serif" font-size="10.00">use_experimental</text>
<text text-anchor="start" x="97.16" y="-364.5" font-family="Helvetica,sans-Serif" font-size="10.00">+</text>
<text text-anchor="start" x="110.16" y="-364.5" font-family="Helvetica,sans-Serif" font-size="10.00">poll()</text>
<text text-anchor="start" x="97.16" y="-349.5" font-family="Helvetica,sans-Serif" font-size="10.00">+</text>
<text text-anchor="start" x="110.16" y="-349.5" font-family="Helvetica,sans-Serif" font-size="10.00">active_operation_index()</text>
<text text-anchor="start" x="97.16" y="-334.5" font-family="Helvetica,sans-Serif" font-size="10.00">+</text>
<text text-anchor="start" x="110.16" y="-334.5" font-family="Helvetica,sans-Serif" font-size="10.00">active_operation()</text>
<text text-anchor="start" x="97.16" y="-319.5" font-family="Helvetica,sans-Serif" font-size="10.00">+</text>
<text text-anchor="start" x="110.16" y="-319.5" font-family="Helvetica,sans-Serif" font-size="10.00">__init__()</text>
<text text-anchor="start" x="97.16" y="-304.5" font-family="Helvetica,sans-Serif" font-size="10.00">+</text>
<text text-anchor="start" x="110.16" y="-304.5" font-family="Helvetica,sans-Serif" font-size="10.00">operations_count()</text>
<text text-anchor="start" x="97.16" y="-289.5" font-family="Helvetica,sans-Serif" font-size="10.00">+</text>
<text text-anchor="start" x="110.16" y="-289.5" font-family="Helvetica,sans-Serif" font-size="10.00">has_operations()</text>
<text text-anchor="start" x="97.16" y="-274.5" font-family="Helvetica,sans-Serif" font-size="10.00">+</text>
<text text-anchor="start" x="110.16" y="-274.5" font-family="Helvetica,sans-Serif" font-size="10.00">has_correct_level()</text>
<polygon fill="#666666" stroke="#666666" points="93.16,-404.5 93.16,-404.5 236.16,-404.5 236.16,-404.5 93.16,-404.5"/>
<polygon fill="#666666" stroke="#666666" points="93.16,-374.5 93.16,-374.5 108.16,-374.5 108.16,-374.5 93.16,-374.5"/>
<polygon fill="#666666" stroke="#666666" points="108.16,-374.5 108.16,-374.5 236.16,-374.5 236.16,-374.5 108.16,-374.5"/>
<polygon fill="none" stroke="#666666" points="92.66,-268 92.66,-433 235.66,-433 235.66,-268 92.66,-268"/>
</a>
</g>
</g>
<!-- Node2&#45;&gt;Node1 -->
<g id="edge1_Node000001_Node000002" class="edge">
<title>Node2&#45;&gt;Node1</title>
<g id="a_edge1_Node000001_Node000002"><a xlink:title=" ">
<path fill="none" stroke="#63b8ff" d="M195.2,-258.28C199.34,-246.13 203.61,-233.57 207.84,-221.15"/>
<polygon fill="none" stroke="#63b8ff" points="191.83,-257.33 191.92,-267.93 198.45,-259.59 191.83,-257.33"/>
</a>
</g>
</g>
<!-- Node3 -->
<g id="Node000003" class="node">
<title>Node3</title>
<g id="a_Node000003"><a xlink:title=" ">
<polygon fill="white" stroke="transparent" points="47.66,-551 24.66,-551 24.66,-502 47.66,-502 47.66,-551"/>
<text text-anchor="start" x="30.16" y="-538.5" font-family="Helvetica,sans-Serif" font-size="10.00">str</text>
<text text-anchor="start" x="34.66" y="-523.5" font-family="Helvetica,sans-Serif" font-size="10.00"> </text>
<text text-anchor="start" x="34.66" y="-508.5" font-family="Helvetica,sans-Serif" font-size="10.00"> </text>
<polygon fill="#666666" stroke="#666666" points="25.16,-533.5 25.16,-533.5 48.16,-533.5 48.16,-533.5 25.16,-533.5"/>
<polygon fill="#666666" stroke="#666666" points="25.16,-518.5 25.16,-518.5 48.16,-518.5 48.16,-518.5 25.16,-518.5"/>
<polygon fill="none" stroke="#666666" points="24.66,-502 24.66,-551 47.66,-551 47.66,-502 24.66,-502"/>
</a>
</g>
</g>
<!-- Node3&#45;&gt;Node1 -->
<g id="edge6_Node000001_Node000003" class="edge">
<title>Node3&#45;&gt;Node1</title>
<g id="a_edge6_Node000001_Node000003"><a xlink:title=" ">
<path fill="none" stroke="#63b8ff" d="M26.97,-501.79C10.16,-454.3 -20.29,-345.41 20.16,-268 49.46,-211.92 109.04,-171.87 159.53,-146.33"/>
<polygon fill="none" stroke="#63b8ff" points="159.72,-146.24 163.34,-140 170.49,-140.94 166.87,-147.18 159.72,-146.24"/>
</a>
</g>
<text text-anchor="middle" x="51.66" y="-353.5" font-family="Helvetica,sans-Serif" font-size="10.00" fill="grey"> +bl_idname</text>
<text text-anchor="middle" x="51.66" y="-342.5" font-family="Helvetica,sans-Serif" font-size="10.00" fill="grey">+bl_label</text>
</g>
<!-- Node3&#45;&gt;Node2 -->
<g id="edge2_Node000002_Node000003" class="edge">
<title>Node3&#45;&gt;Node2</title>
<g id="a_edge2_Node000002_Node000003"><a xlink:title=" ">
<path fill="none" stroke="#63b8ff" d="M47.09,-501.86C54.48,-486.8 64.91,-467.14 76.16,-451 79.01,-446.9 82.01,-442.79 85.12,-438.68"/>
<polygon fill="none" stroke="#63b8ff" points="85.16,-438.63 85.68,-431.44 92.52,-429.15 92,-436.34 85.16,-438.63"/>
</a>
</g>
<text text-anchor="middle" x="116.66" y="-476" font-family="Helvetica,sans-Serif" font-size="10.00" fill="grey"> +bl_context</text>
<text text-anchor="middle" x="116.66" y="-465" font-family="Helvetica,sans-Serif" font-size="10.00" fill="grey">+bl_region_type</text>
<text text-anchor="middle" x="116.66" y="-454" font-family="Helvetica,sans-Serif" font-size="10.00" fill="grey">+bl_space_type</text>
</g>
<!-- Node4 -->
<g id="Node000004" class="node">
<title>Node4</title>
<g id="a_Node000004"><a xlink:title=" ">
<polygon fill="white" stroke="transparent" points="176.16,-551 144.16,-551 144.16,-502 176.16,-502 176.16,-551"/>
<text text-anchor="start" x="149.16" y="-538.5" font-family="Helvetica,sans-Serif" font-size="10.00">bool</text>
<text text-anchor="start" x="158.16" y="-523.5" font-family="Helvetica,sans-Serif" font-size="10.00"> </text>
<text text-anchor="start" x="158.16" y="-508.5" font-family="Helvetica,sans-Serif" font-size="10.00"> </text>
<polygon fill="#666666" stroke="#666666" points="144.16,-533.5 144.16,-533.5 176.16,-533.5 176.16,-533.5 144.16,-533.5"/>
<polygon fill="#666666" stroke="#666666" points="144.16,-518.5 144.16,-518.5 176.16,-518.5 176.16,-518.5 144.16,-518.5"/>
<polygon fill="none" stroke="#666666" points="144.16,-502 144.16,-551 176.16,-551 176.16,-502 144.16,-502"/>
</a>
</g>
</g>
<!-- Node4&#45;&gt;Node2 -->
<g id="edge3_Node000002_Node000004" class="edge">
<title>Node4&#45;&gt;Node2</title>
<g id="a_edge3_Node000002_Node000004"><a xlink:title=" ">
<path fill="none" stroke="#63b8ff" d="M160.38,-501.68C160.53,-487.05 160.79,-467.94 161.16,-451 161.2,-449.1 161.24,-447.18 161.29,-445.25"/>
<polygon fill="none" stroke="#63b8ff" points="161.29,-445.21 157.44,-439.12 161.58,-433.22 165.43,-439.31 161.29,-445.21"/>
</a>
</g>
<text text-anchor="middle" x="215.66" y="-465" font-family="Helvetica,sans-Serif" font-size="10.00" fill="grey"> +always_show_panel</text>
</g>
<!-- Node5 -->
<g id="Node000005" class="node">
<title>Node5</title>
<g id="a_Node000005"><a xlink:title=" ">
<polygon fill="white" stroke="transparent" points="306.66,-551 277.66,-551 277.66,-502 306.66,-502 306.66,-551"/>
<text text-anchor="start" x="283.16" y="-538.5" font-family="Helvetica,sans-Serif" font-size="10.00">dict</text>
<text text-anchor="start" x="290.66" y="-523.5" font-family="Helvetica,sans-Serif" font-size="10.00"> </text>
<text text-anchor="start" x="290.66" y="-508.5" font-family="Helvetica,sans-Serif" font-size="10.00"> </text>
<polygon fill="#666666" stroke="#666666" points="278.16,-533.5 278.16,-533.5 307.16,-533.5 307.16,-533.5 278.16,-533.5"/>
<polygon fill="#666666" stroke="#666666" points="278.16,-518.5 278.16,-518.5 307.16,-518.5 307.16,-518.5 278.16,-518.5"/>
<polygon fill="none" stroke="#666666" points="277.66,-502 277.66,-551 306.66,-551 306.66,-502 277.66,-502"/>
</a>
</g>
</g>
<!-- Node5&#45;&gt;Node2 -->
<g id="edge4_Node000002_Node000005" class="edge">
<title>Node5&#45;&gt;Node2</title>
<g id="a_edge4_Node000002_Node000005"><a xlink:title=" ">
<path fill="none" stroke="#63b8ff" d="M289.24,-501.94C286.4,-486.35 280.85,-466.07 270.16,-451 262.24,-439.83 255.57,-441.89 245.16,-433 245.06,-432.92 244.97,-432.84 244.87,-432.76"/>
<polygon fill="none" stroke="#63b8ff" points="245.03,-432.9 237.88,-431.95 236.01,-424.98 243.16,-425.93 245.03,-432.9"/>
</a>
</g>
<text text-anchor="middle" x="334.66" y="-465" font-family="Helvetica,sans-Serif" font-size="10.00" fill="grey"> +COMPAT_ENGINES</text>
</g>
<!-- Node6 -->
<g id="Node000006" class="node">
<title>Node6</title>
<g id="a_Node000006"><a xlink:title=" ">
<polygon fill="white" stroke="transparent" points="290.66,-375 253.66,-375 253.66,-326 290.66,-326 290.66,-375"/>
<text text-anchor="start" x="259.16" y="-362.5" font-family="Helvetica,sans-Serif" font-size="10.00">Panel</text>
<text text-anchor="start" x="270.66" y="-347.5" font-family="Helvetica,sans-Serif" font-size="10.00"> </text>
<text text-anchor="start" x="270.66" y="-332.5" font-family="Helvetica,sans-Serif" font-size="10.00"> </text>
<polygon fill="#666666" stroke="#666666" points="254.16,-357.5 254.16,-357.5 291.16,-357.5 291.16,-357.5 254.16,-357.5"/>
<polygon fill="#666666" stroke="#666666" points="254.16,-342.5 254.16,-342.5 291.16,-342.5 291.16,-342.5 254.16,-342.5"/>
<polygon fill="none" stroke="#666666" points="253.66,-326 253.66,-375 290.66,-375 290.66,-326 253.66,-326"/>
</a>
</g>
</g>
<!-- Node6&#45;&gt;Node1 -->
<g id="edge5_Node000001_Node000006" class="edge">
<title>Node6&#45;&gt;Node1</title>
<g id="a_edge5_Node000001_Node000006"><a xlink:title=" ">
<path fill="none" stroke="#63b8ff" d="M268.34,-315.82C265.51,-290.92 261.5,-255.53 257.6,-221.17"/>
<polygon fill="none" stroke="#63b8ff" points="264.86,-316.27 269.47,-325.81 271.82,-315.48 264.86,-316.27"/>
</a>
</g>
</g>
<!-- Node7 -->
<g id="Node000007" class="node">
<title>Node7</title>
<g id="a_Node000007"><a xlink:title=" ">
<polygon fill="white" stroke="transparent" points="331.66,-375 308.66,-375 308.66,-326 331.66,-326 331.66,-375"/>
<text text-anchor="start" x="314.16" y="-362.5" font-family="Helvetica,sans-Serif" font-size="10.00">int</text>
<text text-anchor="start" x="318.66" y="-347.5" font-family="Helvetica,sans-Serif" font-size="10.00"> </text>
<text text-anchor="start" x="318.66" y="-332.5" font-family="Helvetica,sans-Serif" font-size="10.00"> </text>
<polygon fill="#666666" stroke="#666666" points="309.16,-357.5 309.16,-357.5 332.16,-357.5 332.16,-357.5 309.16,-357.5"/>
<polygon fill="#666666" stroke="#666666" points="309.16,-342.5 309.16,-342.5 332.16,-342.5 332.16,-342.5 309.16,-342.5"/>
<polygon fill="none" stroke="#666666" points="308.66,-326 308.66,-375 331.66,-375 331.66,-326 308.66,-326"/>
</a>
</g>
</g>
<!-- Node7&#45;&gt;Node1 -->
<g id="edge7_Node000001_Node000007" class="edge">
<title>Node7&#45;&gt;Node1</title>
<g id="a_edge7_Node000001_Node000007"><a xlink:title=" ">
<path fill="none" stroke="#63b8ff" d="M314.98,-325.8C311.26,-309.45 305.89,-287.27 300.16,-268 296.77,-256.61 293.04,-244.83 289.18,-233.08"/>
<polygon fill="none" stroke="#63b8ff" points="289.07,-232.74 283.37,-228.31 285.27,-221.36 290.97,-225.79 289.07,-232.74"/>
</a>
</g>
<text text-anchor="middle" x="351.66" y="-242" font-family="Helvetica,sans-Serif" font-size="10.00" fill="grey"> +panel_interface_level</text>
</g>
</g>
</svg>

<g id="navigator" transform="translate(0 0)" fill="#404254">
  <rect fill="#f2f5e9" fill-opacity="0.5" stroke="#606060" stroke-width=".5" x="0" y="0" width="60" height="60"/>
  <use id="zoomplus" xlink:href="#zoomPlus" x="17" y="9" onmousedown="handleZoom(evt,'in')"/>
  <use id="zoomminus" xlink:href="#zoomMin" x="42" y="9" onmousedown="handleZoom(evt,'out')"/>
  <use id="reset" xlink:href="#resetDef" x="30" y="36" onmousedown="handleReset()"/>
   <use id="arrowup" xlink:href="#arrowUp" x="0" y="0" onmousedown="handlePan(0,-1)"/>
  <use id="arrowright" xlink:href="#arrowRight" x="0" y="0" onmousedown="handlePan(1,0)"/>
  <use id="arrowdown" xlink:href="#arrowDown" x="0" y="0" onmousedown="handlePan(0,1)"/>
  <use id="arrowleft" xlink:href="#arrowLeft" x="0" y="0" onmousedown="handlePan(-1,0)"/>
</g>
<svg viewBox="0 0 15 15" width="100%" height="30px" preserveAspectRatio="xMaxYMin meet">
 <g id="arrow_out" transform="scale(0.3 0.3)">
  <a xlink:href="classcam_1_1ui__panels_1_1optimisation_1_1CAM__OPTIMISATION__Panel__coll__graph_org.svg" target="_base">
   <rect id="button" ry="5" rx="5" y="6" x="6" height="38" width="38"
        fill="#f2f5e9" fill-opacity="0.5" stroke="#606060" stroke-width="1.0"/>
   <path id="arrow"
     d="M 11.500037,31.436501 C 11.940474,20.09759 22.043105,11.32322 32.158766,21.979434 L 37.068811,17.246167 C 37.068811,17.246167 37.088388,32 37.088388,32 L 22.160133,31.978069 C 22.160133,31.978069 26.997745,27.140456 26.997745,27.140456 C 18.528582,18.264221 13.291696,25.230495 11.500037,31.436501 z"
     style="fill:#404040;"/>
  </a>
 </g>
</svg>

<style type='text/css'>
<![CDATA[
[data-mouse-over-selected='false'] { opacity: 0.7; }
[data-mouse-over-selected='true']  { opacity: 1.0; }
]]>
</style>
<script type="application/ecmascript"><![CDATA[
document.addEventListener('DOMContentLoaded', (event) => {
  highlightEdges();
  highlightAdjacentNodes();
});
]]></script>
</svg>
