<?xml version="1.0" encoding="UTF-8" standalone="no"?>
<!DOCTYPE svg PUBLIC "-//W3C//DTD SVG 1.1//EN"
 "http://www.w3.org/Graphics/SVG/1.1/DTD/svg11.dtd">
<!-- Generated by graphviz version 2.43.0 (0)
 -->
<!-- Title: cam.nc.heiden.Creator.IMPERIAL Pages: 1 -->
<svg width="619pt" height="150pt"
 viewBox="0.00 0.00 619.00 149.50" xmlns="http://www.w3.org/2000/svg" xmlns:xlink="http://www.w3.org/1999/xlink">
<g id="graph0" class="graph" transform="scale(1 1) rotate(0) translate(4 145.5)">
<title>cam.nc.heiden.Creator.IMPERIAL</title>
<!-- Node1 -->
<g id="Node000001" class="node">
<title>Node1</title>
<g id="a_Node000001"><a xlink:title=" ">
<polygon fill="#999999" stroke="#666666" points="611,-74 436,-74 436,-55 611,-55 611,-74"/>
<text text-anchor="middle" x="523.5" y="-62" font-family="Helvetica,sans-Serif" font-size="10.00">cam.nc.heiden.Creator.IMPERIAL</text>
</a>
</g>
</g>
<!-- Node2 -->
<g id="Node000002" class="node">
<title>Node2</title>
<g id="a_Node000002"><a xlink:href="classcam_1_1nc_1_1anilam__crusader__m_1_1Creator.html#ade0985eb2a1d204aae252d78712763df" target="_top" xlink:title="Settings.">
<polygon fill="white" stroke="#666666" points="383,-141.5 247,-141.5 247,-111.5 383,-111.5 383,-141.5"/>
<text text-anchor="start" x="255" y="-129.5" font-family="Helvetica,sans-Serif" font-size="10.00">cam.nc.anilam_crusader</text>
<text text-anchor="middle" x="315" y="-118.5" font-family="Helvetica,sans-Serif" font-size="10.00">_m.Creator.imperial</text>
</a>
</g>
</g>
<!-- Node1&#45;&gt;Node2 -->
<g id="edge1_Node000001_Node000002" class="edge">
<title>Node1&#45;&gt;Node2</title>
<g id="a_edge1_Node000001_Node000002"><a xlink:title=" ">
<path fill="none" stroke="#63b8ff" d="M482.57,-77.14C458.66,-84.64 427.64,-94.27 400,-102.5 390.12,-105.44 379.56,-108.52 369.38,-111.44"/>
<polygon fill="#63b8ff" stroke="#63b8ff" points="483.86,-80.4 492.35,-74.06 481.76,-73.72 483.86,-80.4"/>
</a>
</g>
</g>
<!-- Node4 -->
<g id="Node000004" class="node">
<title>Node4</title>
<g id="a_Node000004"><a xlink:href="classcam_1_1nc_1_1emc2_1_1Creator.html#a2355245999a9f13472dadbaeff524676" target="_top" xlink:title="Settings.">
<polygon fill="white" stroke="#666666" points="397,-93 233,-93 233,-74 397,-74 397,-93"/>
<text text-anchor="middle" x="315" y="-81" font-family="Helvetica,sans-Serif" font-size="10.00">cam.nc.emc2.Creator.imperial</text>
</a>
</g>
</g>
<!-- Node1&#45;&gt;Node4 -->
<g id="edge4_Node000001_Node000004" class="edge">
<title>Node1&#45;&gt;Node4</title>
<g id="a_edge4_Node000001_Node000004"><a xlink:title=" ">
<path fill="none" stroke="#63b8ff" d="M425.86,-73.39C416.27,-74.27 406.6,-75.16 397.18,-76.03"/>
<polygon fill="#63b8ff" stroke="#63b8ff" points="426.19,-76.88 435.82,-72.48 425.54,-69.91 426.19,-76.88"/>
</a>
</g>
</g>
<!-- Node5 -->
<g id="Node000005" class="node">
<title>Node5</title>
<g id="a_Node000005"><a xlink:href="classcam_1_1nc_1_1heiden_1_1Creator.html#a18bb11b58c955f218e0e134133b3f433" target="_top" xlink:title="Settings.">
<polygon fill="white" stroke="#666666" points="400,-56 230,-56 230,-37 400,-37 400,-56"/>
<text text-anchor="middle" x="315" y="-44" font-family="Helvetica,sans-Serif" font-size="10.00">cam.nc.heiden.Creator.imperial</text>
</a>
</g>
</g>
<!-- Node1&#45;&gt;Node5 -->
<g id="edge6_Node000001_Node000005" class="edge">
<title>Node1&#45;&gt;Node5</title>
<g id="a_edge6_Node000001_Node000005"><a xlink:title=" ">
<path fill="none" stroke="#63b8ff" d="M425.8,-56.07C417.23,-55.32 408.6,-54.57 400.14,-53.83"/>
<polygon fill="#63b8ff" stroke="#63b8ff" points="425.56,-59.56 435.82,-56.94 426.16,-52.59 425.56,-59.56"/>
</a>
</g>
</g>
<!-- Node6 -->
<g id="Node000006" class="node">
<title>Node6</title>
<g id="a_Node000006"><a xlink:href="classcam_1_1nc_1_1iso_1_1Creator.html#a7d08a644f2310071134f7cea7e8bb7b1" target="_top" xlink:title="Settings.">
<polygon fill="white" stroke="#666666" points="390.5,-19 239.5,-19 239.5,0 390.5,0 390.5,-19"/>
<text text-anchor="middle" x="315" y="-7" font-family="Helvetica,sans-Serif" font-size="10.00">cam.nc.iso.Creator.imperial</text>
</a>
</g>
</g>
<!-- Node1&#45;&gt;Node6 -->
<g id="edge8_Node000001_Node000006" class="edge">
<title>Node1&#45;&gt;Node6</title>
<g id="a_edge8_Node000001_Node000006"><a xlink:title=" ">
<path fill="none" stroke="#63b8ff" d="M482.19,-51.96C458.39,-44.72 427.6,-35.67 400,-28.5 387.27,-25.19 373.36,-21.91 360.59,-19.03"/>
<polygon fill="#63b8ff" stroke="#63b8ff" points="481.35,-55.36 491.94,-54.93 483.4,-48.66 481.35,-55.36"/>
</a>
</g>
</g>
<!-- Node3 -->
<g id="Node000003" class="node">
<title>Node3</title>
<g id="a_Node000003"><a xlink:href="classcam_1_1nc_1_1recreator_1_1Redirector.html#aac89af9940b239a0231eaf6d86be2c28" target="_top" xlink:title="Settings.">
<polygon fill="white" stroke="#666666" points="194,-74 0,-74 0,-55 194,-55 194,-74"/>
<text text-anchor="middle" x="97" y="-62" font-family="Helvetica,sans-Serif" font-size="10.00">cam.nc.recreator.Redirector.imperial</text>
</a>
</g>
</g>
<!-- Node2&#45;&gt;Node3 -->
<g id="edge2_Node000002_Node000003" class="edge">
<title>Node2&#45;&gt;Node3</title>
<g id="a_edge2_Node000002_Node000003"><a xlink:title=" ">
<path fill="none" stroke="#63b8ff" d="M251.36,-108.62C244.15,-106.56 236.92,-104.48 230,-102.5 196.3,-92.84 157.78,-81.74 131.09,-74.04"/>
<polygon fill="#63b8ff" stroke="#63b8ff" points="250.54,-112.02 261.12,-111.41 252.47,-105.29 250.54,-112.02"/>
</a>
</g>
</g>
<!-- Node3&#45;&gt;Node3 -->
<g id="edge3_Node000003_Node000003" class="edge">
<title>Node3&#45;&gt;Node3</title>
<g id="a_edge3_Node000003_Node000003"><a xlink:title=" ">
<path fill="none" stroke="#63b8ff" d="M137.86,-81.31C138.47,-87.21 124.85,-92 97,-92 58.25,-92 47.05,-82.73 63.4,-74.08"/>
<polygon fill="#63b8ff" stroke="#63b8ff" points="140.16,-78.66 130.6,-74.08 135.22,-83.62 140.16,-78.66"/>
</a>
</g>
</g>
<!-- Node4&#45;&gt;Node3 -->
<g id="edge5_Node000004_Node000003" class="edge">
<title>Node4&#45;&gt;Node3</title>
<g id="a_edge5_Node000004_Node000003"><a xlink:title=" ">
<path fill="none" stroke="#63b8ff" d="M222.75,-75.47C213.26,-74.64 203.6,-73.79 194.06,-72.95"/>
<polygon fill="#63b8ff" stroke="#63b8ff" points="222.69,-78.98 232.96,-76.37 223.3,-72.01 222.69,-78.98"/>
</a>
</g>
</g>
<!-- Node5&#45;&gt;Node3 -->
<g id="edge7_Node000005_Node000003" class="edge">
<title>Node5&#45;&gt;Node3</title>
<g id="a_edge7_Node000005_Node000003"><a xlink:title=" ">
<path fill="none" stroke="#63b8ff" d="M219.89,-54.34C211.34,-55.06 202.67,-55.78 194.09,-56.49"/>
<polygon fill="#63b8ff" stroke="#63b8ff" points="220.2,-57.83 229.87,-53.51 219.61,-50.85 220.2,-57.83"/>
</a>
</g>
</g>
<!-- Node6&#45;&gt;Node3 -->
<g id="edge9_Node000006_Node000003" class="edge">
<title>Node6&#45;&gt;Node3</title>
<g id="a_edge9_Node000006_Node000003"><a xlink:title=" ">
<path fill="none" stroke="#63b8ff" d="M260.03,-21.34C250.03,-23.64 239.68,-26.09 230,-28.5 196.23,-36.92 157.89,-47.49 131.26,-55"/>
<polygon fill="#63b8ff" stroke="#63b8ff" points="260.91,-24.73 269.88,-19.1 259.36,-17.9 260.91,-24.73"/>
</a>
</g>
</g>
</g>
</svg>
