<?xml version="1.0" encoding="UTF-8" standalone="no"?>
<!DOCTYPE svg PUBLIC "-//W3C//DTD SVG 1.1//EN"
 "http://www.w3.org/Graphics/SVG/1.1/DTD/svg11.dtd">
<!-- Generated by graphviz version 2.43.0 (0)
 -->
<!-- Title: cam.voronoi.Context.getClipPolygons Pages: 1 -->
<svg width="362pt" height="101pt"
 viewBox="0.00 0.00 362.00 101.00" xmlns="http://www.w3.org/2000/svg" xmlns:xlink="http://www.w3.org/1999/xlink">
<g id="graph0" class="graph" transform="scale(1 1) rotate(0) translate(4 97)">
<title>cam.voronoi.Context.getClipPolygons</title>
<!-- Node1 -->
<g id="Node000001" class="node">
<title>Node1</title>
<g id="a_Node000001"><a xlink:title=" ">
<polygon fill="#999999" stroke="#666666" points="156,-61.5 0,-61.5 0,-31.5 156,-31.5 156,-61.5"/>
<text text-anchor="start" x="8" y="-49.5" font-family="Helvetica,sans-Serif" font-size="10.00">cam.voronoi.Context.getClip</text>
<text text-anchor="middle" x="78" y="-38.5" font-family="Helvetica,sans-Serif" font-size="10.00">Polygons</text>
</a>
</g>
</g>
<!-- Node2 -->
<g id="Node000002" class="node">
<title>Node2</title>
<g id="a_Node000002"><a xlink:href="classcam_1_1voronoi_1_1Context.html#ac17a9b09895f8a8613139081b39451ba" target="_top" xlink:title=" ">
<polygon fill="white" stroke="#666666" points="352.5,-93 193.5,-93 193.5,-74 352.5,-74 352.5,-93"/>
<text text-anchor="middle" x="273" y="-81" font-family="Helvetica,sans-Serif" font-size="10.00">cam.voronoi.Context.clipLine</text>
</a>
</g>
</g>
<!-- Node1&#45;&gt;Node2 -->
<g id="edge1_Node000001_Node000002" class="edge">
<title>Node1&#45;&gt;Node2</title>
<g id="a_edge1_Node000001_Node000002"><a xlink:title=" ">
<path fill="none" stroke="#63b8ff" d="M156.11,-61.28C174.72,-64.85 194.33,-68.61 212.02,-72"/>
<polygon fill="#63b8ff" stroke="#63b8ff" points="211.71,-75.51 222.19,-73.95 213.03,-68.63 211.71,-75.51"/>
</a>
</g>
</g>
<!-- Node3 -->
<g id="Node000003" class="node">
<title>Node3</title>
<g id="a_Node000003"><a xlink:href="classcam_1_1voronoi_1_1Context.html#a3a0bfd004006ebf1497ca69e27b5da0b" target="_top" xlink:title=" ">
<polygon fill="white" stroke="#666666" points="354,-56 192,-56 192,-37 354,-37 354,-56"/>
<text text-anchor="middle" x="273" y="-44" font-family="Helvetica,sans-Serif" font-size="10.00">cam.voronoi.Context.inExtent</text>
</a>
</g>
</g>
<!-- Node1&#45;&gt;Node3 -->
<g id="edge2_Node000001_Node000003" class="edge">
<title>Node1&#45;&gt;Node3</title>
<g id="a_edge2_Node000001_Node000003"><a xlink:title=" ">
<path fill="none" stroke="#63b8ff" d="M156.11,-46.5C164.56,-46.5 173.22,-46.5 181.81,-46.5"/>
<polygon fill="#63b8ff" stroke="#63b8ff" points="181.85,-50 191.85,-46.5 181.85,-43 181.85,-50"/>
</a>
</g>
</g>
<!-- Node4 -->
<g id="Node000004" class="node">
<title>Node4</title>
<g id="a_Node000004"><a xlink:href="classcam_1_1voronoi_1_1Context.html#ac034a0490700d5b880ecd2aa9273bb69" target="_top" xlink:title=" ">
<polygon fill="white" stroke="#666666" points="354,-19 192,-19 192,0 354,0 354,-19"/>
<text text-anchor="middle" x="273" y="-7" font-family="Helvetica,sans-Serif" font-size="10.00">cam.voronoi.Context.orderPts</text>
</a>
</g>
</g>
<!-- Node1&#45;&gt;Node4 -->
<g id="edge3_Node000001_Node000004" class="edge">
<title>Node1&#45;&gt;Node4</title>
<g id="a_edge3_Node000001_Node000004"><a xlink:title=" ">
<path fill="none" stroke="#63b8ff" d="M156.11,-31.72C174.72,-28.15 194.33,-24.39 212.02,-21"/>
<polygon fill="#63b8ff" stroke="#63b8ff" points="213.03,-24.37 222.19,-19.05 211.71,-17.49 213.03,-24.37"/>
</a>
</g>
</g>
</g>
</svg>
