<?xml version="1.0" encoding="UTF-8" standalone="no"?>
<!DOCTYPE svg PUBLIC "-//W3C//DTD SVG 1.1//EN"
 "http://www.w3.org/Graphics/SVG/1.1/DTD/svg11.dtd">
<!-- Generated by graphviz version 2.43.0 (0)
 -->
<!-- Title: cam.nc.lathe1.CreatorIso Pages: 1 -->
<svg width="141pt" height="622pt"
 viewBox="0.00 0.00 141.00 622.00" xmlns="http://www.w3.org/2000/svg" xmlns:xlink="http://www.w3.org/1999/xlink">
<g id="graph0" class="graph" transform="scale(1 1) rotate(0) translate(4 618)">
<title>cam.nc.lathe1.CreatorIso</title>
<!-- Node1 -->
<g id="Node000001" class="node">
<title>Node1</title>
<g id="a_Node000001"><a xlink:title=" ">
<polygon fill="#999999" stroke="transparent" points="133,-364 0,-364 0,0 133,0 133,-364"/>
<text text-anchor="start" x="5.5" y="-352" font-family="Helvetica,sans-Serif" font-size="10.00">cam.nc.lathe1.CreatorIso</text>
<text text-anchor="start" x="12" y="-337" font-family="Helvetica,sans-Serif" font-size="10.00">+</text>
<text text-anchor="start" x="32.5" y="-337" font-family="Helvetica,sans-Serif" font-size="10.00">a</text>
<text text-anchor="start" x="12" y="-322" font-family="Helvetica,sans-Serif" font-size="10.00">+</text>
<text text-anchor="start" x="32.5" y="-322" font-family="Helvetica,sans-Serif" font-size="10.00">b</text>
<text text-anchor="start" x="12" y="-307" font-family="Helvetica,sans-Serif" font-size="10.00">+</text>
<text text-anchor="start" x="32.5" y="-307" font-family="Helvetica,sans-Serif" font-size="10.00">c</text>
<text text-anchor="start" x="12" y="-292" font-family="Helvetica,sans-Serif" font-size="10.00">+</text>
<text text-anchor="start" x="32.5" y="-292" font-family="Helvetica,sans-Serif" font-size="10.00">f</text>
<text text-anchor="start" x="12" y="-277" font-family="Helvetica,sans-Serif" font-size="10.00">+</text>
<text text-anchor="start" x="32.5" y="-277" font-family="Helvetica,sans-Serif" font-size="10.00">fh</text>
<text text-anchor="start" x="12" y="-262" font-family="Helvetica,sans-Serif" font-size="10.00">+</text>
<text text-anchor="start" x="32.5" y="-262" font-family="Helvetica,sans-Serif" font-size="10.00">fv</text>
<text text-anchor="start" x="12" y="-247" font-family="Helvetica,sans-Serif" font-size="10.00">+</text>
<text text-anchor="start" x="32.5" y="-247" font-family="Helvetica,sans-Serif" font-size="10.00">fhv</text>
<text text-anchor="start" x="12" y="-232" font-family="Helvetica,sans-Serif" font-size="10.00">+</text>
<text text-anchor="start" x="32.5" y="-232" font-family="Helvetica,sans-Serif" font-size="10.00">g</text>
<text text-anchor="start" x="12" y="-217" font-family="Helvetica,sans-Serif" font-size="10.00">+</text>
<text text-anchor="start" x="32.5" y="-217" font-family="Helvetica,sans-Serif" font-size="10.00">i</text>
<text text-anchor="start" x="12" y="-202" font-family="Helvetica,sans-Serif" font-size="10.00">+</text>
<text text-anchor="start" x="32.5" y="-202" font-family="Helvetica,sans-Serif" font-size="10.00">j</text>
<text text-anchor="start" x="32.5" y="-187" font-family="Helvetica,sans-Serif" font-size="10.00">and 22 more...</text>
<text text-anchor="start" x="12" y="-172" font-family="Helvetica,sans-Serif" font-size="10.00">+</text>
<text text-anchor="start" x="32.5" y="-172" font-family="Helvetica,sans-Serif" font-size="10.00">creator</text>
<text text-anchor="start" x="12" y="-157" font-family="Helvetica,sans-Serif" font-size="10.00">+</text>
<text text-anchor="start" x="32.5" y="-157" font-family="Helvetica,sans-Serif" font-size="10.00">__init__()</text>
<text text-anchor="start" x="12" y="-142" font-family="Helvetica,sans-Serif" font-size="10.00">+</text>
<text text-anchor="start" x="32.5" y="-142" font-family="Helvetica,sans-Serif" font-size="10.00">write_feedrate()</text>
<text text-anchor="start" x="12" y="-127" font-family="Helvetica,sans-Serif" font-size="10.00">+</text>
<text text-anchor="start" x="32.5" y="-127" font-family="Helvetica,sans-Serif" font-size="10.00">write_preps()</text>
<text text-anchor="start" x="12" y="-112" font-family="Helvetica,sans-Serif" font-size="10.00">+</text>
<text text-anchor="start" x="32.5" y="-112" font-family="Helvetica,sans-Serif" font-size="10.00">write_misc()</text>
<text text-anchor="start" x="12" y="-97" font-family="Helvetica,sans-Serif" font-size="10.00">+</text>
<text text-anchor="start" x="32.5" y="-97" font-family="Helvetica,sans-Serif" font-size="10.00">write_spindle()</text>
<text text-anchor="start" x="12" y="-82" font-family="Helvetica,sans-Serif" font-size="10.00">+</text>
<text text-anchor="start" x="32.5" y="-82" font-family="Helvetica,sans-Serif" font-size="10.00">program_begin()</text>
<text text-anchor="start" x="12" y="-67" font-family="Helvetica,sans-Serif" font-size="10.00">+</text>
<text text-anchor="start" x="32.5" y="-67" font-family="Helvetica,sans-Serif" font-size="10.00">program_stop()</text>
<text text-anchor="start" x="12" y="-52" font-family="Helvetica,sans-Serif" font-size="10.00">+</text>
<text text-anchor="start" x="32.5" y="-52" font-family="Helvetica,sans-Serif" font-size="10.00">program_end()</text>
<text text-anchor="start" x="12" y="-37" font-family="Helvetica,sans-Serif" font-size="10.00">+</text>
<text text-anchor="start" x="32.5" y="-37" font-family="Helvetica,sans-Serif" font-size="10.00">flush_nc()</text>
<text text-anchor="start" x="12" y="-22" font-family="Helvetica,sans-Serif" font-size="10.00">+</text>
<text text-anchor="start" x="32.5" y="-22" font-family="Helvetica,sans-Serif" font-size="10.00">sub_begin()</text>
<text text-anchor="start" x="32.5" y="-7" font-family="Helvetica,sans-Serif" font-size="10.00">and 44 more...</text>
<polygon fill="#666666" stroke="#666666" points="0.5,-347 0.5,-347 133.5,-347 133.5,-347 0.5,-347"/>
<polygon fill="#666666" stroke="#666666" points="0.5,-167 0.5,-167 30.5,-167 30.5,-167 0.5,-167"/>
<polygon fill="#666666" stroke="#666666" points="30.5,-167 30.5,-167 133.5,-167 133.5,-167 30.5,-167"/>
<polygon fill="none" stroke="#666666" points="0,0 0,-364 133,-364 133,0 0,0"/>
</a>
</g>
</g>
<!-- Node2 -->
<g id="Node000002" class="node">
<title>Node2</title>
<g id="a_Node000002"><a xlink:href="classcam_1_1nc_1_1nc_1_1Creator.html" target="_top" xlink:title=" ">
<polygon fill="white" stroke="transparent" points="118,-614 15,-614 15,-400 118,-400 118,-614"/>
<text text-anchor="start" x="22.5" y="-602" font-family="Helvetica,sans-Serif" font-size="10.00">cam.nc.nc.Creator</text>
<text text-anchor="start" x="19.5" y="-587" font-family="Helvetica,sans-Serif" font-size="10.00">+</text>
<text text-anchor="start" x="32.5" y="-587" font-family="Helvetica,sans-Serif" font-size="10.00">file</text>
<text text-anchor="start" x="19.5" y="-572" font-family="Helvetica,sans-Serif" font-size="10.00">+</text>
<text text-anchor="start" x="32.5" y="-572" font-family="Helvetica,sans-Serif" font-size="10.00">filename</text>
<text text-anchor="start" x="19.5" y="-557" font-family="Helvetica,sans-Serif" font-size="10.00">+</text>
<text text-anchor="start" x="32.5" y="-557" font-family="Helvetica,sans-Serif" font-size="10.00">__init__()</text>
<text text-anchor="start" x="19.5" y="-542" font-family="Helvetica,sans-Serif" font-size="10.00">+</text>
<text text-anchor="start" x="32.5" y="-542" font-family="Helvetica,sans-Serif" font-size="10.00">file_open()</text>
<text text-anchor="start" x="19.5" y="-527" font-family="Helvetica,sans-Serif" font-size="10.00">+</text>
<text text-anchor="start" x="32.5" y="-527" font-family="Helvetica,sans-Serif" font-size="10.00">file_close()</text>
<text text-anchor="start" x="19.5" y="-512" font-family="Helvetica,sans-Serif" font-size="10.00">+</text>
<text text-anchor="start" x="32.5" y="-512" font-family="Helvetica,sans-Serif" font-size="10.00">write()</text>
<text text-anchor="start" x="19.5" y="-497" font-family="Helvetica,sans-Serif" font-size="10.00">+</text>
<text text-anchor="start" x="32.5" y="-497" font-family="Helvetica,sans-Serif" font-size="10.00">writem()</text>
<text text-anchor="start" x="19.5" y="-482" font-family="Helvetica,sans-Serif" font-size="10.00">+</text>
<text text-anchor="start" x="32.5" y="-482" font-family="Helvetica,sans-Serif" font-size="10.00">program_begin()</text>
<text text-anchor="start" x="19.5" y="-467" font-family="Helvetica,sans-Serif" font-size="10.00">+</text>
<text text-anchor="start" x="32.5" y="-467" font-family="Helvetica,sans-Serif" font-size="10.00">add_stock()</text>
<text text-anchor="start" x="19.5" y="-452" font-family="Helvetica,sans-Serif" font-size="10.00">+</text>
<text text-anchor="start" x="32.5" y="-452" font-family="Helvetica,sans-Serif" font-size="10.00">program_stop()</text>
<text text-anchor="start" x="19.5" y="-437" font-family="Helvetica,sans-Serif" font-size="10.00">+</text>
<text text-anchor="start" x="32.5" y="-437" font-family="Helvetica,sans-Serif" font-size="10.00">program_end()</text>
<text text-anchor="start" x="19.5" y="-422" font-family="Helvetica,sans-Serif" font-size="10.00">+</text>
<text text-anchor="start" x="32.5" y="-422" font-family="Helvetica,sans-Serif" font-size="10.00">flush_nc()</text>
<text text-anchor="start" x="32.5" y="-407" font-family="Helvetica,sans-Serif" font-size="10.00">and 77 more...</text>
<polygon fill="#666666" stroke="#666666" points="15.5,-597 15.5,-597 118.5,-597 118.5,-597 15.5,-597"/>
<polygon fill="#666666" stroke="#666666" points="15.5,-567 15.5,-567 30.5,-567 30.5,-567 15.5,-567"/>
<polygon fill="#666666" stroke="#666666" points="30.5,-567 30.5,-567 118.5,-567 118.5,-567 30.5,-567"/>
<polygon fill="none" stroke="#666666" points="15,-400 15,-614 118,-614 118,-400 15,-400"/>
</a>
</g>
</g>
<!-- Node2&#45;&gt;Node1 -->
<g id="edge1_Node000001_Node000002" class="edge">
<title>Node2&#45;&gt;Node1</title>
<g id="a_edge1_Node000001_Node000002"><a xlink:title=" ">
<path fill="none" stroke="#63b8ff" d="M66.5,-389.64C66.5,-381.25 66.5,-372.67 66.5,-364.03"/>
<polygon fill="none" stroke="#63b8ff" points="63,-389.79 66.5,-399.79 70,-389.79 63,-389.79"/>
</a>
</g>
</g>
</g>
</svg>
