<?xml version="1.0" encoding="UTF-8" standalone="no"?>
<!DOCTYPE svg PUBLIC "-//W3C//DTD SVG 1.1//EN"
 "http://www.w3.org/Graphics/SVG/1.1/DTD/svg11.dtd">
<!-- Generated by graphviz version 2.43.0 (0)
 -->
<!-- Title: cam.nc.hpgl2d.Creator.rapid Pages: 1 -->
<svg width="1263pt" height="534pt"
 viewBox="0.00 0.00 1263.00 534.00" xmlns="http://www.w3.org/2000/svg" xmlns:xlink="http://www.w3.org/1999/xlink">
<g id="graph0" class="graph" transform="scale(1 1) rotate(0) translate(4 530)">
<title>cam.nc.hpgl2d.Creator.rapid</title>
<!-- Node1 -->
<g id="Node000001" class="node">
<title>Node1</title>
<g id="a_Node000001"><a xlink:title="Moves.">
<polygon fill="#999999" stroke="#666666" points="154,-312.5 0,-312.5 0,-293.5 154,-293.5 154,-312.5"/>
<text text-anchor="middle" x="77" y="-300.5" font-family="Helvetica,sans-Serif" font-size="10.00">cam.nc.hpgl2d.Creator.rapid</text>
</a>
</g>
</g>
<!-- Node2 -->
<g id="Node000002" class="node">
<title>Node2</title>
<g id="a_Node000002"><a xlink:href="classcam_1_1nc_1_1hpgl2d_1_1Creator.html#a2ca5687b6c9aff33f8f45dbaf4eb2656" target="_top" xlink:title=" ">
<polygon fill="white" stroke="#666666" points="362,-526 217,-526 217,-496 362,-496 362,-526"/>
<text text-anchor="start" x="225" y="-514" font-family="Helvetica,sans-Serif" font-size="10.00">cam.nc.hpgl2d.Creator.get</text>
<text text-anchor="middle" x="289.5" y="-503" font-family="Helvetica,sans-Serif" font-size="10.00">_machine_x_y</text>
</a>
</g>
</g>
<!-- Node1&#45;&gt;Node2 -->
<g id="edge1_Node000001_Node000002" class="edge">
<title>Node1&#45;&gt;Node2</title>
<g id="a_edge1_Node000001_Node000002"><a xlink:title=" ">
<path fill="none" stroke="#63b8ff" d="M80.98,-312.85C90.87,-343.82 125.71,-439.97 190,-487 195.39,-490.94 201.35,-494.25 207.59,-497.01"/>
<polygon fill="#63b8ff" stroke="#63b8ff" points="206.31,-500.27 216.9,-500.69 208.88,-493.76 206.31,-500.27"/>
</a>
</g>
</g>
<!-- Node4 -->
<g id="Node000004" class="node">
<title>Node4</title>
<g id="a_Node000004"><a xlink:href="classcam_1_1nc_1_1cad__nc__read_1_1Parser.html#adcf2f47949df29f187f27fe985884633" target="_top" xlink:title=" ">
<polygon fill="white" stroke="#666666" points="377.5,-459.5 201.5,-459.5 201.5,-440.5 377.5,-440.5 377.5,-459.5"/>
<text text-anchor="middle" x="289.5" y="-447.5" font-family="Helvetica,sans-Serif" font-size="10.00">cam.nc.cad_nc_read.Parser.write</text>
</a>
</g>
</g>
<!-- Node1&#45;&gt;Node4 -->
<g id="edge3_Node000001_Node000004" class="edge">
<title>Node1&#45;&gt;Node4</title>
<g id="a_edge3_Node000001_Node000004"><a xlink:title=" ">
<path fill="none" stroke="#63b8ff" d="M83.28,-312.73C97.14,-337.28 137.18,-401.88 190,-432 193.08,-433.75 196.29,-435.34 199.59,-436.78"/>
<polygon fill="#63b8ff" stroke="#63b8ff" points="198.52,-440.12 209.11,-440.45 201.04,-433.59 198.52,-440.12"/>
</a>
</g>
</g>
<!-- Node5 -->
<g id="Node000005" class="node">
<title>Node5</title>
<g id="a_Node000005"><a xlink:href="classcam_1_1nc_1_1hxml__writer_1_1HxmlWriter.html#aed6f93c98cb8c0e3f3e826e75b6d6f15" target="_top" xlink:title=" ">
<polygon fill="white" stroke="#666666" points="389,-404.5 190,-404.5 190,-385.5 389,-385.5 389,-404.5"/>
<text text-anchor="middle" x="289.5" y="-392.5" font-family="Helvetica,sans-Serif" font-size="10.00">cam.nc.hxml_writer.HxmlWriter.write</text>
</a>
</g>
</g>
<!-- Node1&#45;&gt;Node5 -->
<g id="edge5_Node000001_Node000005" class="edge">
<title>Node1&#45;&gt;Node5</title>
<g id="a_edge5_Node000001_Node000005"><a xlink:title=" ">
<path fill="none" stroke="#63b8ff" d="M89.21,-312.69C108.44,-328.75 149.57,-360.74 190,-377 195.48,-379.2 201.23,-381.14 207.1,-382.84"/>
<polygon fill="#63b8ff" stroke="#63b8ff" points="206.48,-386.29 217.04,-385.48 208.28,-379.53 206.48,-386.29"/>
</a>
</g>
</g>
<!-- Node6 -->
<g id="Node000006" class="node">
<title>Node6</title>
<g id="a_Node000006"><a xlink:href="classcam_1_1nc_1_1iso_1_1Creator.html#abb81af5a0bdddfed387b71b68a51cc7a" target="_top" xlink:title="Internals.">
<polygon fill="white" stroke="#666666" points="357,-367.5 222,-367.5 222,-348.5 357,-348.5 357,-367.5"/>
<text text-anchor="middle" x="289.5" y="-355.5" font-family="Helvetica,sans-Serif" font-size="10.00">cam.nc.iso.Creator.write</text>
</a>
</g>
</g>
<!-- Node1&#45;&gt;Node6 -->
<g id="edge7_Node000001_Node000006" class="edge">
<title>Node1&#45;&gt;Node6</title>
<g id="a_edge7_Node000001_Node000006"><a xlink:title=" ">
<path fill="none" stroke="#63b8ff" d="M103.5,-312.55C126.01,-320.7 159.84,-332.3 190,-340 199.25,-342.36 209.07,-344.54 218.78,-346.5"/>
<polygon fill="#63b8ff" stroke="#63b8ff" points="218.35,-349.98 228.83,-348.47 219.69,-343.11 218.35,-349.98"/>
</a>
</g>
</g>
<!-- Node7 -->
<g id="Node000007" class="node">
<title>Node7</title>
<g id="a_Node000007"><a xlink:href="classcam_1_1nc_1_1nc_1_1Creator.html#a80f2134add83bfaaf2870d075d36ed8a" target="_top" xlink:title=" ">
<polygon fill="white" stroke="#666666" points="355.5,-312.5 223.5,-312.5 223.5,-293.5 355.5,-293.5 355.5,-312.5"/>
<text text-anchor="middle" x="289.5" y="-300.5" font-family="Helvetica,sans-Serif" font-size="10.00">cam.nc.nc.Creator.write</text>
</a>
</g>
</g>
<!-- Node1&#45;&gt;Node7 -->
<g id="edge8_Node000001_Node000007" class="edge">
<title>Node1&#45;&gt;Node7</title>
<g id="a_edge8_Node000001_Node000007"><a xlink:title=" ">
<path fill="none" stroke="#63b8ff" d="M154.29,-303C173.44,-303 193.98,-303 213.08,-303"/>
<polygon fill="#63b8ff" stroke="#63b8ff" points="213.23,-306.5 223.23,-303 213.23,-299.5 213.23,-306.5"/>
</a>
</g>
</g>
<!-- Node8 -->
<g id="Node000008" class="node">
<title>Node8</title>
<g id="a_Node000008"><a xlink:href="classcam_1_1nc_1_1nclathe__read_1_1Parser.html#ab5ea283b461b57e48c8d5b0ad0a45694" target="_top" xlink:title=" ">
<polygon fill="white" stroke="#666666" points="378.5,-257.5 200.5,-257.5 200.5,-238.5 378.5,-238.5 378.5,-257.5"/>
<text text-anchor="middle" x="289.5" y="-245.5" font-family="Helvetica,sans-Serif" font-size="10.00">cam.nc.nclathe_read.Parser.write</text>
</a>
</g>
</g>
<!-- Node1&#45;&gt;Node8 -->
<g id="edge10_Node000001_Node000008" class="edge">
<title>Node1&#45;&gt;Node8</title>
<g id="a_edge10_Node000001_Node000008"><a xlink:title=" ">
<path fill="none" stroke="#63b8ff" d="M114.67,-293.42C150.02,-284.18 203.67,-270.16 242.01,-260.15"/>
<polygon fill="#63b8ff" stroke="#63b8ff" points="243.11,-263.48 251.9,-257.56 241.34,-256.7 243.11,-263.48"/>
</a>
</g>
</g>
<!-- Node9 -->
<g id="Node000009" class="node">
<title>Node9</title>
<g id="a_Node000009"><a xlink:href="classcam_1_1nc_1_1recreator_1_1Redirector.html#a79cc974683588db3ef959189e7552c0d" target="_top" xlink:title="Programs.">
<polygon fill="white" stroke="#666666" points="379,-202.5 200,-202.5 200,-183.5 379,-183.5 379,-202.5"/>
<text text-anchor="middle" x="289.5" y="-190.5" font-family="Helvetica,sans-Serif" font-size="10.00">cam.nc.recreator.Redirector.write</text>
</a>
</g>
</g>
<!-- Node1&#45;&gt;Node9 -->
<g id="edge12_Node000001_Node000009" class="edge">
<title>Node1&#45;&gt;Node9</title>
<g id="a_edge12_Node000001_Node000009"><a xlink:title=" ">
<path fill="none" stroke="#63b8ff" d="M90.88,-293.26C111.15,-278.24 152.1,-249.18 190,-230 208.65,-220.56 230.31,-212.17 248.56,-205.77"/>
<polygon fill="#63b8ff" stroke="#63b8ff" points="249.71,-209.08 258.03,-202.52 247.44,-202.46 249.71,-209.08"/>
</a>
</g>
</g>
<!-- Node10 -->
<g id="Node000010" class="node">
<title>Node10</title>
<g id="a_Node000010"><a xlink:href="classcam_1_1nc_1_1format_1_1Address.html#aa21f0ffeb829537d9103759276c01a4b" target="_top" xlink:title=" ">
<polygon fill="white" stroke="#666666" points="368.5,-165.5 210.5,-165.5 210.5,-146.5 368.5,-146.5 368.5,-165.5"/>
<text text-anchor="middle" x="289.5" y="-153.5" font-family="Helvetica,sans-Serif" font-size="10.00">cam.nc.format.Address.write</text>
</a>
</g>
</g>
<!-- Node1&#45;&gt;Node10 -->
<g id="edge14_Node000001_Node000010" class="edge">
<title>Node1&#45;&gt;Node10</title>
<g id="a_edge14_Node000001_Node000010"><a xlink:title=" ">
<path fill="none" stroke="#63b8ff" d="M83.31,-293.37C97.26,-269.09 137.51,-205.14 190,-175 193.89,-172.77 197.98,-170.79 202.22,-169.05"/>
<polygon fill="#63b8ff" stroke="#63b8ff" points="203.48,-172.31 211.66,-165.57 201.06,-165.74 203.48,-172.31"/>
</a>
</g>
</g>
<!-- Node21 -->
<g id="Node000021" class="node">
<title>Node21</title>
<g id="a_Node000021"><a xlink:href="classcam_1_1nc_1_1format_1_1AddressPlusMinus.html#aaacea4c7b677f0a602dbc9023ff365d2" target="_top" xlink:title=" ">
<polygon fill="white" stroke="#666666" points="364.5,-128 214.5,-128 214.5,-98 364.5,-98 364.5,-128"/>
<text text-anchor="start" x="222.5" y="-116" font-family="Helvetica,sans-Serif" font-size="10.00">cam.nc.format.AddressPlus</text>
<text text-anchor="middle" x="289.5" y="-105" font-family="Helvetica,sans-Serif" font-size="10.00">Minus.write</text>
</a>
</g>
</g>
<!-- Node1&#45;&gt;Node21 -->
<g id="edge27_Node000001_Node000021" class="edge">
<title>Node1&#45;&gt;Node21</title>
<g id="a_edge27_Node000001_Node000021"><a xlink:title=" ">
<path fill="none" stroke="#63b8ff" d="M81.58,-293.3C92.75,-264.5 129.8,-178.91 190,-137 194.6,-133.79 199.59,-131.02 204.79,-128.61"/>
<polygon fill="#63b8ff" stroke="#63b8ff" points="206.44,-131.71 214.34,-124.66 203.76,-125.24 206.44,-131.71"/>
</a>
</g>
</g>
<!-- Node3 -->
<g id="Node000003" class="node">
<title>Node3</title>
<g id="a_Node000003"><a xlink:href="classcam_1_1nc_1_1hpgl2d_1_1Creator.html#acf3a8c154b5496eb826d2422b7fea6c8" target="_top" xlink:title=" ">
<polygon fill="white" stroke="#666666" points="607,-520.5 425,-520.5 425,-501.5 607,-501.5 607,-520.5"/>
<text text-anchor="middle" x="516" y="-508.5" font-family="Helvetica,sans-Serif" font-size="10.00">cam.nc.hpgl2d.Creator.closest_int</text>
</a>
</g>
</g>
<!-- Node2&#45;&gt;Node3 -->
<g id="edge2_Node000002_Node000003" class="edge">
<title>Node2&#45;&gt;Node3</title>
<g id="a_edge2_Node000002_Node000003"><a xlink:title=" ">
<path fill="none" stroke="#63b8ff" d="M362.15,-511C378.78,-511 396.78,-511 414.39,-511"/>
<polygon fill="#63b8ff" stroke="#63b8ff" points="414.7,-514.5 424.7,-511 414.7,-507.5 414.7,-514.5"/>
</a>
</g>
</g>
<!-- Node4&#45;&gt;Node4 -->
<g id="edge4_Node000004_Node000004" class="edge">
<title>Node4&#45;&gt;Node4</title>
<g id="a_edge4_Node000004_Node000004"><a xlink:title=" ">
<path fill="none" stroke="#63b8ff" d="M256.82,-459.58C240.93,-468.23 251.82,-477.5 289.5,-477.5 316.58,-477.5 329.83,-472.71 329.23,-466.81"/>
<polygon fill="#63b8ff" stroke="#63b8ff" points="331.67,-464.29 322.18,-459.58 326.66,-469.18 331.67,-464.29"/>
</a>
</g>
</g>
<!-- Node5&#45;&gt;Node5 -->
<g id="edge6_Node000005_Node000005" class="edge">
<title>Node5&#45;&gt;Node5</title>
<g id="a_edge6_Node000005_Node000005"><a xlink:title=" ">
<path fill="none" stroke="#63b8ff" d="M256.82,-404.58C240.93,-413.23 251.82,-422.5 289.5,-422.5 316.58,-422.5 329.83,-417.71 329.23,-411.81"/>
<polygon fill="#63b8ff" stroke="#63b8ff" points="331.67,-409.29 322.18,-404.58 326.66,-414.18 331.67,-409.29"/>
</a>
</g>
</g>
<!-- Node7&#45;&gt;Node7 -->
<g id="edge9_Node000007_Node000007" class="edge">
<title>Node7&#45;&gt;Node7</title>
<g id="a_edge9_Node000007_Node000007"><a xlink:title=" ">
<path fill="none" stroke="#63b8ff" d="M256.82,-312.58C240.93,-321.23 251.82,-330.5 289.5,-330.5 316.58,-330.5 329.83,-325.71 329.23,-319.81"/>
<polygon fill="#63b8ff" stroke="#63b8ff" points="331.67,-317.29 322.18,-312.58 326.66,-322.18 331.67,-317.29"/>
</a>
</g>
</g>
<!-- Node8&#45;&gt;Node8 -->
<g id="edge11_Node000008_Node000008" class="edge">
<title>Node8&#45;&gt;Node8</title>
<g id="a_edge11_Node000008_Node000008"><a xlink:title=" ">
<path fill="none" stroke="#63b8ff" d="M256.82,-257.58C240.93,-266.23 251.82,-275.5 289.5,-275.5 316.58,-275.5 329.83,-270.71 329.23,-264.81"/>
<polygon fill="#63b8ff" stroke="#63b8ff" points="331.67,-262.29 322.18,-257.58 326.66,-267.18 331.67,-262.29"/>
</a>
</g>
</g>
<!-- Node9&#45;&gt;Node9 -->
<g id="edge13_Node000009_Node000009" class="edge">
<title>Node9&#45;&gt;Node9</title>
<g id="a_edge13_Node000009_Node000009"><a xlink:title=" ">
<path fill="none" stroke="#63b8ff" d="M256.82,-202.58C240.93,-211.23 251.82,-220.5 289.5,-220.5 316.58,-220.5 329.83,-215.71 329.23,-209.81"/>
<polygon fill="#63b8ff" stroke="#63b8ff" points="331.67,-207.29 322.18,-202.58 326.66,-212.18 331.67,-207.29"/>
</a>
</g>
</g>
<!-- Node11 -->
<g id="Node000011" class="node">
<title>Node11</title>
<g id="a_Node000011"><a xlink:href="classcam_1_1async__op_1_1AsyncOperatorMixin.html#a9628cbca8e69ec75b2337171a02bf428" target="_top" xlink:title=" ">
<polygon fill="white" stroke="#666666" points="596.5,-150 435.5,-150 435.5,-120 596.5,-120 596.5,-150"/>
<text text-anchor="start" x="443.5" y="-138" font-family="Helvetica,sans-Serif" font-size="10.00">cam.async_op.AsyncOperator</text>
<text text-anchor="middle" x="516" y="-127" font-family="Helvetica,sans-Serif" font-size="10.00">Mixin.modal</text>
</a>
</g>
</g>
<!-- Node10&#45;&gt;Node11 -->
<g id="edge15_Node000010_Node000011" class="edge">
<title>Node10&#45;&gt;Node11</title>
<g id="a_edge15_Node000010_Node000011"><a xlink:title=" ">
<path fill="none" stroke="#63b8ff" d="M368.7,-148.68C386.94,-146.98 406.5,-145.15 425.19,-143.4"/>
<polygon fill="#63b8ff" stroke="#63b8ff" points="425.54,-146.88 435.17,-142.47 424.89,-139.91 425.54,-146.88"/>
</a>
</g>
</g>
<!-- Node12 -->
<g id="Node000012" class="node">
<title>Node12</title>
<g id="a_Node000012"><a xlink:href="classcam_1_1async__op_1_1AsyncOperatorMixin.html#a15a51cfd69d8e453e2e3d64386b1ebe3" target="_top" xlink:title=" ">
<polygon fill="white" stroke="#666666" points="804,-150 643,-150 643,-120 804,-120 804,-150"/>
<text text-anchor="start" x="651" y="-138" font-family="Helvetica,sans-Serif" font-size="10.00">cam.async_op.AsyncOperator</text>
<text text-anchor="middle" x="723.5" y="-127" font-family="Helvetica,sans-Serif" font-size="10.00">Mixin.tick</text>
</a>
</g>
</g>
<!-- Node11&#45;&gt;Node12 -->
<g id="edge16_Node000011_Node000012" class="edge">
<title>Node11&#45;&gt;Node12</title>
<g id="a_edge16_Node000011_Node000012"><a xlink:title=" ">
<path fill="none" stroke="#63b8ff" d="M596.75,-135C608.56,-135 620.8,-135 632.79,-135"/>
<polygon fill="#63b8ff" stroke="#63b8ff" points="632.8,-138.5 642.8,-135 632.8,-131.5 632.8,-138.5"/>
</a>
</g>
</g>
<!-- Node13 -->
<g id="Node000013" class="node">
<title>Node13</title>
<g id="a_Node000013"><a xlink:href="classcam_1_1async__op_1_1AsyncTestOperator.html#a42606ca890a957aa7070a4bc6f25228b" target="_top" xlink:title=" ">
<polygon fill="white" stroke="#666666" points="1061,-270 840,-270 840,-240 1061,-240 1061,-270"/>
<text text-anchor="start" x="848" y="-258" font-family="Helvetica,sans-Serif" font-size="10.00">cam.async_op.AsyncTestOperator.execute</text>
<text text-anchor="middle" x="950.5" y="-247" font-family="Helvetica,sans-Serif" font-size="10.00">_async</text>
</a>
</g>
</g>
<!-- Node12&#45;&gt;Node13 -->
<g id="edge17_Node000012_Node000013" class="edge">
<title>Node12&#45;&gt;Node13</title>
<g id="a_edge17_Node000012_Node000013"><a xlink:title=" ">
<path fill="none" stroke="#63b8ff" d="M738.18,-150.27C758.31,-171.74 798.07,-210.51 840,-231 844.09,-233 848.35,-234.84 852.72,-236.52"/>
<polygon fill="#63b8ff" stroke="#63b8ff" points="851.81,-239.91 862.41,-239.97 854.16,-233.32 851.81,-239.91"/>
</a>
</g>
</g>
<!-- Node14 -->
<g id="Node000014" class="node">
<title>Node14</title>
<g id="a_Node000014"><a xlink:href="classcam_1_1ops_1_1CalculatePath.html#a13dfe2f8578383234e74e58e2f292e1b" target="_top" xlink:title=" ">
<polygon fill="white" stroke="#666666" points="1035,-222 866,-222 866,-192 1035,-192 1035,-222"/>
<text text-anchor="start" x="874" y="-210" font-family="Helvetica,sans-Serif" font-size="10.00">cam.ops.CalculatePath.execute</text>
<text text-anchor="middle" x="950.5" y="-199" font-family="Helvetica,sans-Serif" font-size="10.00">_async</text>
</a>
</g>
</g>
<!-- Node12&#45;&gt;Node14 -->
<g id="edge18_Node000012_Node000014" class="edge">
<title>Node12&#45;&gt;Node14</title>
<g id="a_edge18_Node000012_Node000014"><a xlink:title=" ">
<path fill="none" stroke="#63b8ff" d="M756.29,-150.01C779.18,-160.38 811,-173.88 840,-183 847.31,-185.3 854.96,-187.46 862.68,-189.47"/>
<polygon fill="#63b8ff" stroke="#63b8ff" points="861.91,-192.89 872.46,-191.93 863.62,-186.1 861.91,-192.89"/>
</a>
</g>
</g>
<!-- Node16 -->
<g id="Node000016" class="node">
<title>Node16</title>
<g id="a_Node000016"><a xlink:href="classcam_1_1ops_1_1PathsChain.html#a6fc64e383ccf724b2325e18a82d53eae" target="_top" xlink:title=" ">
<polygon fill="white" stroke="#666666" points="1028.5,-174 872.5,-174 872.5,-144 1028.5,-144 1028.5,-174"/>
<text text-anchor="start" x="880.5" y="-162" font-family="Helvetica,sans-Serif" font-size="10.00">cam.ops.PathsChain.execute</text>
<text text-anchor="middle" x="950.5" y="-151" font-family="Helvetica,sans-Serif" font-size="10.00">_async</text>
</a>
</g>
</g>
<!-- Node12&#45;&gt;Node16 -->
<g id="edge20_Node000012_Node000016" class="edge">
<title>Node12&#45;&gt;Node16</title>
<g id="a_edge20_Node000012_Node000016"><a xlink:title=" ">
<path fill="none" stroke="#63b8ff" d="M804.14,-143.5C822.9,-145.5 842.98,-147.64 862.06,-149.67"/>
<polygon fill="#63b8ff" stroke="#63b8ff" points="861.92,-153.18 872.23,-150.76 862.66,-146.22 861.92,-153.18"/>
</a>
</g>
</g>
<!-- Node18 -->
<g id="Node000018" class="node">
<title>Node18</title>
<g id="a_Node000018"><a xlink:href="classcam_1_1ops_1_1CAMSimulate.html#a633151f17849d281fd52ce82c00356a7" target="_top" xlink:title=" ">
<polygon fill="white" stroke="#666666" points="1034.5,-126 866.5,-126 866.5,-96 1034.5,-96 1034.5,-126"/>
<text text-anchor="start" x="874.5" y="-114" font-family="Helvetica,sans-Serif" font-size="10.00">cam.ops.CAMSimulate.execute</text>
<text text-anchor="middle" x="950.5" y="-103" font-family="Helvetica,sans-Serif" font-size="10.00">_async</text>
</a>
</g>
</g>
<!-- Node12&#45;&gt;Node18 -->
<g id="edge23_Node000012_Node000018" class="edge">
<title>Node12&#45;&gt;Node18</title>
<g id="a_edge23_Node000012_Node000018"><a xlink:title=" ">
<path fill="none" stroke="#63b8ff" d="M804.14,-126.5C820.95,-124.71 838.82,-122.81 856.08,-120.97"/>
<polygon fill="#63b8ff" stroke="#63b8ff" points="856.58,-124.43 866.15,-119.89 855.84,-117.47 856.58,-124.43"/>
</a>
</g>
</g>
<!-- Node19 -->
<g id="Node000019" class="node">
<title>Node19</title>
<g id="a_Node000019"><a xlink:href="classcam_1_1ops_1_1CAMSimulateChain.html#a1e77c7ce21b3b7e3e38a12b6b62517e9" target="_top" xlink:title=" ">
<polygon fill="white" stroke="#666666" points="1048.5,-78 852.5,-78 852.5,-48 1048.5,-48 1048.5,-78"/>
<text text-anchor="start" x="860.5" y="-66" font-family="Helvetica,sans-Serif" font-size="10.00">cam.ops.CAMSimulateChain.execute</text>
<text text-anchor="middle" x="950.5" y="-55" font-family="Helvetica,sans-Serif" font-size="10.00">_async</text>
</a>
</g>
</g>
<!-- Node12&#45;&gt;Node19 -->
<g id="edge24_Node000012_Node000019" class="edge">
<title>Node12&#45;&gt;Node19</title>
<g id="a_edge24_Node000012_Node000019"><a xlink:title=" ">
<path fill="none" stroke="#63b8ff" d="M756.29,-119.99C779.18,-109.62 811,-96.12 840,-87 847.31,-84.7 854.96,-82.54 862.68,-80.53"/>
<polygon fill="#63b8ff" stroke="#63b8ff" points="863.62,-83.9 872.46,-78.07 861.91,-77.11 863.62,-83.9"/>
</a>
</g>
</g>
<!-- Node20 -->
<g id="Node000020" class="node">
<title>Node20</title>
<g id="a_Node000020"><a xlink:href="classcam_1_1async__op_1_1AsyncOperatorMixin.html#a2216ff6bb0dfd132f4ec4cf79b7cba2b" target="_top" xlink:title=" ">
<polygon fill="white" stroke="#666666" points="1031,-30 870,-30 870,0 1031,0 1031,-30"/>
<text text-anchor="start" x="878" y="-18" font-family="Helvetica,sans-Serif" font-size="10.00">cam.async_op.AsyncOperator</text>
<text text-anchor="middle" x="950.5" y="-7" font-family="Helvetica,sans-Serif" font-size="10.00">Mixin.show_progress</text>
</a>
</g>
</g>
<!-- Node12&#45;&gt;Node20 -->
<g id="edge26_Node000012_Node000020" class="edge">
<title>Node12&#45;&gt;Node20</title>
<g id="a_edge26_Node000012_Node000020"><a xlink:title=" ">
<path fill="none" stroke="#63b8ff" d="M738.18,-119.73C758.31,-98.26 798.07,-59.49 840,-39 846.43,-35.86 853.27,-33.12 860.28,-30.74"/>
<polygon fill="#63b8ff" stroke="#63b8ff" points="861.42,-34.05 869.91,-27.71 859.32,-27.37 861.42,-34.05"/>
</a>
</g>
</g>
<!-- Node15 -->
<g id="Node000015" class="node">
<title>Node15</title>
<g id="a_Node000015"><a xlink:href="namespacecam_1_1ops.html#aa8e95f7410a7ceb178db48f4f8c2d995" target="_top" xlink:title=" ">
<polygon fill="white" stroke="#666666" points="1232.5,-192.5 1119.5,-192.5 1119.5,-173.5 1232.5,-173.5 1232.5,-192.5"/>
<text text-anchor="middle" x="1176" y="-180.5" font-family="Helvetica,sans-Serif" font-size="10.00">cam.ops._calc_path</text>
</a>
</g>
</g>
<!-- Node14&#45;&gt;Node15 -->
<g id="edge19_Node000014_Node000015" class="edge">
<title>Node14&#45;&gt;Node15</title>
<g id="a_edge19_Node000014_Node000015"><a xlink:title=" ">
<path fill="none" stroke="#63b8ff" d="M1035.04,-198.03C1059.56,-195.4 1086.01,-192.56 1109.25,-190.06"/>
<polygon fill="#63b8ff" stroke="#63b8ff" points="1109.77,-193.52 1119.34,-188.98 1109.03,-186.56 1109.77,-193.52"/>
</a>
</g>
</g>
<!-- Node16&#45;&gt;Node15 -->
<g id="edge21_Node000016_Node000015" class="edge">
<title>Node16&#45;&gt;Node15</title>
<g id="a_edge21_Node000016_Node000015"><a xlink:title=" ">
<path fill="none" stroke="#63b8ff" d="M1028.73,-167.29C1054.9,-170.1 1083.87,-173.21 1109.08,-175.92"/>
<polygon fill="#63b8ff" stroke="#63b8ff" points="1108.95,-179.43 1119.27,-177.02 1109.7,-172.47 1108.95,-179.43"/>
</a>
</g>
</g>
<!-- Node17 -->
<g id="Node000017" class="node">
<title>Node17</title>
<g id="a_Node000017"><a xlink:href="namespacecam_1_1ops.html#ab55fb8ec9a00e021e8e4a1c3ecc97cb4" target="_top" xlink:title=" ">
<polygon fill="white" stroke="#666666" points="1255,-126.5 1097,-126.5 1097,-107.5 1255,-107.5 1255,-126.5"/>
<text text-anchor="middle" x="1176" y="-114.5" font-family="Helvetica,sans-Serif" font-size="10.00">cam.ops.getChainOperations</text>
</a>
</g>
</g>
<!-- Node16&#45;&gt;Node17 -->
<g id="edge22_Node000016_Node000017" class="edge">
<title>Node16&#45;&gt;Node17</title>
<g id="a_edge22_Node000016_Node000017"><a xlink:title=" ">
<path fill="none" stroke="#63b8ff" d="M1028.73,-144.49C1056.81,-139.21 1088.12,-133.33 1114.54,-128.36"/>
<polygon fill="#63b8ff" stroke="#63b8ff" points="1115.23,-131.79 1124.41,-126.51 1113.94,-124.91 1115.23,-131.79"/>
</a>
</g>
</g>
<!-- Node19&#45;&gt;Node17 -->
<g id="edge25_Node000019_Node000017" class="edge">
<title>Node19&#45;&gt;Node17</title>
<g id="a_edge25_Node000019_Node000017"><a xlink:title=" ">
<path fill="none" stroke="#63b8ff" d="M1022.28,-78.06C1035.19,-80.94 1048.51,-83.99 1061,-87 1083.91,-92.52 1109.28,-99.15 1130.25,-104.77"/>
<polygon fill="#63b8ff" stroke="#63b8ff" points="1129.6,-108.21 1140.17,-107.43 1131.42,-101.45 1129.6,-108.21"/>
</a>
</g>
</g>
<!-- Node21&#45;&gt;Node11 -->
<g id="edge28_Node000021_Node000011" class="edge">
<title>Node21&#45;&gt;Node11</title>
<g id="a_edge28_Node000021_Node000011"><a xlink:title=" ">
<path fill="none" stroke="#63b8ff" d="M364.63,-120.26C383.97,-122.16 405.02,-124.22 425.08,-126.19"/>
<polygon fill="#63b8ff" stroke="#63b8ff" points="424.86,-129.68 435.15,-127.18 425.54,-122.72 424.86,-129.68"/>
</a>
</g>
</g>
</g>
</svg>
