<?xml version="1.0" encoding="UTF-8" standalone="no"?>
<!DOCTYPE svg PUBLIC "-//W3C//DTD SVG 1.1//EN"
 "http://www.w3.org/Graphics/SVG/1.1/DTD/svg11.dtd">
<!-- Generated by graphviz version 2.43.0 (0)
 -->
<!-- Title: cam.ui_panels.op_properties.CAM_OPERATION_PROPERTIES_Panel Pages: 1 -->
<svg width="229pt" height="569pt"
 viewBox="0.00 0.00 229.00 569.00" xmlns="http://www.w3.org/2000/svg" xmlns:xlink="http://www.w3.org/1999/xlink">
<g id="graph0" class="graph" transform="scale(1 1) rotate(0) translate(4 565)">
<title>cam.ui_panels.op_properties.CAM_OPERATION_PROPERTIES_Panel</title>
<!-- Node1 -->
<g id="Node000001" class="node">
<title>Node1</title>
<g id="a_Node000001"><a xlink:title=" ">
<polygon fill="#999999" stroke="transparent" points="221,-285 30,-285 30,0 221,0 221,-285"/>
<text text-anchor="start" x="35.5" y="-272.5" font-family="Helvetica,sans-Serif" font-size="10.00">cam.ui_panels.op_properties.</text>
<text text-anchor="start" x="35.5" y="-261.5" font-family="Helvetica,sans-Serif" font-size="10.00">CAM_OPERATION_PROPERTIES_Panel</text>
<text text-anchor="start" x="43.5" y="-246.5" font-family="Helvetica,sans-Serif" font-size="10.00">+</text>
<text text-anchor="start" x="65.5" y="-246.5" font-family="Helvetica,sans-Serif" font-size="10.00">op</text>
<text text-anchor="start" x="43.5" y="-231.5" font-family="Helvetica,sans-Serif" font-size="10.00">+</text>
<text text-anchor="start" x="65.5" y="-231.5" font-family="Helvetica,sans-Serif" font-size="10.00">context</text>
<text text-anchor="start" x="43.5" y="-216.5" font-family="Helvetica,sans-Serif" font-size="10.00">+</text>
<text text-anchor="start" x="65.5" y="-216.5" font-family="Helvetica,sans-Serif" font-size="10.00">bl_label</text>
<text text-anchor="start" x="43.5" y="-201.5" font-family="Helvetica,sans-Serif" font-size="10.00">+</text>
<text text-anchor="start" x="65.5" y="-201.5" font-family="Helvetica,sans-Serif" font-size="10.00">bl_idname</text>
<text text-anchor="start" x="43.5" y="-186.5" font-family="Helvetica,sans-Serif" font-size="10.00">+</text>
<text text-anchor="start" x="65.5" y="-186.5" font-family="Helvetica,sans-Serif" font-size="10.00">panel_interface_level</text>
<text text-anchor="start" x="43.5" y="-171.5" font-family="Helvetica,sans-Serif" font-size="10.00">+</text>
<text text-anchor="start" x="65.5" y="-171.5" font-family="Helvetica,sans-Serif" font-size="10.00">prop_level</text>
<text text-anchor="start" x="43.5" y="-156.5" font-family="Helvetica,sans-Serif" font-size="10.00">+</text>
<text text-anchor="start" x="65.5" y="-156.5" font-family="Helvetica,sans-Serif" font-size="10.00">draw_cutter_engagement()</text>
<text text-anchor="start" x="43.5" y="-141.5" font-family="Helvetica,sans-Serif" font-size="10.00">+</text>
<text text-anchor="start" x="65.5" y="-141.5" font-family="Helvetica,sans-Serif" font-size="10.00">draw_machine_axis()</text>
<text text-anchor="start" x="43.5" y="-126.5" font-family="Helvetica,sans-Serif" font-size="10.00">+</text>
<text text-anchor="start" x="65.5" y="-126.5" font-family="Helvetica,sans-Serif" font-size="10.00">draw_strategy()</text>
<text text-anchor="start" x="43.5" y="-111.5" font-family="Helvetica,sans-Serif" font-size="10.00">+</text>
<text text-anchor="start" x="65.5" y="-111.5" font-family="Helvetica,sans-Serif" font-size="10.00">draw_enable_A_B_axis()</text>
<text text-anchor="start" x="43.5" y="-96.5" font-family="Helvetica,sans-Serif" font-size="10.00">+</text>
<text text-anchor="start" x="65.5" y="-96.5" font-family="Helvetica,sans-Serif" font-size="10.00">draw_cutout_type()</text>
<text text-anchor="start" x="43.5" y="-81.5" font-family="Helvetica,sans-Serif" font-size="10.00">+</text>
<text text-anchor="start" x="65.5" y="-81.5" font-family="Helvetica,sans-Serif" font-size="10.00">draw_overshoot()</text>
<text text-anchor="start" x="43.5" y="-66.5" font-family="Helvetica,sans-Serif" font-size="10.00">+</text>
<text text-anchor="start" x="65.5" y="-66.5" font-family="Helvetica,sans-Serif" font-size="10.00">draw_startpoint()</text>
<text text-anchor="start" x="43.5" y="-51.5" font-family="Helvetica,sans-Serif" font-size="10.00">+</text>
<text text-anchor="start" x="65.5" y="-51.5" font-family="Helvetica,sans-Serif" font-size="10.00">draw_lead_in_out()</text>
<text text-anchor="start" x="43.5" y="-36.5" font-family="Helvetica,sans-Serif" font-size="10.00">+</text>
<text text-anchor="start" x="65.5" y="-36.5" font-family="Helvetica,sans-Serif" font-size="10.00">draw_outlines()</text>
<text text-anchor="start" x="43.5" y="-21.5" font-family="Helvetica,sans-Serif" font-size="10.00">+</text>
<text text-anchor="start" x="65.5" y="-21.5" font-family="Helvetica,sans-Serif" font-size="10.00">draw_merge()</text>
<text text-anchor="start" x="65.5" y="-6.5" font-family="Helvetica,sans-Serif" font-size="10.00">and 11 more...</text>
<polygon fill="#666666" stroke="#666666" points="30.5,-256.5 30.5,-256.5 221.5,-256.5 221.5,-256.5 30.5,-256.5"/>
<polygon fill="#666666" stroke="#666666" points="30.5,-166.5 30.5,-166.5 63.5,-166.5 63.5,-166.5 30.5,-166.5"/>
<polygon fill="#666666" stroke="#666666" points="63.5,-166.5 63.5,-166.5 221.5,-166.5 221.5,-166.5 63.5,-166.5"/>
<polygon fill="none" stroke="#666666" points="30,0 30,-285 221,-285 221,0 30,0"/>
</a>
</g>
</g>
<!-- Node2 -->
<g id="Node000002" class="node">
<title>Node2</title>
<g id="a_Node000002"><a xlink:href="classcam_1_1ui__panels_1_1buttons__panel_1_1CAMButtonsPanel.html" target="_top" xlink:title=" ">
<polygon fill="white" stroke="transparent" points="143,-561 0,-561 0,-321 143,-321 143,-561"/>
<text text-anchor="start" x="11" y="-549" font-family="Helvetica,sans-Serif" font-size="10.00">cam.ui_panels.buttons</text>
<text text-anchor="start" x="11" y="-538" font-family="Helvetica,sans-Serif" font-size="10.00">_panel.CAMButtonsPanel</text>
<text text-anchor="start" x="4.5" y="-523" font-family="Helvetica,sans-Serif" font-size="10.00">+</text>
<text text-anchor="start" x="17.5" y="-523" font-family="Helvetica,sans-Serif" font-size="10.00">op</text>
<text text-anchor="start" x="4.5" y="-508" font-family="Helvetica,sans-Serif" font-size="10.00">+</text>
<text text-anchor="start" x="17.5" y="-508" font-family="Helvetica,sans-Serif" font-size="10.00">use_experimental</text>
<text text-anchor="start" x="4.5" y="-493" font-family="Helvetica,sans-Serif" font-size="10.00">+</text>
<text text-anchor="start" x="17.5" y="-493" font-family="Helvetica,sans-Serif" font-size="10.00">bl_space_type</text>
<text text-anchor="start" x="4.5" y="-478" font-family="Helvetica,sans-Serif" font-size="10.00">+</text>
<text text-anchor="start" x="17.5" y="-478" font-family="Helvetica,sans-Serif" font-size="10.00">bl_region_type</text>
<text text-anchor="start" x="4.5" y="-463" font-family="Helvetica,sans-Serif" font-size="10.00">+</text>
<text text-anchor="start" x="17.5" y="-463" font-family="Helvetica,sans-Serif" font-size="10.00">bl_context</text>
<text text-anchor="start" x="4.5" y="-448" font-family="Helvetica,sans-Serif" font-size="10.00">+</text>
<text text-anchor="start" x="17.5" y="-448" font-family="Helvetica,sans-Serif" font-size="10.00">always_show_panel</text>
<text text-anchor="start" x="4.5" y="-433" font-family="Helvetica,sans-Serif" font-size="10.00">+</text>
<text text-anchor="start" x="17.5" y="-433" font-family="Helvetica,sans-Serif" font-size="10.00">COMPAT_ENGINES</text>
<text text-anchor="start" x="4.5" y="-418" font-family="Helvetica,sans-Serif" font-size="10.00">+</text>
<text text-anchor="start" x="17.5" y="-418" font-family="Helvetica,sans-Serif" font-size="10.00">poll()</text>
<text text-anchor="start" x="4.5" y="-403" font-family="Helvetica,sans-Serif" font-size="10.00">+</text>
<text text-anchor="start" x="17.5" y="-403" font-family="Helvetica,sans-Serif" font-size="10.00">active_operation_index()</text>
<text text-anchor="start" x="4.5" y="-388" font-family="Helvetica,sans-Serif" font-size="10.00">+</text>
<text text-anchor="start" x="17.5" y="-388" font-family="Helvetica,sans-Serif" font-size="10.00">active_operation()</text>
<text text-anchor="start" x="4.5" y="-373" font-family="Helvetica,sans-Serif" font-size="10.00">+</text>
<text text-anchor="start" x="17.5" y="-373" font-family="Helvetica,sans-Serif" font-size="10.00">__init__()</text>
<text text-anchor="start" x="4.5" y="-358" font-family="Helvetica,sans-Serif" font-size="10.00">+</text>
<text text-anchor="start" x="17.5" y="-358" font-family="Helvetica,sans-Serif" font-size="10.00">operations_count()</text>
<text text-anchor="start" x="4.5" y="-343" font-family="Helvetica,sans-Serif" font-size="10.00">+</text>
<text text-anchor="start" x="17.5" y="-343" font-family="Helvetica,sans-Serif" font-size="10.00">has_operations()</text>
<text text-anchor="start" x="4.5" y="-328" font-family="Helvetica,sans-Serif" font-size="10.00">+</text>
<text text-anchor="start" x="17.5" y="-328" font-family="Helvetica,sans-Serif" font-size="10.00">has_correct_level()</text>
<polygon fill="#666666" stroke="#666666" points="0.5,-533 0.5,-533 143.5,-533 143.5,-533 0.5,-533"/>
<polygon fill="#666666" stroke="#666666" points="0.5,-428 0.5,-428 15.5,-428 15.5,-428 0.5,-428"/>
<polygon fill="#666666" stroke="#666666" points="15.5,-428 15.5,-428 143.5,-428 143.5,-428 15.5,-428"/>
<polygon fill="none" stroke="#666666" points="0,-321 0,-561 143,-561 143,-321 0,-321"/>
</a>
</g>
</g>
<!-- Node2&#45;&gt;Node1 -->
<g id="edge1_Node000001_Node000002" class="edge">
<title>Node2&#45;&gt;Node1</title>
<g id="a_edge1_Node000001_Node000002"><a xlink:title=" ">
<path fill="none" stroke="#63b8ff" d="M95.07,-310.58C96.59,-302.26 98.12,-293.86 99.64,-285.49"/>
<polygon fill="none" stroke="#63b8ff" points="91.58,-310.22 93.23,-320.68 98.47,-311.47 91.58,-310.22"/>
</a>
</g>
</g>
<!-- Node3 -->
<g id="Node000003" class="node">
<title>Node3</title>
<g id="a_Node000003"><a xlink:title=" ">
<polygon fill="white" stroke="transparent" points="198,-465.5 161,-465.5 161,-416.5 198,-416.5 198,-465.5"/>
<text text-anchor="start" x="166.5" y="-453" font-family="Helvetica,sans-Serif" font-size="10.00">Panel</text>
<text text-anchor="start" x="178" y="-438" font-family="Helvetica,sans-Serif" font-size="10.00"> </text>
<text text-anchor="start" x="178" y="-423" font-family="Helvetica,sans-Serif" font-size="10.00"> </text>
<polygon fill="#666666" stroke="#666666" points="161.5,-448 161.5,-448 198.5,-448 198.5,-448 161.5,-448"/>
<polygon fill="#666666" stroke="#666666" points="161.5,-433 161.5,-433 198.5,-433 198.5,-433 161.5,-433"/>
<polygon fill="none" stroke="#666666" points="161,-416.5 161,-465.5 198,-465.5 198,-416.5 161,-416.5"/>
</a>
</g>
</g>
<!-- Node3&#45;&gt;Node1 -->
<g id="edge2_Node000001_Node000003" class="edge">
<title>Node3&#45;&gt;Node1</title>
<g id="a_edge2_Node000001_Node000003"><a xlink:title=" ">
<path fill="none" stroke="#63b8ff" d="M173.42,-406.59C167.96,-376.64 159.57,-330.56 151.32,-285.29"/>
<polygon fill="none" stroke="#63b8ff" points="169.98,-407.28 175.22,-416.49 176.87,-406.02 169.98,-407.28"/>
</a>
</g>
</g>
</g>
</svg>
