<?xml version="1.0" encoding="UTF-8" standalone="no"?>
<!DOCTYPE svg PUBLIC "-//W3C//DTD SVG 1.1//EN"
 "http://www.w3.org/Graphics/SVG/1.1/DTD/svg11.dtd">
<!-- Generated by graphviz version 2.43.0 (0)
 -->
<!-- Title: cam.nc.iso.Creator.gearrange Pages: 1 -->
<!--zoomable 448 -->

<svg id="main" version="1.1" xmlns="http://www.w3.org/2000/svg" xmlns:xlink="http://www.w3.org/1999/xlink" xml:space="preserve" onload="init(evt)">
<style type="text/css"><![CDATA[
.node, .edge {opacity: 0.7;}
.node.selected, .edge.selected {opacity: 1;}
.edge:hover path { stroke: red; }
.edge:hover polygon { stroke: red; fill: red; }
]]></style>

<defs>
  <circle id="rim" cx="0" cy="0" r="7"/>
  <circle id="rim2" cx="0" cy="0" r="3.5"/>
  <g id="zoomPlus">
    <use xlink:href="#rim" fill="#404040"><set attributeName="fill" to="#808080" begin="zoomplus.mouseover" end="zoomplus.mouseout"/></use>
    <path d="M-4,0h8M0,-4v8" fill="none" stroke="white" stroke-width="1.5" pointer-events="none"/>
  </g>
  <g id="zoomMin">
    <use xlink:href="#rim" fill="#404040"><set attributeName="fill" to="#808080" begin="zoomminus.mouseover" end="zoomminus.mouseout"/></use>
    <path d="M-4,0h8" fill="none" stroke="white" stroke-width="1.5" pointer-events="none"/>
  </g>
  <g id="arrowUp" transform="translate(30 24)">
    <use xlink:href="#rim"/>
    <path pointer-events="none" fill="none" stroke="white" stroke-width="1.5" d="M0,-3.0v7 M-2.5,-0.5L0,-3.0L2.5,-0.5"/>
  </g>
  <g id="arrowRight" transform="rotate(90) translate(36 -43)">
    <use xlink:href="#rim"/>
    <path pointer-events="none" fill="none" stroke="white" stroke-width="1.5" d="M0,-3.0v7 M-2.5,-0.5L0,-3.0L2.5,-0.5"/>
  </g>
  <g id="arrowDown" transform="rotate(180) translate(-30 -48)">
    <use xlink:href="#rim"/>
    <path pointer-events="none" fill="none" stroke="white" stroke-width="1.5" d="M0,-3.0v7 M-2.5,-0.5L0,-3.0L2.5,-0.5"/>
  </g>
  <g id="arrowLeft" transform="rotate(270) translate(-36 17)">
    <use xlink:href="#rim"/>
    <path pointer-events="none" fill="none" stroke="white" stroke-width="1.5" d="M0,-3.0v7 M-2.5,-0.5L0,-3.0L2.5,-0.5"/>
  </g>
  <g id="resetDef">
    <use xlink:href="#rim2" fill="#404040"><set attributeName="fill" to="#808080" begin="reset.mouseover" end="reset.mouseout"/></use>
  </g>
</defs>
<script type="application/ecmascript">
var viewWidth = 829;
var viewHeight = 448;
var sectionId = 'dynsection-52';
</script>
<script type="application/ecmascript" xlink:href="svg.min.js"/>
<svg id="graph" class="graph">
<g id="viewport">
<title>cam.nc.iso.Creator.gearrange</title>
<!-- Node1 -->
<g id="Node000001" class="node">
<title>Node1</title>
<g id="a_Node000001"><a xlink:title=" ">
<polygon fill="#999999" stroke="#666666" points="160,-329 0,-329 0,-310 160,-310 160,-329"/>
<text text-anchor="middle" x="80" y="-317" font-family="Helvetica,sans-Serif" font-size="10.00">cam.nc.iso.Creator.gearrange</text>
</a>
</g>
</g>
<!-- Node2 -->
<g id="Node000002" class="node">
<title>Node2</title>
<g id="a_Node000002"><a xlink:href="classcam_1_1nc_1_1heiden_1_1Creator.html#a847aea2fcf2439258a13cca37eacbb43" target="_top" xlink:title=" ">
<polygon fill="white" stroke="#666666" points="373,-440 217,-440 217,-421 373,-421 373,-440"/>
<text text-anchor="middle" x="295" y="-428" font-family="Helvetica,sans-Serif" font-size="10.00">cam.nc.heiden.Creator.GEAR</text>
</a>
</g>
</g>
<!-- Node1&#45;&gt;Node2 -->
<g id="edge1_Node000001_Node000002" class="edge">
<title>Node1&#45;&gt;Node2</title>
<g id="a_edge1_Node000001_Node000002"><a xlink:title=" ">
<path fill="none" stroke="#63b8ff" d="M89.73,-329.26C107.59,-348.57 150.51,-391.59 196,-412.5 200.43,-414.54 205.08,-416.34 209.84,-417.95"/>
<polygon fill="#63b8ff" stroke="#63b8ff" points="209.14,-421.39 219.73,-420.96 211.18,-414.7 209.14,-421.39"/>
</a>
</g>
</g>
<!-- Node3 -->
<g id="Node000003" class="node">
<title>Node3</title>
<g id="a_Node000003"><a xlink:href="classcam_1_1nc_1_1iso_1_1Creator.html#ad20a46f1e6059596a5e34a85124eb6a9" target="_top" xlink:title=" ">
<polygon fill="white" stroke="#666666" points="363.5,-403 226.5,-403 226.5,-384 363.5,-384 363.5,-403"/>
<text text-anchor="middle" x="295" y="-391" font-family="Helvetica,sans-Serif" font-size="10.00">cam.nc.iso.Creator.GEAR</text>
</a>
</g>
</g>
<!-- Node1&#45;&gt;Node3 -->
<g id="edge2_Node000001_Node000003" class="edge">
<title>Node1&#45;&gt;Node3</title>
<g id="a_edge2_Node000001_Node000003"><a xlink:title=" ">
<path fill="none" stroke="#63b8ff" d="M97.16,-329.13C118.9,-341.66 159.08,-363.37 196,-375.5 203.14,-377.85 210.68,-379.91 218.28,-381.73"/>
<polygon fill="#63b8ff" stroke="#63b8ff" points="217.75,-385.2 228.28,-383.98 219.29,-378.37 217.75,-385.2"/>
</a>
</g>
</g>
<!-- Node4 -->
<g id="Node000004" class="node">
<title>Node4</title>
<g id="a_Node000004"><a xlink:href="classcam_1_1nc_1_1makerbot__codes_1_1Codes.html#a5345cca8f87bf24329f1c78494cf66de" target="_top" xlink:title=" ">
<polygon fill="white" stroke="#666666" points="394,-366 196,-366 196,-347 394,-347 394,-366"/>
<text text-anchor="middle" x="295" y="-354" font-family="Helvetica,sans-Serif" font-size="10.00">cam.nc.makerbot_codes.Codes.GEAR</text>
</a>
</g>
</g>
<!-- Node1&#45;&gt;Node4 -->
<g id="edge3_Node000001_Node000004" class="edge">
<title>Node1&#45;&gt;Node4</title>
<g id="a_edge3_Node000001_Node000004"><a xlink:title=" ">
<path fill="none" stroke="#63b8ff" d="M135.85,-329.03C164.31,-333.97 199.27,-340.04 229.07,-345.22"/>
<polygon fill="#63b8ff" stroke="#63b8ff" points="228.51,-348.68 238.96,-346.94 229.71,-341.78 228.51,-348.68"/>
</a>
</g>
</g>
<!-- Node5 -->
<g id="Node000005" class="node">
<title>Node5</title>
<g id="a_Node000005"><a xlink:href="classcam_1_1nc_1_1iso_1_1Creator.html#a2966c471410dca175eb3f6a39bb59a73" target="_top" xlink:title=" ">
<polygon fill="white" stroke="#666666" points="379,-329 211,-329 211,-310 379,-310 379,-329"/>
<text text-anchor="middle" x="295" y="-317" font-family="Helvetica,sans-Serif" font-size="10.00">cam.nc.iso.Creator.GEAR_BASE</text>
</a>
</g>
</g>
<!-- Node1&#45;&gt;Node5 -->
<g id="edge4_Node000001_Node000005" class="edge">
<title>Node1&#45;&gt;Node5</title>
<g id="a_edge4_Node000001_Node000005"><a xlink:title=" ">
<path fill="none" stroke="#63b8ff" d="M160.01,-319.5C173.22,-319.5 187.03,-319.5 200.56,-319.5"/>
<polygon fill="#63b8ff" stroke="#63b8ff" points="200.84,-323 210.84,-319.5 200.84,-316 200.84,-323"/>
</a>
</g>
</g>
<!-- Node6 -->
<g id="Node000006" class="node">
<title>Node6</title>
<g id="a_Node000006"><a xlink:href="classcam_1_1nc_1_1heiden_1_1Creator.html#a0f227801b4823e6d01c126fe07d597f5" target="_top" xlink:title=" ">
<polygon fill="white" stroke="#666666" points="385.5,-292 204.5,-292 204.5,-273 385.5,-273 385.5,-292"/>
<text text-anchor="middle" x="295" y="-280" font-family="Helvetica,sans-Serif" font-size="10.00">cam.nc.heiden.Creator.GEAR_OFF</text>
</a>
</g>
</g>
<!-- Node1&#45;&gt;Node6 -->
<g id="edge5_Node000001_Node000006" class="edge">
<title>Node1&#45;&gt;Node6</title>
<g id="a_edge5_Node000001_Node000006"><a xlink:title=" ">
<path fill="none" stroke="#63b8ff" d="M135.85,-309.97C164.31,-305.03 199.27,-298.96 229.07,-293.78"/>
<polygon fill="#63b8ff" stroke="#63b8ff" points="229.71,-297.22 238.96,-292.06 228.51,-290.32 229.71,-297.22"/>
</a>
</g>
</g>
<!-- Node7 -->
<g id="Node000007" class="node">
<title>Node7</title>
<g id="a_Node000007"><a xlink:href="classcam_1_1nc_1_1iso_1_1Creator.html#a6c4d904a38a0123a69ac089251267c12" target="_top" xlink:title=" ">
<polygon fill="white" stroke="#666666" points="376,-255 214,-255 214,-236 376,-236 376,-255"/>
<text text-anchor="middle" x="295" y="-243" font-family="Helvetica,sans-Serif" font-size="10.00">cam.nc.iso.Creator.GEAR_OFF</text>
</a>
</g>
</g>
<!-- Node1&#45;&gt;Node7 -->
<g id="edge6_Node000001_Node000007" class="edge">
<title>Node1&#45;&gt;Node7</title>
<g id="a_edge6_Node000001_Node000007"><a xlink:title=" ">
<path fill="none" stroke="#63b8ff" d="M97.58,-309.9C119.45,-297.64 159.43,-276.57 196,-264.5 204.31,-261.76 213.16,-259.36 222,-257.27"/>
<polygon fill="#63b8ff" stroke="#63b8ff" points="222.96,-260.64 231.96,-255.05 221.44,-253.81 222.96,-260.64"/>
</a>
</g>
</g>
<!-- Node8 -->
<g id="Node000008" class="node">
<title>Node8</title>
<g id="a_Node000008"><a xlink:href="classcam_1_1nc_1_1makerbot__codes_1_1Codes.html#a138079d9303ad971219268bf2a89b142" target="_top" xlink:title=" ">
<polygon fill="white" stroke="#666666" points="380.5,-217.5 209.5,-217.5 209.5,-187.5 380.5,-187.5 380.5,-217.5"/>
<text text-anchor="start" x="217.5" y="-205.5" font-family="Helvetica,sans-Serif" font-size="10.00">cam.nc.makerbot_codes.Codes.</text>
<text text-anchor="middle" x="295" y="-194.5" font-family="Helvetica,sans-Serif" font-size="10.00">GEAR_OFF</text>
</a>
</g>
</g>
<!-- Node1&#45;&gt;Node8 -->
<g id="edge7_Node000001_Node000008" class="edge">
<title>Node1&#45;&gt;Node8</title>
<g id="a_edge7_Node000001_Node000008"><a xlink:title=" ">
<path fill="none" stroke="#63b8ff" d="M90.16,-309.82C108.45,-291.05 151.6,-249.62 196,-227.5 200.81,-225.1 205.88,-222.92 211.06,-220.94"/>
<polygon fill="#63b8ff" stroke="#63b8ff" points="212.25,-224.23 220.5,-217.58 209.91,-217.63 212.25,-224.23"/>
</a>
</g>
</g>
<!-- Node9 -->
<g id="Node000009" class="node">
<title>Node9</title>
<g id="a_Node000009"><a xlink:href="classcam_1_1nc_1_1emc2_1_1Creator.html#a47a9e4f5f35681f580765bba2f0f97a5" target="_top" xlink:title=" ">
<polygon fill="white" stroke="#666666" points="592.5,-400 438.5,-400 438.5,-381 592.5,-381 592.5,-400"/>
<text text-anchor="middle" x="515.5" y="-388" font-family="Helvetica,sans-Serif" font-size="10.00">cam.nc.emc2.Creator.SPACE</text>
</a>
</g>
</g>
<!-- Node8&#45;&gt;Node9 -->
<g id="edge8_Node000008_Node000009" class="edge">
<title>Node8&#45;&gt;Node9</title>
<g id="a_edge8_Node000008_Node000009"><a xlink:title=" ">
<path fill="none" stroke="#63b8ff" d="M380.69,-217.27C385.54,-220.13 390.04,-223.51 394,-227.5 440.8,-274.6 382.27,-326.34 430,-372.5 430.97,-373.44 431.98,-374.33 433.02,-375.19"/>
<polygon fill="#63b8ff" stroke="#63b8ff" points="431.31,-378.25 441.56,-380.94 435.22,-372.45 431.31,-378.25"/>
</a>
</g>
</g>
<!-- Node10 -->
<g id="Node000010" class="node">
<title>Node10</title>
<g id="a_Node000010"><a xlink:href="classcam_1_1nc_1_1emc2b_1_1Creator.html#abff5586e78bb91681bd41dafdea5a9e7" target="_top" xlink:title=" ">
<polygon fill="white" stroke="#666666" points="595.5,-363 435.5,-363 435.5,-344 595.5,-344 595.5,-363"/>
<text text-anchor="middle" x="515.5" y="-351" font-family="Helvetica,sans-Serif" font-size="10.00">cam.nc.emc2b.Creator.SPACE</text>
</a>
</g>
</g>
<!-- Node8&#45;&gt;Node10 -->
<g id="edge9_Node000008_Node000010" class="edge">
<title>Node8&#45;&gt;Node10</title>
<g id="a_edge9_Node000008_Node000010"><a xlink:title=" ">
<path fill="none" stroke="#63b8ff" d="M380.33,-217.65C385.26,-220.42 389.88,-223.68 394,-227.5 430.78,-261.63 392.74,-300.9 430,-334.5 431.72,-336.05 433.55,-337.49 435.45,-338.82"/>
<polygon fill="#63b8ff" stroke="#63b8ff" points="433.86,-341.94 444.26,-343.96 437.39,-335.89 433.86,-341.94"/>
</a>
</g>
</g>
<!-- Node11 -->
<g id="Node000011" class="node">
<title>Node11</title>
<g id="a_Node000011"><a xlink:href="classcam_1_1nc_1_1emc2tap_1_1CodesEMC2.html#a6a0d71a1c6e9f8a80228dc220a0e57ca" target="_top" xlink:title=" ">
<polygon fill="white" stroke="#666666" points="596,-325.5 435,-325.5 435,-295.5 596,-295.5 596,-325.5"/>
<text text-anchor="start" x="443" y="-313.5" font-family="Helvetica,sans-Serif" font-size="10.00">cam.nc.emc2tap.CodesEMC2.</text>
<text text-anchor="middle" x="515.5" y="-302.5" font-family="Helvetica,sans-Serif" font-size="10.00">SPACE</text>
</a>
</g>
</g>
<!-- Node8&#45;&gt;Node11 -->
<g id="edge10_Node000008_Node000011" class="edge">
<title>Node8&#45;&gt;Node11</title>
<g id="a_edge10_Node000008_Node000011"><a xlink:title=" ">
<path fill="none" stroke="#63b8ff" d="M376.98,-217.61C383.01,-220.37 388.77,-223.64 394,-227.5 418.71,-245.75 405.54,-267.91 430,-286.5 431.83,-287.89 433.73,-289.19 435.69,-290.43"/>
<polygon fill="#63b8ff" stroke="#63b8ff" points="434.2,-293.6 444.65,-295.35 437.58,-287.47 434.2,-293.6"/>
</a>
</g>
</g>
<!-- Node12 -->
<g id="Node000012" class="node">
<title>Node12</title>
<g id="a_Node000012"><a xlink:href="classcam_1_1nc_1_1heiden_1_1Creator.html#a2c4277ffddaea0f92c906c6744f7a3bd" target="_top" xlink:title="Codes.">
<polygon fill="white" stroke="#666666" points="595.5,-277 435.5,-277 435.5,-258 595.5,-258 595.5,-277"/>
<text text-anchor="middle" x="515.5" y="-265" font-family="Helvetica,sans-Serif" font-size="10.00">cam.nc.heiden.Creator.SPACE</text>
</a>
</g>
</g>
<!-- Node8&#45;&gt;Node12 -->
<g id="edge11_Node000008_Node000012" class="edge">
<title>Node8&#45;&gt;Node12</title>
<g id="a_edge11_Node000008_Node000012"><a xlink:title=" ">
<path fill="none" stroke="#63b8ff" d="M365.06,-217.53C374.92,-220.42 384.82,-223.74 394,-227.5 411.14,-234.52 412.76,-241.72 430,-248.5 436.64,-251.11 443.72,-253.41 450.85,-255.41"/>
<polygon fill="#63b8ff" stroke="#63b8ff" points="450,-258.81 460.56,-257.97 451.79,-252.04 450,-258.81"/>
</a>
</g>
</g>
<!-- Node13 -->
<g id="Node000013" class="node">
<title>Node13</title>
<g id="a_Node000013"><a xlink:href="classcam_1_1nc_1_1heiden530_1_1Creator.html#aa64b19b0edc2ac1f2d568b09ca2aebcb" target="_top" xlink:title="Codes.">
<polygon fill="white" stroke="#666666" points="589,-239.5 442,-239.5 442,-209.5 589,-209.5 589,-239.5"/>
<text text-anchor="start" x="450" y="-227.5" font-family="Helvetica,sans-Serif" font-size="10.00">cam.nc.heiden530.Creator.</text>
<text text-anchor="middle" x="515.5" y="-216.5" font-family="Helvetica,sans-Serif" font-size="10.00">SPACE</text>
</a>
</g>
</g>
<!-- Node8&#45;&gt;Node13 -->
<g id="edge12_Node000008_Node000013" class="edge">
<title>Node8&#45;&gt;Node13</title>
<g id="a_edge12_Node000008_Node000013"><a xlink:title=" ">
<path fill="none" stroke="#63b8ff" d="M380.79,-211.04C397.48,-212.72 414.97,-214.48 431.6,-216.15"/>
<polygon fill="#63b8ff" stroke="#63b8ff" points="431.52,-219.66 441.82,-217.18 432.22,-212.7 431.52,-219.66"/>
</a>
</g>
</g>
<!-- Node14 -->
<g id="Node000014" class="node">
<title>Node14</title>
<g id="a_Node000014"><a xlink:href="classcam_1_1nc_1_1iso_1_1Creator.html#a79463d437baaaf23c828a2c9e62393f3" target="_top" xlink:title=" ">
<polygon fill="white" stroke="#666666" points="586,-191 445,-191 445,-172 586,-172 586,-191"/>
<text text-anchor="middle" x="515.5" y="-179" font-family="Helvetica,sans-Serif" font-size="10.00">cam.nc.iso.Creator.SPACE</text>
</a>
</g>
</g>
<!-- Node8&#45;&gt;Node14 -->
<g id="edge13_Node000008_Node000014" class="edge">
<title>Node8&#45;&gt;Node14</title>
<g id="a_edge13_Node000008_Node000014"><a xlink:title=" ">
<path fill="none" stroke="#63b8ff" d="M380.79,-194.35C398.54,-192.64 417.2,-190.85 434.75,-189.16"/>
<polygon fill="#63b8ff" stroke="#63b8ff" points="435.33,-192.63 444.95,-188.18 434.66,-185.66 435.33,-192.63"/>
</a>
</g>
</g>
<!-- Node22 -->
<g id="Node000022" class="node">
<title>Node22</title>
<g id="a_Node000022"><a xlink:href="classcam_1_1nc_1_1makerbot__codes_1_1Codes.html#a497077e0e500cc8f419b8f3f61f008b4" target="_top" xlink:title=" ">
<polygon fill="white" stroke="#666666" points="601,-153.5 430,-153.5 430,-123.5 601,-123.5 601,-153.5"/>
<text text-anchor="start" x="438" y="-141.5" font-family="Helvetica,sans-Serif" font-size="10.00">cam.nc.makerbot_codes.Codes.</text>
<text text-anchor="middle" x="515.5" y="-130.5" font-family="Helvetica,sans-Serif" font-size="10.00">SPACE</text>
</a>
</g>
</g>
<!-- Node8&#45;&gt;Node22 -->
<g id="edge21_Node000008_Node000022" class="edge">
<title>Node8&#45;&gt;Node22</title>
<g id="a_edge21_Node000008_Node000022"><a xlink:title=" ">
<path fill="none" stroke="#63b8ff" d="M347.23,-187.49C379.03,-178.18 420.07,-166.16 453.54,-156.36"/>
<polygon fill="#63b8ff" stroke="#63b8ff" points="454.6,-159.69 463.21,-153.52 452.63,-152.97 454.6,-159.69"/>
</a>
</g>
</g>
<!-- Node23 -->
<g id="Node000023" class="node">
<title>Node23</title>
<g id="a_Node000023"><a xlink:href="classcam_1_1nc_1_1series1_1_1Creator.html#a75918d23eef609baab85058fda3050d5" target="_top" xlink:title=" ">
<polygon fill="white" stroke="#666666" points="596.5,-105 434.5,-105 434.5,-86 596.5,-86 596.5,-105"/>
<text text-anchor="middle" x="515.5" y="-93" font-family="Helvetica,sans-Serif" font-size="10.00">cam.nc.series1.Creator.SPACE</text>
</a>
</g>
</g>
<!-- Node8&#45;&gt;Node23 -->
<g id="edge22_Node000008_Node000023" class="edge">
<title>Node8&#45;&gt;Node23</title>
<g id="a_edge22_Node000008_Node000023"><a xlink:title=" ">
<path fill="none" stroke="#63b8ff" d="M314.29,-187.36C339.01,-167.66 385.16,-133.52 430,-114.5 435.9,-112 442.19,-109.8 448.56,-107.88"/>
<polygon fill="#63b8ff" stroke="#63b8ff" points="449.91,-111.13 458.6,-105.07 448.03,-104.39 449.91,-111.13"/>
</a>
</g>
</g>
<!-- Node24 -->
<g id="Node000024" class="node">
<title>Node24</title>
<g id="a_Node000024"><a xlink:href="classcam_1_1nc_1_1shopbot__mtc_1_1Creator.html#a1512dbb5d0140eb216ed709a542261ac" target="_top" xlink:title="Codes.">
<polygon fill="white" stroke="#666666" points="595,-67.5 436,-67.5 436,-37.5 595,-37.5 595,-67.5"/>
<text text-anchor="start" x="444" y="-55.5" font-family="Helvetica,sans-Serif" font-size="10.00">cam.nc.shopbot_mtc.Creator.</text>
<text text-anchor="middle" x="515.5" y="-44.5" font-family="Helvetica,sans-Serif" font-size="10.00">SPACE</text>
</a>
</g>
</g>
<!-- Node8&#45;&gt;Node24 -->
<g id="edge23_Node000008_Node000024" class="edge">
<title>Node8&#45;&gt;Node24</title>
<g id="a_edge23_Node000008_Node000024"><a xlink:title=" ">
<path fill="none" stroke="#63b8ff" d="M307.94,-187.24C329.48,-160.76 377.5,-106.26 430,-76.5 433.08,-74.76 436.29,-73.13 439.59,-71.62"/>
<polygon fill="#63b8ff" stroke="#63b8ff" points="441.21,-74.73 449.08,-67.64 438.51,-68.28 441.21,-74.73"/>
</a>
</g>
</g>
<!-- Node25 -->
<g id="Node000025" class="node">
<title>Node25</title>
<g id="a_Node000025"><a xlink:href="classcam_1_1nc_1_1tnc151_1_1Creator.html#af5d9e50b2ff0e73cd7524e2145d55d76" target="_top" xlink:title=" ">
<polygon fill="white" stroke="#666666" points="595.5,-19 435.5,-19 435.5,0 595.5,0 595.5,-19"/>
<text text-anchor="middle" x="515.5" y="-7" font-family="Helvetica,sans-Serif" font-size="10.00">cam.nc.tnc151.Creator.SPACE</text>
</a>
</g>
</g>
<!-- Node8&#45;&gt;Node25 -->
<g id="edge24_Node000008_Node000025" class="edge">
<title>Node8&#45;&gt;Node25</title>
<g id="a_edge24_Node000008_Node000025"><a xlink:title=" ">
<path fill="none" stroke="#63b8ff" d="M303.08,-187.31C319.86,-153.06 365.55,-69.62 430,-28.5 433.33,-26.38 436.86,-24.49 440.52,-22.81"/>
<polygon fill="#63b8ff" stroke="#63b8ff" points="441.88,-26.04 449.85,-19.06 439.27,-19.55 441.88,-26.04"/>
</a>
</g>
</g>
<!-- Node15 -->
<g id="Node000015" class="node">
<title>Node15</title>
<g id="a_Node000015"><a xlink:href="classcam_1_1nc_1_1anilam__crusader__m_1_1Creator.html#a36f873a0248bcaa4cf2cfb220dc1b00c" target="_top" xlink:title="Codes.">
<polygon fill="white" stroke="#666666" points="797,-313.5 661,-313.5 661,-283.5 797,-283.5 797,-313.5"/>
<text text-anchor="start" x="669" y="-301.5" font-family="Helvetica,sans-Serif" font-size="10.00">cam.nc.anilam_crusader</text>
<text text-anchor="middle" x="729" y="-290.5" font-family="Helvetica,sans-Serif" font-size="10.00">_m.Creator.SPACE_STR</text>
</a>
</g>
</g>
<!-- Node14&#45;&gt;Node15 -->
<g id="edge14_Node000014_Node000015" class="edge">
<title>Node14&#45;&gt;Node15</title>
<g id="a_edge14_Node000014_Node000015"><a xlink:title=" ">
<path fill="none" stroke="#63b8ff" d="M584.96,-191.1C590.71,-193.59 596.17,-196.67 601,-200.5 629.68,-223.2 608.74,-251.28 637,-274.5 641.34,-278.07 646.15,-281.11 651.24,-283.7"/>
<polygon fill="#63b8ff" stroke="#63b8ff" points="650.08,-287.02 660.64,-287.9 652.93,-280.62 650.08,-287.02"/>
</a>
</g>
</g>
<!-- Node16 -->
<g id="Node000016" class="node">
<title>Node16</title>
<g id="a_Node000016"><a xlink:href="classcam_1_1nc_1_1fadal_1_1Creator.html#a97a50724edf2662eb4fe76b15516b638" target="_top" xlink:title="Codes.">
<polygon fill="white" stroke="#666666" points="817,-265 641,-265 641,-246 817,-246 817,-265"/>
<text text-anchor="middle" x="729" y="-253" font-family="Helvetica,sans-Serif" font-size="10.00">cam.nc.fadal.Creator.SPACE_STR</text>
</a>
</g>
</g>
<!-- Node14&#45;&gt;Node16 -->
<g id="edge15_Node000014_Node000016" class="edge">
<title>Node14&#45;&gt;Node16</title>
<g id="a_edge15_Node000014_Node000016"><a xlink:title=" ">
<path fill="none" stroke="#63b8ff" d="M578.51,-191.05C586.35,-193.51 594.05,-196.61 601,-200.5 621.02,-211.7 616.83,-226.56 637,-237.5 640.31,-239.3 643.77,-240.91 647.33,-242.37"/>
<polygon fill="#63b8ff" stroke="#63b8ff" points="646.36,-245.74 656.95,-245.87 648.75,-239.16 646.36,-245.74"/>
</a>
</g>
</g>
<!-- Node17 -->
<g id="Node000017" class="node">
<title>Node17</title>
<g id="a_Node000017"><a xlink:href="classcam_1_1nc_1_1gravos_1_1Creator.html#ac0bc0d26e8a92a65c0f33d696ad850f5" target="_top" xlink:title="Codes.">
<polygon fill="white" stroke="#666666" points="821,-228 637,-228 637,-209 821,-209 821,-228"/>
<text text-anchor="middle" x="729" y="-216" font-family="Helvetica,sans-Serif" font-size="10.00">cam.nc.gravos.Creator.SPACE_STR</text>
</a>
</g>
</g>
<!-- Node14&#45;&gt;Node17 -->
<g id="edge16_Node000014_Node000017" class="edge">
<title>Node14&#45;&gt;Node17</title>
<g id="a_edge16_Node000014_Node000017"><a xlink:title=" ">
<path fill="none" stroke="#63b8ff" d="M570.97,-191.03C599.1,-195.95 633.63,-201.99 663.14,-207.15"/>
<polygon fill="#63b8ff" stroke="#63b8ff" points="662.9,-210.66 673.35,-208.94 664.1,-203.77 662.9,-210.66"/>
</a>
</g>
</g>
<!-- Node18 -->
<g id="Node000018" class="node">
<title>Node18</title>
<g id="a_Node000018"><a xlink:href="classcam_1_1nc_1_1iso_1_1Creator.html#aa481cf1e394988751640fd5ce5af991e" target="_top" xlink:title="Codes.">
<polygon fill="white" stroke="#666666" points="811.5,-191 646.5,-191 646.5,-172 811.5,-172 811.5,-191"/>
<text text-anchor="middle" x="729" y="-179" font-family="Helvetica,sans-Serif" font-size="10.00">cam.nc.iso.Creator.SPACE_STR</text>
</a>
</g>
</g>
<!-- Node14&#45;&gt;Node18 -->
<g id="edge17_Node000014_Node000018" class="edge">
<title>Node14&#45;&gt;Node18</title>
<g id="a_edge17_Node000014_Node000018"><a xlink:title=" ">
<path fill="none" stroke="#63b8ff" d="M586.05,-181.5C602,-181.5 619.2,-181.5 635.94,-181.5"/>
<polygon fill="#63b8ff" stroke="#63b8ff" points="636.29,-185 646.29,-181.5 636.29,-178 636.29,-185"/>
</a>
</g>
</g>
<!-- Node19 -->
<g id="Node000019" class="node">
<title>Node19</title>
<g id="a_Node000019"><a xlink:href="classcam_1_1nc_1_1lynx__otter__o_1_1Creator.html#a73b176561e066abcdb256a1bf53a5fcc" target="_top" xlink:title="Codes.">
<polygon fill="white" stroke="#666666" points="807.5,-153.5 650.5,-153.5 650.5,-123.5 807.5,-123.5 807.5,-153.5"/>
<text text-anchor="start" x="658.5" y="-141.5" font-family="Helvetica,sans-Serif" font-size="10.00">cam.nc.lynx_otter_o.Creator.</text>
<text text-anchor="middle" x="729" y="-130.5" font-family="Helvetica,sans-Serif" font-size="10.00">SPACE_STR</text>
</a>
</g>
</g>
<!-- Node14&#45;&gt;Node19 -->
<g id="edge18_Node000014_Node000019" class="edge">
<title>Node14&#45;&gt;Node19</title>
<g id="a_edge18_Node000014_Node000019"><a xlink:title=" ">
<path fill="none" stroke="#63b8ff" d="M563.44,-171.96C587.18,-167.13 616.71,-161.13 644.18,-155.54"/>
<polygon fill="#63b8ff" stroke="#63b8ff" points="645.09,-158.93 654.19,-153.51 643.69,-152.07 645.09,-158.93"/>
</a>
</g>
</g>
<!-- Node20 -->
<g id="Node000020" class="node">
<title>Node20</title>
<g id="a_Node000020"><a xlink:href="classcam_1_1nc_1_1mach3_1_1Creator.html#aa461d578afa76c5af9bb5562b79d955a" target="_top" xlink:title="Codes.">
<polygon fill="white" stroke="#666666" points="821,-105 637,-105 637,-86 821,-86 821,-105"/>
<text text-anchor="middle" x="729" y="-93" font-family="Helvetica,sans-Serif" font-size="10.00">cam.nc.mach3.Creator.SPACE_STR</text>
</a>
</g>
</g>
<!-- Node14&#45;&gt;Node20 -->
<g id="edge19_Node000014_Node000020" class="edge">
<title>Node14&#45;&gt;Node20</title>
<g id="a_edge19_Node000014_Node000020"><a xlink:title=" ">
<path fill="none" stroke="#63b8ff" d="M581.64,-171.86C588.46,-169.41 595.07,-166.34 601,-162.5 623.39,-148.01 614.5,-128.81 637,-114.5 640.35,-112.37 643.9,-110.47 647.57,-108.78"/>
<polygon fill="#63b8ff" stroke="#63b8ff" points="648.97,-111.99 656.94,-105 646.35,-105.5 648.97,-111.99"/>
</a>
</g>
</g>
<!-- Node21 -->
<g id="Node000021" class="node">
<title>Node21</title>
<g id="a_Node000021"><a xlink:href="classcam_1_1nc_1_1winpc_1_1Creator.html#aae1cb93a5dd430719105fa03a054f654" target="_top" xlink:title="Codes.">
<polygon fill="white" stroke="#666666" points="818.5,-68 639.5,-68 639.5,-49 818.5,-49 818.5,-68"/>
<text text-anchor="middle" x="729" y="-56" font-family="Helvetica,sans-Serif" font-size="10.00">cam.nc.winpc.Creator.SPACE_STR</text>
</a>
</g>
</g>
<!-- Node14&#45;&gt;Node21 -->
<g id="edge20_Node000014_Node000021" class="edge">
<title>Node14&#45;&gt;Node21</title>
<g id="a_edge20_Node000014_Node000021"><a xlink:title=" ">
<path fill="none" stroke="#63b8ff" d="M585.61,-172C591.16,-169.49 596.39,-166.36 601,-162.5 632.75,-135.88 604.91,-102.71 637,-76.5 638.54,-75.24 640.15,-74.06 641.81,-72.95"/>
<polygon fill="#63b8ff" stroke="#63b8ff" points="643.54,-76 650.52,-68.03 640.09,-69.91 643.54,-76"/>
</a>
</g>
</g>
</g>
</svg>

<g id="navigator" transform="translate(0 0)" fill="#404254">
  <rect fill="#f2f5e9" fill-opacity="0.5" stroke="#606060" stroke-width=".5" x="0" y="0" width="60" height="60"/>
  <use id="zoomplus" xlink:href="#zoomPlus" x="17" y="9" onmousedown="handleZoom(evt,'in')"/>
  <use id="zoomminus" xlink:href="#zoomMin" x="42" y="9" onmousedown="handleZoom(evt,'out')"/>
  <use id="reset" xlink:href="#resetDef" x="30" y="36" onmousedown="handleReset()"/>
   <use id="arrowup" xlink:href="#arrowUp" x="0" y="0" onmousedown="handlePan(0,-1)"/>
  <use id="arrowright" xlink:href="#arrowRight" x="0" y="0" onmousedown="handlePan(1,0)"/>
  <use id="arrowdown" xlink:href="#arrowDown" x="0" y="0" onmousedown="handlePan(0,1)"/>
  <use id="arrowleft" xlink:href="#arrowLeft" x="0" y="0" onmousedown="handlePan(-1,0)"/>
</g>
<svg viewBox="0 0 15 15" width="100%" height="30px" preserveAspectRatio="xMaxYMin meet">
 <g id="arrow_out" transform="scale(0.3 0.3)">
  <a xlink:href="classcam_1_1nc_1_1iso_1_1Creator_ae9be52dffec064b2051414859e10eaf3_cgraph_org.svg" target="_base">
   <rect id="button" ry="5" rx="5" y="6" x="6" height="38" width="38"
        fill="#f2f5e9" fill-opacity="0.5" stroke="#606060" stroke-width="1.0"/>
   <path id="arrow"
     d="M 11.500037,31.436501 C 11.940474,20.09759 22.043105,11.32322 32.158766,21.979434 L 37.068811,17.246167 C 37.068811,17.246167 37.088388,32 37.088388,32 L 22.160133,31.978069 C 22.160133,31.978069 26.997745,27.140456 26.997745,27.140456 C 18.528582,18.264221 13.291696,25.230495 11.500037,31.436501 z"
     style="fill:#404040;"/>
  </a>
 </g>
</svg>

<style type='text/css'>
<![CDATA[
[data-mouse-over-selected='false'] { opacity: 0.7; }
[data-mouse-over-selected='true']  { opacity: 1.0; }
]]>
</style>
<script type="application/ecmascript"><![CDATA[
document.addEventListener('DOMContentLoaded', (event) => {
  highlightEdges();
  highlightAdjacentNodes();
});
]]></script>
</svg>
