<?xml version="1.0" encoding="UTF-8" standalone="no"?>
<!DOCTYPE svg PUBLIC "-//W3C//DTD SVG 1.1//EN"
 "http://www.w3.org/Graphics/SVG/1.1/DTD/svg11.dtd">
<!-- Generated by graphviz version 2.43.0 (0)
 -->
<!-- Title: cam.nc.iso.Creator.add_stock Pages: 1 -->
<svg width="1216pt" height="487pt"
 viewBox="0.00 0.00 1216.00 486.50" xmlns="http://www.w3.org/2000/svg" xmlns:xlink="http://www.w3.org/1999/xlink">
<g id="graph0" class="graph" transform="scale(1 1) rotate(0) translate(4 482.5)">
<title>cam.nc.iso.Creator.add_stock</title>
<!-- Node1 -->
<g id="Node000001" class="node">
<title>Node1</title>
<g id="a_Node000001"><a xlink:title=" ">
<polygon fill="#999999" stroke="#666666" points="128,-291 0,-291 0,-261 128,-261 128,-291"/>
<text text-anchor="start" x="8" y="-279" font-family="Helvetica,sans-Serif" font-size="10.00">cam.nc.iso.Creator.add</text>
<text text-anchor="middle" x="64" y="-268" font-family="Helvetica,sans-Serif" font-size="10.00">_stock</text>
</a>
</g>
</g>
<!-- Node2 -->
<g id="Node000002" class="node">
<title>Node2</title>
<g id="a_Node000002"><a xlink:href="classcam_1_1nc_1_1cad__nc__read_1_1Parser.html#adcf2f47949df29f187f27fe985884633" target="_top" xlink:title=" ">
<polygon fill="white" stroke="#666666" points="351.5,-460.5 175.5,-460.5 175.5,-441.5 351.5,-441.5 351.5,-460.5"/>
<text text-anchor="middle" x="263.5" y="-448.5" font-family="Helvetica,sans-Serif" font-size="10.00">cam.nc.cad_nc_read.Parser.write</text>
</a>
</g>
</g>
<!-- Node1&#45;&gt;Node2 -->
<g id="edge1_Node000001_Node000002" class="edge">
<title>Node1&#45;&gt;Node2</title>
<g id="a_edge1_Node000001_Node000002"><a xlink:title=" ">
<path fill="none" stroke="#63b8ff" d="M69.8,-291.02C80.83,-322.89 111.14,-397.27 164,-433 166.14,-434.45 168.37,-435.79 170.66,-437.03"/>
<polygon fill="#63b8ff" stroke="#63b8ff" points="169.26,-440.24 179.8,-441.34 172.24,-433.91 169.26,-440.24"/>
</a>
</g>
</g>
<!-- Node3 -->
<g id="Node000003" class="node">
<title>Node3</title>
<g id="a_Node000003"><a xlink:href="classcam_1_1nc_1_1hxml__writer_1_1HxmlWriter.html#aed6f93c98cb8c0e3f3e826e75b6d6f15" target="_top" xlink:title=" ">
<polygon fill="white" stroke="#666666" points="363,-405.5 164,-405.5 164,-386.5 363,-386.5 363,-405.5"/>
<text text-anchor="middle" x="263.5" y="-393.5" font-family="Helvetica,sans-Serif" font-size="10.00">cam.nc.hxml_writer.HxmlWriter.write</text>
</a>
</g>
</g>
<!-- Node1&#45;&gt;Node3 -->
<g id="edge3_Node000001_Node000003" class="edge">
<title>Node1&#45;&gt;Node3</title>
<g id="a_edge3_Node000001_Node000003"><a xlink:title=" ">
<path fill="none" stroke="#63b8ff" d="M75.1,-291.34C91.06,-314.21 124.38,-356.84 164,-378 167.48,-379.86 171.12,-381.53 174.86,-383.03"/>
<polygon fill="#63b8ff" stroke="#63b8ff" points="173.73,-386.35 184.33,-386.42 176.1,-379.76 173.73,-386.35"/>
</a>
</g>
</g>
<!-- Node4 -->
<g id="Node000004" class="node">
<title>Node4</title>
<g id="a_Node000004"><a xlink:href="classcam_1_1nc_1_1iso_1_1Creator.html#abb81af5a0bdddfed387b71b68a51cc7a" target="_top" xlink:title="Internals.">
<polygon fill="white" stroke="#666666" points="331,-368.5 196,-368.5 196,-349.5 331,-349.5 331,-368.5"/>
<text text-anchor="middle" x="263.5" y="-356.5" font-family="Helvetica,sans-Serif" font-size="10.00">cam.nc.iso.Creator.write</text>
</a>
</g>
</g>
<!-- Node1&#45;&gt;Node4 -->
<g id="edge5_Node000001_Node000004" class="edge">
<title>Node1&#45;&gt;Node4</title>
<g id="a_edge5_Node000001_Node000004"><a xlink:title=" ">
<path fill="none" stroke="#63b8ff" d="M83.09,-291.13C102.03,-306.16 133.27,-328.69 164,-341 170.96,-343.79 178.36,-346.14 185.87,-348.14"/>
<polygon fill="#63b8ff" stroke="#63b8ff" points="185.23,-351.58 195.77,-350.56 186.89,-344.78 185.23,-351.58"/>
</a>
</g>
</g>
<!-- Node5 -->
<g id="Node000005" class="node">
<title>Node5</title>
<g id="a_Node000005"><a xlink:href="classcam_1_1nc_1_1nc_1_1Creator.html#a80f2134add83bfaaf2870d075d36ed8a" target="_top" xlink:title=" ">
<polygon fill="white" stroke="#666666" points="329.5,-313.5 197.5,-313.5 197.5,-294.5 329.5,-294.5 329.5,-313.5"/>
<text text-anchor="middle" x="263.5" y="-301.5" font-family="Helvetica,sans-Serif" font-size="10.00">cam.nc.nc.Creator.write</text>
</a>
</g>
</g>
<!-- Node1&#45;&gt;Node5 -->
<g id="edge6_Node000001_Node000005" class="edge">
<title>Node1&#45;&gt;Node5</title>
<g id="a_edge6_Node000001_Node000005"><a xlink:title=" ">
<path fill="none" stroke="#63b8ff" d="M128.03,-284.94C146.88,-287.61 167.72,-290.56 187.26,-293.33"/>
<polygon fill="#63b8ff" stroke="#63b8ff" points="186.96,-296.82 197.35,-294.76 187.94,-289.89 186.96,-296.82"/>
</a>
</g>
</g>
<!-- Node6 -->
<g id="Node000006" class="node">
<title>Node6</title>
<g id="a_Node000006"><a xlink:href="classcam_1_1nc_1_1nclathe__read_1_1Parser.html#ab5ea283b461b57e48c8d5b0ad0a45694" target="_top" xlink:title=" ">
<polygon fill="white" stroke="#666666" points="352.5,-258.5 174.5,-258.5 174.5,-239.5 352.5,-239.5 352.5,-258.5"/>
<text text-anchor="middle" x="263.5" y="-246.5" font-family="Helvetica,sans-Serif" font-size="10.00">cam.nc.nclathe_read.Parser.write</text>
</a>
</g>
</g>
<!-- Node1&#45;&gt;Node6 -->
<g id="edge8_Node000001_Node000006" class="edge">
<title>Node1&#45;&gt;Node6</title>
<g id="a_edge8_Node000001_Node000006"><a xlink:title=" ">
<path fill="none" stroke="#63b8ff" d="M128.03,-267.38C145.46,-265 164.61,-262.38 182.85,-259.89"/>
<polygon fill="#63b8ff" stroke="#63b8ff" points="183.44,-263.34 192.88,-258.52 182.5,-256.4 183.44,-263.34"/>
</a>
</g>
</g>
<!-- Node7 -->
<g id="Node000007" class="node">
<title>Node7</title>
<g id="a_Node000007"><a xlink:href="classcam_1_1nc_1_1recreator_1_1Redirector.html#a79cc974683588db3ef959189e7552c0d" target="_top" xlink:title="Programs.">
<polygon fill="white" stroke="#666666" points="353,-203.5 174,-203.5 174,-184.5 353,-184.5 353,-203.5"/>
<text text-anchor="middle" x="263.5" y="-191.5" font-family="Helvetica,sans-Serif" font-size="10.00">cam.nc.recreator.Redirector.write</text>
</a>
</g>
</g>
<!-- Node1&#45;&gt;Node7 -->
<g id="edge10_Node000001_Node000007" class="edge">
<title>Node1&#45;&gt;Node7</title>
<g id="a_edge10_Node000001_Node000007"><a xlink:title=" ">
<path fill="none" stroke="#63b8ff" d="M96.86,-260.86C116.15,-251.86 141.33,-240.4 164,-231 184.31,-222.58 207.3,-213.9 225.95,-207.06"/>
<polygon fill="#63b8ff" stroke="#63b8ff" points="227.35,-210.28 235.55,-203.57 224.96,-203.7 227.35,-210.28"/>
</a>
</g>
</g>
<!-- Node8 -->
<g id="Node000008" class="node">
<title>Node8</title>
<g id="a_Node000008"><a xlink:href="classcam_1_1nc_1_1format_1_1Address.html#aa21f0ffeb829537d9103759276c01a4b" target="_top" xlink:title=" ">
<polygon fill="white" stroke="#666666" points="342.5,-166.5 184.5,-166.5 184.5,-147.5 342.5,-147.5 342.5,-166.5"/>
<text text-anchor="middle" x="263.5" y="-154.5" font-family="Helvetica,sans-Serif" font-size="10.00">cam.nc.format.Address.write</text>
</a>
</g>
</g>
<!-- Node1&#45;&gt;Node8 -->
<g id="edge12_Node000001_Node000008" class="edge">
<title>Node1&#45;&gt;Node8</title>
<g id="a_edge12_Node000001_Node000008"><a xlink:title=" ">
<path fill="none" stroke="#63b8ff" d="M75.47,-260.64C91.66,-238.19 125,-196.83 164,-176 168.33,-173.69 172.91,-171.65 177.62,-169.86"/>
<polygon fill="#63b8ff" stroke="#63b8ff" points="179.09,-173.06 187.44,-166.53 176.84,-166.43 179.09,-173.06"/>
</a>
</g>
</g>
<!-- Node19 -->
<g id="Node000019" class="node">
<title>Node19</title>
<g id="a_Node000019"><a xlink:href="classcam_1_1nc_1_1format_1_1AddressPlusMinus.html#aaacea4c7b677f0a602dbc9023ff365d2" target="_top" xlink:title=" ">
<polygon fill="white" stroke="#666666" points="338.5,-129 188.5,-129 188.5,-99 338.5,-99 338.5,-129"/>
<text text-anchor="start" x="196.5" y="-117" font-family="Helvetica,sans-Serif" font-size="10.00">cam.nc.format.AddressPlus</text>
<text text-anchor="middle" x="263.5" y="-106" font-family="Helvetica,sans-Serif" font-size="10.00">Minus.write</text>
</a>
</g>
</g>
<!-- Node1&#45;&gt;Node19 -->
<g id="edge25_Node000001_Node000019" class="edge">
<title>Node1&#45;&gt;Node19</title>
<g id="a_edge25_Node000001_Node000019"><a xlink:title=" ">
<path fill="none" stroke="#63b8ff" d="M71.47,-260.83C84.52,-232.11 116.83,-169.84 164,-138 168.65,-134.86 173.67,-132.13 178.89,-129.76"/>
<polygon fill="#63b8ff" stroke="#63b8ff" points="180.54,-132.87 188.48,-125.86 177.9,-126.38 180.54,-132.87"/>
</a>
</g>
</g>
<!-- Node2&#45;&gt;Node2 -->
<g id="edge2_Node000002_Node000002" class="edge">
<title>Node2&#45;&gt;Node2</title>
<g id="a_edge2_Node000002_Node000002"><a xlink:title=" ">
<path fill="none" stroke="#63b8ff" d="M232.98,-460.58C218.14,-469.23 228.31,-478.5 263.5,-478.5 288.24,-478.5 300.62,-473.92 300.62,-468.19"/>
<polygon fill="#63b8ff" stroke="#63b8ff" points="303.22,-465.84 294.02,-460.58 297.93,-470.43 303.22,-465.84"/>
</a>
</g>
</g>
<!-- Node3&#45;&gt;Node3 -->
<g id="edge4_Node000003_Node000003" class="edge">
<title>Node3&#45;&gt;Node3</title>
<g id="a_edge4_Node000003_Node000003"><a xlink:title=" ">
<path fill="none" stroke="#63b8ff" d="M232.98,-405.58C218.14,-414.23 228.31,-423.5 263.5,-423.5 288.24,-423.5 300.62,-418.92 300.62,-413.19"/>
<polygon fill="#63b8ff" stroke="#63b8ff" points="303.22,-410.84 294.02,-405.58 297.93,-415.43 303.22,-410.84"/>
</a>
</g>
</g>
<!-- Node5&#45;&gt;Node5 -->
<g id="edge7_Node000005_Node000005" class="edge">
<title>Node5&#45;&gt;Node5</title>
<g id="a_edge7_Node000005_Node000005"><a xlink:title=" ">
<path fill="none" stroke="#63b8ff" d="M232.98,-313.58C218.14,-322.23 228.31,-331.5 263.5,-331.5 288.24,-331.5 300.62,-326.92 300.62,-321.19"/>
<polygon fill="#63b8ff" stroke="#63b8ff" points="303.22,-318.84 294.02,-313.58 297.93,-323.43 303.22,-318.84"/>
</a>
</g>
</g>
<!-- Node6&#45;&gt;Node6 -->
<g id="edge9_Node000006_Node000006" class="edge">
<title>Node6&#45;&gt;Node6</title>
<g id="a_edge9_Node000006_Node000006"><a xlink:title=" ">
<path fill="none" stroke="#63b8ff" d="M232.98,-258.58C218.14,-267.23 228.31,-276.5 263.5,-276.5 288.24,-276.5 300.62,-271.92 300.62,-266.19"/>
<polygon fill="#63b8ff" stroke="#63b8ff" points="303.22,-263.84 294.02,-258.58 297.93,-268.43 303.22,-263.84"/>
</a>
</g>
</g>
<!-- Node7&#45;&gt;Node7 -->
<g id="edge11_Node000007_Node000007" class="edge">
<title>Node7&#45;&gt;Node7</title>
<g id="a_edge11_Node000007_Node000007"><a xlink:title=" ">
<path fill="none" stroke="#63b8ff" d="M232.98,-203.58C218.14,-212.23 228.31,-221.5 263.5,-221.5 288.24,-221.5 300.62,-216.92 300.62,-211.19"/>
<polygon fill="#63b8ff" stroke="#63b8ff" points="303.22,-208.84 294.02,-203.58 297.93,-213.43 303.22,-208.84"/>
</a>
</g>
</g>
<!-- Node9 -->
<g id="Node000009" class="node">
<title>Node9</title>
<g id="a_Node000009"><a xlink:href="classcam_1_1async__op_1_1AsyncOperatorMixin.html#a9628cbca8e69ec75b2337171a02bf428" target="_top" xlink:title=" ">
<polygon fill="white" stroke="#666666" points="560,-150 399,-150 399,-120 560,-120 560,-150"/>
<text text-anchor="start" x="407" y="-138" font-family="Helvetica,sans-Serif" font-size="10.00">cam.async_op.AsyncOperator</text>
<text text-anchor="middle" x="479.5" y="-127" font-family="Helvetica,sans-Serif" font-size="10.00">Mixin.modal</text>
</a>
</g>
</g>
<!-- Node8&#45;&gt;Node9 -->
<g id="edge13_Node000008_Node000009" class="edge">
<title>Node8&#45;&gt;Node9</title>
<g id="a_edge13_Node000008_Node000009"><a xlink:title=" ">
<path fill="none" stroke="#63b8ff" d="M342.67,-148.96C357.65,-147.42 373.45,-145.8 388.77,-144.22"/>
<polygon fill="#63b8ff" stroke="#63b8ff" points="389.16,-147.7 398.75,-143.2 388.45,-140.74 389.16,-147.7"/>
</a>
</g>
</g>
<!-- Node10 -->
<g id="Node000010" class="node">
<title>Node10</title>
<g id="a_Node000010"><a xlink:href="classcam_1_1async__op_1_1AsyncOperatorMixin.html#a15a51cfd69d8e453e2e3d64386b1ebe3" target="_top" xlink:title=" ">
<polygon fill="white" stroke="#666666" points="757,-150 596,-150 596,-120 757,-120 757,-150"/>
<text text-anchor="start" x="604" y="-138" font-family="Helvetica,sans-Serif" font-size="10.00">cam.async_op.AsyncOperator</text>
<text text-anchor="middle" x="676.5" y="-127" font-family="Helvetica,sans-Serif" font-size="10.00">Mixin.tick</text>
</a>
</g>
</g>
<!-- Node9&#45;&gt;Node10 -->
<g id="edge14_Node000009_Node000010" class="edge">
<title>Node9&#45;&gt;Node10</title>
<g id="a_edge14_Node000009_Node000010"><a xlink:title=" ">
<path fill="none" stroke="#63b8ff" d="M560.1,-135C568.57,-135 577.24,-135 585.82,-135"/>
<polygon fill="#63b8ff" stroke="#63b8ff" points="585.84,-138.5 595.84,-135 585.84,-131.5 585.84,-138.5"/>
</a>
</g>
</g>
<!-- Node11 -->
<g id="Node000011" class="node">
<title>Node11</title>
<g id="a_Node000011"><a xlink:href="classcam_1_1async__op_1_1AsyncTestOperator.html#a42606ca890a957aa7070a4bc6f25228b" target="_top" xlink:title=" ">
<polygon fill="white" stroke="#666666" points="1014,-270 793,-270 793,-240 1014,-240 1014,-270"/>
<text text-anchor="start" x="801" y="-258" font-family="Helvetica,sans-Serif" font-size="10.00">cam.async_op.AsyncTestOperator.execute</text>
<text text-anchor="middle" x="903.5" y="-247" font-family="Helvetica,sans-Serif" font-size="10.00">_async</text>
</a>
</g>
</g>
<!-- Node10&#45;&gt;Node11 -->
<g id="edge15_Node000010_Node000011" class="edge">
<title>Node10&#45;&gt;Node11</title>
<g id="a_edge15_Node000010_Node000011"><a xlink:title=" ">
<path fill="none" stroke="#63b8ff" d="M691.18,-150.27C711.31,-171.74 751.07,-210.51 793,-231 797.09,-233 801.35,-234.84 805.72,-236.52"/>
<polygon fill="#63b8ff" stroke="#63b8ff" points="804.81,-239.91 815.41,-239.97 807.16,-233.32 804.81,-239.91"/>
</a>
</g>
</g>
<!-- Node12 -->
<g id="Node000012" class="node">
<title>Node12</title>
<g id="a_Node000012"><a xlink:href="classcam_1_1ops_1_1CalculatePath.html#a13dfe2f8578383234e74e58e2f292e1b" target="_top" xlink:title=" ">
<polygon fill="white" stroke="#666666" points="988,-222 819,-222 819,-192 988,-192 988,-222"/>
<text text-anchor="start" x="827" y="-210" font-family="Helvetica,sans-Serif" font-size="10.00">cam.ops.CalculatePath.execute</text>
<text text-anchor="middle" x="903.5" y="-199" font-family="Helvetica,sans-Serif" font-size="10.00">_async</text>
</a>
</g>
</g>
<!-- Node10&#45;&gt;Node12 -->
<g id="edge16_Node000010_Node000012" class="edge">
<title>Node10&#45;&gt;Node12</title>
<g id="a_edge16_Node000010_Node000012"><a xlink:title=" ">
<path fill="none" stroke="#63b8ff" d="M709.29,-150.01C732.18,-160.38 764,-173.88 793,-183 800.31,-185.3 807.96,-187.46 815.68,-189.47"/>
<polygon fill="#63b8ff" stroke="#63b8ff" points="814.91,-192.89 825.46,-191.93 816.62,-186.1 814.91,-192.89"/>
</a>
</g>
</g>
<!-- Node14 -->
<g id="Node000014" class="node">
<title>Node14</title>
<g id="a_Node000014"><a xlink:href="classcam_1_1ops_1_1PathsChain.html#a6fc64e383ccf724b2325e18a82d53eae" target="_top" xlink:title=" ">
<polygon fill="white" stroke="#666666" points="981.5,-174 825.5,-174 825.5,-144 981.5,-144 981.5,-174"/>
<text text-anchor="start" x="833.5" y="-162" font-family="Helvetica,sans-Serif" font-size="10.00">cam.ops.PathsChain.execute</text>
<text text-anchor="middle" x="903.5" y="-151" font-family="Helvetica,sans-Serif" font-size="10.00">_async</text>
</a>
</g>
</g>
<!-- Node10&#45;&gt;Node14 -->
<g id="edge18_Node000010_Node000014" class="edge">
<title>Node10&#45;&gt;Node14</title>
<g id="a_edge18_Node000010_Node000014"><a xlink:title=" ">
<path fill="none" stroke="#63b8ff" d="M757.14,-143.5C775.9,-145.5 795.98,-147.64 815.06,-149.67"/>
<polygon fill="#63b8ff" stroke="#63b8ff" points="814.92,-153.18 825.23,-150.76 815.66,-146.22 814.92,-153.18"/>
</a>
</g>
</g>
<!-- Node16 -->
<g id="Node000016" class="node">
<title>Node16</title>
<g id="a_Node000016"><a xlink:href="classcam_1_1ops_1_1CAMSimulate.html#a633151f17849d281fd52ce82c00356a7" target="_top" xlink:title=" ">
<polygon fill="white" stroke="#666666" points="987.5,-126 819.5,-126 819.5,-96 987.5,-96 987.5,-126"/>
<text text-anchor="start" x="827.5" y="-114" font-family="Helvetica,sans-Serif" font-size="10.00">cam.ops.CAMSimulate.execute</text>
<text text-anchor="middle" x="903.5" y="-103" font-family="Helvetica,sans-Serif" font-size="10.00">_async</text>
</a>
</g>
</g>
<!-- Node10&#45;&gt;Node16 -->
<g id="edge21_Node000010_Node000016" class="edge">
<title>Node10&#45;&gt;Node16</title>
<g id="a_edge21_Node000010_Node000016"><a xlink:title=" ">
<path fill="none" stroke="#63b8ff" d="M757.14,-126.5C773.95,-124.71 791.82,-122.81 809.08,-120.97"/>
<polygon fill="#63b8ff" stroke="#63b8ff" points="809.58,-124.43 819.15,-119.89 808.84,-117.47 809.58,-124.43"/>
</a>
</g>
</g>
<!-- Node17 -->
<g id="Node000017" class="node">
<title>Node17</title>
<g id="a_Node000017"><a xlink:href="classcam_1_1ops_1_1CAMSimulateChain.html#a1e77c7ce21b3b7e3e38a12b6b62517e9" target="_top" xlink:title=" ">
<polygon fill="white" stroke="#666666" points="1001.5,-78 805.5,-78 805.5,-48 1001.5,-48 1001.5,-78"/>
<text text-anchor="start" x="813.5" y="-66" font-family="Helvetica,sans-Serif" font-size="10.00">cam.ops.CAMSimulateChain.execute</text>
<text text-anchor="middle" x="903.5" y="-55" font-family="Helvetica,sans-Serif" font-size="10.00">_async</text>
</a>
</g>
</g>
<!-- Node10&#45;&gt;Node17 -->
<g id="edge22_Node000010_Node000017" class="edge">
<title>Node10&#45;&gt;Node17</title>
<g id="a_edge22_Node000010_Node000017"><a xlink:title=" ">
<path fill="none" stroke="#63b8ff" d="M709.29,-119.99C732.18,-109.62 764,-96.12 793,-87 800.31,-84.7 807.96,-82.54 815.68,-80.53"/>
<polygon fill="#63b8ff" stroke="#63b8ff" points="816.62,-83.9 825.46,-78.07 814.91,-77.11 816.62,-83.9"/>
</a>
</g>
</g>
<!-- Node18 -->
<g id="Node000018" class="node">
<title>Node18</title>
<g id="a_Node000018"><a xlink:href="classcam_1_1async__op_1_1AsyncOperatorMixin.html#a2216ff6bb0dfd132f4ec4cf79b7cba2b" target="_top" xlink:title=" ">
<polygon fill="white" stroke="#666666" points="984,-30 823,-30 823,0 984,0 984,-30"/>
<text text-anchor="start" x="831" y="-18" font-family="Helvetica,sans-Serif" font-size="10.00">cam.async_op.AsyncOperator</text>
<text text-anchor="middle" x="903.5" y="-7" font-family="Helvetica,sans-Serif" font-size="10.00">Mixin.show_progress</text>
</a>
</g>
</g>
<!-- Node10&#45;&gt;Node18 -->
<g id="edge24_Node000010_Node000018" class="edge">
<title>Node10&#45;&gt;Node18</title>
<g id="a_edge24_Node000010_Node000018"><a xlink:title=" ">
<path fill="none" stroke="#63b8ff" d="M691.18,-119.73C711.31,-98.26 751.07,-59.49 793,-39 799.43,-35.86 806.27,-33.12 813.28,-30.74"/>
<polygon fill="#63b8ff" stroke="#63b8ff" points="814.42,-34.05 822.91,-27.71 812.32,-27.37 814.42,-34.05"/>
</a>
</g>
</g>
<!-- Node13 -->
<g id="Node000013" class="node">
<title>Node13</title>
<g id="a_Node000013"><a xlink:href="namespacecam_1_1ops.html#aa8e95f7410a7ceb178db48f4f8c2d995" target="_top" xlink:title=" ">
<polygon fill="white" stroke="#666666" points="1185.5,-192.5 1072.5,-192.5 1072.5,-173.5 1185.5,-173.5 1185.5,-192.5"/>
<text text-anchor="middle" x="1129" y="-180.5" font-family="Helvetica,sans-Serif" font-size="10.00">cam.ops._calc_path</text>
</a>
</g>
</g>
<!-- Node12&#45;&gt;Node13 -->
<g id="edge17_Node000012_Node000013" class="edge">
<title>Node12&#45;&gt;Node13</title>
<g id="a_edge17_Node000012_Node000013"><a xlink:title=" ">
<path fill="none" stroke="#63b8ff" d="M988.04,-198.03C1012.56,-195.4 1039.01,-192.56 1062.25,-190.06"/>
<polygon fill="#63b8ff" stroke="#63b8ff" points="1062.77,-193.52 1072.34,-188.98 1062.03,-186.56 1062.77,-193.52"/>
</a>
</g>
</g>
<!-- Node14&#45;&gt;Node13 -->
<g id="edge19_Node000014_Node000013" class="edge">
<title>Node14&#45;&gt;Node13</title>
<g id="a_edge19_Node000014_Node000013"><a xlink:title=" ">
<path fill="none" stroke="#63b8ff" d="M981.73,-167.29C1007.9,-170.1 1036.87,-173.21 1062.08,-175.92"/>
<polygon fill="#63b8ff" stroke="#63b8ff" points="1061.95,-179.43 1072.27,-177.02 1062.7,-172.47 1061.95,-179.43"/>
</a>
</g>
</g>
<!-- Node15 -->
<g id="Node000015" class="node">
<title>Node15</title>
<g id="a_Node000015"><a xlink:href="namespacecam_1_1ops.html#ab55fb8ec9a00e021e8e4a1c3ecc97cb4" target="_top" xlink:title=" ">
<polygon fill="white" stroke="#666666" points="1208,-126.5 1050,-126.5 1050,-107.5 1208,-107.5 1208,-126.5"/>
<text text-anchor="middle" x="1129" y="-114.5" font-family="Helvetica,sans-Serif" font-size="10.00">cam.ops.getChainOperations</text>
</a>
</g>
</g>
<!-- Node14&#45;&gt;Node15 -->
<g id="edge20_Node000014_Node000015" class="edge">
<title>Node14&#45;&gt;Node15</title>
<g id="a_edge20_Node000014_Node000015"><a xlink:title=" ">
<path fill="none" stroke="#63b8ff" d="M981.73,-144.49C1009.81,-139.21 1041.12,-133.33 1067.54,-128.36"/>
<polygon fill="#63b8ff" stroke="#63b8ff" points="1068.23,-131.79 1077.41,-126.51 1066.94,-124.91 1068.23,-131.79"/>
</a>
</g>
</g>
<!-- Node17&#45;&gt;Node15 -->
<g id="edge23_Node000017_Node000015" class="edge">
<title>Node17&#45;&gt;Node15</title>
<g id="a_edge23_Node000017_Node000015"><a xlink:title=" ">
<path fill="none" stroke="#63b8ff" d="M975.28,-78.06C988.19,-80.94 1001.51,-83.99 1014,-87 1036.91,-92.52 1062.28,-99.15 1083.25,-104.77"/>
<polygon fill="#63b8ff" stroke="#63b8ff" points="1082.6,-108.21 1093.17,-107.43 1084.42,-101.45 1082.6,-108.21"/>
</a>
</g>
</g>
<!-- Node19&#45;&gt;Node9 -->
<g id="edge26_Node000019_Node000009" class="edge">
<title>Node19&#45;&gt;Node9</title>
<g id="a_edge26_Node000019_Node000009"><a xlink:title=" ">
<path fill="none" stroke="#63b8ff" d="M338.75,-121.29C354.84,-122.87 372.03,-124.55 388.65,-126.18"/>
<polygon fill="#63b8ff" stroke="#63b8ff" points="388.62,-129.7 398.92,-127.19 389.3,-122.73 388.62,-129.7"/>
</a>
</g>
</g>
</g>
</svg>
