<?xml version="1.0" encoding="UTF-8" standalone="no"?>
<!DOCTYPE svg PUBLIC "-//W3C//DTD SVG 1.1//EN"
 "http://www.w3.org/Graphics/SVG/1.1/DTD/svg11.dtd">
<!-- Generated by graphviz version 2.43.0 (0)
 -->
<!-- Title: cam.async_op.AsyncOperatorMixin.modal Pages: 1 -->
<svg width="817pt" height="278pt"
 viewBox="0.00 0.00 817.00 278.00" xmlns="http://www.w3.org/2000/svg" xmlns:xlink="http://www.w3.org/1999/xlink">
<g id="graph0" class="graph" transform="scale(1 1) rotate(0) translate(4 274)">
<title>cam.async_op.AsyncOperatorMixin.modal</title>
<!-- Node1 -->
<g id="Node000001" class="node">
<title>Node1</title>
<g id="a_Node000001"><a xlink:title=" ">
<polygon fill="#999999" stroke="#666666" points="161,-150 0,-150 0,-120 161,-120 161,-150"/>
<text text-anchor="start" x="8" y="-138" font-family="Helvetica,sans-Serif" font-size="10.00">cam.async_op.AsyncOperator</text>
<text text-anchor="middle" x="80.5" y="-127" font-family="Helvetica,sans-Serif" font-size="10.00">Mixin.modal</text>
</a>
</g>
</g>
<!-- Node2 -->
<g id="Node000002" class="node">
<title>Node2</title>
<g id="a_Node000002"><a xlink:href="classcam_1_1async__op_1_1AsyncOperatorMixin.html#a15a51cfd69d8e453e2e3d64386b1ebe3" target="_top" xlink:title=" ">
<polygon fill="white" stroke="#666666" points="358,-150 197,-150 197,-120 358,-120 358,-150"/>
<text text-anchor="start" x="205" y="-138" font-family="Helvetica,sans-Serif" font-size="10.00">cam.async_op.AsyncOperator</text>
<text text-anchor="middle" x="277.5" y="-127" font-family="Helvetica,sans-Serif" font-size="10.00">Mixin.tick</text>
</a>
</g>
</g>
<!-- Node1&#45;&gt;Node2 -->
<g id="edge1_Node000001_Node000002" class="edge">
<title>Node1&#45;&gt;Node2</title>
<g id="a_edge1_Node000001_Node000002"><a xlink:title=" ">
<path fill="none" stroke="#63b8ff" d="M161.1,-135C169.57,-135 178.24,-135 186.82,-135"/>
<polygon fill="#63b8ff" stroke="#63b8ff" points="186.84,-138.5 196.84,-135 186.84,-131.5 186.84,-138.5"/>
</a>
</g>
</g>
<!-- Node3 -->
<g id="Node000003" class="node">
<title>Node3</title>
<g id="a_Node000003"><a xlink:href="classcam_1_1async__op_1_1AsyncTestOperator.html#a42606ca890a957aa7070a4bc6f25228b" target="_top" xlink:title=" ">
<polygon fill="white" stroke="#666666" points="615,-270 394,-270 394,-240 615,-240 615,-270"/>
<text text-anchor="start" x="402" y="-258" font-family="Helvetica,sans-Serif" font-size="10.00">cam.async_op.AsyncTestOperator.execute</text>
<text text-anchor="middle" x="504.5" y="-247" font-family="Helvetica,sans-Serif" font-size="10.00">_async</text>
</a>
</g>
</g>
<!-- Node2&#45;&gt;Node3 -->
<g id="edge2_Node000002_Node000003" class="edge">
<title>Node2&#45;&gt;Node3</title>
<g id="a_edge2_Node000002_Node000003"><a xlink:title=" ">
<path fill="none" stroke="#63b8ff" d="M292.18,-150.27C312.31,-171.74 352.07,-210.51 394,-231 398.09,-233 402.35,-234.84 406.72,-236.52"/>
<polygon fill="#63b8ff" stroke="#63b8ff" points="405.81,-239.91 416.41,-239.97 408.16,-233.32 405.81,-239.91"/>
</a>
</g>
</g>
<!-- Node4 -->
<g id="Node000004" class="node">
<title>Node4</title>
<g id="a_Node000004"><a xlink:href="classcam_1_1ops_1_1CalculatePath.html#a13dfe2f8578383234e74e58e2f292e1b" target="_top" xlink:title=" ">
<polygon fill="white" stroke="#666666" points="589,-222 420,-222 420,-192 589,-192 589,-222"/>
<text text-anchor="start" x="428" y="-210" font-family="Helvetica,sans-Serif" font-size="10.00">cam.ops.CalculatePath.execute</text>
<text text-anchor="middle" x="504.5" y="-199" font-family="Helvetica,sans-Serif" font-size="10.00">_async</text>
</a>
</g>
</g>
<!-- Node2&#45;&gt;Node4 -->
<g id="edge3_Node000002_Node000004" class="edge">
<title>Node2&#45;&gt;Node4</title>
<g id="a_edge3_Node000002_Node000004"><a xlink:title=" ">
<path fill="none" stroke="#63b8ff" d="M310.29,-150.01C333.18,-160.38 365,-173.88 394,-183 401.31,-185.3 408.96,-187.46 416.68,-189.47"/>
<polygon fill="#63b8ff" stroke="#63b8ff" points="415.91,-192.89 426.46,-191.93 417.62,-186.1 415.91,-192.89"/>
</a>
</g>
</g>
<!-- Node6 -->
<g id="Node000006" class="node">
<title>Node6</title>
<g id="a_Node000006"><a xlink:href="classcam_1_1ops_1_1PathsChain.html#a6fc64e383ccf724b2325e18a82d53eae" target="_top" xlink:title=" ">
<polygon fill="white" stroke="#666666" points="582.5,-174 426.5,-174 426.5,-144 582.5,-144 582.5,-174"/>
<text text-anchor="start" x="434.5" y="-162" font-family="Helvetica,sans-Serif" font-size="10.00">cam.ops.PathsChain.execute</text>
<text text-anchor="middle" x="504.5" y="-151" font-family="Helvetica,sans-Serif" font-size="10.00">_async</text>
</a>
</g>
</g>
<!-- Node2&#45;&gt;Node6 -->
<g id="edge5_Node000002_Node000006" class="edge">
<title>Node2&#45;&gt;Node6</title>
<g id="a_edge5_Node000002_Node000006"><a xlink:title=" ">
<path fill="none" stroke="#63b8ff" d="M358.14,-143.5C376.9,-145.5 396.98,-147.64 416.06,-149.67"/>
<polygon fill="#63b8ff" stroke="#63b8ff" points="415.92,-153.18 426.23,-150.76 416.66,-146.22 415.92,-153.18"/>
</a>
</g>
</g>
<!-- Node8 -->
<g id="Node000008" class="node">
<title>Node8</title>
<g id="a_Node000008"><a xlink:href="classcam_1_1ops_1_1CAMSimulate.html#a633151f17849d281fd52ce82c00356a7" target="_top" xlink:title=" ">
<polygon fill="white" stroke="#666666" points="588.5,-126 420.5,-126 420.5,-96 588.5,-96 588.5,-126"/>
<text text-anchor="start" x="428.5" y="-114" font-family="Helvetica,sans-Serif" font-size="10.00">cam.ops.CAMSimulate.execute</text>
<text text-anchor="middle" x="504.5" y="-103" font-family="Helvetica,sans-Serif" font-size="10.00">_async</text>
</a>
</g>
</g>
<!-- Node2&#45;&gt;Node8 -->
<g id="edge8_Node000002_Node000008" class="edge">
<title>Node2&#45;&gt;Node8</title>
<g id="a_edge8_Node000002_Node000008"><a xlink:title=" ">
<path fill="none" stroke="#63b8ff" d="M358.14,-126.5C374.95,-124.71 392.82,-122.81 410.08,-120.97"/>
<polygon fill="#63b8ff" stroke="#63b8ff" points="410.58,-124.43 420.15,-119.89 409.84,-117.47 410.58,-124.43"/>
</a>
</g>
</g>
<!-- Node9 -->
<g id="Node000009" class="node">
<title>Node9</title>
<g id="a_Node000009"><a xlink:href="classcam_1_1ops_1_1CAMSimulateChain.html#a1e77c7ce21b3b7e3e38a12b6b62517e9" target="_top" xlink:title=" ">
<polygon fill="white" stroke="#666666" points="602.5,-78 406.5,-78 406.5,-48 602.5,-48 602.5,-78"/>
<text text-anchor="start" x="414.5" y="-66" font-family="Helvetica,sans-Serif" font-size="10.00">cam.ops.CAMSimulateChain.execute</text>
<text text-anchor="middle" x="504.5" y="-55" font-family="Helvetica,sans-Serif" font-size="10.00">_async</text>
</a>
</g>
</g>
<!-- Node2&#45;&gt;Node9 -->
<g id="edge9_Node000002_Node000009" class="edge">
<title>Node2&#45;&gt;Node9</title>
<g id="a_edge9_Node000002_Node000009"><a xlink:title=" ">
<path fill="none" stroke="#63b8ff" d="M310.29,-119.99C333.18,-109.62 365,-96.12 394,-87 401.31,-84.7 408.96,-82.54 416.68,-80.53"/>
<polygon fill="#63b8ff" stroke="#63b8ff" points="417.62,-83.9 426.46,-78.07 415.91,-77.11 417.62,-83.9"/>
</a>
</g>
</g>
<!-- Node10 -->
<g id="Node000010" class="node">
<title>Node10</title>
<g id="a_Node000010"><a xlink:href="classcam_1_1async__op_1_1AsyncOperatorMixin.html#a2216ff6bb0dfd132f4ec4cf79b7cba2b" target="_top" xlink:title=" ">
<polygon fill="white" stroke="#666666" points="585,-30 424,-30 424,0 585,0 585,-30"/>
<text text-anchor="start" x="432" y="-18" font-family="Helvetica,sans-Serif" font-size="10.00">cam.async_op.AsyncOperator</text>
<text text-anchor="middle" x="504.5" y="-7" font-family="Helvetica,sans-Serif" font-size="10.00">Mixin.show_progress</text>
</a>
</g>
</g>
<!-- Node2&#45;&gt;Node10 -->
<g id="edge11_Node000002_Node000010" class="edge">
<title>Node2&#45;&gt;Node10</title>
<g id="a_edge11_Node000002_Node000010"><a xlink:title=" ">
<path fill="none" stroke="#63b8ff" d="M292.18,-119.73C312.31,-98.26 352.07,-59.49 394,-39 400.43,-35.86 407.27,-33.12 414.28,-30.74"/>
<polygon fill="#63b8ff" stroke="#63b8ff" points="415.42,-34.05 423.91,-27.71 413.32,-27.37 415.42,-34.05"/>
</a>
</g>
</g>
<!-- Node5 -->
<g id="Node000005" class="node">
<title>Node5</title>
<g id="a_Node000005"><a xlink:href="namespacecam_1_1ops.html#aa8e95f7410a7ceb178db48f4f8c2d995" target="_top" xlink:title=" ">
<polygon fill="white" stroke="#666666" points="786.5,-192.5 673.5,-192.5 673.5,-173.5 786.5,-173.5 786.5,-192.5"/>
<text text-anchor="middle" x="730" y="-180.5" font-family="Helvetica,sans-Serif" font-size="10.00">cam.ops._calc_path</text>
</a>
</g>
</g>
<!-- Node4&#45;&gt;Node5 -->
<g id="edge4_Node000004_Node000005" class="edge">
<title>Node4&#45;&gt;Node5</title>
<g id="a_edge4_Node000004_Node000005"><a xlink:title=" ">
<path fill="none" stroke="#63b8ff" d="M589.04,-198.03C613.56,-195.4 640.01,-192.56 663.25,-190.06"/>
<polygon fill="#63b8ff" stroke="#63b8ff" points="663.77,-193.52 673.34,-188.98 663.03,-186.56 663.77,-193.52"/>
</a>
</g>
</g>
<!-- Node6&#45;&gt;Node5 -->
<g id="edge6_Node000006_Node000005" class="edge">
<title>Node6&#45;&gt;Node5</title>
<g id="a_edge6_Node000006_Node000005"><a xlink:title=" ">
<path fill="none" stroke="#63b8ff" d="M582.73,-167.29C608.9,-170.1 637.87,-173.21 663.08,-175.92"/>
<polygon fill="#63b8ff" stroke="#63b8ff" points="662.95,-179.43 673.27,-177.02 663.7,-172.47 662.95,-179.43"/>
</a>
</g>
</g>
<!-- Node7 -->
<g id="Node000007" class="node">
<title>Node7</title>
<g id="a_Node000007"><a xlink:href="namespacecam_1_1ops.html#ab55fb8ec9a00e021e8e4a1c3ecc97cb4" target="_top" xlink:title=" ">
<polygon fill="white" stroke="#666666" points="809,-126.5 651,-126.5 651,-107.5 809,-107.5 809,-126.5"/>
<text text-anchor="middle" x="730" y="-114.5" font-family="Helvetica,sans-Serif" font-size="10.00">cam.ops.getChainOperations</text>
</a>
</g>
</g>
<!-- Node6&#45;&gt;Node7 -->
<g id="edge7_Node000006_Node000007" class="edge">
<title>Node6&#45;&gt;Node7</title>
<g id="a_edge7_Node000006_Node000007"><a xlink:title=" ">
<path fill="none" stroke="#63b8ff" d="M582.73,-144.49C610.81,-139.21 642.12,-133.33 668.54,-128.36"/>
<polygon fill="#63b8ff" stroke="#63b8ff" points="669.23,-131.79 678.41,-126.51 667.94,-124.91 669.23,-131.79"/>
</a>
</g>
</g>
<!-- Node9&#45;&gt;Node7 -->
<g id="edge10_Node000009_Node000007" class="edge">
<title>Node9&#45;&gt;Node7</title>
<g id="a_edge10_Node000009_Node000007"><a xlink:title=" ">
<path fill="none" stroke="#63b8ff" d="M576.28,-78.06C589.19,-80.94 602.51,-83.99 615,-87 637.91,-92.52 663.28,-99.15 684.25,-104.77"/>
<polygon fill="#63b8ff" stroke="#63b8ff" points="683.6,-108.21 694.17,-107.43 685.42,-101.45 683.6,-108.21"/>
</a>
</g>
</g>
</g>
</svg>
