<?xml version="1.0" encoding="UTF-8" standalone="no"?>
<!DOCTYPE svg PUBLIC "-//W3C//DTD SVG 1.1//EN"
 "http://www.w3.org/Graphics/SVG/1.1/DTD/svg11.dtd">
<!-- Generated by graphviz version 2.43.0 (0)
 -->
<!-- Title: cam.nc.iso.Creator.STOP_OPTIONAL Pages: 1 -->
<svg width="389pt" height="101pt"
 viewBox="0.00 0.00 389.00 101.00" xmlns="http://www.w3.org/2000/svg" xmlns:xlink="http://www.w3.org/1999/xlink">
<g id="graph0" class="graph" transform="scale(1 1) rotate(0) translate(4 97)">
<title>cam.nc.iso.Creator.STOP_OPTIONAL</title>
<!-- Node1 -->
<g id="Node000001" class="node">
<title>Node1</title>
<g id="a_Node000001"><a xlink:title=" ">
<polygon fill="#999999" stroke="#666666" points="381,-61.5 245,-61.5 245,-31.5 381,-31.5 381,-61.5"/>
<text text-anchor="start" x="253" y="-49.5" font-family="Helvetica,sans-Serif" font-size="10.00">cam.nc.iso.Creator.STOP</text>
<text text-anchor="middle" x="313" y="-38.5" font-family="Helvetica,sans-Serif" font-size="10.00">_OPTIONAL</text>
</a>
</g>
</g>
<!-- Node2 -->
<g id="Node000002" class="node">
<title>Node2</title>
<g id="a_Node000002"><a xlink:href="classcam_1_1nc_1_1centroid1_1_1Creator.html#ad6a4499edb3630c4da194d28458d895a" target="_top" xlink:title=" ">
<polygon fill="white" stroke="#666666" points="209,-93 0,-93 0,-74 209,-74 209,-93"/>
<text text-anchor="middle" x="104.5" y="-81" font-family="Helvetica,sans-Serif" font-size="10.00">cam.nc.centroid1.Creator.program_stop</text>
</a>
</g>
</g>
<!-- Node1&#45;&gt;Node2 -->
<g id="edge1_Node000001_Node000002" class="edge">
<title>Node1&#45;&gt;Node2</title>
<g id="a_edge1_Node000001_Node000002"><a xlink:title=" ">
<path fill="none" stroke="#63b8ff" d="M235.09,-60.78C226.29,-62.38 217.45,-63.99 209,-65.5 193.38,-68.3 176.42,-71.27 160.84,-73.98"/>
<polygon fill="#63b8ff" stroke="#63b8ff" points="235.77,-64.21 244.98,-58.97 234.51,-57.32 235.77,-64.21"/>
</a>
</g>
</g>
<!-- Node3 -->
<g id="Node000003" class="node">
<title>Node3</title>
<g id="a_Node000003"><a xlink:href="classcam_1_1nc_1_1heiden_1_1Creator.html#a9ff5ec0092767d4038917d4f3257a504" target="_top" xlink:title=" ">
<polygon fill="white" stroke="#666666" points="203,-56 6,-56 6,-37 203,-37 203,-56"/>
<text text-anchor="middle" x="104.5" y="-44" font-family="Helvetica,sans-Serif" font-size="10.00">cam.nc.heiden.Creator.program_stop</text>
</a>
</g>
</g>
<!-- Node1&#45;&gt;Node3 -->
<g id="edge2_Node000001_Node000003" class="edge">
<title>Node1&#45;&gt;Node3</title>
<g id="a_edge2_Node000001_Node000003"><a xlink:title=" ">
<path fill="none" stroke="#63b8ff" d="M234.82,-46.5C224.54,-46.5 213.9,-46.5 203.33,-46.5"/>
<polygon fill="#63b8ff" stroke="#63b8ff" points="234.96,-50 244.96,-46.5 234.96,-43 234.96,-50"/>
</a>
</g>
</g>
<!-- Node4 -->
<g id="Node000004" class="node">
<title>Node4</title>
<g id="a_Node000004"><a xlink:href="classcam_1_1nc_1_1iso_1_1Creator.html#afcd2fb65cdc93069c93cada835219108" target="_top" xlink:title=" ">
<polygon fill="white" stroke="#666666" points="193.5,-19 15.5,-19 15.5,0 193.5,0 193.5,-19"/>
<text text-anchor="middle" x="104.5" y="-7" font-family="Helvetica,sans-Serif" font-size="10.00">cam.nc.iso.Creator.program_stop</text>
</a>
</g>
</g>
<!-- Node1&#45;&gt;Node4 -->
<g id="edge3_Node000001_Node000004" class="edge">
<title>Node1&#45;&gt;Node4</title>
<g id="a_edge3_Node000001_Node000004"><a xlink:title=" ">
<path fill="none" stroke="#63b8ff" d="M234.99,-32.7C209.63,-28.16 182.01,-23.21 158.82,-19.05"/>
<polygon fill="#63b8ff" stroke="#63b8ff" points="234.49,-36.17 244.96,-34.49 235.73,-29.28 234.49,-36.17"/>
</a>
</g>
</g>
</g>
</svg>
