<?xml version="1.0" encoding="UTF-8" standalone="no"?>
<!DOCTYPE svg PUBLIC "-//W3C//DTD SVG 1.1//EN"
 "http://www.w3.org/Graphics/SVG/1.1/DTD/svg11.dtd">
<!-- Generated by graphviz version 2.43.0 (0)
 -->
<!-- Title: cam.nc.iso.Creator.WORKPLANE Pages: 1 -->
<svg width="410pt" height="224pt"
 viewBox="0.00 0.00 410.00 223.50" xmlns="http://www.w3.org/2000/svg" xmlns:xlink="http://www.w3.org/1999/xlink">

<svg id="main" version="1.1" xmlns="http://www.w3.org/2000/svg" xmlns:xlink="http://www.w3.org/1999/xlink" xml:space="preserve" onload="init(evt)">
<style type="text/css"><![CDATA[
.node, .edge {opacity: 0.7;}
.node.selected, .edge.selected {opacity: 1;}
.edge:hover path { stroke: red; }
.edge:hover polygon { stroke: red; fill: red; }
]]></style>
<script type="application/ecmascript" xlink:href="svg.min.js"/>
<svg id="graph" class="graph">
<g id="graph0" class="graph" transform="scale(1 1) rotate(0) translate(4 219.5)">
<title>cam.nc.iso.Creator.WORKPLANE</title>
<!-- Node1 -->
<g id="Node000001" class="node">
<title>Node1</title>
<g id="a_Node000001"><a xlink:title=" ">
<polygon fill="#999999" stroke="#666666" points="402,-111 229,-111 229,-92 402,-92 402,-111"/>
<text text-anchor="middle" x="315.5" y="-99" font-family="Helvetica,sans-Serif" font-size="10.00">cam.nc.iso.Creator.WORKPLANE</text>
</a>
</g>
</g>
<!-- Node2 -->
<g id="Node000002" class="node">
<title>Node2</title>
<g id="a_Node000002"><a xlink:href="classcam_1_1nc_1_1anilam__crusader__m_1_1Creator.html#a66554c71e120972ac1586f8468783061" target="_top" xlink:title=" ">
<polygon fill="white" stroke="#666666" points="164.5,-215.5 28.5,-215.5 28.5,-185.5 164.5,-185.5 164.5,-215.5"/>
<text text-anchor="start" x="36.5" y="-203.5" font-family="Helvetica,sans-Serif" font-size="10.00">cam.nc.anilam_crusader</text>
<text text-anchor="middle" x="96.5" y="-192.5" font-family="Helvetica,sans-Serif" font-size="10.00">_m.Creator.workplane</text>
</a>
</g>
</g>
<!-- Node1&#45;&gt;Node2 -->
<g id="edge1_Node000001_Node000002" class="edge">
<title>Node1&#45;&gt;Node2</title>
<g id="a_edge1_Node000001_Node000002"><a xlink:title=" ">
<path fill="none" stroke="#63b8ff" d="M293.61,-117.18C270.23,-134.05 230.66,-160.59 193,-176.5 184.02,-180.29 174.31,-183.58 164.63,-186.41"/>
<polygon fill="#63b8ff" stroke="#63b8ff" points="295.74,-119.96 301.74,-111.23 291.61,-114.31 295.74,-119.96"/>
</a>
</g>
</g>
<!-- Node3 -->
<g id="Node000003" class="node">
<title>Node3</title>
<g id="a_Node000003"><a xlink:href="classcam_1_1nc_1_1centroid1_1_1Creator.html#a7fefda5c24dbf94920acc2044d7002fe" target="_top" xlink:title="coordinate system ie G54&#45;G59">
<polygon fill="white" stroke="#666666" points="193,-167 0,-167 0,-148 193,-148 193,-167"/>
<text text-anchor="middle" x="96.5" y="-155" font-family="Helvetica,sans-Serif" font-size="10.00">cam.nc.centroid1.Creator.workplane</text>
</a>
</g>
</g>
<!-- Node1&#45;&gt;Node3 -->
<g id="edge2_Node000001_Node000003" class="edge">
<title>Node1&#45;&gt;Node3</title>
<g id="a_edge2_Node000001_Node000003"><a xlink:title=" ">
<path fill="none" stroke="#63b8ff" d="M277.53,-114.3C253.62,-122.27 221.71,-132.33 193,-139.5 180.48,-142.63 166.91,-145.49 154.04,-147.97"/>
<polygon fill="#63b8ff" stroke="#63b8ff" points="278.89,-117.53 287.25,-111.03 276.66,-110.9 278.89,-117.53"/>
</a>
</g>
</g>
<!-- Node4 -->
<g id="Node000004" class="node">
<title>Node4</title>
<g id="a_Node000004"><a xlink:href="classcam_1_1nc_1_1emc2_1_1Creator.html#a8218700b9d0a8eaae13606f5834701b3" target="_top" xlink:title=" ">
<polygon fill="white" stroke="#666666" points="183.5,-130 9.5,-130 9.5,-111 183.5,-111 183.5,-130"/>
<text text-anchor="middle" x="96.5" y="-118" font-family="Helvetica,sans-Serif" font-size="10.00">cam.nc.emc2.Creator.workplane</text>
</a>
</g>
</g>
<!-- Node1&#45;&gt;Node4 -->
<g id="edge3_Node000001_Node000004" class="edge">
<title>Node1&#45;&gt;Node4</title>
<g id="a_edge3_Node000001_Node000004"><a xlink:title=" ">
<path fill="none" stroke="#63b8ff" d="M218.59,-109.9C206.98,-110.91 195.17,-111.95 183.71,-112.95"/>
<polygon fill="#63b8ff" stroke="#63b8ff" points="219.08,-113.37 228.74,-109.01 218.47,-106.39 219.08,-113.37"/>
</a>
</g>
</g>
<!-- Node5 -->
<g id="Node000005" class="node">
<title>Node5</title>
<g id="a_Node000005"><a xlink:href="classcam_1_1nc_1_1heiden_1_1Creator.html#a0bb1dcc4220b7021b792bc336e4ab944" target="_top" xlink:title=" ">
<polygon fill="white" stroke="#666666" points="186.5,-93 6.5,-93 6.5,-74 186.5,-74 186.5,-93"/>
<text text-anchor="middle" x="96.5" y="-81" font-family="Helvetica,sans-Serif" font-size="10.00">cam.nc.heiden.Creator.workplane</text>
</a>
</g>
</g>
<!-- Node1&#45;&gt;Node5 -->
<g id="edge4_Node000001_Node000005" class="edge">
<title>Node1&#45;&gt;Node5</title>
<g id="a_edge4_Node000001_Node000005"><a xlink:title=" ">
<path fill="none" stroke="#63b8ff" d="M218.59,-93.54C207.94,-92.66 197.12,-91.76 186.56,-90.89"/>
<polygon fill="#63b8ff" stroke="#63b8ff" points="218.48,-97.05 228.74,-94.39 219.06,-90.07 218.48,-97.05"/>
</a>
</g>
</g>
<!-- Node6 -->
<g id="Node000006" class="node">
<title>Node6</title>
<g id="a_Node000006"><a xlink:href="classcam_1_1nc_1_1iso_1_1Creator.html#af689dfe2c7549ab5b062fb024d47b4ae" target="_top" xlink:title=" ">
<polygon fill="white" stroke="#666666" points="177,-56 16,-56 16,-37 177,-37 177,-56"/>
<text text-anchor="middle" x="96.5" y="-44" font-family="Helvetica,sans-Serif" font-size="10.00">cam.nc.iso.Creator.workplane</text>
</a>
</g>
</g>
<!-- Node1&#45;&gt;Node6 -->
<g id="edge5_Node000001_Node000006" class="edge">
<title>Node1&#45;&gt;Node6</title>
<g id="a_edge5_Node000001_Node000006"><a xlink:title=" ">
<path fill="none" stroke="#63b8ff" d="M275.08,-88.82C251.43,-81.47 220.66,-72.33 193,-65.5 179.21,-62.09 164.19,-58.88 150.23,-56.09"/>
<polygon fill="#63b8ff" stroke="#63b8ff" points="274.16,-92.2 284.75,-91.85 276.26,-85.52 274.16,-92.2"/>
</a>
</g>
</g>
<!-- Node7 -->
<g id="Node000007" class="node">
<title>Node7</title>
<g id="a_Node000007"><a xlink:href="classcam_1_1nc_1_1winpc_1_1Creator.html#a35e54099e5ecfbda678d8f66bc281994" target="_top" xlink:title=" ">
<polygon fill="white" stroke="#666666" points="184.5,-19 8.5,-19 8.5,0 184.5,0 184.5,-19"/>
<text text-anchor="middle" x="96.5" y="-7" font-family="Helvetica,sans-Serif" font-size="10.00">cam.nc.winpc.Creator.workplane</text>
</a>
</g>
</g>
<!-- Node1&#45;&gt;Node7 -->
<g id="edge6_Node000001_Node000007" class="edge">
<title>Node1&#45;&gt;Node7</title>
<g id="a_edge6_Node000001_Node000007"><a xlink:title=" ">
<path fill="none" stroke="#63b8ff" d="M293.68,-85.91C270.37,-69.21 230.86,-43.13 193,-28.5 182.99,-24.63 172.07,-21.51 161.3,-19.01"/>
<polygon fill="#63b8ff" stroke="#63b8ff" points="291.65,-88.76 301.79,-91.81 295.77,-83.1 291.65,-88.76"/>
</a>
</g>
</g>
</g>
</svg>
</svg>

<style type='text/css'>
<![CDATA[
[data-mouse-over-selected='false'] { opacity: 0.7; }
[data-mouse-over-selected='true']  { opacity: 1.0; }
]]>
</style>
<script type="application/ecmascript"><![CDATA[
document.addEventListener('DOMContentLoaded', (event) => {
  highlightEdges();
  highlightAdjacentNodes();
});
]]></script>
</svg>
