<?xml version="1.0" encoding="UTF-8" standalone="no"?>
<!DOCTYPE svg PUBLIC "-//W3C//DTD SVG 1.1//EN"
 "http://www.w3.org/Graphics/SVG/1.1/DTD/svg11.dtd">
<!-- Generated by graphviz version 2.43.0 (0)
 -->
<!-- Title: cam.basrelief.DoBasRelief.execute Pages: 1 -->
<!--zoomable 309 -->

<svg id="main" version="1.1" xmlns="http://www.w3.org/2000/svg" xmlns:xlink="http://www.w3.org/1999/xlink" xml:space="preserve" onload="init(evt)">
<style type="text/css"><![CDATA[
.node, .edge {opacity: 0.7;}
.node.selected, .edge.selected {opacity: 1;}
.edge:hover path { stroke: red; }
.edge:hover polygon { stroke: red; fill: red; }
]]></style>

<defs>
  <circle id="rim" cx="0" cy="0" r="7"/>
  <circle id="rim2" cx="0" cy="0" r="3.5"/>
  <g id="zoomPlus">
    <use xlink:href="#rim" fill="#404040"><set attributeName="fill" to="#808080" begin="zoomplus.mouseover" end="zoomplus.mouseout"/></use>
    <path d="M-4,0h8M0,-4v8" fill="none" stroke="white" stroke-width="1.5" pointer-events="none"/>
  </g>
  <g id="zoomMin">
    <use xlink:href="#rim" fill="#404040"><set attributeName="fill" to="#808080" begin="zoomminus.mouseover" end="zoomminus.mouseout"/></use>
    <path d="M-4,0h8" fill="none" stroke="white" stroke-width="1.5" pointer-events="none"/>
  </g>
  <g id="arrowUp" transform="translate(30 24)">
    <use xlink:href="#rim"/>
    <path pointer-events="none" fill="none" stroke="white" stroke-width="1.5" d="M0,-3.0v7 M-2.5,-0.5L0,-3.0L2.5,-0.5"/>
  </g>
  <g id="arrowRight" transform="rotate(90) translate(36 -43)">
    <use xlink:href="#rim"/>
    <path pointer-events="none" fill="none" stroke="white" stroke-width="1.5" d="M0,-3.0v7 M-2.5,-0.5L0,-3.0L2.5,-0.5"/>
  </g>
  <g id="arrowDown" transform="rotate(180) translate(-30 -48)">
    <use xlink:href="#rim"/>
    <path pointer-events="none" fill="none" stroke="white" stroke-width="1.5" d="M0,-3.0v7 M-2.5,-0.5L0,-3.0L2.5,-0.5"/>
  </g>
  <g id="arrowLeft" transform="rotate(270) translate(-36 17)">
    <use xlink:href="#rim"/>
    <path pointer-events="none" fill="none" stroke="white" stroke-width="1.5" d="M0,-3.0v7 M-2.5,-0.5L0,-3.0L2.5,-0.5"/>
  </g>
  <g id="resetDef">
    <use xlink:href="#rim2" fill="#404040"><set attributeName="fill" to="#808080" begin="reset.mouseover" end="reset.mouseout"/></use>
  </g>
</defs>
<script type="application/ecmascript">
var viewWidth = 1072;
var viewHeight = 309;
var sectionId = 'dynsection-2';
</script>
<script type="application/ecmascript" xlink:href="svg.min.js"/>
<svg id="graph" class="graph">
<g id="viewport">
<title>cam.basrelief.DoBasRelief.execute</title>
<!-- Node1 -->
<g id="Node000001" class="node">
<title>Node1</title>
<g id="a_Node000001"><a xlink:title=" ">
<polygon fill="#999999" stroke="#666666" points="186,-175 0,-175 0,-156 186,-156 186,-175"/>
<text text-anchor="middle" x="93" y="-163" font-family="Helvetica,sans-Serif" font-size="10.00">cam.basrelief.DoBasRelief.execute</text>
</a>
</g>
</g>
<!-- Node2 -->
<g id="Node000002" class="node">
<title>Node2</title>
<g id="a_Node000002"><a xlink:href="namespacecam_1_1basrelief.html#aa0248196478d87431123a0e74908ab1c" target="_top" xlink:title=" ">
<polygon fill="white" stroke="#666666" points="350.5,-194 239.5,-194 239.5,-175 350.5,-175 350.5,-194"/>
<text text-anchor="middle" x="295" y="-182" font-family="Helvetica,sans-Serif" font-size="10.00">cam.basrelief.relief</text>
</a>
</g>
</g>
<!-- Node1&#45;&gt;Node2 -->
<g id="edge1_Node000001_Node000002" class="edge">
<title>Node1&#45;&gt;Node2</title>
<g id="a_edge1_Node000001_Node000002"><a xlink:title=" ">
<path fill="none" stroke="#63b8ff" d="M186.1,-174.25C200.64,-175.63 215.41,-177.03 229.16,-178.34"/>
<polygon fill="#63b8ff" stroke="#63b8ff" points="229.17,-181.86 239.45,-179.32 229.83,-174.89 229.17,-181.86"/>
</a>
</g>
</g>
<!-- Node18 -->
<g id="Node000018" class="node">
<title>Node18</title>
<g id="a_Node000018"><a xlink:href="namespacecam_1_1basrelief.html#af116eedd1395f73209312d186e0a14d2" target="_top" xlink:title=" ">
<polygon fill="white" stroke="#666666" points="368,-157 222,-157 222,-138 368,-138 368,-157"/>
<text text-anchor="middle" x="295" y="-145" font-family="Helvetica,sans-Serif" font-size="10.00">cam.basrelief.renderScene</text>
</a>
</g>
</g>
<!-- Node1&#45;&gt;Node18 -->
<g id="edge17_Node000001_Node000018" class="edge">
<title>Node1&#45;&gt;Node18</title>
<g id="a_edge17_Node000001_Node000018"><a xlink:title=" ">
<path fill="none" stroke="#63b8ff" d="M186.1,-157.21C194.62,-156.44 203.23,-155.67 211.66,-154.91"/>
<polygon fill="#63b8ff" stroke="#63b8ff" points="212.2,-158.38 221.84,-153.99 211.57,-151.4 212.2,-158.38"/>
</a>
</g>
</g>
<!-- Node3 -->
<g id="Node000003" class="node">
<title>Node3</title>
<g id="a_Node000003"><a xlink:href="namespacecam_1_1basrelief.html#a226bc6d169e18fc244218469ede9b91b" target="_top" xlink:title=" ">
<polygon fill="white" stroke="#666666" points="552,-277 416,-277 416,-258 552,-258 552,-277"/>
<text text-anchor="middle" x="484" y="-265" font-family="Helvetica,sans-Serif" font-size="10.00">cam.basrelief.buildMesh</text>
</a>
</g>
</g>
<!-- Node2&#45;&gt;Node3 -->
<g id="edge2_Node000002_Node000003" class="edge">
<title>Node2&#45;&gt;Node3</title>
<g id="a_edge2_Node000002_Node000003"><a xlink:title=" ">
<path fill="none" stroke="#63b8ff" d="M317.45,-194.02C350.48,-208.68 413.93,-236.84 451.96,-253.72"/>
<polygon fill="#63b8ff" stroke="#63b8ff" points="450.95,-257.1 461.51,-257.96 453.79,-250.71 450.95,-257.1"/>
</a>
</g>
</g>
<!-- Node5 -->
<g id="Node000005" class="node">
<title>Node5</title>
<g id="a_Node000005"><a xlink:href="namespacecam_1_1basrelief.html#a30e8d0f83e5e0e575e556a4ab0512c16" target="_top" xlink:title=" ">
<polygon fill="white" stroke="#666666" points="564,-216 404,-216 404,-197 564,-197 564,-216"/>
<text text-anchor="middle" x="484" y="-204" font-family="Helvetica,sans-Serif" font-size="10.00">cam.basrelief.imagetonumpy</text>
</a>
</g>
</g>
<!-- Node2&#45;&gt;Node5 -->
<g id="edge4_Node000002_Node000005" class="edge">
<title>Node2&#45;&gt;Node5</title>
<g id="a_edge4_Node000002_Node000005"><a xlink:title=" ">
<path fill="none" stroke="#63b8ff" d="M350.59,-190.92C364.08,-192.51 378.88,-194.25 393.55,-195.98"/>
<polygon fill="#63b8ff" stroke="#63b8ff" points="393.33,-199.47 403.67,-197.17 394.15,-192.52 393.33,-199.47"/>
</a>
</g>
</g>
<!-- Node6 -->
<g id="Node000006" class="node">
<title>Node6</title>
<g id="a_Node000006"><a xlink:href="namespacecam_1_1basrelief.html#a4cb6f56c1aa4d079ec817111a923c767" target="_top" xlink:title=" ">
<polygon fill="white" stroke="#666666" points="540,-178.5 428,-178.5 428,-148.5 540,-148.5 540,-178.5"/>
<text text-anchor="start" x="436" y="-166.5" font-family="Helvetica,sans-Serif" font-size="10.00">cam.basrelief.solve</text>
<text text-anchor="middle" x="484" y="-155.5" font-family="Helvetica,sans-Serif" font-size="10.00">_pde_multigrid</text>
</a>
</g>
</g>
<!-- Node2&#45;&gt;Node6 -->
<g id="edge5_Node000002_Node000006" class="edge">
<title>Node2&#45;&gt;Node6</title>
<g id="a_edge5_Node000002_Node000006"><a xlink:title=" ">
<path fill="none" stroke="#63b8ff" d="M350.59,-178.37C371.53,-176.02 395.64,-173.31 417.5,-170.86"/>
<polygon fill="#63b8ff" stroke="#63b8ff" points="418.15,-174.31 427.69,-169.71 417.37,-167.35 418.15,-174.31"/>
</a>
</g>
</g>
<!-- Node17 -->
<g id="Node000017" class="node">
<title>Node17</title>
<g id="a_Node000017"><a xlink:href="namespacecam_1_1basrelief.html#a42f76d02a7449fbb2db6092b6dd7c708" target="_top" xlink:title=" ">
<polygon fill="white" stroke="#666666" points="548.5,-130 419.5,-130 419.5,-111 548.5,-111 548.5,-130"/>
<text text-anchor="middle" x="484" y="-118" font-family="Helvetica,sans-Serif" font-size="10.00">cam.basrelief.tonemap</text>
</a>
</g>
</g>
<!-- Node2&#45;&gt;Node17 -->
<g id="edge16_Node000002_Node000017" class="edge">
<title>Node2&#45;&gt;Node17</title>
<g id="a_edge16_Node000002_Node000017"><a xlink:title=" ">
<path fill="none" stroke="#63b8ff" d="M345.33,-174.96C353.1,-172.67 360.9,-169.88 368,-166.5 386.06,-157.9 385.9,-148.01 404,-139.5 409.23,-137.04 414.82,-134.88 420.5,-132.98"/>
<polygon fill="#63b8ff" stroke="#63b8ff" points="421.59,-136.31 430.13,-130.05 419.54,-129.62 421.59,-136.31"/>
</a>
</g>
</g>
<!-- Node4 -->
<g id="Node000004" class="node">
<title>Node4</title>
<g id="a_Node000004"><a xlink:href="namespacecam_1_1basrelief.html#a81d6fa58c4adc2b85ee592515995c256" target="_top" xlink:title=" ">
<polygon fill="white" stroke="#666666" points="731.5,-301 626.5,-301 626.5,-282 731.5,-282 731.5,-301"/>
<text text-anchor="middle" x="679" y="-289" font-family="Helvetica,sans-Serif" font-size="10.00">cam.basrelief.vert</text>
</a>
</g>
</g>
<!-- Node3&#45;&gt;Node4 -->
<g id="edge3_Node000003_Node000004" class="edge">
<title>Node3&#45;&gt;Node4</title>
<g id="a_edge3_Node000003_Node000004"><a xlink:title=" ">
<path fill="none" stroke="#63b8ff" d="M552.23,-275.86C572.98,-278.44 595.73,-281.27 616.11,-283.8"/>
<polygon fill="#63b8ff" stroke="#63b8ff" points="615.86,-287.3 626.21,-285.06 616.72,-280.35 615.86,-287.3"/>
</a>
</g>
</g>
<!-- Node7 -->
<g id="Node000007" class="node">
<title>Node7</title>
<g id="a_Node000007"><a xlink:href="namespacecam_1_1basrelief.html#a9554e08aa23fcef890644aa887a681e9" target="_top" xlink:title=" ">
<polygon fill="white" stroke="#666666" points="758,-264 600,-264 600,-245 758,-245 758,-264"/>
<text text-anchor="middle" x="679" y="-252" font-family="Helvetica,sans-Serif" font-size="10.00">cam.basrelief.add_correction</text>
</a>
</g>
</g>
<!-- Node6&#45;&gt;Node7 -->
<g id="edge6_Node000006_Node000007" class="edge">
<title>Node6&#45;&gt;Node7</title>
<g id="a_edge6_Node000006_Node000007"><a xlink:title=" ">
<path fill="none" stroke="#63b8ff" d="M540.18,-176.14C548.57,-179.4 556.82,-183.46 564,-188.5 585.54,-203.61 577.96,-221.12 600,-235.5 603.16,-237.56 606.53,-239.4 610.02,-241.04"/>
<polygon fill="#63b8ff" stroke="#63b8ff" points="608.93,-244.38 619.51,-244.93 611.58,-237.9 608.93,-244.38"/>
</a>
</g>
</g>
<!-- Node8 -->
<g id="Node000008" class="node">
<title>Node8</title>
<g id="a_Node000008"><a xlink:href="namespacecam_1_1basrelief.html#aabd40958bb5e5febbc0e8a1fb76f2c54" target="_top" xlink:title=" ">
<polygon fill="white" stroke="#666666" points="744,-226.5 614,-226.5 614,-196.5 744,-196.5 744,-226.5"/>
<text text-anchor="start" x="622" y="-214.5" font-family="Helvetica,sans-Serif" font-size="10.00">cam.basrelief.calculate</text>
<text text-anchor="middle" x="679" y="-203.5" font-family="Helvetica,sans-Serif" font-size="10.00">_defect</text>
</a>
</g>
</g>
<!-- Node6&#45;&gt;Node8 -->
<g id="edge7_Node000006_Node000008" class="edge">
<title>Node6&#45;&gt;Node8</title>
<g id="a_edge7_Node000006_Node000008"><a xlink:title=" ">
<path fill="none" stroke="#63b8ff" d="M540.05,-177.19C561.11,-182.43 585.42,-188.48 607.72,-194.02"/>
<polygon fill="#63b8ff" stroke="#63b8ff" points="606.91,-197.43 617.46,-196.44 608.6,-190.63 606.91,-197.43"/>
</a>
</g>
</g>
<!-- Node9 -->
<g id="Node000009" class="node">
<title>Node9</title>
<g id="a_Node000009"><a xlink:href="namespacecam_1_1basrelief.html#a479a5a367df382f5a4d97e5d27fbc319" target="_top" xlink:title=" ">
<polygon fill="white" stroke="#666666" points="733.5,-178.5 624.5,-178.5 624.5,-148.5 733.5,-148.5 733.5,-178.5"/>
<text text-anchor="start" x="632.5" y="-166.5" font-family="Helvetica,sans-Serif" font-size="10.00">cam.basrelief.copy</text>
<text text-anchor="middle" x="679" y="-155.5" font-family="Helvetica,sans-Serif" font-size="10.00">_compbuf_data</text>
</a>
</g>
</g>
<!-- Node6&#45;&gt;Node9 -->
<g id="edge8_Node000006_Node000009" class="edge">
<title>Node6&#45;&gt;Node9</title>
<g id="a_edge8_Node000006_Node000009"><a xlink:title=" ">
<path fill="none" stroke="#63b8ff" d="M540.05,-163.5C563.15,-163.5 590.17,-163.5 614.15,-163.5"/>
<polygon fill="#63b8ff" stroke="#63b8ff" points="614.21,-167 624.21,-163.5 614.21,-160 614.21,-167"/>
</a>
</g>
</g>
<!-- Node10 -->
<g id="Node000010" class="node">
<title>Node10</title>
<g id="a_Node000010"><a xlink:href="namespacecam_1_1basrelief.html#a9a1b6e682169add543f604f19092d632" target="_top" xlink:title=" ">
<polygon fill="white" stroke="#666666" points="748,-130 610,-130 610,-111 748,-111 748,-130"/>
<text text-anchor="middle" x="679" y="-118" font-family="Helvetica,sans-Serif" font-size="10.00">cam.basrelief.prolongate</text>
</a>
</g>
</g>
<!-- Node6&#45;&gt;Node10 -->
<g id="edge9_Node000006_Node000010" class="edge">
<title>Node6&#45;&gt;Node10</title>
<g id="a_edge9_Node000006_Node000010"><a xlink:title=" ">
<path fill="none" stroke="#63b8ff" d="M540.05,-151.24C566.82,-145.27 598.85,-138.13 625.31,-132.24"/>
<polygon fill="#63b8ff" stroke="#63b8ff" points="626.15,-135.64 635.15,-130.05 624.63,-128.81 626.15,-135.64"/>
</a>
</g>
</g>
<!-- Node11 -->
<g id="Node000011" class="node">
<title>Node11</title>
<g id="a_Node000011"><a xlink:href="namespacecam_1_1basrelief.html#a9cee957b1946a898fae51b693337d1ce" target="_top" xlink:title=" ">
<polygon fill="white" stroke="#666666" points="747,-93 611,-93 611,-74 747,-74 747,-93"/>
<text text-anchor="middle" x="679" y="-81" font-family="Helvetica,sans-Serif" font-size="10.00">cam.basrelief.restrictbuf</text>
</a>
</g>
</g>
<!-- Node6&#45;&gt;Node11 -->
<g id="edge10_Node000006_Node000011" class="edge">
<title>Node6&#45;&gt;Node11</title>
<g id="a_edge10_Node000006_Node000011"><a xlink:title=" ">
<path fill="none" stroke="#63b8ff" d="M540.1,-150.7C548.41,-147.67 556.65,-143.97 564,-139.5 583.6,-127.57 580.08,-113.88 600,-102.5 603.92,-100.26 608.09,-98.29 612.4,-96.54"/>
<polygon fill="#63b8ff" stroke="#63b8ff" points="613.76,-99.77 621.97,-93.08 611.38,-93.19 613.76,-99.77"/>
</a>
</g>
</g>
<!-- Node12 -->
<g id="Node000012" class="node">
<title>Node12</title>
<g id="a_Node000012"><a xlink:href="namespacecam_1_1basrelief.html#ad911a47b6767f0bf2783a9bcf0e548ef" target="_top" xlink:title=" ">
<polygon fill="white" stroke="#666666" points="740,-56 618,-56 618,-37 740,-37 740,-56"/>
<text text-anchor="middle" x="679" y="-44" font-family="Helvetica,sans-Serif" font-size="10.00">cam.basrelief.smooth</text>
</a>
</g>
</g>
<!-- Node6&#45;&gt;Node12 -->
<g id="edge11_Node000006_Node000012" class="edge">
<title>Node6&#45;&gt;Node12</title>
<g id="a_edge11_Node000006_Node000012"><a xlink:title=" ">
<path fill="none" stroke="#63b8ff" d="M540.29,-153.14C548.86,-149.79 557.13,-145.36 564,-139.5 591.82,-115.76 571.53,-88.45 600,-65.5 602.74,-63.29 605.7,-61.33 608.81,-59.6"/>
<polygon fill="#63b8ff" stroke="#63b8ff" points="610.38,-62.73 617.91,-55.27 607.37,-56.4 610.38,-62.73"/>
</a>
</g>
</g>
<!-- Node13 -->
<g id="Node000013" class="node">
<title>Node13</title>
<g id="a_Node000013"><a xlink:href="namespacecam_1_1basrelief.html#a7369a80f45ef2d8d836e195fc67ee148" target="_top" xlink:title=" ">
<polygon fill="white" stroke="#666666" points="909,-56 794,-56 794,-37 909,-37 909,-56"/>
<text text-anchor="middle" x="851.5" y="-44" font-family="Helvetica,sans-Serif" font-size="10.00">cam.basrelief.linbcg</text>
</a>
</g>
</g>
<!-- Node12&#45;&gt;Node13 -->
<g id="edge12_Node000012_Node000013" class="edge">
<title>Node12&#45;&gt;Node13</title>
<g id="a_edge12_Node000012_Node000013"><a xlink:title=" ">
<path fill="none" stroke="#63b8ff" d="M740.11,-46.5C754.15,-46.5 769.19,-46.5 783.51,-46.5"/>
<polygon fill="#63b8ff" stroke="#63b8ff" points="783.79,-50 793.79,-46.5 783.79,-43 783.79,-50"/>
</a>
</g>
</g>
<!-- Node14 -->
<g id="Node000014" class="node">
<title>Node14</title>
<g id="a_Node000014"><a xlink:href="namespacecam_1_1basrelief.html#a822964708e515d6bdd72592d1b8e34a6" target="_top" xlink:title=" ">
<polygon fill="white" stroke="#666666" points="1063.5,-93 945.5,-93 945.5,-74 1063.5,-74 1063.5,-93"/>
<text text-anchor="middle" x="1004.5" y="-81" font-family="Helvetica,sans-Serif" font-size="10.00">cam.basrelief.asolve</text>
</a>
</g>
</g>
<!-- Node13&#45;&gt;Node14 -->
<g id="edge13_Node000013_Node000014" class="edge">
<title>Node13&#45;&gt;Node14</title>
<g id="a_edge13_Node000013_Node000014"><a xlink:title=" ">
<path fill="none" stroke="#63b8ff" d="M891.39,-56.03C910.69,-60.76 934.2,-66.52 954.69,-71.54"/>
<polygon fill="#63b8ff" stroke="#63b8ff" points="953.94,-74.96 964.48,-73.94 955.6,-68.16 953.94,-74.96"/>
</a>
</g>
</g>
<!-- Node15 -->
<g id="Node000015" class="node">
<title>Node15</title>
<g id="a_Node000015"><a xlink:href="namespacecam_1_1basrelief.html#ac14b2661328ff1f3816c445ebfbca188" target="_top" xlink:title=" ">
<polygon fill="white" stroke="#666666" points="1064,-56 945,-56 945,-37 1064,-37 1064,-56"/>
<text text-anchor="middle" x="1004.5" y="-44" font-family="Helvetica,sans-Serif" font-size="10.00">cam.basrelief.atimes</text>
</a>
</g>
</g>
<!-- Node13&#45;&gt;Node15 -->
<g id="edge14_Node000013_Node000015" class="edge">
<title>Node13&#45;&gt;Node15</title>
<g id="a_edge14_Node000013_Node000015"><a xlink:title=" ">
<path fill="none" stroke="#63b8ff" d="M909.16,-46.5C917.43,-46.5 926.02,-46.5 934.5,-46.5"/>
<polygon fill="#63b8ff" stroke="#63b8ff" points="934.76,-50 944.76,-46.5 934.76,-43 934.76,-50"/>
</a>
</g>
</g>
<!-- Node16 -->
<g id="Node000016" class="node">
<title>Node16</title>
<g id="a_Node000016"><a xlink:href="namespacecam_1_1basrelief.html#a6c50cb05df82a36b700aa844163dd7da" target="_top" xlink:title=" ">
<polygon fill="white" stroke="#666666" points="1059.5,-19 949.5,-19 949.5,0 1059.5,0 1059.5,-19"/>
<text text-anchor="middle" x="1004.5" y="-7" font-family="Helvetica,sans-Serif" font-size="10.00">cam.basrelief.snrm</text>
</a>
</g>
</g>
<!-- Node13&#45;&gt;Node16 -->
<g id="edge15_Node000013_Node000016" class="edge">
<title>Node13&#45;&gt;Node16</title>
<g id="a_edge15_Node000013_Node000016"><a xlink:title=" ">
<path fill="none" stroke="#63b8ff" d="M891.39,-36.97C910.69,-32.24 934.2,-26.48 954.69,-21.46"/>
<polygon fill="#63b8ff" stroke="#63b8ff" points="955.6,-24.84 964.48,-19.06 953.94,-18.04 955.6,-24.84"/>
</a>
</g>
</g>
</g>
</svg>

<g id="navigator" transform="translate(0 0)" fill="#404254">
  <rect fill="#f2f5e9" fill-opacity="0.5" stroke="#606060" stroke-width=".5" x="0" y="0" width="60" height="60"/>
  <use id="zoomplus" xlink:href="#zoomPlus" x="17" y="9" onmousedown="handleZoom(evt,'in')"/>
  <use id="zoomminus" xlink:href="#zoomMin" x="42" y="9" onmousedown="handleZoom(evt,'out')"/>
  <use id="reset" xlink:href="#resetDef" x="30" y="36" onmousedown="handleReset()"/>
   <use id="arrowup" xlink:href="#arrowUp" x="0" y="0" onmousedown="handlePan(0,-1)"/>
  <use id="arrowright" xlink:href="#arrowRight" x="0" y="0" onmousedown="handlePan(1,0)"/>
  <use id="arrowdown" xlink:href="#arrowDown" x="0" y="0" onmousedown="handlePan(0,1)"/>
  <use id="arrowleft" xlink:href="#arrowLeft" x="0" y="0" onmousedown="handlePan(-1,0)"/>
</g>
<svg viewBox="0 0 15 15" width="100%" height="30px" preserveAspectRatio="xMaxYMin meet">
 <g id="arrow_out" transform="scale(0.3 0.3)">
  <a xlink:href="classcam_1_1basrelief_1_1DoBasRelief_a8097cf99320b782af9c0d1d1968bfdd1_cgraph_org.svg" target="_base">
   <rect id="button" ry="5" rx="5" y="6" x="6" height="38" width="38"
        fill="#f2f5e9" fill-opacity="0.5" stroke="#606060" stroke-width="1.0"/>
   <path id="arrow"
     d="M 11.500037,31.436501 C 11.940474,20.09759 22.043105,11.32322 32.158766,21.979434 L 37.068811,17.246167 C 37.068811,17.246167 37.088388,32 37.088388,32 L 22.160133,31.978069 C 22.160133,31.978069 26.997745,27.140456 26.997745,27.140456 C 18.528582,18.264221 13.291696,25.230495 11.500037,31.436501 z"
     style="fill:#404040;"/>
  </a>
 </g>
</svg>

<style type='text/css'>
<![CDATA[
[data-mouse-over-selected='false'] { opacity: 0.7; }
[data-mouse-over-selected='true']  { opacity: 1.0; }
]]>
</style>
<script type="application/ecmascript"><![CDATA[
document.addEventListener('DOMContentLoaded', (event) => {
  highlightEdges();
  highlightAdjacentNodes();
});
]]></script>
</svg>
