<?xml version="1.0" encoding="UTF-8" standalone="no"?>
<!DOCTYPE svg PUBLIC "-//W3C//DTD SVG 1.1//EN"
 "http://www.w3.org/Graphics/SVG/1.1/DTD/svg11.dtd">
<!-- Generated by graphviz version 2.43.0 (0)
 -->
<!-- Title: cam.curvecamtools.CamCurveRemoveDoubles Pages: 1 -->
<svg width="423pt" height="220pt"
 viewBox="0.00 0.00 422.50 220.00" xmlns="http://www.w3.org/2000/svg" xmlns:xlink="http://www.w3.org/1999/xlink">

<svg id="main" version="1.1" xmlns="http://www.w3.org/2000/svg" xmlns:xlink="http://www.w3.org/1999/xlink" xml:space="preserve" onload="init(evt)">
<style type="text/css"><![CDATA[
.node, .edge {opacity: 0.7;}
.node.selected, .edge.selected {opacity: 1;}
.edge:hover path { stroke: red; }
.edge:hover polygon { stroke: red; fill: red; }
]]></style>
<script type="application/ecmascript" xlink:href="svg.min.js"/>
<svg id="graph" class="graph">
<g id="graph0" class="graph" transform="scale(1 1) rotate(0) translate(4 216)">
<title>cam.curvecamtools.CamCurveRemoveDoubles</title>
<!-- Node1 -->
<g id="Node000001" class="node">
<title>Node1</title>
<g id="a_Node000001"><a xlink:title=" ">
<polygon fill="#999999" stroke="transparent" points="249,-105 88,-105 88,0 249,0 249,-105"/>
<text text-anchor="start" x="93.5" y="-92.5" font-family="Helvetica,sans-Serif" font-size="10.00">cam.curvecamtools.CamCurve</text>
<text text-anchor="start" x="128.5" y="-81.5" font-family="Helvetica,sans-Serif" font-size="10.00">RemoveDoubles</text>
<text text-anchor="start" x="167" y="-66.5" font-family="Helvetica,sans-Serif" font-size="10.00"> </text>
<text text-anchor="start" x="116" y="-51.5" font-family="Helvetica,sans-Serif" font-size="10.00">+</text>
<text text-anchor="start" x="152.5" y="-51.5" font-family="Helvetica,sans-Serif" font-size="10.00">poll()</text>
<text text-anchor="start" x="116" y="-36.5" font-family="Helvetica,sans-Serif" font-size="10.00">+</text>
<text text-anchor="start" x="152.5" y="-36.5" font-family="Helvetica,sans-Serif" font-size="10.00">execute()</text>
<text text-anchor="start" x="116" y="-21.5" font-family="Helvetica,sans-Serif" font-size="10.00">+</text>
<text text-anchor="start" x="152.5" y="-21.5" font-family="Helvetica,sans-Serif" font-size="10.00">draw()</text>
<text text-anchor="start" x="116" y="-6.5" font-family="Helvetica,sans-Serif" font-size="10.00">+</text>
<text text-anchor="start" x="152.5" y="-6.5" font-family="Helvetica,sans-Serif" font-size="10.00">invoke()</text>
<polygon fill="#666666" stroke="#666666" points="88.5,-76.5 88.5,-76.5 249.5,-76.5 249.5,-76.5 88.5,-76.5"/>
<polygon fill="#666666" stroke="#666666" points="88.5,-61.5 88.5,-61.5 249.5,-61.5 249.5,-61.5 88.5,-61.5"/>
<polygon fill="none" stroke="#666666" points="88,0 88,-105 249,-105 249,0 88,0"/>
</a>
</g>
</g>
<!-- Node2 -->
<g id="Node000002" class="node">
<title>Node2</title>
<g id="a_Node000002"><a xlink:title=" ">
<polygon fill="white" stroke="transparent" points="53,-212 0,-212 0,-163 53,-163 53,-212"/>
<text text-anchor="start" x="5.5" y="-199.5" font-family="Helvetica,sans-Serif" font-size="10.00">Operator</text>
<text text-anchor="start" x="25" y="-184.5" font-family="Helvetica,sans-Serif" font-size="10.00"> </text>
<text text-anchor="start" x="25" y="-169.5" font-family="Helvetica,sans-Serif" font-size="10.00"> </text>
<polygon fill="#666666" stroke="#666666" points="0.5,-194.5 0.5,-194.5 53.5,-194.5 53.5,-194.5 0.5,-194.5"/>
<polygon fill="#666666" stroke="#666666" points="0.5,-179.5 0.5,-179.5 53.5,-179.5 53.5,-179.5 0.5,-179.5"/>
<polygon fill="none" stroke="#666666" points="0,-163 0,-212 53,-212 53,-163 0,-163"/>
</a>
</g>
</g>
<!-- Node2&#45;&gt;Node1 -->
<g id="edge1_Node000001_Node000002" class="edge">
<title>Node2&#45;&gt;Node1</title>
<g id="a_edge1_Node000001_Node000002"><a xlink:title=" ">
<path fill="none" stroke="#63b8ff" d="M55.85,-155.43C66.01,-144.94 77.59,-133.3 88.5,-123 94.66,-117.19 101.18,-111.23 107.75,-105.35"/>
<polygon fill="none" stroke="#63b8ff" points="53.14,-153.19 48.73,-162.82 58.18,-158.05 53.14,-153.19"/>
</a>
</g>
</g>
<!-- Node3 -->
<g id="Node000003" class="node">
<title>Node3</title>
<g id="a_Node000003"><a xlink:title=" ">
<polygon fill="white" stroke="transparent" points="94,-212 71,-212 71,-163 94,-163 94,-212"/>
<text text-anchor="start" x="76.5" y="-199.5" font-family="Helvetica,sans-Serif" font-size="10.00">str</text>
<text text-anchor="start" x="81" y="-184.5" font-family="Helvetica,sans-Serif" font-size="10.00"> </text>
<text text-anchor="start" x="81" y="-169.5" font-family="Helvetica,sans-Serif" font-size="10.00"> </text>
<polygon fill="#666666" stroke="#666666" points="71.5,-194.5 71.5,-194.5 94.5,-194.5 94.5,-194.5 71.5,-194.5"/>
<polygon fill="#666666" stroke="#666666" points="71.5,-179.5 71.5,-179.5 94.5,-179.5 94.5,-179.5 71.5,-179.5"/>
<polygon fill="none" stroke="#666666" points="71,-163 71,-212 94,-212 94,-163 71,-163"/>
</a>
</g>
</g>
<!-- Node3&#45;&gt;Node1 -->
<g id="edge2_Node000001_Node000003" class="edge">
<title>Node3&#45;&gt;Node1</title>
<g id="a_edge2_Node000001_Node000003"><a xlink:title=" ">
<path fill="none" stroke="#63b8ff" d="M86.77,-162.79C89.69,-150.36 94.36,-135.22 101.5,-123 103.05,-120.34 104.73,-117.71 106.5,-115.1"/>
<polygon fill="none" stroke="#63b8ff" points="106.64,-114.92 106.98,-107.72 113.76,-105.26 113.42,-112.46 106.64,-114.92"/>
</a>
</g>
<text text-anchor="middle" x="133" y="-137" font-family="Helvetica,sans-Serif" font-size="10.00" fill="grey"> +bl_idname</text>
<text text-anchor="middle" x="133" y="-126" font-family="Helvetica,sans-Serif" font-size="10.00" fill="grey">+bl_label</text>
</g>
<!-- Node4 -->
<g id="Node000004" class="node">
<title>Node4</title>
<g id="a_Node000004"><a xlink:title=" ">
<polygon fill="white" stroke="transparent" points="183,-212 154,-212 154,-163 183,-163 183,-212"/>
<text text-anchor="start" x="159.5" y="-199.5" font-family="Helvetica,sans-Serif" font-size="10.00">dict</text>
<text text-anchor="start" x="167" y="-184.5" font-family="Helvetica,sans-Serif" font-size="10.00"> </text>
<text text-anchor="start" x="167" y="-169.5" font-family="Helvetica,sans-Serif" font-size="10.00"> </text>
<polygon fill="#666666" stroke="#666666" points="154.5,-194.5 154.5,-194.5 183.5,-194.5 183.5,-194.5 154.5,-194.5"/>
<polygon fill="#666666" stroke="#666666" points="154.5,-179.5 154.5,-179.5 183.5,-179.5 183.5,-179.5 154.5,-179.5"/>
<polygon fill="none" stroke="#666666" points="154,-163 154,-212 183,-212 183,-163 154,-163"/>
</a>
</g>
</g>
<!-- Node4&#45;&gt;Node1 -->
<g id="edge3_Node000001_Node000004" class="edge">
<title>Node4&#45;&gt;Node1</title>
<g id="a_edge3_Node000001_Node000004"><a xlink:title=" ">
<path fill="none" stroke="#63b8ff" d="M168.5,-162.72C168.5,-149.98 168.5,-133.61 168.5,-117.44"/>
<polygon fill="none" stroke="#63b8ff" points="168.5,-117.18 164.5,-111.18 168.5,-105.18 172.5,-111.18 168.5,-117.18"/>
</a>
</g>
<text text-anchor="middle" x="199.5" y="-131.5" font-family="Helvetica,sans-Serif" font-size="10.00" fill="grey"> +bl_options</text>
</g>
<!-- Node5 -->
<g id="Node000005" class="node">
<title>Node5</title>
<g id="a_Node000005"><a xlink:title=" ">
<polygon fill="white" stroke="transparent" points="292,-212 215,-212 215,-163 292,-163 292,-212"/>
<text text-anchor="start" x="220.5" y="-199.5" font-family="Helvetica,sans-Serif" font-size="10.00">FloatProperty</text>
<text text-anchor="start" x="252" y="-184.5" font-family="Helvetica,sans-Serif" font-size="10.00"> </text>
<text text-anchor="start" x="252" y="-169.5" font-family="Helvetica,sans-Serif" font-size="10.00"> </text>
<polygon fill="#666666" stroke="#666666" points="215.5,-194.5 215.5,-194.5 292.5,-194.5 292.5,-194.5 215.5,-194.5"/>
<polygon fill="#666666" stroke="#666666" points="215.5,-179.5 215.5,-179.5 292.5,-179.5 292.5,-179.5 215.5,-179.5"/>
<polygon fill="none" stroke="#666666" points="215,-163 215,-212 292,-212 292,-163 215,-163"/>
</a>
</g>
</g>
<!-- Node5&#45;&gt;Node1 -->
<g id="edge4_Node000001_Node000005" class="edge">
<title>Node5&#45;&gt;Node1</title>
<g id="a_edge4_Node000001_Node000005"><a xlink:title=" ">
<path fill="none" stroke="#63b8ff" d="M247.78,-162.89C244.18,-150.49 238.82,-135.35 231.5,-123 229.94,-120.36 228.27,-117.74 226.51,-115.14"/>
<polygon fill="none" stroke="#63b8ff" points="226.39,-114.98 219.63,-112.47 219.35,-105.26 226.11,-107.78 226.39,-114.98"/>
</a>
</g>
<text text-anchor="middle" x="283.5" y="-131.5" font-family="Helvetica,sans-Serif" font-size="10.00" fill="grey"> +merg_distance</text>
</g>
<!-- Node6 -->
<g id="Node000006" class="node">
<title>Node6</title>
<g id="a_Node000006"><a xlink:title=" ">
<polygon fill="white" stroke="transparent" points="397.5,-212 323.5,-212 323.5,-163 397.5,-163 397.5,-212"/>
<text text-anchor="start" x="328.5" y="-199.5" font-family="Helvetica,sans-Serif" font-size="10.00">BoolProperty</text>
<text text-anchor="start" x="358.5" y="-184.5" font-family="Helvetica,sans-Serif" font-size="10.00"> </text>
<text text-anchor="start" x="358.5" y="-169.5" font-family="Helvetica,sans-Serif" font-size="10.00"> </text>
<polygon fill="#666666" stroke="#666666" points="323.5,-194.5 323.5,-194.5 397.5,-194.5 397.5,-194.5 323.5,-194.5"/>
<polygon fill="#666666" stroke="#666666" points="323.5,-179.5 323.5,-179.5 397.5,-179.5 397.5,-179.5 323.5,-179.5"/>
<polygon fill="none" stroke="#666666" points="323.5,-163 323.5,-212 397.5,-212 397.5,-163 323.5,-163"/>
</a>
</g>
</g>
<!-- Node6&#45;&gt;Node1 -->
<g id="edge5_Node000001_Node000006" class="edge">
<title>Node6&#45;&gt;Node1</title>
<g id="a_edge5_Node000001_Node000006"><a xlink:title=" ">
<path fill="none" stroke="#63b8ff" d="M353.52,-162.88C348.61,-149.72 340.86,-133.84 329.5,-123 310.11,-104.5 285.03,-90.5 260.45,-80.1"/>
<polygon fill="none" stroke="#63b8ff" points="260.35,-80.06 253.29,-81.53 249.22,-75.57 256.28,-74.11 260.35,-80.06"/>
</a>
</g>
<text text-anchor="middle" x="379.5" y="-131.5" font-family="Helvetica,sans-Serif" font-size="10.00" fill="grey"> +keep_bezier</text>
</g>
</g>
</svg>
</svg>

<style type='text/css'>
<![CDATA[
[data-mouse-over-selected='false'] { opacity: 0.7; }
[data-mouse-over-selected='true']  { opacity: 1.0; }
]]>
</style>
<script type="application/ecmascript"><![CDATA[
document.addEventListener('DOMContentLoaded', (event) => {
  highlightEdges();
  highlightAdjacentNodes();
});
]]></script>
</svg>
