<?xml version="1.0" encoding="UTF-8" standalone="no"?>
<!DOCTYPE svg PUBLIC "-//W3C//DTD SVG 1.1//EN"
 "http://www.w3.org/Graphics/SVG/1.1/DTD/svg11.dtd">
<!-- Generated by graphviz version 2.43.0 (0)
 -->
<!-- Title: cam.nc.recreator.Redirector.profile Pages: 1 -->
<svg width="610pt" height="122pt"
 viewBox="0.00 0.00 610.00 122.00" xmlns="http://www.w3.org/2000/svg" xmlns:xlink="http://www.w3.org/1999/xlink">
<g id="graph0" class="graph" transform="scale(1 1) rotate(0) translate(4 118)">
<title>cam.nc.recreator.Redirector.profile</title>
<!-- Node1 -->
<g id="Node000001" class="node">
<title>Node1</title>
<g id="a_Node000001"><a xlink:title=" ">
<polygon fill="#999999" stroke="#666666" points="185,-56 0,-56 0,-37 185,-37 185,-56"/>
<text text-anchor="middle" x="92.5" y="-44" font-family="Helvetica,sans-Serif" font-size="10.00">cam.nc.recreator.Redirector.profile</text>
</a>
</g>
</g>
<!-- Node1&#45;&gt;Node1 -->
<g id="edge6_Node000001_Node000001" class="edge">
<title>Node1&#45;&gt;Node1</title>
<g id="a_edge6_Node000001_Node000001"><a xlink:title=" ">
<path fill="none" stroke="#63b8ff" d="M57.67,-56.08C40.72,-64.73 52.33,-74 92.5,-74 122,-74 136.1,-69 134.79,-62.92"/>
<polygon fill="#63b8ff" stroke="#63b8ff" points="137.07,-60.26 127.33,-56.08 132.34,-65.42 137.07,-60.26"/>
</a>
</g>
</g>
<!-- Node2 -->
<g id="Node000002" class="node">
<title>Node2</title>
<g id="a_Node000002"><a xlink:href="classcam_1_1nc_1_1attach_1_1Creator.html#a15a75411685b954b0073489b30f1342e" target="_top" xlink:title=" ">
<polygon fill="white" stroke="#666666" points="403.5,-93 234.5,-93 234.5,-74 403.5,-74 403.5,-93"/>
<text text-anchor="middle" x="319" y="-81" font-family="Helvetica,sans-Serif" font-size="10.00">cam.nc.attach.Creator.cut_path</text>
</a>
</g>
</g>
<!-- Node1&#45;&gt;Node2 -->
<g id="edge1_Node000001_Node000002" class="edge">
<title>Node1&#45;&gt;Node2</title>
<g id="a_edge1_Node000001_Node000002"><a xlink:title=" ">
<path fill="none" stroke="#63b8ff" d="M151.31,-56.03C181.44,-60.99 218.47,-67.1 249.97,-72.29"/>
<polygon fill="#63b8ff" stroke="#63b8ff" points="249.56,-75.77 259.99,-73.94 250.69,-68.86 249.56,-75.77"/>
</a>
</g>
</g>
<!-- Node5 -->
<g id="Node000005" class="node">
<title>Node5</title>
<g id="a_Node000005"><a xlink:href="classcam_1_1nc_1_1drag__knife_1_1Creator.html#a5db2841a5c931c72702e9bb7752ea731" target="_top" xlink:title=" ">
<polygon fill="white" stroke="#666666" points="414,-56 224,-56 224,-37 414,-37 414,-56"/>
<text text-anchor="middle" x="319" y="-44" font-family="Helvetica,sans-Serif" font-size="10.00">cam.nc.drag_knife.Creator.cut_path</text>
</a>
</g>
</g>
<!-- Node1&#45;&gt;Node5 -->
<g id="edge4_Node000001_Node000005" class="edge">
<title>Node1&#45;&gt;Node5</title>
<g id="a_edge4_Node000001_Node000005"><a xlink:title=" ">
<path fill="none" stroke="#63b8ff" d="M185.14,-46.5C194.49,-46.5 204.03,-46.5 213.5,-46.5"/>
<polygon fill="#63b8ff" stroke="#63b8ff" points="213.74,-50 223.74,-46.5 213.74,-43 213.74,-50"/>
</a>
</g>
</g>
<!-- Node6 -->
<g id="Node000006" class="node">
<title>Node6</title>
<g id="a_Node000006"><a xlink:href="classcam_1_1nc_1_1recreator_1_1Redirector.html#ace3039c310a7ee83dafe4fee4382f511" target="_top" xlink:title=" ">
<polygon fill="white" stroke="#666666" points="417,-19 221,-19 221,0 417,0 417,-19"/>
<text text-anchor="middle" x="319" y="-7" font-family="Helvetica,sans-Serif" font-size="10.00">cam.nc.recreator.Redirector.cut_path</text>
</a>
</g>
</g>
<!-- Node1&#45;&gt;Node6 -->
<g id="edge5_Node000001_Node000006" class="edge">
<title>Node1&#45;&gt;Node6</title>
<g id="a_edge5_Node000001_Node000006"><a xlink:title=" ">
<path fill="none" stroke="#63b8ff" d="M151.31,-36.97C181.44,-32.01 218.47,-25.9 249.97,-20.71"/>
<polygon fill="#63b8ff" stroke="#63b8ff" points="250.69,-24.14 259.99,-19.06 249.56,-17.23 250.69,-24.14"/>
</a>
</g>
</g>
<!-- Node3 -->
<g id="Node000003" class="node">
<title>Node3</title>
<g id="a_Node000003"><a xlink:href="classcam_1_1nc_1_1attach_1_1Creator.html#a27a17497f0889323fd31aab4f857e577" target="_top" xlink:title=" ">
<polygon fill="white" stroke="#666666" points="602,-114 453,-114 453,-95 602,-95 602,-114"/>
<text text-anchor="middle" x="527.5" y="-102" font-family="Helvetica,sans-Serif" font-size="10.00">cam.nc.attach.Creator.feed</text>
</a>
</g>
</g>
<!-- Node2&#45;&gt;Node3 -->
<g id="edge2_Node000002_Node000003" class="edge">
<title>Node2&#45;&gt;Node3</title>
<g id="a_edge2_Node000002_Node000003"><a xlink:title=" ">
<path fill="none" stroke="#63b8ff" d="M403.69,-92.01C416.57,-93.32 429.87,-94.67 442.76,-95.98"/>
<polygon fill="#63b8ff" stroke="#63b8ff" points="442.68,-99.49 452.98,-97.02 443.38,-92.53 442.68,-99.49"/>
</a>
</g>
</g>
<!-- Node4 -->
<g id="Node000004" class="node">
<title>Node4</title>
<g id="a_Node000004"><a xlink:href="classcam_1_1nc_1_1attach_1_1Creator.html#a64e13dd00fd58d3db3818de0d188bafa" target="_top" xlink:title="Shift in Z.">
<polygon fill="white" stroke="#666666" points="598.5,-76.5 456.5,-76.5 456.5,-46.5 598.5,-46.5 598.5,-76.5"/>
<text text-anchor="start" x="464.5" y="-64.5" font-family="Helvetica,sans-Serif" font-size="10.00">cam.nc.attach.Creator.set</text>
<text text-anchor="middle" x="527.5" y="-53.5" font-family="Helvetica,sans-Serif" font-size="10.00">PdcfIfNotSet</text>
</a>
</g>
</g>
<!-- Node2&#45;&gt;Node4 -->
<g id="edge3_Node000002_Node000004" class="edge">
<title>Node2&#45;&gt;Node4</title>
<g id="a_edge3_Node000002_Node000004"><a xlink:title=" ">
<path fill="none" stroke="#63b8ff" d="M403.69,-74.58C417.73,-73.09 432.26,-71.54 446.21,-70.05"/>
<polygon fill="#63b8ff" stroke="#63b8ff" points="446.67,-73.52 456.24,-68.98 445.93,-66.56 446.67,-73.52"/>
</a>
</g>
</g>
</g>
</svg>
