<?xml version="1.0" encoding="UTF-8" standalone="no"?>
<!DOCTYPE svg PUBLIC "-//W3C//DTD SVG 1.1//EN"
 "http://www.w3.org/Graphics/SVG/1.1/DTD/svg11.dtd">
<!-- Generated by graphviz version 2.43.0 (0)
 -->
<!-- Title: cam.nc.iso.Creator.ABSOLUTE Pages: 1 -->
<svg width="561pt" height="150pt"
 viewBox="0.00 0.00 561.00 149.50" xmlns="http://www.w3.org/2000/svg" xmlns:xlink="http://www.w3.org/1999/xlink">
<g id="graph0" class="graph" transform="scale(1 1) rotate(0) translate(4 145.5)">
<title>cam.nc.iso.Creator.ABSOLUTE</title>
<!-- Node1 -->
<g id="Node000001" class="node">
<title>Node1</title>
<g id="a_Node000001"><a xlink:title=" ">
<polygon fill="#999999" stroke="#666666" points="553,-74 391,-74 391,-55 553,-55 553,-74"/>
<text text-anchor="middle" x="472" y="-62" font-family="Helvetica,sans-Serif" font-size="10.00">cam.nc.iso.Creator.ABSOLUTE</text>
</a>
</g>
</g>
<!-- Node2 -->
<g id="Node000002" class="node">
<title>Node2</title>
<g id="a_Node000002"><a xlink:href="classcam_1_1nc_1_1anilam__crusader__m_1_1Creator.html#a7dec6f8f76252963411bea8d50879caa" target="_top" xlink:title=" ">
<polygon fill="white" stroke="#666666" points="337.5,-141.5 201.5,-141.5 201.5,-111.5 337.5,-111.5 337.5,-141.5"/>
<text text-anchor="start" x="209.5" y="-129.5" font-family="Helvetica,sans-Serif" font-size="10.00">cam.nc.anilam_crusader</text>
<text text-anchor="middle" x="269.5" y="-118.5" font-family="Helvetica,sans-Serif" font-size="10.00">_m.Creator.absolute</text>
</a>
</g>
</g>
<!-- Node1&#45;&gt;Node2 -->
<g id="edge1_Node000001_Node000002" class="edge">
<title>Node1&#45;&gt;Node2</title>
<g id="a_edge1_Node000001_Node000002"><a xlink:title=" ">
<path fill="none" stroke="#63b8ff" d="M433.4,-77.24C410.75,-84.8 381.3,-94.46 355,-102.5 345.23,-105.49 334.78,-108.55 324.69,-111.46"/>
<polygon fill="#63b8ff" stroke="#63b8ff" points="434.6,-80.53 442.97,-74.03 432.38,-73.89 434.6,-80.53"/>
</a>
</g>
</g>
<!-- Node4 -->
<g id="Node000004" class="node">
<title>Node4</title>
<g id="a_Node000004"><a xlink:href="classcam_1_1nc_1_1emc2_1_1Creator.html#a973e05ccfb3915a7caf91bf81e544834" target="_top" xlink:title=" ">
<polygon fill="white" stroke="#666666" points="352,-93 187,-93 187,-74 352,-74 352,-93"/>
<text text-anchor="middle" x="269.5" y="-81" font-family="Helvetica,sans-Serif" font-size="10.00">cam.nc.emc2.Creator.absolute</text>
</a>
</g>
</g>
<!-- Node1&#45;&gt;Node4 -->
<g id="edge3_Node000001_Node000004" class="edge">
<title>Node1&#45;&gt;Node4</title>
<g id="a_edge3_Node000001_Node000004"><a xlink:title=" ">
<path fill="none" stroke="#63b8ff" d="M380.64,-73.06C371.14,-73.96 361.52,-74.88 352.12,-75.77"/>
<polygon fill="#63b8ff" stroke="#63b8ff" points="381.27,-76.52 390.89,-72.09 380.61,-69.55 381.27,-76.52"/>
</a>
</g>
</g>
<!-- Node5 -->
<g id="Node000005" class="node">
<title>Node5</title>
<g id="a_Node000005"><a xlink:href="classcam_1_1nc_1_1heiden_1_1Creator.html#a45c41543e061f4cdfbeabd5b45a42a7a" target="_top" xlink:title=" ">
<polygon fill="white" stroke="#666666" points="355,-56 184,-56 184,-37 355,-37 355,-56"/>
<text text-anchor="middle" x="269.5" y="-44" font-family="Helvetica,sans-Serif" font-size="10.00">cam.nc.heiden.Creator.absolute</text>
</a>
</g>
</g>
<!-- Node1&#45;&gt;Node5 -->
<g id="edge5_Node000001_Node000005" class="edge">
<title>Node1&#45;&gt;Node5</title>
<g id="a_edge5_Node000001_Node000005"><a xlink:title=" ">
<path fill="none" stroke="#63b8ff" d="M380.88,-56.41C372.29,-55.64 363.61,-54.86 355.08,-54.09"/>
<polygon fill="#63b8ff" stroke="#63b8ff" points="380.62,-59.9 390.89,-57.31 381.25,-52.93 380.62,-59.9"/>
</a>
</g>
</g>
<!-- Node6 -->
<g id="Node000006" class="node">
<title>Node6</title>
<g id="a_Node000006"><a xlink:href="classcam_1_1nc_1_1iso_1_1Creator.html#a9aa27edca4b9740fb914195f14bbb247" target="_top" xlink:title=" ">
<polygon fill="white" stroke="#666666" points="345.5,-19 193.5,-19 193.5,0 345.5,0 345.5,-19"/>
<text text-anchor="middle" x="269.5" y="-7" font-family="Helvetica,sans-Serif" font-size="10.00">cam.nc.iso.Creator.absolute</text>
</a>
</g>
</g>
<!-- Node1&#45;&gt;Node6 -->
<g id="edge7_Node000001_Node000006" class="edge">
<title>Node1&#45;&gt;Node6</title>
<g id="a_edge7_Node000001_Node000006"><a xlink:title=" ">
<path fill="none" stroke="#63b8ff" d="M433.04,-51.88C410.49,-44.6 381.26,-35.52 355,-28.5 342.51,-25.16 328.87,-21.92 316.27,-19.09"/>
<polygon fill="#63b8ff" stroke="#63b8ff" points="431.99,-55.22 442.58,-54.99 434.16,-48.56 431.99,-55.22"/>
</a>
</g>
</g>
<!-- Node3 -->
<g id="Node000003" class="node">
<title>Node3</title>
<g id="a_Node000003"><a xlink:href="classcam_1_1nc_1_1lathe1__read_1_1Parser.html#a4046e981f4f946bed728de957d10365f" target="_top" xlink:title=" ">
<polygon fill="white" stroke="#666666" points="148,-79.5 0,-79.5 0,-49.5 148,-49.5 148,-79.5"/>
<text text-anchor="start" x="8" y="-67.5" font-family="Helvetica,sans-Serif" font-size="10.00">cam.nc.lathe1_read.Parser.</text>
<text text-anchor="middle" x="74" y="-56.5" font-family="Helvetica,sans-Serif" font-size="10.00">Parse</text>
</a>
</g>
</g>
<!-- Node2&#45;&gt;Node3 -->
<g id="edge2_Node000002_Node000003" class="edge">
<title>Node2&#45;&gt;Node3</title>
<g id="a_edge2_Node000002_Node000003"><a xlink:title=" ">
<path fill="none" stroke="#63b8ff" d="M203.95,-108.59C197.2,-106.59 190.45,-104.54 184,-102.5 161.45,-95.37 136.53,-86.74 116.22,-79.51"/>
<polygon fill="#63b8ff" stroke="#63b8ff" points="203.23,-112.03 213.81,-111.48 205.2,-105.31 203.23,-112.03"/>
</a>
</g>
</g>
<!-- Node4&#45;&gt;Node3 -->
<g id="edge4_Node000004_Node000003" class="edge">
<title>Node4&#45;&gt;Node3</title>
<g id="a_edge4_Node000004_Node000003"><a xlink:title=" ">
<path fill="none" stroke="#63b8ff" d="M176.96,-74.51C167.28,-73.56 157.53,-72.6 148.1,-71.68"/>
<polygon fill="#63b8ff" stroke="#63b8ff" points="176.71,-78 187,-75.5 177.39,-71.04 176.71,-78"/>
</a>
</g>
</g>
<!-- Node5&#45;&gt;Node3 -->
<g id="edge6_Node000005_Node000003" class="edge">
<title>Node5&#45;&gt;Node3</title>
<g id="a_edge6_Node000005_Node000003"><a xlink:title=" ">
<path fill="none" stroke="#63b8ff" d="M173.83,-55.31C165.22,-56.11 156.58,-56.91 148.2,-57.69"/>
<polygon fill="#63b8ff" stroke="#63b8ff" points="174.28,-58.78 183.91,-54.37 173.63,-51.81 174.28,-58.78"/>
</a>
</g>
</g>
<!-- Node6&#45;&gt;Node3 -->
<g id="edge8_Node000006_Node000003" class="edge">
<title>Node6&#45;&gt;Node3</title>
<g id="a_edge8_Node000006_Node000003"><a xlink:title=" ">
<path fill="none" stroke="#63b8ff" d="M212.44,-21.3C202.91,-23.53 193.14,-25.97 184,-28.5 161.82,-34.64 137.46,-42.57 117.41,-49.42"/>
<polygon fill="#63b8ff" stroke="#63b8ff" points="213.29,-24.69 222.25,-19.04 211.72,-17.87 213.29,-24.69"/>
</a>
</g>
</g>
</g>
</svg>
