<?xml version="1.0" encoding="UTF-8" standalone="no"?>
<!DOCTYPE svg PUBLIC "-//W3C//DTD SVG 1.1//EN"
 "http://www.w3.org/Graphics/SVG/1.1/DTD/svg11.dtd">
<!-- Generated by graphviz version 2.43.0 (0)
 -->
<!-- Title: cam.nc.gravos.Creator.program_end Pages: 1 -->
<svg width="1322pt" height="1206pt"
 viewBox="0.00 0.00 1322.00 1205.89" xmlns="http://www.w3.org/2000/svg" xmlns:xlink="http://www.w3.org/1999/xlink">
<g id="graph0" class="graph" transform="scale(1 1) rotate(0) translate(4 1201.89)">
<title>cam.nc.gravos.Creator.program_end</title>
<!-- Node1 -->
<g id="Node000001" class="node">
<title>Node1</title>
<g id="a_Node000001"><a xlink:title=" ">
<polygon fill="#999999" stroke="#666666" points="194,-715.5 0,-715.5 0,-696.5 194,-696.5 194,-715.5"/>
<text text-anchor="middle" x="97" y="-703.5" font-family="Helvetica,sans-Serif" font-size="10.00">cam.nc.gravos.Creator.program_end</text>
</a>
</g>
</g>
<!-- Node2 -->
<g id="Node000002" class="node">
<title>Node2</title>
<g id="a_Node000002"><a xlink:href="classcam_1_1nc_1_1emc2b_1_1Creator.html#a344b2457825605210b4ac5bc64e6feef" target="_top" xlink:title=" ">
<polygon fill="white" stroke="#666666" points="436,-999.5 230,-999.5 230,-980.5 436,-980.5 436,-999.5"/>
<text text-anchor="middle" x="333" y="-987.5" font-family="Helvetica,sans-Serif" font-size="10.00">cam.nc.emc2b.Creator.PROGRAM_END</text>
</a>
</g>
</g>
<!-- Node1&#45;&gt;Node2 -->
<g id="edge1_Node000001_Node000002" class="edge">
<title>Node1&#45;&gt;Node2</title>
<g id="a_edge1_Node000001_Node000002"><a xlink:title=" ">
<path fill="none" stroke="#63b8ff" d="M99.85,-715.63C107.73,-753.98 142.23,-897.03 230,-966 235.38,-970.23 241.38,-973.73 247.71,-976.64"/>
<polygon fill="#63b8ff" stroke="#63b8ff" points="246.59,-979.96 257.17,-980.47 249.22,-973.47 246.59,-979.96"/>
</a>
</g>
</g>
<!-- Node3 -->
<g id="Node000003" class="node">
<title>Node3</title>
<g id="a_Node000003"><a xlink:href="classcam_1_1nc_1_1emc2_1_1Creator.html#a47a9e4f5f35681f580765bba2f0f97a5" target="_top" xlink:title=" ">
<polygon fill="white" stroke="#666666" points="634.5,-1188.5 480.5,-1188.5 480.5,-1169.5 634.5,-1169.5 634.5,-1188.5"/>
<text text-anchor="middle" x="557.5" y="-1176.5" font-family="Helvetica,sans-Serif" font-size="10.00">cam.nc.emc2.Creator.SPACE</text>
</a>
</g>
</g>
<!-- Node1&#45;&gt;Node3 -->
<g id="edge24_Node000001_Node000003" class="edge">
<title>Node1&#45;&gt;Node3</title>
<g id="a_edge24_Node000001_Node000003"><a xlink:title=" ">
<path fill="none" stroke="#63b8ff" d="M99.45,-715.68C108.47,-774.77 159.02,-1086.27 230,-1145 306.59,-1208.37 430.38,-1201.17 501.5,-1190.15"/>
<polygon fill="#63b8ff" stroke="#63b8ff" points="502.29,-1193.56 511.6,-1188.5 501.16,-1186.66 502.29,-1193.56"/>
</a>
</g>
</g>
<!-- Node4 -->
<g id="Node000004" class="node">
<title>Node4</title>
<g id="a_Node000004"><a xlink:href="classcam_1_1nc_1_1emc2b_1_1Creator.html#abff5586e78bb91681bd41dafdea5a9e7" target="_top" xlink:title=" ">
<polygon fill="white" stroke="#666666" points="637.5,-1151.5 477.5,-1151.5 477.5,-1132.5 637.5,-1132.5 637.5,-1151.5"/>
<text text-anchor="middle" x="557.5" y="-1139.5" font-family="Helvetica,sans-Serif" font-size="10.00">cam.nc.emc2b.Creator.SPACE</text>
</a>
</g>
</g>
<!-- Node1&#45;&gt;Node4 -->
<g id="edge25_Node000001_Node000004" class="edge">
<title>Node1&#45;&gt;Node4</title>
<g id="a_edge25_Node000001_Node000004"><a xlink:title=" ">
<path fill="none" stroke="#63b8ff" d="M97.76,-715.51C97.05,-765.57 100.86,-1000.13 230,-1105 305.34,-1166.18 424.75,-1162.39 496.37,-1152.96"/>
<polygon fill="#63b8ff" stroke="#63b8ff" points="497.16,-1156.38 506.58,-1151.53 496.19,-1149.45 497.16,-1156.38"/>
</a>
</g>
</g>
<!-- Node5 -->
<g id="Node000005" class="node">
<title>Node5</title>
<g id="a_Node000005"><a xlink:href="classcam_1_1nc_1_1emc2tap_1_1CodesEMC2.html#a6a0d71a1c6e9f8a80228dc220a0e57ca" target="_top" xlink:title=" ">
<polygon fill="white" stroke="#666666" points="638,-1114 477,-1114 477,-1084 638,-1084 638,-1114"/>
<text text-anchor="start" x="485" y="-1102" font-family="Helvetica,sans-Serif" font-size="10.00">cam.nc.emc2tap.CodesEMC2.</text>
<text text-anchor="middle" x="557.5" y="-1091" font-family="Helvetica,sans-Serif" font-size="10.00">SPACE</text>
</a>
</g>
</g>
<!-- Node1&#45;&gt;Node5 -->
<g id="edge26_Node000001_Node000005" class="edge">
<title>Node1&#45;&gt;Node5</title>
<g id="a_edge26_Node000001_Node000005"><a xlink:title=" ">
<path fill="none" stroke="#63b8ff" d="M98.11,-715.56C99.22,-762.88 110.89,-973.55 230,-1066 296.49,-1117.61 394.97,-1120.64 466.38,-1113.98"/>
<polygon fill="#63b8ff" stroke="#63b8ff" points="467.12,-1117.42 476.71,-1112.93 466.41,-1110.46 467.12,-1117.42"/>
</a>
</g>
</g>
<!-- Node6 -->
<g id="Node000006" class="node">
<title>Node6</title>
<g id="a_Node000006"><a xlink:href="classcam_1_1nc_1_1heiden_1_1Creator.html#a2c4277ffddaea0f92c906c6744f7a3bd" target="_top" xlink:title="Codes.">
<polygon fill="white" stroke="#666666" points="637.5,-1065.5 477.5,-1065.5 477.5,-1046.5 637.5,-1046.5 637.5,-1065.5"/>
<text text-anchor="middle" x="557.5" y="-1053.5" font-family="Helvetica,sans-Serif" font-size="10.00">cam.nc.heiden.Creator.SPACE</text>
</a>
</g>
</g>
<!-- Node1&#45;&gt;Node6 -->
<g id="edge27_Node000001_Node000006" class="edge">
<title>Node1&#45;&gt;Node6</title>
<g id="a_edge27_Node000001_Node000006"><a xlink:title=" ">
<path fill="none" stroke="#63b8ff" d="M98.29,-715.64C100.26,-761.53 115.33,-959.02 230,-1041 266.71,-1067.24 383.81,-1066.67 467.26,-1062.47"/>
<polygon fill="#63b8ff" stroke="#63b8ff" points="467.46,-1065.96 477.26,-1061.94 467.09,-1058.97 467.46,-1065.96"/>
</a>
</g>
</g>
<!-- Node7 -->
<g id="Node000007" class="node">
<title>Node7</title>
<g id="a_Node000007"><a xlink:href="classcam_1_1nc_1_1heiden530_1_1Creator.html#aa64b19b0edc2ac1f2d568b09ca2aebcb" target="_top" xlink:title="Codes.">
<polygon fill="white" stroke="#666666" points="631,-1028 484,-1028 484,-998 631,-998 631,-1028"/>
<text text-anchor="start" x="492" y="-1016" font-family="Helvetica,sans-Serif" font-size="10.00">cam.nc.heiden530.Creator.</text>
<text text-anchor="middle" x="557.5" y="-1005" font-family="Helvetica,sans-Serif" font-size="10.00">SPACE</text>
</a>
</g>
</g>
<!-- Node1&#45;&gt;Node7 -->
<g id="edge28_Node000001_Node000007" class="edge">
<title>Node1&#45;&gt;Node7</title>
<g id="a_edge28_Node000001_Node000007"><a xlink:title=" ">
<path fill="none" stroke="#63b8ff" d="M98.65,-715.69C102.17,-759.24 122.92,-937.91 230,-1009 309.56,-1061.82 425.8,-1046.86 495.99,-1030.44"/>
<polygon fill="#63b8ff" stroke="#63b8ff" points="497.11,-1033.78 506,-1028.02 495.46,-1026.97 497.11,-1033.78"/>
</a>
</g>
</g>
<!-- Node8 -->
<g id="Node000008" class="node">
<title>Node8</title>
<g id="a_Node000008"><a xlink:href="classcam_1_1nc_1_1iso_1_1Creator.html#a79463d437baaaf23c828a2c9e62393f3" target="_top" xlink:title=" ">
<polygon fill="white" stroke="#666666" points="628,-979.5 487,-979.5 487,-960.5 628,-960.5 628,-979.5"/>
<text text-anchor="middle" x="557.5" y="-967.5" font-family="Helvetica,sans-Serif" font-size="10.00">cam.nc.iso.Creator.SPACE</text>
</a>
</g>
</g>
<!-- Node1&#45;&gt;Node8 -->
<g id="edge29_Node000001_Node000008" class="edge">
<title>Node1&#45;&gt;Node8</title>
<g id="a_edge29_Node000001_Node000008"><a xlink:title=" ">
<path fill="none" stroke="#63b8ff" d="M101.01,-715.95C111.91,-750.16 152.83,-863.64 230,-915 269.39,-941.21 393.15,-956.46 476.47,-964"/>
<polygon fill="#63b8ff" stroke="#63b8ff" points="476.41,-967.51 486.68,-964.9 477.03,-960.54 476.41,-967.51"/>
</a>
</g>
</g>
<!-- Node16 -->
<g id="Node000016" class="node">
<title>Node16</title>
<g id="a_Node000016"><a xlink:href="classcam_1_1nc_1_1makerbot__codes_1_1Codes.html#a497077e0e500cc8f419b8f3f61f008b4" target="_top" xlink:title=" ">
<polygon fill="white" stroke="#666666" points="643,-942 472,-942 472,-912 643,-912 643,-942"/>
<text text-anchor="start" x="480" y="-930" font-family="Helvetica,sans-Serif" font-size="10.00">cam.nc.makerbot_codes.Codes.</text>
<text text-anchor="middle" x="557.5" y="-919" font-family="Helvetica,sans-Serif" font-size="10.00">SPACE</text>
</a>
</g>
</g>
<!-- Node1&#45;&gt;Node16 -->
<g id="edge30_Node000001_Node000016" class="edge">
<title>Node1&#45;&gt;Node16</title>
<g id="a_edge30_Node000001_Node000016"><a xlink:title=" ">
<path fill="none" stroke="#63b8ff" d="M102.33,-715.71C116.11,-745.32 162.01,-834.91 230,-875 300.07,-916.32 392.63,-927.83 461.29,-929.87"/>
<polygon fill="#63b8ff" stroke="#63b8ff" points="461.59,-933.38 471.67,-930.11 461.76,-926.38 461.59,-933.38"/>
</a>
</g>
</g>
<!-- Node17 -->
<g id="Node000017" class="node">
<title>Node17</title>
<g id="a_Node000017"><a xlink:href="classcam_1_1nc_1_1series1_1_1Creator.html#a75918d23eef609baab85058fda3050d5" target="_top" xlink:title=" ">
<polygon fill="white" stroke="#666666" points="638.5,-893.5 476.5,-893.5 476.5,-874.5 638.5,-874.5 638.5,-893.5"/>
<text text-anchor="middle" x="557.5" y="-881.5" font-family="Helvetica,sans-Serif" font-size="10.00">cam.nc.series1.Creator.SPACE</text>
</a>
</g>
</g>
<!-- Node1&#45;&gt;Node17 -->
<g id="edge31_Node000001_Node000017" class="edge">
<title>Node1&#45;&gt;Node17</title>
<g id="a_edge31_Node000001_Node000017"><a xlink:title=" ">
<path fill="none" stroke="#63b8ff" d="M104.3,-715.73C121.19,-740.89 170.26,-808.2 230,-838 303.82,-874.82 397.98,-884.76 466.2,-886.42"/>
<polygon fill="#63b8ff" stroke="#63b8ff" points="466.43,-889.93 476.5,-886.61 466.56,-882.93 466.43,-889.93"/>
</a>
</g>
</g>
<!-- Node18 -->
<g id="Node000018" class="node">
<title>Node18</title>
<g id="a_Node000018"><a xlink:href="classcam_1_1nc_1_1shopbot__mtc_1_1Creator.html#a1512dbb5d0140eb216ed709a542261ac" target="_top" xlink:title="Codes.">
<polygon fill="white" stroke="#666666" points="637,-856 478,-856 478,-826 637,-826 637,-856"/>
<text text-anchor="start" x="486" y="-844" font-family="Helvetica,sans-Serif" font-size="10.00">cam.nc.shopbot_mtc.Creator.</text>
<text text-anchor="middle" x="557.5" y="-833" font-family="Helvetica,sans-Serif" font-size="10.00">SPACE</text>
</a>
</g>
</g>
<!-- Node1&#45;&gt;Node18 -->
<g id="edge32_Node000001_Node000018" class="edge">
<title>Node1&#45;&gt;Node18</title>
<g id="a_edge32_Node000001_Node000018"><a xlink:title=" ">
<path fill="none" stroke="#63b8ff" d="M106.81,-715.53C126.55,-736.18 176.82,-784.91 230,-806 306.36,-836.29 400.21,-843.57 467.66,-844.14"/>
<polygon fill="#63b8ff" stroke="#63b8ff" points="467.82,-847.64 477.84,-844.18 467.85,-840.64 467.82,-847.64"/>
</a>
</g>
</g>
<!-- Node19 -->
<g id="Node000019" class="node">
<title>Node19</title>
<g id="a_Node000019"><a xlink:href="classcam_1_1nc_1_1tnc151_1_1Creator.html#af5d9e50b2ff0e73cd7524e2145d55d76" target="_top" xlink:title=" ">
<polygon fill="white" stroke="#666666" points="637.5,-807.5 477.5,-807.5 477.5,-788.5 637.5,-788.5 637.5,-807.5"/>
<text text-anchor="middle" x="557.5" y="-795.5" font-family="Helvetica,sans-Serif" font-size="10.00">cam.nc.tnc151.Creator.SPACE</text>
</a>
</g>
</g>
<!-- Node1&#45;&gt;Node19 -->
<g id="edge33_Node000001_Node000019" class="edge">
<title>Node1&#45;&gt;Node19</title>
<g id="a_edge33_Node000001_Node000019"><a xlink:title=" ">
<path fill="none" stroke="#63b8ff" d="M110.21,-715.58C132.5,-732.44 181.93,-766.95 230,-781 307.86,-803.76 400.54,-806.4 467.23,-804.3"/>
<polygon fill="#63b8ff" stroke="#63b8ff" points="467.42,-807.8 477.29,-803.94 467.17,-800.8 467.42,-807.8"/>
</a>
</g>
</g>
<!-- Node20 -->
<g id="Node000020" class="node">
<title>Node20</title>
<g id="a_Node000020"><a xlink:href="classcam_1_1nc_1_1gravos_1_1Creator.html#a0a1d217761d010554ae2091f78a3e757" target="_top" xlink:title=" ">
<polygon fill="white" stroke="#666666" points="436,-771.5 230,-771.5 230,-752.5 436,-752.5 436,-771.5"/>
<text text-anchor="middle" x="333" y="-759.5" font-family="Helvetica,sans-Serif" font-size="10.00">cam.nc.gravos.Creator.PROGRAM_END</text>
</a>
</g>
</g>
<!-- Node1&#45;&gt;Node20 -->
<g id="edge19_Node000001_Node000020" class="edge">
<title>Node1&#45;&gt;Node20</title>
<g id="a_edge19_Node000001_Node000020"><a xlink:title=" ">
<path fill="none" stroke="#63b8ff" d="M127.65,-715.51C154.25,-723.81 194.45,-735.77 230,-744 240.22,-746.37 251.08,-748.59 261.76,-750.61"/>
<polygon fill="#63b8ff" stroke="#63b8ff" points="261.45,-754.11 271.92,-752.49 262.72,-747.23 261.45,-754.11"/>
</a>
</g>
</g>
<!-- Node21 -->
<g id="Node000021" class="node">
<title>Node21</title>
<g id="a_Node000021"><a xlink:href="classcam_1_1nc_1_1grbl_1_1Creator.html#aa670b5bb9caacd860ec8870396e5800a" target="_top" xlink:title=" ">
<polygon fill="white" stroke="#666666" points="428.5,-734.5 237.5,-734.5 237.5,-715.5 428.5,-715.5 428.5,-734.5"/>
<text text-anchor="middle" x="333" y="-722.5" font-family="Helvetica,sans-Serif" font-size="10.00">cam.nc.grbl.Creator.PROGRAM_END</text>
</a>
</g>
</g>
<!-- Node1&#45;&gt;Node21 -->
<g id="edge20_Node000001_Node000021" class="edge">
<title>Node1&#45;&gt;Node21</title>
<g id="a_edge20_Node000001_Node000021"><a xlink:title=" ">
<path fill="none" stroke="#63b8ff" d="M194.19,-713.81C205.1,-714.7 216.25,-715.6 227.26,-716.5"/>
<polygon fill="#63b8ff" stroke="#63b8ff" points="227.07,-719.99 237.32,-717.31 227.63,-713.01 227.07,-719.99"/>
</a>
</g>
</g>
<!-- Node22 -->
<g id="Node000022" class="node">
<title>Node22</title>
<g id="a_Node000022"><a xlink:href="classcam_1_1nc_1_1iso_1_1Creator.html#a8705709f8177dd54b9737977dc14cc85" target="_top" xlink:title=" ">
<polygon fill="white" stroke="#666666" points="426.5,-697.5 239.5,-697.5 239.5,-678.5 426.5,-678.5 426.5,-697.5"/>
<text text-anchor="middle" x="333" y="-685.5" font-family="Helvetica,sans-Serif" font-size="10.00">cam.nc.iso.Creator.PROGRAM_END</text>
</a>
</g>
</g>
<!-- Node1&#45;&gt;Node22 -->
<g id="edge21_Node000001_Node000022" class="edge">
<title>Node1&#45;&gt;Node22</title>
<g id="a_edge21_Node000001_Node000022"><a xlink:title=" ">
<path fill="none" stroke="#63b8ff" d="M194.19,-698.6C205.69,-697.72 217.48,-696.81 229.07,-695.92"/>
<polygon fill="#63b8ff" stroke="#63b8ff" points="229.5,-699.4 239.2,-695.14 228.96,-692.42 229.5,-699.4"/>
</a>
</g>
</g>
<!-- Node23 -->
<g id="Node000023" class="node">
<title>Node23</title>
<g id="a_Node000023"><a xlink:href="classcam_1_1nc_1_1lynx__otter__o_1_1Creator.html#a60a92a384193fbf62feb8c1e4a924084" target="_top" xlink:title=" ">
<polygon fill="white" stroke="#666666" points="411.5,-660 254.5,-660 254.5,-630 411.5,-630 411.5,-660"/>
<text text-anchor="start" x="262.5" y="-648" font-family="Helvetica,sans-Serif" font-size="10.00">cam.nc.lynx_otter_o.Creator.</text>
<text text-anchor="middle" x="333" y="-637" font-family="Helvetica,sans-Serif" font-size="10.00">PROGRAM_END</text>
</a>
</g>
</g>
<!-- Node1&#45;&gt;Node23 -->
<g id="edge22_Node000001_Node000023" class="edge">
<title>Node1&#45;&gt;Node23</title>
<g id="a_edge22_Node000001_Node000023"><a xlink:title=" ">
<path fill="none" stroke="#63b8ff" d="M132.12,-696.43C158.74,-689.03 196.66,-678.63 230,-670 239.6,-667.52 249.72,-664.96 259.71,-662.47"/>
<polygon fill="#63b8ff" stroke="#63b8ff" points="260.77,-665.82 269.63,-660.01 259.09,-659.02 260.77,-665.82"/>
</a>
</g>
</g>
<!-- Node24 -->
<g id="Node000024" class="node">
<title>Node24</title>
<g id="a_Node000024"><a xlink:href="classcam_1_1nc_1_1makerbot__codes_1_1Codes.html#a84aafa8d86e1a826e6ce2677d0d63727" target="_top" xlink:title=" ">
<polygon fill="white" stroke="#666666" points="418.5,-612 247.5,-612 247.5,-582 418.5,-582 418.5,-612"/>
<text text-anchor="start" x="255.5" y="-600" font-family="Helvetica,sans-Serif" font-size="10.00">cam.nc.makerbot_codes.Codes.</text>
<text text-anchor="middle" x="333" y="-589" font-family="Helvetica,sans-Serif" font-size="10.00">PROGRAM_END</text>
</a>
</g>
</g>
<!-- Node1&#45;&gt;Node24 -->
<g id="edge23_Node000001_Node000024" class="edge">
<title>Node1&#45;&gt;Node24</title>
<g id="a_edge23_Node000001_Node000024"><a xlink:title=" ">
<path fill="none" stroke="#63b8ff" d="M109.94,-696.28C132.19,-678.65 182.08,-641.35 230,-621 235.02,-618.87 240.27,-616.9 245.62,-615.1"/>
<polygon fill="#63b8ff" stroke="#63b8ff" points="246.85,-618.38 255.33,-612.03 244.74,-611.71 246.85,-618.38"/>
</a>
</g>
</g>
<!-- Node25 -->
<g id="Node000025" class="node">
<title>Node25</title>
<g id="a_Node000025"><a xlink:href="classcam_1_1nc_1_1gravos_1_1Creator.html#a7cdc29eac43dcb746bf763cfbcca2e21" target="_top" xlink:title=" ">
<polygon fill="white" stroke="#666666" points="430.5,-563.5 235.5,-563.5 235.5,-544.5 430.5,-544.5 430.5,-563.5"/>
<text text-anchor="middle" x="333" y="-551.5" font-family="Helvetica,sans-Serif" font-size="10.00">cam.nc.gravos.Creator.SPINDLE_OFF</text>
</a>
</g>
</g>
<!-- Node1&#45;&gt;Node25 -->
<g id="edge34_Node000001_Node000025" class="edge">
<title>Node1&#45;&gt;Node25</title>
<g id="a_edge34_Node000001_Node000025"><a xlink:title=" ">
<path fill="none" stroke="#63b8ff" d="M104.36,-696.35C121.39,-671.36 170.76,-604.34 230,-573 234.35,-570.7 238.93,-568.67 243.65,-566.89"/>
<polygon fill="#63b8ff" stroke="#63b8ff" points="245.13,-570.08 253.48,-563.56 242.89,-563.45 245.13,-570.08"/>
</a>
</g>
</g>
<!-- Node26 -->
<g id="Node000026" class="node">
<title>Node26</title>
<g id="a_Node000026"><a xlink:href="classcam_1_1nc_1_1lynx__otter__o_1_1Creator.html#aad0aab94a1d240c8aad68ca1ebd4166d" target="_top" xlink:title=" ">
<polygon fill="white" stroke="#666666" points="411.5,-526 254.5,-526 254.5,-496 411.5,-496 411.5,-526"/>
<text text-anchor="start" x="262.5" y="-514" font-family="Helvetica,sans-Serif" font-size="10.00">cam.nc.lynx_otter_o.Creator.</text>
<text text-anchor="middle" x="333" y="-503" font-family="Helvetica,sans-Serif" font-size="10.00">SPINDLE_OFF</text>
</a>
</g>
</g>
<!-- Node1&#45;&gt;Node26 -->
<g id="edge35_Node000001_Node000026" class="edge">
<title>Node1&#45;&gt;Node26</title>
<g id="a_edge35_Node000001_Node000026"><a xlink:title=" ">
<path fill="none" stroke="#63b8ff" d="M102.47,-696.48C116.63,-667.4 163.54,-579.11 230,-536 234.68,-532.96 239.71,-530.29 244.92,-527.95"/>
<polygon fill="#63b8ff" stroke="#63b8ff" points="246.53,-531.07 254.48,-524.07 243.9,-524.58 246.53,-531.07"/>
</a>
</g>
</g>
<!-- Node27 -->
<g id="Node000027" class="node">
<title>Node27</title>
<g id="a_Node000027"><a xlink:href="classcam_1_1nc_1_1cad__nc__read_1_1Parser.html#adcf2f47949df29f187f27fe985884633" target="_top" xlink:title=" ">
<polygon fill="white" stroke="#666666" points="421,-459.5 245,-459.5 245,-440.5 421,-440.5 421,-459.5"/>
<text text-anchor="middle" x="333" y="-447.5" font-family="Helvetica,sans-Serif" font-size="10.00">cam.nc.cad_nc_read.Parser.write</text>
</a>
</g>
</g>
<!-- Node1&#45;&gt;Node27 -->
<g id="edge36_Node000001_Node000027" class="edge">
<title>Node1&#45;&gt;Node27</title>
<g id="a_edge36_Node000001_Node000027"><a xlink:title=" ">
<path fill="none" stroke="#63b8ff" d="M101.24,-696.09C112.88,-661.94 155.93,-547.9 230,-487 243.25,-476.1 259.99,-468.27 276.05,-462.71"/>
<polygon fill="#63b8ff" stroke="#63b8ff" points="277.48,-465.93 285.93,-459.53 275.34,-459.27 277.48,-465.93"/>
</a>
</g>
</g>
<!-- Node28 -->
<g id="Node000028" class="node">
<title>Node28</title>
<g id="a_Node000028"><a xlink:href="classcam_1_1nc_1_1hxml__writer_1_1HxmlWriter.html#aed6f93c98cb8c0e3f3e826e75b6d6f15" target="_top" xlink:title=" ">
<polygon fill="white" stroke="#666666" points="432.5,-404.5 233.5,-404.5 233.5,-385.5 432.5,-385.5 432.5,-404.5"/>
<text text-anchor="middle" x="333" y="-392.5" font-family="Helvetica,sans-Serif" font-size="10.00">cam.nc.hxml_writer.HxmlWriter.write</text>
</a>
</g>
</g>
<!-- Node1&#45;&gt;Node28 -->
<g id="edge38_Node000001_Node000028" class="edge">
<title>Node1&#45;&gt;Node28</title>
<g id="a_edge38_Node000001_Node000028"><a xlink:title=" ">
<path fill="none" stroke="#63b8ff" d="M99.87,-696.42C107.95,-657.59 143.43,-510.25 230,-432 242.21,-420.96 257.97,-413.15 273.43,-407.65"/>
<polygon fill="#63b8ff" stroke="#63b8ff" points="274.57,-410.96 282.98,-404.51 272.39,-404.31 274.57,-410.96"/>
</a>
</g>
</g>
<!-- Node29 -->
<g id="Node000029" class="node">
<title>Node29</title>
<g id="a_Node000029"><a xlink:href="classcam_1_1nc_1_1iso_1_1Creator.html#abb81af5a0bdddfed387b71b68a51cc7a" target="_top" xlink:title="Internals.">
<polygon fill="white" stroke="#666666" points="400.5,-367.5 265.5,-367.5 265.5,-348.5 400.5,-348.5 400.5,-367.5"/>
<text text-anchor="middle" x="333" y="-355.5" font-family="Helvetica,sans-Serif" font-size="10.00">cam.nc.iso.Creator.write</text>
</a>
</g>
</g>
<!-- Node1&#45;&gt;Node29 -->
<g id="edge40_Node000001_Node000029" class="edge">
<title>Node1&#45;&gt;Node29</title>
<g id="a_edge40_Node000001_Node000029"><a xlink:title=" ">
<path fill="none" stroke="#63b8ff" d="M98.65,-696.26C102.19,-651.57 123.15,-464.6 230,-377 237.5,-370.86 246.35,-366.45 255.65,-363.33"/>
<polygon fill="#63b8ff" stroke="#63b8ff" points="256.82,-366.64 265.48,-360.53 254.9,-359.91 256.82,-366.64"/>
</a>
</g>
</g>
<!-- Node30 -->
<g id="Node000030" class="node">
<title>Node30</title>
<g id="a_Node000030"><a xlink:href="classcam_1_1nc_1_1nc_1_1Creator.html#a80f2134add83bfaaf2870d075d36ed8a" target="_top" xlink:title=" ">
<polygon fill="white" stroke="#666666" points="399,-312.5 267,-312.5 267,-293.5 399,-293.5 399,-312.5"/>
<text text-anchor="middle" x="333" y="-300.5" font-family="Helvetica,sans-Serif" font-size="10.00">cam.nc.nc.Creator.write</text>
</a>
</g>
</g>
<!-- Node1&#45;&gt;Node30 -->
<g id="edge41_Node000001_Node000030" class="edge">
<title>Node1&#45;&gt;Node30</title>
<g id="a_edge41_Node000001_Node000030"><a xlink:title=" ">
<path fill="none" stroke="#63b8ff" d="M98.59,-696.24C101.94,-649.67 122.39,-447.81 230,-340 240.97,-329.01 255.45,-321.26 270.05,-315.8"/>
<polygon fill="#63b8ff" stroke="#63b8ff" points="271.29,-319.08 279.62,-312.54 269.03,-312.45 271.29,-319.08"/>
</a>
</g>
</g>
<!-- Node31 -->
<g id="Node000031" class="node">
<title>Node31</title>
<g id="a_Node000031"><a xlink:href="classcam_1_1nc_1_1nclathe__read_1_1Parser.html#ab5ea283b461b57e48c8d5b0ad0a45694" target="_top" xlink:title=" ">
<polygon fill="white" stroke="#666666" points="422,-257.5 244,-257.5 244,-238.5 422,-238.5 422,-257.5"/>
<text text-anchor="middle" x="333" y="-245.5" font-family="Helvetica,sans-Serif" font-size="10.00">cam.nc.nclathe_read.Parser.write</text>
</a>
</g>
</g>
<!-- Node1&#45;&gt;Node31 -->
<g id="edge43_Node000001_Node000031" class="edge">
<title>Node1&#45;&gt;Node31</title>
<g id="a_edge43_Node000001_Node000031"><a xlink:title=" ">
<path fill="none" stroke="#63b8ff" d="M98.06,-696.19C98.93,-645.51 109.53,-410.91 230,-285 240.42,-274.11 254.3,-266.41 268.45,-260.97"/>
<polygon fill="#63b8ff" stroke="#63b8ff" points="269.96,-264.15 278.25,-257.56 267.65,-257.54 269.96,-264.15"/>
</a>
</g>
</g>
<!-- Node32 -->
<g id="Node000032" class="node">
<title>Node32</title>
<g id="a_Node000032"><a xlink:href="classcam_1_1nc_1_1recreator_1_1Redirector.html#a79cc974683588db3ef959189e7552c0d" target="_top" xlink:title="Programs.">
<polygon fill="white" stroke="#666666" points="422.5,-202.5 243.5,-202.5 243.5,-183.5 422.5,-183.5 422.5,-202.5"/>
<text text-anchor="middle" x="333" y="-190.5" font-family="Helvetica,sans-Serif" font-size="10.00">cam.nc.recreator.Redirector.write</text>
</a>
</g>
</g>
<!-- Node1&#45;&gt;Node32 -->
<g id="edge45_Node000001_Node000032" class="edge">
<title>Node1&#45;&gt;Node32</title>
<g id="a_edge45_Node000001_Node000032"><a xlink:title=" ">
<path fill="none" stroke="#63b8ff" d="M97.65,-696.4C96.24,-642.46 96.33,-374.45 230,-230 240.08,-219.1 253.63,-211.41 267.54,-205.98"/>
<polygon fill="#63b8ff" stroke="#63b8ff" points="268.93,-209.2 277.2,-202.57 266.6,-202.6 268.93,-209.2"/>
</a>
</g>
</g>
<!-- Node33 -->
<g id="Node000033" class="node">
<title>Node33</title>
<g id="a_Node000033"><a xlink:href="classcam_1_1nc_1_1format_1_1Address.html#aa21f0ffeb829537d9103759276c01a4b" target="_top" xlink:title=" ">
<polygon fill="white" stroke="#666666" points="412,-165.5 254,-165.5 254,-146.5 412,-146.5 412,-165.5"/>
<text text-anchor="middle" x="333" y="-153.5" font-family="Helvetica,sans-Serif" font-size="10.00">cam.nc.format.Address.write</text>
</a>
</g>
</g>
<!-- Node1&#45;&gt;Node33 -->
<g id="edge47_Node000001_Node000033" class="edge">
<title>Node1&#45;&gt;Node33</title>
<g id="a_edge47_Node000001_Node000033"><a xlink:title=" ">
<path fill="none" stroke="#63b8ff" d="M99,-696.15C105.91,-629.92 148.79,-249.82 230,-174 234.38,-169.91 239.34,-166.58 244.67,-163.88"/>
<polygon fill="#63b8ff" stroke="#63b8ff" points="246.12,-167.07 253.94,-159.92 243.37,-160.64 246.12,-167.07"/>
</a>
</g>
</g>
<!-- Node44 -->
<g id="Node000044" class="node">
<title>Node44</title>
<g id="a_Node000044"><a xlink:href="classcam_1_1nc_1_1format_1_1AddressPlusMinus.html#aaacea4c7b677f0a602dbc9023ff365d2" target="_top" xlink:title=" ">
<polygon fill="white" stroke="#666666" points="408,-128 258,-128 258,-98 408,-98 408,-128"/>
<text text-anchor="start" x="266" y="-116" font-family="Helvetica,sans-Serif" font-size="10.00">cam.nc.format.AddressPlus</text>
<text text-anchor="middle" x="333" y="-105" font-family="Helvetica,sans-Serif" font-size="10.00">Minus.write</text>
</a>
</g>
</g>
<!-- Node1&#45;&gt;Node44 -->
<g id="edge60_Node000001_Node000044" class="edge">
<title>Node1&#45;&gt;Node44</title>
<g id="a_edge60_Node000001_Node000044"><a xlink:title=" ">
<path fill="none" stroke="#63b8ff" d="M98.86,-696.42C105.14,-628.58 146.06,-221.21 230,-137 235.34,-131.64 241.64,-127.39 248.44,-124.03"/>
<polygon fill="#63b8ff" stroke="#63b8ff" points="250.16,-127.1 257.99,-119.97 247.42,-120.66 250.16,-127.1"/>
</a>
</g>
</g>
<!-- Node2&#45;&gt;Node3 -->
<g id="edge2_Node000002_Node000003" class="edge">
<title>Node2&#45;&gt;Node3</title>
<g id="a_edge2_Node000002_Node000003"><a xlink:title=" ">
<path fill="none" stroke="#63b8ff" d="M338.72,-999.67C353.67,-1029.18 403.09,-1118.67 472,-1161 474.66,-1162.64 477.45,-1164.12 480.33,-1165.48"/>
<polygon fill="#63b8ff" stroke="#63b8ff" points="479.19,-1168.79 489.76,-1169.36 481.85,-1162.32 479.19,-1168.79"/>
</a>
</g>
</g>
<!-- Node2&#45;&gt;Node4 -->
<g id="edge3_Node000002_Node000004" class="edge">
<title>Node2&#45;&gt;Node4</title>
<g id="a_edge3_Node000002_Node000004"><a xlink:title=" ">
<path fill="none" stroke="#63b8ff" d="M340.83,-999.52C359.07,-1024.18 411.65,-1090.5 472,-1123 476.24,-1125.29 480.75,-1127.3 485.39,-1129.07"/>
<polygon fill="#63b8ff" stroke="#63b8ff" points="484.45,-1132.45 495.05,-1132.37 486.72,-1125.82 484.45,-1132.45"/>
</a>
</g>
</g>
<!-- Node2&#45;&gt;Node5 -->
<g id="edge4_Node000002_Node000005" class="edge">
<title>Node2&#45;&gt;Node5</title>
<g id="a_edge4_Node000002_Node000005"><a xlink:title=" ">
<path fill="none" stroke="#63b8ff" d="M347.03,-999.74C370.75,-1017.08 423.06,-1053.47 472,-1075 476.59,-1077.02 481.4,-1078.92 486.3,-1080.69"/>
<polygon fill="#63b8ff" stroke="#63b8ff" points="485.18,-1084.01 495.77,-1083.95 487.45,-1077.39 485.18,-1084.01"/>
</a>
</g>
</g>
<!-- Node2&#45;&gt;Node6 -->
<g id="edge5_Node000002_Node000006" class="edge">
<title>Node2&#45;&gt;Node6</title>
<g id="a_edge5_Node000002_Node000006"><a xlink:title=" ">
<path fill="none" stroke="#63b8ff" d="M359.43,-999.58C386.93,-1009.72 432.17,-1025.77 472,-1037 480.93,-1039.52 490.46,-1041.92 499.79,-1044.13"/>
<polygon fill="#63b8ff" stroke="#63b8ff" points="499.26,-1047.6 509.79,-1046.43 500.83,-1040.78 499.26,-1047.6"/>
</a>
</g>
</g>
<!-- Node2&#45;&gt;Node7 -->
<g id="edge6_Node000002_Node000007" class="edge">
<title>Node2&#45;&gt;Node7</title>
<g id="a_edge6_Node000002_Node000007"><a xlink:title=" ">
<path fill="none" stroke="#63b8ff" d="M426.11,-999.52C441.89,-1001.15 458.21,-1002.84 473.74,-1004.45"/>
<polygon fill="#63b8ff" stroke="#63b8ff" points="473.51,-1007.94 483.82,-1005.49 474.23,-1000.98 473.51,-1007.94"/>
</a>
</g>
</g>
<!-- Node2&#45;&gt;Node8 -->
<g id="edge7_Node000002_Node000008" class="edge">
<title>Node2&#45;&gt;Node8</title>
<g id="a_edge7_Node000002_Node000008"><a xlink:title=" ">
<path fill="none" stroke="#63b8ff" d="M436.13,-980.82C449.65,-979.6 463.36,-978.37 476.43,-977.2"/>
<polygon fill="#63b8ff" stroke="#63b8ff" points="477.13,-980.65 486.77,-976.27 476.5,-973.68 477.13,-980.65"/>
</a>
</g>
</g>
<!-- Node2&#45;&gt;Node16 -->
<g id="edge15_Node000002_Node000016" class="edge">
<title>Node2&#45;&gt;Node16</title>
<g id="a_edge15_Node000002_Node000016"><a xlink:title=" ">
<path fill="none" stroke="#63b8ff" d="M367.79,-980.43C401.04,-971.02 452.6,-956.42 493.43,-944.86"/>
<polygon fill="#63b8ff" stroke="#63b8ff" points="494.63,-948.16 503.29,-942.07 492.72,-941.42 494.63,-948.16"/>
</a>
</g>
</g>
<!-- Node2&#45;&gt;Node17 -->
<g id="edge16_Node000002_Node000017" class="edge">
<title>Node2&#45;&gt;Node17</title>
<g id="a_edge16_Node000002_Node000017"><a xlink:title=" ">
<path fill="none" stroke="#63b8ff" d="M346.14,-980.3C369.25,-962.32 421.74,-923.77 472,-903 478.16,-900.45 484.73,-898.22 491.36,-896.27"/>
<polygon fill="#63b8ff" stroke="#63b8ff" points="492.39,-899.61 501.11,-893.6 490.54,-892.86 492.39,-899.61"/>
</a>
</g>
</g>
<!-- Node2&#45;&gt;Node18 -->
<g id="edge17_Node000002_Node000018" class="edge">
<title>Node2&#45;&gt;Node18</title>
<g id="a_edge17_Node000002_Node000018"><a xlink:title=" ">
<path fill="none" stroke="#63b8ff" d="M341.96,-980.36C361.6,-957.18 414.93,-897.91 472,-866 475.94,-863.8 480.09,-861.77 484.35,-859.91"/>
<polygon fill="#63b8ff" stroke="#63b8ff" points="485.86,-863.08 493.83,-856.09 483.24,-856.58 485.86,-863.08"/>
</a>
</g>
</g>
<!-- Node2&#45;&gt;Node19 -->
<g id="edge18_Node000002_Node000019" class="edge">
<title>Node2&#45;&gt;Node19</title>
<g id="a_edge18_Node000002_Node000019"><a xlink:title=" ">
<path fill="none" stroke="#63b8ff" d="M338.71,-980.26C353.63,-950.5 402.96,-860.22 472,-817 475.42,-814.86 479.04,-812.96 482.8,-811.28"/>
<polygon fill="#63b8ff" stroke="#63b8ff" points="484.33,-814.43 492.35,-807.51 481.76,-807.92 484.33,-814.43"/>
</a>
</g>
</g>
<!-- Node9 -->
<g id="Node000009" class="node">
<title>Node9</title>
<g id="a_Node000009"><a xlink:href="classcam_1_1nc_1_1anilam__crusader__m_1_1Creator.html#a36f873a0248bcaa4cf2cfb220dc1b00c" target="_top" xlink:title="Codes.">
<polygon fill="white" stroke="#666666" points="839,-985 703,-985 703,-955 839,-955 839,-985"/>
<text text-anchor="start" x="711" y="-973" font-family="Helvetica,sans-Serif" font-size="10.00">cam.nc.anilam_crusader</text>
<text text-anchor="middle" x="771" y="-962" font-family="Helvetica,sans-Serif" font-size="10.00">_m.Creator.SPACE_STR</text>
</a>
</g>
</g>
<!-- Node8&#45;&gt;Node9 -->
<g id="edge8_Node000008_Node000009" class="edge">
<title>Node8&#45;&gt;Node9</title>
<g id="a_edge8_Node000008_Node000009"><a xlink:title=" ">
<path fill="none" stroke="#63b8ff" d="M628.05,-970C648.74,-970 671.54,-970 692.69,-970"/>
<polygon fill="#63b8ff" stroke="#63b8ff" points="692.93,-973.5 702.93,-970 692.93,-966.5 692.93,-973.5"/>
</a>
</g>
</g>
<!-- Node10 -->
<g id="Node000010" class="node">
<title>Node10</title>
<g id="a_Node000010"><a xlink:href="classcam_1_1nc_1_1fadal_1_1Creator.html#a97a50724edf2662eb4fe76b15516b638" target="_top" xlink:title="Codes.">
<polygon fill="white" stroke="#666666" points="859,-936.5 683,-936.5 683,-917.5 859,-917.5 859,-936.5"/>
<text text-anchor="middle" x="771" y="-924.5" font-family="Helvetica,sans-Serif" font-size="10.00">cam.nc.fadal.Creator.SPACE_STR</text>
</a>
</g>
</g>
<!-- Node8&#45;&gt;Node10 -->
<g id="edge9_Node000008_Node000010" class="edge">
<title>Node8&#45;&gt;Node10</title>
<g id="a_edge9_Node000008_Node000010"><a xlink:title=" ">
<path fill="none" stroke="#63b8ff" d="M605.44,-960.46C637.2,-954 679.34,-945.43 713.03,-938.58"/>
<polygon fill="#63b8ff" stroke="#63b8ff" points="714.09,-941.94 723.19,-936.52 712.7,-935.08 714.09,-941.94"/>
</a>
</g>
</g>
<!-- Node11 -->
<g id="Node000011" class="node">
<title>Node11</title>
<g id="a_Node000011"><a xlink:href="classcam_1_1nc_1_1gravos_1_1Creator.html#ac0bc0d26e8a92a65c0f33d696ad850f5" target="_top" xlink:title="Codes.">
<polygon fill="white" stroke="#666666" points="863,-899.5 679,-899.5 679,-880.5 863,-880.5 863,-899.5"/>
<text text-anchor="middle" x="771" y="-887.5" font-family="Helvetica,sans-Serif" font-size="10.00">cam.nc.gravos.Creator.SPACE_STR</text>
</a>
</g>
</g>
<!-- Node8&#45;&gt;Node11 -->
<g id="edge10_Node000008_Node000011" class="edge">
<title>Node8&#45;&gt;Node11</title>
<g id="a_edge10_Node000008_Node000011"><a xlink:title=" ">
<path fill="none" stroke="#63b8ff" d="M622.07,-960.42C629.41,-957.96 636.56,-954.88 643,-951 664.07,-938.32 657.84,-921.51 679,-909 682.67,-906.83 686.56,-904.9 690.57,-903.19"/>
<polygon fill="#63b8ff" stroke="#63b8ff" points="692.01,-906.39 700.13,-899.59 689.54,-899.84 692.01,-906.39"/>
</a>
</g>
</g>
<!-- Node12 -->
<g id="Node000012" class="node">
<title>Node12</title>
<g id="a_Node000012"><a xlink:href="classcam_1_1nc_1_1iso_1_1Creator.html#aa481cf1e394988751640fd5ce5af991e" target="_top" xlink:title="Codes.">
<polygon fill="white" stroke="#666666" points="853.5,-862.5 688.5,-862.5 688.5,-843.5 853.5,-843.5 853.5,-862.5"/>
<text text-anchor="middle" x="771" y="-850.5" font-family="Helvetica,sans-Serif" font-size="10.00">cam.nc.iso.Creator.SPACE_STR</text>
</a>
</g>
</g>
<!-- Node8&#45;&gt;Node12 -->
<g id="edge11_Node000008_Node000012" class="edge">
<title>Node8&#45;&gt;Node12</title>
<g id="a_edge11_Node000008_Node000012"><a xlink:title=" ">
<path fill="none" stroke="#63b8ff" d="M627.49,-960.35C633.06,-957.86 638.33,-954.79 643,-951 672.95,-926.67 648.87,-896.1 679,-872 681.1,-870.32 683.3,-868.79 685.6,-867.37"/>
<polygon fill="#63b8ff" stroke="#63b8ff" points="687.6,-870.28 694.84,-862.54 684.36,-864.07 687.6,-870.28"/>
</a>
</g>
</g>
<!-- Node13 -->
<g id="Node000013" class="node">
<title>Node13</title>
<g id="a_Node000013"><a xlink:href="classcam_1_1nc_1_1lynx__otter__o_1_1Creator.html#a73b176561e066abcdb256a1bf53a5fcc" target="_top" xlink:title="Codes.">
<polygon fill="white" stroke="#666666" points="849.5,-1108 692.5,-1108 692.5,-1078 849.5,-1078 849.5,-1108"/>
<text text-anchor="start" x="700.5" y="-1096" font-family="Helvetica,sans-Serif" font-size="10.00">cam.nc.lynx_otter_o.Creator.</text>
<text text-anchor="middle" x="771" y="-1085" font-family="Helvetica,sans-Serif" font-size="10.00">SPACE_STR</text>
</a>
</g>
</g>
<!-- Node8&#45;&gt;Node13 -->
<g id="edge12_Node000008_Node000013" class="edge">
<title>Node8&#45;&gt;Node13</title>
<g id="a_edge12_Node000008_Node000013"><a xlink:title=" ">
<path fill="none" stroke="#63b8ff" d="M627.5,-979.63C633.07,-982.12 638.34,-985.2 643,-989 673.21,-1013.65 649.25,-1043.8 679,-1069 680.37,-1070.16 681.79,-1071.27 683.26,-1072.32"/>
<polygon fill="#63b8ff" stroke="#63b8ff" points="681.73,-1075.49 692.07,-1077.79 685.42,-1069.55 681.73,-1075.49"/>
</a>
</g>
</g>
<!-- Node14 -->
<g id="Node000014" class="node">
<title>Node14</title>
<g id="a_Node000014"><a xlink:href="classcam_1_1nc_1_1mach3_1_1Creator.html#aa461d578afa76c5af9bb5562b79d955a" target="_top" xlink:title="Codes.">
<polygon fill="white" stroke="#666666" points="863,-1059.5 679,-1059.5 679,-1040.5 863,-1040.5 863,-1059.5"/>
<text text-anchor="middle" x="771" y="-1047.5" font-family="Helvetica,sans-Serif" font-size="10.00">cam.nc.mach3.Creator.SPACE_STR</text>
</a>
</g>
</g>
<!-- Node8&#45;&gt;Node14 -->
<g id="edge13_Node000008_Node000014" class="edge">
<title>Node8&#45;&gt;Node14</title>
<g id="a_edge13_Node000008_Node000014"><a xlink:title=" ">
<path fill="none" stroke="#63b8ff" d="M622.12,-979.51C629.45,-981.98 636.58,-985.09 643,-989 664.28,-1001.97 657.55,-1019.3 679,-1032 681.84,-1033.68 684.81,-1035.21 687.87,-1036.6"/>
<polygon fill="#63b8ff" stroke="#63b8ff" points="686.69,-1039.9 697.28,-1040.35 689.29,-1033.4 686.69,-1039.9"/>
</a>
</g>
</g>
<!-- Node15 -->
<g id="Node000015" class="node">
<title>Node15</title>
<g id="a_Node000015"><a xlink:href="classcam_1_1nc_1_1winpc_1_1Creator.html#aae1cb93a5dd430719105fa03a054f654" target="_top" xlink:title="Codes.">
<polygon fill="white" stroke="#666666" points="860.5,-1022.5 681.5,-1022.5 681.5,-1003.5 860.5,-1003.5 860.5,-1022.5"/>
<text text-anchor="middle" x="771" y="-1010.5" font-family="Helvetica,sans-Serif" font-size="10.00">cam.nc.winpc.Creator.SPACE_STR</text>
</a>
</g>
</g>
<!-- Node8&#45;&gt;Node15 -->
<g id="edge14_Node000008_Node000015" class="edge">
<title>Node8&#45;&gt;Node15</title>
<g id="a_edge14_Node000008_Node000015"><a xlink:title=" ">
<path fill="none" stroke="#63b8ff" d="M605.44,-979.54C637.2,-986 679.34,-994.57 713.03,-1001.42"/>
<polygon fill="#63b8ff" stroke="#63b8ff" points="712.7,-1004.92 723.19,-1003.48 714.09,-998.06 712.7,-1004.92"/>
</a>
</g>
</g>
<!-- Node27&#45;&gt;Node27 -->
<g id="edge37_Node000027_Node000027" class="edge">
<title>Node27&#45;&gt;Node27</title>
<g id="a_edge37_Node000027_Node000027"><a xlink:title=" ">
<path fill="none" stroke="#63b8ff" d="M298.48,-459.58C281.68,-468.23 293.19,-477.5 333,-477.5 362.24,-477.5 376.21,-472.5 374.92,-466.42"/>
<polygon fill="#63b8ff" stroke="#63b8ff" points="377.24,-463.8 367.52,-459.58 372.49,-468.94 377.24,-463.8"/>
</a>
</g>
</g>
<!-- Node28&#45;&gt;Node28 -->
<g id="edge39_Node000028_Node000028" class="edge">
<title>Node28&#45;&gt;Node28</title>
<g id="a_edge39_Node000028_Node000028"><a xlink:title=" ">
<path fill="none" stroke="#63b8ff" d="M298.48,-404.58C281.68,-413.23 293.19,-422.5 333,-422.5 362.24,-422.5 376.21,-417.5 374.92,-411.42"/>
<polygon fill="#63b8ff" stroke="#63b8ff" points="377.24,-408.8 367.52,-404.58 372.49,-413.94 377.24,-408.8"/>
</a>
</g>
</g>
<!-- Node30&#45;&gt;Node30 -->
<g id="edge42_Node000030_Node000030" class="edge">
<title>Node30&#45;&gt;Node30</title>
<g id="a_edge42_Node000030_Node000030"><a xlink:title=" ">
<path fill="none" stroke="#63b8ff" d="M298.48,-312.58C281.68,-321.23 293.19,-330.5 333,-330.5 362.24,-330.5 376.21,-325.5 374.92,-319.42"/>
<polygon fill="#63b8ff" stroke="#63b8ff" points="377.24,-316.8 367.52,-312.58 372.49,-321.94 377.24,-316.8"/>
</a>
</g>
</g>
<!-- Node31&#45;&gt;Node31 -->
<g id="edge44_Node000031_Node000031" class="edge">
<title>Node31&#45;&gt;Node31</title>
<g id="a_edge44_Node000031_Node000031"><a xlink:title=" ">
<path fill="none" stroke="#63b8ff" d="M298.48,-257.58C281.68,-266.23 293.19,-275.5 333,-275.5 362.24,-275.5 376.21,-270.5 374.92,-264.42"/>
<polygon fill="#63b8ff" stroke="#63b8ff" points="377.24,-261.8 367.52,-257.58 372.49,-266.94 377.24,-261.8"/>
</a>
</g>
</g>
<!-- Node32&#45;&gt;Node32 -->
<g id="edge46_Node000032_Node000032" class="edge">
<title>Node32&#45;&gt;Node32</title>
<g id="a_edge46_Node000032_Node000032"><a xlink:title=" ">
<path fill="none" stroke="#63b8ff" d="M298.48,-202.58C281.68,-211.23 293.19,-220.5 333,-220.5 362.24,-220.5 376.21,-215.5 374.92,-209.42"/>
<polygon fill="#63b8ff" stroke="#63b8ff" points="377.24,-206.8 367.52,-202.58 372.49,-211.94 377.24,-206.8"/>
</a>
</g>
</g>
<!-- Node34 -->
<g id="Node000034" class="node">
<title>Node34</title>
<g id="a_Node000034"><a xlink:href="classcam_1_1async__op_1_1AsyncOperatorMixin.html#a9628cbca8e69ec75b2337171a02bf428" target="_top" xlink:title=" ">
<polygon fill="white" stroke="#666666" points="638,-150 477,-150 477,-120 638,-120 638,-150"/>
<text text-anchor="start" x="485" y="-138" font-family="Helvetica,sans-Serif" font-size="10.00">cam.async_op.AsyncOperator</text>
<text text-anchor="middle" x="557.5" y="-127" font-family="Helvetica,sans-Serif" font-size="10.00">Mixin.modal</text>
</a>
</g>
</g>
<!-- Node33&#45;&gt;Node34 -->
<g id="edge48_Node000033_Node000034" class="edge">
<title>Node33&#45;&gt;Node34</title>
<g id="a_edge48_Node000033_Node000034"><a xlink:title=" ">
<path fill="none" stroke="#63b8ff" d="M412.13,-148.63C429.69,-146.97 448.47,-145.2 466.47,-143.5"/>
<polygon fill="#63b8ff" stroke="#63b8ff" points="467.05,-146.96 476.67,-142.53 466.39,-139.99 467.05,-146.96"/>
</a>
</g>
</g>
<!-- Node35 -->
<g id="Node000035" class="node">
<title>Node35</title>
<g id="a_Node000035"><a xlink:href="classcam_1_1async__op_1_1AsyncOperatorMixin.html#a15a51cfd69d8e453e2e3d64386b1ebe3" target="_top" xlink:title=" ">
<polygon fill="white" stroke="#666666" points="851.5,-150 690.5,-150 690.5,-120 851.5,-120 851.5,-150"/>
<text text-anchor="start" x="698.5" y="-138" font-family="Helvetica,sans-Serif" font-size="10.00">cam.async_op.AsyncOperator</text>
<text text-anchor="middle" x="771" y="-127" font-family="Helvetica,sans-Serif" font-size="10.00">Mixin.tick</text>
</a>
</g>
</g>
<!-- Node34&#45;&gt;Node35 -->
<g id="edge49_Node000034_Node000035" class="edge">
<title>Node34&#45;&gt;Node35</title>
<g id="a_edge49_Node000034_Node000035"><a xlink:title=" ">
<path fill="none" stroke="#63b8ff" d="M638.16,-135C651.91,-135 666.3,-135 680.3,-135"/>
<polygon fill="#63b8ff" stroke="#63b8ff" points="680.41,-138.5 690.41,-135 680.41,-131.5 680.41,-138.5"/>
</a>
</g>
</g>
<!-- Node36 -->
<g id="Node000036" class="node">
<title>Node36</title>
<g id="a_Node000036"><a xlink:href="classcam_1_1async__op_1_1AsyncTestOperator.html#a42606ca890a957aa7070a4bc6f25228b" target="_top" xlink:title=" ">
<polygon fill="white" stroke="#666666" points="1120,-270 899,-270 899,-240 1120,-240 1120,-270"/>
<text text-anchor="start" x="907" y="-258" font-family="Helvetica,sans-Serif" font-size="10.00">cam.async_op.AsyncTestOperator.execute</text>
<text text-anchor="middle" x="1009.5" y="-247" font-family="Helvetica,sans-Serif" font-size="10.00">_async</text>
</a>
</g>
</g>
<!-- Node35&#45;&gt;Node36 -->
<g id="edge50_Node000035_Node000036" class="edge">
<title>Node35&#45;&gt;Node36</title>
<g id="a_edge50_Node000035_Node000036"><a xlink:title=" ">
<path fill="none" stroke="#63b8ff" d="M787.36,-150.21C809.88,-171.62 854.06,-210.31 899,-231 903.58,-233.11 908.35,-235.04 913.23,-236.8"/>
<polygon fill="#63b8ff" stroke="#63b8ff" points="912.13,-240.12 922.73,-239.98 914.36,-233.48 912.13,-240.12"/>
</a>
</g>
</g>
<!-- Node37 -->
<g id="Node000037" class="node">
<title>Node37</title>
<g id="a_Node000037"><a xlink:href="classcam_1_1ops_1_1CalculatePath.html#a13dfe2f8578383234e74e58e2f292e1b" target="_top" xlink:title=" ">
<polygon fill="white" stroke="#666666" points="1094,-222 925,-222 925,-192 1094,-192 1094,-222"/>
<text text-anchor="start" x="933" y="-210" font-family="Helvetica,sans-Serif" font-size="10.00">cam.ops.CalculatePath.execute</text>
<text text-anchor="middle" x="1009.5" y="-199" font-family="Helvetica,sans-Serif" font-size="10.00">_async</text>
</a>
</g>
</g>
<!-- Node35&#45;&gt;Node37 -->
<g id="edge51_Node000035_Node000037" class="edge">
<title>Node35&#45;&gt;Node37</title>
<g id="a_edge51_Node000035_Node000037"><a xlink:title=" ">
<path fill="none" stroke="#63b8ff" d="M807.65,-150.07C832.85,-160.33 867.59,-173.68 899,-183 906.76,-185.3 914.89,-187.49 923.06,-189.54"/>
<polygon fill="#63b8ff" stroke="#63b8ff" points="922.48,-193 933.03,-191.97 924.14,-186.2 922.48,-193"/>
</a>
</g>
</g>
<!-- Node39 -->
<g id="Node000039" class="node">
<title>Node39</title>
<g id="a_Node000039"><a xlink:href="classcam_1_1ops_1_1PathsChain.html#a6fc64e383ccf724b2325e18a82d53eae" target="_top" xlink:title=" ">
<polygon fill="white" stroke="#666666" points="1087.5,-174 931.5,-174 931.5,-144 1087.5,-144 1087.5,-174"/>
<text text-anchor="start" x="939.5" y="-162" font-family="Helvetica,sans-Serif" font-size="10.00">cam.ops.PathsChain.execute</text>
<text text-anchor="middle" x="1009.5" y="-151" font-family="Helvetica,sans-Serif" font-size="10.00">_async</text>
</a>
</g>
</g>
<!-- Node35&#45;&gt;Node39 -->
<g id="edge53_Node000035_Node000039" class="edge">
<title>Node35&#45;&gt;Node39</title>
<g id="a_edge53_Node000035_Node000039"><a xlink:title=" ">
<path fill="none" stroke="#63b8ff" d="M851.74,-143.09C874.05,-145.36 898.41,-147.83 921.14,-150.13"/>
<polygon fill="#63b8ff" stroke="#63b8ff" points="920.81,-153.62 931.11,-151.15 921.52,-146.65 920.81,-153.62"/>
</a>
</g>
</g>
<!-- Node41 -->
<g id="Node000041" class="node">
<title>Node41</title>
<g id="a_Node000041"><a xlink:href="classcam_1_1ops_1_1CAMSimulate.html#a633151f17849d281fd52ce82c00356a7" target="_top" xlink:title=" ">
<polygon fill="white" stroke="#666666" points="1093.5,-78 925.5,-78 925.5,-48 1093.5,-48 1093.5,-78"/>
<text text-anchor="start" x="933.5" y="-66" font-family="Helvetica,sans-Serif" font-size="10.00">cam.ops.CAMSimulate.execute</text>
<text text-anchor="middle" x="1009.5" y="-55" font-family="Helvetica,sans-Serif" font-size="10.00">_async</text>
</a>
</g>
</g>
<!-- Node35&#45;&gt;Node41 -->
<g id="edge56_Node000035_Node000041" class="edge">
<title>Node35&#45;&gt;Node41</title>
<g id="a_edge56_Node000035_Node000041"><a xlink:title=" ">
<path fill="none" stroke="#63b8ff" d="M807.65,-119.93C832.85,-109.67 867.59,-96.32 899,-87 906.76,-84.7 914.89,-82.51 923.06,-80.46"/>
<polygon fill="#63b8ff" stroke="#63b8ff" points="924.14,-83.8 933.03,-78.03 922.48,-77 924.14,-83.8"/>
</a>
</g>
</g>
<!-- Node42 -->
<g id="Node000042" class="node">
<title>Node42</title>
<g id="a_Node000042"><a xlink:href="classcam_1_1ops_1_1CAMSimulateChain.html#a1e77c7ce21b3b7e3e38a12b6b62517e9" target="_top" xlink:title=" ">
<polygon fill="white" stroke="#666666" points="1107.5,-126 911.5,-126 911.5,-96 1107.5,-96 1107.5,-126"/>
<text text-anchor="start" x="919.5" y="-114" font-family="Helvetica,sans-Serif" font-size="10.00">cam.ops.CAMSimulateChain.execute</text>
<text text-anchor="middle" x="1009.5" y="-103" font-family="Helvetica,sans-Serif" font-size="10.00">_async</text>
</a>
</g>
</g>
<!-- Node35&#45;&gt;Node42 -->
<g id="edge57_Node000035_Node000042" class="edge">
<title>Node35&#45;&gt;Node42</title>
<g id="a_edge57_Node000035_Node000042"><a xlink:title=" ">
<path fill="none" stroke="#63b8ff" d="M851.74,-126.91C867.62,-125.3 884.54,-123.58 901.17,-121.89"/>
<polygon fill="#63b8ff" stroke="#63b8ff" points="901.88,-125.34 911.47,-120.85 901.17,-118.37 901.88,-125.34"/>
</a>
</g>
</g>
<!-- Node43 -->
<g id="Node000043" class="node">
<title>Node43</title>
<g id="a_Node000043"><a xlink:href="classcam_1_1async__op_1_1AsyncOperatorMixin.html#a2216ff6bb0dfd132f4ec4cf79b7cba2b" target="_top" xlink:title=" ">
<polygon fill="white" stroke="#666666" points="1090,-30 929,-30 929,0 1090,0 1090,-30"/>
<text text-anchor="start" x="937" y="-18" font-family="Helvetica,sans-Serif" font-size="10.00">cam.async_op.AsyncOperator</text>
<text text-anchor="middle" x="1009.5" y="-7" font-family="Helvetica,sans-Serif" font-size="10.00">Mixin.show_progress</text>
</a>
</g>
</g>
<!-- Node35&#45;&gt;Node43 -->
<g id="edge59_Node000035_Node000043" class="edge">
<title>Node35&#45;&gt;Node43</title>
<g id="a_edge59_Node000035_Node000043"><a xlink:title=" ">
<path fill="none" stroke="#63b8ff" d="M787.36,-119.79C809.88,-98.38 854.06,-59.69 899,-39 905.44,-36.03 912.27,-33.43 919.24,-31.13"/>
<polygon fill="#63b8ff" stroke="#63b8ff" points="920.27,-34.48 928.81,-28.2 918.22,-27.78 920.27,-34.48"/>
</a>
</g>
</g>
<!-- Node38 -->
<g id="Node000038" class="node">
<title>Node38</title>
<g id="a_Node000038"><a xlink:href="namespacecam_1_1ops.html#aa8e95f7410a7ceb178db48f4f8c2d995" target="_top" xlink:title=" ">
<polygon fill="white" stroke="#666666" points="1291.5,-189.5 1178.5,-189.5 1178.5,-170.5 1291.5,-170.5 1291.5,-189.5"/>
<text text-anchor="middle" x="1235" y="-177.5" font-family="Helvetica,sans-Serif" font-size="10.00">cam.ops._calc_path</text>
</a>
</g>
</g>
<!-- Node37&#45;&gt;Node38 -->
<g id="edge52_Node000037_Node000038" class="edge">
<title>Node37&#45;&gt;Node38</title>
<g id="a_edge52_Node000037_Node000038"><a xlink:title=" ">
<path fill="none" stroke="#63b8ff" d="M1094.04,-196.91C1118.56,-193.95 1145.01,-190.75 1168.25,-187.94"/>
<polygon fill="#63b8ff" stroke="#63b8ff" points="1168.83,-191.4 1178.34,-186.72 1168,-184.45 1168.83,-191.4"/>
</a>
</g>
</g>
<!-- Node39&#45;&gt;Node38 -->
<g id="edge54_Node000039_Node000038" class="edge">
<title>Node39&#45;&gt;Node38</title>
<g id="a_edge54_Node000039_Node000038"><a xlink:title=" ">
<path fill="none" stroke="#63b8ff" d="M1087.73,-166.26C1113.9,-168.72 1142.87,-171.44 1168.08,-173.81"/>
<polygon fill="#63b8ff" stroke="#63b8ff" points="1167.99,-177.31 1178.27,-174.76 1168.64,-170.34 1167.99,-177.31"/>
</a>
</g>
</g>
<!-- Node40 -->
<g id="Node000040" class="node">
<title>Node40</title>
<g id="a_Node000040"><a xlink:href="namespacecam_1_1ops.html#ab55fb8ec9a00e021e8e4a1c3ecc97cb4" target="_top" xlink:title=" ">
<polygon fill="white" stroke="#666666" points="1314,-147.5 1156,-147.5 1156,-128.5 1314,-128.5 1314,-147.5"/>
<text text-anchor="middle" x="1235" y="-135.5" font-family="Helvetica,sans-Serif" font-size="10.00">cam.ops.getChainOperations</text>
</a>
</g>
</g>
<!-- Node39&#45;&gt;Node40 -->
<g id="edge55_Node000039_Node000040" class="edge">
<title>Node39&#45;&gt;Node40</title>
<g id="a_edge55_Node000039_Node000040"><a xlink:title=" ">
<path fill="none" stroke="#63b8ff" d="M1087.73,-151.74C1106.34,-150 1126.37,-148.11 1145.45,-146.32"/>
<polygon fill="#63b8ff" stroke="#63b8ff" points="1146,-149.78 1155.63,-145.36 1145.35,-142.81 1146,-149.78"/>
</a>
</g>
</g>
<!-- Node42&#45;&gt;Node40 -->
<g id="edge58_Node000042_Node000040" class="edge">
<title>Node42&#45;&gt;Node40</title>
<g id="a_edge58_Node000042_Node000040"><a xlink:title=" ">
<path fill="none" stroke="#63b8ff" d="M1107.56,-122.72C1120.29,-124.26 1133.28,-125.83 1145.86,-127.35"/>
<polygon fill="#63b8ff" stroke="#63b8ff" points="1145.5,-130.83 1155.84,-128.56 1146.34,-123.88 1145.5,-130.83"/>
</a>
</g>
</g>
<!-- Node44&#45;&gt;Node34 -->
<g id="edge61_Node000044_Node000034" class="edge">
<title>Node44&#45;&gt;Node34</title>
<g id="a_edge61_Node000044_Node000034"><a xlink:title=" ">
<path fill="none" stroke="#63b8ff" d="M408.09,-120.33C426.82,-122.18 447.14,-124.19 466.56,-126.11"/>
<polygon fill="#63b8ff" stroke="#63b8ff" points="466.32,-129.6 476.62,-127.1 467.01,-122.63 466.32,-129.6"/>
</a>
</g>
</g>
</g>
</svg>
