<?xml version="1.0" encoding="UTF-8" standalone="no"?>
<!DOCTYPE svg PUBLIC "-//W3C//DTD SVG 1.1//EN"
 "http://www.w3.org/Graphics/SVG/1.1/DTD/svg11.dtd">
<!-- Generated by graphviz version 2.43.0 (0)
 -->
<!-- Title: cam.nc.emc2.Creator Pages: 1 -->
<!--zoomable 1133 -->

<svg id="main" version="1.1" xmlns="http://www.w3.org/2000/svg" xmlns:xlink="http://www.w3.org/1999/xlink" xml:space="preserve" onload="init(evt)">
<style type="text/css"><![CDATA[
.node, .edge {opacity: 0.7;}
.node.selected, .edge.selected {opacity: 1;}
.edge:hover path { stroke: red; }
.edge:hover polygon { stroke: red; fill: red; }
]]></style>

<defs>
  <circle id="rim" cx="0" cy="0" r="7"/>
  <circle id="rim2" cx="0" cy="0" r="3.5"/>
  <g id="zoomPlus">
    <use xlink:href="#rim" fill="#404040"><set attributeName="fill" to="#808080" begin="zoomplus.mouseover" end="zoomplus.mouseout"/></use>
    <path d="M-4,0h8M0,-4v8" fill="none" stroke="white" stroke-width="1.5" pointer-events="none"/>
  </g>
  <g id="zoomMin">
    <use xlink:href="#rim" fill="#404040"><set attributeName="fill" to="#808080" begin="zoomminus.mouseover" end="zoomminus.mouseout"/></use>
    <path d="M-4,0h8" fill="none" stroke="white" stroke-width="1.5" pointer-events="none"/>
  </g>
  <g id="arrowUp" transform="translate(30 24)">
    <use xlink:href="#rim"/>
    <path pointer-events="none" fill="none" stroke="white" stroke-width="1.5" d="M0,-3.0v7 M-2.5,-0.5L0,-3.0L2.5,-0.5"/>
  </g>
  <g id="arrowRight" transform="rotate(90) translate(36 -43)">
    <use xlink:href="#rim"/>
    <path pointer-events="none" fill="none" stroke="white" stroke-width="1.5" d="M0,-3.0v7 M-2.5,-0.5L0,-3.0L2.5,-0.5"/>
  </g>
  <g id="arrowDown" transform="rotate(180) translate(-30 -48)">
    <use xlink:href="#rim"/>
    <path pointer-events="none" fill="none" stroke="white" stroke-width="1.5" d="M0,-3.0v7 M-2.5,-0.5L0,-3.0L2.5,-0.5"/>
  </g>
  <g id="arrowLeft" transform="rotate(270) translate(-36 17)">
    <use xlink:href="#rim"/>
    <path pointer-events="none" fill="none" stroke="white" stroke-width="1.5" d="M0,-3.0v7 M-2.5,-0.5L0,-3.0L2.5,-0.5"/>
  </g>
  <g id="resetDef">
    <use xlink:href="#rim2" fill="#404040"><set attributeName="fill" to="#808080" begin="reset.mouseover" end="reset.mouseout"/></use>
  </g>
</defs>
<script type="application/ecmascript">
var viewWidth = 296;
var viewHeight = 1133;
var sectionId = 'dynsection-0';
</script>
<script type="application/ecmascript" xlink:href="svg.min.js"/>
<svg id="graph" class="graph">
<g id="viewport">
<title>cam.nc.emc2.Creator</title>
<!-- Node1 -->
<g id="Node000001" class="node">
<title>Node1</title>
<g id="a_Node000001"><a xlink:title=" ">
<polygon fill="#999999" stroke="transparent" points="233,-370 72,-370 72,-130 233,-130 233,-370"/>
<text text-anchor="start" x="100.5" y="-358" font-family="Helvetica,sans-Serif" font-size="10.00">cam.nc.emc2.Creator</text>
<text text-anchor="start" x="76.5" y="-343" font-family="Helvetica,sans-Serif" font-size="10.00">+</text>
<text text-anchor="start" x="89.5" y="-343" font-family="Helvetica,sans-Serif" font-size="10.00">t</text>
<text text-anchor="start" x="76.5" y="-328" font-family="Helvetica,sans-Serif" font-size="10.00">+</text>
<text text-anchor="start" x="89.5" y="-328" font-family="Helvetica,sans-Serif" font-size="10.00">g</text>
<text text-anchor="start" x="76.5" y="-313" font-family="Helvetica,sans-Serif" font-size="10.00">+</text>
<text text-anchor="start" x="89.5" y="-313" font-family="Helvetica,sans-Serif" font-size="10.00">creator</text>
<text text-anchor="start" x="76.5" y="-298" font-family="Helvetica,sans-Serif" font-size="10.00">+</text>
<text text-anchor="start" x="89.5" y="-298" font-family="Helvetica,sans-Serif" font-size="10.00">__init__()</text>
<text text-anchor="start" x="76.5" y="-283" font-family="Helvetica,sans-Serif" font-size="10.00">+</text>
<text text-anchor="start" x="89.5" y="-283" font-family="Helvetica,sans-Serif" font-size="10.00">SPACE()</text>
<text text-anchor="start" x="76.5" y="-268" font-family="Helvetica,sans-Serif" font-size="10.00">+</text>
<text text-anchor="start" x="89.5" y="-268" font-family="Helvetica,sans-Serif" font-size="10.00">TAP()</text>
<text text-anchor="start" x="76.5" y="-253" font-family="Helvetica,sans-Serif" font-size="10.00">+</text>
<text text-anchor="start" x="89.5" y="-253" font-family="Helvetica,sans-Serif" font-size="10.00">TAP_DEPTH()</text>
<text text-anchor="start" x="76.5" y="-238" font-family="Helvetica,sans-Serif" font-size="10.00">+</text>
<text text-anchor="start" x="89.5" y="-238" font-family="Helvetica,sans-Serif" font-size="10.00">BORE_FEED_OUT()</text>
<text text-anchor="start" x="76.5" y="-223" font-family="Helvetica,sans-Serif" font-size="10.00">+</text>
<text text-anchor="start" x="89.5" y="-223" font-family="Helvetica,sans-Serif" font-size="10.00">BORE_SPINDLE_STOP_RAPID</text>
<text text-anchor="start" x="89.5" y="-212" font-family="Helvetica,sans-Serif" font-size="10.00">_OUT()</text>
<text text-anchor="start" x="76.5" y="-197" font-family="Helvetica,sans-Serif" font-size="10.00">+</text>
<text text-anchor="start" x="89.5" y="-197" font-family="Helvetica,sans-Serif" font-size="10.00">BORE_DWELL_FEED_OUT()</text>
<text text-anchor="start" x="76.5" y="-182" font-family="Helvetica,sans-Serif" font-size="10.00">+</text>
<text text-anchor="start" x="89.5" y="-182" font-family="Helvetica,sans-Serif" font-size="10.00">program_begin()</text>
<text text-anchor="start" x="76.5" y="-167" font-family="Helvetica,sans-Serif" font-size="10.00">+</text>
<text text-anchor="start" x="89.5" y="-167" font-family="Helvetica,sans-Serif" font-size="10.00">imperial()</text>
<text text-anchor="start" x="76.5" y="-152" font-family="Helvetica,sans-Serif" font-size="10.00">+</text>
<text text-anchor="start" x="89.5" y="-152" font-family="Helvetica,sans-Serif" font-size="10.00">metric()</text>
<text text-anchor="start" x="89.5" y="-137" font-family="Helvetica,sans-Serif" font-size="10.00">and 13 more...</text>
<polygon fill="#666666" stroke="#666666" points="72.5,-353 72.5,-353 233.5,-353 233.5,-353 72.5,-353"/>
<polygon fill="#666666" stroke="#666666" points="72.5,-308 72.5,-308 87.5,-308 87.5,-308 72.5,-308"/>
<polygon fill="#666666" stroke="#666666" points="87.5,-308 87.5,-308 233.5,-308 233.5,-308 87.5,-308"/>
<polygon fill="none" stroke="#666666" points="72,-130 72,-370 233,-370 233,-130 72,-130"/>
</a>
</g>
</g>
<!-- Node4 -->
<g id="Node000004" class="node">
<title>Node4</title>
<g id="a_Node000004"><a xlink:href="classcam_1_1nc_1_1gantry__router_1_1Creator.html" target="_top" xlink:title=" ">
<polygon fill="white" stroke="transparent" points="153,-94 0,-94 0,0 153,0 153,-94"/>
<text text-anchor="start" x="5.5" y="-82" font-family="Helvetica,sans-Serif" font-size="10.00">cam.nc.gantry_router.Creator</text>
<text text-anchor="start" x="17" y="-67" font-family="Helvetica,sans-Serif" font-size="10.00">+</text>
<text text-anchor="start" x="42.5" y="-67" font-family="Helvetica,sans-Serif" font-size="10.00">creator</text>
<text text-anchor="start" x="17" y="-52" font-family="Helvetica,sans-Serif" font-size="10.00">+</text>
<text text-anchor="start" x="42.5" y="-52" font-family="Helvetica,sans-Serif" font-size="10.00">init()</text>
<text text-anchor="start" x="17" y="-37" font-family="Helvetica,sans-Serif" font-size="10.00">+</text>
<text text-anchor="start" x="42.5" y="-37" font-family="Helvetica,sans-Serif" font-size="10.00">program_begin()</text>
<text text-anchor="start" x="17" y="-22" font-family="Helvetica,sans-Serif" font-size="10.00">+</text>
<text text-anchor="start" x="42.5" y="-22" font-family="Helvetica,sans-Serif" font-size="10.00">tool_defn()</text>
<text text-anchor="start" x="17" y="-7" font-family="Helvetica,sans-Serif" font-size="10.00">+</text>
<text text-anchor="start" x="42.5" y="-7" font-family="Helvetica,sans-Serif" font-size="10.00">spindle()</text>
<polygon fill="#666666" stroke="#666666" points="0.5,-77 0.5,-77 153.5,-77 153.5,-77 0.5,-77"/>
<polygon fill="#666666" stroke="#666666" points="0.5,-62 0.5,-62 40.5,-62 40.5,-62 0.5,-62"/>
<polygon fill="#666666" stroke="#666666" points="40.5,-62 40.5,-62 153.5,-62 153.5,-62 40.5,-62"/>
<polygon fill="none" stroke="#666666" points="0,0 0,-94 153,-94 153,0 0,0"/>
</a>
</g>
</g>
<!-- Node1&#45;&gt;Node4 -->
<g id="edge3_Node000001_Node000004" class="edge">
<title>Node1&#45;&gt;Node4</title>
<g id="a_edge3_Node000001_Node000004"><a xlink:title=" ">
<path fill="none" stroke="#63b8ff" d="M103.79,-120.17C100.35,-111.08 97.04,-102.33 93.98,-94.24"/>
<polygon fill="none" stroke="#63b8ff" points="100.6,-121.64 107.41,-129.75 107.15,-119.16 100.6,-121.64"/>
</a>
</g>
</g>
<!-- Node5 -->
<g id="Node000005" class="node">
<title>Node5</title>
<g id="a_Node000005"><a xlink:href="classcam_1_1nc_1_1hm50_1_1Creator.html" target="_top" xlink:title=" ">
<polygon fill="white" stroke="transparent" points="287.5,-86.5 171.5,-86.5 171.5,-7.5 287.5,-7.5 287.5,-86.5"/>
<text text-anchor="start" x="176.5" y="-74" font-family="Helvetica,sans-Serif" font-size="10.00">cam.nc.hm50.Creator</text>
<text text-anchor="start" x="178.5" y="-59" font-family="Helvetica,sans-Serif" font-size="10.00">+</text>
<text text-anchor="start" x="194.5" y="-59" font-family="Helvetica,sans-Serif" font-size="10.00">creator</text>
<text text-anchor="start" x="178.5" y="-44" font-family="Helvetica,sans-Serif" font-size="10.00">+</text>
<text text-anchor="start" x="194.5" y="-44" font-family="Helvetica,sans-Serif" font-size="10.00">__init__()</text>
<text text-anchor="start" x="178.5" y="-29" font-family="Helvetica,sans-Serif" font-size="10.00">+</text>
<text text-anchor="start" x="194.5" y="-29" font-family="Helvetica,sans-Serif" font-size="10.00">program_begin()</text>
<text text-anchor="start" x="178.5" y="-14" font-family="Helvetica,sans-Serif" font-size="10.00">+</text>
<text text-anchor="start" x="194.5" y="-14" font-family="Helvetica,sans-Serif" font-size="10.00">tool_change()</text>
<polygon fill="#666666" stroke="#666666" points="171.5,-69 171.5,-69 287.5,-69 287.5,-69 171.5,-69"/>
<polygon fill="#666666" stroke="#666666" points="171.5,-54 171.5,-54 192.5,-54 192.5,-54 171.5,-54"/>
<polygon fill="#666666" stroke="#666666" points="192.5,-54 192.5,-54 287.5,-54 287.5,-54 192.5,-54"/>
<polygon fill="none" stroke="#666666" points="171.5,-7.5 171.5,-86.5 287.5,-86.5 287.5,-7.5 171.5,-7.5"/>
</a>
</g>
</g>
<!-- Node1&#45;&gt;Node5 -->
<g id="edge4_Node000001_Node000005" class="edge">
<title>Node1&#45;&gt;Node5</title>
<g id="a_edge4_Node000001_Node000005"><a xlink:title=" ">
<path fill="none" stroke="#63b8ff" d="M201.78,-120.37C206.43,-108.22 210.85,-96.68 214.74,-86.52"/>
<polygon fill="none" stroke="#63b8ff" points="198.49,-119.16 198.18,-129.75 205.03,-121.67 198.49,-119.16"/>
</a>
</g>
</g>
<!-- Node2 -->
<g id="Node000002" class="node">
<title>Node2</title>
<g id="a_Node000002"><a xlink:href="classcam_1_1nc_1_1iso_1_1Creator.html" target="_top" xlink:title=" ">
<polygon fill="white" stroke="transparent" points="215.5,-875 89.5,-875 89.5,-406 215.5,-406 215.5,-875"/>
<text text-anchor="start" x="106.5" y="-862.5" font-family="Helvetica,sans-Serif" font-size="10.00">cam.nc.iso.Creator</text>
<text text-anchor="start" x="93.5" y="-847.5" font-family="Helvetica,sans-Serif" font-size="10.00">+</text>
<text text-anchor="start" x="106.5" y="-847.5" font-family="Helvetica,sans-Serif" font-size="10.00">a</text>
<text text-anchor="start" x="93.5" y="-832.5" font-family="Helvetica,sans-Serif" font-size="10.00">+</text>
<text text-anchor="start" x="106.5" y="-832.5" font-family="Helvetica,sans-Serif" font-size="10.00">b</text>
<text text-anchor="start" x="93.5" y="-817.5" font-family="Helvetica,sans-Serif" font-size="10.00">+</text>
<text text-anchor="start" x="106.5" y="-817.5" font-family="Helvetica,sans-Serif" font-size="10.00">c</text>
<text text-anchor="start" x="93.5" y="-802.5" font-family="Helvetica,sans-Serif" font-size="10.00">+</text>
<text text-anchor="start" x="106.5" y="-802.5" font-family="Helvetica,sans-Serif" font-size="10.00">f</text>
<text text-anchor="start" x="93.5" y="-787.5" font-family="Helvetica,sans-Serif" font-size="10.00">+</text>
<text text-anchor="start" x="106.5" y="-787.5" font-family="Helvetica,sans-Serif" font-size="10.00">fh</text>
<text text-anchor="start" x="93.5" y="-772.5" font-family="Helvetica,sans-Serif" font-size="10.00">+</text>
<text text-anchor="start" x="106.5" y="-772.5" font-family="Helvetica,sans-Serif" font-size="10.00">fv</text>
<text text-anchor="start" x="93.5" y="-757.5" font-family="Helvetica,sans-Serif" font-size="10.00">+</text>
<text text-anchor="start" x="106.5" y="-757.5" font-family="Helvetica,sans-Serif" font-size="10.00">fhv</text>
<text text-anchor="start" x="93.5" y="-742.5" font-family="Helvetica,sans-Serif" font-size="10.00">+</text>
<text text-anchor="start" x="106.5" y="-742.5" font-family="Helvetica,sans-Serif" font-size="10.00">g_plane</text>
<text text-anchor="start" x="93.5" y="-727.5" font-family="Helvetica,sans-Serif" font-size="10.00">+</text>
<text text-anchor="start" x="106.5" y="-727.5" font-family="Helvetica,sans-Serif" font-size="10.00">g_list</text>
<text text-anchor="start" x="93.5" y="-712.5" font-family="Helvetica,sans-Serif" font-size="10.00">+</text>
<text text-anchor="start" x="106.5" y="-712.5" font-family="Helvetica,sans-Serif" font-size="10.00">i</text>
<text text-anchor="start" x="106.5" y="-697.5" font-family="Helvetica,sans-Serif" font-size="10.00">and 66 more...</text>
<text text-anchor="start" x="93.5" y="-682.5" font-family="Helvetica,sans-Serif" font-size="10.00">+</text>
<text text-anchor="start" x="106.5" y="-682.5" font-family="Helvetica,sans-Serif" font-size="10.00">retract_height</text>
<text text-anchor="start" x="93.5" y="-667.5" font-family="Helvetica,sans-Serif" font-size="10.00">+</text>
<text text-anchor="start" x="106.5" y="-667.5" font-family="Helvetica,sans-Serif" font-size="10.00">x</text>
<text text-anchor="start" x="93.5" y="-652.5" font-family="Helvetica,sans-Serif" font-size="10.00">+</text>
<text text-anchor="start" x="106.5" y="-652.5" font-family="Helvetica,sans-Serif" font-size="10.00">y</text>
<text text-anchor="start" x="93.5" y="-637.5" font-family="Helvetica,sans-Serif" font-size="10.00">+</text>
<text text-anchor="start" x="106.5" y="-637.5" font-family="Helvetica,sans-Serif" font-size="10.00">prev_z</text>
<text text-anchor="start" x="93.5" y="-622.5" font-family="Helvetica,sans-Serif" font-size="10.00">+</text>
<text text-anchor="start" x="106.5" y="-622.5" font-family="Helvetica,sans-Serif" font-size="10.00">z</text>
<text text-anchor="start" x="93.5" y="-607.5" font-family="Helvetica,sans-Serif" font-size="10.00">+</text>
<text text-anchor="start" x="106.5" y="-607.5" font-family="Helvetica,sans-Serif" font-size="10.00">prev_retract</text>
<text text-anchor="start" x="93.5" y="-592.5" font-family="Helvetica,sans-Serif" font-size="10.00">+</text>
<text text-anchor="start" x="106.5" y="-592.5" font-family="Helvetica,sans-Serif" font-size="10.00">first_drill_pos</text>
<text text-anchor="start" x="93.5" y="-577.5" font-family="Helvetica,sans-Serif" font-size="10.00">+</text>
<text text-anchor="start" x="106.5" y="-577.5" font-family="Helvetica,sans-Serif" font-size="10.00">creator</text>
<text text-anchor="start" x="93.5" y="-562.5" font-family="Helvetica,sans-Serif" font-size="10.00">+</text>
<text text-anchor="start" x="106.5" y="-562.5" font-family="Helvetica,sans-Serif" font-size="10.00">__init__()</text>
<text text-anchor="start" x="93.5" y="-547.5" font-family="Helvetica,sans-Serif" font-size="10.00">+</text>
<text text-anchor="start" x="106.5" y="-547.5" font-family="Helvetica,sans-Serif" font-size="10.00">SPACE_STR()</text>
<text text-anchor="start" x="93.5" y="-532.5" font-family="Helvetica,sans-Serif" font-size="10.00">+</text>
<text text-anchor="start" x="106.5" y="-532.5" font-family="Helvetica,sans-Serif" font-size="10.00">SPACE()</text>
<text text-anchor="start" x="93.5" y="-517.5" font-family="Helvetica,sans-Serif" font-size="10.00">+</text>
<text text-anchor="start" x="106.5" y="-517.5" font-family="Helvetica,sans-Serif" font-size="10.00">FORMAT_FEEDRATE()</text>
<text text-anchor="start" x="93.5" y="-502.5" font-family="Helvetica,sans-Serif" font-size="10.00">+</text>
<text text-anchor="start" x="106.5" y="-502.5" font-family="Helvetica,sans-Serif" font-size="10.00">FORMAT_ANG()</text>
<text text-anchor="start" x="93.5" y="-487.5" font-family="Helvetica,sans-Serif" font-size="10.00">+</text>
<text text-anchor="start" x="106.5" y="-487.5" font-family="Helvetica,sans-Serif" font-size="10.00">FORMAT_TIME()</text>
<text text-anchor="start" x="93.5" y="-472.5" font-family="Helvetica,sans-Serif" font-size="10.00">+</text>
<text text-anchor="start" x="106.5" y="-472.5" font-family="Helvetica,sans-Serif" font-size="10.00">BLOCK()</text>
<text text-anchor="start" x="93.5" y="-457.5" font-family="Helvetica,sans-Serif" font-size="10.00">+</text>
<text text-anchor="start" x="106.5" y="-457.5" font-family="Helvetica,sans-Serif" font-size="10.00">COMMENT()</text>
<text text-anchor="start" x="93.5" y="-442.5" font-family="Helvetica,sans-Serif" font-size="10.00">+</text>
<text text-anchor="start" x="106.5" y="-442.5" font-family="Helvetica,sans-Serif" font-size="10.00">VARIABLE()</text>
<text text-anchor="start" x="93.5" y="-427.5" font-family="Helvetica,sans-Serif" font-size="10.00">+</text>
<text text-anchor="start" x="106.5" y="-427.5" font-family="Helvetica,sans-Serif" font-size="10.00">VARIABLE_SET()</text>
<text text-anchor="start" x="106.5" y="-412.5" font-family="Helvetica,sans-Serif" font-size="10.00">and 151 more...</text>
<polygon fill="#666666" stroke="#666666" points="89.5,-857.5 89.5,-857.5 215.5,-857.5 215.5,-857.5 89.5,-857.5"/>
<polygon fill="#666666" stroke="#666666" points="89.5,-572.5 89.5,-572.5 104.5,-572.5 104.5,-572.5 89.5,-572.5"/>
<polygon fill="#666666" stroke="#666666" points="104.5,-572.5 104.5,-572.5 215.5,-572.5 215.5,-572.5 104.5,-572.5"/>
<polygon fill="none" stroke="#666666" points="89.5,-406 89.5,-875 215.5,-875 215.5,-406 89.5,-406"/>
</a>
</g>
</g>
<!-- Node2&#45;&gt;Node1 -->
<g id="edge1_Node000001_Node000002" class="edge">
<title>Node2&#45;&gt;Node1</title>
<g id="a_edge1_Node000001_Node000002"><a xlink:title=" ">
<path fill="none" stroke="#63b8ff" d="M152.5,-395.68C152.5,-386.99 152.5,-378.44 152.5,-370.11"/>
<polygon fill="none" stroke="#63b8ff" points="149,-395.94 152.5,-405.94 156,-395.94 149,-395.94"/>
</a>
</g>
</g>
<!-- Node3 -->
<g id="Node000003" class="node">
<title>Node3</title>
<g id="a_Node000003"><a xlink:href="classcam_1_1nc_1_1nc_1_1Creator.html" target="_top" xlink:title=" ">
<polygon fill="white" stroke="transparent" points="204,-1125 101,-1125 101,-911 204,-911 204,-1125"/>
<text text-anchor="start" x="108.5" y="-1113" font-family="Helvetica,sans-Serif" font-size="10.00">cam.nc.nc.Creator</text>
<text text-anchor="start" x="105.5" y="-1098" font-family="Helvetica,sans-Serif" font-size="10.00">+</text>
<text text-anchor="start" x="118.5" y="-1098" font-family="Helvetica,sans-Serif" font-size="10.00">file</text>
<text text-anchor="start" x="105.5" y="-1083" font-family="Helvetica,sans-Serif" font-size="10.00">+</text>
<text text-anchor="start" x="118.5" y="-1083" font-family="Helvetica,sans-Serif" font-size="10.00">filename</text>
<text text-anchor="start" x="105.5" y="-1068" font-family="Helvetica,sans-Serif" font-size="10.00">+</text>
<text text-anchor="start" x="118.5" y="-1068" font-family="Helvetica,sans-Serif" font-size="10.00">__init__()</text>
<text text-anchor="start" x="105.5" y="-1053" font-family="Helvetica,sans-Serif" font-size="10.00">+</text>
<text text-anchor="start" x="118.5" y="-1053" font-family="Helvetica,sans-Serif" font-size="10.00">file_open()</text>
<text text-anchor="start" x="105.5" y="-1038" font-family="Helvetica,sans-Serif" font-size="10.00">+</text>
<text text-anchor="start" x="118.5" y="-1038" font-family="Helvetica,sans-Serif" font-size="10.00">file_close()</text>
<text text-anchor="start" x="105.5" y="-1023" font-family="Helvetica,sans-Serif" font-size="10.00">+</text>
<text text-anchor="start" x="118.5" y="-1023" font-family="Helvetica,sans-Serif" font-size="10.00">write()</text>
<text text-anchor="start" x="105.5" y="-1008" font-family="Helvetica,sans-Serif" font-size="10.00">+</text>
<text text-anchor="start" x="118.5" y="-1008" font-family="Helvetica,sans-Serif" font-size="10.00">writem()</text>
<text text-anchor="start" x="105.5" y="-993" font-family="Helvetica,sans-Serif" font-size="10.00">+</text>
<text text-anchor="start" x="118.5" y="-993" font-family="Helvetica,sans-Serif" font-size="10.00">program_begin()</text>
<text text-anchor="start" x="105.5" y="-978" font-family="Helvetica,sans-Serif" font-size="10.00">+</text>
<text text-anchor="start" x="118.5" y="-978" font-family="Helvetica,sans-Serif" font-size="10.00">add_stock()</text>
<text text-anchor="start" x="105.5" y="-963" font-family="Helvetica,sans-Serif" font-size="10.00">+</text>
<text text-anchor="start" x="118.5" y="-963" font-family="Helvetica,sans-Serif" font-size="10.00">program_stop()</text>
<text text-anchor="start" x="105.5" y="-948" font-family="Helvetica,sans-Serif" font-size="10.00">+</text>
<text text-anchor="start" x="118.5" y="-948" font-family="Helvetica,sans-Serif" font-size="10.00">program_end()</text>
<text text-anchor="start" x="105.5" y="-933" font-family="Helvetica,sans-Serif" font-size="10.00">+</text>
<text text-anchor="start" x="118.5" y="-933" font-family="Helvetica,sans-Serif" font-size="10.00">flush_nc()</text>
<text text-anchor="start" x="118.5" y="-918" font-family="Helvetica,sans-Serif" font-size="10.00">and 77 more...</text>
<polygon fill="#666666" stroke="#666666" points="101.5,-1108 101.5,-1108 204.5,-1108 204.5,-1108 101.5,-1108"/>
<polygon fill="#666666" stroke="#666666" points="101.5,-1078 101.5,-1078 116.5,-1078 116.5,-1078 101.5,-1078"/>
<polygon fill="#666666" stroke="#666666" points="116.5,-1078 116.5,-1078 204.5,-1078 204.5,-1078 116.5,-1078"/>
<polygon fill="none" stroke="#666666" points="101,-911 101,-1125 204,-1125 204,-911 101,-911"/>
</a>
</g>
</g>
<!-- Node3&#45;&gt;Node2 -->
<g id="edge2_Node000002_Node000003" class="edge">
<title>Node3&#45;&gt;Node2</title>
<g id="a_edge2_Node000002_Node000003"><a xlink:title=" ">
<path fill="none" stroke="#63b8ff" d="M152.5,-900.81C152.5,-892.45 152.5,-883.86 152.5,-875.13"/>
<polygon fill="none" stroke="#63b8ff" points="149,-900.9 152.5,-910.9 156,-900.9 149,-900.9"/>
</a>
</g>
</g>
</g>
</svg>

<g id="navigator" transform="translate(0 0)" fill="#404254">
  <rect fill="#f2f5e9" fill-opacity="0.5" stroke="#606060" stroke-width=".5" x="0" y="0" width="60" height="60"/>
  <use id="zoomplus" xlink:href="#zoomPlus" x="17" y="9" onmousedown="handleZoom(evt,'in')"/>
  <use id="zoomminus" xlink:href="#zoomMin" x="42" y="9" onmousedown="handleZoom(evt,'out')"/>
  <use id="reset" xlink:href="#resetDef" x="30" y="36" onmousedown="handleReset()"/>
   <use id="arrowup" xlink:href="#arrowUp" x="0" y="0" onmousedown="handlePan(0,-1)"/>
  <use id="arrowright" xlink:href="#arrowRight" x="0" y="0" onmousedown="handlePan(1,0)"/>
  <use id="arrowdown" xlink:href="#arrowDown" x="0" y="0" onmousedown="handlePan(0,1)"/>
  <use id="arrowleft" xlink:href="#arrowLeft" x="0" y="0" onmousedown="handlePan(-1,0)"/>
</g>
<svg viewBox="0 0 15 15" width="100%" height="30px" preserveAspectRatio="xMaxYMin meet">
 <g id="arrow_out" transform="scale(0.3 0.3)">
  <a xlink:href="classcam_1_1nc_1_1emc2_1_1Creator__inherit__graph_org.svg" target="_base">
   <rect id="button" ry="5" rx="5" y="6" x="6" height="38" width="38"
        fill="#f2f5e9" fill-opacity="0.5" stroke="#606060" stroke-width="1.0"/>
   <path id="arrow"
     d="M 11.500037,31.436501 C 11.940474,20.09759 22.043105,11.32322 32.158766,21.979434 L 37.068811,17.246167 C 37.068811,17.246167 37.088388,32 37.088388,32 L 22.160133,31.978069 C 22.160133,31.978069 26.997745,27.140456 26.997745,27.140456 C 18.528582,18.264221 13.291696,25.230495 11.500037,31.436501 z"
     style="fill:#404040;"/>
  </a>
 </g>
</svg>

<style type='text/css'>
<![CDATA[
[data-mouse-over-selected='false'] { opacity: 0.7; }
[data-mouse-over-selected='true']  { opacity: 1.0; }
]]>
</style>
<script type="application/ecmascript"><![CDATA[
document.addEventListener('DOMContentLoaded', (event) => {
  highlightEdges();
  highlightAdjacentNodes();
});
]]></script>
</svg>
