<?xml version="1.0" encoding="UTF-8" standalone="no"?>
<!DOCTYPE svg PUBLIC "-//W3C//DTD SVG 1.1//EN"
 "http://www.w3.org/Graphics/SVG/1.1/DTD/svg11.dtd">
<!-- Generated by graphviz version 2.43.0 (0)
 -->
<!-- Title: cam.nc.grbl.Creator.program_begin Pages: 1 -->
<svg width="1244pt" height="487pt"
 viewBox="0.00 0.00 1244.00 486.50" xmlns="http://www.w3.org/2000/svg" xmlns:xlink="http://www.w3.org/1999/xlink">
<g id="graph0" class="graph" transform="scale(1 1) rotate(0) translate(4 482.5)">
<title>cam.nc.grbl.Creator.program_begin</title>
<!-- Node1 -->
<g id="Node000001" class="node">
<title>Node1</title>
<g id="a_Node000001"><a xlink:title="Begin Program.">
<polygon fill="#999999" stroke="#666666" points="156,-291 0,-291 0,-261 156,-261 156,-291"/>
<text text-anchor="start" x="8" y="-279" font-family="Helvetica,sans-Serif" font-size="10.00">cam.nc.grbl.Creator.program</text>
<text text-anchor="middle" x="78" y="-268" font-family="Helvetica,sans-Serif" font-size="10.00">_begin</text>
</a>
</g>
</g>
<!-- Node2 -->
<g id="Node000002" class="node">
<title>Node2</title>
<g id="a_Node000002"><a xlink:href="classcam_1_1nc_1_1cad__nc__read_1_1Parser.html#adcf2f47949df29f187f27fe985884633" target="_top" xlink:title=" ">
<polygon fill="white" stroke="#666666" points="379.5,-460.5 203.5,-460.5 203.5,-441.5 379.5,-441.5 379.5,-460.5"/>
<text text-anchor="middle" x="291.5" y="-448.5" font-family="Helvetica,sans-Serif" font-size="10.00">cam.nc.cad_nc_read.Parser.write</text>
</a>
</g>
</g>
<!-- Node1&#45;&gt;Node2 -->
<g id="edge1_Node000001_Node000002" class="edge">
<title>Node1&#45;&gt;Node2</title>
<g id="a_edge1_Node000001_Node000002"><a xlink:title=" ">
<path fill="none" stroke="#63b8ff" d="M85.12,-291.05C98.94,-322.98 135.8,-397.46 192,-433 194.48,-434.57 197.06,-436.01 199.72,-437.33"/>
<polygon fill="#63b8ff" stroke="#63b8ff" points="198.45,-440.59 209.02,-441.38 201.24,-434.18 198.45,-440.59"/>
</a>
</g>
</g>
<!-- Node3 -->
<g id="Node000003" class="node">
<title>Node3</title>
<g id="a_Node000003"><a xlink:href="classcam_1_1nc_1_1hxml__writer_1_1HxmlWriter.html#aed6f93c98cb8c0e3f3e826e75b6d6f15" target="_top" xlink:title=" ">
<polygon fill="white" stroke="#666666" points="391,-405.5 192,-405.5 192,-386.5 391,-386.5 391,-405.5"/>
<text text-anchor="middle" x="291.5" y="-393.5" font-family="Helvetica,sans-Serif" font-size="10.00">cam.nc.hxml_writer.HxmlWriter.write</text>
</a>
</g>
</g>
<!-- Node1&#45;&gt;Node3 -->
<g id="edge3_Node000001_Node000003" class="edge">
<title>Node1&#45;&gt;Node3</title>
<g id="a_edge3_Node000001_Node000003"><a xlink:title=" ">
<path fill="none" stroke="#63b8ff" d="M91.05,-291.32C109.94,-314.16 148.85,-356.75 192,-378 196.01,-379.98 200.21,-381.74 204.52,-383.3"/>
<polygon fill="#63b8ff" stroke="#63b8ff" points="203.51,-386.66 214.11,-386.44 205.69,-380 203.51,-386.66"/>
</a>
</g>
</g>
<!-- Node4 -->
<g id="Node000004" class="node">
<title>Node4</title>
<g id="a_Node000004"><a xlink:href="classcam_1_1nc_1_1iso_1_1Creator.html#abb81af5a0bdddfed387b71b68a51cc7a" target="_top" xlink:title="Internals.">
<polygon fill="white" stroke="#666666" points="359,-368.5 224,-368.5 224,-349.5 359,-349.5 359,-368.5"/>
<text text-anchor="middle" x="291.5" y="-356.5" font-family="Helvetica,sans-Serif" font-size="10.00">cam.nc.iso.Creator.write</text>
</a>
</g>
</g>
<!-- Node1&#45;&gt;Node4 -->
<g id="edge5_Node000001_Node000004" class="edge">
<title>Node1&#45;&gt;Node4</title>
<g id="a_edge5_Node000001_Node000004"><a xlink:title=" ">
<path fill="none" stroke="#63b8ff" d="M100,-291.03C121.91,-305.98 157.79,-328.46 192,-341 199.04,-343.58 206.5,-345.8 214.04,-347.71"/>
<polygon fill="#63b8ff" stroke="#63b8ff" points="213.43,-351.16 223.97,-350.05 215.04,-344.35 213.43,-351.16"/>
</a>
</g>
</g>
<!-- Node5 -->
<g id="Node000005" class="node">
<title>Node5</title>
<g id="a_Node000005"><a xlink:href="classcam_1_1nc_1_1nc_1_1Creator.html#a80f2134add83bfaaf2870d075d36ed8a" target="_top" xlink:title=" ">
<polygon fill="white" stroke="#666666" points="357.5,-313.5 225.5,-313.5 225.5,-294.5 357.5,-294.5 357.5,-313.5"/>
<text text-anchor="middle" x="291.5" y="-301.5" font-family="Helvetica,sans-Serif" font-size="10.00">cam.nc.nc.Creator.write</text>
</a>
</g>
</g>
<!-- Node1&#45;&gt;Node5 -->
<g id="edge6_Node000001_Node000005" class="edge">
<title>Node1&#45;&gt;Node5</title>
<g id="a_edge6_Node000001_Node000005"><a xlink:title=" ">
<path fill="none" stroke="#63b8ff" d="M156.25,-286.23C175.46,-288.77 196.02,-291.49 215.13,-294.02"/>
<polygon fill="#63b8ff" stroke="#63b8ff" points="214.91,-297.52 225.28,-295.37 215.83,-290.58 214.91,-297.52"/>
</a>
</g>
</g>
<!-- Node6 -->
<g id="Node000006" class="node">
<title>Node6</title>
<g id="a_Node000006"><a xlink:href="classcam_1_1nc_1_1nclathe__read_1_1Parser.html#ab5ea283b461b57e48c8d5b0ad0a45694" target="_top" xlink:title=" ">
<polygon fill="white" stroke="#666666" points="380.5,-258.5 202.5,-258.5 202.5,-239.5 380.5,-239.5 380.5,-258.5"/>
<text text-anchor="middle" x="291.5" y="-246.5" font-family="Helvetica,sans-Serif" font-size="10.00">cam.nc.nclathe_read.Parser.write</text>
</a>
</g>
</g>
<!-- Node1&#45;&gt;Node6 -->
<g id="edge8_Node000001_Node000006" class="edge">
<title>Node1&#45;&gt;Node6</title>
<g id="a_edge8_Node000001_Node000006"><a xlink:title=" ">
<path fill="none" stroke="#63b8ff" d="M156.25,-266.14C172.38,-264.08 189.46,-261.9 205.83,-259.81"/>
<polygon fill="#63b8ff" stroke="#63b8ff" points="206.45,-263.26 215.92,-258.52 205.56,-256.31 206.45,-263.26"/>
</a>
</g>
</g>
<!-- Node7 -->
<g id="Node000007" class="node">
<title>Node7</title>
<g id="a_Node000007"><a xlink:href="classcam_1_1nc_1_1recreator_1_1Redirector.html#a79cc974683588db3ef959189e7552c0d" target="_top" xlink:title="Programs.">
<polygon fill="white" stroke="#666666" points="381,-203.5 202,-203.5 202,-184.5 381,-184.5 381,-203.5"/>
<text text-anchor="middle" x="291.5" y="-191.5" font-family="Helvetica,sans-Serif" font-size="10.00">cam.nc.recreator.Redirector.write</text>
</a>
</g>
</g>
<!-- Node1&#45;&gt;Node7 -->
<g id="edge10_Node000001_Node000007" class="edge">
<title>Node1&#45;&gt;Node7</title>
<g id="a_edge10_Node000001_Node000007"><a xlink:title=" ">
<path fill="none" stroke="#63b8ff" d="M116.34,-260.92C138.32,-252.09 166.69,-240.79 192,-231 212.8,-222.95 236.15,-214.17 254.9,-207.18"/>
<polygon fill="#63b8ff" stroke="#63b8ff" points="256.37,-210.37 264.52,-203.6 253.93,-203.81 256.37,-210.37"/>
</a>
</g>
</g>
<!-- Node8 -->
<g id="Node000008" class="node">
<title>Node8</title>
<g id="a_Node000008"><a xlink:href="classcam_1_1nc_1_1format_1_1Address.html#aa21f0ffeb829537d9103759276c01a4b" target="_top" xlink:title=" ">
<polygon fill="white" stroke="#666666" points="370.5,-166.5 212.5,-166.5 212.5,-147.5 370.5,-147.5 370.5,-166.5"/>
<text text-anchor="middle" x="291.5" y="-154.5" font-family="Helvetica,sans-Serif" font-size="10.00">cam.nc.format.Address.write</text>
</a>
</g>
</g>
<!-- Node1&#45;&gt;Node8 -->
<g id="edge12_Node000001_Node000008" class="edge">
<title>Node1&#45;&gt;Node8</title>
<g id="a_edge12_Node000001_Node000008"><a xlink:title=" ">
<path fill="none" stroke="#63b8ff" d="M91.46,-260.67C110.59,-238.26 149.46,-196.94 192,-176 196.93,-173.57 202.14,-171.45 207.49,-169.61"/>
<polygon fill="#63b8ff" stroke="#63b8ff" points="208.74,-172.88 217.24,-166.56 206.65,-166.2 208.74,-172.88"/>
</a>
</g>
</g>
<!-- Node19 -->
<g id="Node000019" class="node">
<title>Node19</title>
<g id="a_Node000019"><a xlink:href="classcam_1_1nc_1_1format_1_1AddressPlusMinus.html#aaacea4c7b677f0a602dbc9023ff365d2" target="_top" xlink:title=" ">
<polygon fill="white" stroke="#666666" points="366.5,-129 216.5,-129 216.5,-99 366.5,-99 366.5,-129"/>
<text text-anchor="start" x="224.5" y="-117" font-family="Helvetica,sans-Serif" font-size="10.00">cam.nc.format.AddressPlus</text>
<text text-anchor="middle" x="291.5" y="-106" font-family="Helvetica,sans-Serif" font-size="10.00">Minus.write</text>
</a>
</g>
</g>
<!-- Node1&#45;&gt;Node19 -->
<g id="edge25_Node000001_Node000019" class="edge">
<title>Node1&#45;&gt;Node19</title>
<g id="a_edge25_Node000001_Node000019"><a xlink:title=" ">
<path fill="none" stroke="#63b8ff" d="M86.97,-260.83C102.88,-232.11 141.42,-169.84 192,-138 196.65,-135.07 201.64,-132.5 206.81,-130.24"/>
<polygon fill="#63b8ff" stroke="#63b8ff" points="208.26,-133.43 216.27,-126.5 205.69,-126.92 208.26,-133.43"/>
</a>
</g>
</g>
<!-- Node2&#45;&gt;Node2 -->
<g id="edge2_Node000002_Node000002" class="edge">
<title>Node2&#45;&gt;Node2</title>
<g id="a_edge2_Node000002_Node000002"><a xlink:title=" ">
<path fill="none" stroke="#63b8ff" d="M258.82,-460.58C242.93,-469.23 253.82,-478.5 291.5,-478.5 318.58,-478.5 331.83,-473.71 331.23,-467.81"/>
<polygon fill="#63b8ff" stroke="#63b8ff" points="333.67,-465.29 324.18,-460.58 328.66,-470.18 333.67,-465.29"/>
</a>
</g>
</g>
<!-- Node3&#45;&gt;Node3 -->
<g id="edge4_Node000003_Node000003" class="edge">
<title>Node3&#45;&gt;Node3</title>
<g id="a_edge4_Node000003_Node000003"><a xlink:title=" ">
<path fill="none" stroke="#63b8ff" d="M258.82,-405.58C242.93,-414.23 253.82,-423.5 291.5,-423.5 318.58,-423.5 331.83,-418.71 331.23,-412.81"/>
<polygon fill="#63b8ff" stroke="#63b8ff" points="333.67,-410.29 324.18,-405.58 328.66,-415.18 333.67,-410.29"/>
</a>
</g>
</g>
<!-- Node5&#45;&gt;Node5 -->
<g id="edge7_Node000005_Node000005" class="edge">
<title>Node5&#45;&gt;Node5</title>
<g id="a_edge7_Node000005_Node000005"><a xlink:title=" ">
<path fill="none" stroke="#63b8ff" d="M258.82,-313.58C242.93,-322.23 253.82,-331.5 291.5,-331.5 318.58,-331.5 331.83,-326.71 331.23,-320.81"/>
<polygon fill="#63b8ff" stroke="#63b8ff" points="333.67,-318.29 324.18,-313.58 328.66,-323.18 333.67,-318.29"/>
</a>
</g>
</g>
<!-- Node6&#45;&gt;Node6 -->
<g id="edge9_Node000006_Node000006" class="edge">
<title>Node6&#45;&gt;Node6</title>
<g id="a_edge9_Node000006_Node000006"><a xlink:title=" ">
<path fill="none" stroke="#63b8ff" d="M258.82,-258.58C242.93,-267.23 253.82,-276.5 291.5,-276.5 318.58,-276.5 331.83,-271.71 331.23,-265.81"/>
<polygon fill="#63b8ff" stroke="#63b8ff" points="333.67,-263.29 324.18,-258.58 328.66,-268.18 333.67,-263.29"/>
</a>
</g>
</g>
<!-- Node7&#45;&gt;Node7 -->
<g id="edge11_Node000007_Node000007" class="edge">
<title>Node7&#45;&gt;Node7</title>
<g id="a_edge11_Node000007_Node000007"><a xlink:title=" ">
<path fill="none" stroke="#63b8ff" d="M258.82,-203.58C242.93,-212.23 253.82,-221.5 291.5,-221.5 318.58,-221.5 331.83,-216.71 331.23,-210.81"/>
<polygon fill="#63b8ff" stroke="#63b8ff" points="333.67,-208.29 324.18,-203.58 328.66,-213.18 333.67,-208.29"/>
</a>
</g>
</g>
<!-- Node9 -->
<g id="Node000009" class="node">
<title>Node9</title>
<g id="a_Node000009"><a xlink:href="classcam_1_1async__op_1_1AsyncOperatorMixin.html#a9628cbca8e69ec75b2337171a02bf428" target="_top" xlink:title=" ">
<polygon fill="white" stroke="#666666" points="588,-150 427,-150 427,-120 588,-120 588,-150"/>
<text text-anchor="start" x="435" y="-138" font-family="Helvetica,sans-Serif" font-size="10.00">cam.async_op.AsyncOperator</text>
<text text-anchor="middle" x="507.5" y="-127" font-family="Helvetica,sans-Serif" font-size="10.00">Mixin.modal</text>
</a>
</g>
</g>
<!-- Node8&#45;&gt;Node9 -->
<g id="edge13_Node000008_Node000009" class="edge">
<title>Node8&#45;&gt;Node9</title>
<g id="a_edge13_Node000008_Node000009"><a xlink:title=" ">
<path fill="none" stroke="#63b8ff" d="M370.67,-148.96C385.65,-147.42 401.45,-145.8 416.77,-144.22"/>
<polygon fill="#63b8ff" stroke="#63b8ff" points="417.16,-147.7 426.75,-143.2 416.45,-140.74 417.16,-147.7"/>
</a>
</g>
</g>
<!-- Node10 -->
<g id="Node000010" class="node">
<title>Node10</title>
<g id="a_Node000010"><a xlink:href="classcam_1_1async__op_1_1AsyncOperatorMixin.html#a15a51cfd69d8e453e2e3d64386b1ebe3" target="_top" xlink:title=" ">
<polygon fill="white" stroke="#666666" points="785,-150 624,-150 624,-120 785,-120 785,-150"/>
<text text-anchor="start" x="632" y="-138" font-family="Helvetica,sans-Serif" font-size="10.00">cam.async_op.AsyncOperator</text>
<text text-anchor="middle" x="704.5" y="-127" font-family="Helvetica,sans-Serif" font-size="10.00">Mixin.tick</text>
</a>
</g>
</g>
<!-- Node9&#45;&gt;Node10 -->
<g id="edge14_Node000009_Node000010" class="edge">
<title>Node9&#45;&gt;Node10</title>
<g id="a_edge14_Node000009_Node000010"><a xlink:title=" ">
<path fill="none" stroke="#63b8ff" d="M588.1,-135C596.57,-135 605.24,-135 613.82,-135"/>
<polygon fill="#63b8ff" stroke="#63b8ff" points="613.84,-138.5 623.84,-135 613.84,-131.5 613.84,-138.5"/>
</a>
</g>
</g>
<!-- Node11 -->
<g id="Node000011" class="node">
<title>Node11</title>
<g id="a_Node000011"><a xlink:href="classcam_1_1async__op_1_1AsyncTestOperator.html#a42606ca890a957aa7070a4bc6f25228b" target="_top" xlink:title=" ">
<polygon fill="white" stroke="#666666" points="1042,-270 821,-270 821,-240 1042,-240 1042,-270"/>
<text text-anchor="start" x="829" y="-258" font-family="Helvetica,sans-Serif" font-size="10.00">cam.async_op.AsyncTestOperator.execute</text>
<text text-anchor="middle" x="931.5" y="-247" font-family="Helvetica,sans-Serif" font-size="10.00">_async</text>
</a>
</g>
</g>
<!-- Node10&#45;&gt;Node11 -->
<g id="edge15_Node000010_Node000011" class="edge">
<title>Node10&#45;&gt;Node11</title>
<g id="a_edge15_Node000010_Node000011"><a xlink:title=" ">
<path fill="none" stroke="#63b8ff" d="M719.18,-150.27C739.31,-171.74 779.07,-210.51 821,-231 825.09,-233 829.35,-234.84 833.72,-236.52"/>
<polygon fill="#63b8ff" stroke="#63b8ff" points="832.81,-239.91 843.41,-239.97 835.16,-233.32 832.81,-239.91"/>
</a>
</g>
</g>
<!-- Node12 -->
<g id="Node000012" class="node">
<title>Node12</title>
<g id="a_Node000012"><a xlink:href="classcam_1_1ops_1_1CalculatePath.html#a13dfe2f8578383234e74e58e2f292e1b" target="_top" xlink:title=" ">
<polygon fill="white" stroke="#666666" points="1016,-222 847,-222 847,-192 1016,-192 1016,-222"/>
<text text-anchor="start" x="855" y="-210" font-family="Helvetica,sans-Serif" font-size="10.00">cam.ops.CalculatePath.execute</text>
<text text-anchor="middle" x="931.5" y="-199" font-family="Helvetica,sans-Serif" font-size="10.00">_async</text>
</a>
</g>
</g>
<!-- Node10&#45;&gt;Node12 -->
<g id="edge16_Node000010_Node000012" class="edge">
<title>Node10&#45;&gt;Node12</title>
<g id="a_edge16_Node000010_Node000012"><a xlink:title=" ">
<path fill="none" stroke="#63b8ff" d="M737.29,-150.01C760.18,-160.38 792,-173.88 821,-183 828.31,-185.3 835.96,-187.46 843.68,-189.47"/>
<polygon fill="#63b8ff" stroke="#63b8ff" points="842.91,-192.89 853.46,-191.93 844.62,-186.1 842.91,-192.89"/>
</a>
</g>
</g>
<!-- Node14 -->
<g id="Node000014" class="node">
<title>Node14</title>
<g id="a_Node000014"><a xlink:href="classcam_1_1ops_1_1PathsChain.html#a6fc64e383ccf724b2325e18a82d53eae" target="_top" xlink:title=" ">
<polygon fill="white" stroke="#666666" points="1009.5,-174 853.5,-174 853.5,-144 1009.5,-144 1009.5,-174"/>
<text text-anchor="start" x="861.5" y="-162" font-family="Helvetica,sans-Serif" font-size="10.00">cam.ops.PathsChain.execute</text>
<text text-anchor="middle" x="931.5" y="-151" font-family="Helvetica,sans-Serif" font-size="10.00">_async</text>
</a>
</g>
</g>
<!-- Node10&#45;&gt;Node14 -->
<g id="edge18_Node000010_Node000014" class="edge">
<title>Node10&#45;&gt;Node14</title>
<g id="a_edge18_Node000010_Node000014"><a xlink:title=" ">
<path fill="none" stroke="#63b8ff" d="M785.14,-143.5C803.9,-145.5 823.98,-147.64 843.06,-149.67"/>
<polygon fill="#63b8ff" stroke="#63b8ff" points="842.92,-153.18 853.23,-150.76 843.66,-146.22 842.92,-153.18"/>
</a>
</g>
</g>
<!-- Node16 -->
<g id="Node000016" class="node">
<title>Node16</title>
<g id="a_Node000016"><a xlink:href="classcam_1_1ops_1_1CAMSimulate.html#a633151f17849d281fd52ce82c00356a7" target="_top" xlink:title=" ">
<polygon fill="white" stroke="#666666" points="1015.5,-126 847.5,-126 847.5,-96 1015.5,-96 1015.5,-126"/>
<text text-anchor="start" x="855.5" y="-114" font-family="Helvetica,sans-Serif" font-size="10.00">cam.ops.CAMSimulate.execute</text>
<text text-anchor="middle" x="931.5" y="-103" font-family="Helvetica,sans-Serif" font-size="10.00">_async</text>
</a>
</g>
</g>
<!-- Node10&#45;&gt;Node16 -->
<g id="edge21_Node000010_Node000016" class="edge">
<title>Node10&#45;&gt;Node16</title>
<g id="a_edge21_Node000010_Node000016"><a xlink:title=" ">
<path fill="none" stroke="#63b8ff" d="M785.14,-126.5C801.95,-124.71 819.82,-122.81 837.08,-120.97"/>
<polygon fill="#63b8ff" stroke="#63b8ff" points="837.58,-124.43 847.15,-119.89 836.84,-117.47 837.58,-124.43"/>
</a>
</g>
</g>
<!-- Node17 -->
<g id="Node000017" class="node">
<title>Node17</title>
<g id="a_Node000017"><a xlink:href="classcam_1_1ops_1_1CAMSimulateChain.html#a1e77c7ce21b3b7e3e38a12b6b62517e9" target="_top" xlink:title=" ">
<polygon fill="white" stroke="#666666" points="1029.5,-78 833.5,-78 833.5,-48 1029.5,-48 1029.5,-78"/>
<text text-anchor="start" x="841.5" y="-66" font-family="Helvetica,sans-Serif" font-size="10.00">cam.ops.CAMSimulateChain.execute</text>
<text text-anchor="middle" x="931.5" y="-55" font-family="Helvetica,sans-Serif" font-size="10.00">_async</text>
</a>
</g>
</g>
<!-- Node10&#45;&gt;Node17 -->
<g id="edge22_Node000010_Node000017" class="edge">
<title>Node10&#45;&gt;Node17</title>
<g id="a_edge22_Node000010_Node000017"><a xlink:title=" ">
<path fill="none" stroke="#63b8ff" d="M737.29,-119.99C760.18,-109.62 792,-96.12 821,-87 828.31,-84.7 835.96,-82.54 843.68,-80.53"/>
<polygon fill="#63b8ff" stroke="#63b8ff" points="844.62,-83.9 853.46,-78.07 842.91,-77.11 844.62,-83.9"/>
</a>
</g>
</g>
<!-- Node18 -->
<g id="Node000018" class="node">
<title>Node18</title>
<g id="a_Node000018"><a xlink:href="classcam_1_1async__op_1_1AsyncOperatorMixin.html#a2216ff6bb0dfd132f4ec4cf79b7cba2b" target="_top" xlink:title=" ">
<polygon fill="white" stroke="#666666" points="1012,-30 851,-30 851,0 1012,0 1012,-30"/>
<text text-anchor="start" x="859" y="-18" font-family="Helvetica,sans-Serif" font-size="10.00">cam.async_op.AsyncOperator</text>
<text text-anchor="middle" x="931.5" y="-7" font-family="Helvetica,sans-Serif" font-size="10.00">Mixin.show_progress</text>
</a>
</g>
</g>
<!-- Node10&#45;&gt;Node18 -->
<g id="edge24_Node000010_Node000018" class="edge">
<title>Node10&#45;&gt;Node18</title>
<g id="a_edge24_Node000010_Node000018"><a xlink:title=" ">
<path fill="none" stroke="#63b8ff" d="M719.18,-119.73C739.31,-98.26 779.07,-59.49 821,-39 827.43,-35.86 834.27,-33.12 841.28,-30.74"/>
<polygon fill="#63b8ff" stroke="#63b8ff" points="842.42,-34.05 850.91,-27.71 840.32,-27.37 842.42,-34.05"/>
</a>
</g>
</g>
<!-- Node13 -->
<g id="Node000013" class="node">
<title>Node13</title>
<g id="a_Node000013"><a xlink:href="namespacecam_1_1ops.html#aa8e95f7410a7ceb178db48f4f8c2d995" target="_top" xlink:title=" ">
<polygon fill="white" stroke="#666666" points="1213.5,-192.5 1100.5,-192.5 1100.5,-173.5 1213.5,-173.5 1213.5,-192.5"/>
<text text-anchor="middle" x="1157" y="-180.5" font-family="Helvetica,sans-Serif" font-size="10.00">cam.ops._calc_path</text>
</a>
</g>
</g>
<!-- Node12&#45;&gt;Node13 -->
<g id="edge17_Node000012_Node000013" class="edge">
<title>Node12&#45;&gt;Node13</title>
<g id="a_edge17_Node000012_Node000013"><a xlink:title=" ">
<path fill="none" stroke="#63b8ff" d="M1016.04,-198.03C1040.56,-195.4 1067.01,-192.56 1090.25,-190.06"/>
<polygon fill="#63b8ff" stroke="#63b8ff" points="1090.77,-193.52 1100.34,-188.98 1090.03,-186.56 1090.77,-193.52"/>
</a>
</g>
</g>
<!-- Node14&#45;&gt;Node13 -->
<g id="edge19_Node000014_Node000013" class="edge">
<title>Node14&#45;&gt;Node13</title>
<g id="a_edge19_Node000014_Node000013"><a xlink:title=" ">
<path fill="none" stroke="#63b8ff" d="M1009.73,-167.29C1035.9,-170.1 1064.87,-173.21 1090.08,-175.92"/>
<polygon fill="#63b8ff" stroke="#63b8ff" points="1089.95,-179.43 1100.27,-177.02 1090.7,-172.47 1089.95,-179.43"/>
</a>
</g>
</g>
<!-- Node15 -->
<g id="Node000015" class="node">
<title>Node15</title>
<g id="a_Node000015"><a xlink:href="namespacecam_1_1ops.html#ab55fb8ec9a00e021e8e4a1c3ecc97cb4" target="_top" xlink:title=" ">
<polygon fill="white" stroke="#666666" points="1236,-126.5 1078,-126.5 1078,-107.5 1236,-107.5 1236,-126.5"/>
<text text-anchor="middle" x="1157" y="-114.5" font-family="Helvetica,sans-Serif" font-size="10.00">cam.ops.getChainOperations</text>
</a>
</g>
</g>
<!-- Node14&#45;&gt;Node15 -->
<g id="edge20_Node000014_Node000015" class="edge">
<title>Node14&#45;&gt;Node15</title>
<g id="a_edge20_Node000014_Node000015"><a xlink:title=" ">
<path fill="none" stroke="#63b8ff" d="M1009.73,-144.49C1037.81,-139.21 1069.12,-133.33 1095.54,-128.36"/>
<polygon fill="#63b8ff" stroke="#63b8ff" points="1096.23,-131.79 1105.41,-126.51 1094.94,-124.91 1096.23,-131.79"/>
</a>
</g>
</g>
<!-- Node17&#45;&gt;Node15 -->
<g id="edge23_Node000017_Node000015" class="edge">
<title>Node17&#45;&gt;Node15</title>
<g id="a_edge23_Node000017_Node000015"><a xlink:title=" ">
<path fill="none" stroke="#63b8ff" d="M1003.28,-78.06C1016.19,-80.94 1029.51,-83.99 1042,-87 1064.91,-92.52 1090.28,-99.15 1111.25,-104.77"/>
<polygon fill="#63b8ff" stroke="#63b8ff" points="1110.6,-108.21 1121.17,-107.43 1112.42,-101.45 1110.6,-108.21"/>
</a>
</g>
</g>
<!-- Node19&#45;&gt;Node9 -->
<g id="edge26_Node000019_Node000009" class="edge">
<title>Node19&#45;&gt;Node9</title>
<g id="a_edge26_Node000019_Node000009"><a xlink:title=" ">
<path fill="none" stroke="#63b8ff" d="M366.75,-121.29C382.84,-122.87 400.03,-124.55 416.65,-126.18"/>
<polygon fill="#63b8ff" stroke="#63b8ff" points="416.62,-129.7 426.92,-127.19 417.3,-122.73 416.62,-129.7"/>
</a>
</g>
</g>
</g>
</svg>
