<?xml version="1.0" encoding="UTF-8" standalone="no"?>
<!DOCTYPE svg PUBLIC "-//W3C//DTD SVG 1.1//EN"
 "http://www.w3.org/Graphics/SVG/1.1/DTD/svg11.dtd">
<!-- Generated by graphviz version 2.43.0 (0)
 -->
<!-- Title: cam.autoupdate.UpdateChecker Pages: 1 -->
<svg width="278pt" height="164pt"
 viewBox="0.00 0.00 277.50 164.00" xmlns="http://www.w3.org/2000/svg" xmlns:xlink="http://www.w3.org/1999/xlink">

<svg id="main" version="1.1" xmlns="http://www.w3.org/2000/svg" xmlns:xlink="http://www.w3.org/1999/xlink" xml:space="preserve" onload="init(evt)">
<style type="text/css"><![CDATA[
.node, .edge {opacity: 0.7;}
.node.selected, .edge.selected {opacity: 1;}
.edge:hover path { stroke: red; }
.edge:hover polygon { stroke: red; fill: red; }
]]></style>
<script type="application/ecmascript" xlink:href="svg.min.js"/>
<svg id="graph" class="graph">
<g id="graph0" class="graph" transform="scale(1 1) rotate(0) translate(4 160)">
<title>cam.autoupdate.UpdateChecker</title>
<!-- Node1 -->
<g id="Node000001" class="node">
<title>Node1</title>
<g id="a_Node000001"><a xlink:title=" ">
<polygon fill="#999999" stroke="transparent" points="216,-49 49,-49 49,0 216,0 216,-49"/>
<text text-anchor="start" x="54.5" y="-36.5" font-family="Helvetica,sans-Serif" font-size="10.00">cam.autoupdate.UpdateChecker</text>
<text text-anchor="start" x="131" y="-21.5" font-family="Helvetica,sans-Serif" font-size="10.00"> </text>
<text text-anchor="start" x="78.5" y="-6.5" font-family="Helvetica,sans-Serif" font-size="10.00">+</text>
<text text-anchor="start" x="116.5" y="-6.5" font-family="Helvetica,sans-Serif" font-size="10.00">execute()</text>
<polygon fill="#666666" stroke="#666666" points="49.5,-31.5 49.5,-31.5 216.5,-31.5 216.5,-31.5 49.5,-31.5"/>
<polygon fill="#666666" stroke="#666666" points="49.5,-16.5 49.5,-16.5 216.5,-16.5 216.5,-16.5 49.5,-16.5"/>
<polygon fill="none" stroke="#666666" points="49,0 49,-49 216,-49 216,0 49,0"/>
</a>
</g>
</g>
<!-- Node2 -->
<g id="Node000002" class="node">
<title>Node2</title>
<g id="a_Node000002"><a xlink:title=" ">
<polygon fill="white" stroke="transparent" points="103,-156 0,-156 0,-107 103,-107 103,-156"/>
<text text-anchor="start" x="5.5" y="-143.5" font-family="Helvetica,sans-Serif" font-size="10.00">bpy.types.Operator</text>
<text text-anchor="start" x="50" y="-128.5" font-family="Helvetica,sans-Serif" font-size="10.00"> </text>
<text text-anchor="start" x="50" y="-113.5" font-family="Helvetica,sans-Serif" font-size="10.00"> </text>
<polygon fill="#666666" stroke="#666666" points="0.5,-138.5 0.5,-138.5 103.5,-138.5 103.5,-138.5 0.5,-138.5"/>
<polygon fill="#666666" stroke="#666666" points="0.5,-123.5 0.5,-123.5 103.5,-123.5 103.5,-123.5 0.5,-123.5"/>
<polygon fill="none" stroke="#666666" points="0,-107 0,-156 103,-156 103,-107 0,-107"/>
</a>
</g>
</g>
<!-- Node2&#45;&gt;Node1 -->
<g id="edge1_Node000001_Node000002" class="edge">
<title>Node2&#45;&gt;Node1</title>
<g id="a_edge1_Node000001_Node000002"><a xlink:title=" ">
<path fill="none" stroke="#63b8ff" d="M75.85,-98.93C88.13,-83.01 102.78,-64.03 114.1,-49.35"/>
<polygon fill="none" stroke="#63b8ff" points="73.01,-96.88 69.68,-106.94 78.56,-101.16 73.01,-96.88"/>
</a>
</g>
</g>
<!-- Node3 -->
<g id="Node000003" class="node">
<title>Node3</title>
<g id="a_Node000003"><a xlink:title=" ">
<polygon fill="white" stroke="transparent" points="144,-156 121,-156 121,-107 144,-107 144,-156"/>
<text text-anchor="start" x="126.5" y="-143.5" font-family="Helvetica,sans-Serif" font-size="10.00">str</text>
<text text-anchor="start" x="131" y="-128.5" font-family="Helvetica,sans-Serif" font-size="10.00"> </text>
<text text-anchor="start" x="131" y="-113.5" font-family="Helvetica,sans-Serif" font-size="10.00"> </text>
<polygon fill="#666666" stroke="#666666" points="121.5,-138.5 121.5,-138.5 144.5,-138.5 144.5,-138.5 121.5,-138.5"/>
<polygon fill="#666666" stroke="#666666" points="121.5,-123.5 121.5,-123.5 144.5,-123.5 144.5,-123.5 121.5,-123.5"/>
<polygon fill="none" stroke="#666666" points="121,-107 121,-156 144,-156 144,-107 121,-107"/>
</a>
</g>
</g>
<!-- Node3&#45;&gt;Node1 -->
<g id="edge2_Node000001_Node000003" class="edge">
<title>Node3&#45;&gt;Node1</title>
<g id="a_edge2_Node000001_Node000003"><a xlink:title=" ">
<path fill="none" stroke="#63b8ff" d="M132.5,-106.94C132.5,-93.52 132.5,-76.44 132.5,-61.39"/>
<polygon fill="none" stroke="#63b8ff" points="132.5,-61.35 128.5,-55.35 132.5,-49.35 136.5,-55.35 132.5,-61.35"/>
</a>
</g>
<text text-anchor="middle" x="164" y="-81" font-family="Helvetica,sans-Serif" font-size="10.00" fill="grey"> +bl_idname</text>
<text text-anchor="middle" x="164" y="-70" font-family="Helvetica,sans-Serif" font-size="10.00" fill="grey">+bl_label</text>
</g>
<!-- Node4 -->
<g id="Node000004" class="node">
<title>Node4</title>
<g id="a_Node000004"><a xlink:title=" ">
<polygon fill="white" stroke="transparent" points="233,-156 204,-156 204,-107 233,-107 233,-156"/>
<text text-anchor="start" x="209.5" y="-143.5" font-family="Helvetica,sans-Serif" font-size="10.00">dict</text>
<text text-anchor="start" x="217" y="-128.5" font-family="Helvetica,sans-Serif" font-size="10.00"> </text>
<text text-anchor="start" x="217" y="-113.5" font-family="Helvetica,sans-Serif" font-size="10.00"> </text>
<polygon fill="#666666" stroke="#666666" points="204.5,-138.5 204.5,-138.5 233.5,-138.5 233.5,-138.5 204.5,-138.5"/>
<polygon fill="#666666" stroke="#666666" points="204.5,-123.5 204.5,-123.5 233.5,-123.5 233.5,-123.5 204.5,-123.5"/>
<polygon fill="none" stroke="#666666" points="204,-107 204,-156 233,-156 233,-107 204,-107"/>
</a>
</g>
</g>
<!-- Node4&#45;&gt;Node1 -->
<g id="edge3_Node000001_Node000004" class="edge">
<title>Node4&#45;&gt;Node1</title>
<g id="a_edge3_Node000001_Node000004"><a xlink:title=" ">
<path fill="none" stroke="#63b8ff" d="M214.26,-106.96C211.04,-94.14 205.57,-78.57 196.5,-67 193.6,-63.29 190.27,-59.82 186.68,-56.58"/>
<polygon fill="none" stroke="#63b8ff" points="186.68,-56.57 179.5,-55.9 177.35,-49.02 184.53,-49.69 186.68,-56.57"/>
</a>
</g>
<text text-anchor="middle" x="238.5" y="-75.5" font-family="Helvetica,sans-Serif" font-size="10.00" fill="grey"> +bl_options</text>
</g>
</g>
</svg>
</svg>

<style type='text/css'>
<![CDATA[
[data-mouse-over-selected='false'] { opacity: 0.7; }
[data-mouse-over-selected='true']  { opacity: 1.0; }
]]>
</style>
<script type="application/ecmascript"><![CDATA[
document.addEventListener('DOMContentLoaded', (event) => {
  highlightEdges();
  highlightAdjacentNodes();
});
]]></script>
</svg>
