<?xml version="1.0" encoding="UTF-8" standalone="no"?>
<!DOCTYPE svg PUBLIC "-//W3C//DTD SVG 1.1//EN"
 "http://www.w3.org/Graphics/SVG/1.1/DTD/svg11.dtd">
<!-- Generated by graphviz version 2.43.0 (0)
 -->
<!-- Title: cam.ui_panels.op_properties.CAM_OPERATION_PROPERTIES_Panel.draw_cutout_options Pages: 1 -->
<!--zoomable 429 -->

<svg id="main" version="1.1" xmlns="http://www.w3.org/2000/svg" xmlns:xlink="http://www.w3.org/1999/xlink" xml:space="preserve" onload="init(evt)">
<style type="text/css"><![CDATA[
.node, .edge {opacity: 0.7;}
.node.selected, .edge.selected {opacity: 1;}
.edge:hover path { stroke: red; }
.edge:hover polygon { stroke: red; fill: red; }
]]></style>

<defs>
  <circle id="rim" cx="0" cy="0" r="7"/>
  <circle id="rim2" cx="0" cy="0" r="3.5"/>
  <g id="zoomPlus">
    <use xlink:href="#rim" fill="#404040"><set attributeName="fill" to="#808080" begin="zoomplus.mouseover" end="zoomplus.mouseout"/></use>
    <path d="M-4,0h8M0,-4v8" fill="none" stroke="white" stroke-width="1.5" pointer-events="none"/>
  </g>
  <g id="zoomMin">
    <use xlink:href="#rim" fill="#404040"><set attributeName="fill" to="#808080" begin="zoomminus.mouseover" end="zoomminus.mouseout"/></use>
    <path d="M-4,0h8" fill="none" stroke="white" stroke-width="1.5" pointer-events="none"/>
  </g>
  <g id="arrowUp" transform="translate(30 24)">
    <use xlink:href="#rim"/>
    <path pointer-events="none" fill="none" stroke="white" stroke-width="1.5" d="M0,-3.0v7 M-2.5,-0.5L0,-3.0L2.5,-0.5"/>
  </g>
  <g id="arrowRight" transform="rotate(90) translate(36 -43)">
    <use xlink:href="#rim"/>
    <path pointer-events="none" fill="none" stroke="white" stroke-width="1.5" d="M0,-3.0v7 M-2.5,-0.5L0,-3.0L2.5,-0.5"/>
  </g>
  <g id="arrowDown" transform="rotate(180) translate(-30 -48)">
    <use xlink:href="#rim"/>
    <path pointer-events="none" fill="none" stroke="white" stroke-width="1.5" d="M0,-3.0v7 M-2.5,-0.5L0,-3.0L2.5,-0.5"/>
  </g>
  <g id="arrowLeft" transform="rotate(270) translate(-36 17)">
    <use xlink:href="#rim"/>
    <path pointer-events="none" fill="none" stroke="white" stroke-width="1.5" d="M0,-3.0v7 M-2.5,-0.5L0,-3.0L2.5,-0.5"/>
  </g>
  <g id="resetDef">
    <use xlink:href="#rim2" fill="#404040"><set attributeName="fill" to="#808080" begin="reset.mouseover" end="reset.mouseout"/></use>
  </g>
</defs>
<script type="application/ecmascript">
var viewWidth = 780;
var viewHeight = 429;
var sectionId = 'dynsection-5';
</script>
<script type="application/ecmascript" xlink:href="svg.min.js"/>
<svg id="graph" class="graph">
<g id="viewport">
<title>cam.ui_panels.op_properties.CAM_OPERATION_PROPERTIES_Panel.draw_cutout_options</title>
<!-- Node1 -->
<g id="Node000001" class="node">
<title>Node1</title>
<g id="a_Node000001"><a xlink:title=" ">
<polygon fill="#999999" stroke="#666666" points="165,-242 0,-242 0,-201 165,-201 165,-242"/>
<text text-anchor="start" x="8" y="-230" font-family="Helvetica,sans-Serif" font-size="10.00">cam.ui_panels.op_properties.</text>
<text text-anchor="start" x="8" y="-219" font-family="Helvetica,sans-Serif" font-size="10.00">CAM_OPERATION_PROPERTIES</text>
<text text-anchor="middle" x="82.5" y="-208" font-family="Helvetica,sans-Serif" font-size="10.00">_Panel.draw_cutout_options</text>
</a>
</g>
</g>
<!-- Node2 -->
<g id="Node000002" class="node">
<title>Node2</title>
<g id="a_Node000002"><a xlink:href="classcam_1_1ui__panels_1_1op__properties_1_1CAM__OPERATION__PROPERTIES__Panel.html#adefd594c4c73f1f6f32ef8835ef35271" target="_top" xlink:title=" ">
<polygon fill="white" stroke="#666666" points="572.5,-421 407.5,-421 407.5,-380 572.5,-380 572.5,-421"/>
<text text-anchor="start" x="415.5" y="-409" font-family="Helvetica,sans-Serif" font-size="10.00">cam.ui_panels.op_properties.</text>
<text text-anchor="start" x="415.5" y="-398" font-family="Helvetica,sans-Serif" font-size="10.00">CAM_OPERATION_PROPERTIES</text>
<text text-anchor="middle" x="490" y="-387" font-family="Helvetica,sans-Serif" font-size="10.00">_Panel.draw_cutout_type</text>
</a>
</g>
</g>
<!-- Node1&#45;&gt;Node2 -->
<g id="edge1_Node000001_Node000002" class="edge">
<title>Node1&#45;&gt;Node2</title>
<g id="a_edge1_Node000001_Node000002"><a xlink:title=" ">
<path fill="none" stroke="#63b8ff" d="M93.68,-242.2C110.84,-274.65 148.86,-336.77 201,-365.5 260.74,-398.42 337.86,-406.3 397.26,-406.43"/>
<polygon fill="#63b8ff" stroke="#63b8ff" points="397.4,-409.93 407.39,-406.38 397.37,-402.93 397.4,-409.93"/>
</a>
</g>
</g>
<!-- Node3 -->
<g id="Node000003" class="node">
<title>Node3</title>
<g id="a_Node000003"><a xlink:href="classcam_1_1ui__panels_1_1buttons__panel_1_1CAMButtonsPanel.html#a41c101f031fc5ecdb0097889cf452de0" target="_top" xlink:title=" ">
<polygon fill="white" stroke="#666666" points="772,-215 614,-215 614,-174 772,-174 772,-215"/>
<text text-anchor="start" x="622" y="-203" font-family="Helvetica,sans-Serif" font-size="10.00">cam.ui_panels.buttons</text>
<text text-anchor="start" x="622" y="-192" font-family="Helvetica,sans-Serif" font-size="10.00">_panel.CAMButtonsPanel.has</text>
<text text-anchor="middle" x="693" y="-181" font-family="Helvetica,sans-Serif" font-size="10.00">_correct_level</text>
</a>
</g>
</g>
<!-- Node1&#45;&gt;Node3 -->
<g id="edge17_Node000001_Node000003" class="edge">
<title>Node1&#45;&gt;Node3</title>
<g id="a_edge17_Node000001_Node000003"><a xlink:title=" ">
<path fill="none" stroke="#63b8ff" d="M115.13,-242.11C195.88,-291.94 414.82,-409.36 578,-332.5 625.41,-310.17 659.83,-257.37 677.8,-223.94"/>
<polygon fill="#63b8ff" stroke="#63b8ff" points="680.91,-225.55 682.43,-215.06 674.7,-222.31 680.91,-225.55"/>
</a>
</g>
</g>
<!-- Node4 -->
<g id="Node000004" class="node">
<title>Node4</title>
<g id="a_Node000004"><a xlink:href="classcam_1_1ui__panels_1_1op__properties_1_1CAM__OPERATION__PROPERTIES__Panel.html#a486634a9ac1d8a59253b7d7ce1bf30d1" target="_top" xlink:title=" ">
<polygon fill="white" stroke="#666666" points="572.5,-323 407.5,-323 407.5,-282 572.5,-282 572.5,-323"/>
<text text-anchor="start" x="415.5" y="-311" font-family="Helvetica,sans-Serif" font-size="10.00">cam.ui_panels.op_properties.</text>
<text text-anchor="start" x="415.5" y="-300" font-family="Helvetica,sans-Serif" font-size="10.00">CAM_OPERATION_PROPERTIES</text>
<text text-anchor="middle" x="490" y="-289" font-family="Helvetica,sans-Serif" font-size="10.00">_Panel.draw_enable_A_B_axis</text>
</a>
</g>
</g>
<!-- Node1&#45;&gt;Node4 -->
<g id="edge3_Node000001_Node000004" class="edge">
<title>Node1&#45;&gt;Node4</title>
<g id="a_edge3_Node000001_Node000004"><a xlink:title=" ">
<path fill="none" stroke="#63b8ff" d="M165.03,-238.22C177.09,-240.67 189.37,-243.16 201,-245.5 266.64,-258.7 340.75,-273.36 397.35,-284.51"/>
<polygon fill="#63b8ff" stroke="#63b8ff" points="396.86,-287.98 407.35,-286.48 398.22,-281.11 396.86,-287.98"/>
</a>
</g>
</g>
<!-- Node5 -->
<g id="Node000005" class="node">
<title>Node5</title>
<g id="a_Node000005"><a xlink:href="classcam_1_1ui__panels_1_1op__properties_1_1CAM__OPERATION__PROPERTIES__Panel.html#a3187f842df82c01aa030757f86d1eabd" target="_top" xlink:title=" ">
<polygon fill="white" stroke="#666666" points="572.5,-264 407.5,-264 407.5,-223 572.5,-223 572.5,-264"/>
<text text-anchor="start" x="415.5" y="-252" font-family="Helvetica,sans-Serif" font-size="10.00">cam.ui_panels.op_properties.</text>
<text text-anchor="start" x="415.5" y="-241" font-family="Helvetica,sans-Serif" font-size="10.00">CAM_OPERATION_PROPERTIES</text>
<text text-anchor="middle" x="490" y="-230" font-family="Helvetica,sans-Serif" font-size="10.00">_Panel.draw_lead_in_out</text>
</a>
</g>
</g>
<!-- Node1&#45;&gt;Node5 -->
<g id="edge5_Node000001_Node000005" class="edge">
<title>Node1&#45;&gt;Node5</title>
<g id="a_edge5_Node000001_Node000005"><a xlink:title=" ">
<path fill="none" stroke="#63b8ff" d="M165.07,-225.93C232.19,-229.57 327.3,-234.73 397.1,-238.51"/>
<polygon fill="#63b8ff" stroke="#63b8ff" points="397.04,-242.02 407.21,-239.06 397.42,-235.03 397.04,-242.02"/>
</a>
</g>
</g>
<!-- Node6 -->
<g id="Node000006" class="node">
<title>Node6</title>
<g id="a_Node000006"><a xlink:href="classcam_1_1ui__panels_1_1op__properties_1_1CAM__OPERATION__PROPERTIES__Panel.html#a77b2c1fdf455572f3529d2b64d62eda9" target="_top" xlink:title=" ">
<polygon fill="white" stroke="#666666" points="366,-218 201,-218 201,-177 366,-177 366,-218"/>
<text text-anchor="start" x="209" y="-206" font-family="Helvetica,sans-Serif" font-size="10.00">cam.ui_panels.op_properties.</text>
<text text-anchor="start" x="209" y="-195" font-family="Helvetica,sans-Serif" font-size="10.00">CAM_OPERATION_PROPERTIES</text>
<text text-anchor="middle" x="283.5" y="-184" font-family="Helvetica,sans-Serif" font-size="10.00">_Panel.draw_merge</text>
</a>
</g>
</g>
<!-- Node1&#45;&gt;Node6 -->
<g id="edge7_Node000001_Node000006" class="edge">
<title>Node1&#45;&gt;Node6</title>
<g id="a_edge7_Node000001_Node000006"><a xlink:title=" ">
<path fill="none" stroke="#63b8ff" d="M165.02,-211.67C173.5,-210.65 182.17,-209.6 190.76,-208.56"/>
<polygon fill="#63b8ff" stroke="#63b8ff" points="191.28,-212.03 200.79,-207.35 190.44,-205.08 191.28,-212.03"/>
</a>
</g>
</g>
<!-- Node7 -->
<g id="Node000007" class="node">
<title>Node7</title>
<g id="a_Node000007"><a xlink:href="classcam_1_1ui__panels_1_1op__properties_1_1CAM__OPERATION__PROPERTIES__Panel.html#a8637affd750bc1409f9a9cfae15ac502" target="_top" xlink:title=" ">
<polygon fill="white" stroke="#666666" points="366,-159 201,-159 201,-118 366,-118 366,-159"/>
<text text-anchor="start" x="209" y="-147" font-family="Helvetica,sans-Serif" font-size="10.00">cam.ui_panels.op_properties.</text>
<text text-anchor="start" x="209" y="-136" font-family="Helvetica,sans-Serif" font-size="10.00">CAM_OPERATION_PROPERTIES</text>
<text text-anchor="middle" x="283.5" y="-125" font-family="Helvetica,sans-Serif" font-size="10.00">_Panel.draw_outlines</text>
</a>
</g>
</g>
<!-- Node1&#45;&gt;Node7 -->
<g id="edge9_Node000001_Node000007" class="edge">
<title>Node1&#45;&gt;Node7</title>
<g id="a_edge9_Node000001_Node000007"><a xlink:title=" ">
<path fill="none" stroke="#63b8ff" d="M126.98,-201C149,-190.84 176.25,-178.62 201,-168.5 205.68,-166.59 210.53,-164.66 215.42,-162.76"/>
<polygon fill="#63b8ff" stroke="#63b8ff" points="216.78,-165.99 224.86,-159.14 214.27,-159.45 216.78,-165.99"/>
</a>
</g>
</g>
<!-- Node9 -->
<g id="Node000009" class="node">
<title>Node9</title>
<g id="a_Node000009"><a xlink:href="classcam_1_1ui__panels_1_1op__properties_1_1CAM__OPERATION__PROPERTIES__Panel.html#a292e240c6371821d6c86b8496f099945" target="_top" xlink:title=" ">
<polygon fill="white" stroke="#666666" points="366,-100 201,-100 201,-59 366,-59 366,-100"/>
<text text-anchor="start" x="209" y="-88" font-family="Helvetica,sans-Serif" font-size="10.00">cam.ui_panels.op_properties.</text>
<text text-anchor="start" x="209" y="-77" font-family="Helvetica,sans-Serif" font-size="10.00">CAM_OPERATION_PROPERTIES</text>
<text text-anchor="middle" x="283.5" y="-66" font-family="Helvetica,sans-Serif" font-size="10.00">_Panel.draw_overshoot</text>
</a>
</g>
</g>
<!-- Node1&#45;&gt;Node9 -->
<g id="edge13_Node000001_Node000009" class="edge">
<title>Node1&#45;&gt;Node9</title>
<g id="a_edge13_Node000001_Node000009"><a xlink:title=" ">
<path fill="none" stroke="#63b8ff" d="M100.6,-200.65C121.86,-175.91 160.33,-134.83 201,-109.5 203.75,-107.79 206.62,-106.15 209.55,-104.59"/>
<polygon fill="#63b8ff" stroke="#63b8ff" points="211.15,-107.7 218.55,-100.13 208.04,-101.43 211.15,-107.7"/>
</a>
</g>
</g>
<!-- Node10 -->
<g id="Node000010" class="node">
<title>Node10</title>
<g id="a_Node000010"><a xlink:href="classcam_1_1ui__panels_1_1op__properties_1_1CAM__OPERATION__PROPERTIES__Panel.html#a2aacd17694371b734e499be8f1182cf4" target="_top" xlink:title=" ">
<polygon fill="white" stroke="#666666" points="366,-41 201,-41 201,0 366,0 366,-41"/>
<text text-anchor="start" x="209" y="-29" font-family="Helvetica,sans-Serif" font-size="10.00">cam.ui_panels.op_properties.</text>
<text text-anchor="start" x="209" y="-18" font-family="Helvetica,sans-Serif" font-size="10.00">CAM_OPERATION_PROPERTIES</text>
<text text-anchor="middle" x="283.5" y="-7" font-family="Helvetica,sans-Serif" font-size="10.00">_Panel.draw_startpoint</text>
</a>
</g>
</g>
<!-- Node1&#45;&gt;Node10 -->
<g id="edge15_Node000001_Node000010" class="edge">
<title>Node1&#45;&gt;Node10</title>
<g id="a_edge15_Node000001_Node000010"><a xlink:title=" ">
<path fill="none" stroke="#63b8ff" d="M92.31,-200.9C108.62,-165.09 146.87,-91.23 201,-49.5 202.39,-48.43 203.82,-47.39 205.29,-46.4"/>
<polygon fill="#63b8ff" stroke="#63b8ff" points="207.33,-49.25 214.06,-41.07 203.69,-43.27 207.33,-49.25"/>
</a>
</g>
</g>
<!-- Node2&#45;&gt;Node3 -->
<g id="edge2_Node000002_Node000003" class="edge">
<title>Node2&#45;&gt;Node3</title>
<g id="a_edge2_Node000002_Node000003"><a xlink:title=" ">
<path fill="none" stroke="#63b8ff" d="M555.28,-379.87C563.36,-375.81 571.18,-371.05 578,-365.5 625.9,-326.55 661.13,-262.13 678.94,-224.47"/>
<polygon fill="#63b8ff" stroke="#63b8ff" points="682.27,-225.59 683.29,-215.05 675.92,-222.66 682.27,-225.59"/>
</a>
</g>
</g>
<!-- Node4&#45;&gt;Node3 -->
<g id="edge4_Node000004_Node000003" class="edge">
<title>Node4&#45;&gt;Node3</title>
<g id="a_edge4_Node000004_Node000003"><a xlink:title=" ">
<path fill="none" stroke="#63b8ff" d="M559.21,-281.86C565.66,-279.28 572.02,-276.49 578,-273.5 606.83,-259.07 636.69,-238.13 658.61,-221.43"/>
<polygon fill="#63b8ff" stroke="#63b8ff" points="660.83,-224.14 666.61,-215.26 656.55,-218.6 660.83,-224.14"/>
</a>
</g>
</g>
<!-- Node5&#45;&gt;Node3 -->
<g id="edge6_Node000005_Node000003" class="edge">
<title>Node5&#45;&gt;Node3</title>
<g id="a_edge6_Node000005_Node000003"><a xlink:title=" ">
<path fill="none" stroke="#63b8ff" d="M572.75,-223.57C583.05,-221.06 593.62,-218.48 604,-215.95"/>
<polygon fill="#63b8ff" stroke="#63b8ff" points="605.01,-219.31 613.89,-213.54 603.35,-212.51 605.01,-219.31"/>
</a>
</g>
</g>
<!-- Node6&#45;&gt;Node3 -->
<g id="edge8_Node000006_Node000003" class="edge">
<title>Node6&#45;&gt;Node3</title>
<g id="a_edge8_Node000006_Node000003"><a xlink:title=" ">
<path fill="none" stroke="#63b8ff" d="M366.47,-196.9C435.26,-196.39 533.28,-195.67 603.77,-195.15"/>
<polygon fill="#63b8ff" stroke="#63b8ff" points="603.99,-198.65 613.96,-195.07 603.93,-191.65 603.99,-198.65"/>
</a>
</g>
</g>
<!-- Node7&#45;&gt;Node3 -->
<g id="edge12_Node000007_Node000003" class="edge">
<title>Node7&#45;&gt;Node3</title>
<g id="a_edge12_Node000007_Node000003"><a xlink:title=" ">
<path fill="none" stroke="#63b8ff" d="M366.47,-149.77C435.26,-159.22 533.28,-172.69 603.77,-182.37"/>
<polygon fill="#63b8ff" stroke="#63b8ff" points="603.58,-185.88 613.96,-183.78 604.53,-178.95 603.58,-185.88"/>
</a>
</g>
</g>
<!-- Node8 -->
<g id="Node000008" class="node">
<title>Node8</title>
<g id="a_Node000008"><a xlink:href="classcam_1_1ui__panels_1_1op__properties_1_1CAM__OPERATION__PROPERTIES__Panel.html#a9bef32fd7c6edb48e55bbea853d41f22" target="_top" xlink:title=" ">
<polygon fill="white" stroke="#666666" points="578,-128 402,-128 402,-87 578,-87 578,-128"/>
<text text-anchor="start" x="410" y="-116" font-family="Helvetica,sans-Serif" font-size="10.00">cam.ui_panels.op_properties.</text>
<text text-anchor="start" x="410" y="-105" font-family="Helvetica,sans-Serif" font-size="10.00">CAM_OPERATION_PROPERTIES</text>
<text text-anchor="middle" x="490" y="-94" font-family="Helvetica,sans-Serif" font-size="10.00">_Panel.draw_cutter_engagement</text>
</a>
</g>
</g>
<!-- Node7&#45;&gt;Node8 -->
<g id="edge10_Node000007_Node000008" class="edge">
<title>Node7&#45;&gt;Node8</title>
<g id="a_edge10_Node000007_Node000008"><a xlink:title=" ">
<path fill="none" stroke="#63b8ff" d="M366.21,-126.11C374.6,-124.84 383.19,-123.54 391.73,-122.24"/>
<polygon fill="#63b8ff" stroke="#63b8ff" points="392.36,-125.69 401.73,-120.73 391.31,-118.77 392.36,-125.69"/>
</a>
</g>
</g>
<!-- Node8&#45;&gt;Node3 -->
<g id="edge11_Node000008_Node000003" class="edge">
<title>Node8&#45;&gt;Node3</title>
<g id="a_edge11_Node000008_Node000003"><a xlink:title=" ">
<path fill="none" stroke="#63b8ff" d="M543.14,-128.03C554.66,-132.69 566.78,-137.69 578,-142.5 598.02,-151.09 619.81,-160.91 638.93,-169.69"/>
<polygon fill="#63b8ff" stroke="#63b8ff" points="637.54,-172.9 648.09,-173.91 640.47,-166.54 637.54,-172.9"/>
</a>
</g>
</g>
<!-- Node9&#45;&gt;Node3 -->
<g id="edge14_Node000009_Node000003" class="edge">
<title>Node9&#45;&gt;Node3</title>
<g id="a_edge14_Node000009_Node000003"><a xlink:title=" ">
<path fill="none" stroke="#63b8ff" d="M366.29,-62.62C427.1,-53.94 510.8,-50.32 578,-78.5 619.77,-96.01 653.95,-137.12 673.66,-165.38"/>
<polygon fill="#63b8ff" stroke="#63b8ff" points="670.79,-167.39 679.3,-173.7 676.58,-163.46 670.79,-167.39"/>
</a>
</g>
</g>
<!-- Node10&#45;&gt;Node3 -->
<g id="edge16_Node000010_Node000003" class="edge">
<title>Node10&#45;&gt;Node3</title>
<g id="a_edge16_Node000010_Node000003"><a xlink:title=" ">
<path fill="none" stroke="#63b8ff" d="M366.07,-13.16C427.91,-11.29 513.05,-16.9 578,-52.5 624.62,-78.06 659.19,-131.33 677.42,-164.86"/>
<polygon fill="#63b8ff" stroke="#63b8ff" points="674.36,-166.55 682.12,-173.76 680.54,-163.28 674.36,-166.55"/>
</a>
</g>
</g>
</g>
</svg>

<g id="navigator" transform="translate(0 0)" fill="#404254">
  <rect fill="#f2f5e9" fill-opacity="0.5" stroke="#606060" stroke-width=".5" x="0" y="0" width="60" height="60"/>
  <use id="zoomplus" xlink:href="#zoomPlus" x="17" y="9" onmousedown="handleZoom(evt,'in')"/>
  <use id="zoomminus" xlink:href="#zoomMin" x="42" y="9" onmousedown="handleZoom(evt,'out')"/>
  <use id="reset" xlink:href="#resetDef" x="30" y="36" onmousedown="handleReset()"/>
   <use id="arrowup" xlink:href="#arrowUp" x="0" y="0" onmousedown="handlePan(0,-1)"/>
  <use id="arrowright" xlink:href="#arrowRight" x="0" y="0" onmousedown="handlePan(1,0)"/>
  <use id="arrowdown" xlink:href="#arrowDown" x="0" y="0" onmousedown="handlePan(0,1)"/>
  <use id="arrowleft" xlink:href="#arrowLeft" x="0" y="0" onmousedown="handlePan(-1,0)"/>
</g>
<svg viewBox="0 0 15 15" width="100%" height="30px" preserveAspectRatio="xMaxYMin meet">
 <g id="arrow_out" transform="scale(0.3 0.3)">
  <a xlink:href="classcam_1_1ui__panels_1_1op__properties_1_1CAM__OPERATION__PROPERTIES__Panel_a88eaa520b297fcf1661e0b726e64e14e_cgraph_org.svg" target="_base">
   <rect id="button" ry="5" rx="5" y="6" x="6" height="38" width="38"
        fill="#f2f5e9" fill-opacity="0.5" stroke="#606060" stroke-width="1.0"/>
   <path id="arrow"
     d="M 11.500037,31.436501 C 11.940474,20.09759 22.043105,11.32322 32.158766,21.979434 L 37.068811,17.246167 C 37.068811,17.246167 37.088388,32 37.088388,32 L 22.160133,31.978069 C 22.160133,31.978069 26.997745,27.140456 26.997745,27.140456 C 18.528582,18.264221 13.291696,25.230495 11.500037,31.436501 z"
     style="fill:#404040;"/>
  </a>
 </g>
</svg>

<style type='text/css'>
<![CDATA[
[data-mouse-over-selected='false'] { opacity: 0.7; }
[data-mouse-over-selected='true']  { opacity: 1.0; }
]]>
</style>
<script type="application/ecmascript"><![CDATA[
document.addEventListener('DOMContentLoaded', (event) => {
  highlightEdges();
  highlightAdjacentNodes();
});
]]></script>
</svg>
