<?xml version="1.0" encoding="UTF-8" standalone="no"?>
<!DOCTYPE svg PUBLIC "-//W3C//DTD SVG 1.1//EN"
 "http://www.w3.org/Graphics/SVG/1.1/DTD/svg11.dtd">
<!-- Generated by graphviz version 2.43.0 (0)
 -->
<!-- Title: cam.nc.shopbot_mtc.Creator Pages: 1 -->
<svg width="159pt" height="622pt"
 viewBox="0.00 0.00 159.00 622.00" xmlns="http://www.w3.org/2000/svg" xmlns:xlink="http://www.w3.org/1999/xlink">
<g id="graph0" class="graph" transform="scale(1 1) rotate(0) translate(4 618)">
<title>cam.nc.shopbot_mtc.Creator</title>
<!-- Node1 -->
<g id="Node000001" class="node">
<title>Node1</title>
<g id="a_Node000001"><a xlink:title=" ">
<polygon fill="#999999" stroke="transparent" points="151,-364 0,-364 0,0 151,0 151,-364"/>
<text text-anchor="start" x="5.5" y="-352" font-family="Helvetica,sans-Serif" font-size="10.00">cam.nc.shopbot_mtc.Creator</text>
<text text-anchor="start" x="16.5" y="-337" font-family="Helvetica,sans-Serif" font-size="10.00">+</text>
<text text-anchor="start" x="41.5" y="-337" font-family="Helvetica,sans-Serif" font-size="10.00">fmt</text>
<text text-anchor="start" x="16.5" y="-322" font-family="Helvetica,sans-Serif" font-size="10.00">+</text>
<text text-anchor="start" x="41.5" y="-322" font-family="Helvetica,sans-Serif" font-size="10.00">ffmt</text>
<text text-anchor="start" x="16.5" y="-307" font-family="Helvetica,sans-Serif" font-size="10.00">+</text>
<text text-anchor="start" x="41.5" y="-307" font-family="Helvetica,sans-Serif" font-size="10.00">sfmt</text>
<text text-anchor="start" x="16.5" y="-292" font-family="Helvetica,sans-Serif" font-size="10.00">+</text>
<text text-anchor="start" x="41.5" y="-292" font-family="Helvetica,sans-Serif" font-size="10.00">unitscale</text>
<text text-anchor="start" x="16.5" y="-277" font-family="Helvetica,sans-Serif" font-size="10.00">+</text>
<text text-anchor="start" x="41.5" y="-277" font-family="Helvetica,sans-Serif" font-size="10.00">startx</text>
<text text-anchor="start" x="16.5" y="-262" font-family="Helvetica,sans-Serif" font-size="10.00">+</text>
<text text-anchor="start" x="41.5" y="-262" font-family="Helvetica,sans-Serif" font-size="10.00">starty</text>
<text text-anchor="start" x="16.5" y="-247" font-family="Helvetica,sans-Serif" font-size="10.00">+</text>
<text text-anchor="start" x="41.5" y="-247" font-family="Helvetica,sans-Serif" font-size="10.00">startz</text>
<text text-anchor="start" x="16.5" y="-232" font-family="Helvetica,sans-Serif" font-size="10.00">+</text>
<text text-anchor="start" x="41.5" y="-232" font-family="Helvetica,sans-Serif" font-size="10.00">tcx</text>
<text text-anchor="start" x="16.5" y="-217" font-family="Helvetica,sans-Serif" font-size="10.00">+</text>
<text text-anchor="start" x="41.5" y="-217" font-family="Helvetica,sans-Serif" font-size="10.00">tcy</text>
<text text-anchor="start" x="16.5" y="-202" font-family="Helvetica,sans-Serif" font-size="10.00">+</text>
<text text-anchor="start" x="41.5" y="-202" font-family="Helvetica,sans-Serif" font-size="10.00">tcz</text>
<text text-anchor="start" x="41.5" y="-187" font-family="Helvetica,sans-Serif" font-size="10.00">and 6 more...</text>
<text text-anchor="start" x="16.5" y="-172" font-family="Helvetica,sans-Serif" font-size="10.00">+</text>
<text text-anchor="start" x="41.5" y="-172" font-family="Helvetica,sans-Serif" font-size="10.00">creator</text>
<text text-anchor="start" x="16.5" y="-157" font-family="Helvetica,sans-Serif" font-size="10.00">+</text>
<text text-anchor="start" x="41.5" y="-157" font-family="Helvetica,sans-Serif" font-size="10.00">__init__()</text>
<text text-anchor="start" x="16.5" y="-142" font-family="Helvetica,sans-Serif" font-size="10.00">+</text>
<text text-anchor="start" x="41.5" y="-142" font-family="Helvetica,sans-Serif" font-size="10.00">SPACE()</text>
<text text-anchor="start" x="16.5" y="-127" font-family="Helvetica,sans-Serif" font-size="10.00">+</text>
<text text-anchor="start" x="41.5" y="-127" font-family="Helvetica,sans-Serif" font-size="10.00">COMMENT()</text>
<text text-anchor="start" x="16.5" y="-112" font-family="Helvetica,sans-Serif" font-size="10.00">+</text>
<text text-anchor="start" x="41.5" y="-112" font-family="Helvetica,sans-Serif" font-size="10.00">TOOL()</text>
<text text-anchor="start" x="16.5" y="-97" font-family="Helvetica,sans-Serif" font-size="10.00">+</text>
<text text-anchor="start" x="41.5" y="-97" font-family="Helvetica,sans-Serif" font-size="10.00">write_feedrate()</text>
<text text-anchor="start" x="16.5" y="-82" font-family="Helvetica,sans-Serif" font-size="10.00">+</text>
<text text-anchor="start" x="41.5" y="-82" font-family="Helvetica,sans-Serif" font-size="10.00">write_spindle()</text>
<text text-anchor="start" x="16.5" y="-67" font-family="Helvetica,sans-Serif" font-size="10.00">+</text>
<text text-anchor="start" x="41.5" y="-67" font-family="Helvetica,sans-Serif" font-size="10.00">program_begin()</text>
<text text-anchor="start" x="16.5" y="-52" font-family="Helvetica,sans-Serif" font-size="10.00">+</text>
<text text-anchor="start" x="41.5" y="-52" font-family="Helvetica,sans-Serif" font-size="10.00">program_end()</text>
<text text-anchor="start" x="16.5" y="-37" font-family="Helvetica,sans-Serif" font-size="10.00">+</text>
<text text-anchor="start" x="41.5" y="-37" font-family="Helvetica,sans-Serif" font-size="10.00">flush_nc()</text>
<text text-anchor="start" x="16.5" y="-22" font-family="Helvetica,sans-Serif" font-size="10.00">+</text>
<text text-anchor="start" x="41.5" y="-22" font-family="Helvetica,sans-Serif" font-size="10.00">imperial()</text>
<text text-anchor="start" x="41.5" y="-7" font-family="Helvetica,sans-Serif" font-size="10.00">and 13 more...</text>
<polygon fill="#666666" stroke="#666666" points="0.5,-347 0.5,-347 151.5,-347 151.5,-347 0.5,-347"/>
<polygon fill="#666666" stroke="#666666" points="0.5,-167 0.5,-167 39.5,-167 39.5,-167 0.5,-167"/>
<polygon fill="#666666" stroke="#666666" points="39.5,-167 39.5,-167 151.5,-167 151.5,-167 39.5,-167"/>
<polygon fill="none" stroke="#666666" points="0,0 0,-364 151,-364 151,0 0,0"/>
</a>
</g>
</g>
<!-- Node2 -->
<g id="Node000002" class="node">
<title>Node2</title>
<g id="a_Node000002"><a xlink:href="classcam_1_1nc_1_1nc_1_1Creator.html" target="_top" xlink:title=" ">
<polygon fill="white" stroke="transparent" points="127,-614 24,-614 24,-400 127,-400 127,-614"/>
<text text-anchor="start" x="31.5" y="-602" font-family="Helvetica,sans-Serif" font-size="10.00">cam.nc.nc.Creator</text>
<text text-anchor="start" x="28.5" y="-587" font-family="Helvetica,sans-Serif" font-size="10.00">+</text>
<text text-anchor="start" x="41.5" y="-587" font-family="Helvetica,sans-Serif" font-size="10.00">file</text>
<text text-anchor="start" x="28.5" y="-572" font-family="Helvetica,sans-Serif" font-size="10.00">+</text>
<text text-anchor="start" x="41.5" y="-572" font-family="Helvetica,sans-Serif" font-size="10.00">filename</text>
<text text-anchor="start" x="28.5" y="-557" font-family="Helvetica,sans-Serif" font-size="10.00">+</text>
<text text-anchor="start" x="41.5" y="-557" font-family="Helvetica,sans-Serif" font-size="10.00">__init__()</text>
<text text-anchor="start" x="28.5" y="-542" font-family="Helvetica,sans-Serif" font-size="10.00">+</text>
<text text-anchor="start" x="41.5" y="-542" font-family="Helvetica,sans-Serif" font-size="10.00">file_open()</text>
<text text-anchor="start" x="28.5" y="-527" font-family="Helvetica,sans-Serif" font-size="10.00">+</text>
<text text-anchor="start" x="41.5" y="-527" font-family="Helvetica,sans-Serif" font-size="10.00">file_close()</text>
<text text-anchor="start" x="28.5" y="-512" font-family="Helvetica,sans-Serif" font-size="10.00">+</text>
<text text-anchor="start" x="41.5" y="-512" font-family="Helvetica,sans-Serif" font-size="10.00">write()</text>
<text text-anchor="start" x="28.5" y="-497" font-family="Helvetica,sans-Serif" font-size="10.00">+</text>
<text text-anchor="start" x="41.5" y="-497" font-family="Helvetica,sans-Serif" font-size="10.00">writem()</text>
<text text-anchor="start" x="28.5" y="-482" font-family="Helvetica,sans-Serif" font-size="10.00">+</text>
<text text-anchor="start" x="41.5" y="-482" font-family="Helvetica,sans-Serif" font-size="10.00">program_begin()</text>
<text text-anchor="start" x="28.5" y="-467" font-family="Helvetica,sans-Serif" font-size="10.00">+</text>
<text text-anchor="start" x="41.5" y="-467" font-family="Helvetica,sans-Serif" font-size="10.00">add_stock()</text>
<text text-anchor="start" x="28.5" y="-452" font-family="Helvetica,sans-Serif" font-size="10.00">+</text>
<text text-anchor="start" x="41.5" y="-452" font-family="Helvetica,sans-Serif" font-size="10.00">program_stop()</text>
<text text-anchor="start" x="28.5" y="-437" font-family="Helvetica,sans-Serif" font-size="10.00">+</text>
<text text-anchor="start" x="41.5" y="-437" font-family="Helvetica,sans-Serif" font-size="10.00">program_end()</text>
<text text-anchor="start" x="28.5" y="-422" font-family="Helvetica,sans-Serif" font-size="10.00">+</text>
<text text-anchor="start" x="41.5" y="-422" font-family="Helvetica,sans-Serif" font-size="10.00">flush_nc()</text>
<text text-anchor="start" x="41.5" y="-407" font-family="Helvetica,sans-Serif" font-size="10.00">and 77 more...</text>
<polygon fill="#666666" stroke="#666666" points="24.5,-597 24.5,-597 127.5,-597 127.5,-597 24.5,-597"/>
<polygon fill="#666666" stroke="#666666" points="24.5,-567 24.5,-567 39.5,-567 39.5,-567 24.5,-567"/>
<polygon fill="#666666" stroke="#666666" points="39.5,-567 39.5,-567 127.5,-567 127.5,-567 39.5,-567"/>
<polygon fill="none" stroke="#666666" points="24,-400 24,-614 127,-614 127,-400 24,-400"/>
</a>
</g>
</g>
<!-- Node2&#45;&gt;Node1 -->
<g id="edge1_Node000001_Node000002" class="edge">
<title>Node2&#45;&gt;Node1</title>
<g id="a_edge1_Node000001_Node000002"><a xlink:title=" ">
<path fill="none" stroke="#63b8ff" d="M75.5,-389.64C75.5,-381.25 75.5,-372.67 75.5,-364.03"/>
<polygon fill="none" stroke="#63b8ff" points="72,-389.79 75.5,-399.79 79,-389.79 72,-389.79"/>
</a>
</g>
</g>
</g>
</svg>
