<?xml version="1.0" encoding="UTF-8" standalone="no"?>
<!DOCTYPE svg PUBLIC "-//W3C//DTD SVG 1.1//EN"
 "http://www.w3.org/Graphics/SVG/1.1/DTD/svg11.dtd">
<!-- Generated by graphviz version 2.43.0 (0)
 -->
<!-- Title: cam.nc.grbl.Creator.RAPID Pages: 1 -->
<!--zoomable 648 -->

<svg id="main" version="1.1" xmlns="http://www.w3.org/2000/svg" xmlns:xlink="http://www.w3.org/1999/xlink" xml:space="preserve" onload="init(evt)">
<style type="text/css"><![CDATA[
.node, .edge {opacity: 0.7;}
.node.selected, .edge.selected {opacity: 1;}
.edge:hover path { stroke: red; }
.edge:hover polygon { stroke: red; fill: red; }
]]></style>

<defs>
  <circle id="rim" cx="0" cy="0" r="7"/>
  <circle id="rim2" cx="0" cy="0" r="3.5"/>
  <g id="zoomPlus">
    <use xlink:href="#rim" fill="#404040"><set attributeName="fill" to="#808080" begin="zoomplus.mouseover" end="zoomplus.mouseout"/></use>
    <path d="M-4,0h8M0,-4v8" fill="none" stroke="white" stroke-width="1.5" pointer-events="none"/>
  </g>
  <g id="zoomMin">
    <use xlink:href="#rim" fill="#404040"><set attributeName="fill" to="#808080" begin="zoomminus.mouseover" end="zoomminus.mouseout"/></use>
    <path d="M-4,0h8" fill="none" stroke="white" stroke-width="1.5" pointer-events="none"/>
  </g>
  <g id="arrowUp" transform="translate(30 24)">
    <use xlink:href="#rim"/>
    <path pointer-events="none" fill="none" stroke="white" stroke-width="1.5" d="M0,-3.0v7 M-2.5,-0.5L0,-3.0L2.5,-0.5"/>
  </g>
  <g id="arrowRight" transform="rotate(90) translate(36 -43)">
    <use xlink:href="#rim"/>
    <path pointer-events="none" fill="none" stroke="white" stroke-width="1.5" d="M0,-3.0v7 M-2.5,-0.5L0,-3.0L2.5,-0.5"/>
  </g>
  <g id="arrowDown" transform="rotate(180) translate(-30 -48)">
    <use xlink:href="#rim"/>
    <path pointer-events="none" fill="none" stroke="white" stroke-width="1.5" d="M0,-3.0v7 M-2.5,-0.5L0,-3.0L2.5,-0.5"/>
  </g>
  <g id="arrowLeft" transform="rotate(270) translate(-36 17)">
    <use xlink:href="#rim"/>
    <path pointer-events="none" fill="none" stroke="white" stroke-width="1.5" d="M0,-3.0v7 M-2.5,-0.5L0,-3.0L2.5,-0.5"/>
  </g>
  <g id="resetDef">
    <use xlink:href="#rim2" fill="#404040"><set attributeName="fill" to="#808080" begin="reset.mouseover" end="reset.mouseout"/></use>
  </g>
</defs>
<script type="application/ecmascript">
var viewWidth = 814;
var viewHeight = 648;
var sectionId = 'dynsection-5';
</script>
<script type="application/ecmascript" xlink:href="svg.min.js"/>
<svg id="graph" class="graph">
<g id="viewport">
<title>cam.nc.grbl.Creator.RAPID</title>
<!-- Node1 -->
<g id="Node000001" class="node">
<title>Node1</title>
<g id="a_Node000001"><a xlink:title=" ">
<polygon fill="#999999" stroke="#666666" points="806,-345.5 661,-345.5 661,-326.5 806,-326.5 806,-345.5"/>
<text text-anchor="middle" x="733.5" y="-333.5" font-family="Helvetica,sans-Serif" font-size="10.00">cam.nc.grbl.Creator.RAPID</text>
</a>
</g>
</g>
<!-- Node2 -->
<g id="Node000002" class="node">
<title>Node2</title>
<g id="a_Node000002"><a xlink:href="classcam_1_1nc_1_1heiden_1_1Creator.html#ae8e86bcc6f05521bf4b639128e3241ee" target="_top" xlink:title=" ">
<polygon fill="white" stroke="#666666" points="368,-640 211,-640 211,-610 368,-610 368,-640"/>
<text text-anchor="start" x="219" y="-628" font-family="Helvetica,sans-Serif" font-size="10.00">cam.nc.heiden.Creator.probe</text>
<text text-anchor="middle" x="289.5" y="-617" font-family="Helvetica,sans-Serif" font-size="10.00">_downward_point</text>
</a>
</g>
</g>
<!-- Node1&#45;&gt;Node2 -->
<g id="edge1_Node000001_Node000002" class="edge">
<title>Node1&#45;&gt;Node2</title>
<g id="a_edge1_Node000001_Node000002"><a xlink:title=" ">
<path fill="none" stroke="#63b8ff" d="M730.14,-355.75C723.4,-402.82 699.43,-521.87 625,-578 551.26,-633.62 441.64,-638.59 368.2,-634.18"/>
<polygon fill="#63b8ff" stroke="#63b8ff" points="733.64,-356.02 731.48,-345.65 726.7,-355.1 733.64,-356.02"/>
</a>
</g>
</g>
<!-- Node3 -->
<g id="Node000003" class="node">
<title>Node3</title>
<g id="a_Node000003"><a xlink:href="classcam_1_1nc_1_1iso_1_1Creator.html#a40689f45d25f7f726d11a172b608c0a4" target="_top" xlink:title=" ">
<polygon fill="white" stroke="#666666" points="358.5,-592 220.5,-592 220.5,-562 358.5,-562 358.5,-592"/>
<text text-anchor="start" x="228.5" y="-580" font-family="Helvetica,sans-Serif" font-size="10.00">cam.nc.iso.Creator.probe</text>
<text text-anchor="middle" x="289.5" y="-569" font-family="Helvetica,sans-Serif" font-size="10.00">_downward_point</text>
</a>
</g>
</g>
<!-- Node1&#45;&gt;Node3 -->
<g id="edge2_Node000001_Node000003" class="edge">
<title>Node1&#45;&gt;Node3</title>
<g id="a_edge2_Node000001_Node000003"><a xlink:title=" ">
<path fill="none" stroke="#63b8ff" d="M728.47,-355.78C718.83,-397.55 690.19,-494.55 625,-539 545.93,-592.92 431.15,-593.41 358.7,-586.76"/>
<polygon fill="#63b8ff" stroke="#63b8ff" points="731.94,-356.28 730.66,-345.77 725.11,-354.79 731.94,-356.28"/>
</a>
</g>
</g>
<!-- Node4 -->
<g id="Node000004" class="node">
<title>Node4</title>
<g id="a_Node000004"><a xlink:href="classcam_1_1nc_1_1heiden_1_1Creator.html#a921825a14a9068d234377d7ac3b7777f" target="_top" xlink:title=" ">
<polygon fill="white" stroke="#666666" points="368,-544 211,-544 211,-514 368,-514 368,-544"/>
<text text-anchor="start" x="219" y="-532" font-family="Helvetica,sans-Serif" font-size="10.00">cam.nc.heiden.Creator.probe</text>
<text text-anchor="middle" x="289.5" y="-521" font-family="Helvetica,sans-Serif" font-size="10.00">_single_point</text>
</a>
</g>
</g>
<!-- Node1&#45;&gt;Node4 -->
<g id="edge3_Node000001_Node000004" class="edge">
<title>Node1&#45;&gt;Node4</title>
<g id="a_edge3_Node000001_Node000004"><a xlink:title=" ">
<path fill="none" stroke="#63b8ff" d="M726.64,-355.45C714.45,-392.06 682.62,-470.62 625,-505 547,-551.54 439.85,-550.27 368.04,-542.18"/>
<polygon fill="#63b8ff" stroke="#63b8ff" points="729.97,-356.5 729.68,-345.91 723.3,-354.38 729.97,-356.5"/>
</a>
</g>
</g>
<!-- Node5 -->
<g id="Node000005" class="node">
<title>Node5</title>
<g id="a_Node000005"><a xlink:href="classcam_1_1nc_1_1iso_1_1Creator.html#adc5343ffd168991077858693d6a79fef" target="_top" xlink:title=" ">
<polygon fill="white" stroke="#666666" points="358.5,-335 220.5,-335 220.5,-305 358.5,-305 358.5,-335"/>
<text text-anchor="start" x="228.5" y="-323" font-family="Helvetica,sans-Serif" font-size="10.00">cam.nc.iso.Creator.probe</text>
<text text-anchor="middle" x="289.5" y="-312" font-family="Helvetica,sans-Serif" font-size="10.00">_single_point</text>
</a>
</g>
</g>
<!-- Node1&#45;&gt;Node5 -->
<g id="edge4_Node000001_Node000005" class="edge">
<title>Node1&#45;&gt;Node5</title>
<g id="a_edge4_Node000001_Node000005"><a xlink:title=" ">
<path fill="none" stroke="#63b8ff" d="M659.95,-346.75C648.29,-348.1 636.33,-349.27 625,-350 536.3,-355.75 513.35,-359.73 425,-350 410.73,-348.43 380.29,-341.74 351.97,-335.07"/>
<polygon fill="#63b8ff" stroke="#63b8ff" points="660.6,-350.19 670.1,-345.52 659.76,-343.24 660.6,-350.19"/>
</a>
</g>
</g>
<!-- Node6 -->
<g id="Node000006" class="node">
<title>Node6</title>
<g id="a_Node000006"><a xlink:href="classcam_1_1nc_1_1heiden_1_1Creator.html#a2262faed4f078201d3fab4c023d3e1d2" target="_top" xlink:title="Moves.">
<polygon fill="white" stroke="#666666" points="602,-495.5 448,-495.5 448,-476.5 602,-476.5 602,-495.5"/>
<text text-anchor="middle" x="525" y="-483.5" font-family="Helvetica,sans-Serif" font-size="10.00">cam.nc.heiden.Creator.rapid</text>
</a>
</g>
</g>
<!-- Node1&#45;&gt;Node6 -->
<g id="edge5_Node000001_Node000006" class="edge">
<title>Node1&#45;&gt;Node6</title>
<g id="a_edge5_Node000001_Node000006"><a xlink:title=" ">
<path fill="none" stroke="#63b8ff" d="M722.96,-354.76C706.98,-384.08 671.89,-440.3 625,-468 617.93,-472.18 610.12,-475.43 602.08,-477.95"/>
<polygon fill="#63b8ff" stroke="#63b8ff" points="726.22,-356.07 727.8,-345.6 720.03,-352.8 726.22,-356.07"/>
</a>
</g>
</g>
<!-- Node12 -->
<g id="Node000012" class="node">
<title>Node12</title>
<g id="a_Node000012"><a xlink:href="classcam_1_1nc_1_1heiden_1_1Creator.html#a706db14683812bb3b86db958d7faa05a" target="_top" xlink:title=" ">
<polygon fill="white" stroke="#666666" points="362,-286.5 217,-286.5 217,-267.5 362,-267.5 362,-286.5"/>
<text text-anchor="middle" x="289.5" y="-274.5" font-family="Helvetica,sans-Serif" font-size="10.00">cam.nc.heiden.Creator.tap</text>
</a>
</g>
</g>
<!-- Node1&#45;&gt;Node12 -->
<g id="edge44_Node000001_Node000012" class="edge">
<title>Node1&#45;&gt;Node12</title>
<g id="a_edge44_Node000001_Node000012"><a xlink:title=" ">
<path fill="none" stroke="#63b8ff" d="M650.47,-340.34C587.52,-341.37 499.14,-337.8 425,-316 407.44,-310.84 406.2,-302.26 389,-296 378.44,-292.16 366.95,-289.05 355.67,-286.54"/>
<polygon fill="#63b8ff" stroke="#63b8ff" points="650.81,-343.83 660.74,-340.12 650.66,-336.83 650.81,-343.83"/>
</a>
</g>
</g>
<!-- Node13 -->
<g id="Node000013" class="node">
<title>Node13</title>
<g id="a_Node000013"><a xlink:href="classcam_1_1nc_1_1heiden530_1_1Creator.html#ae0e91cfeea8854af12bf2494a799bc9a" target="_top" xlink:title="Moves.">
<polygon fill="white" stroke="#666666" points="611,-458.5 439,-458.5 439,-439.5 611,-439.5 611,-458.5"/>
<text text-anchor="middle" x="525" y="-446.5" font-family="Helvetica,sans-Serif" font-size="10.00">cam.nc.heiden530.Creator.rapid</text>
</a>
</g>
</g>
<!-- Node1&#45;&gt;Node13 -->
<g id="edge17_Node000001_Node000013" class="edge">
<title>Node1&#45;&gt;Node13</title>
<g id="a_edge17_Node000001_Node000013"><a xlink:title=" ">
<path fill="none" stroke="#63b8ff" d="M718.09,-353.29C699.1,-374.86 663.55,-411.18 625,-430 616.98,-433.91 608.22,-437.02 599.35,-439.49"/>
<polygon fill="#63b8ff" stroke="#63b8ff" points="720.88,-355.42 724.75,-345.56 715.57,-350.85 720.88,-355.42"/>
</a>
</g>
</g>
<!-- Node14 -->
<g id="Node000014" class="node">
<title>Node14</title>
<g id="a_Node000014"><a xlink:href="classcam_1_1nc_1_1iso_1_1Creator.html#a64bd7544d638558d278746433d3855d6" target="_top" xlink:title="Moves.">
<polygon fill="white" stroke="#666666" points="592.5,-421.5 457.5,-421.5 457.5,-402.5 592.5,-402.5 592.5,-421.5"/>
<text text-anchor="middle" x="525" y="-409.5" font-family="Helvetica,sans-Serif" font-size="10.00">cam.nc.iso.Creator.rapid</text>
</a>
</g>
</g>
<!-- Node1&#45;&gt;Node14 -->
<g id="edge27_Node000001_Node000014" class="edge">
<title>Node1&#45;&gt;Node14</title>
<g id="a_edge27_Node000001_Node000014"><a xlink:title=" ">
<path fill="none" stroke="#63b8ff" d="M706.42,-350.56C685.05,-362.01 653.77,-377.69 625,-388 608.77,-393.82 590.54,-398.69 574.19,-402.48"/>
<polygon fill="#63b8ff" stroke="#63b8ff" points="708.37,-353.48 715.49,-345.64 705.03,-347.33 708.37,-353.48"/>
</a>
</g>
</g>
<!-- Node15 -->
<g id="Node000015" class="node">
<title>Node15</title>
<g id="a_Node000015"><a xlink:href="classcam_1_1nc_1_1centroid1_1_1Creator.html#a5da8c44cfff500b5a794637d8972ef37" target="_top" xlink:title="return to home">
<polygon fill="white" stroke="#666666" points="625,-307.5 425,-307.5 425,-288.5 625,-288.5 625,-307.5"/>
<text text-anchor="middle" x="525" y="-295.5" font-family="Helvetica,sans-Serif" font-size="10.00">cam.nc.centroid1.Creator.rapid_home</text>
</a>
</g>
</g>
<!-- Node1&#45;&gt;Node15 -->
<g id="edge37_Node000001_Node000015" class="edge">
<title>Node1&#45;&gt;Node15</title>
<g id="a_edge37_Node000001_Node000015"><a xlink:title=" ">
<path fill="none" stroke="#63b8ff" d="M670.45,-324.58C640.91,-319.14 605.97,-312.72 577.86,-307.54"/>
<polygon fill="#63b8ff" stroke="#63b8ff" points="670.19,-328.09 680.66,-326.46 671.46,-321.21 670.19,-328.09"/>
</a>
</g>
</g>
<!-- Node16 -->
<g id="Node000016" class="node">
<title>Node16</title>
<g id="a_Node000016"><a xlink:href="classcam_1_1nc_1_1heiden_1_1Creator.html#a1979595ccdc20dcf20f67751d328f25d" target="_top" xlink:title=" ">
<polygon fill="white" stroke="#666666" points="602,-270 448,-270 448,-240 602,-240 602,-270"/>
<text text-anchor="start" x="456" y="-258" font-family="Helvetica,sans-Serif" font-size="10.00">cam.nc.heiden.Creator.rapid</text>
<text text-anchor="middle" x="525" y="-247" font-family="Helvetica,sans-Serif" font-size="10.00">_to_intersection</text>
</a>
</g>
</g>
<!-- Node1&#45;&gt;Node16 -->
<g id="edge38_Node000001_Node000016" class="edge">
<title>Node1&#45;&gt;Node16</title>
<g id="a_edge38_Node000001_Node000016"><a xlink:title=" ">
<path fill="none" stroke="#63b8ff" d="M708.74,-321.17C687.48,-308.46 655.11,-290.43 625,-279 616.24,-275.67 606.86,-272.7 597.5,-270.07"/>
<polygon fill="#63b8ff" stroke="#63b8ff" points="707.04,-324.24 717.4,-326.43 710.67,-318.25 707.04,-324.24"/>
</a>
</g>
</g>
<!-- Node17 -->
<g id="Node000017" class="node">
<title>Node17</title>
<g id="a_Node000017"><a xlink:href="classcam_1_1nc_1_1iso_1_1Creator.html#a60e5583b4ddafa8966b05d2baa28ea67" target="_top" xlink:title=" ">
<polygon fill="white" stroke="#666666" points="592.5,-222 457.5,-222 457.5,-192 592.5,-192 592.5,-222"/>
<text text-anchor="start" x="465.5" y="-210" font-family="Helvetica,sans-Serif" font-size="10.00">cam.nc.iso.Creator.rapid</text>
<text text-anchor="middle" x="525" y="-199" font-family="Helvetica,sans-Serif" font-size="10.00">_to_intersection</text>
</a>
</g>
</g>
<!-- Node1&#45;&gt;Node17 -->
<g id="edge39_Node000001_Node000017" class="edge">
<title>Node1&#45;&gt;Node17</title>
<g id="a_edge39_Node000001_Node000017"><a xlink:title=" ">
<path fill="none" stroke="#63b8ff" d="M719.48,-318.35C701.1,-294.75 665.27,-253.3 625,-231 615.02,-225.47 603.79,-221.21 592.56,-217.92"/>
<polygon fill="#63b8ff" stroke="#63b8ff" points="716.8,-320.61 725.64,-326.44 722.37,-316.37 716.8,-320.61"/>
</a>
</g>
</g>
<!-- Node18 -->
<g id="Node000018" class="node">
<title>Node18</title>
<g id="a_Node000018"><a xlink:href="classcam_1_1nc_1_1heiden_1_1Creator.html#a9896f849d515e774aa4d44451ce45cc7" target="_top" xlink:title=" ">
<polygon fill="white" stroke="#666666" points="602,-174 448,-174 448,-144 602,-144 602,-174"/>
<text text-anchor="start" x="456" y="-162" font-family="Helvetica,sans-Serif" font-size="10.00">cam.nc.heiden.Creator.rapid</text>
<text text-anchor="middle" x="525" y="-151" font-family="Helvetica,sans-Serif" font-size="10.00">_to_midpoint</text>
</a>
</g>
</g>
<!-- Node1&#45;&gt;Node18 -->
<g id="edge40_Node000001_Node000018" class="edge">
<title>Node1&#45;&gt;Node18</title>
<g id="a_edge40_Node000001_Node000018"><a xlink:title=" ">
<path fill="none" stroke="#63b8ff" d="M724.59,-316.93C709.99,-284.19 675.6,-217.47 625,-183 618.06,-178.27 610.28,-174.47 602.22,-171.42"/>
<polygon fill="#63b8ff" stroke="#63b8ff" points="721.45,-318.49 728.63,-326.29 727.88,-315.72 721.45,-318.49"/>
</a>
</g>
</g>
<!-- Node19 -->
<g id="Node000019" class="node">
<title>Node19</title>
<g id="a_Node000019"><a xlink:href="classcam_1_1nc_1_1iso_1_1Creator.html#afbb4d0ab68aa5fae6e3d9221fb871fbd" target="_top" xlink:title=" ">
<polygon fill="white" stroke="#666666" points="592.5,-126 457.5,-126 457.5,-96 592.5,-96 592.5,-126"/>
<text text-anchor="start" x="465.5" y="-114" font-family="Helvetica,sans-Serif" font-size="10.00">cam.nc.iso.Creator.rapid</text>
<text text-anchor="middle" x="525" y="-103" font-family="Helvetica,sans-Serif" font-size="10.00">_to_midpoint</text>
</a>
</g>
</g>
<!-- Node1&#45;&gt;Node19 -->
<g id="edge41_Node000001_Node000019" class="edge">
<title>Node1&#45;&gt;Node19</title>
<g id="a_edge41_Node000001_Node000019"><a xlink:title=" ">
<path fill="none" stroke="#63b8ff" d="M727.82,-316.46C717.06,-275.97 686.63,-182.71 625,-135 615.56,-127.69 604.22,-122.57 592.63,-118.99"/>
<polygon fill="#63b8ff" stroke="#63b8ff" points="724.43,-317.36 730.29,-326.19 731.22,-315.64 724.43,-317.36"/>
</a>
</g>
</g>
<!-- Node20 -->
<g id="Node000020" class="node">
<title>Node20</title>
<g id="a_Node000020"><a xlink:href="classcam_1_1nc_1_1heiden_1_1Creator.html#a20686a35918df93542b7b5d4472d3d71" target="_top" xlink:title=" ">
<polygon fill="white" stroke="#666666" points="602,-78 448,-78 448,-48 602,-48 602,-78"/>
<text text-anchor="start" x="456" y="-66" font-family="Helvetica,sans-Serif" font-size="10.00">cam.nc.heiden.Creator.rapid</text>
<text text-anchor="middle" x="525" y="-55" font-family="Helvetica,sans-Serif" font-size="10.00">_to_rotated_coordinate</text>
</a>
</g>
</g>
<!-- Node1&#45;&gt;Node20 -->
<g id="edge42_Node000001_Node000020" class="edge">
<title>Node1&#45;&gt;Node20</title>
<g id="a_edge42_Node000001_Node000020"><a xlink:title=" ">
<path fill="none" stroke="#63b8ff" d="M729.96,-316.17C722.8,-268.82 697.99,-148.55 625,-87 618.24,-81.3 610.34,-76.91 602.01,-73.54"/>
<polygon fill="#63b8ff" stroke="#63b8ff" points="726.53,-316.91 731.39,-326.32 733.46,-315.93 726.53,-316.91"/>
</a>
</g>
</g>
<!-- Node21 -->
<g id="Node000021" class="node">
<title>Node21</title>
<g id="a_Node000021"><a xlink:href="classcam_1_1nc_1_1iso_1_1Creator.html#affa9a90d01acd946672ba361abfbfffd" target="_top" xlink:title=" ">
<polygon fill="white" stroke="#666666" points="592.5,-30 457.5,-30 457.5,0 592.5,0 592.5,-30"/>
<text text-anchor="start" x="465.5" y="-18" font-family="Helvetica,sans-Serif" font-size="10.00">cam.nc.iso.Creator.rapid</text>
<text text-anchor="middle" x="525" y="-7" font-family="Helvetica,sans-Serif" font-size="10.00">_to_rotated_coordinate</text>
</a>
</g>
</g>
<!-- Node1&#45;&gt;Node21 -->
<g id="edge43_Node000001_Node000021" class="edge">
<title>Node1&#45;&gt;Node21</title>
<g id="a_edge43_Node000001_Node000021"><a xlink:title=" ">
<path fill="none" stroke="#63b8ff" d="M731.5,-316.07C727.7,-262.6 709.65,-114.86 625,-39 615.91,-30.86 604.53,-25.36 592.75,-21.67"/>
<polygon fill="#63b8ff" stroke="#63b8ff" points="728.02,-316.49 732.13,-326.26 735.01,-316.06 728.02,-316.49"/>
</a>
</g>
</g>
<!-- Node6&#45;&gt;Node2 -->
<g id="edge11_Node000006_Node000002" class="edge">
<title>Node6&#45;&gt;Node2</title>
<g id="a_edge11_Node000006_Node000002"><a xlink:title=" ">
<path fill="none" stroke="#63b8ff" d="M508.65,-503.47C485.35,-528.87 438.51,-575.71 389,-601 382.26,-604.44 375.01,-607.41 367.6,-609.95"/>
<polygon fill="#63b8ff" stroke="#63b8ff" points="511.52,-505.52 515.61,-495.75 506.32,-500.83 511.52,-505.52"/>
</a>
</g>
</g>
<!-- Node6&#45;&gt;Node3 -->
<g id="edge12_Node000006_Node000003" class="edge">
<title>Node6&#45;&gt;Node3</title>
<g id="a_edge12_Node000006_Node000003"><a xlink:title=" ">
<path fill="none" stroke="#63b8ff" d="M498.48,-500.81C471.88,-515.73 428.62,-538.54 389,-553 379.33,-556.53 368.93,-559.7 358.65,-562.49"/>
<polygon fill="#63b8ff" stroke="#63b8ff" points="500.51,-503.68 507.48,-495.7 497.06,-497.59 500.51,-503.68"/>
</a>
</g>
</g>
<!-- Node6&#45;&gt;Node4 -->
<g id="edge13_Node000006_Node000004" class="edge">
<title>Node6&#45;&gt;Node4</title>
<g id="a_edge13_Node000006_Node000004"><a xlink:title=" ">
<path fill="none" stroke="#63b8ff" d="M462.26,-497.37C433.47,-502.67 398.91,-509.04 368.36,-514.66"/>
<polygon fill="#63b8ff" stroke="#63b8ff" points="462.98,-500.8 472.18,-495.54 461.71,-493.91 462.98,-500.8"/>
</a>
</g>
</g>
<!-- Node6&#45;&gt;Node5 -->
<g id="edge14_Node000006_Node000005" class="edge">
<title>Node6&#45;&gt;Node5</title>
<g id="a_edge14_Node000006_Node000005"><a xlink:title=" ">
<path fill="none" stroke="#63b8ff" d="M438.73,-477.34C433.77,-474.81 429.13,-471.73 425,-468 382.39,-429.56 430.45,-383.69 389,-344 380.55,-335.91 369.84,-330.4 358.62,-326.68"/>
<polygon fill="#63b8ff" stroke="#63b8ff" points="437.38,-480.57 447.95,-481.34 440.16,-474.15 437.38,-480.57"/>
</a>
</g>
</g>
<!-- Node7 -->
<g id="Node000007" class="node">
<title>Node7</title>
<g id="a_Node000007"><a xlink:href="classcam_1_1nc_1_1heiden_1_1Creator.html#ab1ba24f0b927edab5d70c6642ceacfc4" target="_top" xlink:title=" ">
<polygon fill="white" stroke="#666666" points="363.5,-458.5 215.5,-458.5 215.5,-439.5 363.5,-439.5 363.5,-458.5"/>
<text text-anchor="middle" x="289.5" y="-446.5" font-family="Helvetica,sans-Serif" font-size="10.00">cam.nc.heiden.Creator.drill</text>
</a>
</g>
</g>
<!-- Node6&#45;&gt;Node7 -->
<g id="edge6_Node000006_Node000007" class="edge">
<title>Node6&#45;&gt;Node7</title>
<g id="a_edge6_Node000006_Node000007"><a xlink:title=" ">
<path fill="none" stroke="#63b8ff" d="M453.88,-474.89C421.05,-469.69 382.34,-463.55 350.83,-458.56"/>
<polygon fill="#63b8ff" stroke="#63b8ff" points="453.44,-478.36 463.87,-476.47 454.54,-471.45 453.44,-478.36"/>
</a>
</g>
</g>
<!-- Node9 -->
<g id="Node000009" class="node">
<title>Node9</title>
<g id="a_Node000009"><a xlink:href="classcam_1_1nc_1_1iso_1_1Creator.html#a61f29267aaaddc3d5c8471f9bf714cb3" target="_top" xlink:title=" ">
<polygon fill="white" stroke="#666666" points="354,-495.5 225,-495.5 225,-476.5 354,-476.5 354,-495.5"/>
<text text-anchor="middle" x="289.5" y="-483.5" font-family="Helvetica,sans-Serif" font-size="10.00">cam.nc.iso.Creator.drill</text>
</a>
</g>
</g>
<!-- Node6&#45;&gt;Node9 -->
<g id="edge8_Node000006_Node000009" class="edge">
<title>Node6&#45;&gt;Node9</title>
<g id="a_edge8_Node000006_Node000009"><a xlink:title=" ">
<path fill="none" stroke="#63b8ff" d="M437.77,-486C410.04,-486 379.83,-486 354.03,-486"/>
<polygon fill="#63b8ff" stroke="#63b8ff" points="437.87,-489.5 447.87,-486 437.87,-482.5 437.87,-489.5"/>
</a>
</g>
</g>
<!-- Node10 -->
<g id="Node000010" class="node">
<title>Node10</title>
<g id="a_Node000010"><a xlink:href="classcam_1_1nc_1_1heiden__read_1_1Parser.html#a9c64dcddf3c2c0d3248079dde5314cfe" target="_top" xlink:title=" ">
<polygon fill="white" stroke="#666666" points="364.5,-421 214.5,-421 214.5,-391 364.5,-391 364.5,-421"/>
<text text-anchor="start" x="222.5" y="-409" font-family="Helvetica,sans-Serif" font-size="10.00">cam.nc.heiden_read.Parser.</text>
<text text-anchor="middle" x="289.5" y="-398" font-family="Helvetica,sans-Serif" font-size="10.00">Parsey</text>
</a>
</g>
</g>
<!-- Node6&#45;&gt;Node10 -->
<g id="edge10_Node000006_Node000010" class="edge">
<title>Node6&#45;&gt;Node10</title>
<g id="a_edge10_Node000006_Node000010"><a xlink:title=" ">
<path fill="none" stroke="#63b8ff" d="M438.33,-474.07C433.72,-472.31 429.24,-470.3 425,-468 404.54,-456.93 409.12,-441.67 389,-430 381.46,-425.63 373.16,-422.05 364.67,-419.12"/>
<polygon fill="#63b8ff" stroke="#63b8ff" points="437.37,-477.43 447.97,-477.34 439.62,-470.81 437.37,-477.43"/>
</a>
</g>
</g>
<!-- Node11 -->
<g id="Node000011" class="node">
<title>Node11</title>
<g id="a_Node000011"><a xlink:href="classcam_1_1nc_1_1emc2tap_1_1CreatorEMC2tap.html#ae7c40089d2816698fbe6cfbc9a10a052" target="_top" xlink:title=" ">
<polygon fill="white" stroke="#666666" points="389,-372.5 190,-372.5 190,-353.5 389,-353.5 389,-372.5"/>
<text text-anchor="middle" x="289.5" y="-360.5" font-family="Helvetica,sans-Serif" font-size="10.00">cam.nc.emc2tap.CreatorEMC2tap.tap</text>
</a>
</g>
</g>
<!-- Node6&#45;&gt;Node11 -->
<g id="edge15_Node000006_Node000011" class="edge">
<title>Node6&#45;&gt;Node11</title>
<g id="a_edge15_Node000006_Node000011"><a xlink:title=" ">
<path fill="none" stroke="#63b8ff" d="M438.39,-476.4C433.62,-474.07 429.11,-471.3 425,-468 392.71,-442.04 421.16,-408.13 389,-382 384.4,-378.27 379.29,-375.19 373.88,-372.66"/>
<polygon fill="#63b8ff" stroke="#63b8ff" points="437.25,-479.72 447.83,-480.33 439.95,-473.26 437.25,-479.72"/>
</a>
</g>
</g>
<!-- Node6&#45;&gt;Node12 -->
<g id="edge16_Node000006_Node000012" class="edge">
<title>Node6&#45;&gt;Node12</title>
<g id="a_edge16_Node000006_Node000012"><a xlink:title=" ">
<path fill="none" stroke="#63b8ff" d="M438.68,-477.85C433.7,-475.21 429.07,-471.96 425,-468 369.05,-413.51 444.66,-350.79 389,-296 381.55,-288.67 372.19,-283.73 362.21,-280.47"/>
<polygon fill="#63b8ff" stroke="#63b8ff" points="437.43,-481.13 447.99,-482 440.28,-474.73 437.43,-481.13"/>
</a>
</g>
</g>
<!-- Node8 -->
<g id="Node000008" class="node">
<title>Node8</title>
<g id="a_Node000008"><a xlink:href="classcam_1_1nc_1_1cad__iso__read_1_1Parser.html#abf885d019794a8bef1b69f446c8851e1" target="_top" xlink:title=" ">
<polygon fill="white" stroke="#666666" points="154,-482 0,-482 0,-452 154,-452 154,-482"/>
<text text-anchor="start" x="8" y="-470" font-family="Helvetica,sans-Serif" font-size="10.00">cam.nc.cad_iso_read.Parser.</text>
<text text-anchor="middle" x="77" y="-459" font-family="Helvetica,sans-Serif" font-size="10.00">Parse</text>
</a>
</g>
</g>
<!-- Node7&#45;&gt;Node8 -->
<g id="edge7_Node000007_Node000008" class="edge">
<title>Node7&#45;&gt;Node8</title>
<g id="a_edge7_Node000007_Node000008"><a xlink:title=" ">
<path fill="none" stroke="#63b8ff" d="M205.11,-456.13C188.29,-457.57 170.68,-459.07 154.12,-460.49"/>
<polygon fill="#63b8ff" stroke="#63b8ff" points="205.8,-459.58 215.47,-455.25 205.21,-452.61 205.8,-459.58"/>
</a>
</g>
</g>
<!-- Node9&#45;&gt;Node8 -->
<g id="edge9_Node000009_Node000008" class="edge">
<title>Node9&#45;&gt;Node8</title>
<g id="a_edge9_Node000009_Node000008"><a xlink:title=" ">
<path fill="none" stroke="#63b8ff" d="M214.68,-479.34C195.07,-477.57 173.85,-475.65 154.12,-473.87"/>
<polygon fill="#63b8ff" stroke="#63b8ff" points="214.5,-482.83 224.77,-480.25 215.13,-475.86 214.5,-482.83"/>
</a>
</g>
</g>
<!-- Node13&#45;&gt;Node2 -->
<g id="edge21_Node000013_Node000002" class="edge">
<title>Node13&#45;&gt;Node2</title>
<g id="a_edge21_Node000013_Node000002"><a xlink:title=" ">
<path fill="none" stroke="#63b8ff" d="M429.83,-463.99C428.15,-465.24 426.54,-466.57 425,-468 380.11,-509.65 432.85,-558.25 389,-601 383.08,-606.77 376.01,-611.24 368.42,-614.68"/>
<polygon fill="#63b8ff" stroke="#63b8ff" points="432.07,-466.71 438.68,-458.43 428.35,-460.78 432.07,-466.71"/>
</a>
</g>
</g>
<!-- Node13&#45;&gt;Node3 -->
<g id="edge22_Node000013_Node000003" class="edge">
<title>Node13&#45;&gt;Node3</title>
<g id="a_edge22_Node000013_Node000003"><a xlink:title=" ">
<path fill="none" stroke="#63b8ff" d="M431.35,-463.46C429.15,-464.85 427.02,-466.36 425,-468 393.1,-493.79 420.26,-526.43 389,-553 380.28,-560.41 369.64,-565.6 358.62,-569.23"/>
<polygon fill="#63b8ff" stroke="#63b8ff" points="433.1,-466.49 440.21,-458.64 429.76,-460.34 433.1,-466.49"/>
</a>
</g>
</g>
<!-- Node13&#45;&gt;Node4 -->
<g id="edge23_Node000013_Node000004" class="edge">
<title>Node13&#45;&gt;Node4</title>
<g id="a_edge23_Node000013_Node000004"><a xlink:title=" ">
<path fill="none" stroke="#63b8ff" d="M438.51,-461.85C433.84,-463.64 429.3,-465.68 425,-468 404.8,-478.89 408.92,-493.62 389,-505 382.5,-508.71 375.45,-511.85 368.2,-514.51"/>
<polygon fill="#63b8ff" stroke="#63b8ff" points="439.94,-465.06 448.26,-458.51 437.67,-458.44 439.94,-465.06"/>
</a>
</g>
</g>
<!-- Node13&#45;&gt;Node5 -->
<g id="edge24_Node000013_Node000005" class="edge">
<title>Node13&#45;&gt;Node5</title>
<g id="a_edge24_Node000013_Node000005"><a xlink:title=" ">
<path fill="none" stroke="#63b8ff" d="M431.34,-434.55C429.14,-433.16 427.02,-431.64 425,-430 392.83,-403.88 420.51,-370.9 389,-344 380.3,-336.57 369.67,-331.37 358.64,-327.74"/>
<polygon fill="#63b8ff" stroke="#63b8ff" points="429.74,-437.67 440.2,-439.38 433.09,-431.52 429.74,-437.67"/>
</a>
</g>
</g>
<!-- Node13&#45;&gt;Node7 -->
<g id="edge18_Node000013_Node000007" class="edge">
<title>Node13&#45;&gt;Node7</title>
<g id="a_edge18_Node000013_Node000007"><a xlink:title=" ">
<path fill="none" stroke="#63b8ff" d="M428.51,-449C406.86,-449 384.19,-449 363.63,-449"/>
<polygon fill="#63b8ff" stroke="#63b8ff" points="428.71,-452.5 438.71,-449 428.71,-445.5 428.71,-452.5"/>
</a>
</g>
</g>
<!-- Node13&#45;&gt;Node9 -->
<g id="edge19_Node000013_Node000009" class="edge">
<title>Node13&#45;&gt;Node9</title>
<g id="a_edge19_Node000013_Node000009"><a xlink:title=" ">
<path fill="none" stroke="#63b8ff" d="M453.88,-460.11C421.05,-465.31 382.34,-471.45 350.83,-476.44"/>
<polygon fill="#63b8ff" stroke="#63b8ff" points="454.54,-463.55 463.87,-458.53 453.44,-456.64 454.54,-463.55"/>
</a>
</g>
</g>
<!-- Node13&#45;&gt;Node10 -->
<g id="edge20_Node000013_Node000010" class="edge">
<title>Node13&#45;&gt;Node10</title>
<g id="a_edge20_Node000013_Node000010"><a xlink:title=" ">
<path fill="none" stroke="#63b8ff" d="M462.29,-437.64C432.37,-432.13 396.19,-425.46 364.77,-419.68"/>
<polygon fill="#63b8ff" stroke="#63b8ff" points="461.71,-441.09 472.18,-439.46 462.98,-434.2 461.71,-441.09"/>
</a>
</g>
</g>
<!-- Node13&#45;&gt;Node11 -->
<g id="edge25_Node000013_Node000011" class="edge">
<title>Node13&#45;&gt;Node11</title>
<g id="a_edge25_Node000013_Node000011"><a xlink:title=" ">
<path fill="none" stroke="#63b8ff" d="M435.59,-435.67C431.92,-433.99 428.37,-432.1 425,-430 402.38,-415.87 411.61,-396.14 389,-382 382.8,-378.12 375.98,-375 368.92,-372.5"/>
<polygon fill="#63b8ff" stroke="#63b8ff" points="434.35,-438.94 444.93,-439.44 436.97,-432.45 434.35,-438.94"/>
</a>
</g>
</g>
<!-- Node13&#45;&gt;Node12 -->
<g id="edge26_Node000013_Node000012" class="edge">
<title>Node13&#45;&gt;Node12</title>
<g id="a_edge26_Node000013_Node000012"><a xlink:title=" ">
<path fill="none" stroke="#63b8ff" d="M429.82,-434.02C428.15,-432.77 426.54,-431.43 425,-430 379.84,-388.01 434.14,-338.01 389,-296 381.48,-289 372.19,-284.22 362.35,-281"/>
<polygon fill="#63b8ff" stroke="#63b8ff" points="428.34,-437.22 438.67,-439.57 432.07,-431.29 428.34,-437.22"/>
</a>
</g>
</g>
<!-- Node14&#45;&gt;Node2 -->
<g id="edge31_Node000014_Node000002" class="edge">
<title>Node14&#45;&gt;Node2</title>
<g id="a_edge31_Node000014_Node000002"><a xlink:title=" ">
<path fill="none" stroke="#63b8ff" d="M447.62,-416.15C439.23,-419.3 431.41,-423.76 425,-430 369.33,-484.15 443.05,-545.22 389,-601 383.12,-607.07 375.98,-611.7 368.27,-615.23"/>
<polygon fill="#63b8ff" stroke="#63b8ff" points="448.79,-419.45 457.3,-413.13 446.71,-412.77 448.79,-419.45"/>
</a>
</g>
</g>
<!-- Node14&#45;&gt;Node3 -->
<g id="edge32_Node000014_Node000003" class="edge">
<title>Node14&#45;&gt;Node3</title>
<g id="a_edge32_Node000014_Node000003"><a xlink:title=" ">
<path fill="none" stroke="#63b8ff" d="M447.71,-416.77C439.38,-419.82 431.56,-424.1 425,-430 382.67,-468.11 430.19,-513.65 389,-553 380.54,-561.09 369.82,-566.59 358.6,-570.31"/>
<polygon fill="#63b8ff" stroke="#63b8ff" points="448.77,-420.1 457.3,-413.81 446.71,-413.41 448.77,-420.1"/>
</a>
</g>
</g>
<!-- Node14&#45;&gt;Node4 -->
<g id="edge33_Node000014_Node000004" class="edge">
<title>Node14&#45;&gt;Node4</title>
<g id="a_edge33_Node000014_Node000004"><a xlink:title=" ">
<path fill="none" stroke="#63b8ff" d="M447.6,-418.18C439.48,-421.02 431.74,-424.86 425,-430 395.6,-452.42 417.72,-481.72 389,-505 382.85,-509.99 375.81,-513.96 368.4,-517.13"/>
<polygon fill="#63b8ff" stroke="#63b8ff" points="448.7,-421.5 457.27,-415.27 446.69,-414.8 448.7,-421.5"/>
</a>
</g>
</g>
<!-- Node14&#45;&gt;Node5 -->
<g id="edge34_Node000014_Node000005" class="edge">
<title>Node14&#45;&gt;Node5</title>
<g id="a_edge34_Node000014_Node000005"><a xlink:title=" ">
<path fill="none" stroke="#63b8ff" d="M448.9,-399.36C440.5,-396.35 432.34,-392.62 425,-388 403.61,-374.55 410.38,-357.46 389,-344 379.77,-338.18 369.23,-333.78 358.56,-330.44"/>
<polygon fill="#63b8ff" stroke="#63b8ff" points="447.86,-402.7 458.45,-402.46 450.03,-396.04 447.86,-402.7"/>
</a>
</g>
</g>
<!-- Node14&#45;&gt;Node7 -->
<g id="edge28_Node000014_Node000007" class="edge">
<title>Node14&#45;&gt;Node7</title>
<g id="a_edge28_Node000014_Node000007"><a xlink:title=" ">
<path fill="none" stroke="#63b8ff" d="M453.88,-423.11C421.05,-428.31 382.34,-434.45 350.83,-439.44"/>
<polygon fill="#63b8ff" stroke="#63b8ff" points="454.54,-426.55 463.87,-421.53 453.44,-419.64 454.54,-426.55"/>
</a>
</g>
</g>
<!-- Node14&#45;&gt;Node9 -->
<g id="edge29_Node000014_Node000009" class="edge">
<title>Node14&#45;&gt;Node9</title>
<g id="a_edge29_Node000014_Node000009"><a xlink:title=" ">
<path fill="none" stroke="#63b8ff" d="M447.63,-420.77C439.74,-423.16 432.04,-426.19 425,-430 404.54,-441.07 409.45,-456.92 389,-468 378.38,-473.76 366.26,-477.71 354.25,-480.42"/>
<polygon fill="#63b8ff" stroke="#63b8ff" points="448.58,-424.13 457.32,-418.14 446.75,-417.38 448.58,-424.13"/>
</a>
</g>
</g>
<!-- Node14&#45;&gt;Node10 -->
<g id="edge30_Node000014_Node000010" class="edge">
<title>Node14&#45;&gt;Node10</title>
<g id="a_edge30_Node000014_Node000010"><a xlink:title=" ">
<path fill="none" stroke="#63b8ff" d="M447.37,-410.03C420.76,-409.35 390.97,-408.58 364.57,-407.9"/>
<polygon fill="#63b8ff" stroke="#63b8ff" points="447.31,-413.53 457.4,-410.29 447.49,-406.53 447.31,-413.53"/>
</a>
</g>
</g>
<!-- Node14&#45;&gt;Node11 -->
<g id="edge35_Node000014_Node000011" class="edge">
<title>Node14&#45;&gt;Node11</title>
<g id="a_edge35_Node000014_Node000011"><a xlink:title=" ">
<path fill="none" stroke="#63b8ff" d="M472.36,-400.17C447.24,-394.5 416.58,-387.72 389,-382 373.57,-378.8 356.74,-375.48 341.42,-372.54"/>
<polygon fill="#63b8ff" stroke="#63b8ff" points="471.88,-403.65 482.41,-402.44 473.43,-396.82 471.88,-403.65"/>
</a>
</g>
</g>
<!-- Node14&#45;&gt;Node12 -->
<g id="edge36_Node000014_Node000012" class="edge">
<title>Node14&#45;&gt;Node12</title>
<g id="a_edge36_Node000014_Node000012"><a xlink:title=" ">
<path fill="none" stroke="#63b8ff" d="M494.2,-397.65C473.25,-386.59 445.43,-369.86 425,-350 404.32,-329.9 413.02,-311.97 389,-296 380.88,-290.6 371.6,-286.65 362.05,-283.78"/>
<polygon fill="#63b8ff" stroke="#63b8ff" points="492.79,-400.86 503.29,-402.32 495.99,-394.64 492.79,-400.86"/>
</a>
</g>
</g>
</g>
</svg>

<g id="navigator" transform="translate(0 0)" fill="#404254">
  <rect fill="#f2f5e9" fill-opacity="0.5" stroke="#606060" stroke-width=".5" x="0" y="0" width="60" height="60"/>
  <use id="zoomplus" xlink:href="#zoomPlus" x="17" y="9" onmousedown="handleZoom(evt,'in')"/>
  <use id="zoomminus" xlink:href="#zoomMin" x="42" y="9" onmousedown="handleZoom(evt,'out')"/>
  <use id="reset" xlink:href="#resetDef" x="30" y="36" onmousedown="handleReset()"/>
   <use id="arrowup" xlink:href="#arrowUp" x="0" y="0" onmousedown="handlePan(0,-1)"/>
  <use id="arrowright" xlink:href="#arrowRight" x="0" y="0" onmousedown="handlePan(1,0)"/>
  <use id="arrowdown" xlink:href="#arrowDown" x="0" y="0" onmousedown="handlePan(0,1)"/>
  <use id="arrowleft" xlink:href="#arrowLeft" x="0" y="0" onmousedown="handlePan(-1,0)"/>
</g>
<svg viewBox="0 0 15 15" width="100%" height="30px" preserveAspectRatio="xMaxYMin meet">
 <g id="arrow_out" transform="scale(0.3 0.3)">
  <a xlink:href="classcam_1_1nc_1_1grbl_1_1Creator_a15f6e82b34a67ac95a9583b2b998d254_icgraph_org.svg" target="_base">
   <rect id="button" ry="5" rx="5" y="6" x="6" height="38" width="38"
        fill="#f2f5e9" fill-opacity="0.5" stroke="#606060" stroke-width="1.0"/>
   <path id="arrow"
     d="M 11.500037,31.436501 C 11.940474,20.09759 22.043105,11.32322 32.158766,21.979434 L 37.068811,17.246167 C 37.068811,17.246167 37.088388,32 37.088388,32 L 22.160133,31.978069 C 22.160133,31.978069 26.997745,27.140456 26.997745,27.140456 C 18.528582,18.264221 13.291696,25.230495 11.500037,31.436501 z"
     style="fill:#404040;"/>
  </a>
 </g>
</svg>

<style type='text/css'>
<![CDATA[
[data-mouse-over-selected='false'] { opacity: 0.7; }
[data-mouse-over-selected='true']  { opacity: 1.0; }
]]>
</style>
<script type="application/ecmascript"><![CDATA[
document.addEventListener('DOMContentLoaded', (event) => {
  highlightEdges();
  highlightAdjacentNodes();
});
]]></script>
</svg>
