<?xml version="1.0" encoding="UTF-8" standalone="no"?>
<!DOCTYPE svg PUBLIC "-//W3C//DTD SVG 1.1//EN"
 "http://www.w3.org/Graphics/SVG/1.1/DTD/svg11.dtd">
<!-- Generated by graphviz version 2.43.0 (0)
 -->
<!-- Title: pie_info.VIEW3D_MT_PIE_Info Pages: 1 -->
<svg width="261pt" height="336pt"
 viewBox="0.00 0.00 261.00 336.00" xmlns="http://www.w3.org/2000/svg" xmlns:xlink="http://www.w3.org/1999/xlink">

<svg id="main" version="1.1" xmlns="http://www.w3.org/2000/svg" xmlns:xlink="http://www.w3.org/1999/xlink" xml:space="preserve" onload="init(evt)">
<style type="text/css"><![CDATA[
.node, .edge {opacity: 0.7;}
.node.selected, .edge.selected {opacity: 1;}
.edge:hover path { stroke: red; }
.edge:hover polygon { stroke: red; fill: red; }
]]></style>
<script type="application/ecmascript" xlink:href="svg.min.js"/>
<svg id="graph" class="graph">
<g id="graph0" class="graph" transform="scale(1 1) rotate(0) translate(4 332)">
<title>pie_info.VIEW3D_MT_PIE_Info</title>
<!-- Node1 -->
<g id="Node000001" class="node">
<title>Node1</title>
<g id="a_Node000001"><a xlink:title=" ">
<polygon fill="#999999" stroke="transparent" points="124,-210 12,-210 12,0 124,0 124,-210"/>
<text text-anchor="start" x="17" y="-198" font-family="Helvetica,sans-Serif" font-size="10.00">pie_info.VIEW3D_MT</text>
<text text-anchor="start" x="45.5" y="-187" font-family="Helvetica,sans-Serif" font-size="10.00">_PIE_Info</text>
<text text-anchor="start" x="29" y="-172" font-family="Helvetica,sans-Serif" font-size="10.00">+</text>
<text text-anchor="start" x="55" y="-172" font-family="Helvetica,sans-Serif" font-size="10.00">text</text>
<text text-anchor="start" x="29" y="-157" font-family="Helvetica,sans-Serif" font-size="10.00">+</text>
<text text-anchor="start" x="55" y="-157" font-family="Helvetica,sans-Serif" font-size="10.00">box</text>
<text text-anchor="start" x="29" y="-142" font-family="Helvetica,sans-Serif" font-size="10.00">+</text>
<text text-anchor="start" x="55" y="-142" font-family="Helvetica,sans-Serif" font-size="10.00">column</text>
<text text-anchor="start" x="29" y="-127" font-family="Helvetica,sans-Serif" font-size="10.00">+</text>
<text text-anchor="start" x="55" y="-127" font-family="Helvetica,sans-Serif" font-size="10.00">row</text>
<text text-anchor="start" x="29" y="-112" font-family="Helvetica,sans-Serif" font-size="10.00">+</text>
<text text-anchor="start" x="55" y="-112" font-family="Helvetica,sans-Serif" font-size="10.00">alert</text>
<text text-anchor="start" x="29" y="-97" font-family="Helvetica,sans-Serif" font-size="10.00">+</text>
<text text-anchor="start" x="55" y="-97" font-family="Helvetica,sans-Serif" font-size="10.00">line</text>
<text text-anchor="start" x="29" y="-82" font-family="Helvetica,sans-Serif" font-size="10.00">+</text>
<text text-anchor="start" x="55" y="-82" font-family="Helvetica,sans-Serif" font-size="10.00">icon</text>
<text text-anchor="start" x="29" y="-67" font-family="Helvetica,sans-Serif" font-size="10.00">+</text>
<text text-anchor="start" x="55" y="-67" font-family="Helvetica,sans-Serif" font-size="10.00">scale_y</text>
<text text-anchor="start" x="29" y="-52" font-family="Helvetica,sans-Serif" font-size="10.00">+</text>
<text text-anchor="start" x="55" y="-52" font-family="Helvetica,sans-Serif" font-size="10.00">scale_x</text>
<text text-anchor="start" x="29" y="-37" font-family="Helvetica,sans-Serif" font-size="10.00">+</text>
<text text-anchor="start" x="55" y="-37" font-family="Helvetica,sans-Serif" font-size="10.00">emboss</text>
<text text-anchor="start" x="29" y="-22" font-family="Helvetica,sans-Serif" font-size="10.00">+</text>
<text text-anchor="start" x="55" y="-22" font-family="Helvetica,sans-Serif" font-size="10.00">name</text>
<text text-anchor="start" x="29" y="-7" font-family="Helvetica,sans-Serif" font-size="10.00">+</text>
<text text-anchor="start" x="55" y="-7" font-family="Helvetica,sans-Serif" font-size="10.00">draw()</text>
<polygon fill="#666666" stroke="#666666" points="12,-182 12,-182 124,-182 124,-182 12,-182"/>
<polygon fill="#666666" stroke="#666666" points="12,-17 12,-17 53,-17 53,-17 12,-17"/>
<polygon fill="#666666" stroke="#666666" points="53,-17 53,-17 124,-17 124,-17 53,-17"/>
<polygon fill="none" stroke="#666666" points="12,0 12,-210 124,-210 124,0 12,0"/>
</a>
</g>
</g>
<!-- Node2 -->
<g id="Node000002" class="node">
<title>Node2</title>
<g id="a_Node000002"><a xlink:title=" ">
<polygon fill="white" stroke="transparent" points="38,-328 0,-328 0,-279 38,-279 38,-328"/>
<text text-anchor="start" x="5" y="-315.5" font-family="Helvetica,sans-Serif" font-size="10.00">Menu</text>
<text text-anchor="start" x="17" y="-300.5" font-family="Helvetica,sans-Serif" font-size="10.00"> </text>
<text text-anchor="start" x="17" y="-285.5" font-family="Helvetica,sans-Serif" font-size="10.00"> </text>
<polygon fill="#666666" stroke="#666666" points="0,-310.5 0,-310.5 38,-310.5 38,-310.5 0,-310.5"/>
<polygon fill="#666666" stroke="#666666" points="0,-295.5 0,-295.5 38,-295.5 38,-295.5 0,-295.5"/>
<polygon fill="none" stroke="#666666" points="0,-279 0,-328 38,-328 38,-279 0,-279"/>
</a>
</g>
</g>
<!-- Node2&#45;&gt;Node1 -->
<g id="edge1_Node000001_Node000002" class="edge">
<title>Node2&#45;&gt;Node1</title>
<g id="a_edge1_Node000001_Node000002"><a xlink:title=" ">
<path fill="none" stroke="#63b8ff" d="M27.45,-268.63C31.56,-252.14 36.74,-231.34 42.02,-210.17"/>
<polygon fill="none" stroke="#63b8ff" points="23.93,-268.25 24.91,-278.8 30.73,-269.94 23.93,-268.25"/>
</a>
</g>
</g>
<!-- Node3 -->
<g id="Node000003" class="node">
<title>Node3</title>
<g id="a_Node000003"><a xlink:title=" ">
<polygon fill="white" stroke="transparent" points="79.5,-328 56.5,-328 56.5,-279 79.5,-279 79.5,-328"/>
<text text-anchor="start" x="62" y="-315.5" font-family="Helvetica,sans-Serif" font-size="10.00">str</text>
<text text-anchor="start" x="66.5" y="-300.5" font-family="Helvetica,sans-Serif" font-size="10.00"> </text>
<text text-anchor="start" x="66.5" y="-285.5" font-family="Helvetica,sans-Serif" font-size="10.00"> </text>
<polygon fill="#666666" stroke="#666666" points="57,-310.5 57,-310.5 80,-310.5 80,-310.5 57,-310.5"/>
<polygon fill="#666666" stroke="#666666" points="57,-295.5 57,-295.5 80,-295.5 80,-295.5 57,-295.5"/>
<polygon fill="none" stroke="#666666" points="56.5,-279 56.5,-328 79.5,-328 79.5,-279 56.5,-279"/>
</a>
</g>
</g>
<!-- Node3&#45;&gt;Node1 -->
<g id="edge2_Node000001_Node000003" class="edge">
<title>Node3&#45;&gt;Node1</title>
<g id="a_edge2_Node000001_Node000003"><a xlink:title=" ">
<path fill="none" stroke="#63b8ff" d="M68,-278.8C68,-263.98 68,-243.68 68,-222.2"/>
<polygon fill="none" stroke="#63b8ff" points="68,-222.17 64,-216.17 68,-210.17 72,-216.17 68,-222.17"/>
</a>
</g>
<text text-anchor="middle" x="108" y="-253" font-family="Helvetica,sans-Serif" font-size="10.00" fill="grey"> +bl_label</text>
<text text-anchor="middle" x="108" y="-242" font-family="Helvetica,sans-Serif" font-size="10.00" fill="grey">+op_cost</text>
<text text-anchor="middle" x="108" y="-231" font-family="Helvetica,sans-Serif" font-size="10.00" fill="grey">+time_estimate</text>
</g>
<!-- Node4 -->
<g id="Node000004" class="node">
<title>Node4</title>
<g id="a_Node000004"><a xlink:title=" ">
<polygon fill="white" stroke="transparent" points="182.5,-328 159.5,-328 159.5,-279 182.5,-279 182.5,-328"/>
<text text-anchor="start" x="165" y="-315.5" font-family="Helvetica,sans-Serif" font-size="10.00">int</text>
<text text-anchor="start" x="169.5" y="-300.5" font-family="Helvetica,sans-Serif" font-size="10.00"> </text>
<text text-anchor="start" x="169.5" y="-285.5" font-family="Helvetica,sans-Serif" font-size="10.00"> </text>
<polygon fill="#666666" stroke="#666666" points="160,-310.5 160,-310.5 183,-310.5 183,-310.5 160,-310.5"/>
<polygon fill="#666666" stroke="#666666" points="160,-295.5 160,-295.5 183,-295.5 183,-295.5 160,-295.5"/>
<polygon fill="none" stroke="#666666" points="159.5,-279 159.5,-328 182.5,-328 182.5,-279 159.5,-279"/>
</a>
</g>
</g>
<!-- Node4&#45;&gt;Node1 -->
<g id="edge3_Node000001_Node000004" class="edge">
<title>Node4&#45;&gt;Node1</title>
<g id="a_edge3_Node000001_Node000004"><a xlink:title=" ">
<path fill="none" stroke="#63b8ff" d="M165.9,-278.69C162.23,-263.73 156.59,-244.25 149,-228 143.61,-216.45 137.22,-204.74 130.43,-193.38"/>
<polygon fill="none" stroke="#63b8ff" points="130.38,-193.29 123.83,-190.26 124.11,-183.06 130.65,-186.08 130.38,-193.29"/>
</a>
</g>
<text text-anchor="middle" x="206.5" y="-247.5" font-family="Helvetica,sans-Serif" font-size="10.00" fill="grey"> +cost_per_second</text>
<text text-anchor="middle" x="206.5" y="-236.5" font-family="Helvetica,sans-Serif" font-size="10.00" fill="grey">+total_cost</text>
</g>
</g>
</svg>
</svg>

<style type='text/css'>
<![CDATA[
[data-mouse-over-selected='false'] { opacity: 0.7; }
[data-mouse-over-selected='true']  { opacity: 1.0; }
]]>
</style>
<script type="application/ecmascript"><![CDATA[
document.addEventListener('DOMContentLoaded', (event) => {
  highlightEdges();
  highlightAdjacentNodes();
});
]]></script>
</svg>
