<?xml version="1.0" encoding="UTF-8" standalone="no"?>
<!DOCTYPE svg PUBLIC "-//W3C//DTD SVG 1.1//EN"
 "http://www.w3.org/Graphics/SVG/1.1/DTD/svg11.dtd">
<!-- Generated by graphviz version 2.43.0 (0)
 -->
<!-- Title: cam.nc.iso.Creator.remove_temporary_origin Pages: 1 -->
<!--zoomable 1016 -->

<svg id="main" version="1.1" xmlns="http://www.w3.org/2000/svg" xmlns:xlink="http://www.w3.org/1999/xlink" xml:space="preserve" onload="init(evt)">
<style type="text/css"><![CDATA[
.node, .edge {opacity: 0.7;}
.node.selected, .edge.selected {opacity: 1;}
.edge:hover path { stroke: red; }
.edge:hover polygon { stroke: red; fill: red; }
]]></style>

<defs>
  <circle id="rim" cx="0" cy="0" r="7"/>
  <circle id="rim2" cx="0" cy="0" r="3.5"/>
  <g id="zoomPlus">
    <use xlink:href="#rim" fill="#404040"><set attributeName="fill" to="#808080" begin="zoomplus.mouseover" end="zoomplus.mouseout"/></use>
    <path d="M-4,0h8M0,-4v8" fill="none" stroke="white" stroke-width="1.5" pointer-events="none"/>
  </g>
  <g id="zoomMin">
    <use xlink:href="#rim" fill="#404040"><set attributeName="fill" to="#808080" begin="zoomminus.mouseover" end="zoomminus.mouseout"/></use>
    <path d="M-4,0h8" fill="none" stroke="white" stroke-width="1.5" pointer-events="none"/>
  </g>
  <g id="arrowUp" transform="translate(30 24)">
    <use xlink:href="#rim"/>
    <path pointer-events="none" fill="none" stroke="white" stroke-width="1.5" d="M0,-3.0v7 M-2.5,-0.5L0,-3.0L2.5,-0.5"/>
  </g>
  <g id="arrowRight" transform="rotate(90) translate(36 -43)">
    <use xlink:href="#rim"/>
    <path pointer-events="none" fill="none" stroke="white" stroke-width="1.5" d="M0,-3.0v7 M-2.5,-0.5L0,-3.0L2.5,-0.5"/>
  </g>
  <g id="arrowDown" transform="rotate(180) translate(-30 -48)">
    <use xlink:href="#rim"/>
    <path pointer-events="none" fill="none" stroke="white" stroke-width="1.5" d="M0,-3.0v7 M-2.5,-0.5L0,-3.0L2.5,-0.5"/>
  </g>
  <g id="arrowLeft" transform="rotate(270) translate(-36 17)">
    <use xlink:href="#rim"/>
    <path pointer-events="none" fill="none" stroke="white" stroke-width="1.5" d="M0,-3.0v7 M-2.5,-0.5L0,-3.0L2.5,-0.5"/>
  </g>
  <g id="resetDef">
    <use xlink:href="#rim2" fill="#404040"><set attributeName="fill" to="#808080" begin="reset.mouseover" end="reset.mouseout"/></use>
  </g>
</defs>
<script type="application/ecmascript">
var viewWidth = 1308;
var viewHeight = 1016;
var sectionId = 'dynsection-95';
</script>
<script type="application/ecmascript" xlink:href="svg.min.js"/>
<svg id="graph" class="graph">
<g id="viewport">
<title>cam.nc.iso.Creator.remove_temporary_origin</title>
<!-- Node1 -->
<g id="Node000001" class="node">
<title>Node1</title>
<g id="a_Node000001"><a xlink:title=" ">
<polygon fill="#999999" stroke="#666666" points="148,-603 0,-603 0,-573 148,-573 148,-603"/>
<text text-anchor="start" x="8" y="-591" font-family="Helvetica,sans-Serif" font-size="10.00">cam.nc.iso.Creator.remove</text>
<text text-anchor="middle" x="74" y="-580" font-family="Helvetica,sans-Serif" font-size="10.00">_temporary_origin</text>
</a>
</g>
</g>
<!-- Node2 -->
<g id="Node000002" class="node">
<title>Node2</title>
<g id="a_Node000002"><a xlink:href="classcam_1_1nc_1_1heiden_1_1Creator.html#ad7110fc80f6a5e1d010485aebf55f531" target="_top" xlink:title=" ">
<polygon fill="white" stroke="#666666" points="401,-1008 205,-1008 205,-978 401,-978 401,-1008"/>
<text text-anchor="start" x="213" y="-996" font-family="Helvetica,sans-Serif" font-size="10.00">cam.nc.heiden.Creator.REMOVE</text>
<text text-anchor="middle" x="303" y="-985" font-family="Helvetica,sans-Serif" font-size="10.00">_TEMPORARY_COORDINATE_SYSTEM</text>
</a>
</g>
</g>
<!-- Node1&#45;&gt;Node2 -->
<g id="edge1_Node000001_Node000002" class="edge">
<title>Node1&#45;&gt;Node2</title>
<g id="a_edge1_Node000001_Node000002"><a xlink:title=" ">
<path fill="none" stroke="#63b8ff" d="M77.22,-603.2C86.95,-667.59 127.81,-917.03 184,-969 187.65,-972.37 191.63,-975.32 195.86,-977.91"/>
<polygon fill="#63b8ff" stroke="#63b8ff" points="194.38,-981.09 204.85,-982.7 197.68,-974.91 194.38,-981.09"/>
</a>
</g>
</g>
<!-- Node3 -->
<g id="Node000003" class="node">
<title>Node3</title>
<g id="a_Node000003"><a xlink:href="classcam_1_1nc_1_1iso_1_1Creator.html#ad78ac0eba4ccd0f101443906c0392783" target="_top" xlink:title=" ">
<polygon fill="white" stroke="#666666" points="401,-960 205,-960 205,-930 401,-930 401,-960"/>
<text text-anchor="start" x="213" y="-948" font-family="Helvetica,sans-Serif" font-size="10.00">cam.nc.iso.Creator.REMOVE</text>
<text text-anchor="middle" x="303" y="-937" font-family="Helvetica,sans-Serif" font-size="10.00">_TEMPORARY_COORDINATE_SYSTEM</text>
</a>
</g>
</g>
<!-- Node1&#45;&gt;Node3 -->
<g id="edge2_Node000001_Node000003" class="edge">
<title>Node1&#45;&gt;Node3</title>
<g id="a_edge2_Node000001_Node000003"><a xlink:title=" ">
<path fill="none" stroke="#63b8ff" d="M75.18,-603.08C76.64,-655.02 88.76,-828.08 184,-916 187.68,-919.4 191.7,-922.42 195.95,-925.09"/>
<polygon fill="#63b8ff" stroke="#63b8ff" points="194.54,-928.32 204.98,-930.13 197.95,-922.2 194.54,-928.32"/>
</a>
</g>
</g>
<!-- Node4 -->
<g id="Node000004" class="node">
<title>Node4</title>
<g id="a_Node000004"><a xlink:href="classcam_1_1nc_1_1makerbot__codes_1_1Codes.html#adf0e4de0e679428b138cd19b60aca8fc" target="_top" xlink:title=" ">
<polygon fill="white" stroke="#666666" points="422,-722 184,-722 184,-692 422,-692 422,-722"/>
<text text-anchor="start" x="192" y="-710" font-family="Helvetica,sans-Serif" font-size="10.00">cam.nc.makerbot_codes.Codes.</text>
<text text-anchor="middle" x="303" y="-699" font-family="Helvetica,sans-Serif" font-size="10.00">REMOVE_TEMPORARY_COORDINATE_SYSTEM</text>
</a>
</g>
</g>
<!-- Node1&#45;&gt;Node4 -->
<g id="edge3_Node000001_Node000004" class="edge">
<title>Node1&#45;&gt;Node4</title>
<g id="a_edge3_Node000001_Node000004"><a xlink:title=" ">
<path fill="none" stroke="#63b8ff" d="M88.97,-603.19C108.36,-623.34 145.41,-658.61 184,-678 192.32,-682.18 201.29,-685.78 210.42,-688.88"/>
<polygon fill="#63b8ff" stroke="#63b8ff" points="209.39,-692.23 219.98,-691.93 211.52,-685.56 209.39,-692.23"/>
</a>
</g>
</g>
<!-- Node5 -->
<g id="Node000005" class="node">
<title>Node5</title>
<g id="a_Node000005"><a xlink:href="classcam_1_1nc_1_1emc2_1_1Creator.html#a47a9e4f5f35681f580765bba2f0f97a5" target="_top" xlink:title=" ">
<polygon fill="white" stroke="#666666" points="620.5,-910.5 466.5,-910.5 466.5,-891.5 620.5,-891.5 620.5,-910.5"/>
<text text-anchor="middle" x="543.5" y="-898.5" font-family="Helvetica,sans-Serif" font-size="10.00">cam.nc.emc2.Creator.SPACE</text>
</a>
</g>
</g>
<!-- Node1&#45;&gt;Node5 -->
<g id="edge21_Node000001_Node000005" class="edge">
<title>Node1&#45;&gt;Node5</title>
<g id="a_edge21_Node000001_Node000005"><a xlink:title=" ">
<path fill="none" stroke="#63b8ff" d="M75.58,-603.23C78.32,-651.78 94.06,-803.57 184,-871 225.48,-902.1 363.95,-905.48 456.15,-904.01"/>
<polygon fill="#63b8ff" stroke="#63b8ff" points="456.38,-907.51 466.32,-903.83 456.26,-900.51 456.38,-907.51"/>
</a>
</g>
</g>
<!-- Node6 -->
<g id="Node000006" class="node">
<title>Node6</title>
<g id="a_Node000006"><a xlink:href="classcam_1_1nc_1_1emc2b_1_1Creator.html#abff5586e78bb91681bd41dafdea5a9e7" target="_top" xlink:title=" ">
<polygon fill="white" stroke="#666666" points="623.5,-872.5 463.5,-872.5 463.5,-853.5 623.5,-853.5 623.5,-872.5"/>
<text text-anchor="middle" x="543.5" y="-860.5" font-family="Helvetica,sans-Serif" font-size="10.00">cam.nc.emc2b.Creator.SPACE</text>
</a>
</g>
</g>
<!-- Node1&#45;&gt;Node6 -->
<g id="edge22_Node000001_Node000006" class="edge">
<title>Node1&#45;&gt;Node6</title>
<g id="a_edge22_Node000001_Node000006"><a xlink:title=" ">
<path fill="none" stroke="#63b8ff" d="M76.56,-603.02C82.02,-646.9 104.43,-775.38 184,-832 274.18,-896.17 411.24,-886.37 487.1,-874.25"/>
<polygon fill="#63b8ff" stroke="#63b8ff" points="488.1,-877.63 497.39,-872.53 486.95,-870.72 488.1,-877.63"/>
</a>
</g>
</g>
<!-- Node7 -->
<g id="Node000007" class="node">
<title>Node7</title>
<g id="a_Node000007"><a xlink:href="classcam_1_1nc_1_1emc2tap_1_1CodesEMC2.html#a6a0d71a1c6e9f8a80228dc220a0e57ca" target="_top" xlink:title=" ">
<polygon fill="white" stroke="#666666" points="624,-835 463,-835 463,-805 624,-805 624,-835"/>
<text text-anchor="start" x="471" y="-823" font-family="Helvetica,sans-Serif" font-size="10.00">cam.nc.emc2tap.CodesEMC2.</text>
<text text-anchor="middle" x="543.5" y="-812" font-family="Helvetica,sans-Serif" font-size="10.00">SPACE</text>
</a>
</g>
</g>
<!-- Node1&#45;&gt;Node7 -->
<g id="edge23_Node000001_Node000007" class="edge">
<title>Node1&#45;&gt;Node7</title>
<g id="a_edge23_Node000001_Node000007"><a xlink:title=" ">
<path fill="none" stroke="#63b8ff" d="M77.77,-603.09C85.91,-642.59 113.75,-749.19 184,-795 264.15,-847.27 376.93,-845.88 454.48,-836.37"/>
<polygon fill="#63b8ff" stroke="#63b8ff" points="455.24,-839.8 464.71,-835.04 454.34,-832.86 455.24,-839.8"/>
</a>
</g>
</g>
<!-- Node8 -->
<g id="Node000008" class="node">
<title>Node8</title>
<g id="a_Node000008"><a xlink:href="classcam_1_1nc_1_1heiden_1_1Creator.html#a2c4277ffddaea0f92c906c6744f7a3bd" target="_top" xlink:title="Codes.">
<polygon fill="white" stroke="#666666" points="623.5,-786.5 463.5,-786.5 463.5,-767.5 623.5,-767.5 623.5,-786.5"/>
<text text-anchor="middle" x="543.5" y="-774.5" font-family="Helvetica,sans-Serif" font-size="10.00">cam.nc.heiden.Creator.SPACE</text>
</a>
</g>
</g>
<!-- Node1&#45;&gt;Node8 -->
<g id="edge24_Node000001_Node000008" class="edge">
<title>Node1&#45;&gt;Node8</title>
<g id="a_edge24_Node000001_Node000008"><a xlink:title=" ">
<path fill="none" stroke="#63b8ff" d="M79.23,-603.03C89.98,-638.08 122.01,-724.96 184,-761 281.1,-817.45 419.22,-802.33 492.44,-788.45"/>
<polygon fill="#63b8ff" stroke="#63b8ff" points="493.19,-791.87 502.33,-786.5 491.84,-785 493.19,-791.87"/>
</a>
</g>
</g>
<!-- Node9 -->
<g id="Node000009" class="node">
<title>Node9</title>
<g id="a_Node000009"><a xlink:href="classcam_1_1nc_1_1heiden530_1_1Creator.html#aa64b19b0edc2ac1f2d568b09ca2aebcb" target="_top" xlink:title="Codes.">
<polygon fill="white" stroke="#666666" points="617,-749 470,-749 470,-719 617,-719 617,-749"/>
<text text-anchor="start" x="478" y="-737" font-family="Helvetica,sans-Serif" font-size="10.00">cam.nc.heiden530.Creator.</text>
<text text-anchor="middle" x="543.5" y="-726" font-family="Helvetica,sans-Serif" font-size="10.00">SPACE</text>
</a>
</g>
</g>
<!-- Node1&#45;&gt;Node9 -->
<g id="edge25_Node000001_Node000009" class="edge">
<title>Node1&#45;&gt;Node9</title>
<g id="a_edge25_Node000001_Node000009"><a xlink:title=" ">
<path fill="none" stroke="#63b8ff" d="M81.14,-603.37C94.46,-634.34 129.28,-703.62 184,-731 274.96,-776.51 395.87,-765.14 471.43,-750.97"/>
<polygon fill="#63b8ff" stroke="#63b8ff" points="472.18,-754.39 481.33,-749.04 470.85,-747.52 472.18,-754.39"/>
</a>
</g>
</g>
<!-- Node10 -->
<g id="Node000010" class="node">
<title>Node10</title>
<g id="a_Node000010"><a xlink:href="classcam_1_1nc_1_1iso_1_1Creator.html#a79463d437baaaf23c828a2c9e62393f3" target="_top" xlink:title=" ">
<polygon fill="white" stroke="#666666" points="614,-700.5 473,-700.5 473,-681.5 614,-681.5 614,-700.5"/>
<text text-anchor="middle" x="543.5" y="-688.5" font-family="Helvetica,sans-Serif" font-size="10.00">cam.nc.iso.Creator.SPACE</text>
</a>
</g>
</g>
<!-- Node1&#45;&gt;Node10 -->
<g id="edge26_Node000001_Node000010" class="edge">
<title>Node1&#45;&gt;Node10</title>
<g id="a_edge26_Node000001_Node000010"><a xlink:title=" ">
<path fill="none" stroke="#63b8ff" d="M103.82,-603.19C125.36,-613.92 155.81,-627.79 184,-636 277.68,-663.3 389.31,-677.7 462.83,-684.82"/>
<polygon fill="#63b8ff" stroke="#63b8ff" points="462.66,-688.32 472.94,-685.77 463.32,-681.35 462.66,-688.32"/>
</a>
</g>
</g>
<!-- Node18 -->
<g id="Node000018" class="node">
<title>Node18</title>
<g id="a_Node000018"><a xlink:href="classcam_1_1nc_1_1makerbot__codes_1_1Codes.html#a497077e0e500cc8f419b8f3f61f008b4" target="_top" xlink:title=" ">
<polygon fill="white" stroke="#666666" points="629,-663 458,-663 458,-633 629,-633 629,-663"/>
<text text-anchor="start" x="466" y="-651" font-family="Helvetica,sans-Serif" font-size="10.00">cam.nc.makerbot_codes.Codes.</text>
<text text-anchor="middle" x="543.5" y="-640" font-family="Helvetica,sans-Serif" font-size="10.00">SPACE</text>
</a>
</g>
</g>
<!-- Node1&#45;&gt;Node18 -->
<g id="edge27_Node000001_Node000018" class="edge">
<title>Node1&#45;&gt;Node18</title>
<g id="a_edge27_Node000001_Node000018"><a xlink:title=" ">
<path fill="none" stroke="#63b8ff" d="M148.15,-602.95C160.1,-605.14 172.38,-607.25 184,-609 273.14,-622.41 375.41,-633.07 447.84,-639.84"/>
<polygon fill="#63b8ff" stroke="#63b8ff" points="447.58,-643.33 457.86,-640.76 448.23,-636.36 447.58,-643.33"/>
</a>
</g>
</g>
<!-- Node19 -->
<g id="Node000019" class="node">
<title>Node19</title>
<g id="a_Node000019"><a xlink:href="classcam_1_1nc_1_1series1_1_1Creator.html#a75918d23eef609baab85058fda3050d5" target="_top" xlink:title=" ">
<polygon fill="white" stroke="#666666" points="624.5,-613.5 462.5,-613.5 462.5,-594.5 624.5,-594.5 624.5,-613.5"/>
<text text-anchor="middle" x="543.5" y="-601.5" font-family="Helvetica,sans-Serif" font-size="10.00">cam.nc.series1.Creator.SPACE</text>
</a>
</g>
</g>
<!-- Node1&#45;&gt;Node19 -->
<g id="edge28_Node000001_Node000019" class="edge">
<title>Node1&#45;&gt;Node19</title>
<g id="a_edge28_Node000001_Node000019"><a xlink:title=" ">
<path fill="none" stroke="#63b8ff" d="M148.05,-590.5C230.14,-593.31 363.5,-597.87 452.1,-600.91"/>
<polygon fill="#63b8ff" stroke="#63b8ff" points="452.02,-604.41 462.13,-601.25 452.26,-597.41 452.02,-604.41"/>
</a>
</g>
</g>
<!-- Node20 -->
<g id="Node000020" class="node">
<title>Node20</title>
<g id="a_Node000020"><a xlink:href="classcam_1_1nc_1_1shopbot__mtc_1_1Creator.html#a1512dbb5d0140eb216ed709a542261ac" target="_top" xlink:title="Codes.">
<polygon fill="white" stroke="#666666" points="623,-574 464,-574 464,-544 623,-544 623,-574"/>
<text text-anchor="start" x="472" y="-562" font-family="Helvetica,sans-Serif" font-size="10.00">cam.nc.shopbot_mtc.Creator.</text>
<text text-anchor="middle" x="543.5" y="-551" font-family="Helvetica,sans-Serif" font-size="10.00">SPACE</text>
</a>
</g>
</g>
<!-- Node1&#45;&gt;Node20 -->
<g id="edge29_Node000001_Node000020" class="edge">
<title>Node1&#45;&gt;Node20</title>
<g id="a_edge29_Node000001_Node000020"><a xlink:title=" ">
<path fill="none" stroke="#63b8ff" d="M148.05,-583.47C230.64,-578.35 365.1,-570 453.69,-564.51"/>
<polygon fill="#63b8ff" stroke="#63b8ff" points="453.96,-568 463.72,-563.89 453.53,-561.01 453.96,-568"/>
</a>
</g>
</g>
<!-- Node21 -->
<g id="Node000021" class="node">
<title>Node21</title>
<g id="a_Node000021"><a xlink:href="classcam_1_1nc_1_1tnc151_1_1Creator.html#af5d9e50b2ff0e73cd7524e2145d55d76" target="_top" xlink:title=" ">
<polygon fill="white" stroke="#666666" points="623.5,-521.5 463.5,-521.5 463.5,-502.5 623.5,-502.5 623.5,-521.5"/>
<text text-anchor="middle" x="543.5" y="-509.5" font-family="Helvetica,sans-Serif" font-size="10.00">cam.nc.tnc151.Creator.SPACE</text>
</a>
</g>
</g>
<!-- Node1&#45;&gt;Node21 -->
<g id="edge30_Node000001_Node000021" class="edge">
<title>Node1&#45;&gt;Node21</title>
<g id="a_edge30_Node000001_Node000021"><a xlink:title=" ">
<path fill="none" stroke="#63b8ff" d="M133.61,-572.93C149.86,-569.05 167.56,-565.1 184,-562 275.27,-544.79 380.65,-530.79 453.42,-522.02"/>
<polygon fill="#63b8ff" stroke="#63b8ff" points="453.96,-525.48 463.47,-520.82 453.12,-518.53 453.96,-525.48"/>
</a>
</g>
</g>
<!-- Node22 -->
<g id="Node000022" class="node">
<title>Node22</title>
<g id="a_Node000022"><a xlink:href="classcam_1_1nc_1_1cad__nc__read_1_1Parser.html#adcf2f47949df29f187f27fe985884633" target="_top" xlink:title=" ">
<polygon fill="white" stroke="#666666" points="391,-465.5 215,-465.5 215,-446.5 391,-446.5 391,-465.5"/>
<text text-anchor="middle" x="303" y="-453.5" font-family="Helvetica,sans-Serif" font-size="10.00">cam.nc.cad_nc_read.Parser.write</text>
</a>
</g>
</g>
<!-- Node1&#45;&gt;Node22 -->
<g id="edge31_Node000001_Node000022" class="edge">
<title>Node1&#45;&gt;Node22</title>
<g id="a_edge31_Node000001_Node000022"><a xlink:title=" ">
<path fill="none" stroke="#63b8ff" d="M89.95,-572.7C109.85,-553.08 146.86,-519.07 184,-498 206.24,-485.38 232.95,-475.49 255.33,-468.49"/>
<polygon fill="#63b8ff" stroke="#63b8ff" points="256.39,-471.82 264.95,-465.57 254.36,-465.12 256.39,-471.82"/>
</a>
</g>
</g>
<!-- Node23 -->
<g id="Node000023" class="node">
<title>Node23</title>
<g id="a_Node000023"><a xlink:href="classcam_1_1nc_1_1hxml__writer_1_1HxmlWriter.html#aed6f93c98cb8c0e3f3e826e75b6d6f15" target="_top" xlink:title=" ">
<polygon fill="white" stroke="#666666" points="402.5,-410.5 203.5,-410.5 203.5,-391.5 402.5,-391.5 402.5,-410.5"/>
<text text-anchor="middle" x="303" y="-398.5" font-family="Helvetica,sans-Serif" font-size="10.00">cam.nc.hxml_writer.HxmlWriter.write</text>
</a>
</g>
</g>
<!-- Node1&#45;&gt;Node23 -->
<g id="edge33_Node000001_Node000023" class="edge">
<title>Node1&#45;&gt;Node23</title>
<g id="a_edge33_Node000001_Node000023"><a xlink:title=" ">
<path fill="none" stroke="#63b8ff" d="M81.93,-572.75C96.46,-542.49 133.02,-474.63 184,-438 199.67,-426.74 218.87,-418.83 237.2,-413.3"/>
<polygon fill="#63b8ff" stroke="#63b8ff" points="238.3,-416.63 246.97,-410.54 236.4,-409.89 238.3,-416.63"/>
</a>
</g>
</g>
<!-- Node24 -->
<g id="Node000024" class="node">
<title>Node24</title>
<g id="a_Node000024"><a xlink:href="classcam_1_1nc_1_1iso_1_1Creator.html#abb81af5a0bdddfed387b71b68a51cc7a" target="_top" xlink:title="Internals.">
<polygon fill="white" stroke="#666666" points="370.5,-373.5 235.5,-373.5 235.5,-354.5 370.5,-354.5 370.5,-373.5"/>
<text text-anchor="middle" x="303" y="-361.5" font-family="Helvetica,sans-Serif" font-size="10.00">cam.nc.iso.Creator.write</text>
</a>
</g>
</g>
<!-- Node1&#45;&gt;Node24 -->
<g id="edge35_Node000001_Node000024" class="edge">
<title>Node1&#45;&gt;Node24</title>
<g id="a_edge35_Node000001_Node000024"><a xlink:title=" ">
<path fill="none" stroke="#63b8ff" d="M78.19,-572.84C87.18,-534.11 116.63,-431.19 184,-383 196.07,-374.37 210.6,-369.08 225.28,-365.93"/>
<polygon fill="#63b8ff" stroke="#63b8ff" points="226.22,-369.32 235.43,-364.08 224.97,-362.43 226.22,-369.32"/>
</a>
</g>
</g>
<!-- Node25 -->
<g id="Node000025" class="node">
<title>Node25</title>
<g id="a_Node000025"><a xlink:href="classcam_1_1nc_1_1nc_1_1Creator.html#a80f2134add83bfaaf2870d075d36ed8a" target="_top" xlink:title=" ">
<polygon fill="white" stroke="#666666" points="369,-318.5 237,-318.5 237,-299.5 369,-299.5 369,-318.5"/>
<text text-anchor="middle" x="303" y="-306.5" font-family="Helvetica,sans-Serif" font-size="10.00">cam.nc.nc.Creator.write</text>
</a>
</g>
</g>
<!-- Node1&#45;&gt;Node25 -->
<g id="edge36_Node000001_Node000025" class="edge">
<title>Node1&#45;&gt;Node25</title>
<g id="a_edge36_Node000001_Node000025"><a xlink:title=" ">
<path fill="none" stroke="#63b8ff" d="M77.39,-572.99C84.9,-530.77 111.96,-409.92 184,-346 196.57,-334.85 212.48,-327.06 228.51,-321.61"/>
<polygon fill="#63b8ff" stroke="#63b8ff" points="229.97,-324.83 238.49,-318.52 227.9,-318.14 229.97,-324.83"/>
</a>
</g>
</g>
<!-- Node26 -->
<g id="Node000026" class="node">
<title>Node26</title>
<g id="a_Node000026"><a xlink:href="classcam_1_1nc_1_1nclathe__read_1_1Parser.html#ab5ea283b461b57e48c8d5b0ad0a45694" target="_top" xlink:title=" ">
<polygon fill="white" stroke="#666666" points="392,-263.5 214,-263.5 214,-244.5 392,-244.5 392,-263.5"/>
<text text-anchor="middle" x="303" y="-251.5" font-family="Helvetica,sans-Serif" font-size="10.00">cam.nc.nclathe_read.Parser.write</text>
</a>
</g>
</g>
<!-- Node1&#45;&gt;Node26 -->
<g id="edge38_Node000001_Node000026" class="edge">
<title>Node1&#45;&gt;Node26</title>
<g id="a_edge38_Node000001_Node000026"><a xlink:title=" ">
<path fill="none" stroke="#63b8ff" d="M76,-572.85C80,-524.44 99.12,-371.91 184,-291 195.65,-279.9 210.59,-272.13 225.9,-266.68"/>
<polygon fill="#63b8ff" stroke="#63b8ff" points="227.01,-270 235.45,-263.59 224.86,-263.34 227.01,-270"/>
</a>
</g>
</g>
<!-- Node27 -->
<g id="Node000027" class="node">
<title>Node27</title>
<g id="a_Node000027"><a xlink:href="classcam_1_1nc_1_1recreator_1_1Redirector.html#a79cc974683588db3ef959189e7552c0d" target="_top" xlink:title="Programs.">
<polygon fill="white" stroke="#666666" points="392.5,-208.5 213.5,-208.5 213.5,-189.5 392.5,-189.5 392.5,-208.5"/>
<text text-anchor="middle" x="303" y="-196.5" font-family="Helvetica,sans-Serif" font-size="10.00">cam.nc.recreator.Redirector.write</text>
</a>
</g>
</g>
<!-- Node1&#45;&gt;Node27 -->
<g id="edge40_Node000001_Node000027" class="edge">
<title>Node1&#45;&gt;Node27</title>
<g id="a_edge40_Node000001_Node000027"><a xlink:title=" ">
<path fill="none" stroke="#63b8ff" d="M75,-572.83C75.83,-518.88 86.01,-334.34 184,-236 195,-224.96 209.25,-217.2 224.03,-211.76"/>
<polygon fill="#63b8ff" stroke="#63b8ff" points="225.4,-214.99 233.78,-208.51 223.19,-208.35 225.4,-214.99"/>
</a>
</g>
</g>
<!-- Node28 -->
<g id="Node000028" class="node">
<title>Node28</title>
<g id="a_Node000028"><a xlink:href="classcam_1_1nc_1_1format_1_1Address.html#aa21f0ffeb829537d9103759276c01a4b" target="_top" xlink:title=" ">
<polygon fill="white" stroke="#666666" points="382,-122.5 224,-122.5 224,-103.5 382,-103.5 382,-122.5"/>
<text text-anchor="middle" x="303" y="-110.5" font-family="Helvetica,sans-Serif" font-size="10.00">cam.nc.format.Address.write</text>
</a>
</g>
</g>
<!-- Node1&#45;&gt;Node28 -->
<g id="edge42_Node000001_Node000028" class="edge">
<title>Node1&#45;&gt;Node28</title>
<g id="a_edge42_Node000001_Node000028"><a xlink:title=" ">
<path fill="none" stroke="#63b8ff" d="M76.41,-572.78C83.39,-500.69 116.72,-194.42 184,-132 192.47,-124.14 202.84,-118.8 213.88,-115.26"/>
<polygon fill="#63b8ff" stroke="#63b8ff" points="214.99,-118.58 223.73,-112.59 213.16,-111.83 214.99,-118.58"/>
</a>
</g>
</g>
<!-- Node39 -->
<g id="Node000039" class="node">
<title>Node39</title>
<g id="a_Node000039"><a xlink:href="classcam_1_1nc_1_1format_1_1AddressPlusMinus.html#aaacea4c7b677f0a602dbc9023ff365d2" target="_top" xlink:title=" ">
<polygon fill="white" stroke="#666666" points="378,-171 228,-171 228,-141 378,-141 378,-171"/>
<text text-anchor="start" x="236" y="-159" font-family="Helvetica,sans-Serif" font-size="10.00">cam.nc.format.AddressPlus</text>
<text text-anchor="middle" x="303" y="-148" font-family="Helvetica,sans-Serif" font-size="10.00">Minus.write</text>
</a>
</g>
</g>
<!-- Node1&#45;&gt;Node39 -->
<g id="edge55_Node000001_Node000039" class="edge">
<title>Node1&#45;&gt;Node39</title>
<g id="a_edge55_Node000001_Node000039"><a xlink:title=" ">
<path fill="none" stroke="#63b8ff" d="M76.94,-572.66C85.77,-505.24 124.34,-236.16 184,-180 193.52,-171.04 205.44,-165.02 218.01,-161.05"/>
<polygon fill="#63b8ff" stroke="#63b8ff" points="218.99,-164.41 227.72,-158.39 217.15,-157.65 218.99,-164.41"/>
</a>
</g>
</g>
<!-- Node4&#45;&gt;Node5 -->
<g id="edge4_Node000004_Node000005" class="edge">
<title>Node4&#45;&gt;Node5</title>
<g id="a_edge4_Node000004_Node000005"><a xlink:title=" ">
<path fill="none" stroke="#63b8ff" d="M312.58,-722.02C333,-756.29 388.03,-840.52 458,-882 461.71,-884.2 465.65,-886.15 469.72,-887.87"/>
<polygon fill="#63b8ff" stroke="#63b8ff" points="468.82,-891.27 479.41,-891.49 471.27,-884.71 468.82,-891.27"/>
</a>
</g>
</g>
<!-- Node4&#45;&gt;Node6 -->
<g id="edge5_Node000004_Node000006" class="edge">
<title>Node4&#45;&gt;Node6</title>
<g id="a_edge5_Node000004_Node000006"><a xlink:title=" ">
<path fill="none" stroke="#63b8ff" d="M316.23,-722.08C340.23,-750.61 396.55,-812.47 458,-844 462.65,-846.38 467.59,-848.47 472.66,-850.3"/>
<polygon fill="#63b8ff" stroke="#63b8ff" points="471.93,-853.74 482.53,-853.5 474.09,-847.08 471.93,-853.74"/>
</a>
</g>
</g>
<!-- Node4&#45;&gt;Node7 -->
<g id="edge6_Node000004_Node000007" class="edge">
<title>Node4&#45;&gt;Node7</title>
<g id="a_edge6_Node000004_Node000007"><a xlink:title=" ">
<path fill="none" stroke="#63b8ff" d="M326.05,-722.1C355.16,-741.47 408.52,-775.06 458,-796 462.71,-797.99 467.63,-799.87 472.63,-801.64"/>
<polygon fill="#63b8ff" stroke="#63b8ff" points="471.72,-805.03 482.31,-804.89 473.95,-798.39 471.72,-805.03"/>
</a>
</g>
</g>
<!-- Node4&#45;&gt;Node8 -->
<g id="edge7_Node000004_Node000008" class="edge">
<title>Node4&#45;&gt;Node8</title>
<g id="a_edge7_Node000004_Node000008"><a xlink:title=" ">
<path fill="none" stroke="#63b8ff" d="M345.82,-722.09C376.6,-732.89 419.6,-747.35 458,-758 467.14,-760.53 476.91,-762.97 486.44,-765.21"/>
<polygon fill="#63b8ff" stroke="#63b8ff" points="485.72,-768.64 496.25,-767.46 487.28,-761.81 485.72,-768.64"/>
</a>
</g>
</g>
<!-- Node4&#45;&gt;Node9 -->
<g id="edge8_Node000004_Node000009" class="edge">
<title>Node4&#45;&gt;Node9</title>
<g id="a_edge8_Node000004_Node000009"><a xlink:title=" ">
<path fill="none" stroke="#63b8ff" d="M422.2,-720.38C434.92,-721.82 447.66,-723.26 459.83,-724.64"/>
<polygon fill="#63b8ff" stroke="#63b8ff" points="459.58,-728.14 469.91,-725.78 460.37,-721.18 459.58,-728.14"/>
</a>
</g>
</g>
<!-- Node4&#45;&gt;Node10 -->
<g id="edge9_Node000004_Node000010" class="edge">
<title>Node4&#45;&gt;Node10</title>
<g id="a_edge9_Node000004_Node000010"><a xlink:title=" ">
<path fill="none" stroke="#63b8ff" d="M422.2,-699.07C435.88,-698.15 449.58,-697.23 462.57,-696.36"/>
<polygon fill="#63b8ff" stroke="#63b8ff" points="463.09,-699.84 472.83,-695.67 462.62,-692.85 463.09,-699.84"/>
</a>
</g>
</g>
<!-- Node4&#45;&gt;Node18 -->
<g id="edge17_Node000004_Node000018" class="edge">
<title>Node4&#45;&gt;Node18</title>
<g id="a_edge17_Node000004_Node000018"><a xlink:title=" ">
<path fill="none" stroke="#63b8ff" d="M364.8,-691.96C397.46,-683.88 437.89,-673.88 471.93,-665.46"/>
<polygon fill="#63b8ff" stroke="#63b8ff" points="472.94,-668.81 481.81,-663.01 471.26,-662.02 472.94,-668.81"/>
</a>
</g>
</g>
<!-- Node4&#45;&gt;Node19 -->
<g id="edge18_Node000004_Node000019" class="edge">
<title>Node4&#45;&gt;Node19</title>
<g id="a_edge18_Node000004_Node000019"><a xlink:title=" ">
<path fill="none" stroke="#63b8ff" d="M327.35,-691.89C356.74,-673.47 409.31,-642.51 458,-624 465.8,-621.03 474.17,-618.42 482.51,-616.13"/>
<polygon fill="#63b8ff" stroke="#63b8ff" points="483.45,-619.51 492.25,-613.61 481.69,-612.73 483.45,-619.51"/>
</a>
</g>
</g>
<!-- Node4&#45;&gt;Node20 -->
<g id="edge19_Node000004_Node000020" class="edge">
<title>Node4&#45;&gt;Node20</title>
<g id="a_edge19_Node000004_Node000020"><a xlink:title=" ">
<path fill="none" stroke="#63b8ff" d="M319.29,-691.86C345.55,-666.62 401.83,-615.79 458,-586 463.63,-583.02 469.64,-580.29 475.76,-577.82"/>
<polygon fill="#63b8ff" stroke="#63b8ff" points="477.34,-580.97 485.45,-574.15 474.86,-574.42 477.34,-580.97"/>
</a>
</g>
</g>
<!-- Node4&#45;&gt;Node21 -->
<g id="edge20_Node000004_Node000021" class="edge">
<title>Node4&#45;&gt;Node21</title>
<g id="a_edge20_Node000004_Node000021"><a xlink:title=" ">
<path fill="none" stroke="#63b8ff" d="M313.09,-691.96C334.16,-658.41 389.79,-577.12 458,-535 464.64,-530.9 472.01,-527.52 479.56,-524.73"/>
<polygon fill="#63b8ff" stroke="#63b8ff" points="480.8,-528.01 489.17,-521.52 478.58,-521.37 480.8,-528.01"/>
</a>
</g>
</g>
<!-- Node11 -->
<g id="Node000011" class="node">
<title>Node11</title>
<g id="a_Node000011"><a xlink:href="classcam_1_1nc_1_1anilam__crusader__m_1_1Creator.html#a36f873a0248bcaa4cf2cfb220dc1b00c" target="_top" xlink:title="Codes.">
<polygon fill="white" stroke="#666666" points="825,-706 689,-706 689,-676 825,-676 825,-706"/>
<text text-anchor="start" x="697" y="-694" font-family="Helvetica,sans-Serif" font-size="10.00">cam.nc.anilam_crusader</text>
<text text-anchor="middle" x="757" y="-683" font-family="Helvetica,sans-Serif" font-size="10.00">_m.Creator.SPACE_STR</text>
</a>
</g>
</g>
<!-- Node10&#45;&gt;Node11 -->
<g id="edge10_Node000010_Node000011" class="edge">
<title>Node10&#45;&gt;Node11</title>
<g id="a_edge10_Node000010_Node000011"><a xlink:title=" ">
<path fill="none" stroke="#63b8ff" d="M614.05,-691C634.74,-691 657.54,-691 678.69,-691"/>
<polygon fill="#63b8ff" stroke="#63b8ff" points="678.93,-694.5 688.93,-691 678.93,-687.5 678.93,-694.5"/>
</a>
</g>
</g>
<!-- Node12 -->
<g id="Node000012" class="node">
<title>Node12</title>
<g id="a_Node000012"><a xlink:href="classcam_1_1nc_1_1fadal_1_1Creator.html#a97a50724edf2662eb4fe76b15516b638" target="_top" xlink:title="Codes.">
<polygon fill="white" stroke="#666666" points="845,-657.5 669,-657.5 669,-638.5 845,-638.5 845,-657.5"/>
<text text-anchor="middle" x="757" y="-645.5" font-family="Helvetica,sans-Serif" font-size="10.00">cam.nc.fadal.Creator.SPACE_STR</text>
</a>
</g>
</g>
<!-- Node10&#45;&gt;Node12 -->
<g id="edge11_Node000010_Node000012" class="edge">
<title>Node10&#45;&gt;Node12</title>
<g id="a_edge11_Node000010_Node000012"><a xlink:title=" ">
<path fill="none" stroke="#63b8ff" d="M591.44,-681.46C623.2,-675 665.34,-666.43 699.03,-659.58"/>
<polygon fill="#63b8ff" stroke="#63b8ff" points="700.09,-662.94 709.19,-657.52 698.7,-656.08 700.09,-662.94"/>
</a>
</g>
</g>
<!-- Node13 -->
<g id="Node000013" class="node">
<title>Node13</title>
<g id="a_Node000013"><a xlink:href="classcam_1_1nc_1_1gravos_1_1Creator.html#ac0bc0d26e8a92a65c0f33d696ad850f5" target="_top" xlink:title="Codes.">
<polygon fill="white" stroke="#666666" points="849,-620.5 665,-620.5 665,-601.5 849,-601.5 849,-620.5"/>
<text text-anchor="middle" x="757" y="-608.5" font-family="Helvetica,sans-Serif" font-size="10.00">cam.nc.gravos.Creator.SPACE_STR</text>
</a>
</g>
</g>
<!-- Node10&#45;&gt;Node13 -->
<g id="edge12_Node000010_Node000013" class="edge">
<title>Node10&#45;&gt;Node13</title>
<g id="a_edge12_Node000010_Node000013"><a xlink:title=" ">
<path fill="none" stroke="#63b8ff" d="M608.07,-681.42C615.41,-678.96 622.56,-675.88 629,-672 650.07,-659.32 643.84,-642.51 665,-630 668.67,-627.83 672.56,-625.9 676.57,-624.19"/>
<polygon fill="#63b8ff" stroke="#63b8ff" points="678.01,-627.39 686.13,-620.59 675.54,-620.84 678.01,-627.39"/>
</a>
</g>
</g>
<!-- Node14 -->
<g id="Node000014" class="node">
<title>Node14</title>
<g id="a_Node000014"><a xlink:href="classcam_1_1nc_1_1iso_1_1Creator.html#aa481cf1e394988751640fd5ce5af991e" target="_top" xlink:title="Codes.">
<polygon fill="white" stroke="#666666" points="839.5,-583.5 674.5,-583.5 674.5,-564.5 839.5,-564.5 839.5,-583.5"/>
<text text-anchor="middle" x="757" y="-571.5" font-family="Helvetica,sans-Serif" font-size="10.00">cam.nc.iso.Creator.SPACE_STR</text>
</a>
</g>
</g>
<!-- Node10&#45;&gt;Node14 -->
<g id="edge13_Node000010_Node000014" class="edge">
<title>Node10&#45;&gt;Node14</title>
<g id="a_edge13_Node000010_Node000014"><a xlink:title=" ">
<path fill="none" stroke="#63b8ff" d="M613.49,-681.35C619.06,-678.86 624.33,-675.79 629,-672 658.95,-647.67 634.87,-617.1 665,-593 667.1,-591.32 669.3,-589.79 671.6,-588.37"/>
<polygon fill="#63b8ff" stroke="#63b8ff" points="673.6,-591.28 680.84,-583.54 670.36,-585.07 673.6,-591.28"/>
</a>
</g>
</g>
<!-- Node15 -->
<g id="Node000015" class="node">
<title>Node15</title>
<g id="a_Node000015"><a xlink:href="classcam_1_1nc_1_1lynx__otter__o_1_1Creator.html#a73b176561e066abcdb256a1bf53a5fcc" target="_top" xlink:title="Codes.">
<polygon fill="white" stroke="#666666" points="835.5,-829 678.5,-829 678.5,-799 835.5,-799 835.5,-829"/>
<text text-anchor="start" x="686.5" y="-817" font-family="Helvetica,sans-Serif" font-size="10.00">cam.nc.lynx_otter_o.Creator.</text>
<text text-anchor="middle" x="757" y="-806" font-family="Helvetica,sans-Serif" font-size="10.00">SPACE_STR</text>
</a>
</g>
</g>
<!-- Node10&#45;&gt;Node15 -->
<g id="edge14_Node000010_Node000015" class="edge">
<title>Node10&#45;&gt;Node15</title>
<g id="a_edge14_Node000010_Node000015"><a xlink:title=" ">
<path fill="none" stroke="#63b8ff" d="M613.5,-700.63C619.07,-703.12 624.34,-706.2 629,-710 659.21,-734.65 635.25,-764.8 665,-790 666.37,-791.16 667.79,-792.27 669.26,-793.32"/>
<polygon fill="#63b8ff" stroke="#63b8ff" points="667.73,-796.49 678.07,-798.79 671.42,-790.55 667.73,-796.49"/>
</a>
</g>
</g>
<!-- Node16 -->
<g id="Node000016" class="node">
<title>Node16</title>
<g id="a_Node000016"><a xlink:href="classcam_1_1nc_1_1mach3_1_1Creator.html#aa461d578afa76c5af9bb5562b79d955a" target="_top" xlink:title="Codes.">
<polygon fill="white" stroke="#666666" points="849,-780.5 665,-780.5 665,-761.5 849,-761.5 849,-780.5"/>
<text text-anchor="middle" x="757" y="-768.5" font-family="Helvetica,sans-Serif" font-size="10.00">cam.nc.mach3.Creator.SPACE_STR</text>
</a>
</g>
</g>
<!-- Node10&#45;&gt;Node16 -->
<g id="edge15_Node000010_Node000016" class="edge">
<title>Node10&#45;&gt;Node16</title>
<g id="a_edge15_Node000010_Node000016"><a xlink:title=" ">
<path fill="none" stroke="#63b8ff" d="M608.12,-700.51C615.45,-702.98 622.58,-706.09 629,-710 650.28,-722.97 643.55,-740.3 665,-753 667.84,-754.68 670.81,-756.21 673.87,-757.6"/>
<polygon fill="#63b8ff" stroke="#63b8ff" points="672.69,-760.9 683.28,-761.35 675.29,-754.4 672.69,-760.9"/>
</a>
</g>
</g>
<!-- Node17 -->
<g id="Node000017" class="node">
<title>Node17</title>
<g id="a_Node000017"><a xlink:href="classcam_1_1nc_1_1winpc_1_1Creator.html#aae1cb93a5dd430719105fa03a054f654" target="_top" xlink:title="Codes.">
<polygon fill="white" stroke="#666666" points="846.5,-743.5 667.5,-743.5 667.5,-724.5 846.5,-724.5 846.5,-743.5"/>
<text text-anchor="middle" x="757" y="-731.5" font-family="Helvetica,sans-Serif" font-size="10.00">cam.nc.winpc.Creator.SPACE_STR</text>
</a>
</g>
</g>
<!-- Node10&#45;&gt;Node17 -->
<g id="edge16_Node000010_Node000017" class="edge">
<title>Node10&#45;&gt;Node17</title>
<g id="a_edge16_Node000010_Node000017"><a xlink:title=" ">
<path fill="none" stroke="#63b8ff" d="M591.44,-700.54C623.2,-707 665.34,-715.57 699.03,-722.42"/>
<polygon fill="#63b8ff" stroke="#63b8ff" points="698.7,-725.92 709.19,-724.48 700.09,-719.06 698.7,-725.92"/>
</a>
</g>
</g>
<!-- Node22&#45;&gt;Node22 -->
<g id="edge32_Node000022_Node000022" class="edge">
<title>Node22&#45;&gt;Node22</title>
<g id="a_edge32_Node000022_Node000022"><a xlink:title=" ">
<path fill="none" stroke="#63b8ff" d="M267.86,-465.58C250.76,-474.23 262.48,-483.5 303,-483.5 332.76,-483.5 346.98,-478.5 345.67,-472.42"/>
<polygon fill="#63b8ff" stroke="#63b8ff" points="347.9,-469.72 338.14,-465.58 343.19,-474.9 347.9,-469.72"/>
</a>
</g>
</g>
<!-- Node23&#45;&gt;Node23 -->
<g id="edge34_Node000023_Node000023" class="edge">
<title>Node23&#45;&gt;Node23</title>
<g id="a_edge34_Node000023_Node000023"><a xlink:title=" ">
<path fill="none" stroke="#63b8ff" d="M267.86,-410.58C250.76,-419.23 262.48,-428.5 303,-428.5 332.76,-428.5 346.98,-423.5 345.67,-417.42"/>
<polygon fill="#63b8ff" stroke="#63b8ff" points="347.9,-414.72 338.14,-410.58 343.19,-419.9 347.9,-414.72"/>
</a>
</g>
</g>
<!-- Node25&#45;&gt;Node25 -->
<g id="edge37_Node000025_Node000025" class="edge">
<title>Node25&#45;&gt;Node25</title>
<g id="a_edge37_Node000025_Node000025"><a xlink:title=" ">
<path fill="none" stroke="#63b8ff" d="M267.86,-318.58C250.76,-327.23 262.48,-336.5 303,-336.5 332.76,-336.5 346.98,-331.5 345.67,-325.42"/>
<polygon fill="#63b8ff" stroke="#63b8ff" points="347.9,-322.72 338.14,-318.58 343.19,-327.9 347.9,-322.72"/>
</a>
</g>
</g>
<!-- Node26&#45;&gt;Node26 -->
<g id="edge39_Node000026_Node000026" class="edge">
<title>Node26&#45;&gt;Node26</title>
<g id="a_edge39_Node000026_Node000026"><a xlink:title=" ">
<path fill="none" stroke="#63b8ff" d="M267.86,-263.58C250.76,-272.23 262.48,-281.5 303,-281.5 332.76,-281.5 346.98,-276.5 345.67,-270.42"/>
<polygon fill="#63b8ff" stroke="#63b8ff" points="347.9,-267.72 338.14,-263.58 343.19,-272.9 347.9,-267.72"/>
</a>
</g>
</g>
<!-- Node27&#45;&gt;Node27 -->
<g id="edge41_Node000027_Node000027" class="edge">
<title>Node27&#45;&gt;Node27</title>
<g id="a_edge41_Node000027_Node000027"><a xlink:title=" ">
<path fill="none" stroke="#63b8ff" d="M267.86,-208.58C250.76,-217.23 262.48,-226.5 303,-226.5 332.76,-226.5 346.98,-221.5 345.67,-215.42"/>
<polygon fill="#63b8ff" stroke="#63b8ff" points="347.9,-212.72 338.14,-208.58 343.19,-217.9 347.9,-212.72"/>
</a>
</g>
</g>
<!-- Node29 -->
<g id="Node000029" class="node">
<title>Node29</title>
<g id="a_Node000029"><a xlink:href="classcam_1_1async__op_1_1AsyncOperatorMixin.html#a9628cbca8e69ec75b2337171a02bf428" target="_top" xlink:title=" ">
<polygon fill="white" stroke="#666666" points="624,-150 463,-150 463,-120 624,-120 624,-150"/>
<text text-anchor="start" x="471" y="-138" font-family="Helvetica,sans-Serif" font-size="10.00">cam.async_op.AsyncOperator</text>
<text text-anchor="middle" x="543.5" y="-127" font-family="Helvetica,sans-Serif" font-size="10.00">Mixin.modal</text>
</a>
</g>
</g>
<!-- Node28&#45;&gt;Node29 -->
<g id="edge43_Node000028_Node000029" class="edge">
<title>Node28&#45;&gt;Node29</title>
<g id="a_edge43_Node000028_Node000029"><a xlink:title=" ">
<path fill="none" stroke="#63b8ff" d="M382.09,-120.2C404.58,-122.28 429.29,-124.56 452.43,-126.69"/>
<polygon fill="#63b8ff" stroke="#63b8ff" points="452.32,-130.2 462.6,-127.63 452.96,-123.23 452.32,-130.2"/>
</a>
</g>
</g>
<!-- Node30 -->
<g id="Node000030" class="node">
<title>Node30</title>
<g id="a_Node000030"><a xlink:href="classcam_1_1async__op_1_1AsyncOperatorMixin.html#a15a51cfd69d8e453e2e3d64386b1ebe3" target="_top" xlink:title=" ">
<polygon fill="white" stroke="#666666" points="837.5,-150 676.5,-150 676.5,-120 837.5,-120 837.5,-150"/>
<text text-anchor="start" x="684.5" y="-138" font-family="Helvetica,sans-Serif" font-size="10.00">cam.async_op.AsyncOperator</text>
<text text-anchor="middle" x="757" y="-127" font-family="Helvetica,sans-Serif" font-size="10.00">Mixin.tick</text>
</a>
</g>
</g>
<!-- Node29&#45;&gt;Node30 -->
<g id="edge44_Node000029_Node000030" class="edge">
<title>Node29&#45;&gt;Node30</title>
<g id="a_edge44_Node000029_Node000030"><a xlink:title=" ">
<path fill="none" stroke="#63b8ff" d="M624.16,-135C637.91,-135 652.3,-135 666.3,-135"/>
<polygon fill="#63b8ff" stroke="#63b8ff" points="666.41,-138.5 676.41,-135 666.41,-131.5 666.41,-138.5"/>
</a>
</g>
</g>
<!-- Node31 -->
<g id="Node000031" class="node">
<title>Node31</title>
<g id="a_Node000031"><a xlink:href="classcam_1_1async__op_1_1AsyncTestOperator.html#a42606ca890a957aa7070a4bc6f25228b" target="_top" xlink:title=" ">
<polygon fill="white" stroke="#666666" points="1106,-270 885,-270 885,-240 1106,-240 1106,-270"/>
<text text-anchor="start" x="893" y="-258" font-family="Helvetica,sans-Serif" font-size="10.00">cam.async_op.AsyncTestOperator.execute</text>
<text text-anchor="middle" x="995.5" y="-247" font-family="Helvetica,sans-Serif" font-size="10.00">_async</text>
</a>
</g>
</g>
<!-- Node30&#45;&gt;Node31 -->
<g id="edge45_Node000030_Node000031" class="edge">
<title>Node30&#45;&gt;Node31</title>
<g id="a_edge45_Node000030_Node000031"><a xlink:title=" ">
<path fill="none" stroke="#63b8ff" d="M773.36,-150.21C795.88,-171.62 840.06,-210.31 885,-231 889.58,-233.11 894.35,-235.04 899.23,-236.8"/>
<polygon fill="#63b8ff" stroke="#63b8ff" points="898.13,-240.12 908.73,-239.98 900.36,-233.48 898.13,-240.12"/>
</a>
</g>
</g>
<!-- Node32 -->
<g id="Node000032" class="node">
<title>Node32</title>
<g id="a_Node000032"><a xlink:href="classcam_1_1ops_1_1CalculatePath.html#a13dfe2f8578383234e74e58e2f292e1b" target="_top" xlink:title=" ">
<polygon fill="white" stroke="#666666" points="1080,-222 911,-222 911,-192 1080,-192 1080,-222"/>
<text text-anchor="start" x="919" y="-210" font-family="Helvetica,sans-Serif" font-size="10.00">cam.ops.CalculatePath.execute</text>
<text text-anchor="middle" x="995.5" y="-199" font-family="Helvetica,sans-Serif" font-size="10.00">_async</text>
</a>
</g>
</g>
<!-- Node30&#45;&gt;Node32 -->
<g id="edge46_Node000030_Node000032" class="edge">
<title>Node30&#45;&gt;Node32</title>
<g id="a_edge46_Node000030_Node000032"><a xlink:title=" ">
<path fill="none" stroke="#63b8ff" d="M793.65,-150.07C818.85,-160.33 853.59,-173.68 885,-183 892.76,-185.3 900.89,-187.49 909.06,-189.54"/>
<polygon fill="#63b8ff" stroke="#63b8ff" points="908.48,-193 919.03,-191.97 910.14,-186.2 908.48,-193"/>
</a>
</g>
</g>
<!-- Node34 -->
<g id="Node000034" class="node">
<title>Node34</title>
<g id="a_Node000034"><a xlink:href="classcam_1_1ops_1_1PathsChain.html#a6fc64e383ccf724b2325e18a82d53eae" target="_top" xlink:title=" ">
<polygon fill="white" stroke="#666666" points="1073.5,-174 917.5,-174 917.5,-144 1073.5,-144 1073.5,-174"/>
<text text-anchor="start" x="925.5" y="-162" font-family="Helvetica,sans-Serif" font-size="10.00">cam.ops.PathsChain.execute</text>
<text text-anchor="middle" x="995.5" y="-151" font-family="Helvetica,sans-Serif" font-size="10.00">_async</text>
</a>
</g>
</g>
<!-- Node30&#45;&gt;Node34 -->
<g id="edge48_Node000030_Node000034" class="edge">
<title>Node30&#45;&gt;Node34</title>
<g id="a_edge48_Node000030_Node000034"><a xlink:title=" ">
<path fill="none" stroke="#63b8ff" d="M837.74,-143.09C860.05,-145.36 884.41,-147.83 907.14,-150.13"/>
<polygon fill="#63b8ff" stroke="#63b8ff" points="906.81,-153.62 917.11,-151.15 907.52,-146.65 906.81,-153.62"/>
</a>
</g>
</g>
<!-- Node36 -->
<g id="Node000036" class="node">
<title>Node36</title>
<g id="a_Node000036"><a xlink:href="classcam_1_1ops_1_1CAMSimulate.html#a633151f17849d281fd52ce82c00356a7" target="_top" xlink:title=" ">
<polygon fill="white" stroke="#666666" points="1079.5,-78 911.5,-78 911.5,-48 1079.5,-48 1079.5,-78"/>
<text text-anchor="start" x="919.5" y="-66" font-family="Helvetica,sans-Serif" font-size="10.00">cam.ops.CAMSimulate.execute</text>
<text text-anchor="middle" x="995.5" y="-55" font-family="Helvetica,sans-Serif" font-size="10.00">_async</text>
</a>
</g>
</g>
<!-- Node30&#45;&gt;Node36 -->
<g id="edge51_Node000030_Node000036" class="edge">
<title>Node30&#45;&gt;Node36</title>
<g id="a_edge51_Node000030_Node000036"><a xlink:title=" ">
<path fill="none" stroke="#63b8ff" d="M793.65,-119.93C818.85,-109.67 853.59,-96.32 885,-87 892.76,-84.7 900.89,-82.51 909.06,-80.46"/>
<polygon fill="#63b8ff" stroke="#63b8ff" points="910.14,-83.8 919.03,-78.03 908.48,-77 910.14,-83.8"/>
</a>
</g>
</g>
<!-- Node37 -->
<g id="Node000037" class="node">
<title>Node37</title>
<g id="a_Node000037"><a xlink:href="classcam_1_1ops_1_1CAMSimulateChain.html#a1e77c7ce21b3b7e3e38a12b6b62517e9" target="_top" xlink:title=" ">
<polygon fill="white" stroke="#666666" points="1093.5,-126 897.5,-126 897.5,-96 1093.5,-96 1093.5,-126"/>
<text text-anchor="start" x="905.5" y="-114" font-family="Helvetica,sans-Serif" font-size="10.00">cam.ops.CAMSimulateChain.execute</text>
<text text-anchor="middle" x="995.5" y="-103" font-family="Helvetica,sans-Serif" font-size="10.00">_async</text>
</a>
</g>
</g>
<!-- Node30&#45;&gt;Node37 -->
<g id="edge52_Node000030_Node000037" class="edge">
<title>Node30&#45;&gt;Node37</title>
<g id="a_edge52_Node000030_Node000037"><a xlink:title=" ">
<path fill="none" stroke="#63b8ff" d="M837.74,-126.91C853.62,-125.3 870.54,-123.58 887.17,-121.89"/>
<polygon fill="#63b8ff" stroke="#63b8ff" points="887.88,-125.34 897.47,-120.85 887.17,-118.37 887.88,-125.34"/>
</a>
</g>
</g>
<!-- Node38 -->
<g id="Node000038" class="node">
<title>Node38</title>
<g id="a_Node000038"><a xlink:href="classcam_1_1async__op_1_1AsyncOperatorMixin.html#a2216ff6bb0dfd132f4ec4cf79b7cba2b" target="_top" xlink:title=" ">
<polygon fill="white" stroke="#666666" points="1076,-30 915,-30 915,0 1076,0 1076,-30"/>
<text text-anchor="start" x="923" y="-18" font-family="Helvetica,sans-Serif" font-size="10.00">cam.async_op.AsyncOperator</text>
<text text-anchor="middle" x="995.5" y="-7" font-family="Helvetica,sans-Serif" font-size="10.00">Mixin.show_progress</text>
</a>
</g>
</g>
<!-- Node30&#45;&gt;Node38 -->
<g id="edge54_Node000030_Node000038" class="edge">
<title>Node30&#45;&gt;Node38</title>
<g id="a_edge54_Node000030_Node000038"><a xlink:title=" ">
<path fill="none" stroke="#63b8ff" d="M773.36,-119.79C795.88,-98.38 840.06,-59.69 885,-39 891.44,-36.03 898.27,-33.43 905.24,-31.13"/>
<polygon fill="#63b8ff" stroke="#63b8ff" points="906.27,-34.48 914.81,-28.2 904.22,-27.78 906.27,-34.48"/>
</a>
</g>
</g>
<!-- Node33 -->
<g id="Node000033" class="node">
<title>Node33</title>
<g id="a_Node000033"><a xlink:href="namespacecam_1_1ops.html#aa8e95f7410a7ceb178db48f4f8c2d995" target="_top" xlink:title=" ">
<polygon fill="white" stroke="#666666" points="1277.5,-189.5 1164.5,-189.5 1164.5,-170.5 1277.5,-170.5 1277.5,-189.5"/>
<text text-anchor="middle" x="1221" y="-177.5" font-family="Helvetica,sans-Serif" font-size="10.00">cam.ops._calc_path</text>
</a>
</g>
</g>
<!-- Node32&#45;&gt;Node33 -->
<g id="edge47_Node000032_Node000033" class="edge">
<title>Node32&#45;&gt;Node33</title>
<g id="a_edge47_Node000032_Node000033"><a xlink:title=" ">
<path fill="none" stroke="#63b8ff" d="M1080.04,-196.91C1104.56,-193.95 1131.01,-190.75 1154.25,-187.94"/>
<polygon fill="#63b8ff" stroke="#63b8ff" points="1154.83,-191.4 1164.34,-186.72 1154,-184.45 1154.83,-191.4"/>
</a>
</g>
</g>
<!-- Node34&#45;&gt;Node33 -->
<g id="edge49_Node000034_Node000033" class="edge">
<title>Node34&#45;&gt;Node33</title>
<g id="a_edge49_Node000034_Node000033"><a xlink:title=" ">
<path fill="none" stroke="#63b8ff" d="M1073.73,-166.26C1099.9,-168.72 1128.87,-171.44 1154.08,-173.81"/>
<polygon fill="#63b8ff" stroke="#63b8ff" points="1153.99,-177.31 1164.27,-174.76 1154.64,-170.34 1153.99,-177.31"/>
</a>
</g>
</g>
<!-- Node35 -->
<g id="Node000035" class="node">
<title>Node35</title>
<g id="a_Node000035"><a xlink:href="namespacecam_1_1ops.html#ab55fb8ec9a00e021e8e4a1c3ecc97cb4" target="_top" xlink:title=" ">
<polygon fill="white" stroke="#666666" points="1300,-147.5 1142,-147.5 1142,-128.5 1300,-128.5 1300,-147.5"/>
<text text-anchor="middle" x="1221" y="-135.5" font-family="Helvetica,sans-Serif" font-size="10.00">cam.ops.getChainOperations</text>
</a>
</g>
</g>
<!-- Node34&#45;&gt;Node35 -->
<g id="edge50_Node000034_Node000035" class="edge">
<title>Node34&#45;&gt;Node35</title>
<g id="a_edge50_Node000034_Node000035"><a xlink:title=" ">
<path fill="none" stroke="#63b8ff" d="M1073.73,-151.74C1092.34,-150 1112.37,-148.11 1131.45,-146.32"/>
<polygon fill="#63b8ff" stroke="#63b8ff" points="1132,-149.78 1141.63,-145.36 1131.35,-142.81 1132,-149.78"/>
</a>
</g>
</g>
<!-- Node37&#45;&gt;Node35 -->
<g id="edge53_Node000037_Node000035" class="edge">
<title>Node37&#45;&gt;Node35</title>
<g id="a_edge53_Node000037_Node000035"><a xlink:title=" ">
<path fill="none" stroke="#63b8ff" d="M1093.56,-122.72C1106.29,-124.26 1119.28,-125.83 1131.86,-127.35"/>
<polygon fill="#63b8ff" stroke="#63b8ff" points="1131.5,-130.83 1141.84,-128.56 1132.34,-123.88 1131.5,-130.83"/>
</a>
</g>
</g>
<!-- Node39&#45;&gt;Node29 -->
<g id="edge56_Node000039_Node000029" class="edge">
<title>Node39&#45;&gt;Node29</title>
<g id="a_edge56_Node000039_Node000029"><a xlink:title=" ">
<path fill="none" stroke="#63b8ff" d="M378.16,-149.47C401.71,-147.4 428.02,-145.08 452.56,-142.92"/>
<polygon fill="#63b8ff" stroke="#63b8ff" points="452.94,-146.4 462.6,-142.04 452.33,-139.43 452.94,-146.4"/>
</a>
</g>
</g>
</g>
</svg>

<g id="navigator" transform="translate(0 0)" fill="#404254">
  <rect fill="#f2f5e9" fill-opacity="0.5" stroke="#606060" stroke-width=".5" x="0" y="0" width="60" height="60"/>
  <use id="zoomplus" xlink:href="#zoomPlus" x="17" y="9" onmousedown="handleZoom(evt,'in')"/>
  <use id="zoomminus" xlink:href="#zoomMin" x="42" y="9" onmousedown="handleZoom(evt,'out')"/>
  <use id="reset" xlink:href="#resetDef" x="30" y="36" onmousedown="handleReset()"/>
   <use id="arrowup" xlink:href="#arrowUp" x="0" y="0" onmousedown="handlePan(0,-1)"/>
  <use id="arrowright" xlink:href="#arrowRight" x="0" y="0" onmousedown="handlePan(1,0)"/>
  <use id="arrowdown" xlink:href="#arrowDown" x="0" y="0" onmousedown="handlePan(0,1)"/>
  <use id="arrowleft" xlink:href="#arrowLeft" x="0" y="0" onmousedown="handlePan(-1,0)"/>
</g>
<svg viewBox="0 0 15 15" width="100%" height="30px" preserveAspectRatio="xMaxYMin meet">
 <g id="arrow_out" transform="scale(0.3 0.3)">
  <a xlink:href="classcam_1_1nc_1_1iso_1_1Creator_a0aaa76de84053c3392e607d84f0c247e_cgraph_org.svg" target="_base">
   <rect id="button" ry="5" rx="5" y="6" x="6" height="38" width="38"
        fill="#f2f5e9" fill-opacity="0.5" stroke="#606060" stroke-width="1.0"/>
   <path id="arrow"
     d="M 11.500037,31.436501 C 11.940474,20.09759 22.043105,11.32322 32.158766,21.979434 L 37.068811,17.246167 C 37.068811,17.246167 37.088388,32 37.088388,32 L 22.160133,31.978069 C 22.160133,31.978069 26.997745,27.140456 26.997745,27.140456 C 18.528582,18.264221 13.291696,25.230495 11.500037,31.436501 z"
     style="fill:#404040;"/>
  </a>
 </g>
</svg>

<style type='text/css'>
<![CDATA[
[data-mouse-over-selected='false'] { opacity: 0.7; }
[data-mouse-over-selected='true']  { opacity: 1.0; }
]]>
</style>
<script type="application/ecmascript"><![CDATA[
document.addEventListener('DOMContentLoaded', (event) => {
  highlightEdges();
  highlightAdjacentNodes();
});
]]></script>
</svg>
