<?xml version="1.0" encoding="UTF-8" standalone="no"?>
<!DOCTYPE svg PUBLIC "-//W3C//DTD SVG 1.1//EN"
 "http://www.w3.org/Graphics/SVG/1.1/DTD/svg11.dtd">
<!-- Generated by graphviz version 2.43.0 (0)
 -->
<!-- Title: cam.nc.num_reader.NumReader.add_word Pages: 1 -->
<svg width="815pt" height="86pt"
 viewBox="0.00 0.00 815.00 86.00" xmlns="http://www.w3.org/2000/svg" xmlns:xlink="http://www.w3.org/1999/xlink">
<g id="graph0" class="graph" transform="scale(1 1) rotate(0) translate(4 82)">
<title>cam.nc.num_reader.NumReader.add_word</title>
<!-- Node1 -->
<g id="Node000001" class="node">
<title>Node1</title>
<g id="a_Node000001"><a xlink:title=" ">
<polygon fill="#999999" stroke="#666666" points="807,-48.5 584,-48.5 584,-29.5 807,-29.5 807,-48.5"/>
<text text-anchor="middle" x="695.5" y="-36.5" font-family="Helvetica,sans-Serif" font-size="10.00">cam.nc.num_reader.NumReader.add_word</text>
</a>
</g>
</g>
<!-- Node2 -->
<g id="Node000002" class="node">
<title>Node2</title>
<g id="a_Node000002"><a xlink:href="classcam_1_1nc_1_1hpgl2d__read_1_1Parser.html#afa14f139b2b41ae0e70c8ee16d661e31" target="_top" xlink:title=" ">
<polygon fill="white" stroke="#666666" points="548,-78 398,-78 398,-48 548,-48 548,-78"/>
<text text-anchor="start" x="406" y="-66" font-family="Helvetica,sans-Serif" font-size="10.00">cam.nc.hpgl2d_read.Parser.</text>
<text text-anchor="middle" x="473" y="-55" font-family="Helvetica,sans-Serif" font-size="10.00">ParseAA</text>
</a>
</g>
</g>
<!-- Node1&#45;&gt;Node2 -->
<g id="edge1_Node000001_Node000002" class="edge">
<title>Node1&#45;&gt;Node2</title>
<g id="a_edge1_Node000001_Node000002"><a xlink:title=" ">
<path fill="none" stroke="#63b8ff" d="M596.92,-49.62C580.57,-51.4 563.84,-53.22 548.2,-54.92"/>
<polygon fill="#63b8ff" stroke="#63b8ff" points="597.47,-53.08 607.04,-48.52 596.72,-46.12 597.47,-53.08"/>
</a>
</g>
</g>
<!-- Node5 -->
<g id="Node000005" class="node">
<title>Node5</title>
<g id="a_Node000005"><a xlink:href="classcam_1_1nc_1_1hpgl3d__read_1_1Parser.html#ae1ce5f283aa57d7de17d269c42a17c90" target="_top" xlink:title=" ">
<polygon fill="white" stroke="#666666" points="548,-30 398,-30 398,0 548,0 548,-30"/>
<text text-anchor="start" x="406" y="-18" font-family="Helvetica,sans-Serif" font-size="10.00">cam.nc.hpgl3d_read.Parser.</text>
<text text-anchor="middle" x="473" y="-7" font-family="Helvetica,sans-Serif" font-size="10.00">ParseZ</text>
</a>
</g>
</g>
<!-- Node1&#45;&gt;Node5 -->
<g id="edge4_Node000001_Node000005" class="edge">
<title>Node1&#45;&gt;Node5</title>
<g id="a_edge4_Node000001_Node000005"><a xlink:title=" ">
<path fill="none" stroke="#63b8ff" d="M596.92,-28.38C580.57,-26.6 563.84,-24.78 548.2,-23.08"/>
<polygon fill="#63b8ff" stroke="#63b8ff" points="596.72,-31.88 607.04,-29.48 597.47,-24.92 596.72,-31.88"/>
</a>
</g>
</g>
<!-- Node3 -->
<g id="Node000003" class="node">
<title>Node3</title>
<g id="a_Node000003"><a xlink:href="classcam_1_1nc_1_1hpgl2d__read_1_1Parser.html#a0b707cfa8f85f48082f4e827cd2e4de2" target="_top" xlink:title=" ">
<polygon fill="white" stroke="#666666" points="362,-78 212,-78 212,-48 362,-48 362,-78"/>
<text text-anchor="start" x="220" y="-66" font-family="Helvetica,sans-Serif" font-size="10.00">cam.nc.hpgl2d_read.Parser.</text>
<text text-anchor="middle" x="287" y="-55" font-family="Helvetica,sans-Serif" font-size="10.00">ParseFromFirstLetter</text>
</a>
</g>
</g>
<!-- Node2&#45;&gt;Node3 -->
<g id="edge2_Node000002_Node000003" class="edge">
<title>Node2&#45;&gt;Node3</title>
<g id="a_edge2_Node000002_Node000003"><a xlink:title=" ">
<path fill="none" stroke="#63b8ff" d="M387.93,-63C379.35,-63 370.66,-63 362.19,-63"/>
<polygon fill="#63b8ff" stroke="#63b8ff" points="387.96,-66.5 397.96,-63 387.96,-59.5 387.96,-66.5"/>
</a>
</g>
</g>
<!-- Node4 -->
<g id="Node000004" class="node">
<title>Node4</title>
<g id="a_Node000004"><a xlink:href="classcam_1_1nc_1_1num__reader_1_1NumReader.html#ae908a2956d1e0cfd474a47540bee9759" target="_top" xlink:title=" ">
<polygon fill="white" stroke="#666666" points="176,-54 0,-54 0,-24 176,-24 176,-54"/>
<text text-anchor="start" x="8" y="-42" font-family="Helvetica,sans-Serif" font-size="10.00">cam.nc.num_reader.NumReader.</text>
<text text-anchor="middle" x="88" y="-31" font-family="Helvetica,sans-Serif" font-size="10.00">Parse</text>
</a>
</g>
</g>
<!-- Node3&#45;&gt;Node4 -->
<g id="edge3_Node000003_Node000004" class="edge">
<title>Node3&#45;&gt;Node4</title>
<g id="a_edge3_Node000003_Node000004"><a xlink:title=" ">
<path fill="none" stroke="#63b8ff" d="M201.86,-52.75C193.31,-51.71 184.62,-50.65 176.05,-49.6"/>
<polygon fill="#63b8ff" stroke="#63b8ff" points="201.45,-56.23 211.8,-53.96 202.3,-49.28 201.45,-56.23"/>
</a>
</g>
</g>
<!-- Node6 -->
<g id="Node000006" class="node">
<title>Node6</title>
<g id="a_Node000006"><a xlink:href="classcam_1_1nc_1_1hpgl3d__read_1_1Parser.html#acfc73b1a3afefce2cbfbbc3c6ba852b1" target="_top" xlink:title=" ">
<polygon fill="white" stroke="#666666" points="362,-30 212,-30 212,0 362,0 362,-30"/>
<text text-anchor="start" x="220" y="-18" font-family="Helvetica,sans-Serif" font-size="10.00">cam.nc.hpgl3d_read.Parser.</text>
<text text-anchor="middle" x="287" y="-7" font-family="Helvetica,sans-Serif" font-size="10.00">ParseFromFirstLetter</text>
</a>
</g>
</g>
<!-- Node5&#45;&gt;Node6 -->
<g id="edge5_Node000005_Node000006" class="edge">
<title>Node5&#45;&gt;Node6</title>
<g id="a_edge5_Node000005_Node000006"><a xlink:title=" ">
<path fill="none" stroke="#63b8ff" d="M387.93,-15C379.35,-15 370.66,-15 362.19,-15"/>
<polygon fill="#63b8ff" stroke="#63b8ff" points="387.96,-18.5 397.96,-15 387.96,-11.5 387.96,-18.5"/>
</a>
</g>
</g>
<!-- Node6&#45;&gt;Node4 -->
<g id="edge6_Node000006_Node000004" class="edge">
<title>Node6&#45;&gt;Node4</title>
<g id="a_edge6_Node000006_Node000004"><a xlink:title=" ">
<path fill="none" stroke="#63b8ff" d="M201.86,-25.25C193.31,-26.29 184.62,-27.35 176.05,-28.4"/>
<polygon fill="#63b8ff" stroke="#63b8ff" points="202.3,-28.72 211.8,-24.04 201.45,-21.77 202.3,-28.72"/>
</a>
</g>
</g>
</g>
</svg>
