<?xml version="1.0" encoding="UTF-8" standalone="no"?>
<!DOCTYPE svg PUBLIC "-//W3C//DTD SVG 1.1//EN"
 "http://www.w3.org/Graphics/SVG/1.1/DTD/svg11.dtd">
<!-- Generated by graphviz version 2.43.0 (0)
 -->
<!-- Title: cam.nc.nclathe_read.Parser.files_open Pages: 1 -->
<svg width="423pt" height="278pt"
 viewBox="0.00 0.00 423.00 278.00" xmlns="http://www.w3.org/2000/svg" xmlns:xlink="http://www.w3.org/1999/xlink">

<svg id="main" version="1.1" xmlns="http://www.w3.org/2000/svg" xmlns:xlink="http://www.w3.org/1999/xlink" xml:space="preserve" onload="init(evt)">
<style type="text/css"><![CDATA[
.node, .edge {opacity: 0.7;}
.node.selected, .edge.selected {opacity: 1;}
.edge:hover path { stroke: red; }
.edge:hover polygon { stroke: red; fill: red; }
]]></style>
<script type="application/ecmascript" xlink:href="svg.min.js"/>
<svg id="graph" class="graph">
<g id="graph0" class="graph" transform="scale(1 1) rotate(0) translate(4 274)">
<title>cam.nc.nclathe_read.Parser.files_open</title>
<!-- Node1 -->
<g id="Node000001" class="node">
<title>Node1</title>
<g id="a_Node000001"><a xlink:title="Internals.">
<polygon fill="#999999" stroke="#666666" points="415,-144.5 212,-144.5 212,-125.5 415,-125.5 415,-144.5"/>
<text text-anchor="middle" x="313.5" y="-132.5" font-family="Helvetica,sans-Serif" font-size="10.00">cam.nc.nclathe_read.Parser.files_open</text>
</a>
</g>
</g>
<!-- Node2 -->
<g id="Node000002" class="node">
<title>Node2</title>
<g id="a_Node000002"><a xlink:href="classcam_1_1nc_1_1cad__iso__read_1_1Parser.html#abf885d019794a8bef1b69f446c8851e1" target="_top" xlink:title=" ">
<polygon fill="white" stroke="#666666" points="165,-270 11,-270 11,-240 165,-240 165,-270"/>
<text text-anchor="start" x="19" y="-258" font-family="Helvetica,sans-Serif" font-size="10.00">cam.nc.cad_iso_read.Parser.</text>
<text text-anchor="middle" x="88" y="-247" font-family="Helvetica,sans-Serif" font-size="10.00">Parse</text>
</a>
</g>
</g>
<!-- Node1&#45;&gt;Node2 -->
<g id="edge1_Node000001_Node000002" class="edge">
<title>Node1&#45;&gt;Node2</title>
<g id="a_edge1_Node000001_Node000002"><a xlink:title=" ">
<path fill="none" stroke="#63b8ff" d="M294.01,-151.18C268.91,-172.36 221.9,-209.33 176,-231 168.92,-234.34 161.28,-237.3 153.58,-239.89"/>
<polygon fill="#63b8ff" stroke="#63b8ff" points="296.32,-153.81 301.65,-144.65 291.77,-148.49 296.32,-153.81"/>
</a>
</g>
</g>
<!-- Node3 -->
<g id="Node000003" class="node">
<title>Node3</title>
<g id="a_Node000003"><a xlink:href="classcam_1_1nc_1_1cad__read_1_1CAD__backplot.html#afce7c30e482cfb88a36593d4020909d7" target="_top" xlink:title=" ">
<polygon fill="white" stroke="#666666" points="149.5,-222 26.5,-222 26.5,-192 149.5,-192 149.5,-222"/>
<text text-anchor="start" x="34.5" y="-210" font-family="Helvetica,sans-Serif" font-size="10.00">cam.nc.cad_read.CAD</text>
<text text-anchor="middle" x="88" y="-199" font-family="Helvetica,sans-Serif" font-size="10.00">_backplot.Parse</text>
</a>
</g>
</g>
<!-- Node1&#45;&gt;Node3 -->
<g id="edge2_Node000001_Node000003" class="edge">
<title>Node1&#45;&gt;Node3</title>
<g id="a_edge2_Node000001_Node000003"><a xlink:title=" ">
<path fill="none" stroke="#63b8ff" d="M277.47,-148.07C250.03,-158.12 210.8,-172.1 176,-183 166.28,-186.05 155.89,-189.09 145.79,-191.94"/>
<polygon fill="#63b8ff" stroke="#63b8ff" points="278.84,-151.29 287.02,-144.55 276.42,-144.72 278.84,-151.29"/>
</a>
</g>
</g>
<!-- Node4 -->
<g id="Node000004" class="node">
<title>Node4</title>
<g id="a_Node000004"><a xlink:href="classcam_1_1nc_1_1lathe1__read_1_1Parser.html#a4046e981f4f946bed728de957d10365f" target="_top" xlink:title=" ">
<polygon fill="white" stroke="#666666" points="162,-174 14,-174 14,-144 162,-144 162,-174"/>
<text text-anchor="start" x="22" y="-162" font-family="Helvetica,sans-Serif" font-size="10.00">cam.nc.lathe1_read.Parser.</text>
<text text-anchor="middle" x="88" y="-151" font-family="Helvetica,sans-Serif" font-size="10.00">Parse</text>
</a>
</g>
</g>
<!-- Node1&#45;&gt;Node4 -->
<g id="edge3_Node000001_Node000004" class="edge">
<title>Node1&#45;&gt;Node4</title>
<g id="a_edge3_Node000001_Node000004"><a xlink:title=" ">
<path fill="none" stroke="#63b8ff" d="M213.69,-145.61C196.35,-147.47 178.58,-149.38 162.09,-151.15"/>
<polygon fill="#63b8ff" stroke="#63b8ff" points="214.28,-149.07 223.85,-144.52 213.53,-142.11 214.28,-149.07"/>
</a>
</g>
</g>
<!-- Node5 -->
<g id="Node000005" class="node">
<title>Node5</title>
<g id="a_Node000005"><a xlink:href="classcam_1_1nc_1_1num__reader_1_1NumReader.html#ae908a2956d1e0cfd474a47540bee9759" target="_top" xlink:title=" ">
<polygon fill="white" stroke="#666666" points="176,-126 0,-126 0,-96 176,-96 176,-126"/>
<text text-anchor="start" x="8" y="-114" font-family="Helvetica,sans-Serif" font-size="10.00">cam.nc.num_reader.NumReader.</text>
<text text-anchor="middle" x="88" y="-103" font-family="Helvetica,sans-Serif" font-size="10.00">Parse</text>
</a>
</g>
</g>
<!-- Node1&#45;&gt;Node5 -->
<g id="edge4_Node000001_Node000005" class="edge">
<title>Node1&#45;&gt;Node5</title>
<g id="a_edge4_Node000001_Node000005"><a xlink:title=" ">
<path fill="none" stroke="#63b8ff" d="M213.82,-124.4C201.25,-123.05 188.46,-121.68 176.09,-120.35"/>
<polygon fill="#63b8ff" stroke="#63b8ff" points="213.53,-127.89 223.85,-125.48 214.28,-120.93 213.53,-127.89"/>
</a>
</g>
</g>
<!-- Node6 -->
<g id="Node000006" class="node">
<title>Node6</title>
<g id="a_Node000006"><a xlink:href="classcam_1_1nc_1_1rez2__read_1_1Parser.html#a16b4685a6d0b45b32ad762794240dfc0" target="_top" xlink:title=" ">
<polygon fill="white" stroke="#666666" points="157,-78 19,-78 19,-48 157,-48 157,-78"/>
<text text-anchor="start" x="27" y="-66" font-family="Helvetica,sans-Serif" font-size="10.00">cam.nc.rez2_read.Parser.</text>
<text text-anchor="middle" x="88" y="-55" font-family="Helvetica,sans-Serif" font-size="10.00">Parse</text>
</a>
</g>
</g>
<!-- Node1&#45;&gt;Node6 -->
<g id="edge5_Node000001_Node000006" class="edge">
<title>Node1&#45;&gt;Node6</title>
<g id="a_edge5_Node000001_Node000006"><a xlink:title=" ">
<path fill="none" stroke="#63b8ff" d="M277.47,-121.93C250.03,-111.88 210.8,-97.9 176,-87 166.28,-83.95 155.89,-80.91 145.79,-78.06"/>
<polygon fill="#63b8ff" stroke="#63b8ff" points="276.42,-125.28 287.02,-125.45 278.84,-118.71 276.42,-125.28"/>
</a>
</g>
</g>
<!-- Node7 -->
<g id="Node000007" class="node">
<title>Node7</title>
<g id="a_Node000007"><a xlink:href="classcam_1_1nc_1_1heiden__read_1_1Parser.html#a9c64dcddf3c2c0d3248079dde5314cfe" target="_top" xlink:title=" ">
<polygon fill="white" stroke="#666666" points="163,-30 13,-30 13,0 163,0 163,-30"/>
<text text-anchor="start" x="21" y="-18" font-family="Helvetica,sans-Serif" font-size="10.00">cam.nc.heiden_read.Parser.</text>
<text text-anchor="middle" x="88" y="-7" font-family="Helvetica,sans-Serif" font-size="10.00">Parsey</text>
</a>
</g>
</g>
<!-- Node1&#45;&gt;Node7 -->
<g id="edge6_Node000001_Node000007" class="edge">
<title>Node1&#45;&gt;Node7</title>
<g id="a_edge6_Node000001_Node000007"><a xlink:title=" ">
<path fill="none" stroke="#63b8ff" d="M294.01,-118.82C268.91,-97.64 221.9,-60.67 176,-39 168.92,-35.66 161.28,-32.7 153.58,-30.11"/>
<polygon fill="#63b8ff" stroke="#63b8ff" points="291.77,-121.51 301.65,-125.35 296.32,-116.19 291.77,-121.51"/>
</a>
</g>
</g>
</g>
</svg>
</svg>

<style type='text/css'>
<![CDATA[
[data-mouse-over-selected='false'] { opacity: 0.7; }
[data-mouse-over-selected='true']  { opacity: 1.0; }
]]>
</style>
<script type="application/ecmascript"><![CDATA[
document.addEventListener('DOMContentLoaded', (event) => {
  highlightEdges();
  highlightAdjacentNodes();
});
]]></script>
</svg>
