<?xml version="1.0" encoding="UTF-8" standalone="no"?>
<!DOCTYPE svg PUBLIC "-//W3C//DTD SVG 1.1//EN"
 "http://www.w3.org/Graphics/SVG/1.1/DTD/svg11.dtd">
<!-- Generated by graphviz version 2.43.0 (0)
 -->
<!-- Title: cam.nc.num_reader.NumReader Pages: 1 -->
<!--zoomable 467 -->

<svg id="main" version="1.1" xmlns="http://www.w3.org/2000/svg" xmlns:xlink="http://www.w3.org/1999/xlink" xml:space="preserve" onload="init(evt)">
<style type="text/css"><![CDATA[
.node, .edge {opacity: 0.7;}
.node.selected, .edge.selected {opacity: 1;}
.edge:hover path { stroke: red; }
.edge:hover polygon { stroke: red; fill: red; }
]]></style>

<defs>
  <circle id="rim" cx="0" cy="0" r="7"/>
  <circle id="rim2" cx="0" cy="0" r="3.5"/>
  <g id="zoomPlus">
    <use xlink:href="#rim" fill="#404040"><set attributeName="fill" to="#808080" begin="zoomplus.mouseover" end="zoomplus.mouseout"/></use>
    <path d="M-4,0h8M0,-4v8" fill="none" stroke="white" stroke-width="1.5" pointer-events="none"/>
  </g>
  <g id="zoomMin">
    <use xlink:href="#rim" fill="#404040"><set attributeName="fill" to="#808080" begin="zoomminus.mouseover" end="zoomminus.mouseout"/></use>
    <path d="M-4,0h8" fill="none" stroke="white" stroke-width="1.5" pointer-events="none"/>
  </g>
  <g id="arrowUp" transform="translate(30 24)">
    <use xlink:href="#rim"/>
    <path pointer-events="none" fill="none" stroke="white" stroke-width="1.5" d="M0,-3.0v7 M-2.5,-0.5L0,-3.0L2.5,-0.5"/>
  </g>
  <g id="arrowRight" transform="rotate(90) translate(36 -43)">
    <use xlink:href="#rim"/>
    <path pointer-events="none" fill="none" stroke="white" stroke-width="1.5" d="M0,-3.0v7 M-2.5,-0.5L0,-3.0L2.5,-0.5"/>
  </g>
  <g id="arrowDown" transform="rotate(180) translate(-30 -48)">
    <use xlink:href="#rim"/>
    <path pointer-events="none" fill="none" stroke="white" stroke-width="1.5" d="M0,-3.0v7 M-2.5,-0.5L0,-3.0L2.5,-0.5"/>
  </g>
  <g id="arrowLeft" transform="rotate(270) translate(-36 17)">
    <use xlink:href="#rim"/>
    <path pointer-events="none" fill="none" stroke="white" stroke-width="1.5" d="M0,-3.0v7 M-2.5,-0.5L0,-3.0L2.5,-0.5"/>
  </g>
  <g id="resetDef">
    <use xlink:href="#rim2" fill="#404040"><set attributeName="fill" to="#808080" begin="reset.mouseover" end="reset.mouseout"/></use>
  </g>
</defs>
<script type="application/ecmascript">
var viewWidth = 310;
var viewHeight = 467;
var sectionId = 'dynsection-0';
</script>
<script type="application/ecmascript" xlink:href="svg.min.js"/>
<svg id="graph" class="graph">
<g id="viewport">
<title>cam.nc.num_reader.NumReader</title>
<!-- Node1 -->
<g id="Node000001" class="node">
<title>Node1</title>
<g id="a_Node000001"><a xlink:title=" ">
<polygon fill="#999999" stroke="transparent" points="234.5,-374 67.5,-374 67.5,-250 234.5,-250 234.5,-374"/>
<text text-anchor="start" x="73" y="-362" font-family="Helvetica,sans-Serif" font-size="10.00">cam.nc.num_reader.NumReader</text>
<text text-anchor="start" x="91.5" y="-347" font-family="Helvetica,sans-Serif" font-size="10.00">+</text>
<text text-anchor="start" x="124" y="-347" font-family="Helvetica,sans-Serif" font-size="10.00">line_length</text>
<text text-anchor="start" x="91.5" y="-332" font-family="Helvetica,sans-Serif" font-size="10.00">+</text>
<text text-anchor="start" x="124" y="-332" font-family="Helvetica,sans-Serif" font-size="10.00">line_index</text>
<text text-anchor="start" x="91.5" y="-317" font-family="Helvetica,sans-Serif" font-size="10.00">+</text>
<text text-anchor="start" x="124" y="-317" font-family="Helvetica,sans-Serif" font-size="10.00">parse_word</text>
<text text-anchor="start" x="91.5" y="-302" font-family="Helvetica,sans-Serif" font-size="10.00">+</text>
<text text-anchor="start" x="124" y="-302" font-family="Helvetica,sans-Serif" font-size="10.00">__init__()</text>
<text text-anchor="start" x="91.5" y="-287" font-family="Helvetica,sans-Serif" font-size="10.00">+</text>
<text text-anchor="start" x="124" y="-287" font-family="Helvetica,sans-Serif" font-size="10.00">get_number()</text>
<text text-anchor="start" x="91.5" y="-272" font-family="Helvetica,sans-Serif" font-size="10.00">+</text>
<text text-anchor="start" x="124" y="-272" font-family="Helvetica,sans-Serif" font-size="10.00">add_word()</text>
<text text-anchor="start" x="91.5" y="-257" font-family="Helvetica,sans-Serif" font-size="10.00">+</text>
<text text-anchor="start" x="124" y="-257" font-family="Helvetica,sans-Serif" font-size="10.00">Parse()</text>
<polygon fill="#666666" stroke="#666666" points="68,-357 68,-357 235,-357 235,-357 68,-357"/>
<polygon fill="#666666" stroke="#666666" points="68,-312 68,-312 122,-312 122,-312 68,-312"/>
<polygon fill="#666666" stroke="#666666" points="122,-312 122,-312 235,-312 235,-312 122,-312"/>
<polygon fill="none" stroke="#666666" points="67.5,-250 67.5,-374 234.5,-374 234.5,-250 67.5,-250"/>
</a>
</g>
</g>
<!-- Node3 -->
<g id="Node000003" class="node">
<title>Node3</title>
<g id="a_Node000003"><a xlink:href="classcam_1_1nc_1_1hpgl2d__read_1_1Parser.html" target="_top" xlink:title=" ">
<polygon fill="white" stroke="transparent" points="142,-214 0,-214 0,0 142,0 142,-214"/>
<text text-anchor="start" x="5" y="-202" font-family="Helvetica,sans-Serif" font-size="10.00">cam.nc.hpgl2d_read.Parser</text>
<text text-anchor="start" x="7" y="-187" font-family="Helvetica,sans-Serif" font-size="10.00">+</text>
<text text-anchor="start" x="23" y="-187" font-family="Helvetica,sans-Serif" font-size="10.00">i</text>
<text text-anchor="start" x="7" y="-172" font-family="Helvetica,sans-Serif" font-size="10.00">+</text>
<text text-anchor="start" x="23" y="-172" font-family="Helvetica,sans-Serif" font-size="10.00">j</text>
<text text-anchor="start" x="7" y="-157" font-family="Helvetica,sans-Serif" font-size="10.00">+</text>
<text text-anchor="start" x="23" y="-157" font-family="Helvetica,sans-Serif" font-size="10.00">x</text>
<text text-anchor="start" x="7" y="-142" font-family="Helvetica,sans-Serif" font-size="10.00">+</text>
<text text-anchor="start" x="23" y="-142" font-family="Helvetica,sans-Serif" font-size="10.00">y</text>
<text text-anchor="start" x="7" y="-127" font-family="Helvetica,sans-Serif" font-size="10.00">+</text>
<text text-anchor="start" x="23" y="-127" font-family="Helvetica,sans-Serif" font-size="10.00">down_z</text>
<text text-anchor="start" x="7" y="-112" font-family="Helvetica,sans-Serif" font-size="10.00">+</text>
<text text-anchor="start" x="23" y="-112" font-family="Helvetica,sans-Serif" font-size="10.00">up_z</text>
<text text-anchor="start" x="7" y="-97" font-family="Helvetica,sans-Serif" font-size="10.00">+</text>
<text text-anchor="start" x="23" y="-97" font-family="Helvetica,sans-Serif" font-size="10.00">up</text>
<text text-anchor="start" x="7" y="-82" font-family="Helvetica,sans-Serif" font-size="10.00">+</text>
<text text-anchor="start" x="23" y="-82" font-family="Helvetica,sans-Serif" font-size="10.00">units_to_mm</text>
<text text-anchor="start" x="7" y="-67" font-family="Helvetica,sans-Serif" font-size="10.00">+</text>
<text text-anchor="start" x="23" y="-67" font-family="Helvetica,sans-Serif" font-size="10.00">line_index</text>
<text text-anchor="start" x="7" y="-52" font-family="Helvetica,sans-Serif" font-size="10.00">+</text>
<text text-anchor="start" x="23" y="-52" font-family="Helvetica,sans-Serif" font-size="10.00">__init__()</text>
<text text-anchor="start" x="7" y="-37" font-family="Helvetica,sans-Serif" font-size="10.00">+</text>
<text text-anchor="start" x="23" y="-37" font-family="Helvetica,sans-Serif" font-size="10.00">ParsePuOrPd()</text>
<text text-anchor="start" x="7" y="-22" font-family="Helvetica,sans-Serif" font-size="10.00">+</text>
<text text-anchor="start" x="23" y="-22" font-family="Helvetica,sans-Serif" font-size="10.00">ParseAA()</text>
<text text-anchor="start" x="7" y="-7" font-family="Helvetica,sans-Serif" font-size="10.00">+</text>
<text text-anchor="start" x="23" y="-7" font-family="Helvetica,sans-Serif" font-size="10.00">ParseFromFirstLetter()</text>
<polygon fill="#666666" stroke="#666666" points="0,-197 0,-197 142,-197 142,-197 0,-197"/>
<polygon fill="#666666" stroke="#666666" points="0,-62 0,-62 21,-62 21,-62 0,-62"/>
<polygon fill="#666666" stroke="#666666" points="21,-62 21,-62 142,-62 142,-62 21,-62"/>
<polygon fill="none" stroke="#666666" points="0,0 0,-214 142,-214 142,0 0,0"/>
</a>
</g>
</g>
<!-- Node1&#45;&gt;Node3 -->
<g id="edge2_Node000001_Node000003" class="edge">
<title>Node1&#45;&gt;Node3</title>
<g id="a_edge2_Node000001_Node000003"><a xlink:title=" ">
<path fill="none" stroke="#63b8ff" d="M123.16,-240.36C119.81,-231.86 116.33,-223.03 112.84,-214.16"/>
<polygon fill="none" stroke="#63b8ff" points="119.97,-241.8 126.89,-249.82 126.48,-239.23 119.97,-241.8"/>
</a>
</g>
</g>
<!-- Node4 -->
<g id="Node000004" class="node">
<title>Node4</title>
<g id="a_Node000004"><a xlink:href="classcam_1_1nc_1_1hpgl3d__read_1_1Parser.html" target="_top" xlink:title=" ">
<polygon fill="white" stroke="transparent" points="302,-191.5 160,-191.5 160,-22.5 302,-22.5 302,-191.5"/>
<text text-anchor="start" x="165" y="-179" font-family="Helvetica,sans-Serif" font-size="10.00">cam.nc.hpgl3d_read.Parser</text>
<text text-anchor="start" x="167" y="-164" font-family="Helvetica,sans-Serif" font-size="10.00">+</text>
<text text-anchor="start" x="183" y="-164" font-family="Helvetica,sans-Serif" font-size="10.00">x</text>
<text text-anchor="start" x="167" y="-149" font-family="Helvetica,sans-Serif" font-size="10.00">+</text>
<text text-anchor="start" x="183" y="-149" font-family="Helvetica,sans-Serif" font-size="10.00">y</text>
<text text-anchor="start" x="167" y="-134" font-family="Helvetica,sans-Serif" font-size="10.00">+</text>
<text text-anchor="start" x="183" y="-134" font-family="Helvetica,sans-Serif" font-size="10.00">z</text>
<text text-anchor="start" x="167" y="-119" font-family="Helvetica,sans-Serif" font-size="10.00">+</text>
<text text-anchor="start" x="183" y="-119" font-family="Helvetica,sans-Serif" font-size="10.00">f</text>
<text text-anchor="start" x="167" y="-104" font-family="Helvetica,sans-Serif" font-size="10.00">+</text>
<text text-anchor="start" x="183" y="-104" font-family="Helvetica,sans-Serif" font-size="10.00">units_to_mm</text>
<text text-anchor="start" x="167" y="-89" font-family="Helvetica,sans-Serif" font-size="10.00">+</text>
<text text-anchor="start" x="183" y="-89" font-family="Helvetica,sans-Serif" font-size="10.00">line_index</text>
<text text-anchor="start" x="167" y="-74" font-family="Helvetica,sans-Serif" font-size="10.00">+</text>
<text text-anchor="start" x="183" y="-74" font-family="Helvetica,sans-Serif" font-size="10.00">__init__()</text>
<text text-anchor="start" x="167" y="-59" font-family="Helvetica,sans-Serif" font-size="10.00">+</text>
<text text-anchor="start" x="183" y="-59" font-family="Helvetica,sans-Serif" font-size="10.00">ParseV()</text>
<text text-anchor="start" x="167" y="-44" font-family="Helvetica,sans-Serif" font-size="10.00">+</text>
<text text-anchor="start" x="183" y="-44" font-family="Helvetica,sans-Serif" font-size="10.00">ParseZ()</text>
<text text-anchor="start" x="167" y="-29" font-family="Helvetica,sans-Serif" font-size="10.00">+</text>
<text text-anchor="start" x="183" y="-29" font-family="Helvetica,sans-Serif" font-size="10.00">ParseFromFirstLetter()</text>
<polygon fill="#666666" stroke="#666666" points="160,-174 160,-174 302,-174 302,-174 160,-174"/>
<polygon fill="#666666" stroke="#666666" points="160,-84 160,-84 181,-84 181,-84 160,-84"/>
<polygon fill="#666666" stroke="#666666" points="181,-84 181,-84 302,-84 302,-84 181,-84"/>
<polygon fill="none" stroke="#666666" points="160,-22.5 160,-191.5 302,-191.5 302,-22.5 160,-22.5"/>
</a>
</g>
</g>
<!-- Node1&#45;&gt;Node4 -->
<g id="edge3_Node000001_Node000004" class="edge">
<title>Node1&#45;&gt;Node4</title>
<g id="a_edge3_Node000001_Node000004"><a xlink:title=" ">
<path fill="none" stroke="#63b8ff" d="M178.9,-240.2C185.09,-224.5 191.7,-207.71 198.07,-191.56"/>
<polygon fill="none" stroke="#63b8ff" points="175.52,-239.23 175.11,-249.82 182.03,-241.8 175.52,-239.23"/>
</a>
</g>
</g>
<!-- Node2 -->
<g id="Node000002" class="node">
<title>Node2</title>
<g id="a_Node000002"><a xlink:title=" ">
<polygon fill="white" stroke="transparent" points="178.5,-459 123.5,-459 123.5,-410 178.5,-410 178.5,-459"/>
<text text-anchor="start" x="129" y="-446.5" font-family="Helvetica,sans-Serif" font-size="10.00">nc.Parser</text>
<text text-anchor="start" x="149.5" y="-431.5" font-family="Helvetica,sans-Serif" font-size="10.00"> </text>
<text text-anchor="start" x="149.5" y="-416.5" font-family="Helvetica,sans-Serif" font-size="10.00"> </text>
<polygon fill="#666666" stroke="#666666" points="124,-441.5 124,-441.5 179,-441.5 179,-441.5 124,-441.5"/>
<polygon fill="#666666" stroke="#666666" points="124,-426.5 124,-426.5 179,-426.5 179,-426.5 124,-426.5"/>
<polygon fill="none" stroke="#666666" points="123.5,-410 123.5,-459 178.5,-459 178.5,-410 123.5,-410"/>
</a>
</g>
</g>
<!-- Node2&#45;&gt;Node1 -->
<g id="edge1_Node000001_Node000002" class="edge">
<title>Node2&#45;&gt;Node1</title>
<g id="a_edge1_Node000001_Node000002"><a xlink:title=" ">
<path fill="none" stroke="#63b8ff" d="M151,-399.94C151,-391.91 151,-383.08 151,-374.23"/>
<polygon fill="none" stroke="#63b8ff" points="147.5,-399.98 151,-409.98 154.5,-399.98 147.5,-399.98"/>
</a>
</g>
</g>
</g>
</svg>

<g id="navigator" transform="translate(0 0)" fill="#404254">
  <rect fill="#f2f5e9" fill-opacity="0.5" stroke="#606060" stroke-width=".5" x="0" y="0" width="60" height="60"/>
  <use id="zoomplus" xlink:href="#zoomPlus" x="17" y="9" onmousedown="handleZoom(evt,'in')"/>
  <use id="zoomminus" xlink:href="#zoomMin" x="42" y="9" onmousedown="handleZoom(evt,'out')"/>
  <use id="reset" xlink:href="#resetDef" x="30" y="36" onmousedown="handleReset()"/>
   <use id="arrowup" xlink:href="#arrowUp" x="0" y="0" onmousedown="handlePan(0,-1)"/>
  <use id="arrowright" xlink:href="#arrowRight" x="0" y="0" onmousedown="handlePan(1,0)"/>
  <use id="arrowdown" xlink:href="#arrowDown" x="0" y="0" onmousedown="handlePan(0,1)"/>
  <use id="arrowleft" xlink:href="#arrowLeft" x="0" y="0" onmousedown="handlePan(-1,0)"/>
</g>
<svg viewBox="0 0 15 15" width="100%" height="30px" preserveAspectRatio="xMaxYMin meet">
 <g id="arrow_out" transform="scale(0.3 0.3)">
  <a xlink:href="classcam_1_1nc_1_1num__reader_1_1NumReader__inherit__graph_org.svg" target="_base">
   <rect id="button" ry="5" rx="5" y="6" x="6" height="38" width="38"
        fill="#f2f5e9" fill-opacity="0.5" stroke="#606060" stroke-width="1.0"/>
   <path id="arrow"
     d="M 11.500037,31.436501 C 11.940474,20.09759 22.043105,11.32322 32.158766,21.979434 L 37.068811,17.246167 C 37.068811,17.246167 37.088388,32 37.088388,32 L 22.160133,31.978069 C 22.160133,31.978069 26.997745,27.140456 26.997745,27.140456 C 18.528582,18.264221 13.291696,25.230495 11.500037,31.436501 z"
     style="fill:#404040;"/>
  </a>
 </g>
</svg>

<style type='text/css'>
<![CDATA[
[data-mouse-over-selected='false'] { opacity: 0.7; }
[data-mouse-over-selected='true']  { opacity: 1.0; }
]]>
</style>
<script type="application/ecmascript"><![CDATA[
document.addEventListener('DOMContentLoaded', (event) => {
  highlightEdges();
  highlightAdjacentNodes();
});
]]></script>
</svg>
