<?xml version="1.0" encoding="UTF-8" standalone="no"?>
<!DOCTYPE svg PUBLIC "-//W3C//DTD SVG 1.1//EN"
 "http://www.w3.org/Graphics/SVG/1.1/DTD/svg11.dtd">
<!-- Generated by graphviz version 2.43.0 (0)
 -->
<!-- Title: cam.nc.recreator.Redirector.feed Pages: 1 -->
<svg width="601pt" height="196pt"
 viewBox="0.00 0.00 601.00 196.00" xmlns="http://www.w3.org/2000/svg" xmlns:xlink="http://www.w3.org/1999/xlink">
<g id="graph0" class="graph" transform="scale(1 1) rotate(0) translate(4 192)">
<title>cam.nc.recreator.Redirector.feed</title>
<!-- Node1 -->
<g id="Node000001" class="node">
<title>Node1</title>
<g id="a_Node000001"><a xlink:title=" ">
<polygon fill="#999999" stroke="#666666" points="176,-93 0,-93 0,-74 176,-74 176,-93"/>
<text text-anchor="middle" x="88" y="-81" font-family="Helvetica,sans-Serif" font-size="10.00">cam.nc.recreator.Redirector.feed</text>
</a>
</g>
</g>
<!-- Node1&#45;&gt;Node1 -->
<g id="edge6_Node000001_Node000001" class="edge">
<title>Node1&#45;&gt;Node1</title>
<g id="a_edge6_Node000001_Node000001"><a xlink:title=" ">
<path fill="none" stroke="#63b8ff" d="M54.09,-93.08C37.6,-101.73 48.9,-111 88,-111 116.1,-111 129.85,-106.21 129.23,-100.31"/>
<polygon fill="#63b8ff" stroke="#63b8ff" points="131.48,-97.62 121.91,-93.08 126.57,-102.6 131.48,-97.62"/>
</a>
</g>
</g>
<!-- Node2 -->
<g id="Node000002" class="node">
<title>Node2</title>
<g id="a_Node000002"><a xlink:href="classcam_1_1nc_1_1attach_1_1Creator.html#a15a75411685b954b0073489b30f1342e" target="_top" xlink:title=" ">
<polygon fill="white" stroke="#666666" points="394.5,-167 225.5,-167 225.5,-148 394.5,-148 394.5,-167"/>
<text text-anchor="middle" x="310" y="-155" font-family="Helvetica,sans-Serif" font-size="10.00">cam.nc.attach.Creator.cut_path</text>
</a>
</g>
</g>
<!-- Node1&#45;&gt;Node2 -->
<g id="edge1_Node000001_Node000002" class="edge">
<title>Node1&#45;&gt;Node2</title>
<g id="a_edge1_Node000001_Node000002"><a xlink:title=" ">
<path fill="none" stroke="#63b8ff" d="M106.83,-93.03C130.32,-105.21 173.2,-126.2 212,-138.5 220.65,-141.24 229.86,-143.66 239.04,-145.77"/>
<polygon fill="#63b8ff" stroke="#63b8ff" points="238.44,-149.23 248.96,-147.95 239.94,-142.39 238.44,-149.23"/>
</a>
</g>
</g>
<!-- Node5 -->
<g id="Node000005" class="node">
<title>Node5</title>
<g id="a_Node000005"><a xlink:href="classcam_1_1nc_1_1drag__knife_1_1Creator.html#a5db2841a5c931c72702e9bb7752ea731" target="_top" xlink:title=" ">
<polygon fill="white" stroke="#666666" points="405,-130 215,-130 215,-111 405,-111 405,-130"/>
<text text-anchor="middle" x="310" y="-118" font-family="Helvetica,sans-Serif" font-size="10.00">cam.nc.drag_knife.Creator.cut_path</text>
</a>
</g>
</g>
<!-- Node1&#45;&gt;Node5 -->
<g id="edge4_Node000001_Node000005" class="edge">
<title>Node1&#45;&gt;Node5</title>
<g id="a_edge4_Node000001_Node000005"><a xlink:title=" ">
<path fill="none" stroke="#63b8ff" d="M145.66,-93.03C175.05,-97.97 211.15,-104.04 241.94,-109.22"/>
<polygon fill="#63b8ff" stroke="#63b8ff" points="241.71,-112.73 252.15,-110.94 242.87,-105.83 241.71,-112.73"/>
</a>
</g>
</g>
<!-- Node6 -->
<g id="Node000006" class="node">
<title>Node6</title>
<g id="a_Node000006"><a xlink:href="classcam_1_1nc_1_1recreator_1_1Redirector.html#ace3039c310a7ee83dafe4fee4382f511" target="_top" xlink:title=" ">
<polygon fill="white" stroke="#666666" points="408,-93 212,-93 212,-74 408,-74 408,-93"/>
<text text-anchor="middle" x="310" y="-81" font-family="Helvetica,sans-Serif" font-size="10.00">cam.nc.recreator.Redirector.cut_path</text>
</a>
</g>
</g>
<!-- Node1&#45;&gt;Node6 -->
<g id="edge5_Node000001_Node000006" class="edge">
<title>Node1&#45;&gt;Node6</title>
<g id="a_edge5_Node000001_Node000006"><a xlink:title=" ">
<path fill="none" stroke="#63b8ff" d="M176.27,-83.5C184.54,-83.5 192.99,-83.5 201.42,-83.5"/>
<polygon fill="#63b8ff" stroke="#63b8ff" points="201.69,-87 211.69,-83.5 201.69,-80 201.69,-87"/>
</a>
</g>
</g>
<!-- Node7 -->
<g id="Node000007" class="node">
<title>Node7</title>
<g id="a_Node000007"><a xlink:href="classcam_1_1nc_1_1attach_1_1Creator.html#a781f934a2cb228d2f189c1326a389505" target="_top" xlink:title=" ">
<polygon fill="white" stroke="#666666" points="379,-56 241,-56 241,-37 379,-37 379,-56"/>
<text text-anchor="middle" x="310" y="-44" font-family="Helvetica,sans-Serif" font-size="10.00">cam.nc.attach.Creator.z2</text>
</a>
</g>
</g>
<!-- Node1&#45;&gt;Node7 -->
<g id="edge7_Node000001_Node000007" class="edge">
<title>Node1&#45;&gt;Node7</title>
<g id="a_edge7_Node000001_Node000007"><a xlink:title=" ">
<path fill="none" stroke="#63b8ff" d="M145.66,-73.97C175.05,-69.03 211.15,-62.96 241.94,-57.78"/>
<polygon fill="#63b8ff" stroke="#63b8ff" points="242.87,-61.17 252.15,-56.06 241.71,-54.27 242.87,-61.17"/>
</a>
</g>
</g>
<!-- Node8 -->
<g id="Node000008" class="node">
<title>Node8</title>
<g id="a_Node000008"><a xlink:href="classcam_1_1nc_1_1recreator_1_1Redirector.html#a41d6d316b606ac4c1594e1c259f929eb" target="_top" xlink:title=" ">
<polygon fill="white" stroke="#666666" points="392.5,-19 227.5,-19 227.5,0 392.5,0 392.5,-19"/>
<text text-anchor="middle" x="310" y="-7" font-family="Helvetica,sans-Serif" font-size="10.00">cam.nc.recreator.Redirector.z2</text>
</a>
</g>
</g>
<!-- Node1&#45;&gt;Node8 -->
<g id="edge8_Node000001_Node000008" class="edge">
<title>Node1&#45;&gt;Node8</title>
<g id="a_edge8_Node000001_Node000008"><a xlink:title=" ">
<path fill="none" stroke="#63b8ff" d="M106.39,-73.94C129.74,-61.48 172.84,-39.84 212,-27.5 219.47,-25.15 227.36,-23.06 235.29,-21.22"/>
<polygon fill="#63b8ff" stroke="#63b8ff" points="236.3,-24.58 245.32,-19.02 234.8,-17.74 236.3,-24.58"/>
</a>
</g>
</g>
<!-- Node3 -->
<g id="Node000003" class="node">
<title>Node3</title>
<g id="a_Node000003"><a xlink:href="classcam_1_1nc_1_1attach_1_1Creator.html#a27a17497f0889323fd31aab4f857e577" target="_top" xlink:title=" ">
<polygon fill="white" stroke="#666666" points="593,-188 444,-188 444,-169 593,-169 593,-188"/>
<text text-anchor="middle" x="518.5" y="-176" font-family="Helvetica,sans-Serif" font-size="10.00">cam.nc.attach.Creator.feed</text>
</a>
</g>
</g>
<!-- Node2&#45;&gt;Node3 -->
<g id="edge2_Node000002_Node000003" class="edge">
<title>Node2&#45;&gt;Node3</title>
<g id="a_edge2_Node000002_Node000003"><a xlink:title=" ">
<path fill="none" stroke="#63b8ff" d="M394.69,-166.01C407.57,-167.32 420.87,-168.67 433.76,-169.98"/>
<polygon fill="#63b8ff" stroke="#63b8ff" points="433.68,-173.49 443.98,-171.02 434.38,-166.53 433.68,-173.49"/>
</a>
</g>
</g>
<!-- Node4 -->
<g id="Node000004" class="node">
<title>Node4</title>
<g id="a_Node000004"><a xlink:href="classcam_1_1nc_1_1attach_1_1Creator.html#a64e13dd00fd58d3db3818de0d188bafa" target="_top" xlink:title="Shift in Z.">
<polygon fill="white" stroke="#666666" points="589.5,-150.5 447.5,-150.5 447.5,-120.5 589.5,-120.5 589.5,-150.5"/>
<text text-anchor="start" x="455.5" y="-138.5" font-family="Helvetica,sans-Serif" font-size="10.00">cam.nc.attach.Creator.set</text>
<text text-anchor="middle" x="518.5" y="-127.5" font-family="Helvetica,sans-Serif" font-size="10.00">PdcfIfNotSet</text>
</a>
</g>
</g>
<!-- Node2&#45;&gt;Node4 -->
<g id="edge3_Node000002_Node000004" class="edge">
<title>Node2&#45;&gt;Node4</title>
<g id="a_edge3_Node000002_Node000004"><a xlink:title=" ">
<path fill="none" stroke="#63b8ff" d="M394.69,-148.58C408.73,-147.09 423.26,-145.54 437.21,-144.05"/>
<polygon fill="#63b8ff" stroke="#63b8ff" points="437.67,-147.52 447.24,-142.98 436.93,-140.56 437.67,-147.52"/>
</a>
</g>
</g>
</g>
</svg>
