<?xml version="1.0" encoding="UTF-8" standalone="no"?>
<!DOCTYPE svg PUBLIC "-//W3C//DTD SVG 1.1//EN"
 "http://www.w3.org/Graphics/SVG/1.1/DTD/svg11.dtd">
<!-- Generated by graphviz version 2.43.0 (0)
 -->
<!-- Title: cam.nc.iso.Creator.FORMAT_TIME Pages: 1 -->
<svg width="1127pt" height="159pt"
 viewBox="0.00 0.00 1127.00 159.25" xmlns="http://www.w3.org/2000/svg" xmlns:xlink="http://www.w3.org/1999/xlink">
<g id="graph0" class="graph" transform="scale(1 1) rotate(0) translate(4 155.25)">
<title>cam.nc.iso.Creator.FORMAT_TIME</title>
<!-- Node1 -->
<g id="Node000001" class="node">
<title>Node1</title>
<g id="a_Node000001"><a xlink:title=" ">
<polygon fill="#999999" stroke="#666666" points="1119,-114.52 938,-114.52 938,-95.52 1119,-95.52 1119,-114.52"/>
<text text-anchor="middle" x="1028.5" y="-102.52" font-family="Helvetica,sans-Serif" font-size="10.00">cam.nc.iso.Creator.FORMAT_TIME</text>
</a>
</g>
</g>
<!-- Node2 -->
<g id="Node000002" class="node">
<title>Node2</title>
<g id="a_Node000002"><a xlink:href="classcam_1_1nc_1_1iso_1_1Creator.html#a61f29267aaaddc3d5c8471f9bf714cb3" target="_top" xlink:title=" ">
<polygon fill="white" stroke="#666666" points="328.5,-89.52 199.5,-89.52 199.5,-70.52 328.5,-70.52 328.5,-89.52"/>
<text text-anchor="middle" x="264" y="-77.52" font-family="Helvetica,sans-Serif" font-size="10.00">cam.nc.iso.Creator.drill</text>
</a>
</g>
</g>
<!-- Node1&#45;&gt;Node2 -->
<g id="edge1_Node000001_Node000002" class="edge">
<title>Node1&#45;&gt;Node2</title>
<g id="a_edge1_Node000001_Node000002"><a xlink:title=" ">
<path fill="none" stroke="#63b8ff" d="M970.51,-116.4C855.97,-137.26 590.32,-175.4 374,-129.02 338.7,-121.45 301.03,-101.53 280.52,-89.55"/>
<polygon fill="#63b8ff" stroke="#63b8ff" points="971.26,-119.82 980.46,-114.56 969.99,-112.94 971.26,-119.82"/>
</a>
</g>
</g>
<!-- Node4 -->
<g id="Node000004" class="node">
<title>Node4</title>
<g id="a_Node000004"><a xlink:href="classcam_1_1nc_1_1iso_1_1Creator.html#a9de38f28a50fe72c3acc6ab317e8ac72" target="_top" xlink:title=" ">
<polygon fill="white" stroke="#666666" points="520.5,-120.02 382.5,-120.02 382.5,-90.02 520.5,-90.02 520.5,-120.02"/>
<text text-anchor="start" x="390.5" y="-108.02" font-family="Helvetica,sans-Serif" font-size="10.00">cam.nc.iso.Creator.DRILL</text>
<text text-anchor="middle" x="451.5" y="-97.02" font-family="Helvetica,sans-Serif" font-size="10.00">_WITH_DWELL</text>
</a>
</g>
</g>
<!-- Node1&#45;&gt;Node4 -->
<g id="edge3_Node000001_Node000004" class="edge">
<title>Node1&#45;&gt;Node4</title>
<g id="a_edge3_Node000001_Node000004"><a xlink:title=" ">
<path fill="none" stroke="#63b8ff" d="M927.62,-105.02C811.08,-105.02 621.51,-105.02 520.66,-105.02"/>
<polygon fill="#63b8ff" stroke="#63b8ff" points="927.97,-108.52 937.97,-105.02 927.97,-101.52 927.97,-108.52"/>
</a>
</g>
</g>
<!-- Node6 -->
<g id="Node000006" class="node">
<title>Node6</title>
<g id="a_Node000006"><a xlink:href="classcam_1_1nc_1_1iso_1_1Creator.html#a38023bce2c5fa93a404b2c166ba9f7fe" target="_top" xlink:title=" ">
<polygon fill="white" stroke="#666666" points="902,-74.52 758,-74.52 758,-55.52 902,-55.52 902,-74.52"/>
<text text-anchor="middle" x="830" y="-62.52" font-family="Helvetica,sans-Serif" font-size="10.00">cam.nc.iso.Creator.DWELL</text>
</a>
</g>
</g>
<!-- Node1&#45;&gt;Node6 -->
<g id="edge7_Node000001_Node000006" class="edge">
<title>Node1&#45;&gt;Node6</title>
<g id="a_edge7_Node000001_Node000006"><a xlink:title=" ">
<path fill="none" stroke="#63b8ff" d="M970.3,-93.37C940.86,-87.38 905.44,-80.17 877.68,-74.52"/>
<polygon fill="#63b8ff" stroke="#63b8ff" points="969.94,-96.87 980.43,-95.43 971.33,-90.01 969.94,-96.87"/>
</a>
</g>
</g>
<!-- Node3 -->
<g id="Node000003" class="node">
<title>Node3</title>
<g id="a_Node000003"><a xlink:href="classcam_1_1nc_1_1cad__iso__read_1_1Parser.html#abf885d019794a8bef1b69f446c8851e1" target="_top" xlink:title=" ">
<polygon fill="white" stroke="#666666" points="154,-76.02 0,-76.02 0,-46.02 154,-46.02 154,-76.02"/>
<text text-anchor="start" x="8" y="-64.02" font-family="Helvetica,sans-Serif" font-size="10.00">cam.nc.cad_iso_read.Parser.</text>
<text text-anchor="middle" x="77" y="-53.02" font-family="Helvetica,sans-Serif" font-size="10.00">Parse</text>
</a>
</g>
</g>
<!-- Node2&#45;&gt;Node3 -->
<g id="edge2_Node000002_Node000003" class="edge">
<title>Node2&#45;&gt;Node3</title>
<g id="a_edge2_Node000002_Node000003"><a xlink:title=" ">
<path fill="none" stroke="#63b8ff" d="M189.32,-72.45C177.77,-71.26 165.83,-70.04 154.23,-68.84"/>
<polygon fill="#63b8ff" stroke="#63b8ff" points="189.03,-75.94 199.33,-73.48 189.74,-68.97 189.03,-75.94"/>
</a>
</g>
</g>
<!-- Node4&#45;&gt;Node2 -->
<g id="edge6_Node000004_Node000002" class="edge">
<title>Node4&#45;&gt;Node2</title>
<g id="a_edge6_Node000004_Node000002"><a xlink:title=" ">
<path fill="none" stroke="#63b8ff" d="M372.48,-94.5C357.88,-92.53 342.79,-90.5 328.7,-88.6"/>
<polygon fill="#63b8ff" stroke="#63b8ff" points="372.1,-97.98 382.48,-95.85 373.04,-91.04 372.1,-97.98"/>
</a>
</g>
</g>
<!-- Node5 -->
<g id="Node000005" class="node">
<title>Node5</title>
<g id="a_Node000005"><a xlink:href="classcam_1_1nc_1_1heiden_1_1Creator.html#ab1ba24f0b927edab5d70c6642ceacfc4" target="_top" xlink:title=" ">
<polygon fill="white" stroke="#666666" points="338,-52.52 190,-52.52 190,-33.52 338,-33.52 338,-52.52"/>
<text text-anchor="middle" x="264" y="-40.52" font-family="Helvetica,sans-Serif" font-size="10.00">cam.nc.heiden.Creator.drill</text>
</a>
</g>
</g>
<!-- Node4&#45;&gt;Node5 -->
<g id="edge4_Node000004_Node000005" class="edge">
<title>Node4&#45;&gt;Node5</title>
<g id="a_edge4_Node000004_Node000005"><a xlink:title=" ">
<path fill="none" stroke="#63b8ff" d="M388.59,-86.66C383.61,-84.86 378.7,-82.97 374,-81.02 357.3,-74.06 354.87,-68.56 338,-62.02 328.6,-58.37 318.25,-55.2 308.37,-52.54"/>
<polygon fill="#63b8ff" stroke="#63b8ff" points="387.6,-90.02 398.19,-90 389.9,-83.41 387.6,-90.02"/>
</a>
</g>
</g>
<!-- Node5&#45;&gt;Node3 -->
<g id="edge5_Node000005_Node000003" class="edge">
<title>Node5&#45;&gt;Node3</title>
<g id="a_edge5_Node000005_Node000003"><a xlink:title=" ">
<path fill="none" stroke="#63b8ff" d="M179.91,-51.1C171.36,-51.93 162.7,-52.77 154.23,-53.6"/>
<polygon fill="#63b8ff" stroke="#63b8ff" points="180.27,-54.58 189.88,-50.13 179.59,-47.61 180.27,-54.58"/>
</a>
</g>
</g>
<!-- Node7 -->
<g id="Node000007" class="node">
<title>Node7</title>
<g id="a_Node000007"><a xlink:href="classcam_1_1nc_1_1iso_1_1Creator.html#a2043c0e5205bc5f240aa9c08c4eebc76" target="_top" xlink:title=" ">
<polygon fill="white" stroke="#666666" points="520,-71.52 383,-71.52 383,-52.52 520,-52.52 520,-71.52"/>
<text text-anchor="middle" x="451.5" y="-59.52" font-family="Helvetica,sans-Serif" font-size="10.00">cam.nc.iso.Creator.dwell</text>
</a>
</g>
</g>
<!-- Node6&#45;&gt;Node7 -->
<g id="edge8_Node000006_Node000007" class="edge">
<title>Node6&#45;&gt;Node7</title>
<g id="a_edge8_Node000006_Node000007"><a xlink:title=" ">
<path fill="none" stroke="#63b8ff" d="M747.51,-64.37C679.63,-63.83 584.07,-63.06 520.3,-62.56"/>
<polygon fill="#63b8ff" stroke="#63b8ff" points="747.71,-67.87 757.74,-64.45 747.77,-60.87 747.71,-67.87"/>
</a>
</g>
</g>
<!-- Node8 -->
<g id="Node000008" class="node">
<title>Node8</title>
<g id="a_Node000008"><a xlink:href="classcam_1_1nc_1_1lynx__otter__o_1_1Creator.html#a938dbfeaac243e8b8fa23f01bee13121" target="_top" xlink:title=" ">
<polygon fill="white" stroke="#666666" points="722,-37.02 565,-37.02 565,-7.02 722,-7.02 722,-37.02"/>
<text text-anchor="start" x="573" y="-25.02" font-family="Helvetica,sans-Serif" font-size="10.00">cam.nc.lynx_otter_o.Creator.</text>
<text text-anchor="middle" x="643.5" y="-14.02" font-family="Helvetica,sans-Serif" font-size="10.00">FORMAT_DWELL</text>
</a>
</g>
</g>
<!-- Node6&#45;&gt;Node8 -->
<g id="edge11_Node000006_Node000008" class="edge">
<title>Node6&#45;&gt;Node8</title>
<g id="a_edge11_Node000006_Node000008"><a xlink:title=" ">
<path fill="none" stroke="#63b8ff" d="M778.18,-53.17C756.77,-48.18 731.58,-42.31 708.89,-37.02"/>
<polygon fill="#63b8ff" stroke="#63b8ff" points="777.52,-56.61 788.05,-55.47 779.11,-49.79 777.52,-56.61"/>
</a>
</g>
</g>
<!-- Node7&#45;&gt;Node2 -->
<g id="edge10_Node000007_Node000002" class="edge">
<title>Node7&#45;&gt;Node2</title>
<g id="a_edge10_Node000007_Node000002"><a xlink:title=" ">
<path fill="none" stroke="#63b8ff" d="M372.67,-69.57C357.97,-70.99 342.76,-72.47 328.56,-73.85"/>
<polygon fill="#63b8ff" stroke="#63b8ff" points="373.13,-73.04 382.74,-68.59 372.45,-66.07 373.13,-73.04"/>
</a>
</g>
</g>
<!-- Node7&#45;&gt;Node5 -->
<g id="edge9_Node000007_Node000005" class="edge">
<title>Node7&#45;&gt;Node5</title>
<g id="a_edge9_Node000007_Node000005"><a xlink:title=" ">
<path fill="none" stroke="#63b8ff" d="M372.78,-54.06C361.32,-52.88 349.56,-51.68 338.2,-50.51"/>
<polygon fill="#63b8ff" stroke="#63b8ff" points="372.44,-57.54 382.74,-55.08 373.15,-50.58 372.44,-57.54"/>
</a>
</g>
</g>
<!-- Node8&#45;&gt;Node5 -->
<g id="edge12_Node000008_Node000005" class="edge">
<title>Node8&#45;&gt;Node5</title>
<g id="a_edge12_Node000008_Node000005"><a xlink:title=" ">
<path fill="none" stroke="#63b8ff" d="M554.78,-7C502.07,-0.4 433.84,3.86 374,-6.02 342.45,-11.22 307.76,-24.38 286.18,-33.51"/>
<polygon fill="#63b8ff" stroke="#63b8ff" points="554.4,-10.48 564.77,-8.3 555.31,-3.54 554.4,-10.48"/>
</a>
</g>
</g>
<!-- Node9 -->
<g id="Node000009" class="node">
<title>Node9</title>
<g id="a_Node000009"><a xlink:href="classcam_1_1nc_1_1heiden_1_1Creator.html#a0a26a4f1085a95ed80cf3cc1e7d8eb97" target="_top" xlink:title=" ">
<polygon fill="white" stroke="#666666" points="529,-34.52 374,-34.52 374,-15.52 529,-15.52 529,-34.52"/>
<text text-anchor="middle" x="451.5" y="-22.52" font-family="Helvetica,sans-Serif" font-size="10.00">cam.nc.heiden.Creator.dwell</text>
</a>
</g>
</g>
<!-- Node8&#45;&gt;Node9 -->
<g id="edge13_Node000008_Node000009" class="edge">
<title>Node8&#45;&gt;Node9</title>
<g id="a_edge13_Node000008_Node000009"><a xlink:title=" ">
<path fill="none" stroke="#63b8ff" d="M554.92,-23.4C546.33,-23.53 537.66,-23.67 529.19,-23.8"/>
<polygon fill="#63b8ff" stroke="#63b8ff" points="555,-26.9 564.95,-23.24 554.89,-19.9 555,-26.9"/>
</a>
</g>
</g>
<!-- Node9&#45;&gt;Node2 -->
<g id="edge15_Node000009_Node000002" class="edge">
<title>Node9&#45;&gt;Node2</title>
<g id="a_edge15_Node000009_Node000002"><a xlink:title=" ">
<path fill="none" stroke="#63b8ff" d="M391.39,-37.32C385.45,-39.03 379.57,-40.93 374,-43.02 357.06,-49.36 354.91,-55.58 338,-62.02 329.46,-65.27 320.13,-68.08 311.09,-70.46"/>
<polygon fill="#63b8ff" stroke="#63b8ff" points="392.65,-40.61 401.38,-34.62 390.82,-33.85 392.65,-40.61"/>
</a>
</g>
</g>
<!-- Node9&#45;&gt;Node5 -->
<g id="edge14_Node000009_Node000005" class="edge">
<title>Node9&#45;&gt;Node5</title>
<g id="a_edge14_Node000009_Node000005"><a xlink:title=" ">
<path fill="none" stroke="#63b8ff" d="M363.89,-33.42C355.25,-34.26 346.54,-35.1 338.06,-35.93"/>
<polygon fill="#63b8ff" stroke="#63b8ff" points="364.36,-36.89 373.98,-32.44 363.69,-29.92 364.36,-36.89"/>
</a>
</g>
</g>
</g>
</svg>
