<?xml version="1.0" encoding="UTF-8" standalone="no"?>
<!DOCTYPE svg PUBLIC "-//W3C//DTD SVG 1.1//EN"
 "http://www.w3.org/Graphics/SVG/1.1/DTD/svg11.dtd">
<!-- Generated by graphviz version 2.43.0 (0)
 -->
<!-- Title: cam.curvecamcreate.CamCurvePlate Pages: 1 -->
<svg width="537pt" height="245pt"
 viewBox="0.00 0.00 536.50 245.00" xmlns="http://www.w3.org/2000/svg" xmlns:xlink="http://www.w3.org/1999/xlink">
<g id="graph0" class="graph" transform="scale(1 1) rotate(0) translate(4 241)">
<title>cam.curvecamcreate.CamCurvePlate</title>
<!-- Node1 -->
<g id="Node000001" class="node">
<title>Node1</title>
<g id="a_Node000001"><a xlink:title=" ">
<polygon fill="#999999" stroke="transparent" points="294,-75 127,-75 127,0 294,0 294,-75"/>
<text text-anchor="start" x="132.5" y="-62.5" font-family="Helvetica,sans-Serif" font-size="10.00">cam.curvecamcreate.CamCurve</text>
<text text-anchor="start" x="198.5" y="-51.5" font-family="Helvetica,sans-Serif" font-size="10.00">Plate</text>
<text text-anchor="start" x="209" y="-36.5" font-family="Helvetica,sans-Serif" font-size="10.00"> </text>
<text text-anchor="start" x="156.5" y="-21.5" font-family="Helvetica,sans-Serif" font-size="10.00">+</text>
<text text-anchor="start" x="194.5" y="-21.5" font-family="Helvetica,sans-Serif" font-size="10.00">draw()</text>
<text text-anchor="start" x="156.5" y="-6.5" font-family="Helvetica,sans-Serif" font-size="10.00">+</text>
<text text-anchor="start" x="194.5" y="-6.5" font-family="Helvetica,sans-Serif" font-size="10.00">execute()</text>
<polygon fill="#666666" stroke="#666666" points="127.5,-46.5 127.5,-46.5 294.5,-46.5 294.5,-46.5 127.5,-46.5"/>
<polygon fill="#666666" stroke="#666666" points="127.5,-31.5 127.5,-31.5 294.5,-31.5 294.5,-31.5 127.5,-31.5"/>
<polygon fill="none" stroke="#666666" points="127,0 127,-75 294,-75 294,0 127,0"/>
</a>
</g>
</g>
<!-- Node2 -->
<g id="Node000002" class="node">
<title>Node2</title>
<g id="a_Node000002"><a xlink:title=" ">
<polygon fill="white" stroke="transparent" points="53,-237 0,-237 0,-188 53,-188 53,-237"/>
<text text-anchor="start" x="5.5" y="-224.5" font-family="Helvetica,sans-Serif" font-size="10.00">Operator</text>
<text text-anchor="start" x="25" y="-209.5" font-family="Helvetica,sans-Serif" font-size="10.00"> </text>
<text text-anchor="start" x="25" y="-194.5" font-family="Helvetica,sans-Serif" font-size="10.00"> </text>
<polygon fill="#666666" stroke="#666666" points="0.5,-219.5 0.5,-219.5 53.5,-219.5 53.5,-219.5 0.5,-219.5"/>
<polygon fill="#666666" stroke="#666666" points="0.5,-204.5 0.5,-204.5 53.5,-204.5 53.5,-204.5 0.5,-204.5"/>
<polygon fill="none" stroke="#666666" points="0,-188 0,-237 53,-237 53,-188 0,-188"/>
</a>
</g>
</g>
<!-- Node2&#45;&gt;Node1 -->
<g id="edge1_Node000001_Node000002" class="edge">
<title>Node2&#45;&gt;Node1</title>
<g id="a_edge1_Node000001_Node000002"><a xlink:title=" ">
<path fill="none" stroke="#63b8ff" d="M32.25,-178.09C38.35,-151.88 50.44,-116.08 73.5,-93 88.24,-78.24 107.49,-67.36 126.87,-59.37"/>
<polygon fill="none" stroke="#63b8ff" points="28.8,-177.46 30.12,-187.97 35.65,-178.93 28.8,-177.46"/>
</a>
</g>
</g>
<!-- Node3 -->
<g id="Node000003" class="node">
<title>Node3</title>
<g id="a_Node000003"><a xlink:title=" ">
<polygon fill="white" stroke="transparent" points="94,-237 71,-237 71,-188 94,-188 94,-237"/>
<text text-anchor="start" x="76.5" y="-224.5" font-family="Helvetica,sans-Serif" font-size="10.00">str</text>
<text text-anchor="start" x="81" y="-209.5" font-family="Helvetica,sans-Serif" font-size="10.00"> </text>
<text text-anchor="start" x="81" y="-194.5" font-family="Helvetica,sans-Serif" font-size="10.00"> </text>
<polygon fill="#666666" stroke="#666666" points="71.5,-219.5 71.5,-219.5 94.5,-219.5 94.5,-219.5 71.5,-219.5"/>
<polygon fill="#666666" stroke="#666666" points="71.5,-204.5 71.5,-204.5 94.5,-204.5 94.5,-204.5 71.5,-204.5"/>
<polygon fill="none" stroke="#666666" points="71,-188 71,-237 94,-237 94,-188 71,-188"/>
</a>
</g>
</g>
<!-- Node3&#45;&gt;Node1 -->
<g id="edge2_Node000001_Node000003" class="edge">
<title>Node3&#45;&gt;Node1</title>
<g id="a_edge2_Node000001_Node000003"><a xlink:title=" ">
<path fill="none" stroke="#63b8ff" d="M78.5,-187.78C75.5,-162.02 74.78,-120.84 94.5,-93 100.46,-84.58 108.07,-77.43 116.53,-71.35"/>
<polygon fill="none" stroke="#63b8ff" points="116.73,-71.22 119.6,-64.6 126.81,-64.7 123.94,-71.32 116.73,-71.22"/>
</a>
</g>
<text text-anchor="middle" x="126" y="-134.5" font-family="Helvetica,sans-Serif" font-size="10.00" fill="grey"> +bl_idname</text>
<text text-anchor="middle" x="126" y="-123.5" font-family="Helvetica,sans-Serif" font-size="10.00" fill="grey">+bl_label</text>
</g>
<!-- Node4 -->
<g id="Node000004" class="node">
<title>Node4</title>
<g id="a_Node000004"><a xlink:title=" ">
<polygon fill="white" stroke="transparent" points="183,-237 154,-237 154,-188 183,-188 183,-237"/>
<text text-anchor="start" x="159.5" y="-224.5" font-family="Helvetica,sans-Serif" font-size="10.00">dict</text>
<text text-anchor="start" x="167" y="-209.5" font-family="Helvetica,sans-Serif" font-size="10.00"> </text>
<text text-anchor="start" x="167" y="-194.5" font-family="Helvetica,sans-Serif" font-size="10.00"> </text>
<polygon fill="#666666" stroke="#666666" points="154.5,-219.5 154.5,-219.5 183.5,-219.5 183.5,-219.5 154.5,-219.5"/>
<polygon fill="#666666" stroke="#666666" points="154.5,-204.5 154.5,-204.5 183.5,-204.5 183.5,-204.5 154.5,-204.5"/>
<polygon fill="none" stroke="#666666" points="154,-188 154,-237 183,-237 183,-188 154,-188"/>
</a>
</g>
</g>
<!-- Node4&#45;&gt;Node1 -->
<g id="edge3_Node000001_Node000004" class="edge">
<title>Node4&#45;&gt;Node1</title>
<g id="a_edge3_Node000001_Node000004"><a xlink:title=" ">
<path fill="none" stroke="#63b8ff" d="M164.42,-187.62C161.21,-163.15 158.87,-124.37 169.5,-93 170.32,-90.59 171.28,-88.2 172.37,-85.85"/>
<polygon fill="none" stroke="#63b8ff" points="172.48,-85.66 171.84,-78.48 178.23,-75.13 178.86,-82.31 172.48,-85.66"/>
</a>
</g>
<text text-anchor="middle" x="200.5" y="-129" font-family="Helvetica,sans-Serif" font-size="10.00" fill="grey"> +bl_options</text>
</g>
<!-- Node5 -->
<g id="Node000005" class="node">
<title>Node5</title>
<g id="a_Node000005"><a xlink:title=" ">
<polygon fill="white" stroke="transparent" points="292,-237 215,-237 215,-188 292,-188 292,-237"/>
<text text-anchor="start" x="220.5" y="-224.5" font-family="Helvetica,sans-Serif" font-size="10.00">FloatProperty</text>
<text text-anchor="start" x="252" y="-209.5" font-family="Helvetica,sans-Serif" font-size="10.00"> </text>
<text text-anchor="start" x="252" y="-194.5" font-family="Helvetica,sans-Serif" font-size="10.00"> </text>
<polygon fill="#666666" stroke="#666666" points="215.5,-219.5 215.5,-219.5 292.5,-219.5 292.5,-219.5 215.5,-219.5"/>
<polygon fill="#666666" stroke="#666666" points="215.5,-204.5 215.5,-204.5 292.5,-204.5 292.5,-204.5 215.5,-204.5"/>
<polygon fill="none" stroke="#666666" points="215,-188 215,-237 292,-237 292,-188 215,-188"/>
</a>
</g>
</g>
<!-- Node5&#45;&gt;Node1 -->
<g id="edge4_Node000001_Node000005" class="edge">
<title>Node5&#45;&gt;Node1</title>
<g id="a_edge4_Node000001_Node000005"><a xlink:title=" ">
<path fill="none" stroke="#63b8ff" d="M250.38,-187.6C246.93,-163.45 240.61,-125.22 231.5,-93 230.9,-90.9 230.26,-88.76 229.58,-86.61"/>
<polygon fill="none" stroke="#63b8ff" points="229.54,-86.49 223.82,-82.1 225.67,-75.13 231.39,-79.52 229.54,-86.49"/>
</a>
</g>
<text text-anchor="middle" x="288" y="-162" font-family="Helvetica,sans-Serif" font-size="10.00" fill="grey"> +height</text>
<text text-anchor="middle" x="288" y="-151" font-family="Helvetica,sans-Serif" font-size="10.00" fill="grey">+hole_diameter</text>
<text text-anchor="middle" x="288" y="-140" font-family="Helvetica,sans-Serif" font-size="10.00" fill="grey">+hole_hdist</text>
<text text-anchor="middle" x="288" y="-129" font-family="Helvetica,sans-Serif" font-size="10.00" fill="grey">+hole_tolerance</text>
<text text-anchor="middle" x="288" y="-118" font-family="Helvetica,sans-Serif" font-size="10.00" fill="grey">+hole_vdist</text>
<text text-anchor="middle" x="288" y="-107" font-family="Helvetica,sans-Serif" font-size="10.00" fill="grey">+radius</text>
<text text-anchor="middle" x="288" y="-96" font-family="Helvetica,sans-Serif" font-size="10.00" fill="grey">+width</text>
</g>
<!-- Node6 -->
<g id="Node000006" class="node">
<title>Node6</title>
<g id="a_Node000006"><a xlink:title=" ">
<polygon fill="white" stroke="transparent" points="390,-237 325,-237 325,-188 390,-188 390,-237"/>
<text text-anchor="start" x="330.5" y="-224.5" font-family="Helvetica,sans-Serif" font-size="10.00">IntProperty</text>
<text text-anchor="start" x="356" y="-209.5" font-family="Helvetica,sans-Serif" font-size="10.00"> </text>
<text text-anchor="start" x="356" y="-194.5" font-family="Helvetica,sans-Serif" font-size="10.00"> </text>
<polygon fill="#666666" stroke="#666666" points="325.5,-219.5 325.5,-219.5 390.5,-219.5 390.5,-219.5 325.5,-219.5"/>
<polygon fill="#666666" stroke="#666666" points="325.5,-204.5 325.5,-204.5 390.5,-204.5 390.5,-204.5 325.5,-204.5"/>
<polygon fill="none" stroke="#666666" points="325,-188 325,-237 390,-237 390,-188 325,-188"/>
</a>
</g>
</g>
<!-- Node6&#45;&gt;Node1 -->
<g id="edge5_Node000001_Node000006" class="edge">
<title>Node6&#45;&gt;Node1</title>
<g id="a_edge5_Node000001_Node000006"><a xlink:title=" ">
<path fill="none" stroke="#63b8ff" d="M358.53,-187.93C358.43,-161.92 354.43,-120.15 332.5,-93 324.9,-83.59 315.34,-75.76 304.93,-69.24"/>
<polygon fill="none" stroke="#63b8ff" points="304.7,-69.11 297.51,-69.61 294.28,-63.16 301.47,-62.66 304.7,-69.11"/>
</a>
</g>
<text text-anchor="middle" x="398.5" y="-134.5" font-family="Helvetica,sans-Serif" font-size="10.00" fill="grey"> +hole_hamount</text>
<text text-anchor="middle" x="398.5" y="-123.5" font-family="Helvetica,sans-Serif" font-size="10.00" fill="grey">+resolution</text>
</g>
<!-- Node7 -->
<g id="Node000007" class="node">
<title>Node7</title>
<g id="a_Node000007"><a xlink:title=" ">
<polygon fill="white" stroke="transparent" points="502.5,-237 422.5,-237 422.5,-188 502.5,-188 502.5,-237"/>
<text text-anchor="start" x="427.5" y="-224.5" font-family="Helvetica,sans-Serif" font-size="10.00">EnumProperty</text>
<text text-anchor="start" x="460.5" y="-209.5" font-family="Helvetica,sans-Serif" font-size="10.00"> </text>
<text text-anchor="start" x="460.5" y="-194.5" font-family="Helvetica,sans-Serif" font-size="10.00"> </text>
<polygon fill="#666666" stroke="#666666" points="422.5,-219.5 422.5,-219.5 502.5,-219.5 502.5,-219.5 422.5,-219.5"/>
<polygon fill="#666666" stroke="#666666" points="422.5,-204.5 422.5,-204.5 502.5,-204.5 502.5,-204.5 422.5,-204.5"/>
<polygon fill="none" stroke="#666666" points="422.5,-188 422.5,-237 502.5,-237 502.5,-188 422.5,-188"/>
</a>
</g>
</g>
<!-- Node7&#45;&gt;Node1 -->
<g id="edge6_Node000001_Node000007" class="edge">
<title>Node7&#45;&gt;Node1</title>
<g id="a_edge6_Node000001_Node000007"><a xlink:title=" ">
<path fill="none" stroke="#63b8ff" d="M465.11,-187.67C466.62,-161.03 464.6,-118.31 440.5,-93 421.72,-73.27 360.56,-59.35 306.03,-50.51"/>
<polygon fill="none" stroke="#63b8ff" points="306.01,-50.51 299.46,-53.53 294.15,-48.65 300.7,-45.63 306.01,-50.51"/>
</a>
</g>
<text text-anchor="middle" x="496.5" y="-129" font-family="Helvetica,sans-Serif" font-size="10.00" fill="grey"> +plate_type</text>
</g>
</g>
</svg>
