<?xml version="1.0" encoding="UTF-8" standalone="no"?>
<!DOCTYPE svg PUBLIC "-//W3C//DTD SVG 1.1//EN"
 "http://www.w3.org/Graphics/SVG/1.1/DTD/svg11.dtd">
<!-- Generated by graphviz version 2.43.0 (0)
 -->
<!-- Title: cam.nc.shopbot_mtc.Creator.program_begin Pages: 1 -->
<svg width="1311pt" height="1307pt"
 viewBox="0.00 0.00 1311.00 1307.00" xmlns="http://www.w3.org/2000/svg" xmlns:xlink="http://www.w3.org/1999/xlink">
<g id="graph0" class="graph" transform="scale(1 1) rotate(0) translate(4 1303)">
<title>cam.nc.shopbot_mtc.Creator.program_begin</title>
<!-- Node1 -->
<g id="Node000001" class="node">
<title>Node1</title>
<g id="a_Node000001"><a xlink:title="Programs.">
<polygon fill="#999999" stroke="#666666" points="200,-725 0,-725 0,-695 200,-695 200,-725"/>
<text text-anchor="start" x="8" y="-713" font-family="Helvetica,sans-Serif" font-size="10.00">cam.nc.shopbot_mtc.Creator.program</text>
<text text-anchor="middle" x="100" y="-702" font-family="Helvetica,sans-Serif" font-size="10.00">_begin</text>
</a>
</g>
</g>
<!-- Node2 -->
<g id="Node000002" class="node">
<title>Node2</title>
<g id="a_Node000002"><a xlink:href="classcam_1_1nc_1_1anilam__crusader__m_1_1Creator.html#ac1dbbd3ea853a221bbea54ea6bf0bc38" target="_top" xlink:title=" ">
<polygon fill="white" stroke="#666666" points="403.5,-1299 267.5,-1299 267.5,-1269 403.5,-1269 403.5,-1299"/>
<text text-anchor="start" x="275.5" y="-1287" font-family="Helvetica,sans-Serif" font-size="10.00">cam.nc.anilam_crusader</text>
<text text-anchor="middle" x="335.5" y="-1276" font-family="Helvetica,sans-Serif" font-size="10.00">_m.Creator.COMMENT</text>
</a>
</g>
</g>
<!-- Node1&#45;&gt;Node2 -->
<g id="edge1_Node000001_Node000002" class="edge">
<title>Node1&#45;&gt;Node2</title>
<g id="a_edge1_Node000001_Node000002"><a xlink:title=" ">
<path fill="none" stroke="#63b8ff" d="M102.62,-725.19C111.47,-805.59 156.59,-1180.72 236,-1260 242.24,-1266.23 249.82,-1270.95 257.97,-1274.5"/>
<polygon fill="#63b8ff" stroke="#63b8ff" points="256.78,-1277.79 267.37,-1278.03 259.24,-1271.23 256.78,-1277.79"/>
</a>
</g>
</g>
<!-- Node3 -->
<g id="Node000003" class="node">
<title>Node3</title>
<g id="a_Node000003"><a xlink:href="classcam_1_1nc_1_1gravos_1_1Creator.html#a6489943de2bbb60e108634000b1d4a65" target="_top" xlink:title=" ">
<polygon fill="white" stroke="#666666" points="426,-1250.5 245,-1250.5 245,-1231.5 426,-1231.5 426,-1250.5"/>
<text text-anchor="middle" x="335.5" y="-1238.5" font-family="Helvetica,sans-Serif" font-size="10.00">cam.nc.gravos.Creator.COMMENT</text>
</a>
</g>
</g>
<!-- Node1&#45;&gt;Node3 -->
<g id="edge2_Node000001_Node000003" class="edge">
<title>Node1&#45;&gt;Node3</title>
<g id="a_edge2_Node000001_Node000003"><a xlink:title=" ">
<path fill="none" stroke="#63b8ff" d="M102.79,-725.01C112.27,-802.01 159.14,-1151.81 236,-1223 237,-1223.93 238.04,-1224.82 239.1,-1225.67"/>
<polygon fill="#63b8ff" stroke="#63b8ff" points="237.52,-1228.82 247.78,-1231.47 241.41,-1223 237.52,-1228.82"/>
</a>
</g>
</g>
<!-- Node4 -->
<g id="Node000004" class="node">
<title>Node4</title>
<g id="a_Node000004"><a xlink:href="classcam_1_1nc_1_1heiden_1_1Creator.html#a752d676a8bc0b4afff9140d5ee13f964" target="_top" xlink:title=" ">
<polygon fill="white" stroke="#666666" points="426,-1213.5 245,-1213.5 245,-1194.5 426,-1194.5 426,-1213.5"/>
<text text-anchor="middle" x="335.5" y="-1201.5" font-family="Helvetica,sans-Serif" font-size="10.00">cam.nc.heiden.Creator.COMMENT</text>
</a>
</g>
</g>
<!-- Node1&#45;&gt;Node4 -->
<g id="edge3_Node000001_Node000004" class="edge">
<title>Node1&#45;&gt;Node4</title>
<g id="a_edge3_Node000001_Node000004"><a xlink:title=" ">
<path fill="none" stroke="#63b8ff" d="M103.19,-725.34C114.05,-799.46 164.61,-1119.52 236,-1185 237.54,-1186.41 239.15,-1187.73 240.83,-1188.97"/>
<polygon fill="#63b8ff" stroke="#63b8ff" points="239.33,-1192.16 249.67,-1194.47 243.02,-1186.22 239.33,-1192.16"/>
</a>
</g>
</g>
<!-- Node5 -->
<g id="Node000005" class="node">
<title>Node5</title>
<g id="a_Node000005"><a xlink:href="classcam_1_1nc_1_1heiden530_1_1Creator.html#af11bd4e534bb880f62ef102d461e20d7" target="_top" xlink:title=" ">
<polygon fill="white" stroke="#666666" points="409,-1176 262,-1176 262,-1146 409,-1146 409,-1176"/>
<text text-anchor="start" x="270" y="-1164" font-family="Helvetica,sans-Serif" font-size="10.00">cam.nc.heiden530.Creator.</text>
<text text-anchor="middle" x="335.5" y="-1153" font-family="Helvetica,sans-Serif" font-size="10.00">COMMENT</text>
</a>
</g>
</g>
<!-- Node1&#45;&gt;Node5 -->
<g id="edge4_Node000001_Node000005" class="edge">
<title>Node1&#45;&gt;Node5</title>
<g id="a_edge4_Node000001_Node000005"><a xlink:title=" ">
<path fill="none" stroke="#63b8ff" d="M100.84,-725.18C101.07,-786.69 110.49,-1019.65 236,-1137 240.81,-1141.5 246.32,-1145.19 252.21,-1148.22"/>
<polygon fill="#63b8ff" stroke="#63b8ff" points="251.2,-1151.6 261.76,-1152.46 254.04,-1145.2 251.2,-1151.6"/>
</a>
</g>
</g>
<!-- Node6 -->
<g id="Node000006" class="node">
<title>Node6</title>
<g id="a_Node000006"><a xlink:href="classcam_1_1nc_1_1iso_1_1Creator.html#a0181c37cf5c794505115dcb25bc0374d" target="_top" xlink:title=" ">
<polygon fill="white" stroke="#666666" points="416.5,-1127.5 254.5,-1127.5 254.5,-1108.5 416.5,-1108.5 416.5,-1127.5"/>
<text text-anchor="middle" x="335.5" y="-1115.5" font-family="Helvetica,sans-Serif" font-size="10.00">cam.nc.iso.Creator.COMMENT</text>
</a>
</g>
</g>
<!-- Node1&#45;&gt;Node6 -->
<g id="edge5_Node000001_Node000006" class="edge">
<title>Node1&#45;&gt;Node6</title>
<g id="a_edge5_Node000001_Node000006"><a xlink:title=" ">
<path fill="none" stroke="#63b8ff" d="M101.22,-725.2C102.93,-783.73 117.38,-996.29 236,-1099 238.87,-1101.48 241.96,-1103.68 245.22,-1105.63"/>
<polygon fill="#63b8ff" stroke="#63b8ff" points="243.69,-1108.78 254.19,-1110.2 246.87,-1102.54 243.69,-1108.78"/>
</a>
</g>
</g>
<!-- Node7 -->
<g id="Node000007" class="node">
<title>Node7</title>
<g id="a_Node000007"><a xlink:href="classcam_1_1nc_1_1lynx__otter__o_1_1Creator.html#a7542e359b98327e59f79a5a26857e3e9" target="_top" xlink:title=" ">
<polygon fill="white" stroke="#666666" points="414,-1090 257,-1090 257,-1060 414,-1060 414,-1090"/>
<text text-anchor="start" x="265" y="-1078" font-family="Helvetica,sans-Serif" font-size="10.00">cam.nc.lynx_otter_o.Creator.</text>
<text text-anchor="middle" x="335.5" y="-1067" font-family="Helvetica,sans-Serif" font-size="10.00">COMMENT</text>
</a>
</g>
</g>
<!-- Node1&#45;&gt;Node7 -->
<g id="edge6_Node000001_Node000007" class="edge">
<title>Node1&#45;&gt;Node7</title>
<g id="a_edge6_Node000001_Node000007"><a xlink:title=" ">
<path fill="none" stroke="#63b8ff" d="M102.19,-725.01C107.25,-778.34 131.8,-960.27 236,-1051 239.53,-1054.07 243.39,-1056.77 247.47,-1059.13"/>
<polygon fill="#63b8ff" stroke="#63b8ff" points="246.22,-1062.41 256.72,-1063.78 249.36,-1056.16 246.22,-1062.41"/>
</a>
</g>
</g>
<!-- Node8 -->
<g id="Node000008" class="node">
<title>Node8</title>
<g id="a_Node000008"><a xlink:href="classcam_1_1nc_1_1makerbot__codes_1_1Codes.html#a0b7d4923fea5d92064ba65e60074474e" target="_top" xlink:title=" ">
<polygon fill="white" stroke="#666666" points="421,-1042 250,-1042 250,-1012 421,-1012 421,-1042"/>
<text text-anchor="start" x="258" y="-1030" font-family="Helvetica,sans-Serif" font-size="10.00">cam.nc.makerbot_codes.Codes.</text>
<text text-anchor="middle" x="335.5" y="-1019" font-family="Helvetica,sans-Serif" font-size="10.00">COMMENT</text>
</a>
</g>
</g>
<!-- Node1&#45;&gt;Node8 -->
<g id="edge7_Node000001_Node000008" class="edge">
<title>Node1&#45;&gt;Node8</title>
<g id="a_edge7_Node000001_Node000008"><a xlink:title=" ">
<path fill="none" stroke="#63b8ff" d="M103.3,-725.26C111.46,-773.97 143.7,-926.98 236,-1003 237.58,-1004.3 239.22,-1005.53 240.91,-1006.7"/>
<polygon fill="#63b8ff" stroke="#63b8ff" points="239.37,-1009.86 249.74,-1012.01 242.97,-1003.86 239.37,-1009.86"/>
</a>
</g>
</g>
<!-- Node9 -->
<g id="Node000009" class="node">
<title>Node9</title>
<g id="a_Node000009"><a xlink:href="classcam_1_1nc_1_1rez2_1_1Creator.html#abf7c3fb7afa5b735b94668c73afae18e" target="_top" xlink:title=" ">
<polygon fill="white" stroke="#666666" points="420,-993.5 251,-993.5 251,-974.5 420,-974.5 420,-993.5"/>
<text text-anchor="middle" x="335.5" y="-981.5" font-family="Helvetica,sans-Serif" font-size="10.00">cam.nc.rez2.Creator.COMMENT</text>
</a>
</g>
</g>
<!-- Node1&#45;&gt;Node9 -->
<g id="edge8_Node000001_Node000009" class="edge">
<title>Node1&#45;&gt;Node9</title>
<g id="a_edge8_Node000001_Node000009"><a xlink:title=" ">
<path fill="none" stroke="#63b8ff" d="M104.17,-725.04C114.42,-769.66 151.05,-902.12 236,-965 238.51,-966.86 241.15,-968.55 243.89,-970.08"/>
<polygon fill="#63b8ff" stroke="#63b8ff" points="242.43,-973.26 252.95,-974.49 245.49,-966.97 242.43,-973.26"/>
</a>
</g>
</g>
<!-- Node10 -->
<g id="Node000010" class="node">
<title>Node10</title>
<g id="a_Node000010"><a xlink:href="classcam_1_1nc_1_1shopbot__mtc_1_1Creator.html#a9b549b5b3d9803c1f1cceab22adfea86" target="_top" xlink:title=" ">
<polygon fill="white" stroke="#666666" points="415,-956 256,-956 256,-926 415,-926 415,-956"/>
<text text-anchor="start" x="264" y="-944" font-family="Helvetica,sans-Serif" font-size="10.00">cam.nc.shopbot_mtc.Creator.</text>
<text text-anchor="middle" x="335.5" y="-933" font-family="Helvetica,sans-Serif" font-size="10.00">COMMENT</text>
</a>
</g>
</g>
<!-- Node1&#45;&gt;Node10 -->
<g id="edge9_Node000001_Node000010" class="edge">
<title>Node1&#45;&gt;Node10</title>
<g id="a_edge9_Node000001_Node000010"><a xlink:title=" ">
<path fill="none" stroke="#63b8ff" d="M106.29,-725.04C120.62,-763.52 164.03,-866.06 236,-917 239.43,-919.43 243.09,-921.62 246.89,-923.58"/>
<polygon fill="#63b8ff" stroke="#63b8ff" points="245.44,-926.77 255.98,-927.78 248.37,-920.41 245.44,-926.77"/>
</a>
</g>
</g>
<!-- Node11 -->
<g id="Node000011" class="node">
<title>Node11</title>
<g id="a_Node000011"><a xlink:href="classcam_1_1nc_1_1emc2_1_1Creator.html#a47a9e4f5f35681f580765bba2f0f97a5" target="_top" xlink:title=" ">
<polygon fill="white" stroke="#666666" points="412.5,-907.5 258.5,-907.5 258.5,-888.5 412.5,-888.5 412.5,-907.5"/>
<text text-anchor="middle" x="335.5" y="-895.5" font-family="Helvetica,sans-Serif" font-size="10.00">cam.nc.emc2.Creator.SPACE</text>
</a>
</g>
</g>
<!-- Node1&#45;&gt;Node11 -->
<g id="edge10_Node000001_Node000011" class="edge">
<title>Node1&#45;&gt;Node11</title>
<g id="a_edge10_Node000001_Node000011"><a xlink:title=" ">
<path fill="none" stroke="#63b8ff" d="M108.27,-725.28C125.32,-759.28 171.36,-841.23 236,-880 240.12,-882.47 244.49,-884.61 249.02,-886.48"/>
<polygon fill="#63b8ff" stroke="#63b8ff" points="247.9,-889.8 258.5,-889.92 250.29,-883.22 247.9,-889.8"/>
</a>
</g>
</g>
<!-- Node12 -->
<g id="Node000012" class="node">
<title>Node12</title>
<g id="a_Node000012"><a xlink:href="classcam_1_1nc_1_1emc2b_1_1Creator.html#abff5586e78bb91681bd41dafdea5a9e7" target="_top" xlink:title=" ">
<polygon fill="white" stroke="#666666" points="415.5,-870.5 255.5,-870.5 255.5,-851.5 415.5,-851.5 415.5,-870.5"/>
<text text-anchor="middle" x="335.5" y="-858.5" font-family="Helvetica,sans-Serif" font-size="10.00">cam.nc.emc2b.Creator.SPACE</text>
</a>
</g>
</g>
<!-- Node1&#45;&gt;Node12 -->
<g id="edge11_Node000001_Node000012" class="edge">
<title>Node1&#45;&gt;Node12</title>
<g id="a_edge11_Node000001_Node000012"><a xlink:title=" ">
<path fill="none" stroke="#63b8ff" d="M111.64,-725.15C132.18,-753.15 180.24,-812.81 236,-842 240.51,-844.36 245.28,-846.43 250.19,-848.25"/>
<polygon fill="#63b8ff" stroke="#63b8ff" points="249.16,-851.6 259.76,-851.43 251.37,-844.96 249.16,-851.6"/>
</a>
</g>
</g>
<!-- Node13 -->
<g id="Node000013" class="node">
<title>Node13</title>
<g id="a_Node000013"><a xlink:href="classcam_1_1nc_1_1emc2tap_1_1CodesEMC2.html#a6a0d71a1c6e9f8a80228dc220a0e57ca" target="_top" xlink:title=" ">
<polygon fill="white" stroke="#666666" points="416,-833 255,-833 255,-803 416,-803 416,-833"/>
<text text-anchor="start" x="263" y="-821" font-family="Helvetica,sans-Serif" font-size="10.00">cam.nc.emc2tap.CodesEMC2.</text>
<text text-anchor="middle" x="335.5" y="-810" font-family="Helvetica,sans-Serif" font-size="10.00">SPACE</text>
</a>
</g>
</g>
<!-- Node1&#45;&gt;Node13 -->
<g id="edge12_Node000001_Node000013" class="edge">
<title>Node1&#45;&gt;Node13</title>
<g id="a_edge12_Node000001_Node000013"><a xlink:title=" ">
<path fill="none" stroke="#63b8ff" d="M120.93,-725.26C146.33,-744.01 192.23,-775.61 236,-794 241.02,-796.11 246.27,-798.06 251.61,-799.86"/>
<polygon fill="#63b8ff" stroke="#63b8ff" points="250.71,-803.25 261.3,-802.93 252.83,-796.57 250.71,-803.25"/>
</a>
</g>
</g>
<!-- Node14 -->
<g id="Node000014" class="node">
<title>Node14</title>
<g id="a_Node000014"><a xlink:href="classcam_1_1nc_1_1heiden_1_1Creator.html#a2c4277ffddaea0f92c906c6744f7a3bd" target="_top" xlink:title="Codes.">
<polygon fill="white" stroke="#666666" points="415.5,-784.5 255.5,-784.5 255.5,-765.5 415.5,-765.5 415.5,-784.5"/>
<text text-anchor="middle" x="335.5" y="-772.5" font-family="Helvetica,sans-Serif" font-size="10.00">cam.nc.heiden.Creator.SPACE</text>
</a>
</g>
</g>
<!-- Node1&#45;&gt;Node14 -->
<g id="edge13_Node000001_Node000014" class="edge">
<title>Node1&#45;&gt;Node14</title>
<g id="a_edge13_Node000001_Node000014"><a xlink:title=" ">
<path fill="none" stroke="#63b8ff" d="M140.43,-725.04C167.12,-734.83 203.33,-747.33 236,-756 246.31,-758.74 257.33,-761.25 268.12,-763.49"/>
<polygon fill="#63b8ff" stroke="#63b8ff" points="267.45,-766.93 277.94,-765.48 268.83,-760.07 267.45,-766.93"/>
</a>
</g>
</g>
<!-- Node15 -->
<g id="Node000015" class="node">
<title>Node15</title>
<g id="a_Node000015"><a xlink:href="classcam_1_1nc_1_1heiden530_1_1Creator.html#aa64b19b0edc2ac1f2d568b09ca2aebcb" target="_top" xlink:title="Codes.">
<polygon fill="white" stroke="#666666" points="409,-747 262,-747 262,-717 409,-717 409,-747"/>
<text text-anchor="start" x="270" y="-735" font-family="Helvetica,sans-Serif" font-size="10.00">cam.nc.heiden530.Creator.</text>
<text text-anchor="middle" x="335.5" y="-724" font-family="Helvetica,sans-Serif" font-size="10.00">SPACE</text>
</a>
</g>
</g>
<!-- Node1&#45;&gt;Node15 -->
<g id="edge14_Node000001_Node000015" class="edge">
<title>Node1&#45;&gt;Node15</title>
<g id="a_edge14_Node000001_Node000015"><a xlink:title=" ">
<path fill="none" stroke="#63b8ff" d="M200.03,-719.33C217.22,-720.95 234.93,-722.62 251.63,-724.19"/>
<polygon fill="#63b8ff" stroke="#63b8ff" points="251.6,-727.7 261.89,-725.16 252.26,-720.74 251.6,-727.7"/>
</a>
</g>
</g>
<!-- Node16 -->
<g id="Node000016" class="node">
<title>Node16</title>
<g id="a_Node000016"><a xlink:href="classcam_1_1nc_1_1iso_1_1Creator.html#a79463d437baaaf23c828a2c9e62393f3" target="_top" xlink:title=" ">
<polygon fill="white" stroke="#666666" points="406,-698.5 265,-698.5 265,-679.5 406,-679.5 406,-698.5"/>
<text text-anchor="middle" x="335.5" y="-686.5" font-family="Helvetica,sans-Serif" font-size="10.00">cam.nc.iso.Creator.SPACE</text>
</a>
</g>
</g>
<!-- Node1&#45;&gt;Node16 -->
<g id="edge15_Node000001_Node000016" class="edge">
<title>Node1&#45;&gt;Node16</title>
<g id="a_edge15_Node000001_Node000016"><a xlink:title=" ">
<path fill="none" stroke="#63b8ff" d="M200.03,-701.09C218.21,-699.46 236.98,-697.77 254.52,-696.19"/>
<polygon fill="#63b8ff" stroke="#63b8ff" points="255.04,-699.66 264.69,-695.28 254.41,-692.69 255.04,-699.66"/>
</a>
</g>
</g>
<!-- Node24 -->
<g id="Node000024" class="node">
<title>Node24</title>
<g id="a_Node000024"><a xlink:href="classcam_1_1nc_1_1makerbot__codes_1_1Codes.html#a497077e0e500cc8f419b8f3f61f008b4" target="_top" xlink:title=" ">
<polygon fill="white" stroke="#666666" points="421,-661 250,-661 250,-631 421,-631 421,-661"/>
<text text-anchor="start" x="258" y="-649" font-family="Helvetica,sans-Serif" font-size="10.00">cam.nc.makerbot_codes.Codes.</text>
<text text-anchor="middle" x="335.5" y="-638" font-family="Helvetica,sans-Serif" font-size="10.00">SPACE</text>
</a>
</g>
</g>
<!-- Node1&#45;&gt;Node24 -->
<g id="edge23_Node000001_Node000024" class="edge">
<title>Node1&#45;&gt;Node24</title>
<g id="a_edge23_Node000001_Node000024"><a xlink:title=" ">
<path fill="none" stroke="#63b8ff" d="M151.53,-694.98C176.84,-687.56 207.98,-678.6 236,-671 245.1,-668.53 254.69,-666 264.17,-663.55"/>
<polygon fill="#63b8ff" stroke="#63b8ff" points="265.18,-666.91 273.99,-661.03 263.44,-660.13 265.18,-666.91"/>
</a>
</g>
</g>
<!-- Node25 -->
<g id="Node000025" class="node">
<title>Node25</title>
<g id="a_Node000025"><a xlink:href="classcam_1_1nc_1_1series1_1_1Creator.html#a75918d23eef609baab85058fda3050d5" target="_top" xlink:title=" ">
<polygon fill="white" stroke="#666666" points="416.5,-612.5 254.5,-612.5 254.5,-593.5 416.5,-593.5 416.5,-612.5"/>
<text text-anchor="middle" x="335.5" y="-600.5" font-family="Helvetica,sans-Serif" font-size="10.00">cam.nc.series1.Creator.SPACE</text>
</a>
</g>
</g>
<!-- Node1&#45;&gt;Node25 -->
<g id="edge24_Node000001_Node000025" class="edge">
<title>Node1&#45;&gt;Node25</title>
<g id="a_edge24_Node000001_Node000025"><a xlink:title=" ">
<path fill="none" stroke="#63b8ff" d="M118.94,-695C143.66,-675.13 190.35,-640.45 236,-622 242.61,-619.33 249.61,-617.03 256.73,-615.05"/>
<polygon fill="#63b8ff" stroke="#63b8ff" points="257.66,-618.42 266.47,-612.53 255.91,-611.64 257.66,-618.42"/>
</a>
</g>
</g>
<!-- Node26 -->
<g id="Node000026" class="node">
<title>Node26</title>
<g id="a_Node000026"><a xlink:href="classcam_1_1nc_1_1shopbot__mtc_1_1Creator.html#a1512dbb5d0140eb216ed709a542261ac" target="_top" xlink:title="Codes.">
<polygon fill="white" stroke="#666666" points="415,-575 256,-575 256,-545 415,-545 415,-575"/>
<text text-anchor="start" x="264" y="-563" font-family="Helvetica,sans-Serif" font-size="10.00">cam.nc.shopbot_mtc.Creator.</text>
<text text-anchor="middle" x="335.5" y="-552" font-family="Helvetica,sans-Serif" font-size="10.00">SPACE</text>
</a>
</g>
</g>
<!-- Node1&#45;&gt;Node26 -->
<g id="edge25_Node000001_Node000026" class="edge">
<title>Node1&#45;&gt;Node26</title>
<g id="a_edge25_Node000001_Node000026"><a xlink:title=" ">
<path fill="none" stroke="#63b8ff" d="M113,-694.72C134.65,-668.22 182.96,-613.82 236,-585 240.23,-582.7 244.69,-580.6 249.26,-578.7"/>
<polygon fill="#63b8ff" stroke="#63b8ff" points="250.71,-581.89 258.79,-575.05 248.2,-575.36 250.71,-581.89"/>
</a>
</g>
</g>
<!-- Node27 -->
<g id="Node000027" class="node">
<title>Node27</title>
<g id="a_Node000027"><a xlink:href="classcam_1_1nc_1_1tnc151_1_1Creator.html#af5d9e50b2ff0e73cd7524e2145d55d76" target="_top" xlink:title=" ">
<polygon fill="white" stroke="#666666" points="415.5,-526.5 255.5,-526.5 255.5,-507.5 415.5,-507.5 415.5,-526.5"/>
<text text-anchor="middle" x="335.5" y="-514.5" font-family="Helvetica,sans-Serif" font-size="10.00">cam.nc.tnc151.Creator.SPACE</text>
</a>
</g>
</g>
<!-- Node1&#45;&gt;Node27 -->
<g id="edge26_Node000001_Node000027" class="edge">
<title>Node1&#45;&gt;Node27</title>
<g id="a_edge26_Node000001_Node000027"><a xlink:title=" ">
<path fill="none" stroke="#63b8ff" d="M107.95,-694.93C124.64,-660.55 170.51,-576.22 236,-536 239.45,-533.88 243.08,-531.99 246.84,-530.31"/>
<polygon fill="#63b8ff" stroke="#63b8ff" points="248.39,-533.46 256.4,-526.52 245.82,-526.95 248.39,-533.46"/>
</a>
</g>
</g>
<!-- Node28 -->
<g id="Node000028" class="node">
<title>Node28</title>
<g id="a_Node000028"><a xlink:href="classcam_1_1nc_1_1cad__nc__read_1_1Parser.html#adcf2f47949df29f187f27fe985884633" target="_top" xlink:title=" ">
<polygon fill="white" stroke="#666666" points="423.5,-471.5 247.5,-471.5 247.5,-452.5 423.5,-452.5 423.5,-471.5"/>
<text text-anchor="middle" x="335.5" y="-459.5" font-family="Helvetica,sans-Serif" font-size="10.00">cam.nc.cad_nc_read.Parser.write</text>
</a>
</g>
</g>
<!-- Node1&#45;&gt;Node28 -->
<g id="edge27_Node000001_Node000028" class="edge">
<title>Node1&#45;&gt;Node28</title>
<g id="a_edge27_Node000001_Node000028"><a xlink:title=" ">
<path fill="none" stroke="#63b8ff" d="M106.69,-694.89C121.82,-656.65 166.71,-555.09 236,-499 249.29,-488.24 266.02,-480.41 281.91,-474.79"/>
<polygon fill="#63b8ff" stroke="#63b8ff" points="283.25,-478.04 291.65,-471.58 281.06,-471.39 283.25,-478.04"/>
</a>
</g>
</g>
<!-- Node29 -->
<g id="Node000029" class="node">
<title>Node29</title>
<g id="a_Node000029"><a xlink:href="classcam_1_1nc_1_1hxml__writer_1_1HxmlWriter.html#aed6f93c98cb8c0e3f3e826e75b6d6f15" target="_top" xlink:title=" ">
<polygon fill="white" stroke="#666666" points="435,-416.5 236,-416.5 236,-397.5 435,-397.5 435,-416.5"/>
<text text-anchor="middle" x="335.5" y="-404.5" font-family="Helvetica,sans-Serif" font-size="10.00">cam.nc.hxml_writer.HxmlWriter.write</text>
</a>
</g>
</g>
<!-- Node1&#45;&gt;Node29 -->
<g id="edge29_Node000001_Node000029" class="edge">
<title>Node1&#45;&gt;Node29</title>
<g id="a_edge29_Node000001_Node000029"><a xlink:title=" ">
<path fill="none" stroke="#63b8ff" d="M104.5,-694.99C115.67,-650.33 154.59,-516.89 236,-444 248.06,-433.2 263.57,-425.45 278.69,-419.92"/>
<polygon fill="#63b8ff" stroke="#63b8ff" points="280.18,-423.12 288.54,-416.61 277.94,-416.48 280.18,-423.12"/>
</a>
</g>
</g>
<!-- Node30 -->
<g id="Node000030" class="node">
<title>Node30</title>
<g id="a_Node000030"><a xlink:href="classcam_1_1nc_1_1iso_1_1Creator.html#abb81af5a0bdddfed387b71b68a51cc7a" target="_top" xlink:title="Internals.">
<polygon fill="white" stroke="#666666" points="403,-379.5 268,-379.5 268,-360.5 403,-360.5 403,-379.5"/>
<text text-anchor="middle" x="335.5" y="-367.5" font-family="Helvetica,sans-Serif" font-size="10.00">cam.nc.iso.Creator.write</text>
</a>
</g>
</g>
<!-- Node1&#45;&gt;Node30 -->
<g id="edge31_Node000001_Node000030" class="edge">
<title>Node1&#45;&gt;Node30</title>
<g id="a_edge31_Node000001_Node000030"><a xlink:title=" ">
<path fill="none" stroke="#63b8ff" d="M102.43,-694.96C108.2,-643.24 134.59,-471.28 236,-389 242.56,-383.68 250.17,-379.69 258.2,-376.72"/>
<polygon fill="#63b8ff" stroke="#63b8ff" points="259.3,-380.04 267.78,-373.69 257.19,-373.37 259.3,-380.04"/>
</a>
</g>
</g>
<!-- Node31 -->
<g id="Node000031" class="node">
<title>Node31</title>
<g id="a_Node000031"><a xlink:href="classcam_1_1nc_1_1nc_1_1Creator.html#a80f2134add83bfaaf2870d075d36ed8a" target="_top" xlink:title=" ">
<polygon fill="white" stroke="#666666" points="629,-205.5 497,-205.5 497,-186.5 629,-186.5 629,-205.5"/>
<text text-anchor="middle" x="563" y="-193.5" font-family="Helvetica,sans-Serif" font-size="10.00">cam.nc.nc.Creator.write</text>
</a>
</g>
</g>
<!-- Node1&#45;&gt;Node31 -->
<g id="edge32_Node000001_Node000031" class="edge">
<title>Node1&#45;&gt;Node31</title>
<g id="a_edge32_Node000001_Node000031"><a xlink:title=" ">
<path fill="none" stroke="#63b8ff" d="M101.73,-694.86C105.27,-639.36 125.42,-445.49 236,-352 304.82,-293.81 354.6,-353.74 435,-313 483.53,-288.41 527.08,-239.88 548.32,-213.72"/>
<polygon fill="#63b8ff" stroke="#63b8ff" points="551.16,-215.77 554.64,-205.77 545.68,-211.42 551.16,-215.77"/>
</a>
</g>
</g>
<!-- Node32 -->
<g id="Node000032" class="node">
<title>Node32</title>
<g id="a_Node000032"><a xlink:href="classcam_1_1nc_1_1nclathe__read_1_1Parser.html#ab5ea283b461b57e48c8d5b0ad0a45694" target="_top" xlink:title=" ">
<polygon fill="white" stroke="#666666" points="424.5,-285.5 246.5,-285.5 246.5,-266.5 424.5,-266.5 424.5,-285.5"/>
<text text-anchor="middle" x="335.5" y="-273.5" font-family="Helvetica,sans-Serif" font-size="10.00">cam.nc.nclathe_read.Parser.write</text>
</a>
</g>
</g>
<!-- Node1&#45;&gt;Node32 -->
<g id="edge34_Node000001_Node000032" class="edge">
<title>Node1&#45;&gt;Node32</title>
<g id="a_edge34_Node000001_Node000032"><a xlink:title=" ">
<path fill="none" stroke="#63b8ff" d="M101.94,-694.64C106.26,-637.29 128.83,-433.11 236,-318 248.39,-304.69 265.69,-295.42 282.34,-289.05"/>
<polygon fill="#63b8ff" stroke="#63b8ff" points="283.77,-292.26 292.03,-285.62 281.43,-285.66 283.77,-292.26"/>
</a>
</g>
</g>
<!-- Node33 -->
<g id="Node000033" class="node">
<title>Node33</title>
<g id="a_Node000033"><a xlink:href="classcam_1_1nc_1_1recreator_1_1Redirector.html#a79cc974683588db3ef959189e7552c0d" target="_top" xlink:title="Programs.">
<polygon fill="white" stroke="#666666" points="425,-230.5 246,-230.5 246,-211.5 425,-211.5 425,-230.5"/>
<text text-anchor="middle" x="335.5" y="-218.5" font-family="Helvetica,sans-Serif" font-size="10.00">cam.nc.recreator.Redirector.write</text>
</a>
</g>
</g>
<!-- Node1&#45;&gt;Node33 -->
<g id="edge36_Node000001_Node000033" class="edge">
<title>Node1&#45;&gt;Node33</title>
<g id="a_edge36_Node000001_Node000033"><a xlink:title=" ">
<path fill="none" stroke="#63b8ff" d="M100.95,-694.81C101.58,-632.13 112.24,-390.62 236,-258 246.18,-247.09 259.88,-239.38 273.83,-233.93"/>
<polygon fill="#63b8ff" stroke="#63b8ff" points="275.23,-237.15 283.49,-230.51 272.89,-230.55 275.23,-237.15"/>
</a>
</g>
</g>
<!-- Node34 -->
<g id="Node000034" class="node">
<title>Node34</title>
<g id="a_Node000034"><a xlink:href="classcam_1_1nc_1_1format_1_1Address.html#aa21f0ffeb829537d9103759276c01a4b" target="_top" xlink:title=" ">
<polygon fill="white" stroke="#666666" points="414.5,-156.5 256.5,-156.5 256.5,-137.5 414.5,-137.5 414.5,-156.5"/>
<text text-anchor="middle" x="335.5" y="-144.5" font-family="Helvetica,sans-Serif" font-size="10.00">cam.nc.format.Address.write</text>
</a>
</g>
</g>
<!-- Node1&#45;&gt;Node34 -->
<g id="edge38_Node000001_Node000034" class="edge">
<title>Node1&#45;&gt;Node34</title>
<g id="a_edge38_Node000001_Node000034"><a xlink:title=" ">
<path fill="none" stroke="#63b8ff" d="M102.57,-694.9C111.21,-615.02 155.43,-242.43 236,-166 239.36,-162.81 243.09,-160.08 247.06,-157.75"/>
<polygon fill="#63b8ff" stroke="#63b8ff" points="248.73,-160.83 256.13,-153.25 245.62,-154.56 248.73,-160.83"/>
</a>
</g>
</g>
<!-- Node45 -->
<g id="Node000045" class="node">
<title>Node45</title>
<g id="a_Node000045"><a xlink:href="classcam_1_1nc_1_1format_1_1AddressPlusMinus.html#aaacea4c7b677f0a602dbc9023ff365d2" target="_top" xlink:title=" ">
<polygon fill="white" stroke="#666666" points="410.5,-119 260.5,-119 260.5,-89 410.5,-89 410.5,-119"/>
<text text-anchor="start" x="268.5" y="-107" font-family="Helvetica,sans-Serif" font-size="10.00">cam.nc.format.AddressPlus</text>
<text text-anchor="middle" x="335.5" y="-96" font-family="Helvetica,sans-Serif" font-size="10.00">Minus.write</text>
</a>
</g>
</g>
<!-- Node1&#45;&gt;Node45 -->
<g id="edge51_Node000001_Node000045" class="edge">
<title>Node1&#45;&gt;Node45</title>
<g id="a_edge51_Node000001_Node000045"><a xlink:title=" ">
<path fill="none" stroke="#63b8ff" d="M102.4,-694.76C110.36,-611.52 152.49,-212.44 236,-128 240.47,-123.48 245.63,-119.76 251.21,-116.7"/>
<polygon fill="#63b8ff" stroke="#63b8ff" points="252.73,-119.86 260.28,-112.42 249.74,-113.53 252.73,-119.86"/>
</a>
</g>
</g>
<!-- Node46 -->
<g id="Node000046" class="node">
<title>Node46</title>
<g id="a_Node000046"><a xlink:href="classcam_1_1nc_1_1nc_1_1Creator.html#a6b9b5f41f66c0a89ae69a7f21776025d" target="_top" xlink:title=" ">
<polygon fill="white" stroke="#666666" points="406.5,-193.5 264.5,-193.5 264.5,-174.5 406.5,-174.5 406.5,-193.5"/>
<text text-anchor="middle" x="335.5" y="-181.5" font-family="Helvetica,sans-Serif" font-size="10.00">cam.nc.nc.Creator.writem</text>
</a>
</g>
</g>
<!-- Node1&#45;&gt;Node46 -->
<g id="edge53_Node000001_Node000046" class="edge">
<title>Node1&#45;&gt;Node46</title>
<g id="a_edge53_Node000001_Node000046"><a xlink:title=" ">
<path fill="none" stroke="#63b8ff" d="M102.86,-694.92C112.62,-618.37 160.31,-273.59 236,-203 241.47,-197.9 247.88,-193.97 254.76,-190.97"/>
<polygon fill="#63b8ff" stroke="#63b8ff" points="256.21,-194.17 264.39,-187.43 253.8,-187.6 256.21,-194.17"/>
</a>
</g>
</g>
<!-- Node17 -->
<g id="Node000017" class="node">
<title>Node17</title>
<g id="a_Node000017"><a xlink:href="classcam_1_1nc_1_1anilam__crusader__m_1_1Creator.html#a36f873a0248bcaa4cf2cfb220dc1b00c" target="_top" xlink:title="Codes.">
<polygon fill="white" stroke="#666666" points="631,-821 495,-821 495,-791 631,-791 631,-821"/>
<text text-anchor="start" x="503" y="-809" font-family="Helvetica,sans-Serif" font-size="10.00">cam.nc.anilam_crusader</text>
<text text-anchor="middle" x="563" y="-798" font-family="Helvetica,sans-Serif" font-size="10.00">_m.Creator.SPACE_STR</text>
</a>
</g>
</g>
<!-- Node16&#45;&gt;Node17 -->
<g id="edge16_Node000016_Node000017" class="edge">
<title>Node16&#45;&gt;Node17</title>
<g id="a_edge16_Node000016_Node000017"><a xlink:title=" ">
<path fill="none" stroke="#63b8ff" d="M406.21,-694.02C416.57,-697.07 426.57,-701.53 435,-708 464.02,-730.26 442.74,-758.78 471,-782 475.34,-785.57 480.15,-788.61 485.24,-791.2"/>
<polygon fill="#63b8ff" stroke="#63b8ff" points="484.08,-794.52 494.64,-795.4 486.93,-788.12 484.08,-794.52"/>
</a>
</g>
</g>
<!-- Node18 -->
<g id="Node000018" class="node">
<title>Node18</title>
<g id="a_Node000018"><a xlink:href="classcam_1_1nc_1_1fadal_1_1Creator.html#a97a50724edf2662eb4fe76b15516b638" target="_top" xlink:title="Codes.">
<polygon fill="white" stroke="#666666" points="651,-772.5 475,-772.5 475,-753.5 651,-753.5 651,-772.5"/>
<text text-anchor="middle" x="563" y="-760.5" font-family="Helvetica,sans-Serif" font-size="10.00">cam.nc.fadal.Creator.SPACE_STR</text>
</a>
</g>
</g>
<!-- Node16&#45;&gt;Node18 -->
<g id="edge17_Node000016_Node000018" class="edge">
<title>Node16&#45;&gt;Node18</title>
<g id="a_edge17_Node000016_Node000018"><a xlink:title=" ">
<path fill="none" stroke="#63b8ff" d="M406.17,-696.91C416.19,-699.6 426.11,-703.2 435,-708 455.19,-718.9 450.83,-734.06 471,-745 474.31,-746.8 477.77,-748.41 481.33,-749.87"/>
<polygon fill="#63b8ff" stroke="#63b8ff" points="480.36,-753.24 490.95,-753.37 482.75,-746.66 480.36,-753.24"/>
</a>
</g>
</g>
<!-- Node19 -->
<g id="Node000019" class="node">
<title>Node19</title>
<g id="a_Node000019"><a xlink:href="classcam_1_1nc_1_1gravos_1_1Creator.html#ac0bc0d26e8a92a65c0f33d696ad850f5" target="_top" xlink:title="Codes.">
<polygon fill="white" stroke="#666666" points="655,-735.5 471,-735.5 471,-716.5 655,-716.5 655,-735.5"/>
<text text-anchor="middle" x="563" y="-723.5" font-family="Helvetica,sans-Serif" font-size="10.00">cam.nc.gravos.Creator.SPACE_STR</text>
</a>
</g>
</g>
<!-- Node16&#45;&gt;Node19 -->
<g id="edge18_Node000016_Node000019" class="edge">
<title>Node16&#45;&gt;Node19</title>
<g id="a_edge18_Node000016_Node000019"><a xlink:title=" ">
<path fill="none" stroke="#63b8ff" d="M394.57,-698.53C424.83,-703.49 462.03,-709.6 493.67,-714.79"/>
<polygon fill="#63b8ff" stroke="#63b8ff" points="493.3,-718.27 503.73,-716.44 494.43,-711.37 493.3,-718.27"/>
</a>
</g>
</g>
<!-- Node20 -->
<g id="Node000020" class="node">
<title>Node20</title>
<g id="a_Node000020"><a xlink:href="classcam_1_1nc_1_1iso_1_1Creator.html#aa481cf1e394988751640fd5ce5af991e" target="_top" xlink:title="Codes.">
<polygon fill="white" stroke="#666666" points="645.5,-698.5 480.5,-698.5 480.5,-679.5 645.5,-679.5 645.5,-698.5"/>
<text text-anchor="middle" x="563" y="-686.5" font-family="Helvetica,sans-Serif" font-size="10.00">cam.nc.iso.Creator.SPACE_STR</text>
</a>
</g>
</g>
<!-- Node16&#45;&gt;Node20 -->
<g id="edge19_Node000016_Node000020" class="edge">
<title>Node16&#45;&gt;Node20</title>
<g id="a_edge19_Node000016_Node000020"><a xlink:title=" ">
<path fill="none" stroke="#63b8ff" d="M406.31,-689C426.52,-689 448.89,-689 470.23,-689"/>
<polygon fill="#63b8ff" stroke="#63b8ff" points="470.28,-692.5 480.28,-689 470.28,-685.5 470.28,-692.5"/>
</a>
</g>
</g>
<!-- Node21 -->
<g id="Node000021" class="node">
<title>Node21</title>
<g id="a_Node000021"><a xlink:href="classcam_1_1nc_1_1lynx__otter__o_1_1Creator.html#a73b176561e066abcdb256a1bf53a5fcc" target="_top" xlink:title="Codes.">
<polygon fill="white" stroke="#666666" points="641.5,-661 484.5,-661 484.5,-631 641.5,-631 641.5,-661"/>
<text text-anchor="start" x="492.5" y="-649" font-family="Helvetica,sans-Serif" font-size="10.00">cam.nc.lynx_otter_o.Creator.</text>
<text text-anchor="middle" x="563" y="-638" font-family="Helvetica,sans-Serif" font-size="10.00">SPACE_STR</text>
</a>
</g>
</g>
<!-- Node16&#45;&gt;Node21 -->
<g id="edge20_Node000016_Node000021" class="edge">
<title>Node16&#45;&gt;Node21</title>
<g id="a_edge20_Node000016_Node000021"><a xlink:title=" ">
<path fill="none" stroke="#63b8ff" d="M386.55,-679.46C412.31,-674.54 444.48,-668.41 474.21,-662.74"/>
<polygon fill="#63b8ff" stroke="#63b8ff" points="475.02,-666.15 484.18,-660.84 473.7,-659.27 475.02,-666.15"/>
</a>
</g>
</g>
<!-- Node22 -->
<g id="Node000022" class="node">
<title>Node22</title>
<g id="a_Node000022"><a xlink:href="classcam_1_1nc_1_1mach3_1_1Creator.html#aa461d578afa76c5af9bb5562b79d955a" target="_top" xlink:title="Codes.">
<polygon fill="white" stroke="#666666" points="655,-612.5 471,-612.5 471,-593.5 655,-593.5 655,-612.5"/>
<text text-anchor="middle" x="563" y="-600.5" font-family="Helvetica,sans-Serif" font-size="10.00">cam.nc.mach3.Creator.SPACE_STR</text>
</a>
</g>
</g>
<!-- Node16&#45;&gt;Node22 -->
<g id="edge21_Node000016_Node000022" class="edge">
<title>Node16&#45;&gt;Node22</title>
<g id="a_edge21_Node000016_Node000022"><a xlink:title=" ">
<path fill="none" stroke="#63b8ff" d="M406.24,-682.24C416.36,-679.4 426.29,-675.45 435,-670 457.61,-655.86 448.5,-636.31 471,-622 474.35,-619.87 477.9,-617.97 481.57,-616.28"/>
<polygon fill="#63b8ff" stroke="#63b8ff" points="482.97,-619.49 490.94,-612.5 480.35,-613 482.97,-619.49"/>
</a>
</g>
</g>
<!-- Node23 -->
<g id="Node000023" class="node">
<title>Node23</title>
<g id="a_Node000023"><a xlink:href="classcam_1_1nc_1_1winpc_1_1Creator.html#aae1cb93a5dd430719105fa03a054f654" target="_top" xlink:title="Codes.">
<polygon fill="white" stroke="#666666" points="652.5,-575.5 473.5,-575.5 473.5,-556.5 652.5,-556.5 652.5,-575.5"/>
<text text-anchor="middle" x="563" y="-563.5" font-family="Helvetica,sans-Serif" font-size="10.00">cam.nc.winpc.Creator.SPACE_STR</text>
</a>
</g>
</g>
<!-- Node16&#45;&gt;Node23 -->
<g id="edge22_Node000016_Node000023" class="edge">
<title>Node16&#45;&gt;Node23</title>
<g id="a_edge22_Node000016_Node000023"><a xlink:title=" ">
<path fill="none" stroke="#63b8ff" d="M406.01,-684.51C416.5,-681.41 426.61,-676.79 435,-670 466.89,-644.19 439.31,-611.05 471,-585 473.02,-583.34 475.15,-581.82 477.36,-580.41"/>
<polygon fill="#63b8ff" stroke="#63b8ff" points="479.14,-583.43 486.28,-575.6 475.82,-577.27 479.14,-583.43"/>
</a>
</g>
</g>
<!-- Node28&#45;&gt;Node28 -->
<g id="edge28_Node000028_Node000028" class="edge">
<title>Node28&#45;&gt;Node28</title>
<g id="a_edge28_Node000028_Node000028"><a xlink:title=" ">
<path fill="none" stroke="#63b8ff" d="M300.67,-471.58C283.72,-480.23 295.33,-489.5 335.5,-489.5 365,-489.5 379.1,-484.5 377.79,-478.42"/>
<polygon fill="#63b8ff" stroke="#63b8ff" points="380.07,-475.76 370.33,-471.58 375.34,-480.92 380.07,-475.76"/>
</a>
</g>
</g>
<!-- Node29&#45;&gt;Node29 -->
<g id="edge30_Node000029_Node000029" class="edge">
<title>Node29&#45;&gt;Node29</title>
<g id="a_edge30_Node000029_Node000029"><a xlink:title=" ">
<path fill="none" stroke="#63b8ff" d="M300.67,-416.58C283.72,-425.23 295.33,-434.5 335.5,-434.5 365,-434.5 379.1,-429.5 377.79,-423.42"/>
<polygon fill="#63b8ff" stroke="#63b8ff" points="380.07,-420.76 370.33,-416.58 375.34,-425.92 380.07,-420.76"/>
</a>
</g>
</g>
<!-- Node31&#45;&gt;Node31 -->
<g id="edge33_Node000031_Node000031" class="edge">
<title>Node31&#45;&gt;Node31</title>
<g id="a_edge33_Node000031_Node000031"><a xlink:title=" ">
<path fill="none" stroke="#63b8ff" d="M530.94,-205.58C515.34,-214.23 526.03,-223.5 563,-223.5 589.57,-223.5 602.57,-218.71 601.98,-212.81"/>
<polygon fill="#63b8ff" stroke="#63b8ff" points="604.5,-210.38 595.06,-205.58 599.45,-215.23 604.5,-210.38"/>
</a>
</g>
</g>
<!-- Node32&#45;&gt;Node32 -->
<g id="edge35_Node000032_Node000032" class="edge">
<title>Node32&#45;&gt;Node32</title>
<g id="a_edge35_Node000032_Node000032"><a xlink:title=" ">
<path fill="none" stroke="#63b8ff" d="M300.67,-285.58C283.72,-294.23 295.33,-303.5 335.5,-303.5 365,-303.5 379.1,-298.5 377.79,-292.42"/>
<polygon fill="#63b8ff" stroke="#63b8ff" points="380.07,-289.76 370.33,-285.58 375.34,-294.92 380.07,-289.76"/>
</a>
</g>
</g>
<!-- Node33&#45;&gt;Node33 -->
<g id="edge37_Node000033_Node000033" class="edge">
<title>Node33&#45;&gt;Node33</title>
<g id="a_edge37_Node000033_Node000033"><a xlink:title=" ">
<path fill="none" stroke="#63b8ff" d="M300.67,-230.58C283.72,-239.23 295.33,-248.5 335.5,-248.5 365,-248.5 379.1,-243.5 377.79,-237.42"/>
<polygon fill="#63b8ff" stroke="#63b8ff" points="380.07,-234.76 370.33,-230.58 375.34,-239.92 380.07,-234.76"/>
</a>
</g>
</g>
<!-- Node35 -->
<g id="Node000035" class="node">
<title>Node35</title>
<g id="a_Node000035"><a xlink:href="classcam_1_1async__op_1_1AsyncOperatorMixin.html#a9628cbca8e69ec75b2337171a02bf428" target="_top" xlink:title=" ">
<polygon fill="white" stroke="#666666" points="643.5,-150 482.5,-150 482.5,-120 643.5,-120 643.5,-150"/>
<text text-anchor="start" x="490.5" y="-138" font-family="Helvetica,sans-Serif" font-size="10.00">cam.async_op.AsyncOperator</text>
<text text-anchor="middle" x="563" y="-127" font-family="Helvetica,sans-Serif" font-size="10.00">Mixin.modal</text>
</a>
</g>
</g>
<!-- Node34&#45;&gt;Node35 -->
<g id="edge39_Node000034_Node000035" class="edge">
<title>Node34&#45;&gt;Node35</title>
<g id="a_edge39_Node000034_Node000035"><a xlink:title=" ">
<path fill="none" stroke="#63b8ff" d="M414.74,-142.84C433.28,-141.85 453.21,-140.79 472.22,-139.78"/>
<polygon fill="#63b8ff" stroke="#63b8ff" points="472.57,-143.26 482.37,-139.24 472.2,-136.27 472.57,-143.26"/>
</a>
</g>
</g>
<!-- Node36 -->
<g id="Node000036" class="node">
<title>Node36</title>
<g id="a_Node000036"><a xlink:href="classcam_1_1async__op_1_1AsyncOperatorMixin.html#a15a51cfd69d8e453e2e3d64386b1ebe3" target="_top" xlink:title=" ">
<polygon fill="white" stroke="#666666" points="852,-150 691,-150 691,-120 852,-120 852,-150"/>
<text text-anchor="start" x="699" y="-138" font-family="Helvetica,sans-Serif" font-size="10.00">cam.async_op.AsyncOperator</text>
<text text-anchor="middle" x="771.5" y="-127" font-family="Helvetica,sans-Serif" font-size="10.00">Mixin.tick</text>
</a>
</g>
</g>
<!-- Node35&#45;&gt;Node36 -->
<g id="edge40_Node000035_Node000036" class="edge">
<title>Node35&#45;&gt;Node36</title>
<g id="a_edge40_Node000035_Node000036"><a xlink:title=" ">
<path fill="none" stroke="#63b8ff" d="M643.54,-135C655.7,-135 668.33,-135 680.69,-135"/>
<polygon fill="#63b8ff" stroke="#63b8ff" points="681,-138.5 691,-135 681,-131.5 681,-138.5"/>
</a>
</g>
</g>
<!-- Node37 -->
<g id="Node000037" class="node">
<title>Node37</title>
<g id="a_Node000037"><a xlink:href="classcam_1_1async__op_1_1AsyncTestOperator.html#a42606ca890a957aa7070a4bc6f25228b" target="_top" xlink:title=" ">
<polygon fill="white" stroke="#666666" points="1109,-270 888,-270 888,-240 1109,-240 1109,-270"/>
<text text-anchor="start" x="896" y="-258" font-family="Helvetica,sans-Serif" font-size="10.00">cam.async_op.AsyncTestOperator.execute</text>
<text text-anchor="middle" x="998.5" y="-247" font-family="Helvetica,sans-Serif" font-size="10.00">_async</text>
</a>
</g>
</g>
<!-- Node36&#45;&gt;Node37 -->
<g id="edge41_Node000036_Node000037" class="edge">
<title>Node36&#45;&gt;Node37</title>
<g id="a_edge41_Node000036_Node000037"><a xlink:title=" ">
<path fill="none" stroke="#63b8ff" d="M786.18,-150.27C806.31,-171.74 846.07,-210.51 888,-231 892.09,-233 896.35,-234.84 900.72,-236.52"/>
<polygon fill="#63b8ff" stroke="#63b8ff" points="899.81,-239.91 910.41,-239.97 902.16,-233.32 899.81,-239.91"/>
</a>
</g>
</g>
<!-- Node38 -->
<g id="Node000038" class="node">
<title>Node38</title>
<g id="a_Node000038"><a xlink:href="classcam_1_1ops_1_1CalculatePath.html#a13dfe2f8578383234e74e58e2f292e1b" target="_top" xlink:title=" ">
<polygon fill="white" stroke="#666666" points="1083,-222 914,-222 914,-192 1083,-192 1083,-222"/>
<text text-anchor="start" x="922" y="-210" font-family="Helvetica,sans-Serif" font-size="10.00">cam.ops.CalculatePath.execute</text>
<text text-anchor="middle" x="998.5" y="-199" font-family="Helvetica,sans-Serif" font-size="10.00">_async</text>
</a>
</g>
</g>
<!-- Node36&#45;&gt;Node38 -->
<g id="edge42_Node000036_Node000038" class="edge">
<title>Node36&#45;&gt;Node38</title>
<g id="a_edge42_Node000036_Node000038"><a xlink:title=" ">
<path fill="none" stroke="#63b8ff" d="M804.29,-150.01C827.18,-160.38 859,-173.88 888,-183 895.31,-185.3 902.96,-187.46 910.68,-189.47"/>
<polygon fill="#63b8ff" stroke="#63b8ff" points="909.91,-192.89 920.46,-191.93 911.62,-186.1 909.91,-192.89"/>
</a>
</g>
</g>
<!-- Node40 -->
<g id="Node000040" class="node">
<title>Node40</title>
<g id="a_Node000040"><a xlink:href="classcam_1_1ops_1_1PathsChain.html#a6fc64e383ccf724b2325e18a82d53eae" target="_top" xlink:title=" ">
<polygon fill="white" stroke="#666666" points="1076.5,-174 920.5,-174 920.5,-144 1076.5,-144 1076.5,-174"/>
<text text-anchor="start" x="928.5" y="-162" font-family="Helvetica,sans-Serif" font-size="10.00">cam.ops.PathsChain.execute</text>
<text text-anchor="middle" x="998.5" y="-151" font-family="Helvetica,sans-Serif" font-size="10.00">_async</text>
</a>
</g>
</g>
<!-- Node36&#45;&gt;Node40 -->
<g id="edge44_Node000036_Node000040" class="edge">
<title>Node36&#45;&gt;Node40</title>
<g id="a_edge44_Node000036_Node000040"><a xlink:title=" ">
<path fill="none" stroke="#63b8ff" d="M852.14,-143.5C870.9,-145.5 890.98,-147.64 910.06,-149.67"/>
<polygon fill="#63b8ff" stroke="#63b8ff" points="909.92,-153.18 920.23,-150.76 910.66,-146.22 909.92,-153.18"/>
</a>
</g>
</g>
<!-- Node42 -->
<g id="Node000042" class="node">
<title>Node42</title>
<g id="a_Node000042"><a xlink:href="classcam_1_1ops_1_1CAMSimulate.html#a633151f17849d281fd52ce82c00356a7" target="_top" xlink:title=" ">
<polygon fill="white" stroke="#666666" points="1082.5,-126 914.5,-126 914.5,-96 1082.5,-96 1082.5,-126"/>
<text text-anchor="start" x="922.5" y="-114" font-family="Helvetica,sans-Serif" font-size="10.00">cam.ops.CAMSimulate.execute</text>
<text text-anchor="middle" x="998.5" y="-103" font-family="Helvetica,sans-Serif" font-size="10.00">_async</text>
</a>
</g>
</g>
<!-- Node36&#45;&gt;Node42 -->
<g id="edge47_Node000036_Node000042" class="edge">
<title>Node36&#45;&gt;Node42</title>
<g id="a_edge47_Node000036_Node000042"><a xlink:title=" ">
<path fill="none" stroke="#63b8ff" d="M852.14,-126.5C868.95,-124.71 886.82,-122.81 904.08,-120.97"/>
<polygon fill="#63b8ff" stroke="#63b8ff" points="904.58,-124.43 914.15,-119.89 903.84,-117.47 904.58,-124.43"/>
</a>
</g>
</g>
<!-- Node43 -->
<g id="Node000043" class="node">
<title>Node43</title>
<g id="a_Node000043"><a xlink:href="classcam_1_1ops_1_1CAMSimulateChain.html#a1e77c7ce21b3b7e3e38a12b6b62517e9" target="_top" xlink:title=" ">
<polygon fill="white" stroke="#666666" points="1096.5,-78 900.5,-78 900.5,-48 1096.5,-48 1096.5,-78"/>
<text text-anchor="start" x="908.5" y="-66" font-family="Helvetica,sans-Serif" font-size="10.00">cam.ops.CAMSimulateChain.execute</text>
<text text-anchor="middle" x="998.5" y="-55" font-family="Helvetica,sans-Serif" font-size="10.00">_async</text>
</a>
</g>
</g>
<!-- Node36&#45;&gt;Node43 -->
<g id="edge48_Node000036_Node000043" class="edge">
<title>Node36&#45;&gt;Node43</title>
<g id="a_edge48_Node000036_Node000043"><a xlink:title=" ">
<path fill="none" stroke="#63b8ff" d="M804.29,-119.99C827.18,-109.62 859,-96.12 888,-87 895.31,-84.7 902.96,-82.54 910.68,-80.53"/>
<polygon fill="#63b8ff" stroke="#63b8ff" points="911.62,-83.9 920.46,-78.07 909.91,-77.11 911.62,-83.9"/>
</a>
</g>
</g>
<!-- Node44 -->
<g id="Node000044" class="node">
<title>Node44</title>
<g id="a_Node000044"><a xlink:href="classcam_1_1async__op_1_1AsyncOperatorMixin.html#a2216ff6bb0dfd132f4ec4cf79b7cba2b" target="_top" xlink:title=" ">
<polygon fill="white" stroke="#666666" points="1079,-30 918,-30 918,0 1079,0 1079,-30"/>
<text text-anchor="start" x="926" y="-18" font-family="Helvetica,sans-Serif" font-size="10.00">cam.async_op.AsyncOperator</text>
<text text-anchor="middle" x="998.5" y="-7" font-family="Helvetica,sans-Serif" font-size="10.00">Mixin.show_progress</text>
</a>
</g>
</g>
<!-- Node36&#45;&gt;Node44 -->
<g id="edge50_Node000036_Node000044" class="edge">
<title>Node36&#45;&gt;Node44</title>
<g id="a_edge50_Node000036_Node000044"><a xlink:title=" ">
<path fill="none" stroke="#63b8ff" d="M786.18,-119.73C806.31,-98.26 846.07,-59.49 888,-39 894.43,-35.86 901.27,-33.12 908.28,-30.74"/>
<polygon fill="#63b8ff" stroke="#63b8ff" points="909.42,-34.05 917.91,-27.71 907.32,-27.37 909.42,-34.05"/>
</a>
</g>
</g>
<!-- Node39 -->
<g id="Node000039" class="node">
<title>Node39</title>
<g id="a_Node000039"><a xlink:href="namespacecam_1_1ops.html#aa8e95f7410a7ceb178db48f4f8c2d995" target="_top" xlink:title=" ">
<polygon fill="white" stroke="#666666" points="1280.5,-192.5 1167.5,-192.5 1167.5,-173.5 1280.5,-173.5 1280.5,-192.5"/>
<text text-anchor="middle" x="1224" y="-180.5" font-family="Helvetica,sans-Serif" font-size="10.00">cam.ops._calc_path</text>
</a>
</g>
</g>
<!-- Node38&#45;&gt;Node39 -->
<g id="edge43_Node000038_Node000039" class="edge">
<title>Node38&#45;&gt;Node39</title>
<g id="a_edge43_Node000038_Node000039"><a xlink:title=" ">
<path fill="none" stroke="#63b8ff" d="M1083.04,-198.03C1107.56,-195.4 1134.01,-192.56 1157.25,-190.06"/>
<polygon fill="#63b8ff" stroke="#63b8ff" points="1157.77,-193.52 1167.34,-188.98 1157.03,-186.56 1157.77,-193.52"/>
</a>
</g>
</g>
<!-- Node40&#45;&gt;Node39 -->
<g id="edge45_Node000040_Node000039" class="edge">
<title>Node40&#45;&gt;Node39</title>
<g id="a_edge45_Node000040_Node000039"><a xlink:title=" ">
<path fill="none" stroke="#63b8ff" d="M1076.73,-167.29C1102.9,-170.1 1131.87,-173.21 1157.08,-175.92"/>
<polygon fill="#63b8ff" stroke="#63b8ff" points="1156.95,-179.43 1167.27,-177.02 1157.7,-172.47 1156.95,-179.43"/>
</a>
</g>
</g>
<!-- Node41 -->
<g id="Node000041" class="node">
<title>Node41</title>
<g id="a_Node000041"><a xlink:href="namespacecam_1_1ops.html#ab55fb8ec9a00e021e8e4a1c3ecc97cb4" target="_top" xlink:title=" ">
<polygon fill="white" stroke="#666666" points="1303,-126.5 1145,-126.5 1145,-107.5 1303,-107.5 1303,-126.5"/>
<text text-anchor="middle" x="1224" y="-114.5" font-family="Helvetica,sans-Serif" font-size="10.00">cam.ops.getChainOperations</text>
</a>
</g>
</g>
<!-- Node40&#45;&gt;Node41 -->
<g id="edge46_Node000040_Node000041" class="edge">
<title>Node40&#45;&gt;Node41</title>
<g id="a_edge46_Node000040_Node000041"><a xlink:title=" ">
<path fill="none" stroke="#63b8ff" d="M1076.73,-144.49C1104.81,-139.21 1136.12,-133.33 1162.54,-128.36"/>
<polygon fill="#63b8ff" stroke="#63b8ff" points="1163.23,-131.79 1172.41,-126.51 1161.94,-124.91 1163.23,-131.79"/>
</a>
</g>
</g>
<!-- Node43&#45;&gt;Node41 -->
<g id="edge49_Node000043_Node000041" class="edge">
<title>Node43&#45;&gt;Node41</title>
<g id="a_edge49_Node000043_Node000041"><a xlink:title=" ">
<path fill="none" stroke="#63b8ff" d="M1070.28,-78.06C1083.19,-80.94 1096.51,-83.99 1109,-87 1131.91,-92.52 1157.28,-99.15 1178.25,-104.77"/>
<polygon fill="#63b8ff" stroke="#63b8ff" points="1177.6,-108.21 1188.17,-107.43 1179.42,-101.45 1177.6,-108.21"/>
</a>
</g>
</g>
<!-- Node45&#45;&gt;Node35 -->
<g id="edge52_Node000045_Node000035" class="edge">
<title>Node45&#45;&gt;Node35</title>
<g id="a_edge52_Node000045_Node000035"><a xlink:title=" ">
<path fill="none" stroke="#63b8ff" d="M410.65,-114.19C430.4,-116.91 451.94,-119.87 472.42,-122.68"/>
<polygon fill="#63b8ff" stroke="#63b8ff" points="471.99,-126.16 482.37,-124.05 472.94,-119.22 471.99,-126.16"/>
</a>
</g>
</g>
<!-- Node46&#45;&gt;Node31 -->
<g id="edge54_Node000046_Node000031" class="edge">
<title>Node46&#45;&gt;Node31</title>
<g id="a_edge54_Node000046_Node000031"><a xlink:title=" ">
<path fill="none" stroke="#63b8ff" d="M406.61,-187.73C432.07,-189.09 460.92,-190.62 486.79,-192"/>
<polygon fill="#63b8ff" stroke="#63b8ff" points="486.75,-195.5 496.93,-192.54 487.13,-188.51 486.75,-195.5"/>
</a>
</g>
</g>
</g>
</svg>
