<?xml version="1.0" encoding="UTF-8" standalone="no"?>
<!DOCTYPE svg PUBLIC "-//W3C//DTD SVG 1.1//EN"
 "http://www.w3.org/Graphics/SVG/1.1/DTD/svg11.dtd">
<!-- Generated by graphviz version 2.43.0 (0)
 -->
<!-- Title: cam.engine.CNCCAM_ENGINE Pages: 1 -->
<svg width="165pt" height="172pt"
 viewBox="0.00 0.00 165.00 172.00" xmlns="http://www.w3.org/2000/svg" xmlns:xlink="http://www.w3.org/1999/xlink">
<g id="graph0" class="graph" transform="scale(1 1) rotate(0) translate(4 168)">
<title>cam.engine.CNCCAM_ENGINE</title>
<!-- Node1 -->
<g id="Node000001" class="node">
<title>Node1</title>
<g id="a_Node000001"><a xlink:title=" ">
<polygon fill="#999999" stroke="transparent" points="157,-79 0,-79 0,0 157,0 157,-79"/>
<text text-anchor="start" x="5.5" y="-66.5" font-family="Helvetica,sans-Serif" font-size="10.00">cam.engine.CNCCAM_ENGINE</text>
<text text-anchor="start" x="9.5" y="-51.5" font-family="Helvetica,sans-Serif" font-size="10.00">+</text>
<text text-anchor="start" x="27.5" y="-51.5" font-family="Helvetica,sans-Serif" font-size="10.00">bl_idname</text>
<text text-anchor="start" x="9.5" y="-36.5" font-family="Helvetica,sans-Serif" font-size="10.00">+</text>
<text text-anchor="start" x="27.5" y="-36.5" font-family="Helvetica,sans-Serif" font-size="10.00">bl_label</text>
<text text-anchor="start" x="9.5" y="-21.5" font-family="Helvetica,sans-Serif" font-size="10.00">+</text>
<text text-anchor="start" x="27.5" y="-21.5" font-family="Helvetica,sans-Serif" font-size="10.00">bl_use_eevee_viewport</text>
<text text-anchor="start" x="77" y="-6.5" font-family="Helvetica,sans-Serif" font-size="10.00"> </text>
<polygon fill="#666666" stroke="#666666" points="0.5,-61.5 0.5,-61.5 157.5,-61.5 157.5,-61.5 0.5,-61.5"/>
<polygon fill="#666666" stroke="#666666" points="0.5,-16.5 0.5,-16.5 25.5,-16.5 25.5,-16.5 0.5,-16.5"/>
<polygon fill="#666666" stroke="#666666" points="25.5,-16.5 25.5,-16.5 157.5,-16.5 157.5,-16.5 25.5,-16.5"/>
<polygon fill="none" stroke="#666666" points="0,0 0,-79 157,-79 157,0 0,0"/>
</a>
</g>
</g>
<!-- Node2 -->
<g id="Node000002" class="node">
<title>Node2</title>
<g id="a_Node000002"><a xlink:title=" ">
<polygon fill="white" stroke="transparent" points="117.5,-164 39.5,-164 39.5,-115 117.5,-115 117.5,-164"/>
<text text-anchor="start" x="44.5" y="-151.5" font-family="Helvetica,sans-Serif" font-size="10.00">RenderEngine</text>
<text text-anchor="start" x="76.5" y="-136.5" font-family="Helvetica,sans-Serif" font-size="10.00"> </text>
<text text-anchor="start" x="76.5" y="-121.5" font-family="Helvetica,sans-Serif" font-size="10.00"> </text>
<polygon fill="#666666" stroke="#666666" points="39.5,-146.5 39.5,-146.5 117.5,-146.5 117.5,-146.5 39.5,-146.5"/>
<polygon fill="#666666" stroke="#666666" points="39.5,-131.5 39.5,-131.5 117.5,-131.5 117.5,-131.5 39.5,-131.5"/>
<polygon fill="none" stroke="#666666" points="39.5,-115 39.5,-164 117.5,-164 117.5,-115 39.5,-115"/>
</a>
</g>
</g>
<!-- Node2&#45;&gt;Node1 -->
<g id="edge1_Node000001_Node000002" class="edge">
<title>Node2&#45;&gt;Node1</title>
<g id="a_edge1_Node000001_Node000002"><a xlink:title=" ">
<path fill="none" stroke="#63b8ff" d="M78.5,-104.52C78.5,-96.38 78.5,-87.63 78.5,-79.29"/>
<polygon fill="none" stroke="#63b8ff" points="75,-104.78 78.5,-114.78 82,-104.78 75,-104.78"/>
</a>
</g>
</g>
</g>
</svg>
