<?xml version="1.0" encoding="UTF-8" standalone="no"?>
<!DOCTYPE svg PUBLIC "-//W3C//DTD SVG 1.1//EN"
 "http://www.w3.org/Graphics/SVG/1.1/DTD/svg11.dtd">
<!-- Generated by graphviz version 2.43.0 (0)
 -->
<!-- Title: cam.nc.lathe1.CreatorIso.set_temporary_origin Pages: 1 -->
<svg width="1245pt" height="487pt"
 viewBox="0.00 0.00 1245.00 486.50" xmlns="http://www.w3.org/2000/svg" xmlns:xlink="http://www.w3.org/1999/xlink">
<g id="graph0" class="graph" transform="scale(1 1) rotate(0) translate(4 482.5)">
<title>cam.nc.lathe1.CreatorIso.set_temporary_origin</title>
<!-- Node1 -->
<g id="Node000001" class="node">
<title>Node1</title>
<g id="a_Node000001"><a xlink:title=" ">
<polygon fill="#999999" stroke="#666666" points="157,-291 0,-291 0,-261 157,-261 157,-291"/>
<text text-anchor="start" x="8" y="-279" font-family="Helvetica,sans-Serif" font-size="10.00">cam.nc.lathe1.CreatorIso.set</text>
<text text-anchor="middle" x="78.5" y="-268" font-family="Helvetica,sans-Serif" font-size="10.00">_temporary_origin</text>
</a>
</g>
</g>
<!-- Node2 -->
<g id="Node000002" class="node">
<title>Node2</title>
<g id="a_Node000002"><a xlink:href="classcam_1_1nc_1_1cad__nc__read_1_1Parser.html#adcf2f47949df29f187f27fe985884633" target="_top" xlink:title=" ">
<polygon fill="white" stroke="#666666" points="380.5,-460.5 204.5,-460.5 204.5,-441.5 380.5,-441.5 380.5,-460.5"/>
<text text-anchor="middle" x="292.5" y="-448.5" font-family="Helvetica,sans-Serif" font-size="10.00">cam.nc.cad_nc_read.Parser.write</text>
</a>
</g>
</g>
<!-- Node1&#45;&gt;Node2 -->
<g id="edge1_Node000001_Node000002" class="edge">
<title>Node1&#45;&gt;Node2</title>
<g id="a_edge1_Node000001_Node000002"><a xlink:title=" ">
<path fill="none" stroke="#63b8ff" d="M85.66,-291.05C99.58,-322.98 136.68,-397.47 193,-433 195.48,-434.57 198.06,-436 200.72,-437.32"/>
<polygon fill="#63b8ff" stroke="#63b8ff" points="199.46,-440.59 210.02,-441.37 202.25,-434.17 199.46,-440.59"/>
</a>
</g>
</g>
<!-- Node3 -->
<g id="Node000003" class="node">
<title>Node3</title>
<g id="a_Node000003"><a xlink:href="classcam_1_1nc_1_1hxml__writer_1_1HxmlWriter.html#aed6f93c98cb8c0e3f3e826e75b6d6f15" target="_top" xlink:title=" ">
<polygon fill="white" stroke="#666666" points="392,-405.5 193,-405.5 193,-386.5 392,-386.5 392,-405.5"/>
<text text-anchor="middle" x="292.5" y="-393.5" font-family="Helvetica,sans-Serif" font-size="10.00">cam.nc.hxml_writer.HxmlWriter.write</text>
</a>
</g>
</g>
<!-- Node1&#45;&gt;Node3 -->
<g id="edge3_Node000001_Node000003" class="edge">
<title>Node1&#45;&gt;Node3</title>
<g id="a_edge3_Node000001_Node000003"><a xlink:title=" ">
<path fill="none" stroke="#63b8ff" d="M91.62,-291.31C110.61,-314.16 149.72,-356.75 193,-378 197.06,-379.99 201.31,-381.77 205.67,-383.35"/>
<polygon fill="#63b8ff" stroke="#63b8ff" points="204.78,-386.74 215.37,-386.5 206.94,-380.08 204.78,-386.74"/>
</a>
</g>
</g>
<!-- Node4 -->
<g id="Node000004" class="node">
<title>Node4</title>
<g id="a_Node000004"><a xlink:href="classcam_1_1nc_1_1iso_1_1Creator.html#abb81af5a0bdddfed387b71b68a51cc7a" target="_top" xlink:title="Internals.">
<polygon fill="white" stroke="#666666" points="360,-368.5 225,-368.5 225,-349.5 360,-349.5 360,-368.5"/>
<text text-anchor="middle" x="292.5" y="-356.5" font-family="Helvetica,sans-Serif" font-size="10.00">cam.nc.iso.Creator.write</text>
</a>
</g>
</g>
<!-- Node1&#45;&gt;Node4 -->
<g id="edge5_Node000001_Node000004" class="edge">
<title>Node1&#45;&gt;Node4</title>
<g id="a_edge5_Node000001_Node000004"><a xlink:title=" ">
<path fill="none" stroke="#63b8ff" d="M100.6,-291.03C122.62,-305.98 158.66,-328.45 193,-341 200.04,-343.57 207.5,-345.79 215.04,-347.7"/>
<polygon fill="#63b8ff" stroke="#63b8ff" points="214.44,-351.15 224.97,-350.03 216.04,-344.34 214.44,-351.15"/>
</a>
</g>
</g>
<!-- Node5 -->
<g id="Node000005" class="node">
<title>Node5</title>
<g id="a_Node000005"><a xlink:href="classcam_1_1nc_1_1nc_1_1Creator.html#a80f2134add83bfaaf2870d075d36ed8a" target="_top" xlink:title=" ">
<polygon fill="white" stroke="#666666" points="358.5,-313.5 226.5,-313.5 226.5,-294.5 358.5,-294.5 358.5,-313.5"/>
<text text-anchor="middle" x="292.5" y="-301.5" font-family="Helvetica,sans-Serif" font-size="10.00">cam.nc.nc.Creator.write</text>
</a>
</g>
</g>
<!-- Node1&#45;&gt;Node5 -->
<g id="edge6_Node000001_Node000005" class="edge">
<title>Node1&#45;&gt;Node5</title>
<g id="a_edge6_Node000001_Node000005"><a xlink:title=" ">
<path fill="none" stroke="#63b8ff" d="M157.24,-286.27C176.47,-288.81 197.04,-291.52 216.16,-294.05"/>
<polygon fill="#63b8ff" stroke="#63b8ff" points="215.94,-297.55 226.31,-295.39 216.85,-290.61 215.94,-297.55"/>
</a>
</g>
</g>
<!-- Node6 -->
<g id="Node000006" class="node">
<title>Node6</title>
<g id="a_Node000006"><a xlink:href="classcam_1_1nc_1_1nclathe__read_1_1Parser.html#ab5ea283b461b57e48c8d5b0ad0a45694" target="_top" xlink:title=" ">
<polygon fill="white" stroke="#666666" points="381.5,-258.5 203.5,-258.5 203.5,-239.5 381.5,-239.5 381.5,-258.5"/>
<text text-anchor="middle" x="292.5" y="-246.5" font-family="Helvetica,sans-Serif" font-size="10.00">cam.nc.nclathe_read.Parser.write</text>
</a>
</g>
</g>
<!-- Node1&#45;&gt;Node6 -->
<g id="edge8_Node000001_Node000006" class="edge">
<title>Node1&#45;&gt;Node6</title>
<g id="a_edge8_Node000001_Node000006"><a xlink:title=" ">
<path fill="none" stroke="#63b8ff" d="M157.24,-266.1C173.29,-264.06 190.27,-261.89 206.56,-259.82"/>
<polygon fill="#63b8ff" stroke="#63b8ff" points="207.12,-263.27 216.6,-258.54 206.24,-256.33 207.12,-263.27"/>
</a>
</g>
</g>
<!-- Node7 -->
<g id="Node000007" class="node">
<title>Node7</title>
<g id="a_Node000007"><a xlink:href="classcam_1_1nc_1_1recreator_1_1Redirector.html#a79cc974683588db3ef959189e7552c0d" target="_top" xlink:title="Programs.">
<polygon fill="white" stroke="#666666" points="382,-203.5 203,-203.5 203,-184.5 382,-184.5 382,-203.5"/>
<text text-anchor="middle" x="292.5" y="-191.5" font-family="Helvetica,sans-Serif" font-size="10.00">cam.nc.recreator.Redirector.write</text>
</a>
</g>
</g>
<!-- Node1&#45;&gt;Node7 -->
<g id="edge10_Node000001_Node000007" class="edge">
<title>Node1&#45;&gt;Node7</title>
<g id="a_edge10_Node000001_Node000007"><a xlink:title=" ">
<path fill="none" stroke="#63b8ff" d="M117.01,-260.93C139.09,-252.11 167.59,-240.81 193,-231 213.8,-222.97 237.16,-214.19 255.91,-207.19"/>
<polygon fill="#63b8ff" stroke="#63b8ff" points="257.38,-210.38 265.53,-203.61 254.93,-203.82 257.38,-210.38"/>
</a>
</g>
</g>
<!-- Node8 -->
<g id="Node000008" class="node">
<title>Node8</title>
<g id="a_Node000008"><a xlink:href="classcam_1_1nc_1_1format_1_1Address.html#aa21f0ffeb829537d9103759276c01a4b" target="_top" xlink:title=" ">
<polygon fill="white" stroke="#666666" points="371.5,-166.5 213.5,-166.5 213.5,-147.5 371.5,-147.5 371.5,-166.5"/>
<text text-anchor="middle" x="292.5" y="-154.5" font-family="Helvetica,sans-Serif" font-size="10.00">cam.nc.format.Address.write</text>
</a>
</g>
</g>
<!-- Node1&#45;&gt;Node8 -->
<g id="edge12_Node000001_Node000008" class="edge">
<title>Node1&#45;&gt;Node8</title>
<g id="a_edge12_Node000001_Node000008"><a xlink:title=" ">
<path fill="none" stroke="#63b8ff" d="M92.03,-260.67C111.26,-238.26 150.33,-196.95 193,-176 197.98,-173.55 203.25,-171.42 208.66,-169.56"/>
<polygon fill="#63b8ff" stroke="#63b8ff" points="209.99,-172.81 218.51,-166.51 207.92,-166.13 209.99,-172.81"/>
</a>
</g>
</g>
<!-- Node19 -->
<g id="Node000019" class="node">
<title>Node19</title>
<g id="a_Node000019"><a xlink:href="classcam_1_1nc_1_1format_1_1AddressPlusMinus.html#aaacea4c7b677f0a602dbc9023ff365d2" target="_top" xlink:title=" ">
<polygon fill="white" stroke="#666666" points="367.5,-129 217.5,-129 217.5,-99 367.5,-99 367.5,-129"/>
<text text-anchor="start" x="225.5" y="-117" font-family="Helvetica,sans-Serif" font-size="10.00">cam.nc.format.AddressPlus</text>
<text text-anchor="middle" x="292.5" y="-106" font-family="Helvetica,sans-Serif" font-size="10.00">Minus.write</text>
</a>
</g>
</g>
<!-- Node1&#45;&gt;Node19 -->
<g id="edge25_Node000001_Node000019" class="edge">
<title>Node1&#45;&gt;Node19</title>
<g id="a_edge25_Node000001_Node000019"><a xlink:title=" ">
<path fill="none" stroke="#63b8ff" d="M87.53,-260.83C103.54,-232.11 142.3,-169.84 193,-138 197.66,-135.07 202.65,-132.51 207.82,-130.25"/>
<polygon fill="#63b8ff" stroke="#63b8ff" points="209.26,-133.44 217.28,-126.52 206.7,-126.93 209.26,-133.44"/>
</a>
</g>
</g>
<!-- Node2&#45;&gt;Node2 -->
<g id="edge2_Node000002_Node000002" class="edge">
<title>Node2&#45;&gt;Node2</title>
<g id="a_edge2_Node000002_Node000002"><a xlink:title=" ">
<path fill="none" stroke="#63b8ff" d="M259.52,-460.58C243.47,-469.23 254.46,-478.5 292.5,-478.5 319.84,-478.5 333.21,-473.71 332.61,-467.81"/>
<polygon fill="#63b8ff" stroke="#63b8ff" points="335,-465.25 325.48,-460.58 330.01,-470.16 335,-465.25"/>
</a>
</g>
</g>
<!-- Node3&#45;&gt;Node3 -->
<g id="edge4_Node000003_Node000003" class="edge">
<title>Node3&#45;&gt;Node3</title>
<g id="a_edge4_Node000003_Node000003"><a xlink:title=" ">
<path fill="none" stroke="#63b8ff" d="M259.52,-405.58C243.47,-414.23 254.46,-423.5 292.5,-423.5 319.84,-423.5 333.21,-418.71 332.61,-412.81"/>
<polygon fill="#63b8ff" stroke="#63b8ff" points="335,-410.25 325.48,-405.58 330.01,-415.16 335,-410.25"/>
</a>
</g>
</g>
<!-- Node5&#45;&gt;Node5 -->
<g id="edge7_Node000005_Node000005" class="edge">
<title>Node5&#45;&gt;Node5</title>
<g id="a_edge7_Node000005_Node000005"><a xlink:title=" ">
<path fill="none" stroke="#63b8ff" d="M259.52,-313.58C243.47,-322.23 254.46,-331.5 292.5,-331.5 319.84,-331.5 333.21,-326.71 332.61,-320.81"/>
<polygon fill="#63b8ff" stroke="#63b8ff" points="335,-318.25 325.48,-313.58 330.01,-323.16 335,-318.25"/>
</a>
</g>
</g>
<!-- Node6&#45;&gt;Node6 -->
<g id="edge9_Node000006_Node000006" class="edge">
<title>Node6&#45;&gt;Node6</title>
<g id="a_edge9_Node000006_Node000006"><a xlink:title=" ">
<path fill="none" stroke="#63b8ff" d="M259.52,-258.58C243.47,-267.23 254.46,-276.5 292.5,-276.5 319.84,-276.5 333.21,-271.71 332.61,-265.81"/>
<polygon fill="#63b8ff" stroke="#63b8ff" points="335,-263.25 325.48,-258.58 330.01,-268.16 335,-263.25"/>
</a>
</g>
</g>
<!-- Node7&#45;&gt;Node7 -->
<g id="edge11_Node000007_Node000007" class="edge">
<title>Node7&#45;&gt;Node7</title>
<g id="a_edge11_Node000007_Node000007"><a xlink:title=" ">
<path fill="none" stroke="#63b8ff" d="M259.52,-203.58C243.47,-212.23 254.46,-221.5 292.5,-221.5 319.84,-221.5 333.21,-216.71 332.61,-210.81"/>
<polygon fill="#63b8ff" stroke="#63b8ff" points="335,-208.25 325.48,-203.58 330.01,-213.16 335,-208.25"/>
</a>
</g>
</g>
<!-- Node9 -->
<g id="Node000009" class="node">
<title>Node9</title>
<g id="a_Node000009"><a xlink:href="classcam_1_1async__op_1_1AsyncOperatorMixin.html#a9628cbca8e69ec75b2337171a02bf428" target="_top" xlink:title=" ">
<polygon fill="white" stroke="#666666" points="589,-150 428,-150 428,-120 589,-120 589,-150"/>
<text text-anchor="start" x="436" y="-138" font-family="Helvetica,sans-Serif" font-size="10.00">cam.async_op.AsyncOperator</text>
<text text-anchor="middle" x="508.5" y="-127" font-family="Helvetica,sans-Serif" font-size="10.00">Mixin.modal</text>
</a>
</g>
</g>
<!-- Node8&#45;&gt;Node9 -->
<g id="edge13_Node000008_Node000009" class="edge">
<title>Node8&#45;&gt;Node9</title>
<g id="a_edge13_Node000008_Node000009"><a xlink:title=" ">
<path fill="none" stroke="#63b8ff" d="M371.67,-148.96C386.65,-147.42 402.45,-145.8 417.77,-144.22"/>
<polygon fill="#63b8ff" stroke="#63b8ff" points="418.16,-147.7 427.75,-143.2 417.45,-140.74 418.16,-147.7"/>
</a>
</g>
</g>
<!-- Node10 -->
<g id="Node000010" class="node">
<title>Node10</title>
<g id="a_Node000010"><a xlink:href="classcam_1_1async__op_1_1AsyncOperatorMixin.html#a15a51cfd69d8e453e2e3d64386b1ebe3" target="_top" xlink:title=" ">
<polygon fill="white" stroke="#666666" points="786,-150 625,-150 625,-120 786,-120 786,-150"/>
<text text-anchor="start" x="633" y="-138" font-family="Helvetica,sans-Serif" font-size="10.00">cam.async_op.AsyncOperator</text>
<text text-anchor="middle" x="705.5" y="-127" font-family="Helvetica,sans-Serif" font-size="10.00">Mixin.tick</text>
</a>
</g>
</g>
<!-- Node9&#45;&gt;Node10 -->
<g id="edge14_Node000009_Node000010" class="edge">
<title>Node9&#45;&gt;Node10</title>
<g id="a_edge14_Node000009_Node000010"><a xlink:title=" ">
<path fill="none" stroke="#63b8ff" d="M589.1,-135C597.57,-135 606.24,-135 614.82,-135"/>
<polygon fill="#63b8ff" stroke="#63b8ff" points="614.84,-138.5 624.84,-135 614.84,-131.5 614.84,-138.5"/>
</a>
</g>
</g>
<!-- Node11 -->
<g id="Node000011" class="node">
<title>Node11</title>
<g id="a_Node000011"><a xlink:href="classcam_1_1async__op_1_1AsyncTestOperator.html#a42606ca890a957aa7070a4bc6f25228b" target="_top" xlink:title=" ">
<polygon fill="white" stroke="#666666" points="1043,-270 822,-270 822,-240 1043,-240 1043,-270"/>
<text text-anchor="start" x="830" y="-258" font-family="Helvetica,sans-Serif" font-size="10.00">cam.async_op.AsyncTestOperator.execute</text>
<text text-anchor="middle" x="932.5" y="-247" font-family="Helvetica,sans-Serif" font-size="10.00">_async</text>
</a>
</g>
</g>
<!-- Node10&#45;&gt;Node11 -->
<g id="edge15_Node000010_Node000011" class="edge">
<title>Node10&#45;&gt;Node11</title>
<g id="a_edge15_Node000010_Node000011"><a xlink:title=" ">
<path fill="none" stroke="#63b8ff" d="M720.18,-150.27C740.31,-171.74 780.07,-210.51 822,-231 826.09,-233 830.35,-234.84 834.72,-236.52"/>
<polygon fill="#63b8ff" stroke="#63b8ff" points="833.81,-239.91 844.41,-239.97 836.16,-233.32 833.81,-239.91"/>
</a>
</g>
</g>
<!-- Node12 -->
<g id="Node000012" class="node">
<title>Node12</title>
<g id="a_Node000012"><a xlink:href="classcam_1_1ops_1_1CalculatePath.html#a13dfe2f8578383234e74e58e2f292e1b" target="_top" xlink:title=" ">
<polygon fill="white" stroke="#666666" points="1017,-222 848,-222 848,-192 1017,-192 1017,-222"/>
<text text-anchor="start" x="856" y="-210" font-family="Helvetica,sans-Serif" font-size="10.00">cam.ops.CalculatePath.execute</text>
<text text-anchor="middle" x="932.5" y="-199" font-family="Helvetica,sans-Serif" font-size="10.00">_async</text>
</a>
</g>
</g>
<!-- Node10&#45;&gt;Node12 -->
<g id="edge16_Node000010_Node000012" class="edge">
<title>Node10&#45;&gt;Node12</title>
<g id="a_edge16_Node000010_Node000012"><a xlink:title=" ">
<path fill="none" stroke="#63b8ff" d="M738.29,-150.01C761.18,-160.38 793,-173.88 822,-183 829.31,-185.3 836.96,-187.46 844.68,-189.47"/>
<polygon fill="#63b8ff" stroke="#63b8ff" points="843.91,-192.89 854.46,-191.93 845.62,-186.1 843.91,-192.89"/>
</a>
</g>
</g>
<!-- Node14 -->
<g id="Node000014" class="node">
<title>Node14</title>
<g id="a_Node000014"><a xlink:href="classcam_1_1ops_1_1PathsChain.html#a6fc64e383ccf724b2325e18a82d53eae" target="_top" xlink:title=" ">
<polygon fill="white" stroke="#666666" points="1010.5,-174 854.5,-174 854.5,-144 1010.5,-144 1010.5,-174"/>
<text text-anchor="start" x="862.5" y="-162" font-family="Helvetica,sans-Serif" font-size="10.00">cam.ops.PathsChain.execute</text>
<text text-anchor="middle" x="932.5" y="-151" font-family="Helvetica,sans-Serif" font-size="10.00">_async</text>
</a>
</g>
</g>
<!-- Node10&#45;&gt;Node14 -->
<g id="edge18_Node000010_Node000014" class="edge">
<title>Node10&#45;&gt;Node14</title>
<g id="a_edge18_Node000010_Node000014"><a xlink:title=" ">
<path fill="none" stroke="#63b8ff" d="M786.14,-143.5C804.9,-145.5 824.98,-147.64 844.06,-149.67"/>
<polygon fill="#63b8ff" stroke="#63b8ff" points="843.92,-153.18 854.23,-150.76 844.66,-146.22 843.92,-153.18"/>
</a>
</g>
</g>
<!-- Node16 -->
<g id="Node000016" class="node">
<title>Node16</title>
<g id="a_Node000016"><a xlink:href="classcam_1_1ops_1_1CAMSimulate.html#a633151f17849d281fd52ce82c00356a7" target="_top" xlink:title=" ">
<polygon fill="white" stroke="#666666" points="1016.5,-126 848.5,-126 848.5,-96 1016.5,-96 1016.5,-126"/>
<text text-anchor="start" x="856.5" y="-114" font-family="Helvetica,sans-Serif" font-size="10.00">cam.ops.CAMSimulate.execute</text>
<text text-anchor="middle" x="932.5" y="-103" font-family="Helvetica,sans-Serif" font-size="10.00">_async</text>
</a>
</g>
</g>
<!-- Node10&#45;&gt;Node16 -->
<g id="edge21_Node000010_Node000016" class="edge">
<title>Node10&#45;&gt;Node16</title>
<g id="a_edge21_Node000010_Node000016"><a xlink:title=" ">
<path fill="none" stroke="#63b8ff" d="M786.14,-126.5C802.95,-124.71 820.82,-122.81 838.08,-120.97"/>
<polygon fill="#63b8ff" stroke="#63b8ff" points="838.58,-124.43 848.15,-119.89 837.84,-117.47 838.58,-124.43"/>
</a>
</g>
</g>
<!-- Node17 -->
<g id="Node000017" class="node">
<title>Node17</title>
<g id="a_Node000017"><a xlink:href="classcam_1_1ops_1_1CAMSimulateChain.html#a1e77c7ce21b3b7e3e38a12b6b62517e9" target="_top" xlink:title=" ">
<polygon fill="white" stroke="#666666" points="1030.5,-78 834.5,-78 834.5,-48 1030.5,-48 1030.5,-78"/>
<text text-anchor="start" x="842.5" y="-66" font-family="Helvetica,sans-Serif" font-size="10.00">cam.ops.CAMSimulateChain.execute</text>
<text text-anchor="middle" x="932.5" y="-55" font-family="Helvetica,sans-Serif" font-size="10.00">_async</text>
</a>
</g>
</g>
<!-- Node10&#45;&gt;Node17 -->
<g id="edge22_Node000010_Node000017" class="edge">
<title>Node10&#45;&gt;Node17</title>
<g id="a_edge22_Node000010_Node000017"><a xlink:title=" ">
<path fill="none" stroke="#63b8ff" d="M738.29,-119.99C761.18,-109.62 793,-96.12 822,-87 829.31,-84.7 836.96,-82.54 844.68,-80.53"/>
<polygon fill="#63b8ff" stroke="#63b8ff" points="845.62,-83.9 854.46,-78.07 843.91,-77.11 845.62,-83.9"/>
</a>
</g>
</g>
<!-- Node18 -->
<g id="Node000018" class="node">
<title>Node18</title>
<g id="a_Node000018"><a xlink:href="classcam_1_1async__op_1_1AsyncOperatorMixin.html#a2216ff6bb0dfd132f4ec4cf79b7cba2b" target="_top" xlink:title=" ">
<polygon fill="white" stroke="#666666" points="1013,-30 852,-30 852,0 1013,0 1013,-30"/>
<text text-anchor="start" x="860" y="-18" font-family="Helvetica,sans-Serif" font-size="10.00">cam.async_op.AsyncOperator</text>
<text text-anchor="middle" x="932.5" y="-7" font-family="Helvetica,sans-Serif" font-size="10.00">Mixin.show_progress</text>
</a>
</g>
</g>
<!-- Node10&#45;&gt;Node18 -->
<g id="edge24_Node000010_Node000018" class="edge">
<title>Node10&#45;&gt;Node18</title>
<g id="a_edge24_Node000010_Node000018"><a xlink:title=" ">
<path fill="none" stroke="#63b8ff" d="M720.18,-119.73C740.31,-98.26 780.07,-59.49 822,-39 828.43,-35.86 835.27,-33.12 842.28,-30.74"/>
<polygon fill="#63b8ff" stroke="#63b8ff" points="843.42,-34.05 851.91,-27.71 841.32,-27.37 843.42,-34.05"/>
</a>
</g>
</g>
<!-- Node13 -->
<g id="Node000013" class="node">
<title>Node13</title>
<g id="a_Node000013"><a xlink:href="namespacecam_1_1ops.html#aa8e95f7410a7ceb178db48f4f8c2d995" target="_top" xlink:title=" ">
<polygon fill="white" stroke="#666666" points="1214.5,-192.5 1101.5,-192.5 1101.5,-173.5 1214.5,-173.5 1214.5,-192.5"/>
<text text-anchor="middle" x="1158" y="-180.5" font-family="Helvetica,sans-Serif" font-size="10.00">cam.ops._calc_path</text>
</a>
</g>
</g>
<!-- Node12&#45;&gt;Node13 -->
<g id="edge17_Node000012_Node000013" class="edge">
<title>Node12&#45;&gt;Node13</title>
<g id="a_edge17_Node000012_Node000013"><a xlink:title=" ">
<path fill="none" stroke="#63b8ff" d="M1017.04,-198.03C1041.56,-195.4 1068.01,-192.56 1091.25,-190.06"/>
<polygon fill="#63b8ff" stroke="#63b8ff" points="1091.77,-193.52 1101.34,-188.98 1091.03,-186.56 1091.77,-193.52"/>
</a>
</g>
</g>
<!-- Node14&#45;&gt;Node13 -->
<g id="edge19_Node000014_Node000013" class="edge">
<title>Node14&#45;&gt;Node13</title>
<g id="a_edge19_Node000014_Node000013"><a xlink:title=" ">
<path fill="none" stroke="#63b8ff" d="M1010.73,-167.29C1036.9,-170.1 1065.87,-173.21 1091.08,-175.92"/>
<polygon fill="#63b8ff" stroke="#63b8ff" points="1090.95,-179.43 1101.27,-177.02 1091.7,-172.47 1090.95,-179.43"/>
</a>
</g>
</g>
<!-- Node15 -->
<g id="Node000015" class="node">
<title>Node15</title>
<g id="a_Node000015"><a xlink:href="namespacecam_1_1ops.html#ab55fb8ec9a00e021e8e4a1c3ecc97cb4" target="_top" xlink:title=" ">
<polygon fill="white" stroke="#666666" points="1237,-126.5 1079,-126.5 1079,-107.5 1237,-107.5 1237,-126.5"/>
<text text-anchor="middle" x="1158" y="-114.5" font-family="Helvetica,sans-Serif" font-size="10.00">cam.ops.getChainOperations</text>
</a>
</g>
</g>
<!-- Node14&#45;&gt;Node15 -->
<g id="edge20_Node000014_Node000015" class="edge">
<title>Node14&#45;&gt;Node15</title>
<g id="a_edge20_Node000014_Node000015"><a xlink:title=" ">
<path fill="none" stroke="#63b8ff" d="M1010.73,-144.49C1038.81,-139.21 1070.12,-133.33 1096.54,-128.36"/>
<polygon fill="#63b8ff" stroke="#63b8ff" points="1097.23,-131.79 1106.41,-126.51 1095.94,-124.91 1097.23,-131.79"/>
</a>
</g>
</g>
<!-- Node17&#45;&gt;Node15 -->
<g id="edge23_Node000017_Node000015" class="edge">
<title>Node17&#45;&gt;Node15</title>
<g id="a_edge23_Node000017_Node000015"><a xlink:title=" ">
<path fill="none" stroke="#63b8ff" d="M1004.28,-78.06C1017.19,-80.94 1030.51,-83.99 1043,-87 1065.91,-92.52 1091.28,-99.15 1112.25,-104.77"/>
<polygon fill="#63b8ff" stroke="#63b8ff" points="1111.6,-108.21 1122.17,-107.43 1113.42,-101.45 1111.6,-108.21"/>
</a>
</g>
</g>
<!-- Node19&#45;&gt;Node9 -->
<g id="edge26_Node000019_Node000009" class="edge">
<title>Node19&#45;&gt;Node9</title>
<g id="a_edge26_Node000019_Node000009"><a xlink:title=" ">
<path fill="none" stroke="#63b8ff" d="M367.75,-121.29C383.84,-122.87 401.03,-124.55 417.65,-126.18"/>
<polygon fill="#63b8ff" stroke="#63b8ff" points="417.62,-129.7 427.92,-127.19 418.3,-122.73 417.62,-129.7"/>
</a>
</g>
</g>
</g>
</svg>
