<?xml version="1.0" encoding="UTF-8" standalone="no"?>
<!DOCTYPE svg PUBLIC "-//W3C//DTD SVG 1.1//EN"
 "http://www.w3.org/Graphics/SVG/1.1/DTD/svg11.dtd">
<!-- Generated by graphviz version 2.43.0 (0)
 -->
<!-- Title: cam.nc.hxml_writer.HxmlWriter.set_mode Pages: 1 -->
<!--zoomable 179 -->

<svg id="main" version="1.1" xmlns="http://www.w3.org/2000/svg" xmlns:xlink="http://www.w3.org/1999/xlink" xml:space="preserve" onload="init(evt)">
<style type="text/css"><![CDATA[
.node, .edge {opacity: 0.7;}
.node.selected, .edge.selected {opacity: 1;}
.edge:hover path { stroke: red; }
.edge:hover polygon { stroke: red; fill: red; }
]]></style>

<defs>
  <circle id="rim" cx="0" cy="0" r="7"/>
  <circle id="rim2" cx="0" cy="0" r="3.5"/>
  <g id="zoomPlus">
    <use xlink:href="#rim" fill="#404040"><set attributeName="fill" to="#808080" begin="zoomplus.mouseover" end="zoomplus.mouseout"/></use>
    <path d="M-4,0h8M0,-4v8" fill="none" stroke="white" stroke-width="1.5" pointer-events="none"/>
  </g>
  <g id="zoomMin">
    <use xlink:href="#rim" fill="#404040"><set attributeName="fill" to="#808080" begin="zoomminus.mouseover" end="zoomminus.mouseout"/></use>
    <path d="M-4,0h8" fill="none" stroke="white" stroke-width="1.5" pointer-events="none"/>
  </g>
  <g id="arrowUp" transform="translate(30 24)">
    <use xlink:href="#rim"/>
    <path pointer-events="none" fill="none" stroke="white" stroke-width="1.5" d="M0,-3.0v7 M-2.5,-0.5L0,-3.0L2.5,-0.5"/>
  </g>
  <g id="arrowRight" transform="rotate(90) translate(36 -43)">
    <use xlink:href="#rim"/>
    <path pointer-events="none" fill="none" stroke="white" stroke-width="1.5" d="M0,-3.0v7 M-2.5,-0.5L0,-3.0L2.5,-0.5"/>
  </g>
  <g id="arrowDown" transform="rotate(180) translate(-30 -48)">
    <use xlink:href="#rim"/>
    <path pointer-events="none" fill="none" stroke="white" stroke-width="1.5" d="M0,-3.0v7 M-2.5,-0.5L0,-3.0L2.5,-0.5"/>
  </g>
  <g id="arrowLeft" transform="rotate(270) translate(-36 17)">
    <use xlink:href="#rim"/>
    <path pointer-events="none" fill="none" stroke="white" stroke-width="1.5" d="M0,-3.0v7 M-2.5,-0.5L0,-3.0L2.5,-0.5"/>
  </g>
  <g id="resetDef">
    <use xlink:href="#rim2" fill="#404040"><set attributeName="fill" to="#808080" begin="reset.mouseover" end="reset.mouseout"/></use>
  </g>
</defs>
<script type="application/ecmascript">
var viewWidth = 711;
var viewHeight = 179;
var sectionId = 'dynsection-25';
</script>
<script type="application/ecmascript" xlink:href="svg.min.js"/>
<svg id="graph" class="graph">
<g id="viewport">
<title>cam.nc.hxml_writer.HxmlWriter.set_mode</title>
<!-- Node1 -->
<g id="Node000001" class="node">
<title>Node1</title>
<g id="a_Node000001"><a xlink:title=" ">
<polygon fill="#999999" stroke="#666666" points="703,-93.5 481,-93.5 481,-74.5 703,-74.5 703,-93.5"/>
<text text-anchor="middle" x="592" y="-81.5" font-family="Helvetica,sans-Serif" font-size="10.00">cam.nc.hxml_writer.HxmlWriter.set_mode</text>
</a>
</g>
</g>
<!-- Node2 -->
<g id="Node000002" class="node">
<title>Node2</title>
<g id="a_Node000002"><a xlink:href="classcam_1_1nc_1_1hxml__writer_1_1HxmlWriter.html#a436a65a95d5fe72d3bd218df50330d54" target="_top" xlink:title=" ">
<polygon fill="white" stroke="#666666" points="445,-152.5 230,-152.5 230,-133.5 445,-133.5 445,-152.5"/>
<text text-anchor="middle" x="337.5" y="-140.5" font-family="Helvetica,sans-Serif" font-size="10.00">cam.nc.hxml_writer.HxmlWriter.imperial</text>
</a>
</g>
</g>
<!-- Node1&#45;&gt;Node2 -->
<g id="edge1_Node000001_Node000002" class="edge">
<title>Node1&#45;&gt;Node2</title>
<g id="a_edge1_Node000001_Node000002"><a xlink:title=" ">
<path fill="none" stroke="#63b8ff" d="M550.94,-96.49C521.77,-105.28 481.19,-116.88 445,-125 431,-128.14 415.86,-131.01 401.51,-133.49"/>
<polygon fill="#63b8ff" stroke="#63b8ff" points="552.21,-99.76 560.76,-93.51 550.17,-93.07 552.21,-99.76"/>
</a>
</g>
</g>
<!-- Node4 -->
<g id="Node000004" class="node">
<title>Node4</title>
<g id="a_Node000004"><a xlink:href="classcam_1_1nc_1_1hxml__writer_1_1HxmlWriter.html#afaf943891cd90b76fa6af488bc9aa1bb" target="_top" xlink:title=" ">
<polygon fill="white" stroke="#666666" points="440.5,-115.5 234.5,-115.5 234.5,-96.5 440.5,-96.5 440.5,-115.5"/>
<text text-anchor="middle" x="337.5" y="-103.5" font-family="Helvetica,sans-Serif" font-size="10.00">cam.nc.hxml_writer.HxmlWriter.metric</text>
</a>
</g>
</g>
<!-- Node1&#45;&gt;Node4 -->
<g id="edge4_Node000001_Node000004" class="edge">
<title>Node1&#45;&gt;Node4</title>
<g id="a_edge4_Node000001_Node000004"><a xlink:title=" ">
<path fill="none" stroke="#63b8ff" d="M471.48,-94.41C461.22,-95.31 450.89,-96.21 440.78,-97.09"/>
<polygon fill="#63b8ff" stroke="#63b8ff" points="472.06,-97.88 481.72,-93.52 471.45,-90.9 472.06,-97.88"/>
</a>
</g>
</g>
<!-- Node5 -->
<g id="Node000005" class="node">
<title>Node5</title>
<g id="a_Node000005"><a xlink:href="classcam_1_1nc_1_1cad__read_1_1CAD__backplot.html#afce7c30e482cfb88a36593d4020909d7" target="_top" xlink:title=" ">
<polygon fill="white" stroke="#666666" points="399,-78 276,-78 276,-48 399,-48 399,-78"/>
<text text-anchor="start" x="284" y="-66" font-family="Helvetica,sans-Serif" font-size="10.00">cam.nc.cad_read.CAD</text>
<text text-anchor="middle" x="337.5" y="-55" font-family="Helvetica,sans-Serif" font-size="10.00">_backplot.Parse</text>
</a>
</g>
</g>
<!-- Node1&#45;&gt;Node5 -->
<g id="edge5_Node000001_Node000005" class="edge">
<title>Node1&#45;&gt;Node5</title>
<g id="a_edge5_Node000001_Node000005"><a xlink:title=" ">
<path fill="none" stroke="#63b8ff" d="M470.76,-74C445.96,-71.94 420.84,-69.85 399.26,-68.05"/>
<polygon fill="#63b8ff" stroke="#63b8ff" points="470.73,-77.51 480.98,-74.85 471.31,-70.53 470.73,-77.51"/>
</a>
</g>
</g>
<!-- Node6 -->
<g id="Node000006" class="node">
<title>Node6</title>
<g id="a_Node000006"><a xlink:href="classcam_1_1nc_1_1lathe1__read_1_1Parser.html#a4046e981f4f946bed728de957d10365f" target="_top" xlink:title=" ">
<polygon fill="white" stroke="#666666" points="411.5,-30 263.5,-30 263.5,0 411.5,0 411.5,-30"/>
<text text-anchor="start" x="271.5" y="-18" font-family="Helvetica,sans-Serif" font-size="10.00">cam.nc.lathe1_read.Parser.</text>
<text text-anchor="middle" x="337.5" y="-7" font-family="Helvetica,sans-Serif" font-size="10.00">Parse</text>
</a>
</g>
</g>
<!-- Node1&#45;&gt;Node6 -->
<g id="edge6_Node000001_Node000006" class="edge">
<title>Node1&#45;&gt;Node6</title>
<g id="a_edge6_Node000001_Node000006"><a xlink:title=" ">
<path fill="none" stroke="#63b8ff" d="M552.55,-71.26C523.24,-61.76 481.8,-48.8 445,-39 433.37,-35.9 420.96,-32.86 408.87,-30.05"/>
<polygon fill="#63b8ff" stroke="#63b8ff" points="551.79,-74.69 562.38,-74.46 553.96,-68.03 551.79,-74.69"/>
</a>
</g>
</g>
<!-- Node3 -->
<g id="Node000003" class="node">
<title>Node3</title>
<g id="a_Node000003"><a xlink:href="classcam_1_1nc_1_1recreator_1_1Redirector.html#aac89af9940b239a0231eaf6d86be2c28" target="_top" xlink:title="Settings.">
<polygon fill="white" stroke="#666666" points="194,-152.5 0,-152.5 0,-133.5 194,-133.5 194,-152.5"/>
<text text-anchor="middle" x="97" y="-140.5" font-family="Helvetica,sans-Serif" font-size="10.00">cam.nc.recreator.Redirector.imperial</text>
</a>
</g>
</g>
<!-- Node2&#45;&gt;Node3 -->
<g id="edge2_Node000002_Node000003" class="edge">
<title>Node2&#45;&gt;Node3</title>
<g id="a_edge2_Node000002_Node000003"><a xlink:title=" ">
<path fill="none" stroke="#63b8ff" d="M219.73,-143C211.13,-143 202.52,-143 194.06,-143"/>
<polygon fill="#63b8ff" stroke="#63b8ff" points="219.81,-146.5 229.81,-143 219.81,-139.5 219.81,-146.5"/>
</a>
</g>
</g>
<!-- Node3&#45;&gt;Node3 -->
<g id="edge3_Node000003_Node000003" class="edge">
<title>Node3&#45;&gt;Node3</title>
<g id="a_edge3_Node000003_Node000003"><a xlink:title=" ">
<path fill="none" stroke="#63b8ff" d="M141.8,-159.03C143.93,-165.29 128.99,-170.5 97,-170.5 54.34,-170.5 42.01,-161.23 60.01,-152.58"/>
<polygon fill="#63b8ff" stroke="#63b8ff" points="143.93,-156.25 133.99,-152.58 139.47,-161.65 143.93,-156.25"/>
</a>
</g>
</g>
</g>
</svg>

<g id="navigator" transform="translate(0 0)" fill="#404254">
  <rect fill="#f2f5e9" fill-opacity="0.5" stroke="#606060" stroke-width=".5" x="0" y="0" width="60" height="60"/>
  <use id="zoomplus" xlink:href="#zoomPlus" x="17" y="9" onmousedown="handleZoom(evt,'in')"/>
  <use id="zoomminus" xlink:href="#zoomMin" x="42" y="9" onmousedown="handleZoom(evt,'out')"/>
  <use id="reset" xlink:href="#resetDef" x="30" y="36" onmousedown="handleReset()"/>
   <use id="arrowup" xlink:href="#arrowUp" x="0" y="0" onmousedown="handlePan(0,-1)"/>
  <use id="arrowright" xlink:href="#arrowRight" x="0" y="0" onmousedown="handlePan(1,0)"/>
  <use id="arrowdown" xlink:href="#arrowDown" x="0" y="0" onmousedown="handlePan(0,1)"/>
  <use id="arrowleft" xlink:href="#arrowLeft" x="0" y="0" onmousedown="handlePan(-1,0)"/>
</g>
<svg viewBox="0 0 15 15" width="100%" height="30px" preserveAspectRatio="xMaxYMin meet">
 <g id="arrow_out" transform="scale(0.3 0.3)">
  <a xlink:href="classcam_1_1nc_1_1hxml__writer_1_1HxmlWriter_adb0551863323ff7ab2906281fd5703df_icgraph_org.svg" target="_base">
   <rect id="button" ry="5" rx="5" y="6" x="6" height="38" width="38"
        fill="#f2f5e9" fill-opacity="0.5" stroke="#606060" stroke-width="1.0"/>
   <path id="arrow"
     d="M 11.500037,31.436501 C 11.940474,20.09759 22.043105,11.32322 32.158766,21.979434 L 37.068811,17.246167 C 37.068811,17.246167 37.088388,32 37.088388,32 L 22.160133,31.978069 C 22.160133,31.978069 26.997745,27.140456 26.997745,27.140456 C 18.528582,18.264221 13.291696,25.230495 11.500037,31.436501 z"
     style="fill:#404040;"/>
  </a>
 </g>
</svg>

<style type='text/css'>
<![CDATA[
[data-mouse-over-selected='false'] { opacity: 0.7; }
[data-mouse-over-selected='true']  { opacity: 1.0; }
]]>
</style>
<script type="application/ecmascript"><![CDATA[
document.addEventListener('DOMContentLoaded', (event) => {
  highlightEdges();
  highlightAdjacentNodes();
});
]]></script>
</svg>
