<?xml version="1.0" encoding="UTF-8" standalone="no"?>
<!DOCTYPE svg PUBLIC "-//W3C//DTD SVG 1.1//EN"
 "http://www.w3.org/Graphics/SVG/1.1/DTD/svg11.dtd">
<!-- Generated by graphviz version 2.43.0 (0)
 -->
<!-- Title: cam.nc.iso.Creator.COOLANT_OFF Pages: 1 -->
<svg width="392pt" height="64pt"
 viewBox="0.00 0.00 392.00 64.00" xmlns="http://www.w3.org/2000/svg" xmlns:xlink="http://www.w3.org/1999/xlink">
<g id="graph0" class="graph" transform="scale(1 1) rotate(0) translate(4 60)">
<title>cam.nc.iso.Creator.COOLANT_OFF</title>
<!-- Node1 -->
<g id="Node000001" class="node">
<title>Node1</title>
<g id="a_Node000001"><a xlink:title=" ">
<polygon fill="#999999" stroke="#666666" points="384,-37 201,-37 201,-18 384,-18 384,-37"/>
<text text-anchor="middle" x="292.5" y="-25" font-family="Helvetica,sans-Serif" font-size="10.00">cam.nc.iso.Creator.COOLANT_OFF</text>
</a>
</g>
</g>
<!-- Node2 -->
<g id="Node000002" class="node">
<title>Node2</title>
<g id="a_Node000002"><a xlink:href="classcam_1_1nc_1_1heiden_1_1Creator.html#a7036356988aeecbeca61cf3dfc398e22" target="_top" xlink:title=" ">
<polygon fill="white" stroke="#666666" points="165,-56 0,-56 0,-37 165,-37 165,-56"/>
<text text-anchor="middle" x="82.5" y="-44" font-family="Helvetica,sans-Serif" font-size="10.00">cam.nc.heiden.Creator.coolant</text>
</a>
</g>
</g>
<!-- Node1&#45;&gt;Node2 -->
<g id="edge1_Node000001_Node000002" class="edge">
<title>Node1&#45;&gt;Node2</title>
<g id="a_edge1_Node000001_Node000002"><a xlink:title=" ">
<path fill="none" stroke="#63b8ff" d="M190.76,-36.7C182.13,-37.49 173.46,-38.28 165,-39.06"/>
<polygon fill="#63b8ff" stroke="#63b8ff" points="191.23,-40.17 200.87,-35.78 190.6,-33.2 191.23,-40.17"/>
</a>
</g>
</g>
<!-- Node3 -->
<g id="Node000003" class="node">
<title>Node3</title>
<g id="a_Node000003"><a xlink:href="classcam_1_1nc_1_1iso_1_1Creator.html#a3e23cee17ea4e06b916e1472c938fad6" target="_top" xlink:title=" ">
<polygon fill="white" stroke="#666666" points="155.5,-19 9.5,-19 9.5,0 155.5,0 155.5,-19"/>
<text text-anchor="middle" x="82.5" y="-7" font-family="Helvetica,sans-Serif" font-size="10.00">cam.nc.iso.Creator.coolant</text>
</a>
</g>
</g>
<!-- Node1&#45;&gt;Node3 -->
<g id="edge2_Node000001_Node000003" class="edge">
<title>Node1&#45;&gt;Node3</title>
<g id="a_edge2_Node000001_Node000003"><a xlink:title=" ">
<path fill="none" stroke="#63b8ff" d="M190.56,-18.76C178.79,-17.75 166.97,-16.72 155.71,-15.75"/>
<polygon fill="#63b8ff" stroke="#63b8ff" points="190.61,-22.28 200.87,-19.66 191.21,-15.31 190.61,-22.28"/>
</a>
</g>
</g>
</g>
</svg>
