<?xml version="1.0" encoding="UTF-8" standalone="no"?>
<!DOCTYPE svg PUBLIC "-//W3C//DTD SVG 1.1//EN"
 "http://www.w3.org/Graphics/SVG/1.1/DTD/svg11.dtd">
<!-- Generated by graphviz version 2.43.0 (0)
 -->
<!-- Title: cam.nc.heiden.Creator.SUBPROG_CALL Pages: 1 -->
<!--zoomable 408 -->

<svg id="main" version="1.1" xmlns="http://www.w3.org/2000/svg" xmlns:xlink="http://www.w3.org/1999/xlink" xml:space="preserve" onload="init(evt)">
<style type="text/css"><![CDATA[
.node, .edge {opacity: 0.7;}
.node.selected, .edge.selected {opacity: 1;}
.edge:hover path { stroke: red; }
.edge:hover polygon { stroke: red; fill: red; }
]]></style>

<defs>
  <circle id="rim" cx="0" cy="0" r="7"/>
  <circle id="rim2" cx="0" cy="0" r="3.5"/>
  <g id="zoomPlus">
    <use xlink:href="#rim" fill="#404040"><set attributeName="fill" to="#808080" begin="zoomplus.mouseover" end="zoomplus.mouseout"/></use>
    <path d="M-4,0h8M0,-4v8" fill="none" stroke="white" stroke-width="1.5" pointer-events="none"/>
  </g>
  <g id="zoomMin">
    <use xlink:href="#rim" fill="#404040"><set attributeName="fill" to="#808080" begin="zoomminus.mouseover" end="zoomminus.mouseout"/></use>
    <path d="M-4,0h8" fill="none" stroke="white" stroke-width="1.5" pointer-events="none"/>
  </g>
  <g id="arrowUp" transform="translate(30 24)">
    <use xlink:href="#rim"/>
    <path pointer-events="none" fill="none" stroke="white" stroke-width="1.5" d="M0,-3.0v7 M-2.5,-0.5L0,-3.0L2.5,-0.5"/>
  </g>
  <g id="arrowRight" transform="rotate(90) translate(36 -43)">
    <use xlink:href="#rim"/>
    <path pointer-events="none" fill="none" stroke="white" stroke-width="1.5" d="M0,-3.0v7 M-2.5,-0.5L0,-3.0L2.5,-0.5"/>
  </g>
  <g id="arrowDown" transform="rotate(180) translate(-30 -48)">
    <use xlink:href="#rim"/>
    <path pointer-events="none" fill="none" stroke="white" stroke-width="1.5" d="M0,-3.0v7 M-2.5,-0.5L0,-3.0L2.5,-0.5"/>
  </g>
  <g id="arrowLeft" transform="rotate(270) translate(-36 17)">
    <use xlink:href="#rim"/>
    <path pointer-events="none" fill="none" stroke="white" stroke-width="1.5" d="M0,-3.0v7 M-2.5,-0.5L0,-3.0L2.5,-0.5"/>
  </g>
  <g id="resetDef">
    <use xlink:href="#rim2" fill="#404040"><set attributeName="fill" to="#808080" begin="reset.mouseover" end="reset.mouseout"/></use>
  </g>
</defs>
<script type="application/ecmascript">
var viewWidth = 641;
var viewHeight = 408;
var sectionId = 'dynsection-106';
</script>
<script type="application/ecmascript" xlink:href="svg.min.js"/>
<svg id="graph" class="graph">
<g id="viewport">
<title>cam.nc.heiden.Creator.SUBPROG_CALL</title>
<!-- Node1 -->
<g id="Node000001" class="node">
<title>Node1</title>
<g id="a_Node000001"><a xlink:title=" ">
<polygon fill="#999999" stroke="#666666" points="206,-212 0,-212 0,-193 206,-193 206,-212"/>
<text text-anchor="middle" x="103" y="-200" font-family="Helvetica,sans-Serif" font-size="10.00">cam.nc.heiden.Creator.SUBPROG_CALL</text>
</a>
</g>
</g>
<!-- Node2 -->
<g id="Node000002" class="node">
<title>Node2</title>
<g id="a_Node000002"><a xlink:href="classcam_1_1nc_1_1emc2_1_1Creator.html#a47a9e4f5f35681f580765bba2f0f97a5" target="_top" xlink:title=" ">
<polygon fill="white" stroke="#666666" points="404.5,-400 250.5,-400 250.5,-381 404.5,-381 404.5,-400"/>
<text text-anchor="middle" x="327.5" y="-388" font-family="Helvetica,sans-Serif" font-size="10.00">cam.nc.emc2.Creator.SPACE</text>
</a>
</g>
</g>
<!-- Node1&#45;&gt;Node2 -->
<g id="edge1_Node000001_Node000002" class="edge">
<title>Node1&#45;&gt;Node2</title>
<g id="a_edge1_Node000001_Node000002"><a xlink:title=" ">
<path fill="none" stroke="#63b8ff" d="M108.74,-212.11C123.73,-241.45 173.27,-330.42 242,-372.5 244.66,-374.13 247.45,-375.62 250.33,-376.97"/>
<polygon fill="#63b8ff" stroke="#63b8ff" points="249.2,-380.28 259.77,-380.85 251.86,-373.81 249.2,-380.28"/>
</a>
</g>
</g>
<!-- Node3 -->
<g id="Node000003" class="node">
<title>Node3</title>
<g id="a_Node000003"><a xlink:href="classcam_1_1nc_1_1emc2b_1_1Creator.html#abff5586e78bb91681bd41dafdea5a9e7" target="_top" xlink:title=" ">
<polygon fill="white" stroke="#666666" points="407.5,-363 247.5,-363 247.5,-344 407.5,-344 407.5,-363"/>
<text text-anchor="middle" x="327.5" y="-351" font-family="Helvetica,sans-Serif" font-size="10.00">cam.nc.emc2b.Creator.SPACE</text>
</a>
</g>
</g>
<!-- Node1&#45;&gt;Node3 -->
<g id="edge2_Node000001_Node000003" class="edge">
<title>Node1&#45;&gt;Node3</title>
<g id="a_edge2_Node000001_Node000003"><a xlink:title=" ">
<path fill="none" stroke="#63b8ff" d="M111.12,-212.31C129.64,-237.06 182.1,-302.38 242,-334.5 246.33,-336.82 250.93,-338.86 255.66,-340.65"/>
<polygon fill="#63b8ff" stroke="#63b8ff" points="254.91,-344.09 265.5,-343.98 257.16,-337.46 254.91,-344.09"/>
</a>
</g>
</g>
<!-- Node4 -->
<g id="Node000004" class="node">
<title>Node4</title>
<g id="a_Node000004"><a xlink:href="classcam_1_1nc_1_1emc2tap_1_1CodesEMC2.html#a6a0d71a1c6e9f8a80228dc220a0e57ca" target="_top" xlink:title=" ">
<polygon fill="white" stroke="#666666" points="408,-325.5 247,-325.5 247,-295.5 408,-295.5 408,-325.5"/>
<text text-anchor="start" x="255" y="-313.5" font-family="Helvetica,sans-Serif" font-size="10.00">cam.nc.emc2tap.CodesEMC2.</text>
<text text-anchor="middle" x="327.5" y="-302.5" font-family="Helvetica,sans-Serif" font-size="10.00">SPACE</text>
</a>
</g>
</g>
<!-- Node1&#45;&gt;Node4 -->
<g id="edge3_Node000001_Node000004" class="edge">
<title>Node1&#45;&gt;Node4</title>
<g id="a_edge3_Node000001_Node000004"><a xlink:title=" ">
<path fill="none" stroke="#63b8ff" d="M117.05,-212.12C140.8,-229.23 193.16,-265.17 242,-286.5 246.6,-288.51 251.41,-290.4 256.31,-292.16"/>
<polygon fill="#63b8ff" stroke="#63b8ff" points="255.2,-295.48 265.79,-295.41 257.46,-288.86 255.2,-295.48"/>
</a>
</g>
</g>
<!-- Node5 -->
<g id="Node000005" class="node">
<title>Node5</title>
<g id="a_Node000005"><a xlink:href="classcam_1_1nc_1_1heiden_1_1Creator.html#a2c4277ffddaea0f92c906c6744f7a3bd" target="_top" xlink:title="Codes.">
<polygon fill="white" stroke="#666666" points="407.5,-277 247.5,-277 247.5,-258 407.5,-258 407.5,-277"/>
<text text-anchor="middle" x="327.5" y="-265" font-family="Helvetica,sans-Serif" font-size="10.00">cam.nc.heiden.Creator.SPACE</text>
</a>
</g>
</g>
<!-- Node1&#45;&gt;Node5 -->
<g id="edge4_Node000001_Node000005" class="edge">
<title>Node1&#45;&gt;Node5</title>
<g id="a_edge4_Node000001_Node000005"><a xlink:title=" ">
<path fill="none" stroke="#63b8ff" d="M129.96,-212.02C157.52,-221.93 202.46,-237.5 242,-248.5 251.14,-251.04 260.9,-253.49 270.43,-255.73"/>
<polygon fill="#63b8ff" stroke="#63b8ff" points="269.71,-259.15 280.24,-257.98 271.28,-252.33 269.71,-259.15"/>
</a>
</g>
</g>
<!-- Node6 -->
<g id="Node000006" class="node">
<title>Node6</title>
<g id="a_Node000006"><a xlink:href="classcam_1_1nc_1_1heiden530_1_1Creator.html#aa64b19b0edc2ac1f2d568b09ca2aebcb" target="_top" xlink:title="Codes.">
<polygon fill="white" stroke="#666666" points="401,-239.5 254,-239.5 254,-209.5 401,-209.5 401,-239.5"/>
<text text-anchor="start" x="262" y="-227.5" font-family="Helvetica,sans-Serif" font-size="10.00">cam.nc.heiden530.Creator.</text>
<text text-anchor="middle" x="327.5" y="-216.5" font-family="Helvetica,sans-Serif" font-size="10.00">SPACE</text>
</a>
</g>
</g>
<!-- Node1&#45;&gt;Node6 -->
<g id="edge5_Node000001_Node000006" class="edge">
<title>Node1&#45;&gt;Node6</title>
<g id="a_edge5_Node000001_Node000006"><a xlink:title=" ">
<path fill="none" stroke="#63b8ff" d="M200.3,-212.02C214.76,-213.45 229.56,-214.91 243.71,-216.31"/>
<polygon fill="#63b8ff" stroke="#63b8ff" points="243.58,-219.82 253.87,-217.32 244.27,-212.85 243.58,-219.82"/>
</a>
</g>
</g>
<!-- Node7 -->
<g id="Node000007" class="node">
<title>Node7</title>
<g id="a_Node000007"><a xlink:href="classcam_1_1nc_1_1iso_1_1Creator.html#a79463d437baaaf23c828a2c9e62393f3" target="_top" xlink:title=" ">
<polygon fill="white" stroke="#666666" points="398,-191 257,-191 257,-172 398,-172 398,-191"/>
<text text-anchor="middle" x="327.5" y="-179" font-family="Helvetica,sans-Serif" font-size="10.00">cam.nc.iso.Creator.SPACE</text>
</a>
</g>
</g>
<!-- Node1&#45;&gt;Node7 -->
<g id="edge6_Node000001_Node000007" class="edge">
<title>Node1&#45;&gt;Node7</title>
<g id="a_edge6_Node000001_Node000007"><a xlink:title=" ">
<path fill="none" stroke="#63b8ff" d="M204.83,-192.98C218.85,-191.66 233.09,-190.32 246.66,-189.04"/>
<polygon fill="#63b8ff" stroke="#63b8ff" points="247.25,-192.49 256.88,-188.07 246.6,-185.53 247.25,-192.49"/>
</a>
</g>
</g>
<!-- Node15 -->
<g id="Node000015" class="node">
<title>Node15</title>
<g id="a_Node000015"><a xlink:href="classcam_1_1nc_1_1makerbot__codes_1_1Codes.html#a497077e0e500cc8f419b8f3f61f008b4" target="_top" xlink:title=" ">
<polygon fill="white" stroke="#666666" points="413,-153.5 242,-153.5 242,-123.5 413,-123.5 413,-153.5"/>
<text text-anchor="start" x="250" y="-141.5" font-family="Helvetica,sans-Serif" font-size="10.00">cam.nc.makerbot_codes.Codes.</text>
<text text-anchor="middle" x="327.5" y="-130.5" font-family="Helvetica,sans-Serif" font-size="10.00">SPACE</text>
</a>
</g>
</g>
<!-- Node1&#45;&gt;Node15 -->
<g id="edge14_Node000001_Node000015" class="edge">
<title>Node1&#45;&gt;Node15</title>
<g id="a_edge14_Node000001_Node000015"><a xlink:title=" ">
<path fill="none" stroke="#63b8ff" d="M137.31,-192.92C170.87,-183.27 223.44,-168.14 264.66,-156.29"/>
<polygon fill="#63b8ff" stroke="#63b8ff" points="265.69,-159.63 274.33,-153.5 263.76,-152.91 265.69,-159.63"/>
</a>
</g>
</g>
<!-- Node16 -->
<g id="Node000016" class="node">
<title>Node16</title>
<g id="a_Node000016"><a xlink:href="classcam_1_1nc_1_1series1_1_1Creator.html#a75918d23eef609baab85058fda3050d5" target="_top" xlink:title=" ">
<polygon fill="white" stroke="#666666" points="408.5,-105 246.5,-105 246.5,-86 408.5,-86 408.5,-105"/>
<text text-anchor="middle" x="327.5" y="-93" font-family="Helvetica,sans-Serif" font-size="10.00">cam.nc.series1.Creator.SPACE</text>
</a>
</g>
</g>
<!-- Node1&#45;&gt;Node16 -->
<g id="edge15_Node000001_Node000016" class="edge">
<title>Node1&#45;&gt;Node16</title>
<g id="a_edge15_Node000001_Node000016"><a xlink:title=" ">
<path fill="none" stroke="#63b8ff" d="M115.76,-192.96C138.64,-174.89 191.37,-135.57 242,-114.5 248.16,-111.94 254.71,-109.69 261.35,-107.73"/>
<polygon fill="#63b8ff" stroke="#63b8ff" points="262.38,-111.08 271.09,-105.06 260.52,-104.33 262.38,-111.08"/>
</a>
</g>
</g>
<!-- Node17 -->
<g id="Node000017" class="node">
<title>Node17</title>
<g id="a_Node000017"><a xlink:href="classcam_1_1nc_1_1shopbot__mtc_1_1Creator.html#a1512dbb5d0140eb216ed709a542261ac" target="_top" xlink:title="Codes.">
<polygon fill="white" stroke="#666666" points="407,-67.5 248,-67.5 248,-37.5 407,-37.5 407,-67.5"/>
<text text-anchor="start" x="256" y="-55.5" font-family="Helvetica,sans-Serif" font-size="10.00">cam.nc.shopbot_mtc.Creator.</text>
<text text-anchor="middle" x="327.5" y="-44.5" font-family="Helvetica,sans-Serif" font-size="10.00">SPACE</text>
</a>
</g>
</g>
<!-- Node1&#45;&gt;Node17 -->
<g id="edge16_Node000001_Node000017" class="edge">
<title>Node1&#45;&gt;Node17</title>
<g id="a_edge16_Node000001_Node000017"><a xlink:title=" ">
<path fill="none" stroke="#63b8ff" d="M111.9,-192.66C131.4,-169 184.47,-108.56 242,-76.5 245.26,-74.69 248.66,-73 252.15,-71.43"/>
<polygon fill="#63b8ff" stroke="#63b8ff" points="253.66,-74.6 261.58,-67.56 251,-68.13 253.66,-74.6"/>
</a>
</g>
</g>
<!-- Node18 -->
<g id="Node000018" class="node">
<title>Node18</title>
<g id="a_Node000018"><a xlink:href="classcam_1_1nc_1_1tnc151_1_1Creator.html#af5d9e50b2ff0e73cd7524e2145d55d76" target="_top" xlink:title=" ">
<polygon fill="white" stroke="#666666" points="407.5,-19 247.5,-19 247.5,0 407.5,0 407.5,-19"/>
<text text-anchor="middle" x="327.5" y="-7" font-family="Helvetica,sans-Serif" font-size="10.00">cam.nc.tnc151.Creator.SPACE</text>
</a>
</g>
</g>
<!-- Node1&#45;&gt;Node18 -->
<g id="edge17_Node000001_Node000018" class="edge">
<title>Node1&#45;&gt;Node18</title>
<g id="a_edge17_Node000001_Node000018"><a xlink:title=" ">
<path fill="none" stroke="#63b8ff" d="M108.69,-192.7C123.57,-162.77 172.78,-71.97 242,-28.5 245.34,-26.4 248.89,-24.53 252.56,-22.87"/>
<polygon fill="#63b8ff" stroke="#63b8ff" points="253.91,-26.1 261.9,-19.15 251.32,-19.6 253.91,-26.1"/>
</a>
</g>
</g>
<!-- Node8 -->
<g id="Node000008" class="node">
<title>Node8</title>
<g id="a_Node000008"><a xlink:href="classcam_1_1nc_1_1anilam__crusader__m_1_1Creator.html#a36f873a0248bcaa4cf2cfb220dc1b00c" target="_top" xlink:title="Codes.">
<polygon fill="white" stroke="#666666" points="609,-313.5 473,-313.5 473,-283.5 609,-283.5 609,-313.5"/>
<text text-anchor="start" x="481" y="-301.5" font-family="Helvetica,sans-Serif" font-size="10.00">cam.nc.anilam_crusader</text>
<text text-anchor="middle" x="541" y="-290.5" font-family="Helvetica,sans-Serif" font-size="10.00">_m.Creator.SPACE_STR</text>
</a>
</g>
</g>
<!-- Node7&#45;&gt;Node8 -->
<g id="edge7_Node000007_Node000008" class="edge">
<title>Node7&#45;&gt;Node8</title>
<g id="a_edge7_Node000007_Node000008"><a xlink:title=" ">
<path fill="none" stroke="#63b8ff" d="M396.96,-191.1C402.71,-193.59 408.17,-196.67 413,-200.5 441.68,-223.2 420.74,-251.28 449,-274.5 453.34,-278.07 458.15,-281.11 463.24,-283.7"/>
<polygon fill="#63b8ff" stroke="#63b8ff" points="462.08,-287.02 472.64,-287.9 464.93,-280.62 462.08,-287.02"/>
</a>
</g>
</g>
<!-- Node9 -->
<g id="Node000009" class="node">
<title>Node9</title>
<g id="a_Node000009"><a xlink:href="classcam_1_1nc_1_1fadal_1_1Creator.html#a97a50724edf2662eb4fe76b15516b638" target="_top" xlink:title="Codes.">
<polygon fill="white" stroke="#666666" points="629,-265 453,-265 453,-246 629,-246 629,-265"/>
<text text-anchor="middle" x="541" y="-253" font-family="Helvetica,sans-Serif" font-size="10.00">cam.nc.fadal.Creator.SPACE_STR</text>
</a>
</g>
</g>
<!-- Node7&#45;&gt;Node9 -->
<g id="edge8_Node000007_Node000009" class="edge">
<title>Node7&#45;&gt;Node9</title>
<g id="a_edge8_Node000007_Node000009"><a xlink:title=" ">
<path fill="none" stroke="#63b8ff" d="M390.51,-191.05C398.35,-193.51 406.05,-196.61 413,-200.5 433.02,-211.7 428.83,-226.56 449,-237.5 452.31,-239.3 455.77,-240.91 459.33,-242.37"/>
<polygon fill="#63b8ff" stroke="#63b8ff" points="458.36,-245.74 468.95,-245.87 460.75,-239.16 458.36,-245.74"/>
</a>
</g>
</g>
<!-- Node10 -->
<g id="Node000010" class="node">
<title>Node10</title>
<g id="a_Node000010"><a xlink:href="classcam_1_1nc_1_1gravos_1_1Creator.html#ac0bc0d26e8a92a65c0f33d696ad850f5" target="_top" xlink:title="Codes.">
<polygon fill="white" stroke="#666666" points="633,-228 449,-228 449,-209 633,-209 633,-228"/>
<text text-anchor="middle" x="541" y="-216" font-family="Helvetica,sans-Serif" font-size="10.00">cam.nc.gravos.Creator.SPACE_STR</text>
</a>
</g>
</g>
<!-- Node7&#45;&gt;Node10 -->
<g id="edge9_Node000007_Node000010" class="edge">
<title>Node7&#45;&gt;Node10</title>
<g id="a_edge9_Node000007_Node000010"><a xlink:title=" ">
<path fill="none" stroke="#63b8ff" d="M382.97,-191.03C411.1,-195.95 445.63,-201.99 475.14,-207.15"/>
<polygon fill="#63b8ff" stroke="#63b8ff" points="474.9,-210.66 485.35,-208.94 476.1,-203.77 474.9,-210.66"/>
</a>
</g>
</g>
<!-- Node11 -->
<g id="Node000011" class="node">
<title>Node11</title>
<g id="a_Node000011"><a xlink:href="classcam_1_1nc_1_1iso_1_1Creator.html#aa481cf1e394988751640fd5ce5af991e" target="_top" xlink:title="Codes.">
<polygon fill="white" stroke="#666666" points="623.5,-191 458.5,-191 458.5,-172 623.5,-172 623.5,-191"/>
<text text-anchor="middle" x="541" y="-179" font-family="Helvetica,sans-Serif" font-size="10.00">cam.nc.iso.Creator.SPACE_STR</text>
</a>
</g>
</g>
<!-- Node7&#45;&gt;Node11 -->
<g id="edge10_Node000007_Node000011" class="edge">
<title>Node7&#45;&gt;Node11</title>
<g id="a_edge10_Node000007_Node000011"><a xlink:title=" ">
<path fill="none" stroke="#63b8ff" d="M398.05,-181.5C414,-181.5 431.2,-181.5 447.94,-181.5"/>
<polygon fill="#63b8ff" stroke="#63b8ff" points="448.29,-185 458.29,-181.5 448.29,-178 448.29,-185"/>
</a>
</g>
</g>
<!-- Node12 -->
<g id="Node000012" class="node">
<title>Node12</title>
<g id="a_Node000012"><a xlink:href="classcam_1_1nc_1_1lynx__otter__o_1_1Creator.html#a73b176561e066abcdb256a1bf53a5fcc" target="_top" xlink:title="Codes.">
<polygon fill="white" stroke="#666666" points="619.5,-153.5 462.5,-153.5 462.5,-123.5 619.5,-123.5 619.5,-153.5"/>
<text text-anchor="start" x="470.5" y="-141.5" font-family="Helvetica,sans-Serif" font-size="10.00">cam.nc.lynx_otter_o.Creator.</text>
<text text-anchor="middle" x="541" y="-130.5" font-family="Helvetica,sans-Serif" font-size="10.00">SPACE_STR</text>
</a>
</g>
</g>
<!-- Node7&#45;&gt;Node12 -->
<g id="edge11_Node000007_Node000012" class="edge">
<title>Node7&#45;&gt;Node12</title>
<g id="a_edge11_Node000007_Node000012"><a xlink:title=" ">
<path fill="none" stroke="#63b8ff" d="M375.44,-171.96C399.18,-167.13 428.71,-161.13 456.18,-155.54"/>
<polygon fill="#63b8ff" stroke="#63b8ff" points="457.09,-158.93 466.19,-153.51 455.69,-152.07 457.09,-158.93"/>
</a>
</g>
</g>
<!-- Node13 -->
<g id="Node000013" class="node">
<title>Node13</title>
<g id="a_Node000013"><a xlink:href="classcam_1_1nc_1_1mach3_1_1Creator.html#aa461d578afa76c5af9bb5562b79d955a" target="_top" xlink:title="Codes.">
<polygon fill="white" stroke="#666666" points="633,-105 449,-105 449,-86 633,-86 633,-105"/>
<text text-anchor="middle" x="541" y="-93" font-family="Helvetica,sans-Serif" font-size="10.00">cam.nc.mach3.Creator.SPACE_STR</text>
</a>
</g>
</g>
<!-- Node7&#45;&gt;Node13 -->
<g id="edge12_Node000007_Node000013" class="edge">
<title>Node7&#45;&gt;Node13</title>
<g id="a_edge12_Node000007_Node000013"><a xlink:title=" ">
<path fill="none" stroke="#63b8ff" d="M393.64,-171.86C400.46,-169.41 407.07,-166.34 413,-162.5 435.39,-148.01 426.5,-128.81 449,-114.5 452.35,-112.37 455.9,-110.47 459.57,-108.78"/>
<polygon fill="#63b8ff" stroke="#63b8ff" points="460.97,-111.99 468.94,-105 458.35,-105.5 460.97,-111.99"/>
</a>
</g>
</g>
<!-- Node14 -->
<g id="Node000014" class="node">
<title>Node14</title>
<g id="a_Node000014"><a xlink:href="classcam_1_1nc_1_1winpc_1_1Creator.html#aae1cb93a5dd430719105fa03a054f654" target="_top" xlink:title="Codes.">
<polygon fill="white" stroke="#666666" points="630.5,-68 451.5,-68 451.5,-49 630.5,-49 630.5,-68"/>
<text text-anchor="middle" x="541" y="-56" font-family="Helvetica,sans-Serif" font-size="10.00">cam.nc.winpc.Creator.SPACE_STR</text>
</a>
</g>
</g>
<!-- Node7&#45;&gt;Node14 -->
<g id="edge13_Node000007_Node000014" class="edge">
<title>Node7&#45;&gt;Node14</title>
<g id="a_edge13_Node000007_Node000014"><a xlink:title=" ">
<path fill="none" stroke="#63b8ff" d="M397.61,-172C403.16,-169.49 408.39,-166.36 413,-162.5 444.75,-135.88 416.91,-102.71 449,-76.5 450.54,-75.24 452.15,-74.06 453.81,-72.95"/>
<polygon fill="#63b8ff" stroke="#63b8ff" points="455.54,-76 462.52,-68.03 452.09,-69.91 455.54,-76"/>
</a>
</g>
</g>
</g>
</svg>

<g id="navigator" transform="translate(0 0)" fill="#404254">
  <rect fill="#f2f5e9" fill-opacity="0.5" stroke="#606060" stroke-width=".5" x="0" y="0" width="60" height="60"/>
  <use id="zoomplus" xlink:href="#zoomPlus" x="17" y="9" onmousedown="handleZoom(evt,'in')"/>
  <use id="zoomminus" xlink:href="#zoomMin" x="42" y="9" onmousedown="handleZoom(evt,'out')"/>
  <use id="reset" xlink:href="#resetDef" x="30" y="36" onmousedown="handleReset()"/>
   <use id="arrowup" xlink:href="#arrowUp" x="0" y="0" onmousedown="handlePan(0,-1)"/>
  <use id="arrowright" xlink:href="#arrowRight" x="0" y="0" onmousedown="handlePan(1,0)"/>
  <use id="arrowdown" xlink:href="#arrowDown" x="0" y="0" onmousedown="handlePan(0,1)"/>
  <use id="arrowleft" xlink:href="#arrowLeft" x="0" y="0" onmousedown="handlePan(-1,0)"/>
</g>
<svg viewBox="0 0 15 15" width="100%" height="30px" preserveAspectRatio="xMaxYMin meet">
 <g id="arrow_out" transform="scale(0.3 0.3)">
  <a xlink:href="classcam_1_1nc_1_1heiden_1_1Creator_a7ce086457556ac7468399bc166ccdb3e_cgraph_org.svg" target="_base">
   <rect id="button" ry="5" rx="5" y="6" x="6" height="38" width="38"
        fill="#f2f5e9" fill-opacity="0.5" stroke="#606060" stroke-width="1.0"/>
   <path id="arrow"
     d="M 11.500037,31.436501 C 11.940474,20.09759 22.043105,11.32322 32.158766,21.979434 L 37.068811,17.246167 C 37.068811,17.246167 37.088388,32 37.088388,32 L 22.160133,31.978069 C 22.160133,31.978069 26.997745,27.140456 26.997745,27.140456 C 18.528582,18.264221 13.291696,25.230495 11.500037,31.436501 z"
     style="fill:#404040;"/>
  </a>
 </g>
</svg>

<style type='text/css'>
<![CDATA[
[data-mouse-over-selected='false'] { opacity: 0.7; }
[data-mouse-over-selected='true']  { opacity: 1.0; }
]]>
</style>
<script type="application/ecmascript"><![CDATA[
document.addEventListener('DOMContentLoaded', (event) => {
  highlightEdges();
  highlightAdjacentNodes();
});
]]></script>
</svg>
