<?xml version="1.0" encoding="UTF-8" standalone="no"?>
<!DOCTYPE svg PUBLIC "-//W3C//DTD SVG 1.1//EN"
 "http://www.w3.org/Graphics/SVG/1.1/DTD/svg11.dtd">
<!-- Generated by graphviz version 2.43.0 (0)
 -->
<!-- Title: cam.nc.iso.Creator.PROGRAM Pages: 1 -->
<svg width="367pt" height="134pt"
 viewBox="0.00 0.00 367.00 134.00" xmlns="http://www.w3.org/2000/svg" xmlns:xlink="http://www.w3.org/1999/xlink">
<g id="graph0" class="graph" transform="scale(1 1) rotate(0) translate(4 130)">
<title>cam.nc.iso.Creator.PROGRAM</title>
<!-- Node1 -->
<g id="Node000001" class="node">
<title>Node1</title>
<g id="a_Node000001"><a xlink:title=" ">
<polygon fill="#999999" stroke="#666666" points="359,-72.5 198,-72.5 198,-53.5 359,-53.5 359,-72.5"/>
<text text-anchor="middle" x="278.5" y="-60.5" font-family="Helvetica,sans-Serif" font-size="10.00">cam.nc.iso.Creator.PROGRAM</text>
</a>
</g>
</g>
<!-- Node2 -->
<g id="Node000002" class="node">
<title>Node2</title>
<g id="a_Node000002"><a xlink:href="classcam_1_1nc_1_1fadal_1_1Creator.html#a6ee2a1bc664bff3ebe1a33a3f71d9f35" target="_top" xlink:title="Programs.">
<polygon fill="white" stroke="#666666" points="162,-126 0,-126 0,-96 162,-96 162,-126"/>
<text text-anchor="start" x="8" y="-114" font-family="Helvetica,sans-Serif" font-size="10.00">cam.nc.fadal.Creator.program</text>
<text text-anchor="middle" x="81" y="-103" font-family="Helvetica,sans-Serif" font-size="10.00">_begin</text>
</a>
</g>
</g>
<!-- Node1&#45;&gt;Node2 -->
<g id="edge1_Node000001_Node000002" class="edge">
<title>Node1&#45;&gt;Node2</title>
<g id="a_edge1_Node000001_Node000002"><a xlink:title=" ">
<path fill="none" stroke="#63b8ff" d="M228.48,-75.04C202.67,-81.37 170.78,-89.2 143.35,-95.94"/>
<polygon fill="#63b8ff" stroke="#63b8ff" points="229.53,-78.38 238.41,-72.6 227.86,-71.58 229.53,-78.38"/>
</a>
</g>
</g>
<!-- Node3 -->
<g id="Node000003" class="node">
<title>Node3</title>
<g id="a_Node000003"><a xlink:href="classcam_1_1nc_1_1iso_1_1Creator.html#adcc0019bc3a0dff0023e4d11b13b92c2" target="_top" xlink:title="Programs.">
<polygon fill="white" stroke="#666666" points="157,-78 5,-78 5,-48 157,-48 157,-78"/>
<text text-anchor="start" x="13" y="-66" font-family="Helvetica,sans-Serif" font-size="10.00">cam.nc.iso.Creator.program</text>
<text text-anchor="middle" x="81" y="-55" font-family="Helvetica,sans-Serif" font-size="10.00">_begin</text>
</a>
</g>
</g>
<!-- Node1&#45;&gt;Node3 -->
<g id="edge2_Node000001_Node000003" class="edge">
<title>Node1&#45;&gt;Node3</title>
<g id="a_edge2_Node000001_Node000003"><a xlink:title=" ">
<path fill="none" stroke="#63b8ff" d="M187.76,-63C177.48,-63 167.08,-63 157.03,-63"/>
<polygon fill="#63b8ff" stroke="#63b8ff" points="187.98,-66.5 197.98,-63 187.98,-59.5 187.98,-66.5"/>
</a>
</g>
</g>
<!-- Node4 -->
<g id="Node000004" class="node">
<title>Node4</title>
<g id="a_Node000004"><a xlink:href="classcam_1_1nc_1_1heiden_1_1Creator.html#af9361d3cd4fee6fe44aa8f086a56157c" target="_top" xlink:title="Subprograms.">
<polygon fill="white" stroke="#666666" points="154,-30 8,-30 8,0 154,0 154,-30"/>
<text text-anchor="start" x="16" y="-18" font-family="Helvetica,sans-Serif" font-size="10.00">cam.nc.heiden.Creator.sub</text>
<text text-anchor="middle" x="81" y="-7" font-family="Helvetica,sans-Serif" font-size="10.00">_begin</text>
</a>
</g>
</g>
<!-- Node1&#45;&gt;Node4 -->
<g id="edge3_Node000001_Node000004" class="edge">
<title>Node1&#45;&gt;Node4</title>
<g id="a_edge3_Node000001_Node000004"><a xlink:title=" ">
<path fill="none" stroke="#63b8ff" d="M228.48,-50.96C202.67,-44.63 170.78,-36.8 143.35,-30.06"/>
<polygon fill="#63b8ff" stroke="#63b8ff" points="227.86,-54.42 238.41,-53.4 229.53,-47.62 227.86,-54.42"/>
</a>
</g>
</g>
</g>
</svg>
