<?xml version="1.0" encoding="UTF-8" standalone="no"?>
<!DOCTYPE svg PUBLIC "-//W3C//DTD SVG 1.1//EN"
 "http://www.w3.org/Graphics/SVG/1.1/DTD/svg11.dtd">
<!-- Generated by graphviz version 2.43.0 (0)
 -->
<!-- Title: cam.preferences.CamAddonPreferences Pages: 1 -->
<!--zoomable 197 -->

<svg id="main" version="1.1" xmlns="http://www.w3.org/2000/svg" xmlns:xlink="http://www.w3.org/1999/xlink" xml:space="preserve" onload="init(evt)">
<style type="text/css"><![CDATA[
.node, .edge {opacity: 0.7;}
.node.selected, .edge.selected {opacity: 1;}
.edge:hover path { stroke: red; }
.edge:hover polygon { stroke: red; fill: red; }
]]></style>

<defs>
  <circle id="rim" cx="0" cy="0" r="7"/>
  <circle id="rim2" cx="0" cy="0" r="3.5"/>
  <g id="zoomPlus">
    <use xlink:href="#rim" fill="#404040"><set attributeName="fill" to="#808080" begin="zoomplus.mouseover" end="zoomplus.mouseout"/></use>
    <path d="M-4,0h8M0,-4v8" fill="none" stroke="white" stroke-width="1.5" pointer-events="none"/>
  </g>
  <g id="zoomMin">
    <use xlink:href="#rim" fill="#404040"><set attributeName="fill" to="#808080" begin="zoomminus.mouseover" end="zoomminus.mouseout"/></use>
    <path d="M-4,0h8" fill="none" stroke="white" stroke-width="1.5" pointer-events="none"/>
  </g>
  <g id="arrowUp" transform="translate(30 24)">
    <use xlink:href="#rim"/>
    <path pointer-events="none" fill="none" stroke="white" stroke-width="1.5" d="M0,-3.0v7 M-2.5,-0.5L0,-3.0L2.5,-0.5"/>
  </g>
  <g id="arrowRight" transform="rotate(90) translate(36 -43)">
    <use xlink:href="#rim"/>
    <path pointer-events="none" fill="none" stroke="white" stroke-width="1.5" d="M0,-3.0v7 M-2.5,-0.5L0,-3.0L2.5,-0.5"/>
  </g>
  <g id="arrowDown" transform="rotate(180) translate(-30 -48)">
    <use xlink:href="#rim"/>
    <path pointer-events="none" fill="none" stroke="white" stroke-width="1.5" d="M0,-3.0v7 M-2.5,-0.5L0,-3.0L2.5,-0.5"/>
  </g>
  <g id="arrowLeft" transform="rotate(270) translate(-36 17)">
    <use xlink:href="#rim"/>
    <path pointer-events="none" fill="none" stroke="white" stroke-width="1.5" d="M0,-3.0v7 M-2.5,-0.5L0,-3.0L2.5,-0.5"/>
  </g>
  <g id="resetDef">
    <use xlink:href="#rim2" fill="#404040"><set attributeName="fill" to="#808080" begin="reset.mouseover" end="reset.mouseout"/></use>
  </g>
</defs>
<script type="application/ecmascript">
var viewWidth = 654;
var viewHeight = 197;
var sectionId = 'dynsection-1';
</script>
<script type="application/ecmascript" xlink:href="svg.min.js"/>
<svg id="graph" class="graph">
<g id="viewport">
<title>cam.preferences.CamAddonPreferences</title>
<!-- Node1 -->
<g id="Node000001" class="node">
<title>Node1</title>
<g id="a_Node000001"><a xlink:title=" ">
<polygon fill="#999999" stroke="transparent" points="348,-60 199,-60 199,0 348,0 348,-60"/>
<text text-anchor="start" x="204.5" y="-48" font-family="Helvetica,sans-Serif" font-size="10.00">cam.preferences.CamAddon</text>
<text text-anchor="start" x="245" y="-37" font-family="Helvetica,sans-Serif" font-size="10.00">Preferences</text>
<text text-anchor="start" x="222.5" y="-22" font-family="Helvetica,sans-Serif" font-size="10.00">+</text>
<text text-anchor="start" x="254.5" y="-22" font-family="Helvetica,sans-Serif" font-size="10.00">bl_idname</text>
<text text-anchor="start" x="222.5" y="-7" font-family="Helvetica,sans-Serif" font-size="10.00">+</text>
<text text-anchor="start" x="254.5" y="-7" font-family="Helvetica,sans-Serif" font-size="10.00">draw()</text>
<polygon fill="#666666" stroke="#666666" points="199.5,-32 199.5,-32 348.5,-32 348.5,-32 199.5,-32"/>
<polygon fill="#666666" stroke="#666666" points="199.5,-17 199.5,-17 252.5,-17 252.5,-17 199.5,-17"/>
<polygon fill="#666666" stroke="#666666" points="252.5,-17 252.5,-17 348.5,-17 348.5,-17 252.5,-17"/>
<polygon fill="none" stroke="#666666" points="199,0 199,-60 348,-60 348,0 199,0"/>
</a>
</g>
</g>
<!-- Node2 -->
<g id="Node000002" class="node">
<title>Node2</title>
<g id="a_Node000002"><a xlink:title=" ">
<polygon fill="white" stroke="transparent" points="99,-189 0,-189 0,-140 99,-140 99,-189"/>
<text text-anchor="start" x="5.5" y="-176.5" font-family="Helvetica,sans-Serif" font-size="10.00">AddonPreferences</text>
<text text-anchor="start" x="48" y="-161.5" font-family="Helvetica,sans-Serif" font-size="10.00"> </text>
<text text-anchor="start" x="48" y="-146.5" font-family="Helvetica,sans-Serif" font-size="10.00"> </text>
<polygon fill="#666666" stroke="#666666" points="0.5,-171.5 0.5,-171.5 99.5,-171.5 99.5,-171.5 0.5,-171.5"/>
<polygon fill="#666666" stroke="#666666" points="0.5,-156.5 0.5,-156.5 99.5,-156.5 99.5,-156.5 0.5,-156.5"/>
<polygon fill="none" stroke="#666666" points="0,-140 0,-189 99,-189 99,-140 0,-140"/>
</a>
</g>
</g>
<!-- Node2&#45;&gt;Node1 -->
<g id="edge1_Node000001_Node000002" class="edge">
<title>Node2&#45;&gt;Node1</title>
<g id="a_edge1_Node000001_Node000002"><a xlink:title=" ">
<path fill="none" stroke="#63b8ff" d="M80.57,-133.15C100.04,-115.35 126.33,-93.39 152.5,-78 166.87,-69.55 183.05,-62.05 198.78,-55.67"/>
<polygon fill="none" stroke="#63b8ff" points="78.15,-130.63 73.2,-140 82.91,-135.76 78.15,-130.63"/>
</a>
</g>
</g>
<!-- Node3 -->
<g id="Node000003" class="node">
<title>Node3</title>
<g id="a_Node000003"><a xlink:title=" ">
<polygon fill="white" stroke="transparent" points="191.5,-189 117.5,-189 117.5,-140 191.5,-140 191.5,-189"/>
<text text-anchor="start" x="122.5" y="-176.5" font-family="Helvetica,sans-Serif" font-size="10.00">BoolProperty</text>
<text text-anchor="start" x="152.5" y="-161.5" font-family="Helvetica,sans-Serif" font-size="10.00"> </text>
<text text-anchor="start" x="152.5" y="-146.5" font-family="Helvetica,sans-Serif" font-size="10.00"> </text>
<polygon fill="#666666" stroke="#666666" points="117.5,-171.5 117.5,-171.5 191.5,-171.5 191.5,-171.5 117.5,-171.5"/>
<polygon fill="#666666" stroke="#666666" points="117.5,-156.5 117.5,-156.5 191.5,-156.5 191.5,-156.5 117.5,-156.5"/>
<polygon fill="none" stroke="#666666" points="117.5,-140 117.5,-189 191.5,-189 191.5,-140 117.5,-140"/>
</a>
</g>
</g>
<!-- Node3&#45;&gt;Node1 -->
<g id="edge2_Node000001_Node000003" class="edge">
<title>Node3&#45;&gt;Node1</title>
<g id="a_edge2_Node000001_Node000003"><a xlink:title=" ">
<path fill="none" stroke="#63b8ff" d="M154.3,-139.69C155.34,-121.05 159.53,-95.45 173.5,-78 177.77,-72.66 182.79,-67.9 188.27,-63.66"/>
<polygon fill="none" stroke="#63b8ff" points="188.67,-63.38 191.34,-56.68 198.55,-56.57 195.88,-63.27 188.67,-63.38"/>
</a>
</g>
<text text-anchor="middle" x="221.5" y="-108.5" font-family="Helvetica,sans-Serif" font-size="10.00" fill="grey"> +experimental</text>
<text text-anchor="middle" x="221.5" y="-97.5" font-family="Helvetica,sans-Serif" font-size="10.00" fill="grey">+just_updated</text>
<text text-anchor="middle" x="221.5" y="-86.5" font-family="Helvetica,sans-Serif" font-size="10.00" fill="grey">+op_preset_update</text>
</g>
<!-- Node4 -->
<g id="Node000004" class="node">
<title>Node4</title>
<g id="a_Node000004"><a xlink:title=" ">
<polygon fill="white" stroke="transparent" points="313.5,-189 233.5,-189 233.5,-140 313.5,-140 313.5,-189"/>
<text text-anchor="start" x="238.5" y="-176.5" font-family="Helvetica,sans-Serif" font-size="10.00">StringProperty</text>
<text text-anchor="start" x="271.5" y="-161.5" font-family="Helvetica,sans-Serif" font-size="10.00"> </text>
<text text-anchor="start" x="271.5" y="-146.5" font-family="Helvetica,sans-Serif" font-size="10.00"> </text>
<polygon fill="#666666" stroke="#666666" points="233.5,-171.5 233.5,-171.5 313.5,-171.5 313.5,-171.5 233.5,-171.5"/>
<polygon fill="#666666" stroke="#666666" points="233.5,-156.5 233.5,-156.5 313.5,-156.5 313.5,-156.5 233.5,-156.5"/>
<polygon fill="none" stroke="#666666" points="233.5,-140 233.5,-189 313.5,-189 313.5,-140 233.5,-140"/>
</a>
</g>
</g>
<!-- Node4&#45;&gt;Node1 -->
<g id="edge3_Node000001_Node000004" class="edge">
<title>Node4&#45;&gt;Node1</title>
<g id="a_edge3_Node000001_Node000004"><a xlink:title=" ">
<path fill="none" stroke="#63b8ff" d="M273.5,-139.81C273.5,-121.06 273.5,-94.41 273.5,-72.18"/>
<polygon fill="none" stroke="#63b8ff" points="273.5,-72.03 269.5,-66.03 273.5,-60.03 277.5,-66.03 273.5,-72.03"/>
</a>
</g>
<text text-anchor="middle" x="338.5" y="-114" font-family="Helvetica,sans-Serif" font-size="10.00" fill="grey"> +default_machine_preset</text>
<text text-anchor="middle" x="338.5" y="-103" font-family="Helvetica,sans-Serif" font-size="10.00" fill="grey">+last_commit_hash</text>
<text text-anchor="middle" x="338.5" y="-92" font-family="Helvetica,sans-Serif" font-size="10.00" fill="grey">+new_version_available</text>
<text text-anchor="middle" x="338.5" y="-81" font-family="Helvetica,sans-Serif" font-size="10.00" fill="grey">+update_source</text>
</g>
<!-- Node5 -->
<g id="Node000005" class="node">
<title>Node5</title>
<g id="a_Node000005"><a xlink:title=" ">
<polygon fill="white" stroke="transparent" points="459,-189 394,-189 394,-140 459,-140 459,-189"/>
<text text-anchor="start" x="399.5" y="-176.5" font-family="Helvetica,sans-Serif" font-size="10.00">IntProperty</text>
<text text-anchor="start" x="425" y="-161.5" font-family="Helvetica,sans-Serif" font-size="10.00"> </text>
<text text-anchor="start" x="425" y="-146.5" font-family="Helvetica,sans-Serif" font-size="10.00"> </text>
<polygon fill="#666666" stroke="#666666" points="394.5,-171.5 394.5,-171.5 459.5,-171.5 459.5,-171.5 394.5,-171.5"/>
<polygon fill="#666666" stroke="#666666" points="394.5,-156.5 394.5,-156.5 459.5,-156.5 459.5,-156.5 394.5,-156.5"/>
<polygon fill="none" stroke="#666666" points="394,-140 394,-189 459,-189 459,-140 394,-140"/>
</a>
</g>
</g>
<!-- Node5&#45;&gt;Node1 -->
<g id="edge4_Node000001_Node000005" class="edge">
<title>Node5&#45;&gt;Node1</title>
<g id="a_edge4_Node000001_Node000005"><a xlink:title=" ">
<path fill="none" stroke="#63b8ff" d="M426.22,-139.64C424.75,-120.72 419.78,-94.77 404.5,-78 392.47,-64.8 376.46,-55.3 359.77,-48.47"/>
<polygon fill="none" stroke="#63b8ff" points="359.4,-48.33 352.38,-49.99 348.15,-44.15 355.17,-42.49 359.4,-48.33"/>
</a>
</g>
<text text-anchor="middle" x="475" y="-97.5" font-family="Helvetica,sans-Serif" font-size="10.00" fill="grey"> +last_update_check</text>
</g>
<!-- Node6 -->
<g id="Node000006" class="node">
<title>Node6</title>
<g id="a_Node000006"><a xlink:title=" ">
<polygon fill="white" stroke="transparent" points="592.5,-189 512.5,-189 512.5,-140 592.5,-140 592.5,-189"/>
<text text-anchor="start" x="517.5" y="-176.5" font-family="Helvetica,sans-Serif" font-size="10.00">EnumProperty</text>
<text text-anchor="start" x="550.5" y="-161.5" font-family="Helvetica,sans-Serif" font-size="10.00"> </text>
<text text-anchor="start" x="550.5" y="-146.5" font-family="Helvetica,sans-Serif" font-size="10.00"> </text>
<polygon fill="#666666" stroke="#666666" points="512.5,-171.5 512.5,-171.5 592.5,-171.5 592.5,-171.5 512.5,-171.5"/>
<polygon fill="#666666" stroke="#666666" points="512.5,-156.5 512.5,-156.5 592.5,-156.5 592.5,-156.5 512.5,-156.5"/>
<polygon fill="none" stroke="#666666" points="512.5,-140 512.5,-189 592.5,-189 592.5,-140 512.5,-140"/>
</a>
</g>
</g>
<!-- Node6&#45;&gt;Node1 -->
<g id="edge5_Node000001_Node000006" class="edge">
<title>Node6&#45;&gt;Node1</title>
<g id="a_edge5_Node000001_Node000006"><a xlink:title=" ">
<path fill="none" stroke="#63b8ff" d="M552.96,-139.72C551.99,-120.33 547.32,-93.67 530.5,-78 506.1,-55.27 424.96,-43.15 360.3,-36.94"/>
<polygon fill="none" stroke="#63b8ff" points="359.97,-36.91 353.63,-40.35 348.02,-35.82 354.36,-32.38 359.97,-36.91"/>
</a>
</g>
<text text-anchor="start" x="550.5" y="-103" font-family="Helvetica,sans-Serif" font-size="10.00" fill="grey"> +default_interface</text>
<text text-anchor="middle" x="598" y="-92" font-family="Helvetica,sans-Serif" font-size="10.00" fill="grey">_level</text>
</g>
</g>
</svg>

<g id="navigator" transform="translate(0 0)" fill="#404254">
  <rect fill="#f2f5e9" fill-opacity="0.5" stroke="#606060" stroke-width=".5" x="0" y="0" width="60" height="60"/>
  <use id="zoomplus" xlink:href="#zoomPlus" x="17" y="9" onmousedown="handleZoom(evt,'in')"/>
  <use id="zoomminus" xlink:href="#zoomMin" x="42" y="9" onmousedown="handleZoom(evt,'out')"/>
  <use id="reset" xlink:href="#resetDef" x="30" y="36" onmousedown="handleReset()"/>
   <use id="arrowup" xlink:href="#arrowUp" x="0" y="0" onmousedown="handlePan(0,-1)"/>
  <use id="arrowright" xlink:href="#arrowRight" x="0" y="0" onmousedown="handlePan(1,0)"/>
  <use id="arrowdown" xlink:href="#arrowDown" x="0" y="0" onmousedown="handlePan(0,1)"/>
  <use id="arrowleft" xlink:href="#arrowLeft" x="0" y="0" onmousedown="handlePan(-1,0)"/>
</g>
<svg viewBox="0 0 15 15" width="100%" height="30px" preserveAspectRatio="xMaxYMin meet">
 <g id="arrow_out" transform="scale(0.3 0.3)">
  <a xlink:href="classcam_1_1preferences_1_1CamAddonPreferences__coll__graph_org.svg" target="_base">
   <rect id="button" ry="5" rx="5" y="6" x="6" height="38" width="38"
        fill="#f2f5e9" fill-opacity="0.5" stroke="#606060" stroke-width="1.0"/>
   <path id="arrow"
     d="M 11.500037,31.436501 C 11.940474,20.09759 22.043105,11.32322 32.158766,21.979434 L 37.068811,17.246167 C 37.068811,17.246167 37.088388,32 37.088388,32 L 22.160133,31.978069 C 22.160133,31.978069 26.997745,27.140456 26.997745,27.140456 C 18.528582,18.264221 13.291696,25.230495 11.500037,31.436501 z"
     style="fill:#404040;"/>
  </a>
 </g>
</svg>

<style type='text/css'>
<![CDATA[
[data-mouse-over-selected='false'] { opacity: 0.7; }
[data-mouse-over-selected='true']  { opacity: 1.0; }
]]>
</style>
<script type="application/ecmascript"><![CDATA[
document.addEventListener('DOMContentLoaded', (event) => {
  highlightEdges();
  highlightAdjacentNodes();
});
]]></script>
</svg>
