<?xml version="1.0" encoding="UTF-8" standalone="no"?>
<!DOCTYPE svg PUBLIC "-//W3C//DTD SVG 1.1//EN"
 "http://www.w3.org/Graphics/SVG/1.1/DTD/svg11.dtd">
<!-- Generated by graphviz version 2.43.0 (0)
 -->
<!-- Title: cam.ui_panels.interface.CAM_INTERFACE_Panel Pages: 1 -->
<svg width="552pt" height="403pt"
 viewBox="0.00 0.00 552.00 403.00" xmlns="http://www.w3.org/2000/svg" xmlns:xlink="http://www.w3.org/1999/xlink">
<g id="graph0" class="graph" transform="scale(1 1) rotate(0) translate(4 399)">
<title>cam.ui_panels.interface.CAM_INTERFACE_Panel</title>
<!-- Node1 -->
<g id="Node000001" class="node">
<title>Node1</title>
<g id="a_Node000001"><a xlink:title=" ">
<polygon fill="#999999" stroke="transparent" points="387,-75 256,-75 256,0 387,0 387,-75"/>
<text text-anchor="start" x="261.5" y="-62.5" font-family="Helvetica,sans-Serif" font-size="10.00">cam.ui_panels.interface.</text>
<text text-anchor="start" x="265.5" y="-51.5" font-family="Helvetica,sans-Serif" font-size="10.00">CAM_INTERFACE_Panel</text>
<text text-anchor="start" x="260.5" y="-36.5" font-family="Helvetica,sans-Serif" font-size="10.00">+</text>
<text text-anchor="start" x="273.5" y="-36.5" font-family="Helvetica,sans-Serif" font-size="10.00">context</text>
<text text-anchor="start" x="260.5" y="-21.5" font-family="Helvetica,sans-Serif" font-size="10.00">+</text>
<text text-anchor="start" x="273.5" y="-21.5" font-family="Helvetica,sans-Serif" font-size="10.00">draw_interface_level()</text>
<text text-anchor="start" x="260.5" y="-6.5" font-family="Helvetica,sans-Serif" font-size="10.00">+</text>
<text text-anchor="start" x="273.5" y="-6.5" font-family="Helvetica,sans-Serif" font-size="10.00">draw()</text>
<polygon fill="#666666" stroke="#666666" points="256.5,-46.5 256.5,-46.5 387.5,-46.5 387.5,-46.5 256.5,-46.5"/>
<polygon fill="#666666" stroke="#666666" points="256.5,-31.5 256.5,-31.5 271.5,-31.5 271.5,-31.5 256.5,-31.5"/>
<polygon fill="#666666" stroke="#666666" points="271.5,-31.5 271.5,-31.5 387.5,-31.5 387.5,-31.5 271.5,-31.5"/>
<polygon fill="none" stroke="#666666" points="256,0 256,-75 387,-75 387,0 256,0"/>
</a>
</g>
</g>
<!-- Node2 -->
<g id="Node000002" class="node">
<title>Node2</title>
<g id="a_Node000002"><a xlink:href="classcam_1_1ui__panels_1_1buttons__panel_1_1CAMButtonsPanel.html" target="_top" xlink:title=" ">
<polygon fill="white" stroke="transparent" points="273,-277 130,-277 130,-112 273,-112 273,-277"/>
<text text-anchor="start" x="141" y="-264.5" font-family="Helvetica,sans-Serif" font-size="10.00">cam.ui_panels.buttons</text>
<text text-anchor="start" x="141" y="-253.5" font-family="Helvetica,sans-Serif" font-size="10.00">_panel.CAMButtonsPanel</text>
<text text-anchor="start" x="134.5" y="-238.5" font-family="Helvetica,sans-Serif" font-size="10.00">+</text>
<text text-anchor="start" x="147.5" y="-238.5" font-family="Helvetica,sans-Serif" font-size="10.00">op</text>
<text text-anchor="start" x="134.5" y="-223.5" font-family="Helvetica,sans-Serif" font-size="10.00">+</text>
<text text-anchor="start" x="147.5" y="-223.5" font-family="Helvetica,sans-Serif" font-size="10.00">use_experimental</text>
<text text-anchor="start" x="134.5" y="-208.5" font-family="Helvetica,sans-Serif" font-size="10.00">+</text>
<text text-anchor="start" x="147.5" y="-208.5" font-family="Helvetica,sans-Serif" font-size="10.00">poll()</text>
<text text-anchor="start" x="134.5" y="-193.5" font-family="Helvetica,sans-Serif" font-size="10.00">+</text>
<text text-anchor="start" x="147.5" y="-193.5" font-family="Helvetica,sans-Serif" font-size="10.00">active_operation_index()</text>
<text text-anchor="start" x="134.5" y="-178.5" font-family="Helvetica,sans-Serif" font-size="10.00">+</text>
<text text-anchor="start" x="147.5" y="-178.5" font-family="Helvetica,sans-Serif" font-size="10.00">active_operation()</text>
<text text-anchor="start" x="134.5" y="-163.5" font-family="Helvetica,sans-Serif" font-size="10.00">+</text>
<text text-anchor="start" x="147.5" y="-163.5" font-family="Helvetica,sans-Serif" font-size="10.00">__init__()</text>
<text text-anchor="start" x="134.5" y="-148.5" font-family="Helvetica,sans-Serif" font-size="10.00">+</text>
<text text-anchor="start" x="147.5" y="-148.5" font-family="Helvetica,sans-Serif" font-size="10.00">operations_count()</text>
<text text-anchor="start" x="134.5" y="-133.5" font-family="Helvetica,sans-Serif" font-size="10.00">+</text>
<text text-anchor="start" x="147.5" y="-133.5" font-family="Helvetica,sans-Serif" font-size="10.00">has_operations()</text>
<text text-anchor="start" x="134.5" y="-118.5" font-family="Helvetica,sans-Serif" font-size="10.00">+</text>
<text text-anchor="start" x="147.5" y="-118.5" font-family="Helvetica,sans-Serif" font-size="10.00">has_correct_level()</text>
<polygon fill="#666666" stroke="#666666" points="130.5,-248.5 130.5,-248.5 273.5,-248.5 273.5,-248.5 130.5,-248.5"/>
<polygon fill="#666666" stroke="#666666" points="130.5,-218.5 130.5,-218.5 145.5,-218.5 145.5,-218.5 130.5,-218.5"/>
<polygon fill="#666666" stroke="#666666" points="145.5,-218.5 145.5,-218.5 273.5,-218.5 273.5,-218.5 145.5,-218.5"/>
<polygon fill="none" stroke="#666666" points="130,-112 130,-277 273,-277 273,-112 130,-112"/>
</a>
</g>
</g>
<!-- Node2&#45;&gt;Node1 -->
<g id="edge1_Node000001_Node000002" class="edge">
<title>Node2&#45;&gt;Node1</title>
<g id="a_edge1_Node000001_Node000002"><a xlink:title=" ">
<path fill="none" stroke="#63b8ff" d="M270.93,-103.83C278.69,-93.8 286.24,-84.05 293.03,-75.27"/>
<polygon fill="none" stroke="#63b8ff" points="268.02,-101.86 264.66,-111.91 273.55,-106.15 268.02,-101.86"/>
</a>
</g>
</g>
<!-- Node3 -->
<g id="Node000003" class="node">
<title>Node3</title>
<g id="a_Node000003"><a xlink:title=" ">
<polygon fill="white" stroke="transparent" points="23,-395 0,-395 0,-346 23,-346 23,-395"/>
<text text-anchor="start" x="5.5" y="-382.5" font-family="Helvetica,sans-Serif" font-size="10.00">str</text>
<text text-anchor="start" x="10" y="-367.5" font-family="Helvetica,sans-Serif" font-size="10.00"> </text>
<text text-anchor="start" x="10" y="-352.5" font-family="Helvetica,sans-Serif" font-size="10.00"> </text>
<polygon fill="#666666" stroke="#666666" points="0.5,-377.5 0.5,-377.5 23.5,-377.5 23.5,-377.5 0.5,-377.5"/>
<polygon fill="#666666" stroke="#666666" points="0.5,-362.5 0.5,-362.5 23.5,-362.5 23.5,-362.5 0.5,-362.5"/>
<polygon fill="none" stroke="#666666" points="0,-346 0,-395 23,-395 23,-346 0,-346"/>
</a>
</g>
</g>
<!-- Node3&#45;&gt;Node1 -->
<g id="edge6_Node000001_Node000003" class="edge">
<title>Node3&#45;&gt;Node1</title>
<g id="a_edge6_Node000001_Node000003"><a xlink:title=" ">
<path fill="none" stroke="#63b8ff" d="M8.11,-346C2.31,-295.94 -3.58,-177.99 57.5,-112 82.73,-84.74 175.38,-63.4 243.83,-50.89"/>
<polygon fill="none" stroke="#63b8ff" points="244.06,-50.84 249.26,-45.85 255.87,-48.73 250.67,-53.72 244.06,-50.84"/>
</a>
</g>
<text text-anchor="middle" x="89" y="-197.5" font-family="Helvetica,sans-Serif" font-size="10.00" fill="grey"> +bl_idname</text>
<text text-anchor="middle" x="89" y="-186.5" font-family="Helvetica,sans-Serif" font-size="10.00" fill="grey">+bl_label</text>
</g>
<!-- Node3&#45;&gt;Node2 -->
<g id="edge2_Node000002_Node000003" class="edge">
<title>Node3&#45;&gt;Node2</title>
<g id="a_edge2_Node000002_Node000003"><a xlink:title=" ">
<path fill="none" stroke="#63b8ff" d="M17.69,-345.68C22.69,-329.97 30.97,-309.66 43.5,-295 55.33,-281.16 87.21,-260.3 119.25,-241.26"/>
<polygon fill="none" stroke="#63b8ff" points="119.3,-241.23 122.44,-234.74 129.64,-235.15 126.5,-241.64 119.3,-241.23"/>
</a>
</g>
<text text-anchor="middle" x="84" y="-320" font-family="Helvetica,sans-Serif" font-size="10.00" fill="grey"> +bl_context</text>
<text text-anchor="middle" x="84" y="-309" font-family="Helvetica,sans-Serif" font-size="10.00" fill="grey">+bl_region_type</text>
<text text-anchor="middle" x="84" y="-298" font-family="Helvetica,sans-Serif" font-size="10.00" fill="grey">+bl_space_type</text>
</g>
<!-- Node4 -->
<g id="Node000004" class="node">
<title>Node4</title>
<g id="a_Node000004"><a xlink:title=" ">
<polygon fill="white" stroke="transparent" points="333.5,-395 301.5,-395 301.5,-346 333.5,-346 333.5,-395"/>
<text text-anchor="start" x="306.5" y="-382.5" font-family="Helvetica,sans-Serif" font-size="10.00">bool</text>
<text text-anchor="start" x="315.5" y="-367.5" font-family="Helvetica,sans-Serif" font-size="10.00"> </text>
<text text-anchor="start" x="315.5" y="-352.5" font-family="Helvetica,sans-Serif" font-size="10.00"> </text>
<polygon fill="#666666" stroke="#666666" points="301.5,-377.5 301.5,-377.5 333.5,-377.5 333.5,-377.5 301.5,-377.5"/>
<polygon fill="#666666" stroke="#666666" points="301.5,-362.5 301.5,-362.5 333.5,-362.5 333.5,-362.5 301.5,-362.5"/>
<polygon fill="none" stroke="#666666" points="301.5,-346 301.5,-395 333.5,-395 333.5,-346 301.5,-346"/>
</a>
</g>
</g>
<!-- Node4&#45;&gt;Node1 -->
<g id="edge7_Node000001_Node000004" class="edge">
<title>Node4&#45;&gt;Node1</title>
<g id="a_edge7_Node000001_Node000004"><a xlink:title=" ">
<path fill="none" stroke="#63b8ff" d="M333.71,-360.6C344.94,-353.44 358.99,-342.23 365.5,-328 401.78,-248.68 369.67,-145.66 344.54,-86.32"/>
<polygon fill="none" stroke="#63b8ff" points="344.43,-86.06 338.36,-82.16 339.63,-75.06 345.7,-78.96 344.43,-86.06"/>
</a>
</g>
<text text-anchor="middle" x="437" y="-192" font-family="Helvetica,sans-Serif" font-size="10.00" fill="grey"> +always_show_panel</text>
</g>
<!-- Node4&#45;&gt;Node2 -->
<g id="edge3_Node000002_Node000004" class="edge">
<title>Node4&#45;&gt;Node2</title>
<g id="a_edge3_Node000002_Node000004"><a xlink:title=" ">
<path fill="none" stroke="#63b8ff" d="M301.3,-361.85C287.74,-354.74 268.71,-343 256.5,-328 246.88,-316.19 238.72,-302.46 231.87,-288.4"/>
<polygon fill="none" stroke="#63b8ff" points="231.68,-287.99 225.53,-284.22 226.65,-277.09 232.8,-280.87 231.68,-287.99"/>
</a>
</g>
<text text-anchor="middle" x="311" y="-309" font-family="Helvetica,sans-Serif" font-size="10.00" fill="grey"> +always_show_panel</text>
</g>
<!-- Node5 -->
<g id="Node000005" class="node">
<title>Node5</title>
<g id="a_Node000005"><a xlink:title=" ">
<polygon fill="white" stroke="transparent" points="146,-395 117,-395 117,-346 146,-346 146,-395"/>
<text text-anchor="start" x="122.5" y="-382.5" font-family="Helvetica,sans-Serif" font-size="10.00">dict</text>
<text text-anchor="start" x="130" y="-367.5" font-family="Helvetica,sans-Serif" font-size="10.00"> </text>
<text text-anchor="start" x="130" y="-352.5" font-family="Helvetica,sans-Serif" font-size="10.00"> </text>
<polygon fill="#666666" stroke="#666666" points="117.5,-377.5 117.5,-377.5 146.5,-377.5 146.5,-377.5 117.5,-377.5"/>
<polygon fill="#666666" stroke="#666666" points="117.5,-362.5 117.5,-362.5 146.5,-362.5 146.5,-362.5 117.5,-362.5"/>
<polygon fill="none" stroke="#666666" points="117,-346 117,-395 146,-395 146,-346 117,-346"/>
</a>
</g>
</g>
<!-- Node5&#45;&gt;Node2 -->
<g id="edge4_Node000002_Node000005" class="edge">
<title>Node5&#45;&gt;Node2</title>
<g id="a_edge4_Node000002_Node000005"><a xlink:title=" ">
<path fill="none" stroke="#63b8ff" d="M128.34,-345.78C127.19,-330.85 127.25,-311.38 132.5,-295 133.22,-292.75 134.01,-290.5 134.87,-288.26"/>
<polygon fill="none" stroke="#63b8ff" points="134.89,-288.21 133.58,-281.12 139.62,-277.18 140.93,-284.27 134.89,-288.21"/>
</a>
</g>
<text text-anchor="middle" x="183" y="-309" font-family="Helvetica,sans-Serif" font-size="10.00" fill="grey"> +COMPAT_ENGINES</text>
</g>
<!-- Node6 -->
<g id="Node000006" class="node">
<title>Node6</title>
<g id="a_Node000006"><a xlink:title=" ">
<polygon fill="white" stroke="transparent" points="544,-219 507,-219 507,-170 544,-170 544,-219"/>
<text text-anchor="start" x="512.5" y="-206.5" font-family="Helvetica,sans-Serif" font-size="10.00">Panel</text>
<text text-anchor="start" x="524" y="-191.5" font-family="Helvetica,sans-Serif" font-size="10.00"> </text>
<text text-anchor="start" x="524" y="-176.5" font-family="Helvetica,sans-Serif" font-size="10.00"> </text>
<polygon fill="#666666" stroke="#666666" points="507.5,-201.5 507.5,-201.5 544.5,-201.5 544.5,-201.5 507.5,-201.5"/>
<polygon fill="#666666" stroke="#666666" points="507.5,-186.5 507.5,-186.5 544.5,-186.5 544.5,-186.5 507.5,-186.5"/>
<polygon fill="none" stroke="#666666" points="507,-170 507,-219 544,-219 544,-170 507,-170"/>
</a>
</g>
</g>
<!-- Node6&#45;&gt;Node1 -->
<g id="edge5_Node000001_Node000006" class="edge">
<title>Node6&#45;&gt;Node1</title>
<g id="a_edge5_Node000001_Node000006"><a xlink:title=" ">
<path fill="none" stroke="#63b8ff" d="M518.31,-160.05C513.38,-143.84 505.32,-125.1 492.5,-112 464.13,-83.02 422.48,-64.79 387.39,-53.74"/>
<polygon fill="none" stroke="#63b8ff" points="514.96,-161.04 521,-169.74 521.7,-159.17 514.96,-161.04"/>
</a>
</g>
</g>
</g>
</svg>
