<?xml version="1.0" encoding="UTF-8" standalone="no"?>
<!DOCTYPE svg PUBLIC "-//W3C//DTD SVG 1.1//EN"
 "http://www.w3.org/Graphics/SVG/1.1/DTD/svg11.dtd">
<!-- Generated by graphviz version 2.43.0 (0)
 -->
<!-- Title: cam.ops.CAMSimulateChain Pages: 1 -->
<svg width="234pt" height="318pt"
 viewBox="0.00 0.00 234.00 318.00" xmlns="http://www.w3.org/2000/svg" xmlns:xlink="http://www.w3.org/1999/xlink">

<svg id="main" version="1.1" xmlns="http://www.w3.org/2000/svg" xmlns:xlink="http://www.w3.org/1999/xlink" xml:space="preserve" onload="init(evt)">
<style type="text/css"><![CDATA[
.node, .edge {opacity: 0.7;}
.node.selected, .edge.selected {opacity: 1;}
.edge:hover path { stroke: red; }
.edge:hover polygon { stroke: red; fill: red; }
]]></style>
<script type="application/ecmascript" xlink:href="svg.min.js"/>
<svg id="graph" class="graph">
<g id="graph0" class="graph" transform="scale(1 1) rotate(0) translate(4 314)">
<title>cam.ops.CAMSimulateChain</title>
<!-- Node1 -->
<g id="Node000001" class="node">
<title>Node1</title>
<g id="a_Node000001"><a xlink:title=" ">
<polygon fill="#999999" stroke="transparent" points="162,-124 13,-124 13,0 162,0 162,-124"/>
<text text-anchor="start" x="18.5" y="-112" font-family="Helvetica,sans-Serif" font-size="10.00">cam.ops.CAMSimulateChain</text>
<text text-anchor="start" x="29.5" y="-97" font-family="Helvetica,sans-Serif" font-size="10.00">+</text>
<text text-anchor="start" x="54.5" y="-97" font-family="Helvetica,sans-Serif" font-size="10.00">bl_idname</text>
<text text-anchor="start" x="29.5" y="-82" font-family="Helvetica,sans-Serif" font-size="10.00">+</text>
<text text-anchor="start" x="54.5" y="-82" font-family="Helvetica,sans-Serif" font-size="10.00">bl_label</text>
<text text-anchor="start" x="29.5" y="-67" font-family="Helvetica,sans-Serif" font-size="10.00">+</text>
<text text-anchor="start" x="54.5" y="-67" font-family="Helvetica,sans-Serif" font-size="10.00">bl_options</text>
<text text-anchor="start" x="29.5" y="-52" font-family="Helvetica,sans-Serif" font-size="10.00">+</text>
<text text-anchor="start" x="54.5" y="-52" font-family="Helvetica,sans-Serif" font-size="10.00">operation</text>
<text text-anchor="start" x="29.5" y="-37" font-family="Helvetica,sans-Serif" font-size="10.00">+</text>
<text text-anchor="start" x="54.5" y="-37" font-family="Helvetica,sans-Serif" font-size="10.00">poll()</text>
<text text-anchor="start" x="29.5" y="-22" font-family="Helvetica,sans-Serif" font-size="10.00">+</text>
<text text-anchor="start" x="54.5" y="-22" font-family="Helvetica,sans-Serif" font-size="10.00">execute_async()</text>
<text text-anchor="start" x="29.5" y="-7" font-family="Helvetica,sans-Serif" font-size="10.00">+</text>
<text text-anchor="start" x="54.5" y="-7" font-family="Helvetica,sans-Serif" font-size="10.00">draw()</text>
<polygon fill="#666666" stroke="#666666" points="13.5,-107 13.5,-107 162.5,-107 162.5,-107 13.5,-107"/>
<polygon fill="#666666" stroke="#666666" points="13.5,-47 13.5,-47 52.5,-47 52.5,-47 13.5,-47"/>
<polygon fill="#666666" stroke="#666666" points="52.5,-47 52.5,-47 162.5,-47 162.5,-47 52.5,-47"/>
<polygon fill="none" stroke="#666666" points="13,0 13,-124 162,-124 162,0 13,0"/>
</a>
</g>
</g>
<!-- Node2 -->
<g id="Node000002" class="node">
<title>Node2</title>
<g id="a_Node000002"><a xlink:title=" ">
<polygon fill="white" stroke="transparent" points="53,-259.5 0,-259.5 0,-210.5 53,-210.5 53,-259.5"/>
<text text-anchor="start" x="5.5" y="-247" font-family="Helvetica,sans-Serif" font-size="10.00">Operator</text>
<text text-anchor="start" x="25" y="-232" font-family="Helvetica,sans-Serif" font-size="10.00"> </text>
<text text-anchor="start" x="25" y="-217" font-family="Helvetica,sans-Serif" font-size="10.00"> </text>
<polygon fill="#666666" stroke="#666666" points="0.5,-242 0.5,-242 53.5,-242 53.5,-242 0.5,-242"/>
<polygon fill="#666666" stroke="#666666" points="0.5,-227 0.5,-227 53.5,-227 53.5,-227 0.5,-227"/>
<polygon fill="none" stroke="#666666" points="0,-210.5 0,-259.5 53,-259.5 53,-210.5 0,-210.5"/>
</a>
</g>
</g>
<!-- Node2&#45;&gt;Node1 -->
<g id="edge1_Node000001_Node000002" class="edge">
<title>Node2&#45;&gt;Node1</title>
<g id="a_edge1_Node000001_Node000002"><a xlink:title=" ">
<path fill="none" stroke="#63b8ff" d="M38.35,-200.78C46.11,-179.03 56.48,-149.95 65.7,-124.12"/>
<polygon fill="none" stroke="#63b8ff" points="35.05,-199.63 34.98,-210.22 41.64,-201.98 35.05,-199.63"/>
</a>
</g>
</g>
<!-- Node3 -->
<g id="Node000003" class="node">
<title>Node3</title>
<g id="a_Node000003"><a xlink:href="classcam_1_1async__op_1_1AsyncOperatorMixin.html" target="_top" xlink:title=" ">
<polygon fill="white" stroke="transparent" points="226,-310 71,-310 71,-160 226,-160 226,-310"/>
<text text-anchor="start" x="76.5" y="-298" font-family="Helvetica,sans-Serif" font-size="10.00">cam.async_op.AsyncOperator</text>
<text text-anchor="start" x="135" y="-287" font-family="Helvetica,sans-Serif" font-size="10.00">Mixin</text>
<text text-anchor="start" x="88.5" y="-272" font-family="Helvetica,sans-Serif" font-size="10.00">+</text>
<text text-anchor="start" x="114.5" y="-272" font-family="Helvetica,sans-Serif" font-size="10.00">timer</text>
<text text-anchor="start" x="88.5" y="-257" font-family="Helvetica,sans-Serif" font-size="10.00">+</text>
<text text-anchor="start" x="114.5" y="-257" font-family="Helvetica,sans-Serif" font-size="10.00">coroutine</text>
<text text-anchor="start" x="88.5" y="-242" font-family="Helvetica,sans-Serif" font-size="10.00">#</text>
<text text-anchor="start" x="114.5" y="-242" font-family="Helvetica,sans-Serif" font-size="10.00">_is_cancelled</text>
<text text-anchor="start" x="88.5" y="-227" font-family="Helvetica,sans-Serif" font-size="10.00">+</text>
<text text-anchor="start" x="114.5" y="-227" font-family="Helvetica,sans-Serif" font-size="10.00">__init__()</text>
<text text-anchor="start" x="88.5" y="-212" font-family="Helvetica,sans-Serif" font-size="10.00">+</text>
<text text-anchor="start" x="114.5" y="-212" font-family="Helvetica,sans-Serif" font-size="10.00">modal()</text>
<text text-anchor="start" x="88.5" y="-197" font-family="Helvetica,sans-Serif" font-size="10.00">+</text>
<text text-anchor="start" x="114.5" y="-197" font-family="Helvetica,sans-Serif" font-size="10.00">show_progress()</text>
<text text-anchor="start" x="88.5" y="-182" font-family="Helvetica,sans-Serif" font-size="10.00">+</text>
<text text-anchor="start" x="114.5" y="-182" font-family="Helvetica,sans-Serif" font-size="10.00">tick()</text>
<text text-anchor="start" x="88.5" y="-167" font-family="Helvetica,sans-Serif" font-size="10.00">+</text>
<text text-anchor="start" x="114.5" y="-167" font-family="Helvetica,sans-Serif" font-size="10.00">execute()</text>
<polygon fill="#666666" stroke="#666666" points="71.5,-282 71.5,-282 226.5,-282 226.5,-282 71.5,-282"/>
<polygon fill="#666666" stroke="#666666" points="71.5,-237 71.5,-237 112.5,-237 112.5,-237 71.5,-237"/>
<polygon fill="#666666" stroke="#666666" points="112.5,-237 112.5,-237 226.5,-237 226.5,-237 112.5,-237"/>
<polygon fill="none" stroke="#666666" points="71,-160 71,-310 226,-310 226,-160 71,-160"/>
</a>
</g>
</g>
<!-- Node3&#45;&gt;Node1 -->
<g id="edge2_Node000001_Node000003" class="edge">
<title>Node3&#45;&gt;Node1</title>
<g id="a_edge2_Node000001_Node000003"><a xlink:title=" ">
<path fill="none" stroke="#63b8ff" d="M118.67,-150.38C115.5,-141.49 112.32,-132.58 109.27,-124.02"/>
<polygon fill="none" stroke="#63b8ff" points="115.44,-151.75 122.1,-159.99 122.04,-149.4 115.44,-151.75"/>
</a>
</g>
</g>
</g>
</svg>
</svg>

<style type='text/css'>
<![CDATA[
[data-mouse-over-selected='false'] { opacity: 0.7; }
[data-mouse-over-selected='true']  { opacity: 1.0; }
]]>
</style>
<script type="application/ecmascript"><![CDATA[
document.addEventListener('DOMContentLoaded', (event) => {
  highlightEdges();
  highlightAdjacentNodes();
});
]]></script>
</svg>
