<?xml version="1.0" encoding="UTF-8" standalone="no"?>
<!DOCTYPE svg PUBLIC "-//W3C//DTD SVG 1.1//EN"
 "http://www.w3.org/Graphics/SVG/1.1/DTD/svg11.dtd">
<!-- Generated by graphviz version 2.43.0 (0)
 -->
<!-- Title: cam.nc.heiden.Creator.METRIC Pages: 1 -->
<svg width="423pt" height="236pt"
 viewBox="0.00 0.00 423.00 235.50" xmlns="http://www.w3.org/2000/svg" xmlns:xlink="http://www.w3.org/1999/xlink">

<svg id="main" version="1.1" xmlns="http://www.w3.org/2000/svg" xmlns:xlink="http://www.w3.org/1999/xlink" xml:space="preserve" onload="init(evt)">
<style type="text/css"><![CDATA[
.node, .edge {opacity: 0.7;}
.node.selected, .edge.selected {opacity: 1;}
.edge:hover path { stroke: red; }
.edge:hover polygon { stroke: red; fill: red; }
]]></style>
<script type="application/ecmascript" xlink:href="svg.min.js"/>
<svg id="graph" class="graph">
<g id="graph0" class="graph" transform="scale(1 1) rotate(0) translate(4 231.5)">
<title>cam.nc.heiden.Creator.METRIC</title>
<!-- Node1 -->
<g id="Node000001" class="node">
<title>Node1</title>
<g id="a_Node000001"><a xlink:title=" ">
<polygon fill="#999999" stroke="#666666" points="415,-123 248,-123 248,-104 415,-104 415,-123"/>
<text text-anchor="middle" x="331.5" y="-111" font-family="Helvetica,sans-Serif" font-size="10.00">cam.nc.heiden.Creator.METRIC</text>
</a>
</g>
</g>
<!-- Node2 -->
<g id="Node000002" class="node">
<title>Node2</title>
<g id="a_Node000002"><a xlink:href="classcam_1_1nc_1_1anilam__crusader__m_1_1Creator.html#a6977ae2a9c3b4e62d32a2368b0c9c546" target="_top" xlink:title=" ">
<polygon fill="white" stroke="#666666" points="174,-227.5 38,-227.5 38,-197.5 174,-197.5 174,-227.5"/>
<text text-anchor="start" x="46" y="-215.5" font-family="Helvetica,sans-Serif" font-size="10.00">cam.nc.anilam_crusader</text>
<text text-anchor="middle" x="106" y="-204.5" font-family="Helvetica,sans-Serif" font-size="10.00">_m.Creator.metric</text>
</a>
</g>
</g>
<!-- Node1&#45;&gt;Node2 -->
<g id="edge1_Node000001_Node000002" class="edge">
<title>Node1&#45;&gt;Node2</title>
<g id="a_edge1_Node000001_Node000002"><a xlink:title=" ">
<path fill="none" stroke="#63b8ff" d="M310.32,-129.31C287.63,-146.34 249.11,-173.05 212,-188.5 200.09,-193.46 186.97,-197.49 174.16,-200.73"/>
<polygon fill="#63b8ff" stroke="#63b8ff" points="312.65,-131.94 318.48,-123.09 308.4,-126.37 312.65,-131.94"/>
</a>
</g>
</g>
<!-- Node3 -->
<g id="Node000003" class="node">
<title>Node3</title>
<g id="a_Node000003"><a xlink:href="classcam_1_1nc_1_1emc2_1_1Creator.html#aeb992900b43f520ce6ccabd8e502c037" target="_top" xlink:title=" ">
<polygon fill="white" stroke="#666666" points="183.5,-179 28.5,-179 28.5,-160 183.5,-160 183.5,-179"/>
<text text-anchor="middle" x="106" y="-167" font-family="Helvetica,sans-Serif" font-size="10.00">cam.nc.emc2.Creator.metric</text>
</a>
</g>
</g>
<!-- Node1&#45;&gt;Node3 -->
<g id="edge2_Node000001_Node000003" class="edge">
<title>Node1&#45;&gt;Node3</title>
<g id="a_edge2_Node000001_Node000003"><a xlink:title=" ">
<path fill="none" stroke="#63b8ff" d="M294.96,-126.34C271.62,-134.42 240.28,-144.58 212,-151.5 198.89,-154.71 184.71,-157.55 171.15,-159.98"/>
<polygon fill="#63b8ff" stroke="#63b8ff" points="296.16,-129.63 304.45,-123.02 293.85,-123.02 296.16,-129.63"/>
</a>
</g>
</g>
<!-- Node4 -->
<g id="Node000004" class="node">
<title>Node4</title>
<g id="a_Node000004"><a xlink:href="classcam_1_1nc_1_1heiden_1_1Creator.html#a37d07f0dab5720c05c1f6ef762c41823" target="_top" xlink:title=" ">
<polygon fill="white" stroke="#666666" points="186.5,-142 25.5,-142 25.5,-123 186.5,-123 186.5,-142"/>
<text text-anchor="middle" x="106" y="-130" font-family="Helvetica,sans-Serif" font-size="10.00">cam.nc.heiden.Creator.metric</text>
</a>
</g>
</g>
<!-- Node1&#45;&gt;Node4 -->
<g id="edge3_Node000001_Node000004" class="edge">
<title>Node1&#45;&gt;Node4</title>
<g id="a_edge3_Node000001_Node000004"><a xlink:title=" ">
<path fill="none" stroke="#63b8ff" d="M237.48,-121.41C220.59,-122.84 203.11,-124.33 186.65,-125.73"/>
<polygon fill="#63b8ff" stroke="#63b8ff" points="238.24,-124.86 247.91,-120.52 237.65,-117.88 238.24,-124.86"/>
</a>
</g>
</g>
<!-- Node5 -->
<g id="Node000005" class="node">
<title>Node5</title>
<g id="a_Node000005"><a xlink:href="classcam_1_1nc_1_1iso_1_1Creator.html#a87e14f7ad8bcc131365d1f1f2fb6f42b" target="_top" xlink:title=" ">
<polygon fill="white" stroke="#666666" points="177,-105 35,-105 35,-86 177,-86 177,-105"/>
<text text-anchor="middle" x="106" y="-93" font-family="Helvetica,sans-Serif" font-size="10.00">cam.nc.iso.Creator.metric</text>
</a>
</g>
</g>
<!-- Node1&#45;&gt;Node5 -->
<g id="edge4_Node000001_Node000005" class="edge">
<title>Node1&#45;&gt;Node5</title>
<g id="a_edge4_Node000001_Node000005"><a xlink:title=" ">
<path fill="none" stroke="#63b8ff" d="M237.73,-106.03C217.47,-104.4 196.35,-102.7 177.14,-101.15"/>
<polygon fill="#63b8ff" stroke="#63b8ff" points="237.66,-109.53 247.91,-106.85 238.23,-102.56 237.66,-109.53"/>
</a>
</g>
</g>
<!-- Node6 -->
<g id="Node000006" class="node">
<title>Node6</title>
<g id="a_Node000006"><a xlink:href="classcam_1_1nc_1_1heiden530_1_1Creator.html#a2df4df9ca7c46efe5ad3b0b0d984f2c1" target="_top" xlink:title="Programs.">
<polygon fill="white" stroke="#666666" points="200,-67.5 12,-67.5 12,-37.5 200,-37.5 200,-67.5"/>
<text text-anchor="start" x="20" y="-55.5" font-family="Helvetica,sans-Serif" font-size="10.00">cam.nc.heiden530.Creator.program</text>
<text text-anchor="middle" x="106" y="-44.5" font-family="Helvetica,sans-Serif" font-size="10.00">_begin</text>
</a>
</g>
</g>
<!-- Node1&#45;&gt;Node6 -->
<g id="edge5_Node000001_Node000006" class="edge">
<title>Node1&#45;&gt;Node6</title>
<g id="a_edge5_Node000001_Node000006"><a xlink:title=" ">
<path fill="none" stroke="#63b8ff" d="M291.2,-100.9C268.21,-93.7 238.58,-84.69 212,-77.5 199.43,-74.1 185.94,-70.7 172.97,-67.55"/>
<polygon fill="#63b8ff" stroke="#63b8ff" points="290.35,-104.3 300.94,-103.97 292.45,-97.63 290.35,-104.3"/>
</a>
</g>
</g>
<!-- Node7 -->
<g id="Node000007" class="node">
<title>Node7</title>
<g id="a_Node000007"><a xlink:href="classcam_1_1nc_1_1heiden530_1_1Creator.html#aeddcab01d2dfad26eb8482b0f690fd39" target="_top" xlink:title=" ">
<polygon fill="white" stroke="#666666" points="212,-19 0,-19 0,0 212,0 212,-19"/>
<text text-anchor="middle" x="106" y="-7" font-family="Helvetica,sans-Serif" font-size="10.00">cam.nc.heiden530.Creator.program_end</text>
</a>
</g>
</g>
<!-- Node1&#45;&gt;Node7 -->
<g id="edge6_Node000001_Node000007" class="edge">
<title>Node1&#45;&gt;Node7</title>
<g id="a_edge6_Node000001_Node000007"><a xlink:title=" ">
<path fill="none" stroke="#63b8ff" d="M312.88,-96.94C291,-77.36 251.69,-45.31 212,-28.5 202.79,-24.6 192.79,-21.5 182.75,-19.03"/>
<polygon fill="#63b8ff" stroke="#63b8ff" points="310.63,-99.62 320.38,-103.77 315.35,-94.45 310.63,-99.62"/>
</a>
</g>
</g>
</g>
</svg>
</svg>

<style type='text/css'>
<![CDATA[
[data-mouse-over-selected='false'] { opacity: 0.7; }
[data-mouse-over-selected='true']  { opacity: 1.0; }
]]>
</style>
<script type="application/ecmascript"><![CDATA[
document.addEventListener('DOMContentLoaded', (event) => {
  highlightEdges();
  highlightAdjacentNodes();
});
]]></script>
</svg>
