<?xml version="1.0" encoding="UTF-8" standalone="no"?>
<!DOCTYPE svg PUBLIC "-//W3C//DTD SVG 1.1//EN"
 "http://www.w3.org/Graphics/SVG/1.1/DTD/svg11.dtd">
<!-- Generated by graphviz version 2.43.0 (0)
 -->
<!-- Title: cam.nc.heiden.Creator.STOP Pages: 1 -->
<svg width="408pt" height="101pt"
 viewBox="0.00 0.00 408.00 101.00" xmlns="http://www.w3.org/2000/svg" xmlns:xlink="http://www.w3.org/1999/xlink">
<g id="graph0" class="graph" transform="scale(1 1) rotate(0) translate(4 97)">
<title>cam.nc.heiden.Creator.STOP</title>
<!-- Node1 -->
<g id="Node000001" class="node">
<title>Node1</title>
<g id="a_Node000001"><a xlink:title=" ">
<polygon fill="#999999" stroke="#666666" points="400,-56 245,-56 245,-37 400,-37 400,-56"/>
<text text-anchor="middle" x="322.5" y="-44" font-family="Helvetica,sans-Serif" font-size="10.00">cam.nc.heiden.Creator.STOP</text>
</a>
</g>
</g>
<!-- Node2 -->
<g id="Node000002" class="node">
<title>Node2</title>
<g id="a_Node000002"><a xlink:href="classcam_1_1nc_1_1centroid1_1_1Creator.html#ad6a4499edb3630c4da194d28458d895a" target="_top" xlink:title=" ">
<polygon fill="white" stroke="#666666" points="209,-93 0,-93 0,-74 209,-74 209,-93"/>
<text text-anchor="middle" x="104.5" y="-81" font-family="Helvetica,sans-Serif" font-size="10.00">cam.nc.centroid1.Creator.program_stop</text>
</a>
</g>
</g>
<!-- Node1&#45;&gt;Node2 -->
<g id="edge1_Node000001_Node000002" class="edge">
<title>Node1&#45;&gt;Node2</title>
<g id="a_edge1_Node000001_Node000002"><a xlink:title=" ">
<path fill="none" stroke="#63b8ff" d="M255.85,-57.75C225.65,-62.92 190.2,-68.99 161.31,-73.94"/>
<polygon fill="#63b8ff" stroke="#63b8ff" points="256.61,-61.17 265.87,-56.03 255.43,-54.27 256.61,-61.17"/>
</a>
</g>
</g>
<!-- Node3 -->
<g id="Node000003" class="node">
<title>Node3</title>
<g id="a_Node000003"><a xlink:href="classcam_1_1nc_1_1heiden_1_1Creator.html#a9ff5ec0092767d4038917d4f3257a504" target="_top" xlink:title=" ">
<polygon fill="white" stroke="#666666" points="203,-56 6,-56 6,-37 203,-37 203,-56"/>
<text text-anchor="middle" x="104.5" y="-44" font-family="Helvetica,sans-Serif" font-size="10.00">cam.nc.heiden.Creator.program_stop</text>
</a>
</g>
</g>
<!-- Node1&#45;&gt;Node3 -->
<g id="edge2_Node000001_Node000003" class="edge">
<title>Node1&#45;&gt;Node3</title>
<g id="a_edge2_Node000001_Node000003"><a xlink:title=" ">
<path fill="none" stroke="#63b8ff" d="M234.53,-46.5C224.21,-46.5 213.63,-46.5 203.17,-46.5"/>
<polygon fill="#63b8ff" stroke="#63b8ff" points="234.74,-50 244.74,-46.5 234.74,-43 234.74,-50"/>
</a>
</g>
</g>
<!-- Node4 -->
<g id="Node000004" class="node">
<title>Node4</title>
<g id="a_Node000004"><a xlink:href="classcam_1_1nc_1_1iso_1_1Creator.html#afcd2fb65cdc93069c93cada835219108" target="_top" xlink:title=" ">
<polygon fill="white" stroke="#666666" points="193.5,-19 15.5,-19 15.5,0 193.5,0 193.5,-19"/>
<text text-anchor="middle" x="104.5" y="-7" font-family="Helvetica,sans-Serif" font-size="10.00">cam.nc.iso.Creator.program_stop</text>
</a>
</g>
</g>
<!-- Node1&#45;&gt;Node4 -->
<g id="edge3_Node000001_Node000004" class="edge">
<title>Node1&#45;&gt;Node4</title>
<g id="a_edge3_Node000001_Node000004"><a xlink:title=" ">
<path fill="none" stroke="#63b8ff" d="M255.85,-35.25C225.65,-30.08 190.2,-24.01 161.31,-19.06"/>
<polygon fill="#63b8ff" stroke="#63b8ff" points="255.43,-38.73 265.87,-36.97 256.61,-31.83 255.43,-38.73"/>
</a>
</g>
</g>
</g>
</svg>
