<?xml version="1.0" encoding="UTF-8" standalone="no"?>
<!DOCTYPE svg PUBLIC "-//W3C//DTD SVG 1.1//EN"
 "http://www.w3.org/Graphics/SVG/1.1/DTD/svg11.dtd">
<!-- Generated by graphviz version 2.43.0 (0)
 -->
<!-- Title: cam.cam_chunk.camPathChunk.update_poly Pages: 1 -->
<svg width="466pt" height="86pt"
 viewBox="0.00 0.00 466.00 86.00" xmlns="http://www.w3.org/2000/svg" xmlns:xlink="http://www.w3.org/1999/xlink">
<g id="graph0" class="graph" transform="scale(1 1) rotate(0) translate(4 82)">
<title>cam.cam_chunk.camPathChunk.update_poly</title>
<!-- Node1 -->
<g id="Node000001" class="node">
<title>Node1</title>
<g id="a_Node000001"><a xlink:title=" ">
<polygon fill="#999999" stroke="#666666" points="458,-48.5 223,-48.5 223,-29.5 458,-29.5 458,-48.5"/>
<text text-anchor="middle" x="340.5" y="-36.5" font-family="Helvetica,sans-Serif" font-size="10.00">cam.cam_chunk.camPathChunk.update_poly</text>
</a>
</g>
</g>
<!-- Node2 -->
<g id="Node000002" class="node">
<title>Node2</title>
<g id="a_Node000002"><a xlink:href="classcam_1_1cam__chunk_1_1camPathChunk.html#a4479bed9ef7dfb9190652d8984b8a0b9" target="_top" xlink:title=" ">
<polygon fill="white" stroke="#666666" points="187,-78 0,-78 0,-48 187,-48 187,-78"/>
<text text-anchor="start" x="8" y="-66" font-family="Helvetica,sans-Serif" font-size="10.00">cam.cam_chunk.camPathChunk.xy</text>
<text text-anchor="middle" x="93.5" y="-55" font-family="Helvetica,sans-Serif" font-size="10.00">DistanceTo</text>
</a>
</g>
</g>
<!-- Node1&#45;&gt;Node2 -->
<g id="edge1_Node000001_Node000002" class="edge">
<title>Node1&#45;&gt;Node2</title>
<g id="a_edge1_Node000001_Node000002"><a xlink:title=" ">
<path fill="none" stroke="#63b8ff" d="M232.03,-49.53C217.08,-50.99 201.82,-52.49 187.17,-53.92"/>
<polygon fill="#63b8ff" stroke="#63b8ff" points="232.71,-52.98 242.32,-48.52 232.02,-46.01 232.71,-52.98"/>
</a>
</g>
</g>
<!-- Node3 -->
<g id="Node000003" class="node">
<title>Node3</title>
<g id="a_Node000003"><a xlink:href="classcam_1_1cam__chunk_1_1camPathChunk.html#ac01f1831d2b22c9df83b8f356c9ba086" target="_top" xlink:title=" ">
<polygon fill="white" stroke="#666666" points="187,-30 0,-30 0,0 187,0 187,-30"/>
<text text-anchor="start" x="8" y="-18" font-family="Helvetica,sans-Serif" font-size="10.00">cam.cam_chunk.camPathChunk.xy</text>
<text text-anchor="middle" x="93.5" y="-7" font-family="Helvetica,sans-Serif" font-size="10.00">DistanceWithin</text>
</a>
</g>
</g>
<!-- Node1&#45;&gt;Node3 -->
<g id="edge2_Node000001_Node000003" class="edge">
<title>Node1&#45;&gt;Node3</title>
<g id="a_edge2_Node000001_Node000003"><a xlink:title=" ">
<path fill="none" stroke="#63b8ff" d="M232.03,-28.47C217.08,-27.01 201.82,-25.51 187.17,-24.08"/>
<polygon fill="#63b8ff" stroke="#63b8ff" points="232.02,-31.99 242.32,-29.48 232.71,-25.02 232.02,-31.99"/>
</a>
</g>
</g>
</g>
</svg>
