<?xml version="1.0" encoding="UTF-8" standalone="no"?>
<!DOCTYPE svg PUBLIC "-//W3C//DTD SVG 1.1//EN"
 "http://www.w3.org/Graphics/SVG/1.1/DTD/svg11.dtd">
<!-- Generated by graphviz version 2.43.0 (0)
 -->
<!-- Title: cam.autoupdate.UpdateSourceOperator Pages: 1 -->
<svg width="286pt" height="175pt"
 viewBox="0.00 0.00 285.50 175.00" xmlns="http://www.w3.org/2000/svg" xmlns:xlink="http://www.w3.org/1999/xlink">

<svg id="main" version="1.1" xmlns="http://www.w3.org/2000/svg" xmlns:xlink="http://www.w3.org/1999/xlink" xml:space="preserve" onload="init(evt)">
<style type="text/css"><![CDATA[
.node, .edge {opacity: 0.7;}
.node.selected, .edge.selected {opacity: 1;}
.edge:hover path { stroke: red; }
.edge:hover polygon { stroke: red; fill: red; }
]]></style>
<script type="application/ecmascript" xlink:href="svg.min.js"/>
<svg id="graph" class="graph">
<g id="graph0" class="graph" transform="scale(1 1) rotate(0) translate(4 171)">
<title>cam.autoupdate.UpdateSourceOperator</title>
<!-- Node1 -->
<g id="Node000001" class="node">
<title>Node1</title>
<g id="a_Node000001"><a xlink:title=" ">
<polygon fill="#999999" stroke="transparent" points="213,-60 52,-60 52,0 213,0 213,-60"/>
<text text-anchor="start" x="57.5" y="-48" font-family="Helvetica,sans-Serif" font-size="10.00">cam.autoupdate.UpdateSource</text>
<text text-anchor="start" x="111.5" y="-37" font-family="Helvetica,sans-Serif" font-size="10.00">Operator</text>
<text text-anchor="start" x="131" y="-22" font-family="Helvetica,sans-Serif" font-size="10.00"> </text>
<text text-anchor="start" x="80" y="-7" font-family="Helvetica,sans-Serif" font-size="10.00">+</text>
<text text-anchor="start" x="116.5" y="-7" font-family="Helvetica,sans-Serif" font-size="10.00">execute()</text>
<polygon fill="#666666" stroke="#666666" points="52.5,-32 52.5,-32 213.5,-32 213.5,-32 52.5,-32"/>
<polygon fill="#666666" stroke="#666666" points="52.5,-17 52.5,-17 213.5,-17 213.5,-17 52.5,-17"/>
<polygon fill="none" stroke="#666666" points="52,0 52,-60 213,-60 213,0 52,0"/>
</a>
</g>
</g>
<!-- Node2 -->
<g id="Node000002" class="node">
<title>Node2</title>
<g id="a_Node000002"><a xlink:title=" ">
<polygon fill="white" stroke="transparent" points="103,-167 0,-167 0,-118 103,-118 103,-167"/>
<text text-anchor="start" x="5.5" y="-154.5" font-family="Helvetica,sans-Serif" font-size="10.00">bpy.types.Operator</text>
<text text-anchor="start" x="50" y="-139.5" font-family="Helvetica,sans-Serif" font-size="10.00"> </text>
<text text-anchor="start" x="50" y="-124.5" font-family="Helvetica,sans-Serif" font-size="10.00"> </text>
<polygon fill="#666666" stroke="#666666" points="0.5,-149.5 0.5,-149.5 103.5,-149.5 103.5,-149.5 0.5,-149.5"/>
<polygon fill="#666666" stroke="#666666" points="0.5,-134.5 0.5,-134.5 103.5,-134.5 103.5,-134.5 0.5,-134.5"/>
<polygon fill="none" stroke="#666666" points="0,-118 0,-167 103,-167 103,-118 0,-118"/>
</a>
</g>
</g>
<!-- Node2&#45;&gt;Node1 -->
<g id="edge1_Node000001_Node000002" class="edge">
<title>Node2&#45;&gt;Node1</title>
<g id="a_edge1_Node000001_Node000002"><a xlink:title=" ">
<path fill="none" stroke="#63b8ff" d="M74.96,-109.5C86.37,-93.93 99.99,-75.35 111.11,-60.17"/>
<polygon fill="none" stroke="#63b8ff" points="71.97,-107.66 68.88,-117.79 77.61,-111.8 71.97,-107.66"/>
</a>
</g>
</g>
<!-- Node3 -->
<g id="Node000003" class="node">
<title>Node3</title>
<g id="a_Node000003"><a xlink:title=" ">
<polygon fill="white" stroke="transparent" points="144,-167 121,-167 121,-118 144,-118 144,-167"/>
<text text-anchor="start" x="126.5" y="-154.5" font-family="Helvetica,sans-Serif" font-size="10.00">str</text>
<text text-anchor="start" x="131" y="-139.5" font-family="Helvetica,sans-Serif" font-size="10.00"> </text>
<text text-anchor="start" x="131" y="-124.5" font-family="Helvetica,sans-Serif" font-size="10.00"> </text>
<polygon fill="#666666" stroke="#666666" points="121.5,-149.5 121.5,-149.5 144.5,-149.5 144.5,-149.5 121.5,-149.5"/>
<polygon fill="#666666" stroke="#666666" points="121.5,-134.5 121.5,-134.5 144.5,-134.5 144.5,-134.5 121.5,-134.5"/>
<polygon fill="none" stroke="#666666" points="121,-118 121,-167 144,-167 144,-118 121,-118"/>
</a>
</g>
</g>
<!-- Node3&#45;&gt;Node1 -->
<g id="edge2_Node000001_Node000003" class="edge">
<title>Node3&#45;&gt;Node1</title>
<g id="a_edge2_Node000001_Node000003"><a xlink:title=" ">
<path fill="none" stroke="#63b8ff" d="M132.5,-117.79C132.5,-104.62 132.5,-87.84 132.5,-72.55"/>
<polygon fill="none" stroke="#63b8ff" points="132.5,-72.17 128.5,-66.17 132.5,-60.17 136.5,-66.17 132.5,-72.17"/>
</a>
</g>
<text text-anchor="middle" x="164" y="-92" font-family="Helvetica,sans-Serif" font-size="10.00" fill="grey"> +bl_idname</text>
<text text-anchor="middle" x="164" y="-81" font-family="Helvetica,sans-Serif" font-size="10.00" fill="grey">+bl_label</text>
</g>
<!-- Node4 -->
<g id="Node000004" class="node">
<title>Node4</title>
<g id="a_Node000004"><a xlink:title=" ">
<polygon fill="white" stroke="transparent" points="258.5,-167 178.5,-167 178.5,-118 258.5,-118 258.5,-167"/>
<text text-anchor="start" x="183.5" y="-154.5" font-family="Helvetica,sans-Serif" font-size="10.00">StringProperty</text>
<text text-anchor="start" x="216.5" y="-139.5" font-family="Helvetica,sans-Serif" font-size="10.00"> </text>
<text text-anchor="start" x="216.5" y="-124.5" font-family="Helvetica,sans-Serif" font-size="10.00"> </text>
<polygon fill="#666666" stroke="#666666" points="178.5,-149.5 178.5,-149.5 258.5,-149.5 258.5,-149.5 178.5,-149.5"/>
<polygon fill="#666666" stroke="#666666" points="178.5,-134.5 178.5,-134.5 258.5,-134.5 258.5,-134.5 178.5,-134.5"/>
<polygon fill="none" stroke="#666666" points="178.5,-118 178.5,-167 258.5,-167 258.5,-118 178.5,-118"/>
</a>
</g>
</g>
<!-- Node4&#45;&gt;Node1 -->
<g id="edge3_Node000001_Node000004" class="edge">
<title>Node4&#45;&gt;Node1</title>
<g id="a_edge3_Node000001_Node000004"><a xlink:title=" ">
<path fill="none" stroke="#63b8ff" d="M213.91,-117.85C210.6,-105.15 205.16,-89.74 196.5,-78 194.01,-74.62 191.21,-71.39 188.21,-68.3"/>
<polygon fill="none" stroke="#63b8ff" points="188.09,-68.2 180.97,-67.05 179.29,-60.03 186.41,-61.18 188.09,-68.2"/>
</a>
</g>
<text text-anchor="middle" x="242.5" y="-86.5" font-family="Helvetica,sans-Serif" font-size="10.00" fill="grey"> +new_source</text>
</g>
</g>
</svg>
</svg>

<style type='text/css'>
<![CDATA[
[data-mouse-over-selected='false'] { opacity: 0.7; }
[data-mouse-over-selected='true']  { opacity: 1.0; }
]]>
</style>
<script type="application/ecmascript"><![CDATA[
document.addEventListener('DOMContentLoaded', (event) => {
  highlightEdges();
  highlightAdjacentNodes();
});
]]></script>
</svg>
