<?xml version="1.0" encoding="UTF-8" standalone="no"?>
<!DOCTYPE svg PUBLIC "-//W3C//DTD SVG 1.1//EN"
 "http://www.w3.org/Graphics/SVG/1.1/DTD/svg11.dtd">
<!-- Generated by graphviz version 2.43.0 (0)
 -->
<!-- Title: cam.nc.shopbot_mtc.Creator.rapid Pages: 1 -->
<!--zoomable 379 -->

<svg id="main" version="1.1" xmlns="http://www.w3.org/2000/svg" xmlns:xlink="http://www.w3.org/1999/xlink" xml:space="preserve" onload="init(evt)">
<style type="text/css"><![CDATA[
.node, .edge {opacity: 0.7;}
.node.selected, .edge.selected {opacity: 1;}
.edge:hover path { stroke: red; }
.edge:hover polygon { stroke: red; fill: red; }
]]></style>

<defs>
  <circle id="rim" cx="0" cy="0" r="7"/>
  <circle id="rim2" cx="0" cy="0" r="3.5"/>
  <g id="zoomPlus">
    <use xlink:href="#rim" fill="#404040"><set attributeName="fill" to="#808080" begin="zoomplus.mouseover" end="zoomplus.mouseout"/></use>
    <path d="M-4,0h8M0,-4v8" fill="none" stroke="white" stroke-width="1.5" pointer-events="none"/>
  </g>
  <g id="zoomMin">
    <use xlink:href="#rim" fill="#404040"><set attributeName="fill" to="#808080" begin="zoomminus.mouseover" end="zoomminus.mouseout"/></use>
    <path d="M-4,0h8" fill="none" stroke="white" stroke-width="1.5" pointer-events="none"/>
  </g>
  <g id="arrowUp" transform="translate(30 24)">
    <use xlink:href="#rim"/>
    <path pointer-events="none" fill="none" stroke="white" stroke-width="1.5" d="M0,-3.0v7 M-2.5,-0.5L0,-3.0L2.5,-0.5"/>
  </g>
  <g id="arrowRight" transform="rotate(90) translate(36 -43)">
    <use xlink:href="#rim"/>
    <path pointer-events="none" fill="none" stroke="white" stroke-width="1.5" d="M0,-3.0v7 M-2.5,-0.5L0,-3.0L2.5,-0.5"/>
  </g>
  <g id="arrowDown" transform="rotate(180) translate(-30 -48)">
    <use xlink:href="#rim"/>
    <path pointer-events="none" fill="none" stroke="white" stroke-width="1.5" d="M0,-3.0v7 M-2.5,-0.5L0,-3.0L2.5,-0.5"/>
  </g>
  <g id="arrowLeft" transform="rotate(270) translate(-36 17)">
    <use xlink:href="#rim"/>
    <path pointer-events="none" fill="none" stroke="white" stroke-width="1.5" d="M0,-3.0v7 M-2.5,-0.5L0,-3.0L2.5,-0.5"/>
  </g>
  <g id="resetDef">
    <use xlink:href="#rim2" fill="#404040"><set attributeName="fill" to="#808080" begin="reset.mouseover" end="reset.mouseout"/></use>
  </g>
</defs>
<script type="application/ecmascript">
var viewWidth = 617;
var viewHeight = 379;
var sectionId = 'dynsection-19';
</script>
<script type="application/ecmascript" xlink:href="svg.min.js"/>
<svg id="graph" class="graph">
<g id="viewport">
<title>cam.nc.shopbot_mtc.Creator.rapid</title>
<!-- Node1 -->
<g id="Node000001" class="node">
<title>Node1</title>
<g id="a_Node000001"><a xlink:title="Moves.">
<polygon fill="#999999" stroke="#666666" points="609,-195 425,-195 425,-176 609,-176 609,-195"/>
<text text-anchor="middle" x="517" y="-183" font-family="Helvetica,sans-Serif" font-size="10.00">cam.nc.shopbot_mtc.Creator.rapid</text>
</a>
</g>
</g>
<!-- Node2 -->
<g id="Node000002" class="node">
<title>Node2</title>
<g id="a_Node000002"><a xlink:href="classcam_1_1nc_1_1heiden_1_1Creator.html#ab1ba24f0b927edab5d70c6642ceacfc4" target="_top" xlink:title=" ">
<polygon fill="white" stroke="#666666" points="363.5,-371 215.5,-371 215.5,-352 363.5,-352 363.5,-371"/>
<text text-anchor="middle" x="289.5" y="-359" font-family="Helvetica,sans-Serif" font-size="10.00">cam.nc.heiden.Creator.drill</text>
</a>
</g>
</g>
<!-- Node1&#45;&gt;Node2 -->
<g id="edge1_Node000001_Node000002" class="edge">
<title>Node1&#45;&gt;Node2</title>
<g id="a_edge1_Node000001_Node000002"><a xlink:title=" ">
<path fill="none" stroke="#63b8ff" d="M506.57,-204.6C488.72,-238.59 446.54,-309.22 389,-343.5 381.23,-348.13 372.56,-351.62 363.66,-354.24"/>
<polygon fill="#63b8ff" stroke="#63b8ff" points="509.89,-205.8 511.32,-195.31 503.65,-202.62 509.89,-205.8"/>
</a>
</g>
</g>
<!-- Node4 -->
<g id="Node000004" class="node">
<title>Node4</title>
<g id="a_Node000004"><a xlink:href="classcam_1_1nc_1_1iso_1_1Creator.html#a61f29267aaaddc3d5c8471f9bf714cb3" target="_top" xlink:title=" ">
<polygon fill="white" stroke="#666666" points="354,-334 225,-334 225,-315 354,-315 354,-334"/>
<text text-anchor="middle" x="289.5" y="-322" font-family="Helvetica,sans-Serif" font-size="10.00">cam.nc.iso.Creator.drill</text>
</a>
</g>
</g>
<!-- Node1&#45;&gt;Node4 -->
<g id="edge3_Node000001_Node000004" class="edge">
<title>Node1&#45;&gt;Node4</title>
<g id="a_edge3_Node000001_Node000004"><a xlink:title=" ">
<path fill="none" stroke="#63b8ff" d="M502.75,-203.3C481.77,-230.07 438.23,-280.26 389,-305.5 378.23,-311.02 366.05,-314.95 354.01,-317.73"/>
<polygon fill="#63b8ff" stroke="#63b8ff" points="505.66,-205.25 508.97,-195.19 500.11,-200.99 505.66,-205.25"/>
</a>
</g>
</g>
<!-- Node5 -->
<g id="Node000005" class="node">
<title>Node5</title>
<g id="a_Node000005"><a xlink:href="classcam_1_1nc_1_1heiden__read_1_1Parser.html#a9c64dcddf3c2c0d3248079dde5314cfe" target="_top" xlink:title=" ">
<polygon fill="white" stroke="#666666" points="364.5,-296.5 214.5,-296.5 214.5,-266.5 364.5,-266.5 364.5,-296.5"/>
<text text-anchor="start" x="222.5" y="-284.5" font-family="Helvetica,sans-Serif" font-size="10.00">cam.nc.heiden_read.Parser.</text>
<text text-anchor="middle" x="289.5" y="-273.5" font-family="Helvetica,sans-Serif" font-size="10.00">Parsey</text>
</a>
</g>
</g>
<!-- Node1&#45;&gt;Node5 -->
<g id="edge5_Node000001_Node000005" class="edge">
<title>Node1&#45;&gt;Node5</title>
<g id="a_edge5_Node000001_Node000005"><a xlink:title=" ">
<path fill="none" stroke="#63b8ff" d="M493.57,-200.77C468.92,-216.93 427.65,-242.18 389,-257.5 380.49,-260.87 371.38,-263.87 362.25,-266.49"/>
<polygon fill="#63b8ff" stroke="#63b8ff" points="495.78,-203.5 502.17,-195.06 491.9,-197.67 495.78,-203.5"/>
</a>
</g>
</g>
<!-- Node6 -->
<g id="Node000006" class="node">
<title>Node6</title>
<g id="a_Node000006"><a xlink:href="classcam_1_1nc_1_1heiden_1_1Creator.html#ae8e86bcc6f05521bf4b639128e3241ee" target="_top" xlink:title=" ">
<polygon fill="white" stroke="#666666" points="368,-248.5 211,-248.5 211,-218.5 368,-218.5 368,-248.5"/>
<text text-anchor="start" x="219" y="-236.5" font-family="Helvetica,sans-Serif" font-size="10.00">cam.nc.heiden.Creator.probe</text>
<text text-anchor="middle" x="289.5" y="-225.5" font-family="Helvetica,sans-Serif" font-size="10.00">_downward_point</text>
</a>
</g>
</g>
<!-- Node1&#45;&gt;Node6 -->
<g id="edge6_Node000001_Node000006" class="edge">
<title>Node1&#45;&gt;Node6</title>
<g id="a_edge6_Node000001_Node000006"><a xlink:title=" ">
<path fill="none" stroke="#63b8ff" d="M461.26,-197.15C431.1,-203.57 393.33,-211.61 360.99,-218.5"/>
<polygon fill="#63b8ff" stroke="#63b8ff" points="462.13,-200.55 471.18,-195.04 460.67,-193.7 462.13,-200.55"/>
</a>
</g>
</g>
<!-- Node7 -->
<g id="Node000007" class="node">
<title>Node7</title>
<g id="a_Node000007"><a xlink:href="classcam_1_1nc_1_1iso_1_1Creator.html#a40689f45d25f7f726d11a172b608c0a4" target="_top" xlink:title=" ">
<polygon fill="white" stroke="#666666" points="358.5,-200.5 220.5,-200.5 220.5,-170.5 358.5,-170.5 358.5,-200.5"/>
<text text-anchor="start" x="228.5" y="-188.5" font-family="Helvetica,sans-Serif" font-size="10.00">cam.nc.iso.Creator.probe</text>
<text text-anchor="middle" x="289.5" y="-177.5" font-family="Helvetica,sans-Serif" font-size="10.00">_downward_point</text>
</a>
</g>
</g>
<!-- Node1&#45;&gt;Node7 -->
<g id="edge7_Node000001_Node000007" class="edge">
<title>Node1&#45;&gt;Node7</title>
<g id="a_edge7_Node000001_Node000007"><a xlink:title=" ">
<path fill="none" stroke="#63b8ff" d="M414.75,-185.5C395.77,-185.5 376.35,-185.5 358.67,-185.5"/>
<polygon fill="#63b8ff" stroke="#63b8ff" points="414.93,-189 424.93,-185.5 414.93,-182 414.93,-189"/>
</a>
</g>
</g>
<!-- Node8 -->
<g id="Node000008" class="node">
<title>Node8</title>
<g id="a_Node000008"><a xlink:href="classcam_1_1nc_1_1heiden_1_1Creator.html#a921825a14a9068d234377d7ac3b7777f" target="_top" xlink:title=" ">
<polygon fill="white" stroke="#666666" points="368,-152.5 211,-152.5 211,-122.5 368,-122.5 368,-152.5"/>
<text text-anchor="start" x="219" y="-140.5" font-family="Helvetica,sans-Serif" font-size="10.00">cam.nc.heiden.Creator.probe</text>
<text text-anchor="middle" x="289.5" y="-129.5" font-family="Helvetica,sans-Serif" font-size="10.00">_single_point</text>
</a>
</g>
</g>
<!-- Node1&#45;&gt;Node8 -->
<g id="edge8_Node000001_Node000008" class="edge">
<title>Node1&#45;&gt;Node8</title>
<g id="a_edge8_Node000001_Node000008"><a xlink:title=" ">
<path fill="none" stroke="#63b8ff" d="M461.26,-173.85C431.1,-167.43 393.33,-159.39 360.99,-152.5"/>
<polygon fill="#63b8ff" stroke="#63b8ff" points="460.67,-177.3 471.18,-175.96 462.13,-170.45 460.67,-177.3"/>
</a>
</g>
</g>
<!-- Node9 -->
<g id="Node000009" class="node">
<title>Node9</title>
<g id="a_Node000009"><a xlink:href="classcam_1_1nc_1_1iso_1_1Creator.html#adc5343ffd168991077858693d6a79fef" target="_top" xlink:title=" ">
<polygon fill="white" stroke="#666666" points="358.5,-104.5 220.5,-104.5 220.5,-74.5 358.5,-74.5 358.5,-104.5"/>
<text text-anchor="start" x="228.5" y="-92.5" font-family="Helvetica,sans-Serif" font-size="10.00">cam.nc.iso.Creator.probe</text>
<text text-anchor="middle" x="289.5" y="-81.5" font-family="Helvetica,sans-Serif" font-size="10.00">_single_point</text>
</a>
</g>
</g>
<!-- Node1&#45;&gt;Node9 -->
<g id="edge9_Node000001_Node000009" class="edge">
<title>Node1&#45;&gt;Node9</title>
<g id="a_edge9_Node000001_Node000009"><a xlink:title=" ">
<path fill="none" stroke="#63b8ff" d="M493.57,-170.23C468.92,-154.07 427.65,-128.82 389,-113.5 379.35,-109.67 368.91,-106.34 358.57,-103.47"/>
<polygon fill="#63b8ff" stroke="#63b8ff" points="491.9,-173.33 502.17,-175.94 495.78,-167.5 491.9,-173.33"/>
</a>
</g>
</g>
<!-- Node10 -->
<g id="Node000010" class="node">
<title>Node10</title>
<g id="a_Node000010"><a xlink:href="classcam_1_1nc_1_1emc2tap_1_1CreatorEMC2tap.html#ae7c40089d2816698fbe6cfbc9a10a052" target="_top" xlink:title=" ">
<polygon fill="white" stroke="#666666" points="389,-56 190,-56 190,-37 389,-37 389,-56"/>
<text text-anchor="middle" x="289.5" y="-44" font-family="Helvetica,sans-Serif" font-size="10.00">cam.nc.emc2tap.CreatorEMC2tap.tap</text>
</a>
</g>
</g>
<!-- Node1&#45;&gt;Node10 -->
<g id="edge10_Node000001_Node000010" class="edge">
<title>Node1&#45;&gt;Node10</title>
<g id="a_edge10_Node000001_Node000010"><a xlink:title=" ">
<path fill="none" stroke="#63b8ff" d="M502.75,-167.7C481.77,-140.93 438.23,-90.74 389,-65.5 381.41,-61.61 373.11,-58.51 364.66,-56.04"/>
<polygon fill="#63b8ff" stroke="#63b8ff" points="500.11,-170.01 508.97,-175.81 505.66,-165.75 500.11,-170.01"/>
</a>
</g>
</g>
<!-- Node11 -->
<g id="Node000011" class="node">
<title>Node11</title>
<g id="a_Node000011"><a xlink:href="classcam_1_1nc_1_1heiden_1_1Creator.html#a706db14683812bb3b86db958d7faa05a" target="_top" xlink:title=" ">
<polygon fill="white" stroke="#666666" points="362,-19 217,-19 217,0 362,0 362,-19"/>
<text text-anchor="middle" x="289.5" y="-7" font-family="Helvetica,sans-Serif" font-size="10.00">cam.nc.heiden.Creator.tap</text>
</a>
</g>
</g>
<!-- Node1&#45;&gt;Node11 -->
<g id="edge11_Node000001_Node000011" class="edge">
<title>Node1&#45;&gt;Node11</title>
<g id="a_edge11_Node000001_Node000011"><a xlink:title=" ">
<path fill="none" stroke="#63b8ff" d="M506.51,-166.58C488.54,-132.89 446.21,-62.84 389,-28.5 380.79,-23.57 371.56,-19.88 362.13,-17.13"/>
<polygon fill="#63b8ff" stroke="#63b8ff" points="503.57,-168.52 511.29,-175.78 509.78,-165.3 503.57,-168.52"/>
</a>
</g>
</g>
<!-- Node3 -->
<g id="Node000003" class="node">
<title>Node3</title>
<g id="a_Node000003"><a xlink:href="classcam_1_1nc_1_1cad__iso__read_1_1Parser.html#abf885d019794a8bef1b69f446c8851e1" target="_top" xlink:title=" ">
<polygon fill="white" stroke="#666666" points="154,-357.5 0,-357.5 0,-327.5 154,-327.5 154,-357.5"/>
<text text-anchor="start" x="8" y="-345.5" font-family="Helvetica,sans-Serif" font-size="10.00">cam.nc.cad_iso_read.Parser.</text>
<text text-anchor="middle" x="77" y="-334.5" font-family="Helvetica,sans-Serif" font-size="10.00">Parse</text>
</a>
</g>
</g>
<!-- Node2&#45;&gt;Node3 -->
<g id="edge2_Node000002_Node000003" class="edge">
<title>Node2&#45;&gt;Node3</title>
<g id="a_edge2_Node000002_Node000003"><a xlink:title=" ">
<path fill="none" stroke="#63b8ff" d="M205.11,-353.97C188.29,-352.45 170.68,-350.87 154.12,-349.37"/>
<polygon fill="#63b8ff" stroke="#63b8ff" points="205.19,-357.49 215.47,-354.91 205.82,-350.52 205.19,-357.49"/>
</a>
</g>
</g>
<!-- Node4&#45;&gt;Node3 -->
<g id="edge4_Node000004_Node000003" class="edge">
<title>Node4&#45;&gt;Node3</title>
<g id="a_edge4_Node000004_Node000003"><a xlink:title=" ">
<path fill="none" stroke="#63b8ff" d="M214.68,-330.81C195.07,-332.49 173.85,-334.3 154.12,-335.99"/>
<polygon fill="#63b8ff" stroke="#63b8ff" points="215.11,-334.29 224.77,-329.95 214.51,-327.31 215.11,-334.29"/>
</a>
</g>
</g>
</g>
</svg>

<g id="navigator" transform="translate(0 0)" fill="#404254">
  <rect fill="#f2f5e9" fill-opacity="0.5" stroke="#606060" stroke-width=".5" x="0" y="0" width="60" height="60"/>
  <use id="zoomplus" xlink:href="#zoomPlus" x="17" y="9" onmousedown="handleZoom(evt,'in')"/>
  <use id="zoomminus" xlink:href="#zoomMin" x="42" y="9" onmousedown="handleZoom(evt,'out')"/>
  <use id="reset" xlink:href="#resetDef" x="30" y="36" onmousedown="handleReset()"/>
   <use id="arrowup" xlink:href="#arrowUp" x="0" y="0" onmousedown="handlePan(0,-1)"/>
  <use id="arrowright" xlink:href="#arrowRight" x="0" y="0" onmousedown="handlePan(1,0)"/>
  <use id="arrowdown" xlink:href="#arrowDown" x="0" y="0" onmousedown="handlePan(0,1)"/>
  <use id="arrowleft" xlink:href="#arrowLeft" x="0" y="0" onmousedown="handlePan(-1,0)"/>
</g>
<svg viewBox="0 0 15 15" width="100%" height="30px" preserveAspectRatio="xMaxYMin meet">
 <g id="arrow_out" transform="scale(0.3 0.3)">
  <a xlink:href="classcam_1_1nc_1_1shopbot__mtc_1_1Creator_abc1b932274b5805ed9a4e553bfd6855b_icgraph_org.svg" target="_base">
   <rect id="button" ry="5" rx="5" y="6" x="6" height="38" width="38"
        fill="#f2f5e9" fill-opacity="0.5" stroke="#606060" stroke-width="1.0"/>
   <path id="arrow"
     d="M 11.500037,31.436501 C 11.940474,20.09759 22.043105,11.32322 32.158766,21.979434 L 37.068811,17.246167 C 37.068811,17.246167 37.088388,32 37.088388,32 L 22.160133,31.978069 C 22.160133,31.978069 26.997745,27.140456 26.997745,27.140456 C 18.528582,18.264221 13.291696,25.230495 11.500037,31.436501 z"
     style="fill:#404040;"/>
  </a>
 </g>
</svg>

<style type='text/css'>
<![CDATA[
[data-mouse-over-selected='false'] { opacity: 0.7; }
[data-mouse-over-selected='true']  { opacity: 1.0; }
]]>
</style>
<script type="application/ecmascript"><![CDATA[
document.addEventListener('DOMContentLoaded', (event) => {
  highlightEdges();
  highlightAdjacentNodes();
});
]]></script>
</svg>
