<?xml version="1.0" encoding="UTF-8" standalone="no"?>
<!DOCTYPE svg PUBLIC "-//W3C//DTD SVG 1.1//EN"
 "http://www.w3.org/Graphics/SVG/1.1/DTD/svg11.dtd">
<!-- Generated by graphviz version 2.43.0 (0)
 -->
<!-- Title: cam.nc.heiden.Creator.PECK_DEPTH Pages: 1 -->
<svg width="590pt" height="408pt"
 viewBox="0.00 0.00 590.00 408.00" xmlns="http://www.w3.org/2000/svg" xmlns:xlink="http://www.w3.org/1999/xlink">
<g id="graph0" class="graph" transform="scale(1 1) rotate(0) translate(4 404)">
<title>cam.nc.heiden.Creator.PECK_DEPTH</title>
<!-- Node1 -->
<g id="Node000001" class="node">
<title>Node1</title>
<g id="a_Node000001"><a xlink:title=" ">
<polygon fill="#999999" stroke="#666666" points="155,-217.5 0,-217.5 0,-187.5 155,-187.5 155,-217.5"/>
<text text-anchor="start" x="8" y="-205.5" font-family="Helvetica,sans-Serif" font-size="10.00">cam.nc.heiden.Creator.PECK</text>
<text text-anchor="middle" x="77.5" y="-194.5" font-family="Helvetica,sans-Serif" font-size="10.00">_DEPTH</text>
</a>
</g>
</g>
<!-- Node2 -->
<g id="Node000002" class="node">
<title>Node2</title>
<g id="a_Node000002"><a xlink:href="classcam_1_1nc_1_1emc2_1_1Creator.html#a47a9e4f5f35681f580765bba2f0f97a5" target="_top" xlink:title=" ">
<polygon fill="white" stroke="#666666" points="353.5,-400 199.5,-400 199.5,-381 353.5,-381 353.5,-400"/>
<text text-anchor="middle" x="276.5" y="-388" font-family="Helvetica,sans-Serif" font-size="10.00">cam.nc.emc2.Creator.SPACE</text>
</a>
</g>
</g>
<!-- Node1&#45;&gt;Node2 -->
<g id="edge1_Node000001_Node000002" class="edge">
<title>Node1&#45;&gt;Node2</title>
<g id="a_edge1_Node000001_Node000002"><a xlink:title=" ">
<path fill="none" stroke="#63b8ff" d="M83.9,-217.62C96.74,-251.3 132.5,-332.65 191,-372.5 193.25,-374.03 195.6,-375.43 198.03,-376.72"/>
<polygon fill="#63b8ff" stroke="#63b8ff" points="196.59,-379.91 207.13,-380.9 199.5,-373.55 196.59,-379.91"/>
</a>
</g>
</g>
<!-- Node3 -->
<g id="Node000003" class="node">
<title>Node3</title>
<g id="a_Node000003"><a xlink:href="classcam_1_1nc_1_1emc2b_1_1Creator.html#abff5586e78bb91681bd41dafdea5a9e7" target="_top" xlink:title=" ">
<polygon fill="white" stroke="#666666" points="356.5,-363 196.5,-363 196.5,-344 356.5,-344 356.5,-363"/>
<text text-anchor="middle" x="276.5" y="-351" font-family="Helvetica,sans-Serif" font-size="10.00">cam.nc.emc2b.Creator.SPACE</text>
</a>
</g>
</g>
<!-- Node1&#45;&gt;Node3 -->
<g id="edge2_Node000001_Node000003" class="edge">
<title>Node1&#45;&gt;Node3</title>
<g id="a_edge2_Node000001_Node000003"><a xlink:title=" ">
<path fill="none" stroke="#63b8ff" d="M86.8,-217.52C102.97,-245.31 141.51,-304.62 191,-334.5 194.62,-336.69 198.47,-338.62 202.44,-340.33"/>
<polygon fill="#63b8ff" stroke="#63b8ff" points="201.32,-343.65 211.91,-343.94 203.81,-337.11 201.32,-343.65"/>
</a>
</g>
</g>
<!-- Node4 -->
<g id="Node000004" class="node">
<title>Node4</title>
<g id="a_Node000004"><a xlink:href="classcam_1_1nc_1_1emc2tap_1_1CodesEMC2.html#a6a0d71a1c6e9f8a80228dc220a0e57ca" target="_top" xlink:title=" ">
<polygon fill="white" stroke="#666666" points="357,-325.5 196,-325.5 196,-295.5 357,-295.5 357,-325.5"/>
<text text-anchor="start" x="204" y="-313.5" font-family="Helvetica,sans-Serif" font-size="10.00">cam.nc.emc2tap.CodesEMC2.</text>
<text text-anchor="middle" x="276.5" y="-302.5" font-family="Helvetica,sans-Serif" font-size="10.00">SPACE</text>
</a>
</g>
</g>
<!-- Node1&#45;&gt;Node4 -->
<g id="edge3_Node000001_Node000004" class="edge">
<title>Node1&#45;&gt;Node4</title>
<g id="a_edge3_Node000001_Node000004"><a xlink:title=" ">
<path fill="none" stroke="#63b8ff" d="M94.75,-217.7C115.55,-236.39 153.42,-267.92 191,-286.5 194.95,-288.45 199.09,-290.27 203.32,-291.96"/>
<polygon fill="#63b8ff" stroke="#63b8ff" points="202.1,-295.24 212.69,-295.45 204.54,-288.68 202.1,-295.24"/>
</a>
</g>
</g>
<!-- Node5 -->
<g id="Node000005" class="node">
<title>Node5</title>
<g id="a_Node000005"><a xlink:href="classcam_1_1nc_1_1heiden_1_1Creator.html#a2c4277ffddaea0f92c906c6744f7a3bd" target="_top" xlink:title="Codes.">
<polygon fill="white" stroke="#666666" points="356.5,-277 196.5,-277 196.5,-258 356.5,-258 356.5,-277"/>
<text text-anchor="middle" x="276.5" y="-265" font-family="Helvetica,sans-Serif" font-size="10.00">cam.nc.heiden.Creator.SPACE</text>
</a>
</g>
</g>
<!-- Node1&#45;&gt;Node5 -->
<g id="edge4_Node000001_Node000005" class="edge">
<title>Node1&#45;&gt;Node5</title>
<g id="a_edge4_Node000001_Node000005"><a xlink:title=" ">
<path fill="none" stroke="#63b8ff" d="M111.44,-217.67C133.58,-227.45 163.62,-239.89 191,-248.5 199.14,-251.06 207.83,-253.42 216.42,-255.54"/>
<polygon fill="#63b8ff" stroke="#63b8ff" points="215.89,-259.01 226.43,-257.92 217.51,-252.2 215.89,-259.01"/>
</a>
</g>
</g>
<!-- Node6 -->
<g id="Node000006" class="node">
<title>Node6</title>
<g id="a_Node000006"><a xlink:href="classcam_1_1nc_1_1heiden530_1_1Creator.html#aa64b19b0edc2ac1f2d568b09ca2aebcb" target="_top" xlink:title="Codes.">
<polygon fill="white" stroke="#666666" points="350,-239.5 203,-239.5 203,-209.5 350,-209.5 350,-239.5"/>
<text text-anchor="start" x="211" y="-227.5" font-family="Helvetica,sans-Serif" font-size="10.00">cam.nc.heiden530.Creator.</text>
<text text-anchor="middle" x="276.5" y="-216.5" font-family="Helvetica,sans-Serif" font-size="10.00">SPACE</text>
</a>
</g>
</g>
<!-- Node1&#45;&gt;Node6 -->
<g id="edge5_Node000001_Node000006" class="edge">
<title>Node1&#45;&gt;Node6</title>
<g id="a_edge5_Node000001_Node000006"><a xlink:title=" ">
<path fill="none" stroke="#63b8ff" d="M155.23,-211.07C167.47,-212.44 180.18,-213.85 192.55,-215.24"/>
<polygon fill="#63b8ff" stroke="#63b8ff" points="192.52,-218.76 202.85,-216.39 193.3,-211.8 192.52,-218.76"/>
</a>
</g>
</g>
<!-- Node7 -->
<g id="Node000007" class="node">
<title>Node7</title>
<g id="a_Node000007"><a xlink:href="classcam_1_1nc_1_1iso_1_1Creator.html#a79463d437baaaf23c828a2c9e62393f3" target="_top" xlink:title=" ">
<polygon fill="white" stroke="#666666" points="347,-191 206,-191 206,-172 347,-172 347,-191"/>
<text text-anchor="middle" x="276.5" y="-179" font-family="Helvetica,sans-Serif" font-size="10.00">cam.nc.iso.Creator.SPACE</text>
</a>
</g>
</g>
<!-- Node1&#45;&gt;Node7 -->
<g id="edge6_Node000001_Node000007" class="edge">
<title>Node1&#45;&gt;Node7</title>
<g id="a_edge6_Node000001_Node000007"><a xlink:title=" ">
<path fill="none" stroke="#63b8ff" d="M155.23,-194.32C168.49,-192.91 182.3,-191.44 195.64,-190.01"/>
<polygon fill="#63b8ff" stroke="#63b8ff" points="196.16,-193.48 205.73,-188.94 195.41,-186.52 196.16,-193.48"/>
</a>
</g>
</g>
<!-- Node15 -->
<g id="Node000015" class="node">
<title>Node15</title>
<g id="a_Node000015"><a xlink:href="classcam_1_1nc_1_1makerbot__codes_1_1Codes.html#a497077e0e500cc8f419b8f3f61f008b4" target="_top" xlink:title=" ">
<polygon fill="white" stroke="#666666" points="362,-153.5 191,-153.5 191,-123.5 362,-123.5 362,-153.5"/>
<text text-anchor="start" x="199" y="-141.5" font-family="Helvetica,sans-Serif" font-size="10.00">cam.nc.makerbot_codes.Codes.</text>
<text text-anchor="middle" x="276.5" y="-130.5" font-family="Helvetica,sans-Serif" font-size="10.00">SPACE</text>
</a>
</g>
</g>
<!-- Node1&#45;&gt;Node15 -->
<g id="edge14_Node000001_Node000015" class="edge">
<title>Node1&#45;&gt;Node15</title>
<g id="a_edge14_Node000001_Node000015"><a xlink:title=" ">
<path fill="none" stroke="#63b8ff" d="M120.55,-187.41C141.62,-179.98 167.58,-171.02 191,-163.5 198.19,-161.19 205.75,-158.84 213.27,-156.56"/>
<polygon fill="#63b8ff" stroke="#63b8ff" points="214.53,-159.83 223.1,-153.6 212.51,-153.13 214.53,-159.83"/>
</a>
</g>
</g>
<!-- Node16 -->
<g id="Node000016" class="node">
<title>Node16</title>
<g id="a_Node000016"><a xlink:href="classcam_1_1nc_1_1series1_1_1Creator.html#a75918d23eef609baab85058fda3050d5" target="_top" xlink:title=" ">
<polygon fill="white" stroke="#666666" points="357.5,-105 195.5,-105 195.5,-86 357.5,-86 357.5,-105"/>
<text text-anchor="middle" x="276.5" y="-93" font-family="Helvetica,sans-Serif" font-size="10.00">cam.nc.series1.Creator.SPACE</text>
</a>
</g>
</g>
<!-- Node1&#45;&gt;Node16 -->
<g id="edge15_Node000001_Node000016" class="edge">
<title>Node1&#45;&gt;Node16</title>
<g id="a_edge15_Node000001_Node000016"><a xlink:title=" ">
<path fill="none" stroke="#63b8ff" d="M93.38,-187.23C113.61,-167.38 151.79,-133.08 191,-114.5 196.22,-112.03 201.78,-109.87 207.46,-107.98"/>
<polygon fill="#63b8ff" stroke="#63b8ff" points="208.53,-111.31 217.09,-105.06 206.5,-104.61 208.53,-111.31"/>
</a>
</g>
</g>
<!-- Node17 -->
<g id="Node000017" class="node">
<title>Node17</title>
<g id="a_Node000017"><a xlink:href="classcam_1_1nc_1_1shopbot__mtc_1_1Creator.html#a1512dbb5d0140eb216ed709a542261ac" target="_top" xlink:title="Codes.">
<polygon fill="white" stroke="#666666" points="356,-67.5 197,-67.5 197,-37.5 356,-37.5 356,-67.5"/>
<text text-anchor="start" x="205" y="-55.5" font-family="Helvetica,sans-Serif" font-size="10.00">cam.nc.shopbot_mtc.Creator.</text>
<text text-anchor="middle" x="276.5" y="-44.5" font-family="Helvetica,sans-Serif" font-size="10.00">SPACE</text>
</a>
</g>
</g>
<!-- Node1&#45;&gt;Node17 -->
<g id="edge16_Node000001_Node000017" class="edge">
<title>Node1&#45;&gt;Node17</title>
<g id="a_edge16_Node000001_Node000017"><a xlink:title=" ">
<path fill="none" stroke="#63b8ff" d="M87.93,-187.17C105.09,-160.57 144.02,-105.91 191,-76.5 193.63,-74.85 196.38,-73.32 199.2,-71.88"/>
<polygon fill="#63b8ff" stroke="#63b8ff" points="200.82,-74.99 208.46,-67.65 197.91,-68.63 200.82,-74.99"/>
</a>
</g>
</g>
<!-- Node18 -->
<g id="Node000018" class="node">
<title>Node18</title>
<g id="a_Node000018"><a xlink:href="classcam_1_1nc_1_1tnc151_1_1Creator.html#af5d9e50b2ff0e73cd7524e2145d55d76" target="_top" xlink:title=" ">
<polygon fill="white" stroke="#666666" points="356.5,-19 196.5,-19 196.5,0 356.5,0 356.5,-19"/>
<text text-anchor="middle" x="276.5" y="-7" font-family="Helvetica,sans-Serif" font-size="10.00">cam.nc.tnc151.Creator.SPACE</text>
</a>
</g>
</g>
<!-- Node1&#45;&gt;Node18 -->
<g id="edge17_Node000001_Node000018" class="edge">
<title>Node1&#45;&gt;Node18</title>
<g id="a_edge17_Node000001_Node000018"><a xlink:title=" ">
<path fill="none" stroke="#63b8ff" d="M83.73,-187.33C96.34,-153.12 131.84,-69.76 191,-28.5 193.86,-26.5 196.9,-24.71 200.06,-23.11"/>
<polygon fill="#63b8ff" stroke="#63b8ff" points="201.49,-26.3 209.23,-19.06 198.66,-19.9 201.49,-26.3"/>
</a>
</g>
</g>
<!-- Node8 -->
<g id="Node000008" class="node">
<title>Node8</title>
<g id="a_Node000008"><a xlink:href="classcam_1_1nc_1_1anilam__crusader__m_1_1Creator.html#a36f873a0248bcaa4cf2cfb220dc1b00c" target="_top" xlink:title="Codes.">
<polygon fill="white" stroke="#666666" points="558,-313.5 422,-313.5 422,-283.5 558,-283.5 558,-313.5"/>
<text text-anchor="start" x="430" y="-301.5" font-family="Helvetica,sans-Serif" font-size="10.00">cam.nc.anilam_crusader</text>
<text text-anchor="middle" x="490" y="-290.5" font-family="Helvetica,sans-Serif" font-size="10.00">_m.Creator.SPACE_STR</text>
</a>
</g>
</g>
<!-- Node7&#45;&gt;Node8 -->
<g id="edge7_Node000007_Node000008" class="edge">
<title>Node7&#45;&gt;Node8</title>
<g id="a_edge7_Node000007_Node000008"><a xlink:title=" ">
<path fill="none" stroke="#63b8ff" d="M345.96,-191.1C351.71,-193.59 357.17,-196.67 362,-200.5 390.68,-223.2 369.74,-251.28 398,-274.5 402.34,-278.07 407.15,-281.11 412.24,-283.7"/>
<polygon fill="#63b8ff" stroke="#63b8ff" points="411.08,-287.02 421.64,-287.9 413.93,-280.62 411.08,-287.02"/>
</a>
</g>
</g>
<!-- Node9 -->
<g id="Node000009" class="node">
<title>Node9</title>
<g id="a_Node000009"><a xlink:href="classcam_1_1nc_1_1fadal_1_1Creator.html#a97a50724edf2662eb4fe76b15516b638" target="_top" xlink:title="Codes.">
<polygon fill="white" stroke="#666666" points="578,-265 402,-265 402,-246 578,-246 578,-265"/>
<text text-anchor="middle" x="490" y="-253" font-family="Helvetica,sans-Serif" font-size="10.00">cam.nc.fadal.Creator.SPACE_STR</text>
</a>
</g>
</g>
<!-- Node7&#45;&gt;Node9 -->
<g id="edge8_Node000007_Node000009" class="edge">
<title>Node7&#45;&gt;Node9</title>
<g id="a_edge8_Node000007_Node000009"><a xlink:title=" ">
<path fill="none" stroke="#63b8ff" d="M339.51,-191.05C347.35,-193.51 355.05,-196.61 362,-200.5 382.02,-211.7 377.83,-226.56 398,-237.5 401.31,-239.3 404.77,-240.91 408.33,-242.37"/>
<polygon fill="#63b8ff" stroke="#63b8ff" points="407.36,-245.74 417.95,-245.87 409.75,-239.16 407.36,-245.74"/>
</a>
</g>
</g>
<!-- Node10 -->
<g id="Node000010" class="node">
<title>Node10</title>
<g id="a_Node000010"><a xlink:href="classcam_1_1nc_1_1gravos_1_1Creator.html#ac0bc0d26e8a92a65c0f33d696ad850f5" target="_top" xlink:title="Codes.">
<polygon fill="white" stroke="#666666" points="582,-228 398,-228 398,-209 582,-209 582,-228"/>
<text text-anchor="middle" x="490" y="-216" font-family="Helvetica,sans-Serif" font-size="10.00">cam.nc.gravos.Creator.SPACE_STR</text>
</a>
</g>
</g>
<!-- Node7&#45;&gt;Node10 -->
<g id="edge9_Node000007_Node000010" class="edge">
<title>Node7&#45;&gt;Node10</title>
<g id="a_edge9_Node000007_Node000010"><a xlink:title=" ">
<path fill="none" stroke="#63b8ff" d="M331.97,-191.03C360.1,-195.95 394.63,-201.99 424.14,-207.15"/>
<polygon fill="#63b8ff" stroke="#63b8ff" points="423.9,-210.66 434.35,-208.94 425.1,-203.77 423.9,-210.66"/>
</a>
</g>
</g>
<!-- Node11 -->
<g id="Node000011" class="node">
<title>Node11</title>
<g id="a_Node000011"><a xlink:href="classcam_1_1nc_1_1iso_1_1Creator.html#aa481cf1e394988751640fd5ce5af991e" target="_top" xlink:title="Codes.">
<polygon fill="white" stroke="#666666" points="572.5,-191 407.5,-191 407.5,-172 572.5,-172 572.5,-191"/>
<text text-anchor="middle" x="490" y="-179" font-family="Helvetica,sans-Serif" font-size="10.00">cam.nc.iso.Creator.SPACE_STR</text>
</a>
</g>
</g>
<!-- Node7&#45;&gt;Node11 -->
<g id="edge10_Node000007_Node000011" class="edge">
<title>Node7&#45;&gt;Node11</title>
<g id="a_edge10_Node000007_Node000011"><a xlink:title=" ">
<path fill="none" stroke="#63b8ff" d="M347.05,-181.5C363,-181.5 380.2,-181.5 396.94,-181.5"/>
<polygon fill="#63b8ff" stroke="#63b8ff" points="397.29,-185 407.29,-181.5 397.29,-178 397.29,-185"/>
</a>
</g>
</g>
<!-- Node12 -->
<g id="Node000012" class="node">
<title>Node12</title>
<g id="a_Node000012"><a xlink:href="classcam_1_1nc_1_1lynx__otter__o_1_1Creator.html#a73b176561e066abcdb256a1bf53a5fcc" target="_top" xlink:title="Codes.">
<polygon fill="white" stroke="#666666" points="568.5,-153.5 411.5,-153.5 411.5,-123.5 568.5,-123.5 568.5,-153.5"/>
<text text-anchor="start" x="419.5" y="-141.5" font-family="Helvetica,sans-Serif" font-size="10.00">cam.nc.lynx_otter_o.Creator.</text>
<text text-anchor="middle" x="490" y="-130.5" font-family="Helvetica,sans-Serif" font-size="10.00">SPACE_STR</text>
</a>
</g>
</g>
<!-- Node7&#45;&gt;Node12 -->
<g id="edge11_Node000007_Node000012" class="edge">
<title>Node7&#45;&gt;Node12</title>
<g id="a_edge11_Node000007_Node000012"><a xlink:title=" ">
<path fill="none" stroke="#63b8ff" d="M324.44,-171.96C348.18,-167.13 377.71,-161.13 405.18,-155.54"/>
<polygon fill="#63b8ff" stroke="#63b8ff" points="406.09,-158.93 415.19,-153.51 404.69,-152.07 406.09,-158.93"/>
</a>
</g>
</g>
<!-- Node13 -->
<g id="Node000013" class="node">
<title>Node13</title>
<g id="a_Node000013"><a xlink:href="classcam_1_1nc_1_1mach3_1_1Creator.html#aa461d578afa76c5af9bb5562b79d955a" target="_top" xlink:title="Codes.">
<polygon fill="white" stroke="#666666" points="582,-105 398,-105 398,-86 582,-86 582,-105"/>
<text text-anchor="middle" x="490" y="-93" font-family="Helvetica,sans-Serif" font-size="10.00">cam.nc.mach3.Creator.SPACE_STR</text>
</a>
</g>
</g>
<!-- Node7&#45;&gt;Node13 -->
<g id="edge12_Node000007_Node000013" class="edge">
<title>Node7&#45;&gt;Node13</title>
<g id="a_edge12_Node000007_Node000013"><a xlink:title=" ">
<path fill="none" stroke="#63b8ff" d="M342.64,-171.86C349.46,-169.41 356.07,-166.34 362,-162.5 384.39,-148.01 375.5,-128.81 398,-114.5 401.35,-112.37 404.9,-110.47 408.57,-108.78"/>
<polygon fill="#63b8ff" stroke="#63b8ff" points="409.97,-111.99 417.94,-105 407.35,-105.5 409.97,-111.99"/>
</a>
</g>
</g>
<!-- Node14 -->
<g id="Node000014" class="node">
<title>Node14</title>
<g id="a_Node000014"><a xlink:href="classcam_1_1nc_1_1winpc_1_1Creator.html#aae1cb93a5dd430719105fa03a054f654" target="_top" xlink:title="Codes.">
<polygon fill="white" stroke="#666666" points="579.5,-68 400.5,-68 400.5,-49 579.5,-49 579.5,-68"/>
<text text-anchor="middle" x="490" y="-56" font-family="Helvetica,sans-Serif" font-size="10.00">cam.nc.winpc.Creator.SPACE_STR</text>
</a>
</g>
</g>
<!-- Node7&#45;&gt;Node14 -->
<g id="edge13_Node000007_Node000014" class="edge">
<title>Node7&#45;&gt;Node14</title>
<g id="a_edge13_Node000007_Node000014"><a xlink:title=" ">
<path fill="none" stroke="#63b8ff" d="M346.61,-172C352.16,-169.49 357.39,-166.36 362,-162.5 393.75,-135.88 365.91,-102.71 398,-76.5 399.54,-75.24 401.15,-74.06 402.81,-72.95"/>
<polygon fill="#63b8ff" stroke="#63b8ff" points="404.54,-76 411.52,-68.03 401.09,-69.91 404.54,-76"/>
</a>
</g>
</g>
</g>
</svg>
