<?xml version="1.0" encoding="UTF-8" standalone="no"?>
<!DOCTYPE svg PUBLIC "-//W3C//DTD SVG 1.1//EN"
 "http://www.w3.org/Graphics/SVG/1.1/DTD/svg11.dtd">
<!-- Generated by graphviz version 2.43.0 (0)
 -->
<!-- Title: cam.nc.iso.Creator.comment Pages: 1 -->
<svg width="400pt" height="508pt"
 viewBox="0.00 0.00 400.00 508.00" xmlns="http://www.w3.org/2000/svg" xmlns:xlink="http://www.w3.org/1999/xlink">
<g id="graph0" class="graph" transform="scale(1 1) rotate(0) translate(4 504)">
<title>cam.nc.iso.Creator.comment</title>
<!-- Node1 -->
<g id="Node000001" class="node">
<title>Node1</title>
<g id="a_Node000001"><a xlink:title="Misc.">
<polygon fill="#999999" stroke="#666666" points="392,-254.5 235,-254.5 235,-235.5 392,-235.5 392,-254.5"/>
<text text-anchor="middle" x="313.5" y="-242.5" font-family="Helvetica,sans-Serif" font-size="10.00">cam.nc.iso.Creator.comment</text>
</a>
</g>
</g>
<!-- Node2 -->
<g id="Node000002" class="node">
<title>Node2</title>
<g id="a_Node000002"><a xlink:href="classcam_1_1nc_1_1heiden_1_1Creator.html#ae8e86bcc6f05521bf4b639128e3241ee" target="_top" xlink:title=" ">
<polygon fill="white" stroke="#666666" points="178,-500 21,-500 21,-470 178,-470 178,-500"/>
<text text-anchor="start" x="29" y="-488" font-family="Helvetica,sans-Serif" font-size="10.00">cam.nc.heiden.Creator.probe</text>
<text text-anchor="middle" x="99.5" y="-477" font-family="Helvetica,sans-Serif" font-size="10.00">_downward_point</text>
</a>
</g>
</g>
<!-- Node1&#45;&gt;Node2 -->
<g id="edge1_Node000001_Node000002" class="edge">
<title>Node1&#45;&gt;Node2</title>
<g id="a_edge1_Node000001_Node000002"><a xlink:title=" ">
<path fill="none" stroke="#63b8ff" d="M308.04,-264.51C297.23,-307.17 265.51,-409.06 199,-461 192.76,-465.87 185.67,-469.78 178.22,-472.9"/>
<polygon fill="#63b8ff" stroke="#63b8ff" points="311.49,-265.12 310.44,-254.57 304.69,-263.47 311.49,-265.12"/>
</a>
</g>
</g>
<!-- Node3 -->
<g id="Node000003" class="node">
<title>Node3</title>
<g id="a_Node000003"><a xlink:href="classcam_1_1nc_1_1iso_1_1Creator.html#a40689f45d25f7f726d11a172b608c0a4" target="_top" xlink:title=" ">
<polygon fill="white" stroke="#666666" points="168.5,-452 30.5,-452 30.5,-422 168.5,-422 168.5,-452"/>
<text text-anchor="start" x="38.5" y="-440" font-family="Helvetica,sans-Serif" font-size="10.00">cam.nc.iso.Creator.probe</text>
<text text-anchor="middle" x="99.5" y="-429" font-family="Helvetica,sans-Serif" font-size="10.00">_downward_point</text>
</a>
</g>
</g>
<!-- Node1&#45;&gt;Node3 -->
<g id="edge2_Node000001_Node000003" class="edge">
<title>Node1&#45;&gt;Node3</title>
<g id="a_edge2_Node000001_Node000003"><a xlink:title=" ">
<path fill="none" stroke="#63b8ff" d="M304.99,-264.45C290.29,-299.81 254.25,-374.56 199,-413 189.9,-419.33 179.31,-424 168.52,-427.44"/>
<polygon fill="#63b8ff" stroke="#63b8ff" points="308.38,-265.4 308.86,-254.82 301.88,-262.79 308.38,-265.4"/>
</a>
</g>
</g>
<!-- Node4 -->
<g id="Node000004" class="node">
<title>Node4</title>
<g id="a_Node000004"><a xlink:href="classcam_1_1nc_1_1heiden_1_1Creator.html#a921825a14a9068d234377d7ac3b7777f" target="_top" xlink:title=" ">
<polygon fill="white" stroke="#666666" points="178,-404 21,-404 21,-374 178,-374 178,-404"/>
<text text-anchor="start" x="29" y="-392" font-family="Helvetica,sans-Serif" font-size="10.00">cam.nc.heiden.Creator.probe</text>
<text text-anchor="middle" x="99.5" y="-381" font-family="Helvetica,sans-Serif" font-size="10.00">_single_point</text>
</a>
</g>
</g>
<!-- Node1&#45;&gt;Node4 -->
<g id="edge3_Node000001_Node000004" class="edge">
<title>Node1&#45;&gt;Node4</title>
<g id="a_edge3_Node000001_Node000004"><a xlink:title=" ">
<path fill="none" stroke="#63b8ff" d="M300.72,-262.89C282.29,-289.42 244.03,-338.85 199,-365 192.46,-368.8 185.33,-372 178,-374.7"/>
<polygon fill="#63b8ff" stroke="#63b8ff" points="303.67,-264.78 306.39,-254.54 297.88,-260.85 303.67,-264.78"/>
</a>
</g>
</g>
<!-- Node5 -->
<g id="Node000005" class="node">
<title>Node5</title>
<g id="a_Node000005"><a xlink:href="classcam_1_1nc_1_1iso_1_1Creator.html#adc5343ffd168991077858693d6a79fef" target="_top" xlink:title=" ">
<polygon fill="white" stroke="#666666" points="168.5,-356 30.5,-356 30.5,-326 168.5,-326 168.5,-356"/>
<text text-anchor="start" x="38.5" y="-344" font-family="Helvetica,sans-Serif" font-size="10.00">cam.nc.iso.Creator.probe</text>
<text text-anchor="middle" x="99.5" y="-333" font-family="Helvetica,sans-Serif" font-size="10.00">_single_point</text>
</a>
</g>
</g>
<!-- Node1&#45;&gt;Node5 -->
<g id="edge4_Node000001_Node000005" class="edge">
<title>Node1&#45;&gt;Node5</title>
<g id="a_edge4_Node000001_Node000005"><a xlink:title=" ">
<path fill="none" stroke="#63b8ff" d="M292.14,-260.83C270.27,-277.12 233.92,-302.15 199,-317 189.44,-321.06 179.06,-324.53 168.74,-327.46"/>
<polygon fill="#63b8ff" stroke="#63b8ff" points="294.46,-263.47 300.32,-254.64 290.23,-257.89 294.46,-263.47"/>
</a>
</g>
</g>
<!-- Node6 -->
<g id="Node000006" class="node">
<title>Node6</title>
<g id="a_Node000006"><a xlink:href="classcam_1_1nc_1_1heiden_1_1Creator.html#a1979595ccdc20dcf20f67751d328f25d" target="_top" xlink:title=" ">
<polygon fill="white" stroke="#666666" points="176.5,-308 22.5,-308 22.5,-278 176.5,-278 176.5,-308"/>
<text text-anchor="start" x="30.5" y="-296" font-family="Helvetica,sans-Serif" font-size="10.00">cam.nc.heiden.Creator.rapid</text>
<text text-anchor="middle" x="99.5" y="-285" font-family="Helvetica,sans-Serif" font-size="10.00">_to_intersection</text>
</a>
</g>
</g>
<!-- Node1&#45;&gt;Node6 -->
<g id="edge5_Node000001_Node000006" class="edge">
<title>Node1&#45;&gt;Node6</title>
<g id="a_edge5_Node000001_Node000006"><a xlink:title=" ">
<path fill="none" stroke="#63b8ff" d="M260.3,-256.82C232.07,-263.21 196.91,-271.17 166.77,-278"/>
<polygon fill="#63b8ff" stroke="#63b8ff" points="261.38,-260.16 270.36,-254.54 259.84,-253.34 261.38,-260.16"/>
</a>
</g>
</g>
<!-- Node7 -->
<g id="Node000007" class="node">
<title>Node7</title>
<g id="a_Node000007"><a xlink:href="classcam_1_1nc_1_1iso_1_1Creator.html#a60e5583b4ddafa8966b05d2baa28ea67" target="_top" xlink:title=" ">
<polygon fill="white" stroke="#666666" points="167,-260 32,-260 32,-230 167,-230 167,-260"/>
<text text-anchor="start" x="40" y="-248" font-family="Helvetica,sans-Serif" font-size="10.00">cam.nc.iso.Creator.rapid</text>
<text text-anchor="middle" x="99.5" y="-237" font-family="Helvetica,sans-Serif" font-size="10.00">_to_intersection</text>
</a>
</g>
</g>
<!-- Node1&#45;&gt;Node7 -->
<g id="edge6_Node000001_Node000007" class="edge">
<title>Node1&#45;&gt;Node7</title>
<g id="a_edge6_Node000001_Node000007"><a xlink:title=" ">
<path fill="none" stroke="#63b8ff" d="M224.5,-245C205.29,-245 185.27,-245 167.06,-245"/>
<polygon fill="#63b8ff" stroke="#63b8ff" points="224.76,-248.5 234.76,-245 224.76,-241.5 224.76,-248.5"/>
</a>
</g>
</g>
<!-- Node8 -->
<g id="Node000008" class="node">
<title>Node8</title>
<g id="a_Node000008"><a xlink:href="classcam_1_1nc_1_1heiden_1_1Creator.html#a20686a35918df93542b7b5d4472d3d71" target="_top" xlink:title=" ">
<polygon fill="white" stroke="#666666" points="176.5,-212 22.5,-212 22.5,-182 176.5,-182 176.5,-212"/>
<text text-anchor="start" x="30.5" y="-200" font-family="Helvetica,sans-Serif" font-size="10.00">cam.nc.heiden.Creator.rapid</text>
<text text-anchor="middle" x="99.5" y="-189" font-family="Helvetica,sans-Serif" font-size="10.00">_to_rotated_coordinate</text>
</a>
</g>
</g>
<!-- Node1&#45;&gt;Node8 -->
<g id="edge7_Node000001_Node000008" class="edge">
<title>Node1&#45;&gt;Node8</title>
<g id="a_edge7_Node000001_Node000008"><a xlink:title=" ">
<path fill="none" stroke="#63b8ff" d="M260.3,-233.18C232.07,-226.79 196.91,-218.83 166.77,-212"/>
<polygon fill="#63b8ff" stroke="#63b8ff" points="259.84,-236.66 270.36,-235.46 261.38,-229.84 259.84,-236.66"/>
</a>
</g>
</g>
<!-- Node9 -->
<g id="Node000009" class="node">
<title>Node9</title>
<g id="a_Node000009"><a xlink:href="classcam_1_1nc_1_1iso_1_1Creator.html#affa9a90d01acd946672ba361abfbfffd" target="_top" xlink:title=" ">
<polygon fill="white" stroke="#666666" points="167,-164 32,-164 32,-134 167,-134 167,-164"/>
<text text-anchor="start" x="40" y="-152" font-family="Helvetica,sans-Serif" font-size="10.00">cam.nc.iso.Creator.rapid</text>
<text text-anchor="middle" x="99.5" y="-141" font-family="Helvetica,sans-Serif" font-size="10.00">_to_rotated_coordinate</text>
</a>
</g>
</g>
<!-- Node1&#45;&gt;Node9 -->
<g id="edge8_Node000001_Node000009" class="edge">
<title>Node1&#45;&gt;Node9</title>
<g id="a_edge8_Node000001_Node000009"><a xlink:title=" ">
<path fill="none" stroke="#63b8ff" d="M292.14,-229.17C270.27,-212.88 233.92,-187.85 199,-173 188.96,-168.73 178,-165.12 167.17,-162.1"/>
<polygon fill="#63b8ff" stroke="#63b8ff" points="290.23,-232.11 300.32,-235.36 294.46,-226.53 290.23,-232.11"/>
</a>
</g>
</g>
<!-- Node10 -->
<g id="Node000010" class="node">
<title>Node10</title>
<g id="a_Node000010"><a xlink:href="classcam_1_1nc_1_1emc2_1_1Creator.html#a305cc96f9d28416e6ca475bc62150768" target="_top" xlink:title=" ">
<polygon fill="white" stroke="#666666" points="175.5,-116 23.5,-116 23.5,-86 175.5,-86 175.5,-116"/>
<text text-anchor="start" x="31.5" y="-104" font-family="Helvetica,sans-Serif" font-size="10.00">cam.nc.emc2.Creator.report</text>
<text text-anchor="middle" x="99.5" y="-93" font-family="Helvetica,sans-Serif" font-size="10.00">_probe_results</text>
</a>
</g>
</g>
<!-- Node1&#45;&gt;Node10 -->
<g id="edge9_Node000001_Node000010" class="edge">
<title>Node1&#45;&gt;Node10</title>
<g id="a_edge9_Node000001_Node000010"><a xlink:title=" ">
<path fill="none" stroke="#63b8ff" d="M300.72,-227.11C282.29,-200.58 244.03,-151.15 199,-125 191.77,-120.8 183.83,-117.33 175.7,-114.47"/>
<polygon fill="#63b8ff" stroke="#63b8ff" points="297.88,-229.15 306.39,-235.46 303.67,-225.22 297.88,-229.15"/>
</a>
</g>
</g>
<!-- Node11 -->
<g id="Node000011" class="node">
<title>Node11</title>
<g id="a_Node000011"><a xlink:href="classcam_1_1nc_1_1emc2tap_1_1CreatorEMC2tap.html#ae7c40089d2816698fbe6cfbc9a10a052" target="_top" xlink:title=" ">
<polygon fill="white" stroke="#666666" points="199,-67.5 0,-67.5 0,-48.5 199,-48.5 199,-67.5"/>
<text text-anchor="middle" x="99.5" y="-55.5" font-family="Helvetica,sans-Serif" font-size="10.00">cam.nc.emc2tap.CreatorEMC2tap.tap</text>
</a>
</g>
</g>
<!-- Node1&#45;&gt;Node11 -->
<g id="edge10_Node000001_Node000011" class="edge">
<title>Node1&#45;&gt;Node11</title>
<g id="a_edge10_Node000001_Node000011"><a xlink:title=" ">
<path fill="none" stroke="#63b8ff" d="M305.37,-225.8C291.09,-190.22 255.43,-114.26 199,-77 193.19,-73.16 186.79,-70.06 180.12,-67.55"/>
<polygon fill="#63b8ff" stroke="#63b8ff" points="302.23,-227.4 309.11,-235.46 308.76,-224.87 302.23,-227.4"/>
</a>
</g>
</g>
<!-- Node12 -->
<g id="Node000012" class="node">
<title>Node12</title>
<g id="a_Node000012"><a xlink:href="classcam_1_1nc_1_1iso_1_1Creator.html#a3e61292523aa893f0187112023e51eff" target="_top" xlink:title="Tools.">
<polygon fill="white" stroke="#666666" points="164,-30 35,-30 35,0 164,0 164,-30"/>
<text text-anchor="start" x="43" y="-18" font-family="Helvetica,sans-Serif" font-size="10.00">cam.nc.iso.Creator.tool</text>
<text text-anchor="middle" x="99.5" y="-7" font-family="Helvetica,sans-Serif" font-size="10.00">_change</text>
</a>
</g>
</g>
<!-- Node1&#45;&gt;Node12 -->
<g id="edge11_Node000001_Node000012" class="edge">
<title>Node1&#45;&gt;Node12</title>
<g id="a_edge11_Node000001_Node000012"><a xlink:title=" ">
<path fill="none" stroke="#63b8ff" d="M307.46,-225.69C295.75,-184.78 262.74,-89.15 199,-40 188.87,-32.19 176.58,-26.8 164.16,-23.08"/>
<polygon fill="#63b8ff" stroke="#63b8ff" points="304.13,-226.76 310.15,-235.48 310.88,-224.91 304.13,-226.76"/>
</a>
</g>
</g>
</g>
</svg>
