<?xml version="1.0" encoding="UTF-8" standalone="no"?>
<!DOCTYPE svg PUBLIC "-//W3C//DTD SVG 1.1//EN"
 "http://www.w3.org/Graphics/SVG/1.1/DTD/svg11.dtd">
<!-- Generated by graphviz version 2.43.0 (0)
 -->
<!-- Title: cam.nc.winpc.Creator.comment Pages: 1 -->
<svg width="414pt" height="508pt"
 viewBox="0.00 0.00 414.00 508.00" xmlns="http://www.w3.org/2000/svg" xmlns:xlink="http://www.w3.org/1999/xlink">
<g id="graph0" class="graph" transform="scale(1 1) rotate(0) translate(4 504)">
<title>cam.nc.winpc.Creator.comment</title>
<!-- Node1 -->
<g id="Node000001" class="node">
<title>Node1</title>
<g id="a_Node000001"><a xlink:title="Misc.">
<polygon fill="#999999" stroke="#666666" points="406,-254.5 235,-254.5 235,-235.5 406,-235.5 406,-254.5"/>
<text text-anchor="middle" x="320.5" y="-242.5" font-family="Helvetica,sans-Serif" font-size="10.00">cam.nc.winpc.Creator.comment</text>
</a>
</g>
</g>
<!-- Node2 -->
<g id="Node000002" class="node">
<title>Node2</title>
<g id="a_Node000002"><a xlink:href="classcam_1_1nc_1_1heiden_1_1Creator.html#ae8e86bcc6f05521bf4b639128e3241ee" target="_top" xlink:title=" ">
<polygon fill="white" stroke="#666666" points="178,-500 21,-500 21,-470 178,-470 178,-500"/>
<text text-anchor="start" x="29" y="-488" font-family="Helvetica,sans-Serif" font-size="10.00">cam.nc.heiden.Creator.probe</text>
<text text-anchor="middle" x="99.5" y="-477" font-family="Helvetica,sans-Serif" font-size="10.00">_downward_point</text>
</a>
</g>
</g>
<!-- Node1&#45;&gt;Node2 -->
<g id="edge1_Node000001_Node000002" class="edge">
<title>Node1&#45;&gt;Node2</title>
<g id="a_edge1_Node000001_Node000002"><a xlink:title=" ">
<path fill="none" stroke="#63b8ff" d="M314.47,-264.26C302.32,-306.8 267.22,-409.09 199,-461 192.7,-465.8 185.57,-469.65 178.09,-472.74"/>
<polygon fill="#63b8ff" stroke="#63b8ff" points="317.85,-265.15 317.13,-254.58 311.1,-263.3 317.85,-265.15"/>
</a>
</g>
</g>
<!-- Node3 -->
<g id="Node000003" class="node">
<title>Node3</title>
<g id="a_Node000003"><a xlink:href="classcam_1_1nc_1_1iso_1_1Creator.html#a40689f45d25f7f726d11a172b608c0a4" target="_top" xlink:title=" ">
<polygon fill="white" stroke="#666666" points="168.5,-452 30.5,-452 30.5,-422 168.5,-422 168.5,-452"/>
<text text-anchor="start" x="38.5" y="-440" font-family="Helvetica,sans-Serif" font-size="10.00">cam.nc.iso.Creator.probe</text>
<text text-anchor="middle" x="99.5" y="-429" font-family="Helvetica,sans-Serif" font-size="10.00">_downward_point</text>
</a>
</g>
</g>
<!-- Node1&#45;&gt;Node3 -->
<g id="edge2_Node000001_Node000003" class="edge">
<title>Node1&#45;&gt;Node3</title>
<g id="a_edge2_Node000001_Node000003"><a xlink:title=" ">
<path fill="none" stroke="#63b8ff" d="M311.39,-264C295.36,-299.19 256.13,-374.43 199,-413 189.88,-419.15 179.35,-423.73 168.63,-427.14"/>
<polygon fill="#63b8ff" stroke="#63b8ff" points="314.61,-265.38 315.46,-254.82 308.21,-262.55 314.61,-265.38"/>
</a>
</g>
</g>
<!-- Node4 -->
<g id="Node000004" class="node">
<title>Node4</title>
<g id="a_Node000004"><a xlink:href="classcam_1_1nc_1_1heiden_1_1Creator.html#a921825a14a9068d234377d7ac3b7777f" target="_top" xlink:title=" ">
<polygon fill="white" stroke="#666666" points="178,-404 21,-404 21,-374 178,-374 178,-404"/>
<text text-anchor="start" x="29" y="-392" font-family="Helvetica,sans-Serif" font-size="10.00">cam.nc.heiden.Creator.probe</text>
<text text-anchor="middle" x="99.5" y="-381" font-family="Helvetica,sans-Serif" font-size="10.00">_single_point</text>
</a>
</g>
</g>
<!-- Node1&#45;&gt;Node4 -->
<g id="edge3_Node000001_Node000004" class="edge">
<title>Node1&#45;&gt;Node4</title>
<g id="a_edge3_Node000001_Node000004"><a xlink:title=" ">
<path fill="none" stroke="#63b8ff" d="M306.73,-262.87C286.81,-289.37 245.76,-338.77 199,-365 192.48,-368.66 185.4,-371.77 178.14,-374.4"/>
<polygon fill="#63b8ff" stroke="#63b8ff" points="309.76,-264.66 312.87,-254.53 304.12,-260.51 309.76,-264.66"/>
</a>
</g>
</g>
<!-- Node5 -->
<g id="Node000005" class="node">
<title>Node5</title>
<g id="a_Node000005"><a xlink:href="classcam_1_1nc_1_1iso_1_1Creator.html#adc5343ffd168991077858693d6a79fef" target="_top" xlink:title=" ">
<polygon fill="white" stroke="#666666" points="168.5,-356 30.5,-356 30.5,-326 168.5,-326 168.5,-356"/>
<text text-anchor="start" x="38.5" y="-344" font-family="Helvetica,sans-Serif" font-size="10.00">cam.nc.iso.Creator.probe</text>
<text text-anchor="middle" x="99.5" y="-333" font-family="Helvetica,sans-Serif" font-size="10.00">_single_point</text>
</a>
</g>
</g>
<!-- Node1&#45;&gt;Node5 -->
<g id="edge4_Node000001_Node000005" class="edge">
<title>Node1&#45;&gt;Node5</title>
<g id="a_edge4_Node000001_Node000005"><a xlink:title=" ">
<path fill="none" stroke="#63b8ff" d="M298.04,-260.55C274.71,-276.77 235.83,-301.91 199,-317 189.39,-320.94 178.98,-324.33 168.64,-327.23"/>
<polygon fill="#63b8ff" stroke="#63b8ff" points="300.31,-263.22 306.46,-254.6 296.27,-257.51 300.31,-263.22"/>
</a>
</g>
</g>
<!-- Node6 -->
<g id="Node000006" class="node">
<title>Node6</title>
<g id="a_Node000006"><a xlink:href="classcam_1_1nc_1_1heiden_1_1Creator.html#a1979595ccdc20dcf20f67751d328f25d" target="_top" xlink:title=" ">
<polygon fill="white" stroke="#666666" points="176.5,-308 22.5,-308 22.5,-278 176.5,-278 176.5,-308"/>
<text text-anchor="start" x="30.5" y="-296" font-family="Helvetica,sans-Serif" font-size="10.00">cam.nc.heiden.Creator.rapid</text>
<text text-anchor="middle" x="99.5" y="-285" font-family="Helvetica,sans-Serif" font-size="10.00">_to_intersection</text>
</a>
</g>
</g>
<!-- Node1&#45;&gt;Node6 -->
<g id="edge5_Node000001_Node000006" class="edge">
<title>Node1&#45;&gt;Node6</title>
<g id="a_edge5_Node000001_Node000006"><a xlink:title=" ">
<path fill="none" stroke="#63b8ff" d="M265.96,-256.74C236.73,-263.14 200.23,-271.14 168.95,-278"/>
<polygon fill="#63b8ff" stroke="#63b8ff" points="266.95,-260.1 275.97,-254.54 265.45,-253.26 266.95,-260.1"/>
</a>
</g>
</g>
<!-- Node7 -->
<g id="Node000007" class="node">
<title>Node7</title>
<g id="a_Node000007"><a xlink:href="classcam_1_1nc_1_1iso_1_1Creator.html#a60e5583b4ddafa8966b05d2baa28ea67" target="_top" xlink:title=" ">
<polygon fill="white" stroke="#666666" points="167,-260 32,-260 32,-230 167,-230 167,-260"/>
<text text-anchor="start" x="40" y="-248" font-family="Helvetica,sans-Serif" font-size="10.00">cam.nc.iso.Creator.rapid</text>
<text text-anchor="middle" x="99.5" y="-237" font-family="Helvetica,sans-Serif" font-size="10.00">_to_intersection</text>
</a>
</g>
</g>
<!-- Node1&#45;&gt;Node7 -->
<g id="edge6_Node000001_Node000007" class="edge">
<title>Node1&#45;&gt;Node7</title>
<g id="a_edge6_Node000001_Node000007"><a xlink:title=" ">
<path fill="none" stroke="#63b8ff" d="M224.78,-245C205.42,-245 185.43,-245 167.3,-245"/>
<polygon fill="#63b8ff" stroke="#63b8ff" points="224.83,-248.5 234.83,-245 224.83,-241.5 224.83,-248.5"/>
</a>
</g>
</g>
<!-- Node8 -->
<g id="Node000008" class="node">
<title>Node8</title>
<g id="a_Node000008"><a xlink:href="classcam_1_1nc_1_1heiden_1_1Creator.html#a20686a35918df93542b7b5d4472d3d71" target="_top" xlink:title=" ">
<polygon fill="white" stroke="#666666" points="176.5,-212 22.5,-212 22.5,-182 176.5,-182 176.5,-212"/>
<text text-anchor="start" x="30.5" y="-200" font-family="Helvetica,sans-Serif" font-size="10.00">cam.nc.heiden.Creator.rapid</text>
<text text-anchor="middle" x="99.5" y="-189" font-family="Helvetica,sans-Serif" font-size="10.00">_to_rotated_coordinate</text>
</a>
</g>
</g>
<!-- Node1&#45;&gt;Node8 -->
<g id="edge7_Node000001_Node000008" class="edge">
<title>Node1&#45;&gt;Node8</title>
<g id="a_edge7_Node000001_Node000008"><a xlink:title=" ">
<path fill="none" stroke="#63b8ff" d="M265.96,-233.26C236.73,-226.86 200.23,-218.86 168.95,-212"/>
<polygon fill="#63b8ff" stroke="#63b8ff" points="265.45,-236.74 275.97,-235.46 266.95,-229.9 265.45,-236.74"/>
</a>
</g>
</g>
<!-- Node9 -->
<g id="Node000009" class="node">
<title>Node9</title>
<g id="a_Node000009"><a xlink:href="classcam_1_1nc_1_1iso_1_1Creator.html#affa9a90d01acd946672ba361abfbfffd" target="_top" xlink:title=" ">
<polygon fill="white" stroke="#666666" points="167,-164 32,-164 32,-134 167,-134 167,-164"/>
<text text-anchor="start" x="40" y="-152" font-family="Helvetica,sans-Serif" font-size="10.00">cam.nc.iso.Creator.rapid</text>
<text text-anchor="middle" x="99.5" y="-141" font-family="Helvetica,sans-Serif" font-size="10.00">_to_rotated_coordinate</text>
</a>
</g>
</g>
<!-- Node1&#45;&gt;Node9 -->
<g id="edge8_Node000001_Node000009" class="edge">
<title>Node1&#45;&gt;Node9</title>
<g id="a_edge8_Node000001_Node000009"><a xlink:title=" ">
<path fill="none" stroke="#63b8ff" d="M298.04,-229.45C274.71,-213.23 235.83,-188.09 199,-173 188.9,-168.86 177.92,-165.32 167.07,-162.33"/>
<polygon fill="#63b8ff" stroke="#63b8ff" points="296.27,-232.49 306.46,-235.4 300.31,-226.78 296.27,-232.49"/>
</a>
</g>
</g>
<!-- Node10 -->
<g id="Node000010" class="node">
<title>Node10</title>
<g id="a_Node000010"><a xlink:href="classcam_1_1nc_1_1emc2_1_1Creator.html#a305cc96f9d28416e6ca475bc62150768" target="_top" xlink:title=" ">
<polygon fill="white" stroke="#666666" points="175.5,-116 23.5,-116 23.5,-86 175.5,-86 175.5,-116"/>
<text text-anchor="start" x="31.5" y="-104" font-family="Helvetica,sans-Serif" font-size="10.00">cam.nc.emc2.Creator.report</text>
<text text-anchor="middle" x="99.5" y="-93" font-family="Helvetica,sans-Serif" font-size="10.00">_probe_results</text>
</a>
</g>
</g>
<!-- Node1&#45;&gt;Node10 -->
<g id="edge9_Node000001_Node000010" class="edge">
<title>Node1&#45;&gt;Node10</title>
<g id="a_edge9_Node000001_Node000010"><a xlink:title=" ">
<path fill="none" stroke="#63b8ff" d="M306.73,-227.13C286.81,-200.63 245.76,-151.23 199,-125 191.71,-120.91 183.73,-117.51 175.57,-114.69"/>
<polygon fill="#63b8ff" stroke="#63b8ff" points="304.12,-229.49 312.87,-235.47 309.76,-225.34 304.12,-229.49"/>
</a>
</g>
</g>
<!-- Node11 -->
<g id="Node000011" class="node">
<title>Node11</title>
<g id="a_Node000011"><a xlink:href="classcam_1_1nc_1_1emc2tap_1_1CreatorEMC2tap.html#ae7c40089d2816698fbe6cfbc9a10a052" target="_top" xlink:title=" ">
<polygon fill="white" stroke="#666666" points="199,-67.5 0,-67.5 0,-48.5 199,-48.5 199,-67.5"/>
<text text-anchor="middle" x="99.5" y="-55.5" font-family="Helvetica,sans-Serif" font-size="10.00">cam.nc.emc2tap.CreatorEMC2tap.tap</text>
</a>
</g>
</g>
<!-- Node1&#45;&gt;Node11 -->
<g id="edge10_Node000001_Node000011" class="edge">
<title>Node1&#45;&gt;Node11</title>
<g id="a_edge10_Node000001_Node000011"><a xlink:title=" ">
<path fill="none" stroke="#63b8ff" d="M311.79,-226.25C296.18,-190.84 257.32,-114.35 199,-77 192.99,-73.15 186.37,-70.04 179.51,-67.55"/>
<polygon fill="#63b8ff" stroke="#63b8ff" points="308.57,-227.64 315.72,-235.45 315.01,-224.88 308.57,-227.64"/>
</a>
</g>
</g>
<!-- Node12 -->
<g id="Node000012" class="node">
<title>Node12</title>
<g id="a_Node000012"><a xlink:href="classcam_1_1nc_1_1iso_1_1Creator.html#a3e61292523aa893f0187112023e51eff" target="_top" xlink:title="Tools.">
<polygon fill="white" stroke="#666666" points="164,-30 35,-30 35,0 164,0 164,-30"/>
<text text-anchor="start" x="43" y="-18" font-family="Helvetica,sans-Serif" font-size="10.00">cam.nc.iso.Creator.tool</text>
<text text-anchor="middle" x="99.5" y="-7" font-family="Helvetica,sans-Serif" font-size="10.00">_change</text>
</a>
</g>
</g>
<!-- Node1&#45;&gt;Node12 -->
<g id="edge11_Node000001_Node000012" class="edge">
<title>Node1&#45;&gt;Node12</title>
<g id="a_edge11_Node000001_Node000012"><a xlink:title=" ">
<path fill="none" stroke="#63b8ff" d="M313.79,-225.67C300.65,-184.73 264.32,-89.04 199,-40 188.77,-32.32 176.44,-26.99 164.01,-23.28"/>
<polygon fill="#63b8ff" stroke="#63b8ff" points="310.52,-226.95 316.82,-235.47 317.21,-224.88 310.52,-226.95"/>
</a>
</g>
</g>
</g>
</svg>
