<?xml version="1.0" encoding="UTF-8" standalone="no"?>
<!DOCTYPE svg PUBLIC "-//W3C//DTD SVG 1.1//EN"
 "http://www.w3.org/Graphics/SVG/1.1/DTD/svg11.dtd">
<!-- Generated by graphviz version 2.43.0 (0)
 -->
<!-- Title: cam.nc.shopbot_mtc.Creator.variable Pages: 1 -->
<svg width="419pt" height="113pt"
 viewBox="0.00 0.00 419.00 112.50" xmlns="http://www.w3.org/2000/svg" xmlns:xlink="http://www.w3.org/1999/xlink">
<g id="graph0" class="graph" transform="scale(1 1) rotate(0) translate(4 108.5)">
<title>cam.nc.shopbot_mtc.Creator.variable</title>
<!-- Node1 -->
<g id="Node000001" class="node">
<title>Node1</title>
<g id="a_Node000001"><a xlink:title=" ">
<polygon fill="#999999" stroke="#666666" points="199,-67.5 0,-67.5 0,-48.5 199,-48.5 199,-67.5"/>
<text text-anchor="middle" x="99.5" y="-55.5" font-family="Helvetica,sans-Serif" font-size="10.00">cam.nc.shopbot_mtc.Creator.variable</text>
</a>
</g>
</g>
<!-- Node2 -->
<g id="Node000002" class="node">
<title>Node2</title>
<g id="a_Node000002"><a xlink:href="classcam_1_1nc_1_1heiden_1_1Creator.html#a64e11d84fdbb9d31757b1f0c7a1c25db" target="_top" xlink:title=" ">
<polygon fill="white" stroke="#666666" points="411,-104.5 235,-104.5 235,-85.5 411,-85.5 411,-104.5"/>
<text text-anchor="middle" x="323" y="-92.5" font-family="Helvetica,sans-Serif" font-size="10.00">cam.nc.heiden.Creator.VARIABLE</text>
</a>
</g>
</g>
<!-- Node1&#45;&gt;Node2 -->
<g id="edge1_Node000001_Node000002" class="edge">
<title>Node1&#45;&gt;Node2</title>
<g id="a_edge1_Node000001_Node000002"><a xlink:title=" ">
<path fill="none" stroke="#63b8ff" d="M157.54,-67.53C187.27,-72.49 223.8,-78.6 254.88,-83.79"/>
<polygon fill="#63b8ff" stroke="#63b8ff" points="254.33,-87.24 264.77,-85.44 255.48,-80.34 254.33,-87.24"/>
</a>
</g>
</g>
<!-- Node3 -->
<g id="Node000003" class="node">
<title>Node3</title>
<g id="a_Node000003"><a xlink:href="classcam_1_1nc_1_1iso_1_1Creator.html#a7353e8f9700ce2a913b2032aa8badbd5" target="_top" xlink:title=" ">
<polygon fill="white" stroke="#666666" points="402,-67.5 244,-67.5 244,-48.5 402,-48.5 402,-67.5"/>
<text text-anchor="middle" x="323" y="-55.5" font-family="Helvetica,sans-Serif" font-size="10.00">cam.nc.iso.Creator.VARIABLE</text>
</a>
</g>
</g>
<!-- Node1&#45;&gt;Node3 -->
<g id="edge2_Node000001_Node000003" class="edge">
<title>Node1&#45;&gt;Node3</title>
<g id="a_edge2_Node000001_Node000003"><a xlink:title=" ">
<path fill="none" stroke="#63b8ff" d="M199.27,-58C210.66,-58 222.23,-58 233.47,-58"/>
<polygon fill="#63b8ff" stroke="#63b8ff" points="233.7,-61.5 243.7,-58 233.7,-54.5 233.7,-61.5"/>
</a>
</g>
</g>
<!-- Node4 -->
<g id="Node000004" class="node">
<title>Node4</title>
<g id="a_Node000004"><a xlink:href="classcam_1_1nc_1_1makerbot__codes_1_1Codes.html#a55b7873fe223a5265274842df1167604" target="_top" xlink:title=" ">
<polygon fill="white" stroke="#666666" points="408.5,-30 237.5,-30 237.5,0 408.5,0 408.5,-30"/>
<text text-anchor="start" x="245.5" y="-18" font-family="Helvetica,sans-Serif" font-size="10.00">cam.nc.makerbot_codes.Codes.</text>
<text text-anchor="middle" x="323" y="-7" font-family="Helvetica,sans-Serif" font-size="10.00">VARIABLE</text>
</a>
</g>
</g>
<!-- Node1&#45;&gt;Node4 -->
<g id="edge3_Node000001_Node000004" class="edge">
<title>Node1&#45;&gt;Node4</title>
<g id="a_edge3_Node000001_Node000004"><a xlink:title=" ">
<path fill="none" stroke="#63b8ff" d="M149.66,-48.46C174.63,-43.61 205.72,-37.57 234.59,-31.97"/>
<polygon fill="#63b8ff" stroke="#63b8ff" points="235.55,-35.35 244.7,-30.01 234.22,-28.48 235.55,-35.35"/>
</a>
</g>
</g>
</g>
</svg>
