<?xml version="1.0" encoding="UTF-8" standalone="no"?>
<!DOCTYPE svg PUBLIC "-//W3C//DTD SVG 1.1//EN"
 "http://www.w3.org/Graphics/SVG/1.1/DTD/svg11.dtd">
<!-- Generated by graphviz version 2.43.0 (0)
 -->
<!-- Title: cam.nc.heiden530.Creator.comment Pages: 1 -->
<!--zoomable 508 -->

<svg id="main" version="1.1" xmlns="http://www.w3.org/2000/svg" xmlns:xlink="http://www.w3.org/1999/xlink" xml:space="preserve" onload="init(evt)">
<style type="text/css"><![CDATA[
.node, .edge {opacity: 0.7;}
.node.selected, .edge.selected {opacity: 1;}
.edge:hover path { stroke: red; }
.edge:hover polygon { stroke: red; fill: red; }
]]></style>

<defs>
  <circle id="rim" cx="0" cy="0" r="7"/>
  <circle id="rim2" cx="0" cy="0" r="3.5"/>
  <g id="zoomPlus">
    <use xlink:href="#rim" fill="#404040"><set attributeName="fill" to="#808080" begin="zoomplus.mouseover" end="zoomplus.mouseout"/></use>
    <path d="M-4,0h8M0,-4v8" fill="none" stroke="white" stroke-width="1.5" pointer-events="none"/>
  </g>
  <g id="zoomMin">
    <use xlink:href="#rim" fill="#404040"><set attributeName="fill" to="#808080" begin="zoomminus.mouseover" end="zoomminus.mouseout"/></use>
    <path d="M-4,0h8" fill="none" stroke="white" stroke-width="1.5" pointer-events="none"/>
  </g>
  <g id="arrowUp" transform="translate(30 24)">
    <use xlink:href="#rim"/>
    <path pointer-events="none" fill="none" stroke="white" stroke-width="1.5" d="M0,-3.0v7 M-2.5,-0.5L0,-3.0L2.5,-0.5"/>
  </g>
  <g id="arrowRight" transform="rotate(90) translate(36 -43)">
    <use xlink:href="#rim"/>
    <path pointer-events="none" fill="none" stroke="white" stroke-width="1.5" d="M0,-3.0v7 M-2.5,-0.5L0,-3.0L2.5,-0.5"/>
  </g>
  <g id="arrowDown" transform="rotate(180) translate(-30 -48)">
    <use xlink:href="#rim"/>
    <path pointer-events="none" fill="none" stroke="white" stroke-width="1.5" d="M0,-3.0v7 M-2.5,-0.5L0,-3.0L2.5,-0.5"/>
  </g>
  <g id="arrowLeft" transform="rotate(270) translate(-36 17)">
    <use xlink:href="#rim"/>
    <path pointer-events="none" fill="none" stroke="white" stroke-width="1.5" d="M0,-3.0v7 M-2.5,-0.5L0,-3.0L2.5,-0.5"/>
  </g>
  <g id="resetDef">
    <use xlink:href="#rim2" fill="#404040"><set attributeName="fill" to="#808080" begin="reset.mouseover" end="reset.mouseout"/></use>
  </g>
</defs>
<script type="application/ecmascript">
var viewWidth = 437;
var viewHeight = 508;
var sectionId = 'dynsection-9';
</script>
<script type="application/ecmascript" xlink:href="svg.min.js"/>
<svg id="graph" class="graph">
<g id="viewport">
<title>cam.nc.heiden530.Creator.comment</title>
<!-- Node1 -->
<g id="Node000001" class="node">
<title>Node1</title>
<g id="a_Node000001"><a xlink:title="Misc.">
<polygon fill="#999999" stroke="#666666" points="429,-254.5 235,-254.5 235,-235.5 429,-235.5 429,-254.5"/>
<text text-anchor="middle" x="332" y="-242.5" font-family="Helvetica,sans-Serif" font-size="10.00">cam.nc.heiden530.Creator.comment</text>
</a>
</g>
</g>
<!-- Node2 -->
<g id="Node000002" class="node">
<title>Node2</title>
<g id="a_Node000002"><a xlink:href="classcam_1_1nc_1_1heiden_1_1Creator.html#ae8e86bcc6f05521bf4b639128e3241ee" target="_top" xlink:title=" ">
<polygon fill="white" stroke="#666666" points="178,-500 21,-500 21,-470 178,-470 178,-500"/>
<text text-anchor="start" x="29" y="-488" font-family="Helvetica,sans-Serif" font-size="10.00">cam.nc.heiden.Creator.probe</text>
<text text-anchor="middle" x="99.5" y="-477" font-family="Helvetica,sans-Serif" font-size="10.00">_downward_point</text>
</a>
</g>
</g>
<!-- Node1&#45;&gt;Node2 -->
<g id="edge1_Node000001_Node000002" class="edge">
<title>Node1&#45;&gt;Node2</title>
<g id="a_edge1_Node000001_Node000002"><a xlink:title=" ">
<path fill="none" stroke="#63b8ff" d="M324.92,-264.29C310.47,-306.88 269.86,-409.27 199,-461 192.67,-465.62 185.57,-469.36 178.15,-472.38"/>
<polygon fill="#63b8ff" stroke="#63b8ff" points="328.31,-265.19 328.11,-254.6 321.66,-263.01 328.31,-265.19"/>
</a>
</g>
</g>
<!-- Node3 -->
<g id="Node000003" class="node">
<title>Node3</title>
<g id="a_Node000003"><a xlink:href="classcam_1_1nc_1_1iso_1_1Creator.html#a40689f45d25f7f726d11a172b608c0a4" target="_top" xlink:title=" ">
<polygon fill="white" stroke="#666666" points="168.5,-452 30.5,-452 30.5,-422 168.5,-422 168.5,-452"/>
<text text-anchor="start" x="38.5" y="-440" font-family="Helvetica,sans-Serif" font-size="10.00">cam.nc.iso.Creator.probe</text>
<text text-anchor="middle" x="99.5" y="-429" font-family="Helvetica,sans-Serif" font-size="10.00">_downward_point</text>
</a>
</g>
</g>
<!-- Node1&#45;&gt;Node3 -->
<g id="edge2_Node000001_Node000003" class="edge">
<title>Node1&#45;&gt;Node3</title>
<g id="a_edge2_Node000001_Node000003"><a xlink:title=" ">
<path fill="none" stroke="#63b8ff" d="M321.62,-264C303.21,-299.19 258.9,-374.45 199,-413 189.82,-418.91 179.32,-423.36 168.66,-426.72"/>
<polygon fill="#63b8ff" stroke="#63b8ff" points="324.87,-265.32 326.3,-254.82 318.64,-262.14 324.87,-265.32"/>
</a>
</g>
</g>
<!-- Node4 -->
<g id="Node000004" class="node">
<title>Node4</title>
<g id="a_Node000004"><a xlink:href="classcam_1_1nc_1_1heiden_1_1Creator.html#a921825a14a9068d234377d7ac3b7777f" target="_top" xlink:title=" ">
<polygon fill="white" stroke="#666666" points="178,-404 21,-404 21,-374 178,-374 178,-404"/>
<text text-anchor="start" x="29" y="-392" font-family="Helvetica,sans-Serif" font-size="10.00">cam.nc.heiden.Creator.probe</text>
<text text-anchor="middle" x="99.5" y="-381" font-family="Helvetica,sans-Serif" font-size="10.00">_single_point</text>
</a>
</g>
</g>
<!-- Node1&#45;&gt;Node4 -->
<g id="edge3_Node000001_Node000004" class="edge">
<title>Node1&#45;&gt;Node4</title>
<g id="a_edge3_Node000001_Node000004"><a xlink:title=" ">
<path fill="none" stroke="#63b8ff" d="M316.91,-262.49C294.69,-288.85 248.88,-338.5 199,-365 192.47,-368.47 185.43,-371.45 178.23,-374"/>
<polygon fill="#63b8ff" stroke="#63b8ff" points="319.83,-264.44 323.51,-254.51 314.44,-259.98 319.83,-264.44"/>
</a>
</g>
</g>
<!-- Node5 -->
<g id="Node000005" class="node">
<title>Node5</title>
<g id="a_Node000005"><a xlink:href="classcam_1_1nc_1_1iso_1_1Creator.html#adc5343ffd168991077858693d6a79fef" target="_top" xlink:title=" ">
<polygon fill="white" stroke="#666666" points="168.5,-356 30.5,-356 30.5,-326 168.5,-326 168.5,-356"/>
<text text-anchor="start" x="38.5" y="-344" font-family="Helvetica,sans-Serif" font-size="10.00">cam.nc.iso.Creator.probe</text>
<text text-anchor="middle" x="99.5" y="-333" font-family="Helvetica,sans-Serif" font-size="10.00">_single_point</text>
</a>
</g>
</g>
<!-- Node1&#45;&gt;Node5 -->
<g id="edge4_Node000001_Node000005" class="edge">
<title>Node1&#45;&gt;Node5</title>
<g id="a_edge4_Node000001_Node000005"><a xlink:title=" ">
<path fill="none" stroke="#63b8ff" d="M307.94,-260C282.27,-276.11 239.11,-301.48 199,-317 189.32,-320.75 178.86,-324.04 168.51,-326.89"/>
<polygon fill="#63b8ff" stroke="#63b8ff" points="310,-262.84 316.56,-254.52 306.25,-256.93 310,-262.84"/>
</a>
</g>
</g>
<!-- Node6 -->
<g id="Node000006" class="node">
<title>Node6</title>
<g id="a_Node000006"><a xlink:href="classcam_1_1nc_1_1heiden_1_1Creator.html#a1979595ccdc20dcf20f67751d328f25d" target="_top" xlink:title=" ">
<polygon fill="white" stroke="#666666" points="176.5,-308 22.5,-308 22.5,-278 176.5,-278 176.5,-308"/>
<text text-anchor="start" x="30.5" y="-296" font-family="Helvetica,sans-Serif" font-size="10.00">cam.nc.heiden.Creator.rapid</text>
<text text-anchor="middle" x="99.5" y="-285" font-family="Helvetica,sans-Serif" font-size="10.00">_to_intersection</text>
</a>
</g>
</g>
<!-- Node1&#45;&gt;Node6 -->
<g id="edge5_Node000001_Node000006" class="edge">
<title>Node1&#45;&gt;Node6</title>
<g id="a_edge5_Node000001_Node000006"><a xlink:title=" ">
<path fill="none" stroke="#63b8ff" d="M275.05,-256.65C244.22,-263.07 205.61,-271.11 172.55,-278"/>
<polygon fill="#63b8ff" stroke="#63b8ff" points="276.11,-260.01 285.19,-254.54 274.68,-253.15 276.11,-260.01"/>
</a>
</g>
</g>
<!-- Node7 -->
<g id="Node000007" class="node">
<title>Node7</title>
<g id="a_Node000007"><a xlink:href="classcam_1_1nc_1_1iso_1_1Creator.html#a60e5583b4ddafa8966b05d2baa28ea67" target="_top" xlink:title=" ">
<polygon fill="white" stroke="#666666" points="167,-260 32,-260 32,-230 167,-230 167,-260"/>
<text text-anchor="start" x="40" y="-248" font-family="Helvetica,sans-Serif" font-size="10.00">cam.nc.iso.Creator.rapid</text>
<text text-anchor="middle" x="99.5" y="-237" font-family="Helvetica,sans-Serif" font-size="10.00">_to_intersection</text>
</a>
</g>
</g>
<!-- Node1&#45;&gt;Node7 -->
<g id="edge6_Node000001_Node000007" class="edge">
<title>Node1&#45;&gt;Node7</title>
<g id="a_edge6_Node000001_Node000007"><a xlink:title=" ">
<path fill="none" stroke="#63b8ff" d="M224.74,-245C205.19,-245 185.3,-245 167.33,-245"/>
<polygon fill="#63b8ff" stroke="#63b8ff" points="224.92,-248.5 234.92,-245 224.92,-241.5 224.92,-248.5"/>
</a>
</g>
</g>
<!-- Node8 -->
<g id="Node000008" class="node">
<title>Node8</title>
<g id="a_Node000008"><a xlink:href="classcam_1_1nc_1_1heiden_1_1Creator.html#a20686a35918df93542b7b5d4472d3d71" target="_top" xlink:title=" ">
<polygon fill="white" stroke="#666666" points="176.5,-212 22.5,-212 22.5,-182 176.5,-182 176.5,-212"/>
<text text-anchor="start" x="30.5" y="-200" font-family="Helvetica,sans-Serif" font-size="10.00">cam.nc.heiden.Creator.rapid</text>
<text text-anchor="middle" x="99.5" y="-189" font-family="Helvetica,sans-Serif" font-size="10.00">_to_rotated_coordinate</text>
</a>
</g>
</g>
<!-- Node1&#45;&gt;Node8 -->
<g id="edge7_Node000001_Node000008" class="edge">
<title>Node1&#45;&gt;Node8</title>
<g id="a_edge7_Node000001_Node000008"><a xlink:title=" ">
<path fill="none" stroke="#63b8ff" d="M275.05,-233.35C244.22,-226.93 205.61,-218.89 172.55,-212"/>
<polygon fill="#63b8ff" stroke="#63b8ff" points="274.68,-236.85 285.19,-235.46 276.11,-229.99 274.68,-236.85"/>
</a>
</g>
</g>
<!-- Node9 -->
<g id="Node000009" class="node">
<title>Node9</title>
<g id="a_Node000009"><a xlink:href="classcam_1_1nc_1_1iso_1_1Creator.html#affa9a90d01acd946672ba361abfbfffd" target="_top" xlink:title=" ">
<polygon fill="white" stroke="#666666" points="167,-164 32,-164 32,-134 167,-134 167,-164"/>
<text text-anchor="start" x="40" y="-152" font-family="Helvetica,sans-Serif" font-size="10.00">cam.nc.iso.Creator.rapid</text>
<text text-anchor="middle" x="99.5" y="-141" font-family="Helvetica,sans-Serif" font-size="10.00">_to_rotated_coordinate</text>
</a>
</g>
</g>
<!-- Node1&#45;&gt;Node9 -->
<g id="edge8_Node000001_Node000009" class="edge">
<title>Node1&#45;&gt;Node9</title>
<g id="a_edge8_Node000001_Node000009"><a xlink:title=" ">
<path fill="none" stroke="#63b8ff" d="M307.94,-230C282.27,-213.89 239.11,-188.52 199,-173 188.9,-169.09 177.98,-165.68 167.19,-162.75"/>
<polygon fill="#63b8ff" stroke="#63b8ff" points="306.25,-233.07 316.56,-235.48 310,-227.16 306.25,-233.07"/>
</a>
</g>
</g>
<!-- Node10 -->
<g id="Node000010" class="node">
<title>Node10</title>
<g id="a_Node000010"><a xlink:href="classcam_1_1nc_1_1emc2_1_1Creator.html#a305cc96f9d28416e6ca475bc62150768" target="_top" xlink:title=" ">
<polygon fill="white" stroke="#666666" points="175.5,-116 23.5,-116 23.5,-86 175.5,-86 175.5,-116"/>
<text text-anchor="start" x="31.5" y="-104" font-family="Helvetica,sans-Serif" font-size="10.00">cam.nc.emc2.Creator.report</text>
<text text-anchor="middle" x="99.5" y="-93" font-family="Helvetica,sans-Serif" font-size="10.00">_probe_results</text>
</a>
</g>
</g>
<!-- Node1&#45;&gt;Node10 -->
<g id="edge9_Node000001_Node000010" class="edge">
<title>Node1&#45;&gt;Node10</title>
<g id="a_edge9_Node000001_Node000010"><a xlink:title=" ">
<path fill="none" stroke="#63b8ff" d="M316.91,-227.51C294.69,-201.15 248.88,-151.5 199,-125 191.69,-121.12 183.75,-117.85 175.65,-115.11"/>
<polygon fill="#63b8ff" stroke="#63b8ff" points="314.44,-230.02 323.51,-235.49 319.83,-225.56 314.44,-230.02"/>
</a>
</g>
</g>
<!-- Node11 -->
<g id="Node000011" class="node">
<title>Node11</title>
<g id="a_Node000011"><a xlink:href="classcam_1_1nc_1_1emc2tap_1_1CreatorEMC2tap.html#ae7c40089d2816698fbe6cfbc9a10a052" target="_top" xlink:title=" ">
<polygon fill="white" stroke="#666666" points="199,-67.5 0,-67.5 0,-48.5 199,-48.5 199,-67.5"/>
<text text-anchor="middle" x="99.5" y="-55.5" font-family="Helvetica,sans-Serif" font-size="10.00">cam.nc.emc2tap.CreatorEMC2tap.tap</text>
</a>
</g>
</g>
<!-- Node1&#45;&gt;Node11 -->
<g id="edge10_Node000001_Node000011" class="edge">
<title>Node1&#45;&gt;Node11</title>
<g id="a_edge10_Node000001_Node000011"><a xlink:title=" ">
<path fill="none" stroke="#63b8ff" d="M322.04,-226.23C304.09,-190.8 260.1,-114.27 199,-77 192.68,-73.15 185.75,-70.05 178.57,-67.56"/>
<polygon fill="#63b8ff" stroke="#63b8ff" points="319.03,-228.03 326.59,-235.45 325.3,-224.93 319.03,-228.03"/>
</a>
</g>
</g>
<!-- Node12 -->
<g id="Node000012" class="node">
<title>Node12</title>
<g id="a_Node000012"><a xlink:href="classcam_1_1nc_1_1iso_1_1Creator.html#a3e61292523aa893f0187112023e51eff" target="_top" xlink:title="Tools.">
<polygon fill="white" stroke="#666666" points="164,-30 35,-30 35,0 164,0 164,-30"/>
<text text-anchor="start" x="43" y="-18" font-family="Helvetica,sans-Serif" font-size="10.00">cam.nc.iso.Creator.tool</text>
<text text-anchor="middle" x="99.5" y="-7" font-family="Helvetica,sans-Serif" font-size="10.00">_change</text>
</a>
</g>
</g>
<!-- Node1&#45;&gt;Node12 -->
<g id="edge11_Node000001_Node000012" class="edge">
<title>Node1&#45;&gt;Node12</title>
<g id="a_edge11_Node000001_Node000012"><a xlink:title=" ">
<path fill="none" stroke="#63b8ff" d="M324.29,-225.91C308.91,-185.08 267.13,-89.02 199,-40 188.69,-32.58 176.39,-27.36 164.03,-23.68"/>
<polygon fill="#63b8ff" stroke="#63b8ff" points="321.06,-227.27 327.78,-235.46 327.63,-224.87 321.06,-227.27"/>
</a>
</g>
</g>
</g>
</svg>

<g id="navigator" transform="translate(0 0)" fill="#404254">
  <rect fill="#f2f5e9" fill-opacity="0.5" stroke="#606060" stroke-width=".5" x="0" y="0" width="60" height="60"/>
  <use id="zoomplus" xlink:href="#zoomPlus" x="17" y="9" onmousedown="handleZoom(evt,'in')"/>
  <use id="zoomminus" xlink:href="#zoomMin" x="42" y="9" onmousedown="handleZoom(evt,'out')"/>
  <use id="reset" xlink:href="#resetDef" x="30" y="36" onmousedown="handleReset()"/>
   <use id="arrowup" xlink:href="#arrowUp" x="0" y="0" onmousedown="handlePan(0,-1)"/>
  <use id="arrowright" xlink:href="#arrowRight" x="0" y="0" onmousedown="handlePan(1,0)"/>
  <use id="arrowdown" xlink:href="#arrowDown" x="0" y="0" onmousedown="handlePan(0,1)"/>
  <use id="arrowleft" xlink:href="#arrowLeft" x="0" y="0" onmousedown="handlePan(-1,0)"/>
</g>
<svg viewBox="0 0 15 15" width="100%" height="30px" preserveAspectRatio="xMaxYMin meet">
 <g id="arrow_out" transform="scale(0.3 0.3)">
  <a xlink:href="classcam_1_1nc_1_1heiden530_1_1Creator_a5819b6e60dba78e0ec27cc656957fd18_icgraph_org.svg" target="_base">
   <rect id="button" ry="5" rx="5" y="6" x="6" height="38" width="38"
        fill="#f2f5e9" fill-opacity="0.5" stroke="#606060" stroke-width="1.0"/>
   <path id="arrow"
     d="M 11.500037,31.436501 C 11.940474,20.09759 22.043105,11.32322 32.158766,21.979434 L 37.068811,17.246167 C 37.068811,17.246167 37.088388,32 37.088388,32 L 22.160133,31.978069 C 22.160133,31.978069 26.997745,27.140456 26.997745,27.140456 C 18.528582,18.264221 13.291696,25.230495 11.500037,31.436501 z"
     style="fill:#404040;"/>
  </a>
 </g>
</svg>

<style type='text/css'>
<![CDATA[
[data-mouse-over-selected='false'] { opacity: 0.7; }
[data-mouse-over-selected='true']  { opacity: 1.0; }
]]>
</style>
<script type="application/ecmascript"><![CDATA[
document.addEventListener('DOMContentLoaded', (event) => {
  highlightEdges();
  highlightAdjacentNodes();
});
]]></script>
</svg>
