<?xml version="1.0" encoding="UTF-8" standalone="no"?>
<!DOCTYPE svg PUBLIC "-//W3C//DTD SVG 1.1//EN"
 "http://www.w3.org/Graphics/SVG/1.1/DTD/svg11.dtd">
<!-- Generated by graphviz version 2.43.0 (0)
 -->
<!-- Title: cam.ui_panels.material.CAM_MATERIAL_Properties Pages: 1 -->
<!--zoomable 197 -->

<svg id="main" version="1.1" xmlns="http://www.w3.org/2000/svg" xmlns:xlink="http://www.w3.org/1999/xlink" xml:space="preserve" onload="init(evt)">
<style type="text/css"><![CDATA[
.node, .edge {opacity: 0.7;}
.node.selected, .edge.selected {opacity: 1;}
.edge:hover path { stroke: red; }
.edge:hover polygon { stroke: red; fill: red; }
]]></style>

<defs>
  <circle id="rim" cx="0" cy="0" r="7"/>
  <circle id="rim2" cx="0" cy="0" r="3.5"/>
  <g id="zoomPlus">
    <use xlink:href="#rim" fill="#404040"><set attributeName="fill" to="#808080" begin="zoomplus.mouseover" end="zoomplus.mouseout"/></use>
    <path d="M-4,0h8M0,-4v8" fill="none" stroke="white" stroke-width="1.5" pointer-events="none"/>
  </g>
  <g id="zoomMin">
    <use xlink:href="#rim" fill="#404040"><set attributeName="fill" to="#808080" begin="zoomminus.mouseover" end="zoomminus.mouseout"/></use>
    <path d="M-4,0h8" fill="none" stroke="white" stroke-width="1.5" pointer-events="none"/>
  </g>
  <g id="arrowUp" transform="translate(30 24)">
    <use xlink:href="#rim"/>
    <path pointer-events="none" fill="none" stroke="white" stroke-width="1.5" d="M0,-3.0v7 M-2.5,-0.5L0,-3.0L2.5,-0.5"/>
  </g>
  <g id="arrowRight" transform="rotate(90) translate(36 -43)">
    <use xlink:href="#rim"/>
    <path pointer-events="none" fill="none" stroke="white" stroke-width="1.5" d="M0,-3.0v7 M-2.5,-0.5L0,-3.0L2.5,-0.5"/>
  </g>
  <g id="arrowDown" transform="rotate(180) translate(-30 -48)">
    <use xlink:href="#rim"/>
    <path pointer-events="none" fill="none" stroke="white" stroke-width="1.5" d="M0,-3.0v7 M-2.5,-0.5L0,-3.0L2.5,-0.5"/>
  </g>
  <g id="arrowLeft" transform="rotate(270) translate(-36 17)">
    <use xlink:href="#rim"/>
    <path pointer-events="none" fill="none" stroke="white" stroke-width="1.5" d="M0,-3.0v7 M-2.5,-0.5L0,-3.0L2.5,-0.5"/>
  </g>
  <g id="resetDef">
    <use xlink:href="#rim2" fill="#404040"><set attributeName="fill" to="#808080" begin="reset.mouseover" end="reset.mouseout"/></use>
  </g>
</defs>
<script type="application/ecmascript">
var viewWidth = 554;
var viewHeight = 197;
var sectionId = 'dynsection-1';
</script>
<script type="application/ecmascript" xlink:href="svg.min.js"/>
<svg id="graph" class="graph">
<g id="viewport">
<title>cam.ui_panels.material.CAM_MATERIAL_Properties</title>
<!-- Node1 -->
<g id="Node000001" class="node">
<title>Node1</title>
<g id="a_Node000001"><a xlink:title=" ">
<polygon fill="#999999" stroke="transparent" points="316,-60 165,-60 165,0 316,0 316,-60"/>
<text text-anchor="start" x="170.5" y="-48" font-family="Helvetica,sans-Serif" font-size="10.00">cam.ui_panels.material.CAM</text>
<text text-anchor="start" x="186.5" y="-37" font-family="Helvetica,sans-Serif" font-size="10.00">_MATERIAL_Properties</text>
<text text-anchor="start" x="239" y="-22" font-family="Helvetica,sans-Serif" font-size="10.00"> </text>
<text text-anchor="start" x="239" y="-7" font-family="Helvetica,sans-Serif" font-size="10.00"> </text>
<polygon fill="#666666" stroke="#666666" points="165.5,-32 165.5,-32 316.5,-32 316.5,-32 165.5,-32"/>
<polygon fill="#666666" stroke="#666666" points="165.5,-17 165.5,-17 316.5,-17 316.5,-17 165.5,-17"/>
<polygon fill="none" stroke="#666666" points="165,0 165,-60 316,-60 316,0 165,0"/>
</a>
</g>
</g>
<!-- Node2 -->
<g id="Node000002" class="node">
<title>Node2</title>
<g id="a_Node000002"><a xlink:title=" ">
<polygon fill="white" stroke="transparent" points="81,-189 0,-189 0,-140 81,-140 81,-189"/>
<text text-anchor="start" x="5.5" y="-176.5" font-family="Helvetica,sans-Serif" font-size="10.00">PropertyGroup</text>
<text text-anchor="start" x="39" y="-161.5" font-family="Helvetica,sans-Serif" font-size="10.00"> </text>
<text text-anchor="start" x="39" y="-146.5" font-family="Helvetica,sans-Serif" font-size="10.00"> </text>
<polygon fill="#666666" stroke="#666666" points="0.5,-171.5 0.5,-171.5 81.5,-171.5 81.5,-171.5 0.5,-171.5"/>
<polygon fill="#666666" stroke="#666666" points="0.5,-156.5 0.5,-156.5 81.5,-156.5 81.5,-156.5 0.5,-156.5"/>
<polygon fill="none" stroke="#666666" points="0,-140 0,-189 81,-189 81,-140 0,-140"/>
</a>
</g>
</g>
<!-- Node2&#45;&gt;Node1 -->
<g id="edge1_Node000001_Node000002" class="edge">
<title>Node2&#45;&gt;Node1</title>
<g id="a_edge1_Node000001_Node000002"><a xlink:title=" ">
<path fill="none" stroke="#63b8ff" d="M69.5,-132.57C87.12,-115 110.73,-93.5 134.5,-78 144.53,-71.46 155.63,-65.42 166.75,-60"/>
<polygon fill="none" stroke="#63b8ff" points="66.87,-130.25 62.34,-139.83 71.85,-135.17 66.87,-130.25"/>
</a>
</g>
</g>
<!-- Node3 -->
<g id="Node000003" class="node">
<title>Node3</title>
<g id="a_Node000003"><a xlink:title=" ">
<polygon fill="white" stroke="transparent" points="173.5,-189 99.5,-189 99.5,-140 173.5,-140 173.5,-189"/>
<text text-anchor="start" x="104.5" y="-176.5" font-family="Helvetica,sans-Serif" font-size="10.00">BoolProperty</text>
<text text-anchor="start" x="134.5" y="-161.5" font-family="Helvetica,sans-Serif" font-size="10.00"> </text>
<text text-anchor="start" x="134.5" y="-146.5" font-family="Helvetica,sans-Serif" font-size="10.00"> </text>
<polygon fill="#666666" stroke="#666666" points="99.5,-171.5 99.5,-171.5 173.5,-171.5 173.5,-171.5 99.5,-171.5"/>
<polygon fill="#666666" stroke="#666666" points="99.5,-156.5 99.5,-156.5 173.5,-156.5 173.5,-156.5 99.5,-156.5"/>
<polygon fill="none" stroke="#666666" points="99.5,-140 99.5,-189 173.5,-189 173.5,-140 99.5,-140"/>
</a>
</g>
</g>
<!-- Node3&#45;&gt;Node1 -->
<g id="edge2_Node000001_Node000003" class="edge">
<title>Node3&#45;&gt;Node1</title>
<g id="a_edge2_Node000001_Node000003"><a xlink:title=" ">
<path fill="none" stroke="#63b8ff" d="M136.62,-139.93C137.83,-121.43 142.11,-95.9 155.5,-78 158.18,-74.41 161.22,-71.06 164.52,-67.94"/>
<polygon fill="none" stroke="#63b8ff" points="164.57,-67.91 166.6,-60.99 173.77,-60.21 171.73,-67.12 164.57,-67.91"/>
</a>
</g>
<text text-anchor="middle" x="196" y="-114" font-family="Helvetica,sans-Serif" font-size="10.00" fill="grey"> +center_x</text>
<text text-anchor="middle" x="196" y="-103" font-family="Helvetica,sans-Serif" font-size="10.00" fill="grey">+center_y</text>
<text text-anchor="start" x="155.5" y="-92" font-family="Helvetica,sans-Serif" font-size="10.00" fill="grey">+estimate_from</text>
<text text-anchor="middle" x="196" y="-81" font-family="Helvetica,sans-Serif" font-size="10.00" fill="grey">_model</text>
</g>
<!-- Node4 -->
<g id="Node000004" class="node">
<title>Node4</title>
<g id="a_Node000004"><a xlink:title=" ">
<polygon fill="white" stroke="transparent" points="279,-189 202,-189 202,-140 279,-140 279,-189"/>
<text text-anchor="start" x="207.5" y="-176.5" font-family="Helvetica,sans-Serif" font-size="10.00">FloatProperty</text>
<text text-anchor="start" x="239" y="-161.5" font-family="Helvetica,sans-Serif" font-size="10.00"> </text>
<text text-anchor="start" x="239" y="-146.5" font-family="Helvetica,sans-Serif" font-size="10.00"> </text>
<polygon fill="#666666" stroke="#666666" points="202.5,-171.5 202.5,-171.5 279.5,-171.5 279.5,-171.5 202.5,-171.5"/>
<polygon fill="#666666" stroke="#666666" points="202.5,-156.5 202.5,-156.5 279.5,-156.5 279.5,-156.5 202.5,-156.5"/>
<polygon fill="none" stroke="#666666" points="202,-140 202,-189 279,-189 279,-140 202,-140"/>
</a>
</g>
</g>
<!-- Node4&#45;&gt;Node1 -->
<g id="edge3_Node000001_Node000004" class="edge">
<title>Node4&#45;&gt;Node1</title>
<g id="a_edge3_Node000001_Node000004"><a xlink:title=" ">
<path fill="none" stroke="#63b8ff" d="M240.5,-139.81C240.5,-121.06 240.5,-94.41 240.5,-72.18"/>
<polygon fill="none" stroke="#63b8ff" points="240.5,-72.03 236.5,-66.03 240.5,-60.03 244.5,-66.03 240.5,-72.03"/>
</a>
</g>
<text text-anchor="middle" x="299" y="-97.5" font-family="Helvetica,sans-Serif" font-size="10.00" fill="grey"> +radius_around_model</text>
</g>
<!-- Node5 -->
<g id="Node000005" class="node">
<title>Node5</title>
<g id="a_Node000005"><a xlink:title=" ">
<polygon fill="white" stroke="transparent" points="420.5,-189 340.5,-189 340.5,-140 420.5,-140 420.5,-189"/>
<text text-anchor="start" x="345.5" y="-176.5" font-family="Helvetica,sans-Serif" font-size="10.00">EnumProperty</text>
<text text-anchor="start" x="378.5" y="-161.5" font-family="Helvetica,sans-Serif" font-size="10.00"> </text>
<text text-anchor="start" x="378.5" y="-146.5" font-family="Helvetica,sans-Serif" font-size="10.00"> </text>
<polygon fill="#666666" stroke="#666666" points="340.5,-171.5 340.5,-171.5 420.5,-171.5 420.5,-171.5 340.5,-171.5"/>
<polygon fill="#666666" stroke="#666666" points="340.5,-156.5 340.5,-156.5 420.5,-156.5 420.5,-156.5 340.5,-156.5"/>
<polygon fill="none" stroke="#666666" points="340.5,-140 340.5,-189 420.5,-189 420.5,-140 340.5,-140"/>
</a>
</g>
</g>
<!-- Node5&#45;&gt;Node1 -->
<g id="edge4_Node000001_Node000005" class="edge">
<title>Node5&#45;&gt;Node1</title>
<g id="a_edge4_Node000001_Node000005"><a xlink:title=" ">
<path fill="none" stroke="#63b8ff" d="M380.06,-139.78C378.5,-120.94 373.49,-95.03 358.5,-78 349.85,-68.18 338.88,-60.39 327.11,-54.21"/>
<polygon fill="none" stroke="#63b8ff" points="326.97,-54.14 319.83,-55.17 316.13,-48.98 323.27,-47.95 326.97,-54.14"/>
</a>
</g>
<text text-anchor="middle" x="407" y="-97.5" font-family="Helvetica,sans-Serif" font-size="10.00" fill="grey"> +z_position</text>
</g>
<!-- Node6 -->
<g id="Node000006" class="node">
<title>Node6</title>
<g id="a_Node000006"><a xlink:title=" ">
<polygon fill="white" stroke="transparent" points="546,-189 439,-189 439,-140 546,-140 546,-189"/>
<text text-anchor="start" x="444.5" y="-176.5" font-family="Helvetica,sans-Serif" font-size="10.00">FloatVectorProperty</text>
<text text-anchor="start" x="491" y="-161.5" font-family="Helvetica,sans-Serif" font-size="10.00"> </text>
<text text-anchor="start" x="491" y="-146.5" font-family="Helvetica,sans-Serif" font-size="10.00"> </text>
<polygon fill="#666666" stroke="#666666" points="439.5,-171.5 439.5,-171.5 546.5,-171.5 546.5,-171.5 439.5,-171.5"/>
<polygon fill="#666666" stroke="#666666" points="439.5,-156.5 439.5,-156.5 546.5,-156.5 546.5,-156.5 439.5,-156.5"/>
<polygon fill="none" stroke="#666666" points="439,-140 439,-189 546,-189 546,-140 439,-140"/>
</a>
</g>
</g>
<!-- Node6&#45;&gt;Node1 -->
<g id="edge5_Node000001_Node000006" class="edge">
<title>Node6&#45;&gt;Node1</title>
<g id="a_edge5_Node000001_Node000006"><a xlink:title=" ">
<path fill="none" stroke="#63b8ff" d="M484.43,-139.92C476.53,-120.38 462.57,-93.4 441.5,-78 408.87,-54.14 365.97,-42.18 328.19,-36.27"/>
<polygon fill="none" stroke="#63b8ff" points="328.01,-36.24 321.5,-39.36 316.13,-34.56 322.63,-31.44 328.01,-36.24"/>
</a>
</g>
<text text-anchor="middle" x="495.5" y="-103" font-family="Helvetica,sans-Serif" font-size="10.00" fill="grey"> +origin</text>
<text text-anchor="middle" x="495.5" y="-92" font-family="Helvetica,sans-Serif" font-size="10.00" fill="grey">+size</text>
</g>
</g>
</svg>

<g id="navigator" transform="translate(0 0)" fill="#404254">
  <rect fill="#f2f5e9" fill-opacity="0.5" stroke="#606060" stroke-width=".5" x="0" y="0" width="60" height="60"/>
  <use id="zoomplus" xlink:href="#zoomPlus" x="17" y="9" onmousedown="handleZoom(evt,'in')"/>
  <use id="zoomminus" xlink:href="#zoomMin" x="42" y="9" onmousedown="handleZoom(evt,'out')"/>
  <use id="reset" xlink:href="#resetDef" x="30" y="36" onmousedown="handleReset()"/>
   <use id="arrowup" xlink:href="#arrowUp" x="0" y="0" onmousedown="handlePan(0,-1)"/>
  <use id="arrowright" xlink:href="#arrowRight" x="0" y="0" onmousedown="handlePan(1,0)"/>
  <use id="arrowdown" xlink:href="#arrowDown" x="0" y="0" onmousedown="handlePan(0,1)"/>
  <use id="arrowleft" xlink:href="#arrowLeft" x="0" y="0" onmousedown="handlePan(-1,0)"/>
</g>
<svg viewBox="0 0 15 15" width="100%" height="30px" preserveAspectRatio="xMaxYMin meet">
 <g id="arrow_out" transform="scale(0.3 0.3)">
  <a xlink:href="classcam_1_1ui__panels_1_1material_1_1CAM__MATERIAL__Properties__coll__graph_org.svg" target="_base">
   <rect id="button" ry="5" rx="5" y="6" x="6" height="38" width="38"
        fill="#f2f5e9" fill-opacity="0.5" stroke="#606060" stroke-width="1.0"/>
   <path id="arrow"
     d="M 11.500037,31.436501 C 11.940474,20.09759 22.043105,11.32322 32.158766,21.979434 L 37.068811,17.246167 C 37.068811,17.246167 37.088388,32 37.088388,32 L 22.160133,31.978069 C 22.160133,31.978069 26.997745,27.140456 26.997745,27.140456 C 18.528582,18.264221 13.291696,25.230495 11.500037,31.436501 z"
     style="fill:#404040;"/>
  </a>
 </g>
</svg>

<style type='text/css'>
<![CDATA[
[data-mouse-over-selected='false'] { opacity: 0.7; }
[data-mouse-over-selected='true']  { opacity: 1.0; }
]]>
</style>
<script type="application/ecmascript"><![CDATA[
document.addEventListener('DOMContentLoaded', (event) => {
  highlightEdges();
  highlightAdjacentNodes();
});
]]></script>
</svg>
