<?xml version="1.0" encoding="UTF-8" standalone="no"?>
<!DOCTYPE svg PUBLIC "-//W3C//DTD SVG 1.1//EN"
 "http://www.w3.org/Graphics/SVG/1.1/DTD/svg11.dtd">
<!-- Generated by graphviz version 2.43.0 (0)
 -->
<!-- Title: cam.nc.hxml_writer.HxmlWriter.arc_cw Pages: 1 -->
<!--zoomable 323 -->

<svg id="main" version="1.1" xmlns="http://www.w3.org/2000/svg" xmlns:xlink="http://www.w3.org/1999/xlink" xml:space="preserve" onload="init(evt)">
<style type="text/css"><![CDATA[
.node, .edge {opacity: 0.7;}
.node.selected, .edge.selected {opacity: 1;}
.edge:hover path { stroke: red; }
.edge:hover polygon { stroke: red; fill: red; }
]]></style>

<defs>
  <circle id="rim" cx="0" cy="0" r="7"/>
  <circle id="rim2" cx="0" cy="0" r="3.5"/>
  <g id="zoomPlus">
    <use xlink:href="#rim" fill="#404040"><set attributeName="fill" to="#808080" begin="zoomplus.mouseover" end="zoomplus.mouseout"/></use>
    <path d="M-4,0h8M0,-4v8" fill="none" stroke="white" stroke-width="1.5" pointer-events="none"/>
  </g>
  <g id="zoomMin">
    <use xlink:href="#rim" fill="#404040"><set attributeName="fill" to="#808080" begin="zoomminus.mouseover" end="zoomminus.mouseout"/></use>
    <path d="M-4,0h8" fill="none" stroke="white" stroke-width="1.5" pointer-events="none"/>
  </g>
  <g id="arrowUp" transform="translate(30 24)">
    <use xlink:href="#rim"/>
    <path pointer-events="none" fill="none" stroke="white" stroke-width="1.5" d="M0,-3.0v7 M-2.5,-0.5L0,-3.0L2.5,-0.5"/>
  </g>
  <g id="arrowRight" transform="rotate(90) translate(36 -43)">
    <use xlink:href="#rim"/>
    <path pointer-events="none" fill="none" stroke="white" stroke-width="1.5" d="M0,-3.0v7 M-2.5,-0.5L0,-3.0L2.5,-0.5"/>
  </g>
  <g id="arrowDown" transform="rotate(180) translate(-30 -48)">
    <use xlink:href="#rim"/>
    <path pointer-events="none" fill="none" stroke="white" stroke-width="1.5" d="M0,-3.0v7 M-2.5,-0.5L0,-3.0L2.5,-0.5"/>
  </g>
  <g id="arrowLeft" transform="rotate(270) translate(-36 17)">
    <use xlink:href="#rim"/>
    <path pointer-events="none" fill="none" stroke="white" stroke-width="1.5" d="M0,-3.0v7 M-2.5,-0.5L0,-3.0L2.5,-0.5"/>
  </g>
  <g id="resetDef">
    <use xlink:href="#rim2" fill="#404040"><set attributeName="fill" to="#808080" begin="reset.mouseover" end="reset.mouseout"/></use>
  </g>
</defs>
<script type="application/ecmascript">
var viewWidth = 715;
var viewHeight = 323;
var sectionId = 'dynsection-8';
</script>
<script type="application/ecmascript" xlink:href="svg.min.js"/>
<svg id="graph" class="graph">
<g id="viewport">
<title>cam.nc.hxml_writer.HxmlWriter.arc_cw</title>
<!-- Node1 -->
<g id="Node000001" class="node">
<title>Node1</title>
<g id="a_Node000001"><a xlink:title=" ">
<polygon fill="#999999" stroke="#666666" points="208,-167 0,-167 0,-148 208,-148 208,-167"/>
<text text-anchor="middle" x="104" y="-155" font-family="Helvetica,sans-Serif" font-size="10.00">cam.nc.hxml_writer.HxmlWriter.arc_cw</text>
</a>
</g>
</g>
<!-- Node2 -->
<g id="Node000002" class="node">
<title>Node2</title>
<g id="a_Node000002"><a xlink:href="classcam_1_1nc_1_1hxml__writer_1_1HxmlWriter.html#a475e3852584eaa4d673a094b0897132c" target="_top" xlink:title=" ">
<polygon fill="white" stroke="#666666" points="464,-315 252,-315 252,-296 464,-296 464,-315"/>
<text text-anchor="middle" x="358" y="-303" font-family="Helvetica,sans-Serif" font-size="10.00">cam.nc.hxml_writer.HxmlWriter.add_arc</text>
</a>
</g>
</g>
<!-- Node1&#45;&gt;Node2 -->
<g id="edge1_Node000001_Node000002" class="edge">
<title>Node1&#45;&gt;Node2</title>
<g id="a_edge1_Node000001_Node000002"><a xlink:title=" ">
<path fill="none" stroke="#63b8ff" d="M111.84,-167.02C130.11,-191.64 182.86,-257.59 244,-287.5 248.02,-289.47 252.21,-291.23 256.51,-292.8"/>
<polygon fill="#63b8ff" stroke="#63b8ff" points="255.48,-296.15 266.07,-295.96 257.67,-289.5 255.48,-296.15"/>
</a>
</g>
</g>
<!-- Node4 -->
<g id="Node000004" class="node">
<title>Node4</title>
<g id="a_Node000004"><a xlink:href="classcam_1_1nc_1_1cad__nc__read_1_1Parser.html#a7d77e08170185d002ab8782d4d9e5318" target="_top" xlink:title=" ">
<polygon fill="white" stroke="#666666" points="452.5,-204 263.5,-204 263.5,-185 452.5,-185 452.5,-204"/>
<text text-anchor="middle" x="358" y="-192" font-family="Helvetica,sans-Serif" font-size="10.00">cam.nc.cad_nc_read.Parser.add_arc</text>
</a>
</g>
</g>
<!-- Node1&#45;&gt;Node4 -->
<g id="edge4_Node000001_Node000004" class="edge">
<title>Node1&#45;&gt;Node4</title>
<g id="a_edge4_Node000001_Node000004"><a xlink:title=" ">
<path fill="none" stroke="#63b8ff" d="M169.9,-167.03C204.01,-172.04 246,-178.2 281.56,-183.42"/>
<polygon fill="#63b8ff" stroke="#63b8ff" points="281.48,-186.95 291.89,-184.94 282.5,-180.02 281.48,-186.95"/>
</a>
</g>
</g>
<!-- Node6 -->
<g id="Node000006" class="node">
<title>Node6</title>
<g id="a_Node000006"><a xlink:href="classcam_1_1nc_1_1nclathe__read_1_1Parser.html#af831cf56257fb77f7e451e315631e4f5" target="_top" xlink:title=" ">
<polygon fill="white" stroke="#666666" points="453.5,-93 262.5,-93 262.5,-74 453.5,-74 453.5,-93"/>
<text text-anchor="middle" x="358" y="-81" font-family="Helvetica,sans-Serif" font-size="10.00">cam.nc.nclathe_read.Parser.add_arc</text>
</a>
</g>
</g>
<!-- Node1&#45;&gt;Node6 -->
<g id="edge7_Node000001_Node000006" class="edge">
<title>Node1&#45;&gt;Node6</title>
<g id="a_edge7_Node000001_Node000006"><a xlink:title=" ">
<path fill="none" stroke="#63b8ff" d="M125.26,-147.92C151.92,-135.67 200.5,-114.62 244,-102.5 254.34,-99.62 265.35,-97.11 276.28,-94.94"/>
<polygon fill="#63b8ff" stroke="#63b8ff" points="277.1,-98.35 286.27,-93.04 275.79,-91.47 277.1,-98.35"/>
</a>
</g>
</g>
<!-- Node8 -->
<g id="Node000008" class="node">
<title>Node8</title>
<g id="a_Node000008"><a xlink:href="classcam_1_1nc_1_1hxml__writer_1_1HxmlWriter.html#a6439ae429d6711afc62f954362e80aec" target="_top" xlink:title=" ">
<polygon fill="white" stroke="#666666" points="472,-278 244,-278 244,-259 472,-259 472,-278"/>
<text text-anchor="middle" x="358" y="-266" font-family="Helvetica,sans-Serif" font-size="10.00">cam.nc.hxml_writer.HxmlWriter.begin_path</text>
</a>
</g>
</g>
<!-- Node1&#45;&gt;Node8 -->
<g id="edge10_Node000001_Node000008" class="edge">
<title>Node1&#45;&gt;Node8</title>
<g id="a_edge10_Node000001_Node000008"><a xlink:title=" ">
<path fill="none" stroke="#63b8ff" d="M115.6,-167.01C137.69,-186.24 191.02,-229.72 244,-250.5 249.76,-252.76 255.8,-254.74 261.96,-256.47"/>
<polygon fill="#63b8ff" stroke="#63b8ff" points="261.15,-259.87 271.71,-258.99 262.9,-253.1 261.15,-259.87"/>
</a>
</g>
</g>
<!-- Node9 -->
<g id="Node000009" class="node">
<title>Node9</title>
<g id="a_Node000009"><a xlink:href="classcam_1_1nc_1_1cad__nc__read_1_1Parser.html#abe87a80c43087874e0199ed75fce10ee" target="_top" xlink:title=" ">
<polygon fill="white" stroke="#666666" points="460.5,-167 255.5,-167 255.5,-148 460.5,-148 460.5,-167"/>
<text text-anchor="middle" x="358" y="-155" font-family="Helvetica,sans-Serif" font-size="10.00">cam.nc.cad_nc_read.Parser.begin_path</text>
</a>
</g>
</g>
<!-- Node1&#45;&gt;Node9 -->
<g id="edge12_Node000001_Node000009" class="edge">
<title>Node1&#45;&gt;Node9</title>
<g id="a_edge12_Node000001_Node000009"><a xlink:title=" ">
<path fill="none" stroke="#63b8ff" d="M208.23,-157.5C220.33,-157.5 232.73,-157.5 244.95,-157.5"/>
<polygon fill="#63b8ff" stroke="#63b8ff" points="245.16,-161 255.16,-157.5 245.16,-154 245.16,-161"/>
</a>
</g>
</g>
<!-- Node10 -->
<g id="Node000010" class="node">
<title>Node10</title>
<g id="a_Node000010"><a xlink:href="classcam_1_1nc_1_1nclathe__read_1_1Parser.html#a33c385668a944d4b5013c8cae753fda9" target="_top" xlink:title=" ">
<polygon fill="white" stroke="#666666" points="461.5,-56 254.5,-56 254.5,-37 461.5,-37 461.5,-56"/>
<text text-anchor="middle" x="358" y="-44" font-family="Helvetica,sans-Serif" font-size="10.00">cam.nc.nclathe_read.Parser.begin_path</text>
</a>
</g>
</g>
<!-- Node1&#45;&gt;Node10 -->
<g id="edge14_Node000001_Node000010" class="edge">
<title>Node1&#45;&gt;Node10</title>
<g id="a_edge14_Node000001_Node000010"><a xlink:title=" ">
<path fill="none" stroke="#63b8ff" d="M115.97,-147.84C138.33,-128.75 191.5,-86.2 244,-65.5 250.81,-62.82 257.99,-60.51 265.3,-58.53"/>
<polygon fill="#63b8ff" stroke="#63b8ff" points="266.47,-61.85 275.33,-56.03 264.78,-55.05 266.47,-61.85"/>
</a>
</g>
</g>
<!-- Node11 -->
<g id="Node000011" class="node">
<title>Node11</title>
<g id="a_Node000011"><a xlink:href="classcam_1_1nc_1_1cad__nc__read_1_1Parser.html#ab6bd7ee59cd7649fb4d9f585124cbd54" target="_top" xlink:title=" ">
<polygon fill="white" stroke="#666666" points="456,-130 260,-130 260,-111 456,-111 456,-130"/>
<text text-anchor="middle" x="358" y="-118" font-family="Helvetica,sans-Serif" font-size="10.00">cam.nc.cad_nc_read.Parser.end_path</text>
</a>
</g>
</g>
<!-- Node1&#45;&gt;Node11 -->
<g id="edge16_Node000001_Node000011" class="edge">
<title>Node1&#45;&gt;Node11</title>
<g id="a_edge16_Node000001_Node000011"><a xlink:title=" ">
<path fill="none" stroke="#63b8ff" d="M169.9,-147.97C204.01,-142.96 246,-136.8 281.56,-131.58"/>
<polygon fill="#63b8ff" stroke="#63b8ff" points="282.5,-134.98 291.89,-130.06 281.48,-128.05 282.5,-134.98"/>
</a>
</g>
</g>
<!-- Node12 -->
<g id="Node000012" class="node">
<title>Node12</title>
<g id="a_Node000012"><a xlink:href="classcam_1_1nc_1_1hxml__writer_1_1HxmlWriter.html#a148b76fde9d4c7ea5430a17628e6c9ef" target="_top" xlink:title=" ">
<polygon fill="white" stroke="#666666" points="467.5,-241 248.5,-241 248.5,-222 467.5,-222 467.5,-241"/>
<text text-anchor="middle" x="358" y="-229" font-family="Helvetica,sans-Serif" font-size="10.00">cam.nc.hxml_writer.HxmlWriter.end_path</text>
</a>
</g>
</g>
<!-- Node1&#45;&gt;Node12 -->
<g id="edge18_Node000001_Node000012" class="edge">
<title>Node1&#45;&gt;Node12</title>
<g id="a_edge18_Node000001_Node000012"><a xlink:title=" ">
<path fill="none" stroke="#63b8ff" d="M124.76,-167.12C151.28,-179.63 200.13,-201.34 244,-213.5 253.02,-216 262.55,-218.19 272.1,-220.1"/>
<polygon fill="#63b8ff" stroke="#63b8ff" points="271.55,-223.56 282.03,-221.99 272.86,-216.68 271.55,-223.56"/>
</a>
</g>
</g>
<!-- Node13 -->
<g id="Node000013" class="node">
<title>Node13</title>
<g id="a_Node000013"><a xlink:href="classcam_1_1nc_1_1nclathe__read_1_1Parser.html#a92a9288e10124488c6b458a347afa9b7" target="_top" xlink:title=" ">
<polygon fill="white" stroke="#666666" points="457,-19 259,-19 259,0 457,0 457,-19"/>
<text text-anchor="middle" x="358" y="-7" font-family="Helvetica,sans-Serif" font-size="10.00">cam.nc.nclathe_read.Parser.end_path</text>
</a>
</g>
</g>
<!-- Node1&#45;&gt;Node13 -->
<g id="edge20_Node000001_Node000013" class="edge">
<title>Node1&#45;&gt;Node13</title>
<g id="a_edge20_Node000001_Node000013"><a xlink:title=" ">
<path fill="none" stroke="#63b8ff" d="M112.14,-147.73C130.74,-123.1 183.44,-58.3 244,-28.5 248.91,-26.08 254.07,-23.97 259.36,-22.12"/>
<polygon fill="#63b8ff" stroke="#63b8ff" points="260.55,-25.41 269.02,-19.06 258.43,-18.74 260.55,-25.41"/>
</a>
</g>
</g>
<!-- Node3 -->
<g id="Node000003" class="node">
<title>Node3</title>
<g id="a_Node000003"><a xlink:href="classcam_1_1nc_1_1hxml__writer_1_1HxmlWriter.html#aed6f93c98cb8c0e3f3e826e75b6d6f15" target="_top" xlink:title=" ">
<polygon fill="white" stroke="#666666" points="707,-278 508,-278 508,-259 707,-259 707,-278"/>
<text text-anchor="middle" x="607.5" y="-266" font-family="Helvetica,sans-Serif" font-size="10.00">cam.nc.hxml_writer.HxmlWriter.write</text>
</a>
</g>
</g>
<!-- Node2&#45;&gt;Node3 -->
<g id="edge2_Node000002_Node000003" class="edge">
<title>Node2&#45;&gt;Node3</title>
<g id="a_edge2_Node000002_Node000003"><a xlink:title=" ">
<path fill="none" stroke="#63b8ff" d="M422.74,-295.97C456.24,-290.96 497.49,-284.8 532.41,-279.58"/>
<polygon fill="#63b8ff" stroke="#63b8ff" points="533.18,-283 542.55,-278.06 532.14,-276.08 533.18,-283"/>
</a>
</g>
</g>
<!-- Node3&#45;&gt;Node3 -->
<g id="edge3_Node000003_Node000003" class="edge">
<title>Node3&#45;&gt;Node3</title>
<g id="a_edge3_Node000003_Node000003"><a xlink:title=" ">
<path fill="none" stroke="#63b8ff" d="M569.28,-278.08C550.68,-286.73 563.42,-296 607.5,-296 640.56,-296 655.99,-290.79 653.79,-284.53"/>
<polygon fill="#63b8ff" stroke="#63b8ff" points="655.72,-281.59 645.72,-278.08 651.35,-287.06 655.72,-281.59"/>
</a>
</g>
</g>
<!-- Node5 -->
<g id="Node000005" class="node">
<title>Node5</title>
<g id="a_Node000005"><a xlink:href="classcam_1_1nc_1_1cad__nc__read_1_1Parser.html#adcf2f47949df29f187f27fe985884633" target="_top" xlink:title=" ">
<polygon fill="white" stroke="#666666" points="695.5,-167 519.5,-167 519.5,-148 695.5,-148 695.5,-167"/>
<text text-anchor="middle" x="607.5" y="-155" font-family="Helvetica,sans-Serif" font-size="10.00">cam.nc.cad_nc_read.Parser.write</text>
</a>
</g>
</g>
<!-- Node4&#45;&gt;Node5 -->
<g id="edge5_Node000004_Node000005" class="edge">
<title>Node4&#45;&gt;Node5</title>
<g id="a_edge5_Node000004_Node000005"><a xlink:title=" ">
<path fill="none" stroke="#63b8ff" d="M422.74,-184.97C456.24,-179.96 497.49,-173.8 532.41,-168.58"/>
<polygon fill="#63b8ff" stroke="#63b8ff" points="533.18,-172 542.55,-167.06 532.14,-165.08 533.18,-172"/>
</a>
</g>
</g>
<!-- Node5&#45;&gt;Node5 -->
<g id="edge6_Node000005_Node000005" class="edge">
<title>Node5&#45;&gt;Node5</title>
<g id="a_edge6_Node000005_Node000005"><a xlink:title=" ">
<path fill="none" stroke="#63b8ff" d="M569.28,-167.08C550.68,-175.73 563.42,-185 607.5,-185 640.56,-185 655.99,-179.79 653.79,-173.53"/>
<polygon fill="#63b8ff" stroke="#63b8ff" points="655.72,-170.59 645.72,-167.08 651.35,-176.06 655.72,-170.59"/>
</a>
</g>
</g>
<!-- Node7 -->
<g id="Node000007" class="node">
<title>Node7</title>
<g id="a_Node000007"><a xlink:href="classcam_1_1nc_1_1nclathe__read_1_1Parser.html#ab5ea283b461b57e48c8d5b0ad0a45694" target="_top" xlink:title=" ">
<polygon fill="white" stroke="#666666" points="696.5,-56 518.5,-56 518.5,-37 696.5,-37 696.5,-56"/>
<text text-anchor="middle" x="607.5" y="-44" font-family="Helvetica,sans-Serif" font-size="10.00">cam.nc.nclathe_read.Parser.write</text>
</a>
</g>
</g>
<!-- Node6&#45;&gt;Node7 -->
<g id="edge8_Node000006_Node000007" class="edge">
<title>Node6&#45;&gt;Node7</title>
<g id="a_edge8_Node000006_Node000007"><a xlink:title=" ">
<path fill="none" stroke="#63b8ff" d="M422.74,-73.97C456.24,-68.96 497.49,-62.8 532.41,-57.58"/>
<polygon fill="#63b8ff" stroke="#63b8ff" points="533.18,-61 542.55,-56.06 532.14,-54.08 533.18,-61"/>
</a>
</g>
</g>
<!-- Node7&#45;&gt;Node7 -->
<g id="edge9_Node000007_Node000007" class="edge">
<title>Node7&#45;&gt;Node7</title>
<g id="a_edge9_Node000007_Node000007"><a xlink:title=" ">
<path fill="none" stroke="#63b8ff" d="M569.28,-56.08C550.68,-64.73 563.42,-74 607.5,-74 640.56,-74 655.99,-68.79 653.79,-62.53"/>
<polygon fill="#63b8ff" stroke="#63b8ff" points="655.72,-59.59 645.72,-56.08 651.35,-65.06 655.72,-59.59"/>
</a>
</g>
</g>
<!-- Node8&#45;&gt;Node3 -->
<g id="edge11_Node000008_Node000003" class="edge">
<title>Node8&#45;&gt;Node3</title>
<g id="a_edge11_Node000008_Node000003"><a xlink:title=" ">
<path fill="none" stroke="#63b8ff" d="M472.25,-268.5C480.66,-268.5 489.14,-268.5 497.53,-268.5"/>
<polygon fill="#63b8ff" stroke="#63b8ff" points="497.71,-272 507.71,-268.5 497.71,-265 497.71,-272"/>
</a>
</g>
</g>
<!-- Node9&#45;&gt;Node5 -->
<g id="edge13_Node000009_Node000005" class="edge">
<title>Node9&#45;&gt;Node5</title>
<g id="a_edge13_Node000009_Node000005"><a xlink:title=" ">
<path fill="none" stroke="#63b8ff" d="M460.74,-157.5C476.71,-157.5 493.18,-157.5 509.05,-157.5"/>
<polygon fill="#63b8ff" stroke="#63b8ff" points="509.38,-161 519.38,-157.5 509.38,-154 509.38,-161"/>
</a>
</g>
</g>
<!-- Node10&#45;&gt;Node7 -->
<g id="edge15_Node000010_Node000007" class="edge">
<title>Node10&#45;&gt;Node7</title>
<g id="a_edge15_Node000010_Node000007"><a xlink:title=" ">
<path fill="none" stroke="#63b8ff" d="M461.81,-46.5C477.03,-46.5 492.68,-46.5 507.81,-46.5"/>
<polygon fill="#63b8ff" stroke="#63b8ff" points="508.19,-50 518.19,-46.5 508.19,-43 508.19,-50"/>
</a>
</g>
</g>
<!-- Node11&#45;&gt;Node5 -->
<g id="edge17_Node000011_Node000005" class="edge">
<title>Node11&#45;&gt;Node5</title>
<g id="a_edge17_Node000011_Node000005"><a xlink:title=" ">
<path fill="none" stroke="#63b8ff" d="M422.74,-130.03C456.24,-135.04 497.49,-141.2 532.41,-146.42"/>
<polygon fill="#63b8ff" stroke="#63b8ff" points="532.14,-149.92 542.55,-147.94 533.18,-143 532.14,-149.92"/>
</a>
</g>
</g>
<!-- Node12&#45;&gt;Node3 -->
<g id="edge19_Node000012_Node000003" class="edge">
<title>Node12&#45;&gt;Node3</title>
<g id="a_edge19_Node000012_Node000003"><a xlink:title=" ">
<path fill="none" stroke="#63b8ff" d="M422.74,-241.03C456.24,-246.04 497.49,-252.2 532.41,-257.42"/>
<polygon fill="#63b8ff" stroke="#63b8ff" points="532.14,-260.92 542.55,-258.94 533.18,-254 532.14,-260.92"/>
</a>
</g>
</g>
<!-- Node13&#45;&gt;Node7 -->
<g id="edge21_Node000013_Node000007" class="edge">
<title>Node13&#45;&gt;Node7</title>
<g id="a_edge21_Node000013_Node000007"><a xlink:title=" ">
<path fill="none" stroke="#63b8ff" d="M422.74,-19.03C456.24,-24.04 497.49,-30.2 532.41,-35.42"/>
<polygon fill="#63b8ff" stroke="#63b8ff" points="532.14,-38.92 542.55,-36.94 533.18,-32 532.14,-38.92"/>
</a>
</g>
</g>
</g>
</svg>

<g id="navigator" transform="translate(0 0)" fill="#404254">
  <rect fill="#f2f5e9" fill-opacity="0.5" stroke="#606060" stroke-width=".5" x="0" y="0" width="60" height="60"/>
  <use id="zoomplus" xlink:href="#zoomPlus" x="17" y="9" onmousedown="handleZoom(evt,'in')"/>
  <use id="zoomminus" xlink:href="#zoomMin" x="42" y="9" onmousedown="handleZoom(evt,'out')"/>
  <use id="reset" xlink:href="#resetDef" x="30" y="36" onmousedown="handleReset()"/>
   <use id="arrowup" xlink:href="#arrowUp" x="0" y="0" onmousedown="handlePan(0,-1)"/>
  <use id="arrowright" xlink:href="#arrowRight" x="0" y="0" onmousedown="handlePan(1,0)"/>
  <use id="arrowdown" xlink:href="#arrowDown" x="0" y="0" onmousedown="handlePan(0,1)"/>
  <use id="arrowleft" xlink:href="#arrowLeft" x="0" y="0" onmousedown="handlePan(-1,0)"/>
</g>
<svg viewBox="0 0 15 15" width="100%" height="30px" preserveAspectRatio="xMaxYMin meet">
 <g id="arrow_out" transform="scale(0.3 0.3)">
  <a xlink:href="classcam_1_1nc_1_1hxml__writer_1_1HxmlWriter_a403fdf3735ec6e70365ddac2a134222f_cgraph_org.svg" target="_base">
   <rect id="button" ry="5" rx="5" y="6" x="6" height="38" width="38"
        fill="#f2f5e9" fill-opacity="0.5" stroke="#606060" stroke-width="1.0"/>
   <path id="arrow"
     d="M 11.500037,31.436501 C 11.940474,20.09759 22.043105,11.32322 32.158766,21.979434 L 37.068811,17.246167 C 37.068811,17.246167 37.088388,32 37.088388,32 L 22.160133,31.978069 C 22.160133,31.978069 26.997745,27.140456 26.997745,27.140456 C 18.528582,18.264221 13.291696,25.230495 11.500037,31.436501 z"
     style="fill:#404040;"/>
  </a>
 </g>
</svg>

<style type='text/css'>
<![CDATA[
[data-mouse-over-selected='false'] { opacity: 0.7; }
[data-mouse-over-selected='true']  { opacity: 1.0; }
]]>
</style>
<script type="application/ecmascript"><![CDATA[
document.addEventListener('DOMContentLoaded', (event) => {
  highlightEdges();
  highlightAdjacentNodes();
});
]]></script>
</svg>
