<?xml version="1.0" encoding="UTF-8" standalone="no"?>
<!DOCTYPE svg PUBLIC "-//W3C//DTD SVG 1.1//EN"
 "http://www.w3.org/Graphics/SVG/1.1/DTD/svg11.dtd">
<!-- Generated by graphviz version 2.43.0 (0)
 -->
<!-- Title: cam.nc.nclathe_read.Parser.begin_path Pages: 1 -->
<svg width="429pt" height="45pt"
 viewBox="0.00 0.00 429.00 45.00" xmlns="http://www.w3.org/2000/svg" xmlns:xlink="http://www.w3.org/1999/xlink">
<g id="graph0" class="graph" transform="scale(1 1) rotate(0) translate(4 41)">
<title>cam.nc.nclathe_read.Parser.begin_path</title>
<!-- Node1 -->
<g id="Node000001" class="node">
<title>Node1</title>
<g id="a_Node000001"><a xlink:title=" ">
<polygon fill="#999999" stroke="#666666" points="207,-19 0,-19 0,0 207,0 207,-19"/>
<text text-anchor="middle" x="103.5" y="-7" font-family="Helvetica,sans-Serif" font-size="10.00">cam.nc.nclathe_read.Parser.begin_path</text>
</a>
</g>
</g>
<!-- Node2 -->
<g id="Node000002" class="node">
<title>Node2</title>
<g id="a_Node000002"><a xlink:href="classcam_1_1nc_1_1nclathe__read_1_1Parser.html#ab5ea283b461b57e48c8d5b0ad0a45694" target="_top" xlink:title=" ">
<polygon fill="white" stroke="#666666" points="421,-19 243,-19 243,0 421,0 421,-19"/>
<text text-anchor="middle" x="332" y="-7" font-family="Helvetica,sans-Serif" font-size="10.00">cam.nc.nclathe_read.Parser.write</text>
</a>
</g>
</g>
<!-- Node1&#45;&gt;Node2 -->
<g id="edge1_Node000001_Node000002" class="edge">
<title>Node1&#45;&gt;Node2</title>
<g id="a_edge1_Node000001_Node000002"><a xlink:title=" ">
<path fill="none" stroke="#63b8ff" d="M207.15,-9.5C215.63,-9.5 224.2,-9.5 232.66,-9.5"/>
<polygon fill="#63b8ff" stroke="#63b8ff" points="232.9,-13 242.9,-9.5 232.9,-6 232.9,-13"/>
</a>
</g>
</g>
<!-- Node2&#45;&gt;Node2 -->
<g id="edge2_Node000002_Node000002" class="edge">
<title>Node2&#45;&gt;Node2</title>
<g id="a_edge2_Node000002_Node000002"><a xlink:title=" ">
<path fill="none" stroke="#63b8ff" d="M296.86,-19.08C279.76,-27.73 291.48,-37 332,-37 361.76,-37 375.98,-32 374.67,-25.92"/>
<polygon fill="#63b8ff" stroke="#63b8ff" points="376.9,-23.22 367.14,-19.08 372.19,-28.4 376.9,-23.22"/>
</a>
</g>
</g>
</g>
</svg>
