<?xml version="1.0" encoding="UTF-8" standalone="no"?>
<!DOCTYPE svg PUBLIC "-//W3C//DTD SVG 1.1//EN"
 "http://www.w3.org/Graphics/SVG/1.1/DTD/svg11.dtd">
<!-- Generated by graphviz version 2.43.0 (0)
 -->
<!-- Title: cam.nc.iso_modal.Creator Pages: 1 -->
<!--zoomable 857 -->

<svg id="main" version="1.1" xmlns="http://www.w3.org/2000/svg" xmlns:xlink="http://www.w3.org/1999/xlink" xml:space="preserve" onload="init(evt)">
<style type="text/css"><![CDATA[
.node, .edge {opacity: 0.7;}
.node.selected, .edge.selected {opacity: 1;}
.edge:hover path { stroke: red; }
.edge:hover polygon { stroke: red; fill: red; }
]]></style>

<defs>
  <circle id="rim" cx="0" cy="0" r="7"/>
  <circle id="rim2" cx="0" cy="0" r="3.5"/>
  <g id="zoomPlus">
    <use xlink:href="#rim" fill="#404040"><set attributeName="fill" to="#808080" begin="zoomplus.mouseover" end="zoomplus.mouseout"/></use>
    <path d="M-4,0h8M0,-4v8" fill="none" stroke="white" stroke-width="1.5" pointer-events="none"/>
  </g>
  <g id="zoomMin">
    <use xlink:href="#rim" fill="#404040"><set attributeName="fill" to="#808080" begin="zoomminus.mouseover" end="zoomminus.mouseout"/></use>
    <path d="M-4,0h8" fill="none" stroke="white" stroke-width="1.5" pointer-events="none"/>
  </g>
  <g id="arrowUp" transform="translate(30 24)">
    <use xlink:href="#rim"/>
    <path pointer-events="none" fill="none" stroke="white" stroke-width="1.5" d="M0,-3.0v7 M-2.5,-0.5L0,-3.0L2.5,-0.5"/>
  </g>
  <g id="arrowRight" transform="rotate(90) translate(36 -43)">
    <use xlink:href="#rim"/>
    <path pointer-events="none" fill="none" stroke="white" stroke-width="1.5" d="M0,-3.0v7 M-2.5,-0.5L0,-3.0L2.5,-0.5"/>
  </g>
  <g id="arrowDown" transform="rotate(180) translate(-30 -48)">
    <use xlink:href="#rim"/>
    <path pointer-events="none" fill="none" stroke="white" stroke-width="1.5" d="M0,-3.0v7 M-2.5,-0.5L0,-3.0L2.5,-0.5"/>
  </g>
  <g id="arrowLeft" transform="rotate(270) translate(-36 17)">
    <use xlink:href="#rim"/>
    <path pointer-events="none" fill="none" stroke="white" stroke-width="1.5" d="M0,-3.0v7 M-2.5,-0.5L0,-3.0L2.5,-0.5"/>
  </g>
  <g id="resetDef">
    <use xlink:href="#rim2" fill="#404040"><set attributeName="fill" to="#808080" begin="reset.mouseover" end="reset.mouseout"/></use>
  </g>
</defs>
<script type="application/ecmascript">
var viewWidth = 146;
var viewHeight = 857;
var sectionId = 'dynsection-1';
</script>
<script type="application/ecmascript" xlink:href="svg.min.js"/>
<svg id="graph" class="graph">
<g id="viewport">
<title>cam.nc.iso_modal.Creator</title>
<!-- Node1 -->
<g id="Node000001" class="node">
<title>Node1</title>
<g id="a_Node000001"><a xlink:title=" ">
<polygon fill="#999999" stroke="transparent" points="138,-94 0,-94 0,0 138,0 138,-94"/>
<text text-anchor="start" x="5" y="-82" font-family="Helvetica,sans-Serif" font-size="10.00">cam.nc.iso_modal.Creator</text>
<text text-anchor="start" x="16.5" y="-67" font-family="Helvetica,sans-Serif" font-size="10.00">+</text>
<text text-anchor="start" x="42" y="-67" font-family="Helvetica,sans-Serif" font-size="10.00">f_modal</text>
<text text-anchor="start" x="16.5" y="-52" font-family="Helvetica,sans-Serif" font-size="10.00">+</text>
<text text-anchor="start" x="42" y="-52" font-family="Helvetica,sans-Serif" font-size="10.00">g0123_modal</text>
<text text-anchor="start" x="16.5" y="-37" font-family="Helvetica,sans-Serif" font-size="10.00">+</text>
<text text-anchor="start" x="42" y="-37" font-family="Helvetica,sans-Serif" font-size="10.00">drill_modal</text>
<text text-anchor="start" x="16.5" y="-22" font-family="Helvetica,sans-Serif" font-size="10.00">+</text>
<text text-anchor="start" x="42" y="-22" font-family="Helvetica,sans-Serif" font-size="10.00">creator</text>
<text text-anchor="start" x="16.5" y="-7" font-family="Helvetica,sans-Serif" font-size="10.00">+</text>
<text text-anchor="start" x="42" y="-7" font-family="Helvetica,sans-Serif" font-size="10.00">__init__()</text>
<polygon fill="#666666" stroke="#666666" points="0,-77 0,-77 138,-77 138,-77 0,-77"/>
<polygon fill="#666666" stroke="#666666" points="0,-17 0,-17 40,-17 40,-17 0,-17"/>
<polygon fill="#666666" stroke="#666666" points="40,-17 40,-17 138,-17 138,-17 40,-17"/>
<polygon fill="none" stroke="#666666" points="0,0 0,-94 138,-94 138,0 0,0"/>
</a>
</g>
</g>
<!-- Node2 -->
<g id="Node000002" class="node">
<title>Node2</title>
<g id="a_Node000002"><a xlink:href="classcam_1_1nc_1_1iso_1_1Creator.html" target="_top" xlink:title=" ">
<polygon fill="white" stroke="transparent" points="132,-599 6,-599 6,-130 132,-130 132,-599"/>
<text text-anchor="start" x="23" y="-586.5" font-family="Helvetica,sans-Serif" font-size="10.00">cam.nc.iso.Creator</text>
<text text-anchor="start" x="10" y="-571.5" font-family="Helvetica,sans-Serif" font-size="10.00">+</text>
<text text-anchor="start" x="23" y="-571.5" font-family="Helvetica,sans-Serif" font-size="10.00">a</text>
<text text-anchor="start" x="10" y="-556.5" font-family="Helvetica,sans-Serif" font-size="10.00">+</text>
<text text-anchor="start" x="23" y="-556.5" font-family="Helvetica,sans-Serif" font-size="10.00">b</text>
<text text-anchor="start" x="10" y="-541.5" font-family="Helvetica,sans-Serif" font-size="10.00">+</text>
<text text-anchor="start" x="23" y="-541.5" font-family="Helvetica,sans-Serif" font-size="10.00">c</text>
<text text-anchor="start" x="10" y="-526.5" font-family="Helvetica,sans-Serif" font-size="10.00">+</text>
<text text-anchor="start" x="23" y="-526.5" font-family="Helvetica,sans-Serif" font-size="10.00">f</text>
<text text-anchor="start" x="10" y="-511.5" font-family="Helvetica,sans-Serif" font-size="10.00">+</text>
<text text-anchor="start" x="23" y="-511.5" font-family="Helvetica,sans-Serif" font-size="10.00">fh</text>
<text text-anchor="start" x="10" y="-496.5" font-family="Helvetica,sans-Serif" font-size="10.00">+</text>
<text text-anchor="start" x="23" y="-496.5" font-family="Helvetica,sans-Serif" font-size="10.00">fv</text>
<text text-anchor="start" x="10" y="-481.5" font-family="Helvetica,sans-Serif" font-size="10.00">+</text>
<text text-anchor="start" x="23" y="-481.5" font-family="Helvetica,sans-Serif" font-size="10.00">fhv</text>
<text text-anchor="start" x="10" y="-466.5" font-family="Helvetica,sans-Serif" font-size="10.00">+</text>
<text text-anchor="start" x="23" y="-466.5" font-family="Helvetica,sans-Serif" font-size="10.00">g_plane</text>
<text text-anchor="start" x="10" y="-451.5" font-family="Helvetica,sans-Serif" font-size="10.00">+</text>
<text text-anchor="start" x="23" y="-451.5" font-family="Helvetica,sans-Serif" font-size="10.00">g_list</text>
<text text-anchor="start" x="10" y="-436.5" font-family="Helvetica,sans-Serif" font-size="10.00">+</text>
<text text-anchor="start" x="23" y="-436.5" font-family="Helvetica,sans-Serif" font-size="10.00">i</text>
<text text-anchor="start" x="23" y="-421.5" font-family="Helvetica,sans-Serif" font-size="10.00">and 66 more...</text>
<text text-anchor="start" x="10" y="-406.5" font-family="Helvetica,sans-Serif" font-size="10.00">+</text>
<text text-anchor="start" x="23" y="-406.5" font-family="Helvetica,sans-Serif" font-size="10.00">retract_height</text>
<text text-anchor="start" x="10" y="-391.5" font-family="Helvetica,sans-Serif" font-size="10.00">+</text>
<text text-anchor="start" x="23" y="-391.5" font-family="Helvetica,sans-Serif" font-size="10.00">x</text>
<text text-anchor="start" x="10" y="-376.5" font-family="Helvetica,sans-Serif" font-size="10.00">+</text>
<text text-anchor="start" x="23" y="-376.5" font-family="Helvetica,sans-Serif" font-size="10.00">y</text>
<text text-anchor="start" x="10" y="-361.5" font-family="Helvetica,sans-Serif" font-size="10.00">+</text>
<text text-anchor="start" x="23" y="-361.5" font-family="Helvetica,sans-Serif" font-size="10.00">prev_z</text>
<text text-anchor="start" x="10" y="-346.5" font-family="Helvetica,sans-Serif" font-size="10.00">+</text>
<text text-anchor="start" x="23" y="-346.5" font-family="Helvetica,sans-Serif" font-size="10.00">z</text>
<text text-anchor="start" x="10" y="-331.5" font-family="Helvetica,sans-Serif" font-size="10.00">+</text>
<text text-anchor="start" x="23" y="-331.5" font-family="Helvetica,sans-Serif" font-size="10.00">prev_retract</text>
<text text-anchor="start" x="10" y="-316.5" font-family="Helvetica,sans-Serif" font-size="10.00">+</text>
<text text-anchor="start" x="23" y="-316.5" font-family="Helvetica,sans-Serif" font-size="10.00">first_drill_pos</text>
<text text-anchor="start" x="10" y="-301.5" font-family="Helvetica,sans-Serif" font-size="10.00">+</text>
<text text-anchor="start" x="23" y="-301.5" font-family="Helvetica,sans-Serif" font-size="10.00">creator</text>
<text text-anchor="start" x="10" y="-286.5" font-family="Helvetica,sans-Serif" font-size="10.00">+</text>
<text text-anchor="start" x="23" y="-286.5" font-family="Helvetica,sans-Serif" font-size="10.00">__init__()</text>
<text text-anchor="start" x="10" y="-271.5" font-family="Helvetica,sans-Serif" font-size="10.00">+</text>
<text text-anchor="start" x="23" y="-271.5" font-family="Helvetica,sans-Serif" font-size="10.00">SPACE_STR()</text>
<text text-anchor="start" x="10" y="-256.5" font-family="Helvetica,sans-Serif" font-size="10.00">+</text>
<text text-anchor="start" x="23" y="-256.5" font-family="Helvetica,sans-Serif" font-size="10.00">SPACE()</text>
<text text-anchor="start" x="10" y="-241.5" font-family="Helvetica,sans-Serif" font-size="10.00">+</text>
<text text-anchor="start" x="23" y="-241.5" font-family="Helvetica,sans-Serif" font-size="10.00">FORMAT_FEEDRATE()</text>
<text text-anchor="start" x="10" y="-226.5" font-family="Helvetica,sans-Serif" font-size="10.00">+</text>
<text text-anchor="start" x="23" y="-226.5" font-family="Helvetica,sans-Serif" font-size="10.00">FORMAT_ANG()</text>
<text text-anchor="start" x="10" y="-211.5" font-family="Helvetica,sans-Serif" font-size="10.00">+</text>
<text text-anchor="start" x="23" y="-211.5" font-family="Helvetica,sans-Serif" font-size="10.00">FORMAT_TIME()</text>
<text text-anchor="start" x="10" y="-196.5" font-family="Helvetica,sans-Serif" font-size="10.00">+</text>
<text text-anchor="start" x="23" y="-196.5" font-family="Helvetica,sans-Serif" font-size="10.00">BLOCK()</text>
<text text-anchor="start" x="10" y="-181.5" font-family="Helvetica,sans-Serif" font-size="10.00">+</text>
<text text-anchor="start" x="23" y="-181.5" font-family="Helvetica,sans-Serif" font-size="10.00">COMMENT()</text>
<text text-anchor="start" x="10" y="-166.5" font-family="Helvetica,sans-Serif" font-size="10.00">+</text>
<text text-anchor="start" x="23" y="-166.5" font-family="Helvetica,sans-Serif" font-size="10.00">VARIABLE()</text>
<text text-anchor="start" x="10" y="-151.5" font-family="Helvetica,sans-Serif" font-size="10.00">+</text>
<text text-anchor="start" x="23" y="-151.5" font-family="Helvetica,sans-Serif" font-size="10.00">VARIABLE_SET()</text>
<text text-anchor="start" x="23" y="-136.5" font-family="Helvetica,sans-Serif" font-size="10.00">and 151 more...</text>
<polygon fill="#666666" stroke="#666666" points="6,-581.5 6,-581.5 132,-581.5 132,-581.5 6,-581.5"/>
<polygon fill="#666666" stroke="#666666" points="6,-296.5 6,-296.5 21,-296.5 21,-296.5 6,-296.5"/>
<polygon fill="#666666" stroke="#666666" points="21,-296.5 21,-296.5 132,-296.5 132,-296.5 21,-296.5"/>
<polygon fill="none" stroke="#666666" points="6,-130 6,-599 132,-599 132,-130 6,-130"/>
</a>
</g>
</g>
<!-- Node2&#45;&gt;Node1 -->
<g id="edge1_Node000001_Node000002" class="edge">
<title>Node2&#45;&gt;Node1</title>
<g id="a_edge1_Node000001_Node000002"><a xlink:title=" ">
<path fill="none" stroke="#63b8ff" d="M69,-119.54C69,-110.41 69,-101.84 69,-94.02"/>
<polygon fill="none" stroke="#63b8ff" points="65.5,-119.66 69,-129.66 72.5,-119.66 65.5,-119.66"/>
</a>
</g>
</g>
<!-- Node3 -->
<g id="Node000003" class="node">
<title>Node3</title>
<g id="a_Node000003"><a xlink:href="classcam_1_1nc_1_1nc_1_1Creator.html" target="_top" xlink:title=" ">
<polygon fill="white" stroke="transparent" points="120.5,-849 17.5,-849 17.5,-635 120.5,-635 120.5,-849"/>
<text text-anchor="start" x="25" y="-837" font-family="Helvetica,sans-Serif" font-size="10.00">cam.nc.nc.Creator</text>
<text text-anchor="start" x="22" y="-822" font-family="Helvetica,sans-Serif" font-size="10.00">+</text>
<text text-anchor="start" x="35" y="-822" font-family="Helvetica,sans-Serif" font-size="10.00">file</text>
<text text-anchor="start" x="22" y="-807" font-family="Helvetica,sans-Serif" font-size="10.00">+</text>
<text text-anchor="start" x="35" y="-807" font-family="Helvetica,sans-Serif" font-size="10.00">filename</text>
<text text-anchor="start" x="22" y="-792" font-family="Helvetica,sans-Serif" font-size="10.00">+</text>
<text text-anchor="start" x="35" y="-792" font-family="Helvetica,sans-Serif" font-size="10.00">__init__()</text>
<text text-anchor="start" x="22" y="-777" font-family="Helvetica,sans-Serif" font-size="10.00">+</text>
<text text-anchor="start" x="35" y="-777" font-family="Helvetica,sans-Serif" font-size="10.00">file_open()</text>
<text text-anchor="start" x="22" y="-762" font-family="Helvetica,sans-Serif" font-size="10.00">+</text>
<text text-anchor="start" x="35" y="-762" font-family="Helvetica,sans-Serif" font-size="10.00">file_close()</text>
<text text-anchor="start" x="22" y="-747" font-family="Helvetica,sans-Serif" font-size="10.00">+</text>
<text text-anchor="start" x="35" y="-747" font-family="Helvetica,sans-Serif" font-size="10.00">write()</text>
<text text-anchor="start" x="22" y="-732" font-family="Helvetica,sans-Serif" font-size="10.00">+</text>
<text text-anchor="start" x="35" y="-732" font-family="Helvetica,sans-Serif" font-size="10.00">writem()</text>
<text text-anchor="start" x="22" y="-717" font-family="Helvetica,sans-Serif" font-size="10.00">+</text>
<text text-anchor="start" x="35" y="-717" font-family="Helvetica,sans-Serif" font-size="10.00">program_begin()</text>
<text text-anchor="start" x="22" y="-702" font-family="Helvetica,sans-Serif" font-size="10.00">+</text>
<text text-anchor="start" x="35" y="-702" font-family="Helvetica,sans-Serif" font-size="10.00">add_stock()</text>
<text text-anchor="start" x="22" y="-687" font-family="Helvetica,sans-Serif" font-size="10.00">+</text>
<text text-anchor="start" x="35" y="-687" font-family="Helvetica,sans-Serif" font-size="10.00">program_stop()</text>
<text text-anchor="start" x="22" y="-672" font-family="Helvetica,sans-Serif" font-size="10.00">+</text>
<text text-anchor="start" x="35" y="-672" font-family="Helvetica,sans-Serif" font-size="10.00">program_end()</text>
<text text-anchor="start" x="22" y="-657" font-family="Helvetica,sans-Serif" font-size="10.00">+</text>
<text text-anchor="start" x="35" y="-657" font-family="Helvetica,sans-Serif" font-size="10.00">flush_nc()</text>
<text text-anchor="start" x="35" y="-642" font-family="Helvetica,sans-Serif" font-size="10.00">and 77 more...</text>
<polygon fill="#666666" stroke="#666666" points="18,-832 18,-832 121,-832 121,-832 18,-832"/>
<polygon fill="#666666" stroke="#666666" points="18,-802 18,-802 33,-802 33,-802 18,-802"/>
<polygon fill="#666666" stroke="#666666" points="33,-802 33,-802 121,-802 121,-802 33,-802"/>
<polygon fill="none" stroke="#666666" points="17.5,-635 17.5,-849 120.5,-849 120.5,-635 17.5,-635"/>
</a>
</g>
</g>
<!-- Node3&#45;&gt;Node2 -->
<g id="edge2_Node000002_Node000003" class="edge">
<title>Node3&#45;&gt;Node2</title>
<g id="a_edge2_Node000002_Node000003"><a xlink:title=" ">
<path fill="none" stroke="#63b8ff" d="M69,-624.81C69,-616.45 69,-607.86 69,-599.13"/>
<polygon fill="none" stroke="#63b8ff" points="65.5,-624.9 69,-634.9 72.5,-624.9 65.5,-624.9"/>
</a>
</g>
</g>
</g>
</svg>

<g id="navigator" transform="translate(0 0)" fill="#404254">
  <rect fill="#f2f5e9" fill-opacity="0.5" stroke="#606060" stroke-width=".5" x="0" y="0" width="60" height="60"/>
  <use id="zoomplus" xlink:href="#zoomPlus" x="17" y="9" onmousedown="handleZoom(evt,'in')"/>
  <use id="zoomminus" xlink:href="#zoomMin" x="42" y="9" onmousedown="handleZoom(evt,'out')"/>
  <use id="reset" xlink:href="#resetDef" x="30" y="36" onmousedown="handleReset()"/>
   <use id="arrowup" xlink:href="#arrowUp" x="0" y="0" onmousedown="handlePan(0,-1)"/>
  <use id="arrowright" xlink:href="#arrowRight" x="0" y="0" onmousedown="handlePan(1,0)"/>
  <use id="arrowdown" xlink:href="#arrowDown" x="0" y="0" onmousedown="handlePan(0,1)"/>
  <use id="arrowleft" xlink:href="#arrowLeft" x="0" y="0" onmousedown="handlePan(-1,0)"/>
</g>
<svg viewBox="0 0 15 15" width="100%" height="30px" preserveAspectRatio="xMaxYMin meet">
 <g id="arrow_out" transform="scale(0.3 0.3)">
  <a xlink:href="classcam_1_1nc_1_1iso__modal_1_1Creator__coll__graph_org.svg" target="_base">
   <rect id="button" ry="5" rx="5" y="6" x="6" height="38" width="38"
        fill="#f2f5e9" fill-opacity="0.5" stroke="#606060" stroke-width="1.0"/>
   <path id="arrow"
     d="M 11.500037,31.436501 C 11.940474,20.09759 22.043105,11.32322 32.158766,21.979434 L 37.068811,17.246167 C 37.068811,17.246167 37.088388,32 37.088388,32 L 22.160133,31.978069 C 22.160133,31.978069 26.997745,27.140456 26.997745,27.140456 C 18.528582,18.264221 13.291696,25.230495 11.500037,31.436501 z"
     style="fill:#404040;"/>
  </a>
 </g>
</svg>

<style type='text/css'>
<![CDATA[
[data-mouse-over-selected='false'] { opacity: 0.7; }
[data-mouse-over-selected='true']  { opacity: 1.0; }
]]>
</style>
<script type="application/ecmascript"><![CDATA[
document.addEventListener('DOMContentLoaded', (event) => {
  highlightEdges();
  highlightAdjacentNodes();
});
]]></script>
</svg>
