<?xml version="1.0" encoding="UTF-8" standalone="no"?>
<!DOCTYPE svg PUBLIC "-//W3C//DTD SVG 1.1//EN"
 "http://www.w3.org/Graphics/SVG/1.1/DTD/svg11.dtd">
<!-- Generated by graphviz version 2.43.0 (0)
 -->
<!-- Title: cam.nc.iso.Creator.incremental Pages: 1 -->
<svg width="839pt" height="408pt"
 viewBox="0.00 0.00 839.00 408.00" xmlns="http://www.w3.org/2000/svg" xmlns:xlink="http://www.w3.org/1999/xlink">
<g id="graph0" class="graph" transform="scale(1 1) rotate(0) translate(4 404)">
<title>cam.nc.iso.Creator.incremental</title>
<!-- Node1 -->
<g id="Node000001" class="node">
<title>Node1</title>
<g id="a_Node000001"><a xlink:title=" ">
<polygon fill="#999999" stroke="#666666" points="169,-255 0,-255 0,-236 169,-236 169,-255"/>
<text text-anchor="middle" x="84.5" y="-243" font-family="Helvetica,sans-Serif" font-size="10.00">cam.nc.iso.Creator.incremental</text>
</a>
</g>
</g>
<!-- Node2 -->
<g id="Node000002" class="node">
<title>Node2</title>
<g id="a_Node000002"><a xlink:href="classcam_1_1nc_1_1heiden_1_1Creator.html#a93fe157691b2bd7ba03fe41fc3f7767c" target="_top" xlink:title=" ">
<polygon fill="white" stroke="#666666" points="404,-292 205,-292 205,-273 404,-273 404,-292"/>
<text text-anchor="middle" x="304.5" y="-280" font-family="Helvetica,sans-Serif" font-size="10.00">cam.nc.heiden.Creator.INCREMENTAL</text>
</a>
</g>
</g>
<!-- Node1&#45;&gt;Node2 -->
<g id="edge1_Node000001_Node000002" class="edge">
<title>Node1&#45;&gt;Node2</title>
<g id="a_edge1_Node000001_Node000002"><a xlink:title=" ">
<path fill="none" stroke="#63b8ff" d="M141.64,-255.03C170.77,-259.97 206.54,-266.04 237.05,-271.22"/>
<polygon fill="#63b8ff" stroke="#63b8ff" points="236.73,-274.72 247.17,-272.94 237.9,-267.82 236.73,-274.72"/>
</a>
</g>
</g>
<!-- Node3 -->
<g id="Node000003" class="node">
<title>Node3</title>
<g id="a_Node000003"><a xlink:href="classcam_1_1nc_1_1iso_1_1Creator.html#ac5ccab83b0e78c39d566e980259a45dc" target="_top" xlink:title=" ">
<polygon fill="white" stroke="#666666" points="394.5,-255 214.5,-255 214.5,-236 394.5,-236 394.5,-255"/>
<text text-anchor="middle" x="304.5" y="-243" font-family="Helvetica,sans-Serif" font-size="10.00">cam.nc.iso.Creator.INCREMENTAL</text>
</a>
</g>
</g>
<!-- Node1&#45;&gt;Node3 -->
<g id="edge2_Node000001_Node000003" class="edge">
<title>Node1&#45;&gt;Node3</title>
<g id="a_edge2_Node000001_Node000003"><a xlink:title=" ">
<path fill="none" stroke="#63b8ff" d="M169.16,-245.5C180.58,-245.5 192.4,-245.5 204.07,-245.5"/>
<polygon fill="#63b8ff" stroke="#63b8ff" points="204.27,-249 214.27,-245.5 204.27,-242 204.27,-249"/>
</a>
</g>
</g>
<!-- Node4 -->
<g id="Node000004" class="node">
<title>Node4</title>
<g id="a_Node000004"><a xlink:href="classcam_1_1nc_1_1makerbot__codes_1_1Codes.html#ad05099ecbf36a95d1e9215fa06343083" target="_top" xlink:title=" ">
<polygon fill="white" stroke="#666666" points="390,-217.5 219,-217.5 219,-187.5 390,-187.5 390,-217.5"/>
<text text-anchor="start" x="227" y="-205.5" font-family="Helvetica,sans-Serif" font-size="10.00">cam.nc.makerbot_codes.Codes.</text>
<text text-anchor="middle" x="304.5" y="-194.5" font-family="Helvetica,sans-Serif" font-size="10.00">INCREMENTAL</text>
</a>
</g>
</g>
<!-- Node1&#45;&gt;Node4 -->
<g id="edge3_Node000001_Node000004" class="edge">
<title>Node1&#45;&gt;Node4</title>
<g id="a_edge3_Node000001_Node000004"><a xlink:title=" ">
<path fill="none" stroke="#63b8ff" d="M133.88,-235.96C158.45,-231.11 189.06,-225.07 217.47,-219.47"/>
<polygon fill="#63b8ff" stroke="#63b8ff" points="218.29,-222.88 227.42,-217.51 216.93,-216.01 218.29,-222.88"/>
</a>
</g>
</g>
<!-- Node5 -->
<g id="Node000005" class="node">
<title>Node5</title>
<g id="a_Node000005"><a xlink:href="classcam_1_1nc_1_1emc2_1_1Creator.html#a47a9e4f5f35681f580765bba2f0f97a5" target="_top" xlink:title=" ">
<polygon fill="white" stroke="#666666" points="602.5,-400 448.5,-400 448.5,-381 602.5,-381 602.5,-400"/>
<text text-anchor="middle" x="525.5" y="-388" font-family="Helvetica,sans-Serif" font-size="10.00">cam.nc.emc2.Creator.SPACE</text>
</a>
</g>
</g>
<!-- Node4&#45;&gt;Node5 -->
<g id="edge4_Node000004_Node000005" class="edge">
<title>Node4&#45;&gt;Node5</title>
<g id="a_edge4_Node000004_Node000005"><a xlink:title=" ">
<path fill="none" stroke="#63b8ff" d="M390.16,-216.96C395.21,-219.89 399.89,-223.37 404,-227.5 450.83,-274.57 392.27,-326.34 440,-372.5 440.97,-373.44 441.98,-374.33 443.02,-375.19"/>
<polygon fill="#63b8ff" stroke="#63b8ff" points="441.31,-378.25 451.56,-380.94 445.22,-372.45 441.31,-378.25"/>
</a>
</g>
</g>
<!-- Node6 -->
<g id="Node000006" class="node">
<title>Node6</title>
<g id="a_Node000006"><a xlink:href="classcam_1_1nc_1_1emc2b_1_1Creator.html#abff5586e78bb91681bd41dafdea5a9e7" target="_top" xlink:title=" ">
<polygon fill="white" stroke="#666666" points="605.5,-363 445.5,-363 445.5,-344 605.5,-344 605.5,-363"/>
<text text-anchor="middle" x="525.5" y="-351" font-family="Helvetica,sans-Serif" font-size="10.00">cam.nc.emc2b.Creator.SPACE</text>
</a>
</g>
</g>
<!-- Node4&#45;&gt;Node6 -->
<g id="edge5_Node000004_Node000006" class="edge">
<title>Node4&#45;&gt;Node6</title>
<g id="a_edge5_Node000004_Node000006"><a xlink:title=" ">
<path fill="none" stroke="#63b8ff" d="M390.26,-217.61C395.21,-220.39 399.86,-223.66 404,-227.5 440.8,-261.61 402.74,-300.9 440,-334.5 441.72,-336.05 443.55,-337.49 445.45,-338.82"/>
<polygon fill="#63b8ff" stroke="#63b8ff" points="443.86,-341.94 454.26,-343.96 447.39,-335.89 443.86,-341.94"/>
</a>
</g>
</g>
<!-- Node7 -->
<g id="Node000007" class="node">
<title>Node7</title>
<g id="a_Node000007"><a xlink:href="classcam_1_1nc_1_1emc2tap_1_1CodesEMC2.html#a6a0d71a1c6e9f8a80228dc220a0e57ca" target="_top" xlink:title=" ">
<polygon fill="white" stroke="#666666" points="606,-325.5 445,-325.5 445,-295.5 606,-295.5 606,-325.5"/>
<text text-anchor="start" x="453" y="-313.5" font-family="Helvetica,sans-Serif" font-size="10.00">cam.nc.emc2tap.CodesEMC2.</text>
<text text-anchor="middle" x="525.5" y="-302.5" font-family="Helvetica,sans-Serif" font-size="10.00">SPACE</text>
</a>
</g>
</g>
<!-- Node4&#45;&gt;Node7 -->
<g id="edge6_Node000004_Node000007" class="edge">
<title>Node4&#45;&gt;Node7</title>
<g id="a_edge6_Node000004_Node000007"><a xlink:title=" ">
<path fill="none" stroke="#63b8ff" d="M386.89,-217.57C392.96,-220.35 398.75,-223.62 404,-227.5 428.72,-245.74 415.54,-267.91 440,-286.5 441.83,-287.89 443.73,-289.19 445.69,-290.43"/>
<polygon fill="#63b8ff" stroke="#63b8ff" points="444.2,-293.6 454.65,-295.35 447.58,-287.47 444.2,-293.6"/>
</a>
</g>
</g>
<!-- Node8 -->
<g id="Node000008" class="node">
<title>Node8</title>
<g id="a_Node000008"><a xlink:href="classcam_1_1nc_1_1heiden_1_1Creator.html#a2c4277ffddaea0f92c906c6744f7a3bd" target="_top" xlink:title="Codes.">
<polygon fill="white" stroke="#666666" points="605.5,-277 445.5,-277 445.5,-258 605.5,-258 605.5,-277"/>
<text text-anchor="middle" x="525.5" y="-265" font-family="Helvetica,sans-Serif" font-size="10.00">cam.nc.heiden.Creator.SPACE</text>
</a>
</g>
</g>
<!-- Node4&#45;&gt;Node8 -->
<g id="edge7_Node000004_Node000008" class="edge">
<title>Node4&#45;&gt;Node8</title>
<g id="a_edge7_Node000004_Node000008"><a xlink:title=" ">
<path fill="none" stroke="#63b8ff" d="M374.91,-217.51C384.82,-220.4 394.77,-223.73 404,-227.5 421.14,-234.51 422.76,-241.72 440,-248.5 446.64,-251.11 453.72,-253.41 460.85,-255.41"/>
<polygon fill="#63b8ff" stroke="#63b8ff" points="460,-258.81 470.56,-257.97 461.79,-252.04 460,-258.81"/>
</a>
</g>
</g>
<!-- Node9 -->
<g id="Node000009" class="node">
<title>Node9</title>
<g id="a_Node000009"><a xlink:href="classcam_1_1nc_1_1heiden530_1_1Creator.html#aa64b19b0edc2ac1f2d568b09ca2aebcb" target="_top" xlink:title="Codes.">
<polygon fill="white" stroke="#666666" points="599,-239.5 452,-239.5 452,-209.5 599,-209.5 599,-239.5"/>
<text text-anchor="start" x="460" y="-227.5" font-family="Helvetica,sans-Serif" font-size="10.00">cam.nc.heiden530.Creator.</text>
<text text-anchor="middle" x="525.5" y="-216.5" font-family="Helvetica,sans-Serif" font-size="10.00">SPACE</text>
</a>
</g>
</g>
<!-- Node4&#45;&gt;Node9 -->
<g id="edge8_Node000004_Node000009" class="edge">
<title>Node4&#45;&gt;Node9</title>
<g id="a_edge8_Node000004_Node000009"><a xlink:title=" ">
<path fill="none" stroke="#63b8ff" d="M390.17,-211.01C407.02,-212.7 424.69,-214.47 441.48,-216.16"/>
<polygon fill="#63b8ff" stroke="#63b8ff" points="441.5,-219.68 451.8,-217.2 442.2,-212.72 441.5,-219.68"/>
</a>
</g>
</g>
<!-- Node10 -->
<g id="Node000010" class="node">
<title>Node10</title>
<g id="a_Node000010"><a xlink:href="classcam_1_1nc_1_1iso_1_1Creator.html#a79463d437baaaf23c828a2c9e62393f3" target="_top" xlink:title=" ">
<polygon fill="white" stroke="#666666" points="596,-191 455,-191 455,-172 596,-172 596,-191"/>
<text text-anchor="middle" x="525.5" y="-179" font-family="Helvetica,sans-Serif" font-size="10.00">cam.nc.iso.Creator.SPACE</text>
</a>
</g>
</g>
<!-- Node4&#45;&gt;Node10 -->
<g id="edge9_Node000004_Node000010" class="edge">
<title>Node4&#45;&gt;Node10</title>
<g id="a_edge9_Node000004_Node000010"><a xlink:title=" ">
<path fill="none" stroke="#63b8ff" d="M390.17,-194.38C408.08,-192.66 426.93,-190.86 444.65,-189.16"/>
<polygon fill="#63b8ff" stroke="#63b8ff" points="445.32,-192.61 454.94,-188.17 444.65,-185.64 445.32,-192.61"/>
</a>
</g>
</g>
<!-- Node18 -->
<g id="Node000018" class="node">
<title>Node18</title>
<g id="a_Node000018"><a xlink:href="classcam_1_1nc_1_1makerbot__codes_1_1Codes.html#a497077e0e500cc8f419b8f3f61f008b4" target="_top" xlink:title=" ">
<polygon fill="white" stroke="#666666" points="611,-153.5 440,-153.5 440,-123.5 611,-123.5 611,-153.5"/>
<text text-anchor="start" x="448" y="-141.5" font-family="Helvetica,sans-Serif" font-size="10.00">cam.nc.makerbot_codes.Codes.</text>
<text text-anchor="middle" x="525.5" y="-130.5" font-family="Helvetica,sans-Serif" font-size="10.00">SPACE</text>
</a>
</g>
</g>
<!-- Node4&#45;&gt;Node18 -->
<g id="edge17_Node000004_Node000018" class="edge">
<title>Node4&#45;&gt;Node18</title>
<g id="a_edge17_Node000004_Node000018"><a xlink:title=" ">
<path fill="none" stroke="#63b8ff" d="M356.85,-187.49C388.72,-178.18 429.85,-166.16 463.4,-156.36"/>
<polygon fill="#63b8ff" stroke="#63b8ff" points="464.48,-159.69 473.1,-153.52 462.52,-152.97 464.48,-159.69"/>
</a>
</g>
</g>
<!-- Node19 -->
<g id="Node000019" class="node">
<title>Node19</title>
<g id="a_Node000019"><a xlink:href="classcam_1_1nc_1_1series1_1_1Creator.html#a75918d23eef609baab85058fda3050d5" target="_top" xlink:title=" ">
<polygon fill="white" stroke="#666666" points="606.5,-105 444.5,-105 444.5,-86 606.5,-86 606.5,-105"/>
<text text-anchor="middle" x="525.5" y="-93" font-family="Helvetica,sans-Serif" font-size="10.00">cam.nc.series1.Creator.SPACE</text>
</a>
</g>
</g>
<!-- Node4&#45;&gt;Node19 -->
<g id="edge18_Node000004_Node000019" class="edge">
<title>Node4&#45;&gt;Node19</title>
<g id="a_edge18_Node000004_Node000019"><a xlink:title=" ">
<path fill="none" stroke="#63b8ff" d="M323.87,-187.36C348.69,-167.66 395.03,-133.53 440,-114.5 445.91,-112 452.19,-109.81 458.56,-107.89"/>
<polygon fill="#63b8ff" stroke="#63b8ff" points="459.91,-111.14 468.61,-105.09 458.04,-104.4 459.91,-111.14"/>
</a>
</g>
</g>
<!-- Node20 -->
<g id="Node000020" class="node">
<title>Node20</title>
<g id="a_Node000020"><a xlink:href="classcam_1_1nc_1_1shopbot__mtc_1_1Creator.html#a1512dbb5d0140eb216ed709a542261ac" target="_top" xlink:title="Codes.">
<polygon fill="white" stroke="#666666" points="605,-67.5 446,-67.5 446,-37.5 605,-37.5 605,-67.5"/>
<text text-anchor="start" x="454" y="-55.5" font-family="Helvetica,sans-Serif" font-size="10.00">cam.nc.shopbot_mtc.Creator.</text>
<text text-anchor="middle" x="525.5" y="-44.5" font-family="Helvetica,sans-Serif" font-size="10.00">SPACE</text>
</a>
</g>
</g>
<!-- Node4&#45;&gt;Node20 -->
<g id="edge19_Node000004_Node000020" class="edge">
<title>Node4&#45;&gt;Node20</title>
<g id="a_edge19_Node000004_Node000020"><a xlink:title=" ">
<path fill="none" stroke="#63b8ff" d="M317.5,-187.24C339.14,-160.76 387.36,-106.27 440,-76.5 443.08,-74.76 446.3,-73.13 449.6,-71.62"/>
<polygon fill="#63b8ff" stroke="#63b8ff" points="451.22,-74.74 459.09,-67.65 448.51,-68.28 451.22,-74.74"/>
</a>
</g>
</g>
<!-- Node21 -->
<g id="Node000021" class="node">
<title>Node21</title>
<g id="a_Node000021"><a xlink:href="classcam_1_1nc_1_1tnc151_1_1Creator.html#af5d9e50b2ff0e73cd7524e2145d55d76" target="_top" xlink:title=" ">
<polygon fill="white" stroke="#666666" points="605.5,-19 445.5,-19 445.5,0 605.5,0 605.5,-19"/>
<text text-anchor="middle" x="525.5" y="-7" font-family="Helvetica,sans-Serif" font-size="10.00">cam.nc.tnc151.Creator.SPACE</text>
</a>
</g>
</g>
<!-- Node4&#45;&gt;Node21 -->
<g id="edge20_Node000004_Node000021" class="edge">
<title>Node4&#45;&gt;Node21</title>
<g id="a_edge20_Node000004_Node000021"><a xlink:title=" ">
<path fill="none" stroke="#63b8ff" d="M312.62,-187.31C329.5,-153.06 375.42,-69.61 440,-28.5 443.33,-26.38 446.86,-24.5 450.53,-22.82"/>
<polygon fill="#63b8ff" stroke="#63b8ff" points="451.88,-26.05 459.86,-19.07 449.27,-19.55 451.88,-26.05"/>
</a>
</g>
</g>
<!-- Node11 -->
<g id="Node000011" class="node">
<title>Node11</title>
<g id="a_Node000011"><a xlink:href="classcam_1_1nc_1_1anilam__crusader__m_1_1Creator.html#a36f873a0248bcaa4cf2cfb220dc1b00c" target="_top" xlink:title="Codes.">
<polygon fill="white" stroke="#666666" points="807,-313.5 671,-313.5 671,-283.5 807,-283.5 807,-313.5"/>
<text text-anchor="start" x="679" y="-301.5" font-family="Helvetica,sans-Serif" font-size="10.00">cam.nc.anilam_crusader</text>
<text text-anchor="middle" x="739" y="-290.5" font-family="Helvetica,sans-Serif" font-size="10.00">_m.Creator.SPACE_STR</text>
</a>
</g>
</g>
<!-- Node10&#45;&gt;Node11 -->
<g id="edge10_Node000010_Node000011" class="edge">
<title>Node10&#45;&gt;Node11</title>
<g id="a_edge10_Node000010_Node000011"><a xlink:title=" ">
<path fill="none" stroke="#63b8ff" d="M594.96,-191.1C600.71,-193.59 606.17,-196.67 611,-200.5 639.68,-223.2 618.74,-251.28 647,-274.5 651.34,-278.07 656.15,-281.11 661.24,-283.7"/>
<polygon fill="#63b8ff" stroke="#63b8ff" points="660.08,-287.02 670.64,-287.9 662.93,-280.62 660.08,-287.02"/>
</a>
</g>
</g>
<!-- Node12 -->
<g id="Node000012" class="node">
<title>Node12</title>
<g id="a_Node000012"><a xlink:href="classcam_1_1nc_1_1fadal_1_1Creator.html#a97a50724edf2662eb4fe76b15516b638" target="_top" xlink:title="Codes.">
<polygon fill="white" stroke="#666666" points="827,-265 651,-265 651,-246 827,-246 827,-265"/>
<text text-anchor="middle" x="739" y="-253" font-family="Helvetica,sans-Serif" font-size="10.00">cam.nc.fadal.Creator.SPACE_STR</text>
</a>
</g>
</g>
<!-- Node10&#45;&gt;Node12 -->
<g id="edge11_Node000010_Node000012" class="edge">
<title>Node10&#45;&gt;Node12</title>
<g id="a_edge11_Node000010_Node000012"><a xlink:title=" ">
<path fill="none" stroke="#63b8ff" d="M588.51,-191.05C596.35,-193.51 604.05,-196.61 611,-200.5 631.02,-211.7 626.83,-226.56 647,-237.5 650.31,-239.3 653.77,-240.91 657.33,-242.37"/>
<polygon fill="#63b8ff" stroke="#63b8ff" points="656.36,-245.74 666.95,-245.87 658.75,-239.16 656.36,-245.74"/>
</a>
</g>
</g>
<!-- Node13 -->
<g id="Node000013" class="node">
<title>Node13</title>
<g id="a_Node000013"><a xlink:href="classcam_1_1nc_1_1gravos_1_1Creator.html#ac0bc0d26e8a92a65c0f33d696ad850f5" target="_top" xlink:title="Codes.">
<polygon fill="white" stroke="#666666" points="831,-228 647,-228 647,-209 831,-209 831,-228"/>
<text text-anchor="middle" x="739" y="-216" font-family="Helvetica,sans-Serif" font-size="10.00">cam.nc.gravos.Creator.SPACE_STR</text>
</a>
</g>
</g>
<!-- Node10&#45;&gt;Node13 -->
<g id="edge12_Node000010_Node000013" class="edge">
<title>Node10&#45;&gt;Node13</title>
<g id="a_edge12_Node000010_Node000013"><a xlink:title=" ">
<path fill="none" stroke="#63b8ff" d="M580.97,-191.03C609.1,-195.95 643.63,-201.99 673.14,-207.15"/>
<polygon fill="#63b8ff" stroke="#63b8ff" points="672.9,-210.66 683.35,-208.94 674.1,-203.77 672.9,-210.66"/>
</a>
</g>
</g>
<!-- Node14 -->
<g id="Node000014" class="node">
<title>Node14</title>
<g id="a_Node000014"><a xlink:href="classcam_1_1nc_1_1iso_1_1Creator.html#aa481cf1e394988751640fd5ce5af991e" target="_top" xlink:title="Codes.">
<polygon fill="white" stroke="#666666" points="821.5,-191 656.5,-191 656.5,-172 821.5,-172 821.5,-191"/>
<text text-anchor="middle" x="739" y="-179" font-family="Helvetica,sans-Serif" font-size="10.00">cam.nc.iso.Creator.SPACE_STR</text>
</a>
</g>
</g>
<!-- Node10&#45;&gt;Node14 -->
<g id="edge13_Node000010_Node000014" class="edge">
<title>Node10&#45;&gt;Node14</title>
<g id="a_edge13_Node000010_Node000014"><a xlink:title=" ">
<path fill="none" stroke="#63b8ff" d="M596.05,-181.5C612,-181.5 629.2,-181.5 645.94,-181.5"/>
<polygon fill="#63b8ff" stroke="#63b8ff" points="646.29,-185 656.29,-181.5 646.29,-178 646.29,-185"/>
</a>
</g>
</g>
<!-- Node15 -->
<g id="Node000015" class="node">
<title>Node15</title>
<g id="a_Node000015"><a xlink:href="classcam_1_1nc_1_1lynx__otter__o_1_1Creator.html#a73b176561e066abcdb256a1bf53a5fcc" target="_top" xlink:title="Codes.">
<polygon fill="white" stroke="#666666" points="817.5,-153.5 660.5,-153.5 660.5,-123.5 817.5,-123.5 817.5,-153.5"/>
<text text-anchor="start" x="668.5" y="-141.5" font-family="Helvetica,sans-Serif" font-size="10.00">cam.nc.lynx_otter_o.Creator.</text>
<text text-anchor="middle" x="739" y="-130.5" font-family="Helvetica,sans-Serif" font-size="10.00">SPACE_STR</text>
</a>
</g>
</g>
<!-- Node10&#45;&gt;Node15 -->
<g id="edge14_Node000010_Node000015" class="edge">
<title>Node10&#45;&gt;Node15</title>
<g id="a_edge14_Node000010_Node000015"><a xlink:title=" ">
<path fill="none" stroke="#63b8ff" d="M573.44,-171.96C597.18,-167.13 626.71,-161.13 654.18,-155.54"/>
<polygon fill="#63b8ff" stroke="#63b8ff" points="655.09,-158.93 664.19,-153.51 653.69,-152.07 655.09,-158.93"/>
</a>
</g>
</g>
<!-- Node16 -->
<g id="Node000016" class="node">
<title>Node16</title>
<g id="a_Node000016"><a xlink:href="classcam_1_1nc_1_1mach3_1_1Creator.html#aa461d578afa76c5af9bb5562b79d955a" target="_top" xlink:title="Codes.">
<polygon fill="white" stroke="#666666" points="831,-105 647,-105 647,-86 831,-86 831,-105"/>
<text text-anchor="middle" x="739" y="-93" font-family="Helvetica,sans-Serif" font-size="10.00">cam.nc.mach3.Creator.SPACE_STR</text>
</a>
</g>
</g>
<!-- Node10&#45;&gt;Node16 -->
<g id="edge15_Node000010_Node000016" class="edge">
<title>Node10&#45;&gt;Node16</title>
<g id="a_edge15_Node000010_Node000016"><a xlink:title=" ">
<path fill="none" stroke="#63b8ff" d="M591.64,-171.86C598.46,-169.41 605.07,-166.34 611,-162.5 633.39,-148.01 624.5,-128.81 647,-114.5 650.35,-112.37 653.9,-110.47 657.57,-108.78"/>
<polygon fill="#63b8ff" stroke="#63b8ff" points="658.97,-111.99 666.94,-105 656.35,-105.5 658.97,-111.99"/>
</a>
</g>
</g>
<!-- Node17 -->
<g id="Node000017" class="node">
<title>Node17</title>
<g id="a_Node000017"><a xlink:href="classcam_1_1nc_1_1winpc_1_1Creator.html#aae1cb93a5dd430719105fa03a054f654" target="_top" xlink:title="Codes.">
<polygon fill="white" stroke="#666666" points="828.5,-68 649.5,-68 649.5,-49 828.5,-49 828.5,-68"/>
<text text-anchor="middle" x="739" y="-56" font-family="Helvetica,sans-Serif" font-size="10.00">cam.nc.winpc.Creator.SPACE_STR</text>
</a>
</g>
</g>
<!-- Node10&#45;&gt;Node17 -->
<g id="edge16_Node000010_Node000017" class="edge">
<title>Node10&#45;&gt;Node17</title>
<g id="a_edge16_Node000010_Node000017"><a xlink:title=" ">
<path fill="none" stroke="#63b8ff" d="M595.61,-172C601.16,-169.49 606.39,-166.36 611,-162.5 642.75,-135.88 614.91,-102.71 647,-76.5 648.54,-75.24 650.15,-74.06 651.81,-72.95"/>
<polygon fill="#63b8ff" stroke="#63b8ff" points="653.54,-76 660.52,-68.03 650.09,-69.91 653.54,-76"/>
</a>
</g>
</g>
</g>
</svg>
