<?xml version="1.0" encoding="UTF-8" standalone="no"?>
<!DOCTYPE svg PUBLIC "-//W3C//DTD SVG 1.1//EN"
 "http://www.w3.org/Graphics/SVG/1.1/DTD/svg11.dtd">
<!-- Generated by graphviz version 2.43.0 (0)
 -->
<!-- Title: cam.nc.heiden.Creator.POLAR_OFF Pages: 1 -->
<svg width="385pt" height="150pt"
 viewBox="0.00 0.00 385.00 149.50" xmlns="http://www.w3.org/2000/svg" xmlns:xlink="http://www.w3.org/1999/xlink">

<svg id="main" version="1.1" xmlns="http://www.w3.org/2000/svg" xmlns:xlink="http://www.w3.org/1999/xlink" xml:space="preserve" onload="init(evt)">
<style type="text/css"><![CDATA[
.node, .edge {opacity: 0.7;}
.node.selected, .edge.selected {opacity: 1;}
.edge:hover path { stroke: red; }
.edge:hover polygon { stroke: red; fill: red; }
]]></style>
<script type="application/ecmascript" xlink:href="svg.min.js"/>
<svg id="graph" class="graph">
<g id="graph0" class="graph" transform="scale(1 1) rotate(0) translate(4 145.5)">
<title>cam.nc.heiden.Creator.POLAR_OFF</title>
<!-- Node1 -->
<g id="Node000001" class="node">
<title>Node1</title>
<g id="a_Node000001"><a xlink:title=" ">
<polygon fill="#999999" stroke="#666666" points="377,-74 190,-74 190,-55 377,-55 377,-74"/>
<text text-anchor="middle" x="283.5" y="-62" font-family="Helvetica,sans-Serif" font-size="10.00">cam.nc.heiden.Creator.POLAR_OFF</text>
</a>
</g>
</g>
<!-- Node2 -->
<g id="Node000002" class="node">
<title>Node2</title>
<g id="a_Node000002"><a xlink:href="classcam_1_1nc_1_1anilam__crusader__m_1_1Creator.html#a4fc6100666add019cc30656ea2ea2085" target="_top" xlink:title=" ">
<polygon fill="white" stroke="#666666" points="145,-141.5 9,-141.5 9,-111.5 145,-111.5 145,-141.5"/>
<text text-anchor="start" x="17" y="-129.5" font-family="Helvetica,sans-Serif" font-size="10.00">cam.nc.anilam_crusader</text>
<text text-anchor="middle" x="77" y="-118.5" font-family="Helvetica,sans-Serif" font-size="10.00">_m.Creator.polar</text>
</a>
</g>
</g>
<!-- Node1&#45;&gt;Node2 -->
<g id="edge1_Node000001_Node000002" class="edge">
<title>Node1&#45;&gt;Node2</title>
<g id="a_edge1_Node000001_Node000002"><a xlink:title=" ">
<path fill="none" stroke="#63b8ff" d="M241.29,-77C208.55,-86.92 162.66,-100.83 127.86,-111.38"/>
<polygon fill="#63b8ff" stroke="#63b8ff" points="242.44,-80.3 251,-74.05 240.41,-73.6 242.44,-80.3"/>
</a>
</g>
</g>
<!-- Node3 -->
<g id="Node000003" class="node">
<title>Node3</title>
<g id="a_Node000003"><a xlink:href="classcam_1_1nc_1_1emc2_1_1Creator.html#a722e5ed5c70739170c7ab76f123dd805" target="_top" xlink:title=" ">
<polygon fill="white" stroke="#666666" points="151,-93 3,-93 3,-74 151,-74 151,-93"/>
<text text-anchor="middle" x="77" y="-81" font-family="Helvetica,sans-Serif" font-size="10.00">cam.nc.emc2.Creator.polar</text>
</a>
</g>
</g>
<!-- Node1&#45;&gt;Node3 -->
<g id="edge2_Node000001_Node000003" class="edge">
<title>Node1&#45;&gt;Node3</title>
<g id="a_edge2_Node000001_Node000003"><a xlink:title=" ">
<path fill="none" stroke="#63b8ff" d="M179.74,-74.05C170.06,-74.95 160.38,-75.85 151.05,-76.71"/>
<polygon fill="#63b8ff" stroke="#63b8ff" points="180.19,-77.52 189.82,-73.11 179.54,-70.55 180.19,-77.52"/>
</a>
</g>
</g>
<!-- Node4 -->
<g id="Node000004" class="node">
<title>Node4</title>
<g id="a_Node000004"><a xlink:href="classcam_1_1nc_1_1heiden_1_1Creator.html#ac5ad033b4c6d8fd4ac1491750393a7ce" target="_top" xlink:title=" ">
<polygon fill="white" stroke="#666666" points="154,-56 0,-56 0,-37 154,-37 154,-56"/>
<text text-anchor="middle" x="77" y="-44" font-family="Helvetica,sans-Serif" font-size="10.00">cam.nc.heiden.Creator.polar</text>
</a>
</g>
</g>
<!-- Node1&#45;&gt;Node4 -->
<g id="edge3_Node000001_Node000004" class="edge">
<title>Node1&#45;&gt;Node4</title>
<g id="a_edge3_Node000001_Node000004"><a xlink:title=" ">
<path fill="none" stroke="#63b8ff" d="M179.72,-55.45C171.1,-54.69 162.49,-53.94 154.13,-53.2"/>
<polygon fill="#63b8ff" stroke="#63b8ff" points="179.56,-58.95 189.82,-56.34 180.17,-51.98 179.56,-58.95"/>
</a>
</g>
</g>
<!-- Node5 -->
<g id="Node000005" class="node">
<title>Node5</title>
<g id="a_Node000005"><a xlink:href="classcam_1_1nc_1_1iso_1_1Creator.html#a0a80136128b6466bdf30e894427d6bfb" target="_top" xlink:title=" ">
<polygon fill="white" stroke="#666666" points="144.5,-19 9.5,-19 9.5,0 144.5,0 144.5,-19"/>
<text text-anchor="middle" x="77" y="-7" font-family="Helvetica,sans-Serif" font-size="10.00">cam.nc.iso.Creator.polar</text>
</a>
</g>
</g>
<!-- Node1&#45;&gt;Node5 -->
<g id="edge4_Node000001_Node000005" class="edge">
<title>Node1&#45;&gt;Node5</title>
<g id="a_edge4_Node000001_Node000005"><a xlink:title=" ">
<path fill="none" stroke="#63b8ff" d="M239.68,-52.18C214.73,-45.08 182.64,-36.09 154,-28.5 142.04,-25.33 128.98,-22.01 117.11,-19.05"/>
<polygon fill="#63b8ff" stroke="#63b8ff" points="238.98,-55.62 249.56,-55 240.9,-48.89 238.98,-55.62"/>
</a>
</g>
</g>
</g>
</svg>
</svg>

<style type='text/css'>
<![CDATA[
[data-mouse-over-selected='false'] { opacity: 0.7; }
[data-mouse-over-selected='true']  { opacity: 1.0; }
]]>
</style>
<script type="application/ecmascript"><![CDATA[
document.addEventListener('DOMContentLoaded', (event) => {
  highlightEdges();
  highlightAdjacentNodes();
});
]]></script>
</svg>
