<?xml version="1.0" encoding="UTF-8" standalone="no"?>
<!DOCTYPE svg PUBLIC "-//W3C//DTD SVG 1.1//EN"
 "http://www.w3.org/Graphics/SVG/1.1/DTD/svg11.dtd">
<!-- Generated by graphviz version 2.43.0 (0)
 -->
<!-- Title: cam.nc.iso.Creator.VARIABLE_SET Pages: 1 -->
<svg width="444pt" height="101pt"
 viewBox="0.00 0.00 444.00 101.00" xmlns="http://www.w3.org/2000/svg" xmlns:xlink="http://www.w3.org/1999/xlink">
<g id="graph0" class="graph" transform="scale(1 1) rotate(0) translate(4 97)">
<title>cam.nc.iso.Creator.VARIABLE_SET</title>
<!-- Node1 -->
<g id="Node000001" class="node">
<title>Node1</title>
<g id="a_Node000001"><a xlink:title=" ">
<polygon fill="#999999" stroke="#666666" points="436,-56 255,-56 255,-37 436,-37 436,-56"/>
<text text-anchor="middle" x="345.5" y="-44" font-family="Helvetica,sans-Serif" font-size="10.00">cam.nc.iso.Creator.VARIABLE_SET</text>
</a>
</g>
</g>
<!-- Node2 -->
<g id="Node000002" class="node">
<title>Node2</title>
<g id="a_Node000002"><a xlink:href="classcam_1_1nc_1_1heiden_1_1Creator.html#aeaa3480468f78b1be737304bd08671cf" target="_top" xlink:title=" ">
<polygon fill="white" stroke="#666666" points="204,-93 15,-93 15,-74 204,-74 204,-93"/>
<text text-anchor="middle" x="109.5" y="-81" font-family="Helvetica,sans-Serif" font-size="10.00">cam.nc.heiden.Creator.variable_set</text>
</a>
</g>
</g>
<!-- Node1&#45;&gt;Node2 -->
<g id="edge1_Node000001_Node000002" class="edge">
<title>Node1&#45;&gt;Node2</title>
<g id="a_edge1_Node000001_Node000002"><a xlink:title=" ">
<path fill="none" stroke="#63b8ff" d="M274.23,-57.61C241.33,-62.81 202.53,-68.95 170.96,-73.94"/>
<polygon fill="#63b8ff" stroke="#63b8ff" points="274.91,-61.05 284.24,-56.03 273.82,-54.13 274.91,-61.05"/>
</a>
</g>
</g>
<!-- Node3 -->
<g id="Node000003" class="node">
<title>Node3</title>
<g id="a_Node000003"><a xlink:href="classcam_1_1nc_1_1iso_1_1Creator.html#a04092f294815f93711efb27477a1fb89" target="_top" xlink:title=" ">
<polygon fill="white" stroke="#666666" points="194.5,-56 24.5,-56 24.5,-37 194.5,-37 194.5,-56"/>
<text text-anchor="middle" x="109.5" y="-44" font-family="Helvetica,sans-Serif" font-size="10.00">cam.nc.iso.Creator.variable_set</text>
</a>
</g>
</g>
<!-- Node1&#45;&gt;Node3 -->
<g id="edge2_Node000001_Node000003" class="edge">
<title>Node1&#45;&gt;Node3</title>
<g id="a_edge2_Node000001_Node000003"><a xlink:title=" ">
<path fill="none" stroke="#63b8ff" d="M244.45,-46.5C227.86,-46.5 210.82,-46.5 194.68,-46.5"/>
<polygon fill="#63b8ff" stroke="#63b8ff" points="244.7,-50 254.7,-46.5 244.7,-43 244.7,-50"/>
</a>
</g>
</g>
<!-- Node4 -->
<g id="Node000004" class="node">
<title>Node4</title>
<g id="a_Node000004"><a xlink:href="classcam_1_1nc_1_1shopbot__mtc_1_1Creator.html#a8e088691db975c5165bd3be0b5171e67" target="_top" xlink:title=" ">
<polygon fill="white" stroke="#666666" points="219,-19 0,-19 0,0 219,0 219,-19"/>
<text text-anchor="middle" x="109.5" y="-7" font-family="Helvetica,sans-Serif" font-size="10.00">cam.nc.shopbot_mtc.Creator.variable_set</text>
</a>
</g>
</g>
<!-- Node1&#45;&gt;Node4 -->
<g id="edge3_Node000001_Node000004" class="edge">
<title>Node1&#45;&gt;Node4</title>
<g id="a_edge3_Node000001_Node000004"><a xlink:title=" ">
<path fill="none" stroke="#63b8ff" d="M274.23,-35.39C241.33,-30.19 202.53,-24.05 170.96,-19.06"/>
<polygon fill="#63b8ff" stroke="#63b8ff" points="273.82,-38.87 284.24,-36.97 274.91,-31.95 273.82,-38.87"/>
</a>
</g>
</g>
</g>
</svg>
