<?xml version="1.0" encoding="UTF-8" standalone="no"?>
<!DOCTYPE svg PUBLIC "-//W3C//DTD SVG 1.1//EN"
 "http://www.w3.org/Graphics/SVG/1.1/DTD/svg11.dtd">
<!-- Generated by graphviz version 2.43.0 (0)
 -->
<!-- Title: cam.curvecamequation.CamLissajousCurve Pages: 1 -->
<!--zoomable 252 -->

<svg id="main" version="1.1" xmlns="http://www.w3.org/2000/svg" xmlns:xlink="http://www.w3.org/1999/xlink" xml:space="preserve" onload="init(evt)">
<style type="text/css"><![CDATA[
.node, .edge {opacity: 0.7;}
.node.selected, .edge.selected {opacity: 1;}
.edge:hover path { stroke: red; }
.edge:hover polygon { stroke: red; fill: red; }
]]></style>

<defs>
  <circle id="rim" cx="0" cy="0" r="7"/>
  <circle id="rim2" cx="0" cy="0" r="3.5"/>
  <g id="zoomPlus">
    <use xlink:href="#rim" fill="#404040"><set attributeName="fill" to="#808080" begin="zoomplus.mouseover" end="zoomplus.mouseout"/></use>
    <path d="M-4,0h8M0,-4v8" fill="none" stroke="white" stroke-width="1.5" pointer-events="none"/>
  </g>
  <g id="zoomMin">
    <use xlink:href="#rim" fill="#404040"><set attributeName="fill" to="#808080" begin="zoomminus.mouseover" end="zoomminus.mouseout"/></use>
    <path d="M-4,0h8" fill="none" stroke="white" stroke-width="1.5" pointer-events="none"/>
  </g>
  <g id="arrowUp" transform="translate(30 24)">
    <use xlink:href="#rim"/>
    <path pointer-events="none" fill="none" stroke="white" stroke-width="1.5" d="M0,-3.0v7 M-2.5,-0.5L0,-3.0L2.5,-0.5"/>
  </g>
  <g id="arrowRight" transform="rotate(90) translate(36 -43)">
    <use xlink:href="#rim"/>
    <path pointer-events="none" fill="none" stroke="white" stroke-width="1.5" d="M0,-3.0v7 M-2.5,-0.5L0,-3.0L2.5,-0.5"/>
  </g>
  <g id="arrowDown" transform="rotate(180) translate(-30 -48)">
    <use xlink:href="#rim"/>
    <path pointer-events="none" fill="none" stroke="white" stroke-width="1.5" d="M0,-3.0v7 M-2.5,-0.5L0,-3.0L2.5,-0.5"/>
  </g>
  <g id="arrowLeft" transform="rotate(270) translate(-36 17)">
    <use xlink:href="#rim"/>
    <path pointer-events="none" fill="none" stroke="white" stroke-width="1.5" d="M0,-3.0v7 M-2.5,-0.5L0,-3.0L2.5,-0.5"/>
  </g>
  <g id="resetDef">
    <use xlink:href="#rim2" fill="#404040"><set attributeName="fill" to="#808080" begin="reset.mouseover" end="reset.mouseout"/></use>
  </g>
</defs>
<script type="application/ecmascript">
var viewWidth = 501;
var viewHeight = 252;
var sectionId = 'dynsection-1';
</script>
<script type="application/ecmascript" xlink:href="svg.min.js"/>
<svg id="graph" class="graph">
<g id="viewport">
<title>cam.curvecamequation.CamLissajousCurve</title>
<!-- Node1 -->
<g id="Node000001" class="node">
<title>Node1</title>
<g id="a_Node000001"><a xlink:title=" ">
<polygon fill="#999999" stroke="transparent" points="286,-60 135,-60 135,0 286,0 286,-60"/>
<text text-anchor="start" x="140.5" y="-48" font-family="Helvetica,sans-Serif" font-size="10.00">cam.curvecamequation.Cam</text>
<text text-anchor="start" x="174" y="-37" font-family="Helvetica,sans-Serif" font-size="10.00">LissajousCurve</text>
<text text-anchor="start" x="209" y="-22" font-family="Helvetica,sans-Serif" font-size="10.00"> </text>
<text text-anchor="start" x="160.5" y="-7" font-family="Helvetica,sans-Serif" font-size="10.00">+</text>
<text text-anchor="start" x="194.5" y="-7" font-family="Helvetica,sans-Serif" font-size="10.00">execute()</text>
<polygon fill="#666666" stroke="#666666" points="135.5,-32 135.5,-32 286.5,-32 286.5,-32 135.5,-32"/>
<polygon fill="#666666" stroke="#666666" points="135.5,-17 135.5,-17 286.5,-17 286.5,-17 135.5,-17"/>
<polygon fill="none" stroke="#666666" points="135,0 135,-60 286,-60 286,0 135,0"/>
</a>
</g>
</g>
<!-- Node2 -->
<g id="Node000002" class="node">
<title>Node2</title>
<g id="a_Node000002"><a xlink:title=" ">
<polygon fill="white" stroke="transparent" points="53,-244 0,-244 0,-195 53,-195 53,-244"/>
<text text-anchor="start" x="5.5" y="-231.5" font-family="Helvetica,sans-Serif" font-size="10.00">Operator</text>
<text text-anchor="start" x="25" y="-216.5" font-family="Helvetica,sans-Serif" font-size="10.00"> </text>
<text text-anchor="start" x="25" y="-201.5" font-family="Helvetica,sans-Serif" font-size="10.00"> </text>
<polygon fill="#666666" stroke="#666666" points="0.5,-226.5 0.5,-226.5 53.5,-226.5 53.5,-226.5 0.5,-226.5"/>
<polygon fill="#666666" stroke="#666666" points="0.5,-211.5 0.5,-211.5 53.5,-211.5 53.5,-211.5 0.5,-211.5"/>
<polygon fill="none" stroke="#666666" points="0,-195 0,-244 53,-244 53,-195 0,-195"/>
</a>
</g>
</g>
<!-- Node2&#45;&gt;Node1 -->
<g id="edge1_Node000001_Node000002" class="edge">
<title>Node2&#45;&gt;Node1</title>
<g id="a_edge1_Node000001_Node000002"><a xlink:title=" ">
<path fill="none" stroke="#63b8ff" d="M27.98,-184.72C31.14,-153.15 40.61,-106.71 68.5,-78 86.14,-59.84 110.94,-48.69 134.89,-41.85"/>
<polygon fill="none" stroke="#63b8ff" points="24.48,-184.54 27.13,-194.8 31.46,-185.13 24.48,-184.54"/>
</a>
</g>
</g>
<!-- Node3 -->
<g id="Node000003" class="node">
<title>Node3</title>
<g id="a_Node000003"><a xlink:title=" ">
<polygon fill="white" stroke="transparent" points="94,-244 71,-244 71,-195 94,-195 94,-244"/>
<text text-anchor="start" x="76.5" y="-231.5" font-family="Helvetica,sans-Serif" font-size="10.00">str</text>
<text text-anchor="start" x="81" y="-216.5" font-family="Helvetica,sans-Serif" font-size="10.00"> </text>
<text text-anchor="start" x="81" y="-201.5" font-family="Helvetica,sans-Serif" font-size="10.00"> </text>
<polygon fill="#666666" stroke="#666666" points="71.5,-226.5 71.5,-226.5 94.5,-226.5 94.5,-226.5 71.5,-226.5"/>
<polygon fill="#666666" stroke="#666666" points="71.5,-211.5 71.5,-211.5 94.5,-211.5 94.5,-211.5 71.5,-211.5"/>
<polygon fill="none" stroke="#666666" points="71,-195 71,-244 94,-244 94,-195 71,-195"/>
</a>
</g>
</g>
<!-- Node3&#45;&gt;Node1 -->
<g id="edge2_Node000001_Node000003" class="edge">
<title>Node3&#45;&gt;Node1</title>
<g id="a_edge2_Node000001_Node000003"><a xlink:title=" ">
<path fill="none" stroke="#63b8ff" d="M76.92,-194.81C71.28,-164.63 66.54,-112.28 91.5,-78 99.74,-66.68 111.14,-58.09 123.64,-51.56"/>
<polygon fill="none" stroke="#63b8ff" points="123.98,-51.4 127.73,-45.25 134.86,-46.34 131.1,-52.5 123.98,-51.4"/>
</a>
</g>
<text text-anchor="middle" x="123" y="-130.5" font-family="Helvetica,sans-Serif" font-size="10.00" fill="grey"> +bl_idname</text>
<text text-anchor="middle" x="123" y="-119.5" font-family="Helvetica,sans-Serif" font-size="10.00" fill="grey">+bl_label</text>
</g>
<!-- Node4 -->
<g id="Node000004" class="node">
<title>Node4</title>
<g id="a_Node000004"><a xlink:title=" ">
<polygon fill="white" stroke="transparent" points="183,-244 154,-244 154,-195 183,-195 183,-244"/>
<text text-anchor="start" x="159.5" y="-231.5" font-family="Helvetica,sans-Serif" font-size="10.00">dict</text>
<text text-anchor="start" x="167" y="-216.5" font-family="Helvetica,sans-Serif" font-size="10.00"> </text>
<text text-anchor="start" x="167" y="-201.5" font-family="Helvetica,sans-Serif" font-size="10.00"> </text>
<polygon fill="#666666" stroke="#666666" points="154.5,-226.5 154.5,-226.5 183.5,-226.5 183.5,-226.5 154.5,-226.5"/>
<polygon fill="#666666" stroke="#666666" points="154.5,-211.5 154.5,-211.5 183.5,-211.5 183.5,-211.5 154.5,-211.5"/>
<polygon fill="none" stroke="#666666" points="154,-195 154,-244 183,-244 183,-195 154,-195"/>
</a>
</g>
</g>
<!-- Node4&#45;&gt;Node1 -->
<g id="edge3_Node000001_Node000004" class="edge">
<title>Node4&#45;&gt;Node1</title>
<g id="a_edge3_Node000001_Node000004"><a xlink:title=" ">
<path fill="none" stroke="#63b8ff" d="M163.83,-194.97C159.21,-166.3 154.76,-116.89 169.5,-78 170.47,-75.45 171.64,-72.95 172.97,-70.51"/>
<polygon fill="none" stroke="#63b8ff" points="173.1,-70.31 173.02,-63.09 179.65,-60.25 179.73,-67.46 173.1,-70.31"/>
</a>
</g>
<text text-anchor="middle" x="200.5" y="-125" font-family="Helvetica,sans-Serif" font-size="10.00" fill="grey"> +bl_options</text>
</g>
<!-- Node5 -->
<g id="Node000005" class="node">
<title>Node5</title>
<g id="a_Node000005"><a xlink:title=" ">
<polygon fill="white" stroke="transparent" points="291,-244 214,-244 214,-195 291,-195 291,-244"/>
<text text-anchor="start" x="219.5" y="-231.5" font-family="Helvetica,sans-Serif" font-size="10.00">FloatProperty</text>
<text text-anchor="start" x="251" y="-216.5" font-family="Helvetica,sans-Serif" font-size="10.00"> </text>
<text text-anchor="start" x="251" y="-201.5" font-family="Helvetica,sans-Serif" font-size="10.00"> </text>
<polygon fill="#666666" stroke="#666666" points="214.5,-226.5 214.5,-226.5 291.5,-226.5 291.5,-226.5 214.5,-226.5"/>
<polygon fill="#666666" stroke="#666666" points="214.5,-211.5 214.5,-211.5 291.5,-211.5 291.5,-211.5 214.5,-211.5"/>
<polygon fill="none" stroke="#666666" points="214,-195 214,-244 291,-244 291,-195 214,-195"/>
</a>
</g>
</g>
<!-- Node5&#45;&gt;Node1 -->
<g id="edge4_Node000001_Node000005" class="edge">
<title>Node5&#45;&gt;Node1</title>
<g id="a_edge4_Node000001_Node000005"><a xlink:title=" ">
<path fill="none" stroke="#63b8ff" d="M250.94,-194.96C248.63,-166.71 243.22,-118.13 231.5,-78 230.88,-75.87 230.18,-73.72 229.43,-71.56"/>
<polygon fill="none" stroke="#63b8ff" points="229.33,-71.31 223.42,-67.16 224.98,-60.12 230.88,-64.26 229.33,-71.31"/>
</a>
</g>
<text text-anchor="middle" x="285" y="-169" font-family="Helvetica,sans-Serif" font-size="10.00" fill="grey"> +amplitude_A</text>
<text text-anchor="middle" x="285" y="-158" font-family="Helvetica,sans-Serif" font-size="10.00" fill="grey">+amplitude_B</text>
<text text-anchor="middle" x="285" y="-147" font-family="Helvetica,sans-Serif" font-size="10.00" fill="grey">+amplitude_Z</text>
<text text-anchor="middle" x="285" y="-136" font-family="Helvetica,sans-Serif" font-size="10.00" fill="grey">+maxt</text>
<text text-anchor="middle" x="285" y="-125" font-family="Helvetica,sans-Serif" font-size="10.00" fill="grey">+mint</text>
<text text-anchor="middle" x="285" y="-114" font-family="Helvetica,sans-Serif" font-size="10.00" fill="grey">+period_A</text>
<text text-anchor="middle" x="285" y="-103" font-family="Helvetica,sans-Serif" font-size="10.00" fill="grey">+period_B</text>
<text text-anchor="middle" x="285" y="-92" font-family="Helvetica,sans-Serif" font-size="10.00" fill="grey">+period_Z</text>
<text text-anchor="middle" x="285" y="-81" font-family="Helvetica,sans-Serif" font-size="10.00" fill="grey">+shift</text>
</g>
<!-- Node6 -->
<g id="Node000006" class="node">
<title>Node6</title>
<g id="a_Node000006"><a xlink:title=" ">
<polygon fill="white" stroke="transparent" points="389.5,-244 309.5,-244 309.5,-195 389.5,-195 389.5,-244"/>
<text text-anchor="start" x="314.5" y="-231.5" font-family="Helvetica,sans-Serif" font-size="10.00">EnumProperty</text>
<text text-anchor="start" x="347.5" y="-216.5" font-family="Helvetica,sans-Serif" font-size="10.00"> </text>
<text text-anchor="start" x="347.5" y="-201.5" font-family="Helvetica,sans-Serif" font-size="10.00"> </text>
<polygon fill="#666666" stroke="#666666" points="309.5,-226.5 309.5,-226.5 389.5,-226.5 389.5,-226.5 309.5,-226.5"/>
<polygon fill="#666666" stroke="#666666" points="309.5,-211.5 309.5,-211.5 389.5,-211.5 389.5,-211.5 309.5,-211.5"/>
<polygon fill="none" stroke="#666666" points="309.5,-195 309.5,-244 389.5,-244 389.5,-195 309.5,-195"/>
</a>
</g>
</g>
<!-- Node6&#45;&gt;Node1 -->
<g id="edge5_Node000001_Node000006" class="edge">
<title>Node6&#45;&gt;Node1</title>
<g id="a_edge5_Node000001_Node000006"><a xlink:title=" ">
<path fill="none" stroke="#63b8ff" d="M351.98,-194.83C353.85,-164.43 352.44,-111.59 325.5,-78 317.86,-68.47 307.97,-60.86 297.21,-54.78"/>
<polygon fill="none" stroke="#63b8ff" points="296.9,-54.63 289.74,-55.48 286.2,-49.2 293.36,-48.35 296.9,-54.63"/>
</a>
</g>
<text text-anchor="middle" x="375" y="-130.5" font-family="Helvetica,sans-Serif" font-size="10.00" fill="grey"> +waveA</text>
<text text-anchor="middle" x="375" y="-119.5" font-family="Helvetica,sans-Serif" font-size="10.00" fill="grey">+waveB</text>
</g>
<!-- Node7 -->
<g id="Node000007" class="node">
<title>Node7</title>
<g id="a_Node000007"><a xlink:title=" ">
<polygon fill="white" stroke="transparent" points="473,-244 408,-244 408,-195 473,-195 473,-244"/>
<text text-anchor="start" x="413.5" y="-231.5" font-family="Helvetica,sans-Serif" font-size="10.00">IntProperty</text>
<text text-anchor="start" x="439" y="-216.5" font-family="Helvetica,sans-Serif" font-size="10.00"> </text>
<text text-anchor="start" x="439" y="-201.5" font-family="Helvetica,sans-Serif" font-size="10.00"> </text>
<polygon fill="#666666" stroke="#666666" points="408.5,-226.5 408.5,-226.5 473.5,-226.5 473.5,-226.5 408.5,-226.5"/>
<polygon fill="#666666" stroke="#666666" points="408.5,-211.5 408.5,-211.5 473.5,-211.5 473.5,-211.5 408.5,-211.5"/>
<polygon fill="none" stroke="#666666" points="408,-195 408,-244 473,-244 473,-195 408,-195"/>
</a>
</g>
</g>
<!-- Node7&#45;&gt;Node1 -->
<g id="edge6_Node000001_Node000007" class="edge">
<title>Node7&#45;&gt;Node1</title>
<g id="a_edge6_Node000001_Node000007"><a xlink:title=" ">
<path fill="none" stroke="#63b8ff" d="M440.81,-194.74C439.88,-163.49 433.37,-108.95 401.5,-78 386.27,-63.21 340.79,-51.71 298.04,-43.78"/>
<polygon fill="none" stroke="#63b8ff" points="297.89,-43.75 291.28,-46.63 286.08,-41.64 292.69,-38.76 297.89,-43.75"/>
</a>
</g>
<text text-anchor="middle" x="466" y="-125" font-family="Helvetica,sans-Serif" font-size="10.00" fill="grey"> +iteration</text>
</g>
</g>
</svg>

<g id="navigator" transform="translate(0 0)" fill="#404254">
  <rect fill="#f2f5e9" fill-opacity="0.5" stroke="#606060" stroke-width=".5" x="0" y="0" width="60" height="60"/>
  <use id="zoomplus" xlink:href="#zoomPlus" x="17" y="9" onmousedown="handleZoom(evt,'in')"/>
  <use id="zoomminus" xlink:href="#zoomMin" x="42" y="9" onmousedown="handleZoom(evt,'out')"/>
  <use id="reset" xlink:href="#resetDef" x="30" y="36" onmousedown="handleReset()"/>
   <use id="arrowup" xlink:href="#arrowUp" x="0" y="0" onmousedown="handlePan(0,-1)"/>
  <use id="arrowright" xlink:href="#arrowRight" x="0" y="0" onmousedown="handlePan(1,0)"/>
  <use id="arrowdown" xlink:href="#arrowDown" x="0" y="0" onmousedown="handlePan(0,1)"/>
  <use id="arrowleft" xlink:href="#arrowLeft" x="0" y="0" onmousedown="handlePan(-1,0)"/>
</g>
<svg viewBox="0 0 15 15" width="100%" height="30px" preserveAspectRatio="xMaxYMin meet">
 <g id="arrow_out" transform="scale(0.3 0.3)">
  <a xlink:href="classcam_1_1curvecamequation_1_1CamLissajousCurve__coll__graph_org.svg" target="_base">
   <rect id="button" ry="5" rx="5" y="6" x="6" height="38" width="38"
        fill="#f2f5e9" fill-opacity="0.5" stroke="#606060" stroke-width="1.0"/>
   <path id="arrow"
     d="M 11.500037,31.436501 C 11.940474,20.09759 22.043105,11.32322 32.158766,21.979434 L 37.068811,17.246167 C 37.068811,17.246167 37.088388,32 37.088388,32 L 22.160133,31.978069 C 22.160133,31.978069 26.997745,27.140456 26.997745,27.140456 C 18.528582,18.264221 13.291696,25.230495 11.500037,31.436501 z"
     style="fill:#404040;"/>
  </a>
 </g>
</svg>

<style type='text/css'>
<![CDATA[
[data-mouse-over-selected='false'] { opacity: 0.7; }
[data-mouse-over-selected='true']  { opacity: 1.0; }
]]>
</style>
<script type="application/ecmascript"><![CDATA[
document.addEventListener('DOMContentLoaded', (event) => {
  highlightEdges();
  highlightAdjacentNodes();
});
]]></script>
</svg>
