<?xml version="1.0" encoding="UTF-8" standalone="no"?>
<!DOCTYPE svg PUBLIC "-//W3C//DTD SVG 1.1//EN"
 "http://www.w3.org/Graphics/SVG/1.1/DTD/svg11.dtd">
<!-- Generated by graphviz version 2.43.0 (0)
 -->
<!-- Title: cam.nc.nclathe_read.Parser.files_close Pages: 1 -->
<svg width="395pt" height="51pt"
 viewBox="0.00 0.00 395.00 50.50" xmlns="http://www.w3.org/2000/svg" xmlns:xlink="http://www.w3.org/1999/xlink">
<g id="graph0" class="graph" transform="scale(1 1) rotate(0) translate(4 46.5)">
<title>cam.nc.nclathe_read.Parser.files_close</title>
<!-- Node1 -->
<g id="Node000001" class="node">
<title>Node1</title>
<g id="a_Node000001"><a xlink:title=" ">
<polygon fill="#999999" stroke="#666666" points="173,-30 0,-30 0,0 173,0 173,-30"/>
<text text-anchor="start" x="8" y="-18" font-family="Helvetica,sans-Serif" font-size="10.00">cam.nc.nclathe_read.Parser.files</text>
<text text-anchor="middle" x="86.5" y="-7" font-family="Helvetica,sans-Serif" font-size="10.00">_close</text>
</a>
</g>
</g>
<!-- Node2 -->
<g id="Node000002" class="node">
<title>Node2</title>
<g id="a_Node000002"><a xlink:href="classcam_1_1nc_1_1nclathe__read_1_1Parser.html#ab5ea283b461b57e48c8d5b0ad0a45694" target="_top" xlink:title=" ">
<polygon fill="white" stroke="#666666" points="387,-24.5 209,-24.5 209,-5.5 387,-5.5 387,-24.5"/>
<text text-anchor="middle" x="298" y="-12.5" font-family="Helvetica,sans-Serif" font-size="10.00">cam.nc.nclathe_read.Parser.write</text>
</a>
</g>
</g>
<!-- Node1&#45;&gt;Node2 -->
<g id="edge1_Node000001_Node000002" class="edge">
<title>Node1&#45;&gt;Node2</title>
<g id="a_edge1_Node000001_Node000002"><a xlink:title=" ">
<path fill="none" stroke="#63b8ff" d="M173.01,-15C181.47,-15 190.1,-15 198.67,-15"/>
<polygon fill="#63b8ff" stroke="#63b8ff" points="198.7,-18.5 208.7,-15 198.7,-11.5 198.7,-18.5"/>
</a>
</g>
</g>
<!-- Node2&#45;&gt;Node2 -->
<g id="edge2_Node000002_Node000002" class="edge">
<title>Node2&#45;&gt;Node2</title>
<g id="a_edge2_Node000002_Node000002"><a xlink:title=" ">
<path fill="none" stroke="#63b8ff" d="M265.63,-24.58C249.89,-33.23 260.68,-42.5 298,-42.5 324.83,-42.5 337.95,-37.71 337.36,-31.81"/>
<polygon fill="#63b8ff" stroke="#63b8ff" points="339.84,-29.34 330.37,-24.58 334.8,-34.2 339.84,-29.34"/>
</a>
</g>
</g>
</g>
</svg>
