<?xml version="1.0" encoding="UTF-8" standalone="no"?>
<!DOCTYPE svg PUBLIC "-//W3C//DTD SVG 1.1//EN"
 "http://www.w3.org/Graphics/SVG/1.1/DTD/svg11.dtd">
<!-- Generated by graphviz version 2.43.0 (0)
 -->
<!-- Title: /tmp/github_repos_arch_doc_gen/SpectralVectors/blendercam/scripts/addons/cam Pages: 1 -->
<!--zoomable 94 -->

<svg id="main" version="1.1" xmlns="http://www.w3.org/2000/svg" xmlns:xlink="http://www.w3.org/1999/xlink" xml:space="preserve" onload="init(evt)">
<style type="text/css"><![CDATA[
.node, .edge {opacity: 0.7;}
.node.selected, .edge.selected {opacity: 1;}
.edge:hover path { stroke: red; }
.edge:hover polygon { stroke: red; fill: red; }
]]></style>

<defs>
  <circle id="rim" cx="0" cy="0" r="7"/>
  <circle id="rim2" cx="0" cy="0" r="3.5"/>
  <g id="zoomPlus">
    <use xlink:href="#rim" fill="#404040"><set attributeName="fill" to="#808080" begin="zoomplus.mouseover" end="zoomplus.mouseout"/></use>
    <path d="M-4,0h8M0,-4v8" fill="none" stroke="white" stroke-width="1.5" pointer-events="none"/>
  </g>
  <g id="zoomMin">
    <use xlink:href="#rim" fill="#404040"><set attributeName="fill" to="#808080" begin="zoomminus.mouseover" end="zoomminus.mouseout"/></use>
    <path d="M-4,0h8" fill="none" stroke="white" stroke-width="1.5" pointer-events="none"/>
  </g>
  <g id="arrowUp" transform="translate(30 24)">
    <use xlink:href="#rim"/>
    <path pointer-events="none" fill="none" stroke="white" stroke-width="1.5" d="M0,-3.0v7 M-2.5,-0.5L0,-3.0L2.5,-0.5"/>
  </g>
  <g id="arrowRight" transform="rotate(90) translate(36 -43)">
    <use xlink:href="#rim"/>
    <path pointer-events="none" fill="none" stroke="white" stroke-width="1.5" d="M0,-3.0v7 M-2.5,-0.5L0,-3.0L2.5,-0.5"/>
  </g>
  <g id="arrowDown" transform="rotate(180) translate(-30 -48)">
    <use xlink:href="#rim"/>
    <path pointer-events="none" fill="none" stroke="white" stroke-width="1.5" d="M0,-3.0v7 M-2.5,-0.5L0,-3.0L2.5,-0.5"/>
  </g>
  <g id="arrowLeft" transform="rotate(270) translate(-36 17)">
    <use xlink:href="#rim"/>
    <path pointer-events="none" fill="none" stroke="white" stroke-width="1.5" d="M0,-3.0v7 M-2.5,-0.5L0,-3.0L2.5,-0.5"/>
  </g>
  <g id="resetDef">
    <use xlink:href="#rim2" fill="#404040"><set attributeName="fill" to="#808080" begin="reset.mouseover" end="reset.mouseout"/></use>
  </g>
</defs>
<script type="application/ecmascript">
var viewWidth = 529;
var viewHeight = 94;
var sectionId = 'dynsection-0';
</script>
<script type="application/ecmascript" xlink:href="svg.min.js"/>
<svg id="graph" class="graph">
<g id="viewport">
<title>/tmp/github_repos_arch_doc_gen/SpectralVectors/blendercam/scripts/addons/cam</title>
<g id="clust1" class="cluster">
<title>clusterdir_3716901cc0e4301f64fd72d104a6e0e6</title>
<g id="a_clust1"><a xlink:href="dir_3716901cc0e4301f64fd72d104a6e0e6.html" target="_top" xlink:title="addons">
<polygon fill="#edf0f7" stroke="#7f7f7f" stroke-dasharray="5,2" points="8,-8 8,-78 513,-78 513,-8 8,-8"/>
<text text-anchor="middle" x="260.5" y="-66" font-family="Helvetica,sans-Serif" font-size="10.00">addons</text>
</a>
</g>
</g>
<g id="clust2" class="cluster">
<title>clusterdir_97e42a3e1802e3e26e7a98a76089fd4a</title>
<g id="a_clust2"><a xlink:href="dir_97e42a3e1802e3e26e7a98a76089fd4a.html" target="_top">
<polygon fill="#edf0f7" stroke="#404040" stroke-width="2" points="16,-16 16,-51 505,-51 505,-16 16,-16"/>
</a>
</g>
</g>
<!-- dir_97e42a3e1802e3e26e7a98a76089fd4a -->
<g id="node1" class="node">
<title>dir_97e42a3e1802e3e26e7a98a76089fd4a</title>
<text text-anchor="middle" x="478" y="-31" font-family="Helvetica,sans-Serif" font-size="10.00">cam</text>
</g>
<!-- dir_0f0d736f560f2fc751e5564cd3806446 -->
<g id="node2" class="node">
<title>dir_0f0d736f560f2fc751e5564cd3806446</title>
<g id="a_node2"><a xlink:href="dir_0f0d736f560f2fc751e5564cd3806446.html" target="_top" xlink:title="nc">
<polygon fill="#a2b4d6" stroke="#404040" points="440.5,-43 411.5,-43 411.5,-24 440.5,-24 440.5,-43"/>
<text text-anchor="middle" x="426" y="-31" font-family="Helvetica,sans-Serif" font-size="10.00">nc</text>
</a>
</g>
</g>
<!-- dir_f487ebb3153f77590db14167f9373003 -->
<g id="node3" class="node">
<title>dir_f487ebb3153f77590db14167f9373003</title>
<g id="a_node3"><a xlink:href="dir_f487ebb3153f77590db14167f9373003.html" target="_top" xlink:title="opencamlib">
<polygon fill="#a2b4d6" stroke="#404040" points="393,-43 319,-43 319,-24 393,-24 393,-43"/>
<text text-anchor="middle" x="356" y="-31" font-family="Helvetica,sans-Serif" font-size="10.00">opencamlib</text>
</a>
</g>
</g>
<!-- dir_b1f0847fe22f60bc066cc6938782e4a6 -->
<g id="node4" class="node">
<title>dir_b1f0847fe22f60bc066cc6938782e4a6</title>
<g id="a_node4"><a xlink:href="dir_b1f0847fe22f60bc066cc6938782e4a6.html" target="_top" xlink:title="pie_menu">
<polygon fill="#a2b4d6" stroke="#404040" points="300.5,-43 235.5,-43 235.5,-24 300.5,-24 300.5,-43"/>
<text text-anchor="middle" x="268" y="-31" font-family="Helvetica,sans-Serif" font-size="10.00">pie_menu</text>
</a>
</g>
</g>
<!-- dir_86e23de443639ce85da7351c2f526576 -->
<g id="node5" class="node">
<title>dir_86e23de443639ce85da7351c2f526576</title>
<g id="a_node5"><a xlink:href="dir_86e23de443639ce85da7351c2f526576.html" target="_top" xlink:title="presets">
<polygon fill="#a2b4d6" stroke="#404040" points="217.5,-43 164.5,-43 164.5,-24 217.5,-24 217.5,-43"/>
<text text-anchor="middle" x="191" y="-31" font-family="Helvetica,sans-Serif" font-size="10.00">presets</text>
</a>
</g>
</g>
<!-- dir_6b4f6933786c2c5db2e18116b1ddcf79 -->
<g id="node6" class="node">
<title>dir_6b4f6933786c2c5db2e18116b1ddcf79</title>
<g id="a_node6"><a xlink:href="dir_6b4f6933786c2c5db2e18116b1ddcf79.html" target="_top" xlink:title="tests">
<polygon fill="#a2b4d6" stroke="#404040" points="146.5,-43 105.5,-43 105.5,-24 146.5,-24 146.5,-43"/>
<text text-anchor="middle" x="126" y="-31" font-family="Helvetica,sans-Serif" font-size="10.00">tests</text>
</a>
</g>
</g>
<!-- dir_6ad93f1fb8e9cbd790ac33c30746b69d -->
<g id="node7" class="node">
<title>dir_6ad93f1fb8e9cbd790ac33c30746b69d</title>
<g id="a_node7"><a xlink:href="dir_6ad93f1fb8e9cbd790ac33c30746b69d.html" target="_top" xlink:title="ui_panels">
<polygon fill="#a2b4d6" stroke="#404040" points="87.5,-43 24.5,-43 24.5,-24 87.5,-24 87.5,-43"/>
<text text-anchor="middle" x="56" y="-31" font-family="Helvetica,sans-Serif" font-size="10.00">ui_panels</text>
</a>
</g>
</g>
</g>
</svg>

<g id="navigator" transform="translate(0 0)" fill="#404254">
  <rect fill="#f2f5e9" fill-opacity="0.5" stroke="#606060" stroke-width=".5" x="0" y="0" width="60" height="60"/>
  <use id="zoomplus" xlink:href="#zoomPlus" x="17" y="9" onmousedown="handleZoom(evt,'in')"/>
  <use id="zoomminus" xlink:href="#zoomMin" x="42" y="9" onmousedown="handleZoom(evt,'out')"/>
  <use id="reset" xlink:href="#resetDef" x="30" y="36" onmousedown="handleReset()"/>
   <use id="arrowup" xlink:href="#arrowUp" x="0" y="0" onmousedown="handlePan(0,-1)"/>
  <use id="arrowright" xlink:href="#arrowRight" x="0" y="0" onmousedown="handlePan(1,0)"/>
  <use id="arrowdown" xlink:href="#arrowDown" x="0" y="0" onmousedown="handlePan(0,1)"/>
  <use id="arrowleft" xlink:href="#arrowLeft" x="0" y="0" onmousedown="handlePan(-1,0)"/>
</g>
<svg viewBox="0 0 15 15" width="100%" height="30px" preserveAspectRatio="xMaxYMin meet">
 <g id="arrow_out" transform="scale(0.3 0.3)">
  <a xlink:href="dir_97e42a3e1802e3e26e7a98a76089fd4a_dep_org.svg" target="_base">
   <rect id="button" ry="5" rx="5" y="6" x="6" height="38" width="38"
        fill="#f2f5e9" fill-opacity="0.5" stroke="#606060" stroke-width="1.0"/>
   <path id="arrow"
     d="M 11.500037,31.436501 C 11.940474,20.09759 22.043105,11.32322 32.158766,21.979434 L 37.068811,17.246167 C 37.068811,17.246167 37.088388,32 37.088388,32 L 22.160133,31.978069 C 22.160133,31.978069 26.997745,27.140456 26.997745,27.140456 C 18.528582,18.264221 13.291696,25.230495 11.500037,31.436501 z"
     style="fill:#404040;"/>
  </a>
 </g>
</svg>

<style type='text/css'>
<![CDATA[
[data-mouse-over-selected='false'] { opacity: 0.7; }
[data-mouse-over-selected='true']  { opacity: 1.0; }
]]>
</style>
<script type="application/ecmascript"><![CDATA[
document.addEventListener('DOMContentLoaded', (event) => {
  highlightEdges();
  highlightAdjacentNodes();
});
]]></script>
</svg>
