<?xml version="1.0" encoding="UTF-8" standalone="no"?>
<!DOCTYPE svg PUBLIC "-//W3C//DTD SVG 1.1//EN"
 "http://www.w3.org/Graphics/SVG/1.1/DTD/svg11.dtd">
<!-- Generated by graphviz version 2.43.0 (0)
 -->
<!-- Title: Graphical Class Hierarchy Pages: 1 -->
<svg width="245pt" height="124pt"
 viewBox="0.00 0.00 245.00 123.50" xmlns="http://www.w3.org/2000/svg" xmlns:xlink="http://www.w3.org/1999/xlink">
<g id="graph0" class="graph" transform="scale(1 1) rotate(0) translate(4 119.5)">
<title>Graphical Class Hierarchy</title>
<!-- Node0 -->
<g id="Node000000" class="node">
<title>Node0</title>
<g id="a_Node000000"><a xlink:title=" ">
<polygon fill="#e0e0e0" stroke="#999999" points="44,-72.5 0,-72.5 0,-53.5 44,-53.5 44,-72.5"/>
<text text-anchor="middle" x="22" y="-60.5" font-family="Helvetica,sans-Serif" font-size="10.00">UIList</text>
</a>
</g>
</g>
<!-- Node1 -->
<g id="Node000001" class="node">
<title>Node1</title>
<g id="a_Node000001"><a xlink:href="classcam_1_1ui_1_1CAM__UL__orientations.html" target="_top" xlink:title=" ">
<polygon fill="white" stroke="#666666" points="237,-115.5 80,-115.5 80,-96.5 237,-96.5 237,-115.5"/>
<text text-anchor="middle" x="158.5" y="-103.5" font-family="Helvetica,sans-Serif" font-size="10.00">cam.ui.CAM_UL_orientations</text>
</a>
</g>
</g>
<!-- Node0&#45;&gt;Node1 -->
<g id="edge204_Node000000_Node000001" class="edge">
<title>Node0&#45;&gt;Node1</title>
<g id="a_edge204_Node000000_Node000001"><a xlink:title=" ">
<path fill="none" stroke="#63b8ff" d="M52.86,-76.62C61.51,-80.28 71.04,-84.04 80,-87 90.65,-90.52 102.32,-93.72 113.3,-96.44"/>
<polygon fill="#63b8ff" stroke="#63b8ff" points="54.11,-73.35 43.55,-72.58 51.33,-79.77 54.11,-73.35"/>
</a>
</g>
</g>
<!-- Node2 -->
<g id="Node000002" class="node">
<title>Node2</title>
<g id="a_Node000002"><a xlink:href="classcam_1_1ui__panels_1_1chains_1_1CAM__UL__chains.html" target="_top" xlink:title=" ">
<polygon fill="white" stroke="#666666" points="232,-78 85,-78 85,-48 232,-48 232,-78"/>
<text text-anchor="start" x="93" y="-66" font-family="Helvetica,sans-Serif" font-size="10.00">cam.ui_panels.chains.CAM</text>
<text text-anchor="middle" x="158.5" y="-55" font-family="Helvetica,sans-Serif" font-size="10.00">_UL_chains</text>
</a>
</g>
</g>
<!-- Node0&#45;&gt;Node2 -->
<g id="edge205_Node000000_Node000002" class="edge">
<title>Node0&#45;&gt;Node2</title>
<g id="a_edge205_Node000000_Node000002"><a xlink:title=" ">
<path fill="none" stroke="#63b8ff" d="M54.22,-63C63.47,-63 74.01,-63 84.74,-63"/>
<polygon fill="#63b8ff" stroke="#63b8ff" points="54.02,-59.5 44.02,-63 54.02,-66.5 54.02,-59.5"/>
</a>
</g>
</g>
<!-- Node3 -->
<g id="Node000003" class="node">
<title>Node3</title>
<g id="a_Node000003"><a xlink:href="classcam_1_1ui__panels_1_1chains_1_1CAM__UL__operations.html" target="_top" xlink:title=" ">
<polygon fill="white" stroke="#666666" points="232,-30 85,-30 85,0 232,0 232,-30"/>
<text text-anchor="start" x="93" y="-18" font-family="Helvetica,sans-Serif" font-size="10.00">cam.ui_panels.chains.CAM</text>
<text text-anchor="middle" x="158.5" y="-7" font-family="Helvetica,sans-Serif" font-size="10.00">_UL_operations</text>
</a>
</g>
</g>
<!-- Node0&#45;&gt;Node3 -->
<g id="edge206_Node000000_Node000003" class="edge">
<title>Node0&#45;&gt;Node3</title>
<g id="a_edge206_Node000000_Node000003"><a xlink:title=" ">
<path fill="none" stroke="#63b8ff" d="M53.41,-49.55C61.94,-45.95 71.28,-42.18 80,-39 88.47,-35.91 97.55,-32.87 106.4,-30.04"/>
<polygon fill="#63b8ff" stroke="#63b8ff" points="52,-46.34 44.19,-53.49 54.76,-52.78 52,-46.34"/>
</a>
</g>
</g>
</g>
</svg>
