<?xml version="1.0" encoding="UTF-8" standalone="no"?>
<!DOCTYPE svg PUBLIC "-//W3C//DTD SVG 1.1//EN"
 "http://www.w3.org/Graphics/SVG/1.1/DTD/svg11.dtd">
<!-- Generated by graphviz version 2.43.0 (0)
 -->
<!-- Title: Graphical Class Hierarchy Pages: 1 -->
<svg width="462pt" height="212pt"
 viewBox="0.00 0.00 462.00 212.00" xmlns="http://www.w3.org/2000/svg" xmlns:xlink="http://www.w3.org/1999/xlink">
<g id="graph0" class="graph" transform="scale(1 1) rotate(0) translate(4 208)">
<title>Graphical Class Hierarchy</title>
<!-- Node0 -->
<g id="Node000000" class="node">
<title>Node0</title>
<g id="a_Node000000"><a xlink:title=" ">
<polygon fill="#e0e0e0" stroke="#999999" points="61,-111 0,-111 0,-92 61,-92 61,-111"/>
<text text-anchor="middle" x="30.5" y="-99" font-family="Helvetica,sans-Serif" font-size="10.00">nc.Parser</text>
</a>
</g>
</g>
<!-- Node1 -->
<g id="Node000001" class="node">
<title>Node1</title>
<g id="a_Node000001"><a xlink:href="classcam_1_1nc_1_1cad__iso__read_1_1Parser.html" target="_top" xlink:title=" ">
<polygon fill="white" stroke="#666666" points="259.5,-204 107.5,-204 107.5,-185 259.5,-185 259.5,-204"/>
<text text-anchor="middle" x="183.5" y="-192" font-family="Helvetica,sans-Serif" font-size="10.00">cam.nc.cad_iso_read.Parser</text>
</a>
</g>
</g>
<!-- Node0&#45;&gt;Node1 -->
<g id="edge175_Node000000_Node000001" class="edge">
<title>Node0&#45;&gt;Node1</title>
<g id="a_edge175_Node000000_Node000001"><a xlink:title=" ">
<path fill="none" stroke="#63b8ff" d="M42.45,-119.78C53.85,-137.15 73.34,-162.63 97,-176.5 102.76,-179.88 109.06,-182.62 115.56,-184.86"/>
<polygon fill="#63b8ff" stroke="#63b8ff" points="45.27,-117.68 36.97,-111.09 39.34,-121.41 45.27,-117.68"/>
</a>
</g>
</g>
<!-- Node2 -->
<g id="Node000002" class="node">
<title>Node2</title>
<g id="a_Node000002"><a xlink:href="classcam_1_1nc_1_1heiden__read_1_1Parser.html" target="_top" xlink:title=" ">
<polygon fill="white" stroke="#666666" points="257.5,-167 109.5,-167 109.5,-148 257.5,-148 257.5,-167"/>
<text text-anchor="middle" x="183.5" y="-155" font-family="Helvetica,sans-Serif" font-size="10.00">cam.nc.heiden_read.Parser</text>
</a>
</g>
</g>
<!-- Node0&#45;&gt;Node2 -->
<g id="edge176_Node000000_Node000002" class="edge">
<title>Node0&#45;&gt;Node2</title>
<g id="a_edge176_Node000000_Node000002"><a xlink:title=" ">
<path fill="none" stroke="#63b8ff" d="M54.03,-116.97C66.27,-124.75 81.94,-133.72 97,-139.5 105.78,-142.87 115.32,-145.67 124.74,-147.96"/>
<polygon fill="#63b8ff" stroke="#63b8ff" points="55.69,-113.88 45.41,-111.33 51.86,-119.74 55.69,-113.88"/>
</a>
</g>
</g>
<!-- Node3 -->
<g id="Node000003" class="node">
<title>Node3</title>
<g id="a_Node000003"><a xlink:href="classcam_1_1nc_1_1iso__read_1_1Parser.html" target="_top" xlink:title=" ">
<polygon fill="white" stroke="#666666" points="248,-130 119,-130 119,-111 248,-111 248,-130"/>
<text text-anchor="middle" x="183.5" y="-118" font-family="Helvetica,sans-Serif" font-size="10.00">cam.nc.iso_read.Parser</text>
</a>
</g>
</g>
<!-- Node0&#45;&gt;Node3 -->
<g id="edge177_Node000000_Node000003" class="edge">
<title>Node0&#45;&gt;Node3</title>
<g id="a_edge177_Node000000_Node000003"><a xlink:title=" ">
<path fill="none" stroke="#63b8ff" d="M71.44,-106.53C85.92,-108.35 102.67,-110.46 118.7,-112.47"/>
<polygon fill="#63b8ff" stroke="#63b8ff" points="71.69,-103.03 61.33,-105.25 70.82,-109.97 71.69,-103.03"/>
</a>
</g>
</g>
<!-- Node4 -->
<g id="Node000004" class="node">
<title>Node4</title>
<g id="a_Node000004"><a xlink:href="classcam_1_1nc_1_1lathe1__read_1_1Parser.html" target="_top" xlink:title=" ">
<polygon fill="white" stroke="#666666" points="256.5,-93 110.5,-93 110.5,-74 256.5,-74 256.5,-93"/>
<text text-anchor="middle" x="183.5" y="-81" font-family="Helvetica,sans-Serif" font-size="10.00">cam.nc.lathe1_read.Parser</text>
</a>
</g>
</g>
<!-- Node0&#45;&gt;Node4 -->
<g id="edge178_Node000000_Node000004" class="edge">
<title>Node0&#45;&gt;Node4</title>
<g id="a_edge178_Node000000_Node000004"><a xlink:title=" ">
<path fill="none" stroke="#63b8ff" d="M71.4,-96.74C83.35,-95.32 96.84,-93.71 110.2,-92.12"/>
<polygon fill="#63b8ff" stroke="#63b8ff" points="70.85,-93.28 61.33,-97.94 71.68,-100.24 70.85,-93.28"/>
</a>
</g>
</g>
<!-- Node5 -->
<g id="Node000005" class="node">
<title>Node5</title>
<g id="a_Node000005"><a xlink:href="classcam_1_1nc_1_1num__reader_1_1NumReader.html" target="_top" xlink:title=" ">
<polygon fill="white" stroke="#666666" points="270,-56 97,-56 97,-37 270,-37 270,-56"/>
<text text-anchor="middle" x="183.5" y="-44" font-family="Helvetica,sans-Serif" font-size="10.00">cam.nc.num_reader.NumReader</text>
</a>
</g>
</g>
<!-- Node0&#45;&gt;Node5 -->
<g id="edge179_Node000000_Node000005" class="edge">
<title>Node0&#45;&gt;Node5</title>
<g id="a_edge179_Node000000_Node000005"><a xlink:title=" ">
<path fill="none" stroke="#63b8ff" d="M54.64,-86.67C66.84,-79.4 82.29,-71.05 97,-65.5 106.96,-61.74 117.87,-58.62 128.45,-56.07"/>
<polygon fill="#63b8ff" stroke="#63b8ff" points="52.71,-83.74 46.01,-91.95 56.37,-89.72 52.71,-83.74"/>
</a>
</g>
</g>
<!-- Node8 -->
<g id="Node000008" class="node">
<title>Node8</title>
<g id="a_Node000008"><a xlink:href="classcam_1_1nc_1_1rez2__read_1_1Parser.html" target="_top" xlink:title=" ">
<polygon fill="white" stroke="#666666" points="251.5,-19 115.5,-19 115.5,0 251.5,0 251.5,-19"/>
<text text-anchor="middle" x="183.5" y="-7" font-family="Helvetica,sans-Serif" font-size="10.00">cam.nc.rez2_read.Parser</text>
</a>
</g>
</g>
<!-- Node0&#45;&gt;Node8 -->
<g id="edge182_Node000000_Node000008" class="edge">
<title>Node0&#45;&gt;Node8</title>
<g id="a_edge182_Node000000_Node000008"><a xlink:title=" ">
<path fill="none" stroke="#63b8ff" d="M42.78,-83.5C54.32,-66.64 73.81,-42.06 97,-28.5 103.69,-24.59 111.12,-21.48 118.71,-19.01"/>
<polygon fill="#63b8ff" stroke="#63b8ff" points="39.79,-81.67 37.22,-91.95 45.64,-85.52 39.79,-81.67"/>
</a>
</g>
</g>
<!-- Node6 -->
<g id="Node000006" class="node">
<title>Node6</title>
<g id="a_Node000006"><a xlink:href="classcam_1_1nc_1_1hpgl2d__read_1_1Parser.html" target="_top" xlink:title=" ">
<polygon fill="white" stroke="#666666" points="454,-74 306,-74 306,-55 454,-55 454,-74"/>
<text text-anchor="middle" x="380" y="-62" font-family="Helvetica,sans-Serif" font-size="10.00">cam.nc.hpgl2d_read.Parser</text>
</a>
</g>
</g>
<!-- Node5&#45;&gt;Node6 -->
<g id="edge180_Node000005_Node000006" class="edge">
<title>Node5&#45;&gt;Node6</title>
<g id="a_edge180_Node000005_Node000006"><a xlink:title=" ">
<path fill="none" stroke="#63b8ff" d="M280.19,-55.36C288.82,-56.15 297.46,-56.95 305.85,-57.73"/>
<polygon fill="#63b8ff" stroke="#63b8ff" points="280.37,-51.86 270.09,-54.42 279.73,-58.83 280.37,-51.86"/>
</a>
</g>
</g>
<!-- Node7 -->
<g id="Node000007" class="node">
<title>Node7</title>
<g id="a_Node000007"><a xlink:href="classcam_1_1nc_1_1hpgl3d__read_1_1Parser.html" target="_top" xlink:title=" ">
<polygon fill="white" stroke="#666666" points="454,-37 306,-37 306,-18 454,-18 454,-37"/>
<text text-anchor="middle" x="380" y="-25" font-family="Helvetica,sans-Serif" font-size="10.00">cam.nc.hpgl3d_read.Parser</text>
</a>
</g>
</g>
<!-- Node5&#45;&gt;Node7 -->
<g id="edge181_Node000005_Node000007" class="edge">
<title>Node5&#45;&gt;Node7</title>
<g id="a_edge181_Node000005_Node000007"><a xlink:title=" ">
<path fill="none" stroke="#63b8ff" d="M280.19,-37.15C288.82,-36.31 297.46,-35.47 305.85,-34.65"/>
<polygon fill="#63b8ff" stroke="#63b8ff" points="279.71,-33.68 270.09,-38.14 280.39,-40.65 279.71,-33.68"/>
</a>
</g>
</g>
</g>
</svg>
