<?xml version="1.0" encoding="UTF-8" standalone="no"?>
<!DOCTYPE svg PUBLIC "-//W3C//DTD SVG 1.1//EN"
 "http://www.w3.org/Graphics/SVG/1.1/DTD/svg11.dtd">
<!-- Generated by graphviz version 2.43.0 (0)
 -->
<!-- Title: Graphical Class Hierarchy Pages: 1 -->
<svg width="246pt" height="286pt"
 viewBox="0.00 0.00 246.00 286.00" xmlns="http://www.w3.org/2000/svg" xmlns:xlink="http://www.w3.org/1999/xlink">
<g id="graph0" class="graph" transform="scale(1 1) rotate(0) translate(4 282)">
<title>Graphical Class Hierarchy</title>
<!-- Node0 -->
<g id="Node000000" class="node">
<title>Node0</title>
<g id="a_Node000000"><a xlink:href="classobject.html" target="_top" xlink:title=" ">
<polygon fill="white" stroke="#666666" points="47,-148 0,-148 0,-129 47,-129 47,-148"/>
<text text-anchor="middle" x="23.5" y="-136" font-family="Helvetica,sans-Serif" font-size="10.00">object</text>
</a>
</g>
</g>
<!-- Node1 -->
<g id="Node000001" class="node">
<title>Node1</title>
<g id="a_Node000001"><a xlink:href="classcam_1_1voronoi_1_1Context.html" target="_top" xlink:title=" ">
<polygon fill="white" stroke="#666666" points="220,-278 101,-278 101,-259 220,-259 220,-278"/>
<text text-anchor="middle" x="160.5" y="-266" font-family="Helvetica,sans-Serif" font-size="10.00">cam.voronoi.Context</text>
</a>
</g>
</g>
<!-- Node0&#45;&gt;Node1 -->
<g id="edge183_Node000000_Node000001" class="edge">
<title>Node0&#45;&gt;Node1</title>
<g id="a_edge183_Node000000_Node000001"><a xlink:title=" ">
<path fill="none" stroke="#63b8ff" d="M29.25,-157.93C36.46,-183.22 52.66,-226.94 83,-250.5 88.28,-254.6 94.34,-257.79 100.69,-260.27"/>
<polygon fill="#63b8ff" stroke="#63b8ff" points="32.57,-156.81 26.62,-148.04 25.8,-158.61 32.57,-156.81"/>
</a>
</g>
</g>
<!-- Node2 -->
<g id="Node000002" class="node">
<title>Node2</title>
<g id="a_Node000002"><a xlink:href="classcam_1_1voronoi_1_1Edge.html" target="_top" xlink:title=" ">
<polygon fill="white" stroke="#666666" points="212.5,-241 108.5,-241 108.5,-222 212.5,-222 212.5,-241"/>
<text text-anchor="middle" x="160.5" y="-229" font-family="Helvetica,sans-Serif" font-size="10.00">cam.voronoi.Edge</text>
</a>
</g>
</g>
<!-- Node0&#45;&gt;Node2 -->
<g id="edge184_Node000000_Node000002" class="edge">
<title>Node0&#45;&gt;Node2</title>
<g id="a_edge184_Node000000_Node000002"><a xlink:title=" ">
<path fill="none" stroke="#63b8ff" d="M34.16,-157.15C44.08,-174.43 61.15,-199.5 83,-213.5 90.58,-218.36 99.34,-221.91 108.16,-224.5"/>
<polygon fill="#63b8ff" stroke="#63b8ff" points="37.03,-155.11 29.16,-148.02 30.89,-158.47 37.03,-155.11"/>
</a>
</g>
</g>
<!-- Node3 -->
<g id="Node000003" class="node">
<title>Node3</title>
<g id="a_Node000003"><a xlink:href="classcam_1_1voronoi_1_1EdgeList.html" target="_top" xlink:title=" ">
<polygon fill="white" stroke="#666666" points="221.5,-204 99.5,-204 99.5,-185 221.5,-185 221.5,-204"/>
<text text-anchor="middle" x="160.5" y="-192" font-family="Helvetica,sans-Serif" font-size="10.00">cam.voronoi.EdgeList</text>
</a>
</g>
</g>
<!-- Node0&#45;&gt;Node3 -->
<g id="edge185_Node000000_Node000003" class="edge">
<title>Node0&#45;&gt;Node3</title>
<g id="a_edge185_Node000000_Node000003"><a xlink:title=" ">
<path fill="none" stroke="#63b8ff" d="M45.09,-154.39C55.87,-162.04 69.6,-170.78 83,-176.5 90.91,-179.88 99.55,-182.68 108.1,-184.99"/>
<polygon fill="#63b8ff" stroke="#63b8ff" points="46.93,-151.39 36.79,-148.3 42.79,-157.04 46.93,-151.39"/>
</a>
</g>
</g>
<!-- Node4 -->
<g id="Node000004" class="node">
<title>Node4</title>
<g id="a_Node000004"><a xlink:href="classcam_1_1voronoi_1_1Halfedge.html" target="_top" xlink:title=" ">
<polygon fill="white" stroke="#666666" points="223,-167 98,-167 98,-148 223,-148 223,-167"/>
<text text-anchor="middle" x="160.5" y="-155" font-family="Helvetica,sans-Serif" font-size="10.00">cam.voronoi.Halfedge</text>
</a>
</g>
</g>
<!-- Node0&#45;&gt;Node4 -->
<g id="edge186_Node000000_Node000004" class="edge">
<title>Node0&#45;&gt;Node4</title>
<g id="a_edge186_Node000000_Node000004"><a xlink:title=" ">
<path fill="none" stroke="#63b8ff" d="M57.25,-143.11C69.48,-144.83 83.81,-146.85 97.8,-148.82"/>
<polygon fill="#63b8ff" stroke="#63b8ff" points="57.49,-139.61 47.1,-141.68 56.51,-146.54 57.49,-139.61"/>
</a>
</g>
</g>
<!-- Node5 -->
<g id="Node000005" class="node">
<title>Node5</title>
<g id="a_Node000005"><a xlink:href="classcam_1_1voronoi_1_1PriorityQueue.html" target="_top" xlink:title=" ">
<polygon fill="white" stroke="#666666" points="234,-130 87,-130 87,-111 234,-111 234,-130"/>
<text text-anchor="middle" x="160.5" y="-118" font-family="Helvetica,sans-Serif" font-size="10.00">cam.voronoi.PriorityQueue</text>
</a>
</g>
</g>
<!-- Node0&#45;&gt;Node5 -->
<g id="edge187_Node000000_Node000005" class="edge">
<title>Node0&#45;&gt;Node5</title>
<g id="a_edge187_Node000000_Node000005"><a xlink:title=" ">
<path fill="none" stroke="#63b8ff" d="M57.17,-134.14C66.62,-132.88 77.32,-131.46 88.15,-130.01"/>
<polygon fill="#63b8ff" stroke="#63b8ff" points="56.55,-130.7 47.1,-135.49 57.47,-137.63 56.55,-130.7"/>
</a>
</g>
</g>
<!-- Node6 -->
<g id="Node000006" class="node">
<title>Node6</title>
<g id="a_Node000006"><a xlink:href="classcam_1_1voronoi_1_1Site.html" target="_top" xlink:title=" ">
<polygon fill="white" stroke="#666666" points="210,-93 111,-93 111,-74 210,-74 210,-93"/>
<text text-anchor="middle" x="160.5" y="-81" font-family="Helvetica,sans-Serif" font-size="10.00">cam.voronoi.Site</text>
</a>
</g>
</g>
<!-- Node0&#45;&gt;Node6 -->
<g id="edge188_Node000000_Node000006" class="edge">
<title>Node0&#45;&gt;Node6</title>
<g id="a_edge188_Node000000_Node000006"><a xlink:title=" ">
<path fill="none" stroke="#63b8ff" d="M45.66,-123.28C56.41,-116.13 69.94,-107.98 83,-102.5 91.96,-98.74 101.83,-95.6 111.42,-93.03"/>
<polygon fill="#63b8ff" stroke="#63b8ff" points="43.61,-120.44 37.35,-128.98 47.57,-126.21 43.61,-120.44"/>
</a>
</g>
</g>
<!-- Node7 -->
<g id="Node000007" class="node">
<title>Node7</title>
<g id="a_Node000007"><a xlink:href="classcam_1_1voronoi_1_1SiteList.html" target="_top" xlink:title=" ">
<polygon fill="white" stroke="#666666" points="218.5,-56 102.5,-56 102.5,-37 218.5,-37 218.5,-56"/>
<text text-anchor="middle" x="160.5" y="-44" font-family="Helvetica,sans-Serif" font-size="10.00">cam.voronoi.SiteList</text>
</a>
</g>
</g>
<!-- Node0&#45;&gt;Node7 -->
<g id="edge189_Node000000_Node000007" class="edge">
<title>Node0&#45;&gt;Node7</title>
<g id="a_edge189_Node000000_Node000007"><a xlink:title=" ">
<path fill="none" stroke="#63b8ff" d="M34.64,-119.87C44.72,-103.12 61.73,-79.11 83,-65.5 89.11,-61.59 95.97,-58.48 103,-56.02"/>
<polygon fill="#63b8ff" stroke="#63b8ff" points="31.47,-118.35 29.52,-128.76 37.54,-121.84 31.47,-118.35"/>
</a>
</g>
</g>
<!-- Node8 -->
<g id="Node000008" class="node">
<title>Node8</title>
<g id="a_Node000008"><a xlink:href="classcam_1_1voronoi_1_1SiteList_1_1Iterator.html" target="_top" xlink:title=" ">
<polygon fill="white" stroke="#666666" points="238,-19 83,-19 83,0 238,0 238,-19"/>
<text text-anchor="middle" x="160.5" y="-7" font-family="Helvetica,sans-Serif" font-size="10.00">cam.voronoi.SiteList.Iterator</text>
</a>
</g>
</g>
<!-- Node0&#45;&gt;Node8 -->
<g id="edge190_Node000000_Node000008" class="edge">
<title>Node0&#45;&gt;Node8</title>
<g id="a_edge190_Node000000_Node000008"><a xlink:title=" ">
<path fill="none" stroke="#63b8ff" d="M29.5,-119.09C36.93,-94.26 53.29,-51.69 83,-28.5 87.96,-24.63 93.61,-21.53 99.54,-19.06"/>
<polygon fill="#63b8ff" stroke="#63b8ff" points="26.1,-118.26 26.78,-128.83 32.84,-120.14 26.1,-118.26"/>
</a>
</g>
</g>
</g>
</svg>
