<?xml version="1.0" encoding="UTF-8" standalone="no"?>
<!DOCTYPE svg PUBLIC "-//W3C//DTD SVG 1.1//EN"
 "http://www.w3.org/Graphics/SVG/1.1/DTD/svg11.dtd">
<!-- Generated by graphviz version 2.43.0 (0)
 -->
<!-- Title: Graphical Class Hierarchy Pages: 1 -->
<svg width="256pt" height="892pt"
 viewBox="0.00 0.00 256.00 892.00" xmlns="http://www.w3.org/2000/svg" xmlns:xlink="http://www.w3.org/1999/xlink">
<g id="graph0" class="graph" transform="scale(1 1) rotate(0) translate(4 888)">
<title>Graphical Class Hierarchy</title>
<!-- Node0 -->
<g id="Node000000" class="node">
<title>Node0</title>
<g id="a_Node000000"><a xlink:title=" ">
<polygon fill="#e0e0e0" stroke="#999999" points="44,-456.5 0,-456.5 0,-437.5 44,-437.5 44,-456.5"/>
<text text-anchor="middle" x="22" y="-444.5" font-family="Helvetica,sans-Serif" font-size="10.00">Menu</text>
</a>
</g>
</g>
<!-- Node1 -->
<g id="Node000001" class="node">
<title>Node1</title>
<g id="a_Node000001"><a xlink:href="classcam_1_1preset__managers_1_1CAM__CUTTER__MT__presets.html" target="_top" xlink:title=" ">
<polygon fill="white" stroke="#666666" points="239.5,-884 88.5,-884 88.5,-854 239.5,-854 239.5,-884"/>
<text text-anchor="start" x="96.5" y="-872" font-family="Helvetica,sans-Serif" font-size="10.00">cam.preset_managers.CAM</text>
<text text-anchor="middle" x="164" y="-861" font-family="Helvetica,sans-Serif" font-size="10.00">_CUTTER_MT_presets</text>
</a>
</g>
</g>
<!-- Node0&#45;&gt;Node1 -->
<g id="edge156_Node000000_Node000001" class="edge">
<title>Node0&#45;&gt;Node1</title>
<g id="a_edge156_Node000000_Node000001"><a xlink:title=" ">
<path fill="none" stroke="#63b8ff" d="M23.1,-467.04C23.85,-539.64 30.1,-787.62 80,-845 82.95,-848.4 86.35,-851.32 90.06,-853.85"/>
<polygon fill="#63b8ff" stroke="#63b8ff" points="26.59,-466.58 23.01,-456.61 19.59,-466.63 26.59,-466.58"/>
</a>
</g>
</g>
<!-- Node2 -->
<g id="Node000002" class="node">
<title>Node2</title>
<g id="a_Node000002"><a xlink:href="classcam_1_1preset__managers_1_1CAM__MACHINE__MT__presets.html" target="_top" xlink:title=" ">
<polygon fill="white" stroke="#666666" points="239.5,-836 88.5,-836 88.5,-806 239.5,-806 239.5,-836"/>
<text text-anchor="start" x="96.5" y="-824" font-family="Helvetica,sans-Serif" font-size="10.00">cam.preset_managers.CAM</text>
<text text-anchor="middle" x="164" y="-813" font-family="Helvetica,sans-Serif" font-size="10.00">_MACHINE_MT_presets</text>
</a>
</g>
</g>
<!-- Node0&#45;&gt;Node2 -->
<g id="edge157_Node000000_Node000002" class="edge">
<title>Node0&#45;&gt;Node2</title>
<g id="a_edge157_Node000000_Node000002"><a xlink:title=" ">
<path fill="none" stroke="#63b8ff" d="M23.54,-467.17C25.72,-534.1 36.08,-747.46 80,-797 82.99,-800.37 86.41,-803.27 90.13,-805.78"/>
<polygon fill="#63b8ff" stroke="#63b8ff" points="27.02,-466.65 23.23,-456.76 20.03,-466.86 27.02,-466.65"/>
</a>
</g>
</g>
<!-- Node3 -->
<g id="Node000003" class="node">
<title>Node3</title>
<g id="a_Node000003"><a xlink:href="classcam_1_1preset__managers_1_1CAM__OPERATION__MT__presets.html" target="_top" xlink:title=" ">
<polygon fill="white" stroke="#666666" points="239.5,-788 88.5,-788 88.5,-758 239.5,-758 239.5,-788"/>
<text text-anchor="start" x="96.5" y="-776" font-family="Helvetica,sans-Serif" font-size="10.00">cam.preset_managers.CAM</text>
<text text-anchor="middle" x="164" y="-765" font-family="Helvetica,sans-Serif" font-size="10.00">_OPERATION_MT_presets</text>
</a>
</g>
</g>
<!-- Node0&#45;&gt;Node3 -->
<g id="edge158_Node000000_Node000003" class="edge">
<title>Node0&#45;&gt;Node3</title>
<g id="a_edge158_Node000000_Node000003"><a xlink:title=" ">
<path fill="none" stroke="#63b8ff" d="M24.08,-466.72C27.79,-526.97 41.89,-707.09 80,-749 83.13,-752.44 86.72,-755.4 90.61,-757.94"/>
<polygon fill="#63b8ff" stroke="#63b8ff" points="27.57,-466.41 23.49,-456.63 20.58,-466.82 27.57,-466.41"/>
</a>
</g>
</g>
<!-- Node4 -->
<g id="Node000004" class="node">
<title>Node4</title>
<g id="a_Node000004"><a xlink:href="classpie__area_1_1VIEW3D__MT__PIE__Area.html" target="_top" xlink:title=" ">
<polygon fill="white" stroke="#666666" points="224.5,-740 103.5,-740 103.5,-710 224.5,-710 224.5,-740"/>
<text text-anchor="start" x="111.5" y="-728" font-family="Helvetica,sans-Serif" font-size="10.00">pie_area.VIEW3D_MT</text>
<text text-anchor="middle" x="164" y="-717" font-family="Helvetica,sans-Serif" font-size="10.00">_PIE_Area</text>
</a>
</g>
</g>
<!-- Node0&#45;&gt;Node4 -->
<g id="edge159_Node000000_Node000004" class="edge">
<title>Node0&#45;&gt;Node4</title>
<g id="a_edge159_Node000000_Node000004"><a xlink:title=" ">
<path fill="none" stroke="#63b8ff" d="M24.88,-467.02C30.33,-520.83 47.83,-666.81 80,-701 86.37,-707.77 94.53,-712.67 103.23,-716.21"/>
<polygon fill="#63b8ff" stroke="#63b8ff" points="28.33,-466.36 23.88,-456.74 21.37,-467.04 28.33,-466.36"/>
</a>
</g>
</g>
<!-- Node5 -->
<g id="Node000005" class="node">
<title>Node5</title>
<g id="a_Node000005"><a xlink:href="classpie__cam_1_1VIEW3D__MT__PIE__CAM.html" target="_top" xlink:title=" ">
<polygon fill="white" stroke="#666666" points="248,-691.5 80,-691.5 80,-672.5 248,-672.5 248,-691.5"/>
<text text-anchor="middle" x="164" y="-679.5" font-family="Helvetica,sans-Serif" font-size="10.00">pie_cam.VIEW3D_MT_PIE_CAM</text>
</a>
</g>
</g>
<!-- Node0&#45;&gt;Node5 -->
<g id="edge160_Node000000_Node000005" class="edge">
<title>Node0&#45;&gt;Node5</title>
<g id="a_edge160_Node000000_Node000005"><a xlink:title=" ">
<path fill="none" stroke="#63b8ff" d="M25.57,-466.62C32.23,-514.5 51.55,-635.47 80,-663 83.93,-666.8 88.46,-669.9 93.33,-672.43"/>
<polygon fill="#63b8ff" stroke="#63b8ff" points="29.02,-466.03 24.21,-456.59 22.08,-466.97 29.02,-466.03"/>
</a>
</g>
</g>
<!-- Node6 -->
<g id="Node000006" class="node">
<title>Node6</title>
<g id="a_Node000006"><a xlink:href="classpie__chains_1_1VIEW3D__MT__PIE__Chains.html" target="_top" xlink:title=" ">
<polygon fill="white" stroke="#666666" points="229.5,-654 98.5,-654 98.5,-624 229.5,-624 229.5,-654"/>
<text text-anchor="start" x="106.5" y="-642" font-family="Helvetica,sans-Serif" font-size="10.00">pie_chains.VIEW3D_MT</text>
<text text-anchor="middle" x="164" y="-631" font-family="Helvetica,sans-Serif" font-size="10.00">_PIE_Chains</text>
</a>
</g>
</g>
<!-- Node0&#45;&gt;Node6 -->
<g id="edge161_Node000000_Node000006" class="edge">
<title>Node0&#45;&gt;Node6</title>
<g id="a_edge161_Node000000_Node000006"><a xlink:title=" ">
<path fill="none" stroke="#63b8ff" d="M23.99,-466.92C26.83,-501.94 37.78,-574.67 80,-615 85.31,-620.08 91.64,-624.09 98.38,-627.26"/>
<polygon fill="#63b8ff" stroke="#63b8ff" points="27.46,-466.33 23.31,-456.59 20.48,-466.8 27.46,-466.33"/>
</a>
</g>
</g>
<!-- Node7 -->
<g id="Node000007" class="node">
<title>Node7</title>
<g id="a_Node000007"><a xlink:href="classpie__curvecreators_1_1VIEW3D__MT__PIE__CurveCreators.html" target="_top" xlink:title=" ">
<polygon fill="white" stroke="#666666" points="237,-606 91,-606 91,-576 237,-576 237,-606"/>
<text text-anchor="start" x="99" y="-594" font-family="Helvetica,sans-Serif" font-size="10.00">pie_curvecreators.VIEW3D</text>
<text text-anchor="middle" x="164" y="-583" font-family="Helvetica,sans-Serif" font-size="10.00">_MT_PIE_CurveCreators</text>
</a>
</g>
</g>
<!-- Node0&#45;&gt;Node7 -->
<g id="edge162_Node000000_Node000007" class="edge">
<title>Node0&#45;&gt;Node7</title>
<g id="a_edge162_Node000000_Node000007"><a xlink:title=" ">
<path fill="none" stroke="#63b8ff" d="M27.07,-466.79C33.6,-493.45 48.94,-540.6 80,-567 84,-570.4 88.46,-573.32 93.17,-575.82"/>
<polygon fill="#63b8ff" stroke="#63b8ff" points="30.42,-465.72 24.8,-456.74 23.59,-467.26 30.42,-465.72"/>
</a>
</g>
</g>
<!-- Node8 -->
<g id="Node000008" class="node">
<title>Node8</title>
<g id="a_Node000008"><a xlink:href="classpie__curvetools_1_1VIEW3D__MT__PIE__CurveTools.html" target="_top" xlink:title=" ">
<polygon fill="white" stroke="#666666" points="229,-558 99,-558 99,-528 229,-528 229,-558"/>
<text text-anchor="start" x="107" y="-546" font-family="Helvetica,sans-Serif" font-size="10.00">pie_curvetools.VIEW3D</text>
<text text-anchor="middle" x="164" y="-535" font-family="Helvetica,sans-Serif" font-size="10.00">_MT_PIE_CurveTools</text>
</a>
</g>
</g>
<!-- Node0&#45;&gt;Node8 -->
<g id="edge163_Node000000_Node000008" class="edge">
<title>Node0&#45;&gt;Node8</title>
<g id="a_edge163_Node000000_Node000008"><a xlink:title=" ">
<path fill="none" stroke="#63b8ff" d="M33.26,-465.72C43.17,-482.09 59.64,-505.33 80,-519 85.73,-522.85 92.08,-526.09 98.64,-528.81"/>
<polygon fill="#63b8ff" stroke="#63b8ff" points="36.25,-463.9 28.21,-457 30.2,-467.41 36.25,-463.9"/>
</a>
</g>
</g>
<!-- Node9 -->
<g id="Node000009" class="node">
<title>Node9</title>
<g id="a_Node000009"><a xlink:href="classpie__cutter_1_1VIEW3D__MT__PIE__Cutter.html" target="_top" xlink:title=" ">
<polygon fill="white" stroke="#666666" points="227.5,-510 100.5,-510 100.5,-480 227.5,-480 227.5,-510"/>
<text text-anchor="start" x="108.5" y="-498" font-family="Helvetica,sans-Serif" font-size="10.00">pie_cutter.VIEW3D_MT</text>
<text text-anchor="middle" x="164" y="-487" font-family="Helvetica,sans-Serif" font-size="10.00">_PIE_Cutter</text>
</a>
</g>
</g>
<!-- Node0&#45;&gt;Node9 -->
<g id="edge164_Node000000_Node000009" class="edge">
<title>Node0&#45;&gt;Node9</title>
<g id="a_edge164_Node000000_Node000009"><a xlink:title=" ">
<path fill="none" stroke="#63b8ff" d="M53.37,-460.56C61.91,-464.16 71.25,-467.9 80,-471 88.77,-474.1 98.16,-477.11 107.35,-479.88"/>
<polygon fill="#63b8ff" stroke="#63b8ff" points="54.72,-457.33 44.15,-456.6 51.96,-463.77 54.72,-457.33"/>
</a>
</g>
</g>
<!-- Node10 -->
<g id="Node000010" class="node">
<title>Node10</title>
<g id="a_Node000010"><a xlink:href="classpie__feedrate_1_1VIEW3D__MT__PIE__Feedrate.html" target="_top" xlink:title=" ">
<polygon fill="white" stroke="#666666" points="224,-462 104,-462 104,-432 224,-432 224,-462"/>
<text text-anchor="start" x="112" y="-450" font-family="Helvetica,sans-Serif" font-size="10.00">pie_feedrate.VIEW3D</text>
<text text-anchor="middle" x="164" y="-439" font-family="Helvetica,sans-Serif" font-size="10.00">_MT_PIE_Feedrate</text>
</a>
</g>
</g>
<!-- Node0&#45;&gt;Node10 -->
<g id="edge165_Node000000_Node000010" class="edge">
<title>Node0&#45;&gt;Node10</title>
<g id="a_edge165_Node000000_Node000010"><a xlink:title=" ">
<path fill="none" stroke="#63b8ff" d="M54.29,-447C68.94,-447 86.89,-447 103.96,-447"/>
<polygon fill="#63b8ff" stroke="#63b8ff" points="54.26,-443.5 44.26,-447 54.26,-450.5 54.26,-443.5"/>
</a>
</g>
</g>
<!-- Node11 -->
<g id="Node000011" class="node">
<title>Node11</title>
<g id="a_Node000011"><a xlink:href="classpie__gcode_1_1VIEW3D__MT__PIE__Gcode.html" target="_top" xlink:title=" ">
<polygon fill="white" stroke="#666666" points="228,-414 100,-414 100,-384 228,-384 228,-414"/>
<text text-anchor="start" x="108" y="-402" font-family="Helvetica,sans-Serif" font-size="10.00">pie_gcode.VIEW3D_MT</text>
<text text-anchor="middle" x="164" y="-391" font-family="Helvetica,sans-Serif" font-size="10.00">_PIE_Gcode</text>
</a>
</g>
</g>
<!-- Node0&#45;&gt;Node11 -->
<g id="edge166_Node000000_Node000011" class="edge">
<title>Node0&#45;&gt;Node11</title>
<g id="a_edge166_Node000000_Node000011"><a xlink:title=" ">
<path fill="none" stroke="#63b8ff" d="M53.37,-433.44C61.91,-429.84 71.25,-426.1 80,-423 88.77,-419.9 98.16,-416.89 107.35,-414.12"/>
<polygon fill="#63b8ff" stroke="#63b8ff" points="51.96,-430.23 44.15,-437.4 54.72,-436.67 51.96,-430.23"/>
</a>
</g>
</g>
<!-- Node12 -->
<g id="Node000012" class="node">
<title>Node12</title>
<g id="a_Node000012"><a xlink:href="classpie__info_1_1VIEW3D__MT__PIE__Info.html" target="_top" xlink:title=" ">
<polygon fill="white" stroke="#666666" points="223,-366 105,-366 105,-336 223,-336 223,-366"/>
<text text-anchor="start" x="113" y="-354" font-family="Helvetica,sans-Serif" font-size="10.00">pie_info.VIEW3D_MT</text>
<text text-anchor="middle" x="164" y="-343" font-family="Helvetica,sans-Serif" font-size="10.00">_PIE_Info</text>
</a>
</g>
</g>
<!-- Node0&#45;&gt;Node12 -->
<g id="edge167_Node000000_Node000012" class="edge">
<title>Node0&#45;&gt;Node12</title>
<g id="a_edge167_Node000000_Node000012"><a xlink:title=" ">
<path fill="none" stroke="#63b8ff" d="M33.26,-428.28C43.17,-411.91 59.64,-388.67 80,-375 87.47,-369.98 96,-366 104.68,-362.84"/>
<polygon fill="#63b8ff" stroke="#63b8ff" points="30.2,-426.59 28.21,-437 36.25,-430.1 30.2,-426.59"/>
</a>
</g>
</g>
<!-- Node13 -->
<g id="Node000013" class="node">
<title>Node13</title>
<g id="a_Node000013"><a xlink:href="classpie__machine_1_1VIEW3D__MT__PIE__Machine.html" target="_top" xlink:title=" ">
<polygon fill="white" stroke="#666666" points="224.5,-318 103.5,-318 103.5,-288 224.5,-288 224.5,-318"/>
<text text-anchor="start" x="111.5" y="-306" font-family="Helvetica,sans-Serif" font-size="10.00">pie_machine.VIEW3D</text>
<text text-anchor="middle" x="164" y="-295" font-family="Helvetica,sans-Serif" font-size="10.00">_MT_PIE_Machine</text>
</a>
</g>
</g>
<!-- Node0&#45;&gt;Node13 -->
<g id="edge168_Node000000_Node000013" class="edge">
<title>Node0&#45;&gt;Node13</title>
<g id="a_edge168_Node000000_Node000013"><a xlink:title=" ">
<path fill="none" stroke="#63b8ff" d="M27.07,-427.21C33.6,-400.55 48.94,-353.4 80,-327 86.74,-321.27 94.79,-316.9 103.17,-313.58"/>
<polygon fill="#63b8ff" stroke="#63b8ff" points="23.59,-426.74 24.8,-437.26 30.42,-428.28 23.59,-426.74"/>
</a>
</g>
</g>
<!-- Node14 -->
<g id="Node000014" class="node">
<title>Node14</title>
<g id="a_Node000014"><a xlink:href="classpie__material_1_1VIEW3D__MT__PIE__Material.html" target="_top" xlink:title=" ">
<polygon fill="white" stroke="#666666" points="224,-270 104,-270 104,-240 224,-240 224,-270"/>
<text text-anchor="start" x="112" y="-258" font-family="Helvetica,sans-Serif" font-size="10.00">pie_material.VIEW3D</text>
<text text-anchor="middle" x="164" y="-247" font-family="Helvetica,sans-Serif" font-size="10.00">_MT_PIE_Material</text>
</a>
</g>
</g>
<!-- Node0&#45;&gt;Node14 -->
<g id="edge169_Node000000_Node000014" class="edge">
<title>Node0&#45;&gt;Node14</title>
<g id="a_edge169_Node000000_Node000014"><a xlink:title=" ">
<path fill="none" stroke="#63b8ff" d="M23.99,-427.08C26.83,-392.06 37.78,-319.33 80,-279 86.72,-272.58 95.06,-267.86 103.83,-264.39"/>
<polygon fill="#63b8ff" stroke="#63b8ff" points="20.48,-427.2 23.31,-437.41 27.46,-427.67 20.48,-427.2"/>
</a>
</g>
</g>
<!-- Node15 -->
<g id="Node000015" class="node">
<title>Node15</title>
<g id="a_Node000015"><a xlink:href="classpie__movement_1_1VIEW3D__MT__PIE__Movement.html" target="_top" xlink:title=" ">
<polygon fill="white" stroke="#666666" points="230,-222 98,-222 98,-192 230,-192 230,-222"/>
<text text-anchor="start" x="106" y="-210" font-family="Helvetica,sans-Serif" font-size="10.00">pie_movement.VIEW3D</text>
<text text-anchor="middle" x="164" y="-199" font-family="Helvetica,sans-Serif" font-size="10.00">_MT_PIE_Movement</text>
</a>
</g>
</g>
<!-- Node0&#45;&gt;Node15 -->
<g id="edge170_Node000000_Node000015" class="edge">
<title>Node0&#45;&gt;Node15</title>
<g id="a_edge170_Node000000_Node000015"><a xlink:title=" ">
<path fill="none" stroke="#63b8ff" d="M22.19,-427.13C21.59,-384.96 26.38,-285.89 80,-231 85.03,-225.85 91.09,-221.79 97.62,-218.58"/>
<polygon fill="#63b8ff" stroke="#63b8ff" points="18.69,-427.31 22.45,-437.22 25.69,-427.13 18.69,-427.31"/>
</a>
</g>
</g>
<!-- Node16 -->
<g id="Node000016" class="node">
<title>Node16</title>
<g id="a_Node000016"><a xlink:href="classpie__operation_1_1VIEW3D__MT__PIE__Operation.html" target="_top" xlink:title=" ">
<polygon fill="white" stroke="#666666" points="226.5,-174 101.5,-174 101.5,-144 226.5,-144 226.5,-174"/>
<text text-anchor="start" x="109.5" y="-162" font-family="Helvetica,sans-Serif" font-size="10.00">pie_operation.VIEW3D</text>
<text text-anchor="middle" x="164" y="-151" font-family="Helvetica,sans-Serif" font-size="10.00">_MT_PIE_Operation</text>
</a>
</g>
</g>
<!-- Node0&#45;&gt;Node16 -->
<g id="edge171_Node000000_Node000016" class="edge">
<title>Node0&#45;&gt;Node16</title>
<g id="a_edge171_Node000000_Node000016"><a xlink:title=" ">
<path fill="none" stroke="#63b8ff" d="M24.67,-427.29C29.71,-372.3 46.54,-218.84 80,-183 85.83,-176.75 93.19,-172.09 101.09,-168.63"/>
<polygon fill="#63b8ff" stroke="#63b8ff" points="21.16,-427.19 23.77,-437.46 28.14,-427.8 21.16,-427.19"/>
</a>
</g>
</g>
<!-- Node17 -->
<g id="Node000017" class="node">
<title>Node17</title>
<g id="a_Node000017"><a xlink:href="classpie__optimisation_1_1VIEW3D__MT__PIE__Optimisation.html" target="_top" xlink:title=" ">
<polygon fill="white" stroke="#666666" points="234,-126 94,-126 94,-96 234,-96 234,-126"/>
<text text-anchor="start" x="102" y="-114" font-family="Helvetica,sans-Serif" font-size="10.00">pie_optimisation.VIEW3D</text>
<text text-anchor="middle" x="164" y="-103" font-family="Helvetica,sans-Serif" font-size="10.00">_MT_PIE_Optimisation</text>
</a>
</g>
</g>
<!-- Node0&#45;&gt;Node17 -->
<g id="edge172_Node000000_Node000017" class="edge">
<title>Node0&#45;&gt;Node17</title>
<g id="a_edge172_Node000000_Node000017"><a xlink:title=" ">
<path fill="none" stroke="#63b8ff" d="M23.97,-427.05C27.36,-365.23 40.71,-178.46 80,-135 83.92,-130.66 88.58,-127.09 93.65,-124.14"/>
<polygon fill="#63b8ff" stroke="#63b8ff" points="20.45,-427.2 23.43,-437.37 27.44,-427.56 20.45,-427.2"/>
</a>
</g>
</g>
<!-- Node18 -->
<g id="Node000018" class="node">
<title>Node18</title>
<g id="a_Node000018"><a xlink:href="classpie__pack__slice__relief_1_1VIEW3D__MT__PIE__PackSliceRelief.html" target="_top" xlink:title=" ">
<polygon fill="white" stroke="#666666" points="240,-78 88,-78 88,-48 240,-48 240,-78"/>
<text text-anchor="start" x="96" y="-66" font-family="Helvetica,sans-Serif" font-size="10.00">pie_pack_slice_relief.VIEW3</text>
<text text-anchor="middle" x="164" y="-55" font-family="Helvetica,sans-Serif" font-size="10.00">D_MT_PIE_PackSliceRelief</text>
</a>
</g>
</g>
<!-- Node0&#45;&gt;Node18 -->
<g id="edge173_Node000000_Node000018" class="edge">
<title>Node0&#45;&gt;Node18</title>
<g id="a_edge173_Node000000_Node000018"><a xlink:title=" ">
<path fill="none" stroke="#63b8ff" d="M23.43,-427.14C25.29,-359.31 34.77,-138.24 80,-87 82.98,-83.63 86.4,-80.71 90.12,-78.2"/>
<polygon fill="#63b8ff" stroke="#63b8ff" points="19.92,-427.22 23.18,-437.31 26.92,-427.4 19.92,-427.22"/>
</a>
</g>
</g>
<!-- Node19 -->
<g id="Node000019" class="node">
<title>Node19</title>
<g id="a_Node000019"><a xlink:href="classpie__setup_1_1VIEW3D__MT__PIE__Setup.html" target="_top" xlink:title=" ">
<polygon fill="white" stroke="#666666" points="227,-30 101,-30 101,0 227,0 227,-30"/>
<text text-anchor="start" x="109" y="-18" font-family="Helvetica,sans-Serif" font-size="10.00">pie_setup.VIEW3D_MT</text>
<text text-anchor="middle" x="164" y="-7" font-family="Helvetica,sans-Serif" font-size="10.00">_PIE_Setup</text>
</a>
</g>
</g>
<!-- Node0&#45;&gt;Node19 -->
<g id="edge174_Node000000_Node000019" class="edge">
<title>Node0&#45;&gt;Node19</title>
<g id="a_edge174_Node000000_Node000019"><a xlink:title=" ">
<path fill="none" stroke="#63b8ff" d="M23.02,-426.92C23.49,-353.1 28.87,-98 80,-39 85.6,-32.54 92.82,-27.76 100.66,-24.25"/>
<polygon fill="#63b8ff" stroke="#63b8ff" points="19.52,-427.14 22.98,-437.15 26.52,-427.17 19.52,-427.14"/>
</a>
</g>
</g>
</g>
</svg>
