<?xml version="1.0" encoding="UTF-8" standalone="no"?>
<!DOCTYPE svg PUBLIC "-//W3C//DTD SVG 1.1//EN"
 "http://www.w3.org/Graphics/SVG/1.1/DTD/svg11.dtd">
<!-- Generated by graphviz version 2.43.0 (0)
 -->
<!-- Title: cam.strategy.checkminz Pages: 1 -->
<svg width="294pt" height="138pt"
 viewBox="0.00 0.00 294.00 138.00" xmlns="http://www.w3.org/2000/svg" xmlns:xlink="http://www.w3.org/1999/xlink">

<svg id="main" version="1.1" xmlns="http://www.w3.org/2000/svg" xmlns:xlink="http://www.w3.org/1999/xlink" xml:space="preserve" onload="init(evt)">
<style type="text/css"><![CDATA[
.node, .edge {opacity: 0.7;}
.node.selected, .edge.selected {opacity: 1;}
.edge:hover path { stroke: red; }
.edge:hover polygon { stroke: red; fill: red; }
]]></style>
<script type="application/ecmascript" xlink:href="svg.min.js"/>
<svg id="graph" class="graph">
<g id="graph0" class="graph" transform="scale(1 1) rotate(0) translate(4 134)">
<title>cam.strategy.checkminz</title>
<!-- Node1 -->
<g id="Node000001" class="node">
<title>Node1</title>
<g id="a_Node000001"><a xlink:title=" ">
<polygon fill="#999999" stroke="#666666" points="286,-74 151,-74 151,-55 286,-55 286,-74"/>
<text text-anchor="middle" x="218.5" y="-62" font-family="Helvetica,sans-Serif" font-size="10.00">cam.strategy.checkminz</text>
</a>
</g>
</g>
<!-- Node2 -->
<g id="Node000002" class="node">
<title>Node2</title>
<g id="a_Node000002"><a xlink:href="namespacecam_1_1strategy.html#a98de0a0c8017ea29b51639fe6b0670c0" target="_top" xlink:title=" ">
<polygon fill="white" stroke="#666666" points="112.5,-130 2.5,-130 2.5,-111 112.5,-111 112.5,-130"/>
<text text-anchor="middle" x="57.5" y="-118" font-family="Helvetica,sans-Serif" font-size="10.00">cam.strategy.curve</text>
</a>
</g>
</g>
<!-- Node1&#45;&gt;Node2 -->
<g id="edge1_Node000001_Node000002" class="edge">
<title>Node1&#45;&gt;Node2</title>
<g id="a_edge1_Node000001_Node000002"><a xlink:title=" ">
<path fill="none" stroke="#63b8ff" d="M183.23,-77.66C163.38,-85.17 137.87,-94.62 115,-102.5 106.73,-105.35 97.72,-108.29 89.38,-110.95"/>
<polygon fill="#63b8ff" stroke="#63b8ff" points="184.66,-80.86 192.76,-74.04 182.17,-74.32 184.66,-80.86"/>
</a>
</g>
</g>
<!-- Node3 -->
<g id="Node000003" class="node">
<title>Node3</title>
<g id="a_Node000003"><a xlink:href="namespacecam_1_1strategy.html#af4098f3be74754c5cd0a8247e82bca36" target="_top" xlink:title=" ">
<polygon fill="white" stroke="#666666" points="114,-93 1,-93 1,-74 114,-74 114,-93"/>
<text text-anchor="middle" x="57.5" y="-81" font-family="Helvetica,sans-Serif" font-size="10.00">cam.strategy.cutout</text>
</a>
</g>
</g>
<!-- Node1&#45;&gt;Node3 -->
<g id="edge2_Node000001_Node000003" class="edge">
<title>Node1&#45;&gt;Node3</title>
<g id="a_edge2_Node000001_Node000003"><a xlink:title=" ">
<path fill="none" stroke="#63b8ff" d="M140.87,-73.66C131.86,-74.73 122.81,-75.82 114.17,-76.85"/>
<polygon fill="#63b8ff" stroke="#63b8ff" points="141.48,-77.11 150.99,-72.45 140.65,-70.16 141.48,-77.11"/>
</a>
</g>
</g>
<!-- Node4 -->
<g id="Node000004" class="node">
<title>Node4</title>
<g id="a_Node000004"><a xlink:href="namespacecam_1_1strategy.html#abe383cc860f7d293fd56ba25823948e3" target="_top" xlink:title=" ">
<polygon fill="white" stroke="#666666" points="108,-56 7,-56 7,-37 108,-37 108,-56"/>
<text text-anchor="middle" x="57.5" y="-44" font-family="Helvetica,sans-Serif" font-size="10.00">cam.strategy.drill</text>
</a>
</g>
</g>
<!-- Node1&#45;&gt;Node4 -->
<g id="edge3_Node000001_Node000004" class="edge">
<title>Node1&#45;&gt;Node4</title>
<g id="a_edge3_Node000001_Node000004"><a xlink:title=" ">
<path fill="none" stroke="#63b8ff" d="M140.87,-55.82C129.8,-54.57 118.65,-53.31 108.29,-52.14"/>
<polygon fill="#63b8ff" stroke="#63b8ff" points="140.66,-59.32 150.99,-56.97 141.45,-52.37 140.66,-59.32"/>
</a>
</g>
</g>
<!-- Node5 -->
<g id="Node000005" class="node">
<title>Node5</title>
<g id="a_Node000005"><a xlink:href="namespacecam_1_1strategy.html#a09828c822f6ca8cbb2c7e59f8a4e5376" target="_top" xlink:title=" ">
<polygon fill="white" stroke="#666666" points="115,-19 0,-19 0,0 115,0 115,-19"/>
<text text-anchor="middle" x="57.5" y="-7" font-family="Helvetica,sans-Serif" font-size="10.00">cam.strategy.pocket</text>
</a>
</g>
</g>
<!-- Node1&#45;&gt;Node5 -->
<g id="edge4_Node000001_Node000005" class="edge">
<title>Node1&#45;&gt;Node5</title>
<g id="a_edge4_Node000001_Node000005"><a xlink:title=" ">
<path fill="none" stroke="#63b8ff" d="M181.1,-51.58C161.53,-44.67 136.97,-36.05 115,-28.5 106,-25.41 96.17,-22.08 87.27,-19.09"/>
<polygon fill="#63b8ff" stroke="#63b8ff" points="179.96,-54.89 190.56,-54.93 182.3,-48.29 179.96,-54.89"/>
</a>
</g>
</g>
</g>
</svg>
</svg>

<style type='text/css'>
<![CDATA[
[data-mouse-over-selected='false'] { opacity: 0.7; }
[data-mouse-over-selected='true']  { opacity: 1.0; }
]]>
</style>
<script type="application/ecmascript"><![CDATA[
document.addEventListener('DOMContentLoaded', (event) => {
  highlightEdges();
  highlightAdjacentNodes();
});
]]></script>
</svg>
