<?xml version="1.0" encoding="UTF-8" standalone="no"?>
<!DOCTYPE svg PUBLIC "-//W3C//DTD SVG 1.1//EN"
 "http://www.w3.org/Graphics/SVG/1.1/DTD/svg11.dtd">
<!-- Generated by graphviz version 2.43.0 (0)
 -->
<!-- Title: cam.puzzle_joinery.twistm Pages: 1 -->
<!--zoomable 175 -->

<svg id="main" version="1.1" xmlns="http://www.w3.org/2000/svg" xmlns:xlink="http://www.w3.org/1999/xlink" xml:space="preserve" onload="init(evt)">
<style type="text/css"><![CDATA[
.node, .edge {opacity: 0.7;}
.node.selected, .edge.selected {opacity: 1;}
.edge:hover path { stroke: red; }
.edge:hover polygon { stroke: red; fill: red; }
]]></style>

<defs>
  <circle id="rim" cx="0" cy="0" r="7"/>
  <circle id="rim2" cx="0" cy="0" r="3.5"/>
  <g id="zoomPlus">
    <use xlink:href="#rim" fill="#404040"><set attributeName="fill" to="#808080" begin="zoomplus.mouseover" end="zoomplus.mouseout"/></use>
    <path d="M-4,0h8M0,-4v8" fill="none" stroke="white" stroke-width="1.5" pointer-events="none"/>
  </g>
  <g id="zoomMin">
    <use xlink:href="#rim" fill="#404040"><set attributeName="fill" to="#808080" begin="zoomminus.mouseover" end="zoomminus.mouseout"/></use>
    <path d="M-4,0h8" fill="none" stroke="white" stroke-width="1.5" pointer-events="none"/>
  </g>
  <g id="arrowUp" transform="translate(30 24)">
    <use xlink:href="#rim"/>
    <path pointer-events="none" fill="none" stroke="white" stroke-width="1.5" d="M0,-3.0v7 M-2.5,-0.5L0,-3.0L2.5,-0.5"/>
  </g>
  <g id="arrowRight" transform="rotate(90) translate(36 -43)">
    <use xlink:href="#rim"/>
    <path pointer-events="none" fill="none" stroke="white" stroke-width="1.5" d="M0,-3.0v7 M-2.5,-0.5L0,-3.0L2.5,-0.5"/>
  </g>
  <g id="arrowDown" transform="rotate(180) translate(-30 -48)">
    <use xlink:href="#rim"/>
    <path pointer-events="none" fill="none" stroke="white" stroke-width="1.5" d="M0,-3.0v7 M-2.5,-0.5L0,-3.0L2.5,-0.5"/>
  </g>
  <g id="arrowLeft" transform="rotate(270) translate(-36 17)">
    <use xlink:href="#rim"/>
    <path pointer-events="none" fill="none" stroke="white" stroke-width="1.5" d="M0,-3.0v7 M-2.5,-0.5L0,-3.0L2.5,-0.5"/>
  </g>
  <g id="resetDef">
    <use xlink:href="#rim2" fill="#404040"><set attributeName="fill" to="#808080" begin="reset.mouseover" end="reset.mouseout"/></use>
  </g>
</defs>
<script type="application/ecmascript">
var viewWidth = 528;
var viewHeight = 175;
var sectionId = 'dynsection-16';
</script>
<script type="application/ecmascript" xlink:href="svg.min.js"/>
<svg id="graph" class="graph">
<g id="viewport">
<title>cam.puzzle_joinery.twistm</title>
<!-- Node1 -->
<g id="Node000001" class="node">
<title>Node1</title>
<g id="a_Node000001"><a xlink:title=" ">
<polygon fill="#999999" stroke="#666666" points="520,-93 374,-93 374,-74 520,-74 520,-93"/>
<text text-anchor="middle" x="447" y="-81" font-family="Helvetica,sans-Serif" font-size="10.00">cam.puzzle_joinery.twistm</text>
</a>
</g>
</g>
<!-- Node2 -->
<g id="Node000002" class="node">
<title>Node2</title>
<g id="a_Node000002"><a xlink:href="namespacecam_1_1puzzle__joinery.html#a110e06ffcd6df9f4eb8c11ba46639a86" target="_top" xlink:title=" ">
<polygon fill="white" stroke="#666666" points="333.5,-93 205.5,-93 205.5,-74 333.5,-74 333.5,-93"/>
<text text-anchor="middle" x="269.5" y="-81" font-family="Helvetica,sans-Serif" font-size="10.00">cam.puzzle_joinery.arc</text>
</a>
</g>
</g>
<!-- Node1&#45;&gt;Node2 -->
<g id="edge1_Node000001_Node000002" class="edge">
<title>Node1&#45;&gt;Node2</title>
<g id="a_edge1_Node000001_Node000002"><a xlink:title=" ">
<path fill="none" stroke="#63b8ff" d="M363.79,-83.5C353.66,-83.5 343.44,-83.5 333.66,-83.5"/>
<polygon fill="#63b8ff" stroke="#63b8ff" points="363.86,-87 373.86,-83.5 363.86,-80 363.86,-87"/>
</a>
</g>
</g>
<!-- Node7 -->
<g id="Node000007" class="node">
<title>Node7</title>
<g id="a_Node000007"><a xlink:href="namespacecam_1_1puzzle__joinery.html#ac77a90bb750e0c3a3c99d6ad3265e79a" target="_top" xlink:title=" ">
<polygon fill="white" stroke="#666666" points="333.5,-130 205.5,-130 205.5,-111 333.5,-111 333.5,-130"/>
<text text-anchor="middle" x="269.5" y="-118" font-family="Helvetica,sans-Serif" font-size="10.00">cam.puzzle_joinery.bar</text>
</a>
</g>
</g>
<!-- Node1&#45;&gt;Node7 -->
<g id="edge6_Node000001_Node000007" class="edge">
<title>Node1&#45;&gt;Node7</title>
<g id="a_edge6_Node000001_Node000007"><a xlink:title=" ">
<path fill="none" stroke="#63b8ff" d="M390.73,-95.15C366.62,-100.23 338.71,-106.12 315.85,-110.94"/>
<polygon fill="#63b8ff" stroke="#63b8ff" points="391.74,-98.52 400.8,-93.03 390.3,-91.67 391.74,-98.52"/>
</a>
</g>
</g>
<!-- Node9 -->
<g id="Node000009" class="node">
<title>Node9</title>
<g id="a_Node000009"><a xlink:href="namespacecam_1_1puzzle__joinery.html#a98efd38937a6d95b6579a1375c780036" target="_top" xlink:title=" ">
<polygon fill="white" stroke="#666666" points="338,-55.5 201,-55.5 201,-25.5 338,-25.5 338,-55.5"/>
<text text-anchor="start" x="209" y="-43.5" font-family="Helvetica,sans-Serif" font-size="10.00">cam.puzzle_joinery.open</text>
<text text-anchor="middle" x="269.5" y="-32.5" font-family="Helvetica,sans-Serif" font-size="10.00">_curve</text>
</a>
</g>
</g>
<!-- Node1&#45;&gt;Node9 -->
<g id="edge10_Node000001_Node000009" class="edge">
<title>Node1&#45;&gt;Node9</title>
<g id="a_edge10_Node000001_Node000009"><a xlink:title=" ">
<path fill="none" stroke="#63b8ff" d="M397.11,-71.52C376.86,-66.56 353.14,-60.75 331.75,-55.51"/>
<polygon fill="#63b8ff" stroke="#63b8ff" points="396.51,-74.98 407.05,-73.96 398.17,-68.18 396.51,-74.98"/>
</a>
</g>
</g>
<!-- Node3 -->
<g id="Node000003" class="node">
<title>Node3</title>
<g id="a_Node000003"><a xlink:href="namespacecam_1_1puzzle__joinery.html#aaf5e385562ae64de94b65a1ced1831e0" target="_top" xlink:title=" ">
<polygon fill="white" stroke="#666666" points="154,-93 11,-93 11,-74 154,-74 154,-93"/>
<text text-anchor="middle" x="82.5" y="-81" font-family="Helvetica,sans-Serif" font-size="10.00">cam.puzzle_joinery.arcbar</text>
</a>
</g>
</g>
<!-- Node2&#45;&gt;Node3 -->
<g id="edge2_Node000002_Node000003" class="edge">
<title>Node2&#45;&gt;Node3</title>
<g id="a_edge2_Node000002_Node000003"><a xlink:title=" ">
<path fill="none" stroke="#63b8ff" d="M195.19,-83.5C181.72,-83.5 167.69,-83.5 154.3,-83.5"/>
<polygon fill="#63b8ff" stroke="#63b8ff" points="195.35,-87 205.35,-83.5 195.35,-80 195.35,-87"/>
</a>
</g>
</g>
<!-- Node4 -->
<g id="Node000004" class="node">
<title>Node4</title>
<g id="a_Node000004"><a xlink:href="namespacecam_1_1puzzle__joinery.html#a36b07d5ee313eed430a40227a29a5fd1" target="_top" xlink:title=" ">
<polygon fill="white" stroke="#666666" points="161.5,-19 3.5,-19 3.5,0 161.5,0 161.5,-19"/>
<text text-anchor="middle" x="82.5" y="-7" font-family="Helvetica,sans-Serif" font-size="10.00">cam.puzzle_joinery.arcbararc</text>
</a>
</g>
</g>
<!-- Node2&#45;&gt;Node4 -->
<g id="edge3_Node000002_Node000004" class="edge">
<title>Node2&#45;&gt;Node4</title>
<g id="a_edge3_Node000002_Node000004"><a xlink:title=" ">
<path fill="none" stroke="#63b8ff" d="M212.58,-70.32C208.56,-68.6 204.65,-66.67 201,-64.5 181.28,-52.77 185.04,-38.67 165,-27.5 158.92,-24.12 152.26,-21.37 145.44,-19.14"/>
<polygon fill="#63b8ff" stroke="#63b8ff" points="211.54,-73.67 222.14,-73.95 214.03,-67.13 211.54,-73.67"/>
</a>
</g>
</g>
<!-- Node5 -->
<g id="Node000005" class="node">
<title>Node5</title>
<g id="a_Node000005"><a xlink:href="namespacecam_1_1puzzle__joinery.html#a61b368014071486e7050063c5325b915" target="_top" xlink:title=" ">
<polygon fill="white" stroke="#666666" points="160,-130 5,-130 5,-111 160,-111 160,-130"/>
<text text-anchor="middle" x="82.5" y="-118" font-family="Helvetica,sans-Serif" font-size="10.00">cam.puzzle_joinery.curved_t</text>
</a>
</g>
</g>
<!-- Node2&#45;&gt;Node5 -->
<g id="edge4_Node000002_Node000005" class="edge">
<title>Node2&#45;&gt;Node5</title>
<g id="a_edge4_Node000002_Node000005"><a xlink:title=" ">
<path fill="none" stroke="#63b8ff" d="M210.92,-95.02C185.35,-100.13 155.62,-106.08 131.3,-110.94"/>
<polygon fill="#63b8ff" stroke="#63b8ff" points="211.74,-98.42 220.86,-93.03 210.37,-91.56 211.74,-98.42"/>
</a>
</g>
</g>
<!-- Node6 -->
<g id="Node000006" class="node">
<title>Node6</title>
<g id="a_Node000006"><a xlink:href="namespacecam_1_1puzzle__joinery.html#a5c10906df71f805f9badb118c2507386" target="_top" xlink:title=" ">
<polygon fill="white" stroke="#666666" points="165,-56 0,-56 0,-37 165,-37 165,-56"/>
<text text-anchor="middle" x="82.5" y="-44" font-family="Helvetica,sans-Serif" font-size="10.00">cam.puzzle_joinery.multiangle</text>
</a>
</g>
</g>
<!-- Node2&#45;&gt;Node6 -->
<g id="edge5_Node000002_Node000006" class="edge">
<title>Node2&#45;&gt;Node6</title>
<g id="a_edge5_Node000002_Node000006"><a xlink:title=" ">
<path fill="none" stroke="#63b8ff" d="M210.92,-71.98C185.35,-66.87 155.62,-60.92 131.3,-56.06"/>
<polygon fill="#63b8ff" stroke="#63b8ff" points="210.37,-75.44 220.86,-73.97 211.74,-68.58 210.37,-75.44"/>
</a>
</g>
</g>
<!-- Node7&#45;&gt;Node3 -->
<g id="edge7_Node000007_Node000003" class="edge">
<title>Node7&#45;&gt;Node3</title>
<g id="a_edge7_Node000007_Node000003"><a xlink:title=" ">
<path fill="none" stroke="#63b8ff" d="M210.92,-108.98C185.35,-103.87 155.62,-97.92 131.3,-93.06"/>
<polygon fill="#63b8ff" stroke="#63b8ff" points="210.37,-112.44 220.86,-110.97 211.74,-105.58 210.37,-112.44"/>
</a>
</g>
</g>
<!-- Node7&#45;&gt;Node5 -->
<g id="edge8_Node000007_Node000005" class="edge">
<title>Node7&#45;&gt;Node5</title>
<g id="a_edge8_Node000007_Node000005"><a xlink:title=" ">
<path fill="none" stroke="#63b8ff" d="M195.31,-120.5C183.75,-120.5 171.76,-120.5 160.12,-120.5"/>
<polygon fill="#63b8ff" stroke="#63b8ff" points="195.35,-124 205.35,-120.5 195.35,-117 195.35,-124"/>
</a>
</g>
</g>
<!-- Node8 -->
<g id="Node000008" class="node">
<title>Node8</title>
<g id="a_Node000008"><a xlink:href="namespacecam_1_1puzzle__joinery.html#aca5a28f5f8c51f8954f13fd0c264e931" target="_top" xlink:title=" ">
<polygon fill="white" stroke="#666666" points="140.5,-167 24.5,-167 24.5,-148 140.5,-148 140.5,-167"/>
<text text-anchor="middle" x="82.5" y="-155" font-family="Helvetica,sans-Serif" font-size="10.00">cam.puzzle_joinery.t</text>
</a>
</g>
</g>
<!-- Node7&#45;&gt;Node8 -->
<g id="edge9_Node000007_Node000008" class="edge">
<title>Node7&#45;&gt;Node8</title>
<g id="a_edge9_Node000007_Node000008"><a xlink:title=" ">
<path fill="none" stroke="#63b8ff" d="M210.92,-132.02C185.35,-137.13 155.62,-143.08 131.3,-147.94"/>
<polygon fill="#63b8ff" stroke="#63b8ff" points="211.74,-135.42 220.86,-130.03 210.37,-128.56 211.74,-135.42"/>
</a>
</g>
</g>
</g>
</svg>

<g id="navigator" transform="translate(0 0)" fill="#404254">
  <rect fill="#f2f5e9" fill-opacity="0.5" stroke="#606060" stroke-width=".5" x="0" y="0" width="60" height="60"/>
  <use id="zoomplus" xlink:href="#zoomPlus" x="17" y="9" onmousedown="handleZoom(evt,'in')"/>
  <use id="zoomminus" xlink:href="#zoomMin" x="42" y="9" onmousedown="handleZoom(evt,'out')"/>
  <use id="reset" xlink:href="#resetDef" x="30" y="36" onmousedown="handleReset()"/>
   <use id="arrowup" xlink:href="#arrowUp" x="0" y="0" onmousedown="handlePan(0,-1)"/>
  <use id="arrowright" xlink:href="#arrowRight" x="0" y="0" onmousedown="handlePan(1,0)"/>
  <use id="arrowdown" xlink:href="#arrowDown" x="0" y="0" onmousedown="handlePan(0,1)"/>
  <use id="arrowleft" xlink:href="#arrowLeft" x="0" y="0" onmousedown="handlePan(-1,0)"/>
</g>
<svg viewBox="0 0 15 15" width="100%" height="30px" preserveAspectRatio="xMaxYMin meet">
 <g id="arrow_out" transform="scale(0.3 0.3)">
  <a xlink:href="namespacecam_1_1puzzle__joinery_a49355291518955c6516bfbe10fd34b53_icgraph_org.svg" target="_base">
   <rect id="button" ry="5" rx="5" y="6" x="6" height="38" width="38"
        fill="#f2f5e9" fill-opacity="0.5" stroke="#606060" stroke-width="1.0"/>
   <path id="arrow"
     d="M 11.500037,31.436501 C 11.940474,20.09759 22.043105,11.32322 32.158766,21.979434 L 37.068811,17.246167 C 37.068811,17.246167 37.088388,32 37.088388,32 L 22.160133,31.978069 C 22.160133,31.978069 26.997745,27.140456 26.997745,27.140456 C 18.528582,18.264221 13.291696,25.230495 11.500037,31.436501 z"
     style="fill:#404040;"/>
  </a>
 </g>
</svg>

<style type='text/css'>
<![CDATA[
[data-mouse-over-selected='false'] { opacity: 0.7; }
[data-mouse-over-selected='true']  { opacity: 1.0; }
]]>
</style>
<script type="application/ecmascript"><![CDATA[
document.addEventListener('DOMContentLoaded', (event) => {
  highlightEdges();
  highlightAdjacentNodes();
});
]]></script>
</svg>
