<?xml version="1.0" encoding="UTF-8" standalone="no"?>
<!DOCTYPE svg PUBLIC "-//W3C//DTD SVG 1.1//EN"
 "http://www.w3.org/Graphics/SVG/1.1/DTD/svg11.dtd">
<!-- Generated by graphviz version 2.43.0 (0)
 -->
<!-- Title: cam.puzzle_joinery.arcbar Pages: 1 -->
<svg width="673pt" height="101pt"
 viewBox="0.00 0.00 673.00 101.00" xmlns="http://www.w3.org/2000/svg" xmlns:xlink="http://www.w3.org/1999/xlink">
<g id="graph0" class="graph" transform="scale(1 1) rotate(0) translate(4 97)">
<title>cam.puzzle_joinery.arcbar</title>
<!-- Node1 -->
<g id="Node000001" class="node">
<title>Node1</title>
<g id="a_Node000001"><a xlink:title=" ">
<polygon fill="#999999" stroke="#666666" points="143,-55 0,-55 0,-36 143,-36 143,-55"/>
<text text-anchor="middle" x="71.5" y="-43" font-family="Helvetica,sans-Serif" font-size="10.00">cam.puzzle_joinery.arcbar</text>
</a>
</g>
</g>
<!-- Node2 -->
<g id="Node000002" class="node">
<title>Node2</title>
<g id="a_Node000002"><a xlink:href="namespacecam_1_1puzzle__joinery.html#a110e06ffcd6df9f4eb8c11ba46639a86" target="_top" xlink:title=" ">
<polygon fill="white" stroke="#666666" points="307,-74 179,-74 179,-55 307,-55 307,-74"/>
<text text-anchor="middle" x="243" y="-62" font-family="Helvetica,sans-Serif" font-size="10.00">cam.puzzle_joinery.arc</text>
</a>
</g>
</g>
<!-- Node1&#45;&gt;Node2 -->
<g id="edge1_Node000001_Node000002" class="edge">
<title>Node1&#45;&gt;Node2</title>
<g id="a_edge1_Node000001_Node000002"><a xlink:title=" ">
<path fill="none" stroke="#63b8ff" d="M143.4,-53.45C151.79,-54.39 160.36,-55.35 168.77,-56.29"/>
<polygon fill="#63b8ff" stroke="#63b8ff" points="168.61,-59.8 178.94,-57.43 169.39,-52.84 168.61,-59.8"/>
</a>
</g>
</g>
<!-- Node7 -->
<g id="Node000007" class="node">
<title>Node7</title>
<g id="a_Node000007"><a xlink:href="namespacecam_1_1puzzle__joinery.html#ac77a90bb750e0c3a3c99d6ad3265e79a" target="_top" xlink:title=" ">
<polygon fill="white" stroke="#666666" points="307,-37 179,-37 179,-18 307,-18 307,-37"/>
<text text-anchor="middle" x="243" y="-25" font-family="Helvetica,sans-Serif" font-size="10.00">cam.puzzle_joinery.bar</text>
</a>
</g>
</g>
<!-- Node1&#45;&gt;Node7 -->
<g id="edge6_Node000001_Node000007" class="edge">
<title>Node1&#45;&gt;Node7</title>
<g id="a_edge6_Node000001_Node000007"><a xlink:title=" ">
<path fill="none" stroke="#63b8ff" d="M143.4,-37.97C151.79,-37.08 160.36,-36.17 168.77,-35.28"/>
<polygon fill="#63b8ff" stroke="#63b8ff" points="169.36,-38.73 178.94,-34.2 168.62,-31.77 169.36,-38.73"/>
</a>
</g>
</g>
<!-- Node3 -->
<g id="Node000003" class="node">
<title>Node3</title>
<g id="a_Node000003"><a xlink:href="namespacecam_1_1puzzle__joinery.html#af57d1435a944dc9207c05e8a4c0ebb72" target="_top" xlink:title=" ">
<polygon fill="white" stroke="#666666" points="489,-93 343,-93 343,-74 489,-74 489,-93"/>
<text text-anchor="middle" x="416" y="-81" font-family="Helvetica,sans-Serif" font-size="10.00">cam.puzzle_joinery.fingers</text>
</a>
</g>
</g>
<!-- Node2&#45;&gt;Node3 -->
<g id="edge2_Node000002_Node000003" class="edge">
<title>Node2&#45;&gt;Node3</title>
<g id="a_edge2_Node000002_Node000003"><a xlink:title=" ">
<path fill="none" stroke="#63b8ff" d="M307.19,-71.52C315.53,-72.45 324.18,-73.41 332.78,-74.36"/>
<polygon fill="#63b8ff" stroke="#63b8ff" points="332.51,-77.86 342.84,-75.48 333.29,-70.9 332.51,-77.86"/>
</a>
</g>
</g>
<!-- Node5 -->
<g id="Node000005" class="node">
<title>Node5</title>
<g id="a_Node000005"><a xlink:href="namespacecam_1_1puzzle__joinery.html#a5034c27cd1215fd40b8ea153c9d8403c" target="_top" xlink:title=" ">
<polygon fill="white" stroke="#666666" points="486,-56 346,-56 346,-37 486,-37 486,-56"/>
<text text-anchor="middle" x="416" y="-44" font-family="Helvetica,sans-Serif" font-size="10.00">cam.puzzle_joinery.twistf</text>
</a>
</g>
</g>
<!-- Node2&#45;&gt;Node5 -->
<g id="edge4_Node000002_Node000005" class="edge">
<title>Node2&#45;&gt;Node5</title>
<g id="a_edge4_Node000002_Node000005"><a xlink:title=" ">
<path fill="none" stroke="#63b8ff" d="M307.19,-57.85C316.41,-56.88 326.01,-55.87 335.5,-54.87"/>
<polygon fill="#63b8ff" stroke="#63b8ff" points="336.17,-58.32 345.74,-53.79 335.43,-51.36 336.17,-58.32"/>
</a>
</g>
</g>
<!-- Node6 -->
<g id="Node000006" class="node">
<title>Node6</title>
<g id="a_Node000006"><a xlink:href="namespacecam_1_1puzzle__joinery.html#a49355291518955c6516bfbe10fd34b53" target="_top" xlink:title=" ">
<polygon fill="white" stroke="#666666" points="489,-19 343,-19 343,0 489,0 489,-19"/>
<text text-anchor="middle" x="416" y="-7" font-family="Helvetica,sans-Serif" font-size="10.00">cam.puzzle_joinery.twistm</text>
</a>
</g>
</g>
<!-- Node2&#45;&gt;Node6 -->
<g id="edge5_Node000002_Node000006" class="edge">
<title>Node2&#45;&gt;Node6</title>
<g id="a_edge5_Node000002_Node000006"><a xlink:title=" ">
<path fill="none" stroke="#63b8ff" d="M279.35,-54.99C288.47,-52.23 298.19,-49 307,-45.5 323.62,-38.89 326.22,-33.71 343,-27.5 348.57,-25.44 354.48,-23.53 360.41,-21.8"/>
<polygon fill="#63b8ff" stroke="#63b8ff" points="361.66,-25.08 370.37,-19.04 359.8,-18.34 361.66,-25.08"/>
</a>
</g>
</g>
<!-- Node4 -->
<g id="Node000004" class="node">
<title>Node4</title>
<g id="a_Node000004"><a xlink:href="namespacecam_1_1puzzle__joinery.html#a2975e13b4c0d374385227493e06d5101" target="_top" xlink:title=" ">
<polygon fill="white" stroke="#666666" points="665,-93 525,-93 525,-74 665,-74 665,-93"/>
<text text-anchor="middle" x="595" y="-81" font-family="Helvetica,sans-Serif" font-size="10.00">cam.puzzle_joinery.finger</text>
</a>
</g>
</g>
<!-- Node3&#45;&gt;Node4 -->
<g id="edge3_Node000003_Node000004" class="edge">
<title>Node3&#45;&gt;Node4</title>
<g id="a_edge3_Node000003_Node000004"><a xlink:title=" ">
<path fill="none" stroke="#63b8ff" d="M489.25,-83.5C497.61,-83.5 506.17,-83.5 514.61,-83.5"/>
<polygon fill="#63b8ff" stroke="#63b8ff" points="514.84,-87 524.84,-83.5 514.84,-80 514.84,-87"/>
</a>
</g>
</g>
<!-- Node7&#45;&gt;Node3 -->
<g id="edge7_Node000007_Node000003" class="edge">
<title>Node7&#45;&gt;Node3</title>
<g id="a_edge7_Node000007_Node000003"><a xlink:title=" ">
<path fill="none" stroke="#63b8ff" d="M282.07,-37C290.4,-39.46 299.08,-42.32 307,-45.5 323.79,-52.24 326.14,-57.93 343,-64.5 349.23,-66.93 355.88,-69.15 362.53,-71.16"/>
<polygon fill="#63b8ff" stroke="#63b8ff" points="361.65,-74.54 372.23,-73.93 363.57,-67.81 361.65,-74.54"/>
</a>
</g>
</g>
<!-- Node7&#45;&gt;Node5 -->
<g id="edge8_Node000007_Node000005" class="edge">
<title>Node7&#45;&gt;Node5</title>
<g id="a_edge8_Node000007_Node000005"><a xlink:title=" ">
<path fill="none" stroke="#63b8ff" d="M307.19,-34.52C316.51,-35.56 326.21,-36.63 335.8,-37.7"/>
<polygon fill="#63b8ff" stroke="#63b8ff" points="335.42,-41.18 345.74,-38.8 336.19,-34.22 335.42,-41.18"/>
</a>
</g>
</g>
<!-- Node7&#45;&gt;Node6 -->
<g id="edge9_Node000007_Node000006" class="edge">
<title>Node7&#45;&gt;Node6</title>
<g id="a_edge9_Node000007_Node000006"><a xlink:title=" ">
<path fill="none" stroke="#63b8ff" d="M307.19,-20.85C315.53,-19.97 324.18,-19.06 332.78,-18.15"/>
<polygon fill="#63b8ff" stroke="#63b8ff" points="333.26,-21.62 342.84,-17.1 332.53,-14.66 333.26,-21.62"/>
</a>
</g>
</g>
</g>
</svg>
