<?xml version="1.0" encoding="UTF-8" standalone="no"?>
<!DOCTYPE svg PUBLIC "-//W3C//DTD SVG 1.1//EN"
 "http://www.w3.org/Graphics/SVG/1.1/DTD/svg11.dtd">
<!-- Generated by graphviz version 2.43.0 (0)
 -->
<!-- Title: cam.basrelief.solve_pde_multigrid Pages: 1 -->
<!--zoomable 272 -->

<svg id="main" version="1.1" xmlns="http://www.w3.org/2000/svg" xmlns:xlink="http://www.w3.org/1999/xlink" xml:space="preserve" onload="init(evt)">
<style type="text/css"><![CDATA[
.node, .edge {opacity: 0.7;}
.node.selected, .edge.selected {opacity: 1;}
.edge:hover path { stroke: red; }
.edge:hover polygon { stroke: red; fill: red; }
]]></style>

<defs>
  <circle id="rim" cx="0" cy="0" r="7"/>
  <circle id="rim2" cx="0" cy="0" r="3.5"/>
  <g id="zoomPlus">
    <use xlink:href="#rim" fill="#404040"><set attributeName="fill" to="#808080" begin="zoomplus.mouseover" end="zoomplus.mouseout"/></use>
    <path d="M-4,0h8M0,-4v8" fill="none" stroke="white" stroke-width="1.5" pointer-events="none"/>
  </g>
  <g id="zoomMin">
    <use xlink:href="#rim" fill="#404040"><set attributeName="fill" to="#808080" begin="zoomminus.mouseover" end="zoomminus.mouseout"/></use>
    <path d="M-4,0h8" fill="none" stroke="white" stroke-width="1.5" pointer-events="none"/>
  </g>
  <g id="arrowUp" transform="translate(30 24)">
    <use xlink:href="#rim"/>
    <path pointer-events="none" fill="none" stroke="white" stroke-width="1.5" d="M0,-3.0v7 M-2.5,-0.5L0,-3.0L2.5,-0.5"/>
  </g>
  <g id="arrowRight" transform="rotate(90) translate(36 -43)">
    <use xlink:href="#rim"/>
    <path pointer-events="none" fill="none" stroke="white" stroke-width="1.5" d="M0,-3.0v7 M-2.5,-0.5L0,-3.0L2.5,-0.5"/>
  </g>
  <g id="arrowDown" transform="rotate(180) translate(-30 -48)">
    <use xlink:href="#rim"/>
    <path pointer-events="none" fill="none" stroke="white" stroke-width="1.5" d="M0,-3.0v7 M-2.5,-0.5L0,-3.0L2.5,-0.5"/>
  </g>
  <g id="arrowLeft" transform="rotate(270) translate(-36 17)">
    <use xlink:href="#rim"/>
    <path pointer-events="none" fill="none" stroke="white" stroke-width="1.5" d="M0,-3.0v7 M-2.5,-0.5L0,-3.0L2.5,-0.5"/>
  </g>
  <g id="resetDef">
    <use xlink:href="#rim2" fill="#404040"><set attributeName="fill" to="#808080" begin="reset.mouseover" end="reset.mouseout"/></use>
  </g>
</defs>
<script type="application/ecmascript">
var viewWidth = 620;
var viewHeight = 272;
var sectionId = 'dynsection-22';
</script>
<script type="application/ecmascript" xlink:href="svg.min.js"/>
<svg id="graph" class="graph">
<g id="viewport">
<title>cam.basrelief.solve_pde_multigrid</title>
<!-- Node1 -->
<g id="Node000001" class="node">
<title>Node1</title>
<g id="a_Node000001"><a xlink:title=" ">
<polygon fill="#999999" stroke="#666666" points="112,-156.5 0,-156.5 0,-126.5 112,-126.5 112,-156.5"/>
<text text-anchor="start" x="8" y="-144.5" font-family="Helvetica,sans-Serif" font-size="10.00">cam.basrelief.solve</text>
<text text-anchor="middle" x="56" y="-133.5" font-family="Helvetica,sans-Serif" font-size="10.00">_pde_multigrid</text>
</a>
</g>
</g>
<!-- Node2 -->
<g id="Node000002" class="node">
<title>Node2</title>
<g id="a_Node000002"><a xlink:href="namespacecam_1_1basrelief.html#a9554e08aa23fcef890644aa887a681e9" target="_top" xlink:title=" ">
<polygon fill="white" stroke="#666666" points="306,-264 148,-264 148,-245 306,-245 306,-264"/>
<text text-anchor="middle" x="227" y="-252" font-family="Helvetica,sans-Serif" font-size="10.00">cam.basrelief.add_correction</text>
</a>
</g>
</g>
<!-- Node1&#45;&gt;Node2 -->
<g id="edge1_Node000001_Node000002" class="edge">
<title>Node1&#45;&gt;Node2</title>
<g id="a_edge1_Node000001_Node000002"><a xlink:title=" ">
<path fill="none" stroke="#63b8ff" d="M67.43,-156.76C82.63,-177.81 112.92,-215.4 148,-235.5 151.92,-237.74 156.09,-239.72 160.39,-241.47"/>
<polygon fill="#63b8ff" stroke="#63b8ff" points="159.37,-244.82 169.96,-244.93 161.75,-238.24 159.37,-244.82"/>
</a>
</g>
</g>
<!-- Node3 -->
<g id="Node000003" class="node">
<title>Node3</title>
<g id="a_Node000003"><a xlink:href="namespacecam_1_1basrelief.html#aabd40958bb5e5febbc0e8a1fb76f2c54" target="_top" xlink:title=" ">
<polygon fill="white" stroke="#666666" points="292,-226.5 162,-226.5 162,-196.5 292,-196.5 292,-226.5"/>
<text text-anchor="start" x="170" y="-214.5" font-family="Helvetica,sans-Serif" font-size="10.00">cam.basrelief.calculate</text>
<text text-anchor="middle" x="227" y="-203.5" font-family="Helvetica,sans-Serif" font-size="10.00">_defect</text>
</a>
</g>
</g>
<!-- Node1&#45;&gt;Node3 -->
<g id="edge2_Node000001_Node000003" class="edge">
<title>Node1&#45;&gt;Node3</title>
<g id="a_edge2_Node000001_Node000003"><a xlink:title=" ">
<path fill="none" stroke="#63b8ff" d="M83.92,-156.63C101.74,-166.26 125.84,-178.56 148,-187.5 152.8,-189.44 157.83,-191.31 162.91,-193.1"/>
<polygon fill="#63b8ff" stroke="#63b8ff" points="162.12,-196.53 172.71,-196.43 164.37,-189.9 162.12,-196.53"/>
</a>
</g>
</g>
<!-- Node4 -->
<g id="Node000004" class="node">
<title>Node4</title>
<g id="a_Node000004"><a xlink:href="namespacecam_1_1basrelief.html#a479a5a367df382f5a4d97e5d27fbc319" target="_top" xlink:title=" ">
<polygon fill="white" stroke="#666666" points="281.5,-178.5 172.5,-178.5 172.5,-148.5 281.5,-148.5 281.5,-178.5"/>
<text text-anchor="start" x="180.5" y="-166.5" font-family="Helvetica,sans-Serif" font-size="10.00">cam.basrelief.copy</text>
<text text-anchor="middle" x="227" y="-155.5" font-family="Helvetica,sans-Serif" font-size="10.00">_compbuf_data</text>
</a>
</g>
</g>
<!-- Node1&#45;&gt;Node4 -->
<g id="edge3_Node000001_Node000004" class="edge">
<title>Node1&#45;&gt;Node4</title>
<g id="a_edge3_Node000001_Node000004"><a xlink:title=" ">
<path fill="none" stroke="#63b8ff" d="M112.34,-148.7C128.28,-150.78 145.8,-153.06 162.22,-155.2"/>
<polygon fill="#63b8ff" stroke="#63b8ff" points="161.9,-158.68 172.27,-156.51 162.8,-151.74 161.9,-158.68"/>
</a>
</g>
</g>
<!-- Node5 -->
<g id="Node000005" class="node">
<title>Node5</title>
<g id="a_Node000005"><a xlink:href="namespacecam_1_1basrelief.html#a9a1b6e682169add543f604f19092d632" target="_top" xlink:title=" ">
<polygon fill="white" stroke="#666666" points="296,-130 158,-130 158,-111 296,-111 296,-130"/>
<text text-anchor="middle" x="227" y="-118" font-family="Helvetica,sans-Serif" font-size="10.00">cam.basrelief.prolongate</text>
</a>
</g>
</g>
<!-- Node1&#45;&gt;Node5 -->
<g id="edge4_Node000001_Node000005" class="edge">
<title>Node1&#45;&gt;Node5</title>
<g id="a_edge4_Node000001_Node000005"><a xlink:title=" ">
<path fill="none" stroke="#63b8ff" d="M112.34,-134.62C123.69,-133.21 135.85,-131.7 147.84,-130.21"/>
<polygon fill="#63b8ff" stroke="#63b8ff" points="148.35,-133.68 157.84,-128.97 147.49,-126.73 148.35,-133.68"/>
</a>
</g>
</g>
<!-- Node6 -->
<g id="Node000006" class="node">
<title>Node6</title>
<g id="a_Node000006"><a xlink:href="namespacecam_1_1basrelief.html#a9cee957b1946a898fae51b693337d1ce" target="_top" xlink:title=" ">
<polygon fill="white" stroke="#666666" points="295,-93 159,-93 159,-74 295,-74 295,-93"/>
<text text-anchor="middle" x="227" y="-81" font-family="Helvetica,sans-Serif" font-size="10.00">cam.basrelief.restrictbuf</text>
</a>
</g>
</g>
<!-- Node1&#45;&gt;Node6 -->
<g id="edge5_Node000001_Node000006" class="edge">
<title>Node1&#45;&gt;Node6</title>
<g id="a_edge5_Node000001_Node000006"><a xlink:title=" ">
<path fill="none" stroke="#63b8ff" d="M88.51,-126.46C105.8,-118.6 127.78,-109.24 148,-102.5 155.44,-100.02 163.37,-97.71 171.23,-95.62"/>
<polygon fill="#63b8ff" stroke="#63b8ff" points="172.27,-98.97 181.09,-93.09 170.53,-92.19 172.27,-98.97"/>
</a>
</g>
</g>
<!-- Node7 -->
<g id="Node000007" class="node">
<title>Node7</title>
<g id="a_Node000007"><a xlink:href="namespacecam_1_1basrelief.html#ad911a47b6767f0bf2783a9bcf0e548ef" target="_top" xlink:title=" ">
<polygon fill="white" stroke="#666666" points="288,-56 166,-56 166,-37 288,-37 288,-56"/>
<text text-anchor="middle" x="227" y="-44" font-family="Helvetica,sans-Serif" font-size="10.00">cam.basrelief.smooth</text>
</a>
</g>
</g>
<!-- Node1&#45;&gt;Node7 -->
<g id="edge6_Node000001_Node000007" class="edge">
<title>Node1&#45;&gt;Node7</title>
<g id="a_edge6_Node000001_Node000007"><a xlink:title=" ">
<path fill="none" stroke="#63b8ff" d="M70.92,-126.26C87.59,-108.94 117.13,-81.08 148,-65.5 152.63,-63.17 157.55,-61.11 162.59,-59.3"/>
<polygon fill="#63b8ff" stroke="#63b8ff" points="163.96,-62.53 172.39,-56.11 161.79,-55.88 163.96,-62.53"/>
</a>
</g>
</g>
<!-- Node8 -->
<g id="Node000008" class="node">
<title>Node8</title>
<g id="a_Node000008"><a xlink:href="namespacecam_1_1basrelief.html#a7369a80f45ef2d8d836e195fc67ee148" target="_top" xlink:title=" ">
<polygon fill="white" stroke="#666666" points="457,-56 342,-56 342,-37 457,-37 457,-56"/>
<text text-anchor="middle" x="399.5" y="-44" font-family="Helvetica,sans-Serif" font-size="10.00">cam.basrelief.linbcg</text>
</a>
</g>
</g>
<!-- Node7&#45;&gt;Node8 -->
<g id="edge7_Node000007_Node000008" class="edge">
<title>Node7&#45;&gt;Node8</title>
<g id="a_edge7_Node000007_Node000008"><a xlink:title=" ">
<path fill="none" stroke="#63b8ff" d="M288.11,-46.5C302.15,-46.5 317.19,-46.5 331.51,-46.5"/>
<polygon fill="#63b8ff" stroke="#63b8ff" points="331.79,-50 341.79,-46.5 331.79,-43 331.79,-50"/>
</a>
</g>
</g>
<!-- Node9 -->
<g id="Node000009" class="node">
<title>Node9</title>
<g id="a_Node000009"><a xlink:href="namespacecam_1_1basrelief.html#a822964708e515d6bdd72592d1b8e34a6" target="_top" xlink:title=" ">
<polygon fill="white" stroke="#666666" points="611.5,-93 493.5,-93 493.5,-74 611.5,-74 611.5,-93"/>
<text text-anchor="middle" x="552.5" y="-81" font-family="Helvetica,sans-Serif" font-size="10.00">cam.basrelief.asolve</text>
</a>
</g>
</g>
<!-- Node8&#45;&gt;Node9 -->
<g id="edge8_Node000008_Node000009" class="edge">
<title>Node8&#45;&gt;Node9</title>
<g id="a_edge8_Node000008_Node000009"><a xlink:title=" ">
<path fill="none" stroke="#63b8ff" d="M439.39,-56.03C458.69,-60.76 482.2,-66.52 502.69,-71.54"/>
<polygon fill="#63b8ff" stroke="#63b8ff" points="501.94,-74.96 512.48,-73.94 503.6,-68.16 501.94,-74.96"/>
</a>
</g>
</g>
<!-- Node10 -->
<g id="Node000010" class="node">
<title>Node10</title>
<g id="a_Node000010"><a xlink:href="namespacecam_1_1basrelief.html#ac14b2661328ff1f3816c445ebfbca188" target="_top" xlink:title=" ">
<polygon fill="white" stroke="#666666" points="612,-56 493,-56 493,-37 612,-37 612,-56"/>
<text text-anchor="middle" x="552.5" y="-44" font-family="Helvetica,sans-Serif" font-size="10.00">cam.basrelief.atimes</text>
</a>
</g>
</g>
<!-- Node8&#45;&gt;Node10 -->
<g id="edge9_Node000008_Node000010" class="edge">
<title>Node8&#45;&gt;Node10</title>
<g id="a_edge9_Node000008_Node000010"><a xlink:title=" ">
<path fill="none" stroke="#63b8ff" d="M457.16,-46.5C465.43,-46.5 474.02,-46.5 482.5,-46.5"/>
<polygon fill="#63b8ff" stroke="#63b8ff" points="482.76,-50 492.76,-46.5 482.76,-43 482.76,-50"/>
</a>
</g>
</g>
<!-- Node11 -->
<g id="Node000011" class="node">
<title>Node11</title>
<g id="a_Node000011"><a xlink:href="namespacecam_1_1basrelief.html#a6c50cb05df82a36b700aa844163dd7da" target="_top" xlink:title=" ">
<polygon fill="white" stroke="#666666" points="607.5,-19 497.5,-19 497.5,0 607.5,0 607.5,-19"/>
<text text-anchor="middle" x="552.5" y="-7" font-family="Helvetica,sans-Serif" font-size="10.00">cam.basrelief.snrm</text>
</a>
</g>
</g>
<!-- Node8&#45;&gt;Node11 -->
<g id="edge10_Node000008_Node000011" class="edge">
<title>Node8&#45;&gt;Node11</title>
<g id="a_edge10_Node000008_Node000011"><a xlink:title=" ">
<path fill="none" stroke="#63b8ff" d="M439.39,-36.97C458.69,-32.24 482.2,-26.48 502.69,-21.46"/>
<polygon fill="#63b8ff" stroke="#63b8ff" points="503.6,-24.84 512.48,-19.06 501.94,-18.04 503.6,-24.84"/>
</a>
</g>
</g>
</g>
</svg>

<g id="navigator" transform="translate(0 0)" fill="#404254">
  <rect fill="#f2f5e9" fill-opacity="0.5" stroke="#606060" stroke-width=".5" x="0" y="0" width="60" height="60"/>
  <use id="zoomplus" xlink:href="#zoomPlus" x="17" y="9" onmousedown="handleZoom(evt,'in')"/>
  <use id="zoomminus" xlink:href="#zoomMin" x="42" y="9" onmousedown="handleZoom(evt,'out')"/>
  <use id="reset" xlink:href="#resetDef" x="30" y="36" onmousedown="handleReset()"/>
   <use id="arrowup" xlink:href="#arrowUp" x="0" y="0" onmousedown="handlePan(0,-1)"/>
  <use id="arrowright" xlink:href="#arrowRight" x="0" y="0" onmousedown="handlePan(1,0)"/>
  <use id="arrowdown" xlink:href="#arrowDown" x="0" y="0" onmousedown="handlePan(0,1)"/>
  <use id="arrowleft" xlink:href="#arrowLeft" x="0" y="0" onmousedown="handlePan(-1,0)"/>
</g>
<svg viewBox="0 0 15 15" width="100%" height="30px" preserveAspectRatio="xMaxYMin meet">
 <g id="arrow_out" transform="scale(0.3 0.3)">
  <a xlink:href="namespacecam_1_1basrelief_a4cb6f56c1aa4d079ec817111a923c767_cgraph_org.svg" target="_base">
   <rect id="button" ry="5" rx="5" y="6" x="6" height="38" width="38"
        fill="#f2f5e9" fill-opacity="0.5" stroke="#606060" stroke-width="1.0"/>
   <path id="arrow"
     d="M 11.500037,31.436501 C 11.940474,20.09759 22.043105,11.32322 32.158766,21.979434 L 37.068811,17.246167 C 37.068811,17.246167 37.088388,32 37.088388,32 L 22.160133,31.978069 C 22.160133,31.978069 26.997745,27.140456 26.997745,27.140456 C 18.528582,18.264221 13.291696,25.230495 11.500037,31.436501 z"
     style="fill:#404040;"/>
  </a>
 </g>
</svg>

<style type='text/css'>
<![CDATA[
[data-mouse-over-selected='false'] { opacity: 0.7; }
[data-mouse-over-selected='true']  { opacity: 1.0; }
]]>
</style>
<script type="application/ecmascript"><![CDATA[
document.addEventListener('DOMContentLoaded', (event) => {
  highlightEdges();
  highlightAdjacentNodes();
});
]]></script>
</svg>
