<?xml version="1.0" encoding="UTF-8" standalone="no"?>
<!DOCTYPE svg PUBLIC "-//W3C//DTD SVG 1.1//EN"
 "http://www.w3.org/Graphics/SVG/1.1/DTD/svg11.dtd">
<!-- Generated by graphviz version 2.43.0 (0)
 -->
<!-- Title: cam.basrelief.smooth Pages: 1 -->
<svg width="647pt" height="38pt"
 viewBox="0.00 0.00 647.00 38.00" xmlns="http://www.w3.org/2000/svg" xmlns:xlink="http://www.w3.org/1999/xlink">
<g id="graph0" class="graph" transform="scale(1 1) rotate(0) translate(4 34)">
<title>cam.basrelief.smooth</title>
<!-- Node1 -->
<g id="Node000001" class="node">
<title>Node1</title>
<g id="a_Node000001"><a xlink:title=" ">
<polygon fill="#999999" stroke="#666666" points="639,-24.5 517,-24.5 517,-5.5 639,-5.5 639,-24.5"/>
<text text-anchor="middle" x="578" y="-12.5" font-family="Helvetica,sans-Serif" font-size="10.00">cam.basrelief.smooth</text>
</a>
</g>
</g>
<!-- Node2 -->
<g id="Node000002" class="node">
<title>Node2</title>
<g id="a_Node000002"><a xlink:href="namespacecam_1_1basrelief.html#a4cb6f56c1aa4d079ec817111a923c767" target="_top" xlink:title=" ">
<polygon fill="white" stroke="#666666" points="481,-30 369,-30 369,0 481,0 481,-30"/>
<text text-anchor="start" x="377" y="-18" font-family="Helvetica,sans-Serif" font-size="10.00">cam.basrelief.solve</text>
<text text-anchor="middle" x="425" y="-7" font-family="Helvetica,sans-Serif" font-size="10.00">_pde_multigrid</text>
</a>
</g>
</g>
<!-- Node1&#45;&gt;Node2 -->
<g id="edge1_Node000001_Node000002" class="edge">
<title>Node1&#45;&gt;Node2</title>
<g id="a_edge1_Node000001_Node000002"><a xlink:title=" ">
<path fill="none" stroke="#63b8ff" d="M506.8,-15C498.14,-15 489.39,-15 481.01,-15"/>
<polygon fill="#63b8ff" stroke="#63b8ff" points="506.89,-18.5 516.89,-15 506.89,-11.5 506.89,-18.5"/>
</a>
</g>
</g>
<!-- Node3 -->
<g id="Node000003" class="node">
<title>Node3</title>
<g id="a_Node000003"><a xlink:href="namespacecam_1_1basrelief.html#aa0248196478d87431123a0e74908ab1c" target="_top" xlink:title=" ">
<polygon fill="white" stroke="#666666" points="333,-24.5 222,-24.5 222,-5.5 333,-5.5 333,-24.5"/>
<text text-anchor="middle" x="277.5" y="-12.5" font-family="Helvetica,sans-Serif" font-size="10.00">cam.basrelief.relief</text>
</a>
</g>
</g>
<!-- Node2&#45;&gt;Node3 -->
<g id="edge2_Node000002_Node000003" class="edge">
<title>Node2&#45;&gt;Node3</title>
<g id="a_edge2_Node000002_Node000003"><a xlink:title=" ">
<path fill="none" stroke="#63b8ff" d="M358.95,-15C350.32,-15 341.54,-15 333.1,-15"/>
<polygon fill="#63b8ff" stroke="#63b8ff" points="358.99,-18.5 368.99,-15 358.99,-11.5 358.99,-18.5"/>
</a>
</g>
</g>
<!-- Node4 -->
<g id="Node000004" class="node">
<title>Node4</title>
<g id="a_Node000004"><a xlink:href="classcam_1_1basrelief_1_1DoBasRelief.html#a8097cf99320b782af9c0d1d1968bfdd1" target="_top" xlink:title=" ">
<polygon fill="white" stroke="#666666" points="186,-24.5 0,-24.5 0,-5.5 186,-5.5 186,-24.5"/>
<text text-anchor="middle" x="93" y="-12.5" font-family="Helvetica,sans-Serif" font-size="10.00">cam.basrelief.DoBasRelief.execute</text>
</a>
</g>
</g>
<!-- Node3&#45;&gt;Node4 -->
<g id="edge3_Node000003_Node000004" class="edge">
<title>Node3&#45;&gt;Node4</title>
<g id="a_edge3_Node000003_Node000004"><a xlink:title=" ">
<path fill="none" stroke="#63b8ff" d="M211.53,-15C203.31,-15 194.79,-15 186.25,-15"/>
<polygon fill="#63b8ff" stroke="#63b8ff" points="211.74,-18.5 221.74,-15 211.74,-11.5 211.74,-18.5"/>
</a>
</g>
</g>
</g>
</svg>
