<?xml version="1.0" encoding="UTF-8" standalone="no"?>
<!DOCTYPE svg PUBLIC "-//W3C//DTD SVG 1.1//EN"
 "http://www.w3.org/Graphics/SVG/1.1/DTD/svg11.dtd">
<!-- Generated by graphviz version 2.43.0 (0)
 -->
<!-- Title: cam.puzzle_joinery.finger Pages: 1 -->
<!--zoomable 299 -->

<svg id="main" version="1.1" xmlns="http://www.w3.org/2000/svg" xmlns:xlink="http://www.w3.org/1999/xlink" xml:space="preserve" onload="init(evt)">
<style type="text/css"><![CDATA[
.node, .edge {opacity: 0.7;}
.node.selected, .edge.selected {opacity: 1;}
.edge:hover path { stroke: red; }
.edge:hover polygon { stroke: red; fill: red; }
]]></style>

<defs>
  <circle id="rim" cx="0" cy="0" r="7"/>
  <circle id="rim2" cx="0" cy="0" r="3.5"/>
  <g id="zoomPlus">
    <use xlink:href="#rim" fill="#404040"><set attributeName="fill" to="#808080" begin="zoomplus.mouseover" end="zoomplus.mouseout"/></use>
    <path d="M-4,0h8M0,-4v8" fill="none" stroke="white" stroke-width="1.5" pointer-events="none"/>
  </g>
  <g id="zoomMin">
    <use xlink:href="#rim" fill="#404040"><set attributeName="fill" to="#808080" begin="zoomminus.mouseover" end="zoomminus.mouseout"/></use>
    <path d="M-4,0h8" fill="none" stroke="white" stroke-width="1.5" pointer-events="none"/>
  </g>
  <g id="arrowUp" transform="translate(30 24)">
    <use xlink:href="#rim"/>
    <path pointer-events="none" fill="none" stroke="white" stroke-width="1.5" d="M0,-3.0v7 M-2.5,-0.5L0,-3.0L2.5,-0.5"/>
  </g>
  <g id="arrowRight" transform="rotate(90) translate(36 -43)">
    <use xlink:href="#rim"/>
    <path pointer-events="none" fill="none" stroke="white" stroke-width="1.5" d="M0,-3.0v7 M-2.5,-0.5L0,-3.0L2.5,-0.5"/>
  </g>
  <g id="arrowDown" transform="rotate(180) translate(-30 -48)">
    <use xlink:href="#rim"/>
    <path pointer-events="none" fill="none" stroke="white" stroke-width="1.5" d="M0,-3.0v7 M-2.5,-0.5L0,-3.0L2.5,-0.5"/>
  </g>
  <g id="arrowLeft" transform="rotate(270) translate(-36 17)">
    <use xlink:href="#rim"/>
    <path pointer-events="none" fill="none" stroke="white" stroke-width="1.5" d="M0,-3.0v7 M-2.5,-0.5L0,-3.0L2.5,-0.5"/>
  </g>
  <g id="resetDef">
    <use xlink:href="#rim2" fill="#404040"><set attributeName="fill" to="#808080" begin="reset.mouseover" end="reset.mouseout"/></use>
  </g>
</defs>
<script type="application/ecmascript">
var viewWidth = 706;
var viewHeight = 299;
var sectionId = 'dynsection-7';
</script>
<script type="application/ecmascript" xlink:href="svg.min.js"/>
<svg id="graph" class="graph">
<g id="viewport">
<title>cam.puzzle_joinery.finger</title>
<!-- Node1 -->
<g id="Node000001" class="node">
<title>Node1</title>
<g id="a_Node000001"><a xlink:title=" ">
<polygon fill="#999999" stroke="#666666" points="698,-124 558,-124 558,-105 698,-105 698,-124"/>
<text text-anchor="middle" x="628" y="-112" font-family="Helvetica,sans-Serif" font-size="10.00">cam.puzzle_joinery.finger</text>
</a>
</g>
</g>
<!-- Node2 -->
<g id="Node000002" class="node">
<title>Node2</title>
<g id="a_Node000002"><a xlink:href="namespacecam_1_1puzzle__joinery.html#af57d1435a944dc9207c05e8a4c0ebb72" target="_top" xlink:title=" ">
<polygon fill="white" stroke="#666666" points="522,-124 376,-124 376,-105 522,-105 522,-124"/>
<text text-anchor="middle" x="449" y="-112" font-family="Helvetica,sans-Serif" font-size="10.00">cam.puzzle_joinery.fingers</text>
</a>
</g>
</g>
<!-- Node1&#45;&gt;Node2 -->
<g id="edge1_Node000001_Node000002" class="edge">
<title>Node1&#45;&gt;Node2</title>
<g id="a_edge1_Node000001_Node000002"><a xlink:title=" ">
<path fill="none" stroke="#63b8ff" d="M547.53,-114.5C539.05,-114.5 530.45,-114.5 522.06,-114.5"/>
<polygon fill="#63b8ff" stroke="#63b8ff" points="547.81,-118 557.81,-114.5 547.81,-111 547.81,-118"/>
</a>
</g>
</g>
<!-- Node3 -->
<g id="Node000003" class="node">
<title>Node3</title>
<g id="a_Node000003"><a xlink:href="namespacecam_1_1puzzle__joinery.html#a110e06ffcd6df9f4eb8c11ba46639a86" target="_top" xlink:title=" ">
<polygon fill="white" stroke="#666666" points="334.5,-218 206.5,-218 206.5,-199 334.5,-199 334.5,-218"/>
<text text-anchor="middle" x="270.5" y="-206" font-family="Helvetica,sans-Serif" font-size="10.00">cam.puzzle_joinery.arc</text>
</a>
</g>
</g>
<!-- Node2&#45;&gt;Node3 -->
<g id="edge2_Node000002_Node000003" class="edge">
<title>Node2&#45;&gt;Node3</title>
<g id="a_edge2_Node000002_Node000003"><a xlink:title=" ">
<path fill="none" stroke="#63b8ff" d="M429.53,-130.64C408.98,-147.8 374.17,-174.62 340,-190.5 332.86,-193.82 325.01,-196.6 317.25,-198.91"/>
<polygon fill="#63b8ff" stroke="#63b8ff" points="431.81,-133.29 437.17,-124.15 427.28,-127.96 431.81,-133.29"/>
</a>
</g>
</g>
<!-- Node8 -->
<g id="Node000008" class="node">
<title>Node8</title>
<g id="a_Node000008"><a xlink:href="namespacecam_1_1puzzle__joinery.html#ac77a90bb750e0c3a3c99d6ad3265e79a" target="_top" xlink:title=" ">
<polygon fill="white" stroke="#666666" points="334.5,-181 206.5,-181 206.5,-162 334.5,-162 334.5,-181"/>
<text text-anchor="middle" x="270.5" y="-169" font-family="Helvetica,sans-Serif" font-size="10.00">cam.puzzle_joinery.bar</text>
</a>
</g>
</g>
<!-- Node2&#45;&gt;Node8 -->
<g id="edge7_Node000002_Node000008" class="edge">
<title>Node2&#45;&gt;Node8</title>
<g id="a_edge7_Node000002_Node000008"><a xlink:title=" ">
<path fill="none" stroke="#63b8ff" d="M408.81,-127.16C376.28,-137.66 330.7,-152.38 301.14,-161.93"/>
<polygon fill="#63b8ff" stroke="#63b8ff" points="410.02,-130.44 418.46,-124.04 407.87,-123.78 410.02,-130.44"/>
</a>
</g>
</g>
<!-- Node9 -->
<g id="Node000009" class="node">
<title>Node9</title>
<g id="a_Node000009"><a xlink:href="namespacecam_1_1puzzle__joinery.html#aca5a28f5f8c51f8954f13fd0c264e931" target="_top" xlink:title=" ">
<polygon fill="white" stroke="#666666" points="140.5,-143 24.5,-143 24.5,-124 140.5,-124 140.5,-143"/>
<text text-anchor="middle" x="82.5" y="-131" font-family="Helvetica,sans-Serif" font-size="10.00">cam.puzzle_joinery.t</text>
</a>
</g>
</g>
<!-- Node2&#45;&gt;Node9 -->
<g id="edge13_Node000002_Node000009" class="edge">
<title>Node2&#45;&gt;Node9</title>
<g id="a_edge13_Node000002_Node000009"><a xlink:title=" ">
<path fill="none" stroke="#63b8ff" d="M365.65,-118.79C297.06,-122.37 201.16,-127.37 140.71,-130.52"/>
<polygon fill="#63b8ff" stroke="#63b8ff" points="366.18,-122.27 375.99,-118.25 365.82,-115.28 366.18,-122.27"/>
</a>
</g>
</g>
<!-- Node10 -->
<g id="Node000010" class="node">
<title>Node10</title>
<g id="a_Node000010"><a xlink:href="namespacecam_1_1puzzle__joinery.html#aaea56558d97949cc0cf99af9f7746c00" target="_top" xlink:title=" ">
<polygon fill="white" stroke="#666666" points="340,-105 201,-105 201,-86 340,-86 340,-105"/>
<text text-anchor="middle" x="270.5" y="-93" font-family="Helvetica,sans-Serif" font-size="10.00">cam.puzzle_joinery.mitre</text>
</a>
</g>
</g>
<!-- Node2&#45;&gt;Node10 -->
<g id="edge11_Node000002_Node000010" class="edge">
<title>Node2&#45;&gt;Node10</title>
<g id="a_edge11_Node000002_Node000010"><a xlink:title=" ">
<path fill="none" stroke="#63b8ff" d="M365.91,-105.66C357.3,-104.74 348.61,-103.8 340.18,-102.89"/>
<polygon fill="#63b8ff" stroke="#63b8ff" points="365.64,-109.15 375.96,-106.74 366.39,-102.19 365.64,-109.15"/>
</a>
</g>
</g>
<!-- Node11 -->
<g id="Node000011" class="node">
<title>Node11</title>
<g id="a_Node000011"><a xlink:href="namespacecam_1_1puzzle__joinery.html#a98efd38937a6d95b6579a1375c780036" target="_top" xlink:title=" ">
<polygon fill="white" stroke="#666666" points="339,-67.5 202,-67.5 202,-37.5 339,-37.5 339,-67.5"/>
<text text-anchor="start" x="210" y="-55.5" font-family="Helvetica,sans-Serif" font-size="10.00">cam.puzzle_joinery.open</text>
<text text-anchor="middle" x="270.5" y="-44.5" font-family="Helvetica,sans-Serif" font-size="10.00">_curve</text>
</a>
</g>
</g>
<!-- Node2&#45;&gt;Node11 -->
<g id="edge12_Node000002_Node000011" class="edge">
<title>Node2&#45;&gt;Node11</title>
<g id="a_edge12_Node000002_Node000011"><a xlink:title=" ">
<path fill="none" stroke="#63b8ff" d="M411.46,-101.63C390.54,-94.27 363.8,-84.86 340,-76.5 331.8,-73.62 323.04,-70.55 314.62,-67.6"/>
<polygon fill="#63b8ff" stroke="#63b8ff" points="410.33,-104.94 420.93,-104.96 412.66,-98.34 410.33,-104.94"/>
</a>
</g>
</g>
<!-- Node12 -->
<g id="Node000012" class="node">
<title>Node12</title>
<g id="a_Node000012"><a xlink:href="namespacecam_1_1puzzle__joinery.html#a0f65ff6f9261396e1c80cd5461fceee4" target="_top" xlink:title=" ">
<polygon fill="white" stroke="#666666" points="334.5,-19 206.5,-19 206.5,0 334.5,0 334.5,-19"/>
<text text-anchor="middle" x="270.5" y="-7" font-family="Helvetica,sans-Serif" font-size="10.00">cam.puzzle_joinery.tile</text>
</a>
</g>
</g>
<!-- Node2&#45;&gt;Node12 -->
<g id="edge14_Node000002_Node000012" class="edge">
<title>Node2&#45;&gt;Node12</title>
<g id="a_edge14_Node000002_Node000012"><a xlink:title=" ">
<path fill="none" stroke="#63b8ff" d="M431.47,-97.74C411.49,-78.39 376.03,-46.87 340,-28.5 332.52,-24.69 324.19,-21.56 315.97,-19.02"/>
<polygon fill="#63b8ff" stroke="#63b8ff" points="429.23,-100.45 438.81,-104.98 434.15,-95.47 429.23,-100.45"/>
</a>
</g>
</g>
<!-- Node4 -->
<g id="Node000004" class="node">
<title>Node4</title>
<g id="a_Node000004"><a xlink:href="namespacecam_1_1puzzle__joinery.html#aaf5e385562ae64de94b65a1ced1831e0" target="_top" xlink:title=" ">
<polygon fill="white" stroke="#666666" points="154,-180 11,-180 11,-161 154,-161 154,-180"/>
<text text-anchor="middle" x="82.5" y="-168" font-family="Helvetica,sans-Serif" font-size="10.00">cam.puzzle_joinery.arcbar</text>
</a>
</g>
</g>
<!-- Node3&#45;&gt;Node4 -->
<g id="edge3_Node000003_Node000004" class="edge">
<title>Node3&#45;&gt;Node4</title>
<g id="a_edge3_Node000003_Node000004"><a xlink:title=" ">
<path fill="none" stroke="#63b8ff" d="M212.67,-196.89C186.22,-191.49 155.14,-185.14 130.1,-180.02"/>
<polygon fill="#63b8ff" stroke="#63b8ff" points="212.07,-200.34 222.56,-198.91 213.47,-193.48 212.07,-200.34"/>
</a>
</g>
</g>
<!-- Node5 -->
<g id="Node000005" class="node">
<title>Node5</title>
<g id="a_Node000005"><a xlink:href="namespacecam_1_1puzzle__joinery.html#a36b07d5ee313eed430a40227a29a5fd1" target="_top" xlink:title=" ">
<polygon fill="white" stroke="#666666" points="161.5,-291 3.5,-291 3.5,-272 161.5,-272 161.5,-291"/>
<text text-anchor="middle" x="82.5" y="-279" font-family="Helvetica,sans-Serif" font-size="10.00">cam.puzzle_joinery.arcbararc</text>
</a>
</g>
</g>
<!-- Node3&#45;&gt;Node5 -->
<g id="edge4_Node000003_Node000005" class="edge">
<title>Node3&#45;&gt;Node5</title>
<g id="a_edge4_Node000003_Node000005"><a xlink:title=" ">
<path fill="none" stroke="#63b8ff" d="M245.81,-223.32C225.16,-235.66 194.05,-252.87 165,-263.5 156.02,-266.79 146.25,-269.58 136.7,-271.91"/>
<polygon fill="#63b8ff" stroke="#63b8ff" points="247.78,-226.22 254.51,-218.04 244.15,-220.24 247.78,-226.22"/>
</a>
</g>
</g>
<!-- Node6 -->
<g id="Node000006" class="node">
<title>Node6</title>
<g id="a_Node000006"><a xlink:href="namespacecam_1_1puzzle__joinery.html#a61b368014071486e7050063c5325b915" target="_top" xlink:title=" ">
<polygon fill="white" stroke="#666666" points="160,-217 5,-217 5,-198 160,-198 160,-217"/>
<text text-anchor="middle" x="82.5" y="-205" font-family="Helvetica,sans-Serif" font-size="10.00">cam.puzzle_joinery.curved_t</text>
</a>
</g>
</g>
<!-- Node3&#45;&gt;Node6 -->
<g id="edge5_Node000003_Node000006" class="edge">
<title>Node3&#45;&gt;Node6</title>
<g id="a_edge5_Node000003_Node000006"><a xlink:title=" ">
<path fill="none" stroke="#63b8ff" d="M196.02,-208.1C184.21,-208.04 171.96,-207.98 160.07,-207.91"/>
<polygon fill="#63b8ff" stroke="#63b8ff" points="196.25,-211.61 206.27,-208.16 196.29,-204.61 196.25,-211.61"/>
</a>
</g>
</g>
<!-- Node7 -->
<g id="Node000007" class="node">
<title>Node7</title>
<g id="a_Node000007"><a xlink:href="namespacecam_1_1puzzle__joinery.html#a5c10906df71f805f9badb118c2507386" target="_top" xlink:title=" ">
<polygon fill="white" stroke="#666666" points="165,-254 0,-254 0,-235 165,-235 165,-254"/>
<text text-anchor="middle" x="82.5" y="-242" font-family="Helvetica,sans-Serif" font-size="10.00">cam.puzzle_joinery.multiangle</text>
</a>
</g>
</g>
<!-- Node3&#45;&gt;Node7 -->
<g id="edge6_Node000003_Node000007" class="edge">
<title>Node3&#45;&gt;Node7</title>
<g id="a_edge6_Node000003_Node000007"><a xlink:title=" ">
<path fill="none" stroke="#63b8ff" d="M210.07,-220C185.14,-224.83 156.49,-230.37 132.76,-234.97"/>
<polygon fill="#63b8ff" stroke="#63b8ff" points="210.99,-223.39 220.14,-218.05 209.66,-216.52 210.99,-223.39"/>
</a>
</g>
</g>
<!-- Node8&#45;&gt;Node4 -->
<g id="edge8_Node000008_Node000004" class="edge">
<title>Node8&#45;&gt;Node4</title>
<g id="a_edge8_Node000008_Node000004"><a xlink:title=" ">
<path fill="none" stroke="#63b8ff" d="M195.91,-171.1C182.18,-171.03 167.86,-170.95 154.22,-170.88"/>
<polygon fill="#63b8ff" stroke="#63b8ff" points="196.25,-174.61 206.27,-171.16 196.29,-167.61 196.25,-174.61"/>
</a>
</g>
</g>
<!-- Node8&#45;&gt;Node6 -->
<g id="edge9_Node000008_Node000006" class="edge">
<title>Node8&#45;&gt;Node6</title>
<g id="a_edge9_Node000008_Node000006"><a xlink:title=" ">
<path fill="none" stroke="#63b8ff" d="M210.07,-183C185.14,-187.83 156.49,-193.37 132.76,-197.97"/>
<polygon fill="#63b8ff" stroke="#63b8ff" points="210.99,-186.39 220.14,-181.05 209.66,-179.52 210.99,-186.39"/>
</a>
</g>
</g>
<!-- Node8&#45;&gt;Node9 -->
<g id="edge10_Node000008_Node000009" class="edge">
<title>Node8&#45;&gt;Node9</title>
<g id="a_edge10_Node000008_Node000009"><a xlink:title=" ">
<path fill="none" stroke="#63b8ff" d="M212.67,-159.89C186.22,-154.49 155.14,-148.14 130.1,-143.02"/>
<polygon fill="#63b8ff" stroke="#63b8ff" points="212.07,-163.34 222.56,-161.91 213.47,-156.48 212.07,-163.34"/>
</a>
</g>
</g>
</g>
</svg>

<g id="navigator" transform="translate(0 0)" fill="#404254">
  <rect fill="#f2f5e9" fill-opacity="0.5" stroke="#606060" stroke-width=".5" x="0" y="0" width="60" height="60"/>
  <use id="zoomplus" xlink:href="#zoomPlus" x="17" y="9" onmousedown="handleZoom(evt,'in')"/>
  <use id="zoomminus" xlink:href="#zoomMin" x="42" y="9" onmousedown="handleZoom(evt,'out')"/>
  <use id="reset" xlink:href="#resetDef" x="30" y="36" onmousedown="handleReset()"/>
   <use id="arrowup" xlink:href="#arrowUp" x="0" y="0" onmousedown="handlePan(0,-1)"/>
  <use id="arrowright" xlink:href="#arrowRight" x="0" y="0" onmousedown="handlePan(1,0)"/>
  <use id="arrowdown" xlink:href="#arrowDown" x="0" y="0" onmousedown="handlePan(0,1)"/>
  <use id="arrowleft" xlink:href="#arrowLeft" x="0" y="0" onmousedown="handlePan(-1,0)"/>
</g>
<svg viewBox="0 0 15 15" width="100%" height="30px" preserveAspectRatio="xMaxYMin meet">
 <g id="arrow_out" transform="scale(0.3 0.3)">
  <a xlink:href="namespacecam_1_1puzzle__joinery_a2975e13b4c0d374385227493e06d5101_icgraph_org.svg" target="_base">
   <rect id="button" ry="5" rx="5" y="6" x="6" height="38" width="38"
        fill="#f2f5e9" fill-opacity="0.5" stroke="#606060" stroke-width="1.0"/>
   <path id="arrow"
     d="M 11.500037,31.436501 C 11.940474,20.09759 22.043105,11.32322 32.158766,21.979434 L 37.068811,17.246167 C 37.068811,17.246167 37.088388,32 37.088388,32 L 22.160133,31.978069 C 22.160133,31.978069 26.997745,27.140456 26.997745,27.140456 C 18.528582,18.264221 13.291696,25.230495 11.500037,31.436501 z"
     style="fill:#404040;"/>
  </a>
 </g>
</svg>

<style type='text/css'>
<![CDATA[
[data-mouse-over-selected='false'] { opacity: 0.7; }
[data-mouse-over-selected='true']  { opacity: 1.0; }
]]>
</style>
<script type="application/ecmascript"><![CDATA[
document.addEventListener('DOMContentLoaded', (event) => {
  highlightEdges();
  highlightAdjacentNodes();
});
]]></script>
</svg>
