<?xml version="1.0" encoding="UTF-8" standalone="no"?>
<!DOCTYPE svg PUBLIC "-//W3C//DTD SVG 1.1//EN"
 "http://www.w3.org/Graphics/SVG/1.1/DTD/svg11.dtd">
<!-- Generated by graphviz version 2.43.0 (0)
 -->
<!-- Title: cam.strategy.curve Pages: 1 -->
<svg width="308pt" height="101pt"
 viewBox="0.00 0.00 308.00 101.00" xmlns="http://www.w3.org/2000/svg" xmlns:xlink="http://www.w3.org/1999/xlink">
<g id="graph0" class="graph" transform="scale(1 1) rotate(0) translate(4 97)">
<title>cam.strategy.curve</title>
<!-- Node1 -->
<g id="Node000001" class="node">
<title>Node1</title>
<g id="a_Node000001"><a xlink:title=" ">
<polygon fill="#999999" stroke="#666666" points="110,-56 0,-56 0,-37 110,-37 110,-56"/>
<text text-anchor="middle" x="55" y="-44" font-family="Helvetica,sans-Serif" font-size="10.00">cam.strategy.curve</text>
</a>
</g>
</g>
<!-- Node2 -->
<g id="Node000002" class="node">
<title>Node2</title>
<g id="a_Node000002"><a xlink:href="namespacecam_1_1strategy.html#a972d6afd961809855c279418b33d68b9" target="_top" xlink:title=" ">
<polygon fill="white" stroke="#666666" points="290.5,-93 155.5,-93 155.5,-74 290.5,-74 290.5,-93"/>
<text text-anchor="middle" x="223" y="-81" font-family="Helvetica,sans-Serif" font-size="10.00">cam.strategy.checkminz</text>
</a>
</g>
</g>
<!-- Node1&#45;&gt;Node2 -->
<g id="edge1_Node000001_Node000002" class="edge">
<title>Node1&#45;&gt;Node2</title>
<g id="a_edge1_Node000001_Node000002"><a xlink:title=" ">
<path fill="none" stroke="#63b8ff" d="M98.75,-56.03C120.26,-60.82 146.52,-66.68 169.27,-71.75"/>
<polygon fill="#63b8ff" stroke="#63b8ff" points="168.59,-75.18 179.11,-73.94 170.11,-68.35 168.59,-75.18"/>
</a>
</g>
</g>
<!-- Node3 -->
<g id="Node000003" class="node">
<title>Node3</title>
<g id="a_Node000003"><a xlink:href="namespacecam_1_1strategy.html#aca3f0f6ecc85cb369be195cb1d36a913" target="_top" xlink:title=" ">
<polygon fill="white" stroke="#666666" points="300,-56 146,-56 146,-37 300,-37 300,-56"/>
<text text-anchor="middle" x="223" y="-44" font-family="Helvetica,sans-Serif" font-size="10.00">cam.strategy.chunksToMesh</text>
</a>
</g>
</g>
<!-- Node1&#45;&gt;Node3 -->
<g id="edge2_Node000001_Node000003" class="edge">
<title>Node1&#45;&gt;Node3</title>
<g id="a_edge2_Node000001_Node000003"><a xlink:title=" ">
<path fill="none" stroke="#63b8ff" d="M110.35,-46.5C118.51,-46.5 127.09,-46.5 135.71,-46.5"/>
<polygon fill="#63b8ff" stroke="#63b8ff" points="135.83,-50 145.83,-46.5 135.83,-43 135.83,-50"/>
</a>
</g>
</g>
<!-- Node4 -->
<g id="Node000004" class="node">
<title>Node4</title>
<g id="a_Node000004"><a xlink:href="namespacecam_1_1strategy.html#af05502deb88ecda90e32059e42b321fb" target="_top" xlink:title=" ">
<polygon fill="white" stroke="#666666" points="288.5,-19 157.5,-19 157.5,0 288.5,0 288.5,-19"/>
<text text-anchor="middle" x="223" y="-7" font-family="Helvetica,sans-Serif" font-size="10.00">cam.strategy.getLayers</text>
</a>
</g>
</g>
<!-- Node1&#45;&gt;Node4 -->
<g id="edge3_Node000001_Node000004" class="edge">
<title>Node1&#45;&gt;Node4</title>
<g id="a_edge3_Node000001_Node000004"><a xlink:title=" ">
<path fill="none" stroke="#63b8ff" d="M98.75,-36.97C120.26,-32.18 146.52,-26.32 169.27,-21.25"/>
<polygon fill="#63b8ff" stroke="#63b8ff" points="170.11,-24.65 179.11,-19.06 168.59,-17.82 170.11,-24.65"/>
</a>
</g>
</g>
</g>
</svg>
