<?xml version="1.0" encoding="UTF-8" standalone="no"?>
<!DOCTYPE svg PUBLIC "-//W3C//DTD SVG 1.1//EN"
 "http://www.w3.org/Graphics/SVG/1.1/DTD/svg11.dtd">
<!-- Generated by graphviz version 2.43.0 (0)
 -->
<!-- Title: cam.puzzle_joinery.arc Pages: 1 -->
<svg width="337pt" height="138pt"
 viewBox="0.00 0.00 337.00 138.00" xmlns="http://www.w3.org/2000/svg" xmlns:xlink="http://www.w3.org/1999/xlink">
<g id="graph0" class="graph" transform="scale(1 1) rotate(0) translate(4 134)">
<title>cam.puzzle_joinery.arc</title>
<!-- Node1 -->
<g id="Node000001" class="node">
<title>Node1</title>
<g id="a_Node000001"><a xlink:title=" ">
<polygon fill="#999999" stroke="#666666" points="329,-74 201,-74 201,-55 329,-55 329,-74"/>
<text text-anchor="middle" x="265" y="-62" font-family="Helvetica,sans-Serif" font-size="10.00">cam.puzzle_joinery.arc</text>
</a>
</g>
</g>
<!-- Node2 -->
<g id="Node000002" class="node">
<title>Node2</title>
<g id="a_Node000002"><a xlink:href="namespacecam_1_1puzzle__joinery.html#aaf5e385562ae64de94b65a1ced1831e0" target="_top" xlink:title=" ">
<polygon fill="white" stroke="#666666" points="154,-130 11,-130 11,-111 154,-111 154,-130"/>
<text text-anchor="middle" x="82.5" y="-118" font-family="Helvetica,sans-Serif" font-size="10.00">cam.puzzle_joinery.arcbar</text>
</a>
</g>
</g>
<!-- Node1&#45;&gt;Node2 -->
<g id="edge1_Node000001_Node000002" class="edge">
<title>Node1&#45;&gt;Node2</title>
<g id="a_edge1_Node000001_Node000002"><a xlink:title=" ">
<path fill="none" stroke="#63b8ff" d="M232.45,-78C213.2,-85.88 187.97,-95.6 165,-102.5 154.59,-105.63 143.29,-108.47 132.5,-110.92"/>
<polygon fill="#63b8ff" stroke="#63b8ff" points="234.02,-81.13 241.92,-74.07 231.34,-74.67 234.02,-81.13"/>
</a>
</g>
</g>
<!-- Node3 -->
<g id="Node000003" class="node">
<title>Node3</title>
<g id="a_Node000003"><a xlink:href="namespacecam_1_1puzzle__joinery.html#a36b07d5ee313eed430a40227a29a5fd1" target="_top" xlink:title=" ">
<polygon fill="white" stroke="#666666" points="161.5,-93 3.5,-93 3.5,-74 161.5,-74 161.5,-93"/>
<text text-anchor="middle" x="82.5" y="-81" font-family="Helvetica,sans-Serif" font-size="10.00">cam.puzzle_joinery.arcbararc</text>
</a>
</g>
</g>
<!-- Node1&#45;&gt;Node3 -->
<g id="edge2_Node000001_Node000003" class="edge">
<title>Node1&#45;&gt;Node3</title>
<g id="a_edge2_Node000001_Node000003"><a xlink:title=" ">
<path fill="none" stroke="#63b8ff" d="M190.9,-72.19C181.23,-73.21 171.27,-74.26 161.52,-75.29"/>
<polygon fill="#63b8ff" stroke="#63b8ff" points="191.29,-75.67 200.87,-71.15 190.56,-68.71 191.29,-75.67"/>
</a>
</g>
</g>
<!-- Node4 -->
<g id="Node000004" class="node">
<title>Node4</title>
<g id="a_Node000004"><a xlink:href="namespacecam_1_1puzzle__joinery.html#a61b368014071486e7050063c5325b915" target="_top" xlink:title=" ">
<polygon fill="white" stroke="#666666" points="160,-56 5,-56 5,-37 160,-37 160,-56"/>
<text text-anchor="middle" x="82.5" y="-44" font-family="Helvetica,sans-Serif" font-size="10.00">cam.puzzle_joinery.curved_t</text>
</a>
</g>
</g>
<!-- Node1&#45;&gt;Node4 -->
<g id="edge3_Node000001_Node000004" class="edge">
<title>Node1&#45;&gt;Node4</title>
<g id="a_edge3_Node000001_Node000004"><a xlink:title=" ">
<path fill="none" stroke="#63b8ff" d="M190.9,-57.21C180.8,-56.2 170.41,-55.17 160.26,-54.15"/>
<polygon fill="#63b8ff" stroke="#63b8ff" points="190.57,-60.69 200.87,-58.2 191.27,-53.73 190.57,-60.69"/>
</a>
</g>
</g>
<!-- Node5 -->
<g id="Node000005" class="node">
<title>Node5</title>
<g id="a_Node000005"><a xlink:href="namespacecam_1_1puzzle__joinery.html#a5c10906df71f805f9badb118c2507386" target="_top" xlink:title=" ">
<polygon fill="white" stroke="#666666" points="165,-19 0,-19 0,0 165,0 165,-19"/>
<text text-anchor="middle" x="82.5" y="-7" font-family="Helvetica,sans-Serif" font-size="10.00">cam.puzzle_joinery.multiangle</text>
</a>
</g>
</g>
<!-- Node1&#45;&gt;Node5 -->
<g id="edge4_Node000001_Node000005" class="edge">
<title>Node1&#45;&gt;Node5</title>
<g id="a_edge4_Node000001_Node000005"><a xlink:title=" ">
<path fill="none" stroke="#63b8ff" d="M230.83,-51.31C211.76,-44.01 187.24,-35.11 165,-28.5 153.44,-25.06 140.81,-21.86 129.02,-19.1"/>
<polygon fill="#63b8ff" stroke="#63b8ff" points="229.67,-54.62 240.26,-54.96 232.2,-48.09 229.67,-54.62"/>
</a>
</g>
</g>
</g>
</svg>
