<?xml version="1.0" encoding="UTF-8" standalone="no"?>
<!DOCTYPE svg PUBLIC "-//W3C//DTD SVG 1.1//EN"
 "http://www.w3.org/Graphics/SVG/1.1/DTD/svg11.dtd">
<!-- Generated by graphviz version 2.43.0 (0)
 -->
<!-- Title: cam.nc.shopbot_mtc.Creator.absolute Pages: 1 -->
<svg width="1289pt" height="487pt"
 viewBox="0.00 0.00 1289.00 486.50" xmlns="http://www.w3.org/2000/svg" xmlns:xlink="http://www.w3.org/1999/xlink">
<g id="graph0" class="graph" transform="scale(1 1) rotate(0) translate(4 482.5)">
<title>cam.nc.shopbot_mtc.Creator.absolute</title>
<!-- Node1 -->
<g id="Node000001" class="node">
<title>Node1</title>
<g id="a_Node000001"><a xlink:title=" ">
<polygon fill="#999999" stroke="#666666" points="201,-285.5 0,-285.5 0,-266.5 201,-266.5 201,-285.5"/>
<text text-anchor="middle" x="100.5" y="-273.5" font-family="Helvetica,sans-Serif" font-size="10.00">cam.nc.shopbot_mtc.Creator.absolute</text>
</a>
</g>
</g>
<!-- Node2 -->
<g id="Node000002" class="node">
<title>Node2</title>
<g id="a_Node000002"><a xlink:href="$classcam_1_1nc_1_1cad__nc__read_1_1Parser.html#adcf2f47949df29f187f27fe985884633" xlink:title=" ">
<polygon fill="white" stroke="#666666" points="424.5,-460.5 248.5,-460.5 248.5,-441.5 424.5,-441.5 424.5,-460.5"/>
<text text-anchor="middle" x="336.5" y="-448.5" font-family="Helvetica,sans-Serif" font-size="10.00">cam.nc.cad_nc_read.Parser.write</text>
</a>
</g>
</g>
<!-- Node1&#45;&gt;Node2 -->
<g id="edge53_Node000001_Node000002" class="edge">
<title>Node1&#45;&gt;Node2</title>
<g id="a_edge53_Node000001_Node000002"><a xlink:title=" ">
<path fill="none" stroke="#63b8ff" d="M106.7,-285.75C122.24,-313.86 171.38,-395.45 237,-433 240.07,-434.76 243.28,-436.35 246.58,-437.79"/>
<polygon fill="#63b8ff" stroke="#63b8ff" points="245.51,-441.13 256.1,-441.47 248.03,-434.6 245.51,-441.13"/>
</a>
</g>
</g>
<!-- Node3 -->
<g id="Node000003" class="node">
<title>Node3</title>
<g id="a_Node000003"><a xlink:href="$classcam_1_1nc_1_1hxml__writer_1_1HxmlWriter.html#aed6f93c98cb8c0e3f3e826e75b6d6f15" xlink:title=" ">
<polygon fill="white" stroke="#666666" points="436,-405.5 237,-405.5 237,-386.5 436,-386.5 436,-405.5"/>
<text text-anchor="middle" x="336.5" y="-393.5" font-family="Helvetica,sans-Serif" font-size="10.00">cam.nc.hxml_writer.HxmlWriter.write</text>
</a>
</g>
</g>
<!-- Node1&#45;&gt;Node3 -->
<g id="edge55_Node000001_Node000003" class="edge">
<title>Node1&#45;&gt;Node3</title>
<g id="a_edge55_Node000001_Node000003"><a xlink:title=" ">
<path fill="none" stroke="#63b8ff" d="M110.99,-285.73C131.75,-306.38 183.6,-354.6 237,-378 241.75,-380.08 246.74,-381.93 251.84,-383.55"/>
<polygon fill="#63b8ff" stroke="#63b8ff" points="251.17,-387 261.75,-386.43 253.12,-380.28 251.17,-387"/>
</a>
</g>
</g>
<!-- Node4 -->
<g id="Node000004" class="node">
<title>Node4</title>
<g id="a_Node000004"><a xlink:href="$classcam_1_1nc_1_1iso_1_1Creator.html#abb81af5a0bdddfed387b71b68a51cc7a" xlink:title="Internals.">
<polygon fill="white" stroke="#666666" points="404,-368.5 269,-368.5 269,-349.5 404,-349.5 404,-368.5"/>
<text text-anchor="middle" x="336.5" y="-356.5" font-family="Helvetica,sans-Serif" font-size="10.00">cam.nc.iso.Creator.write</text>
</a>
</g>
</g>
<!-- Node1&#45;&gt;Node4 -->
<g id="edge57_Node000001_Node000004" class="edge">
<title>Node1&#45;&gt;Node4</title>
<g id="a_edge57_Node000001_Node000004"><a xlink:title=" ">
<path fill="none" stroke="#63b8ff" d="M118.01,-285.71C142.95,-299.96 192.08,-326.41 237,-341 244.27,-343.36 251.94,-345.44 259.67,-347.27"/>
<polygon fill="#63b8ff" stroke="#63b8ff" points="258.94,-350.69 269.46,-349.45 260.46,-343.86 258.94,-350.69"/>
</a>
</g>
</g>
<!-- Node5 -->
<g id="Node000005" class="node">
<title>Node5</title>
<g id="a_Node000005"><a xlink:href="$classcam_1_1nc_1_1nc_1_1Creator.html#a80f2134add83bfaaf2870d075d36ed8a" xlink:title=" ">
<polygon fill="white" stroke="#666666" points="402.5,-313.5 270.5,-313.5 270.5,-294.5 402.5,-294.5 402.5,-313.5"/>
<text text-anchor="middle" x="336.5" y="-301.5" font-family="Helvetica,sans-Serif" font-size="10.00">cam.nc.nc.Creator.write</text>
</a>
</g>
</g>
<!-- Node1&#45;&gt;Node5 -->
<g id="edge58_Node000001_Node000005" class="edge">
<title>Node1&#45;&gt;Node5</title>
<g id="a_edge58_Node000001_Node000005"><a xlink:title=" ">
<path fill="none" stroke="#63b8ff" d="M181.05,-285.52C206.55,-288.57 234.71,-291.94 259.92,-294.96"/>
<polygon fill="#63b8ff" stroke="#63b8ff" points="259.81,-298.47 270.16,-296.18 260.64,-291.52 259.81,-298.47"/>
</a>
</g>
</g>
<!-- Node6 -->
<g id="Node000006" class="node">
<title>Node6</title>
<g id="a_Node000006"><a xlink:href="$classcam_1_1nc_1_1nclathe__read_1_1Parser.html#ab5ea283b461b57e48c8d5b0ad0a45694" xlink:title=" ">
<polygon fill="white" stroke="#666666" points="425.5,-258.5 247.5,-258.5 247.5,-239.5 425.5,-239.5 425.5,-258.5"/>
<text text-anchor="middle" x="336.5" y="-246.5" font-family="Helvetica,sans-Serif" font-size="10.00">cam.nc.nclathe_read.Parser.write</text>
</a>
</g>
</g>
<!-- Node1&#45;&gt;Node6 -->
<g id="edge60_Node000001_Node000006" class="edge">
<title>Node1&#45;&gt;Node6</title>
<g id="a_edge60_Node000001_Node000006"><a xlink:title=" ">
<path fill="none" stroke="#63b8ff" d="M184,-266.48C203.05,-264.28 223.44,-261.93 242.88,-259.69"/>
<polygon fill="#63b8ff" stroke="#63b8ff" points="243.42,-263.15 252.96,-258.52 242.62,-256.19 243.42,-263.15"/>
</a>
</g>
</g>
<!-- Node7 -->
<g id="Node000007" class="node">
<title>Node7</title>
<g id="a_Node000007"><a xlink:href="$classcam_1_1nc_1_1recreator_1_1Redirector.html#a79cc974683588db3ef959189e7552c0d" xlink:title="Programs.">
<polygon fill="white" stroke="#666666" points="426,-203.5 247,-203.5 247,-184.5 426,-184.5 426,-203.5"/>
<text text-anchor="middle" x="336.5" y="-191.5" font-family="Helvetica,sans-Serif" font-size="10.00">cam.nc.recreator.Redirector.write</text>
</a>
</g>
</g>
<!-- Node1&#45;&gt;Node7 -->
<g id="edge62_Node000001_Node000007" class="edge">
<title>Node1&#45;&gt;Node7</title>
<g id="a_edge62_Node000001_Node000007"><a xlink:title=" ">
<path fill="none" stroke="#63b8ff" d="M128.8,-266.43C170.9,-251.68 251.71,-223.36 298.85,-206.84"/>
<polygon fill="#63b8ff" stroke="#63b8ff" points="300.09,-210.12 308.37,-203.51 297.78,-203.51 300.09,-210.12"/>
</a>
</g>
</g>
<!-- Node8 -->
<g id="Node000008" class="node">
<title>Node8</title>
<g id="a_Node000008"><a xlink:href="$classcam_1_1nc_1_1format_1_1Address.html#aa21f0ffeb829537d9103759276c01a4b" xlink:title=" ">
<polygon fill="white" stroke="#666666" points="415.5,-166.5 257.5,-166.5 257.5,-147.5 415.5,-147.5 415.5,-166.5"/>
<text text-anchor="middle" x="336.5" y="-154.5" font-family="Helvetica,sans-Serif" font-size="10.00">cam.nc.format.Address.write</text>
</a>
</g>
</g>
<!-- Node1&#45;&gt;Node8 -->
<g id="edge64_Node000001_Node000008" class="edge">
<title>Node1&#45;&gt;Node8</title>
<g id="a_edge64_Node000001_Node000008"><a xlink:title=" ">
<path fill="none" stroke="#63b8ff" d="M111.37,-266.2C132.45,-245.88 184.25,-199.13 237,-176 242.81,-173.45 248.96,-171.25 255.24,-169.33"/>
<polygon fill="#63b8ff" stroke="#63b8ff" points="256.48,-172.62 265.17,-166.57 254.6,-165.88 256.48,-172.62"/>
</a>
</g>
</g>
<!-- Node19 -->
<g id="Node000019" class="node">
<title>Node19</title>
<g id="a_Node000019"><a xlink:href="$classcam_1_1nc_1_1format_1_1AddressPlusMinus.html#aaacea4c7b677f0a602dbc9023ff365d2" xlink:title=" ">
<polygon fill="white" stroke="#666666" points="411.5,-129 261.5,-129 261.5,-99 411.5,-99 411.5,-129"/>
<text text-anchor="start" x="269.5" y="-117" font-family="Helvetica,sans-Serif" font-size="10.00">cam.nc.format.AddressPlus</text>
<text text-anchor="middle" x="336.5" y="-106" font-family="Helvetica,sans-Serif" font-size="10.00">Minus.write</text>
</a>
</g>
</g>
<!-- Node1&#45;&gt;Node19 -->
<g id="edge77_Node000001_Node000019" class="edge">
<title>Node1&#45;&gt;Node19</title>
<g id="a_edge77_Node000001_Node000019"><a xlink:title=" ">
<path fill="none" stroke="#63b8ff" d="M108.11,-266.17C125.77,-240.71 176.86,-172.17 237,-138 241.73,-135.31 246.76,-132.92 251.95,-130.79"/>
<polygon fill="#63b8ff" stroke="#63b8ff" points="253.27,-134.04 261.41,-127.25 250.82,-127.48 253.27,-134.04"/>
</a>
</g>
</g>
<!-- Node2&#45;&gt;Node2 -->
<g id="edge54_Node000002_Node000002" class="edge">
<title>Node2&#45;&gt;Node2</title>
<g id="a_edge54_Node000002_Node000002"><a xlink:title=" ">
<path fill="none" stroke="#63b8ff" d="M303.21,-460.58C287.01,-469.23 298.11,-478.5 336.5,-478.5 364.09,-478.5 377.59,-473.71 376.98,-467.81"/>
<polygon fill="#63b8ff" stroke="#63b8ff" points="379.33,-465.2 369.79,-460.58 374.36,-470.14 379.33,-465.2"/>
</a>
</g>
</g>
<!-- Node3&#45;&gt;Node3 -->
<g id="edge56_Node000003_Node000003" class="edge">
<title>Node3&#45;&gt;Node3</title>
<g id="a_edge56_Node000003_Node000003"><a xlink:title=" ">
<path fill="none" stroke="#63b8ff" d="M303.21,-405.58C287.01,-414.23 298.11,-423.5 336.5,-423.5 364.09,-423.5 377.59,-418.71 376.98,-412.81"/>
<polygon fill="#63b8ff" stroke="#63b8ff" points="379.33,-410.2 369.79,-405.58 374.36,-415.14 379.33,-410.2"/>
</a>
</g>
</g>
<!-- Node5&#45;&gt;Node5 -->
<g id="edge59_Node000005_Node000005" class="edge">
<title>Node5&#45;&gt;Node5</title>
<g id="a_edge59_Node000005_Node000005"><a xlink:title=" ">
<path fill="none" stroke="#63b8ff" d="M303.21,-313.58C287.01,-322.23 298.11,-331.5 336.5,-331.5 364.09,-331.5 377.59,-326.71 376.98,-320.81"/>
<polygon fill="#63b8ff" stroke="#63b8ff" points="379.33,-318.2 369.79,-313.58 374.36,-323.14 379.33,-318.2"/>
</a>
</g>
</g>
<!-- Node6&#45;&gt;Node6 -->
<g id="edge61_Node000006_Node000006" class="edge">
<title>Node6&#45;&gt;Node6</title>
<g id="a_edge61_Node000006_Node000006"><a xlink:title=" ">
<path fill="none" stroke="#63b8ff" d="M303.21,-258.58C287.01,-267.23 298.11,-276.5 336.5,-276.5 364.09,-276.5 377.59,-271.71 376.98,-265.81"/>
<polygon fill="#63b8ff" stroke="#63b8ff" points="379.33,-263.2 369.79,-258.58 374.36,-268.14 379.33,-263.2"/>
</a>
</g>
</g>
<!-- Node7&#45;&gt;Node7 -->
<g id="edge63_Node000007_Node000007" class="edge">
<title>Node7&#45;&gt;Node7</title>
<g id="a_edge63_Node000007_Node000007"><a xlink:title=" ">
<path fill="none" stroke="#63b8ff" d="M303.21,-203.58C287.01,-212.23 298.11,-221.5 336.5,-221.5 364.09,-221.5 377.59,-216.71 376.98,-210.81"/>
<polygon fill="#63b8ff" stroke="#63b8ff" points="379.33,-208.2 369.79,-203.58 374.36,-213.14 379.33,-208.2"/>
</a>
</g>
</g>
<!-- Node9 -->
<g id="Node000009" class="node">
<title>Node9</title>
<g id="a_Node000009"><a xlink:href="$classcam_1_1async__op_1_1AsyncOperatorMixin.html#a9628cbca8e69ec75b2337171a02bf428" xlink:title=" ">
<polygon fill="white" stroke="#666666" points="633,-150 472,-150 472,-120 633,-120 633,-150"/>
<text text-anchor="start" x="480" y="-138" font-family="Helvetica,sans-Serif" font-size="10.00">cam.async_op.AsyncOperator</text>
<text text-anchor="middle" x="552.5" y="-127" font-family="Helvetica,sans-Serif" font-size="10.00">Mixin.modal</text>
</a>
</g>
</g>
<!-- Node8&#45;&gt;Node9 -->
<g id="edge65_Node000008_Node000009" class="edge">
<title>Node8&#45;&gt;Node9</title>
<g id="a_edge65_Node000008_Node000009"><a xlink:title=" ">
<path fill="none" stroke="#63b8ff" d="M415.67,-148.96C430.65,-147.42 446.45,-145.8 461.77,-144.22"/>
<polygon fill="#63b8ff" stroke="#63b8ff" points="462.16,-147.7 471.75,-143.2 461.45,-140.74 462.16,-147.7"/>
</a>
</g>
</g>
<!-- Node10 -->
<g id="Node000010" class="node">
<title>Node10</title>
<g id="a_Node000010"><a xlink:href="$classcam_1_1async__op_1_1AsyncOperatorMixin.html#a15a51cfd69d8e453e2e3d64386b1ebe3" xlink:title=" ">
<polygon fill="white" stroke="#666666" points="830,-150 669,-150 669,-120 830,-120 830,-150"/>
<text text-anchor="start" x="677" y="-138" font-family="Helvetica,sans-Serif" font-size="10.00">cam.async_op.AsyncOperator</text>
<text text-anchor="middle" x="749.5" y="-127" font-family="Helvetica,sans-Serif" font-size="10.00">Mixin.tick</text>
</a>
</g>
</g>
<!-- Node9&#45;&gt;Node10 -->
<g id="edge66_Node000009_Node000010" class="edge">
<title>Node9&#45;&gt;Node10</title>
<g id="a_edge66_Node000009_Node000010"><a xlink:title=" ">
<path fill="none" stroke="#63b8ff" d="M633.1,-135C641.57,-135 650.24,-135 658.82,-135"/>
<polygon fill="#63b8ff" stroke="#63b8ff" points="658.84,-138.5 668.84,-135 658.84,-131.5 658.84,-138.5"/>
</a>
</g>
</g>
<!-- Node11 -->
<g id="Node000011" class="node">
<title>Node11</title>
<g id="a_Node000011"><a xlink:href="$classcam_1_1async__op_1_1AsyncTestOperator.html#a42606ca890a957aa7070a4bc6f25228b" xlink:title=" ">
<polygon fill="white" stroke="#666666" points="1087,-270 866,-270 866,-240 1087,-240 1087,-270"/>
<text text-anchor="start" x="874" y="-258" font-family="Helvetica,sans-Serif" font-size="10.00">cam.async_op.AsyncTestOperator.execute</text>
<text text-anchor="middle" x="976.5" y="-247" font-family="Helvetica,sans-Serif" font-size="10.00">_async</text>
</a>
</g>
</g>
<!-- Node10&#45;&gt;Node11 -->
<g id="edge67_Node000010_Node000011" class="edge">
<title>Node10&#45;&gt;Node11</title>
<g id="a_edge67_Node000010_Node000011"><a xlink:title=" ">
<path fill="none" stroke="#63b8ff" d="M764.18,-150.27C784.31,-171.74 824.07,-210.51 866,-231 870.09,-233 874.35,-234.84 878.72,-236.52"/>
<polygon fill="#63b8ff" stroke="#63b8ff" points="877.81,-239.91 888.41,-239.97 880.16,-233.32 877.81,-239.91"/>
</a>
</g>
</g>
<!-- Node12 -->
<g id="Node000012" class="node">
<title>Node12</title>
<g id="a_Node000012"><a xlink:href="$classcam_1_1ops_1_1CalculatePath.html#a13dfe2f8578383234e74e58e2f292e1b" xlink:title=" ">
<polygon fill="white" stroke="#666666" points="1061,-222 892,-222 892,-192 1061,-192 1061,-222"/>
<text text-anchor="start" x="900" y="-210" font-family="Helvetica,sans-Serif" font-size="10.00">cam.ops.CalculatePath.execute</text>
<text text-anchor="middle" x="976.5" y="-199" font-family="Helvetica,sans-Serif" font-size="10.00">_async</text>
</a>
</g>
</g>
<!-- Node10&#45;&gt;Node12 -->
<g id="edge68_Node000010_Node000012" class="edge">
<title>Node10&#45;&gt;Node12</title>
<g id="a_edge68_Node000010_Node000012"><a xlink:title=" ">
<path fill="none" stroke="#63b8ff" d="M782.29,-150.01C805.18,-160.38 837,-173.88 866,-183 873.31,-185.3 880.96,-187.46 888.68,-189.47"/>
<polygon fill="#63b8ff" stroke="#63b8ff" points="887.91,-192.89 898.46,-191.93 889.62,-186.1 887.91,-192.89"/>
</a>
</g>
</g>
<!-- Node14 -->
<g id="Node000014" class="node">
<title>Node14</title>
<g id="a_Node000014"><a xlink:href="$classcam_1_1ops_1_1PathsChain.html#a6fc64e383ccf724b2325e18a82d53eae" xlink:title=" ">
<polygon fill="white" stroke="#666666" points="1054.5,-174 898.5,-174 898.5,-144 1054.5,-144 1054.5,-174"/>
<text text-anchor="start" x="906.5" y="-162" font-family="Helvetica,sans-Serif" font-size="10.00">cam.ops.PathsChain.execute</text>
<text text-anchor="middle" x="976.5" y="-151" font-family="Helvetica,sans-Serif" font-size="10.00">_async</text>
</a>
</g>
</g>
<!-- Node10&#45;&gt;Node14 -->
<g id="edge70_Node000010_Node000014" class="edge">
<title>Node10&#45;&gt;Node14</title>
<g id="a_edge70_Node000010_Node000014"><a xlink:title=" ">
<path fill="none" stroke="#63b8ff" d="M830.14,-143.5C848.9,-145.5 868.98,-147.64 888.06,-149.67"/>
<polygon fill="#63b8ff" stroke="#63b8ff" points="887.92,-153.18 898.23,-150.76 888.66,-146.22 887.92,-153.18"/>
</a>
</g>
</g>
<!-- Node16 -->
<g id="Node000016" class="node">
<title>Node16</title>
<g id="a_Node000016"><a xlink:href="$classcam_1_1ops_1_1CAMSimulate.html#a633151f17849d281fd52ce82c00356a7" xlink:title=" ">
<polygon fill="white" stroke="#666666" points="1060.5,-126 892.5,-126 892.5,-96 1060.5,-96 1060.5,-126"/>
<text text-anchor="start" x="900.5" y="-114" font-family="Helvetica,sans-Serif" font-size="10.00">cam.ops.CAMSimulate.execute</text>
<text text-anchor="middle" x="976.5" y="-103" font-family="Helvetica,sans-Serif" font-size="10.00">_async</text>
</a>
</g>
</g>
<!-- Node10&#45;&gt;Node16 -->
<g id="edge73_Node000010_Node000016" class="edge">
<title>Node10&#45;&gt;Node16</title>
<g id="a_edge73_Node000010_Node000016"><a xlink:title=" ">
<path fill="none" stroke="#63b8ff" d="M830.14,-126.5C846.95,-124.71 864.82,-122.81 882.08,-120.97"/>
<polygon fill="#63b8ff" stroke="#63b8ff" points="882.58,-124.43 892.15,-119.89 881.84,-117.47 882.58,-124.43"/>
</a>
</g>
</g>
<!-- Node17 -->
<g id="Node000017" class="node">
<title>Node17</title>
<g id="a_Node000017"><a xlink:href="$classcam_1_1ops_1_1CAMSimulateChain.html#a1e77c7ce21b3b7e3e38a12b6b62517e9" xlink:title=" ">
<polygon fill="white" stroke="#666666" points="1074.5,-78 878.5,-78 878.5,-48 1074.5,-48 1074.5,-78"/>
<text text-anchor="start" x="886.5" y="-66" font-family="Helvetica,sans-Serif" font-size="10.00">cam.ops.CAMSimulateChain.execute</text>
<text text-anchor="middle" x="976.5" y="-55" font-family="Helvetica,sans-Serif" font-size="10.00">_async</text>
</a>
</g>
</g>
<!-- Node10&#45;&gt;Node17 -->
<g id="edge74_Node000010_Node000017" class="edge">
<title>Node10&#45;&gt;Node17</title>
<g id="a_edge74_Node000010_Node000017"><a xlink:title=" ">
<path fill="none" stroke="#63b8ff" d="M782.29,-119.99C805.18,-109.62 837,-96.12 866,-87 873.31,-84.7 880.96,-82.54 888.68,-80.53"/>
<polygon fill="#63b8ff" stroke="#63b8ff" points="889.62,-83.9 898.46,-78.07 887.91,-77.11 889.62,-83.9"/>
</a>
</g>
</g>
<!-- Node18 -->
<g id="Node000018" class="node">
<title>Node18</title>
<g id="a_Node000018"><a xlink:href="$classcam_1_1async__op_1_1AsyncOperatorMixin.html#a2216ff6bb0dfd132f4ec4cf79b7cba2b" xlink:title=" ">
<polygon fill="white" stroke="#666666" points="1057,-30 896,-30 896,0 1057,0 1057,-30"/>
<text text-anchor="start" x="904" y="-18" font-family="Helvetica,sans-Serif" font-size="10.00">cam.async_op.AsyncOperator</text>
<text text-anchor="middle" x="976.5" y="-7" font-family="Helvetica,sans-Serif" font-size="10.00">Mixin.show_progress</text>
</a>
</g>
</g>
<!-- Node10&#45;&gt;Node18 -->
<g id="edge76_Node000010_Node000018" class="edge">
<title>Node10&#45;&gt;Node18</title>
<g id="a_edge76_Node000010_Node000018"><a xlink:title=" ">
<path fill="none" stroke="#63b8ff" d="M764.18,-119.73C784.31,-98.26 824.07,-59.49 866,-39 872.43,-35.86 879.27,-33.12 886.28,-30.74"/>
<polygon fill="#63b8ff" stroke="#63b8ff" points="887.42,-34.05 895.91,-27.71 885.32,-27.37 887.42,-34.05"/>
</a>
</g>
</g>
<!-- Node13 -->
<g id="Node000013" class="node">
<title>Node13</title>
<g id="a_Node000013"><a xlink:href="$namespacecam_1_1ops.html#aa8e95f7410a7ceb178db48f4f8c2d995" xlink:title=" ">
<polygon fill="white" stroke="#666666" points="1258.5,-192.5 1145.5,-192.5 1145.5,-173.5 1258.5,-173.5 1258.5,-192.5"/>
<text text-anchor="middle" x="1202" y="-180.5" font-family="Helvetica,sans-Serif" font-size="10.00">cam.ops._calc_path</text>
</a>
</g>
</g>
<!-- Node12&#45;&gt;Node13 -->
<g id="edge69_Node000012_Node000013" class="edge">
<title>Node12&#45;&gt;Node13</title>
<g id="a_edge69_Node000012_Node000013"><a xlink:title=" ">
<path fill="none" stroke="#63b8ff" d="M1061.04,-198.03C1085.56,-195.4 1112.01,-192.56 1135.25,-190.06"/>
<polygon fill="#63b8ff" stroke="#63b8ff" points="1135.77,-193.52 1145.34,-188.98 1135.03,-186.56 1135.77,-193.52"/>
</a>
</g>
</g>
<!-- Node14&#45;&gt;Node13 -->
<g id="edge71_Node000014_Node000013" class="edge">
<title>Node14&#45;&gt;Node13</title>
<g id="a_edge71_Node000014_Node000013"><a xlink:title=" ">
<path fill="none" stroke="#63b8ff" d="M1054.73,-167.29C1080.9,-170.1 1109.87,-173.21 1135.08,-175.92"/>
<polygon fill="#63b8ff" stroke="#63b8ff" points="1134.95,-179.43 1145.27,-177.02 1135.7,-172.47 1134.95,-179.43"/>
</a>
</g>
</g>
<!-- Node15 -->
<g id="Node000015" class="node">
<title>Node15</title>
<g id="a_Node000015"><a xlink:href="$namespacecam_1_1ops.html#ab55fb8ec9a00e021e8e4a1c3ecc97cb4" xlink:title=" ">
<polygon fill="white" stroke="#666666" points="1281,-126.5 1123,-126.5 1123,-107.5 1281,-107.5 1281,-126.5"/>
<text text-anchor="middle" x="1202" y="-114.5" font-family="Helvetica,sans-Serif" font-size="10.00">cam.ops.getChainOperations</text>
</a>
</g>
</g>
<!-- Node14&#45;&gt;Node15 -->
<g id="edge72_Node000014_Node000015" class="edge">
<title>Node14&#45;&gt;Node15</title>
<g id="a_edge72_Node000014_Node000015"><a xlink:title=" ">
<path fill="none" stroke="#63b8ff" d="M1054.73,-144.49C1082.81,-139.21 1114.12,-133.33 1140.54,-128.36"/>
<polygon fill="#63b8ff" stroke="#63b8ff" points="1141.23,-131.79 1150.41,-126.51 1139.94,-124.91 1141.23,-131.79"/>
</a>
</g>
</g>
<!-- Node17&#45;&gt;Node15 -->
<g id="edge75_Node000017_Node000015" class="edge">
<title>Node17&#45;&gt;Node15</title>
<g id="a_edge75_Node000017_Node000015"><a xlink:title=" ">
<path fill="none" stroke="#63b8ff" d="M1048.28,-78.06C1061.19,-80.94 1074.51,-83.99 1087,-87 1109.91,-92.52 1135.28,-99.15 1156.25,-104.77"/>
<polygon fill="#63b8ff" stroke="#63b8ff" points="1155.6,-108.21 1166.17,-107.43 1157.42,-101.45 1155.6,-108.21"/>
</a>
</g>
</g>
<!-- Node19&#45;&gt;Node9 -->
<g id="edge78_Node000019_Node000009" class="edge">
<title>Node19&#45;&gt;Node9</title>
<g id="a_edge78_Node000019_Node000009"><a xlink:title=" ">
<path fill="none" stroke="#63b8ff" d="M411.75,-121.29C427.84,-122.87 445.03,-124.55 461.65,-126.18"/>
<polygon fill="#63b8ff" stroke="#63b8ff" points="461.62,-129.7 471.92,-127.19 462.3,-122.73 461.62,-129.7"/>
</a>
</g>
</g>
</g>
</svg>
