<?xml version="1.0" encoding="UTF-8" standalone="no"?>
<!DOCTYPE svg PUBLIC "-//W3C//DTD SVG 1.1//EN"
 "http://www.w3.org/Graphics/SVG/1.1/DTD/svg11.dtd">
<!-- Generated by graphviz version 2.43.0 (0)
 -->
<!-- Title: cam.nc.makerbot_codes.Codes.BLOCK Pages: 1 -->
<svg width="606pt" height="408pt"
 viewBox="0.00 0.00 606.00 408.00" xmlns="http://www.w3.org/2000/svg" xmlns:xlink="http://www.w3.org/1999/xlink">
<g id="graph0" class="graph" transform="scale(1 1) rotate(0) translate(4 404)">
<title>cam.nc.makerbot_codes.Codes.BLOCK</title>
<!-- Node1 -->
<g id="Node000001" class="node">
<title>Node1</title>
<g id="a_Node000001"><a xlink:title=" ">
<polygon fill="#999999" stroke="#666666" points="171,-217.5 0,-217.5 0,-187.5 171,-187.5 171,-217.5"/>
<text text-anchor="start" x="8" y="-205.5" font-family="Helvetica,sans-Serif" font-size="10.00">cam.nc.makerbot_codes.Codes.</text>
<text text-anchor="middle" x="85.5" y="-194.5" font-family="Helvetica,sans-Serif" font-size="10.00">BLOCK</text>
</a>
</g>
</g>
<!-- Node2 -->
<g id="Node000002" class="node">
<title>Node2</title>
<g id="a_Node000002"><a xlink:href="$classcam_1_1nc_1_1emc2_1_1Creator.html#a47a9e4f5f35681f580765bba2f0f97a5" xlink:title=" ">
<polygon fill="white" stroke="#666666" points="369.5,-400 215.5,-400 215.5,-381 369.5,-381 369.5,-400"/>
<text text-anchor="middle" x="292.5" y="-388" font-family="Helvetica,sans-Serif" font-size="10.00">cam.nc.emc2.Creator.SPACE</text>
</a>
</g>
</g>
<!-- Node1&#45;&gt;Node2 -->
<g id="edge35_Node000001_Node000002" class="edge">
<title>Node1&#45;&gt;Node2</title>
<g id="a_edge35_Node000001_Node000002"><a xlink:title=" ">
<path fill="none" stroke="#63b8ff" d="M92.6,-217.64C107.01,-251.34 146.56,-332.73 207,-372.5 209.33,-374.03 211.76,-375.44 214.28,-376.72"/>
<polygon fill="#63b8ff" stroke="#63b8ff" points="213.12,-380.04 223.68,-380.89 215.95,-373.64 213.12,-380.04"/>
</a>
</g>
</g>
<!-- Node3 -->
<g id="Node000003" class="node">
<title>Node3</title>
<g id="a_Node000003"><a xlink:href="$classcam_1_1nc_1_1emc2b_1_1Creator.html#abff5586e78bb91681bd41dafdea5a9e7" xlink:title=" ">
<polygon fill="white" stroke="#666666" points="372.5,-363 212.5,-363 212.5,-344 372.5,-344 372.5,-363"/>
<text text-anchor="middle" x="292.5" y="-351" font-family="Helvetica,sans-Serif" font-size="10.00">cam.nc.emc2b.Creator.SPACE</text>
</a>
</g>
</g>
<!-- Node1&#45;&gt;Node3 -->
<g id="edge36_Node000001_Node000003" class="edge">
<title>Node1&#45;&gt;Node3</title>
<g id="a_edge36_Node000001_Node000003"><a xlink:title=" ">
<path fill="none" stroke="#63b8ff" d="M95.67,-217.52C113.46,-245.29 155.48,-304.59 207,-334.5 210.73,-336.67 214.69,-338.58 218.77,-340.29"/>
<polygon fill="#63b8ff" stroke="#63b8ff" points="217.89,-343.69 228.48,-343.87 220.31,-337.12 217.89,-343.69"/>
</a>
</g>
</g>
<!-- Node4 -->
<g id="Node000004" class="node">
<title>Node4</title>
<g id="a_Node000004"><a xlink:href="$classcam_1_1nc_1_1emc2tap_1_1CodesEMC2.html#a6a0d71a1c6e9f8a80228dc220a0e57ca" xlink:title=" ">
<polygon fill="white" stroke="#666666" points="373,-325.5 212,-325.5 212,-295.5 373,-295.5 373,-325.5"/>
<text text-anchor="start" x="220" y="-313.5" font-family="Helvetica,sans-Serif" font-size="10.00">cam.nc.emc2tap.CodesEMC2.</text>
<text text-anchor="middle" x="292.5" y="-302.5" font-family="Helvetica,sans-Serif" font-size="10.00">SPACE</text>
</a>
</g>
</g>
<!-- Node1&#45;&gt;Node4 -->
<g id="edge37_Node000001_Node000004" class="edge">
<title>Node1&#45;&gt;Node4</title>
<g id="a_edge37_Node000001_Node000004"><a xlink:title=" ">
<path fill="none" stroke="#63b8ff" d="M104.11,-217.63C126.6,-236.25 167.37,-267.71 207,-286.5 211.06,-288.43 215.31,-290.23 219.65,-291.91"/>
<polygon fill="#63b8ff" stroke="#63b8ff" points="218.65,-295.27 229.24,-295.39 221.04,-288.69 218.65,-295.27"/>
</a>
</g>
</g>
<!-- Node5 -->
<g id="Node000005" class="node">
<title>Node5</title>
<g id="a_Node000005"><a xlink:href="$classcam_1_1nc_1_1heiden_1_1Creator.html#a2c4277ffddaea0f92c906c6744f7a3bd" xlink:title="Codes.">
<polygon fill="white" stroke="#666666" points="372.5,-277 212.5,-277 212.5,-258 372.5,-258 372.5,-277"/>
<text text-anchor="middle" x="292.5" y="-265" font-family="Helvetica,sans-Serif" font-size="10.00">cam.nc.heiden.Creator.SPACE</text>
</a>
</g>
</g>
<!-- Node1&#45;&gt;Node5 -->
<g id="edge38_Node000001_Node000005" class="edge">
<title>Node1&#45;&gt;Node5</title>
<g id="a_edge38_Node000001_Node000005"><a xlink:title=" ">
<path fill="none" stroke="#63b8ff" d="M121.89,-217.55C145.66,-227.27 177.84,-239.71 207,-248.5 215.47,-251.06 224.51,-253.44 233.42,-255.6"/>
<polygon fill="#63b8ff" stroke="#63b8ff" points="232.84,-259.06 243.37,-257.93 234.44,-252.24 232.84,-259.06"/>
</a>
</g>
</g>
<!-- Node6 -->
<g id="Node000006" class="node">
<title>Node6</title>
<g id="a_Node000006"><a xlink:href="$classcam_1_1nc_1_1heiden530_1_1Creator.html#aa64b19b0edc2ac1f2d568b09ca2aebcb" xlink:title="Codes.">
<polygon fill="white" stroke="#666666" points="366,-239.5 219,-239.5 219,-209.5 366,-209.5 366,-239.5"/>
<text text-anchor="start" x="227" y="-227.5" font-family="Helvetica,sans-Serif" font-size="10.00">cam.nc.heiden530.Creator.</text>
<text text-anchor="middle" x="292.5" y="-216.5" font-family="Helvetica,sans-Serif" font-size="10.00">SPACE</text>
</a>
</g>
</g>
<!-- Node1&#45;&gt;Node6 -->
<g id="edge39_Node000001_Node000006" class="edge">
<title>Node1&#45;&gt;Node6</title>
<g id="a_edge39_Node000001_Node000006"><a xlink:title=" ">
<path fill="none" stroke="#63b8ff" d="M171.06,-211.58C183.47,-212.91 196.24,-214.28 208.62,-215.61"/>
<polygon fill="#63b8ff" stroke="#63b8ff" points="208.58,-219.12 218.9,-216.71 209.33,-212.16 208.58,-219.12"/>
</a>
</g>
</g>
<!-- Node7 -->
<g id="Node000007" class="node">
<title>Node7</title>
<g id="a_Node000007"><a xlink:href="$classcam_1_1nc_1_1iso_1_1Creator.html#a79463d437baaaf23c828a2c9e62393f3" xlink:title=" ">
<polygon fill="white" stroke="#666666" points="363,-191 222,-191 222,-172 363,-172 363,-191"/>
<text text-anchor="middle" x="292.5" y="-179" font-family="Helvetica,sans-Serif" font-size="10.00">cam.nc.iso.Creator.SPACE</text>
</a>
</g>
</g>
<!-- Node1&#45;&gt;Node7 -->
<g id="edge40_Node000001_Node000007" class="edge">
<title>Node1&#45;&gt;Node7</title>
<g id="a_edge40_Node000001_Node000007"><a xlink:title=" ">
<path fill="none" stroke="#63b8ff" d="M171.06,-193.84C184.51,-192.46 198.38,-191.04 211.72,-189.67"/>
<polygon fill="#63b8ff" stroke="#63b8ff" points="212.2,-193.14 221.79,-188.64 211.49,-186.18 212.2,-193.14"/>
</a>
</g>
</g>
<!-- Node15 -->
<g id="Node000015" class="node">
<title>Node15</title>
<g id="a_Node000015"><a xlink:href="$classcam_1_1nc_1_1makerbot__codes_1_1Codes.html#a497077e0e500cc8f419b8f3f61f008b4" xlink:title=" ">
<polygon fill="white" stroke="#666666" points="378,-153.5 207,-153.5 207,-123.5 378,-123.5 378,-153.5"/>
<text text-anchor="start" x="215" y="-141.5" font-family="Helvetica,sans-Serif" font-size="10.00">cam.nc.makerbot_codes.Codes.</text>
<text text-anchor="middle" x="292.5" y="-130.5" font-family="Helvetica,sans-Serif" font-size="10.00">SPACE</text>
</a>
</g>
</g>
<!-- Node1&#45;&gt;Node15 -->
<g id="edge48_Node000001_Node000015" class="edge">
<title>Node1&#45;&gt;Node15</title>
<g id="a_edge48_Node000001_Node000015"><a xlink:title=" ">
<path fill="none" stroke="#63b8ff" d="M132.19,-187.41C154.68,-180.06 182.21,-171.18 207,-163.5 214.4,-161.21 222.18,-158.85 229.89,-156.53"/>
<polygon fill="#63b8ff" stroke="#63b8ff" points="231.02,-159.85 239.6,-153.63 229.02,-153.14 231.02,-159.85"/>
</a>
</g>
</g>
<!-- Node16 -->
<g id="Node000016" class="node">
<title>Node16</title>
<g id="a_Node000016"><a xlink:href="$classcam_1_1nc_1_1series1_1_1Creator.html#a75918d23eef609baab85058fda3050d5" xlink:title=" ">
<polygon fill="white" stroke="#666666" points="373.5,-105 211.5,-105 211.5,-86 373.5,-86 373.5,-105"/>
<text text-anchor="middle" x="292.5" y="-93" font-family="Helvetica,sans-Serif" font-size="10.00">cam.nc.series1.Creator.SPACE</text>
</a>
</g>
</g>
<!-- Node1&#45;&gt;Node16 -->
<g id="edge49_Node000001_Node000016" class="edge">
<title>Node1&#45;&gt;Node16</title>
<g id="a_edge49_Node000001_Node000016"><a xlink:title=" ">
<path fill="none" stroke="#63b8ff" d="M102.66,-187.27C124.57,-167.48 165.72,-133.23 207,-114.5 212.44,-112.03 218.22,-109.87 224.12,-107.99"/>
<polygon fill="#63b8ff" stroke="#63b8ff" points="225.48,-111.23 234.09,-105.06 223.51,-104.52 225.48,-111.23"/>
</a>
</g>
</g>
<!-- Node17 -->
<g id="Node000017" class="node">
<title>Node17</title>
<g id="a_Node000017"><a xlink:href="$classcam_1_1nc_1_1shopbot__mtc_1_1Creator.html#a1512dbb5d0140eb216ed709a542261ac" xlink:title="Codes.">
<polygon fill="white" stroke="#666666" points="372,-67.5 213,-67.5 213,-37.5 372,-37.5 372,-67.5"/>
<text text-anchor="start" x="221" y="-55.5" font-family="Helvetica,sans-Serif" font-size="10.00">cam.nc.shopbot_mtc.Creator.</text>
<text text-anchor="middle" x="292.5" y="-44.5" font-family="Helvetica,sans-Serif" font-size="10.00">SPACE</text>
</a>
</g>
</g>
<!-- Node1&#45;&gt;Node17 -->
<g id="edge50_Node000001_Node000017" class="edge">
<title>Node1&#45;&gt;Node17</title>
<g id="a_edge50_Node000001_Node000017"><a xlink:title=" ">
<path fill="none" stroke="#63b8ff" d="M96.87,-187.19C115.67,-160.63 158,-106.02 207,-76.5 209.81,-74.81 212.74,-73.23 215.76,-71.76"/>
<polygon fill="#63b8ff" stroke="#63b8ff" points="217.29,-74.91 225.02,-67.67 214.46,-68.51 217.29,-74.91"/>
</a>
</g>
</g>
<!-- Node18 -->
<g id="Node000018" class="node">
<title>Node18</title>
<g id="a_Node000018"><a xlink:href="$classcam_1_1nc_1_1tnc151_1_1Creator.html#af5d9e50b2ff0e73cd7524e2145d55d76" xlink:title=" ">
<polygon fill="white" stroke="#666666" points="372.5,-19 212.5,-19 212.5,0 372.5,0 372.5,-19"/>
<text text-anchor="middle" x="292.5" y="-7" font-family="Helvetica,sans-Serif" font-size="10.00">cam.nc.tnc151.Creator.SPACE</text>
</a>
</g>
</g>
<!-- Node1&#45;&gt;Node18 -->
<g id="edge51_Node000001_Node000018" class="edge">
<title>Node1&#45;&gt;Node18</title>
<g id="a_edge51_Node000001_Node000018"><a xlink:title=" ">
<path fill="none" stroke="#63b8ff" d="M92.42,-187.32C106.6,-153.09 145.91,-69.68 207,-28.5 209.96,-26.51 213.09,-24.72 216.35,-23.12"/>
<polygon fill="#63b8ff" stroke="#63b8ff" points="217.97,-26.23 225.78,-19.08 215.21,-19.8 217.97,-26.23"/>
</a>
</g>
</g>
<!-- Node8 -->
<g id="Node000008" class="node">
<title>Node8</title>
<g id="a_Node000008"><a xlink:href="$classcam_1_1nc_1_1anilam__crusader__m_1_1Creator.html#a36f873a0248bcaa4cf2cfb220dc1b00c" xlink:title="Codes.">
<polygon fill="white" stroke="#666666" points="574,-313.5 438,-313.5 438,-283.5 574,-283.5 574,-313.5"/>
<text text-anchor="start" x="446" y="-301.5" font-family="Helvetica,sans-Serif" font-size="10.00">cam.nc.anilam_crusader</text>
<text text-anchor="middle" x="506" y="-290.5" font-family="Helvetica,sans-Serif" font-size="10.00">_m.Creator.SPACE_STR</text>
</a>
</g>
</g>
<!-- Node7&#45;&gt;Node8 -->
<g id="edge41_Node000007_Node000008" class="edge">
<title>Node7&#45;&gt;Node8</title>
<g id="a_edge41_Node000007_Node000008"><a xlink:title=" ">
<path fill="none" stroke="#63b8ff" d="M361.96,-191.1C367.71,-193.59 373.17,-196.67 378,-200.5 406.68,-223.2 385.74,-251.28 414,-274.5 418.34,-278.07 423.15,-281.11 428.24,-283.7"/>
<polygon fill="#63b8ff" stroke="#63b8ff" points="427.08,-287.02 437.64,-287.9 429.93,-280.62 427.08,-287.02"/>
</a>
</g>
</g>
<!-- Node9 -->
<g id="Node000009" class="node">
<title>Node9</title>
<g id="a_Node000009"><a xlink:href="$classcam_1_1nc_1_1fadal_1_1Creator.html#a97a50724edf2662eb4fe76b15516b638" xlink:title="Codes.">
<polygon fill="white" stroke="#666666" points="594,-265 418,-265 418,-246 594,-246 594,-265"/>
<text text-anchor="middle" x="506" y="-253" font-family="Helvetica,sans-Serif" font-size="10.00">cam.nc.fadal.Creator.SPACE_STR</text>
</a>
</g>
</g>
<!-- Node7&#45;&gt;Node9 -->
<g id="edge42_Node000007_Node000009" class="edge">
<title>Node7&#45;&gt;Node9</title>
<g id="a_edge42_Node000007_Node000009"><a xlink:title=" ">
<path fill="none" stroke="#63b8ff" d="M355.51,-191.05C363.35,-193.51 371.05,-196.61 378,-200.5 398.02,-211.7 393.83,-226.56 414,-237.5 417.31,-239.3 420.77,-240.91 424.33,-242.37"/>
<polygon fill="#63b8ff" stroke="#63b8ff" points="423.36,-245.74 433.95,-245.87 425.75,-239.16 423.36,-245.74"/>
</a>
</g>
</g>
<!-- Node10 -->
<g id="Node000010" class="node">
<title>Node10</title>
<g id="a_Node000010"><a xlink:href="$classcam_1_1nc_1_1gravos_1_1Creator.html#ac0bc0d26e8a92a65c0f33d696ad850f5" xlink:title="Codes.">
<polygon fill="white" stroke="#666666" points="598,-228 414,-228 414,-209 598,-209 598,-228"/>
<text text-anchor="middle" x="506" y="-216" font-family="Helvetica,sans-Serif" font-size="10.00">cam.nc.gravos.Creator.SPACE_STR</text>
</a>
</g>
</g>
<!-- Node7&#45;&gt;Node10 -->
<g id="edge43_Node000007_Node000010" class="edge">
<title>Node7&#45;&gt;Node10</title>
<g id="a_edge43_Node000007_Node000010"><a xlink:title=" ">
<path fill="none" stroke="#63b8ff" d="M347.97,-191.03C376.1,-195.95 410.63,-201.99 440.14,-207.15"/>
<polygon fill="#63b8ff" stroke="#63b8ff" points="439.9,-210.66 450.35,-208.94 441.1,-203.77 439.9,-210.66"/>
</a>
</g>
</g>
<!-- Node11 -->
<g id="Node000011" class="node">
<title>Node11</title>
<g id="a_Node000011"><a xlink:href="$classcam_1_1nc_1_1iso_1_1Creator.html#aa481cf1e394988751640fd5ce5af991e" xlink:title="Codes.">
<polygon fill="white" stroke="#666666" points="588.5,-191 423.5,-191 423.5,-172 588.5,-172 588.5,-191"/>
<text text-anchor="middle" x="506" y="-179" font-family="Helvetica,sans-Serif" font-size="10.00">cam.nc.iso.Creator.SPACE_STR</text>
</a>
</g>
</g>
<!-- Node7&#45;&gt;Node11 -->
<g id="edge44_Node000007_Node000011" class="edge">
<title>Node7&#45;&gt;Node11</title>
<g id="a_edge44_Node000007_Node000011"><a xlink:title=" ">
<path fill="none" stroke="#63b8ff" d="M363.05,-181.5C379,-181.5 396.2,-181.5 412.94,-181.5"/>
<polygon fill="#63b8ff" stroke="#63b8ff" points="413.29,-185 423.29,-181.5 413.29,-178 413.29,-185"/>
</a>
</g>
</g>
<!-- Node12 -->
<g id="Node000012" class="node">
<title>Node12</title>
<g id="a_Node000012"><a xlink:href="$classcam_1_1nc_1_1lynx__otter__o_1_1Creator.html#a73b176561e066abcdb256a1bf53a5fcc" xlink:title="Codes.">
<polygon fill="white" stroke="#666666" points="584.5,-153.5 427.5,-153.5 427.5,-123.5 584.5,-123.5 584.5,-153.5"/>
<text text-anchor="start" x="435.5" y="-141.5" font-family="Helvetica,sans-Serif" font-size="10.00">cam.nc.lynx_otter_o.Creator.</text>
<text text-anchor="middle" x="506" y="-130.5" font-family="Helvetica,sans-Serif" font-size="10.00">SPACE_STR</text>
</a>
</g>
</g>
<!-- Node7&#45;&gt;Node12 -->
<g id="edge45_Node000007_Node000012" class="edge">
<title>Node7&#45;&gt;Node12</title>
<g id="a_edge45_Node000007_Node000012"><a xlink:title=" ">
<path fill="none" stroke="#63b8ff" d="M340.44,-171.96C364.18,-167.13 393.71,-161.13 421.18,-155.54"/>
<polygon fill="#63b8ff" stroke="#63b8ff" points="422.09,-158.93 431.19,-153.51 420.69,-152.07 422.09,-158.93"/>
</a>
</g>
</g>
<!-- Node13 -->
<g id="Node000013" class="node">
<title>Node13</title>
<g id="a_Node000013"><a xlink:href="$classcam_1_1nc_1_1mach3_1_1Creator.html#aa461d578afa76c5af9bb5562b79d955a" xlink:title="Codes.">
<polygon fill="white" stroke="#666666" points="598,-105 414,-105 414,-86 598,-86 598,-105"/>
<text text-anchor="middle" x="506" y="-93" font-family="Helvetica,sans-Serif" font-size="10.00">cam.nc.mach3.Creator.SPACE_STR</text>
</a>
</g>
</g>
<!-- Node7&#45;&gt;Node13 -->
<g id="edge46_Node000007_Node000013" class="edge">
<title>Node7&#45;&gt;Node13</title>
<g id="a_edge46_Node000007_Node000013"><a xlink:title=" ">
<path fill="none" stroke="#63b8ff" d="M358.64,-171.86C365.46,-169.41 372.07,-166.34 378,-162.5 400.39,-148.01 391.5,-128.81 414,-114.5 417.35,-112.37 420.9,-110.47 424.57,-108.78"/>
<polygon fill="#63b8ff" stroke="#63b8ff" points="425.97,-111.99 433.94,-105 423.35,-105.5 425.97,-111.99"/>
</a>
</g>
</g>
<!-- Node14 -->
<g id="Node000014" class="node">
<title>Node14</title>
<g id="a_Node000014"><a xlink:href="$classcam_1_1nc_1_1winpc_1_1Creator.html#aae1cb93a5dd430719105fa03a054f654" xlink:title="Codes.">
<polygon fill="white" stroke="#666666" points="595.5,-68 416.5,-68 416.5,-49 595.5,-49 595.5,-68"/>
<text text-anchor="middle" x="506" y="-56" font-family="Helvetica,sans-Serif" font-size="10.00">cam.nc.winpc.Creator.SPACE_STR</text>
</a>
</g>
</g>
<!-- Node7&#45;&gt;Node14 -->
<g id="edge47_Node000007_Node000014" class="edge">
<title>Node7&#45;&gt;Node14</title>
<g id="a_edge47_Node000007_Node000014"><a xlink:title=" ">
<path fill="none" stroke="#63b8ff" d="M362.61,-172C368.16,-169.49 373.39,-166.36 378,-162.5 409.75,-135.88 381.91,-102.71 414,-76.5 415.54,-75.24 417.15,-74.06 418.81,-72.95"/>
<polygon fill="#63b8ff" stroke="#63b8ff" points="420.54,-76 427.52,-68.03 417.09,-69.91 420.54,-76"/>
</a>
</g>
</g>
</g>
</svg>
