<?xml version="1.0" encoding="UTF-8" standalone="no"?>
<!DOCTYPE svg PUBLIC "-//W3C//DTD SVG 1.1//EN"
 "http://www.w3.org/Graphics/SVG/1.1/DTD/svg11.dtd">
<!-- Generated by graphviz version 2.43.0 (0)
 -->
<!-- Title: cam.nc.iso.Creator.polar Pages: 1 -->
<svg width="793pt" height="482pt"
 viewBox="0.00 0.00 793.00 481.50" xmlns="http://www.w3.org/2000/svg" xmlns:xlink="http://www.w3.org/1999/xlink">
<g id="graph0" class="graph" transform="scale(1 1) rotate(0) translate(4 477.5)">
<title>cam.nc.iso.Creator.polar</title>
<!-- Node1 -->
<g id="Node000001" class="node">
<title>Node1</title>
<g id="a_Node000001"><a xlink:title=" ">
<polygon fill="#999999" stroke="#666666" points="135,-200 0,-200 0,-181 135,-181 135,-200"/>
<text text-anchor="middle" x="67.5" y="-188" font-family="Helvetica,sans-Serif" font-size="10.00">cam.nc.iso.Creator.polar</text>
</a>
</g>
</g>
<!-- Node2 -->
<g id="Node000002" class="node">
<title>Node2</title>
<g id="a_Node000002"><a xlink:href="$classcam_1_1nc_1_1heiden_1_1Creator.html#a5bd0dced4c9e9385a86e2ddb02fdcf17" xlink:title=" ">
<polygon fill="white" stroke="#666666" points="358,-304 171,-304 171,-285 358,-285 358,-304"/>
<text text-anchor="middle" x="264.5" y="-292" font-family="Helvetica,sans-Serif" font-size="10.00">cam.nc.heiden.Creator.POLAR_OFF</text>
</a>
</g>
</g>
<!-- Node1&#45;&gt;Node2 -->
<g id="edge67_Node000001_Node000002" class="edge">
<title>Node1&#45;&gt;Node2</title>
<g id="a_edge67_Node000001_Node000002"><a xlink:title=" ">
<path fill="none" stroke="#63b8ff" d="M76.72,-200.05C92.83,-218.12 130.54,-257.2 171,-276.5 175.3,-278.55 179.81,-280.37 184.44,-281.97"/>
<polygon fill="#63b8ff" stroke="#63b8ff" points="183.47,-285.34 194.06,-285 185.57,-278.66 183.47,-285.34"/>
</a>
</g>
</g>
<!-- Node3 -->
<g id="Node000003" class="node">
<title>Node3</title>
<g id="a_Node000003"><a xlink:href="$classcam_1_1nc_1_1iso_1_1Creator.html#a2c3f9740f5e29eee583ba1e9ab37a2cd" xlink:title=" ">
<polygon fill="white" stroke="#666666" points="348.5,-267 180.5,-267 180.5,-248 348.5,-248 348.5,-267"/>
<text text-anchor="middle" x="264.5" y="-255" font-family="Helvetica,sans-Serif" font-size="10.00">cam.nc.iso.Creator.POLAR_OFF</text>
</a>
</g>
</g>
<!-- Node1&#45;&gt;Node3 -->
<g id="edge68_Node000001_Node000003" class="edge">
<title>Node1&#45;&gt;Node3</title>
<g id="a_edge68_Node000001_Node000003"><a xlink:title=" ">
<path fill="none" stroke="#63b8ff" d="M85.76,-200.12C105.72,-210.89 139.85,-228.17 171,-238.5 179.05,-241.17 187.63,-243.54 196.19,-245.62"/>
<polygon fill="#63b8ff" stroke="#63b8ff" points="195.67,-249.09 206.2,-247.92 197.24,-242.27 195.67,-249.09"/>
</a>
</g>
</g>
<!-- Node4 -->
<g id="Node000004" class="node">
<title>Node4</title>
<g id="a_Node000004"><a xlink:href="$classcam_1_1nc_1_1makerbot__codes_1_1Codes.html#a2b86939a1ef78cc4a6bb0cfb955d7376" xlink:title=" ">
<polygon fill="white" stroke="#666666" points="350,-229.5 179,-229.5 179,-199.5 350,-199.5 350,-229.5"/>
<text text-anchor="start" x="187" y="-217.5" font-family="Helvetica,sans-Serif" font-size="10.00">cam.nc.makerbot_codes.Codes.</text>
<text text-anchor="middle" x="264.5" y="-206.5" font-family="Helvetica,sans-Serif" font-size="10.00">POLAR_OFF</text>
</a>
</g>
</g>
<!-- Node1&#45;&gt;Node4 -->
<g id="edge69_Node000001_Node000004" class="edge">
<title>Node1&#45;&gt;Node4</title>
<g id="a_edge69_Node000001_Node000004"><a xlink:title=" ">
<path fill="none" stroke="#63b8ff" d="M135.06,-198.69C145.99,-200.04 157.49,-201.45 168.93,-202.86"/>
<polygon fill="#63b8ff" stroke="#63b8ff" points="168.61,-206.35 178.96,-204.1 169.47,-199.4 168.61,-206.35"/>
</a>
</g>
</g>
<!-- Node22 -->
<g id="Node000022" class="node">
<title>Node22</title>
<g id="a_Node000022"><a xlink:href="$classcam_1_1nc_1_1heiden_1_1Creator.html#abebf2a6602b20d6619e556dcf8050072" xlink:title=" ">
<polygon fill="white" stroke="#666666" points="355.5,-133 173.5,-133 173.5,-114 355.5,-114 355.5,-133"/>
<text text-anchor="middle" x="264.5" y="-121" font-family="Helvetica,sans-Serif" font-size="10.00">cam.nc.heiden.Creator.POLAR_ON</text>
</a>
</g>
</g>
<!-- Node1&#45;&gt;Node22 -->
<g id="edge87_Node000001_Node000022" class="edge">
<title>Node1&#45;&gt;Node22</title>
<g id="a_edge87_Node000001_Node000022"><a xlink:title=" ">
<path fill="none" stroke="#63b8ff" d="M85.76,-180.88C105.72,-170.11 139.85,-152.83 171,-142.5 179.05,-139.83 187.63,-137.46 196.19,-135.38"/>
<polygon fill="#63b8ff" stroke="#63b8ff" points="197.24,-138.73 206.2,-133.08 195.67,-131.91 197.24,-138.73"/>
</a>
</g>
</g>
<!-- Node23 -->
<g id="Node000023" class="node">
<title>Node23</title>
<g id="a_Node000023"><a xlink:href="$classcam_1_1nc_1_1iso_1_1Creator.html#a1193f838840ce951f92d404655f2d7e6" xlink:title=" ">
<polygon fill="white" stroke="#666666" points="346.5,-96 182.5,-96 182.5,-77 346.5,-77 346.5,-96"/>
<text text-anchor="middle" x="264.5" y="-84" font-family="Helvetica,sans-Serif" font-size="10.00">cam.nc.iso.Creator.POLAR_ON</text>
</a>
</g>
</g>
<!-- Node1&#45;&gt;Node23 -->
<g id="edge88_Node000001_Node000023" class="edge">
<title>Node1&#45;&gt;Node23</title>
<g id="a_edge88_Node000001_Node000023"><a xlink:title=" ">
<path fill="none" stroke="#63b8ff" d="M76.72,-180.95C92.83,-162.88 130.54,-123.8 171,-104.5 175.3,-102.45 179.81,-100.63 184.44,-99.03"/>
<polygon fill="#63b8ff" stroke="#63b8ff" points="185.57,-102.34 194.06,-96 183.47,-95.66 185.57,-102.34"/>
</a>
</g>
</g>
<!-- Node24 -->
<g id="Node000024" class="node">
<title>Node24</title>
<g id="a_Node000024"><a xlink:href="$classcam_1_1nc_1_1makerbot__codes_1_1Codes.html#a759a3734dbd03221294b47bf757cad72" xlink:title=" ">
<polygon fill="white" stroke="#666666" points="350,-181.5 179,-181.5 179,-151.5 350,-151.5 350,-181.5"/>
<text text-anchor="start" x="187" y="-169.5" font-family="Helvetica,sans-Serif" font-size="10.00">cam.nc.makerbot_codes.Codes.</text>
<text text-anchor="middle" x="264.5" y="-158.5" font-family="Helvetica,sans-Serif" font-size="10.00">POLAR_ON</text>
</a>
</g>
</g>
<!-- Node1&#45;&gt;Node24 -->
<g id="edge89_Node000001_Node000024" class="edge">
<title>Node1&#45;&gt;Node24</title>
<g id="a_edge89_Node000001_Node000024"><a xlink:title=" ">
<path fill="none" stroke="#63b8ff" d="M135.06,-182.31C145.99,-180.96 157.49,-179.55 168.93,-178.14"/>
<polygon fill="#63b8ff" stroke="#63b8ff" points="169.47,-181.6 178.96,-176.9 168.61,-174.65 169.47,-181.6"/>
</a>
</g>
</g>
<!-- Node5 -->
<g id="Node000005" class="node">
<title>Node5</title>
<g id="a_Node000005"><a xlink:href="$classcam_1_1nc_1_1emc2_1_1Creator.html#a47a9e4f5f35681f580765bba2f0f97a5" xlink:title=" ">
<polygon fill="white" stroke="#666666" points="556.5,-142 402.5,-142 402.5,-123 556.5,-123 556.5,-142"/>
<text text-anchor="middle" x="479.5" y="-130" font-family="Helvetica,sans-Serif" font-size="10.00">cam.nc.emc2.Creator.SPACE</text>
</a>
</g>
</g>
<!-- Node4&#45;&gt;Node5 -->
<g id="edge70_Node000004_Node000005" class="edge">
<title>Node4&#45;&gt;Node5</title>
<g id="a_edge70_Node000004_Node000005"><a xlink:title=" ">
<path fill="none" stroke="#63b8ff" d="M339.82,-199.43C346.17,-196.9 352.33,-193.95 358,-190.5 378.44,-178.08 373.29,-162.47 394,-150.5 397.01,-148.76 400.17,-147.19 403.43,-145.76"/>
<polygon fill="#63b8ff" stroke="#63b8ff" points="404.75,-149.01 412.83,-142.15 402.24,-142.47 404.75,-149.01"/>
</a>
</g>
</g>
<!-- Node6 -->
<g id="Node000006" class="node">
<title>Node6</title>
<g id="a_Node000006"><a xlink:href="$classcam_1_1nc_1_1emc2b_1_1Creator.html#abff5586e78bb91681bd41dafdea5a9e7" xlink:title=" ">
<polygon fill="white" stroke="#666666" points="559.5,-105 399.5,-105 399.5,-86 559.5,-86 559.5,-105"/>
<text text-anchor="middle" x="479.5" y="-93" font-family="Helvetica,sans-Serif" font-size="10.00">cam.nc.emc2b.Creator.SPACE</text>
</a>
</g>
</g>
<!-- Node4&#45;&gt;Node6 -->
<g id="edge71_Node000004_Node000006" class="edge">
<title>Node4&#45;&gt;Node6</title>
<g id="a_edge71_Node000004_Node000006"><a xlink:title=" ">
<path fill="none" stroke="#63b8ff" d="M344.65,-199.33C349.41,-196.82 353.92,-193.89 358,-190.5 387.05,-166.35 364.43,-137.01 394,-113.5 395.59,-112.24 397.24,-111.06 398.95,-109.96"/>
<polygon fill="#63b8ff" stroke="#63b8ff" points="400.8,-112.94 407.91,-105.09 397.45,-106.79 400.8,-112.94"/>
</a>
</g>
</g>
<!-- Node7 -->
<g id="Node000007" class="node">
<title>Node7</title>
<g id="a_Node000007"><a xlink:href="$classcam_1_1nc_1_1emc2tap_1_1CodesEMC2.html#a6a0d71a1c6e9f8a80228dc220a0e57ca" xlink:title=" ">
<polygon fill="white" stroke="#666666" points="560,-67.5 399,-67.5 399,-37.5 560,-37.5 560,-67.5"/>
<text text-anchor="start" x="407" y="-55.5" font-family="Helvetica,sans-Serif" font-size="10.00">cam.nc.emc2tap.CodesEMC2.</text>
<text text-anchor="middle" x="479.5" y="-44.5" font-family="Helvetica,sans-Serif" font-size="10.00">SPACE</text>
</a>
</g>
</g>
<!-- Node4&#45;&gt;Node7 -->
<g id="edge72_Node000004_Node000007" class="edge">
<title>Node4&#45;&gt;Node7</title>
<g id="a_edge72_Node000004_Node000007"><a xlink:title=" ">
<path fill="none" stroke="#63b8ff" d="M346.05,-199.42C350.36,-196.88 354.39,-193.93 358,-190.5 396.54,-153.92 355.89,-113.52 394,-76.5 395.09,-75.44 396.23,-74.42 397.41,-73.45"/>
<polygon fill="#63b8ff" stroke="#63b8ff" points="399.49,-76.26 405.67,-67.66 395.47,-70.53 399.49,-76.26"/>
</a>
</g>
</g>
<!-- Node8 -->
<g id="Node000008" class="node">
<title>Node8</title>
<g id="a_Node000008"><a xlink:href="$classcam_1_1nc_1_1heiden_1_1Creator.html#a2c4277ffddaea0f92c906c6744f7a3bd" xlink:title="Codes.">
<polygon fill="white" stroke="#666666" points="559.5,-19 399.5,-19 399.5,0 559.5,0 559.5,-19"/>
<text text-anchor="middle" x="479.5" y="-7" font-family="Helvetica,sans-Serif" font-size="10.00">cam.nc.heiden.Creator.SPACE</text>
</a>
</g>
</g>
<!-- Node4&#45;&gt;Node8 -->
<g id="edge73_Node000004_Node000008" class="edge">
<title>Node4&#45;&gt;Node8</title>
<g id="a_edge73_Node000004_Node000008"><a xlink:title=" ">
<path fill="none" stroke="#63b8ff" d="M347.24,-199.25C351.15,-196.74 354.77,-193.84 358,-190.5 409.23,-137.44 341.91,-80.72 394,-28.5 395.28,-27.22 396.62,-26.02 398.02,-24.89"/>
<polygon fill="#63b8ff" stroke="#63b8ff" points="400.21,-27.64 406.62,-19.2 396.35,-21.8 400.21,-27.64"/>
</a>
</g>
</g>
<!-- Node9 -->
<g id="Node000009" class="node">
<title>Node9</title>
<g id="a_Node000009"><a xlink:href="$classcam_1_1nc_1_1heiden530_1_1Creator.html#aa64b19b0edc2ac1f2d568b09ca2aebcb" xlink:title="Codes.">
<polygon fill="white" stroke="#666666" points="553,-399.5 406,-399.5 406,-369.5 553,-369.5 553,-399.5"/>
<text text-anchor="start" x="414" y="-387.5" font-family="Helvetica,sans-Serif" font-size="10.00">cam.nc.heiden530.Creator.</text>
<text text-anchor="middle" x="479.5" y="-376.5" font-family="Helvetica,sans-Serif" font-size="10.00">SPACE</text>
</a>
</g>
</g>
<!-- Node4&#45;&gt;Node9 -->
<g id="edge74_Node000004_Node000009" class="edge">
<title>Node4&#45;&gt;Node9</title>
<g id="a_edge74_Node000004_Node000009"><a xlink:title=" ">
<path fill="none" stroke="#63b8ff" d="M346.55,-229.75C350.68,-232.26 354.54,-235.15 358,-238.5 398.63,-277.81 353.82,-320.73 394,-360.5 395.12,-361.61 396.28,-362.66 397.49,-363.67"/>
<polygon fill="#63b8ff" stroke="#63b8ff" points="395.8,-366.76 405.99,-369.65 399.83,-361.04 395.8,-366.76"/>
</a>
</g>
</g>
<!-- Node10 -->
<g id="Node000010" class="node">
<title>Node10</title>
<g id="a_Node000010"><a xlink:href="$classcam_1_1nc_1_1iso_1_1Creator.html#a79463d437baaaf23c828a2c9e62393f3" xlink:title=" ">
<polygon fill="white" stroke="#666666" points="550,-351 409,-351 409,-332 550,-332 550,-351"/>
<text text-anchor="middle" x="479.5" y="-339" font-family="Helvetica,sans-Serif" font-size="10.00">cam.nc.iso.Creator.SPACE</text>
</a>
</g>
</g>
<!-- Node4&#45;&gt;Node10 -->
<g id="edge75_Node000004_Node000010" class="edge">
<title>Node4&#45;&gt;Node10</title>
<g id="a_edge75_Node000004_Node000010"><a xlink:title=" ">
<path fill="none" stroke="#63b8ff" d="M344.78,-229.52C349.51,-232.07 353.97,-235.04 358,-238.5 388.81,-264.97 362.77,-296.53 394,-322.5 396.02,-324.18 398.17,-325.72 400.4,-327.13"/>
<polygon fill="#63b8ff" stroke="#63b8ff" points="398.95,-330.33 409.42,-331.96 402.25,-324.16 398.95,-330.33"/>
</a>
</g>
</g>
<!-- Node18 -->
<g id="Node000018" class="node">
<title>Node18</title>
<g id="a_Node000018"><a xlink:href="$classcam_1_1nc_1_1makerbot__codes_1_1Codes.html#a497077e0e500cc8f419b8f3f61f008b4" xlink:title=" ">
<polygon fill="white" stroke="#666666" points="565,-313.5 394,-313.5 394,-283.5 565,-283.5 565,-313.5"/>
<text text-anchor="start" x="402" y="-301.5" font-family="Helvetica,sans-Serif" font-size="10.00">cam.nc.makerbot_codes.Codes.</text>
<text text-anchor="middle" x="479.5" y="-290.5" font-family="Helvetica,sans-Serif" font-size="10.00">SPACE</text>
</a>
</g>
</g>
<!-- Node4&#45;&gt;Node18 -->
<g id="edge83_Node000004_Node000018" class="edge">
<title>Node4&#45;&gt;Node18</title>
<g id="a_edge83_Node000004_Node000018"><a xlink:title=" ">
<path fill="none" stroke="#63b8ff" d="M338.67,-229.52C345.4,-232.07 351.95,-235.04 358,-238.5 377.64,-249.74 374.49,-263.04 394,-274.5 396.98,-276.25 400.1,-277.88 403.31,-279.4"/>
<polygon fill="#63b8ff" stroke="#63b8ff" points="401.97,-282.63 412.53,-283.37 404.74,-276.2 401.97,-282.63"/>
</a>
</g>
</g>
<!-- Node19 -->
<g id="Node000019" class="node">
<title>Node19</title>
<g id="a_Node000019"><a xlink:href="$classcam_1_1nc_1_1series1_1_1Creator.html#a75918d23eef609baab85058fda3050d5" xlink:title=" ">
<polygon fill="white" stroke="#666666" points="560.5,-265 398.5,-265 398.5,-246 560.5,-246 560.5,-265"/>
<text text-anchor="middle" x="479.5" y="-253" font-family="Helvetica,sans-Serif" font-size="10.00">cam.nc.series1.Creator.SPACE</text>
</a>
</g>
</g>
<!-- Node4&#45;&gt;Node19 -->
<g id="edge84_Node000004_Node000019" class="edge">
<title>Node4&#45;&gt;Node19</title>
<g id="a_edge84_Node000004_Node000019"><a xlink:title=" ">
<path fill="none" stroke="#63b8ff" d="M343.6,-229.53C368.43,-234.31 395.47,-239.52 418.78,-244"/>
<polygon fill="#63b8ff" stroke="#63b8ff" points="418.38,-247.49 428.86,-245.95 419.71,-240.62 418.38,-247.49"/>
</a>
</g>
</g>
<!-- Node20 -->
<g id="Node000020" class="node">
<title>Node20</title>
<g id="a_Node000020"><a xlink:href="$classcam_1_1nc_1_1shopbot__mtc_1_1Creator.html#a1512dbb5d0140eb216ed709a542261ac" xlink:title="Codes.">
<polygon fill="white" stroke="#666666" points="559,-227.5 400,-227.5 400,-197.5 559,-197.5 559,-227.5"/>
<text text-anchor="start" x="408" y="-215.5" font-family="Helvetica,sans-Serif" font-size="10.00">cam.nc.shopbot_mtc.Creator.</text>
<text text-anchor="middle" x="479.5" y="-204.5" font-family="Helvetica,sans-Serif" font-size="10.00">SPACE</text>
</a>
</g>
</g>
<!-- Node4&#45;&gt;Node20 -->
<g id="edge85_Node000004_Node000020" class="edge">
<title>Node4&#45;&gt;Node20</title>
<g id="a_edge85_Node000004_Node000020"><a xlink:title=" ">
<path fill="none" stroke="#63b8ff" d="M350.3,-213.7C363.2,-213.58 376.55,-213.46 389.55,-213.34"/>
<polygon fill="#63b8ff" stroke="#63b8ff" points="389.91,-216.83 399.88,-213.24 389.84,-209.83 389.91,-216.83"/>
</a>
</g>
</g>
<!-- Node21 -->
<g id="Node000021" class="node">
<title>Node21</title>
<g id="a_Node000021"><a xlink:href="$classcam_1_1nc_1_1tnc151_1_1Creator.html#af5d9e50b2ff0e73cd7524e2145d55d76" xlink:title=" ">
<polygon fill="white" stroke="#666666" points="559.5,-179 399.5,-179 399.5,-160 559.5,-160 559.5,-179"/>
<text text-anchor="middle" x="479.5" y="-167" font-family="Helvetica,sans-Serif" font-size="10.00">cam.nc.tnc151.Creator.SPACE</text>
</a>
</g>
</g>
<!-- Node4&#45;&gt;Node21 -->
<g id="edge86_Node000004_Node000021" class="edge">
<title>Node4&#45;&gt;Node21</title>
<g id="a_edge86_Node000004_Node000021"><a xlink:title=" ">
<path fill="none" stroke="#63b8ff" d="M336.72,-199.45C365.03,-193.47 397.09,-186.7 423.56,-181.11"/>
<polygon fill="#63b8ff" stroke="#63b8ff" points="424.34,-184.52 433.41,-179.03 422.9,-177.67 424.34,-184.52"/>
</a>
</g>
</g>
<!-- Node11 -->
<g id="Node000011" class="node">
<title>Node11</title>
<g id="a_Node000011"><a xlink:href="$classcam_1_1nc_1_1anilam__crusader__m_1_1Creator.html#a36f873a0248bcaa4cf2cfb220dc1b00c" xlink:title="Codes.">
<polygon fill="white" stroke="#666666" points="761,-473.5 625,-473.5 625,-443.5 761,-443.5 761,-473.5"/>
<text text-anchor="start" x="633" y="-461.5" font-family="Helvetica,sans-Serif" font-size="10.00">cam.nc.anilam_crusader</text>
<text text-anchor="middle" x="693" y="-450.5" font-family="Helvetica,sans-Serif" font-size="10.00">_m.Creator.SPACE_STR</text>
</a>
</g>
</g>
<!-- Node10&#45;&gt;Node11 -->
<g id="edge76_Node000010_Node000011" class="edge">
<title>Node10&#45;&gt;Node11</title>
<g id="a_edge76_Node000010_Node000011"><a xlink:title=" ">
<path fill="none" stroke="#63b8ff" d="M548.96,-351.1C554.71,-353.59 560.17,-356.67 565,-360.5 593.68,-383.2 572.74,-411.28 601,-434.5 605.34,-438.07 610.15,-441.11 615.24,-443.7"/>
<polygon fill="#63b8ff" stroke="#63b8ff" points="614.08,-447.02 624.64,-447.9 616.93,-440.62 614.08,-447.02"/>
</a>
</g>
</g>
<!-- Node12 -->
<g id="Node000012" class="node">
<title>Node12</title>
<g id="a_Node000012"><a xlink:href="$classcam_1_1nc_1_1fadal_1_1Creator.html#a97a50724edf2662eb4fe76b15516b638" xlink:title="Codes.">
<polygon fill="white" stroke="#666666" points="781,-425 605,-425 605,-406 781,-406 781,-425"/>
<text text-anchor="middle" x="693" y="-413" font-family="Helvetica,sans-Serif" font-size="10.00">cam.nc.fadal.Creator.SPACE_STR</text>
</a>
</g>
</g>
<!-- Node10&#45;&gt;Node12 -->
<g id="edge77_Node000010_Node000012" class="edge">
<title>Node10&#45;&gt;Node12</title>
<g id="a_edge77_Node000010_Node000012"><a xlink:title=" ">
<path fill="none" stroke="#63b8ff" d="M542.51,-351.05C550.35,-353.51 558.05,-356.61 565,-360.5 585.02,-371.7 580.83,-386.56 601,-397.5 604.31,-399.3 607.77,-400.91 611.33,-402.37"/>
<polygon fill="#63b8ff" stroke="#63b8ff" points="610.36,-405.74 620.95,-405.87 612.75,-399.16 610.36,-405.74"/>
</a>
</g>
</g>
<!-- Node13 -->
<g id="Node000013" class="node">
<title>Node13</title>
<g id="a_Node000013"><a xlink:href="$classcam_1_1nc_1_1gravos_1_1Creator.html#ac0bc0d26e8a92a65c0f33d696ad850f5" xlink:title="Codes.">
<polygon fill="white" stroke="#666666" points="785,-388 601,-388 601,-369 785,-369 785,-388"/>
<text text-anchor="middle" x="693" y="-376" font-family="Helvetica,sans-Serif" font-size="10.00">cam.nc.gravos.Creator.SPACE_STR</text>
</a>
</g>
</g>
<!-- Node10&#45;&gt;Node13 -->
<g id="edge78_Node000010_Node000013" class="edge">
<title>Node10&#45;&gt;Node13</title>
<g id="a_edge78_Node000010_Node000013"><a xlink:title=" ">
<path fill="none" stroke="#63b8ff" d="M534.97,-351.03C563.1,-355.95 597.63,-361.99 627.14,-367.15"/>
<polygon fill="#63b8ff" stroke="#63b8ff" points="626.9,-370.66 637.35,-368.94 628.1,-363.77 626.9,-370.66"/>
</a>
</g>
</g>
<!-- Node14 -->
<g id="Node000014" class="node">
<title>Node14</title>
<g id="a_Node000014"><a xlink:href="$classcam_1_1nc_1_1iso_1_1Creator.html#aa481cf1e394988751640fd5ce5af991e" xlink:title="Codes.">
<polygon fill="white" stroke="#666666" points="775.5,-351 610.5,-351 610.5,-332 775.5,-332 775.5,-351"/>
<text text-anchor="middle" x="693" y="-339" font-family="Helvetica,sans-Serif" font-size="10.00">cam.nc.iso.Creator.SPACE_STR</text>
</a>
</g>
</g>
<!-- Node10&#45;&gt;Node14 -->
<g id="edge79_Node000010_Node000014" class="edge">
<title>Node10&#45;&gt;Node14</title>
<g id="a_edge79_Node000010_Node000014"><a xlink:title=" ">
<path fill="none" stroke="#63b8ff" d="M550.05,-341.5C566,-341.5 583.2,-341.5 599.94,-341.5"/>
<polygon fill="#63b8ff" stroke="#63b8ff" points="600.29,-345 610.29,-341.5 600.29,-338 600.29,-345"/>
</a>
</g>
</g>
<!-- Node15 -->
<g id="Node000015" class="node">
<title>Node15</title>
<g id="a_Node000015"><a xlink:href="$classcam_1_1nc_1_1lynx__otter__o_1_1Creator.html#a73b176561e066abcdb256a1bf53a5fcc" xlink:title="Codes.">
<polygon fill="white" stroke="#666666" points="771.5,-313.5 614.5,-313.5 614.5,-283.5 771.5,-283.5 771.5,-313.5"/>
<text text-anchor="start" x="622.5" y="-301.5" font-family="Helvetica,sans-Serif" font-size="10.00">cam.nc.lynx_otter_o.Creator.</text>
<text text-anchor="middle" x="693" y="-290.5" font-family="Helvetica,sans-Serif" font-size="10.00">SPACE_STR</text>
</a>
</g>
</g>
<!-- Node10&#45;&gt;Node15 -->
<g id="edge80_Node000010_Node000015" class="edge">
<title>Node10&#45;&gt;Node15</title>
<g id="a_edge80_Node000010_Node000015"><a xlink:title=" ">
<path fill="none" stroke="#63b8ff" d="M527.44,-331.96C551.18,-327.13 580.71,-321.13 608.18,-315.54"/>
<polygon fill="#63b8ff" stroke="#63b8ff" points="609.09,-318.93 618.19,-313.51 607.69,-312.07 609.09,-318.93"/>
</a>
</g>
</g>
<!-- Node16 -->
<g id="Node000016" class="node">
<title>Node16</title>
<g id="a_Node000016"><a xlink:href="$classcam_1_1nc_1_1mach3_1_1Creator.html#aa461d578afa76c5af9bb5562b79d955a" xlink:title="Codes.">
<polygon fill="white" stroke="#666666" points="785,-265 601,-265 601,-246 785,-246 785,-265"/>
<text text-anchor="middle" x="693" y="-253" font-family="Helvetica,sans-Serif" font-size="10.00">cam.nc.mach3.Creator.SPACE_STR</text>
</a>
</g>
</g>
<!-- Node10&#45;&gt;Node16 -->
<g id="edge81_Node000010_Node000016" class="edge">
<title>Node10&#45;&gt;Node16</title>
<g id="a_edge81_Node000010_Node000016"><a xlink:title=" ">
<path fill="none" stroke="#63b8ff" d="M545.64,-331.86C552.46,-329.41 559.07,-326.34 565,-322.5 587.39,-308.01 578.5,-288.81 601,-274.5 604.35,-272.37 607.9,-270.47 611.57,-268.78"/>
<polygon fill="#63b8ff" stroke="#63b8ff" points="612.97,-271.99 620.94,-265 610.35,-265.5 612.97,-271.99"/>
</a>
</g>
</g>
<!-- Node17 -->
<g id="Node000017" class="node">
<title>Node17</title>
<g id="a_Node000017"><a xlink:href="$classcam_1_1nc_1_1winpc_1_1Creator.html#aae1cb93a5dd430719105fa03a054f654" xlink:title="Codes.">
<polygon fill="white" stroke="#666666" points="782.5,-228 603.5,-228 603.5,-209 782.5,-209 782.5,-228"/>
<text text-anchor="middle" x="693" y="-216" font-family="Helvetica,sans-Serif" font-size="10.00">cam.nc.winpc.Creator.SPACE_STR</text>
</a>
</g>
</g>
<!-- Node10&#45;&gt;Node17 -->
<g id="edge82_Node000010_Node000017" class="edge">
<title>Node10&#45;&gt;Node17</title>
<g id="a_edge82_Node000010_Node000017"><a xlink:title=" ">
<path fill="none" stroke="#63b8ff" d="M549.61,-332C555.16,-329.49 560.39,-326.36 565,-322.5 596.75,-295.88 568.91,-262.71 601,-236.5 602.54,-235.24 604.15,-234.06 605.81,-232.95"/>
<polygon fill="#63b8ff" stroke="#63b8ff" points="607.54,-236 614.52,-228.03 604.09,-229.91 607.54,-236"/>
</a>
</g>
</g>
<!-- Node24&#45;&gt;Node5 -->
<g id="edge90_Node000024_Node000005" class="edge">
<title>Node24&#45;&gt;Node5</title>
<g id="a_edge90_Node000024_Node000005"><a xlink:title=" ">
<path fill="none" stroke="#63b8ff" d="M350.3,-152.96C369.77,-149.86 390.25,-146.59 408.99,-143.6"/>
<polygon fill="#63b8ff" stroke="#63b8ff" points="409.58,-147.05 418.9,-142.01 408.48,-140.13 409.58,-147.05"/>
</a>
</g>
</g>
<!-- Node24&#45;&gt;Node6 -->
<g id="edge91_Node000024_Node000006" class="edge">
<title>Node24&#45;&gt;Node6</title>
<g id="a_edge91_Node000024_Node000006"><a xlink:title=" ">
<path fill="none" stroke="#63b8ff" d="M333.84,-151.36C342.17,-148.55 350.41,-145.29 358,-141.5 376.14,-132.46 375.62,-122.05 394,-113.5 398.36,-111.47 402.95,-109.67 407.65,-108.07"/>
<polygon fill="#63b8ff" stroke="#63b8ff" points="408.89,-111.35 417.41,-105.05 406.82,-104.66 408.89,-111.35"/>
</a>
</g>
</g>
<!-- Node24&#45;&gt;Node7 -->
<g id="edge92_Node000024_Node000007" class="edge">
<title>Node24&#45;&gt;Node7</title>
<g id="a_edge92_Node000024_Node000007"><a xlink:title=" ">
<path fill="none" stroke="#63b8ff" d="M341.66,-151.47C347.49,-148.69 353.02,-145.4 358,-141.5 384,-121.14 368.13,-97.03 394,-76.5 395.61,-75.22 397.29,-74.01 399.02,-72.86"/>
<polygon fill="#63b8ff" stroke="#63b8ff" points="401.15,-75.67 408.07,-67.65 397.66,-69.61 401.15,-75.67"/>
</a>
</g>
</g>
<!-- Node24&#45;&gt;Node8 -->
<g id="edge93_Node000024_Node000008" class="edge">
<title>Node24&#45;&gt;Node8</title>
<g id="a_edge93_Node000024_Node000008"><a xlink:title=" ">
<path fill="none" stroke="#63b8ff" d="M344.75,-151.28C349.55,-148.53 354.03,-145.29 358,-141.5 396.09,-105.07 355.14,-64.11 394,-28.5 395.54,-27.09 397.16,-25.78 398.85,-24.56"/>
<polygon fill="#63b8ff" stroke="#63b8ff" points="401.03,-27.33 407.79,-19.17 397.42,-21.33 401.03,-27.33"/>
</a>
</g>
</g>
<!-- Node24&#45;&gt;Node9 -->
<g id="edge94_Node000024_Node000009" class="edge">
<title>Node24&#45;&gt;Node9</title>
<g id="a_edge94_Node000024_Node000009"><a xlink:title=" ">
<path fill="none" stroke="#63b8ff" d="M347.28,-181.71C351.18,-184.23 354.79,-187.14 358,-190.5 411.36,-246.33 341.28,-304.06 394,-360.5 395.07,-361.65 396.2,-362.74 397.37,-363.79"/>
<polygon fill="#63b8ff" stroke="#63b8ff" points="395.56,-366.81 405.67,-369.97 399.74,-361.19 395.56,-366.81"/>
</a>
</g>
</g>
<!-- Node24&#45;&gt;Node10 -->
<g id="edge95_Node000024_Node000010" class="edge">
<title>Node24&#45;&gt;Node10</title>
<g id="a_edge95_Node000024_Node000010"><a xlink:title=" ">
<path fill="none" stroke="#63b8ff" d="M346.63,-181.67C350.74,-184.2 354.58,-187.12 358,-190.5 401.26,-233.23 350.04,-280.48 394,-322.5 395.9,-324.32 397.94,-325.98 400.08,-327.49"/>
<polygon fill="#63b8ff" stroke="#63b8ff" points="398.43,-330.58 408.83,-332.62 401.98,-324.54 398.43,-330.58"/>
</a>
</g>
</g>
<!-- Node24&#45;&gt;Node18 -->
<g id="edge96_Node000024_Node000018" class="edge">
<title>Node24&#45;&gt;Node18</title>
<g id="a_edge96_Node000024_Node000018"><a xlink:title=" ">
<path fill="none" stroke="#63b8ff" d="M344.78,-181.52C349.51,-184.07 353.97,-187.04 358,-190.5 388.81,-216.97 363.5,-247.68 394,-274.5 395.34,-275.68 396.73,-276.8 398.17,-277.86"/>
<polygon fill="#63b8ff" stroke="#63b8ff" points="396.54,-280.97 406.86,-283.38 400.3,-275.07 396.54,-280.97"/>
</a>
</g>
</g>
<!-- Node24&#45;&gt;Node19 -->
<g id="edge97_Node000024_Node000019" class="edge">
<title>Node24&#45;&gt;Node19</title>
<g id="a_edge97_Node000024_Node000019"><a xlink:title=" ">
<path fill="none" stroke="#63b8ff" d="M341.02,-181.55C346.98,-184.08 352.73,-187.04 358,-190.5 379.71,-204.73 372.06,-222.62 394,-236.5 397.34,-238.61 400.88,-240.49 404.54,-242.16"/>
<polygon fill="#63b8ff" stroke="#63b8ff" points="403.29,-245.43 413.88,-245.89 405.9,-238.93 403.29,-245.43"/>
</a>
</g>
</g>
<!-- Node24&#45;&gt;Node20 -->
<g id="edge98_Node000024_Node000020" class="edge">
<title>Node24&#45;&gt;Node20</title>
<g id="a_edge98_Node000024_Node000020"><a xlink:title=" ">
<path fill="none" stroke="#63b8ff" d="M335.24,-181.56C355.67,-185.97 378.15,-190.83 399.12,-195.36"/>
<polygon fill="#63b8ff" stroke="#63b8ff" points="398.45,-198.79 408.96,-197.48 399.93,-191.95 398.45,-198.79"/>
</a>
</g>
</g>
<!-- Node24&#45;&gt;Node21 -->
<g id="edge99_Node000024_Node000021" class="edge">
<title>Node24&#45;&gt;Node21</title>
<g id="a_edge99_Node000024_Node000021"><a xlink:title=" ">
<path fill="none" stroke="#63b8ff" d="M350.3,-167.69C363.02,-167.87 376.18,-168.06 388.99,-168.24"/>
<polygon fill="#63b8ff" stroke="#63b8ff" points="389.14,-171.74 399.19,-168.38 389.24,-164.74 389.14,-171.74"/>
</a>
</g>
</g>
</g>
</svg>
