<?xml version="1.0" encoding="UTF-8" standalone="no"?>
<!DOCTYPE svg PUBLIC "-//W3C//DTD SVG 1.1//EN"
 "http://www.w3.org/Graphics/SVG/1.1/DTD/svg11.dtd">
<!-- Generated by graphviz version 2.43.0 (0)
 -->
<!-- Title: cam.nc.nc.Creator.end_ncblock Pages: 1 -->
<svg width="345pt" height="182pt"
 viewBox="0.00 0.00 345.00 182.00" xmlns="http://www.w3.org/2000/svg" xmlns:xlink="http://www.w3.org/1999/xlink">
<g id="graph0" class="graph" transform="scale(1 1) rotate(0) translate(4 178)">
<title>cam.nc.nc.Creator.end_ncblock</title>
<!-- Node1 -->
<g id="Node000001" class="node">
<title>Node1</title>
<g id="a_Node000001"><a xlink:title=" ">
<polygon fill="#999999" stroke="#666666" points="337,-102 212,-102 212,-72 337,-72 337,-102"/>
<text text-anchor="start" x="220" y="-90" font-family="Helvetica,sans-Serif" font-size="10.00">cam.nc.nc.Creator.end</text>
<text text-anchor="middle" x="274.5" y="-79" font-family="Helvetica,sans-Serif" font-size="10.00">_ncblock</text>
</a>
</g>
</g>
<!-- Node2 -->
<g id="Node000002" class="node">
<title>Node2</title>
<g id="a_Node000002"><a xlink:href="$classcam_1_1nc_1_1cad__iso__read_1_1Parser.html#abf885d019794a8bef1b69f446c8851e1" xlink:title=" ">
<polygon fill="white" stroke="#666666" points="165,-174 11,-174 11,-144 165,-144 165,-174"/>
<text text-anchor="start" x="19" y="-162" font-family="Helvetica,sans-Serif" font-size="10.00">cam.nc.cad_iso_read.Parser.</text>
<text text-anchor="middle" x="88" y="-151" font-family="Helvetica,sans-Serif" font-size="10.00">Parse</text>
</a>
</g>
</g>
<!-- Node1&#45;&gt;Node2 -->
<g id="edge9_Node000001_Node000002" class="edge">
<title>Node1&#45;&gt;Node2</title>
<g id="a_edge9_Node000001_Node000002"><a xlink:title=" ">
<path fill="none" stroke="#63b8ff" d="M237.36,-106.82C219.29,-116.2 196.87,-127.06 176,-135 167.51,-138.23 158.39,-141.23 149.38,-143.93"/>
<polygon fill="#63b8ff" stroke="#63b8ff" points="239.16,-109.83 246.38,-102.07 235.9,-103.63 239.16,-109.83"/>
</a>
</g>
</g>
<!-- Node3 -->
<g id="Node000003" class="node">
<title>Node3</title>
<g id="a_Node000003"><a xlink:href="$classcam_1_1nc_1_1cad__read_1_1CAD__backplot.html#afce7c30e482cfb88a36593d4020909d7" xlink:title=" ">
<polygon fill="white" stroke="#666666" points="149.5,-126 26.5,-126 26.5,-96 149.5,-96 149.5,-126"/>
<text text-anchor="start" x="34.5" y="-114" font-family="Helvetica,sans-Serif" font-size="10.00">cam.nc.cad_read.CAD</text>
<text text-anchor="middle" x="88" y="-103" font-family="Helvetica,sans-Serif" font-size="10.00">_backplot.Parse</text>
</a>
</g>
</g>
<!-- Node1&#45;&gt;Node3 -->
<g id="edge10_Node000001_Node000003" class="edge">
<title>Node1&#45;&gt;Node3</title>
<g id="a_edge10_Node000001_Node000003"><a xlink:title=" ">
<path fill="none" stroke="#63b8ff" d="M201.8,-96.33C184.58,-98.57 166.36,-100.94 149.69,-103.1"/>
<polygon fill="#63b8ff" stroke="#63b8ff" points="202.34,-99.79 211.81,-95.03 201.44,-92.84 202.34,-99.79"/>
</a>
</g>
</g>
<!-- Node4 -->
<g id="Node000004" class="node">
<title>Node4</title>
<g id="a_Node000004"><a xlink:href="$classcam_1_1nc_1_1lathe1__read_1_1Parser.html#a4046e981f4f946bed728de957d10365f" xlink:title=" ">
<polygon fill="white" stroke="#666666" points="162,-78 14,-78 14,-48 162,-48 162,-78"/>
<text text-anchor="start" x="22" y="-66" font-family="Helvetica,sans-Serif" font-size="10.00">cam.nc.lathe1_read.Parser.</text>
<text text-anchor="middle" x="88" y="-55" font-family="Helvetica,sans-Serif" font-size="10.00">Parse</text>
</a>
</g>
</g>
<!-- Node1&#45;&gt;Node4 -->
<g id="edge11_Node000001_Node000004" class="edge">
<title>Node1&#45;&gt;Node4</title>
<g id="a_edge11_Node000001_Node000004"><a xlink:title=" ">
<path fill="none" stroke="#63b8ff" d="M201.57,-77.64C188.63,-75.96 175.12,-74.2 162.15,-72.52"/>
<polygon fill="#63b8ff" stroke="#63b8ff" points="201.44,-81.16 211.81,-78.97 202.34,-74.21 201.44,-81.16"/>
</a>
</g>
</g>
<!-- Node5 -->
<g id="Node000005" class="node">
<title>Node5</title>
<g id="a_Node000005"><a xlink:href="$classcam_1_1nc_1_1num__reader_1_1NumReader.html#ae908a2956d1e0cfd474a47540bee9759" xlink:title=" ">
<polygon fill="white" stroke="#666666" points="176,-30 0,-30 0,0 176,0 176,-30"/>
<text text-anchor="start" x="8" y="-18" font-family="Helvetica,sans-Serif" font-size="10.00">cam.nc.num_reader.NumReader.</text>
<text text-anchor="middle" x="88" y="-7" font-family="Helvetica,sans-Serif" font-size="10.00">Parse</text>
</a>
</g>
</g>
<!-- Node1&#45;&gt;Node5 -->
<g id="edge12_Node000001_Node000005" class="edge">
<title>Node1&#45;&gt;Node5</title>
<g id="a_edge12_Node000001_Node000005"><a xlink:title=" ">
<path fill="none" stroke="#63b8ff" d="M237.36,-67.18C219.29,-57.8 196.87,-46.94 176,-39 167.51,-35.77 158.39,-32.77 149.38,-30.07"/>
<polygon fill="#63b8ff" stroke="#63b8ff" points="235.9,-70.37 246.38,-71.93 239.16,-64.17 235.9,-70.37"/>
</a>
</g>
</g>
</g>
</svg>
