<?xml version="1.0" encoding="UTF-8" standalone="no"?>
<!DOCTYPE svg PUBLIC "-//W3C//DTD SVG 1.1//EN"
 "http://www.w3.org/Graphics/SVG/1.1/DTD/svg11.dtd">
<!-- Generated by graphviz version 2.43.0 (0)
 -->
<!-- Title: cam.nc.iso.Creator.arc Pages: 1 -->
<svg width="542pt" height="650pt"
 viewBox="0.00 0.00 542.00 649.50" xmlns="http://www.w3.org/2000/svg" xmlns:xlink="http://www.w3.org/1999/xlink">
<g id="graph0" class="graph" transform="scale(1 1) rotate(0) translate(4 645.5)">
<title>cam.nc.iso.Creator.arc</title>
<!-- Node1 -->
<g id="Node000001" class="node">
<title>Node1</title>
<g id="a_Node000001"><a xlink:title=" ">
<polygon fill="#999999" stroke="#666666" points="534,-320.5 409,-320.5 409,-301.5 534,-301.5 534,-320.5"/>
<text text-anchor="middle" x="471.5" y="-308.5" font-family="Helvetica,sans-Serif" font-size="10.00">cam.nc.iso.Creator.arc</text>
</a>
</g>
</g>
<!-- Node1&#45;&gt;Node1 -->
<g id="edge92_Node000001_Node000001" class="edge">
<title>Node1&#45;&gt;Node1</title>
<g id="a_edge92_Node000001_Node000001"><a xlink:title=" ">
<path fill="none" stroke="#63b8ff" d="M503.31,-328.95C502.4,-334.32 491.8,-338.5 471.5,-338.5 441.29,-338.5 432.55,-329.23 445.3,-320.58"/>
<polygon fill="#63b8ff" stroke="#63b8ff" points="506.18,-326.94 497.7,-320.58 500.36,-330.84 506.18,-326.94"/>
</a>
</g>
</g>
<!-- Node2 -->
<g id="Node000002" class="node">
<title>Node2</title>
<g id="a_Node000002"><a xlink:href="$classcam_1_1nc_1_1heiden_1_1Creator.html#a78c90cc7cedad79ff356840b59527774" xlink:title=" ">
<polygon fill="white" stroke="#666666" points="373,-320.5 229,-320.5 229,-301.5 373,-301.5 373,-320.5"/>
<text text-anchor="middle" x="301" y="-308.5" font-family="Helvetica,sans-Serif" font-size="10.00">cam.nc.heiden.Creator.arc</text>
</a>
</g>
</g>
<!-- Node1&#45;&gt;Node2 -->
<g id="edge73_Node000001_Node000002" class="edge">
<title>Node1&#45;&gt;Node2</title>
<g id="a_edge73_Node000001_Node000002"><a xlink:title=" ">
<path fill="none" stroke="#63b8ff" d="M398.57,-304.31C390.16,-304.23 381.59,-304.23 373.19,-304.32"/>
<polygon fill="#63b8ff" stroke="#63b8ff" points="398.66,-307.82 408.71,-304.47 398.77,-300.82 398.66,-307.82"/>
</a>
</g>
</g>
<!-- Node3 -->
<g id="Node000003" class="node">
<title>Node3</title>
<g id="a_Node000003"><a xlink:href="$classcam_1_1nc_1_1heiden_1_1Creator.html#a7c0262bb6935f21773e134b851cbff38" xlink:title=" ">
<polygon fill="white" stroke="#666666" points="180.5,-641.5 12.5,-641.5 12.5,-622.5 180.5,-622.5 180.5,-641.5"/>
<text text-anchor="middle" x="96.5" y="-629.5" font-family="Helvetica,sans-Serif" font-size="10.00">cam.nc.heiden.Creator.arc_ccw</text>
</a>
</g>
</g>
<!-- Node1&#45;&gt;Node3 -->
<g id="edge93_Node000001_Node000003" class="edge">
<title>Node1&#45;&gt;Node3</title>
<g id="a_edge93_Node000001_Node000003"><a xlink:title=" ">
<path fill="none" stroke="#63b8ff" d="M469.63,-330.81C466.3,-380.87 450.25,-513.14 373,-579 320.18,-624.03 240.8,-635.35 180.8,-636.54"/>
<polygon fill="#63b8ff" stroke="#63b8ff" points="473.13,-330.86 470.2,-320.68 466.14,-330.47 473.13,-330.86"/>
</a>
</g>
</g>
<!-- Node4 -->
<g id="Node000004" class="node">
<title>Node4</title>
<g id="a_Node000004"><a xlink:href="$classcam_1_1nc_1_1hpgl2d_1_1Creator.html#ae869adedb7242daa7c1b42302c182896" xlink:title=" ">
<polygon fill="white" stroke="#666666" points="180.5,-603.5 12.5,-603.5 12.5,-584.5 180.5,-584.5 180.5,-603.5"/>
<text text-anchor="middle" x="96.5" y="-591.5" font-family="Helvetica,sans-Serif" font-size="10.00">cam.nc.hpgl2d.Creator.arc_ccw</text>
</a>
</g>
</g>
<!-- Node1&#45;&gt;Node4 -->
<g id="edge94_Node000001_Node000004" class="edge">
<title>Node1&#45;&gt;Node4</title>
<g id="a_edge94_Node000001_Node000004"><a xlink:title=" ">
<path fill="none" stroke="#63b8ff" d="M468.19,-330.8C461.87,-375.5 440.02,-484.58 373,-539 319.24,-582.66 240.35,-594.81 180.76,-596.97"/>
<polygon fill="#63b8ff" stroke="#63b8ff" points="471.69,-331.04 469.51,-320.67 464.75,-330.13 471.69,-331.04"/>
</a>
</g>
</g>
<!-- Node5 -->
<g id="Node000005" class="node">
<title>Node5</title>
<g id="a_Node000005"><a xlink:href="$classcam_1_1nc_1_1iso_1_1Creator.html#a73623b6caaf8efee669803ee57ca97a9" xlink:title=" ">
<polygon fill="white" stroke="#666666" points="171,-565.5 22,-565.5 22,-546.5 171,-546.5 171,-565.5"/>
<text text-anchor="middle" x="96.5" y="-553.5" font-family="Helvetica,sans-Serif" font-size="10.00">cam.nc.iso.Creator.arc_ccw</text>
</a>
</g>
</g>
<!-- Node1&#45;&gt;Node5 -->
<g id="edge95_Node000001_Node000005" class="edge">
<title>Node1&#45;&gt;Node5</title>
<g id="a_edge95_Node000001_Node000005"><a xlink:title=" ">
<path fill="none" stroke="#63b8ff" d="M466.22,-330.68C456.7,-369.44 430,-455.65 373,-499 315.07,-543.06 231.25,-555.14 171.3,-557.54"/>
<polygon fill="#63b8ff" stroke="#63b8ff" points="469.69,-331.21 468.55,-320.67 462.87,-329.62 469.69,-331.21"/>
</a>
</g>
</g>
<!-- Node6 -->
<g id="Node000006" class="node">
<title>Node6</title>
<g id="a_Node000006"><a xlink:href="$classcam_1_1nc_1_1lathe1_1_1CreatorIso.html#a9eae946df7fc34b9a46e33a00d891c3d" xlink:title=" ">
<polygon fill="white" stroke="#666666" points="187,-527.5 6,-527.5 6,-508.5 187,-508.5 187,-527.5"/>
<text text-anchor="middle" x="96.5" y="-515.5" font-family="Helvetica,sans-Serif" font-size="10.00">cam.nc.lathe1.CreatorIso.arc_ccw</text>
</a>
</g>
</g>
<!-- Node1&#45;&gt;Node6 -->
<g id="edge96_Node000001_Node000006" class="edge">
<title>Node1&#45;&gt;Node6</title>
<g id="a_edge96_Node000001_Node000006"><a xlink:title=" ">
<path fill="none" stroke="#63b8ff" d="M463.61,-330.1C450.95,-362.31 420.83,-427.11 373,-460 318.53,-497.46 244.71,-511.52 187.2,-516.46"/>
<polygon fill="#63b8ff" stroke="#63b8ff" points="466.97,-331.11 467.23,-320.52 460.42,-328.64 466.97,-331.11"/>
</a>
</g>
</g>
<!-- Node7 -->
<g id="Node000007" class="node">
<title>Node7</title>
<g id="a_Node000007"><a xlink:href="$classcam_1_1nc_1_1makerbotHBP_1_1CreatorMakerbotHBP.html#aa7b30248f278113e0c9a324820824941" xlink:title=" ">
<polygon fill="white" stroke="#666666" points="176,-490 17,-490 17,-460 176,-460 176,-490"/>
<text text-anchor="start" x="25" y="-478" font-family="Helvetica,sans-Serif" font-size="10.00">cam.nc.makerbotHBP.Creator</text>
<text text-anchor="middle" x="96.5" y="-467" font-family="Helvetica,sans-Serif" font-size="10.00">MakerbotHBP.arc_ccw</text>
</a>
</g>
</g>
<!-- Node1&#45;&gt;Node7 -->
<g id="edge97_Node000001_Node000007" class="edge">
<title>Node1&#45;&gt;Node7</title>
<g id="a_edge97_Node000001_Node000007"><a xlink:title=" ">
<path fill="none" stroke="#63b8ff" d="M460.06,-329.59C444.6,-355.26 413.06,-401.01 373,-424 312.77,-458.56 234.05,-470.44 176.19,-474.18"/>
<polygon fill="#63b8ff" stroke="#63b8ff" points="463.16,-331.22 465.19,-320.82 457.12,-327.68 463.16,-331.22"/>
</a>
</g>
</g>
<!-- Node8 -->
<g id="Node000008" class="node">
<title>Node8</title>
<g id="a_Node000008"><a xlink:href="$classcam_1_1nc_1_1recreator_1_1Redirector.html#a50bb4fcb175a9c87e1cf45a79cd54ff1" xlink:title=" ">
<polygon fill="white" stroke="#666666" points="193,-440.5 0,-440.5 0,-421.5 193,-421.5 193,-440.5"/>
<text text-anchor="middle" x="96.5" y="-428.5" font-family="Helvetica,sans-Serif" font-size="10.00">cam.nc.recreator.Redirector.arc_ccw</text>
</a>
</g>
</g>
<!-- Node1&#45;&gt;Node8 -->
<g id="edge98_Node000001_Node000008" class="edge">
<title>Node1&#45;&gt;Node8</title>
<g id="a_edge98_Node000001_Node000008"><a xlink:title=" ">
<path fill="none" stroke="#63b8ff" d="M455.89,-328.06C438.33,-347.31 406.96,-377.91 373,-393 316.63,-418.05 247.92,-427.56 193.21,-430.8"/>
<polygon fill="#63b8ff" stroke="#63b8ff" points="458.51,-330.38 462.54,-320.58 453.28,-325.73 458.51,-330.38"/>
</a>
</g>
</g>
<!-- Node9 -->
<g id="Node000009" class="node">
<title>Node9</title>
<g id="a_Node000009"><a xlink:href="$classcam_1_1nc_1_1rez2_1_1Creator.html#a7a7b089cf338846799311b5b1193a566" xlink:title=" ">
<polygon fill="white" stroke="#666666" points="174.5,-402.5 18.5,-402.5 18.5,-383.5 174.5,-383.5 174.5,-402.5"/>
<text text-anchor="middle" x="96.5" y="-390.5" font-family="Helvetica,sans-Serif" font-size="10.00">cam.nc.rez2.Creator.arc_ccw</text>
</a>
</g>
</g>
<!-- Node1&#45;&gt;Node9 -->
<g id="edge99_Node000001_Node000009" class="edge">
<title>Node1&#45;&gt;Node9</title>
<g id="a_edge99_Node000001_Node000009"><a xlink:title=" ">
<path fill="none" stroke="#63b8ff" d="M449.6,-326.56C430.65,-339.77 401.43,-357.97 373,-367 308.21,-387.59 230.88,-393.36 174.66,-394.41"/>
<polygon fill="#63b8ff" stroke="#63b8ff" points="451.68,-329.38 457.78,-320.72 447.61,-323.68 451.68,-329.38"/>
</a>
</g>
</g>
<!-- Node10 -->
<g id="Node000010" class="node">
<title>Node10</title>
<g id="a_Node000010"><a xlink:href="$classcam_1_1nc_1_1heiden_1_1Creator.html#afffaa9e4bad9251bb67ff287f47accda" xlink:title=" ">
<polygon fill="white" stroke="#666666" points="178,-362.5 15,-362.5 15,-343.5 178,-343.5 178,-362.5"/>
<text text-anchor="middle" x="96.5" y="-350.5" font-family="Helvetica,sans-Serif" font-size="10.00">cam.nc.heiden.Creator.arc_cw</text>
</a>
</g>
</g>
<!-- Node1&#45;&gt;Node10 -->
<g id="edge100_Node000001_Node000010" class="edge">
<title>Node1&#45;&gt;Node10</title>
<g id="a_edge100_Node000001_Node000010"><a xlink:title=" ">
<path fill="none" stroke="#63b8ff" d="M442,-324.81C422.95,-333.28 397.07,-343.36 373,-348 308.29,-360.47 233.46,-360.97 178.12,-358.77"/>
<polygon fill="#63b8ff" stroke="#63b8ff" points="443.65,-327.9 451.29,-320.56 440.74,-321.54 443.65,-327.9"/>
</a>
</g>
</g>
<!-- Node11 -->
<g id="Node000011" class="node">
<title>Node11</title>
<g id="a_Node000011"><a xlink:href="$classcam_1_1nc_1_1hpgl2d_1_1Creator.html#ae23fc4d361aa6de768d74b18324bae53" xlink:title=" ">
<polygon fill="white" stroke="#666666" points="178,-319.5 15,-319.5 15,-300.5 178,-300.5 178,-319.5"/>
<text text-anchor="middle" x="96.5" y="-307.5" font-family="Helvetica,sans-Serif" font-size="10.00">cam.nc.hpgl2d.Creator.arc_cw</text>
</a>
</g>
</g>
<!-- Node1&#45;&gt;Node11 -->
<g id="edge101_Node000001_Node000011" class="edge">
<title>Node1&#45;&gt;Node11</title>
<g id="a_edge101_Node000001_Node000011"><a xlink:title=" ">
<path fill="none" stroke="#63b8ff" d="M418.18,-299.53C403.63,-296.83 387.76,-294.35 373,-293 309.27,-287.17 292.87,-288.89 229,-293 205.8,-294.49 180.44,-297.45 158.23,-300.49"/>
<polygon fill="#63b8ff" stroke="#63b8ff" points="417.54,-302.97 428.02,-301.42 418.86,-296.09 417.54,-302.97"/>
</a>
</g>
</g>
<!-- Node12 -->
<g id="Node000012" class="node">
<title>Node12</title>
<g id="a_Node000012"><a xlink:href="$classcam_1_1nc_1_1iso_1_1Creator.html#a334d38752a57cd7745f9361d583c68f6" xlink:title=" ">
<polygon fill="white" stroke="#666666" points="168.5,-282.5 24.5,-282.5 24.5,-263.5 168.5,-263.5 168.5,-282.5"/>
<text text-anchor="middle" x="96.5" y="-270.5" font-family="Helvetica,sans-Serif" font-size="10.00">cam.nc.iso.Creator.arc_cw</text>
</a>
</g>
</g>
<!-- Node1&#45;&gt;Node12 -->
<g id="edge102_Node000001_Node000012" class="edge">
<title>Node1&#45;&gt;Node12</title>
<g id="a_edge102_Node000001_Node000012"><a xlink:title=" ">
<path fill="none" stroke="#63b8ff" d="M431.47,-298.51C413.8,-293.4 392.54,-287.99 373,-285 304.15,-274.45 224.56,-272.01 168.69,-271.88"/>
<polygon fill="#63b8ff" stroke="#63b8ff" points="430.83,-301.97 441.41,-301.47 432.82,-295.26 430.83,-301.97"/>
</a>
</g>
</g>
<!-- Node13 -->
<g id="Node000013" class="node">
<title>Node13</title>
<g id="a_Node000013"><a xlink:href="$classcam_1_1nc_1_1lathe1_1_1CreatorIso.html#ae2f7d7587f9940cf9534e127f7234c4c" xlink:title=" ">
<polygon fill="white" stroke="#666666" points="184.5,-245.5 8.5,-245.5 8.5,-226.5 184.5,-226.5 184.5,-245.5"/>
<text text-anchor="middle" x="96.5" y="-233.5" font-family="Helvetica,sans-Serif" font-size="10.00">cam.nc.lathe1.CreatorIso.arc_cw</text>
</a>
</g>
</g>
<!-- Node1&#45;&gt;Node13 -->
<g id="edge103_Node000001_Node000013" class="edge">
<title>Node1&#45;&gt;Node13</title>
<g id="a_edge103_Node000001_Node000013"><a xlink:title=" ">
<path fill="none" stroke="#63b8ff" d="M444.1,-296.76C424.92,-287.07 398.05,-274.81 373,-268 311.32,-251.23 239.53,-243.25 184.69,-239.45"/>
<polygon fill="#63b8ff" stroke="#63b8ff" points="442.63,-299.94 453.12,-301.42 445.84,-293.72 442.63,-299.94"/>
</a>
</g>
</g>
<!-- Node14 -->
<g id="Node000014" class="node">
<title>Node14</title>
<g id="a_Node000014"><a xlink:href="$classcam_1_1nc_1_1makerbotHBP_1_1CreatorMakerbotHBP.html#a2cf899fa0839287bdca94b6207c078d6" xlink:title=" ">
<polygon fill="white" stroke="#666666" points="176,-208 17,-208 17,-178 176,-178 176,-208"/>
<text text-anchor="start" x="25" y="-196" font-family="Helvetica,sans-Serif" font-size="10.00">cam.nc.makerbotHBP.Creator</text>
<text text-anchor="middle" x="96.5" y="-185" font-family="Helvetica,sans-Serif" font-size="10.00">MakerbotHBP.arc_cw</text>
</a>
</g>
</g>
<!-- Node1&#45;&gt;Node14 -->
<g id="edge104_Node000001_Node000014" class="edge">
<title>Node1&#45;&gt;Node14</title>
<g id="a_edge104_Node000001_Node000014"><a xlink:title=" ">
<path fill="none" stroke="#63b8ff" d="M453.47,-294.44C435.16,-277.65 404.42,-252.31 373,-239 310.04,-212.33 232.86,-201.08 176.22,-196.36"/>
<polygon fill="#63b8ff" stroke="#63b8ff" points="451.28,-297.18 460.97,-301.47 456.07,-292.08 451.28,-297.18"/>
</a>
</g>
</g>
<!-- Node15 -->
<g id="Node000015" class="node">
<title>Node15</title>
<g id="a_Node000015"><a xlink:href="$classcam_1_1nc_1_1recreator_1_1Redirector.html#a54adbf876611896e0d8d530766a18964" xlink:title=" ">
<polygon fill="white" stroke="#666666" points="190.5,-159.5 2.5,-159.5 2.5,-140.5 190.5,-140.5 190.5,-159.5"/>
<text text-anchor="middle" x="96.5" y="-147.5" font-family="Helvetica,sans-Serif" font-size="10.00">cam.nc.recreator.Redirector.arc_cw</text>
</a>
</g>
</g>
<!-- Node1&#45;&gt;Node15 -->
<g id="edge105_Node000001_Node000015" class="edge">
<title>Node1&#45;&gt;Node15</title>
<g id="a_edge105_Node000001_Node000015"><a xlink:title=" ">
<path fill="none" stroke="#63b8ff" d="M460.33,-292.74C444.98,-267.07 413.38,-220.89 373,-198 317.56,-166.58 246.56,-154.76 190.51,-150.7"/>
<polygon fill="#63b8ff" stroke="#63b8ff" points="457.35,-294.59 465.39,-301.48 463.41,-291.08 457.35,-294.59"/>
</a>
</g>
</g>
<!-- Node16 -->
<g id="Node000016" class="node">
<title>Node16</title>
<g id="a_Node000016"><a xlink:href="$classcam_1_1nc_1_1rez2_1_1Creator.html#a96f30401310d0198de3d2d55da86510f" xlink:title=" ">
<polygon fill="white" stroke="#666666" points="172,-121.5 21,-121.5 21,-102.5 172,-102.5 172,-121.5"/>
<text text-anchor="middle" x="96.5" y="-109.5" font-family="Helvetica,sans-Serif" font-size="10.00">cam.nc.rez2.Creator.arc_cw</text>
</a>
</g>
</g>
<!-- Node1&#45;&gt;Node16 -->
<g id="edge106_Node000001_Node000016" class="edge">
<title>Node1&#45;&gt;Node16</title>
<g id="a_edge106_Node000001_Node000016"><a xlink:title=" ">
<path fill="none" stroke="#63b8ff" d="M464.81,-291.43C453.57,-256.57 424.98,-184.18 373,-150 313.6,-110.94 231.38,-104.24 172.25,-105.6"/>
<polygon fill="#63b8ff" stroke="#63b8ff" points="461.58,-292.81 467.86,-301.34 468.27,-290.75 461.58,-292.81"/>
</a>
</g>
</g>
<!-- Node17 -->
<g id="Node000017" class="node">
<title>Node17</title>
<g id="a_Node000017"><a xlink:href="$classcam_1_1nc_1_1cad__iso__read_1_1Parser.html#abf885d019794a8bef1b69f446c8851e1" xlink:title=" ">
<polygon fill="white" stroke="#666666" points="173.5,-82 19.5,-82 19.5,-52 173.5,-52 173.5,-82"/>
<text text-anchor="start" x="27.5" y="-70" font-family="Helvetica,sans-Serif" font-size="10.00">cam.nc.cad_iso_read.Parser.</text>
<text text-anchor="middle" x="96.5" y="-59" font-family="Helvetica,sans-Serif" font-size="10.00">Parse</text>
</a>
</g>
</g>
<!-- Node1&#45;&gt;Node17 -->
<g id="edge107_Node000001_Node000017" class="edge">
<title>Node1&#45;&gt;Node17</title>
<g id="a_edge107_Node000001_Node000017"><a xlink:title=" ">
<path fill="none" stroke="#63b8ff" d="M467.6,-291.16C460.28,-248.82 436.84,-149.66 373,-103 315.75,-61.16 233.41,-55.5 173.67,-58.26"/>
<polygon fill="#63b8ff" stroke="#63b8ff" points="464.15,-291.76 469.2,-301.08 471.06,-290.65 464.15,-291.76"/>
</a>
</g>
</g>
<!-- Node18 -->
<g id="Node000018" class="node">
<title>Node18</title>
<g id="a_Node000018"><a xlink:href="$classcam_1_1nc_1_1heiden__read_1_1Parser.html#a9c64dcddf3c2c0d3248079dde5314cfe" xlink:title=" ">
<polygon fill="white" stroke="#666666" points="171.5,-30 21.5,-30 21.5,0 171.5,0 171.5,-30"/>
<text text-anchor="start" x="29.5" y="-18" font-family="Helvetica,sans-Serif" font-size="10.00">cam.nc.heiden_read.Parser.</text>
<text text-anchor="middle" x="96.5" y="-7" font-family="Helvetica,sans-Serif" font-size="10.00">Parsey</text>
</a>
</g>
</g>
<!-- Node1&#45;&gt;Node18 -->
<g id="edge108_Node000001_Node000018" class="edge">
<title>Node1&#45;&gt;Node18</title>
<g id="a_edge108_Node000001_Node000018"><a xlink:title=" ">
<path fill="none" stroke="#63b8ff" d="M469.49,-291.12C465.83,-242.06 449.09,-114.83 373,-54 316.59,-8.9 232.11,-3.18 171.58,-6.22"/>
<polygon fill="#63b8ff" stroke="#63b8ff" points="466.01,-291.58 470.14,-301.33 472.99,-291.13 466.01,-291.58"/>
</a>
</g>
</g>
<!-- Node2&#45;&gt;Node1 -->
<g id="edge75_Node000002_Node000001" class="edge">
<title>Node2&#45;&gt;Node1</title>
<g id="a_edge75_Node000002_Node000001"><a xlink:title=" ">
<path fill="none" stroke="#63b8ff" d="M383.22,-317.75C391.79,-317.77 400.41,-317.7 408.71,-317.53"/>
<polygon fill="#63b8ff" stroke="#63b8ff" points="383.21,-314.25 373.19,-317.68 383.17,-321.25 383.21,-314.25"/>
</a>
</g>
</g>
<!-- Node2&#45;&gt;Node2 -->
<g id="edge74_Node000002_Node000002" class="edge">
<title>Node2&#45;&gt;Node2</title>
<g id="a_edge74_Node000002_Node000002"><a xlink:title=" ">
<path fill="none" stroke="#63b8ff" d="M332.81,-328.95C331.9,-334.32 321.3,-338.5 301,-338.5 270.79,-338.5 262.05,-329.23 274.8,-320.58"/>
<polygon fill="#63b8ff" stroke="#63b8ff" points="335.68,-326.94 327.2,-320.58 329.86,-330.84 335.68,-326.94"/>
</a>
</g>
</g>
<!-- Node2&#45;&gt;Node3 -->
<g id="edge76_Node000002_Node000003" class="edge">
<title>Node2&#45;&gt;Node3</title>
<g id="a_edge76_Node000002_Node000003"><a xlink:title=" ">
<path fill="none" stroke="#63b8ff" d="M299.36,-330.74C296.47,-384.96 280.57,-537.22 193,-613 188.65,-616.76 183.78,-619.86 178.59,-622.4"/>
<polygon fill="#63b8ff" stroke="#63b8ff" points="302.86,-330.86 299.8,-320.71 295.87,-330.55 302.86,-330.86"/>
</a>
</g>
</g>
<!-- Node2&#45;&gt;Node4 -->
<g id="edge77_Node000002_Node000004" class="edge">
<title>Node2&#45;&gt;Node4</title>
<g id="a_edge77_Node000002_Node000004"><a xlink:title=" ">
<path fill="none" stroke="#63b8ff" d="M298.26,-330.54C292.75,-379.93 271.13,-510.37 193,-575 188.44,-578.77 183.34,-581.87 177.94,-584.4"/>
<polygon fill="#63b8ff" stroke="#63b8ff" points="301.74,-330.85 299.27,-320.55 294.78,-330.14 301.74,-330.85"/>
</a>
</g>
</g>
<!-- Node2&#45;&gt;Node5 -->
<g id="edge78_Node000002_Node000005" class="edge">
<title>Node2&#45;&gt;Node5</title>
<g id="a_edge78_Node000002_Node000005"><a xlink:title=" ">
<path fill="none" stroke="#63b8ff" d="M296.78,-330.68C288.4,-375.11 261.64,-483.45 193,-537 186.47,-542.1 178.94,-545.94 171.03,-548.82"/>
<polygon fill="#63b8ff" stroke="#63b8ff" points="300.26,-331.07 298.56,-320.61 293.37,-329.85 300.26,-331.07"/>
</a>
</g>
</g>
<!-- Node2&#45;&gt;Node6 -->
<g id="edge79_Node000002_Node000006" class="edge">
<title>Node2&#45;&gt;Node6</title>
<g id="a_edge79_Node000002_Node000006"><a xlink:title=" ">
<path fill="none" stroke="#63b8ff" d="M294.75,-330.77C283.32,-369.7 252.32,-456.21 193,-499 187.79,-502.76 182.02,-505.82 175.98,-508.31"/>
<polygon fill="#63b8ff" stroke="#63b8ff" points="298.23,-331.3 297.57,-320.72 291.5,-329.41 298.23,-331.3"/>
</a>
</g>
</g>
<!-- Node2&#45;&gt;Node7 -->
<g id="edge80_Node000002_Node000007" class="edge">
<title>Node2&#45;&gt;Node7</title>
<g id="a_edge80_Node000002_Node000007"><a xlink:title=" ">
<path fill="none" stroke="#63b8ff" d="M290.73,-329.92C274.96,-360.09 239.98,-418.86 193,-450 187.14,-453.88 180.71,-457.16 174.04,-459.93"/>
<polygon fill="#63b8ff" stroke="#63b8ff" points="293.92,-331.37 295.33,-320.87 287.68,-328.2 293.92,-331.37"/>
</a>
</g>
</g>
<!-- Node2&#45;&gt;Node8 -->
<g id="edge81_Node000002_Node000008" class="edge">
<title>Node2&#45;&gt;Node8</title>
<g id="a_edge81_Node000002_Node000008"><a xlink:title=" ">
<path fill="none" stroke="#63b8ff" d="M286.75,-328.55C268.37,-351.57 232.85,-391.43 193,-412 185.41,-415.92 177.1,-419.03 168.65,-421.5"/>
<polygon fill="#63b8ff" stroke="#63b8ff" points="289.54,-330.67 292.93,-320.63 284.02,-326.36 289.54,-330.67"/>
</a>
</g>
</g>
<!-- Node2&#45;&gt;Node9 -->
<g id="edge82_Node000002_Node000009" class="edge">
<title>Node2&#45;&gt;Node9</title>
<g id="a_edge82_Node000002_Node000009"><a xlink:title=" ">
<path fill="none" stroke="#63b8ff" d="M278,-326.19C257.02,-340.01 224.12,-360.03 193,-372 180.72,-376.72 167.12,-380.51 154.13,-383.5"/>
<polygon fill="#63b8ff" stroke="#63b8ff" points="280.12,-328.98 286.48,-320.51 276.22,-323.16 280.12,-328.98"/>
</a>
</g>
</g>
<!-- Node2&#45;&gt;Node10 -->
<g id="edge83_Node000002_Node000010" class="edge">
<title>Node2&#45;&gt;Node10</title>
<g id="a_edge83_Node000002_Node000010"><a xlink:title=" ">
<path fill="none" stroke="#63b8ff" d="M244.07,-322.6C212.47,-329.15 173.45,-337.25 143.62,-343.43"/>
<polygon fill="#63b8ff" stroke="#63b8ff" points="244.97,-325.99 254.05,-320.53 243.55,-319.13 244.97,-325.99"/>
</a>
</g>
</g>
<!-- Node2&#45;&gt;Node11 -->
<g id="edge84_Node000002_Node000011" class="edge">
<title>Node2&#45;&gt;Node11</title>
<g id="a_edge84_Node000002_Node000011"><a xlink:title=" ">
<path fill="none" stroke="#63b8ff" d="M218.76,-310.6C205.37,-310.53 191.5,-310.46 178.12,-310.4"/>
<polygon fill="#63b8ff" stroke="#63b8ff" points="218.87,-314.1 228.89,-310.65 218.91,-307.1 218.87,-314.1"/>
</a>
</g>
</g>
<!-- Node2&#45;&gt;Node12 -->
<g id="edge85_Node000002_Node000012" class="edge">
<title>Node2&#45;&gt;Node12</title>
<g id="a_edge85_Node000002_Node000012"><a xlink:title=" ">
<path fill="none" stroke="#63b8ff" d="M239.15,-299.58C210.18,-294.14 175.92,-287.72 148.36,-282.54"/>
<polygon fill="#63b8ff" stroke="#63b8ff" points="238.69,-303.06 249.16,-301.46 239.98,-296.18 238.69,-303.06"/>
</a>
</g>
</g>
<!-- Node2&#45;&gt;Node13 -->
<g id="edge86_Node000002_Node000013" class="edge">
<title>Node2&#45;&gt;Node13</title>
<g id="a_edge86_Node000002_Node000013"><a xlink:title=" ">
<path fill="none" stroke="#63b8ff" d="M276.43,-296.14C255.33,-283.46 223.14,-265.64 193,-255 182.16,-251.17 170.34,-248.04 158.83,-245.5"/>
<polygon fill="#63b8ff" stroke="#63b8ff" points="274.68,-299.17 285.03,-301.4 278.32,-293.2 274.68,-299.17"/>
</a>
</g>
</g>
<!-- Node2&#45;&gt;Node14 -->
<g id="edge87_Node000002_Node000014" class="edge">
<title>Node2&#45;&gt;Node14</title>
<g id="a_edge87_Node000002_Node000014"><a xlink:title=" ">
<path fill="none" stroke="#63b8ff" d="M285.14,-293.97C265.93,-273.01 230.47,-237.78 193,-218 185.73,-214.16 177.82,-210.88 169.78,-208.09"/>
<polygon fill="#63b8ff" stroke="#63b8ff" points="282.61,-296.39 291.9,-301.49 287.82,-291.71 282.61,-296.39"/>
</a>
</g>
</g>
<!-- Node2&#45;&gt;Node15 -->
<g id="edge88_Node000002_Node000015" class="edge">
<title>Node2&#45;&gt;Node15</title>
<g id="a_edge88_Node000002_Node000015"><a xlink:title=" ">
<path fill="none" stroke="#63b8ff" d="M291.49,-292.24C276.4,-261.23 241.85,-199.68 193,-169 186.84,-165.13 180.06,-162.03 173.04,-159.54"/>
<polygon fill="#63b8ff" stroke="#63b8ff" points="288.43,-293.95 295.86,-301.5 294.76,-290.96 288.43,-293.95"/>
</a>
</g>
</g>
<!-- Node2&#45;&gt;Node16 -->
<g id="edge89_Node000002_Node000016" class="edge">
<title>Node2&#45;&gt;Node16</title>
<g id="a_edge89_Node000002_Node000016"><a xlink:title=" ">
<path fill="none" stroke="#63b8ff" d="M294.25,-291.68C282.11,-254.43 250.16,-172.74 193,-132 186.65,-127.48 179.51,-123.93 172.05,-121.16"/>
<polygon fill="#63b8ff" stroke="#63b8ff" points="290.94,-292.84 297.27,-301.33 297.62,-290.75 290.94,-292.84"/>
</a>
</g>
</g>
<!-- Node2&#45;&gt;Node17 -->
<g id="edge90_Node000002_Node000017" class="edge">
<title>Node2&#45;&gt;Node17</title>
<g id="a_edge90_Node000002_Node000017"><a xlink:title=" ">
<path fill="none" stroke="#63b8ff" d="M296.03,-291.6C286.32,-249.14 257.31,-147.53 193,-94 187.17,-89.15 180.53,-85.17 173.52,-81.9"/>
<polygon fill="#63b8ff" stroke="#63b8ff" points="292.64,-292.46 298.18,-301.49 299.48,-290.97 292.64,-292.46"/>
</a>
</g>
</g>
<!-- Node2&#45;&gt;Node18 -->
<g id="edge91_Node000002_Node000018" class="edge">
<title>Node2&#45;&gt;Node18</title>
<g id="a_edge91_Node000002_Node000018"><a xlink:title=" ">
<path fill="none" stroke="#63b8ff" d="M297.96,-291.24C291.79,-241.84 268.82,-111.96 193,-43 186.74,-37.3 179.37,-32.76 171.56,-29.14"/>
<polygon fill="#63b8ff" stroke="#63b8ff" points="294.49,-291.72 299.11,-301.26 301.45,-290.92 294.49,-291.72"/>
</a>
</g>
</g>
</g>
</svg>
