<?xml version="1.0" encoding="UTF-8" standalone="no"?>
<!DOCTYPE svg PUBLIC "-//W3C//DTD SVG 1.1//EN"
 "http://www.w3.org/Graphics/SVG/1.1/DTD/svg11.dtd">
<!-- Generated by graphviz version 2.43.0 (0)
 -->
<!-- Title: cam.nc.makerbot_codes.Codes.SUBPROG_END Pages: 1 -->
<svg width="385pt" height="64pt"
 viewBox="0.00 0.00 385.00 64.00" xmlns="http://www.w3.org/2000/svg" xmlns:xlink="http://www.w3.org/1999/xlink">
<g id="graph0" class="graph" transform="scale(1 1) rotate(0) translate(4 60)">
<title>cam.nc.makerbot_codes.Codes.SUBPROG_END</title>
<!-- Node1 -->
<g id="Node000001" class="node">
<title>Node1</title>
<g id="a_Node000001"><a xlink:title=" ">
<polygon fill="#999999" stroke="#666666" points="377,-42.5 206,-42.5 206,-12.5 377,-12.5 377,-42.5"/>
<text text-anchor="start" x="214" y="-30.5" font-family="Helvetica,sans-Serif" font-size="10.00">cam.nc.makerbot_codes.Codes.</text>
<text text-anchor="middle" x="291.5" y="-19.5" font-family="Helvetica,sans-Serif" font-size="10.00">SUBPROG_END</text>
</a>
</g>
</g>
<!-- Node2 -->
<g id="Node000002" class="node">
<title>Node2</title>
<g id="a_Node000002"><a xlink:href="$classcam_1_1nc_1_1heiden_1_1Creator.html#aa2e0de80c4f26b122ec08a3d6d8452c7" xlink:title=" ">
<polygon fill="white" stroke="#666666" points="170,-56 0,-56 0,-37 170,-37 170,-56"/>
<text text-anchor="middle" x="85" y="-44" font-family="Helvetica,sans-Serif" font-size="10.00">cam.nc.heiden.Creator.sub_end</text>
</a>
</g>
</g>
<!-- Node1&#45;&gt;Node2 -->
<g id="edge5_Node000001_Node000002" class="edge">
<title>Node1&#45;&gt;Node2</title>
<g id="a_edge5_Node000001_Node000002"><a xlink:title=" ">
<path fill="none" stroke="#63b8ff" d="M195.86,-36.29C187.32,-37.09 178.71,-37.89 170.26,-38.67"/>
<polygon fill="#63b8ff" stroke="#63b8ff" points="196.21,-39.78 205.85,-35.37 195.56,-32.81 196.21,-39.78"/>
</a>
</g>
</g>
<!-- Node3 -->
<g id="Node000003" class="node">
<title>Node3</title>
<g id="a_Node000003"><a xlink:href="$classcam_1_1nc_1_1iso_1_1Creator.html#aa52fa25396f5339439f91854a7cc2c62" xlink:title=" ">
<polygon fill="white" stroke="#666666" points="160.5,-19 9.5,-19 9.5,0 160.5,0 160.5,-19"/>
<text text-anchor="middle" x="85" y="-7" font-family="Helvetica,sans-Serif" font-size="10.00">cam.nc.iso.Creator.sub_end</text>
</a>
</g>
</g>
<!-- Node1&#45;&gt;Node3 -->
<g id="edge6_Node000001_Node000003" class="edge">
<title>Node1&#45;&gt;Node3</title>
<g id="a_edge6_Node000001_Node000003"><a xlink:title=" ">
<path fill="none" stroke="#63b8ff" d="M195.62,-19.15C183.94,-18.12 172.12,-17.08 160.79,-16.08"/>
<polygon fill="#63b8ff" stroke="#63b8ff" points="195.58,-22.66 205.85,-20.05 196.19,-15.69 195.58,-22.66"/>
</a>
</g>
</g>
</g>
</svg>
