<?xml version="1.0" encoding="UTF-8" standalone="no"?>
<!DOCTYPE svg PUBLIC "-//W3C//DTD SVG 1.1//EN"
 "http://www.w3.org/Graphics/SVG/1.1/DTD/svg11.dtd">
<!-- Generated by graphviz version 2.43.0 (0)
 -->
<!-- Title: cam.nc.cad_nc_read.Parser.add_arc Pages: 1 -->
<svg width="409pt" height="45pt"
 viewBox="0.00 0.00 409.00 45.00" xmlns="http://www.w3.org/2000/svg" xmlns:xlink="http://www.w3.org/1999/xlink">
<g id="graph0" class="graph" transform="scale(1 1) rotate(0) translate(4 41)">
<title>cam.nc.cad_nc_read.Parser.add_arc</title>
<!-- Node1 -->
<g id="Node000001" class="node">
<title>Node1</title>
<g id="a_Node000001"><a xlink:title=" ">
<polygon fill="#999999" stroke="#666666" points="189,-19 0,-19 0,0 189,0 189,-19"/>
<text text-anchor="middle" x="94.5" y="-7" font-family="Helvetica,sans-Serif" font-size="10.00">cam.nc.cad_nc_read.Parser.add_arc</text>
</a>
</g>
</g>
<!-- Node2 -->
<g id="Node000002" class="node">
<title>Node2</title>
<g id="a_Node000002"><a xlink:href="$classcam_1_1nc_1_1cad__nc__read_1_1Parser.html#adcf2f47949df29f187f27fe985884633" xlink:title=" ">
<polygon fill="white" stroke="#666666" points="401,-19 225,-19 225,0 401,0 401,-19"/>
<text text-anchor="middle" x="313" y="-7" font-family="Helvetica,sans-Serif" font-size="10.00">cam.nc.cad_nc_read.Parser.write</text>
</a>
</g>
</g>
<!-- Node1&#45;&gt;Node2 -->
<g id="edge5_Node000001_Node000002" class="edge">
<title>Node1&#45;&gt;Node2</title>
<g id="a_edge5_Node000001_Node000002"><a xlink:title=" ">
<path fill="none" stroke="#63b8ff" d="M189.2,-9.5C197.74,-9.5 206.41,-9.5 214.98,-9.5"/>
<polygon fill="#63b8ff" stroke="#63b8ff" points="214.98,-13 224.98,-9.5 214.98,-6 214.98,-13"/>
</a>
</g>
</g>
<!-- Node2&#45;&gt;Node2 -->
<g id="edge6_Node000002_Node000002" class="edge">
<title>Node2&#45;&gt;Node2</title>
<g id="a_edge6_Node000002_Node000002"><a xlink:title=" ">
<path fill="none" stroke="#63b8ff" d="M279.4,-19.08C263.05,-27.73 274.25,-37 313,-37 340.85,-37 354.47,-32.21 353.86,-26.31"/>
<polygon fill="#63b8ff" stroke="#63b8ff" points="356.16,-23.66 346.6,-19.08 351.22,-28.62 356.16,-23.66"/>
</a>
</g>
</g>
</g>
</svg>
