<?xml version="1.0" encoding="UTF-8" standalone="no"?>
<!DOCTYPE svg PUBLIC "-//W3C//DTD SVG 1.1//EN"
 "http://www.w3.org/Graphics/SVG/1.1/DTD/svg11.dtd">
<!-- Generated by graphviz version 2.43.0 (0)
 -->
<!-- Title: cam.nc.iso.Creator.WORKPLANE_BASE Pages: 1 -->
<svg width="441pt" height="224pt"
 viewBox="0.00 0.00 441.00 223.50" xmlns="http://www.w3.org/2000/svg" xmlns:xlink="http://www.w3.org/1999/xlink">
<g id="graph0" class="graph" transform="scale(1 1) rotate(0) translate(4 219.5)">
<title>cam.nc.iso.Creator.WORKPLANE_BASE</title>
<!-- Node1 -->
<g id="Node000001" class="node">
<title>Node1</title>
<g id="a_Node000001"><a xlink:title=" ">
<polygon fill="#999999" stroke="#666666" points="433,-111 229,-111 229,-92 433,-92 433,-111"/>
<text text-anchor="middle" x="331" y="-99" font-family="Helvetica,sans-Serif" font-size="10.00">cam.nc.iso.Creator.WORKPLANE_BASE</text>
</a>
</g>
</g>
<!-- Node2 -->
<g id="Node000002" class="node">
<title>Node2</title>
<g id="a_Node000002"><a xlink:href="$classcam_1_1nc_1_1anilam__crusader__m_1_1Creator.html#a66554c71e120972ac1586f8468783061" xlink:title=" ">
<polygon fill="white" stroke="#666666" points="164.5,-215.5 28.5,-215.5 28.5,-185.5 164.5,-185.5 164.5,-215.5"/>
<text text-anchor="start" x="36.5" y="-203.5" font-family="Helvetica,sans-Serif" font-size="10.00">cam.nc.anilam_crusader</text>
<text text-anchor="middle" x="96.5" y="-192.5" font-family="Helvetica,sans-Serif" font-size="10.00">_m.Creator.workplane</text>
</a>
</g>
</g>
<!-- Node1&#45;&gt;Node2 -->
<g id="edge13_Node000001_Node000002" class="edge">
<title>Node1&#45;&gt;Node2</title>
<g id="a_edge13_Node000001_Node000002"><a xlink:title=" ">
<path fill="none" stroke="#63b8ff" d="M306.83,-116.59C280.28,-133.29 235,-160.04 193,-176.5 184.01,-180.02 174.33,-183.16 164.71,-185.91"/>
<polygon fill="#63b8ff" stroke="#63b8ff" points="308.85,-119.45 315.4,-111.13 305.09,-113.54 308.85,-119.45"/>
</a>
</g>
</g>
<!-- Node3 -->
<g id="Node000003" class="node">
<title>Node3</title>
<g id="a_Node000003"><a xlink:href="$classcam_1_1nc_1_1centroid1_1_1Creator.html#a7fefda5c24dbf94920acc2044d7002fe" xlink:title="coordinate system ie G54&#45;G59">
<polygon fill="white" stroke="#666666" points="193,-167 0,-167 0,-148 193,-148 193,-167"/>
<text text-anchor="middle" x="96.5" y="-155" font-family="Helvetica,sans-Serif" font-size="10.00">cam.nc.centroid1.Creator.workplane</text>
</a>
</g>
</g>
<!-- Node1&#45;&gt;Node3 -->
<g id="edge14_Node000001_Node000003" class="edge">
<title>Node1&#45;&gt;Node3</title>
<g id="a_edge14_Node000001_Node000003"><a xlink:title=" ">
<path fill="none" stroke="#63b8ff" d="M288.73,-113.92C261.66,-121.83 225.4,-131.97 193,-139.5 179.94,-142.54 165.78,-145.42 152.46,-147.96"/>
<polygon fill="#63b8ff" stroke="#63b8ff" points="290.03,-117.19 298.63,-111.01 288.05,-110.48 290.03,-117.19"/>
</a>
</g>
</g>
<!-- Node4 -->
<g id="Node000004" class="node">
<title>Node4</title>
<g id="a_Node000004"><a xlink:href="$classcam_1_1nc_1_1emc2_1_1Creator.html#a8218700b9d0a8eaae13606f5834701b3" xlink:title=" ">
<polygon fill="white" stroke="#666666" points="183.5,-130 9.5,-130 9.5,-111 183.5,-111 183.5,-130"/>
<text text-anchor="middle" x="96.5" y="-118" font-family="Helvetica,sans-Serif" font-size="10.00">cam.nc.emc2.Creator.workplane</text>
</a>
</g>
</g>
<!-- Node1&#45;&gt;Node4 -->
<g id="edge15_Node000001_Node000004" class="edge">
<title>Node1&#45;&gt;Node4</title>
<g id="a_edge15_Node000001_Node000004"><a xlink:title=" ">
<path fill="none" stroke="#63b8ff" d="M218.43,-110.62C206.71,-111.58 194.92,-112.54 183.56,-113.47"/>
<polygon fill="#63b8ff" stroke="#63b8ff" points="219.02,-114.08 228.7,-109.78 218.45,-107.1 219.02,-114.08"/>
</a>
</g>
</g>
<!-- Node5 -->
<g id="Node000005" class="node">
<title>Node5</title>
<g id="a_Node000005"><a xlink:href="$classcam_1_1nc_1_1heiden_1_1Creator.html#a0bb1dcc4220b7021b792bc336e4ab944" xlink:title=" ">
<polygon fill="white" stroke="#666666" points="186.5,-93 6.5,-93 6.5,-74 186.5,-74 186.5,-93"/>
<text text-anchor="middle" x="96.5" y="-81" font-family="Helvetica,sans-Serif" font-size="10.00">cam.nc.heiden.Creator.workplane</text>
</a>
</g>
</g>
<!-- Node1&#45;&gt;Node5 -->
<g id="edge16_Node000001_Node000005" class="edge">
<title>Node1&#45;&gt;Node5</title>
<g id="a_edge16_Node000001_Node000005"><a xlink:title=" ">
<path fill="none" stroke="#63b8ff" d="M218.52,-92.87C207.88,-92.05 197.18,-91.22 186.79,-90.41"/>
<polygon fill="#63b8ff" stroke="#63b8ff" points="218.46,-96.37 228.7,-93.66 219,-89.4 218.46,-96.37"/>
</a>
</g>
</g>
<!-- Node6 -->
<g id="Node000006" class="node">
<title>Node6</title>
<g id="a_Node000006"><a xlink:href="$classcam_1_1nc_1_1iso_1_1Creator.html#af689dfe2c7549ab5b062fb024d47b4ae" xlink:title=" ">
<polygon fill="white" stroke="#666666" points="177,-56 16,-56 16,-37 177,-37 177,-56"/>
<text text-anchor="middle" x="96.5" y="-44" font-family="Helvetica,sans-Serif" font-size="10.00">cam.nc.iso.Creator.workplane</text>
</a>
</g>
</g>
<!-- Node1&#45;&gt;Node6 -->
<g id="edge17_Node000001_Node000006" class="edge">
<title>Node1&#45;&gt;Node6</title>
<g id="a_edge17_Node000001_Node000006"><a xlink:title=" ">
<path fill="none" stroke="#63b8ff" d="M286.23,-89.28C259.42,-81.97 224.34,-72.73 193,-65.5 178.67,-62.19 163.05,-58.94 148.67,-56.09"/>
<polygon fill="#63b8ff" stroke="#63b8ff" points="285.51,-92.71 296.08,-91.97 287.36,-85.96 285.51,-92.71"/>
</a>
</g>
</g>
<!-- Node7 -->
<g id="Node000007" class="node">
<title>Node7</title>
<g id="a_Node000007"><a xlink:href="$classcam_1_1nc_1_1winpc_1_1Creator.html#a35e54099e5ecfbda678d8f66bc281994" xlink:title=" ">
<polygon fill="white" stroke="#666666" points="184.5,-19 8.5,-19 8.5,0 184.5,0 184.5,-19"/>
<text text-anchor="middle" x="96.5" y="-7" font-family="Helvetica,sans-Serif" font-size="10.00">cam.nc.winpc.Creator.workplane</text>
</a>
</g>
</g>
<!-- Node1&#45;&gt;Node7 -->
<g id="edge18_Node000001_Node000007" class="edge">
<title>Node1&#45;&gt;Node7</title>
<g id="a_edge18_Node000001_Node000007"><a xlink:title=" ">
<path fill="none" stroke="#63b8ff" d="M306.91,-86.47C280.44,-69.89 235.23,-43.58 193,-28.5 182.33,-24.69 170.71,-21.57 159.36,-19.05"/>
<polygon fill="#63b8ff" stroke="#63b8ff" points="305.14,-89.49 315.46,-91.89 308.89,-83.58 305.14,-89.49"/>
</a>
</g>
</g>
</g>
</svg>
