<?xml version="1.0" encoding="UTF-8" standalone="no"?>
<!DOCTYPE svg PUBLIC "-//W3C//DTD SVG 1.1//EN"
 "http://www.w3.org/Graphics/SVG/1.1/DTD/svg11.dtd">
<!-- Generated by graphviz version 2.43.0 (0)
 -->
<!-- Title: cam.nc.nclathe_read.Parser.set_mode Pages: 1 -->
<svg width="690pt" height="179pt"
 viewBox="0.00 0.00 690.00 178.50" xmlns="http://www.w3.org/2000/svg" xmlns:xlink="http://www.w3.org/1999/xlink">
<g id="graph0" class="graph" transform="scale(1 1) rotate(0) translate(4 174.5)">
<title>cam.nc.nclathe_read.Parser.set_mode</title>
<!-- Node1 -->
<g id="Node000001" class="node">
<title>Node1</title>
<g id="a_Node000001"><a xlink:title=" ">
<polygon fill="#999999" stroke="#666666" points="682,-93.5 481,-93.5 481,-74.5 682,-74.5 682,-93.5"/>
<text text-anchor="middle" x="581.5" y="-81.5" font-family="Helvetica,sans-Serif" font-size="10.00">cam.nc.nclathe_read.Parser.set_mode</text>
</a>
</g>
</g>
<!-- Node2 -->
<g id="Node000002" class="node">
<title>Node2</title>
<g id="a_Node000002"><a xlink:href="$classcam_1_1nc_1_1hxml__writer_1_1HxmlWriter.html#a436a65a95d5fe72d3bd218df50330d54" xlink:title=" ">
<polygon fill="white" stroke="#666666" points="445,-152.5 230,-152.5 230,-133.5 445,-133.5 445,-152.5"/>
<text text-anchor="middle" x="337.5" y="-140.5" font-family="Helvetica,sans-Serif" font-size="10.00">cam.nc.hxml_writer.HxmlWriter.imperial</text>
</a>
</g>
</g>
<!-- Node1&#45;&gt;Node2 -->
<g id="edge13_Node000001_Node000002" class="edge">
<title>Node1&#45;&gt;Node2</title>
<g id="a_edge13_Node000001_Node000002"><a xlink:title=" ">
<path fill="none" stroke="#63b8ff" d="M542.94,-96.76C515.94,-105.59 478.52,-117.13 445,-125 431.49,-128.17 416.89,-131.01 402.96,-133.45"/>
<polygon fill="#63b8ff" stroke="#63b8ff" points="544.35,-99.98 552.75,-93.52 542.16,-93.33 544.35,-99.98"/>
</a>
</g>
</g>
<!-- Node4 -->
<g id="Node000004" class="node">
<title>Node4</title>
<g id="a_Node000004"><a xlink:href="$classcam_1_1nc_1_1hxml__writer_1_1HxmlWriter.html#afaf943891cd90b76fa6af488bc9aa1bb" xlink:title=" ">
<polygon fill="white" stroke="#666666" points="440.5,-115.5 234.5,-115.5 234.5,-96.5 440.5,-96.5 440.5,-115.5"/>
<text text-anchor="middle" x="337.5" y="-103.5" font-family="Helvetica,sans-Serif" font-size="10.00">cam.nc.hxml_writer.HxmlWriter.metric</text>
</a>
</g>
</g>
<!-- Node1&#45;&gt;Node4 -->
<g id="edge16_Node000001_Node000004" class="edge">
<title>Node1&#45;&gt;Node4</title>
<g id="a_edge16_Node000001_Node000004"><a xlink:title=" ">
<path fill="none" stroke="#63b8ff" d="M470.44,-94.01C460.58,-94.9 450.63,-95.81 440.84,-96.7"/>
<polygon fill="#63b8ff" stroke="#63b8ff" points="471.03,-97.47 480.67,-93.08 470.4,-90.5 471.03,-97.47"/>
</a>
</g>
</g>
<!-- Node5 -->
<g id="Node000005" class="node">
<title>Node5</title>
<g id="a_Node000005"><a xlink:href="$classcam_1_1nc_1_1cad__read_1_1CAD__backplot.html#afce7c30e482cfb88a36593d4020909d7" xlink:title=" ">
<polygon fill="white" stroke="#666666" points="399,-78 276,-78 276,-48 399,-48 399,-78"/>
<text text-anchor="start" x="284" y="-66" font-family="Helvetica,sans-Serif" font-size="10.00">cam.nc.cad_read.CAD</text>
<text text-anchor="middle" x="337.5" y="-55" font-family="Helvetica,sans-Serif" font-size="10.00">_backplot.Parse</text>
</a>
</g>
</g>
<!-- Node1&#45;&gt;Node5 -->
<g id="edge17_Node000001_Node000005" class="edge">
<title>Node1&#45;&gt;Node5</title>
<g id="a_edge17_Node000001_Node000005"><a xlink:title=" ">
<path fill="none" stroke="#63b8ff" d="M470.59,-74.46C446.08,-72.34 420.97,-70.16 399.3,-68.28"/>
<polygon fill="#63b8ff" stroke="#63b8ff" points="470.41,-77.96 480.67,-75.34 471.01,-70.99 470.41,-77.96"/>
</a>
</g>
</g>
<!-- Node6 -->
<g id="Node000006" class="node">
<title>Node6</title>
<g id="a_Node000006"><a xlink:href="$classcam_1_1nc_1_1lathe1__read_1_1Parser.html#a4046e981f4f946bed728de957d10365f" xlink:title=" ">
<polygon fill="white" stroke="#666666" points="411.5,-30 263.5,-30 263.5,0 411.5,0 411.5,-30"/>
<text text-anchor="start" x="271.5" y="-18" font-family="Helvetica,sans-Serif" font-size="10.00">cam.nc.lathe1_read.Parser.</text>
<text text-anchor="middle" x="337.5" y="-7" font-family="Helvetica,sans-Serif" font-size="10.00">Parse</text>
</a>
</g>
</g>
<!-- Node1&#45;&gt;Node6 -->
<g id="edge18_Node000001_Node000006" class="edge">
<title>Node1&#45;&gt;Node6</title>
<g id="a_edge18_Node000001_Node000006"><a xlink:title=" ">
<path fill="none" stroke="#63b8ff" d="M544.79,-71.06C517.64,-61.49 479.24,-48.52 445,-39 433.68,-35.85 421.59,-32.82 409.78,-30.04"/>
<polygon fill="#63b8ff" stroke="#63b8ff" points="543.66,-74.38 554.25,-74.42 546,-67.78 543.66,-74.38"/>
</a>
</g>
</g>
<!-- Node3 -->
<g id="Node000003" class="node">
<title>Node3</title>
<g id="a_Node000003"><a xlink:href="$classcam_1_1nc_1_1recreator_1_1Redirector.html#aac89af9940b239a0231eaf6d86be2c28" xlink:title="Settings.">
<polygon fill="white" stroke="#666666" points="194,-152.5 0,-152.5 0,-133.5 194,-133.5 194,-152.5"/>
<text text-anchor="middle" x="97" y="-140.5" font-family="Helvetica,sans-Serif" font-size="10.00">cam.nc.recreator.Redirector.imperial</text>
</a>
</g>
</g>
<!-- Node2&#45;&gt;Node3 -->
<g id="edge14_Node000002_Node000003" class="edge">
<title>Node2&#45;&gt;Node3</title>
<g id="a_edge14_Node000002_Node000003"><a xlink:title=" ">
<path fill="none" stroke="#63b8ff" d="M219.73,-143C211.13,-143 202.52,-143 194.06,-143"/>
<polygon fill="#63b8ff" stroke="#63b8ff" points="219.81,-146.5 229.81,-143 219.81,-139.5 219.81,-146.5"/>
</a>
</g>
</g>
<!-- Node3&#45;&gt;Node3 -->
<g id="edge15_Node000003_Node000003" class="edge">
<title>Node3&#45;&gt;Node3</title>
<g id="a_edge15_Node000003_Node000003"><a xlink:title=" ">
<path fill="none" stroke="#63b8ff" d="M141.8,-159.03C143.93,-165.29 128.99,-170.5 97,-170.5 54.34,-170.5 42.01,-161.23 60.01,-152.58"/>
<polygon fill="#63b8ff" stroke="#63b8ff" points="143.93,-156.25 133.99,-152.58 139.47,-161.65 143.93,-156.25"/>
</a>
</g>
</g>
</g>
</svg>
