<?xml version="1.0" encoding="UTF-8" standalone="no"?>
<!DOCTYPE svg PUBLIC "-//W3C//DTD SVG 1.1//EN"
 "http://www.w3.org/Graphics/SVG/1.1/DTD/svg11.dtd">
<!-- Generated by graphviz version 2.43.0 (0)
 -->
<!-- Title: cam.nc.heiden.Creator.VARIABLE_SET Pages: 1 -->
<svg width="463pt" height="101pt"
 viewBox="0.00 0.00 463.00 101.00" xmlns="http://www.w3.org/2000/svg" xmlns:xlink="http://www.w3.org/1999/xlink">
<g id="graph0" class="graph" transform="scale(1 1) rotate(0) translate(4 97)">
<title>cam.nc.heiden.Creator.VARIABLE_SET</title>
<!-- Node1 -->
<g id="Node000001" class="node">
<title>Node1</title>
<g id="a_Node000001"><a xlink:title=" ">
<polygon fill="#999999" stroke="#666666" points="455,-56 255,-56 255,-37 455,-37 455,-56"/>
<text text-anchor="middle" x="355" y="-44" font-family="Helvetica,sans-Serif" font-size="10.00">cam.nc.heiden.Creator.VARIABLE_SET</text>
</a>
</g>
</g>
<!-- Node2 -->
<g id="Node000002" class="node">
<title>Node2</title>
<g id="a_Node000002"><a xlink:href="$classcam_1_1nc_1_1heiden_1_1Creator.html#aeaa3480468f78b1be737304bd08671cf" xlink:title=" ">
<polygon fill="white" stroke="#666666" points="204,-93 15,-93 15,-74 204,-74 204,-93"/>
<text text-anchor="middle" x="109.5" y="-81" font-family="Helvetica,sans-Serif" font-size="10.00">cam.nc.heiden.Creator.variable_set</text>
</a>
</g>
</g>
<!-- Node1&#45;&gt;Node2 -->
<g id="edge7_Node000001_Node000002" class="edge">
<title>Node1&#45;&gt;Node2</title>
<g id="a_edge7_Node000001_Node000002"><a xlink:title=" ">
<path fill="none" stroke="#63b8ff" d="M281.32,-57.54C246.99,-62.76 206.41,-68.93 173.42,-73.94"/>
<polygon fill="#63b8ff" stroke="#63b8ff" points="281.93,-60.99 291.29,-56.03 280.88,-54.07 281.93,-60.99"/>
</a>
</g>
</g>
<!-- Node3 -->
<g id="Node000003" class="node">
<title>Node3</title>
<g id="a_Node000003"><a xlink:href="$classcam_1_1nc_1_1iso_1_1Creator.html#a04092f294815f93711efb27477a1fb89" xlink:title=" ">
<polygon fill="white" stroke="#666666" points="194.5,-56 24.5,-56 24.5,-37 194.5,-37 194.5,-56"/>
<text text-anchor="middle" x="109.5" y="-44" font-family="Helvetica,sans-Serif" font-size="10.00">cam.nc.iso.Creator.variable_set</text>
</a>
</g>
</g>
<!-- Node1&#45;&gt;Node3 -->
<g id="edge8_Node000001_Node000003" class="edge">
<title>Node1&#45;&gt;Node3</title>
<g id="a_edge8_Node000001_Node000003"><a xlink:title=" ">
<path fill="none" stroke="#63b8ff" d="M244.58,-46.5C227.82,-46.5 210.74,-46.5 194.64,-46.5"/>
<polygon fill="#63b8ff" stroke="#63b8ff" points="244.96,-50 254.96,-46.5 244.96,-43 244.96,-50"/>
</a>
</g>
</g>
<!-- Node4 -->
<g id="Node000004" class="node">
<title>Node4</title>
<g id="a_Node000004"><a xlink:href="$classcam_1_1nc_1_1shopbot__mtc_1_1Creator.html#a8e088691db975c5165bd3be0b5171e67" xlink:title=" ">
<polygon fill="white" stroke="#666666" points="219,-19 0,-19 0,0 219,0 219,-19"/>
<text text-anchor="middle" x="109.5" y="-7" font-family="Helvetica,sans-Serif" font-size="10.00">cam.nc.shopbot_mtc.Creator.variable_set</text>
</a>
</g>
</g>
<!-- Node1&#45;&gt;Node4 -->
<g id="edge9_Node000001_Node000004" class="edge">
<title>Node1&#45;&gt;Node4</title>
<g id="a_edge9_Node000001_Node000004"><a xlink:title=" ">
<path fill="none" stroke="#63b8ff" d="M281.32,-35.46C246.99,-30.24 206.41,-24.07 173.42,-19.06"/>
<polygon fill="#63b8ff" stroke="#63b8ff" points="280.88,-38.93 291.29,-36.97 281.93,-32.01 280.88,-38.93"/>
</a>
</g>
</g>
</g>
</svg>
