<?xml version="1.0" encoding="UTF-8" standalone="no"?>
<!DOCTYPE svg PUBLIC "-//W3C//DTD SVG 1.1//EN"
 "http://www.w3.org/Graphics/SVG/1.1/DTD/svg11.dtd">
<!-- Generated by graphviz version 2.43.0 (0)
 -->
<!-- Title: cam.nc.hxml_writer.HxmlWriter.begin_path Pages: 1 -->
<svg width="1161pt" height="987pt"
 viewBox="0.00 0.00 1161.00 986.50" xmlns="http://www.w3.org/2000/svg" xmlns:xlink="http://www.w3.org/1999/xlink">
<g id="graph0" class="graph" transform="scale(1 1) rotate(0) translate(4 982.5)">
<title>cam.nc.hxml_writer.HxmlWriter.begin_path</title>
<!-- Node1 -->
<g id="Node000001" class="node">
<title>Node1</title>
<g id="a_Node000001"><a xlink:title=" ">
<polygon fill="#999999" stroke="#666666" points="1153,-211.5 925,-211.5 925,-192.5 1153,-192.5 1153,-211.5"/>
<text text-anchor="middle" x="1039" y="-199.5" font-family="Helvetica,sans-Serif" font-size="10.00">cam.nc.hxml_writer.HxmlWriter.begin_path</text>
</a>
</g>
</g>
<!-- Node2 -->
<g id="Node000002" class="node">
<title>Node2</title>
<g id="a_Node000002"><a xlink:href="$classcam_1_1nc_1_1hxml__writer_1_1HxmlWriter.html#aa89fa08595ee9733078e37d1692857f3" xlink:title=" ">
<polygon fill="white" stroke="#666666" points="889,-533.5 676,-533.5 676,-514.5 889,-514.5 889,-533.5"/>
<text text-anchor="middle" x="782.5" y="-521.5" font-family="Helvetica,sans-Serif" font-size="10.00">cam.nc.hxml_writer.HxmlWriter.arc_ccw</text>
</a>
</g>
</g>
<!-- Node1&#45;&gt;Node2 -->
<g id="edge133_Node000001_Node000002" class="edge">
<title>Node1&#45;&gt;Node2</title>
<g id="a_edge133_Node000001_Node000002"><a xlink:title=" ">
<path fill="none" stroke="#63b8ff" d="M1034.67,-221.81C1024.31,-276.88 987.22,-432.56 889,-506 884.54,-509.34 879.67,-512.14 874.56,-514.49"/>
<polygon fill="#63b8ff" stroke="#63b8ff" points="1038.18,-222.11 1036.49,-211.65 1031.29,-220.88 1038.18,-222.11"/>
</a>
</g>
</g>
<!-- Node3 -->
<g id="Node000003" class="node">
<title>Node3</title>
<g id="a_Node000003"><a xlink:href="$classcam_1_1nc_1_1hxml__writer_1_1HxmlWriter.html#a403fdf3735ec6e70365ddac2a134222f" xlink:title=" ">
<polygon fill="white" stroke="#666666" points="886.5,-496.5 678.5,-496.5 678.5,-477.5 886.5,-477.5 886.5,-496.5"/>
<text text-anchor="middle" x="782.5" y="-484.5" font-family="Helvetica,sans-Serif" font-size="10.00">cam.nc.hxml_writer.HxmlWriter.arc_cw</text>
</a>
</g>
</g>
<!-- Node1&#45;&gt;Node3 -->
<g id="edge134_Node000001_Node000003" class="edge">
<title>Node1&#45;&gt;Node3</title>
<g id="a_edge134_Node000001_Node000003"><a xlink:title=" ">
<path fill="none" stroke="#63b8ff" d="M1033.37,-221.41C1020.33,-271.55 978.26,-405.9 889,-469 884.3,-472.33 879.19,-475.11 873.83,-477.43"/>
<polygon fill="#63b8ff" stroke="#63b8ff" points="1036.81,-222.09 1035.84,-211.54 1030.02,-220.39 1036.81,-222.09"/>
</a>
</g>
</g>
<!-- Node4 -->
<g id="Node000004" class="node">
<title>Node4</title>
<g id="a_Node000004"><a xlink:href="$classcam_1_1nc_1_1hxml__writer_1_1HxmlWriter.html#ac958d009942f98626d17139695d73ea0" xlink:title=" ">
<polygon fill="white" stroke="#666666" points="880.5,-459.5 684.5,-459.5 684.5,-440.5 880.5,-440.5 880.5,-459.5"/>
<text text-anchor="middle" x="782.5" y="-447.5" font-family="Helvetica,sans-Serif" font-size="10.00">cam.nc.hxml_writer.HxmlWriter.feed</text>
</a>
</g>
</g>
<!-- Node1&#45;&gt;Node4 -->
<g id="edge135_Node000001_Node000004" class="edge">
<title>Node1&#45;&gt;Node4</title>
<g id="a_edge135_Node000001_Node000004"><a xlink:title=" ">
<path fill="none" stroke="#63b8ff" d="M1021.63,-219.33C994.53,-247.89 938.41,-306.39 889,-354 855.3,-386.47 813.85,-423.32 794.47,-440.39"/>
<polygon fill="#63b8ff" stroke="#63b8ff" points="1024.44,-221.46 1028.77,-211.79 1019.36,-216.64 1024.44,-221.46"/>
</a>
</g>
</g>
<!-- Node21 -->
<g id="Node000021" class="node">
<title>Node21</title>
<g id="a_Node000021"><a xlink:href="$classcam_1_1nc_1_1cad__iso__read_1_1Parser.html#abf885d019794a8bef1b69f446c8851e1" xlink:title=" ">
<polygon fill="white" stroke="#666666" points="173.5,-321 19.5,-321 19.5,-291 173.5,-291 173.5,-321"/>
<text text-anchor="start" x="27.5" y="-309" font-family="Helvetica,sans-Serif" font-size="10.00">cam.nc.cad_iso_read.Parser.</text>
<text text-anchor="middle" x="96.5" y="-298" font-family="Helvetica,sans-Serif" font-size="10.00">Parse</text>
</a>
</g>
</g>
<!-- Node1&#45;&gt;Node21 -->
<g id="edge180_Node000001_Node000021" class="edge">
<title>Node1&#45;&gt;Node21</title>
<g id="a_edge180_Node000001_Node000021"><a xlink:title=" ">
<path fill="none" stroke="#63b8ff" d="M914.7,-201.4C844.42,-199.59 754.9,-194.82 676,-183 659.69,-180.56 656.37,-176.02 640,-174 552.22,-163.19 527.98,-157.95 441,-174 318.49,-196.61 183.31,-261.36 125.85,-290.94"/>
<polygon fill="#63b8ff" stroke="#63b8ff" points="914.85,-204.9 924.93,-201.64 915.01,-197.91 914.85,-204.9"/>
</a>
</g>
</g>
<!-- Node27 -->
<g id="Node000027" class="node">
<title>Node27</title>
<g id="a_Node000027"><a xlink:href="$classcam_1_1nc_1_1cad__read_1_1CAD__backplot.html#afce7c30e482cfb88a36593d4020909d7" xlink:title=" ">
<polygon fill="white" stroke="#666666" points="844,-174 721,-174 721,-144 844,-144 844,-174"/>
<text text-anchor="start" x="729" y="-162" font-family="Helvetica,sans-Serif" font-size="10.00">cam.nc.cad_read.CAD</text>
<text text-anchor="middle" x="782.5" y="-151" font-family="Helvetica,sans-Serif" font-size="10.00">_backplot.Parse</text>
</a>
</g>
</g>
<!-- Node1&#45;&gt;Node27 -->
<g id="edge181_Node000001_Node000027" class="edge">
<title>Node1&#45;&gt;Node27</title>
<g id="a_edge181_Node000001_Node000027"><a xlink:title=" ">
<path fill="none" stroke="#63b8ff" d="M971.48,-190.76C932.1,-184.11 882.59,-175.74 844.27,-169.27"/>
<polygon fill="#63b8ff" stroke="#63b8ff" points="971.07,-194.24 981.52,-192.46 972.24,-187.34 971.07,-194.24"/>
</a>
</g>
</g>
<!-- Node28 -->
<g id="Node000028" class="node">
<title>Node28</title>
<g id="a_Node000028"><a xlink:href="$classcam_1_1nc_1_1lathe1__read_1_1Parser.html#a4046e981f4f946bed728de957d10365f" xlink:title=" ">
<polygon fill="white" stroke="#666666" points="856.5,-126 708.5,-126 708.5,-96 856.5,-96 856.5,-126"/>
<text text-anchor="start" x="716.5" y="-114" font-family="Helvetica,sans-Serif" font-size="10.00">cam.nc.lathe1_read.Parser.</text>
<text text-anchor="middle" x="782.5" y="-103" font-family="Helvetica,sans-Serif" font-size="10.00">Parse</text>
</a>
</g>
</g>
<!-- Node1&#45;&gt;Node28 -->
<g id="edge182_Node000001_Node000028" class="edge">
<title>Node1&#45;&gt;Node28</title>
<g id="a_edge182_Node000001_Node000028"><a xlink:title=" ">
<path fill="none" stroke="#63b8ff" d="M1010.44,-187.6C981.03,-172.72 932.74,-149.65 889,-135 878.67,-131.54 867.6,-128.42 856.67,-125.65"/>
<polygon fill="#63b8ff" stroke="#63b8ff" points="1009.16,-190.88 1019.66,-192.32 1012.35,-184.65 1009.16,-190.88"/>
</a>
</g>
</g>
<!-- Node29 -->
<g id="Node000029" class="node">
<title>Node29</title>
<g id="a_Node000029"><a xlink:href="$classcam_1_1nc_1_1hpgl2d__read_1_1Parser.html#afa14f139b2b41ae0e70c8ee16d661e31" xlink:title=" ">
<polygon fill="white" stroke="#666666" points="857.5,-78 707.5,-78 707.5,-48 857.5,-48 857.5,-78"/>
<text text-anchor="start" x="715.5" y="-66" font-family="Helvetica,sans-Serif" font-size="10.00">cam.nc.hpgl2d_read.Parser.</text>
<text text-anchor="middle" x="782.5" y="-55" font-family="Helvetica,sans-Serif" font-size="10.00">ParseAA</text>
</a>
</g>
</g>
<!-- Node1&#45;&gt;Node29 -->
<g id="edge183_Node000001_Node000029" class="edge">
<title>Node1&#45;&gt;Node29</title>
<g id="a_edge183_Node000001_Node000029"><a xlink:title=" ">
<path fill="none" stroke="#63b8ff" d="M1021.4,-185.15C995.5,-159.87 942.84,-112.38 889,-87 879.15,-82.35 868.34,-78.58 857.52,-75.53"/>
<polygon fill="#63b8ff" stroke="#63b8ff" points="1018.98,-187.68 1028.55,-192.23 1023.91,-182.71 1018.98,-187.68"/>
</a>
</g>
</g>
<!-- Node32 -->
<g id="Node000032" class="node">
<title>Node32</title>
<g id="a_Node000032"><a xlink:href="$classcam_1_1nc_1_1hpgl3d__read_1_1Parser.html#ae1ce5f283aa57d7de17d269c42a17c90" xlink:title=" ">
<polygon fill="white" stroke="#666666" points="857.5,-30 707.5,-30 707.5,0 857.5,0 857.5,-30"/>
<text text-anchor="start" x="715.5" y="-18" font-family="Helvetica,sans-Serif" font-size="10.00">cam.nc.hpgl3d_read.Parser.</text>
<text text-anchor="middle" x="782.5" y="-7" font-family="Helvetica,sans-Serif" font-size="10.00">ParseZ</text>
</a>
</g>
</g>
<!-- Node1&#45;&gt;Node32 -->
<g id="edge186_Node000001_Node000032" class="edge">
<title>Node1&#45;&gt;Node32</title>
<g id="a_edge186_Node000001_Node000032"><a xlink:title=" ">
<path fill="none" stroke="#63b8ff" d="M1026.95,-183.93C1005.1,-149.86 952.91,-76.19 889,-39 879.42,-33.43 868.65,-29.15 857.75,-25.86"/>
<polygon fill="#63b8ff" stroke="#63b8ff" points="1024,-185.83 1032.29,-192.43 1029.93,-182.1 1024,-185.83"/>
</a>
</g>
</g>
<!-- Node34 -->
<g id="Node000034" class="node">
<title>Node34</title>
<g id="a_Node000034"><a xlink:href="$classcam_1_1nc_1_1hxml__writer_1_1HxmlWriter.html#ab35840b54db51f029936075a62ce2ff6" xlink:title=" ">
<polygon fill="white" stroke="#666666" points="882,-344.5 683,-344.5 683,-325.5 882,-325.5 882,-344.5"/>
<text text-anchor="middle" x="782.5" y="-332.5" font-family="Helvetica,sans-Serif" font-size="10.00">cam.nc.hxml_writer.HxmlWriter.rapid</text>
</a>
</g>
</g>
<!-- Node1&#45;&gt;Node34 -->
<g id="edge189_Node000001_Node000034" class="edge">
<title>Node1&#45;&gt;Node34</title>
<g id="a_edge189_Node000001_Node000034"><a xlink:title=" ">
<path fill="none" stroke="#63b8ff" d="M1010.7,-216.27C958.61,-243.49 846.26,-302.2 801.98,-325.34"/>
<polygon fill="#63b8ff" stroke="#63b8ff" points="1012.46,-219.3 1019.7,-211.57 1009.21,-213.09 1012.46,-219.3"/>
</a>
</g>
</g>
<!-- Node5 -->
<g id="Node000005" class="node">
<title>Node5</title>
<g id="a_Node000005"><a xlink:href="$classcam_1_1nc_1_1heiden_1_1Creator.html#a78c90cc7cedad79ff356840b59527774" xlink:title=" ">
<polygon fill="white" stroke="#666666" points="612.5,-620.5 468.5,-620.5 468.5,-601.5 612.5,-601.5 612.5,-620.5"/>
<text text-anchor="middle" x="540.5" y="-608.5" font-family="Helvetica,sans-Serif" font-size="10.00">cam.nc.heiden.Creator.arc</text>
</a>
</g>
</g>
<!-- Node4&#45;&gt;Node5 -->
<g id="edge136_Node000004_Node000005" class="edge">
<title>Node4&#45;&gt;Node5</title>
<g id="a_edge136_Node000004_Node000005"><a xlink:title=" ">
<path fill="none" stroke="#63b8ff" d="M680.89,-465.08C679.2,-466.3 677.57,-467.61 676,-469 635.01,-505.42 679.86,-549.35 640,-587 632.26,-594.31 622.67,-599.51 612.55,-603.18"/>
<polygon fill="#63b8ff" stroke="#63b8ff" points="683.09,-467.83 689.77,-459.61 679.42,-461.87 683.09,-467.83"/>
</a>
</g>
</g>
<!-- Node6 -->
<g id="Node000006" class="node">
<title>Node6</title>
<g id="a_Node000006"><a xlink:href="$classcam_1_1nc_1_1iso_1_1Creator.html#aed90658ba02dc4e25c565f6e3a70670d" xlink:title=" ">
<polygon fill="white" stroke="#666666" points="379.5,-619.5 254.5,-619.5 254.5,-600.5 379.5,-600.5 379.5,-619.5"/>
<text text-anchor="middle" x="317" y="-607.5" font-family="Helvetica,sans-Serif" font-size="10.00">cam.nc.iso.Creator.arc</text>
</a>
</g>
</g>
<!-- Node4&#45;&gt;Node6 -->
<g id="edge173_Node000004_Node000006" class="edge">
<title>Node4&#45;&gt;Node6</title>
<g id="a_edge173_Node000004_Node000006"><a xlink:title=" ">
<path fill="none" stroke="#63b8ff" d="M682.47,-464.41C680.23,-465.82 678.07,-467.35 676,-469 643.95,-494.61 672.13,-528.49 640,-554 629.85,-562.06 470.1,-587.15 379.51,-600.85"/>
<polygon fill="#63b8ff" stroke="#63b8ff" points="684.35,-467.37 691.47,-459.53 681.02,-461.22 684.35,-467.37"/>
</a>
</g>
</g>
<!-- Node23 -->
<g id="Node000023" class="node">
<title>Node23</title>
<g id="a_Node000023"><a xlink:href="$classcam_1_1nc_1_1heiden_1_1Creator.html#ab1ba24f0b927edab5d70c6642ceacfc4" xlink:title=" ">
<polygon fill="white" stroke="#666666" points="614.5,-459.5 466.5,-459.5 466.5,-440.5 614.5,-440.5 614.5,-459.5"/>
<text text-anchor="middle" x="540.5" y="-447.5" font-family="Helvetica,sans-Serif" font-size="10.00">cam.nc.heiden.Creator.drill</text>
</a>
</g>
</g>
<!-- Node4&#45;&gt;Node23 -->
<g id="edge174_Node000004_Node000023" class="edge">
<title>Node4&#45;&gt;Node23</title>
<g id="a_edge174_Node000004_Node000023"><a xlink:title=" ">
<path fill="none" stroke="#63b8ff" d="M674.08,-450C653.96,-450 633.36,-450 614.58,-450"/>
<polygon fill="#63b8ff" stroke="#63b8ff" points="674.23,-453.5 684.23,-450 674.23,-446.5 674.23,-453.5"/>
</a>
</g>
</g>
<!-- Node24 -->
<g id="Node000024" class="node">
<title>Node24</title>
<g id="a_Node000024"><a xlink:href="$classcam_1_1nc_1_1iso_1_1Creator.html#a61f29267aaaddc3d5c8471f9bf714cb3" xlink:title=" ">
<polygon fill="white" stroke="#666666" points="605,-496.5 476,-496.5 476,-477.5 605,-477.5 605,-496.5"/>
<text text-anchor="middle" x="540.5" y="-484.5" font-family="Helvetica,sans-Serif" font-size="10.00">cam.nc.iso.Creator.drill</text>
</a>
</g>
</g>
<!-- Node4&#45;&gt;Node24 -->
<g id="edge176_Node000004_Node000024" class="edge">
<title>Node4&#45;&gt;Node24</title>
<g id="a_edge176_Node000004_Node000024"><a xlink:title=" ">
<path fill="none" stroke="#63b8ff" d="M709.43,-461.11C675.69,-466.31 635.89,-472.45 603.51,-477.44"/>
<polygon fill="#63b8ff" stroke="#63b8ff" points="710.34,-464.51 719.69,-459.53 709.28,-457.59 710.34,-464.51"/>
</a>
</g>
</g>
<!-- Node25 -->
<g id="Node000025" class="node">
<title>Node25</title>
<g id="a_Node000025"><a xlink:href="$classcam_1_1nc_1_1heiden_1_1Creator.html#a921825a14a9068d234377d7ac3b7777f" xlink:title=" ">
<polygon fill="white" stroke="#666666" points="619,-422 462,-422 462,-392 619,-392 619,-422"/>
<text text-anchor="start" x="470" y="-410" font-family="Helvetica,sans-Serif" font-size="10.00">cam.nc.heiden.Creator.probe</text>
<text text-anchor="middle" x="540.5" y="-399" font-family="Helvetica,sans-Serif" font-size="10.00">_single_point</text>
</a>
</g>
</g>
<!-- Node4&#45;&gt;Node25 -->
<g id="edge178_Node000004_Node000025" class="edge">
<title>Node4&#45;&gt;Node25</title>
<g id="a_edge178_Node000004_Node000025"><a xlink:title=" ">
<path fill="none" stroke="#63b8ff" d="M718.2,-438.66C687.86,-433.22 651.23,-426.66 619.21,-420.92"/>
<polygon fill="#63b8ff" stroke="#63b8ff" points="717.78,-442.14 728.24,-440.46 719.01,-435.25 717.78,-442.14"/>
</a>
</g>
</g>
<!-- Node26 -->
<g id="Node000026" class="node">
<title>Node26</title>
<g id="a_Node000026"><a xlink:href="$classcam_1_1nc_1_1iso_1_1Creator.html#adc5343ffd168991077858693d6a79fef" xlink:title=" ">
<polygon fill="white" stroke="#666666" points="609.5,-545 471.5,-545 471.5,-515 609.5,-515 609.5,-545"/>
<text text-anchor="start" x="479.5" y="-533" font-family="Helvetica,sans-Serif" font-size="10.00">cam.nc.iso.Creator.probe</text>
<text text-anchor="middle" x="540.5" y="-522" font-family="Helvetica,sans-Serif" font-size="10.00">_single_point</text>
</a>
</g>
</g>
<!-- Node4&#45;&gt;Node26 -->
<g id="edge179_Node000004_Node000026" class="edge">
<title>Node4&#45;&gt;Node26</title>
<g id="a_edge179_Node000004_Node000026"><a xlink:title=" ">
<path fill="none" stroke="#63b8ff" d="M689.61,-462.87C684.91,-464.66 680.34,-466.69 676,-469 655.74,-479.77 659.92,-494.62 640,-506 630.68,-511.33 620.21,-515.48 609.66,-518.71"/>
<polygon fill="#63b8ff" stroke="#63b8ff" points="691.1,-466.06 699.43,-459.52 688.83,-459.43 691.1,-466.06"/>
</a>
</g>
</g>
<!-- Node5&#45;&gt;Node5 -->
<g id="edge137_Node000005_Node000005" class="edge">
<title>Node5&#45;&gt;Node5</title>
<g id="a_edge137_Node000005_Node000005"><a xlink:title=" ">
<path fill="none" stroke="#63b8ff" d="M582.04,-627.42C583.32,-633.5 569.48,-638.5 540.5,-638.5 501.04,-638.5 489.64,-629.23 506.28,-620.58"/>
<polygon fill="#63b8ff" stroke="#63b8ff" points="584.42,-624.85 574.72,-620.58 579.64,-629.96 584.42,-624.85"/>
</a>
</g>
</g>
<!-- Node5&#45;&gt;Node6 -->
<g id="edge138_Node000005_Node000006" class="edge">
<title>Node5&#45;&gt;Node6</title>
<g id="a_edge138_Node000005_Node000006"><a xlink:title=" ">
<path fill="none" stroke="#63b8ff" d="M458.04,-604.1C432.2,-603.59 404.07,-603.6 379.85,-604.15"/>
<polygon fill="#63b8ff" stroke="#63b8ff" points="458.12,-607.6 468.2,-604.32 458.28,-600.6 458.12,-607.6"/>
</a>
</g>
</g>
<!-- Node7 -->
<g id="Node000007" class="node">
<title>Node7</title>
<g id="a_Node000007"><a xlink:href="$classcam_1_1nc_1_1heiden_1_1Creator.html#a7c0262bb6935f21773e134b851cbff38" xlink:title=" ">
<polygon fill="white" stroke="#666666" points="180.5,-701.5 12.5,-701.5 12.5,-682.5 180.5,-682.5 180.5,-701.5"/>
<text text-anchor="middle" x="96.5" y="-689.5" font-family="Helvetica,sans-Serif" font-size="10.00">cam.nc.heiden.Creator.arc_ccw</text>
</a>
</g>
</g>
<!-- Node5&#45;&gt;Node7 -->
<g id="edge157_Node000005_Node000007" class="edge">
<title>Node5&#45;&gt;Node7</title>
<g id="a_edge157_Node000005_Node000007"><a xlink:title=" ">
<path fill="none" stroke="#63b8ff" d="M511.82,-624.92C485.17,-637.64 443.36,-655.83 405,-665 330.47,-682.82 243.25,-689.16 180.78,-691.28"/>
<polygon fill="#63b8ff" stroke="#63b8ff" points="513.45,-628.02 520.92,-620.51 510.4,-621.72 513.45,-628.02"/>
</a>
</g>
</g>
<!-- Node8 -->
<g id="Node000008" class="node">
<title>Node8</title>
<g id="a_Node000008"><a xlink:href="$classcam_1_1nc_1_1hpgl2d_1_1Creator.html#ae869adedb7242daa7c1b42302c182896" xlink:title=" ">
<polygon fill="white" stroke="#666666" points="180.5,-661.5 12.5,-661.5 12.5,-642.5 180.5,-642.5 180.5,-661.5"/>
<text text-anchor="middle" x="96.5" y="-649.5" font-family="Helvetica,sans-Serif" font-size="10.00">cam.nc.hpgl2d.Creator.arc_ccw</text>
</a>
</g>
</g>
<!-- Node5&#45;&gt;Node8 -->
<g id="edge158_Node000005_Node000008" class="edge">
<title>Node5&#45;&gt;Node8</title>
<g id="a_edge158_Node000005_Node000008"><a xlink:title=" ">
<path fill="none" stroke="#63b8ff" d="M502.13,-623.65C475.42,-632.04 438.43,-642.33 405,-647 329.65,-657.53 242.91,-657.89 180.8,-656.13"/>
<polygon fill="#63b8ff" stroke="#63b8ff" points="503.38,-626.93 511.83,-620.55 501.24,-620.26 503.38,-626.93"/>
</a>
</g>
</g>
<!-- Node9 -->
<g id="Node000009" class="node">
<title>Node9</title>
<g id="a_Node000009"><a xlink:href="$classcam_1_1nc_1_1iso_1_1Creator.html#a73623b6caaf8efee669803ee57ca97a9" xlink:title=" ">
<polygon fill="white" stroke="#666666" points="171,-618.5 22,-618.5 22,-599.5 171,-599.5 171,-618.5"/>
<text text-anchor="middle" x="96.5" y="-606.5" font-family="Helvetica,sans-Serif" font-size="10.00">cam.nc.iso.Creator.arc_ccw</text>
</a>
</g>
</g>
<!-- Node5&#45;&gt;Node9 -->
<g id="edge159_Node000005_Node000009" class="edge">
<title>Node5&#45;&gt;Node9</title>
<g id="a_edge159_Node000005_Node000009"><a xlink:title=" ">
<path fill="none" stroke="#63b8ff" d="M474.79,-599.98C452.72,-596.73 427.85,-593.61 405,-592 326.97,-586.52 307.06,-586.98 229,-592 205.8,-593.49 180.44,-596.45 158.23,-599.49"/>
<polygon fill="#63b8ff" stroke="#63b8ff" points="474.3,-603.45 484.72,-601.49 475.35,-596.53 474.3,-603.45"/>
</a>
</g>
</g>
<!-- Node10 -->
<g id="Node000010" class="node">
<title>Node10</title>
<g id="a_Node000010"><a xlink:href="$classcam_1_1nc_1_1lathe1_1_1CreatorIso.html#a9eae946df7fc34b9a46e33a00d891c3d" xlink:title=" ">
<polygon fill="white" stroke="#666666" points="187,-580.5 6,-580.5 6,-561.5 187,-561.5 187,-580.5"/>
<text text-anchor="middle" x="96.5" y="-568.5" font-family="Helvetica,sans-Serif" font-size="10.00">cam.nc.lathe1.CreatorIso.arc_ccw</text>
</a>
</g>
</g>
<!-- Node5&#45;&gt;Node10 -->
<g id="edge160_Node000005_Node000010" class="edge">
<title>Node5&#45;&gt;Node10</title>
<g id="a_edge160_Node000005_Node000010"><a xlink:title=" ">
<path fill="none" stroke="#63b8ff" d="M490.24,-599.19C464.91,-593.62 433.47,-587.44 405,-584 332.06,-575.19 248.76,-572.09 187.28,-571.12"/>
<polygon fill="#63b8ff" stroke="#63b8ff" points="489.81,-602.68 500.33,-601.46 491.34,-595.85 489.81,-602.68"/>
</a>
</g>
</g>
<!-- Node11 -->
<g id="Node000011" class="node">
<title>Node11</title>
<g id="a_Node000011"><a xlink:href="$classcam_1_1nc_1_1makerbotHBP_1_1CreatorMakerbotHBP.html#aa7b30248f278113e0c9a324820824941" xlink:title=" ">
<polygon fill="white" stroke="#666666" points="176,-541 17,-541 17,-511 176,-511 176,-541"/>
<text text-anchor="start" x="25" y="-529" font-family="Helvetica,sans-Serif" font-size="10.00">cam.nc.makerbotHBP.Creator</text>
<text text-anchor="middle" x="96.5" y="-518" font-family="Helvetica,sans-Serif" font-size="10.00">MakerbotHBP.arc_ccw</text>
</a>
</g>
</g>
<!-- Node5&#45;&gt;Node11 -->
<g id="edge161_Node000005_Node000011" class="edge">
<title>Node5&#45;&gt;Node11</title>
<g id="a_edge161_Node000005_Node000011"><a xlink:title=" ">
<path fill="none" stroke="#63b8ff" d="M504.37,-597.92C477.5,-588.36 439.35,-575.77 405,-568 328.14,-550.6 238.74,-539.38 176.21,-532.95"/>
<polygon fill="#63b8ff" stroke="#63b8ff" points="503.49,-601.32 514.08,-601.41 505.86,-594.73 503.49,-601.32"/>
</a>
</g>
</g>
<!-- Node12 -->
<g id="Node000012" class="node">
<title>Node12</title>
<g id="a_Node000012"><a xlink:href="$classcam_1_1nc_1_1recreator_1_1Redirector.html#a50bb4fcb175a9c87e1cf45a79cd54ff1" xlink:title=" ">
<polygon fill="white" stroke="#666666" points="193,-489.5 0,-489.5 0,-470.5 193,-470.5 193,-489.5"/>
<text text-anchor="middle" x="96.5" y="-477.5" font-family="Helvetica,sans-Serif" font-size="10.00">cam.nc.recreator.Redirector.arc_ccw</text>
</a>
</g>
</g>
<!-- Node5&#45;&gt;Node12 -->
<g id="edge162_Node000005_Node000012" class="edge">
<title>Node5&#45;&gt;Node12</title>
<g id="a_edge162_Node000005_Node000012"><a xlink:title=" ">
<path fill="none" stroke="#63b8ff" d="M514.05,-596.33C476.68,-574.83 410.76,-537.07 405,-535 336.37,-510.29 254.98,-496.36 193.17,-488.71"/>
<polygon fill="#63b8ff" stroke="#63b8ff" points="512.47,-599.45 522.88,-601.41 515.96,-593.39 512.47,-599.45"/>
</a>
</g>
</g>
<!-- Node13 -->
<g id="Node000013" class="node">
<title>Node13</title>
<g id="a_Node000013"><a xlink:href="$classcam_1_1nc_1_1rez2_1_1Creator.html#a7a7b089cf338846799311b5b1193a566" xlink:title=" ">
<polygon fill="white" stroke="#666666" points="174.5,-446.5 18.5,-446.5 18.5,-427.5 174.5,-427.5 174.5,-446.5"/>
<text text-anchor="middle" x="96.5" y="-434.5" font-family="Helvetica,sans-Serif" font-size="10.00">cam.nc.rez2.Creator.arc_ccw</text>
</a>
</g>
</g>
<!-- Node5&#45;&gt;Node13 -->
<g id="edge163_Node000005_Node000013" class="edge">
<title>Node5&#45;&gt;Node13</title>
<g id="a_edge163_Node000005_Node000013"><a xlink:title=" ">
<path fill="none" stroke="#63b8ff" d="M505.9,-597.1C485.31,-587.34 459.46,-572.69 441,-554 418.06,-530.78 431.66,-508.82 405,-490 337.5,-442.37 241.3,-432.68 174.55,-432.63"/>
<polygon fill="#63b8ff" stroke="#63b8ff" points="504.68,-600.4 515.23,-601.37 507.6,-594.03 504.68,-600.4"/>
</a>
</g>
</g>
<!-- Node14 -->
<g id="Node000014" class="node">
<title>Node14</title>
<g id="a_Node000014"><a xlink:href="$classcam_1_1nc_1_1heiden_1_1Creator.html#afffaa9e4bad9251bb67ff287f47accda" xlink:title=" ">
<polygon fill="white" stroke="#666666" points="178,-978.5 15,-978.5 15,-959.5 178,-959.5 178,-978.5"/>
<text text-anchor="middle" x="96.5" y="-966.5" font-family="Helvetica,sans-Serif" font-size="10.00">cam.nc.heiden.Creator.arc_cw</text>
</a>
</g>
</g>
<!-- Node5&#45;&gt;Node14 -->
<g id="edge164_Node000005_Node000014" class="edge">
<title>Node5&#45;&gt;Node14</title>
<g id="a_edge164_Node000005_Node000014"><a xlink:title=" ">
<path fill="none" stroke="#63b8ff" d="M537.31,-630.7C530.04,-686.11 501.37,-844.19 405,-919 340.59,-969 245.41,-977.45 178.03,-975.95"/>
<polygon fill="#63b8ff" stroke="#63b8ff" points="540.79,-631.12 538.53,-620.77 533.84,-630.27 540.79,-631.12"/>
</a>
</g>
</g>
<!-- Node15 -->
<g id="Node000015" class="node">
<title>Node15</title>
<g id="a_Node000015"><a xlink:href="$classcam_1_1nc_1_1hpgl2d_1_1Creator.html#ae23fc4d361aa6de768d74b18324bae53" xlink:title=" ">
<polygon fill="white" stroke="#666666" points="178,-940.5 15,-940.5 15,-921.5 178,-921.5 178,-940.5"/>
<text text-anchor="middle" x="96.5" y="-928.5" font-family="Helvetica,sans-Serif" font-size="10.00">cam.nc.hpgl2d.Creator.arc_cw</text>
</a>
</g>
</g>
<!-- Node5&#45;&gt;Node15 -->
<g id="edge165_Node000005_Node000015" class="edge">
<title>Node5&#45;&gt;Node15</title>
<g id="a_edge165_Node000005_Node000015"><a xlink:title=" ">
<path fill="none" stroke="#63b8ff" d="M535.83,-630.6C525.35,-680.65 490.39,-813.65 405,-877 339.59,-925.52 245.04,-935.69 178.08,-935.81"/>
<polygon fill="#63b8ff" stroke="#63b8ff" points="539.27,-631.23 537.8,-620.74 532.41,-629.86 539.27,-631.23"/>
</a>
</g>
</g>
<!-- Node16 -->
<g id="Node000016" class="node">
<title>Node16</title>
<g id="a_Node000016"><a xlink:href="$classcam_1_1nc_1_1iso_1_1Creator.html#a334d38752a57cd7745f9361d583c68f6" xlink:title=" ">
<polygon fill="white" stroke="#666666" points="168.5,-902.5 24.5,-902.5 24.5,-883.5 168.5,-883.5 168.5,-902.5"/>
<text text-anchor="middle" x="96.5" y="-890.5" font-family="Helvetica,sans-Serif" font-size="10.00">cam.nc.iso.Creator.arc_cw</text>
</a>
</g>
</g>
<!-- Node5&#45;&gt;Node16 -->
<g id="edge166_Node000005_Node000016" class="edge">
<title>Node5&#45;&gt;Node16</title>
<g id="a_edge166_Node000005_Node000016"><a xlink:title=" ">
<path fill="none" stroke="#63b8ff" d="M533.9,-630.38C520.05,-674.56 479.81,-782.91 405,-835 335.12,-883.66 235.53,-894.48 168.81,-895.55"/>
<polygon fill="#63b8ff" stroke="#63b8ff" points="537.31,-631.19 536.85,-620.61 530.61,-629.17 537.31,-631.19"/>
</a>
</g>
</g>
<!-- Node17 -->
<g id="Node000017" class="node">
<title>Node17</title>
<g id="a_Node000017"><a xlink:href="$classcam_1_1nc_1_1lathe1_1_1CreatorIso.html#ae2f7d7587f9940cf9534e127f7234c4c" xlink:title=" ">
<polygon fill="white" stroke="#666666" points="184.5,-864.5 8.5,-864.5 8.5,-845.5 184.5,-845.5 184.5,-864.5"/>
<text text-anchor="middle" x="96.5" y="-852.5" font-family="Helvetica,sans-Serif" font-size="10.00">cam.nc.lathe1.CreatorIso.arc_cw</text>
</a>
</g>
</g>
<!-- Node5&#45;&gt;Node17 -->
<g id="edge167_Node000005_Node000017" class="edge">
<title>Node5&#45;&gt;Node17</title>
<g id="a_edge167_Node000005_Node000017"><a xlink:title=" ">
<path fill="none" stroke="#63b8ff" d="M531.44,-629.84C514.23,-667.63 470.08,-752.61 405,-794 338.87,-836.06 249.84,-850.1 184.6,-854.34"/>
<polygon fill="#63b8ff" stroke="#63b8ff" points="534.73,-631.07 535.58,-620.5 528.33,-628.23 534.73,-631.07"/>
</a>
</g>
</g>
<!-- Node18 -->
<g id="Node000018" class="node">
<title>Node18</title>
<g id="a_Node000018"><a xlink:href="$classcam_1_1nc_1_1makerbotHBP_1_1CreatorMakerbotHBP.html#a2cf899fa0839287bdca94b6207c078d6" xlink:title=" ">
<polygon fill="white" stroke="#666666" points="176,-827 17,-827 17,-797 176,-797 176,-827"/>
<text text-anchor="start" x="25" y="-815" font-family="Helvetica,sans-Serif" font-size="10.00">cam.nc.makerbotHBP.Creator</text>
<text text-anchor="middle" x="96.5" y="-804" font-family="Helvetica,sans-Serif" font-size="10.00">MakerbotHBP.arc_cw</text>
</a>
</g>
</g>
<!-- Node5&#45;&gt;Node18 -->
<g id="edge168_Node000005_Node000018" class="edge">
<title>Node5&#45;&gt;Node18</title>
<g id="a_edge168_Node000005_Node000018"><a xlink:title=" ">
<path fill="none" stroke="#63b8ff" d="M528.22,-629.44C507.85,-660.97 461.75,-724.88 405,-756 333.99,-794.94 241.26,-807.51 176.27,-811.22"/>
<polygon fill="#63b8ff" stroke="#63b8ff" points="531.31,-631.08 533.69,-620.76 525.39,-627.35 531.31,-631.08"/>
</a>
</g>
</g>
<!-- Node19 -->
<g id="Node000019" class="node">
<title>Node19</title>
<g id="a_Node000019"><a xlink:href="$classcam_1_1nc_1_1recreator_1_1Redirector.html#a54adbf876611896e0d8d530766a18964" xlink:title=" ">
<polygon fill="white" stroke="#666666" points="190.5,-778.5 2.5,-778.5 2.5,-759.5 190.5,-759.5 190.5,-778.5"/>
<text text-anchor="middle" x="96.5" y="-766.5" font-family="Helvetica,sans-Serif" font-size="10.00">cam.nc.recreator.Redirector.arc_cw</text>
</a>
</g>
</g>
<!-- Node5&#45;&gt;Node19 -->
<g id="edge169_Node000005_Node000019" class="edge">
<title>Node5&#45;&gt;Node19</title>
<g id="a_edge169_Node000005_Node000019"><a xlink:title=" ">
<path fill="none" stroke="#63b8ff" d="M524.31,-628.23C501.23,-653.17 454.74,-698.78 405,-721 337.17,-751.31 253.49,-762.9 190.56,-767.15"/>
<polygon fill="#63b8ff" stroke="#63b8ff" points="527.08,-630.38 531.21,-620.63 521.9,-625.68 527.08,-630.38"/>
</a>
</g>
</g>
<!-- Node20 -->
<g id="Node000020" class="node">
<title>Node20</title>
<g id="a_Node000020"><a xlink:href="$classcam_1_1nc_1_1rez2_1_1Creator.html#a96f30401310d0198de3d2d55da86510f" xlink:title=" ">
<polygon fill="white" stroke="#666666" points="172,-740.5 21,-740.5 21,-721.5 172,-721.5 172,-740.5"/>
<text text-anchor="middle" x="96.5" y="-728.5" font-family="Helvetica,sans-Serif" font-size="10.00">cam.nc.rez2.Creator.arc_cw</text>
</a>
</g>
</g>
<!-- Node5&#45;&gt;Node20 -->
<g id="edge170_Node000005_Node000020" class="edge">
<title>Node5&#45;&gt;Node20</title>
<g id="a_edge170_Node000005_Node000020"><a xlink:title=" ">
<path fill="none" stroke="#63b8ff" d="M518.88,-626.69C493.54,-645.1 448.52,-675.01 405,-690 328.37,-716.4 235.56,-725.93 172.08,-729.3"/>
<polygon fill="#63b8ff" stroke="#63b8ff" points="521.02,-629.46 526.99,-620.7 516.87,-623.83 521.02,-629.46"/>
</a>
</g>
</g>
<!-- Node5&#45;&gt;Node21 -->
<g id="edge171_Node000005_Node000021" class="edge">
<title>Node5&#45;&gt;Node21</title>
<g id="a_edge171_Node000005_Node000021"><a xlink:title=" ">
<path fill="none" stroke="#63b8ff" d="M500.57,-597.65C479.77,-588.53 455.52,-574.37 441,-554 392.38,-485.79 463.94,-428.52 405,-369 396.79,-360.71 261.96,-335.32 173.59,-319.42"/>
<polygon fill="#63b8ff" stroke="#63b8ff" points="499.26,-600.89 509.84,-601.48 501.94,-594.43 499.26,-600.89"/>
</a>
</g>
</g>
<!-- Node22 -->
<g id="Node000022" class="node">
<title>Node22</title>
<g id="a_Node000022"><a xlink:href="$classcam_1_1nc_1_1heiden__read_1_1Parser.html#a9c64dcddf3c2c0d3248079dde5314cfe" xlink:title=" ">
<polygon fill="white" stroke="#666666" points="171.5,-397 21.5,-397 21.5,-367 171.5,-367 171.5,-397"/>
<text text-anchor="start" x="29.5" y="-385" font-family="Helvetica,sans-Serif" font-size="10.00">cam.nc.heiden_read.Parser.</text>
<text text-anchor="middle" x="96.5" y="-374" font-family="Helvetica,sans-Serif" font-size="10.00">Parsey</text>
</a>
</g>
</g>
<!-- Node5&#45;&gt;Node22 -->
<g id="edge172_Node000005_Node000022" class="edge">
<title>Node5&#45;&gt;Node22</title>
<g id="a_edge172_Node000005_Node000022"><a xlink:title=" ">
<path fill="none" stroke="#63b8ff" d="M502.13,-597.49C481.37,-588.22 456.66,-573.95 441,-554 405.83,-509.19 447.75,-468.65 405,-431 341.41,-375 240.4,-369.2 171.65,-373.13"/>
<polygon fill="#63b8ff" stroke="#63b8ff" points="500.77,-600.72 511.34,-601.41 503.5,-594.28 500.77,-600.72"/>
</a>
</g>
</g>
<!-- Node6&#45;&gt;Node5 -->
<g id="edge139_Node000006_Node000005" class="edge">
<title>Node6&#45;&gt;Node5</title>
<g id="a_edge139_Node000006_Node000005"><a xlink:title=" ">
<path fill="none" stroke="#63b8ff" d="M390.02,-616.69C415.09,-617.32 443.19,-617.44 468.2,-617.03"/>
<polygon fill="#63b8ff" stroke="#63b8ff" points="389.94,-613.19 379.85,-616.41 389.75,-620.19 389.94,-613.19"/>
</a>
</g>
</g>
<!-- Node6&#45;&gt;Node6 -->
<g id="edge140_Node000006_Node000006" class="edge">
<title>Node6&#45;&gt;Node6</title>
<g id="a_edge140_Node000006_Node000006"><a xlink:title=" ">
<path fill="none" stroke="#63b8ff" d="M358.23,-626.81C358.85,-632.71 345.1,-637.5 317,-637.5 277.9,-637.5 266.6,-628.23 283.09,-619.58"/>
<polygon fill="#63b8ff" stroke="#63b8ff" points="360.48,-624.12 350.91,-619.58 355.57,-629.1 360.48,-624.12"/>
</a>
</g>
</g>
<!-- Node6&#45;&gt;Node7 -->
<g id="edge141_Node000006_Node000007" class="edge">
<title>Node6&#45;&gt;Node7</title>
<g id="a_edge141_Node000006_Node000007"><a xlink:title=" ">
<path fill="none" stroke="#63b8ff" d="M290.95,-624.7C266.63,-638.41 228.33,-658.56 193,-671 179.87,-675.62 165.35,-679.44 151.68,-682.49"/>
<polygon fill="#63b8ff" stroke="#63b8ff" points="292.9,-627.61 299.85,-619.61 289.43,-621.54 292.9,-627.61"/>
</a>
</g>
</g>
<!-- Node6&#45;&gt;Node8 -->
<g id="edge142_Node000006_Node000008" class="edge">
<title>Node6&#45;&gt;Node8</title>
<g id="a_edge142_Node000006_Node000008"><a xlink:title=" ">
<path fill="none" stroke="#63b8ff" d="M256.54,-621.43C222.29,-628.01 179.73,-636.19 147.26,-642.43"/>
<polygon fill="#63b8ff" stroke="#63b8ff" points="257.26,-624.86 266.42,-619.53 255.94,-617.98 257.26,-624.86"/>
</a>
</g>
</g>
<!-- Node6&#45;&gt;Node9 -->
<g id="edge143_Node000006_Node000009" class="edge">
<title>Node6&#45;&gt;Node9</title>
<g id="a_edge143_Node000006_Node000009"><a xlink:title=" ">
<path fill="none" stroke="#63b8ff" d="M244.05,-609.67C220.64,-609.56 194.62,-609.44 171.09,-609.34"/>
<polygon fill="#63b8ff" stroke="#63b8ff" points="244.25,-613.17 254.26,-609.72 244.28,-606.17 244.25,-613.17"/>
</a>
</g>
</g>
<!-- Node6&#45;&gt;Node10 -->
<g id="edge144_Node000006_Node000010" class="edge">
<title>Node6&#45;&gt;Node10</title>
<g id="a_edge144_Node000006_Node000010"><a xlink:title=" ">
<path fill="none" stroke="#63b8ff" d="M252.33,-598.64C220.1,-592.88 181.41,-585.98 150.78,-580.51"/>
<polygon fill="#63b8ff" stroke="#63b8ff" points="252.09,-602.15 262.55,-600.46 253.32,-595.26 252.09,-602.15"/>
</a>
</g>
</g>
<!-- Node6&#45;&gt;Node11 -->
<g id="edge145_Node000006_Node000011" class="edge">
<title>Node6&#45;&gt;Node11</title>
<g id="a_edge145_Node000006_Node000011"><a xlink:title=" ">
<path fill="none" stroke="#63b8ff" d="M288.56,-595.75C263.97,-583.36 226.71,-565.49 193,-553 181.29,-548.66 168.55,-544.61 156.3,-541.04"/>
<polygon fill="#63b8ff" stroke="#63b8ff" points="287.14,-598.96 297.64,-600.37 290.31,-592.72 287.14,-598.96"/>
</a>
</g>
</g>
<!-- Node6&#45;&gt;Node12 -->
<g id="edge146_Node000006_Node000012" class="edge">
<title>Node6&#45;&gt;Node12</title>
<g id="a_edge146_Node000006_Node000012"><a xlink:title=" ">
<path fill="none" stroke="#63b8ff" d="M301.56,-592.82C280.33,-568.71 238.25,-525.18 193,-502 182.63,-496.69 170.97,-492.64 159.45,-489.56"/>
<polygon fill="#63b8ff" stroke="#63b8ff" points="298.99,-595.2 308.18,-600.48 304.29,-590.62 298.99,-595.2"/>
</a>
</g>
</g>
<!-- Node6&#45;&gt;Node13 -->
<g id="edge147_Node000006_Node000013" class="edge">
<title>Node6&#45;&gt;Node13</title>
<g id="a_edge147_Node000006_Node000013"><a xlink:title=" ">
<path fill="none" stroke="#63b8ff" d="M305.7,-591.2C287.35,-559.52 245.9,-495.66 193,-462 182.23,-455.15 169.64,-450.16 157.2,-446.54"/>
<polygon fill="#63b8ff" stroke="#63b8ff" points="302.86,-593.29 310.83,-600.28 308.96,-589.85 302.86,-593.29"/>
</a>
</g>
</g>
<!-- Node6&#45;&gt;Node14 -->
<g id="edge148_Node000006_Node000014" class="edge">
<title>Node6&#45;&gt;Node14</title>
<g id="a_edge148_Node000006_Node000014"><a xlink:title=" ">
<path fill="none" stroke="#63b8ff" d="M315.24,-629.87C311.86,-688.78 293.41,-863.69 193,-950 188.51,-953.86 183.47,-957.01 178.1,-959.59"/>
<polygon fill="#63b8ff" stroke="#63b8ff" points="318.75,-629.86 315.74,-619.7 311.76,-629.52 318.75,-629.86"/>
</a>
</g>
</g>
<!-- Node6&#45;&gt;Node15 -->
<g id="edge149_Node000006_Node000015" class="edge">
<title>Node6&#45;&gt;Node15</title>
<g id="a_edge149_Node000006_Node000015"><a xlink:title=" ">
<path fill="none" stroke="#63b8ff" d="M314.24,-629.81C308.29,-684.24 283.89,-836.96 193,-912 188.44,-915.77 183.34,-918.86 177.93,-921.39"/>
<polygon fill="#63b8ff" stroke="#63b8ff" points="317.74,-630.05 315.25,-619.75 310.77,-629.36 317.74,-630.05"/>
</a>
</g>
</g>
<!-- Node6&#45;&gt;Node16 -->
<g id="edge150_Node000006_Node000016" class="edge">
<title>Node6&#45;&gt;Node16</title>
<g id="a_edge150_Node000006_Node000016"><a xlink:title=" ">
<path fill="none" stroke="#63b8ff" d="M313.01,-629.62C304.37,-679.17 274.54,-809.98 193,-874 185.82,-879.64 177.42,-883.74 168.63,-886.71"/>
<polygon fill="#63b8ff" stroke="#63b8ff" points="316.49,-630.02 314.66,-619.59 309.58,-628.89 316.49,-630.02"/>
</a>
</g>
</g>
<!-- Node6&#45;&gt;Node17 -->
<g id="edge151_Node000006_Node000017" class="edge">
<title>Node6&#45;&gt;Node17</title>
<g id="a_edge151_Node000006_Node000017"><a xlink:title=" ">
<path fill="none" stroke="#63b8ff" d="M311.42,-629.46C299.89,-673.85 265.31,-782.79 193,-836 187.83,-839.81 182.08,-842.9 176.06,-845.41"/>
<polygon fill="#63b8ff" stroke="#63b8ff" points="314.84,-630.19 313.86,-619.65 308.05,-628.5 314.84,-630.19"/>
</a>
</g>
</g>
<!-- Node6&#45;&gt;Node18 -->
<g id="edge152_Node000006_Node000018" class="edge">
<title>Node6&#45;&gt;Node18</title>
<g id="a_edge152_Node000006_Node000018"><a xlink:title=" ">
<path fill="none" stroke="#63b8ff" d="M308.36,-629.04C292.59,-665.78 252.85,-746.51 193,-788 187.8,-791.6 182.11,-794.67 176.18,-797.27"/>
<polygon fill="#63b8ff" stroke="#63b8ff" points="311.71,-630.1 312.32,-619.52 305.24,-627.41 311.71,-630.1"/>
</a>
</g>
</g>
<!-- Node6&#45;&gt;Node19 -->
<g id="edge153_Node000006_Node000019" class="edge">
<title>Node6&#45;&gt;Node19</title>
<g id="a_edge153_Node000006_Node000019"><a xlink:title=" ">
<path fill="none" stroke="#63b8ff" d="M305.37,-628.55C286.79,-659.14 245.35,-719.81 193,-750 186.26,-753.89 178.87,-756.99 171.26,-759.46"/>
<polygon fill="#63b8ff" stroke="#63b8ff" points="308.5,-630.13 310.58,-619.75 302.47,-626.57 308.5,-630.13"/>
</a>
</g>
</g>
<!-- Node6&#45;&gt;Node20 -->
<g id="edge154_Node000006_Node000020" class="edge">
<title>Node6&#45;&gt;Node20</title>
<g id="a_edge154_Node000006_Node000020"><a xlink:title=" ">
<path fill="none" stroke="#63b8ff" d="M300.45,-627.13C278.71,-649.97 236.94,-689.94 193,-711 183.91,-715.36 173.89,-718.77 163.86,-721.44"/>
<polygon fill="#63b8ff" stroke="#63b8ff" points="303.25,-629.26 307.52,-619.56 298.13,-624.48 303.25,-629.26"/>
</a>
</g>
</g>
<!-- Node6&#45;&gt;Node21 -->
<g id="edge155_Node000006_Node000021" class="edge">
<title>Node6&#45;&gt;Node21</title>
<g id="a_edge155_Node000006_Node000021"><a xlink:title=" ">
<path fill="none" stroke="#63b8ff" d="M310.85,-590.17C298.03,-544.19 260.77,-428.86 193,-358 177.6,-341.9 156.11,-329.6 137.41,-321.01"/>
<polygon fill="#63b8ff" stroke="#63b8ff" points="307.53,-591.32 313.52,-600.06 314.29,-589.49 307.53,-591.32"/>
</a>
</g>
</g>
<!-- Node6&#45;&gt;Node22 -->
<g id="edge156_Node000006_Node000022" class="edge">
<title>Node6&#45;&gt;Node22</title>
<g id="a_edge156_Node000006_Node000022"><a xlink:title=" ">
<path fill="none" stroke="#63b8ff" d="M308.46,-590.74C292.64,-552.72 252.51,-467.53 193,-419 181.56,-409.67 167.5,-402.5 153.72,-397.08"/>
<polygon fill="#63b8ff" stroke="#63b8ff" points="305.27,-592.18 312.27,-600.14 311.75,-589.56 305.27,-592.18"/>
</a>
</g>
</g>
<!-- Node23&#45;&gt;Node21 -->
<g id="edge175_Node000023_Node000021" class="edge">
<title>Node23&#45;&gt;Node21</title>
<g id="a_edge175_Node000023_Node000021"><a xlink:title=" ">
<path fill="none" stroke="#63b8ff" d="M456.77,-441.7C451.02,-438.9 445.67,-435.38 441,-431 394.48,-387.32 455.47,-331.06 405,-292 325.13,-230.18 195.59,-267.27 133.25,-290.92"/>
<polygon fill="#63b8ff" stroke="#63b8ff" points="455.52,-444.97 466.1,-445.55 458.19,-438.5 455.52,-444.97"/>
</a>
</g>
</g>
<!-- Node24&#45;&gt;Node21 -->
<g id="edge177_Node000024_Node000021" class="edge">
<title>Node24&#45;&gt;Node21</title>
<g id="a_edge177_Node000024_Node000021"><a xlink:title=" ">
<path fill="none" stroke="#63b8ff" d="M466.15,-483.35C456.86,-480.22 448.13,-475.63 441,-469 394.27,-425.54 453.91,-371 405,-330 371.14,-301.62 253.19,-299.85 173.61,-302.18"/>
<polygon fill="#63b8ff" stroke="#63b8ff" points="465.41,-486.78 475.98,-486.1 467.3,-480.04 465.41,-486.78"/>
</a>
</g>
</g>
<!-- Node30 -->
<g id="Node000030" class="node">
<title>Node30</title>
<g id="a_Node000030"><a xlink:href="$classcam_1_1nc_1_1hpgl2d__read_1_1Parser.html#a0b707cfa8f85f48082f4e827cd2e4de2" xlink:title=" ">
<polygon fill="white" stroke="#666666" points="615.5,-78 465.5,-78 465.5,-48 615.5,-48 615.5,-78"/>
<text text-anchor="start" x="473.5" y="-66" font-family="Helvetica,sans-Serif" font-size="10.00">cam.nc.hpgl2d_read.Parser.</text>
<text text-anchor="middle" x="540.5" y="-55" font-family="Helvetica,sans-Serif" font-size="10.00">ParseFromFirstLetter</text>
</a>
</g>
</g>
<!-- Node29&#45;&gt;Node30 -->
<g id="edge184_Node000029_Node000030" class="edge">
<title>Node29&#45;&gt;Node30</title>
<g id="a_edge184_Node000029_Node000030"><a xlink:title=" ">
<path fill="none" stroke="#63b8ff" d="M697.18,-63C670.68,-63 641.62,-63 615.86,-63"/>
<polygon fill="#63b8ff" stroke="#63b8ff" points="697.21,-66.5 707.21,-63 697.21,-59.5 697.21,-66.5"/>
</a>
</g>
</g>
<!-- Node31 -->
<g id="Node000031" class="node">
<title>Node31</title>
<g id="a_Node000031"><a xlink:href="$classcam_1_1nc_1_1num__reader_1_1NumReader.html#ae908a2956d1e0cfd474a47540bee9759" xlink:title=" ">
<polygon fill="white" stroke="#666666" points="405,-54 229,-54 229,-24 405,-24 405,-54"/>
<text text-anchor="start" x="237" y="-42" font-family="Helvetica,sans-Serif" font-size="10.00">cam.nc.num_reader.NumReader.</text>
<text text-anchor="middle" x="317" y="-31" font-family="Helvetica,sans-Serif" font-size="10.00">Parse</text>
</a>
</g>
</g>
<!-- Node30&#45;&gt;Node31 -->
<g id="edge185_Node000030_Node000031" class="edge">
<title>Node30&#45;&gt;Node31</title>
<g id="a_edge185_Node000030_Node000031"><a xlink:title=" ">
<path fill="none" stroke="#63b8ff" d="M455.31,-53.88C438.86,-52.1 421.58,-50.22 405.04,-48.43"/>
<polygon fill="#63b8ff" stroke="#63b8ff" points="455.12,-57.38 465.44,-54.97 455.87,-50.42 455.12,-57.38"/>
</a>
</g>
</g>
<!-- Node33 -->
<g id="Node000033" class="node">
<title>Node33</title>
<g id="a_Node000033"><a xlink:href="$classcam_1_1nc_1_1hpgl3d__read_1_1Parser.html#acfc73b1a3afefce2cbfbbc3c6ba852b1" xlink:title=" ">
<polygon fill="white" stroke="#666666" points="615.5,-30 465.5,-30 465.5,0 615.5,0 615.5,-30"/>
<text text-anchor="start" x="473.5" y="-18" font-family="Helvetica,sans-Serif" font-size="10.00">cam.nc.hpgl3d_read.Parser.</text>
<text text-anchor="middle" x="540.5" y="-7" font-family="Helvetica,sans-Serif" font-size="10.00">ParseFromFirstLetter</text>
</a>
</g>
</g>
<!-- Node32&#45;&gt;Node33 -->
<g id="edge187_Node000032_Node000033" class="edge">
<title>Node32&#45;&gt;Node33</title>
<g id="a_edge187_Node000032_Node000033"><a xlink:title=" ">
<path fill="none" stroke="#63b8ff" d="M697.18,-15C670.68,-15 641.62,-15 615.86,-15"/>
<polygon fill="#63b8ff" stroke="#63b8ff" points="697.21,-18.5 707.21,-15 697.21,-11.5 697.21,-18.5"/>
</a>
</g>
</g>
<!-- Node33&#45;&gt;Node31 -->
<g id="edge188_Node000033_Node000031" class="edge">
<title>Node33&#45;&gt;Node31</title>
<g id="a_edge188_Node000033_Node000031"><a xlink:title=" ">
<path fill="none" stroke="#63b8ff" d="M455.31,-24.12C438.86,-25.9 421.58,-27.78 405.04,-29.57"/>
<polygon fill="#63b8ff" stroke="#63b8ff" points="455.87,-27.58 465.44,-23.03 455.12,-20.62 455.87,-27.58"/>
</a>
</g>
</g>
<!-- Node34&#45;&gt;Node22 -->
<g id="edge192_Node000034_Node000022" class="edge">
<title>Node34&#45;&gt;Node22</title>
<g id="a_edge192_Node000034_Node000022"><a xlink:title=" ">
<path fill="none" stroke="#63b8ff" d="M762.57,-318.95C736.81,-298.28 688.38,-263.41 640,-250 554.77,-226.37 527.96,-233.87 441,-250 318.51,-272.73 183.32,-337.42 125.85,-366.96"/>
<polygon fill="#63b8ff" stroke="#63b8ff" points="760.45,-321.74 770.4,-325.36 764.88,-316.32 760.45,-321.74"/>
</a>
</g>
</g>
<!-- Node34&#45;&gt;Node23 -->
<g id="edge190_Node000034_Node000023" class="edge">
<title>Node34&#45;&gt;Node23</title>
<g id="a_edge190_Node000034_Node000023"><a xlink:title=" ">
<path fill="none" stroke="#63b8ff" d="M762.86,-351.36C737.09,-373.07 688.28,-410.96 640,-431 630.59,-434.9 620.34,-438.02 610.12,-440.5"/>
<polygon fill="#63b8ff" stroke="#63b8ff" points="765.36,-353.83 770.68,-344.67 760.81,-348.51 765.36,-353.83"/>
</a>
</g>
</g>
<!-- Node34&#45;&gt;Node24 -->
<g id="edge191_Node000034_Node000024" class="edge">
<title>Node34&#45;&gt;Node24</title>
<g id="a_edge191_Node000034_Node000024"><a xlink:title=" ">
<path fill="none" stroke="#63b8ff" d="M762.86,-351.57C741.55,-370.64 705.77,-403.06 676,-432 659.55,-447.99 660.24,-458.2 640,-469 629.34,-474.69 617.21,-478.61 605.19,-481.31"/>
<polygon fill="#63b8ff" stroke="#63b8ff" points="765.4,-353.99 770.53,-344.72 760.74,-348.77 765.4,-353.99"/>
</a>
</g>
</g>
<!-- Node34&#45;&gt;Node25 -->
<g id="edge195_Node000034_Node000025" class="edge">
<title>Node34&#45;&gt;Node25</title>
<g id="a_edge195_Node000034_Node000025"><a xlink:title=" ">
<path fill="none" stroke="#63b8ff" d="M746.13,-347.97C717.67,-358.16 676.54,-372.37 640,-383 629.27,-386.12 617.8,-389.17 606.62,-391.99"/>
<polygon fill="#63b8ff" stroke="#63b8ff" points="747.42,-351.22 755.64,-344.54 745.04,-344.64 747.42,-351.22"/>
</a>
</g>
</g>
<!-- Node34&#45;&gt;Node26 -->
<g id="edge196_Node000034_Node000026" class="edge">
<title>Node34&#45;&gt;Node26</title>
<g id="a_edge196_Node000034_Node000026"><a xlink:title=" ">
<path fill="none" stroke="#63b8ff" d="M759.88,-350.88C736.83,-368.65 700.38,-399.26 676,-432 654.16,-461.33 668.47,-483.04 640,-506 631.16,-513.13 620.52,-518.18 609.56,-521.76"/>
<polygon fill="#63b8ff" stroke="#63b8ff" points="762.15,-353.56 768,-344.73 757.92,-347.98 762.15,-353.56"/>
</a>
</g>
</g>
<!-- Node35 -->
<g id="Node000035" class="node">
<title>Node35</title>
<g id="a_Node000035"><a xlink:href="$classcam_1_1nc_1_1heiden_1_1Creator.html#ae8e86bcc6f05521bf4b639128e3241ee" xlink:title=" ">
<polygon fill="white" stroke="#666666" points="619,-374 462,-374 462,-344 619,-344 619,-374"/>
<text text-anchor="start" x="470" y="-362" font-family="Helvetica,sans-Serif" font-size="10.00">cam.nc.heiden.Creator.probe</text>
<text text-anchor="middle" x="540.5" y="-351" font-family="Helvetica,sans-Serif" font-size="10.00">_downward_point</text>
</a>
</g>
</g>
<!-- Node34&#45;&gt;Node35 -->
<g id="edge193_Node000034_Node000035" class="edge">
<title>Node34&#45;&gt;Node35</title>
<g id="a_edge193_Node000034_Node000035"><a xlink:title=" ">
<path fill="none" stroke="#63b8ff" d="M676.33,-345.52C657.14,-347.44 637.44,-349.41 619.23,-351.23"/>
<polygon fill="#63b8ff" stroke="#63b8ff" points="676.7,-349 686.3,-344.52 676,-342.03 676.7,-349"/>
</a>
</g>
</g>
<!-- Node36 -->
<g id="Node000036" class="node">
<title>Node36</title>
<g id="a_Node000036"><a xlink:href="$classcam_1_1nc_1_1iso_1_1Creator.html#a40689f45d25f7f726d11a172b608c0a4" xlink:title=" ">
<polygon fill="white" stroke="#666666" points="609.5,-326 471.5,-326 471.5,-296 609.5,-296 609.5,-326"/>
<text text-anchor="start" x="479.5" y="-314" font-family="Helvetica,sans-Serif" font-size="10.00">cam.nc.iso.Creator.probe</text>
<text text-anchor="middle" x="540.5" y="-303" font-family="Helvetica,sans-Serif" font-size="10.00">_downward_point</text>
</a>
</g>
</g>
<!-- Node34&#45;&gt;Node36 -->
<g id="edge194_Node000034_Node000036" class="edge">
<title>Node34&#45;&gt;Node36</title>
<g id="a_edge194_Node000034_Node000036"><a xlink:title=" ">
<path fill="none" stroke="#63b8ff" d="M676.31,-324.48C653.69,-322.22 630.34,-319.88 609.57,-317.81"/>
<polygon fill="#63b8ff" stroke="#63b8ff" points="676,-327.97 686.3,-325.48 676.7,-321 676,-327.97"/>
</a>
</g>
</g>
<!-- Node37 -->
<g id="Node000037" class="node">
<title>Node37</title>
<g id="a_Node000037"><a xlink:href="$classcam_1_1nc_1_1emc2tap_1_1CreatorEMC2tap.html#ae7c40089d2816698fbe6cfbc9a10a052" xlink:title=" ">
<polygon fill="white" stroke="#666666" points="640,-277.5 441,-277.5 441,-258.5 640,-258.5 640,-277.5"/>
<text text-anchor="middle" x="540.5" y="-265.5" font-family="Helvetica,sans-Serif" font-size="10.00">cam.nc.emc2tap.CreatorEMC2tap.tap</text>
</a>
</g>
</g>
<!-- Node34&#45;&gt;Node37 -->
<g id="edge197_Node000034_Node000037" class="edge">
<title>Node34&#45;&gt;Node37</title>
<g id="a_edge197_Node000034_Node000037"><a xlink:title=" ">
<path fill="none" stroke="#63b8ff" d="M747.3,-321.93C718.88,-311.43 677.24,-296.86 640,-287 626.53,-283.43 611.86,-280.24 598.06,-277.54"/>
<polygon fill="#63b8ff" stroke="#63b8ff" points="746.17,-325.25 756.77,-325.46 748.62,-318.69 746.17,-325.25"/>
</a>
</g>
</g>
<!-- Node38 -->
<g id="Node000038" class="node">
<title>Node38</title>
<g id="a_Node000038"><a xlink:href="$classcam_1_1nc_1_1heiden_1_1Creator.html#a706db14683812bb3b86db958d7faa05a" xlink:title=" ">
<polygon fill="white" stroke="#666666" points="613,-201.5 468,-201.5 468,-182.5 613,-182.5 613,-201.5"/>
<text text-anchor="middle" x="540.5" y="-189.5" font-family="Helvetica,sans-Serif" font-size="10.00">cam.nc.heiden.Creator.tap</text>
</a>
</g>
</g>
<!-- Node34&#45;&gt;Node38 -->
<g id="edge198_Node000034_Node000038" class="edge">
<title>Node34&#45;&gt;Node38</title>
<g id="a_edge198_Node000034_Node000038"><a xlink:title=" ">
<path fill="none" stroke="#63b8ff" d="M766.04,-317.66C741.79,-291.56 692.19,-242.45 640,-216 627.6,-209.71 613.47,-205.02 599.86,-201.54"/>
<polygon fill="#63b8ff" stroke="#63b8ff" points="763.66,-320.24 772.99,-325.26 768.82,-315.52 763.66,-320.24"/>
</a>
</g>
</g>
</g>
</svg>
