<?xml version="1.0" encoding="UTF-8" standalone="no"?>
<!DOCTYPE svg PUBLIC "-//W3C//DTD SVG 1.1//EN"
 "http://www.w3.org/Graphics/SVG/1.1/DTD/svg11.dtd">
<!-- Generated by graphviz version 2.43.0 (0)
 -->
<!-- Title: cam.nc.makerbot_codes.Codes.TOOL Pages: 1 -->
<svg width="407pt" height="326pt"
 viewBox="0.00 0.00 407.00 326.00" xmlns="http://www.w3.org/2000/svg" xmlns:xlink="http://www.w3.org/1999/xlink">
<g id="graph0" class="graph" transform="scale(1 1) rotate(0) translate(4 322)">
<title>cam.nc.makerbot_codes.Codes.TOOL</title>
<!-- Node1 -->
<g id="Node000001" class="node">
<title>Node1</title>
<g id="a_Node000001"><a xlink:title=" ">
<polygon fill="#999999" stroke="#666666" points="399,-168.5 202,-168.5 202,-149.5 399,-149.5 399,-168.5"/>
<text text-anchor="middle" x="300.5" y="-156.5" font-family="Helvetica,sans-Serif" font-size="10.00">cam.nc.makerbot_codes.Codes.TOOL</text>
</a>
</g>
</g>
<!-- Node2 -->
<g id="Node000002" class="node">
<title>Node2</title>
<g id="a_Node000002"><a xlink:href="$classcam_1_1nc_1_1centroid1_1_1Creator.html#a36d8a0c5d271ca1246fa521b42b5cf29" xlink:title="tool info">
<polygon fill="white" stroke="#666666" points="163.5,-318 2.5,-318 2.5,-288 163.5,-288 163.5,-318"/>
<text text-anchor="start" x="10.5" y="-306" font-family="Helvetica,sans-Serif" font-size="10.00">cam.nc.centroid1.Creator.tool</text>
<text text-anchor="middle" x="83" y="-295" font-family="Helvetica,sans-Serif" font-size="10.00">_change</text>
</a>
</g>
</g>
<!-- Node1&#45;&gt;Node2 -->
<g id="edge15_Node000001_Node000002" class="edge">
<title>Node1&#45;&gt;Node2</title>
<g id="a_edge15_Node000001_Node000002"><a xlink:title=" ">
<path fill="none" stroke="#63b8ff" d="M284.71,-176.58C261.85,-202.66 215.4,-251.47 166,-279 159.91,-282.39 153.29,-285.35 146.55,-287.92"/>
<polygon fill="#63b8ff" stroke="#63b8ff" points="287.65,-178.53 291.53,-168.67 282.35,-173.96 287.65,-178.53"/>
</a>
</g>
</g>
<!-- Node3 -->
<g id="Node000003" class="node">
<title>Node3</title>
<g id="a_Node000003"><a xlink:href="$classcam_1_1nc_1_1gravos_1_1Creator.html#aa5dd1702c8a30a208fa995e6bfc13d50" xlink:title="Tools.">
<polygon fill="white" stroke="#666666" points="157,-270 9,-270 9,-240 157,-240 157,-270"/>
<text text-anchor="start" x="17" y="-258" font-family="Helvetica,sans-Serif" font-size="10.00">cam.nc.gravos.Creator.tool</text>
<text text-anchor="middle" x="83" y="-247" font-family="Helvetica,sans-Serif" font-size="10.00">_change</text>
</a>
</g>
</g>
<!-- Node1&#45;&gt;Node3 -->
<g id="edge16_Node000001_Node000003" class="edge">
<title>Node1&#45;&gt;Node3</title>
<g id="a_edge16_Node000001_Node000003"><a xlink:title=" ">
<path fill="none" stroke="#63b8ff" d="M275.59,-173.89C249.44,-189.7 205.92,-214.61 166,-231 158.18,-234.21 149.78,-237.18 141.44,-239.86"/>
<polygon fill="#63b8ff" stroke="#63b8ff" points="277.68,-176.71 284.4,-168.51 274.04,-170.74 277.68,-176.71"/>
</a>
</g>
</g>
<!-- Node4 -->
<g id="Node000004" class="node">
<title>Node4</title>
<g id="a_Node000004"><a xlink:href="$classcam_1_1nc_1_1heiden_1_1Creator.html#a1e0d0a0333918e86dfaa5e03437bf452" xlink:title="Tools.">
<polygon fill="white" stroke="#666666" points="157,-222 9,-222 9,-192 157,-192 157,-222"/>
<text text-anchor="start" x="17" y="-210" font-family="Helvetica,sans-Serif" font-size="10.00">cam.nc.heiden.Creator.tool</text>
<text text-anchor="middle" x="83" y="-199" font-family="Helvetica,sans-Serif" font-size="10.00">_change</text>
</a>
</g>
</g>
<!-- Node1&#45;&gt;Node4 -->
<g id="edge17_Node000001_Node000004" class="edge">
<title>Node1&#45;&gt;Node4</title>
<g id="a_edge17_Node000001_Node000004"><a xlink:title=" ">
<path fill="none" stroke="#63b8ff" d="M246.81,-170.74C218.05,-177.14 182.14,-185.14 151.36,-192"/>
<polygon fill="#63b8ff" stroke="#63b8ff" points="247.67,-174.13 256.67,-168.54 246.14,-167.3 247.67,-174.13"/>
</a>
</g>
</g>
<!-- Node5 -->
<g id="Node000005" class="node">
<title>Node5</title>
<g id="a_Node000005"><a xlink:href="$classcam_1_1nc_1_1heiden530_1_1Creator.html#a1d09a200e101159ed97068ca958de3ec" xlink:title="Tools.">
<polygon fill="white" stroke="#666666" points="166,-174 0,-174 0,-144 166,-144 166,-174"/>
<text text-anchor="start" x="8" y="-162" font-family="Helvetica,sans-Serif" font-size="10.00">cam.nc.heiden530.Creator.tool</text>
<text text-anchor="middle" x="83" y="-151" font-family="Helvetica,sans-Serif" font-size="10.00">_change</text>
</a>
</g>
</g>
<!-- Node1&#45;&gt;Node5 -->
<g id="edge18_Node000001_Node000005" class="edge">
<title>Node1&#45;&gt;Node5</title>
<g id="a_edge18_Node000001_Node000005"><a xlink:title=" ">
<path fill="none" stroke="#63b8ff" d="M191.76,-159C183.16,-159 174.56,-159 166.18,-159"/>
<polygon fill="#63b8ff" stroke="#63b8ff" points="191.84,-162.5 201.84,-159 191.84,-155.5 191.84,-162.5"/>
</a>
</g>
</g>
<!-- Node6 -->
<g id="Node000006" class="node">
<title>Node6</title>
<g id="a_Node000006"><a xlink:href="$classcam_1_1nc_1_1hm50_1_1Creator.html#a52a88e68142442ebc4581b840b5bab40" xlink:title="Tools.">
<polygon fill="white" stroke="#666666" points="154.5,-126 11.5,-126 11.5,-96 154.5,-96 154.5,-126"/>
<text text-anchor="start" x="19.5" y="-114" font-family="Helvetica,sans-Serif" font-size="10.00">cam.nc.hm50.Creator.tool</text>
<text text-anchor="middle" x="83" y="-103" font-family="Helvetica,sans-Serif" font-size="10.00">_change</text>
</a>
</g>
</g>
<!-- Node1&#45;&gt;Node6 -->
<g id="edge19_Node000001_Node000006" class="edge">
<title>Node1&#45;&gt;Node6</title>
<g id="a_edge19_Node000001_Node000006"><a xlink:title=" ">
<path fill="none" stroke="#63b8ff" d="M246.81,-147.26C218.05,-140.86 182.14,-132.86 151.36,-126"/>
<polygon fill="#63b8ff" stroke="#63b8ff" points="246.14,-150.7 256.67,-149.46 247.67,-143.87 246.14,-150.7"/>
</a>
</g>
</g>
<!-- Node7 -->
<g id="Node000007" class="node">
<title>Node7</title>
<g id="a_Node000007"><a xlink:href="$classcam_1_1nc_1_1iso_1_1Creator.html#a3e61292523aa893f0187112023e51eff" xlink:title="Tools.">
<polygon fill="white" stroke="#666666" points="147.5,-78 18.5,-78 18.5,-48 147.5,-48 147.5,-78"/>
<text text-anchor="start" x="26.5" y="-66" font-family="Helvetica,sans-Serif" font-size="10.00">cam.nc.iso.Creator.tool</text>
<text text-anchor="middle" x="83" y="-55" font-family="Helvetica,sans-Serif" font-size="10.00">_change</text>
</a>
</g>
</g>
<!-- Node1&#45;&gt;Node7 -->
<g id="edge20_Node000001_Node000007" class="edge">
<title>Node1&#45;&gt;Node7</title>
<g id="a_edge20_Node000001_Node000007"><a xlink:title=" ">
<path fill="none" stroke="#63b8ff" d="M275.59,-144.11C249.44,-128.3 205.92,-103.39 166,-87 158.18,-83.79 149.78,-80.82 141.44,-78.14"/>
<polygon fill="#63b8ff" stroke="#63b8ff" points="274.04,-147.26 284.4,-149.49 277.68,-141.29 274.04,-147.26"/>
</a>
</g>
</g>
<!-- Node8 -->
<g id="Node000008" class="node">
<title>Node8</title>
<g id="a_Node000008"><a xlink:href="$classcam_1_1nc_1_1mach3_1_1Creator.html#a4d1de1048649d3d4c98467248b80bf69" xlink:title="Tools.">
<polygon fill="white" stroke="#666666" points="157,-30 9,-30 9,0 157,0 157,-30"/>
<text text-anchor="start" x="17" y="-18" font-family="Helvetica,sans-Serif" font-size="10.00">cam.nc.mach3.Creator.tool</text>
<text text-anchor="middle" x="83" y="-7" font-family="Helvetica,sans-Serif" font-size="10.00">_change</text>
</a>
</g>
</g>
<!-- Node1&#45;&gt;Node8 -->
<g id="edge21_Node000001_Node000008" class="edge">
<title>Node1&#45;&gt;Node8</title>
<g id="a_edge21_Node000001_Node000008"><a xlink:title=" ">
<path fill="none" stroke="#63b8ff" d="M284.71,-141.42C261.85,-115.34 215.4,-66.53 166,-39 159.91,-35.61 153.29,-32.65 146.55,-30.08"/>
<polygon fill="#63b8ff" stroke="#63b8ff" points="282.35,-144.04 291.53,-149.33 287.65,-139.47 282.35,-144.04"/>
</a>
</g>
</g>
</g>
</svg>
