<?xml version="1.0" encoding="UTF-8" standalone="no"?>
<!DOCTYPE svg PUBLIC "-//W3C//DTD SVG 1.1//EN"
 "http://www.w3.org/Graphics/SVG/1.1/DTD/svg11.dtd">
<!-- Generated by graphviz version 2.43.0 (0)
 -->
<!-- Title: cam.nc.recreator.Redirector.workplane Pages: 1 -->
<svg width="630pt" height="122pt"
 viewBox="0.00 0.00 630.00 122.00" xmlns="http://www.w3.org/2000/svg" xmlns:xlink="http://www.w3.org/1999/xlink">
<g id="graph0" class="graph" transform="scale(1 1) rotate(0) translate(4 118)">
<title>cam.nc.recreator.Redirector.workplane</title>
<!-- Node1 -->
<g id="Node000001" class="node">
<title>Node1</title>
<g id="a_Node000001"><a xlink:title=" ">
<polygon fill="#999999" stroke="#666666" points="205,-56 0,-56 0,-37 205,-37 205,-56"/>
<text text-anchor="middle" x="102.5" y="-44" font-family="Helvetica,sans-Serif" font-size="10.00">cam.nc.recreator.Redirector.workplane</text>
</a>
</g>
</g>
<!-- Node1&#45;&gt;Node1 -->
<g id="edge18_Node000001_Node000001" class="edge">
<title>Node1&#45;&gt;Node1</title>
<g id="a_edge18_Node000001_Node000001"><a xlink:title=" ">
<path fill="none" stroke="#63b8ff" d="M66.13,-56.08C48.43,-64.73 60.55,-74 102.5,-74 133.96,-74 148.64,-68.79 146.55,-62.53"/>
<polygon fill="#63b8ff" stroke="#63b8ff" points="148.78,-59.83 138.87,-56.08 144.28,-65.19 148.78,-59.83"/>
</a>
</g>
</g>
<!-- Node2 -->
<g id="Node000002" class="node">
<title>Node2</title>
<g id="a_Node000002"><a xlink:href="$classcam_1_1nc_1_1attach_1_1Creator.html#a15a75411685b954b0073489b30f1342e" xlink:title=" ">
<polygon fill="white" stroke="#666666" points="423.5,-93 254.5,-93 254.5,-74 423.5,-74 423.5,-93"/>
<text text-anchor="middle" x="339" y="-81" font-family="Helvetica,sans-Serif" font-size="10.00">cam.nc.attach.Creator.cut_path</text>
</a>
</g>
</g>
<!-- Node1&#45;&gt;Node2 -->
<g id="edge13_Node000001_Node000002" class="edge">
<title>Node1&#45;&gt;Node2</title>
<g id="a_edge13_Node000001_Node000002"><a xlink:title=" ">
<path fill="none" stroke="#63b8ff" d="M163.89,-56.03C195.5,-61.02 234.38,-67.15 267.37,-72.36"/>
<polygon fill="#63b8ff" stroke="#63b8ff" points="266.98,-75.84 277.41,-73.94 268.08,-68.92 266.98,-75.84"/>
</a>
</g>
</g>
<!-- Node5 -->
<g id="Node000005" class="node">
<title>Node5</title>
<g id="a_Node000005"><a xlink:href="$classcam_1_1nc_1_1drag__knife_1_1Creator.html#a5db2841a5c931c72702e9bb7752ea731" xlink:title=" ">
<polygon fill="white" stroke="#666666" points="434,-56 244,-56 244,-37 434,-37 434,-56"/>
<text text-anchor="middle" x="339" y="-44" font-family="Helvetica,sans-Serif" font-size="10.00">cam.nc.drag_knife.Creator.cut_path</text>
</a>
</g>
</g>
<!-- Node1&#45;&gt;Node5 -->
<g id="edge16_Node000001_Node000005" class="edge">
<title>Node1&#45;&gt;Node5</title>
<g id="a_edge16_Node000001_Node000005"><a xlink:title=" ">
<path fill="none" stroke="#63b8ff" d="M205.33,-46.5C214.68,-46.5 224.16,-46.5 233.54,-46.5"/>
<polygon fill="#63b8ff" stroke="#63b8ff" points="233.65,-50 243.65,-46.5 233.65,-43 233.65,-50"/>
</a>
</g>
</g>
<!-- Node6 -->
<g id="Node000006" class="node">
<title>Node6</title>
<g id="a_Node000006"><a xlink:href="$classcam_1_1nc_1_1recreator_1_1Redirector.html#ace3039c310a7ee83dafe4fee4382f511" xlink:title=" ">
<polygon fill="white" stroke="#666666" points="437,-19 241,-19 241,0 437,0 437,-19"/>
<text text-anchor="middle" x="339" y="-7" font-family="Helvetica,sans-Serif" font-size="10.00">cam.nc.recreator.Redirector.cut_path</text>
</a>
</g>
</g>
<!-- Node1&#45;&gt;Node6 -->
<g id="edge17_Node000001_Node000006" class="edge">
<title>Node1&#45;&gt;Node6</title>
<g id="a_edge17_Node000001_Node000006"><a xlink:title=" ">
<path fill="none" stroke="#63b8ff" d="M163.89,-36.97C195.5,-31.98 234.38,-25.85 267.37,-20.64"/>
<polygon fill="#63b8ff" stroke="#63b8ff" points="268.08,-24.08 277.41,-19.06 266.98,-17.16 268.08,-24.08"/>
</a>
</g>
</g>
<!-- Node3 -->
<g id="Node000003" class="node">
<title>Node3</title>
<g id="a_Node000003"><a xlink:href="$classcam_1_1nc_1_1attach_1_1Creator.html#a27a17497f0889323fd31aab4f857e577" xlink:title=" ">
<polygon fill="white" stroke="#666666" points="622,-114 473,-114 473,-95 622,-95 622,-114"/>
<text text-anchor="middle" x="547.5" y="-102" font-family="Helvetica,sans-Serif" font-size="10.00">cam.nc.attach.Creator.feed</text>
</a>
</g>
</g>
<!-- Node2&#45;&gt;Node3 -->
<g id="edge14_Node000002_Node000003" class="edge">
<title>Node2&#45;&gt;Node3</title>
<g id="a_edge14_Node000002_Node000003"><a xlink:title=" ">
<path fill="none" stroke="#63b8ff" d="M423.69,-92.01C436.57,-93.32 449.87,-94.67 462.76,-95.98"/>
<polygon fill="#63b8ff" stroke="#63b8ff" points="462.68,-99.49 472.98,-97.02 463.38,-92.53 462.68,-99.49"/>
</a>
</g>
</g>
<!-- Node4 -->
<g id="Node000004" class="node">
<title>Node4</title>
<g id="a_Node000004"><a xlink:href="$classcam_1_1nc_1_1attach_1_1Creator.html#a64e13dd00fd58d3db3818de0d188bafa" xlink:title="Shift in Z.">
<polygon fill="white" stroke="#666666" points="618.5,-76.5 476.5,-76.5 476.5,-46.5 618.5,-46.5 618.5,-76.5"/>
<text text-anchor="start" x="484.5" y="-64.5" font-family="Helvetica,sans-Serif" font-size="10.00">cam.nc.attach.Creator.set</text>
<text text-anchor="middle" x="547.5" y="-53.5" font-family="Helvetica,sans-Serif" font-size="10.00">PdcfIfNotSet</text>
</a>
</g>
</g>
<!-- Node2&#45;&gt;Node4 -->
<g id="edge15_Node000002_Node000004" class="edge">
<title>Node2&#45;&gt;Node4</title>
<g id="a_edge15_Node000002_Node000004"><a xlink:title=" ">
<path fill="none" stroke="#63b8ff" d="M423.69,-74.58C437.73,-73.09 452.26,-71.54 466.21,-70.05"/>
<polygon fill="#63b8ff" stroke="#63b8ff" points="466.67,-73.52 476.24,-68.98 465.93,-66.56 466.67,-73.52"/>
</a>
</g>
</g>
</g>
</svg>
