<?xml version="1.0" encoding="UTF-8" standalone="no"?>
<!DOCTYPE svg PUBLIC "-//W3C//DTD SVG 1.1//EN"
 "http://www.w3.org/Graphics/SVG/1.1/DTD/svg11.dtd">
<!-- Generated by graphviz version 2.43.0 (0)
 -->
<!-- Title: cam.nc.iso.Creator.DRILL_WITH_DWELL Pages: 1 -->
<svg width="520pt" height="64pt"
 viewBox="0.00 0.00 520.00 64.00" xmlns="http://www.w3.org/2000/svg" xmlns:xlink="http://www.w3.org/1999/xlink">
<g id="graph0" class="graph" transform="scale(1 1) rotate(0) translate(4 60)">
<title>cam.nc.iso.Creator.DRILL_WITH_DWELL</title>
<!-- Node1 -->
<g id="Node000001" class="node">
<title>Node1</title>
<g id="a_Node000001"><a xlink:title=" ">
<polygon fill="#999999" stroke="#666666" points="512,-42.5 374,-42.5 374,-12.5 512,-12.5 512,-42.5"/>
<text text-anchor="start" x="382" y="-30.5" font-family="Helvetica,sans-Serif" font-size="10.00">cam.nc.iso.Creator.DRILL</text>
<text text-anchor="middle" x="443" y="-19.5" font-family="Helvetica,sans-Serif" font-size="10.00">_WITH_DWELL</text>
</a>
</g>
</g>
<!-- Node2 -->
<g id="Node000002" class="node">
<title>Node2</title>
<g id="a_Node000002"><a xlink:href="$classcam_1_1nc_1_1heiden_1_1Creator.html#ab1ba24f0b927edab5d70c6642ceacfc4" xlink:title=" ">
<polygon fill="white" stroke="#666666" points="338,-56 190,-56 190,-37 338,-37 338,-56"/>
<text text-anchor="middle" x="264" y="-44" font-family="Helvetica,sans-Serif" font-size="10.00">cam.nc.heiden.Creator.drill</text>
</a>
</g>
</g>
<!-- Node1&#45;&gt;Node2 -->
<g id="edge9_Node000001_Node000002" class="edge">
<title>Node1&#45;&gt;Node2</title>
<g id="a_edge9_Node000001_Node000002"><a xlink:title=" ">
<path fill="none" stroke="#63b8ff" d="M363.86,-35.89C355.31,-36.81 346.63,-37.74 338.14,-38.65"/>
<polygon fill="#63b8ff" stroke="#63b8ff" points="364.25,-39.37 373.82,-34.82 363.5,-32.41 364.25,-39.37"/>
</a>
</g>
</g>
<!-- Node4 -->
<g id="Node000004" class="node">
<title>Node4</title>
<g id="a_Node000004"><a xlink:href="$classcam_1_1nc_1_1iso_1_1Creator.html#a61f29267aaaddc3d5c8471f9bf714cb3" xlink:title=" ">
<polygon fill="white" stroke="#666666" points="328.5,-19 199.5,-19 199.5,0 328.5,0 328.5,-19"/>
<text text-anchor="middle" x="264" y="-7" font-family="Helvetica,sans-Serif" font-size="10.00">cam.nc.iso.Creator.drill</text>
</a>
</g>
</g>
<!-- Node1&#45;&gt;Node4 -->
<g id="edge11_Node000001_Node000004" class="edge">
<title>Node1&#45;&gt;Node4</title>
<g id="a_edge11_Node000001_Node000004"><a xlink:title=" ">
<path fill="none" stroke="#63b8ff" d="M363.66,-19.53C352,-18.35 340.1,-17.14 328.79,-15.99"/>
<polygon fill="#63b8ff" stroke="#63b8ff" points="363.52,-23.04 373.82,-20.57 364.23,-16.07 363.52,-23.04"/>
</a>
</g>
</g>
<!-- Node3 -->
<g id="Node000003" class="node">
<title>Node3</title>
<g id="a_Node000003"><a xlink:href="$classcam_1_1nc_1_1cad__iso__read_1_1Parser.html#abf885d019794a8bef1b69f446c8851e1" xlink:title=" ">
<polygon fill="white" stroke="#666666" points="154,-42.5 0,-42.5 0,-12.5 154,-12.5 154,-42.5"/>
<text text-anchor="start" x="8" y="-30.5" font-family="Helvetica,sans-Serif" font-size="10.00">cam.nc.cad_iso_read.Parser.</text>
<text text-anchor="middle" x="77" y="-19.5" font-family="Helvetica,sans-Serif" font-size="10.00">Parse</text>
</a>
</g>
</g>
<!-- Node2&#45;&gt;Node3 -->
<g id="edge10_Node000002_Node000003" class="edge">
<title>Node2&#45;&gt;Node3</title>
<g id="a_edge10_Node000002_Node000003"><a xlink:title=" ">
<path fill="none" stroke="#63b8ff" d="M179.91,-37.97C171.36,-37.09 162.7,-36.2 154.23,-35.33"/>
<polygon fill="#63b8ff" stroke="#63b8ff" points="179.58,-41.45 189.88,-38.99 180.29,-34.49 179.58,-41.45"/>
</a>
</g>
</g>
<!-- Node4&#45;&gt;Node3 -->
<g id="edge12_Node000004_Node000003" class="edge">
<title>Node4&#45;&gt;Node3</title>
<g id="a_edge12_Node000004_Node000003"><a xlink:title=" ">
<path fill="none" stroke="#63b8ff" d="M189.32,-16.67C177.77,-17.79 165.83,-18.95 154.23,-20.08"/>
<polygon fill="#63b8ff" stroke="#63b8ff" points="189.72,-20.15 199.33,-15.69 189.04,-13.18 189.72,-20.15"/>
</a>
</g>
</g>
</g>
</svg>
