<?xml version="1.0" encoding="UTF-8" standalone="no"?>
<!DOCTYPE svg PUBLIC "-//W3C//DTD SVG 1.1//EN"
 "http://www.w3.org/Graphics/SVG/1.1/DTD/svg11.dtd">
<!-- Generated by graphviz version 2.43.0 (0)
 -->
<!-- Title: cam.nc.hpgl3d.Creator Pages: 1 -->
<svg width="129pt" height="737pt"
 viewBox="0.00 0.00 129.00 737.00" xmlns="http://www.w3.org/2000/svg" xmlns:xlink="http://www.w3.org/1999/xlink">
<g id="graph0" class="graph" transform="scale(1 1) rotate(0) translate(4 733)">
<title>cam.nc.hpgl3d.Creator</title>
<!-- Node1 -->
<g id="Node000001" class="node">
<title>Node1</title>
<g id="a_Node000001"><a xlink:title=" ">
<polygon fill="#999999" stroke="transparent" points="121,-184 0,-184 0,0 121,0 121,-184"/>
<text text-anchor="start" x="5.5" y="-172" font-family="Helvetica,sans-Serif" font-size="10.00">cam.nc.hpgl3d.Creator</text>
<text text-anchor="start" x="6" y="-157" font-family="Helvetica,sans-Serif" font-size="10.00">+</text>
<text text-anchor="start" x="20.5" y="-157" font-family="Helvetica,sans-Serif" font-size="10.00">z</text>
<text text-anchor="start" x="6" y="-142" font-family="Helvetica,sans-Serif" font-size="10.00">+</text>
<text text-anchor="start" x="20.5" y="-142" font-family="Helvetica,sans-Serif" font-size="10.00">doing_rapid</text>
<text text-anchor="start" x="6" y="-127" font-family="Helvetica,sans-Serif" font-size="10.00">+</text>
<text text-anchor="start" x="20.5" y="-127" font-family="Helvetica,sans-Serif" font-size="10.00">x</text>
<text text-anchor="start" x="6" y="-112" font-family="Helvetica,sans-Serif" font-size="10.00">+</text>
<text text-anchor="start" x="20.5" y="-112" font-family="Helvetica,sans-Serif" font-size="10.00">y</text>
<text text-anchor="start" x="6" y="-97" font-family="Helvetica,sans-Serif" font-size="10.00">+</text>
<text text-anchor="start" x="20.5" y="-97" font-family="Helvetica,sans-Serif" font-size="10.00">creator</text>
<text text-anchor="start" x="6" y="-82" font-family="Helvetica,sans-Serif" font-size="10.00">+</text>
<text text-anchor="start" x="20.5" y="-82" font-family="Helvetica,sans-Serif" font-size="10.00">__init__()</text>
<text text-anchor="start" x="6" y="-67" font-family="Helvetica,sans-Serif" font-size="10.00">+</text>
<text text-anchor="start" x="20.5" y="-67" font-family="Helvetica,sans-Serif" font-size="10.00">program_begin()</text>
<text text-anchor="start" x="6" y="-52" font-family="Helvetica,sans-Serif" font-size="10.00">+</text>
<text text-anchor="start" x="20.5" y="-52" font-family="Helvetica,sans-Serif" font-size="10.00">program_end()</text>
<text text-anchor="start" x="6" y="-37" font-family="Helvetica,sans-Serif" font-size="10.00">+</text>
<text text-anchor="start" x="20.5" y="-37" font-family="Helvetica,sans-Serif" font-size="10.00">get_machine_xyz()</text>
<text text-anchor="start" x="6" y="-22" font-family="Helvetica,sans-Serif" font-size="10.00">+</text>
<text text-anchor="start" x="20.5" y="-22" font-family="Helvetica,sans-Serif" font-size="10.00">rapid()</text>
<text text-anchor="start" x="6" y="-7" font-family="Helvetica,sans-Serif" font-size="10.00">+</text>
<text text-anchor="start" x="20.5" y="-7" font-family="Helvetica,sans-Serif" font-size="10.00">feed()</text>
<polygon fill="#666666" stroke="#666666" points="0.5,-167 0.5,-167 121.5,-167 121.5,-167 0.5,-167"/>
<polygon fill="#666666" stroke="#666666" points="0.5,-92 0.5,-92 18.5,-92 18.5,-92 0.5,-92"/>
<polygon fill="#666666" stroke="#666666" points="18.5,-92 18.5,-92 121.5,-92 121.5,-92 18.5,-92"/>
<polygon fill="none" stroke="#666666" points="0,0 0,-184 121,-184 121,0 0,0"/>
</a>
</g>
</g>
<!-- Node2 -->
<g id="Node000002" class="node">
<title>Node2</title>
<g id="a_Node000002"><a xlink:href="$classcam_1_1nc_1_1hpgl2d_1_1Creator.html" xlink:title=" ">
<polygon fill="white" stroke="transparent" points="121,-479 0,-479 0,-220 121,-220 121,-479"/>
<text text-anchor="start" x="5.5" y="-466.5" font-family="Helvetica,sans-Serif" font-size="10.00">cam.nc.hpgl2d.Creator</text>
<text text-anchor="start" x="6" y="-451.5" font-family="Helvetica,sans-Serif" font-size="10.00">+</text>
<text text-anchor="start" x="20.5" y="-451.5" font-family="Helvetica,sans-Serif" font-size="10.00">x</text>
<text text-anchor="start" x="6" y="-436.5" font-family="Helvetica,sans-Serif" font-size="10.00">+</text>
<text text-anchor="start" x="20.5" y="-436.5" font-family="Helvetica,sans-Serif" font-size="10.00">y</text>
<text text-anchor="start" x="6" y="-421.5" font-family="Helvetica,sans-Serif" font-size="10.00">+</text>
<text text-anchor="start" x="20.5" y="-421.5" font-family="Helvetica,sans-Serif" font-size="10.00">units_to_mc_units</text>
<text text-anchor="start" x="6" y="-406.5" font-family="Helvetica,sans-Serif" font-size="10.00">+</text>
<text text-anchor="start" x="20.5" y="-406.5" font-family="Helvetica,sans-Serif" font-size="10.00">creator</text>
<text text-anchor="start" x="6" y="-391.5" font-family="Helvetica,sans-Serif" font-size="10.00">+</text>
<text text-anchor="start" x="20.5" y="-391.5" font-family="Helvetica,sans-Serif" font-size="10.00">__init__()</text>
<text text-anchor="start" x="6" y="-376.5" font-family="Helvetica,sans-Serif" font-size="10.00">+</text>
<text text-anchor="start" x="20.5" y="-376.5" font-family="Helvetica,sans-Serif" font-size="10.00">imperial()</text>
<text text-anchor="start" x="6" y="-361.5" font-family="Helvetica,sans-Serif" font-size="10.00">+</text>
<text text-anchor="start" x="20.5" y="-361.5" font-family="Helvetica,sans-Serif" font-size="10.00">metric()</text>
<text text-anchor="start" x="6" y="-346.5" font-family="Helvetica,sans-Serif" font-size="10.00">+</text>
<text text-anchor="start" x="20.5" y="-346.5" font-family="Helvetica,sans-Serif" font-size="10.00">program_begin()</text>
<text text-anchor="start" x="6" y="-331.5" font-family="Helvetica,sans-Serif" font-size="10.00">+</text>
<text text-anchor="start" x="20.5" y="-331.5" font-family="Helvetica,sans-Serif" font-size="10.00">program_end()</text>
<text text-anchor="start" x="6" y="-316.5" font-family="Helvetica,sans-Serif" font-size="10.00">+</text>
<text text-anchor="start" x="20.5" y="-316.5" font-family="Helvetica,sans-Serif" font-size="10.00">closest_int()</text>
<text text-anchor="start" x="6" y="-301.5" font-family="Helvetica,sans-Serif" font-size="10.00">+</text>
<text text-anchor="start" x="20.5" y="-301.5" font-family="Helvetica,sans-Serif" font-size="10.00">get_machine_x_y()</text>
<text text-anchor="start" x="6" y="-286.5" font-family="Helvetica,sans-Serif" font-size="10.00">+</text>
<text text-anchor="start" x="20.5" y="-286.5" font-family="Helvetica,sans-Serif" font-size="10.00">rapid()</text>
<text text-anchor="start" x="6" y="-271.5" font-family="Helvetica,sans-Serif" font-size="10.00">+</text>
<text text-anchor="start" x="20.5" y="-271.5" font-family="Helvetica,sans-Serif" font-size="10.00">feed()</text>
<text text-anchor="start" x="6" y="-256.5" font-family="Helvetica,sans-Serif" font-size="10.00">+</text>
<text text-anchor="start" x="20.5" y="-256.5" font-family="Helvetica,sans-Serif" font-size="10.00">arc()</text>
<text text-anchor="start" x="6" y="-241.5" font-family="Helvetica,sans-Serif" font-size="10.00">+</text>
<text text-anchor="start" x="20.5" y="-241.5" font-family="Helvetica,sans-Serif" font-size="10.00">arc_cw()</text>
<text text-anchor="start" x="6" y="-226.5" font-family="Helvetica,sans-Serif" font-size="10.00">+</text>
<text text-anchor="start" x="20.5" y="-226.5" font-family="Helvetica,sans-Serif" font-size="10.00">arc_ccw()</text>
<polygon fill="#666666" stroke="#666666" points="0.5,-461.5 0.5,-461.5 121.5,-461.5 121.5,-461.5 0.5,-461.5"/>
<polygon fill="#666666" stroke="#666666" points="0.5,-401.5 0.5,-401.5 18.5,-401.5 18.5,-401.5 0.5,-401.5"/>
<polygon fill="#666666" stroke="#666666" points="18.5,-401.5 18.5,-401.5 121.5,-401.5 121.5,-401.5 18.5,-401.5"/>
<polygon fill="none" stroke="#666666" points="0,-220 0,-479 121,-479 121,-220 0,-220"/>
</a>
</g>
</g>
<!-- Node2&#45;&gt;Node1 -->
<g id="edge5_Node000001_Node000002" class="edge">
<title>Node2&#45;&gt;Node1</title>
<g id="a_edge5_Node000001_Node000002"><a xlink:title=" ">
<path fill="none" stroke="#63b8ff" d="M60.5,-209.49C60.5,-200.87 60.5,-192.32 60.5,-184"/>
<polygon fill="none" stroke="#63b8ff" points="57,-209.63 60.5,-219.63 64,-209.63 57,-209.63"/>
</a>
</g>
</g>
<!-- Node3 -->
<g id="Node000003" class="node">
<title>Node3</title>
<g id="a_Node000003"><a xlink:href="$classcam_1_1nc_1_1nc_1_1Creator.html" xlink:title=" ">
<polygon fill="white" stroke="transparent" points="112,-729 9,-729 9,-515 112,-515 112,-729"/>
<text text-anchor="start" x="16.5" y="-717" font-family="Helvetica,sans-Serif" font-size="10.00">cam.nc.nc.Creator</text>
<text text-anchor="start" x="13.5" y="-702" font-family="Helvetica,sans-Serif" font-size="10.00">+</text>
<text text-anchor="start" x="26.5" y="-702" font-family="Helvetica,sans-Serif" font-size="10.00">file</text>
<text text-anchor="start" x="13.5" y="-687" font-family="Helvetica,sans-Serif" font-size="10.00">+</text>
<text text-anchor="start" x="26.5" y="-687" font-family="Helvetica,sans-Serif" font-size="10.00">filename</text>
<text text-anchor="start" x="13.5" y="-672" font-family="Helvetica,sans-Serif" font-size="10.00">+</text>
<text text-anchor="start" x="26.5" y="-672" font-family="Helvetica,sans-Serif" font-size="10.00">__init__()</text>
<text text-anchor="start" x="13.5" y="-657" font-family="Helvetica,sans-Serif" font-size="10.00">+</text>
<text text-anchor="start" x="26.5" y="-657" font-family="Helvetica,sans-Serif" font-size="10.00">file_open()</text>
<text text-anchor="start" x="13.5" y="-642" font-family="Helvetica,sans-Serif" font-size="10.00">+</text>
<text text-anchor="start" x="26.5" y="-642" font-family="Helvetica,sans-Serif" font-size="10.00">file_close()</text>
<text text-anchor="start" x="13.5" y="-627" font-family="Helvetica,sans-Serif" font-size="10.00">+</text>
<text text-anchor="start" x="26.5" y="-627" font-family="Helvetica,sans-Serif" font-size="10.00">write()</text>
<text text-anchor="start" x="13.5" y="-612" font-family="Helvetica,sans-Serif" font-size="10.00">+</text>
<text text-anchor="start" x="26.5" y="-612" font-family="Helvetica,sans-Serif" font-size="10.00">writem()</text>
<text text-anchor="start" x="13.5" y="-597" font-family="Helvetica,sans-Serif" font-size="10.00">+</text>
<text text-anchor="start" x="26.5" y="-597" font-family="Helvetica,sans-Serif" font-size="10.00">program_begin()</text>
<text text-anchor="start" x="13.5" y="-582" font-family="Helvetica,sans-Serif" font-size="10.00">+</text>
<text text-anchor="start" x="26.5" y="-582" font-family="Helvetica,sans-Serif" font-size="10.00">add_stock()</text>
<text text-anchor="start" x="13.5" y="-567" font-family="Helvetica,sans-Serif" font-size="10.00">+</text>
<text text-anchor="start" x="26.5" y="-567" font-family="Helvetica,sans-Serif" font-size="10.00">program_stop()</text>
<text text-anchor="start" x="13.5" y="-552" font-family="Helvetica,sans-Serif" font-size="10.00">+</text>
<text text-anchor="start" x="26.5" y="-552" font-family="Helvetica,sans-Serif" font-size="10.00">program_end()</text>
<text text-anchor="start" x="13.5" y="-537" font-family="Helvetica,sans-Serif" font-size="10.00">+</text>
<text text-anchor="start" x="26.5" y="-537" font-family="Helvetica,sans-Serif" font-size="10.00">flush_nc()</text>
<text text-anchor="start" x="26.5" y="-522" font-family="Helvetica,sans-Serif" font-size="10.00">and 77 more...</text>
<polygon fill="#666666" stroke="#666666" points="9.5,-712 9.5,-712 112.5,-712 112.5,-712 9.5,-712"/>
<polygon fill="#666666" stroke="#666666" points="9.5,-682 9.5,-682 24.5,-682 24.5,-682 9.5,-682"/>
<polygon fill="#666666" stroke="#666666" points="24.5,-682 24.5,-682 112.5,-682 112.5,-682 24.5,-682"/>
<polygon fill="none" stroke="#666666" points="9,-515 9,-729 112,-729 112,-515 9,-515"/>
</a>
</g>
</g>
<!-- Node3&#45;&gt;Node2 -->
<g id="edge6_Node000002_Node000003" class="edge">
<title>Node3&#45;&gt;Node2</title>
<g id="a_edge6_Node000002_Node000003"><a xlink:title=" ">
<path fill="none" stroke="#63b8ff" d="M60.5,-504.66C60.5,-496.24 60.5,-487.73 60.5,-479.25"/>
<polygon fill="none" stroke="#63b8ff" points="57,-504.87 60.5,-514.87 64,-504.87 57,-504.87"/>
</a>
</g>
</g>
</g>
</svg>
