<?xml version="1.0" encoding="UTF-8" standalone="no"?>
<!DOCTYPE svg PUBLIC "-//W3C//DTD SVG 1.1//EN"
 "http://www.w3.org/Graphics/SVG/1.1/DTD/svg11.dtd">
<!-- Generated by graphviz version 2.43.0 (0)
 -->
<!-- Title: cam.nc.heiden.Creator.FEEDRATE Pages: 1 -->
<svg width="614pt" height="408pt"
 viewBox="0.00 0.00 614.00 408.00" xmlns="http://www.w3.org/2000/svg" xmlns:xlink="http://www.w3.org/1999/xlink">
<g id="graph0" class="graph" transform="scale(1 1) rotate(0) translate(4 404)">
<title>cam.nc.heiden.Creator.FEEDRATE</title>
<!-- Node1 -->
<g id="Node000001" class="node">
<title>Node1</title>
<g id="a_Node000001"><a xlink:title=" ">
<polygon fill="#999999" stroke="#666666" points="179,-212 0,-212 0,-193 179,-193 179,-212"/>
<text text-anchor="middle" x="89.5" y="-200" font-family="Helvetica,sans-Serif" font-size="10.00">cam.nc.heiden.Creator.FEEDRATE</text>
</a>
</g>
</g>
<!-- Node2 -->
<g id="Node000002" class="node">
<title>Node2</title>
<g id="a_Node000002"><a xlink:href="$classcam_1_1nc_1_1emc2_1_1Creator.html#a47a9e4f5f35681f580765bba2f0f97a5" xlink:title=" ">
<polygon fill="white" stroke="#666666" points="377.5,-400 223.5,-400 223.5,-381 377.5,-381 377.5,-400"/>
<text text-anchor="middle" x="300.5" y="-388" font-family="Helvetica,sans-Serif" font-size="10.00">cam.nc.emc2.Creator.SPACE</text>
</a>
</g>
</g>
<!-- Node1&#45;&gt;Node2 -->
<g id="edge35_Node000001_Node000002" class="edge">
<title>Node1&#45;&gt;Node2</title>
<g id="a_edge35_Node000001_Node000002"><a xlink:title=" ">
<path fill="none" stroke="#63b8ff" d="M94.5,-212.11C107.24,-241.43 149.89,-330.37 215,-372.5 217.48,-374.1 220.08,-375.57 222.76,-376.9"/>
<polygon fill="#63b8ff" stroke="#63b8ff" points="221.6,-380.21 232.16,-380.97 224.37,-373.79 221.6,-380.21"/>
</a>
</g>
</g>
<!-- Node3 -->
<g id="Node000003" class="node">
<title>Node3</title>
<g id="a_Node000003"><a xlink:href="$classcam_1_1nc_1_1emc2b_1_1Creator.html#abff5586e78bb91681bd41dafdea5a9e7" xlink:title=" ">
<polygon fill="white" stroke="#666666" points="380.5,-363 220.5,-363 220.5,-344 380.5,-344 380.5,-363"/>
<text text-anchor="middle" x="300.5" y="-351" font-family="Helvetica,sans-Serif" font-size="10.00">cam.nc.emc2b.Creator.SPACE</text>
</a>
</g>
</g>
<!-- Node1&#45;&gt;Node3 -->
<g id="edge36_Node000001_Node000003" class="edge">
<title>Node1&#45;&gt;Node3</title>
<g id="a_edge36_Node000001_Node000003"><a xlink:title=" ">
<path fill="none" stroke="#63b8ff" d="M96.67,-212.32C112.81,-237.12 158.89,-302.53 215,-334.5 218.93,-336.74 223.1,-338.71 227.4,-340.45"/>
<polygon fill="#63b8ff" stroke="#63b8ff" points="226.39,-343.81 236.98,-343.91 228.76,-337.22 226.39,-343.81"/>
</a>
</g>
</g>
<!-- Node4 -->
<g id="Node000004" class="node">
<title>Node4</title>
<g id="a_Node000004"><a xlink:href="$classcam_1_1nc_1_1emc2tap_1_1CodesEMC2.html#a6a0d71a1c6e9f8a80228dc220a0e57ca" xlink:title=" ">
<polygon fill="white" stroke="#666666" points="381,-325.5 220,-325.5 220,-295.5 381,-295.5 381,-325.5"/>
<text text-anchor="start" x="228" y="-313.5" font-family="Helvetica,sans-Serif" font-size="10.00">cam.nc.emc2tap.CodesEMC2.</text>
<text text-anchor="middle" x="300.5" y="-302.5" font-family="Helvetica,sans-Serif" font-size="10.00">SPACE</text>
</a>
</g>
</g>
<!-- Node1&#45;&gt;Node4 -->
<g id="edge37_Node000001_Node000004" class="edge">
<title>Node1&#45;&gt;Node4</title>
<g id="a_edge37_Node000001_Node000004"><a xlink:title=" ">
<path fill="none" stroke="#63b8ff" d="M102.1,-212.21C123.26,-229.46 170.08,-265.62 215,-286.5 219.27,-288.48 223.74,-290.34 228.3,-292.07"/>
<polygon fill="#63b8ff" stroke="#63b8ff" points="227.15,-295.37 237.74,-295.44 229.5,-288.78 227.15,-295.37"/>
</a>
</g>
</g>
<!-- Node5 -->
<g id="Node000005" class="node">
<title>Node5</title>
<g id="a_Node000005"><a xlink:href="$classcam_1_1nc_1_1heiden_1_1Creator.html#a2c4277ffddaea0f92c906c6744f7a3bd" xlink:title="Codes.">
<polygon fill="white" stroke="#666666" points="380.5,-277 220.5,-277 220.5,-258 380.5,-258 380.5,-277"/>
<text text-anchor="middle" x="300.5" y="-265" font-family="Helvetica,sans-Serif" font-size="10.00">cam.nc.heiden.Creator.SPACE</text>
</a>
</g>
</g>
<!-- Node1&#45;&gt;Node5 -->
<g id="edge38_Node000001_Node000005" class="edge">
<title>Node1&#45;&gt;Node5</title>
<g id="a_edge38_Node000001_Node000005"><a xlink:title=" ">
<path fill="none" stroke="#63b8ff" d="M113.59,-212.08C138.36,-222.11 178.98,-237.85 215,-248.5 223.68,-251.07 232.96,-253.48 242.06,-255.67"/>
<polygon fill="#63b8ff" stroke="#63b8ff" points="241.31,-259.08 251.84,-257.95 242.9,-252.27 241.31,-259.08"/>
</a>
</g>
</g>
<!-- Node6 -->
<g id="Node000006" class="node">
<title>Node6</title>
<g id="a_Node000006"><a xlink:href="$classcam_1_1nc_1_1heiden530_1_1Creator.html#aa64b19b0edc2ac1f2d568b09ca2aebcb" xlink:title="Codes.">
<polygon fill="white" stroke="#666666" points="374,-239.5 227,-239.5 227,-209.5 374,-209.5 374,-239.5"/>
<text text-anchor="start" x="235" y="-227.5" font-family="Helvetica,sans-Serif" font-size="10.00">cam.nc.heiden530.Creator.</text>
<text text-anchor="middle" x="300.5" y="-216.5" font-family="Helvetica,sans-Serif" font-size="10.00">SPACE</text>
</a>
</g>
</g>
<!-- Node1&#45;&gt;Node6 -->
<g id="edge39_Node000001_Node000006" class="edge">
<title>Node1&#45;&gt;Node6</title>
<g id="a_edge39_Node000001_Node000006"><a xlink:title=" ">
<path fill="none" stroke="#63b8ff" d="M179.13,-211.83C191.56,-213.14 204.3,-214.48 216.62,-215.78"/>
<polygon fill="#63b8ff" stroke="#63b8ff" points="216.54,-219.29 226.85,-216.85 217.27,-212.32 216.54,-219.29"/>
</a>
</g>
</g>
<!-- Node7 -->
<g id="Node000007" class="node">
<title>Node7</title>
<g id="a_Node000007"><a xlink:href="$classcam_1_1nc_1_1iso_1_1Creator.html#a79463d437baaaf23c828a2c9e62393f3" xlink:title=" ">
<polygon fill="white" stroke="#666666" points="371,-191 230,-191 230,-172 371,-172 371,-191"/>
<text text-anchor="middle" x="300.5" y="-179" font-family="Helvetica,sans-Serif" font-size="10.00">cam.nc.iso.Creator.SPACE</text>
</a>
</g>
</g>
<!-- Node1&#45;&gt;Node7 -->
<g id="edge40_Node000001_Node000007" class="edge">
<title>Node1&#45;&gt;Node7</title>
<g id="a_edge40_Node000001_Node000007"><a xlink:title=" ">
<path fill="none" stroke="#63b8ff" d="M179.13,-193.59C192.61,-192.24 206.45,-190.85 219.72,-189.52"/>
<polygon fill="#63b8ff" stroke="#63b8ff" points="220.14,-192.99 229.74,-188.51 219.44,-186.03 220.14,-192.99"/>
</a>
</g>
</g>
<!-- Node15 -->
<g id="Node000015" class="node">
<title>Node15</title>
<g id="a_Node000015"><a xlink:href="$classcam_1_1nc_1_1makerbot__codes_1_1Codes.html#a497077e0e500cc8f419b8f3f61f008b4" xlink:title=" ">
<polygon fill="white" stroke="#666666" points="386,-153.5 215,-153.5 215,-123.5 386,-123.5 386,-153.5"/>
<text text-anchor="start" x="223" y="-141.5" font-family="Helvetica,sans-Serif" font-size="10.00">cam.nc.makerbot_codes.Codes.</text>
<text text-anchor="middle" x="300.5" y="-130.5" font-family="Helvetica,sans-Serif" font-size="10.00">SPACE</text>
</a>
</g>
</g>
<!-- Node1&#45;&gt;Node15 -->
<g id="edge48_Node000001_Node000015" class="edge">
<title>Node1&#45;&gt;Node15</title>
<g id="a_edge48_Node000001_Node000015"><a xlink:title=" ">
<path fill="none" stroke="#63b8ff" d="M120.39,-192.99C145.59,-185.01 182.61,-173.36 215,-163.5 222.51,-161.21 230.41,-158.84 238.23,-156.5"/>
<polygon fill="#63b8ff" stroke="#63b8ff" points="239.49,-159.78 248.07,-153.57 237.49,-153.07 239.49,-159.78"/>
</a>
</g>
</g>
<!-- Node16 -->
<g id="Node000016" class="node">
<title>Node16</title>
<g id="a_Node000016"><a xlink:href="$classcam_1_1nc_1_1series1_1_1Creator.html#a75918d23eef609baab85058fda3050d5" xlink:title=" ">
<polygon fill="white" stroke="#666666" points="381.5,-105 219.5,-105 219.5,-86 381.5,-86 381.5,-105"/>
<text text-anchor="middle" x="300.5" y="-93" font-family="Helvetica,sans-Serif" font-size="10.00">cam.nc.series1.Creator.SPACE</text>
</a>
</g>
</g>
<!-- Node1&#45;&gt;Node16 -->
<g id="edge49_Node000001_Node000016" class="edge">
<title>Node1&#45;&gt;Node16</title>
<g id="a_edge49_Node000001_Node000016"><a xlink:title=" ">
<path fill="none" stroke="#63b8ff" d="M100.93,-192.9C121.26,-174.73 168.32,-135.25 215,-114.5 220.68,-111.98 226.73,-109.77 232.88,-107.85"/>
<polygon fill="#63b8ff" stroke="#63b8ff" points="233.95,-111.18 242.59,-105.05 232.02,-104.46 233.95,-111.18"/>
</a>
</g>
</g>
<!-- Node17 -->
<g id="Node000017" class="node">
<title>Node17</title>
<g id="a_Node000017"><a xlink:href="$classcam_1_1nc_1_1shopbot__mtc_1_1Creator.html#a1512dbb5d0140eb216ed709a542261ac" xlink:title="Codes.">
<polygon fill="white" stroke="#666666" points="380,-67.5 221,-67.5 221,-37.5 380,-37.5 380,-67.5"/>
<text text-anchor="start" x="229" y="-55.5" font-family="Helvetica,sans-Serif" font-size="10.00">cam.nc.shopbot_mtc.Creator.</text>
<text text-anchor="middle" x="300.5" y="-44.5" font-family="Helvetica,sans-Serif" font-size="10.00">SPACE</text>
</a>
</g>
</g>
<!-- Node1&#45;&gt;Node17 -->
<g id="edge50_Node000001_Node000017" class="edge">
<title>Node1&#45;&gt;Node17</title>
<g id="a_edge50_Node000001_Node000017"><a xlink:title=" ">
<path fill="none" stroke="#63b8ff" d="M97.14,-192.97C114,-169.48 161,-108.43 215,-76.5 217.98,-74.74 221.09,-73.1 224.29,-71.58"/>
<polygon fill="#63b8ff" stroke="#63b8ff" points="225.73,-74.77 233.51,-67.59 222.95,-68.35 225.73,-74.77"/>
</a>
</g>
</g>
<!-- Node18 -->
<g id="Node000018" class="node">
<title>Node18</title>
<g id="a_Node000018"><a xlink:href="$classcam_1_1nc_1_1tnc151_1_1Creator.html#af5d9e50b2ff0e73cd7524e2145d55d76" xlink:title=" ">
<polygon fill="white" stroke="#666666" points="380.5,-19 220.5,-19 220.5,0 380.5,0 380.5,-19"/>
<text text-anchor="middle" x="300.5" y="-7" font-family="Helvetica,sans-Serif" font-size="10.00">cam.nc.tnc151.Creator.SPACE</text>
</a>
</g>
</g>
<!-- Node1&#45;&gt;Node18 -->
<g id="edge51_Node000001_Node000018" class="edge">
<title>Node1&#45;&gt;Node18</title>
<g id="a_edge51_Node000001_Node000018"><a xlink:title=" ">
<path fill="none" stroke="#63b8ff" d="M94.45,-192.7C107.06,-162.79 149.37,-72.01 215,-28.5 218.13,-26.43 221.45,-24.57 224.9,-22.92"/>
<polygon fill="#63b8ff" stroke="#63b8ff" points="226.4,-26.09 234.28,-19.01 223.7,-19.63 226.4,-26.09"/>
</a>
</g>
</g>
<!-- Node8 -->
<g id="Node000008" class="node">
<title>Node8</title>
<g id="a_Node000008"><a xlink:href="$classcam_1_1nc_1_1anilam__crusader__m_1_1Creator.html#a36f873a0248bcaa4cf2cfb220dc1b00c" xlink:title="Codes.">
<polygon fill="white" stroke="#666666" points="582,-313.5 446,-313.5 446,-283.5 582,-283.5 582,-313.5"/>
<text text-anchor="start" x="454" y="-301.5" font-family="Helvetica,sans-Serif" font-size="10.00">cam.nc.anilam_crusader</text>
<text text-anchor="middle" x="514" y="-290.5" font-family="Helvetica,sans-Serif" font-size="10.00">_m.Creator.SPACE_STR</text>
</a>
</g>
</g>
<!-- Node7&#45;&gt;Node8 -->
<g id="edge41_Node000007_Node000008" class="edge">
<title>Node7&#45;&gt;Node8</title>
<g id="a_edge41_Node000007_Node000008"><a xlink:title=" ">
<path fill="none" stroke="#63b8ff" d="M369.96,-191.1C375.71,-193.59 381.17,-196.67 386,-200.5 414.68,-223.2 393.74,-251.28 422,-274.5 426.34,-278.07 431.15,-281.11 436.24,-283.7"/>
<polygon fill="#63b8ff" stroke="#63b8ff" points="435.08,-287.02 445.64,-287.9 437.93,-280.62 435.08,-287.02"/>
</a>
</g>
</g>
<!-- Node9 -->
<g id="Node000009" class="node">
<title>Node9</title>
<g id="a_Node000009"><a xlink:href="$classcam_1_1nc_1_1fadal_1_1Creator.html#a97a50724edf2662eb4fe76b15516b638" xlink:title="Codes.">
<polygon fill="white" stroke="#666666" points="602,-265 426,-265 426,-246 602,-246 602,-265"/>
<text text-anchor="middle" x="514" y="-253" font-family="Helvetica,sans-Serif" font-size="10.00">cam.nc.fadal.Creator.SPACE_STR</text>
</a>
</g>
</g>
<!-- Node7&#45;&gt;Node9 -->
<g id="edge42_Node000007_Node000009" class="edge">
<title>Node7&#45;&gt;Node9</title>
<g id="a_edge42_Node000007_Node000009"><a xlink:title=" ">
<path fill="none" stroke="#63b8ff" d="M363.51,-191.05C371.35,-193.51 379.05,-196.61 386,-200.5 406.02,-211.7 401.83,-226.56 422,-237.5 425.31,-239.3 428.77,-240.91 432.33,-242.37"/>
<polygon fill="#63b8ff" stroke="#63b8ff" points="431.36,-245.74 441.95,-245.87 433.75,-239.16 431.36,-245.74"/>
</a>
</g>
</g>
<!-- Node10 -->
<g id="Node000010" class="node">
<title>Node10</title>
<g id="a_Node000010"><a xlink:href="$classcam_1_1nc_1_1gravos_1_1Creator.html#ac0bc0d26e8a92a65c0f33d696ad850f5" xlink:title="Codes.">
<polygon fill="white" stroke="#666666" points="606,-228 422,-228 422,-209 606,-209 606,-228"/>
<text text-anchor="middle" x="514" y="-216" font-family="Helvetica,sans-Serif" font-size="10.00">cam.nc.gravos.Creator.SPACE_STR</text>
</a>
</g>
</g>
<!-- Node7&#45;&gt;Node10 -->
<g id="edge43_Node000007_Node000010" class="edge">
<title>Node7&#45;&gt;Node10</title>
<g id="a_edge43_Node000007_Node000010"><a xlink:title=" ">
<path fill="none" stroke="#63b8ff" d="M355.97,-191.03C384.1,-195.95 418.63,-201.99 448.14,-207.15"/>
<polygon fill="#63b8ff" stroke="#63b8ff" points="447.9,-210.66 458.35,-208.94 449.1,-203.77 447.9,-210.66"/>
</a>
</g>
</g>
<!-- Node11 -->
<g id="Node000011" class="node">
<title>Node11</title>
<g id="a_Node000011"><a xlink:href="$classcam_1_1nc_1_1iso_1_1Creator.html#aa481cf1e394988751640fd5ce5af991e" xlink:title="Codes.">
<polygon fill="white" stroke="#666666" points="596.5,-191 431.5,-191 431.5,-172 596.5,-172 596.5,-191"/>
<text text-anchor="middle" x="514" y="-179" font-family="Helvetica,sans-Serif" font-size="10.00">cam.nc.iso.Creator.SPACE_STR</text>
</a>
</g>
</g>
<!-- Node7&#45;&gt;Node11 -->
<g id="edge44_Node000007_Node000011" class="edge">
<title>Node7&#45;&gt;Node11</title>
<g id="a_edge44_Node000007_Node000011"><a xlink:title=" ">
<path fill="none" stroke="#63b8ff" d="M371.05,-181.5C387,-181.5 404.2,-181.5 420.94,-181.5"/>
<polygon fill="#63b8ff" stroke="#63b8ff" points="421.29,-185 431.29,-181.5 421.29,-178 421.29,-185"/>
</a>
</g>
</g>
<!-- Node12 -->
<g id="Node000012" class="node">
<title>Node12</title>
<g id="a_Node000012"><a xlink:href="$classcam_1_1nc_1_1lynx__otter__o_1_1Creator.html#a73b176561e066abcdb256a1bf53a5fcc" xlink:title="Codes.">
<polygon fill="white" stroke="#666666" points="592.5,-153.5 435.5,-153.5 435.5,-123.5 592.5,-123.5 592.5,-153.5"/>
<text text-anchor="start" x="443.5" y="-141.5" font-family="Helvetica,sans-Serif" font-size="10.00">cam.nc.lynx_otter_o.Creator.</text>
<text text-anchor="middle" x="514" y="-130.5" font-family="Helvetica,sans-Serif" font-size="10.00">SPACE_STR</text>
</a>
</g>
</g>
<!-- Node7&#45;&gt;Node12 -->
<g id="edge45_Node000007_Node000012" class="edge">
<title>Node7&#45;&gt;Node12</title>
<g id="a_edge45_Node000007_Node000012"><a xlink:title=" ">
<path fill="none" stroke="#63b8ff" d="M348.44,-171.96C372.18,-167.13 401.71,-161.13 429.18,-155.54"/>
<polygon fill="#63b8ff" stroke="#63b8ff" points="430.09,-158.93 439.19,-153.51 428.69,-152.07 430.09,-158.93"/>
</a>
</g>
</g>
<!-- Node13 -->
<g id="Node000013" class="node">
<title>Node13</title>
<g id="a_Node000013"><a xlink:href="$classcam_1_1nc_1_1mach3_1_1Creator.html#aa461d578afa76c5af9bb5562b79d955a" xlink:title="Codes.">
<polygon fill="white" stroke="#666666" points="606,-105 422,-105 422,-86 606,-86 606,-105"/>
<text text-anchor="middle" x="514" y="-93" font-family="Helvetica,sans-Serif" font-size="10.00">cam.nc.mach3.Creator.SPACE_STR</text>
</a>
</g>
</g>
<!-- Node7&#45;&gt;Node13 -->
<g id="edge46_Node000007_Node000013" class="edge">
<title>Node7&#45;&gt;Node13</title>
<g id="a_edge46_Node000007_Node000013"><a xlink:title=" ">
<path fill="none" stroke="#63b8ff" d="M366.64,-171.86C373.46,-169.41 380.07,-166.34 386,-162.5 408.39,-148.01 399.5,-128.81 422,-114.5 425.35,-112.37 428.9,-110.47 432.57,-108.78"/>
<polygon fill="#63b8ff" stroke="#63b8ff" points="433.97,-111.99 441.94,-105 431.35,-105.5 433.97,-111.99"/>
</a>
</g>
</g>
<!-- Node14 -->
<g id="Node000014" class="node">
<title>Node14</title>
<g id="a_Node000014"><a xlink:href="$classcam_1_1nc_1_1winpc_1_1Creator.html#aae1cb93a5dd430719105fa03a054f654" xlink:title="Codes.">
<polygon fill="white" stroke="#666666" points="603.5,-68 424.5,-68 424.5,-49 603.5,-49 603.5,-68"/>
<text text-anchor="middle" x="514" y="-56" font-family="Helvetica,sans-Serif" font-size="10.00">cam.nc.winpc.Creator.SPACE_STR</text>
</a>
</g>
</g>
<!-- Node7&#45;&gt;Node14 -->
<g id="edge47_Node000007_Node000014" class="edge">
<title>Node7&#45;&gt;Node14</title>
<g id="a_edge47_Node000007_Node000014"><a xlink:title=" ">
<path fill="none" stroke="#63b8ff" d="M370.61,-172C376.16,-169.49 381.39,-166.36 386,-162.5 417.75,-135.88 389.91,-102.71 422,-76.5 423.54,-75.24 425.15,-74.06 426.81,-72.95"/>
<polygon fill="#63b8ff" stroke="#63b8ff" points="428.54,-76 435.52,-68.03 425.09,-69.91 428.54,-76"/>
</a>
</g>
</g>
</g>
</svg>
