<?xml version="1.0" encoding="UTF-8" standalone="no"?>
<!DOCTYPE svg PUBLIC "-//W3C//DTD SVG 1.1//EN"
 "http://www.w3.org/Graphics/SVG/1.1/DTD/svg11.dtd">
<!-- Generated by graphviz version 2.43.0 (0)
 -->
<!-- Title: cam.nc.hxml_writer.HxmlWriter.feed Pages: 1 -->
<svg width="703pt" height="323pt"
 viewBox="0.00 0.00 703.00 323.00" xmlns="http://www.w3.org/2000/svg" xmlns:xlink="http://www.w3.org/1999/xlink">
<g id="graph0" class="graph" transform="scale(1 1) rotate(0) translate(4 319)">
<title>cam.nc.hxml_writer.HxmlWriter.feed</title>
<!-- Node1 -->
<g id="Node000001" class="node">
<title>Node1</title>
<g id="a_Node000001"><a xlink:title=" ">
<polygon fill="#999999" stroke="#666666" points="196,-167 0,-167 0,-148 196,-148 196,-167"/>
<text text-anchor="middle" x="98" y="-155" font-family="Helvetica,sans-Serif" font-size="10.00">cam.nc.hxml_writer.HxmlWriter.feed</text>
</a>
</g>
</g>
<!-- Node2 -->
<g id="Node000002" class="node">
<title>Node2</title>
<g id="a_Node000002"><a xlink:href="$classcam_1_1nc_1_1hxml__writer_1_1HxmlWriter.html#a9ecbcbc437d91a80c11b77d2d9007887" xlink:title=" ">
<polygon fill="white" stroke="#666666" points="453.5,-315 238.5,-315 238.5,-296 453.5,-296 453.5,-315"/>
<text text-anchor="middle" x="346" y="-303" font-family="Helvetica,sans-Serif" font-size="10.00">cam.nc.hxml_writer.HxmlWriter.add_line</text>
</a>
</g>
</g>
<!-- Node1&#45;&gt;Node2 -->
<g id="edge41_Node000001_Node000002" class="edge">
<title>Node1&#45;&gt;Node2</title>
<g id="a_edge41_Node000001_Node000002"><a xlink:title=" ">
<path fill="none" stroke="#63b8ff" d="M105.44,-167.02C122.67,-191.65 172.58,-257.62 232,-287.5 235.79,-289.41 239.74,-291.12 243.79,-292.66"/>
<polygon fill="#63b8ff" stroke="#63b8ff" points="242.81,-296.03 253.4,-295.95 245.07,-289.4 242.81,-296.03"/>
</a>
</g>
</g>
<!-- Node3 -->
<g id="Node000003" class="node">
<title>Node3</title>
<g id="a_Node000003"><a xlink:href="$classcam_1_1nc_1_1cad__nc__read_1_1Parser.html#a738a961ed9cebf72a1d9ae2cd63c49f8" xlink:title=" ">
<polygon fill="white" stroke="#666666" points="442,-278 250,-278 250,-259 442,-259 442,-278"/>
<text text-anchor="middle" x="346" y="-266" font-family="Helvetica,sans-Serif" font-size="10.00">cam.nc.cad_nc_read.Parser.add_line</text>
</a>
</g>
</g>
<!-- Node1&#45;&gt;Node3 -->
<g id="edge42_Node000001_Node000003" class="edge">
<title>Node1&#45;&gt;Node3</title>
<g id="a_edge42_Node000001_Node000003"><a xlink:title=" ">
<path fill="none" stroke="#63b8ff" d="M109.06,-167.02C130.04,-186.29 180.8,-229.81 232,-250.5 237.43,-252.69 243.1,-254.62 248.9,-256.31"/>
<polygon fill="#63b8ff" stroke="#63b8ff" points="248.17,-259.74 258.74,-258.95 249.98,-252.98 248.17,-259.74"/>
</a>
</g>
</g>
<!-- Node5 -->
<g id="Node000005" class="node">
<title>Node5</title>
<g id="a_Node000005"><a xlink:href="$classcam_1_1nc_1_1nclathe__read_1_1Parser.html#a8e66fae75c57b080570f2893d2b8b4ba" xlink:title=" ">
<polygon fill="white" stroke="#666666" points="443,-167 249,-167 249,-148 443,-148 443,-167"/>
<text text-anchor="middle" x="346" y="-155" font-family="Helvetica,sans-Serif" font-size="10.00">cam.nc.nclathe_read.Parser.add_line</text>
</a>
</g>
</g>
<!-- Node1&#45;&gt;Node5 -->
<g id="edge45_Node000001_Node000005" class="edge">
<title>Node1&#45;&gt;Node5</title>
<g id="a_edge45_Node000001_Node000005"><a xlink:title=" ">
<path fill="none" stroke="#63b8ff" d="M196.23,-157.5C210.17,-157.5 224.57,-157.5 238.68,-157.5"/>
<polygon fill="#63b8ff" stroke="#63b8ff" points="238.88,-161 248.88,-157.5 238.88,-154 238.88,-161"/>
</a>
</g>
</g>
<!-- Node7 -->
<g id="Node000007" class="node">
<title>Node7</title>
<g id="a_Node000007"><a xlink:href="$classcam_1_1nc_1_1hxml__writer_1_1HxmlWriter.html#a6439ae429d6711afc62f954362e80aec" xlink:title=" ">
<polygon fill="white" stroke="#666666" points="460,-56 232,-56 232,-37 460,-37 460,-56"/>
<text text-anchor="middle" x="346" y="-44" font-family="Helvetica,sans-Serif" font-size="10.00">cam.nc.hxml_writer.HxmlWriter.begin_path</text>
</a>
</g>
</g>
<!-- Node1&#45;&gt;Node7 -->
<g id="edge48_Node000001_Node000007" class="edge">
<title>Node1&#45;&gt;Node7</title>
<g id="a_edge48_Node000001_Node000007"><a xlink:title=" ">
<path fill="none" stroke="#63b8ff" d="M109.42,-147.83C130.66,-128.7 181.28,-86.11 232,-65.5 238.59,-62.82 245.54,-60.52 252.63,-58.55"/>
<polygon fill="#63b8ff" stroke="#63b8ff" points="253.54,-61.93 262.35,-56.05 251.79,-55.15 253.54,-61.93"/>
</a>
</g>
</g>
<!-- Node9 -->
<g id="Node000009" class="node">
<title>Node9</title>
<g id="a_Node000009"><a xlink:href="$classcam_1_1nc_1_1cad__nc__read_1_1Parser.html#abe87a80c43087874e0199ed75fce10ee" xlink:title=" ">
<polygon fill="white" stroke="#666666" points="448.5,-241 243.5,-241 243.5,-222 448.5,-222 448.5,-241"/>
<text text-anchor="middle" x="346" y="-229" font-family="Helvetica,sans-Serif" font-size="10.00">cam.nc.cad_nc_read.Parser.begin_path</text>
</a>
</g>
</g>
<!-- Node1&#45;&gt;Node9 -->
<g id="edge51_Node000001_Node000009" class="edge">
<title>Node1&#45;&gt;Node9</title>
<g id="a_edge51_Node000001_Node000009"><a xlink:title=" ">
<path fill="none" stroke="#63b8ff" d="M117.86,-167.15C143.17,-179.71 189.84,-201.46 232,-213.5 240.7,-215.98 249.88,-218.15 259.09,-220.04"/>
<polygon fill="#63b8ff" stroke="#63b8ff" points="258.59,-223.51 269.08,-221.98 259.93,-216.64 258.59,-223.51"/>
</a>
</g>
</g>
<!-- Node10 -->
<g id="Node000010" class="node">
<title>Node10</title>
<g id="a_Node000010"><a xlink:href="$classcam_1_1nc_1_1nclathe__read_1_1Parser.html#a33c385668a944d4b5013c8cae753fda9" xlink:title=" ">
<polygon fill="white" stroke="#666666" points="449.5,-130 242.5,-130 242.5,-111 449.5,-111 449.5,-130"/>
<text text-anchor="middle" x="346" y="-118" font-family="Helvetica,sans-Serif" font-size="10.00">cam.nc.nclathe_read.Parser.begin_path</text>
</a>
</g>
</g>
<!-- Node1&#45;&gt;Node10 -->
<g id="edge53_Node000001_Node000010" class="edge">
<title>Node1&#45;&gt;Node10</title>
<g id="a_edge53_Node000001_Node000010"><a xlink:title=" ">
<path fill="none" stroke="#63b8ff" d="M162.35,-147.97C195.65,-142.96 236.65,-136.8 271.35,-131.58"/>
<polygon fill="#63b8ff" stroke="#63b8ff" points="272.07,-135.01 281.44,-130.06 271.03,-128.09 272.07,-135.01"/>
</a>
</g>
</g>
<!-- Node11 -->
<g id="Node000011" class="node">
<title>Node11</title>
<g id="a_Node000011"><a xlink:href="$classcam_1_1nc_1_1cad__nc__read_1_1Parser.html#ab6bd7ee59cd7649fb4d9f585124cbd54" xlink:title=" ">
<polygon fill="white" stroke="#666666" points="444,-204 248,-204 248,-185 444,-185 444,-204"/>
<text text-anchor="middle" x="346" y="-192" font-family="Helvetica,sans-Serif" font-size="10.00">cam.nc.cad_nc_read.Parser.end_path</text>
</a>
</g>
</g>
<!-- Node1&#45;&gt;Node11 -->
<g id="edge55_Node000001_Node000011" class="edge">
<title>Node1&#45;&gt;Node11</title>
<g id="a_edge55_Node000001_Node000011"><a xlink:title=" ">
<path fill="none" stroke="#63b8ff" d="M162.35,-167.03C195.65,-172.04 236.65,-178.2 271.35,-183.42"/>
<polygon fill="#63b8ff" stroke="#63b8ff" points="271.03,-186.91 281.44,-184.94 272.07,-179.99 271.03,-186.91"/>
</a>
</g>
</g>
<!-- Node12 -->
<g id="Node000012" class="node">
<title>Node12</title>
<g id="a_Node000012"><a xlink:href="$classcam_1_1nc_1_1hxml__writer_1_1HxmlWriter.html#a148b76fde9d4c7ea5430a17628e6c9ef" xlink:title=" ">
<polygon fill="white" stroke="#666666" points="455.5,-19 236.5,-19 236.5,0 455.5,0 455.5,-19"/>
<text text-anchor="middle" x="346" y="-7" font-family="Helvetica,sans-Serif" font-size="10.00">cam.nc.hxml_writer.HxmlWriter.end_path</text>
</a>
</g>
</g>
<!-- Node1&#45;&gt;Node12 -->
<g id="edge57_Node000001_Node000012" class="edge">
<title>Node1&#45;&gt;Node12</title>
<g id="a_edge57_Node000001_Node000012"><a xlink:title=" ">
<path fill="none" stroke="#63b8ff" d="M105.73,-147.72C123.27,-123.08 173.16,-58.27 232,-28.5 236.65,-26.15 241.53,-24.08 246.55,-22.26"/>
<polygon fill="#63b8ff" stroke="#63b8ff" points="247.93,-25.49 256.35,-19.05 245.75,-18.83 247.93,-25.49"/>
</a>
</g>
</g>
<!-- Node13 -->
<g id="Node000013" class="node">
<title>Node13</title>
<g id="a_Node000013"><a xlink:href="$classcam_1_1nc_1_1nclathe__read_1_1Parser.html#a92a9288e10124488c6b458a347afa9b7" xlink:title=" ">
<polygon fill="white" stroke="#666666" points="445,-93 247,-93 247,-74 445,-74 445,-93"/>
<text text-anchor="middle" x="346" y="-81" font-family="Helvetica,sans-Serif" font-size="10.00">cam.nc.nclathe_read.Parser.end_path</text>
</a>
</g>
</g>
<!-- Node1&#45;&gt;Node13 -->
<g id="edge59_Node000001_Node000013" class="edge">
<title>Node1&#45;&gt;Node13</title>
<g id="a_edge59_Node000001_Node000013"><a xlink:title=" ">
<path fill="none" stroke="#63b8ff" d="M118.33,-147.88C143.78,-135.59 190.21,-114.49 232,-102.5 242,-99.63 252.63,-97.14 263.21,-95"/>
<polygon fill="#63b8ff" stroke="#63b8ff" points="264.17,-98.38 273.32,-93.04 262.84,-91.5 264.17,-98.38"/>
</a>
</g>
</g>
<!-- Node4 -->
<g id="Node000004" class="node">
<title>Node4</title>
<g id="a_Node000004"><a xlink:href="$classcam_1_1nc_1_1cad__nc__read_1_1Parser.html#adcf2f47949df29f187f27fe985884633" xlink:title=" ">
<polygon fill="white" stroke="#666666" points="683.5,-241 507.5,-241 507.5,-222 683.5,-222 683.5,-241"/>
<text text-anchor="middle" x="595.5" y="-229" font-family="Helvetica,sans-Serif" font-size="10.00">cam.nc.cad_nc_read.Parser.write</text>
</a>
</g>
</g>
<!-- Node3&#45;&gt;Node4 -->
<g id="edge43_Node000003_Node000004" class="edge">
<title>Node3&#45;&gt;Node4</title>
<g id="a_edge43_Node000003_Node000004"><a xlink:title=" ">
<path fill="none" stroke="#63b8ff" d="M410.74,-258.97C444.24,-253.96 485.49,-247.8 520.41,-242.58"/>
<polygon fill="#63b8ff" stroke="#63b8ff" points="521.18,-246 530.55,-241.06 520.14,-239.08 521.18,-246"/>
</a>
</g>
</g>
<!-- Node4&#45;&gt;Node4 -->
<g id="edge44_Node000004_Node000004" class="edge">
<title>Node4&#45;&gt;Node4</title>
<g id="a_edge44_Node000004_Node000004"><a xlink:title=" ">
<path fill="none" stroke="#63b8ff" d="M557.28,-241.08C538.68,-249.73 551.42,-259 595.5,-259 628.56,-259 643.99,-253.79 641.79,-247.53"/>
<polygon fill="#63b8ff" stroke="#63b8ff" points="643.72,-244.59 633.72,-241.08 639.35,-250.06 643.72,-244.59"/>
</a>
</g>
</g>
<!-- Node6 -->
<g id="Node000006" class="node">
<title>Node6</title>
<g id="a_Node000006"><a xlink:href="$classcam_1_1nc_1_1nclathe__read_1_1Parser.html#ab5ea283b461b57e48c8d5b0ad0a45694" xlink:title=" ">
<polygon fill="white" stroke="#666666" points="684.5,-130 506.5,-130 506.5,-111 684.5,-111 684.5,-130"/>
<text text-anchor="middle" x="595.5" y="-118" font-family="Helvetica,sans-Serif" font-size="10.00">cam.nc.nclathe_read.Parser.write</text>
</a>
</g>
</g>
<!-- Node5&#45;&gt;Node6 -->
<g id="edge46_Node000005_Node000006" class="edge">
<title>Node5&#45;&gt;Node6</title>
<g id="a_edge46_Node000005_Node000006"><a xlink:title=" ">
<path fill="none" stroke="#63b8ff" d="M410.74,-147.97C444.24,-142.96 485.49,-136.8 520.41,-131.58"/>
<polygon fill="#63b8ff" stroke="#63b8ff" points="521.18,-135 530.55,-130.06 520.14,-128.08 521.18,-135"/>
</a>
</g>
</g>
<!-- Node6&#45;&gt;Node6 -->
<g id="edge47_Node000006_Node000006" class="edge">
<title>Node6&#45;&gt;Node6</title>
<g id="a_edge47_Node000006_Node000006"><a xlink:title=" ">
<path fill="none" stroke="#63b8ff" d="M557.28,-130.08C538.68,-138.73 551.42,-148 595.5,-148 628.56,-148 643.99,-142.79 641.79,-136.53"/>
<polygon fill="#63b8ff" stroke="#63b8ff" points="643.72,-133.59 633.72,-130.08 639.35,-139.06 643.72,-133.59"/>
</a>
</g>
</g>
<!-- Node8 -->
<g id="Node000008" class="node">
<title>Node8</title>
<g id="a_Node000008"><a xlink:href="$classcam_1_1nc_1_1hxml__writer_1_1HxmlWriter.html#aed6f93c98cb8c0e3f3e826e75b6d6f15" xlink:title=" ">
<polygon fill="white" stroke="#666666" points="695,-38 496,-38 496,-19 695,-19 695,-38"/>
<text text-anchor="middle" x="595.5" y="-26" font-family="Helvetica,sans-Serif" font-size="10.00">cam.nc.hxml_writer.HxmlWriter.write</text>
</a>
</g>
</g>
<!-- Node7&#45;&gt;Node8 -->
<g id="edge49_Node000007_Node000008" class="edge">
<title>Node7&#45;&gt;Node8</title>
<g id="a_edge49_Node000007_Node000008"><a xlink:title=" ">
<path fill="none" stroke="#63b8ff" d="M460.25,-38.26C468.66,-37.65 477.14,-37.03 485.53,-36.42"/>
<polygon fill="#63b8ff" stroke="#63b8ff" points="485.99,-39.9 495.71,-35.68 485.48,-32.92 485.99,-39.9"/>
</a>
</g>
</g>
<!-- Node8&#45;&gt;Node8 -->
<g id="edge50_Node000008_Node000008" class="edge">
<title>Node8&#45;&gt;Node8</title>
<g id="a_edge50_Node000008_Node000008"><a xlink:title=" ">
<path fill="none" stroke="#63b8ff" d="M557.28,-38.08C538.68,-46.73 551.42,-56 595.5,-56 628.56,-56 643.99,-50.79 641.79,-44.53"/>
<polygon fill="#63b8ff" stroke="#63b8ff" points="643.72,-41.59 633.72,-38.08 639.35,-47.06 643.72,-41.59"/>
</a>
</g>
</g>
<!-- Node9&#45;&gt;Node4 -->
<g id="edge52_Node000009_Node000004" class="edge">
<title>Node9&#45;&gt;Node4</title>
<g id="a_edge52_Node000009_Node000004"><a xlink:title=" ">
<path fill="none" stroke="#63b8ff" d="M448.74,-231.5C464.71,-231.5 481.18,-231.5 497.05,-231.5"/>
<polygon fill="#63b8ff" stroke="#63b8ff" points="497.38,-235 507.38,-231.5 497.38,-228 497.38,-235"/>
</a>
</g>
</g>
<!-- Node10&#45;&gt;Node6 -->
<g id="edge54_Node000010_Node000006" class="edge">
<title>Node10&#45;&gt;Node6</title>
<g id="a_edge54_Node000010_Node000006"><a xlink:title=" ">
<path fill="none" stroke="#63b8ff" d="M449.81,-120.5C465.03,-120.5 480.68,-120.5 495.81,-120.5"/>
<polygon fill="#63b8ff" stroke="#63b8ff" points="496.19,-124 506.19,-120.5 496.19,-117 496.19,-124"/>
</a>
</g>
</g>
<!-- Node11&#45;&gt;Node4 -->
<g id="edge56_Node000011_Node000004" class="edge">
<title>Node11&#45;&gt;Node4</title>
<g id="a_edge56_Node000011_Node000004"><a xlink:title=" ">
<path fill="none" stroke="#63b8ff" d="M410.74,-204.03C444.24,-209.04 485.49,-215.2 520.41,-220.42"/>
<polygon fill="#63b8ff" stroke="#63b8ff" points="520.14,-223.92 530.55,-221.94 521.18,-217 520.14,-223.92"/>
</a>
</g>
</g>
<!-- Node12&#45;&gt;Node8 -->
<g id="edge58_Node000012_Node000008" class="edge">
<title>Node12&#45;&gt;Node8</title>
<g id="a_edge58_Node000012_Node000008"><a xlink:title=" ">
<path fill="none" stroke="#63b8ff" d="M455.56,-17.83C465.59,-18.6 475.76,-19.38 485.79,-20.15"/>
<polygon fill="#63b8ff" stroke="#63b8ff" points="485.54,-23.65 495.77,-20.92 486.07,-16.67 485.54,-23.65"/>
</a>
</g>
</g>
<!-- Node13&#45;&gt;Node6 -->
<g id="edge60_Node000013_Node000006" class="edge">
<title>Node13&#45;&gt;Node6</title>
<g id="a_edge60_Node000013_Node000006"><a xlink:title=" ">
<path fill="none" stroke="#63b8ff" d="M410.74,-93.03C444.24,-98.04 485.49,-104.2 520.41,-109.42"/>
<polygon fill="#63b8ff" stroke="#63b8ff" points="520.14,-112.92 530.55,-110.94 521.18,-106 520.14,-112.92"/>
</a>
</g>
</g>
</g>
</svg>
