<?xml version="1.0" encoding="UTF-8" standalone="no"?>
<!DOCTYPE svg PUBLIC "-//W3C//DTD SVG 1.1//EN"
 "http://www.w3.org/Graphics/SVG/1.1/DTD/svg11.dtd">
<!-- Generated by graphviz version 2.43.0 (0)
 -->
<!-- Title: cam.nc.emc2.Creator.imperial Pages: 1 -->
<svg width="1285pt" height="716pt"
 viewBox="0.00 0.00 1285.00 715.50" xmlns="http://www.w3.org/2000/svg" xmlns:xlink="http://www.w3.org/1999/xlink">
<g id="graph0" class="graph" transform="scale(1 1) rotate(0) translate(4 711.5)">
<title>cam.nc.emc2.Creator.imperial</title>
<!-- Node1 -->
<g id="Node000001" class="node">
<title>Node1</title>
<g id="a_Node000001"><a xlink:title="Settings.">
<polygon fill="#999999" stroke="#666666" points="164,-367.5 0,-367.5 0,-348.5 164,-348.5 164,-367.5"/>
<text text-anchor="middle" x="82" y="-355.5" font-family="Helvetica,sans-Serif" font-size="10.00">cam.nc.emc2.Creator.imperial</text>
</a>
</g>
</g>
<!-- Node2 -->
<g id="Node000002" class="node">
<title>Node2</title>
<g id="a_Node000002"><a xlink:href="$classcam_1_1nc_1_1heiden_1_1Creator.html#ae127f30e5ff5b927ddcf0c714d92034d" xlink:title=" ">
<polygon fill="white" stroke="#666666" points="387,-600.5 212,-600.5 212,-581.5 387,-581.5 387,-600.5"/>
<text text-anchor="middle" x="299.5" y="-588.5" font-family="Helvetica,sans-Serif" font-size="10.00">cam.nc.heiden.Creator.IMPERIAL</text>
</a>
</g>
</g>
<!-- Node1&#45;&gt;Node2 -->
<g id="edge93_Node000001_Node000002" class="edge">
<title>Node1&#45;&gt;Node2</title>
<g id="a_edge93_Node000001_Node000002"><a xlink:title=" ">
<path fill="none" stroke="#63b8ff" d="M85.12,-367.68C93.17,-402.04 125.3,-518.93 200,-573 201.89,-574.37 203.85,-575.64 205.87,-576.82"/>
<polygon fill="#63b8ff" stroke="#63b8ff" points="204.56,-580.09 215.07,-581.48 207.72,-573.84 204.56,-580.09"/>
</a>
</g>
</g>
<!-- Node3 -->
<g id="Node000003" class="node">
<title>Node3</title>
<g id="a_Node000003"><a xlink:href="$classcam_1_1nc_1_1iso_1_1Creator.html#a61ba1b3d2e01e98e27293d008dc8b8d4" xlink:title=" ">
<polygon fill="white" stroke="#666666" points="377.5,-563.5 221.5,-563.5 221.5,-544.5 377.5,-544.5 377.5,-563.5"/>
<text text-anchor="middle" x="299.5" y="-551.5" font-family="Helvetica,sans-Serif" font-size="10.00">cam.nc.iso.Creator.IMPERIAL</text>
</a>
</g>
</g>
<!-- Node1&#45;&gt;Node3 -->
<g id="edge94_Node000001_Node000003" class="edge">
<title>Node1&#45;&gt;Node3</title>
<g id="a_edge94_Node000001_Node000003"><a xlink:title=" ">
<path fill="none" stroke="#63b8ff" d="M86.27,-367.62C97.08,-397.83 134.74,-491.44 200,-535 203.77,-537.52 207.79,-539.72 211.97,-541.64"/>
<polygon fill="#63b8ff" stroke="#63b8ff" points="210.76,-544.93 221.34,-545.42 213.38,-538.44 210.76,-544.93"/>
</a>
</g>
</g>
<!-- Node4 -->
<g id="Node000004" class="node">
<title>Node4</title>
<g id="a_Node000004"><a xlink:href="$classcam_1_1nc_1_1makerbot__codes_1_1Codes.html#a606d80dcb9d15a6509a94edecdcafa22" xlink:title=" ">
<polygon fill="white" stroke="#666666" points="385,-526 214,-526 214,-496 385,-496 385,-526"/>
<text text-anchor="start" x="222" y="-514" font-family="Helvetica,sans-Serif" font-size="10.00">cam.nc.makerbot_codes.Codes.</text>
<text text-anchor="middle" x="299.5" y="-503" font-family="Helvetica,sans-Serif" font-size="10.00">IMPERIAL</text>
</a>
</g>
</g>
<!-- Node1&#45;&gt;Node4 -->
<g id="edge95_Node000001_Node000004" class="edge">
<title>Node1&#45;&gt;Node4</title>
<g id="a_edge95_Node000001_Node000004"><a xlink:title=" ">
<path fill="none" stroke="#63b8ff" d="M88.74,-367.55C103.75,-391.65 146.73,-455.32 200,-487 203,-488.79 206.13,-490.44 209.35,-491.97"/>
<polygon fill="#63b8ff" stroke="#63b8ff" points="208.06,-495.22 218.63,-495.97 210.83,-488.79 208.06,-495.22"/>
</a>
</g>
</g>
<!-- Node22 -->
<g id="Node000022" class="node">
<title>Node22</title>
<g id="a_Node000022"><a xlink:href="$classcam_1_1nc_1_1cad__nc__read_1_1Parser.html#adcf2f47949df29f187f27fe985884633" xlink:title=" ">
<polygon fill="white" stroke="#666666" points="387.5,-459.5 211.5,-459.5 211.5,-440.5 387.5,-440.5 387.5,-459.5"/>
<text text-anchor="middle" x="299.5" y="-447.5" font-family="Helvetica,sans-Serif" font-size="10.00">cam.nc.cad_nc_read.Parser.write</text>
</a>
</g>
</g>
<!-- Node1&#45;&gt;Node22 -->
<g id="edge113_Node000001_Node000022" class="edge">
<title>Node1&#45;&gt;Node22</title>
<g id="a_edge113_Node000001_Node000022"><a xlink:title=" ">
<path fill="none" stroke="#63b8ff" d="M94.79,-367.67C115,-383.7 158.14,-415.65 200,-432 205.74,-434.24 211.78,-436.21 217.92,-437.93"/>
<polygon fill="#63b8ff" stroke="#63b8ff" points="217.07,-441.33 227.63,-440.44 218.83,-434.55 217.07,-441.33"/>
</a>
</g>
</g>
<!-- Node23 -->
<g id="Node000023" class="node">
<title>Node23</title>
<g id="a_Node000023"><a xlink:href="$classcam_1_1nc_1_1hxml__writer_1_1HxmlWriter.html#aed6f93c98cb8c0e3f3e826e75b6d6f15" xlink:title=" ">
<polygon fill="white" stroke="#666666" points="399,-404.5 200,-404.5 200,-385.5 399,-385.5 399,-404.5"/>
<text text-anchor="middle" x="299.5" y="-392.5" font-family="Helvetica,sans-Serif" font-size="10.00">cam.nc.hxml_writer.HxmlWriter.write</text>
</a>
</g>
</g>
<!-- Node1&#45;&gt;Node23 -->
<g id="edge115_Node000001_Node000023" class="edge">
<title>Node1&#45;&gt;Node23</title>
<g id="a_edge115_Node000001_Node000023"><a xlink:title=" ">
<path fill="none" stroke="#63b8ff" d="M138.5,-367.53C167.29,-372.47 202.66,-378.54 232.81,-383.72"/>
<polygon fill="#63b8ff" stroke="#63b8ff" points="232.37,-387.2 242.82,-385.44 233.55,-380.3 232.37,-387.2"/>
</a>
</g>
</g>
<!-- Node24 -->
<g id="Node000024" class="node">
<title>Node24</title>
<g id="a_Node000024"><a xlink:href="$classcam_1_1nc_1_1iso_1_1Creator.html#abb81af5a0bdddfed387b71b68a51cc7a" xlink:title="Internals.">
<polygon fill="white" stroke="#666666" points="367,-367.5 232,-367.5 232,-348.5 367,-348.5 367,-367.5"/>
<text text-anchor="middle" x="299.5" y="-355.5" font-family="Helvetica,sans-Serif" font-size="10.00">cam.nc.iso.Creator.write</text>
</a>
</g>
</g>
<!-- Node1&#45;&gt;Node24 -->
<g id="edge117_Node000001_Node000024" class="edge">
<title>Node1&#45;&gt;Node24</title>
<g id="a_edge117_Node000001_Node000024"><a xlink:title=" ">
<path fill="none" stroke="#63b8ff" d="M164.16,-358C182.99,-358 202.97,-358 221.6,-358"/>
<polygon fill="#63b8ff" stroke="#63b8ff" points="221.8,-361.5 231.8,-358 221.8,-354.5 221.8,-361.5"/>
</a>
</g>
</g>
<!-- Node25 -->
<g id="Node000025" class="node">
<title>Node25</title>
<g id="a_Node000025"><a xlink:href="$classcam_1_1nc_1_1nc_1_1Creator.html#a80f2134add83bfaaf2870d075d36ed8a" xlink:title=" ">
<polygon fill="white" stroke="#666666" points="365.5,-312.5 233.5,-312.5 233.5,-293.5 365.5,-293.5 365.5,-312.5"/>
<text text-anchor="middle" x="299.5" y="-300.5" font-family="Helvetica,sans-Serif" font-size="10.00">cam.nc.nc.Creator.write</text>
</a>
</g>
</g>
<!-- Node1&#45;&gt;Node25 -->
<g id="edge118_Node000001_Node000025" class="edge">
<title>Node1&#45;&gt;Node25</title>
<g id="a_edge118_Node000001_Node000025"><a xlink:title=" ">
<path fill="none" stroke="#63b8ff" d="M120.54,-348.42C156.81,-339.16 211.89,-325.1 251.16,-315.08"/>
<polygon fill="#63b8ff" stroke="#63b8ff" points="252.21,-318.43 261.03,-312.56 250.48,-311.64 252.21,-318.43"/>
</a>
</g>
</g>
<!-- Node26 -->
<g id="Node000026" class="node">
<title>Node26</title>
<g id="a_Node000026"><a xlink:href="$classcam_1_1nc_1_1nclathe__read_1_1Parser.html#ab5ea283b461b57e48c8d5b0ad0a45694" xlink:title=" ">
<polygon fill="white" stroke="#666666" points="388.5,-257.5 210.5,-257.5 210.5,-238.5 388.5,-238.5 388.5,-257.5"/>
<text text-anchor="middle" x="299.5" y="-245.5" font-family="Helvetica,sans-Serif" font-size="10.00">cam.nc.nclathe_read.Parser.write</text>
</a>
</g>
</g>
<!-- Node1&#45;&gt;Node26 -->
<g id="edge120_Node000001_Node000026" class="edge">
<title>Node1&#45;&gt;Node26</title>
<g id="a_edge120_Node000001_Node000026"><a xlink:title=" ">
<path fill="none" stroke="#63b8ff" d="M96.53,-348.31C117.81,-333.36 160.71,-304.4 200,-285 218.88,-275.68 240.73,-267.25 259.05,-260.8"/>
<polygon fill="#63b8ff" stroke="#63b8ff" points="260.24,-264.09 268.55,-257.52 257.95,-257.48 260.24,-264.09"/>
</a>
</g>
</g>
<!-- Node27 -->
<g id="Node000027" class="node">
<title>Node27</title>
<g id="a_Node000027"><a xlink:href="$classcam_1_1nc_1_1recreator_1_1Redirector.html#a79cc974683588db3ef959189e7552c0d" xlink:title="Programs.">
<polygon fill="white" stroke="#666666" points="389,-202.5 210,-202.5 210,-183.5 389,-183.5 389,-202.5"/>
<text text-anchor="middle" x="299.5" y="-190.5" font-family="Helvetica,sans-Serif" font-size="10.00">cam.nc.recreator.Redirector.write</text>
</a>
</g>
</g>
<!-- Node1&#45;&gt;Node27 -->
<g id="edge122_Node000001_Node000027" class="edge">
<title>Node1&#45;&gt;Node27</title>
<g id="a_edge122_Node000001_Node000027"><a xlink:title=" ">
<path fill="none" stroke="#63b8ff" d="M89.46,-348.22C105.47,-324.67 149.38,-264.25 200,-230 215.43,-219.56 234.2,-211.57 251.2,-205.73"/>
<polygon fill="#63b8ff" stroke="#63b8ff" points="252.54,-208.97 260.96,-202.54 250.37,-202.32 252.54,-208.97"/>
</a>
</g>
</g>
<!-- Node28 -->
<g id="Node000028" class="node">
<title>Node28</title>
<g id="a_Node000028"><a xlink:href="$classcam_1_1nc_1_1format_1_1Address.html#aa21f0ffeb829537d9103759276c01a4b" xlink:title=" ">
<polygon fill="white" stroke="#666666" points="378.5,-165.5 220.5,-165.5 220.5,-146.5 378.5,-146.5 378.5,-165.5"/>
<text text-anchor="middle" x="299.5" y="-153.5" font-family="Helvetica,sans-Serif" font-size="10.00">cam.nc.format.Address.write</text>
</a>
</g>
</g>
<!-- Node1&#45;&gt;Node28 -->
<g id="edge124_Node000001_Node000028" class="edge">
<title>Node1&#45;&gt;Node28</title>
<g id="a_edge124_Node000001_Node000028"><a xlink:title=" ">
<path fill="none" stroke="#63b8ff" d="M86.02,-348.5C96.33,-317.75 133.23,-220.32 200,-175 203.49,-172.63 207.19,-170.55 211.05,-168.7"/>
<polygon fill="#63b8ff" stroke="#63b8ff" points="212.4,-171.93 220.27,-164.84 209.7,-165.47 212.4,-171.93"/>
</a>
</g>
</g>
<!-- Node39 -->
<g id="Node000039" class="node">
<title>Node39</title>
<g id="a_Node000039"><a xlink:href="$classcam_1_1nc_1_1format_1_1AddressPlusMinus.html#aaacea4c7b677f0a602dbc9023ff365d2" xlink:title=" ">
<polygon fill="white" stroke="#666666" points="374.5,-128 224.5,-128 224.5,-98 374.5,-98 374.5,-128"/>
<text text-anchor="start" x="232.5" y="-116" font-family="Helvetica,sans-Serif" font-size="10.00">cam.nc.format.AddressPlus</text>
<text text-anchor="middle" x="299.5" y="-105" font-family="Helvetica,sans-Serif" font-size="10.00">Minus.write</text>
</a>
</g>
</g>
<!-- Node1&#45;&gt;Node39 -->
<g id="edge137_Node000001_Node000039" class="edge">
<title>Node1&#45;&gt;Node39</title>
<g id="a_edge137_Node000001_Node000039"><a xlink:title=" ">
<path fill="none" stroke="#63b8ff" d="M85.14,-348.2C93.28,-313.42 125.66,-194.87 200,-137 204.63,-133.4 209.72,-130.33 215.07,-127.71"/>
<polygon fill="#63b8ff" stroke="#63b8ff" points="216.51,-130.9 224.3,-123.72 213.73,-124.48 216.51,-130.9"/>
</a>
</g>
</g>
<!-- Node5 -->
<g id="Node000005" class="node">
<title>Node5</title>
<g id="a_Node000005"><a xlink:href="$classcam_1_1nc_1_1emc2_1_1Creator.html#a47a9e4f5f35681f580765bba2f0f97a5" xlink:title=" ">
<polygon fill="white" stroke="#666666" points="597.5,-707.5 443.5,-707.5 443.5,-688.5 597.5,-688.5 597.5,-707.5"/>
<text text-anchor="middle" x="520.5" y="-695.5" font-family="Helvetica,sans-Serif" font-size="10.00">cam.nc.emc2.Creator.SPACE</text>
</a>
</g>
</g>
<!-- Node4&#45;&gt;Node5 -->
<g id="edge96_Node000004_Node000005" class="edge">
<title>Node4&#45;&gt;Node5</title>
<g id="a_edge96_Node000004_Node000005"><a xlink:title=" ">
<path fill="none" stroke="#63b8ff" d="M385.16,-525.47C390.2,-528.4 394.89,-531.88 399,-536 445.56,-582.73 387.54,-634.18 435,-680 435.97,-680.94 436.98,-681.83 438.02,-682.68"/>
<polygon fill="#63b8ff" stroke="#63b8ff" points="436.31,-685.75 446.56,-688.43 440.22,-679.95 436.31,-685.75"/>
</a>
</g>
</g>
<!-- Node6 -->
<g id="Node000006" class="node">
<title>Node6</title>
<g id="a_Node000006"><a xlink:href="$classcam_1_1nc_1_1emc2b_1_1Creator.html#abff5586e78bb91681bd41dafdea5a9e7" xlink:title=" ">
<polygon fill="white" stroke="#666666" points="600.5,-670.5 440.5,-670.5 440.5,-651.5 600.5,-651.5 600.5,-670.5"/>
<text text-anchor="middle" x="520.5" y="-658.5" font-family="Helvetica,sans-Serif" font-size="10.00">cam.nc.emc2b.Creator.SPACE</text>
</a>
</g>
</g>
<!-- Node4&#45;&gt;Node6 -->
<g id="edge97_Node000004_Node000006" class="edge">
<title>Node4&#45;&gt;Node6</title>
<g id="a_edge97_Node000004_Node000006"><a xlink:title=" ">
<path fill="none" stroke="#63b8ff" d="M385.24,-526.12C390.2,-528.9 394.85,-532.17 399,-536 435.54,-569.77 398,-608.74 435,-642 436.73,-643.55 438.55,-644.99 440.46,-646.31"/>
<polygon fill="#63b8ff" stroke="#63b8ff" points="438.87,-649.44 449.28,-651.44 442.39,-643.39 438.87,-649.44"/>
</a>
</g>
</g>
<!-- Node7 -->
<g id="Node000007" class="node">
<title>Node7</title>
<g id="a_Node000007"><a xlink:href="$classcam_1_1nc_1_1emc2tap_1_1CodesEMC2.html#a6a0d71a1c6e9f8a80228dc220a0e57ca" xlink:title=" ">
<polygon fill="white" stroke="#666666" points="601,-633 440,-633 440,-603 601,-603 601,-633"/>
<text text-anchor="start" x="448" y="-621" font-family="Helvetica,sans-Serif" font-size="10.00">cam.nc.emc2tap.CodesEMC2.</text>
<text text-anchor="middle" x="520.5" y="-610" font-family="Helvetica,sans-Serif" font-size="10.00">SPACE</text>
</a>
</g>
</g>
<!-- Node4&#45;&gt;Node7 -->
<g id="edge98_Node000004_Node000007" class="edge">
<title>Node4&#45;&gt;Node7</title>
<g id="a_edge98_Node000004_Node000007"><a xlink:title=" ">
<path fill="none" stroke="#63b8ff" d="M381.86,-526.12C387.93,-528.88 393.73,-532.14 399,-536 423.48,-553.92 410.77,-575.74 435,-594 436.83,-595.38 438.74,-596.68 440.71,-597.91"/>
<polygon fill="#63b8ff" stroke="#63b8ff" points="439.22,-601.09 449.68,-602.82 442.59,-594.95 439.22,-601.09"/>
</a>
</g>
</g>
<!-- Node8 -->
<g id="Node000008" class="node">
<title>Node8</title>
<g id="a_Node000008"><a xlink:href="$classcam_1_1nc_1_1heiden_1_1Creator.html#a2c4277ffddaea0f92c906c6744f7a3bd" xlink:title="Codes.">
<polygon fill="white" stroke="#666666" points="600.5,-584.5 440.5,-584.5 440.5,-565.5 600.5,-565.5 600.5,-584.5"/>
<text text-anchor="middle" x="520.5" y="-572.5" font-family="Helvetica,sans-Serif" font-size="10.00">cam.nc.heiden.Creator.SPACE</text>
</a>
</g>
</g>
<!-- Node4&#45;&gt;Node8 -->
<g id="edge99_Node000004_Node000008" class="edge">
<title>Node4&#45;&gt;Node8</title>
<g id="a_edge99_Node000004_Node000008"><a xlink:title=" ">
<path fill="none" stroke="#63b8ff" d="M369.32,-526.03C379.41,-528.94 389.57,-532.26 399,-536 416.01,-542.75 417.9,-549.48 435,-556 441.76,-558.58 448.97,-560.86 456.21,-562.86"/>
<polygon fill="#63b8ff" stroke="#63b8ff" points="455.52,-566.3 466.07,-565.42 457.28,-559.52 455.52,-566.3"/>
</a>
</g>
</g>
<!-- Node9 -->
<g id="Node000009" class="node">
<title>Node9</title>
<g id="a_Node000009"><a xlink:href="$classcam_1_1nc_1_1heiden530_1_1Creator.html#aa64b19b0edc2ac1f2d568b09ca2aebcb" xlink:title="Codes.">
<polygon fill="white" stroke="#666666" points="594,-547 447,-547 447,-517 594,-517 594,-547"/>
<text text-anchor="start" x="455" y="-535" font-family="Helvetica,sans-Serif" font-size="10.00">cam.nc.heiden530.Creator.</text>
<text text-anchor="middle" x="520.5" y="-524" font-family="Helvetica,sans-Serif" font-size="10.00">SPACE</text>
</a>
</g>
</g>
<!-- Node4&#45;&gt;Node9 -->
<g id="edge100_Node000004_Node000009" class="edge">
<title>Node4&#45;&gt;Node9</title>
<g id="a_edge100_Node000004_Node000009"><a xlink:title=" ">
<path fill="none" stroke="#63b8ff" d="M385.17,-519.12C402.02,-520.73 419.69,-522.43 436.48,-524.04"/>
<polygon fill="#63b8ff" stroke="#63b8ff" points="436.51,-527.56 446.8,-525.03 437.18,-520.59 436.51,-527.56"/>
</a>
</g>
</g>
<!-- Node10 -->
<g id="Node000010" class="node">
<title>Node10</title>
<g id="a_Node000010"><a xlink:href="$classcam_1_1nc_1_1iso_1_1Creator.html#a79463d437baaaf23c828a2c9e62393f3" xlink:title=" ">
<polygon fill="white" stroke="#666666" points="591,-498.5 450,-498.5 450,-479.5 591,-479.5 591,-498.5"/>
<text text-anchor="middle" x="520.5" y="-486.5" font-family="Helvetica,sans-Serif" font-size="10.00">cam.nc.iso.Creator.SPACE</text>
</a>
</g>
</g>
<!-- Node4&#45;&gt;Node10 -->
<g id="edge101_Node000004_Node000010" class="edge">
<title>Node4&#45;&gt;Node10</title>
<g id="a_edge101_Node000004_Node000010"><a xlink:title=" ">
<path fill="none" stroke="#63b8ff" d="M385.17,-502.49C403.08,-500.7 421.93,-498.8 439.65,-497.02"/>
<polygon fill="#63b8ff" stroke="#63b8ff" points="440.34,-500.47 449.94,-495.99 439.64,-493.5 440.34,-500.47"/>
</a>
</g>
</g>
<!-- Node18 -->
<g id="Node000018" class="node">
<title>Node18</title>
<g id="a_Node000018"><a xlink:href="$classcam_1_1nc_1_1makerbot__codes_1_1Codes.html#a497077e0e500cc8f419b8f3f61f008b4" xlink:title=" ">
<polygon fill="white" stroke="#666666" points="606,-461 435,-461 435,-431 606,-431 606,-461"/>
<text text-anchor="start" x="443" y="-449" font-family="Helvetica,sans-Serif" font-size="10.00">cam.nc.makerbot_codes.Codes.</text>
<text text-anchor="middle" x="520.5" y="-438" font-family="Helvetica,sans-Serif" font-size="10.00">SPACE</text>
</a>
</g>
</g>
<!-- Node4&#45;&gt;Node18 -->
<g id="edge109_Node000004_Node000018" class="edge">
<title>Node4&#45;&gt;Node18</title>
<g id="a_edge109_Node000004_Node000018"><a xlink:title=" ">
<path fill="none" stroke="#63b8ff" d="M369.05,-495.98C379.18,-493.28 389.42,-490.27 399,-487 415.57,-481.35 418.57,-477.05 435,-471 441.37,-468.66 448.06,-466.37 454.78,-464.2"/>
<polygon fill="#63b8ff" stroke="#63b8ff" points="456.12,-467.45 464.61,-461.1 454.02,-460.77 456.12,-467.45"/>
</a>
</g>
</g>
<!-- Node19 -->
<g id="Node000019" class="node">
<title>Node19</title>
<g id="a_Node000019"><a xlink:href="$classcam_1_1nc_1_1series1_1_1Creator.html#a75918d23eef609baab85058fda3050d5" xlink:title=" ">
<polygon fill="white" stroke="#666666" points="601.5,-412.5 439.5,-412.5 439.5,-393.5 601.5,-393.5 601.5,-412.5"/>
<text text-anchor="middle" x="520.5" y="-400.5" font-family="Helvetica,sans-Serif" font-size="10.00">cam.nc.series1.Creator.SPACE</text>
</a>
</g>
</g>
<!-- Node4&#45;&gt;Node19 -->
<g id="edge110_Node000004_Node000019" class="edge">
<title>Node4&#45;&gt;Node19</title>
<g id="a_edge110_Node000004_Node000019"><a xlink:title=" ">
<path fill="none" stroke="#63b8ff" d="M384.48,-495.88C389.63,-493.36 394.52,-490.42 399,-487 425.25,-466.96 408.57,-441.8 435,-422 437.51,-420.12 440.16,-418.42 442.93,-416.89"/>
<polygon fill="#63b8ff" stroke="#63b8ff" points="444.58,-419.98 452.1,-412.52 441.56,-413.66 444.58,-419.98"/>
</a>
</g>
</g>
<!-- Node20 -->
<g id="Node000020" class="node">
<title>Node20</title>
<g id="a_Node000020"><a xlink:href="$classcam_1_1nc_1_1shopbot__mtc_1_1Creator.html#a1512dbb5d0140eb216ed709a542261ac" xlink:title="Codes.">
<polygon fill="white" stroke="#666666" points="600,-375 441,-375 441,-345 600,-345 600,-375"/>
<text text-anchor="start" x="449" y="-363" font-family="Helvetica,sans-Serif" font-size="10.00">cam.nc.shopbot_mtc.Creator.</text>
<text text-anchor="middle" x="520.5" y="-352" font-family="Helvetica,sans-Serif" font-size="10.00">SPACE</text>
</a>
</g>
</g>
<!-- Node4&#45;&gt;Node20 -->
<g id="edge111_Node000004_Node000020" class="edge">
<title>Node4&#45;&gt;Node20</title>
<g id="a_edge111_Node000004_Node000020"><a xlink:title=" ">
<path fill="none" stroke="#63b8ff" d="M385.17,-496.71C390.15,-493.99 394.82,-490.78 399,-487 434.65,-454.75 400.14,-418.1 435,-385 436.67,-383.42 438.43,-381.93 440.27,-380.54"/>
<polygon fill="#63b8ff" stroke="#63b8ff" points="442.3,-383.4 448.8,-375.03 438.5,-377.52 442.3,-383.4"/>
</a>
</g>
</g>
<!-- Node21 -->
<g id="Node000021" class="node">
<title>Node21</title>
<g id="a_Node000021"><a xlink:href="$classcam_1_1nc_1_1tnc151_1_1Creator.html#af5d9e50b2ff0e73cd7524e2145d55d76" xlink:title=" ">
<polygon fill="white" stroke="#666666" points="600.5,-326.5 440.5,-326.5 440.5,-307.5 600.5,-307.5 600.5,-326.5"/>
<text text-anchor="middle" x="520.5" y="-314.5" font-family="Helvetica,sans-Serif" font-size="10.00">cam.nc.tnc151.Creator.SPACE</text>
</a>
</g>
</g>
<!-- Node4&#45;&gt;Node21 -->
<g id="edge112_Node000004_Node000021" class="edge">
<title>Node4&#45;&gt;Node21</title>
<g id="a_edge112_Node000004_Node000021"><a xlink:title=" ">
<path fill="none" stroke="#63b8ff" d="M385.19,-497.47C390.23,-494.57 394.9,-491.12 399,-487 447.66,-438.09 385.9,-384.47 435,-336 436.44,-334.57 437.97,-333.25 439.57,-332.01"/>
<polygon fill="#63b8ff" stroke="#63b8ff" points="441.55,-334.9 448.08,-326.55 437.77,-329 441.55,-334.9"/>
</a>
</g>
</g>
<!-- Node11 -->
<g id="Node000011" class="node">
<title>Node11</title>
<g id="a_Node000011"><a xlink:href="$classcam_1_1nc_1_1anilam__crusader__m_1_1Creator.html#a36f873a0248bcaa4cf2cfb220dc1b00c" xlink:title="Codes.">
<polygon fill="white" stroke="#666666" points="802,-621 666,-621 666,-591 802,-591 802,-621"/>
<text text-anchor="start" x="674" y="-609" font-family="Helvetica,sans-Serif" font-size="10.00">cam.nc.anilam_crusader</text>
<text text-anchor="middle" x="734" y="-598" font-family="Helvetica,sans-Serif" font-size="10.00">_m.Creator.SPACE_STR</text>
</a>
</g>
</g>
<!-- Node10&#45;&gt;Node11 -->
<g id="edge102_Node000010_Node000011" class="edge">
<title>Node10&#45;&gt;Node11</title>
<g id="a_edge102_Node000010_Node000011"><a xlink:title=" ">
<path fill="none" stroke="#63b8ff" d="M589.96,-498.6C595.71,-501.09 601.17,-504.17 606,-508 634.68,-530.7 613.74,-558.78 642,-582 646.34,-585.57 651.15,-588.61 656.24,-591.2"/>
<polygon fill="#63b8ff" stroke="#63b8ff" points="655.08,-594.52 665.64,-595.4 657.93,-588.12 655.08,-594.52"/>
</a>
</g>
</g>
<!-- Node12 -->
<g id="Node000012" class="node">
<title>Node12</title>
<g id="a_Node000012"><a xlink:href="$classcam_1_1nc_1_1fadal_1_1Creator.html#a97a50724edf2662eb4fe76b15516b638" xlink:title="Codes.">
<polygon fill="white" stroke="#666666" points="822,-572.5 646,-572.5 646,-553.5 822,-553.5 822,-572.5"/>
<text text-anchor="middle" x="734" y="-560.5" font-family="Helvetica,sans-Serif" font-size="10.00">cam.nc.fadal.Creator.SPACE_STR</text>
</a>
</g>
</g>
<!-- Node10&#45;&gt;Node12 -->
<g id="edge103_Node000010_Node000012" class="edge">
<title>Node10&#45;&gt;Node12</title>
<g id="a_edge103_Node000010_Node000012"><a xlink:title=" ">
<path fill="none" stroke="#63b8ff" d="M583.51,-498.55C591.35,-501.01 599.05,-504.11 606,-508 626.02,-519.2 621.83,-534.06 642,-545 645.31,-546.8 648.77,-548.41 652.33,-549.87"/>
<polygon fill="#63b8ff" stroke="#63b8ff" points="651.36,-553.24 661.95,-553.37 653.75,-546.66 651.36,-553.24"/>
</a>
</g>
</g>
<!-- Node13 -->
<g id="Node000013" class="node">
<title>Node13</title>
<g id="a_Node000013"><a xlink:href="$classcam_1_1nc_1_1gravos_1_1Creator.html#ac0bc0d26e8a92a65c0f33d696ad850f5" xlink:title="Codes.">
<polygon fill="white" stroke="#666666" points="826,-535.5 642,-535.5 642,-516.5 826,-516.5 826,-535.5"/>
<text text-anchor="middle" x="734" y="-523.5" font-family="Helvetica,sans-Serif" font-size="10.00">cam.nc.gravos.Creator.SPACE_STR</text>
</a>
</g>
</g>
<!-- Node10&#45;&gt;Node13 -->
<g id="edge104_Node000010_Node000013" class="edge">
<title>Node10&#45;&gt;Node13</title>
<g id="a_edge104_Node000010_Node000013"><a xlink:title=" ">
<path fill="none" stroke="#63b8ff" d="M575.97,-498.53C604.1,-503.45 638.63,-509.49 668.14,-514.65"/>
<polygon fill="#63b8ff" stroke="#63b8ff" points="667.9,-518.16 678.35,-516.44 669.1,-511.27 667.9,-518.16"/>
</a>
</g>
</g>
<!-- Node14 -->
<g id="Node000014" class="node">
<title>Node14</title>
<g id="a_Node000014"><a xlink:href="$classcam_1_1nc_1_1iso_1_1Creator.html#aa481cf1e394988751640fd5ce5af991e" xlink:title="Codes.">
<polygon fill="white" stroke="#666666" points="816.5,-498.5 651.5,-498.5 651.5,-479.5 816.5,-479.5 816.5,-498.5"/>
<text text-anchor="middle" x="734" y="-486.5" font-family="Helvetica,sans-Serif" font-size="10.00">cam.nc.iso.Creator.SPACE_STR</text>
</a>
</g>
</g>
<!-- Node10&#45;&gt;Node14 -->
<g id="edge105_Node000010_Node000014" class="edge">
<title>Node10&#45;&gt;Node14</title>
<g id="a_edge105_Node000010_Node000014"><a xlink:title=" ">
<path fill="none" stroke="#63b8ff" d="M591.05,-489C607,-489 624.2,-489 640.94,-489"/>
<polygon fill="#63b8ff" stroke="#63b8ff" points="641.29,-492.5 651.29,-489 641.29,-485.5 641.29,-492.5"/>
</a>
</g>
</g>
<!-- Node15 -->
<g id="Node000015" class="node">
<title>Node15</title>
<g id="a_Node000015"><a xlink:href="$classcam_1_1nc_1_1lynx__otter__o_1_1Creator.html#a73b176561e066abcdb256a1bf53a5fcc" xlink:title="Codes.">
<polygon fill="white" stroke="#666666" points="812.5,-461 655.5,-461 655.5,-431 812.5,-431 812.5,-461"/>
<text text-anchor="start" x="663.5" y="-449" font-family="Helvetica,sans-Serif" font-size="10.00">cam.nc.lynx_otter_o.Creator.</text>
<text text-anchor="middle" x="734" y="-438" font-family="Helvetica,sans-Serif" font-size="10.00">SPACE_STR</text>
</a>
</g>
</g>
<!-- Node10&#45;&gt;Node15 -->
<g id="edge106_Node000010_Node000015" class="edge">
<title>Node10&#45;&gt;Node15</title>
<g id="a_edge106_Node000010_Node000015"><a xlink:title=" ">
<path fill="none" stroke="#63b8ff" d="M568.44,-479.46C592.18,-474.63 621.71,-468.63 649.18,-463.04"/>
<polygon fill="#63b8ff" stroke="#63b8ff" points="650.09,-466.43 659.19,-461.01 648.69,-459.57 650.09,-466.43"/>
</a>
</g>
</g>
<!-- Node16 -->
<g id="Node000016" class="node">
<title>Node16</title>
<g id="a_Node000016"><a xlink:href="$classcam_1_1nc_1_1mach3_1_1Creator.html#aa461d578afa76c5af9bb5562b79d955a" xlink:title="Codes.">
<polygon fill="white" stroke="#666666" points="826,-412.5 642,-412.5 642,-393.5 826,-393.5 826,-412.5"/>
<text text-anchor="middle" x="734" y="-400.5" font-family="Helvetica,sans-Serif" font-size="10.00">cam.nc.mach3.Creator.SPACE_STR</text>
</a>
</g>
</g>
<!-- Node10&#45;&gt;Node16 -->
<g id="edge107_Node000010_Node000016" class="edge">
<title>Node10&#45;&gt;Node16</title>
<g id="a_edge107_Node000010_Node000016"><a xlink:title=" ">
<path fill="none" stroke="#63b8ff" d="M586.64,-479.36C593.46,-476.91 600.07,-473.84 606,-470 628.39,-455.51 619.5,-436.31 642,-422 645.35,-419.87 648.9,-417.97 652.57,-416.28"/>
<polygon fill="#63b8ff" stroke="#63b8ff" points="653.97,-419.49 661.94,-412.5 651.35,-413 653.97,-419.49"/>
</a>
</g>
</g>
<!-- Node17 -->
<g id="Node000017" class="node">
<title>Node17</title>
<g id="a_Node000017"><a xlink:href="$classcam_1_1nc_1_1winpc_1_1Creator.html#aae1cb93a5dd430719105fa03a054f654" xlink:title="Codes.">
<polygon fill="white" stroke="#666666" points="823.5,-375.5 644.5,-375.5 644.5,-356.5 823.5,-356.5 823.5,-375.5"/>
<text text-anchor="middle" x="734" y="-363.5" font-family="Helvetica,sans-Serif" font-size="10.00">cam.nc.winpc.Creator.SPACE_STR</text>
</a>
</g>
</g>
<!-- Node10&#45;&gt;Node17 -->
<g id="edge108_Node000010_Node000017" class="edge">
<title>Node10&#45;&gt;Node17</title>
<g id="a_edge108_Node000010_Node000017"><a xlink:title=" ">
<path fill="none" stroke="#63b8ff" d="M590.6,-479.48C596.15,-476.97 601.38,-473.85 606,-470 637.49,-443.71 610.31,-411.05 642,-385 644.02,-383.34 646.15,-381.82 648.36,-380.41"/>
<polygon fill="#63b8ff" stroke="#63b8ff" points="650.14,-383.43 657.28,-375.6 646.82,-377.27 650.14,-383.43"/>
</a>
</g>
</g>
<!-- Node22&#45;&gt;Node22 -->
<g id="edge114_Node000022_Node000022" class="edge">
<title>Node22&#45;&gt;Node22</title>
<g id="a_edge114_Node000022_Node000022"><a xlink:title=" ">
<path fill="none" stroke="#63b8ff" d="M266.21,-459.58C250.01,-468.23 261.11,-477.5 299.5,-477.5 327.09,-477.5 340.59,-472.71 339.98,-466.81"/>
<polygon fill="#63b8ff" stroke="#63b8ff" points="342.33,-464.2 332.79,-459.58 337.36,-469.14 342.33,-464.2"/>
</a>
</g>
</g>
<!-- Node23&#45;&gt;Node23 -->
<g id="edge116_Node000023_Node000023" class="edge">
<title>Node23&#45;&gt;Node23</title>
<g id="a_edge116_Node000023_Node000023"><a xlink:title=" ">
<path fill="none" stroke="#63b8ff" d="M266.21,-404.58C250.01,-413.23 261.11,-422.5 299.5,-422.5 327.09,-422.5 340.59,-417.71 339.98,-411.81"/>
<polygon fill="#63b8ff" stroke="#63b8ff" points="342.33,-409.2 332.79,-404.58 337.36,-414.14 342.33,-409.2"/>
</a>
</g>
</g>
<!-- Node25&#45;&gt;Node25 -->
<g id="edge119_Node000025_Node000025" class="edge">
<title>Node25&#45;&gt;Node25</title>
<g id="a_edge119_Node000025_Node000025"><a xlink:title=" ">
<path fill="none" stroke="#63b8ff" d="M266.21,-312.58C250.01,-321.23 261.11,-330.5 299.5,-330.5 327.09,-330.5 340.59,-325.71 339.98,-319.81"/>
<polygon fill="#63b8ff" stroke="#63b8ff" points="342.33,-317.2 332.79,-312.58 337.36,-322.14 342.33,-317.2"/>
</a>
</g>
</g>
<!-- Node26&#45;&gt;Node26 -->
<g id="edge121_Node000026_Node000026" class="edge">
<title>Node26&#45;&gt;Node26</title>
<g id="a_edge121_Node000026_Node000026"><a xlink:title=" ">
<path fill="none" stroke="#63b8ff" d="M266.21,-257.58C250.01,-266.23 261.11,-275.5 299.5,-275.5 327.09,-275.5 340.59,-270.71 339.98,-264.81"/>
<polygon fill="#63b8ff" stroke="#63b8ff" points="342.33,-262.2 332.79,-257.58 337.36,-267.14 342.33,-262.2"/>
</a>
</g>
</g>
<!-- Node27&#45;&gt;Node27 -->
<g id="edge123_Node000027_Node000027" class="edge">
<title>Node27&#45;&gt;Node27</title>
<g id="a_edge123_Node000027_Node000027"><a xlink:title=" ">
<path fill="none" stroke="#63b8ff" d="M266.21,-202.58C250.01,-211.23 261.11,-220.5 299.5,-220.5 327.09,-220.5 340.59,-215.71 339.98,-209.81"/>
<polygon fill="#63b8ff" stroke="#63b8ff" points="342.33,-207.2 332.79,-202.58 337.36,-212.14 342.33,-207.2"/>
</a>
</g>
</g>
<!-- Node29 -->
<g id="Node000029" class="node">
<title>Node29</title>
<g id="a_Node000029"><a xlink:href="$classcam_1_1async__op_1_1AsyncOperatorMixin.html#a9628cbca8e69ec75b2337171a02bf428" xlink:title=" ">
<polygon fill="white" stroke="#666666" points="601,-150 440,-150 440,-120 601,-120 601,-150"/>
<text text-anchor="start" x="448" y="-138" font-family="Helvetica,sans-Serif" font-size="10.00">cam.async_op.AsyncOperator</text>
<text text-anchor="middle" x="520.5" y="-127" font-family="Helvetica,sans-Serif" font-size="10.00">Mixin.modal</text>
</a>
</g>
</g>
<!-- Node28&#45;&gt;Node29 -->
<g id="edge125_Node000028_Node000029" class="edge">
<title>Node28&#45;&gt;Node29</title>
<g id="a_edge125_Node000028_Node000029"><a xlink:title=" ">
<path fill="none" stroke="#63b8ff" d="M378.64,-148.51C395.12,-146.93 412.63,-145.25 429.51,-143.63"/>
<polygon fill="#63b8ff" stroke="#63b8ff" points="430.3,-147.07 439.92,-142.63 429.63,-140.1 430.3,-147.07"/>
</a>
</g>
</g>
<!-- Node30 -->
<g id="Node000030" class="node">
<title>Node30</title>
<g id="a_Node000030"><a xlink:href="$classcam_1_1async__op_1_1AsyncOperatorMixin.html#a15a51cfd69d8e453e2e3d64386b1ebe3" xlink:title=" ">
<polygon fill="white" stroke="#666666" points="814.5,-150 653.5,-150 653.5,-120 814.5,-120 814.5,-150"/>
<text text-anchor="start" x="661.5" y="-138" font-family="Helvetica,sans-Serif" font-size="10.00">cam.async_op.AsyncOperator</text>
<text text-anchor="middle" x="734" y="-127" font-family="Helvetica,sans-Serif" font-size="10.00">Mixin.tick</text>
</a>
</g>
</g>
<!-- Node29&#45;&gt;Node30 -->
<g id="edge126_Node000029_Node000030" class="edge">
<title>Node29&#45;&gt;Node30</title>
<g id="a_edge126_Node000029_Node000030"><a xlink:title=" ">
<path fill="none" stroke="#63b8ff" d="M601.16,-135C614.91,-135 629.3,-135 643.3,-135"/>
<polygon fill="#63b8ff" stroke="#63b8ff" points="643.41,-138.5 653.41,-135 643.41,-131.5 643.41,-138.5"/>
</a>
</g>
</g>
<!-- Node31 -->
<g id="Node000031" class="node">
<title>Node31</title>
<g id="a_Node000031"><a xlink:href="$classcam_1_1async__op_1_1AsyncTestOperator.html#a42606ca890a957aa7070a4bc6f25228b" xlink:title=" ">
<polygon fill="white" stroke="#666666" points="1083,-270 862,-270 862,-240 1083,-240 1083,-270"/>
<text text-anchor="start" x="870" y="-258" font-family="Helvetica,sans-Serif" font-size="10.00">cam.async_op.AsyncTestOperator.execute</text>
<text text-anchor="middle" x="972.5" y="-247" font-family="Helvetica,sans-Serif" font-size="10.00">_async</text>
</a>
</g>
</g>
<!-- Node30&#45;&gt;Node31 -->
<g id="edge127_Node000030_Node000031" class="edge">
<title>Node30&#45;&gt;Node31</title>
<g id="a_edge127_Node000030_Node000031"><a xlink:title=" ">
<path fill="none" stroke="#63b8ff" d="M750.36,-150.21C772.88,-171.62 817.06,-210.31 862,-231 866.58,-233.11 871.35,-235.04 876.23,-236.8"/>
<polygon fill="#63b8ff" stroke="#63b8ff" points="875.13,-240.12 885.73,-239.98 877.36,-233.48 875.13,-240.12"/>
</a>
</g>
</g>
<!-- Node32 -->
<g id="Node000032" class="node">
<title>Node32</title>
<g id="a_Node000032"><a xlink:href="$classcam_1_1ops_1_1CalculatePath.html#a13dfe2f8578383234e74e58e2f292e1b" xlink:title=" ">
<polygon fill="white" stroke="#666666" points="1057,-222 888,-222 888,-192 1057,-192 1057,-222"/>
<text text-anchor="start" x="896" y="-210" font-family="Helvetica,sans-Serif" font-size="10.00">cam.ops.CalculatePath.execute</text>
<text text-anchor="middle" x="972.5" y="-199" font-family="Helvetica,sans-Serif" font-size="10.00">_async</text>
</a>
</g>
</g>
<!-- Node30&#45;&gt;Node32 -->
<g id="edge128_Node000030_Node000032" class="edge">
<title>Node30&#45;&gt;Node32</title>
<g id="a_edge128_Node000030_Node000032"><a xlink:title=" ">
<path fill="none" stroke="#63b8ff" d="M770.65,-150.07C795.85,-160.33 830.59,-173.68 862,-183 869.76,-185.3 877.89,-187.49 886.06,-189.54"/>
<polygon fill="#63b8ff" stroke="#63b8ff" points="885.48,-193 896.03,-191.97 887.14,-186.2 885.48,-193"/>
</a>
</g>
</g>
<!-- Node34 -->
<g id="Node000034" class="node">
<title>Node34</title>
<g id="a_Node000034"><a xlink:href="$classcam_1_1ops_1_1PathsChain.html#a6fc64e383ccf724b2325e18a82d53eae" xlink:title=" ">
<polygon fill="white" stroke="#666666" points="1050.5,-174 894.5,-174 894.5,-144 1050.5,-144 1050.5,-174"/>
<text text-anchor="start" x="902.5" y="-162" font-family="Helvetica,sans-Serif" font-size="10.00">cam.ops.PathsChain.execute</text>
<text text-anchor="middle" x="972.5" y="-151" font-family="Helvetica,sans-Serif" font-size="10.00">_async</text>
</a>
</g>
</g>
<!-- Node30&#45;&gt;Node34 -->
<g id="edge130_Node000030_Node000034" class="edge">
<title>Node30&#45;&gt;Node34</title>
<g id="a_edge130_Node000030_Node000034"><a xlink:title=" ">
<path fill="none" stroke="#63b8ff" d="M814.74,-143.09C837.05,-145.36 861.41,-147.83 884.14,-150.13"/>
<polygon fill="#63b8ff" stroke="#63b8ff" points="883.81,-153.62 894.11,-151.15 884.52,-146.65 883.81,-153.62"/>
</a>
</g>
</g>
<!-- Node36 -->
<g id="Node000036" class="node">
<title>Node36</title>
<g id="a_Node000036"><a xlink:href="$classcam_1_1ops_1_1CAMSimulate.html#a633151f17849d281fd52ce82c00356a7" xlink:title=" ">
<polygon fill="white" stroke="#666666" points="1056.5,-126 888.5,-126 888.5,-96 1056.5,-96 1056.5,-126"/>
<text text-anchor="start" x="896.5" y="-114" font-family="Helvetica,sans-Serif" font-size="10.00">cam.ops.CAMSimulate.execute</text>
<text text-anchor="middle" x="972.5" y="-103" font-family="Helvetica,sans-Serif" font-size="10.00">_async</text>
</a>
</g>
</g>
<!-- Node30&#45;&gt;Node36 -->
<g id="edge133_Node000030_Node000036" class="edge">
<title>Node30&#45;&gt;Node36</title>
<g id="a_edge133_Node000030_Node000036"><a xlink:title=" ">
<path fill="none" stroke="#63b8ff" d="M814.74,-126.91C835.14,-124.84 857.25,-122.59 878.26,-120.46"/>
<polygon fill="#63b8ff" stroke="#63b8ff" points="878.88,-123.92 888.47,-119.43 878.17,-116.95 878.88,-123.92"/>
</a>
</g>
</g>
<!-- Node37 -->
<g id="Node000037" class="node">
<title>Node37</title>
<g id="a_Node000037"><a xlink:href="$classcam_1_1ops_1_1CAMSimulateChain.html#a1e77c7ce21b3b7e3e38a12b6b62517e9" xlink:title=" ">
<polygon fill="white" stroke="#666666" points="1070.5,-78 874.5,-78 874.5,-48 1070.5,-48 1070.5,-78"/>
<text text-anchor="start" x="882.5" y="-66" font-family="Helvetica,sans-Serif" font-size="10.00">cam.ops.CAMSimulateChain.execute</text>
<text text-anchor="middle" x="972.5" y="-55" font-family="Helvetica,sans-Serif" font-size="10.00">_async</text>
</a>
</g>
</g>
<!-- Node30&#45;&gt;Node37 -->
<g id="edge134_Node000030_Node000037" class="edge">
<title>Node30&#45;&gt;Node37</title>
<g id="a_edge134_Node000030_Node000037"><a xlink:title=" ">
<path fill="none" stroke="#63b8ff" d="M770.65,-119.93C795.85,-109.67 830.59,-96.32 862,-87 869.76,-84.7 877.89,-82.51 886.06,-80.46"/>
<polygon fill="#63b8ff" stroke="#63b8ff" points="887.14,-83.8 896.03,-78.03 885.48,-77 887.14,-83.8"/>
</a>
</g>
</g>
<!-- Node38 -->
<g id="Node000038" class="node">
<title>Node38</title>
<g id="a_Node000038"><a xlink:href="$classcam_1_1async__op_1_1AsyncOperatorMixin.html#a2216ff6bb0dfd132f4ec4cf79b7cba2b" xlink:title=" ">
<polygon fill="white" stroke="#666666" points="1053,-30 892,-30 892,0 1053,0 1053,-30"/>
<text text-anchor="start" x="900" y="-18" font-family="Helvetica,sans-Serif" font-size="10.00">cam.async_op.AsyncOperator</text>
<text text-anchor="middle" x="972.5" y="-7" font-family="Helvetica,sans-Serif" font-size="10.00">Mixin.show_progress</text>
</a>
</g>
</g>
<!-- Node30&#45;&gt;Node38 -->
<g id="edge136_Node000030_Node000038" class="edge">
<title>Node30&#45;&gt;Node38</title>
<g id="a_edge136_Node000030_Node000038"><a xlink:title=" ">
<path fill="none" stroke="#63b8ff" d="M750.36,-119.79C772.88,-98.38 817.06,-59.69 862,-39 868.44,-36.03 875.27,-33.43 882.24,-31.13"/>
<polygon fill="#63b8ff" stroke="#63b8ff" points="883.27,-34.48 891.81,-28.2 881.22,-27.78 883.27,-34.48"/>
</a>
</g>
</g>
<!-- Node33 -->
<g id="Node000033" class="node">
<title>Node33</title>
<g id="a_Node000033"><a xlink:href="$namespacecam_1_1ops.html#aa8e95f7410a7ceb178db48f4f8c2d995" xlink:title=" ">
<polygon fill="white" stroke="#666666" points="1254.5,-192.5 1141.5,-192.5 1141.5,-173.5 1254.5,-173.5 1254.5,-192.5"/>
<text text-anchor="middle" x="1198" y="-180.5" font-family="Helvetica,sans-Serif" font-size="10.00">cam.ops._calc_path</text>
</a>
</g>
</g>
<!-- Node32&#45;&gt;Node33 -->
<g id="edge129_Node000032_Node000033" class="edge">
<title>Node32&#45;&gt;Node33</title>
<g id="a_edge129_Node000032_Node000033"><a xlink:title=" ">
<path fill="none" stroke="#63b8ff" d="M1057.04,-198.03C1081.56,-195.4 1108.01,-192.56 1131.25,-190.06"/>
<polygon fill="#63b8ff" stroke="#63b8ff" points="1131.77,-193.52 1141.34,-188.98 1131.03,-186.56 1131.77,-193.52"/>
</a>
</g>
</g>
<!-- Node34&#45;&gt;Node33 -->
<g id="edge131_Node000034_Node000033" class="edge">
<title>Node34&#45;&gt;Node33</title>
<g id="a_edge131_Node000034_Node000033"><a xlink:title=" ">
<path fill="none" stroke="#63b8ff" d="M1050.73,-167.29C1076.9,-170.1 1105.87,-173.21 1131.08,-175.92"/>
<polygon fill="#63b8ff" stroke="#63b8ff" points="1130.95,-179.43 1141.27,-177.02 1131.7,-172.47 1130.95,-179.43"/>
</a>
</g>
</g>
<!-- Node35 -->
<g id="Node000035" class="node">
<title>Node35</title>
<g id="a_Node000035"><a xlink:href="$namespacecam_1_1ops.html#ab55fb8ec9a00e021e8e4a1c3ecc97cb4" xlink:title=" ">
<polygon fill="white" stroke="#666666" points="1277,-126.5 1119,-126.5 1119,-107.5 1277,-107.5 1277,-126.5"/>
<text text-anchor="middle" x="1198" y="-114.5" font-family="Helvetica,sans-Serif" font-size="10.00">cam.ops.getChainOperations</text>
</a>
</g>
</g>
<!-- Node34&#45;&gt;Node35 -->
<g id="edge132_Node000034_Node000035" class="edge">
<title>Node34&#45;&gt;Node35</title>
<g id="a_edge132_Node000034_Node000035"><a xlink:title=" ">
<path fill="none" stroke="#63b8ff" d="M1050.73,-144.49C1078.81,-139.21 1110.12,-133.33 1136.54,-128.36"/>
<polygon fill="#63b8ff" stroke="#63b8ff" points="1137.23,-131.79 1146.41,-126.51 1135.94,-124.91 1137.23,-131.79"/>
</a>
</g>
</g>
<!-- Node37&#45;&gt;Node35 -->
<g id="edge135_Node000037_Node000035" class="edge">
<title>Node37&#45;&gt;Node35</title>
<g id="a_edge135_Node000037_Node000035"><a xlink:title=" ">
<path fill="none" stroke="#63b8ff" d="M1044.28,-78.06C1057.19,-80.94 1070.51,-83.99 1083,-87 1105.91,-92.52 1131.28,-99.15 1152.25,-104.77"/>
<polygon fill="#63b8ff" stroke="#63b8ff" points="1151.6,-108.21 1162.17,-107.43 1153.42,-101.45 1151.6,-108.21"/>
</a>
</g>
</g>
<!-- Node39&#45;&gt;Node29 -->
<g id="edge138_Node000039_Node000029" class="edge">
<title>Node39&#45;&gt;Node29</title>
<g id="a_edge138_Node000039_Node000029"><a xlink:title=" ">
<path fill="none" stroke="#63b8ff" d="M374.64,-120.45C392.34,-122.23 411.41,-124.14 429.72,-125.98"/>
<polygon fill="#63b8ff" stroke="#63b8ff" points="429.51,-129.48 439.81,-126.99 430.21,-122.51 429.51,-129.48"/>
</a>
</g>
</g>
</g>
</svg>
