<?xml version="1.0" encoding="UTF-8" standalone="no"?>
<!DOCTYPE svg PUBLIC "-//W3C//DTD SVG 1.1//EN"
 "http://www.w3.org/Graphics/SVG/1.1/DTD/svg11.dtd">
<!-- Generated by graphviz version 2.43.0 (0)
 -->
<!-- Title: cam.nc.cad_read.CAD_backplot.Parse Pages: 1 -->
<svg width="630pt" height="1096pt"
 viewBox="0.00 0.00 630.00 1096.00" xmlns="http://www.w3.org/2000/svg" xmlns:xlink="http://www.w3.org/1999/xlink">
<g id="graph0" class="graph" transform="scale(1 1) rotate(0) translate(4 1092)">
<title>cam.nc.cad_read.CAD_backplot.Parse</title>
<!-- Node1 -->
<g id="Node000001" class="node">
<title>Node1</title>
<g id="a_Node000001"><a xlink:title=" ">
<polygon fill="#999999" stroke="#666666" points="123,-547 0,-547 0,-517 123,-517 123,-547"/>
<text text-anchor="start" x="8" y="-535" font-family="Helvetica,sans-Serif" font-size="10.00">cam.nc.cad_read.CAD</text>
<text text-anchor="middle" x="61.5" y="-524" font-family="Helvetica,sans-Serif" font-size="10.00">_backplot.Parse</text>
</a>
</g>
</g>
<!-- Node2 -->
<g id="Node000002" class="node">
<title>Node2</title>
<g id="a_Node000002"><a xlink:href="$classcam_1_1nc_1_1hxml__writer_1_1HxmlWriter.html#a475e3852584eaa4d673a094b0897132c" xlink:title=" ">
<polygon fill="white" stroke="#666666" points="379,-928.5 167,-928.5 167,-909.5 379,-909.5 379,-928.5"/>
<text text-anchor="middle" x="273" y="-916.5" font-family="Helvetica,sans-Serif" font-size="10.00">cam.nc.hxml_writer.HxmlWriter.add_arc</text>
</a>
</g>
</g>
<!-- Node1&#45;&gt;Node2 -->
<g id="edge101_Node000001_Node000002" class="edge">
<title>Node1&#45;&gt;Node2</title>
<g id="a_edge101_Node000001_Node000002"><a xlink:title=" ">
<path fill="none" stroke="#63b8ff" d="M64.27,-547.19C71.97,-610.39 104.55,-851.63 159,-901 160.01,-901.92 161.06,-902.8 162.12,-903.65"/>
<polygon fill="#63b8ff" stroke="#63b8ff" points="160.51,-906.78 170.75,-909.48 164.43,-900.98 160.51,-906.78"/>
</a>
</g>
</g>
<!-- Node4 -->
<g id="Node000004" class="node">
<title>Node4</title>
<g id="a_Node000004"><a xlink:href="$classcam_1_1nc_1_1cad__nc__read_1_1Parser.html#a7d77e08170185d002ab8782d4d9e5318" xlink:title=" ">
<polygon fill="white" stroke="#666666" points="367.5,-854.5 178.5,-854.5 178.5,-835.5 367.5,-835.5 367.5,-854.5"/>
<text text-anchor="middle" x="273" y="-842.5" font-family="Helvetica,sans-Serif" font-size="10.00">cam.nc.cad_nc_read.Parser.add_arc</text>
</a>
</g>
</g>
<!-- Node1&#45;&gt;Node4 -->
<g id="edge104_Node000001_Node000004" class="edge">
<title>Node1&#45;&gt;Node4</title>
<g id="a_edge104_Node000001_Node000004"><a xlink:title=" ">
<path fill="none" stroke="#63b8ff" d="M62.4,-547.09C62.96,-595.96 71.83,-751.05 159,-826 162.27,-828.81 165.79,-831.28 169.5,-833.45"/>
<polygon fill="#63b8ff" stroke="#63b8ff" points="167.97,-836.59 178.48,-837.97 171.12,-830.34 167.97,-836.59"/>
</a>
</g>
</g>
<!-- Node6 -->
<g id="Node000006" class="node">
<title>Node6</title>
<g id="a_Node000006"><a xlink:href="$classcam_1_1nc_1_1nclathe__read_1_1Parser.html#af831cf56257fb77f7e451e315631e4f5" xlink:title=" ">
<polygon fill="white" stroke="#666666" points="368.5,-449.5 177.5,-449.5 177.5,-430.5 368.5,-430.5 368.5,-449.5"/>
<text text-anchor="middle" x="273" y="-437.5" font-family="Helvetica,sans-Serif" font-size="10.00">cam.nc.nclathe_read.Parser.add_arc</text>
</a>
</g>
</g>
<!-- Node1&#45;&gt;Node6 -->
<g id="edge107_Node000001_Node000006" class="edge">
<title>Node1&#45;&gt;Node6</title>
<g id="a_edge107_Node000001_Node000006"><a xlink:title=" ">
<path fill="none" stroke="#63b8ff" d="M77.7,-516.7C95.53,-499.72 126.79,-472.89 159,-459 165.08,-456.38 171.48,-454.12 178.02,-452.17"/>
<polygon fill="#63b8ff" stroke="#63b8ff" points="178.97,-455.54 187.69,-449.53 177.12,-448.79 178.97,-455.54"/>
</a>
</g>
</g>
<!-- Node8 -->
<g id="Node000008" class="node">
<title>Node8</title>
<g id="a_Node000008"><a xlink:href="$classcam_1_1nc_1_1hxml__writer_1_1HxmlWriter.html#a9ecbcbc437d91a80c11b77d2d9007887" xlink:title=" ">
<polygon fill="white" stroke="#666666" points="380.5,-965.5 165.5,-965.5 165.5,-946.5 380.5,-946.5 380.5,-965.5"/>
<text text-anchor="middle" x="273" y="-953.5" font-family="Helvetica,sans-Serif" font-size="10.00">cam.nc.hxml_writer.HxmlWriter.add_line</text>
</a>
</g>
</g>
<!-- Node1&#45;&gt;Node8 -->
<g id="edge110_Node000001_Node000008" class="edge">
<title>Node1&#45;&gt;Node8</title>
<g id="a_edge110_Node000001_Node000008"><a xlink:title=" ">
<path fill="none" stroke="#63b8ff" d="M63.9,-547.31C70.37,-614.56 99.63,-882.95 159,-938 159.98,-938.91 160.99,-939.79 162.03,-940.63"/>
<polygon fill="#63b8ff" stroke="#63b8ff" points="160.19,-943.62 170.41,-946.43 164.18,-937.86 160.19,-943.62"/>
</a>
</g>
</g>
<!-- Node9 -->
<g id="Node000009" class="node">
<title>Node9</title>
<g id="a_Node000009"><a xlink:href="$classcam_1_1nc_1_1cad__nc__read_1_1Parser.html#a738a961ed9cebf72a1d9ae2cd63c49f8" xlink:title=" ">
<polygon fill="white" stroke="#666666" points="369,-731.5 177,-731.5 177,-712.5 369,-712.5 369,-731.5"/>
<text text-anchor="middle" x="273" y="-719.5" font-family="Helvetica,sans-Serif" font-size="10.00">cam.nc.cad_nc_read.Parser.add_line</text>
</a>
</g>
</g>
<!-- Node1&#45;&gt;Node9 -->
<g id="edge111_Node000001_Node000009" class="edge">
<title>Node1&#45;&gt;Node9</title>
<g id="a_edge111_Node000001_Node000009"><a xlink:title=" ">
<path fill="none" stroke="#63b8ff" d="M66.2,-547.21C75.39,-581.47 102.68,-664.74 159,-704 161.77,-705.93 164.67,-707.69 167.67,-709.28"/>
<polygon fill="#63b8ff" stroke="#63b8ff" points="166.41,-712.55 176.95,-713.58 169.35,-706.2 166.41,-712.55"/>
</a>
</g>
</g>
<!-- Node10 -->
<g id="Node000010" class="node">
<title>Node10</title>
<g id="a_Node000010"><a xlink:href="$classcam_1_1nc_1_1nclathe__read_1_1Parser.html#a8e66fae75c57b080570f2893d2b8b4ba" xlink:title=" ">
<polygon fill="white" stroke="#666666" points="370,-523.5 176,-523.5 176,-504.5 370,-504.5 370,-523.5"/>
<text text-anchor="middle" x="273" y="-511.5" font-family="Helvetica,sans-Serif" font-size="10.00">cam.nc.nclathe_read.Parser.add_line</text>
</a>
</g>
</g>
<!-- Node1&#45;&gt;Node10 -->
<g id="edge113_Node000001_Node000010" class="edge">
<title>Node1&#45;&gt;Node10</title>
<g id="a_edge113_Node000001_Node000010"><a xlink:title=" ">
<path fill="none" stroke="#63b8ff" d="M123.1,-526.79C136.45,-525.65 150.97,-524.4 165.54,-523.15"/>
<polygon fill="#63b8ff" stroke="#63b8ff" points="165.96,-526.62 175.62,-522.28 165.36,-519.65 165.96,-526.62"/>
</a>
</g>
</g>
<!-- Node11 -->
<g id="Node000011" class="node">
<title>Node11</title>
<g id="a_Node000011"><a xlink:href="$classcam_1_1nc_1_1hxml__writer_1_1HxmlWriter.html#a6439ae429d6711afc62f954362e80aec" xlink:title=" ">
<polygon fill="white" stroke="#666666" points="387,-891.5 159,-891.5 159,-872.5 387,-872.5 387,-891.5"/>
<text text-anchor="middle" x="273" y="-879.5" font-family="Helvetica,sans-Serif" font-size="10.00">cam.nc.hxml_writer.HxmlWriter.begin_path</text>
</a>
</g>
</g>
<!-- Node1&#45;&gt;Node11 -->
<g id="edge115_Node000001_Node000011" class="edge">
<title>Node1&#45;&gt;Node11</title>
<g id="a_edge115_Node000001_Node000011"><a xlink:title=" ">
<path fill="none" stroke="#63b8ff" d="M64.75,-547.26C73.81,-606.52 109.49,-820.32 159,-864 160.03,-864.91 161.08,-865.78 162.16,-866.61"/>
<polygon fill="#63b8ff" stroke="#63b8ff" points="160.59,-869.77 170.86,-872.36 164.45,-863.93 160.59,-869.77"/>
</a>
</g>
</g>
<!-- Node12 -->
<g id="Node000012" class="node">
<title>Node12</title>
<g id="a_Node000012"><a xlink:href="$classcam_1_1nc_1_1cad__nc__read_1_1Parser.html#abe87a80c43087874e0199ed75fce10ee" xlink:title=" ">
<polygon fill="white" stroke="#666666" points="375.5,-694.5 170.5,-694.5 170.5,-675.5 375.5,-675.5 375.5,-694.5"/>
<text text-anchor="middle" x="273" y="-682.5" font-family="Helvetica,sans-Serif" font-size="10.00">cam.nc.cad_nc_read.Parser.begin_path</text>
</a>
</g>
</g>
<!-- Node1&#45;&gt;Node12 -->
<g id="edge117_Node000001_Node000012" class="edge">
<title>Node1&#45;&gt;Node12</title>
<g id="a_edge117_Node000001_Node000012"><a xlink:title=" ">
<path fill="none" stroke="#63b8ff" d="M68.62,-547.04C81.03,-575.45 112.02,-636.77 159,-666 162.23,-668.01 165.61,-669.83 169.09,-671.47"/>
<polygon fill="#63b8ff" stroke="#63b8ff" points="167.97,-674.79 178.55,-675.4 170.66,-668.33 167.97,-674.79"/>
</a>
</g>
</g>
<!-- Node13 -->
<g id="Node000013" class="node">
<title>Node13</title>
<g id="a_Node000013"><a xlink:href="$classcam_1_1nc_1_1nclathe__read_1_1Parser.html#a33c385668a944d4b5013c8cae753fda9" xlink:title=" ">
<polygon fill="white" stroke="#666666" points="376.5,-486.5 169.5,-486.5 169.5,-467.5 376.5,-467.5 376.5,-486.5"/>
<text text-anchor="middle" x="273" y="-474.5" font-family="Helvetica,sans-Serif" font-size="10.00">cam.nc.nclathe_read.Parser.begin_path</text>
</a>
</g>
</g>
<!-- Node1&#45;&gt;Node13 -->
<g id="edge119_Node000001_Node000013" class="edge">
<title>Node1&#45;&gt;Node13</title>
<g id="a_edge119_Node000001_Node000013"><a xlink:title=" ">
<path fill="none" stroke="#63b8ff" d="M98.17,-516.84C116.15,-509.67 138.45,-501.51 159,-496 169.77,-493.11 181.25,-490.58 192.6,-488.38"/>
<polygon fill="#63b8ff" stroke="#63b8ff" points="193.34,-491.81 202.53,-486.54 192.06,-484.92 193.34,-491.81"/>
</a>
</g>
</g>
<!-- Node14 -->
<g id="Node000014" class="node">
<title>Node14</title>
<g id="a_Node000014"><a xlink:href="$classcam_1_1nc_1_1cad__nc__read_1_1Parser.html#aa5ec2adeab7290da981debafa8a07bbc" xlink:title=" ">
<polygon fill="white" stroke="#666666" points="357.5,-609 188.5,-609 188.5,-579 357.5,-579 357.5,-609"/>
<text text-anchor="start" x="196.5" y="-597" font-family="Helvetica,sans-Serif" font-size="10.00">cam.nc.cad_nc_read.Parser.end</text>
<text text-anchor="middle" x="273" y="-586" font-family="Helvetica,sans-Serif" font-size="10.00">_ncblock</text>
</a>
</g>
</g>
<!-- Node1&#45;&gt;Node14 -->
<g id="edge121_Node000001_Node000014" class="edge">
<title>Node1&#45;&gt;Node14</title>
<g id="a_edge121_Node000001_Node000014"><a xlink:title=" ">
<path fill="none" stroke="#63b8ff" d="M96.85,-547.13C115.06,-554.75 137.96,-563.67 159,-570 166.71,-572.32 174.79,-574.5 182.92,-576.54"/>
<polygon fill="#63b8ff" stroke="#63b8ff" points="182.31,-579.99 192.85,-578.94 183.96,-573.18 182.31,-579.99"/>
</a>
</g>
</g>
<!-- Node15 -->
<g id="Node000015" class="node">
<title>Node15</title>
<g id="a_Node000015"><a xlink:href="$classcam_1_1nc_1_1hxml__writer_1_1HxmlWriter.html#a2e561ec54f08dff9d6275cba071a7d3d" xlink:title=" ">
<polygon fill="white" stroke="#666666" points="369,-1088 177,-1088 177,-1058 369,-1058 369,-1088"/>
<text text-anchor="start" x="185" y="-1076" font-family="Helvetica,sans-Serif" font-size="10.00">cam.nc.hxml_writer.HxmlWriter.end</text>
<text text-anchor="middle" x="273" y="-1065" font-family="Helvetica,sans-Serif" font-size="10.00">_ncblock</text>
</a>
</g>
</g>
<!-- Node1&#45;&gt;Node15 -->
<g id="edge123_Node000001_Node000015" class="edge">
<title>Node1&#45;&gt;Node15</title>
<g id="a_edge123_Node000001_Node000015"><a xlink:title=" ">
<path fill="none" stroke="#63b8ff" d="M63.13,-547.03C66.64,-624.15 86.47,-974.66 159,-1049 161.83,-1051.9 164.93,-1054.5 168.22,-1056.82"/>
<polygon fill="#63b8ff" stroke="#63b8ff" points="166.41,-1059.82 176.78,-1062.02 170.05,-1053.84 166.41,-1059.82"/>
</a>
</g>
</g>
<!-- Node16 -->
<g id="Node000016" class="node">
<title>Node16</title>
<g id="a_Node000016"><a xlink:href="$classcam_1_1nc_1_1nc_1_1Creator.html#a2a88ca7c016d69f6c5f8dd98f326868a" xlink:title=" ">
<polygon fill="white" stroke="#666666" points="335.5,-657 210.5,-657 210.5,-627 335.5,-627 335.5,-657"/>
<text text-anchor="start" x="218.5" y="-645" font-family="Helvetica,sans-Serif" font-size="10.00">cam.nc.nc.Creator.end</text>
<text text-anchor="middle" x="273" y="-634" font-family="Helvetica,sans-Serif" font-size="10.00">_ncblock</text>
</a>
</g>
</g>
<!-- Node1&#45;&gt;Node16 -->
<g id="edge125_Node000001_Node000016" class="edge">
<title>Node1&#45;&gt;Node16</title>
<g id="a_edge125_Node000001_Node000016"><a xlink:title=" ">
<path fill="none" stroke="#63b8ff" d="M74.85,-547.05C91.73,-566.59 123.96,-600.26 159,-618 171.79,-624.48 186.26,-629.21 200.46,-632.66"/>
<polygon fill="#63b8ff" stroke="#63b8ff" points="199.7,-636.08 210.22,-634.86 201.23,-629.25 199.7,-636.08"/>
</a>
</g>
</g>
<!-- Node17 -->
<g id="Node000017" class="node">
<title>Node17</title>
<g id="a_Node000017"><a xlink:href="$classcam_1_1nc_1_1nclathe__read_1_1Parser.html#afb071d7659ccf9787780f4c72b05b7e6" xlink:title=" ">
<polygon fill="white" stroke="#666666" points="358.5,-30 187.5,-30 187.5,0 358.5,0 358.5,-30"/>
<text text-anchor="start" x="195.5" y="-18" font-family="Helvetica,sans-Serif" font-size="10.00">cam.nc.nclathe_read.Parser.end</text>
<text text-anchor="middle" x="273" y="-7" font-family="Helvetica,sans-Serif" font-size="10.00">_ncblock</text>
</a>
</g>
</g>
<!-- Node1&#45;&gt;Node17 -->
<g id="edge126_Node000001_Node000017" class="edge">
<title>Node1&#45;&gt;Node17</title>
<g id="a_edge126_Node000001_Node000017"><a xlink:title=" ">
<path fill="none" stroke="#63b8ff" d="M63.29,-516.67C67.49,-441.15 89.72,-109.4 159,-39 164.54,-33.37 171.05,-28.91 178.1,-25.38"/>
<polygon fill="#63b8ff" stroke="#63b8ff" points="179.5,-28.59 187.28,-21.4 176.71,-22.17 179.5,-28.59"/>
</a>
</g>
</g>
<!-- Node18 -->
<g id="Node000018" class="node">
<title>Node18</title>
<g id="a_Node000018"><a xlink:href="$classcam_1_1nc_1_1cad__nc__read_1_1Parser.html#ab6bd7ee59cd7649fb4d9f585124cbd54" xlink:title=" ">
<polygon fill="white" stroke="#666666" points="371,-768.5 175,-768.5 175,-749.5 371,-749.5 371,-768.5"/>
<text text-anchor="middle" x="273" y="-756.5" font-family="Helvetica,sans-Serif" font-size="10.00">cam.nc.cad_nc_read.Parser.end_path</text>
</a>
</g>
</g>
<!-- Node1&#45;&gt;Node18 -->
<g id="edge128_Node000001_Node000018" class="edge">
<title>Node1&#45;&gt;Node18</title>
<g id="a_edge128_Node000001_Node000018"><a xlink:title=" ">
<path fill="none" stroke="#63b8ff" d="M64.59,-547.12C70.88,-586.25 93.36,-691.3 159,-741 161.15,-742.63 163.39,-744.13 165.7,-745.52"/>
<polygon fill="#63b8ff" stroke="#63b8ff" points="164.46,-748.83 174.95,-750.34 167.7,-742.62 164.46,-748.83"/>
</a>
</g>
</g>
<!-- Node19 -->
<g id="Node000019" class="node">
<title>Node19</title>
<g id="a_Node000019"><a xlink:href="$classcam_1_1nc_1_1hxml__writer_1_1HxmlWriter.html#a148b76fde9d4c7ea5430a17628e6c9ef" xlink:title=" ">
<polygon fill="white" stroke="#666666" points="382.5,-1039.5 163.5,-1039.5 163.5,-1020.5 382.5,-1020.5 382.5,-1039.5"/>
<text text-anchor="middle" x="273" y="-1027.5" font-family="Helvetica,sans-Serif" font-size="10.00">cam.nc.hxml_writer.HxmlWriter.end_path</text>
</a>
</g>
</g>
<!-- Node1&#45;&gt;Node19 -->
<g id="edge130_Node000001_Node000019" class="edge">
<title>Node1&#45;&gt;Node19</title>
<g id="a_edge130_Node000001_Node000019"><a xlink:title=" ">
<path fill="none" stroke="#63b8ff" d="M63.31,-547.49C67.56,-622.31 89.72,-945.47 159,-1012 159.84,-1012.81 160.7,-1013.59 161.59,-1014.34"/>
<polygon fill="#63b8ff" stroke="#63b8ff" points="159.86,-1017.41 170.01,-1020.43 163.96,-1011.74 159.86,-1017.41"/>
</a>
</g>
</g>
<!-- Node20 -->
<g id="Node000020" class="node">
<title>Node20</title>
<g id="a_Node000020"><a xlink:href="$classcam_1_1nc_1_1nclathe__read_1_1Parser.html#a92a9288e10124488c6b458a347afa9b7" xlink:title=" ">
<polygon fill="white" stroke="#666666" points="372,-560.5 174,-560.5 174,-541.5 372,-541.5 372,-560.5"/>
<text text-anchor="middle" x="273" y="-548.5" font-family="Helvetica,sans-Serif" font-size="10.00">cam.nc.nclathe_read.Parser.end_path</text>
</a>
</g>
</g>
<!-- Node1&#45;&gt;Node20 -->
<g id="edge132_Node000001_Node000020" class="edge">
<title>Node1&#45;&gt;Node20</title>
<g id="a_edge132_Node000001_Node000020"><a xlink:title=" ">
<path fill="none" stroke="#63b8ff" d="M123.1,-537.5C135.83,-538.65 149.64,-539.9 163.53,-541.16"/>
<polygon fill="#63b8ff" stroke="#63b8ff" points="163.37,-544.66 173.65,-542.08 164.01,-537.69 163.37,-544.66"/>
</a>
</g>
</g>
<!-- Node21 -->
<g id="Node000021" class="node">
<title>Node21</title>
<g id="a_Node000021"><a xlink:href="$classcam_1_1nc_1_1cad__nc__read_1_1Parser.html#ac451b96114b938111a316012fd8a7224" xlink:title=" ">
<polygon fill="white" stroke="#666666" points="358.5,-817 187.5,-817 187.5,-787 358.5,-787 358.5,-817"/>
<text text-anchor="start" x="195.5" y="-805" font-family="Helvetica,sans-Serif" font-size="10.00">cam.nc.cad_nc_read.Parser.files</text>
<text text-anchor="middle" x="273" y="-794" font-family="Helvetica,sans-Serif" font-size="10.00">_close</text>
</a>
</g>
</g>
<!-- Node1&#45;&gt;Node21 -->
<g id="edge134_Node000001_Node000021" class="edge">
<title>Node1&#45;&gt;Node21</title>
<g id="a_edge134_Node000001_Node000021"><a xlink:title=" ">
<path fill="none" stroke="#63b8ff" d="M63.64,-547.25C67.74,-590.67 85.68,-715.85 159,-778 164.68,-782.81 171.09,-786.74 177.9,-789.93"/>
<polygon fill="#63b8ff" stroke="#63b8ff" points="176.81,-793.27 187.39,-793.83 179.48,-786.79 176.81,-793.27"/>
</a>
</g>
</g>
<!-- Node22 -->
<g id="Node000022" class="node">
<title>Node22</title>
<g id="a_Node000022"><a xlink:href="$classcam_1_1nc_1_1nclathe__read_1_1Parser.html#ad52a01638c6a6554e7129a75b2185e05" xlink:title=" ">
<polygon fill="white" stroke="#666666" points="359.5,-412 186.5,-412 186.5,-382 359.5,-382 359.5,-412"/>
<text text-anchor="start" x="194.5" y="-400" font-family="Helvetica,sans-Serif" font-size="10.00">cam.nc.nclathe_read.Parser.files</text>
<text text-anchor="middle" x="273" y="-389" font-family="Helvetica,sans-Serif" font-size="10.00">_close</text>
</a>
</g>
</g>
<!-- Node1&#45;&gt;Node22 -->
<g id="edge136_Node000001_Node000022" class="edge">
<title>Node1&#45;&gt;Node22</title>
<g id="a_edge136_Node000001_Node000022"><a xlink:title=" ">
<path fill="none" stroke="#63b8ff" d="M71.32,-516.83C86.17,-492.72 118.55,-445.93 159,-422 164.56,-418.71 170.51,-415.85 176.66,-413.37"/>
<polygon fill="#63b8ff" stroke="#63b8ff" points="178.28,-416.5 186.46,-409.77 175.86,-409.93 178.28,-416.5"/>
</a>
</g>
</g>
<!-- Node23 -->
<g id="Node000023" class="node">
<title>Node23</title>
<g id="a_Node000023"><a xlink:href="$classcam_1_1nc_1_1cad__nc__read_1_1Parser.html#a752167f413d6e0f6d81477354cdcde27" xlink:title="Internals.">
<polygon fill="white" stroke="#666666" points="373,-363.5 173,-363.5 173,-344.5 373,-344.5 373,-363.5"/>
<text text-anchor="middle" x="273" y="-351.5" font-family="Helvetica,sans-Serif" font-size="10.00">cam.nc.cad_nc_read.Parser.files_open</text>
</a>
</g>
</g>
<!-- Node1&#45;&gt;Node23 -->
<g id="edge138_Node000001_Node000023" class="edge">
<title>Node1&#45;&gt;Node23</title>
<g id="a_edge138_Node000001_Node000023"><a xlink:title=" ">
<path fill="none" stroke="#63b8ff" d="M66.97,-516.74C77.3,-484.38 106.09,-408.89 159,-373 161.8,-371.1 164.72,-369.37 167.75,-367.8"/>
<polygon fill="#63b8ff" stroke="#63b8ff" points="169.45,-370.87 177.08,-363.52 166.53,-364.5 169.45,-370.87"/>
</a>
</g>
</g>
<!-- Node24 -->
<g id="Node000024" class="node">
<title>Node24</title>
<g id="a_Node000024"><a xlink:href="$classcam_1_1nc_1_1nclathe__read_1_1Parser.html#a926ee43bcd9086f2e654f7693b16a248" xlink:title="Internals.">
<polygon fill="white" stroke="#666666" points="374.5,-326.5 171.5,-326.5 171.5,-307.5 374.5,-307.5 374.5,-326.5"/>
<text text-anchor="middle" x="273" y="-314.5" font-family="Helvetica,sans-Serif" font-size="10.00">cam.nc.nclathe_read.Parser.files_open</text>
</a>
</g>
</g>
<!-- Node1&#45;&gt;Node24 -->
<g id="edge139_Node000001_Node000024" class="edge">
<title>Node1&#45;&gt;Node24</title>
<g id="a_edge139_Node000001_Node000024"><a xlink:title=" ">
<path fill="none" stroke="#63b8ff" d="M65.14,-516.74C72.51,-479.23 96.94,-382.2 159,-336 161.36,-334.25 163.82,-332.63 166.36,-331.15"/>
<polygon fill="#63b8ff" stroke="#63b8ff" points="168,-334.24 175.31,-326.57 164.81,-328.01 168,-334.24"/>
</a>
</g>
</g>
<!-- Node25 -->
<g id="Node000025" class="node">
<title>Node25</title>
<g id="a_Node000025"><a xlink:href="$classcam_1_1nc_1_1cad__nc__read_1_1Parser.html#a55e9f4415dc2e706c64ce7148aebf073" xlink:title=" ">
<polygon fill="white" stroke="#666666" points="368.5,-289.5 177.5,-289.5 177.5,-270.5 368.5,-270.5 368.5,-289.5"/>
<text text-anchor="middle" x="273" y="-277.5" font-family="Helvetica,sans-Serif" font-size="10.00">cam.nc.cad_nc_read.Parser.readline</text>
</a>
</g>
</g>
<!-- Node1&#45;&gt;Node25 -->
<g id="edge140_Node000001_Node000025" class="edge">
<title>Node1&#45;&gt;Node25</title>
<g id="a_edge140_Node000001_Node000025"><a xlink:title=" ">
<path fill="none" stroke="#63b8ff" d="M63.86,-516.78C68.48,-474.66 87.58,-355.86 159,-299 161.98,-296.63 165.14,-294.51 168.44,-292.61"/>
<polygon fill="#63b8ff" stroke="#63b8ff" points="170.1,-295.69 177.49,-288.1 166.98,-289.43 170.1,-295.69"/>
</a>
</g>
</g>
<!-- Node26 -->
<g id="Node000026" class="node">
<title>Node26</title>
<g id="a_Node000026"><a xlink:href="$classcam_1_1nc_1_1nc__read_1_1Parser.html#af38d287bc4d3f0d3dc1bbfce972d52f9" xlink:title="Internals.">
<polygon fill="white" stroke="#666666" points="357,-252.5 189,-252.5 189,-233.5 357,-233.5 357,-252.5"/>
<text text-anchor="middle" x="273" y="-240.5" font-family="Helvetica,sans-Serif" font-size="10.00">cam.nc.nc_read.Parser.readline</text>
</a>
</g>
</g>
<!-- Node1&#45;&gt;Node26 -->
<g id="edge141_Node000001_Node000026" class="edge">
<title>Node1&#45;&gt;Node26</title>
<g id="a_edge141_Node000001_Node000026"><a xlink:title=" ">
<path fill="none" stroke="#63b8ff" d="M62.9,-516.82C65.01,-470.45 78.09,-329.75 159,-262 165.06,-256.93 171.96,-252.97 179.29,-249.91"/>
<polygon fill="#63b8ff" stroke="#63b8ff" points="180.56,-253.17 188.78,-246.49 178.19,-246.58 180.56,-253.17"/>
</a>
</g>
</g>
<!-- Node27 -->
<g id="Node000027" class="node">
<title>Node27</title>
<g id="a_Node000027"><a xlink:href="$classcam_1_1nc_1_1nclathe__read_1_1Parser.html#ac02b49722711d004ae445e3243bd0575" xlink:title=" ">
<polygon fill="white" stroke="#666666" points="369.5,-215.5 176.5,-215.5 176.5,-196.5 369.5,-196.5 369.5,-215.5"/>
<text text-anchor="middle" x="273" y="-203.5" font-family="Helvetica,sans-Serif" font-size="10.00">cam.nc.nclathe_read.Parser.readline</text>
</a>
</g>
</g>
<!-- Node1&#45;&gt;Node27 -->
<g id="edge142_Node000001_Node000027" class="edge">
<title>Node1&#45;&gt;Node27</title>
<g id="a_edge142_Node000001_Node000027"><a xlink:title=" ">
<path fill="none" stroke="#63b8ff" d="M62.16,-516.97C61.92,-466.81 68.41,-303.88 159,-225 161.71,-222.64 164.59,-220.52 167.62,-218.62"/>
<polygon fill="#63b8ff" stroke="#63b8ff" points="169.37,-221.65 176.5,-213.81 166.04,-215.5 169.37,-221.65"/>
</a>
</g>
</g>
<!-- Node28 -->
<g id="Node000028" class="node">
<title>Node28</title>
<g id="a_Node000028"><a xlink:href="$classcam_1_1nc_1_1hxml__writer_1_1HxmlWriter.html#adb0551863323ff7ab2906281fd5703df" xlink:title=" ">
<polygon fill="white" stroke="#666666" points="384,-1002.5 162,-1002.5 162,-983.5 384,-983.5 384,-1002.5"/>
<text text-anchor="middle" x="273" y="-990.5" font-family="Helvetica,sans-Serif" font-size="10.00">cam.nc.hxml_writer.HxmlWriter.set_mode</text>
</a>
</g>
</g>
<!-- Node1&#45;&gt;Node28 -->
<g id="edge143_Node000001_Node000028" class="edge">
<title>Node1&#45;&gt;Node28</title>
<g id="a_edge143_Node000001_Node000028"><a xlink:title=" ">
<path fill="none" stroke="#63b8ff" d="M63.57,-547.24C68.87,-618.06 94.64,-914.18 159,-975 159.85,-975.8 160.72,-976.58 161.61,-977.32"/>
<polygon fill="#63b8ff" stroke="#63b8ff" points="159.9,-980.41 170.08,-983.36 163.97,-974.71 159.9,-980.41"/>
</a>
</g>
</g>
<!-- Node29 -->
<g id="Node000029" class="node">
<title>Node29</title>
<g id="a_Node000029"><a xlink:href="$classcam_1_1nc_1_1cad__nc__read_1_1Parser.html#a9442b31448149d408f2516108c93c14d" xlink:title=" ">
<polygon fill="white" stroke="#666666" points="372.5,-141.5 173.5,-141.5 173.5,-122.5 372.5,-122.5 372.5,-141.5"/>
<text text-anchor="middle" x="273" y="-129.5" font-family="Helvetica,sans-Serif" font-size="10.00">cam.nc.cad_nc_read.Parser.set_mode</text>
</a>
</g>
</g>
<!-- Node1&#45;&gt;Node29 -->
<g id="edge145_Node000001_Node000029" class="edge">
<title>Node1&#45;&gt;Node29</title>
<g id="a_edge145_Node000001_Node000029"><a xlink:title=" ">
<path fill="none" stroke="#63b8ff" d="M64.14,-516.73C71.4,-452 102.84,-201.35 159,-150 160.76,-148.39 162.6,-146.9 164.51,-145.51"/>
<polygon fill="#63b8ff" stroke="#63b8ff" points="166.66,-148.29 173.31,-140.05 162.97,-142.34 166.66,-148.29"/>
</a>
</g>
</g>
<!-- Node30 -->
<g id="Node000030" class="node">
<title>Node30</title>
<g id="a_Node000030"><a xlink:href="$classcam_1_1nc_1_1nclathe__read_1_1Parser.html#a399b6c5953dedca1aaf21ecb3e64d17e" xlink:title=" ">
<polygon fill="white" stroke="#666666" points="373.5,-104.5 172.5,-104.5 172.5,-85.5 373.5,-85.5 373.5,-104.5"/>
<text text-anchor="middle" x="273" y="-92.5" font-family="Helvetica,sans-Serif" font-size="10.00">cam.nc.nclathe_read.Parser.set_mode</text>
</a>
</g>
</g>
<!-- Node1&#45;&gt;Node30 -->
<g id="edge146_Node000001_Node000030" class="edge">
<title>Node1&#45;&gt;Node30</title>
<g id="a_edge146_Node000001_Node000030"><a xlink:title=" ">
<path fill="none" stroke="#63b8ff" d="M63.78,-516.67C69.84,-448.06 97.9,-170.06 159,-113 160.52,-111.58 162.11,-110.24 163.76,-108.98"/>
<polygon fill="#63b8ff" stroke="#63b8ff" points="165.94,-111.74 172.43,-103.37 162.14,-105.87 165.94,-111.74"/>
</a>
</g>
</g>
<!-- Node31 -->
<g id="Node000031" class="node">
<title>Node31</title>
<g id="a_Node000031"><a xlink:href="$classcam_1_1nc_1_1cad__nc__read_1_1Parser.html#a078d1f081037bf7907bc44602b8b4f1b" xlink:title=" ">
<polygon fill="white" stroke="#666666" points="368,-67.5 178,-67.5 178,-48.5 368,-48.5 368,-67.5"/>
<text text-anchor="middle" x="273" y="-55.5" font-family="Helvetica,sans-Serif" font-size="10.00">cam.nc.cad_nc_read.Parser.set_tool</text>
</a>
</g>
</g>
<!-- Node1&#45;&gt;Node31 -->
<g id="edge148_Node000001_Node000031" class="edge">
<title>Node1&#45;&gt;Node31</title>
<g id="a_edge148_Node000001_Node000031"><a xlink:title=" ">
<path fill="none" stroke="#63b8ff" d="M63.47,-516.8C68.37,-444.8 92.87,-138.86 159,-76 162.03,-73.12 165.33,-70.59 168.83,-68.37"/>
<polygon fill="#63b8ff" stroke="#63b8ff" points="170.75,-71.31 177.9,-63.49 167.44,-65.15 170.75,-71.31"/>
</a>
</g>
</g>
<!-- Node32 -->
<g id="Node000032" class="node">
<title>Node32</title>
<g id="a_Node000032"><a xlink:href="$classcam_1_1nc_1_1nclathe__read_1_1Parser.html#aa02859fa39229c323b28abe5a4fd06a2" xlink:title=" ">
<polygon fill="white" stroke="#666666" points="369,-178.5 177,-178.5 177,-159.5 369,-159.5 369,-178.5"/>
<text text-anchor="middle" x="273" y="-166.5" font-family="Helvetica,sans-Serif" font-size="10.00">cam.nc.nclathe_read.Parser.set_tool</text>
</a>
</g>
</g>
<!-- Node1&#45;&gt;Node32 -->
<g id="edge149_Node000001_Node000032" class="edge">
<title>Node1&#45;&gt;Node32</title>
<g id="a_edge149_Node000001_Node000032"><a xlink:title=" ">
<path fill="none" stroke="#63b8ff" d="M64.54,-516.98C73.05,-456.62 107.7,-232.73 159,-187 161.84,-184.47 164.88,-182.22 168.08,-180.22"/>
<polygon fill="#63b8ff" stroke="#63b8ff" points="169.75,-183.3 176.9,-175.49 166.44,-177.13 169.75,-183.3"/>
</a>
</g>
</g>
<!-- Node3 -->
<g id="Node000003" class="node">
<title>Node3</title>
<g id="a_Node000003"><a xlink:href="$classcam_1_1nc_1_1hxml__writer_1_1HxmlWriter.html#aed6f93c98cb8c0e3f3e826e75b6d6f15" xlink:title=" ">
<polygon fill="white" stroke="#666666" points="622,-1002.5 423,-1002.5 423,-983.5 622,-983.5 622,-1002.5"/>
<text text-anchor="middle" x="522.5" y="-990.5" font-family="Helvetica,sans-Serif" font-size="10.00">cam.nc.hxml_writer.HxmlWriter.write</text>
</a>
</g>
</g>
<!-- Node2&#45;&gt;Node3 -->
<g id="edge102_Node000002_Node000003" class="edge">
<title>Node2&#45;&gt;Node3</title>
<g id="a_edge102_Node000002_Node000003"><a xlink:title=" ">
<path fill="none" stroke="#63b8ff" d="M345.36,-928.53C359.3,-931.08 373.7,-934.21 387,-938 424.6,-948.71 465.97,-966.6 492.76,-979.06"/>
<polygon fill="#63b8ff" stroke="#63b8ff" points="491.4,-982.29 501.94,-983.39 494.38,-975.96 491.4,-982.29"/>
</a>
</g>
</g>
<!-- Node3&#45;&gt;Node3 -->
<g id="edge103_Node000003_Node000003" class="edge">
<title>Node3&#45;&gt;Node3</title>
<g id="a_edge103_Node000003_Node000003"><a xlink:title=" ">
<path fill="none" stroke="#63b8ff" d="M484.28,-1002.58C465.68,-1011.23 478.42,-1020.5 522.5,-1020.5 555.56,-1020.5 570.99,-1015.29 568.79,-1009.03"/>
<polygon fill="#63b8ff" stroke="#63b8ff" points="570.72,-1006.09 560.72,-1002.58 566.35,-1011.56 570.72,-1006.09"/>
</a>
</g>
</g>
<!-- Node5 -->
<g id="Node000005" class="node">
<title>Node5</title>
<g id="a_Node000005"><a xlink:href="$classcam_1_1nc_1_1cad__nc__read_1_1Parser.html#adcf2f47949df29f187f27fe985884633" xlink:title=" ">
<polygon fill="white" stroke="#666666" points="610.5,-749.5 434.5,-749.5 434.5,-730.5 610.5,-730.5 610.5,-749.5"/>
<text text-anchor="middle" x="522.5" y="-737.5" font-family="Helvetica,sans-Serif" font-size="10.00">cam.nc.cad_nc_read.Parser.write</text>
</a>
</g>
</g>
<!-- Node4&#45;&gt;Node5 -->
<g id="edge105_Node000004_Node000005" class="edge">
<title>Node4&#45;&gt;Node5</title>
<g id="a_edge105_Node000004_Node000005"><a xlink:title=" ">
<path fill="none" stroke="#63b8ff" d="M355.01,-835.46C365.95,-833 376.88,-829.9 387,-826 431.65,-808.8 477.25,-775.68 502.21,-755.94"/>
<polygon fill="#63b8ff" stroke="#63b8ff" points="504.54,-758.56 510.14,-749.57 500.15,-753.1 504.54,-758.56"/>
</a>
</g>
</g>
<!-- Node5&#45;&gt;Node5 -->
<g id="edge106_Node000005_Node000005" class="edge">
<title>Node5&#45;&gt;Node5</title>
<g id="a_edge106_Node000005_Node000005"><a xlink:title=" ">
<path fill="none" stroke="#63b8ff" d="M484.28,-749.58C465.68,-758.23 478.42,-767.5 522.5,-767.5 555.56,-767.5 570.99,-762.29 568.79,-756.03"/>
<polygon fill="#63b8ff" stroke="#63b8ff" points="570.72,-753.09 560.72,-749.58 566.35,-758.56 570.72,-753.09"/>
</a>
</g>
</g>
<!-- Node7 -->
<g id="Node000007" class="node">
<title>Node7</title>
<g id="a_Node000007"><a xlink:href="$classcam_1_1nc_1_1nclathe__read_1_1Parser.html#ab5ea283b461b57e48c8d5b0ad0a45694" xlink:title=" ">
<polygon fill="white" stroke="#666666" points="611.5,-428.5 433.5,-428.5 433.5,-409.5 611.5,-409.5 611.5,-428.5"/>
<text text-anchor="middle" x="522.5" y="-416.5" font-family="Helvetica,sans-Serif" font-size="10.00">cam.nc.nclathe_read.Parser.write</text>
</a>
</g>
</g>
<!-- Node6&#45;&gt;Node7 -->
<g id="edge108_Node000006_Node000007" class="edge">
<title>Node6&#45;&gt;Node7</title>
<g id="a_edge108_Node000006_Node000007"><a xlink:title=" ">
<path fill="none" stroke="#63b8ff" d="M368.63,-431.97C386.51,-430.45 405.25,-428.86 423.23,-427.34"/>
<polygon fill="#63b8ff" stroke="#63b8ff" points="423.76,-430.81 433.43,-426.47 423.17,-423.83 423.76,-430.81"/>
</a>
</g>
</g>
<!-- Node7&#45;&gt;Node7 -->
<g id="edge109_Node000007_Node000007" class="edge">
<title>Node7&#45;&gt;Node7</title>
<g id="a_edge109_Node000007_Node000007"><a xlink:title=" ">
<path fill="none" stroke="#63b8ff" d="M484.28,-428.58C465.68,-437.23 478.42,-446.5 522.5,-446.5 555.56,-446.5 570.99,-441.29 568.79,-435.03"/>
<polygon fill="#63b8ff" stroke="#63b8ff" points="570.72,-432.09 560.72,-428.58 566.35,-437.56 570.72,-432.09"/>
</a>
</g>
</g>
<!-- Node9&#45;&gt;Node5 -->
<g id="edge112_Node000009_Node000005" class="edge">
<title>Node9&#45;&gt;Node5</title>
<g id="a_edge112_Node000009_Node000005"><a xlink:title=" ">
<path fill="none" stroke="#63b8ff" d="M369.34,-728.93C387.29,-730.24 406.09,-731.61 424.11,-732.92"/>
<polygon fill="#63b8ff" stroke="#63b8ff" points="424.09,-736.42 434.32,-733.66 424.6,-729.44 424.09,-736.42"/>
</a>
</g>
</g>
<!-- Node10&#45;&gt;Node7 -->
<g id="edge114_Node000010_Node000007" class="edge">
<title>Node10&#45;&gt;Node7</title>
<g id="a_edge114_Node000010_Node000007"><a xlink:title=" ">
<path fill="none" stroke="#63b8ff" d="M356.35,-504.47C366.81,-502.22 377.26,-499.43 387,-496 429.9,-480.87 474.8,-452.14 500.35,-434.38"/>
<polygon fill="#63b8ff" stroke="#63b8ff" points="502.39,-437.22 508.54,-428.59 498.35,-431.5 502.39,-437.22"/>
</a>
</g>
</g>
<!-- Node11&#45;&gt;Node3 -->
<g id="edge116_Node000011_Node000003" class="edge">
<title>Node11&#45;&gt;Node3</title>
<g id="a_edge116_Node000011_Node000003"><a xlink:title=" ">
<path fill="none" stroke="#63b8ff" d="M356.33,-891.53C366.85,-893.99 377.31,-897.09 387,-901 432.77,-919.45 478.61,-955.47 503.18,-976.55"/>
<polygon fill="#63b8ff" stroke="#63b8ff" points="501.11,-979.39 510.94,-983.33 505.71,-974.12 501.11,-979.39"/>
</a>
</g>
</g>
<!-- Node12&#45;&gt;Node5 -->
<g id="edge118_Node000012_Node000005" class="edge">
<title>Node12&#45;&gt;Node5</title>
<g id="a_edge118_Node000012_Node000005"><a xlink:title=" ">
<path fill="none" stroke="#63b8ff" d="M337.26,-694.55C353.53,-697.3 370.96,-700.51 387,-704 418.31,-710.81 453.26,-720.22 479.69,-727.71"/>
<polygon fill="#63b8ff" stroke="#63b8ff" points="478.79,-731.09 489.37,-730.48 480.72,-724.36 478.79,-731.09"/>
</a>
</g>
</g>
<!-- Node13&#45;&gt;Node7 -->
<g id="edge120_Node000013_Node000007" class="edge">
<title>Node13&#45;&gt;Node7</title>
<g id="a_edge120_Node000013_Node000007"><a xlink:title=" ">
<path fill="none" stroke="#63b8ff" d="M343,-467.48C357.59,-465.06 372.86,-462.21 387,-459 420.07,-451.48 456.95,-440.31 483.71,-431.68"/>
<polygon fill="#63b8ff" stroke="#63b8ff" points="485.02,-434.94 493.45,-428.52 482.85,-428.28 485.02,-434.94"/>
</a>
</g>
</g>
<!-- Node14&#45;&gt;Node5 -->
<g id="edge122_Node000014_Node000005" class="edge">
<title>Node14&#45;&gt;Node5</title>
<g id="a_edge122_Node000014_Node000005"><a xlink:title=" ">
<path fill="none" stroke="#63b8ff" d="M357.52,-606.47C367.74,-609.51 377.81,-613.29 387,-618 438.41,-644.31 485.11,-695.43 507.52,-722.39"/>
<polygon fill="#63b8ff" stroke="#63b8ff" points="504.88,-724.69 513.92,-730.23 510.31,-720.27 504.88,-724.69"/>
</a>
</g>
</g>
<!-- Node15&#45;&gt;Node3 -->
<g id="edge124_Node000015_Node000003" class="edge">
<title>Node15&#45;&gt;Node3</title>
<g id="a_edge124_Node000015_Node000003"><a xlink:title=" ">
<path fill="none" stroke="#63b8ff" d="M353.81,-1057.99C365.04,-1055.31 376.37,-1052.31 387,-1049 424.42,-1037.35 465.83,-1019.28 492.68,-1006.84"/>
<polygon fill="#63b8ff" stroke="#63b8ff" points="494.3,-1009.94 501.88,-1002.53 491.33,-1003.6 494.3,-1009.94"/>
</a>
</g>
</g>
<!-- Node17&#45;&gt;Node7 -->
<g id="edge127_Node000017_Node000007" class="edge">
<title>Node17&#45;&gt;Node7</title>
<g id="a_edge127_Node000017_Node000007"><a xlink:title=" ">
<path fill="none" stroke="#63b8ff" d="M358.54,-22.81C368.94,-26.57 378.78,-31.79 387,-39 499.19,-137.39 517.8,-335.51 520.89,-398.96"/>
<polygon fill="#63b8ff" stroke="#63b8ff" points="517.4,-399.34 521.3,-409.19 524.39,-399.05 517.4,-399.34"/>
</a>
</g>
</g>
<!-- Node18&#45;&gt;Node5 -->
<g id="edge129_Node000018_Node000005" class="edge">
<title>Node18&#45;&gt;Node5</title>
<g id="a_edge129_Node000018_Node000005"><a xlink:title=" ">
<path fill="none" stroke="#63b8ff" d="M371.11,-751.55C388.54,-750.21 406.72,-748.81 424.16,-747.47"/>
<polygon fill="#63b8ff" stroke="#63b8ff" points="424.63,-750.95 434.33,-746.69 424.09,-743.97 424.63,-750.95"/>
</a>
</g>
</g>
<!-- Node19&#45;&gt;Node3 -->
<g id="edge131_Node000019_Node000003" class="edge">
<title>Node19&#45;&gt;Node3</title>
<g id="a_edge131_Node000019_Node000003"><a xlink:title=" ">
<path fill="none" stroke="#63b8ff" d="M337.74,-1020.47C371.24,-1015.46 412.49,-1009.3 447.41,-1004.08"/>
<polygon fill="#63b8ff" stroke="#63b8ff" points="448.18,-1007.5 457.55,-1002.56 447.14,-1000.58 448.18,-1007.5"/>
</a>
</g>
</g>
<!-- Node20&#45;&gt;Node7 -->
<g id="edge133_Node000020_Node000007" class="edge">
<title>Node20&#45;&gt;Node7</title>
<g id="a_edge133_Node000020_Node000007"><a xlink:title=" ">
<path fill="none" stroke="#63b8ff" d="M363.57,-541.43C371.67,-539.17 379.6,-536.4 387,-533 437.48,-509.82 483.98,-462.21 506.78,-436.46"/>
<polygon fill="#63b8ff" stroke="#63b8ff" points="509.66,-438.48 513.57,-428.63 504.37,-433.89 509.66,-438.48"/>
</a>
</g>
</g>
<!-- Node21&#45;&gt;Node5 -->
<g id="edge135_Node000021_Node000005" class="edge">
<title>Node21&#45;&gt;Node5</title>
<g id="a_edge135_Node000021_Node000005"><a xlink:title=" ">
<path fill="none" stroke="#63b8ff" d="M348.32,-786.95C361.25,-784.12 374.54,-781.08 387,-778 418.44,-770.23 453.65,-760.23 480.15,-752.45"/>
<polygon fill="#63b8ff" stroke="#63b8ff" points="481.26,-755.77 489.86,-749.58 479.28,-749.05 481.26,-755.77"/>
</a>
</g>
</g>
<!-- Node22&#45;&gt;Node7 -->
<g id="edge137_Node000022_Node000007" class="edge">
<title>Node22&#45;&gt;Node7</title>
<g id="a_edge137_Node000022_Node000007"><a xlink:title=" ">
<path fill="none" stroke="#63b8ff" d="M359.52,-404.6C380.05,-406.43 402.14,-408.39 423.21,-410.26"/>
<polygon fill="#63b8ff" stroke="#63b8ff" points="423.18,-413.77 433.45,-411.17 423.8,-406.8 423.18,-413.77"/>
</a>
</g>
</g>
<!-- Node28&#45;&gt;Node3 -->
<g id="edge144_Node000028_Node000003" class="edge">
<title>Node28&#45;&gt;Node3</title>
<g id="a_edge144_Node000028_Node000003"><a xlink:title=" ">
<path fill="none" stroke="#63b8ff" d="M384.36,-993C393.73,-993 403.21,-993 412.57,-993"/>
<polygon fill="#63b8ff" stroke="#63b8ff" points="412.67,-996.5 422.67,-993 412.67,-989.5 412.67,-996.5"/>
</a>
</g>
</g>
<!-- Node30&#45;&gt;Node7 -->
<g id="edge147_Node000030_Node000007" class="edge">
<title>Node30&#45;&gt;Node7</title>
<g id="a_edge147_Node000030_Node000007"><a xlink:title=" ">
<path fill="none" stroke="#63b8ff" d="M373.3,-104.57C378.15,-106.94 382.75,-109.72 387,-113 482.85,-186.98 511.81,-343.65 519.24,-399.07"/>
<polygon fill="#63b8ff" stroke="#63b8ff" points="515.8,-399.8 520.51,-409.29 522.75,-398.93 515.8,-399.8"/>
</a>
</g>
</g>
<!-- Node32&#45;&gt;Node7 -->
<g id="edge150_Node000032_Node000007" class="edge">
<title>Node32&#45;&gt;Node7</title>
<g id="a_edge150_Node000032_Node000007"><a xlink:title=" ">
<path fill="none" stroke="#63b8ff" d="M369.27,-177.62C375.53,-180.14 381.51,-183.23 387,-187 464.65,-240.32 503.57,-354.26 516.48,-399.71"/>
<polygon fill="#63b8ff" stroke="#63b8ff" points="513.14,-400.75 519.15,-409.48 519.89,-398.91 513.14,-400.75"/>
</a>
</g>
</g>
</g>
</svg>
