<?xml version="1.0" encoding="UTF-8" standalone="no"?>
<!DOCTYPE svg PUBLIC "-//W3C//DTD SVG 1.1//EN"
 "http://www.w3.org/Graphics/SVG/1.1/DTD/svg11.dtd">
<!-- Generated by graphviz version 2.43.0 (0)
 -->
<!-- Title: cam.nc.lathe1.CreatorIso.program_stop Pages: 1 -->
<svg width="1297pt" height="487pt"
 viewBox="0.00 0.00 1297.00 486.50" xmlns="http://www.w3.org/2000/svg" xmlns:xlink="http://www.w3.org/1999/xlink">
<g id="graph0" class="graph" transform="scale(1 1) rotate(0) translate(4 482.5)">
<title>cam.nc.lathe1.CreatorIso.program_stop</title>
<!-- Node1 -->
<g id="Node000001" class="node">
<title>Node1</title>
<g id="a_Node000001"><a xlink:title=" ">
<polygon fill="#999999" stroke="#666666" points="209,-285.5 0,-285.5 0,-266.5 209,-266.5 209,-285.5"/>
<text text-anchor="middle" x="104.5" y="-273.5" font-family="Helvetica,sans-Serif" font-size="10.00">cam.nc.lathe1.CreatorIso.program_stop</text>
</a>
</g>
</g>
<!-- Node2 -->
<g id="Node000002" class="node">
<title>Node2</title>
<g id="a_Node000002"><a xlink:href="$classcam_1_1nc_1_1cad__nc__read_1_1Parser.html#adcf2f47949df29f187f27fe985884633" xlink:title=" ">
<polygon fill="white" stroke="#666666" points="432.5,-460.5 256.5,-460.5 256.5,-441.5 432.5,-441.5 432.5,-460.5"/>
<text text-anchor="middle" x="344.5" y="-448.5" font-family="Helvetica,sans-Serif" font-size="10.00">cam.nc.cad_nc_read.Parser.write</text>
</a>
</g>
</g>
<!-- Node1&#45;&gt;Node2 -->
<g id="edge53_Node000001_Node000002" class="edge">
<title>Node1&#45;&gt;Node2</title>
<g id="a_edge53_Node000001_Node000002"><a xlink:title=" ">
<path fill="none" stroke="#63b8ff" d="M110.93,-285.75C127.15,-313.86 178.27,-395.45 245,-433 248.22,-434.81 251.58,-436.45 255.04,-437.92"/>
<polygon fill="#63b8ff" stroke="#63b8ff" points="253.81,-441.2 264.41,-441.46 256.29,-434.65 253.81,-441.2"/>
</a>
</g>
</g>
<!-- Node3 -->
<g id="Node000003" class="node">
<title>Node3</title>
<g id="a_Node000003"><a xlink:href="$classcam_1_1nc_1_1hxml__writer_1_1HxmlWriter.html#aed6f93c98cb8c0e3f3e826e75b6d6f15" xlink:title=" ">
<polygon fill="white" stroke="#666666" points="444,-405.5 245,-405.5 245,-386.5 444,-386.5 444,-405.5"/>
<text text-anchor="middle" x="344.5" y="-393.5" font-family="Helvetica,sans-Serif" font-size="10.00">cam.nc.hxml_writer.HxmlWriter.write</text>
</a>
</g>
</g>
<!-- Node1&#45;&gt;Node3 -->
<g id="edge55_Node000001_Node000003" class="edge">
<title>Node1&#45;&gt;Node3</title>
<g id="a_edge55_Node000001_Node000003"><a xlink:title=" ">
<path fill="none" stroke="#63b8ff" d="M115.33,-285.72C136.82,-306.35 190.43,-354.54 245,-378 249.99,-380.15 255.23,-382.04 260.58,-383.7"/>
<polygon fill="#63b8ff" stroke="#63b8ff" points="259.74,-387.1 270.32,-386.46 261.65,-380.36 259.74,-387.1"/>
</a>
</g>
</g>
<!-- Node4 -->
<g id="Node000004" class="node">
<title>Node4</title>
<g id="a_Node000004"><a xlink:href="$classcam_1_1nc_1_1iso_1_1Creator.html#abb81af5a0bdddfed387b71b68a51cc7a" xlink:title="Internals.">
<polygon fill="white" stroke="#666666" points="412,-368.5 277,-368.5 277,-349.5 412,-349.5 412,-368.5"/>
<text text-anchor="middle" x="344.5" y="-356.5" font-family="Helvetica,sans-Serif" font-size="10.00">cam.nc.iso.Creator.write</text>
</a>
</g>
</g>
<!-- Node1&#45;&gt;Node4 -->
<g id="edge57_Node000001_Node000004" class="edge">
<title>Node1&#45;&gt;Node4</title>
<g id="a_edge57_Node000001_Node000004"><a xlink:title=" ">
<path fill="none" stroke="#63b8ff" d="M122.54,-285.69C148.27,-299.91 198.92,-326.32 245,-341 252.4,-343.36 260.21,-345.44 268.07,-347.27"/>
<polygon fill="#63b8ff" stroke="#63b8ff" points="267.5,-350.73 278.02,-349.46 269,-343.89 267.5,-350.73"/>
</a>
</g>
</g>
<!-- Node5 -->
<g id="Node000005" class="node">
<title>Node5</title>
<g id="a_Node000005"><a xlink:href="$classcam_1_1nc_1_1nc_1_1Creator.html#a80f2134add83bfaaf2870d075d36ed8a" xlink:title=" ">
<polygon fill="white" stroke="#666666" points="410.5,-313.5 278.5,-313.5 278.5,-294.5 410.5,-294.5 410.5,-313.5"/>
<text text-anchor="middle" x="344.5" y="-301.5" font-family="Helvetica,sans-Serif" font-size="10.00">cam.nc.nc.Creator.write</text>
</a>
</g>
</g>
<!-- Node1&#45;&gt;Node5 -->
<g id="edge58_Node000001_Node000005" class="edge">
<title>Node1&#45;&gt;Node5</title>
<g id="a_edge58_Node000001_Node000005"><a xlink:title=" ">
<path fill="none" stroke="#63b8ff" d="M186.41,-285.52C212.82,-288.63 242.03,-292.06 268.02,-295.12"/>
<polygon fill="#63b8ff" stroke="#63b8ff" points="267.85,-298.62 278.19,-296.32 268.67,-291.67 267.85,-298.62"/>
</a>
</g>
</g>
<!-- Node6 -->
<g id="Node000006" class="node">
<title>Node6</title>
<g id="a_Node000006"><a xlink:href="$classcam_1_1nc_1_1nclathe__read_1_1Parser.html#ab5ea283b461b57e48c8d5b0ad0a45694" xlink:title=" ">
<polygon fill="white" stroke="#666666" points="433.5,-258.5 255.5,-258.5 255.5,-239.5 433.5,-239.5 433.5,-258.5"/>
<text text-anchor="middle" x="344.5" y="-246.5" font-family="Helvetica,sans-Serif" font-size="10.00">cam.nc.nclathe_read.Parser.write</text>
</a>
</g>
</g>
<!-- Node1&#45;&gt;Node6 -->
<g id="edge60_Node000001_Node000006" class="edge">
<title>Node1&#45;&gt;Node6</title>
<g id="a_edge60_Node000001_Node000006"><a xlink:title=" ">
<path fill="none" stroke="#63b8ff" d="M189.41,-266.48C208.87,-264.27 229.71,-261.91 249.57,-259.66"/>
<polygon fill="#63b8ff" stroke="#63b8ff" points="250,-263.13 259.55,-258.52 249.21,-256.17 250,-263.13"/>
</a>
</g>
</g>
<!-- Node7 -->
<g id="Node000007" class="node">
<title>Node7</title>
<g id="a_Node000007"><a xlink:href="$classcam_1_1nc_1_1recreator_1_1Redirector.html#a79cc974683588db3ef959189e7552c0d" xlink:title="Programs.">
<polygon fill="white" stroke="#666666" points="434,-203.5 255,-203.5 255,-184.5 434,-184.5 434,-203.5"/>
<text text-anchor="middle" x="344.5" y="-191.5" font-family="Helvetica,sans-Serif" font-size="10.00">cam.nc.recreator.Redirector.write</text>
</a>
</g>
</g>
<!-- Node1&#45;&gt;Node7 -->
<g id="edge62_Node000001_Node000007" class="edge">
<title>Node1&#45;&gt;Node7</title>
<g id="a_edge62_Node000001_Node000007"><a xlink:title=" ">
<path fill="none" stroke="#63b8ff" d="M133.27,-266.43C176.08,-251.68 258.27,-223.36 306.22,-206.84"/>
<polygon fill="#63b8ff" stroke="#63b8ff" points="307.59,-210.07 315.91,-203.51 305.31,-203.45 307.59,-210.07"/>
</a>
</g>
</g>
<!-- Node8 -->
<g id="Node000008" class="node">
<title>Node8</title>
<g id="a_Node000008"><a xlink:href="$classcam_1_1nc_1_1format_1_1Address.html#aa21f0ffeb829537d9103759276c01a4b" xlink:title=" ">
<polygon fill="white" stroke="#666666" points="423.5,-166.5 265.5,-166.5 265.5,-147.5 423.5,-147.5 423.5,-166.5"/>
<text text-anchor="middle" x="344.5" y="-154.5" font-family="Helvetica,sans-Serif" font-size="10.00">cam.nc.format.Address.write</text>
</a>
</g>
</g>
<!-- Node1&#45;&gt;Node8 -->
<g id="edge64_Node000001_Node000008" class="edge">
<title>Node1&#45;&gt;Node8</title>
<g id="a_edge64_Node000001_Node000008"><a xlink:title=" ">
<path fill="none" stroke="#63b8ff" d="M115.72,-266.21C137.53,-245.91 191.07,-199.2 245,-176 251.07,-173.39 257.51,-171.13 264.07,-169.19"/>
<polygon fill="#63b8ff" stroke="#63b8ff" points="265.02,-172.56 273.74,-166.55 263.18,-165.8 265.02,-172.56"/>
</a>
</g>
</g>
<!-- Node19 -->
<g id="Node000019" class="node">
<title>Node19</title>
<g id="a_Node000019"><a xlink:href="$classcam_1_1nc_1_1format_1_1AddressPlusMinus.html#aaacea4c7b677f0a602dbc9023ff365d2" xlink:title=" ">
<polygon fill="white" stroke="#666666" points="419.5,-129 269.5,-129 269.5,-99 419.5,-99 419.5,-129"/>
<text text-anchor="start" x="277.5" y="-117" font-family="Helvetica,sans-Serif" font-size="10.00">cam.nc.format.AddressPlus</text>
<text text-anchor="middle" x="344.5" y="-106" font-family="Helvetica,sans-Serif" font-size="10.00">Minus.write</text>
</a>
</g>
</g>
<!-- Node1&#45;&gt;Node19 -->
<g id="edge77_Node000001_Node000019" class="edge">
<title>Node1&#45;&gt;Node19</title>
<g id="a_edge77_Node000001_Node000019"><a xlink:title=" ">
<path fill="none" stroke="#63b8ff" d="M112.37,-266.18C130.74,-240.73 183.74,-172.23 245,-138 249.75,-135.34 254.8,-132.98 259.99,-130.87"/>
<polygon fill="#63b8ff" stroke="#63b8ff" points="261.31,-134.12 269.47,-127.36 258.88,-127.55 261.31,-134.12"/>
</a>
</g>
</g>
<!-- Node2&#45;&gt;Node2 -->
<g id="edge54_Node000002_Node000002" class="edge">
<title>Node2&#45;&gt;Node2</title>
<g id="a_edge54_Node000002_Node000002"><a xlink:title=" ">
<path fill="none" stroke="#63b8ff" d="M311.21,-460.58C295.01,-469.23 306.11,-478.5 344.5,-478.5 372.09,-478.5 385.59,-473.71 384.98,-467.81"/>
<polygon fill="#63b8ff" stroke="#63b8ff" points="387.33,-465.2 377.79,-460.58 382.36,-470.14 387.33,-465.2"/>
</a>
</g>
</g>
<!-- Node3&#45;&gt;Node3 -->
<g id="edge56_Node000003_Node000003" class="edge">
<title>Node3&#45;&gt;Node3</title>
<g id="a_edge56_Node000003_Node000003"><a xlink:title=" ">
<path fill="none" stroke="#63b8ff" d="M311.21,-405.58C295.01,-414.23 306.11,-423.5 344.5,-423.5 372.09,-423.5 385.59,-418.71 384.98,-412.81"/>
<polygon fill="#63b8ff" stroke="#63b8ff" points="387.33,-410.2 377.79,-405.58 382.36,-415.14 387.33,-410.2"/>
</a>
</g>
</g>
<!-- Node5&#45;&gt;Node5 -->
<g id="edge59_Node000005_Node000005" class="edge">
<title>Node5&#45;&gt;Node5</title>
<g id="a_edge59_Node000005_Node000005"><a xlink:title=" ">
<path fill="none" stroke="#63b8ff" d="M311.21,-313.58C295.01,-322.23 306.11,-331.5 344.5,-331.5 372.09,-331.5 385.59,-326.71 384.98,-320.81"/>
<polygon fill="#63b8ff" stroke="#63b8ff" points="387.33,-318.2 377.79,-313.58 382.36,-323.14 387.33,-318.2"/>
</a>
</g>
</g>
<!-- Node6&#45;&gt;Node6 -->
<g id="edge61_Node000006_Node000006" class="edge">
<title>Node6&#45;&gt;Node6</title>
<g id="a_edge61_Node000006_Node000006"><a xlink:title=" ">
<path fill="none" stroke="#63b8ff" d="M311.21,-258.58C295.01,-267.23 306.11,-276.5 344.5,-276.5 372.09,-276.5 385.59,-271.71 384.98,-265.81"/>
<polygon fill="#63b8ff" stroke="#63b8ff" points="387.33,-263.2 377.79,-258.58 382.36,-268.14 387.33,-263.2"/>
</a>
</g>
</g>
<!-- Node7&#45;&gt;Node7 -->
<g id="edge63_Node000007_Node000007" class="edge">
<title>Node7&#45;&gt;Node7</title>
<g id="a_edge63_Node000007_Node000007"><a xlink:title=" ">
<path fill="none" stroke="#63b8ff" d="M311.21,-203.58C295.01,-212.23 306.11,-221.5 344.5,-221.5 372.09,-221.5 385.59,-216.71 384.98,-210.81"/>
<polygon fill="#63b8ff" stroke="#63b8ff" points="387.33,-208.2 377.79,-203.58 382.36,-213.14 387.33,-208.2"/>
</a>
</g>
</g>
<!-- Node9 -->
<g id="Node000009" class="node">
<title>Node9</title>
<g id="a_Node000009"><a xlink:href="$classcam_1_1async__op_1_1AsyncOperatorMixin.html#a9628cbca8e69ec75b2337171a02bf428" xlink:title=" ">
<polygon fill="white" stroke="#666666" points="641,-150 480,-150 480,-120 641,-120 641,-150"/>
<text text-anchor="start" x="488" y="-138" font-family="Helvetica,sans-Serif" font-size="10.00">cam.async_op.AsyncOperator</text>
<text text-anchor="middle" x="560.5" y="-127" font-family="Helvetica,sans-Serif" font-size="10.00">Mixin.modal</text>
</a>
</g>
</g>
<!-- Node8&#45;&gt;Node9 -->
<g id="edge65_Node000008_Node000009" class="edge">
<title>Node8&#45;&gt;Node9</title>
<g id="a_edge65_Node000008_Node000009"><a xlink:title=" ">
<path fill="none" stroke="#63b8ff" d="M423.67,-148.96C438.65,-147.42 454.45,-145.8 469.77,-144.22"/>
<polygon fill="#63b8ff" stroke="#63b8ff" points="470.16,-147.7 479.75,-143.2 469.45,-140.74 470.16,-147.7"/>
</a>
</g>
</g>
<!-- Node10 -->
<g id="Node000010" class="node">
<title>Node10</title>
<g id="a_Node000010"><a xlink:href="$classcam_1_1async__op_1_1AsyncOperatorMixin.html#a15a51cfd69d8e453e2e3d64386b1ebe3" xlink:title=" ">
<polygon fill="white" stroke="#666666" points="838,-150 677,-150 677,-120 838,-120 838,-150"/>
<text text-anchor="start" x="685" y="-138" font-family="Helvetica,sans-Serif" font-size="10.00">cam.async_op.AsyncOperator</text>
<text text-anchor="middle" x="757.5" y="-127" font-family="Helvetica,sans-Serif" font-size="10.00">Mixin.tick</text>
</a>
</g>
</g>
<!-- Node9&#45;&gt;Node10 -->
<g id="edge66_Node000009_Node000010" class="edge">
<title>Node9&#45;&gt;Node10</title>
<g id="a_edge66_Node000009_Node000010"><a xlink:title=" ">
<path fill="none" stroke="#63b8ff" d="M641.1,-135C649.57,-135 658.24,-135 666.82,-135"/>
<polygon fill="#63b8ff" stroke="#63b8ff" points="666.84,-138.5 676.84,-135 666.84,-131.5 666.84,-138.5"/>
</a>
</g>
</g>
<!-- Node11 -->
<g id="Node000011" class="node">
<title>Node11</title>
<g id="a_Node000011"><a xlink:href="$classcam_1_1async__op_1_1AsyncTestOperator.html#a42606ca890a957aa7070a4bc6f25228b" xlink:title=" ">
<polygon fill="white" stroke="#666666" points="1095,-270 874,-270 874,-240 1095,-240 1095,-270"/>
<text text-anchor="start" x="882" y="-258" font-family="Helvetica,sans-Serif" font-size="10.00">cam.async_op.AsyncTestOperator.execute</text>
<text text-anchor="middle" x="984.5" y="-247" font-family="Helvetica,sans-Serif" font-size="10.00">_async</text>
</a>
</g>
</g>
<!-- Node10&#45;&gt;Node11 -->
<g id="edge67_Node000010_Node000011" class="edge">
<title>Node10&#45;&gt;Node11</title>
<g id="a_edge67_Node000010_Node000011"><a xlink:title=" ">
<path fill="none" stroke="#63b8ff" d="M772.18,-150.27C792.31,-171.74 832.07,-210.51 874,-231 878.09,-233 882.35,-234.84 886.72,-236.52"/>
<polygon fill="#63b8ff" stroke="#63b8ff" points="885.81,-239.91 896.41,-239.97 888.16,-233.32 885.81,-239.91"/>
</a>
</g>
</g>
<!-- Node12 -->
<g id="Node000012" class="node">
<title>Node12</title>
<g id="a_Node000012"><a xlink:href="$classcam_1_1ops_1_1CalculatePath.html#a13dfe2f8578383234e74e58e2f292e1b" xlink:title=" ">
<polygon fill="white" stroke="#666666" points="1069,-222 900,-222 900,-192 1069,-192 1069,-222"/>
<text text-anchor="start" x="908" y="-210" font-family="Helvetica,sans-Serif" font-size="10.00">cam.ops.CalculatePath.execute</text>
<text text-anchor="middle" x="984.5" y="-199" font-family="Helvetica,sans-Serif" font-size="10.00">_async</text>
</a>
</g>
</g>
<!-- Node10&#45;&gt;Node12 -->
<g id="edge68_Node000010_Node000012" class="edge">
<title>Node10&#45;&gt;Node12</title>
<g id="a_edge68_Node000010_Node000012"><a xlink:title=" ">
<path fill="none" stroke="#63b8ff" d="M790.29,-150.01C813.18,-160.38 845,-173.88 874,-183 881.31,-185.3 888.96,-187.46 896.68,-189.47"/>
<polygon fill="#63b8ff" stroke="#63b8ff" points="895.91,-192.89 906.46,-191.93 897.62,-186.1 895.91,-192.89"/>
</a>
</g>
</g>
<!-- Node14 -->
<g id="Node000014" class="node">
<title>Node14</title>
<g id="a_Node000014"><a xlink:href="$classcam_1_1ops_1_1PathsChain.html#a6fc64e383ccf724b2325e18a82d53eae" xlink:title=" ">
<polygon fill="white" stroke="#666666" points="1062.5,-174 906.5,-174 906.5,-144 1062.5,-144 1062.5,-174"/>
<text text-anchor="start" x="914.5" y="-162" font-family="Helvetica,sans-Serif" font-size="10.00">cam.ops.PathsChain.execute</text>
<text text-anchor="middle" x="984.5" y="-151" font-family="Helvetica,sans-Serif" font-size="10.00">_async</text>
</a>
</g>
</g>
<!-- Node10&#45;&gt;Node14 -->
<g id="edge70_Node000010_Node000014" class="edge">
<title>Node10&#45;&gt;Node14</title>
<g id="a_edge70_Node000010_Node000014"><a xlink:title=" ">
<path fill="none" stroke="#63b8ff" d="M838.14,-143.5C856.9,-145.5 876.98,-147.64 896.06,-149.67"/>
<polygon fill="#63b8ff" stroke="#63b8ff" points="895.92,-153.18 906.23,-150.76 896.66,-146.22 895.92,-153.18"/>
</a>
</g>
</g>
<!-- Node16 -->
<g id="Node000016" class="node">
<title>Node16</title>
<g id="a_Node000016"><a xlink:href="$classcam_1_1ops_1_1CAMSimulate.html#a633151f17849d281fd52ce82c00356a7" xlink:title=" ">
<polygon fill="white" stroke="#666666" points="1068.5,-126 900.5,-126 900.5,-96 1068.5,-96 1068.5,-126"/>
<text text-anchor="start" x="908.5" y="-114" font-family="Helvetica,sans-Serif" font-size="10.00">cam.ops.CAMSimulate.execute</text>
<text text-anchor="middle" x="984.5" y="-103" font-family="Helvetica,sans-Serif" font-size="10.00">_async</text>
</a>
</g>
</g>
<!-- Node10&#45;&gt;Node16 -->
<g id="edge73_Node000010_Node000016" class="edge">
<title>Node10&#45;&gt;Node16</title>
<g id="a_edge73_Node000010_Node000016"><a xlink:title=" ">
<path fill="none" stroke="#63b8ff" d="M838.14,-126.5C854.95,-124.71 872.82,-122.81 890.08,-120.97"/>
<polygon fill="#63b8ff" stroke="#63b8ff" points="890.58,-124.43 900.15,-119.89 889.84,-117.47 890.58,-124.43"/>
</a>
</g>
</g>
<!-- Node17 -->
<g id="Node000017" class="node">
<title>Node17</title>
<g id="a_Node000017"><a xlink:href="$classcam_1_1ops_1_1CAMSimulateChain.html#a1e77c7ce21b3b7e3e38a12b6b62517e9" xlink:title=" ">
<polygon fill="white" stroke="#666666" points="1082.5,-78 886.5,-78 886.5,-48 1082.5,-48 1082.5,-78"/>
<text text-anchor="start" x="894.5" y="-66" font-family="Helvetica,sans-Serif" font-size="10.00">cam.ops.CAMSimulateChain.execute</text>
<text text-anchor="middle" x="984.5" y="-55" font-family="Helvetica,sans-Serif" font-size="10.00">_async</text>
</a>
</g>
</g>
<!-- Node10&#45;&gt;Node17 -->
<g id="edge74_Node000010_Node000017" class="edge">
<title>Node10&#45;&gt;Node17</title>
<g id="a_edge74_Node000010_Node000017"><a xlink:title=" ">
<path fill="none" stroke="#63b8ff" d="M790.29,-119.99C813.18,-109.62 845,-96.12 874,-87 881.31,-84.7 888.96,-82.54 896.68,-80.53"/>
<polygon fill="#63b8ff" stroke="#63b8ff" points="897.62,-83.9 906.46,-78.07 895.91,-77.11 897.62,-83.9"/>
</a>
</g>
</g>
<!-- Node18 -->
<g id="Node000018" class="node">
<title>Node18</title>
<g id="a_Node000018"><a xlink:href="$classcam_1_1async__op_1_1AsyncOperatorMixin.html#a2216ff6bb0dfd132f4ec4cf79b7cba2b" xlink:title=" ">
<polygon fill="white" stroke="#666666" points="1065,-30 904,-30 904,0 1065,0 1065,-30"/>
<text text-anchor="start" x="912" y="-18" font-family="Helvetica,sans-Serif" font-size="10.00">cam.async_op.AsyncOperator</text>
<text text-anchor="middle" x="984.5" y="-7" font-family="Helvetica,sans-Serif" font-size="10.00">Mixin.show_progress</text>
</a>
</g>
</g>
<!-- Node10&#45;&gt;Node18 -->
<g id="edge76_Node000010_Node000018" class="edge">
<title>Node10&#45;&gt;Node18</title>
<g id="a_edge76_Node000010_Node000018"><a xlink:title=" ">
<path fill="none" stroke="#63b8ff" d="M772.18,-119.73C792.31,-98.26 832.07,-59.49 874,-39 880.43,-35.86 887.27,-33.12 894.28,-30.74"/>
<polygon fill="#63b8ff" stroke="#63b8ff" points="895.42,-34.05 903.91,-27.71 893.32,-27.37 895.42,-34.05"/>
</a>
</g>
</g>
<!-- Node13 -->
<g id="Node000013" class="node">
<title>Node13</title>
<g id="a_Node000013"><a xlink:href="$namespacecam_1_1ops.html#aa8e95f7410a7ceb178db48f4f8c2d995" xlink:title=" ">
<polygon fill="white" stroke="#666666" points="1266.5,-192.5 1153.5,-192.5 1153.5,-173.5 1266.5,-173.5 1266.5,-192.5"/>
<text text-anchor="middle" x="1210" y="-180.5" font-family="Helvetica,sans-Serif" font-size="10.00">cam.ops._calc_path</text>
</a>
</g>
</g>
<!-- Node12&#45;&gt;Node13 -->
<g id="edge69_Node000012_Node000013" class="edge">
<title>Node12&#45;&gt;Node13</title>
<g id="a_edge69_Node000012_Node000013"><a xlink:title=" ">
<path fill="none" stroke="#63b8ff" d="M1069.04,-198.03C1093.56,-195.4 1120.01,-192.56 1143.25,-190.06"/>
<polygon fill="#63b8ff" stroke="#63b8ff" points="1143.77,-193.52 1153.34,-188.98 1143.03,-186.56 1143.77,-193.52"/>
</a>
</g>
</g>
<!-- Node14&#45;&gt;Node13 -->
<g id="edge71_Node000014_Node000013" class="edge">
<title>Node14&#45;&gt;Node13</title>
<g id="a_edge71_Node000014_Node000013"><a xlink:title=" ">
<path fill="none" stroke="#63b8ff" d="M1062.73,-167.29C1088.9,-170.1 1117.87,-173.21 1143.08,-175.92"/>
<polygon fill="#63b8ff" stroke="#63b8ff" points="1142.95,-179.43 1153.27,-177.02 1143.7,-172.47 1142.95,-179.43"/>
</a>
</g>
</g>
<!-- Node15 -->
<g id="Node000015" class="node">
<title>Node15</title>
<g id="a_Node000015"><a xlink:href="$namespacecam_1_1ops.html#ab55fb8ec9a00e021e8e4a1c3ecc97cb4" xlink:title=" ">
<polygon fill="white" stroke="#666666" points="1289,-126.5 1131,-126.5 1131,-107.5 1289,-107.5 1289,-126.5"/>
<text text-anchor="middle" x="1210" y="-114.5" font-family="Helvetica,sans-Serif" font-size="10.00">cam.ops.getChainOperations</text>
</a>
</g>
</g>
<!-- Node14&#45;&gt;Node15 -->
<g id="edge72_Node000014_Node000015" class="edge">
<title>Node14&#45;&gt;Node15</title>
<g id="a_edge72_Node000014_Node000015"><a xlink:title=" ">
<path fill="none" stroke="#63b8ff" d="M1062.73,-144.49C1090.81,-139.21 1122.12,-133.33 1148.54,-128.36"/>
<polygon fill="#63b8ff" stroke="#63b8ff" points="1149.23,-131.79 1158.41,-126.51 1147.94,-124.91 1149.23,-131.79"/>
</a>
</g>
</g>
<!-- Node17&#45;&gt;Node15 -->
<g id="edge75_Node000017_Node000015" class="edge">
<title>Node17&#45;&gt;Node15</title>
<g id="a_edge75_Node000017_Node000015"><a xlink:title=" ">
<path fill="none" stroke="#63b8ff" d="M1056.28,-78.06C1069.19,-80.94 1082.51,-83.99 1095,-87 1117.91,-92.52 1143.28,-99.15 1164.25,-104.77"/>
<polygon fill="#63b8ff" stroke="#63b8ff" points="1163.6,-108.21 1174.17,-107.43 1165.42,-101.45 1163.6,-108.21"/>
</a>
</g>
</g>
<!-- Node19&#45;&gt;Node9 -->
<g id="edge78_Node000019_Node000009" class="edge">
<title>Node19&#45;&gt;Node9</title>
<g id="a_edge78_Node000019_Node000009"><a xlink:title=" ">
<path fill="none" stroke="#63b8ff" d="M419.75,-121.29C435.84,-122.87 453.03,-124.55 469.65,-126.18"/>
<polygon fill="#63b8ff" stroke="#63b8ff" points="469.62,-129.7 479.92,-127.19 470.3,-122.73 469.62,-129.7"/>
</a>
</g>
</g>
</g>
</svg>
