<?xml version="1.0" encoding="UTF-8" standalone="no"?>
<!DOCTYPE svg PUBLIC "-//W3C//DTD SVG 1.1//EN"
 "http://www.w3.org/Graphics/SVG/1.1/DTD/svg11.dtd">
<!-- Generated by graphviz version 2.43.0 (0)
 -->
<!-- Title: cam.curvecamtools.CamCurveIntarsion Pages: 1 -->
<svg width="365pt" height="271pt"
 viewBox="0.00 0.00 364.50 271.00" xmlns="http://www.w3.org/2000/svg" xmlns:xlink="http://www.w3.org/1999/xlink">
<g id="graph0" class="graph" transform="scale(1 1) rotate(0) translate(4 267)">
<title>cam.curvecamtools.CamCurveIntarsion</title>
<!-- Node1 -->
<g id="Node000001" class="node">
<title>Node1</title>
<g id="a_Node000001"><a xlink:title=" ">
<polygon fill="#999999" stroke="transparent" points="206,-90 45,-90 45,0 206,0 206,-90"/>
<text text-anchor="start" x="50.5" y="-78" font-family="Helvetica,sans-Serif" font-size="10.00">cam.curvecamtools.CamCurve</text>
<text text-anchor="start" x="104.5" y="-67" font-family="Helvetica,sans-Serif" font-size="10.00">Intarsion</text>
<text text-anchor="start" x="124" y="-52" font-family="Helvetica,sans-Serif" font-size="10.00"> </text>
<text text-anchor="start" x="73" y="-37" font-family="Helvetica,sans-Serif" font-size="10.00">+</text>
<text text-anchor="start" x="109.5" y="-37" font-family="Helvetica,sans-Serif" font-size="10.00">poll()</text>
<text text-anchor="start" x="73" y="-22" font-family="Helvetica,sans-Serif" font-size="10.00">+</text>
<text text-anchor="start" x="109.5" y="-22" font-family="Helvetica,sans-Serif" font-size="10.00">execute()</text>
<text text-anchor="start" x="73" y="-7" font-family="Helvetica,sans-Serif" font-size="10.00">+</text>
<text text-anchor="start" x="109.5" y="-7" font-family="Helvetica,sans-Serif" font-size="10.00">invoke()</text>
<polygon fill="#666666" stroke="#666666" points="45.5,-62 45.5,-62 206.5,-62 206.5,-62 45.5,-62"/>
<polygon fill="#666666" stroke="#666666" points="45.5,-47 45.5,-47 206.5,-47 206.5,-47 45.5,-47"/>
<polygon fill="none" stroke="#666666" points="45,0 45,-90 206,-90 206,0 45,0"/>
</a>
</g>
</g>
<!-- Node2 -->
<g id="Node000002" class="node">
<title>Node2</title>
<g id="a_Node000002"><a xlink:title=" ">
<polygon fill="white" stroke="transparent" points="53,-263 0,-263 0,-214 53,-214 53,-263"/>
<text text-anchor="start" x="5.5" y="-250.5" font-family="Helvetica,sans-Serif" font-size="10.00">Operator</text>
<text text-anchor="start" x="25" y="-235.5" font-family="Helvetica,sans-Serif" font-size="10.00"> </text>
<text text-anchor="start" x="25" y="-220.5" font-family="Helvetica,sans-Serif" font-size="10.00"> </text>
<polygon fill="#666666" stroke="#666666" points="0.5,-245.5 0.5,-245.5 53.5,-245.5 53.5,-245.5 0.5,-245.5"/>
<polygon fill="#666666" stroke="#666666" points="0.5,-230.5 0.5,-230.5 53.5,-230.5 53.5,-230.5 0.5,-230.5"/>
<polygon fill="none" stroke="#666666" points="0,-214 0,-263 53,-263 53,-214 0,-214"/>
</a>
</g>
</g>
<!-- Node2&#45;&gt;Node1 -->
<g id="edge9_Node000001_Node000002" class="edge">
<title>Node2&#45;&gt;Node1</title>
<g id="a_edge9_Node000001_Node000002"><a xlink:title=" ">
<path fill="none" stroke="#63b8ff" d="M34.7,-204.17C42.2,-177.12 54.81,-138.58 72.5,-108 75.97,-101.99 80.06,-96.01 84.4,-90.27"/>
<polygon fill="none" stroke="#63b8ff" points="31.29,-203.37 32.08,-213.93 38.05,-205.18 31.29,-203.37"/>
</a>
</g>
</g>
<!-- Node3 -->
<g id="Node000003" class="node">
<title>Node3</title>
<g id="a_Node000003"><a xlink:title=" ">
<polygon fill="white" stroke="transparent" points="94,-263 71,-263 71,-214 94,-214 94,-263"/>
<text text-anchor="start" x="76.5" y="-250.5" font-family="Helvetica,sans-Serif" font-size="10.00">str</text>
<text text-anchor="start" x="81" y="-235.5" font-family="Helvetica,sans-Serif" font-size="10.00"> </text>
<text text-anchor="start" x="81" y="-220.5" font-family="Helvetica,sans-Serif" font-size="10.00"> </text>
<polygon fill="#666666" stroke="#666666" points="71.5,-245.5 71.5,-245.5 94.5,-245.5 94.5,-245.5 71.5,-245.5"/>
<polygon fill="#666666" stroke="#666666" points="71.5,-230.5 71.5,-230.5 94.5,-230.5 94.5,-230.5 71.5,-230.5"/>
<polygon fill="none" stroke="#666666" points="71,-214 71,-263 94,-263 94,-214 71,-214"/>
</a>
</g>
</g>
<!-- Node3&#45;&gt;Node1 -->
<g id="edge10_Node000001_Node000003" class="edge">
<title>Node3&#45;&gt;Node1</title>
<g id="a_edge10_Node000001_Node000003"><a xlink:title=" ">
<path fill="none" stroke="#63b8ff" d="M78.67,-213.95C75.29,-187.51 72.41,-143.64 83.5,-108 84.21,-105.72 85.03,-103.45 85.95,-101.19"/>
<polygon fill="none" stroke="#63b8ff" points="86.07,-100.95 85.04,-93.81 91.24,-90.12 92.26,-97.26 86.07,-100.95"/>
</a>
</g>
<text text-anchor="middle" x="115" y="-155" font-family="Helvetica,sans-Serif" font-size="10.00" fill="grey"> +bl_idname</text>
<text text-anchor="middle" x="115" y="-144" font-family="Helvetica,sans-Serif" font-size="10.00" fill="grey">+bl_label</text>
</g>
<!-- Node4 -->
<g id="Node000004" class="node">
<title>Node4</title>
<g id="a_Node000004"><a xlink:title=" ">
<polygon fill="white" stroke="transparent" points="183,-263 154,-263 154,-214 183,-214 183,-263"/>
<text text-anchor="start" x="159.5" y="-250.5" font-family="Helvetica,sans-Serif" font-size="10.00">dict</text>
<text text-anchor="start" x="167" y="-235.5" font-family="Helvetica,sans-Serif" font-size="10.00"> </text>
<text text-anchor="start" x="167" y="-220.5" font-family="Helvetica,sans-Serif" font-size="10.00"> </text>
<polygon fill="#666666" stroke="#666666" points="154.5,-245.5 154.5,-245.5 183.5,-245.5 183.5,-245.5 154.5,-245.5"/>
<polygon fill="#666666" stroke="#666666" points="154.5,-230.5 154.5,-230.5 183.5,-230.5 183.5,-230.5 154.5,-230.5"/>
<polygon fill="none" stroke="#666666" points="154,-214 154,-263 183,-263 183,-214 154,-214"/>
</a>
</g>
</g>
<!-- Node4&#45;&gt;Node1 -->
<g id="edge11_Node000001_Node000004" class="edge">
<title>Node4&#45;&gt;Node1</title>
<g id="a_edge11_Node000001_Node000004"><a xlink:title=" ">
<path fill="none" stroke="#63b8ff" d="M165.63,-213.87C162.19,-187.73 155.72,-144.48 146.5,-108 145.97,-105.9 145.4,-103.77 144.81,-101.63"/>
<polygon fill="none" stroke="#63b8ff" points="144.8,-101.62 139.26,-97 141.39,-90.11 146.93,-94.73 144.8,-101.62"/>
</a>
</g>
<text text-anchor="middle" x="193.5" y="-149.5" font-family="Helvetica,sans-Serif" font-size="10.00" fill="grey"> +bl_options</text>
</g>
<!-- Node5 -->
<g id="Node000005" class="node">
<title>Node5</title>
<g id="a_Node000005"><a xlink:title=" ">
<polygon fill="white" stroke="transparent" points="292,-263 215,-263 215,-214 292,-214 292,-263"/>
<text text-anchor="start" x="220.5" y="-250.5" font-family="Helvetica,sans-Serif" font-size="10.00">FloatProperty</text>
<text text-anchor="start" x="252" y="-235.5" font-family="Helvetica,sans-Serif" font-size="10.00"> </text>
<text text-anchor="start" x="252" y="-220.5" font-family="Helvetica,sans-Serif" font-size="10.00"> </text>
<polygon fill="#666666" stroke="#666666" points="215.5,-245.5 215.5,-245.5 292.5,-245.5 292.5,-245.5 215.5,-245.5"/>
<polygon fill="#666666" stroke="#666666" points="215.5,-230.5 215.5,-230.5 292.5,-230.5 292.5,-230.5 215.5,-230.5"/>
<polygon fill="none" stroke="#666666" points="215,-214 215,-263 292,-263 292,-214 215,-214"/>
</a>
</g>
</g>
<!-- Node5&#45;&gt;Node1 -->
<g id="edge12_Node000001_Node000005" class="edge">
<title>Node5&#45;&gt;Node1</title>
<g id="a_edge12_Node000001_Node000005"><a xlink:title=" ">
<path fill="none" stroke="#63b8ff" d="M254.48,-213.79C254.46,-186 250.66,-139.72 228.5,-108 224.69,-102.55 220.23,-97.49 215.35,-92.82"/>
<polygon fill="none" stroke="#63b8ff" points="215.19,-92.68 208.04,-91.77 206.14,-84.81 213.29,-85.73 215.19,-92.68"/>
</a>
</g>
<text text-anchor="middle" x="305" y="-188" font-family="Helvetica,sans-Serif" font-size="10.00" fill="grey"> +backlight</text>
<text text-anchor="start" x="253.5" y="-177" font-family="Helvetica,sans-Serif" font-size="10.00" fill="grey">+backlight_depth</text>
<text text-anchor="middle" x="305" y="-166" font-family="Helvetica,sans-Serif" font-size="10.00" fill="grey">_from_top</text>
<text text-anchor="middle" x="305" y="-155" font-family="Helvetica,sans-Serif" font-size="10.00" fill="grey">+base_thickness</text>
<text text-anchor="middle" x="305" y="-144" font-family="Helvetica,sans-Serif" font-size="10.00" fill="grey">+diameter</text>
<text text-anchor="middle" x="305" y="-133" font-family="Helvetica,sans-Serif" font-size="10.00" fill="grey">+intarsion_thickness</text>
<text text-anchor="middle" x="305" y="-122" font-family="Helvetica,sans-Serif" font-size="10.00" fill="grey">+perimeter_cut</text>
<text text-anchor="middle" x="305" y="-111" font-family="Helvetica,sans-Serif" font-size="10.00" fill="grey">+tolerance</text>
</g>
</g>
</svg>
