<?xml version="1.0" encoding="UTF-8" standalone="no"?>
<!DOCTYPE svg PUBLIC "-//W3C//DTD SVG 1.1//EN"
 "http://www.w3.org/Graphics/SVG/1.1/DTD/svg11.dtd">
<!-- Generated by graphviz version 2.43.0 (0)
 -->
<!-- Title: cam.nc.cad_nc_read.Parser.readline Pages: 1 -->
<svg width="411pt" height="278pt"
 viewBox="0.00 0.00 411.00 278.00" xmlns="http://www.w3.org/2000/svg" xmlns:xlink="http://www.w3.org/1999/xlink">
<g id="graph0" class="graph" transform="scale(1 1) rotate(0) translate(4 274)">
<title>cam.nc.cad_nc_read.Parser.readline</title>
<!-- Node1 -->
<g id="Node000001" class="node">
<title>Node1</title>
<g id="a_Node000001"><a xlink:title=" ">
<polygon fill="#999999" stroke="#666666" points="403,-144.5 212,-144.5 212,-125.5 403,-125.5 403,-144.5"/>
<text text-anchor="middle" x="307.5" y="-132.5" font-family="Helvetica,sans-Serif" font-size="10.00">cam.nc.cad_nc_read.Parser.readline</text>
</a>
</g>
</g>
<!-- Node2 -->
<g id="Node000002" class="node">
<title>Node2</title>
<g id="a_Node000002"><a xlink:href="$classcam_1_1nc_1_1cad__iso__read_1_1Parser.html#abf885d019794a8bef1b69f446c8851e1" xlink:title=" ">
<polygon fill="white" stroke="#666666" points="165,-270 11,-270 11,-240 165,-240 165,-270"/>
<text text-anchor="start" x="19" y="-258" font-family="Helvetica,sans-Serif" font-size="10.00">cam.nc.cad_iso_read.Parser.</text>
<text text-anchor="middle" x="88" y="-247" font-family="Helvetica,sans-Serif" font-size="10.00">Parse</text>
</a>
</g>
</g>
<!-- Node1&#45;&gt;Node2 -->
<g id="edge13_Node000001_Node000002" class="edge">
<title>Node1&#45;&gt;Node2</title>
<g id="a_edge13_Node000001_Node000002"><a xlink:title=" ">
<path fill="none" stroke="#63b8ff" d="M288.64,-151.5C264.72,-172.78 220.14,-209.58 176,-231 169.09,-234.35 161.64,-237.3 154.11,-239.87"/>
<polygon fill="#63b8ff" stroke="#63b8ff" points="291.13,-153.97 296.21,-144.68 286.44,-148.78 291.13,-153.97"/>
</a>
</g>
</g>
<!-- Node3 -->
<g id="Node000003" class="node">
<title>Node3</title>
<g id="a_Node000003"><a xlink:href="$classcam_1_1nc_1_1cad__read_1_1CAD__backplot.html#afce7c30e482cfb88a36593d4020909d7" xlink:title=" ">
<polygon fill="white" stroke="#666666" points="149.5,-222 26.5,-222 26.5,-192 149.5,-192 149.5,-222"/>
<text text-anchor="start" x="34.5" y="-210" font-family="Helvetica,sans-Serif" font-size="10.00">cam.nc.cad_read.CAD</text>
<text text-anchor="middle" x="88" y="-199" font-family="Helvetica,sans-Serif" font-size="10.00">_backplot.Parse</text>
</a>
</g>
</g>
<!-- Node1&#45;&gt;Node3 -->
<g id="edge14_Node000001_Node000003" class="edge">
<title>Node1&#45;&gt;Node3</title>
<g id="a_edge14_Node000001_Node000003"><a xlink:title=" ">
<path fill="none" stroke="#63b8ff" d="M272.72,-148.31C246.53,-158.41 209.22,-172.33 176,-183 166.45,-186.07 156.24,-189.1 146.3,-191.93"/>
<polygon fill="#63b8ff" stroke="#63b8ff" points="274.12,-151.52 282.18,-144.64 271.59,-144.99 274.12,-151.52"/>
</a>
</g>
</g>
<!-- Node4 -->
<g id="Node000004" class="node">
<title>Node4</title>
<g id="a_Node000004"><a xlink:href="$classcam_1_1nc_1_1lathe1__read_1_1Parser.html#a4046e981f4f946bed728de957d10365f" xlink:title=" ">
<polygon fill="white" stroke="#666666" points="162,-174 14,-174 14,-144 162,-144 162,-174"/>
<text text-anchor="start" x="22" y="-162" font-family="Helvetica,sans-Serif" font-size="10.00">cam.nc.lathe1_read.Parser.</text>
<text text-anchor="middle" x="88" y="-151" font-family="Helvetica,sans-Serif" font-size="10.00">Parse</text>
</a>
</g>
</g>
<!-- Node1&#45;&gt;Node4 -->
<g id="edge15_Node000001_Node000004" class="edge">
<title>Node1&#45;&gt;Node4</title>
<g id="a_edge15_Node000001_Node000004"><a xlink:title=" ">
<path fill="none" stroke="#63b8ff" d="M210.24,-145.62C194.12,-147.4 177.62,-149.22 162.19,-150.92"/>
<polygon fill="#63b8ff" stroke="#63b8ff" points="210.67,-149.1 220.23,-144.52 209.9,-142.14 210.67,-149.1"/>
</a>
</g>
</g>
<!-- Node5 -->
<g id="Node000005" class="node">
<title>Node5</title>
<g id="a_Node000005"><a xlink:href="$classcam_1_1nc_1_1num__reader_1_1NumReader.html#ae908a2956d1e0cfd474a47540bee9759" xlink:title=" ">
<polygon fill="white" stroke="#666666" points="176,-126 0,-126 0,-96 176,-96 176,-126"/>
<text text-anchor="start" x="8" y="-114" font-family="Helvetica,sans-Serif" font-size="10.00">cam.nc.num_reader.NumReader.</text>
<text text-anchor="middle" x="88" y="-103" font-family="Helvetica,sans-Serif" font-size="10.00">Parse</text>
</a>
</g>
</g>
<!-- Node1&#45;&gt;Node5 -->
<g id="edge16_Node000001_Node000005" class="edge">
<title>Node1&#45;&gt;Node5</title>
<g id="a_edge16_Node000001_Node000005"><a xlink:title=" ">
<path fill="none" stroke="#63b8ff" d="M209.97,-124.35C198.74,-123.11 187.33,-121.85 176.24,-120.63"/>
<polygon fill="#63b8ff" stroke="#63b8ff" points="209.9,-127.86 220.23,-125.48 210.67,-120.9 209.9,-127.86"/>
</a>
</g>
</g>
<!-- Node6 -->
<g id="Node000006" class="node">
<title>Node6</title>
<g id="a_Node000006"><a xlink:href="$classcam_1_1nc_1_1rez2__read_1_1Parser.html#a16b4685a6d0b45b32ad762794240dfc0" xlink:title=" ">
<polygon fill="white" stroke="#666666" points="157,-78 19,-78 19,-48 157,-48 157,-78"/>
<text text-anchor="start" x="27" y="-66" font-family="Helvetica,sans-Serif" font-size="10.00">cam.nc.rez2_read.Parser.</text>
<text text-anchor="middle" x="88" y="-55" font-family="Helvetica,sans-Serif" font-size="10.00">Parse</text>
</a>
</g>
</g>
<!-- Node1&#45;&gt;Node6 -->
<g id="edge17_Node000001_Node000006" class="edge">
<title>Node1&#45;&gt;Node6</title>
<g id="a_edge17_Node000001_Node000006"><a xlink:title=" ">
<path fill="none" stroke="#63b8ff" d="M272.72,-121.69C246.53,-111.59 209.22,-97.67 176,-87 166.45,-83.93 156.24,-80.9 146.3,-78.07"/>
<polygon fill="#63b8ff" stroke="#63b8ff" points="271.59,-125.01 282.18,-125.36 274.12,-118.48 271.59,-125.01"/>
</a>
</g>
</g>
<!-- Node7 -->
<g id="Node000007" class="node">
<title>Node7</title>
<g id="a_Node000007"><a xlink:href="$classcam_1_1nc_1_1heiden__read_1_1Parser.html#a9c64dcddf3c2c0d3248079dde5314cfe" xlink:title=" ">
<polygon fill="white" stroke="#666666" points="163,-30 13,-30 13,0 163,0 163,-30"/>
<text text-anchor="start" x="21" y="-18" font-family="Helvetica,sans-Serif" font-size="10.00">cam.nc.heiden_read.Parser.</text>
<text text-anchor="middle" x="88" y="-7" font-family="Helvetica,sans-Serif" font-size="10.00">Parsey</text>
</a>
</g>
</g>
<!-- Node1&#45;&gt;Node7 -->
<g id="edge18_Node000001_Node000007" class="edge">
<title>Node1&#45;&gt;Node7</title>
<g id="a_edge18_Node000001_Node000007"><a xlink:title=" ">
<path fill="none" stroke="#63b8ff" d="M288.64,-118.5C264.72,-97.22 220.14,-60.42 176,-39 169.09,-35.65 161.64,-32.7 154.11,-30.13"/>
<polygon fill="#63b8ff" stroke="#63b8ff" points="286.44,-121.22 296.21,-125.32 291.13,-116.03 286.44,-121.22"/>
</a>
</g>
</g>
</g>
</svg>
