<?xml version="1.0" encoding="UTF-8" standalone="no"?>
<!DOCTYPE svg PUBLIC "-//W3C//DTD SVG 1.1//EN"
 "http://www.w3.org/Graphics/SVG/1.1/DTD/svg11.dtd">
<!-- Generated by graphviz version 2.43.0 (0)
 -->
<!-- Title: cam.curvecamcreate.CamCurveGear Pages: 1 -->
<svg width="199pt" height="382pt"
 viewBox="0.00 0.00 199.00 382.00" xmlns="http://www.w3.org/2000/svg" xmlns:xlink="http://www.w3.org/1999/xlink">
<g id="graph0" class="graph" transform="scale(1 1) rotate(0) translate(4 378)">
<title>cam.curvecamcreate.CamCurveGear</title>
<!-- Node1 -->
<g id="Node000001" class="node">
<title>Node1</title>
<g id="a_Node000001"><a xlink:title=" ">
<polygon fill="#999999" stroke="transparent" points="191,-289 0,-289 0,0 191,0 191,-289"/>
<text text-anchor="start" x="5.5" y="-276.5" font-family="Helvetica,sans-Serif" font-size="10.00">cam.curvecamcreate.CamCurveGear</text>
<text text-anchor="start" x="22" y="-261.5" font-family="Helvetica,sans-Serif" font-size="10.00">+</text>
<text text-anchor="start" x="52.5" y="-261.5" font-family="Helvetica,sans-Serif" font-size="10.00">gear_type</text>
<text text-anchor="start" x="22" y="-246.5" font-family="Helvetica,sans-Serif" font-size="10.00">+</text>
<text text-anchor="start" x="52.5" y="-246.5" font-family="Helvetica,sans-Serif" font-size="10.00">bl_idname</text>
<text text-anchor="start" x="22" y="-231.5" font-family="Helvetica,sans-Serif" font-size="10.00">+</text>
<text text-anchor="start" x="52.5" y="-231.5" font-family="Helvetica,sans-Serif" font-size="10.00">bl_label</text>
<text text-anchor="start" x="22" y="-216.5" font-family="Helvetica,sans-Serif" font-size="10.00">+</text>
<text text-anchor="start" x="52.5" y="-216.5" font-family="Helvetica,sans-Serif" font-size="10.00">bl_options</text>
<text text-anchor="start" x="22" y="-201.5" font-family="Helvetica,sans-Serif" font-size="10.00">+</text>
<text text-anchor="start" x="52.5" y="-201.5" font-family="Helvetica,sans-Serif" font-size="10.00">tooth_spacing</text>
<text text-anchor="start" x="22" y="-186.5" font-family="Helvetica,sans-Serif" font-size="10.00">+</text>
<text text-anchor="start" x="52.5" y="-186.5" font-family="Helvetica,sans-Serif" font-size="10.00">tooth_amount</text>
<text text-anchor="start" x="22" y="-171.5" font-family="Helvetica,sans-Serif" font-size="10.00">+</text>
<text text-anchor="start" x="52.5" y="-171.5" font-family="Helvetica,sans-Serif" font-size="10.00">spoke_amount</text>
<text text-anchor="start" x="22" y="-156.5" font-family="Helvetica,sans-Serif" font-size="10.00">+</text>
<text text-anchor="start" x="52.5" y="-156.5" font-family="Helvetica,sans-Serif" font-size="10.00">hole_diameter</text>
<text text-anchor="start" x="22" y="-141.5" font-family="Helvetica,sans-Serif" font-size="10.00">+</text>
<text text-anchor="start" x="52.5" y="-141.5" font-family="Helvetica,sans-Serif" font-size="10.00">rim_size</text>
<text text-anchor="start" x="22" y="-126.5" font-family="Helvetica,sans-Serif" font-size="10.00">+</text>
<text text-anchor="start" x="52.5" y="-126.5" font-family="Helvetica,sans-Serif" font-size="10.00">hub_diameter</text>
<text text-anchor="start" x="22" y="-111.5" font-family="Helvetica,sans-Serif" font-size="10.00">+</text>
<text text-anchor="start" x="52.5" y="-111.5" font-family="Helvetica,sans-Serif" font-size="10.00">pressure_angle</text>
<text text-anchor="start" x="22" y="-96.5" font-family="Helvetica,sans-Serif" font-size="10.00">+</text>
<text text-anchor="start" x="52.5" y="-96.5" font-family="Helvetica,sans-Serif" font-size="10.00">clearance</text>
<text text-anchor="start" x="22" y="-81.5" font-family="Helvetica,sans-Serif" font-size="10.00">+</text>
<text text-anchor="start" x="52.5" y="-81.5" font-family="Helvetica,sans-Serif" font-size="10.00">backlash</text>
<text text-anchor="start" x="22" y="-66.5" font-family="Helvetica,sans-Serif" font-size="10.00">+</text>
<text text-anchor="start" x="52.5" y="-66.5" font-family="Helvetica,sans-Serif" font-size="10.00">rack_height</text>
<text text-anchor="start" x="22" y="-51.5" font-family="Helvetica,sans-Serif" font-size="10.00">+</text>
<text text-anchor="start" x="52.5" y="-51.5" font-family="Helvetica,sans-Serif" font-size="10.00">rack_tooth_per_hole</text>
<text text-anchor="start" x="22" y="-36.5" font-family="Helvetica,sans-Serif" font-size="10.00">+</text>
<text text-anchor="start" x="52.5" y="-36.5" font-family="Helvetica,sans-Serif" font-size="10.00">gear_type</text>
<text text-anchor="start" x="22" y="-21.5" font-family="Helvetica,sans-Serif" font-size="10.00">+</text>
<text text-anchor="start" x="52.5" y="-21.5" font-family="Helvetica,sans-Serif" font-size="10.00">draw()</text>
<text text-anchor="start" x="22" y="-6.5" font-family="Helvetica,sans-Serif" font-size="10.00">+</text>
<text text-anchor="start" x="52.5" y="-6.5" font-family="Helvetica,sans-Serif" font-size="10.00">execute()</text>
<polygon fill="#666666" stroke="#666666" points="0.5,-271.5 0.5,-271.5 191.5,-271.5 191.5,-271.5 0.5,-271.5"/>
<polygon fill="#666666" stroke="#666666" points="0.5,-31.5 0.5,-31.5 50.5,-31.5 50.5,-31.5 0.5,-31.5"/>
<polygon fill="#666666" stroke="#666666" points="50.5,-31.5 50.5,-31.5 191.5,-31.5 191.5,-31.5 50.5,-31.5"/>
<polygon fill="none" stroke="#666666" points="0,0 0,-289 191,-289 191,0 0,0"/>
</a>
</g>
</g>
<!-- Node2 -->
<g id="Node000002" class="node">
<title>Node2</title>
<g id="a_Node000002"><a xlink:title=" ">
<polygon fill="white" stroke="transparent" points="122,-374 69,-374 69,-325 122,-325 122,-374"/>
<text text-anchor="start" x="74.5" y="-361.5" font-family="Helvetica,sans-Serif" font-size="10.00">Operator</text>
<text text-anchor="start" x="94" y="-346.5" font-family="Helvetica,sans-Serif" font-size="10.00"> </text>
<text text-anchor="start" x="94" y="-331.5" font-family="Helvetica,sans-Serif" font-size="10.00"> </text>
<polygon fill="#666666" stroke="#666666" points="69.5,-356.5 69.5,-356.5 122.5,-356.5 122.5,-356.5 69.5,-356.5"/>
<polygon fill="#666666" stroke="#666666" points="69.5,-341.5 69.5,-341.5 122.5,-341.5 122.5,-341.5 69.5,-341.5"/>
<polygon fill="none" stroke="#666666" points="69,-325 69,-374 122,-374 122,-325 69,-325"/>
</a>
</g>
</g>
<!-- Node2&#45;&gt;Node1 -->
<g id="edge3_Node000001_Node000002" class="edge">
<title>Node2&#45;&gt;Node1</title>
<g id="a_edge3_Node000001_Node000002"><a xlink:title=" ">
<path fill="none" stroke="#63b8ff" d="M95.5,-314.66C95.5,-307 95.5,-298.4 95.5,-289.24"/>
<polygon fill="none" stroke="#63b8ff" points="92,-314.82 95.5,-324.82 99,-314.82 92,-314.82"/>
</a>
</g>
</g>
</g>
</svg>
