<?xml version="1.0" encoding="UTF-8" standalone="no"?>
<!DOCTYPE svg PUBLIC "-//W3C//DTD SVG 1.1//EN"
 "http://www.w3.org/Graphics/SVG/1.1/DTD/svg11.dtd">
<!-- Generated by graphviz version 2.43.0 (0)
 -->
<!-- Title: cam.nc.nc.Creator.feed Pages: 1 -->
<svg width="743pt" height="767pt"
 viewBox="0.00 0.00 743.00 766.50" xmlns="http://www.w3.org/2000/svg" xmlns:xlink="http://www.w3.org/1999/xlink">
<g id="graph0" class="graph" transform="scale(1 1) rotate(0) translate(4 762.5)">
<title>cam.nc.nc.Creator.feed</title>
<!-- Node1 -->
<g id="Node000001" class="node">
<title>Node1</title>
<g id="a_Node000001"><a xlink:title=" ">
<polygon fill="#999999" stroke="#666666" points="735,-134.5 606,-134.5 606,-115.5 735,-115.5 735,-134.5"/>
<text text-anchor="middle" x="670.5" y="-122.5" font-family="Helvetica,sans-Serif" font-size="10.00">cam.nc.nc.Creator.feed</text>
</a>
</g>
</g>
<!-- Node2 -->
<g id="Node000002" class="node">
<title>Node2</title>
<g id="a_Node000002"><a xlink:href="$classcam_1_1nc_1_1heiden_1_1Creator.html#a78c90cc7cedad79ff356840b59527774" xlink:title=" ">
<polygon fill="white" stroke="#666666" points="563.5,-399.5 419.5,-399.5 419.5,-380.5 563.5,-380.5 563.5,-399.5"/>
<text text-anchor="middle" x="491.5" y="-387.5" font-family="Helvetica,sans-Serif" font-size="10.00">cam.nc.heiden.Creator.arc</text>
</a>
</g>
</g>
<!-- Node1&#45;&gt;Node2 -->
<g id="edge89_Node000001_Node000002" class="edge">
<title>Node1&#45;&gt;Node2</title>
<g id="a_edge89_Node000001_Node000002"><a xlink:title=" ">
<path fill="none" stroke="#63b8ff" d="M657.3,-143.27C622.71,-195.05 524.83,-341.59 498.88,-380.45"/>
<polygon fill="#63b8ff" stroke="#63b8ff" points="660.35,-145.01 662.99,-134.75 654.53,-141.12 660.35,-145.01"/>
</a>
</g>
</g>
<!-- Node3 -->
<g id="Node000003" class="node">
<title>Node3</title>
<g id="a_Node000003"><a xlink:href="$classcam_1_1nc_1_1iso_1_1Creator.html#aed90658ba02dc4e25c565f6e3a70670d" xlink:title=" ">
<polygon fill="white" stroke="#666666" points="365.5,-399.5 240.5,-399.5 240.5,-380.5 365.5,-380.5 365.5,-399.5"/>
<text text-anchor="middle" x="303" y="-387.5" font-family="Helvetica,sans-Serif" font-size="10.00">cam.nc.iso.Creator.arc</text>
</a>
</g>
</g>
<!-- Node1&#45;&gt;Node3 -->
<g id="edge126_Node000001_Node000003" class="edge">
<title>Node1&#45;&gt;Node3</title>
<g id="a_edge126_Node000001_Node000003"><a xlink:title=" ">
<path fill="none" stroke="#63b8ff" d="M647.75,-140.77C579.63,-190.16 371.66,-340.94 317.18,-380.45"/>
<polygon fill="#63b8ff" stroke="#63b8ff" points="650.02,-143.45 656.06,-134.75 645.91,-137.78 650.02,-143.45"/>
</a>
</g>
</g>
<!-- Node20 -->
<g id="Node000020" class="node">
<title>Node20</title>
<g id="a_Node000020"><a xlink:href="$classcam_1_1nc_1_1heiden_1_1Creator.html#ab1ba24f0b927edab5d70c6642ceacfc4" xlink:title=" ">
<polygon fill="white" stroke="#666666" points="377,-58.5 229,-58.5 229,-39.5 377,-39.5 377,-58.5"/>
<text text-anchor="middle" x="303" y="-46.5" font-family="Helvetica,sans-Serif" font-size="10.00">cam.nc.heiden.Creator.drill</text>
</a>
</g>
</g>
<!-- Node1&#45;&gt;Node20 -->
<g id="edge127_Node000001_Node000020" class="edge">
<title>Node1&#45;&gt;Node20</title>
<g id="a_edge127_Node000001_Node000020"><a xlink:title=" ">
<path fill="none" stroke="#63b8ff" d="M595.65,-121.11C543.48,-116.67 472.55,-107.2 413,-87 395.67,-81.12 394.04,-73.69 377,-67 368.62,-63.71 359.45,-60.88 350.53,-58.51"/>
<polygon fill="#63b8ff" stroke="#63b8ff" points="595.57,-124.61 605.82,-121.93 596.13,-117.63 595.57,-124.61"/>
</a>
</g>
</g>
<!-- Node21 -->
<g id="Node000021" class="node">
<title>Node21</title>
<g id="a_Node000021"><a xlink:href="$classcam_1_1nc_1_1iso_1_1Creator.html#a61f29267aaaddc3d5c8471f9bf714cb3" xlink:title=" ">
<polygon fill="white" stroke="#666666" points="367.5,-95.5 238.5,-95.5 238.5,-76.5 367.5,-76.5 367.5,-95.5"/>
<text text-anchor="middle" x="303" y="-83.5" font-family="Helvetica,sans-Serif" font-size="10.00">cam.nc.iso.Creator.drill</text>
</a>
</g>
</g>
<!-- Node1&#45;&gt;Node21 -->
<g id="edge129_Node000001_Node000021" class="edge">
<title>Node1&#45;&gt;Node21</title>
<g id="a_edge129_Node000001_Node000021"><a xlink:title=" ">
<path fill="none" stroke="#63b8ff" d="M595.76,-129.05C544.23,-130.54 474,-129.9 413,-120 404.98,-118.7 362.5,-105.11 333.01,-95.51"/>
<polygon fill="#63b8ff" stroke="#63b8ff" points="595.92,-132.54 605.81,-128.72 595.7,-125.55 595.92,-132.54"/>
</a>
</g>
</g>
<!-- Node22 -->
<g id="Node000022" class="node">
<title>Node22</title>
<g id="a_Node000022"><a xlink:href="$classcam_1_1nc_1_1heiden_1_1Creator.html#a921825a14a9068d234377d7ac3b7777f" xlink:title=" ">
<polygon fill="white" stroke="#666666" points="570,-78 413,-78 413,-48 570,-48 570,-78"/>
<text text-anchor="start" x="421" y="-66" font-family="Helvetica,sans-Serif" font-size="10.00">cam.nc.heiden.Creator.probe</text>
<text text-anchor="middle" x="491.5" y="-55" font-family="Helvetica,sans-Serif" font-size="10.00">_single_point</text>
</a>
</g>
</g>
<!-- Node1&#45;&gt;Node22 -->
<g id="edge131_Node000001_Node000022" class="edge">
<title>Node1&#45;&gt;Node22</title>
<g id="a_edge131_Node000001_Node000022"><a xlink:title=" ">
<path fill="none" stroke="#63b8ff" d="M632.72,-112.12C604.47,-102.22 565.38,-88.53 535.65,-78.12"/>
<polygon fill="#63b8ff" stroke="#63b8ff" points="631.64,-115.45 642.23,-115.45 633.95,-108.84 631.64,-115.45"/>
</a>
</g>
</g>
<!-- Node23 -->
<g id="Node000023" class="node">
<title>Node23</title>
<g id="a_Node000023"><a xlink:href="$classcam_1_1nc_1_1iso_1_1Creator.html#adc5343ffd168991077858693d6a79fef" xlink:title=" ">
<polygon fill="white" stroke="#666666" points="560.5,-30 422.5,-30 422.5,0 560.5,0 560.5,-30"/>
<text text-anchor="start" x="430.5" y="-18" font-family="Helvetica,sans-Serif" font-size="10.00">cam.nc.iso.Creator.probe</text>
<text text-anchor="middle" x="491.5" y="-7" font-family="Helvetica,sans-Serif" font-size="10.00">_single_point</text>
</a>
</g>
</g>
<!-- Node1&#45;&gt;Node23 -->
<g id="edge132_Node000001_Node000023" class="edge">
<title>Node1&#45;&gt;Node23</title>
<g id="a_edge132_Node000001_Node000023"><a xlink:title=" ">
<path fill="none" stroke="#63b8ff" d="M653.91,-107.8C635.57,-88.51 603.37,-57.51 570,-39 563.96,-35.65 557.4,-32.71 550.73,-30.13"/>
<polygon fill="#63b8ff" stroke="#63b8ff" points="651.51,-110.35 660.89,-115.27 656.63,-105.57 651.51,-110.35"/>
</a>
</g>
</g>
<!-- Node2&#45;&gt;Node2 -->
<g id="edge90_Node000002_Node000002" class="edge">
<title>Node2&#45;&gt;Node2</title>
<g id="a_edge90_Node000002_Node000002"><a xlink:title=" ">
<path fill="none" stroke="#63b8ff" d="M524.81,-407.95C523.86,-413.32 512.76,-417.5 491.5,-417.5 459.86,-417.5 450.72,-408.23 464.07,-399.58"/>
<polygon fill="#63b8ff" stroke="#63b8ff" points="527.55,-405.76 518.93,-399.58 521.82,-409.78 527.55,-405.76"/>
</a>
</g>
</g>
<!-- Node2&#45;&gt;Node3 -->
<g id="edge91_Node000002_Node000003" class="edge">
<title>Node2&#45;&gt;Node3</title>
<g id="a_edge91_Node000002_Node000003"><a xlink:title=" ">
<path fill="none" stroke="#63b8ff" d="M409.4,-383.3C394.75,-383.18 379.69,-383.28 365.7,-383.61"/>
<polygon fill="#63b8ff" stroke="#63b8ff" points="409.42,-386.8 419.46,-383.42 409.5,-379.8 409.42,-386.8"/>
</a>
</g>
</g>
<!-- Node4 -->
<g id="Node000004" class="node">
<title>Node4</title>
<g id="a_Node000004"><a xlink:href="$classcam_1_1nc_1_1heiden_1_1Creator.html#a7c0262bb6935f21773e134b851cbff38" xlink:title=" ">
<polygon fill="white" stroke="#666666" points="180.5,-560.5 12.5,-560.5 12.5,-541.5 180.5,-541.5 180.5,-560.5"/>
<text text-anchor="middle" x="96.5" y="-548.5" font-family="Helvetica,sans-Serif" font-size="10.00">cam.nc.heiden.Creator.arc_ccw</text>
</a>
</g>
</g>
<!-- Node2&#45;&gt;Node4 -->
<g id="edge110_Node000002_Node000004" class="edge">
<title>Node2&#45;&gt;Node4</title>
<g id="a_edge110_Node000002_Node000004"><a xlink:title=" ">
<path fill="none" stroke="#63b8ff" d="M478.16,-407.93C459.48,-433.55 421.45,-480.05 377,-503 315.97,-534.51 238.46,-545.93 180.55,-549.8"/>
<polygon fill="#63b8ff" stroke="#63b8ff" points="481.2,-409.7 484.14,-399.52 475.49,-405.64 481.2,-409.7"/>
</a>
</g>
</g>
<!-- Node5 -->
<g id="Node000005" class="node">
<title>Node5</title>
<g id="a_Node000005"><a xlink:href="$classcam_1_1nc_1_1hpgl2d_1_1Creator.html#ae869adedb7242daa7c1b42302c182896" xlink:title=" ">
<polygon fill="white" stroke="#666666" points="180.5,-522.5 12.5,-522.5 12.5,-503.5 180.5,-503.5 180.5,-522.5"/>
<text text-anchor="middle" x="96.5" y="-510.5" font-family="Helvetica,sans-Serif" font-size="10.00">cam.nc.hpgl2d.Creator.arc_ccw</text>
</a>
</g>
</g>
<!-- Node2&#45;&gt;Node5 -->
<g id="edge111_Node000002_Node000005" class="edge">
<title>Node2&#45;&gt;Node5</title>
<g id="a_edge111_Node000002_Node000005"><a xlink:title=" ">
<path fill="none" stroke="#63b8ff" d="M473.51,-406.68C452.65,-426.07 415.32,-457.39 377,-473 314.24,-498.56 237.75,-508.18 180.66,-511.62"/>
<polygon fill="#63b8ff" stroke="#63b8ff" points="476.06,-409.08 480.9,-399.65 471.24,-404 476.06,-409.08"/>
</a>
</g>
</g>
<!-- Node6 -->
<g id="Node000006" class="node">
<title>Node6</title>
<g id="a_Node000006"><a xlink:href="$classcam_1_1nc_1_1iso_1_1Creator.html#a73623b6caaf8efee669803ee57ca97a9" xlink:title=" ">
<polygon fill="white" stroke="#666666" points="171,-484.5 22,-484.5 22,-465.5 171,-465.5 171,-484.5"/>
<text text-anchor="middle" x="96.5" y="-472.5" font-family="Helvetica,sans-Serif" font-size="10.00">cam.nc.iso.Creator.arc_ccw</text>
</a>
</g>
</g>
<!-- Node2&#45;&gt;Node6 -->
<g id="edge112_Node000002_Node000006" class="edge">
<title>Node2&#45;&gt;Node6</title>
<g id="a_edge112_Node000002_Node000006"><a xlink:title=" ">
<path fill="none" stroke="#63b8ff" d="M467.09,-404.97C444.84,-418.4 409.98,-437.42 377,-447 309.09,-466.72 228.44,-473.08 171.27,-474.9"/>
<polygon fill="#63b8ff" stroke="#63b8ff" points="469.13,-407.83 475.81,-399.6 465.46,-401.86 469.13,-407.83"/>
</a>
</g>
</g>
<!-- Node7 -->
<g id="Node000007" class="node">
<title>Node7</title>
<g id="a_Node000007"><a xlink:href="$classcam_1_1nc_1_1lathe1_1_1CreatorIso.html#a9eae946df7fc34b9a46e33a00d891c3d" xlink:title=" ">
<polygon fill="white" stroke="#666666" points="187,-445.5 6,-445.5 6,-426.5 187,-426.5 187,-445.5"/>
<text text-anchor="middle" x="96.5" y="-433.5" font-family="Helvetica,sans-Serif" font-size="10.00">cam.nc.lathe1.CreatorIso.arc_ccw</text>
</a>
</g>
</g>
<!-- Node2&#45;&gt;Node7 -->
<g id="edge113_Node000002_Node000007" class="edge">
<title>Node2&#45;&gt;Node7</title>
<g id="a_edge113_Node000002_Node000007"><a xlink:title=" ">
<path fill="none" stroke="#63b8ff" d="M458.16,-403.25C435.79,-411.75 405.1,-422.07 377,-427 314.24,-438.01 242.36,-440.1 187.22,-439.51"/>
<polygon fill="#63b8ff" stroke="#63b8ff" points="459.46,-406.51 467.52,-399.63 456.93,-399.98 459.46,-406.51"/>
</a>
</g>
</g>
<!-- Node8 -->
<g id="Node000008" class="node">
<title>Node8</title>
<g id="a_Node000008"><a xlink:href="$classcam_1_1nc_1_1makerbotHBP_1_1CreatorMakerbotHBP.html#aa7b30248f278113e0c9a324820824941" xlink:title=" ">
<polygon fill="white" stroke="#666666" points="176,-403 17,-403 17,-373 176,-373 176,-403"/>
<text text-anchor="start" x="25" y="-391" font-family="Helvetica,sans-Serif" font-size="10.00">cam.nc.makerbotHBP.Creator</text>
<text text-anchor="middle" x="96.5" y="-380" font-family="Helvetica,sans-Serif" font-size="10.00">MakerbotHBP.arc_ccw</text>
</a>
</g>
</g>
<!-- Node2&#45;&gt;Node8 -->
<g id="edge114_Node000002_Node000008" class="edge">
<title>Node2&#45;&gt;Node8</title>
<g id="a_edge114_Node000002_Node000008"><a xlink:title=" ">
<path fill="none" stroke="#63b8ff" d="M431.23,-378.8C413.82,-376 394.71,-373.4 377,-372 311.43,-366.83 294.66,-368.02 229,-372 211.9,-373.04 193.61,-374.82 176.28,-376.84"/>
<polygon fill="#63b8ff" stroke="#63b8ff" points="430.82,-382.28 441.26,-380.46 431.97,-375.37 430.82,-382.28"/>
</a>
</g>
</g>
<!-- Node9 -->
<g id="Node000009" class="node">
<title>Node9</title>
<g id="a_Node000009"><a xlink:href="$classcam_1_1nc_1_1recreator_1_1Redirector.html#a50bb4fcb175a9c87e1cf45a79cd54ff1" xlink:title=" ">
<polygon fill="white" stroke="#666666" points="193,-353.5 0,-353.5 0,-334.5 193,-334.5 193,-353.5"/>
<text text-anchor="middle" x="96.5" y="-341.5" font-family="Helvetica,sans-Serif" font-size="10.00">cam.nc.recreator.Redirector.arc_ccw</text>
</a>
</g>
</g>
<!-- Node2&#45;&gt;Node9 -->
<g id="edge115_Node000002_Node000009" class="edge">
<title>Node2&#45;&gt;Node9</title>
<g id="a_edge115_Node000002_Node000009"><a xlink:title=" ">
<path fill="none" stroke="#63b8ff" d="M445.44,-378C424.73,-372.92 399.77,-367.4 377,-364 316.26,-354.92 247.45,-349.94 193.3,-347.21"/>
<polygon fill="#63b8ff" stroke="#63b8ff" points="444.69,-381.42 455.24,-380.45 446.38,-374.63 444.69,-381.42"/>
</a>
</g>
</g>
<!-- Node10 -->
<g id="Node000010" class="node">
<title>Node10</title>
<g id="a_Node000010"><a xlink:href="$classcam_1_1nc_1_1rez2_1_1Creator.html#a7a7b089cf338846799311b5b1193a566" xlink:title=" ">
<polygon fill="white" stroke="#666666" points="174.5,-313.5 18.5,-313.5 18.5,-294.5 174.5,-294.5 174.5,-313.5"/>
<text text-anchor="middle" x="96.5" y="-301.5" font-family="Helvetica,sans-Serif" font-size="10.00">cam.nc.rez2.Creator.arc_ccw</text>
</a>
</g>
</g>
<!-- Node2&#45;&gt;Node10 -->
<g id="edge116_Node000002_Node000010" class="edge">
<title>Node2&#45;&gt;Node10</title>
<g id="a_edge116_Node000002_Node000010"><a xlink:title=" ">
<path fill="none" stroke="#63b8ff" d="M461.14,-376.17C438.59,-366.1 406.43,-352.88 377,-345 309.85,-327.02 231.37,-316.38 174.69,-310.47"/>
<polygon fill="#63b8ff" stroke="#63b8ff" points="459.93,-379.47 470.48,-380.41 462.82,-373.09 459.93,-379.47"/>
</a>
</g>
</g>
<!-- Node11 -->
<g id="Node000011" class="node">
<title>Node11</title>
<g id="a_Node000011"><a xlink:href="$classcam_1_1nc_1_1heiden_1_1Creator.html#afffaa9e4bad9251bb67ff287f47accda" xlink:title=" ">
<polygon fill="white" stroke="#666666" points="178,-209.5 15,-209.5 15,-190.5 178,-190.5 178,-209.5"/>
<text text-anchor="middle" x="96.5" y="-197.5" font-family="Helvetica,sans-Serif" font-size="10.00">cam.nc.heiden.Creator.arc_cw</text>
</a>
</g>
</g>
<!-- Node2&#45;&gt;Node11 -->
<g id="edge117_Node000002_Node000011" class="edge">
<title>Node2&#45;&gt;Node11</title>
<g id="a_edge117_Node000002_Node000011"><a xlink:title=" ">
<path fill="none" stroke="#63b8ff" d="M478.75,-371.97C460.35,-345.24 422.13,-295.43 377,-269 315.86,-233.2 236.74,-215.89 178.29,-207.57"/>
<polygon fill="#63b8ff" stroke="#63b8ff" points="475.92,-374.04 484.41,-380.39 481.73,-370.14 475.92,-374.04"/>
</a>
</g>
</g>
<!-- Node12 -->
<g id="Node000012" class="node">
<title>Node12</title>
<g id="a_Node000012"><a xlink:href="$classcam_1_1nc_1_1hpgl2d_1_1Creator.html#ae23fc4d361aa6de768d74b18324bae53" xlink:title=" ">
<polygon fill="white" stroke="#666666" points="178,-171.5 15,-171.5 15,-152.5 178,-152.5 178,-171.5"/>
<text text-anchor="middle" x="96.5" y="-159.5" font-family="Helvetica,sans-Serif" font-size="10.00">cam.nc.hpgl2d.Creator.arc_cw</text>
</a>
</g>
</g>
<!-- Node2&#45;&gt;Node12 -->
<g id="edge118_Node000002_Node000012" class="edge">
<title>Node2&#45;&gt;Node12</title>
<g id="a_edge118_Node000002_Node000012"><a xlink:title=" ">
<path fill="none" stroke="#63b8ff" d="M484.08,-370.74C470.62,-333.63 435.78,-252.4 377,-213 318.31,-173.66 237.78,-162.37 178.24,-160.07"/>
<polygon fill="#63b8ff" stroke="#63b8ff" points="480.83,-372.07 487.44,-380.36 487.44,-369.77 480.83,-372.07"/>
</a>
</g>
</g>
<!-- Node13 -->
<g id="Node000013" class="node">
<title>Node13</title>
<g id="a_Node000013"><a xlink:href="$classcam_1_1nc_1_1iso_1_1Creator.html#a334d38752a57cd7745f9361d583c68f6" xlink:title=" ">
<polygon fill="white" stroke="#666666" points="168.5,-758.5 24.5,-758.5 24.5,-739.5 168.5,-739.5 168.5,-758.5"/>
<text text-anchor="middle" x="96.5" y="-746.5" font-family="Helvetica,sans-Serif" font-size="10.00">cam.nc.iso.Creator.arc_cw</text>
</a>
</g>
</g>
<!-- Node2&#45;&gt;Node13 -->
<g id="edge119_Node000002_Node000013" class="edge">
<title>Node2&#45;&gt;Node13</title>
<g id="a_edge119_Node000002_Node000013"><a xlink:title=" ">
<path fill="none" stroke="#63b8ff" d="M489.42,-409.82C485.32,-464.28 466.04,-617.18 377,-693 319.26,-742.17 230.49,-752.54 168.53,-752.94"/>
<polygon fill="#63b8ff" stroke="#63b8ff" points="492.92,-409.97 490.08,-399.76 485.93,-409.51 492.92,-409.97"/>
</a>
</g>
</g>
<!-- Node14 -->
<g id="Node000014" class="node">
<title>Node14</title>
<g id="a_Node000014"><a xlink:href="$classcam_1_1nc_1_1lathe1_1_1CreatorIso.html#ae2f7d7587f9940cf9534e127f7234c4c" xlink:title=" ">
<polygon fill="white" stroke="#666666" points="184.5,-720.5 8.5,-720.5 8.5,-701.5 184.5,-701.5 184.5,-720.5"/>
<text text-anchor="middle" x="96.5" y="-708.5" font-family="Helvetica,sans-Serif" font-size="10.00">cam.nc.lathe1.CreatorIso.arc_cw</text>
</a>
</g>
</g>
<!-- Node2&#45;&gt;Node14 -->
<g id="edge120_Node000002_Node000014" class="edge">
<title>Node2&#45;&gt;Node14</title>
<g id="a_edge120_Node000002_Node000014"><a xlink:title=" ">
<path fill="none" stroke="#63b8ff" d="M488.08,-409.68C480.95,-458.83 455.34,-587.61 377,-652 323.36,-696.09 244.8,-709.6 184.62,-712.79"/>
<polygon fill="#63b8ff" stroke="#63b8ff" points="491.56,-410.09 489.43,-399.71 484.62,-409.15 491.56,-410.09"/>
</a>
</g>
</g>
<!-- Node15 -->
<g id="Node000015" class="node">
<title>Node15</title>
<g id="a_Node000015"><a xlink:href="$classcam_1_1nc_1_1makerbotHBP_1_1CreatorMakerbotHBP.html#a2cf899fa0839287bdca94b6207c078d6" xlink:title=" ">
<polygon fill="white" stroke="#666666" points="176,-683 17,-683 17,-653 176,-653 176,-683"/>
<text text-anchor="start" x="25" y="-671" font-family="Helvetica,sans-Serif" font-size="10.00">cam.nc.makerbotHBP.Creator</text>
<text text-anchor="middle" x="96.5" y="-660" font-family="Helvetica,sans-Serif" font-size="10.00">MakerbotHBP.arc_cw</text>
</a>
</g>
</g>
<!-- Node2&#45;&gt;Node15 -->
<g id="edge121_Node000002_Node000015" class="edge">
<title>Node2&#45;&gt;Node15</title>
<g id="a_edge121_Node000002_Node000015"><a xlink:title=" ">
<path fill="none" stroke="#63b8ff" d="M486.43,-409.97C476.36,-454.04 445.9,-559.85 377,-612 319.39,-655.61 236.58,-667.69 176.06,-670.02"/>
<polygon fill="#63b8ff" stroke="#63b8ff" points="489.91,-410.45 488.61,-399.94 483.07,-408.97 489.91,-410.45"/>
</a>
</g>
</g>
<!-- Node16 -->
<g id="Node000016" class="node">
<title>Node16</title>
<g id="a_Node000016"><a xlink:href="$classcam_1_1nc_1_1recreator_1_1Redirector.html#a54adbf876611896e0d8d530766a18964" xlink:title=" ">
<polygon fill="white" stroke="#666666" points="190.5,-634.5 2.5,-634.5 2.5,-615.5 190.5,-615.5 190.5,-634.5"/>
<text text-anchor="middle" x="96.5" y="-622.5" font-family="Helvetica,sans-Serif" font-size="10.00">cam.nc.recreator.Redirector.arc_cw</text>
</a>
</g>
</g>
<!-- Node2&#45;&gt;Node16 -->
<g id="edge122_Node000002_Node000016" class="edge">
<title>Node2&#45;&gt;Node16</title>
<g id="a_edge122_Node000002_Node000016"><a xlink:title=" ">
<path fill="none" stroke="#63b8ff" d="M484.49,-409.46C471.58,-447.76 437.37,-532.77 377,-574 322.52,-611.21 248.68,-623.46 190.57,-626.67"/>
<polygon fill="#63b8ff" stroke="#63b8ff" points="487.94,-410.17 487.69,-399.57 481.28,-408.01 487.94,-410.17"/>
</a>
</g>
</g>
<!-- Node17 -->
<g id="Node000017" class="node">
<title>Node17</title>
<g id="a_Node000017"><a xlink:href="$classcam_1_1nc_1_1rez2_1_1Creator.html#a96f30401310d0198de3d2d55da86510f" xlink:title=" ">
<polygon fill="white" stroke="#666666" points="172,-597.5 21,-597.5 21,-578.5 172,-578.5 172,-597.5"/>
<text text-anchor="middle" x="96.5" y="-585.5" font-family="Helvetica,sans-Serif" font-size="10.00">cam.nc.rez2.Creator.arc_cw</text>
</a>
</g>
</g>
<!-- Node2&#45;&gt;Node17 -->
<g id="edge123_Node000002_Node000017" class="edge">
<title>Node2&#45;&gt;Node17</title>
<g id="a_edge123_Node000002_Node000017"><a xlink:title=" ">
<path fill="none" stroke="#63b8ff" d="M481.84,-408.63C465.95,-440.57 428.94,-505.38 377,-537 314.86,-574.84 231.54,-586 172.07,-588.67"/>
<polygon fill="#63b8ff" stroke="#63b8ff" points="485.05,-410.03 486.25,-399.5 478.75,-406.98 485.05,-410.03"/>
</a>
</g>
</g>
<!-- Node18 -->
<g id="Node000018" class="node">
<title>Node18</title>
<g id="a_Node000018"><a xlink:href="$classcam_1_1nc_1_1cad__iso__read_1_1Parser.html#abf885d019794a8bef1b69f446c8851e1" xlink:title=" ">
<polygon fill="white" stroke="#666666" points="173.5,-118 19.5,-118 19.5,-88 173.5,-88 173.5,-118"/>
<text text-anchor="start" x="27.5" y="-106" font-family="Helvetica,sans-Serif" font-size="10.00">cam.nc.cad_iso_read.Parser.</text>
<text text-anchor="middle" x="96.5" y="-95" font-family="Helvetica,sans-Serif" font-size="10.00">Parse</text>
</a>
</g>
</g>
<!-- Node2&#45;&gt;Node18 -->
<g id="edge124_Node000002_Node000018" class="edge">
<title>Node2&#45;&gt;Node18</title>
<g id="a_edge124_Node000002_Node000018"><a xlink:title=" ">
<path fill="none" stroke="#63b8ff" d="M486.8,-370.36C477.29,-325.56 447.58,-215.51 377,-161 318.95,-116.17 234.6,-103.79 173.77,-101.32"/>
<polygon fill="#63b8ff" stroke="#63b8ff" points="483.39,-371.16 488.8,-380.27 490.26,-369.77 483.39,-371.16"/>
</a>
</g>
</g>
<!-- Node19 -->
<g id="Node000019" class="node">
<title>Node19</title>
<g id="a_Node000019"><a xlink:href="$classcam_1_1nc_1_1heiden__read_1_1Parser.html#a9c64dcddf3c2c0d3248079dde5314cfe" xlink:title=" ">
<polygon fill="white" stroke="#666666" points="171.5,-270 21.5,-270 21.5,-240 171.5,-240 171.5,-270"/>
<text text-anchor="start" x="29.5" y="-258" font-family="Helvetica,sans-Serif" font-size="10.00">cam.nc.heiden_read.Parser.</text>
<text text-anchor="middle" x="96.5" y="-247" font-family="Helvetica,sans-Serif" font-size="10.00">Parsey</text>
</a>
</g>
</g>
<!-- Node2&#45;&gt;Node19 -->
<g id="edge125_Node000002_Node000019" class="edge">
<title>Node2&#45;&gt;Node19</title>
<g id="a_edge125_Node000002_Node000019"><a xlink:title=" ">
<path fill="none" stroke="#63b8ff" d="M471.76,-373.84C450.3,-356.2 413.39,-328.4 377,-313 310.59,-284.9 229.39,-270 171.65,-262.38"/>
<polygon fill="#63b8ff" stroke="#63b8ff" points="469.54,-376.55 479.46,-380.28 474.03,-371.18 469.54,-376.55"/>
</a>
</g>
</g>
<!-- Node3&#45;&gt;Node2 -->
<g id="edge92_Node000003_Node000002" class="edge">
<title>Node3&#45;&gt;Node2</title>
<g id="a_edge92_Node000003_Node000002"><a xlink:title=" ">
<path fill="none" stroke="#63b8ff" d="M375.95,-396.59C390.23,-396.81 405.21,-396.8 419.46,-396.58"/>
<polygon fill="#63b8ff" stroke="#63b8ff" points="375.77,-393.09 365.7,-396.39 375.63,-400.09 375.77,-393.09"/>
</a>
</g>
</g>
<!-- Node3&#45;&gt;Node3 -->
<g id="edge93_Node000003_Node000003" class="edge">
<title>Node3&#45;&gt;Node3</title>
<g id="a_edge93_Node000003_Node000003"><a xlink:title=" ">
<path fill="none" stroke="#63b8ff" d="M338.23,-407.57C337.72,-413.12 325.97,-417.5 303,-417.5 269.59,-417.5 259.93,-408.23 274.02,-399.58"/>
<polygon fill="#63b8ff" stroke="#63b8ff" points="340.9,-405.3 331.98,-399.58 335.39,-409.61 340.9,-405.3"/>
</a>
</g>
</g>
<!-- Node3&#45;&gt;Node4 -->
<g id="edge94_Node000003_Node000004" class="edge">
<title>Node3&#45;&gt;Node4</title>
<g id="a_edge94_Node000003_Node000004"><a xlink:title=" ">
<path fill="none" stroke="#63b8ff" d="M293.24,-408.76C277.72,-439.77 242.32,-501.33 193,-532 186.83,-535.84 180.03,-538.92 173,-541.4"/>
<polygon fill="#63b8ff" stroke="#63b8ff" points="296.51,-410.03 297.73,-399.5 290.22,-406.97 296.51,-410.03"/>
</a>
</g>
</g>
<!-- Node3&#45;&gt;Node5 -->
<g id="edge95_Node000003_Node000005" class="edge">
<title>Node3&#45;&gt;Node5</title>
<g id="a_edge95_Node000003_Node000005"><a xlink:title=" ">
<path fill="none" stroke="#63b8ff" d="M288.83,-407.72C270.24,-431.37 233.96,-472.72 193,-494 185.5,-497.9 177.29,-501 168.92,-503.46"/>
<polygon fill="#63b8ff" stroke="#63b8ff" points="291.75,-409.67 295.06,-399.6 286.2,-405.4 291.75,-409.67"/>
</a>
</g>
</g>
<!-- Node3&#45;&gt;Node6 -->
<g id="edge96_Node000003_Node000006" class="edge">
<title>Node3&#45;&gt;Node6</title>
<g id="a_edge96_Node000003_Node000006"><a xlink:title=" ">
<path fill="none" stroke="#63b8ff" d="M280.72,-405.61C259.51,-420.45 225.51,-442.31 193,-455 181.95,-459.31 169.81,-462.76 157.99,-465.5"/>
<polygon fill="#63b8ff" stroke="#63b8ff" points="282.86,-408.38 288.98,-399.73 278.8,-402.68 282.86,-408.38"/>
</a>
</g>
</g>
<!-- Node3&#45;&gt;Node7 -->
<g id="edge97_Node000003_Node000007" class="edge">
<title>Node3&#45;&gt;Node7</title>
<g id="a_edge97_Node000003_Node000007"><a xlink:title=" ">
<path fill="none" stroke="#63b8ff" d="M249.84,-401.73C215.73,-409.41 171.75,-419.3 139.82,-426.48"/>
<polygon fill="#63b8ff" stroke="#63b8ff" points="250.64,-405.14 259.63,-399.53 249.1,-398.31 250.64,-405.14"/>
</a>
</g>
</g>
<!-- Node3&#45;&gt;Node8 -->
<g id="edge98_Node000003_Node000008" class="edge">
<title>Node3&#45;&gt;Node8</title>
<g id="a_edge98_Node000003_Node000008"><a xlink:title=" ">
<path fill="none" stroke="#63b8ff" d="M230.22,-389.3C212.71,-389.13 193.88,-388.94 176.07,-388.77"/>
<polygon fill="#63b8ff" stroke="#63b8ff" points="230.33,-392.8 240.37,-389.4 230.4,-385.8 230.33,-392.8"/>
</a>
</g>
</g>
<!-- Node3&#45;&gt;Node9 -->
<g id="edge99_Node000003_Node000009" class="edge">
<title>Node3&#45;&gt;Node9</title>
<g id="a_edge99_Node000003_Node000009"><a xlink:title=" ">
<path fill="none" stroke="#63b8ff" d="M253.37,-378.1C234.54,-373.57 212.79,-368.43 193,-364 177.13,-360.45 159.73,-356.75 144.19,-353.51"/>
<polygon fill="#63b8ff" stroke="#63b8ff" points="252.67,-381.53 263.22,-380.47 254.32,-374.72 252.67,-381.53"/>
</a>
</g>
</g>
<!-- Node3&#45;&gt;Node10 -->
<g id="edge100_Node000003_Node000010" class="edge">
<title>Node3&#45;&gt;Node10</title>
<g id="a_edge100_Node000003_Node000010"><a xlink:title=" ">
<path fill="none" stroke="#63b8ff" d="M280.27,-374.54C258.97,-360.06 225.11,-338.78 193,-326 180.04,-320.84 165.58,-316.73 151.92,-313.53"/>
<polygon fill="#63b8ff" stroke="#63b8ff" points="278.37,-377.48 288.59,-380.29 282.35,-371.72 278.37,-377.48"/>
</a>
</g>
</g>
<!-- Node3&#45;&gt;Node11 -->
<g id="edge101_Node000003_Node000011" class="edge">
<title>Node3&#45;&gt;Node11</title>
<g id="a_edge101_Node000003_Node000011"><a xlink:title=" ">
<path fill="none" stroke="#63b8ff" d="M293.82,-370.59C278.78,-337.19 243.56,-268.79 193,-231 179.74,-221.09 163.16,-214.26 147.57,-209.6"/>
<polygon fill="#63b8ff" stroke="#63b8ff" points="290.78,-372.37 297.99,-380.12 297.19,-369.56 290.78,-372.37"/>
</a>
</g>
</g>
<!-- Node3&#45;&gt;Node12 -->
<g id="edge102_Node000003_Node000012" class="edge">
<title>Node3&#45;&gt;Node12</title>
<g id="a_edge102_Node000003_Node000012"><a xlink:title=" ">
<path fill="none" stroke="#63b8ff" d="M297.78,-370.34C287.67,-328.33 257.93,-229.67 193,-181 188,-177.25 182.44,-174.18 176.6,-171.69"/>
<polygon fill="#63b8ff" stroke="#63b8ff" points="294.38,-371.2 300.03,-380.17 301.21,-369.64 294.38,-371.2"/>
</a>
</g>
</g>
<!-- Node3&#45;&gt;Node13 -->
<g id="edge103_Node000003_Node000013" class="edge">
<title>Node3&#45;&gt;Node13</title>
<g id="a_edge103_Node000003_Node000013"><a xlink:title=" ">
<path fill="none" stroke="#63b8ff" d="M302.13,-409.8C301.35,-468.52 290.57,-642.95 193,-730 186.06,-736.19 177.7,-740.6 168.84,-743.7"/>
<polygon fill="#63b8ff" stroke="#63b8ff" points="305.63,-409.68 302.17,-399.66 298.63,-409.65 305.63,-409.68"/>
</a>
</g>
</g>
<!-- Node3&#45;&gt;Node14 -->
<g id="edge104_Node000003_Node000014" class="edge">
<title>Node3&#45;&gt;Node14</title>
<g id="a_edge104_Node000003_Node000014"><a xlink:title=" ">
<path fill="none" stroke="#63b8ff" d="M301.22,-409.75C297.95,-464 280.98,-616.32 193,-692 188.64,-695.75 183.76,-698.84 178.56,-701.37"/>
<polygon fill="#63b8ff" stroke="#63b8ff" points="304.72,-409.89 301.73,-399.72 297.73,-409.53 304.72,-409.89"/>
</a>
</g>
</g>
<!-- Node3&#45;&gt;Node15 -->
<g id="edge105_Node000003_Node000015" class="edge">
<title>Node3&#45;&gt;Node15</title>
<g id="a_edge105_Node000003_Node000015"><a xlink:title=" ">
<path fill="none" stroke="#63b8ff" d="M299.52,-409.55C292.4,-457.31 267.38,-580.6 193,-644 187.93,-648.32 182.18,-651.89 176.09,-654.82"/>
<polygon fill="#63b8ff" stroke="#63b8ff" points="303,-409.98 300.91,-399.59 296.06,-409.02 303,-409.98"/>
</a>
</g>
</g>
<!-- Node3&#45;&gt;Node16 -->
<g id="edge106_Node000003_Node000016" class="edge">
<title>Node3&#45;&gt;Node16</title>
<g id="a_edge106_Node000003_Node000016"><a xlink:title=" ">
<path fill="none" stroke="#63b8ff" d="M298.25,-409.57C288.88,-452.74 260.21,-556.35 193,-607 188.55,-610.35 183.67,-613.14 178.53,-615.45"/>
<polygon fill="#63b8ff" stroke="#63b8ff" points="301.68,-410.24 300.27,-399.74 294.83,-408.83 301.68,-410.24"/>
</a>
</g>
</g>
<!-- Node3&#45;&gt;Node17 -->
<g id="edge107_Node000003_Node000017" class="edge">
<title>Node3&#45;&gt;Node17</title>
<g id="a_edge107_Node000003_Node000017"><a xlink:title=" ">
<path fill="none" stroke="#63b8ff" d="M296.14,-409.53C283.76,-447.18 251.2,-529.64 193,-570 186.76,-574.33 179.76,-577.69 172.47,-580.29"/>
<polygon fill="#63b8ff" stroke="#63b8ff" points="299.55,-410.37 299.22,-399.78 292.87,-408.26 299.55,-410.37"/>
</a>
</g>
</g>
<!-- Node3&#45;&gt;Node18 -->
<g id="edge108_Node000003_Node000018" class="edge">
<title>Node3&#45;&gt;Node18</title>
<g id="a_edge108_Node000003_Node000018"><a xlink:title=" ">
<path fill="none" stroke="#63b8ff" d="M298.43,-370.1C289.2,-324.07 260.38,-209.11 193,-143 181.97,-132.17 167.57,-124.11 153.31,-118.17"/>
<polygon fill="#63b8ff" stroke="#63b8ff" points="295.01,-370.85 300.33,-380.02 301.89,-369.54 295.01,-370.85"/>
</a>
</g>
</g>
<!-- Node3&#45;&gt;Node19 -->
<g id="edge109_Node000003_Node000019" class="edge">
<title>Node3&#45;&gt;Node19</title>
<g id="a_edge109_Node000003_Node000019"><a xlink:title=" ">
<path fill="none" stroke="#63b8ff" d="M288.16,-372.62C269.05,-349.7 232.44,-309.53 193,-286 182.22,-279.57 169.95,-274.3 157.88,-270.06"/>
<polygon fill="#63b8ff" stroke="#63b8ff" points="285.56,-374.97 294.6,-380.49 290.98,-370.53 285.56,-374.97"/>
</a>
</g>
</g>
<!-- Node20&#45;&gt;Node18 -->
<g id="edge128_Node000020_Node000018" class="edge">
<title>Node20&#45;&gt;Node18</title>
<g id="a_edge128_Node000020_Node000018"><a xlink:title=" ">
<path fill="none" stroke="#63b8ff" d="M252.66,-60.98C244.74,-62.96 236.64,-65.01 229,-67 203.34,-73.67 174.97,-81.4 151.16,-87.98"/>
<polygon fill="#63b8ff" stroke="#63b8ff" points="253.69,-64.34 262.55,-58.53 252,-57.54 253.69,-64.34"/>
</a>
</g>
</g>
<!-- Node21&#45;&gt;Node18 -->
<g id="edge130_Node000021_Node000018" class="edge">
<title>Node21&#45;&gt;Node18</title>
<g id="a_edge130_Node000021_Node000018"><a xlink:title=" ">
<path fill="none" stroke="#63b8ff" d="M228.14,-92.14C210.41,-93.61 191.44,-95.19 173.61,-96.67"/>
<polygon fill="#63b8ff" stroke="#63b8ff" points="228.74,-95.6 238.42,-91.29 228.16,-88.63 228.74,-95.6"/>
</a>
</g>
</g>
</g>
</svg>
