<?xml version="1.0" encoding="UTF-8" standalone="no"?>
<!DOCTYPE svg PUBLIC "-//W3C//DTD SVG 1.1//EN"
 "http://www.w3.org/Graphics/SVG/1.1/DTD/svg11.dtd">
<!-- Generated by graphviz version 2.43.0 (0)
 -->
<!-- Title: cam.nc.makerbot_codes.Codes.TIME Pages: 1 -->
<svg width="630pt" height="408pt"
 viewBox="0.00 0.00 630.00 408.00" xmlns="http://www.w3.org/2000/svg" xmlns:xlink="http://www.w3.org/1999/xlink">
<g id="graph0" class="graph" transform="scale(1 1) rotate(0) translate(4 404)">
<title>cam.nc.makerbot_codes.Codes.TIME</title>
<!-- Node1 -->
<g id="Node000001" class="node">
<title>Node1</title>
<g id="a_Node000001"><a xlink:title=" ">
<polygon fill="#999999" stroke="#666666" points="195,-212 0,-212 0,-193 195,-193 195,-212"/>
<text text-anchor="middle" x="97.5" y="-200" font-family="Helvetica,sans-Serif" font-size="10.00">cam.nc.makerbot_codes.Codes.TIME</text>
</a>
</g>
</g>
<!-- Node2 -->
<g id="Node000002" class="node">
<title>Node2</title>
<g id="a_Node000002"><a xlink:href="$classcam_1_1nc_1_1emc2_1_1Creator.html#a47a9e4f5f35681f580765bba2f0f97a5" xlink:title=" ">
<polygon fill="white" stroke="#666666" points="393.5,-400 239.5,-400 239.5,-381 393.5,-381 393.5,-400"/>
<text text-anchor="middle" x="316.5" y="-388" font-family="Helvetica,sans-Serif" font-size="10.00">cam.nc.emc2.Creator.SPACE</text>
</a>
</g>
</g>
<!-- Node1&#45;&gt;Node2 -->
<g id="edge35_Node000001_Node000002" class="edge">
<title>Node1&#45;&gt;Node2</title>
<g id="a_edge35_Node000001_Node000002"><a xlink:title=" ">
<path fill="none" stroke="#63b8ff" d="M102.94,-212.11C117.02,-241.45 163.76,-330.41 231,-372.5 233.65,-374.16 236.42,-375.66 239.29,-377.03"/>
<polygon fill="#63b8ff" stroke="#63b8ff" points="238.13,-380.34 248.71,-380.96 240.82,-373.88 238.13,-380.34"/>
</a>
</g>
</g>
<!-- Node3 -->
<g id="Node000003" class="node">
<title>Node3</title>
<g id="a_Node000003"><a xlink:href="$classcam_1_1nc_1_1emc2b_1_1Creator.html#abff5586e78bb91681bd41dafdea5a9e7" xlink:title=" ">
<polygon fill="white" stroke="#666666" points="396.5,-363 236.5,-363 236.5,-344 396.5,-344 396.5,-363"/>
<text text-anchor="middle" x="316.5" y="-351" font-family="Helvetica,sans-Serif" font-size="10.00">cam.nc.emc2b.Creator.SPACE</text>
</a>
</g>
</g>
<!-- Node1&#45;&gt;Node3 -->
<g id="edge36_Node000001_Node000003" class="edge">
<title>Node1&#45;&gt;Node3</title>
<g id="a_edge36_Node000001_Node000003"><a xlink:title=" ">
<path fill="none" stroke="#63b8ff" d="M105.23,-212.31C122.79,-237.09 172.66,-302.45 231,-334.5 235.23,-336.82 239.72,-338.86 244.34,-340.65"/>
<polygon fill="#63b8ff" stroke="#63b8ff" points="243.39,-344.02 253.99,-343.98 245.68,-337.41 243.39,-344.02"/>
</a>
</g>
</g>
<!-- Node4 -->
<g id="Node000004" class="node">
<title>Node4</title>
<g id="a_Node000004"><a xlink:href="$classcam_1_1nc_1_1emc2tap_1_1CodesEMC2.html#a6a0d71a1c6e9f8a80228dc220a0e57ca" xlink:title=" ">
<polygon fill="white" stroke="#666666" points="397,-325.5 236,-325.5 236,-295.5 397,-295.5 397,-325.5"/>
<text text-anchor="start" x="244" y="-313.5" font-family="Helvetica,sans-Serif" font-size="10.00">cam.nc.emc2tap.CodesEMC2.</text>
<text text-anchor="middle" x="316.5" y="-302.5" font-family="Helvetica,sans-Serif" font-size="10.00">SPACE</text>
</a>
</g>
</g>
<!-- Node1&#45;&gt;Node4 -->
<g id="edge37_Node000001_Node000004" class="edge">
<title>Node1&#45;&gt;Node4</title>
<g id="a_edge37_Node000001_Node000004"><a xlink:title=" ">
<path fill="none" stroke="#63b8ff" d="M110.96,-212.15C133.66,-229.33 183.77,-265.36 231,-286.5 235.38,-288.46 239.96,-290.3 244.63,-292.02"/>
<polygon fill="#63b8ff" stroke="#63b8ff" points="243.69,-295.4 254.28,-295.39 245.99,-288.79 243.69,-295.4"/>
</a>
</g>
</g>
<!-- Node5 -->
<g id="Node000005" class="node">
<title>Node5</title>
<g id="a_Node000005"><a xlink:href="$classcam_1_1nc_1_1heiden_1_1Creator.html#a2c4277ffddaea0f92c906c6744f7a3bd" xlink:title="Codes.">
<polygon fill="white" stroke="#666666" points="396.5,-277 236.5,-277 236.5,-258 396.5,-258 396.5,-277"/>
<text text-anchor="middle" x="316.5" y="-265" font-family="Helvetica,sans-Serif" font-size="10.00">cam.nc.heiden.Creator.SPACE</text>
</a>
</g>
</g>
<!-- Node1&#45;&gt;Node5 -->
<g id="edge38_Node000001_Node000005" class="edge">
<title>Node1&#45;&gt;Node5</title>
<g id="a_edge38_Node000001_Node000005"><a xlink:title=" ">
<path fill="none" stroke="#63b8ff" d="M123.63,-212.18C150.08,-222.14 193.06,-237.69 231,-248.5 239.92,-251.04 249.45,-253.46 258.77,-255.67"/>
<polygon fill="#63b8ff" stroke="#63b8ff" points="258.24,-259.14 268.77,-257.98 259.82,-252.32 258.24,-259.14"/>
</a>
</g>
</g>
<!-- Node6 -->
<g id="Node000006" class="node">
<title>Node6</title>
<g id="a_Node000006"><a xlink:href="$classcam_1_1nc_1_1heiden530_1_1Creator.html#aa64b19b0edc2ac1f2d568b09ca2aebcb" xlink:title="Codes.">
<polygon fill="white" stroke="#666666" points="390,-239.5 243,-239.5 243,-209.5 390,-209.5 390,-239.5"/>
<text text-anchor="start" x="251" y="-227.5" font-family="Helvetica,sans-Serif" font-size="10.00">cam.nc.heiden530.Creator.</text>
<text text-anchor="middle" x="316.5" y="-216.5" font-family="Helvetica,sans-Serif" font-size="10.00">SPACE</text>
</a>
</g>
</g>
<!-- Node1&#45;&gt;Node6 -->
<g id="edge39_Node000001_Node000006" class="edge">
<title>Node1&#45;&gt;Node6</title>
<g id="a_edge39_Node000001_Node000006"><a xlink:title=" ">
<path fill="none" stroke="#63b8ff" d="M192.42,-212.02C205.84,-213.38 219.56,-214.77 232.74,-216.11"/>
<polygon fill="#63b8ff" stroke="#63b8ff" points="232.4,-219.59 242.7,-217.12 233.11,-212.63 232.4,-219.59"/>
</a>
</g>
</g>
<!-- Node7 -->
<g id="Node000007" class="node">
<title>Node7</title>
<g id="a_Node000007"><a xlink:href="$classcam_1_1nc_1_1iso_1_1Creator.html#a79463d437baaaf23c828a2c9e62393f3" xlink:title=" ">
<polygon fill="white" stroke="#666666" points="387,-191 246,-191 246,-172 387,-172 387,-191"/>
<text text-anchor="middle" x="316.5" y="-179" font-family="Helvetica,sans-Serif" font-size="10.00">cam.nc.iso.Creator.SPACE</text>
</a>
</g>
</g>
<!-- Node1&#45;&gt;Node7 -->
<g id="edge40_Node000001_Node000007" class="edge">
<title>Node1&#45;&gt;Node7</title>
<g id="a_edge40_Node000001_Node000007"><a xlink:title=" ">
<path fill="none" stroke="#63b8ff" d="M195.26,-193.14C208.86,-191.82 222.71,-190.48 235.94,-189.2"/>
<polygon fill="#63b8ff" stroke="#63b8ff" points="236.3,-192.68 245.92,-188.23 235.63,-185.71 236.3,-192.68"/>
</a>
</g>
</g>
<!-- Node15 -->
<g id="Node000015" class="node">
<title>Node15</title>
<g id="a_Node000015"><a xlink:href="$classcam_1_1nc_1_1makerbot__codes_1_1Codes.html#a497077e0e500cc8f419b8f3f61f008b4" xlink:title=" ">
<polygon fill="white" stroke="#666666" points="402,-153.5 231,-153.5 231,-123.5 402,-123.5 402,-153.5"/>
<text text-anchor="start" x="239" y="-141.5" font-family="Helvetica,sans-Serif" font-size="10.00">cam.nc.makerbot_codes.Codes.</text>
<text text-anchor="middle" x="316.5" y="-130.5" font-family="Helvetica,sans-Serif" font-size="10.00">SPACE</text>
</a>
</g>
</g>
<!-- Node1&#45;&gt;Node15 -->
<g id="edge48_Node000001_Node000015" class="edge">
<title>Node1&#45;&gt;Node15</title>
<g id="a_edge48_Node000001_Node000015"><a xlink:title=" ">
<path fill="none" stroke="#63b8ff" d="M130.99,-192.92C163.65,-183.29 214.77,-168.21 254.93,-156.36"/>
<polygon fill="#63b8ff" stroke="#63b8ff" points="256.02,-159.69 264.62,-153.5 254.04,-152.98 256.02,-159.69"/>
</a>
</g>
</g>
<!-- Node16 -->
<g id="Node000016" class="node">
<title>Node16</title>
<g id="a_Node000016"><a xlink:href="$classcam_1_1nc_1_1series1_1_1Creator.html#a75918d23eef609baab85058fda3050d5" xlink:title=" ">
<polygon fill="white" stroke="#666666" points="397.5,-105 235.5,-105 235.5,-86 397.5,-86 397.5,-105"/>
<text text-anchor="middle" x="316.5" y="-93" font-family="Helvetica,sans-Serif" font-size="10.00">cam.nc.series1.Creator.SPACE</text>
</a>
</g>
</g>
<!-- Node1&#45;&gt;Node16 -->
<g id="edge49_Node000001_Node000016" class="edge">
<title>Node1&#45;&gt;Node16</title>
<g id="a_edge49_Node000001_Node000016"><a xlink:title=" ">
<path fill="none" stroke="#63b8ff" d="M109.72,-192.94C131.57,-174.82 181.99,-135.44 231,-114.5 236.9,-111.98 243.18,-109.77 249.55,-107.84"/>
<polygon fill="#63b8ff" stroke="#63b8ff" points="250.9,-111.1 259.59,-105.04 249.01,-104.36 250.9,-111.1"/>
</a>
</g>
</g>
<!-- Node17 -->
<g id="Node000017" class="node">
<title>Node17</title>
<g id="a_Node000017"><a xlink:href="$classcam_1_1nc_1_1shopbot__mtc_1_1Creator.html#a1512dbb5d0140eb216ed709a542261ac" xlink:title="Codes.">
<polygon fill="white" stroke="#666666" points="396,-67.5 237,-67.5 237,-37.5 396,-37.5 396,-67.5"/>
<text text-anchor="start" x="245" y="-55.5" font-family="Helvetica,sans-Serif" font-size="10.00">cam.nc.shopbot_mtc.Creator.</text>
<text text-anchor="middle" x="316.5" y="-44.5" font-family="Helvetica,sans-Serif" font-size="10.00">SPACE</text>
</a>
</g>
</g>
<!-- Node1&#45;&gt;Node17 -->
<g id="edge50_Node000001_Node000017" class="edge">
<title>Node1&#45;&gt;Node17</title>
<g id="a_edge50_Node000001_Node000017"><a xlink:title=" ">
<path fill="none" stroke="#63b8ff" d="M105.72,-192.99C124.01,-169.55 174.75,-108.59 231,-76.5 234.07,-74.75 237.28,-73.11 240.58,-71.59"/>
<polygon fill="#63b8ff" stroke="#63b8ff" points="242.2,-74.71 250.06,-67.6 239.49,-68.26 242.2,-74.71"/>
</a>
</g>
</g>
<!-- Node18 -->
<g id="Node000018" class="node">
<title>Node18</title>
<g id="a_Node000018"><a xlink:href="$classcam_1_1nc_1_1tnc151_1_1Creator.html#af5d9e50b2ff0e73cd7524e2145d55d76" xlink:title=" ">
<polygon fill="white" stroke="#666666" points="396.5,-19 236.5,-19 236.5,0 396.5,0 396.5,-19"/>
<text text-anchor="middle" x="316.5" y="-7" font-family="Helvetica,sans-Serif" font-size="10.00">cam.nc.tnc151.Creator.SPACE</text>
</a>
</g>
</g>
<!-- Node1&#45;&gt;Node18 -->
<g id="edge51_Node000001_Node000018" class="edge">
<title>Node1&#45;&gt;Node18</title>
<g id="a_edge51_Node000001_Node000018"><a xlink:title=" ">
<path fill="none" stroke="#63b8ff" d="M102.89,-192.7C116.85,-162.77 163.26,-71.98 231,-28.5 234.32,-26.37 237.85,-24.47 241.51,-22.79"/>
<polygon fill="#63b8ff" stroke="#63b8ff" points="242.87,-26.02 250.83,-19.03 240.24,-19.53 242.87,-26.02"/>
</a>
</g>
</g>
<!-- Node8 -->
<g id="Node000008" class="node">
<title>Node8</title>
<g id="a_Node000008"><a xlink:href="$classcam_1_1nc_1_1anilam__crusader__m_1_1Creator.html#a36f873a0248bcaa4cf2cfb220dc1b00c" xlink:title="Codes.">
<polygon fill="white" stroke="#666666" points="598,-313.5 462,-313.5 462,-283.5 598,-283.5 598,-313.5"/>
<text text-anchor="start" x="470" y="-301.5" font-family="Helvetica,sans-Serif" font-size="10.00">cam.nc.anilam_crusader</text>
<text text-anchor="middle" x="530" y="-290.5" font-family="Helvetica,sans-Serif" font-size="10.00">_m.Creator.SPACE_STR</text>
</a>
</g>
</g>
<!-- Node7&#45;&gt;Node8 -->
<g id="edge41_Node000007_Node000008" class="edge">
<title>Node7&#45;&gt;Node8</title>
<g id="a_edge41_Node000007_Node000008"><a xlink:title=" ">
<path fill="none" stroke="#63b8ff" d="M385.96,-191.1C391.71,-193.59 397.17,-196.67 402,-200.5 430.68,-223.2 409.74,-251.28 438,-274.5 442.34,-278.07 447.15,-281.11 452.24,-283.7"/>
<polygon fill="#63b8ff" stroke="#63b8ff" points="451.08,-287.02 461.64,-287.9 453.93,-280.62 451.08,-287.02"/>
</a>
</g>
</g>
<!-- Node9 -->
<g id="Node000009" class="node">
<title>Node9</title>
<g id="a_Node000009"><a xlink:href="$classcam_1_1nc_1_1fadal_1_1Creator.html#a97a50724edf2662eb4fe76b15516b638" xlink:title="Codes.">
<polygon fill="white" stroke="#666666" points="618,-265 442,-265 442,-246 618,-246 618,-265"/>
<text text-anchor="middle" x="530" y="-253" font-family="Helvetica,sans-Serif" font-size="10.00">cam.nc.fadal.Creator.SPACE_STR</text>
</a>
</g>
</g>
<!-- Node7&#45;&gt;Node9 -->
<g id="edge42_Node000007_Node000009" class="edge">
<title>Node7&#45;&gt;Node9</title>
<g id="a_edge42_Node000007_Node000009"><a xlink:title=" ">
<path fill="none" stroke="#63b8ff" d="M379.51,-191.05C387.35,-193.51 395.05,-196.61 402,-200.5 422.02,-211.7 417.83,-226.56 438,-237.5 441.31,-239.3 444.77,-240.91 448.33,-242.37"/>
<polygon fill="#63b8ff" stroke="#63b8ff" points="447.36,-245.74 457.95,-245.87 449.75,-239.16 447.36,-245.74"/>
</a>
</g>
</g>
<!-- Node10 -->
<g id="Node000010" class="node">
<title>Node10</title>
<g id="a_Node000010"><a xlink:href="$classcam_1_1nc_1_1gravos_1_1Creator.html#ac0bc0d26e8a92a65c0f33d696ad850f5" xlink:title="Codes.">
<polygon fill="white" stroke="#666666" points="622,-228 438,-228 438,-209 622,-209 622,-228"/>
<text text-anchor="middle" x="530" y="-216" font-family="Helvetica,sans-Serif" font-size="10.00">cam.nc.gravos.Creator.SPACE_STR</text>
</a>
</g>
</g>
<!-- Node7&#45;&gt;Node10 -->
<g id="edge43_Node000007_Node000010" class="edge">
<title>Node7&#45;&gt;Node10</title>
<g id="a_edge43_Node000007_Node000010"><a xlink:title=" ">
<path fill="none" stroke="#63b8ff" d="M371.97,-191.03C400.1,-195.95 434.63,-201.99 464.14,-207.15"/>
<polygon fill="#63b8ff" stroke="#63b8ff" points="463.9,-210.66 474.35,-208.94 465.1,-203.77 463.9,-210.66"/>
</a>
</g>
</g>
<!-- Node11 -->
<g id="Node000011" class="node">
<title>Node11</title>
<g id="a_Node000011"><a xlink:href="$classcam_1_1nc_1_1iso_1_1Creator.html#aa481cf1e394988751640fd5ce5af991e" xlink:title="Codes.">
<polygon fill="white" stroke="#666666" points="612.5,-191 447.5,-191 447.5,-172 612.5,-172 612.5,-191"/>
<text text-anchor="middle" x="530" y="-179" font-family="Helvetica,sans-Serif" font-size="10.00">cam.nc.iso.Creator.SPACE_STR</text>
</a>
</g>
</g>
<!-- Node7&#45;&gt;Node11 -->
<g id="edge44_Node000007_Node000011" class="edge">
<title>Node7&#45;&gt;Node11</title>
<g id="a_edge44_Node000007_Node000011"><a xlink:title=" ">
<path fill="none" stroke="#63b8ff" d="M387.05,-181.5C403,-181.5 420.2,-181.5 436.94,-181.5"/>
<polygon fill="#63b8ff" stroke="#63b8ff" points="437.29,-185 447.29,-181.5 437.29,-178 437.29,-185"/>
</a>
</g>
</g>
<!-- Node12 -->
<g id="Node000012" class="node">
<title>Node12</title>
<g id="a_Node000012"><a xlink:href="$classcam_1_1nc_1_1lynx__otter__o_1_1Creator.html#a73b176561e066abcdb256a1bf53a5fcc" xlink:title="Codes.">
<polygon fill="white" stroke="#666666" points="608.5,-153.5 451.5,-153.5 451.5,-123.5 608.5,-123.5 608.5,-153.5"/>
<text text-anchor="start" x="459.5" y="-141.5" font-family="Helvetica,sans-Serif" font-size="10.00">cam.nc.lynx_otter_o.Creator.</text>
<text text-anchor="middle" x="530" y="-130.5" font-family="Helvetica,sans-Serif" font-size="10.00">SPACE_STR</text>
</a>
</g>
</g>
<!-- Node7&#45;&gt;Node12 -->
<g id="edge45_Node000007_Node000012" class="edge">
<title>Node7&#45;&gt;Node12</title>
<g id="a_edge45_Node000007_Node000012"><a xlink:title=" ">
<path fill="none" stroke="#63b8ff" d="M364.44,-171.96C388.18,-167.13 417.71,-161.13 445.18,-155.54"/>
<polygon fill="#63b8ff" stroke="#63b8ff" points="446.09,-158.93 455.19,-153.51 444.69,-152.07 446.09,-158.93"/>
</a>
</g>
</g>
<!-- Node13 -->
<g id="Node000013" class="node">
<title>Node13</title>
<g id="a_Node000013"><a xlink:href="$classcam_1_1nc_1_1mach3_1_1Creator.html#aa461d578afa76c5af9bb5562b79d955a" xlink:title="Codes.">
<polygon fill="white" stroke="#666666" points="622,-105 438,-105 438,-86 622,-86 622,-105"/>
<text text-anchor="middle" x="530" y="-93" font-family="Helvetica,sans-Serif" font-size="10.00">cam.nc.mach3.Creator.SPACE_STR</text>
</a>
</g>
</g>
<!-- Node7&#45;&gt;Node13 -->
<g id="edge46_Node000007_Node000013" class="edge">
<title>Node7&#45;&gt;Node13</title>
<g id="a_edge46_Node000007_Node000013"><a xlink:title=" ">
<path fill="none" stroke="#63b8ff" d="M382.64,-171.86C389.46,-169.41 396.07,-166.34 402,-162.5 424.39,-148.01 415.5,-128.81 438,-114.5 441.35,-112.37 444.9,-110.47 448.57,-108.78"/>
<polygon fill="#63b8ff" stroke="#63b8ff" points="449.97,-111.99 457.94,-105 447.35,-105.5 449.97,-111.99"/>
</a>
</g>
</g>
<!-- Node14 -->
<g id="Node000014" class="node">
<title>Node14</title>
<g id="a_Node000014"><a xlink:href="$classcam_1_1nc_1_1winpc_1_1Creator.html#aae1cb93a5dd430719105fa03a054f654" xlink:title="Codes.">
<polygon fill="white" stroke="#666666" points="619.5,-68 440.5,-68 440.5,-49 619.5,-49 619.5,-68"/>
<text text-anchor="middle" x="530" y="-56" font-family="Helvetica,sans-Serif" font-size="10.00">cam.nc.winpc.Creator.SPACE_STR</text>
</a>
</g>
</g>
<!-- Node7&#45;&gt;Node14 -->
<g id="edge47_Node000007_Node000014" class="edge">
<title>Node7&#45;&gt;Node14</title>
<g id="a_edge47_Node000007_Node000014"><a xlink:title=" ">
<path fill="none" stroke="#63b8ff" d="M386.61,-172C392.16,-169.49 397.39,-166.36 402,-162.5 433.75,-135.88 405.91,-102.71 438,-76.5 439.54,-75.24 441.15,-74.06 442.81,-72.95"/>
<polygon fill="#63b8ff" stroke="#63b8ff" points="444.54,-76 451.52,-68.03 441.09,-69.91 444.54,-76"/>
</a>
</g>
</g>
</g>
</svg>
