<?xml version="1.0" encoding="UTF-8" standalone="no"?>
<!DOCTYPE svg PUBLIC "-//W3C//DTD SVG 1.1//EN"
 "http://www.w3.org/Graphics/SVG/1.1/DTD/svg11.dtd">
<!-- Generated by graphviz version 2.43.0 (0)
 -->
<!-- Title: cam.async_op.AsyncTestOperator Pages: 1 -->
<svg width="434pt" height="265pt"
 viewBox="0.00 0.00 434.00 265.00" xmlns="http://www.w3.org/2000/svg" xmlns:xlink="http://www.w3.org/1999/xlink">
<g id="graph0" class="graph" transform="scale(1 1) rotate(0) translate(4 261)">
<title>cam.async_op.AsyncTestOperator</title>
<!-- Node1 -->
<g id="Node000001" class="node">
<title>Node1</title>
<g id="a_Node000001"><a xlink:title=" ">
<polygon fill="#999999" stroke="transparent" points="336.5,-49 161.5,-49 161.5,0 336.5,0 336.5,-49"/>
<text text-anchor="start" x="167" y="-36.5" font-family="Helvetica,sans-Serif" font-size="10.00">cam.async_op.AsyncTestOperator</text>
<text text-anchor="start" x="247.5" y="-21.5" font-family="Helvetica,sans-Serif" font-size="10.00"> </text>
<text text-anchor="start" x="184.5" y="-6.5" font-family="Helvetica,sans-Serif" font-size="10.00">+</text>
<text text-anchor="start" x="216" y="-6.5" font-family="Helvetica,sans-Serif" font-size="10.00">execute_async()</text>
<polygon fill="#666666" stroke="#666666" points="162,-31.5 162,-31.5 337,-31.5 337,-31.5 162,-31.5"/>
<polygon fill="#666666" stroke="#666666" points="162,-16.5 162,-16.5 337,-16.5 337,-16.5 162,-16.5"/>
<polygon fill="none" stroke="#666666" points="161.5,0 161.5,-49 336.5,-49 336.5,0 161.5,0"/>
</a>
</g>
</g>
<!-- Node2 -->
<g id="Node000002" class="node">
<title>Node2</title>
<g id="a_Node000002"><a xlink:title=" ">
<polygon fill="white" stroke="transparent" points="110,-206.5 0,-206.5 0,-157.5 110,-157.5 110,-206.5"/>
<text text-anchor="start" x="5" y="-194" font-family="Helvetica,sans-Serif" font-size="10.00">bpy::types::Operator</text>
<text text-anchor="start" x="53" y="-179" font-family="Helvetica,sans-Serif" font-size="10.00"> </text>
<text text-anchor="start" x="53" y="-164" font-family="Helvetica,sans-Serif" font-size="10.00"> </text>
<polygon fill="#666666" stroke="#666666" points="0,-189 0,-189 110,-189 110,-189 0,-189"/>
<polygon fill="#666666" stroke="#666666" points="0,-174 0,-174 110,-174 110,-174 0,-174"/>
<polygon fill="none" stroke="#666666" points="0,-157.5 0,-206.5 110,-206.5 110,-157.5 0,-157.5"/>
</a>
</g>
</g>
<!-- Node2&#45;&gt;Node1 -->
<g id="edge9_Node000001_Node000002" class="edge">
<title>Node2&#45;&gt;Node1</title>
<g id="a_edge9_Node000001_Node000002"><a xlink:title=" ">
<path fill="none" stroke="#63b8ff" d="M78.75,-149.47C90.08,-135.57 104.34,-119.57 119,-107 145.19,-84.54 178.15,-63.95 204.32,-49.08"/>
<polygon fill="none" stroke="#63b8ff" points="75.95,-147.38 72.44,-157.38 81.42,-151.75 75.95,-147.38"/>
</a>
</g>
</g>
<!-- Node3 -->
<g id="Node000003" class="node">
<title>Node3</title>
<g id="a_Node000003"><a xlink:href="$classcam_1_1async__op_1_1AsyncOperatorMixin.html" xlink:title=" ">
<polygon fill="white" stroke="transparent" points="283.5,-257 128.5,-257 128.5,-107 283.5,-107 283.5,-257"/>
<text text-anchor="start" x="134" y="-245" font-family="Helvetica,sans-Serif" font-size="10.00">cam.async_op.AsyncOperator</text>
<text text-anchor="start" x="192.5" y="-234" font-family="Helvetica,sans-Serif" font-size="10.00">Mixin</text>
<text text-anchor="start" x="146" y="-219" font-family="Helvetica,sans-Serif" font-size="10.00">+</text>
<text text-anchor="start" x="172" y="-219" font-family="Helvetica,sans-Serif" font-size="10.00">timer</text>
<text text-anchor="start" x="146" y="-204" font-family="Helvetica,sans-Serif" font-size="10.00">+</text>
<text text-anchor="start" x="172" y="-204" font-family="Helvetica,sans-Serif" font-size="10.00">coroutine</text>
<text text-anchor="start" x="146" y="-189" font-family="Helvetica,sans-Serif" font-size="10.00">#</text>
<text text-anchor="start" x="172" y="-189" font-family="Helvetica,sans-Serif" font-size="10.00">_is_cancelled</text>
<text text-anchor="start" x="146" y="-174" font-family="Helvetica,sans-Serif" font-size="10.00">+</text>
<text text-anchor="start" x="172" y="-174" font-family="Helvetica,sans-Serif" font-size="10.00">__init__()</text>
<text text-anchor="start" x="146" y="-159" font-family="Helvetica,sans-Serif" font-size="10.00">+</text>
<text text-anchor="start" x="172" y="-159" font-family="Helvetica,sans-Serif" font-size="10.00">modal()</text>
<text text-anchor="start" x="146" y="-144" font-family="Helvetica,sans-Serif" font-size="10.00">+</text>
<text text-anchor="start" x="172" y="-144" font-family="Helvetica,sans-Serif" font-size="10.00">show_progress()</text>
<text text-anchor="start" x="146" y="-129" font-family="Helvetica,sans-Serif" font-size="10.00">+</text>
<text text-anchor="start" x="172" y="-129" font-family="Helvetica,sans-Serif" font-size="10.00">tick()</text>
<text text-anchor="start" x="146" y="-114" font-family="Helvetica,sans-Serif" font-size="10.00">+</text>
<text text-anchor="start" x="172" y="-114" font-family="Helvetica,sans-Serif" font-size="10.00">execute()</text>
<polygon fill="#666666" stroke="#666666" points="129,-229 129,-229 284,-229 284,-229 129,-229"/>
<polygon fill="#666666" stroke="#666666" points="129,-184 129,-184 170,-184 170,-184 129,-184"/>
<polygon fill="#666666" stroke="#666666" points="170,-184 170,-184 284,-184 284,-184 170,-184"/>
<polygon fill="none" stroke="#666666" points="128.5,-107 128.5,-257 283.5,-257 283.5,-107 128.5,-107"/>
</a>
</g>
</g>
<!-- Node3&#45;&gt;Node1 -->
<g id="edge10_Node000001_Node000003" class="edge">
<title>Node3&#45;&gt;Node1</title>
<g id="a_edge10_Node000001_Node000003"><a xlink:title=" ">
<path fill="none" stroke="#63b8ff" d="M229.21,-97.06C234.09,-79.41 238.86,-62.18 242.49,-49.05"/>
<polygon fill="none" stroke="#63b8ff" points="225.78,-96.32 226.49,-106.89 232.53,-98.19 225.78,-96.32"/>
</a>
</g>
</g>
<!-- Node4 -->
<g id="Node000004" class="node">
<title>Node4</title>
<g id="a_Node000004"><a xlink:title=" ">
<polygon fill="white" stroke="transparent" points="324.5,-206.5 301.5,-206.5 301.5,-157.5 324.5,-157.5 324.5,-206.5"/>
<text text-anchor="start" x="307" y="-194" font-family="Helvetica,sans-Serif" font-size="10.00">str</text>
<text text-anchor="start" x="311.5" y="-179" font-family="Helvetica,sans-Serif" font-size="10.00"> </text>
<text text-anchor="start" x="311.5" y="-164" font-family="Helvetica,sans-Serif" font-size="10.00"> </text>
<polygon fill="#666666" stroke="#666666" points="302,-189 302,-189 325,-189 325,-189 302,-189"/>
<polygon fill="#666666" stroke="#666666" points="302,-174 302,-174 325,-174 325,-174 302,-174"/>
<polygon fill="none" stroke="#666666" points="301.5,-157.5 301.5,-206.5 324.5,-206.5 324.5,-157.5 301.5,-157.5"/>
</a>
</g>
</g>
<!-- Node4&#45;&gt;Node1 -->
<g id="edge11_Node000001_Node000004" class="edge">
<title>Node4&#45;&gt;Node1</title>
<g id="a_edge11_Node000001_Node000004"><a xlink:title=" ">
<path fill="none" stroke="#63b8ff" d="M308.05,-157.22C304.62,-142.48 299.51,-123.32 293,-107 286.61,-90.97 277.84,-74.06 269.82,-59.82"/>
<polygon fill="none" stroke="#63b8ff" points="269.6,-59.44 263.13,-56.24 263.6,-49.05 270.06,-52.24 269.6,-59.44"/>
</a>
</g>
<text text-anchor="middle" x="315.5" y="-81" font-family="Helvetica,sans-Serif" font-size="10.00" fill="grey"> +bl_idname</text>
<text text-anchor="middle" x="315.5" y="-70" font-family="Helvetica,sans-Serif" font-size="10.00" fill="grey">+bl_label</text>
</g>
<!-- Node5 -->
<g id="Node000005" class="node">
<title>Node5</title>
<g id="a_Node000005"><a xlink:title=" ">
<polygon fill="white" stroke="transparent" points="392.5,-206.5 363.5,-206.5 363.5,-157.5 392.5,-157.5 392.5,-206.5"/>
<text text-anchor="start" x="369" y="-194" font-family="Helvetica,sans-Serif" font-size="10.00">dict</text>
<text text-anchor="start" x="376.5" y="-179" font-family="Helvetica,sans-Serif" font-size="10.00"> </text>
<text text-anchor="start" x="376.5" y="-164" font-family="Helvetica,sans-Serif" font-size="10.00"> </text>
<polygon fill="#666666" stroke="#666666" points="364,-189 364,-189 393,-189 393,-189 364,-189"/>
<polygon fill="#666666" stroke="#666666" points="364,-174 364,-174 393,-174 393,-174 364,-174"/>
<polygon fill="none" stroke="#666666" points="363.5,-157.5 363.5,-206.5 392.5,-206.5 392.5,-157.5 363.5,-157.5"/>
</a>
</g>
</g>
<!-- Node5&#45;&gt;Node1 -->
<g id="edge12_Node000001_Node000005" class="edge">
<title>Node5&#45;&gt;Node1</title>
<g id="a_edge12_Node000001_Node000005"><a xlink:title=" ">
<path fill="none" stroke="#63b8ff" d="M378.45,-157.23C377.68,-131.99 372.7,-92.33 351,-67 347.57,-63 343.7,-59.38 339.52,-56.1"/>
<polygon fill="none" stroke="#63b8ff" points="339.16,-55.86 331.95,-55.76 329.26,-49.07 336.47,-49.16 339.16,-55.86"/>
</a>
</g>
<text text-anchor="middle" x="395" y="-75.5" font-family="Helvetica,sans-Serif" font-size="10.00" fill="grey"> +bl_options</text>
</g>
</g>
</svg>
