<?xml version="1.0" encoding="UTF-8" standalone="no"?>
<!DOCTYPE svg PUBLIC "-//W3C//DTD SVG 1.1//EN"
 "http://www.w3.org/Graphics/SVG/1.1/DTD/svg11.dtd">
<!-- Generated by graphviz version 2.43.0 (0)
 -->
<!-- Title: cam.nc.rez2.Creator.comment Pages: 1 -->
<svg width="1252pt" height="878pt"
 viewBox="0.00 0.00 1252.00 878.00" xmlns="http://www.w3.org/2000/svg" xmlns:xlink="http://www.w3.org/1999/xlink">
<g id="graph0" class="graph" transform="scale(1 1) rotate(0) translate(4 874)">
<title>cam.nc.rez2.Creator.comment</title>
<!-- Node1 -->
<g id="Node000001" class="node">
<title>Node1</title>
<g id="a_Node000001"><a xlink:title="Misc.">
<polygon fill="#999999" stroke="#666666" points="164,-521.5 0,-521.5 0,-502.5 164,-502.5 164,-521.5"/>
<text text-anchor="middle" x="82" y="-509.5" font-family="Helvetica,sans-Serif" font-size="10.00">cam.nc.rez2.Creator.comment</text>
</a>
</g>
</g>
<!-- Node2 -->
<g id="Node000002" class="node">
<title>Node2</title>
<g id="a_Node000002"><a xlink:href="$classcam_1_1nc_1_1anilam__crusader__m_1_1Creator.html#ac1dbbd3ea853a221bbea54ea6bf0bc38" xlink:title=" ">
<polygon fill="white" stroke="#666666" points="367.5,-870 231.5,-870 231.5,-840 367.5,-840 367.5,-870"/>
<text text-anchor="start" x="239.5" y="-858" font-family="Helvetica,sans-Serif" font-size="10.00">cam.nc.anilam_crusader</text>
<text text-anchor="middle" x="299.5" y="-847" font-family="Helvetica,sans-Serif" font-size="10.00">_m.Creator.COMMENT</text>
</a>
</g>
</g>
<!-- Node1&#45;&gt;Node2 -->
<g id="edge71_Node000001_Node000002" class="edge">
<title>Node1&#45;&gt;Node2</title>
<g id="a_edge71_Node000001_Node000002"><a xlink:title=" ">
<path fill="none" stroke="#63b8ff" d="M83.41,-521.58C85.79,-564.76 101.46,-742.97 200,-831 206.37,-836.69 213.86,-841.08 221.82,-844.47"/>
<polygon fill="#63b8ff" stroke="#63b8ff" points="220.75,-847.81 231.34,-848 223.18,-841.24 220.75,-847.81"/>
</a>
</g>
</g>
<!-- Node3 -->
<g id="Node000003" class="node">
<title>Node3</title>
<g id="a_Node000003"><a xlink:href="$classcam_1_1nc_1_1gravos_1_1Creator.html#a6489943de2bbb60e108634000b1d4a65" xlink:title=" ">
<polygon fill="white" stroke="#666666" points="390,-821.5 209,-821.5 209,-802.5 390,-802.5 390,-821.5"/>
<text text-anchor="middle" x="299.5" y="-809.5" font-family="Helvetica,sans-Serif" font-size="10.00">cam.nc.gravos.Creator.COMMENT</text>
</a>
</g>
</g>
<!-- Node1&#45;&gt;Node3 -->
<g id="edge72_Node000001_Node000003" class="edge">
<title>Node1&#45;&gt;Node3</title>
<g id="a_edge72_Node000001_Node000003"><a xlink:title=" ">
<path fill="none" stroke="#63b8ff" d="M83.8,-521.69C87.69,-562.3 108.44,-720.09 200,-794 201.39,-795.13 202.84,-796.19 204.32,-797.2"/>
<polygon fill="#63b8ff" stroke="#63b8ff" points="202.82,-800.37 213.23,-802.34 206.32,-794.31 202.82,-800.37"/>
</a>
</g>
</g>
<!-- Node4 -->
<g id="Node000004" class="node">
<title>Node4</title>
<g id="a_Node000004"><a xlink:href="$classcam_1_1nc_1_1heiden_1_1Creator.html#a752d676a8bc0b4afff9140d5ee13f964" xlink:title=" ">
<polygon fill="white" stroke="#666666" points="390,-784.5 209,-784.5 209,-765.5 390,-765.5 390,-784.5"/>
<text text-anchor="middle" x="299.5" y="-772.5" font-family="Helvetica,sans-Serif" font-size="10.00">cam.nc.heiden.Creator.COMMENT</text>
</a>
</g>
</g>
<!-- Node1&#45;&gt;Node4 -->
<g id="edge73_Node000001_Node000004" class="edge">
<title>Node1&#45;&gt;Node4</title>
<g id="a_edge73_Node000001_Node000004"><a xlink:title=" ">
<path fill="none" stroke="#63b8ff" d="M84.48,-521.62C90.7,-558.66 118.35,-693.01 200,-756 202.11,-757.63 204.32,-759.13 206.61,-760.52"/>
<polygon fill="#63b8ff" stroke="#63b8ff" points="205.32,-763.79 215.81,-765.29 208.55,-757.58 205.32,-763.79"/>
</a>
</g>
</g>
<!-- Node5 -->
<g id="Node000005" class="node">
<title>Node5</title>
<g id="a_Node000005"><a xlink:href="$classcam_1_1nc_1_1heiden530_1_1Creator.html#af11bd4e534bb880f62ef102d461e20d7" xlink:title=" ">
<polygon fill="white" stroke="#666666" points="373,-747 226,-747 226,-717 373,-717 373,-747"/>
<text text-anchor="start" x="234" y="-735" font-family="Helvetica,sans-Serif" font-size="10.00">cam.nc.heiden530.Creator.</text>
<text text-anchor="middle" x="299.5" y="-724" font-family="Helvetica,sans-Serif" font-size="10.00">COMMENT</text>
</a>
</g>
</g>
<!-- Node1&#45;&gt;Node5 -->
<g id="edge74_Node000001_Node000005" class="edge">
<title>Node1&#45;&gt;Node5</title>
<g id="a_edge74_Node000001_Node000005"><a xlink:title=" ">
<path fill="none" stroke="#63b8ff" d="M85.77,-521.58C95.52,-553.55 131.45,-657.4 200,-708 205.06,-711.74 210.64,-714.9 216.48,-717.57"/>
<polygon fill="#63b8ff" stroke="#63b8ff" points="215.26,-720.86 225.84,-721.39 217.9,-714.37 215.26,-720.86"/>
</a>
</g>
</g>
<!-- Node6 -->
<g id="Node000006" class="node">
<title>Node6</title>
<g id="a_Node000006"><a xlink:href="$classcam_1_1nc_1_1iso_1_1Creator.html#a0181c37cf5c794505115dcb25bc0374d" xlink:title=" ">
<polygon fill="white" stroke="#666666" points="380.5,-698.5 218.5,-698.5 218.5,-679.5 380.5,-679.5 380.5,-698.5"/>
<text text-anchor="middle" x="299.5" y="-686.5" font-family="Helvetica,sans-Serif" font-size="10.00">cam.nc.iso.Creator.COMMENT</text>
</a>
</g>
</g>
<!-- Node1&#45;&gt;Node6 -->
<g id="edge75_Node000001_Node000006" class="edge">
<title>Node1&#45;&gt;Node6</title>
<g id="a_edge75_Node000001_Node000006"><a xlink:title=" ">
<path fill="none" stroke="#63b8ff" d="M87.1,-521.77C99.47,-549.95 139.35,-631.81 200,-670 203.34,-672.11 206.87,-673.99 210.52,-675.67"/>
<polygon fill="#63b8ff" stroke="#63b8ff" points="209.23,-678.92 219.81,-679.45 211.86,-672.44 209.23,-678.92"/>
</a>
</g>
</g>
<!-- Node7 -->
<g id="Node000007" class="node">
<title>Node7</title>
<g id="a_Node000007"><a xlink:href="$classcam_1_1nc_1_1lynx__otter__o_1_1Creator.html#a7542e359b98327e59f79a5a26857e3e9" xlink:title=" ">
<polygon fill="white" stroke="#666666" points="378,-661 221,-661 221,-631 378,-631 378,-661"/>
<text text-anchor="start" x="229" y="-649" font-family="Helvetica,sans-Serif" font-size="10.00">cam.nc.lynx_otter_o.Creator.</text>
<text text-anchor="middle" x="299.5" y="-638" font-family="Helvetica,sans-Serif" font-size="10.00">COMMENT</text>
</a>
</g>
</g>
<!-- Node1&#45;&gt;Node7 -->
<g id="edge76_Node000001_Node000007" class="edge">
<title>Node1&#45;&gt;Node7</title>
<g id="a_edge76_Node000001_Node000007"><a xlink:title=" ">
<path fill="none" stroke="#63b8ff" d="M90.31,-521.67C107.14,-543.23 150.98,-595.42 200,-622 203.7,-624.01 207.57,-625.85 211.54,-627.53"/>
<polygon fill="#63b8ff" stroke="#63b8ff" points="210.38,-630.84 220.96,-631.2 212.92,-624.31 210.38,-630.84"/>
</a>
</g>
</g>
<!-- Node8 -->
<g id="Node000008" class="node">
<title>Node8</title>
<g id="a_Node000008"><a xlink:href="$classcam_1_1nc_1_1makerbot__codes_1_1Codes.html#a0b7d4923fea5d92064ba65e60074474e" xlink:title=" ">
<polygon fill="white" stroke="#666666" points="385,-613 214,-613 214,-583 385,-583 385,-613"/>
<text text-anchor="start" x="222" y="-601" font-family="Helvetica,sans-Serif" font-size="10.00">cam.nc.makerbot_codes.Codes.</text>
<text text-anchor="middle" x="299.5" y="-590" font-family="Helvetica,sans-Serif" font-size="10.00">COMMENT</text>
</a>
</g>
</g>
<!-- Node1&#45;&gt;Node8 -->
<g id="edge77_Node000001_Node000008" class="edge">
<title>Node1&#45;&gt;Node8</title>
<g id="a_edge77_Node000001_Node000008"><a xlink:title=" ">
<path fill="none" stroke="#63b8ff" d="M98.31,-521.71C120.13,-535.17 161.75,-559.46 200,-574 205.78,-576.2 211.82,-578.24 217.95,-580.13"/>
<polygon fill="#63b8ff" stroke="#63b8ff" points="217.05,-583.52 227.63,-582.99 219.03,-576.8 217.05,-583.52"/>
</a>
</g>
</g>
<!-- Node9 -->
<g id="Node000009" class="node">
<title>Node9</title>
<g id="a_Node000009"><a xlink:href="$classcam_1_1nc_1_1rez2_1_1Creator.html#abf7c3fb7afa5b735b94668c73afae18e" xlink:title=" ">
<polygon fill="white" stroke="#666666" points="384,-564.5 215,-564.5 215,-545.5 384,-545.5 384,-564.5"/>
<text text-anchor="middle" x="299.5" y="-552.5" font-family="Helvetica,sans-Serif" font-size="10.00">cam.nc.rez2.Creator.COMMENT</text>
</a>
</g>
</g>
<!-- Node1&#45;&gt;Node9 -->
<g id="edge78_Node000001_Node000009" class="edge">
<title>Node1&#45;&gt;Node9</title>
<g id="a_edge78_Node000001_Node000009"><a xlink:title=" ">
<path fill="none" stroke="#63b8ff" d="M128.82,-521.53C150.4,-525.98 176.51,-531.33 200,-536 212.47,-538.48 225.83,-541.09 238.57,-543.56"/>
<polygon fill="#63b8ff" stroke="#63b8ff" points="238.14,-547.04 248.62,-545.5 239.47,-540.16 238.14,-547.04"/>
</a>
</g>
</g>
<!-- Node10 -->
<g id="Node000010" class="node">
<title>Node10</title>
<g id="a_Node000010"><a xlink:href="$classcam_1_1nc_1_1shopbot__mtc_1_1Creator.html#a9b549b5b3d9803c1f1cceab22adfea86" xlink:title=" ">
<polygon fill="white" stroke="#666666" points="379,-527 220,-527 220,-497 379,-497 379,-527"/>
<text text-anchor="start" x="228" y="-515" font-family="Helvetica,sans-Serif" font-size="10.00">cam.nc.shopbot_mtc.Creator.</text>
<text text-anchor="middle" x="299.5" y="-504" font-family="Helvetica,sans-Serif" font-size="10.00">COMMENT</text>
</a>
</g>
</g>
<!-- Node1&#45;&gt;Node10 -->
<g id="edge79_Node000001_Node000010" class="edge">
<title>Node1&#45;&gt;Node10</title>
<g id="a_edge79_Node000001_Node000010"><a xlink:title=" ">
<path fill="none" stroke="#63b8ff" d="M164.16,-512C179,-512 194.55,-512 209.59,-512"/>
<polygon fill="#63b8ff" stroke="#63b8ff" points="209.91,-515.5 219.91,-512 209.91,-508.5 209.91,-515.5"/>
</a>
</g>
</g>
<!-- Node11 -->
<g id="Node000011" class="node">
<title>Node11</title>
<g id="a_Node000011"><a xlink:href="$classcam_1_1nc_1_1cad__nc__read_1_1Parser.html#adcf2f47949df29f187f27fe985884633" xlink:title=" ">
<polygon fill="white" stroke="#666666" points="387.5,-460.5 211.5,-460.5 211.5,-441.5 387.5,-441.5 387.5,-460.5"/>
<text text-anchor="middle" x="299.5" y="-448.5" font-family="Helvetica,sans-Serif" font-size="10.00">cam.nc.cad_nc_read.Parser.write</text>
</a>
</g>
</g>
<!-- Node1&#45;&gt;Node11 -->
<g id="edge80_Node000001_Node000011" class="edge">
<title>Node1&#45;&gt;Node11</title>
<g id="a_edge80_Node000001_Node000011"><a xlink:title=" ">
<path fill="none" stroke="#63b8ff" d="M116.67,-502.47C153.96,-491.91 214.2,-474.86 255.03,-463.3"/>
<polygon fill="#63b8ff" stroke="#63b8ff" points="256.04,-466.66 264.71,-460.56 254.13,-459.92 256.04,-466.66"/>
</a>
</g>
</g>
<!-- Node12 -->
<g id="Node000012" class="node">
<title>Node12</title>
<g id="a_Node000012"><a xlink:href="$classcam_1_1nc_1_1hxml__writer_1_1HxmlWriter.html#aed6f93c98cb8c0e3f3e826e75b6d6f15" xlink:title=" ">
<polygon fill="white" stroke="#666666" points="399,-405.5 200,-405.5 200,-386.5 399,-386.5 399,-405.5"/>
<text text-anchor="middle" x="299.5" y="-393.5" font-family="Helvetica,sans-Serif" font-size="10.00">cam.nc.hxml_writer.HxmlWriter.write</text>
</a>
</g>
</g>
<!-- Node1&#45;&gt;Node12 -->
<g id="edge82_Node000001_Node000012" class="edge">
<title>Node1&#45;&gt;Node12</title>
<g id="a_edge82_Node000001_Node000012"><a xlink:title=" ">
<path fill="none" stroke="#63b8ff" d="M95.04,-502.46C115.62,-486.49 159.28,-454.03 200,-433 218.35,-423.52 239.71,-415.2 257.83,-408.86"/>
<polygon fill="#63b8ff" stroke="#63b8ff" points="259.2,-412.09 267.53,-405.55 256.94,-405.47 259.2,-412.09"/>
</a>
</g>
</g>
<!-- Node13 -->
<g id="Node000013" class="node">
<title>Node13</title>
<g id="a_Node000013"><a xlink:href="$classcam_1_1nc_1_1iso_1_1Creator.html#abb81af5a0bdddfed387b71b68a51cc7a" xlink:title="Internals.">
<polygon fill="white" stroke="#666666" points="367,-368.5 232,-368.5 232,-349.5 367,-349.5 367,-368.5"/>
<text text-anchor="middle" x="299.5" y="-356.5" font-family="Helvetica,sans-Serif" font-size="10.00">cam.nc.iso.Creator.write</text>
</a>
</g>
</g>
<!-- Node1&#45;&gt;Node13 -->
<g id="edge84_Node000001_Node000013" class="edge">
<title>Node1&#45;&gt;Node13</title>
<g id="a_edge84_Node000001_Node000013"><a xlink:title=" ">
<path fill="none" stroke="#63b8ff" d="M88.33,-502.29C102.7,-477.15 144.85,-409.71 200,-378 206.85,-374.06 214.36,-370.92 222.09,-368.43"/>
<polygon fill="#63b8ff" stroke="#63b8ff" points="223.31,-371.72 231.96,-365.59 221.38,-364.99 223.31,-371.72"/>
</a>
</g>
</g>
<!-- Node14 -->
<g id="Node000014" class="node">
<title>Node14</title>
<g id="a_Node000014"><a xlink:href="$classcam_1_1nc_1_1nc_1_1Creator.html#a80f2134add83bfaaf2870d075d36ed8a" xlink:title=" ">
<polygon fill="white" stroke="#666666" points="365.5,-313.5 233.5,-313.5 233.5,-294.5 365.5,-294.5 365.5,-313.5"/>
<text text-anchor="middle" x="299.5" y="-301.5" font-family="Helvetica,sans-Serif" font-size="10.00">cam.nc.nc.Creator.write</text>
</a>
</g>
</g>
<!-- Node1&#45;&gt;Node14 -->
<g id="edge85_Node000001_Node000014" class="edge">
<title>Node1&#45;&gt;Node14</title>
<g id="a_edge85_Node000001_Node000014"><a xlink:title=" ">
<path fill="none" stroke="#63b8ff" d="M87.04,-502.35C99.52,-473.63 140.27,-387.84 200,-341 213.69,-330.26 230.83,-322.4 246.95,-316.75"/>
<polygon fill="#63b8ff" stroke="#63b8ff" points="248.41,-319.95 256.82,-313.51 246.22,-313.3 248.41,-319.95"/>
</a>
</g>
</g>
<!-- Node15 -->
<g id="Node000015" class="node">
<title>Node15</title>
<g id="a_Node000015"><a xlink:href="$classcam_1_1nc_1_1nclathe__read_1_1Parser.html#ab5ea283b461b57e48c8d5b0ad0a45694" xlink:title=" ">
<polygon fill="white" stroke="#666666" points="388.5,-258.5 210.5,-258.5 210.5,-239.5 388.5,-239.5 388.5,-258.5"/>
<text text-anchor="middle" x="299.5" y="-246.5" font-family="Helvetica,sans-Serif" font-size="10.00">cam.nc.nclathe_read.Parser.write</text>
</a>
</g>
</g>
<!-- Node1&#45;&gt;Node15 -->
<g id="edge87_Node000001_Node000015" class="edge">
<title>Node1&#45;&gt;Node15</title>
<g id="a_edge87_Node000001_Node000015"><a xlink:title=" ">
<path fill="none" stroke="#63b8ff" d="M85.33,-502.3C94.09,-467.78 128.31,-349.67 200,-286 212.33,-275.05 228.21,-267.22 243.6,-261.68"/>
<polygon fill="#63b8ff" stroke="#63b8ff" points="244.71,-265 253.09,-258.51 242.5,-258.36 244.71,-265"/>
</a>
</g>
</g>
<!-- Node16 -->
<g id="Node000016" class="node">
<title>Node16</title>
<g id="a_Node000016"><a xlink:href="$classcam_1_1nc_1_1recreator_1_1Redirector.html#a79cc974683588db3ef959189e7552c0d" xlink:title="Programs.">
<polygon fill="white" stroke="#666666" points="389,-203.5 210,-203.5 210,-184.5 389,-184.5 389,-203.5"/>
<text text-anchor="middle" x="299.5" y="-191.5" font-family="Helvetica,sans-Serif" font-size="10.00">cam.nc.recreator.Redirector.write</text>
</a>
</g>
</g>
<!-- Node1&#45;&gt;Node16 -->
<g id="edge89_Node000001_Node000016" class="edge">
<title>Node1&#45;&gt;Node16</title>
<g id="a_edge89_Node000001_Node000016"><a xlink:title=" ">
<path fill="none" stroke="#63b8ff" d="M84.21,-502.49C89.71,-463.28 115.79,-312.3 200,-231 211.32,-220.07 226.17,-212.31 240.9,-206.82"/>
<polygon fill="#63b8ff" stroke="#63b8ff" points="242.19,-210.08 250.52,-203.53 239.93,-203.45 242.19,-210.08"/>
</a>
</g>
</g>
<!-- Node17 -->
<g id="Node000017" class="node">
<title>Node17</title>
<g id="a_Node000017"><a xlink:href="$classcam_1_1nc_1_1format_1_1Address.html#aa21f0ffeb829537d9103759276c01a4b" xlink:title=" ">
<polygon fill="white" stroke="#666666" points="378.5,-166.5 220.5,-166.5 220.5,-147.5 378.5,-147.5 378.5,-166.5"/>
<text text-anchor="middle" x="299.5" y="-154.5" font-family="Helvetica,sans-Serif" font-size="10.00">cam.nc.format.Address.write</text>
</a>
</g>
</g>
<!-- Node1&#45;&gt;Node17 -->
<g id="edge91_Node000001_Node000017" class="edge">
<title>Node1&#45;&gt;Node17</title>
<g id="a_edge91_Node000001_Node000017"><a xlink:title=" ">
<path fill="none" stroke="#63b8ff" d="M83.11,-502.41C84.16,-457.57 94.89,-266.92 200,-176 203.33,-173.12 206.97,-170.62 210.82,-168.45"/>
<polygon fill="#63b8ff" stroke="#63b8ff" points="212.63,-171.47 220.14,-164 209.61,-165.15 212.63,-171.47"/>
</a>
</g>
</g>
<!-- Node28 -->
<g id="Node000028" class="node">
<title>Node28</title>
<g id="a_Node000028"><a xlink:href="$classcam_1_1nc_1_1format_1_1AddressPlusMinus.html#aaacea4c7b677f0a602dbc9023ff365d2" xlink:title=" ">
<polygon fill="white" stroke="#666666" points="374.5,-129 224.5,-129 224.5,-99 374.5,-99 374.5,-129"/>
<text text-anchor="start" x="232.5" y="-117" font-family="Helvetica,sans-Serif" font-size="10.00">cam.nc.format.AddressPlus</text>
<text text-anchor="middle" x="299.5" y="-106" font-family="Helvetica,sans-Serif" font-size="10.00">Minus.write</text>
</a>
</g>
</g>
<!-- Node1&#45;&gt;Node28 -->
<g id="edge104_Node000001_Node000028" class="edge">
<title>Node1&#45;&gt;Node28</title>
<g id="a_edge104_Node000001_Node000028"><a xlink:title=" ">
<path fill="none" stroke="#63b8ff" d="M82.83,-502.44C82.51,-455.06 87.6,-243.41 200,-138 204.44,-133.83 209.48,-130.36 214.88,-127.46"/>
<polygon fill="#63b8ff" stroke="#63b8ff" points="216.65,-130.49 224.25,-123.1 213.71,-124.14 216.65,-130.49"/>
</a>
</g>
</g>
<!-- Node11&#45;&gt;Node11 -->
<g id="edge81_Node000011_Node000011" class="edge">
<title>Node11&#45;&gt;Node11</title>
<g id="a_edge81_Node000011_Node000011"><a xlink:title=" ">
<path fill="none" stroke="#63b8ff" d="M266.21,-460.58C250.01,-469.23 261.11,-478.5 299.5,-478.5 327.09,-478.5 340.59,-473.71 339.98,-467.81"/>
<polygon fill="#63b8ff" stroke="#63b8ff" points="342.33,-465.2 332.79,-460.58 337.36,-470.14 342.33,-465.2"/>
</a>
</g>
</g>
<!-- Node12&#45;&gt;Node12 -->
<g id="edge83_Node000012_Node000012" class="edge">
<title>Node12&#45;&gt;Node12</title>
<g id="a_edge83_Node000012_Node000012"><a xlink:title=" ">
<path fill="none" stroke="#63b8ff" d="M266.21,-405.58C250.01,-414.23 261.11,-423.5 299.5,-423.5 327.09,-423.5 340.59,-418.71 339.98,-412.81"/>
<polygon fill="#63b8ff" stroke="#63b8ff" points="342.33,-410.2 332.79,-405.58 337.36,-415.14 342.33,-410.2"/>
</a>
</g>
</g>
<!-- Node14&#45;&gt;Node14 -->
<g id="edge86_Node000014_Node000014" class="edge">
<title>Node14&#45;&gt;Node14</title>
<g id="a_edge86_Node000014_Node000014"><a xlink:title=" ">
<path fill="none" stroke="#63b8ff" d="M266.21,-313.58C250.01,-322.23 261.11,-331.5 299.5,-331.5 327.09,-331.5 340.59,-326.71 339.98,-320.81"/>
<polygon fill="#63b8ff" stroke="#63b8ff" points="342.33,-318.2 332.79,-313.58 337.36,-323.14 342.33,-318.2"/>
</a>
</g>
</g>
<!-- Node15&#45;&gt;Node15 -->
<g id="edge88_Node000015_Node000015" class="edge">
<title>Node15&#45;&gt;Node15</title>
<g id="a_edge88_Node000015_Node000015"><a xlink:title=" ">
<path fill="none" stroke="#63b8ff" d="M266.21,-258.58C250.01,-267.23 261.11,-276.5 299.5,-276.5 327.09,-276.5 340.59,-271.71 339.98,-265.81"/>
<polygon fill="#63b8ff" stroke="#63b8ff" points="342.33,-263.2 332.79,-258.58 337.36,-268.14 342.33,-263.2"/>
</a>
</g>
</g>
<!-- Node16&#45;&gt;Node16 -->
<g id="edge90_Node000016_Node000016" class="edge">
<title>Node16&#45;&gt;Node16</title>
<g id="a_edge90_Node000016_Node000016"><a xlink:title=" ">
<path fill="none" stroke="#63b8ff" d="M266.21,-203.58C250.01,-212.23 261.11,-221.5 299.5,-221.5 327.09,-221.5 340.59,-216.71 339.98,-210.81"/>
<polygon fill="#63b8ff" stroke="#63b8ff" points="342.33,-208.2 332.79,-203.58 337.36,-213.14 342.33,-208.2"/>
</a>
</g>
</g>
<!-- Node18 -->
<g id="Node000018" class="node">
<title>Node18</title>
<g id="a_Node000018"><a xlink:href="$classcam_1_1async__op_1_1AsyncOperatorMixin.html#a9628cbca8e69ec75b2337171a02bf428" xlink:title=" ">
<polygon fill="white" stroke="#666666" points="596,-150 435,-150 435,-120 596,-120 596,-150"/>
<text text-anchor="start" x="443" y="-138" font-family="Helvetica,sans-Serif" font-size="10.00">cam.async_op.AsyncOperator</text>
<text text-anchor="middle" x="515.5" y="-127" font-family="Helvetica,sans-Serif" font-size="10.00">Mixin.modal</text>
</a>
</g>
</g>
<!-- Node17&#45;&gt;Node18 -->
<g id="edge92_Node000017_Node000018" class="edge">
<title>Node17&#45;&gt;Node18</title>
<g id="a_edge92_Node000017_Node000018"><a xlink:title=" ">
<path fill="none" stroke="#63b8ff" d="M378.67,-148.96C393.65,-147.42 409.45,-145.8 424.77,-144.22"/>
<polygon fill="#63b8ff" stroke="#63b8ff" points="425.16,-147.7 434.75,-143.2 424.45,-140.74 425.16,-147.7"/>
</a>
</g>
</g>
<!-- Node19 -->
<g id="Node000019" class="node">
<title>Node19</title>
<g id="a_Node000019"><a xlink:href="$classcam_1_1async__op_1_1AsyncOperatorMixin.html#a15a51cfd69d8e453e2e3d64386b1ebe3" xlink:title=" ">
<polygon fill="white" stroke="#666666" points="793,-150 632,-150 632,-120 793,-120 793,-150"/>
<text text-anchor="start" x="640" y="-138" font-family="Helvetica,sans-Serif" font-size="10.00">cam.async_op.AsyncOperator</text>
<text text-anchor="middle" x="712.5" y="-127" font-family="Helvetica,sans-Serif" font-size="10.00">Mixin.tick</text>
</a>
</g>
</g>
<!-- Node18&#45;&gt;Node19 -->
<g id="edge93_Node000018_Node000019" class="edge">
<title>Node18&#45;&gt;Node19</title>
<g id="a_edge93_Node000018_Node000019"><a xlink:title=" ">
<path fill="none" stroke="#63b8ff" d="M596.1,-135C604.57,-135 613.24,-135 621.82,-135"/>
<polygon fill="#63b8ff" stroke="#63b8ff" points="621.84,-138.5 631.84,-135 621.84,-131.5 621.84,-138.5"/>
</a>
</g>
</g>
<!-- Node20 -->
<g id="Node000020" class="node">
<title>Node20</title>
<g id="a_Node000020"><a xlink:href="$classcam_1_1async__op_1_1AsyncTestOperator.html#a42606ca890a957aa7070a4bc6f25228b" xlink:title=" ">
<polygon fill="white" stroke="#666666" points="1050,-270 829,-270 829,-240 1050,-240 1050,-270"/>
<text text-anchor="start" x="837" y="-258" font-family="Helvetica,sans-Serif" font-size="10.00">cam.async_op.AsyncTestOperator.execute</text>
<text text-anchor="middle" x="939.5" y="-247" font-family="Helvetica,sans-Serif" font-size="10.00">_async</text>
</a>
</g>
</g>
<!-- Node19&#45;&gt;Node20 -->
<g id="edge94_Node000019_Node000020" class="edge">
<title>Node19&#45;&gt;Node20</title>
<g id="a_edge94_Node000019_Node000020"><a xlink:title=" ">
<path fill="none" stroke="#63b8ff" d="M727.18,-150.27C747.31,-171.74 787.07,-210.51 829,-231 833.09,-233 837.35,-234.84 841.72,-236.52"/>
<polygon fill="#63b8ff" stroke="#63b8ff" points="840.81,-239.91 851.41,-239.97 843.16,-233.32 840.81,-239.91"/>
</a>
</g>
</g>
<!-- Node21 -->
<g id="Node000021" class="node">
<title>Node21</title>
<g id="a_Node000021"><a xlink:href="$classcam_1_1ops_1_1CalculatePath.html#a13dfe2f8578383234e74e58e2f292e1b" xlink:title=" ">
<polygon fill="white" stroke="#666666" points="1024,-222 855,-222 855,-192 1024,-192 1024,-222"/>
<text text-anchor="start" x="863" y="-210" font-family="Helvetica,sans-Serif" font-size="10.00">cam.ops.CalculatePath.execute</text>
<text text-anchor="middle" x="939.5" y="-199" font-family="Helvetica,sans-Serif" font-size="10.00">_async</text>
</a>
</g>
</g>
<!-- Node19&#45;&gt;Node21 -->
<g id="edge95_Node000019_Node000021" class="edge">
<title>Node19&#45;&gt;Node21</title>
<g id="a_edge95_Node000019_Node000021"><a xlink:title=" ">
<path fill="none" stroke="#63b8ff" d="M745.29,-150.01C768.18,-160.38 800,-173.88 829,-183 836.31,-185.3 843.96,-187.46 851.68,-189.47"/>
<polygon fill="#63b8ff" stroke="#63b8ff" points="850.91,-192.89 861.46,-191.93 852.62,-186.1 850.91,-192.89"/>
</a>
</g>
</g>
<!-- Node23 -->
<g id="Node000023" class="node">
<title>Node23</title>
<g id="a_Node000023"><a xlink:href="$classcam_1_1ops_1_1PathsChain.html#a6fc64e383ccf724b2325e18a82d53eae" xlink:title=" ">
<polygon fill="white" stroke="#666666" points="1017.5,-174 861.5,-174 861.5,-144 1017.5,-144 1017.5,-174"/>
<text text-anchor="start" x="869.5" y="-162" font-family="Helvetica,sans-Serif" font-size="10.00">cam.ops.PathsChain.execute</text>
<text text-anchor="middle" x="939.5" y="-151" font-family="Helvetica,sans-Serif" font-size="10.00">_async</text>
</a>
</g>
</g>
<!-- Node19&#45;&gt;Node23 -->
<g id="edge97_Node000019_Node000023" class="edge">
<title>Node19&#45;&gt;Node23</title>
<g id="a_edge97_Node000019_Node000023"><a xlink:title=" ">
<path fill="none" stroke="#63b8ff" d="M793.14,-143.5C811.9,-145.5 831.98,-147.64 851.06,-149.67"/>
<polygon fill="#63b8ff" stroke="#63b8ff" points="850.92,-153.18 861.23,-150.76 851.66,-146.22 850.92,-153.18"/>
</a>
</g>
</g>
<!-- Node25 -->
<g id="Node000025" class="node">
<title>Node25</title>
<g id="a_Node000025"><a xlink:href="$classcam_1_1ops_1_1CAMSimulate.html#a633151f17849d281fd52ce82c00356a7" xlink:title=" ">
<polygon fill="white" stroke="#666666" points="1023.5,-126 855.5,-126 855.5,-96 1023.5,-96 1023.5,-126"/>
<text text-anchor="start" x="863.5" y="-114" font-family="Helvetica,sans-Serif" font-size="10.00">cam.ops.CAMSimulate.execute</text>
<text text-anchor="middle" x="939.5" y="-103" font-family="Helvetica,sans-Serif" font-size="10.00">_async</text>
</a>
</g>
</g>
<!-- Node19&#45;&gt;Node25 -->
<g id="edge100_Node000019_Node000025" class="edge">
<title>Node19&#45;&gt;Node25</title>
<g id="a_edge100_Node000019_Node000025"><a xlink:title=" ">
<path fill="none" stroke="#63b8ff" d="M793.14,-126.5C809.95,-124.71 827.82,-122.81 845.08,-120.97"/>
<polygon fill="#63b8ff" stroke="#63b8ff" points="845.58,-124.43 855.15,-119.89 844.84,-117.47 845.58,-124.43"/>
</a>
</g>
</g>
<!-- Node26 -->
<g id="Node000026" class="node">
<title>Node26</title>
<g id="a_Node000026"><a xlink:href="$classcam_1_1ops_1_1CAMSimulateChain.html#a1e77c7ce21b3b7e3e38a12b6b62517e9" xlink:title=" ">
<polygon fill="white" stroke="#666666" points="1037.5,-78 841.5,-78 841.5,-48 1037.5,-48 1037.5,-78"/>
<text text-anchor="start" x="849.5" y="-66" font-family="Helvetica,sans-Serif" font-size="10.00">cam.ops.CAMSimulateChain.execute</text>
<text text-anchor="middle" x="939.5" y="-55" font-family="Helvetica,sans-Serif" font-size="10.00">_async</text>
</a>
</g>
</g>
<!-- Node19&#45;&gt;Node26 -->
<g id="edge101_Node000019_Node000026" class="edge">
<title>Node19&#45;&gt;Node26</title>
<g id="a_edge101_Node000019_Node000026"><a xlink:title=" ">
<path fill="none" stroke="#63b8ff" d="M745.29,-119.99C768.18,-109.62 800,-96.12 829,-87 836.31,-84.7 843.96,-82.54 851.68,-80.53"/>
<polygon fill="#63b8ff" stroke="#63b8ff" points="852.62,-83.9 861.46,-78.07 850.91,-77.11 852.62,-83.9"/>
</a>
</g>
</g>
<!-- Node27 -->
<g id="Node000027" class="node">
<title>Node27</title>
<g id="a_Node000027"><a xlink:href="$classcam_1_1async__op_1_1AsyncOperatorMixin.html#a2216ff6bb0dfd132f4ec4cf79b7cba2b" xlink:title=" ">
<polygon fill="white" stroke="#666666" points="1020,-30 859,-30 859,0 1020,0 1020,-30"/>
<text text-anchor="start" x="867" y="-18" font-family="Helvetica,sans-Serif" font-size="10.00">cam.async_op.AsyncOperator</text>
<text text-anchor="middle" x="939.5" y="-7" font-family="Helvetica,sans-Serif" font-size="10.00">Mixin.show_progress</text>
</a>
</g>
</g>
<!-- Node19&#45;&gt;Node27 -->
<g id="edge103_Node000019_Node000027" class="edge">
<title>Node19&#45;&gt;Node27</title>
<g id="a_edge103_Node000019_Node000027"><a xlink:title=" ">
<path fill="none" stroke="#63b8ff" d="M727.18,-119.73C747.31,-98.26 787.07,-59.49 829,-39 835.43,-35.86 842.27,-33.12 849.28,-30.74"/>
<polygon fill="#63b8ff" stroke="#63b8ff" points="850.42,-34.05 858.91,-27.71 848.32,-27.37 850.42,-34.05"/>
</a>
</g>
</g>
<!-- Node22 -->
<g id="Node000022" class="node">
<title>Node22</title>
<g id="a_Node000022"><a xlink:href="$namespacecam_1_1ops.html#aa8e95f7410a7ceb178db48f4f8c2d995" xlink:title=" ">
<polygon fill="white" stroke="#666666" points="1221.5,-192.5 1108.5,-192.5 1108.5,-173.5 1221.5,-173.5 1221.5,-192.5"/>
<text text-anchor="middle" x="1165" y="-180.5" font-family="Helvetica,sans-Serif" font-size="10.00">cam.ops._calc_path</text>
</a>
</g>
</g>
<!-- Node21&#45;&gt;Node22 -->
<g id="edge96_Node000021_Node000022" class="edge">
<title>Node21&#45;&gt;Node22</title>
<g id="a_edge96_Node000021_Node000022"><a xlink:title=" ">
<path fill="none" stroke="#63b8ff" d="M1024.04,-198.03C1048.56,-195.4 1075.01,-192.56 1098.25,-190.06"/>
<polygon fill="#63b8ff" stroke="#63b8ff" points="1098.77,-193.52 1108.34,-188.98 1098.03,-186.56 1098.77,-193.52"/>
</a>
</g>
</g>
<!-- Node23&#45;&gt;Node22 -->
<g id="edge98_Node000023_Node000022" class="edge">
<title>Node23&#45;&gt;Node22</title>
<g id="a_edge98_Node000023_Node000022"><a xlink:title=" ">
<path fill="none" stroke="#63b8ff" d="M1017.73,-167.29C1043.9,-170.1 1072.87,-173.21 1098.08,-175.92"/>
<polygon fill="#63b8ff" stroke="#63b8ff" points="1097.95,-179.43 1108.27,-177.02 1098.7,-172.47 1097.95,-179.43"/>
</a>
</g>
</g>
<!-- Node24 -->
<g id="Node000024" class="node">
<title>Node24</title>
<g id="a_Node000024"><a xlink:href="$namespacecam_1_1ops.html#ab55fb8ec9a00e021e8e4a1c3ecc97cb4" xlink:title=" ">
<polygon fill="white" stroke="#666666" points="1244,-126.5 1086,-126.5 1086,-107.5 1244,-107.5 1244,-126.5"/>
<text text-anchor="middle" x="1165" y="-114.5" font-family="Helvetica,sans-Serif" font-size="10.00">cam.ops.getChainOperations</text>
</a>
</g>
</g>
<!-- Node23&#45;&gt;Node24 -->
<g id="edge99_Node000023_Node000024" class="edge">
<title>Node23&#45;&gt;Node24</title>
<g id="a_edge99_Node000023_Node000024"><a xlink:title=" ">
<path fill="none" stroke="#63b8ff" d="M1017.73,-144.49C1045.81,-139.21 1077.12,-133.33 1103.54,-128.36"/>
<polygon fill="#63b8ff" stroke="#63b8ff" points="1104.23,-131.79 1113.41,-126.51 1102.94,-124.91 1104.23,-131.79"/>
</a>
</g>
</g>
<!-- Node26&#45;&gt;Node24 -->
<g id="edge102_Node000026_Node000024" class="edge">
<title>Node26&#45;&gt;Node24</title>
<g id="a_edge102_Node000026_Node000024"><a xlink:title=" ">
<path fill="none" stroke="#63b8ff" d="M1011.28,-78.06C1024.19,-80.94 1037.51,-83.99 1050,-87 1072.91,-92.52 1098.28,-99.15 1119.25,-104.77"/>
<polygon fill="#63b8ff" stroke="#63b8ff" points="1118.6,-108.21 1129.17,-107.43 1120.42,-101.45 1118.6,-108.21"/>
</a>
</g>
</g>
<!-- Node28&#45;&gt;Node18 -->
<g id="edge105_Node000028_Node000018" class="edge">
<title>Node28&#45;&gt;Node18</title>
<g id="a_edge105_Node000028_Node000018"><a xlink:title=" ">
<path fill="none" stroke="#63b8ff" d="M374.75,-121.29C390.84,-122.87 408.03,-124.55 424.65,-126.18"/>
<polygon fill="#63b8ff" stroke="#63b8ff" points="424.62,-129.7 434.92,-127.19 425.3,-122.73 424.62,-129.7"/>
</a>
</g>
</g>
</g>
</svg>
