<?xml version="1.0" encoding="UTF-8" standalone="no"?>
<!DOCTYPE svg PUBLIC "-//W3C//DTD SVG 1.1//EN"
 "http://www.w3.org/Graphics/SVG/1.1/DTD/svg11.dtd">
<!-- Generated by graphviz version 2.43.0 (0)
 -->
<!-- Title: cam.nc.makerbot_codes.Codes.SPINDLE_CW Pages: 1 -->
<svg width="579pt" height="64pt"
 viewBox="0.00 0.00 579.00 64.00" xmlns="http://www.w3.org/2000/svg" xmlns:xlink="http://www.w3.org/1999/xlink">
<g id="graph0" class="graph" transform="scale(1 1) rotate(0) translate(4 60)">
<title>cam.nc.makerbot_codes.Codes.SPINDLE_CW</title>
<!-- Node1 -->
<g id="Node000001" class="node">
<title>Node1</title>
<g id="a_Node000001"><a xlink:title=" ">
<polygon fill="#999999" stroke="#666666" points="571,-42.5 400,-42.5 400,-12.5 571,-12.5 571,-42.5"/>
<text text-anchor="start" x="408" y="-30.5" font-family="Helvetica,sans-Serif" font-size="10.00">cam.nc.makerbot_codes.Codes.</text>
<text text-anchor="middle" x="485.5" y="-19.5" font-family="Helvetica,sans-Serif" font-size="10.00">SPINDLE_CW</text>
</a>
</g>
</g>
<!-- Node2 -->
<g id="Node000002" class="node">
<title>Node2</title>
<g id="a_Node000002"><a xlink:href="$classcam_1_1nc_1_1heiden_1_1Creator.html#a6b71e184484ffe0dbfe8bf2ba5164992" xlink:title=" ">
<polygon fill="white" stroke="#666666" points="364,-56 200,-56 200,-37 364,-37 364,-56"/>
<text text-anchor="middle" x="282" y="-44" font-family="Helvetica,sans-Serif" font-size="10.00">cam.nc.heiden.Creator.spindle</text>
</a>
</g>
</g>
<!-- Node1&#45;&gt;Node2 -->
<g id="edge9_Node000001_Node000002" class="edge">
<title>Node1&#45;&gt;Node2</title>
<g id="a_edge9_Node000001_Node000002"><a xlink:title=" ">
<path fill="none" stroke="#63b8ff" d="M389.87,-36.42C381.27,-37.23 372.61,-38.05 364.14,-38.85"/>
<polygon fill="#63b8ff" stroke="#63b8ff" points="390.29,-39.9 399.92,-35.48 389.64,-32.93 390.29,-39.9"/>
</a>
</g>
</g>
<!-- Node4 -->
<g id="Node000004" class="node">
<title>Node4</title>
<g id="a_Node000004"><a xlink:href="$classcam_1_1nc_1_1iso_1_1Creator.html#a5e2b864808c8b2ebc4907aaeca143440" xlink:title=" ">
<polygon fill="white" stroke="#666666" points="355,-19 209,-19 209,0 355,0 355,-19"/>
<text text-anchor="middle" x="282" y="-7" font-family="Helvetica,sans-Serif" font-size="10.00">cam.nc.iso.Creator.spindle</text>
</a>
</g>
</g>
<!-- Node1&#45;&gt;Node4 -->
<g id="edge11_Node000001_Node000004" class="edge">
<title>Node1&#45;&gt;Node4</title>
<g id="a_edge11_Node000001_Node000004"><a xlink:title=" ">
<path fill="none" stroke="#63b8ff" d="M389.76,-19.04C378.15,-18 366.43,-16.95 355.23,-15.95"/>
<polygon fill="#63b8ff" stroke="#63b8ff" points="389.65,-22.54 399.92,-19.94 390.27,-15.57 389.65,-22.54"/>
</a>
</g>
</g>
<!-- Node3 -->
<g id="Node000003" class="node">
<title>Node3</title>
<g id="a_Node000003"><a xlink:href="$classcam_1_1nc_1_1printbot3d_1_1CreatorPrintbot.html#ad8959d99f932a67a51efbc379bf67b04" xlink:title=" ">
<polygon fill="white" stroke="#666666" points="164,-42.5 0,-42.5 0,-12.5 164,-12.5 164,-42.5"/>
<text text-anchor="start" x="8" y="-30.5" font-family="Helvetica,sans-Serif" font-size="10.00">cam.nc.printbot3d.Creator</text>
<text text-anchor="middle" x="82" y="-19.5" font-family="Helvetica,sans-Serif" font-size="10.00">Printbot.set_extruder_flowrate</text>
</a>
</g>
</g>
<!-- Node2&#45;&gt;Node3 -->
<g id="edge10_Node000002_Node000003" class="edge">
<title>Node2&#45;&gt;Node3</title>
<g id="a_edge10_Node000002_Node000003"><a xlink:title=" ">
<path fill="none" stroke="#63b8ff" d="M189.92,-37.76C181.37,-36.94 172.75,-36.11 164.3,-35.3"/>
<polygon fill="#63b8ff" stroke="#63b8ff" points="189.61,-41.25 199.89,-38.72 190.27,-34.28 189.61,-41.25"/>
</a>
</g>
</g>
<!-- Node4&#45;&gt;Node3 -->
<g id="edge12_Node000004_Node000003" class="edge">
<title>Node4&#45;&gt;Node3</title>
<g id="a_edge12_Node000004_Node000003"><a xlink:title=" ">
<path fill="none" stroke="#63b8ff" d="M198.92,-16.96C187.39,-18.01 175.55,-19.09 164.04,-20.13"/>
<polygon fill="#63b8ff" stroke="#63b8ff" points="199.32,-20.44 208.96,-16.05 198.68,-13.47 199.32,-20.44"/>
</a>
</g>
</g>
</g>
</svg>
