<?xml version="1.0" encoding="UTF-8" standalone="no"?>
<!DOCTYPE svg PUBLIC "-//W3C//DTD SVG 1.1//EN"
 "http://www.w3.org/Graphics/SVG/1.1/DTD/svg11.dtd">
<!-- Generated by graphviz version 2.43.0 (0)
 -->
<!-- Title: cam.curvecamequation.CamCustomCurve Pages: 1 -->
<svg width="474pt" height="186pt"
 viewBox="0.00 0.00 474.00 186.00" xmlns="http://www.w3.org/2000/svg" xmlns:xlink="http://www.w3.org/1999/xlink">
<g id="graph0" class="graph" transform="scale(1 1) rotate(0) translate(4 182)">
<title>cam.curvecamequation.CamCustomCurve</title>
<!-- Node1 -->
<g id="Node000001" class="node">
<title>Node1</title>
<g id="a_Node000001"><a xlink:title=" ">
<polygon fill="#999999" stroke="transparent" points="286,-60 135,-60 135,0 286,0 286,-60"/>
<text text-anchor="start" x="140.5" y="-48" font-family="Helvetica,sans-Serif" font-size="10.00">cam.curvecamequation.Cam</text>
<text text-anchor="start" x="177.5" y="-37" font-family="Helvetica,sans-Serif" font-size="10.00">CustomCurve</text>
<text text-anchor="start" x="209" y="-22" font-family="Helvetica,sans-Serif" font-size="10.00"> </text>
<text text-anchor="start" x="160.5" y="-7" font-family="Helvetica,sans-Serif" font-size="10.00">+</text>
<text text-anchor="start" x="194.5" y="-7" font-family="Helvetica,sans-Serif" font-size="10.00">execute()</text>
<polygon fill="#666666" stroke="#666666" points="135.5,-32 135.5,-32 286.5,-32 286.5,-32 135.5,-32"/>
<polygon fill="#666666" stroke="#666666" points="135.5,-17 135.5,-17 286.5,-17 286.5,-17 135.5,-17"/>
<polygon fill="none" stroke="#666666" points="135,0 135,-60 286,-60 286,0 135,0"/>
</a>
</g>
</g>
<!-- Node2 -->
<g id="Node000002" class="node">
<title>Node2</title>
<g id="a_Node000002"><a xlink:title=" ">
<polygon fill="white" stroke="transparent" points="53,-178 0,-178 0,-129 53,-129 53,-178"/>
<text text-anchor="start" x="5.5" y="-165.5" font-family="Helvetica,sans-Serif" font-size="10.00">Operator</text>
<text text-anchor="start" x="25" y="-150.5" font-family="Helvetica,sans-Serif" font-size="10.00"> </text>
<text text-anchor="start" x="25" y="-135.5" font-family="Helvetica,sans-Serif" font-size="10.00"> </text>
<polygon fill="#666666" stroke="#666666" points="0.5,-160.5 0.5,-160.5 53.5,-160.5 53.5,-160.5 0.5,-160.5"/>
<polygon fill="#666666" stroke="#666666" points="0.5,-145.5 0.5,-145.5 53.5,-145.5 53.5,-145.5 0.5,-145.5"/>
<polygon fill="none" stroke="#666666" points="0,-129 0,-178 53,-178 53,-129 0,-129"/>
</a>
</g>
</g>
<!-- Node2&#45;&gt;Node1 -->
<g id="edge13_Node000001_Node000002" class="edge">
<title>Node2&#45;&gt;Node1</title>
<g id="a_edge13_Node000001_Node000002"><a xlink:title=" ">
<path fill="none" stroke="#63b8ff" d="M42.2,-119.92C50.62,-105.37 62.22,-89.05 76.5,-78 93.56,-64.8 114.61,-55.13 134.94,-48.12"/>
<polygon fill="none" stroke="#63b8ff" points="39.13,-118.24 37.37,-128.69 45.26,-121.62 39.13,-118.24"/>
</a>
</g>
</g>
<!-- Node3 -->
<g id="Node000003" class="node">
<title>Node3</title>
<g id="a_Node000003"><a xlink:title=" ">
<polygon fill="white" stroke="transparent" points="94,-178 71,-178 71,-129 94,-129 94,-178"/>
<text text-anchor="start" x="76.5" y="-165.5" font-family="Helvetica,sans-Serif" font-size="10.00">str</text>
<text text-anchor="start" x="81" y="-150.5" font-family="Helvetica,sans-Serif" font-size="10.00"> </text>
<text text-anchor="start" x="81" y="-135.5" font-family="Helvetica,sans-Serif" font-size="10.00"> </text>
<polygon fill="#666666" stroke="#666666" points="71.5,-160.5 71.5,-160.5 94.5,-160.5 94.5,-160.5 71.5,-160.5"/>
<polygon fill="#666666" stroke="#666666" points="71.5,-145.5 71.5,-145.5 94.5,-145.5 94.5,-145.5 71.5,-145.5"/>
<polygon fill="none" stroke="#666666" points="71,-129 71,-178 94,-178 94,-129 71,-129"/>
</a>
</g>
</g>
<!-- Node3&#45;&gt;Node1 -->
<g id="edge14_Node000001_Node000003" class="edge">
<title>Node3&#45;&gt;Node1</title>
<g id="a_edge14_Node000001_Node000003"><a xlink:title=" ">
<path fill="none" stroke="#63b8ff" d="M80.24,-128.98C79.97,-113.01 82.25,-92.27 93.5,-78 101.59,-67.73 112.28,-59.7 123.91,-53.42"/>
<polygon fill="none" stroke="#63b8ff" points="124.01,-53.37 127.65,-47.15 134.8,-48.12 131.15,-54.34 124.01,-53.37"/>
</a>
</g>
<text text-anchor="middle" x="125" y="-97.5" font-family="Helvetica,sans-Serif" font-size="10.00" fill="grey"> +bl_idname</text>
<text text-anchor="middle" x="125" y="-86.5" font-family="Helvetica,sans-Serif" font-size="10.00" fill="grey">+bl_label</text>
</g>
<!-- Node4 -->
<g id="Node000004" class="node">
<title>Node4</title>
<g id="a_Node000004"><a xlink:title=" ">
<polygon fill="white" stroke="transparent" points="183,-178 154,-178 154,-129 183,-129 183,-178"/>
<text text-anchor="start" x="159.5" y="-165.5" font-family="Helvetica,sans-Serif" font-size="10.00">dict</text>
<text text-anchor="start" x="167" y="-150.5" font-family="Helvetica,sans-Serif" font-size="10.00"> </text>
<text text-anchor="start" x="167" y="-135.5" font-family="Helvetica,sans-Serif" font-size="10.00"> </text>
<polygon fill="#666666" stroke="#666666" points="154.5,-160.5 154.5,-160.5 183.5,-160.5 183.5,-160.5 154.5,-160.5"/>
<polygon fill="#666666" stroke="#666666" points="154.5,-145.5 154.5,-145.5 183.5,-145.5 183.5,-145.5 154.5,-145.5"/>
<polygon fill="none" stroke="#666666" points="154,-129 154,-178 183,-178 183,-129 154,-129"/>
</a>
</g>
</g>
<!-- Node4&#45;&gt;Node1 -->
<g id="edge15_Node000001_Node000004" class="edge">
<title>Node4&#45;&gt;Node1</title>
<g id="a_edge15_Node000001_Node000004"><a xlink:title=" ">
<path fill="none" stroke="#63b8ff" d="M162.7,-128.83C160.16,-113.75 159.04,-94.1 165.5,-78 166.58,-75.3 167.9,-72.67 169.4,-70.12"/>
<polygon fill="none" stroke="#63b8ff" points="169.52,-69.95 169.7,-62.75 176.42,-60.14 176.24,-67.34 169.52,-69.95"/>
</a>
</g>
<text text-anchor="middle" x="196.5" y="-92" font-family="Helvetica,sans-Serif" font-size="10.00" fill="grey"> +bl_options</text>
</g>
<!-- Node5 -->
<g id="Node000005" class="node">
<title>Node5</title>
<g id="a_Node000005"><a xlink:title=" ">
<polygon fill="white" stroke="transparent" points="287.5,-178 207.5,-178 207.5,-129 287.5,-129 287.5,-178"/>
<text text-anchor="start" x="212.5" y="-165.5" font-family="Helvetica,sans-Serif" font-size="10.00">StringProperty</text>
<text text-anchor="start" x="245.5" y="-150.5" font-family="Helvetica,sans-Serif" font-size="10.00"> </text>
<text text-anchor="start" x="245.5" y="-135.5" font-family="Helvetica,sans-Serif" font-size="10.00"> </text>
<polygon fill="#666666" stroke="#666666" points="207.5,-160.5 207.5,-160.5 287.5,-160.5 287.5,-160.5 207.5,-160.5"/>
<polygon fill="#666666" stroke="#666666" points="207.5,-145.5 207.5,-145.5 287.5,-145.5 287.5,-145.5 207.5,-145.5"/>
<polygon fill="none" stroke="#666666" points="207.5,-129 207.5,-178 287.5,-178 287.5,-129 207.5,-129"/>
</a>
</g>
</g>
<!-- Node5&#45;&gt;Node1 -->
<g id="edge16_Node000001_Node000005" class="edge">
<title>Node5&#45;&gt;Node1</title>
<g id="a_edge16_Node000001_Node000005"><a xlink:title=" ">
<path fill="none" stroke="#63b8ff" d="M243.69,-128.68C241.01,-113.89 236.92,-94.6 231.5,-78 230.81,-75.89 230.06,-73.75 229.26,-71.61"/>
<polygon fill="none" stroke="#63b8ff" points="229.16,-71.35 223.21,-67.27 224.68,-60.21 230.63,-64.29 229.16,-71.35"/>
</a>
</g>
<text text-anchor="middle" x="262.5" y="-103" font-family="Helvetica,sans-Serif" font-size="10.00" fill="grey"> +xstring</text>
<text text-anchor="middle" x="262.5" y="-92" font-family="Helvetica,sans-Serif" font-size="10.00" fill="grey">+ystring</text>
<text text-anchor="middle" x="262.5" y="-81" font-family="Helvetica,sans-Serif" font-size="10.00" fill="grey">+zstring</text>
</g>
<!-- Node6 -->
<g id="Node000006" class="node">
<title>Node6</title>
<g id="a_Node000006"><a xlink:title=" ">
<polygon fill="white" stroke="transparent" points="371,-178 306,-178 306,-129 371,-129 371,-178"/>
<text text-anchor="start" x="311.5" y="-165.5" font-family="Helvetica,sans-Serif" font-size="10.00">IntProperty</text>
<text text-anchor="start" x="337" y="-150.5" font-family="Helvetica,sans-Serif" font-size="10.00"> </text>
<text text-anchor="start" x="337" y="-135.5" font-family="Helvetica,sans-Serif" font-size="10.00"> </text>
<polygon fill="#666666" stroke="#666666" points="306.5,-160.5 306.5,-160.5 371.5,-160.5 371.5,-160.5 306.5,-160.5"/>
<polygon fill="#666666" stroke="#666666" points="306.5,-145.5 306.5,-145.5 371.5,-145.5 371.5,-145.5 306.5,-145.5"/>
<polygon fill="none" stroke="#666666" points="306,-129 306,-178 371,-178 371,-129 306,-129"/>
</a>
</g>
</g>
<!-- Node6&#45;&gt;Node1 -->
<g id="edge17_Node000001_Node000006" class="edge">
<title>Node6&#45;&gt;Node1</title>
<g id="a_edge17_Node000001_Node000006"><a xlink:title=" ">
<path fill="none" stroke="#63b8ff" d="M326.52,-128.67C317.79,-112.96 304.83,-92.65 289.5,-78 285.57,-74.24 281.28,-70.65 276.8,-67.24"/>
<polygon fill="none" stroke="#63b8ff" points="276.53,-67.06 269.33,-66.84 266.75,-60.1 273.96,-60.32 276.53,-67.06"/>
</a>
</g>
<text text-anchor="middle" x="341" y="-92" font-family="Helvetica,sans-Serif" font-size="10.00" fill="grey"> +iteration</text>
</g>
<!-- Node7 -->
<g id="Node000007" class="node">
<title>Node7</title>
<g id="a_Node000007"><a xlink:title=" ">
<polygon fill="white" stroke="transparent" points="466,-178 389,-178 389,-129 466,-129 466,-178"/>
<text text-anchor="start" x="394.5" y="-165.5" font-family="Helvetica,sans-Serif" font-size="10.00">FloatProperty</text>
<text text-anchor="start" x="426" y="-150.5" font-family="Helvetica,sans-Serif" font-size="10.00"> </text>
<text text-anchor="start" x="426" y="-135.5" font-family="Helvetica,sans-Serif" font-size="10.00"> </text>
<polygon fill="#666666" stroke="#666666" points="389.5,-160.5 389.5,-160.5 466.5,-160.5 466.5,-160.5 389.5,-160.5"/>
<polygon fill="#666666" stroke="#666666" points="389.5,-145.5 389.5,-145.5 466.5,-145.5 466.5,-145.5 389.5,-145.5"/>
<polygon fill="none" stroke="#666666" points="389,-129 389,-178 466,-178 466,-129 389,-129"/>
</a>
</g>
</g>
<!-- Node7&#45;&gt;Node1 -->
<g id="edge18_Node000001_Node000007" class="edge">
<title>Node7&#45;&gt;Node1</title>
<g id="a_edge18_Node000001_Node000007"><a xlink:title=" ">
<path fill="none" stroke="#63b8ff" d="M415.11,-128.76C405.35,-112.26 390.26,-90.98 371.5,-78 349.79,-62.99 323.27,-52.71 298.07,-45.7"/>
<polygon fill="none" stroke="#63b8ff" points="297.83,-45.64 291.02,-48 286.22,-42.61 293.03,-40.26 297.83,-45.64"/>
</a>
</g>
<text text-anchor="middle" x="421" y="-97.5" font-family="Helvetica,sans-Serif" font-size="10.00" fill="grey"> +maxt</text>
<text text-anchor="middle" x="421" y="-86.5" font-family="Helvetica,sans-Serif" font-size="10.00" fill="grey">+mint</text>
</g>
</g>
</svg>
