<?xml version="1.0" encoding="UTF-8" standalone="no"?>
<!DOCTYPE svg PUBLIC "-//W3C//DTD SVG 1.1//EN"
 "http://www.w3.org/Graphics/SVG/1.1/DTD/svg11.dtd">
<!-- Generated by graphviz version 2.43.0 (0)
 -->
<!-- Title: cam.nc.heiden.Creator.COOLANT_MIST Pages: 1 -->
<svg width="415pt" height="64pt"
 viewBox="0.00 0.00 415.00 64.00" xmlns="http://www.w3.org/2000/svg" xmlns:xlink="http://www.w3.org/1999/xlink">
<g id="graph0" class="graph" transform="scale(1 1) rotate(0) translate(4 60)">
<title>cam.nc.heiden.Creator.COOLANT_MIST</title>
<!-- Node1 -->
<g id="Node000001" class="node">
<title>Node1</title>
<g id="a_Node000001"><a xlink:title=" ">
<polygon fill="#999999" stroke="#666666" points="407,-37 201,-37 201,-18 407,-18 407,-37"/>
<text text-anchor="middle" x="304" y="-25" font-family="Helvetica,sans-Serif" font-size="10.00">cam.nc.heiden.Creator.COOLANT_MIST</text>
</a>
</g>
</g>
<!-- Node2 -->
<g id="Node000002" class="node">
<title>Node2</title>
<g id="a_Node000002"><a xlink:href="$classcam_1_1nc_1_1heiden_1_1Creator.html#a7036356988aeecbeca61cf3dfc398e22" xlink:title=" ">
<polygon fill="white" stroke="#666666" points="165,-56 0,-56 0,-37 165,-37 165,-56"/>
<text text-anchor="middle" x="82.5" y="-44" font-family="Helvetica,sans-Serif" font-size="10.00">cam.nc.heiden.Creator.coolant</text>
</a>
</g>
</g>
<!-- Node1&#45;&gt;Node2 -->
<g id="edge5_Node000001_Node000002" class="edge">
<title>Node1&#45;&gt;Node2</title>
<g id="a_edge5_Node000001_Node000002"><a xlink:title=" ">
<path fill="none" stroke="#63b8ff" d="M190.84,-37.21C182.21,-37.96 173.6,-38.7 165.23,-39.43"/>
<polygon fill="#63b8ff" stroke="#63b8ff" points="191.3,-40.68 200.96,-36.33 190.7,-33.71 191.3,-40.68"/>
</a>
</g>
</g>
<!-- Node3 -->
<g id="Node000003" class="node">
<title>Node3</title>
<g id="a_Node000003"><a xlink:href="$classcam_1_1nc_1_1iso_1_1Creator.html#a3e23cee17ea4e06b916e1472c938fad6" xlink:title=" ">
<polygon fill="white" stroke="#666666" points="155.5,-19 9.5,-19 9.5,0 155.5,0 155.5,-19"/>
<text text-anchor="middle" x="82.5" y="-7" font-family="Helvetica,sans-Serif" font-size="10.00">cam.nc.iso.Creator.coolant</text>
</a>
</g>
</g>
<!-- Node1&#45;&gt;Node3 -->
<g id="edge6_Node000001_Node000003" class="edge">
<title>Node1&#45;&gt;Node3</title>
<g id="a_edge6_Node000001_Node000003"><a xlink:title=" ">
<path fill="none" stroke="#63b8ff" d="M190.88,-18.31C178.87,-17.32 166.9,-16.34 155.55,-15.41"/>
<polygon fill="#63b8ff" stroke="#63b8ff" points="190.71,-21.8 200.96,-19.13 191.28,-14.83 190.71,-21.8"/>
</a>
</g>
</g>
</g>
</svg>
