<?xml version="1.0" encoding="UTF-8" standalone="no"?>
<!DOCTYPE svg PUBLIC "-//W3C//DTD SVG 1.1//EN"
 "http://www.w3.org/Graphics/SVG/1.1/DTD/svg11.dtd">
<!-- Generated by graphviz version 2.43.0 (0)
 -->
<!-- Title: cam.nc.hpgl2d.Creator Pages: 1 -->
<svg width="274pt" height="737pt"
 viewBox="0.00 0.00 273.50 737.00" xmlns="http://www.w3.org/2000/svg" xmlns:xlink="http://www.w3.org/1999/xlink">
<g id="graph0" class="graph" transform="scale(1 1) rotate(0) translate(4 733)">
<title>cam.nc.hpgl2d.Creator</title>
<!-- Node1 -->
<g id="Node000001" class="node">
<title>Node1</title>
<g id="a_Node000001"><a xlink:title=" ">
<polygon fill="#999999" stroke="transparent" points="194.5,-479 73.5,-479 73.5,-220 194.5,-220 194.5,-479"/>
<text text-anchor="start" x="79" y="-466.5" font-family="Helvetica,sans-Serif" font-size="10.00">cam.nc.hpgl2d.Creator</text>
<text text-anchor="start" x="79.5" y="-451.5" font-family="Helvetica,sans-Serif" font-size="10.00">+</text>
<text text-anchor="start" x="94" y="-451.5" font-family="Helvetica,sans-Serif" font-size="10.00">x</text>
<text text-anchor="start" x="79.5" y="-436.5" font-family="Helvetica,sans-Serif" font-size="10.00">+</text>
<text text-anchor="start" x="94" y="-436.5" font-family="Helvetica,sans-Serif" font-size="10.00">y</text>
<text text-anchor="start" x="79.5" y="-421.5" font-family="Helvetica,sans-Serif" font-size="10.00">+</text>
<text text-anchor="start" x="94" y="-421.5" font-family="Helvetica,sans-Serif" font-size="10.00">units_to_mc_units</text>
<text text-anchor="start" x="79.5" y="-406.5" font-family="Helvetica,sans-Serif" font-size="10.00">+</text>
<text text-anchor="start" x="94" y="-406.5" font-family="Helvetica,sans-Serif" font-size="10.00">creator</text>
<text text-anchor="start" x="79.5" y="-391.5" font-family="Helvetica,sans-Serif" font-size="10.00">+</text>
<text text-anchor="start" x="94" y="-391.5" font-family="Helvetica,sans-Serif" font-size="10.00">__init__()</text>
<text text-anchor="start" x="79.5" y="-376.5" font-family="Helvetica,sans-Serif" font-size="10.00">+</text>
<text text-anchor="start" x="94" y="-376.5" font-family="Helvetica,sans-Serif" font-size="10.00">imperial()</text>
<text text-anchor="start" x="79.5" y="-361.5" font-family="Helvetica,sans-Serif" font-size="10.00">+</text>
<text text-anchor="start" x="94" y="-361.5" font-family="Helvetica,sans-Serif" font-size="10.00">metric()</text>
<text text-anchor="start" x="79.5" y="-346.5" font-family="Helvetica,sans-Serif" font-size="10.00">+</text>
<text text-anchor="start" x="94" y="-346.5" font-family="Helvetica,sans-Serif" font-size="10.00">program_begin()</text>
<text text-anchor="start" x="79.5" y="-331.5" font-family="Helvetica,sans-Serif" font-size="10.00">+</text>
<text text-anchor="start" x="94" y="-331.5" font-family="Helvetica,sans-Serif" font-size="10.00">program_end()</text>
<text text-anchor="start" x="79.5" y="-316.5" font-family="Helvetica,sans-Serif" font-size="10.00">+</text>
<text text-anchor="start" x="94" y="-316.5" font-family="Helvetica,sans-Serif" font-size="10.00">closest_int()</text>
<text text-anchor="start" x="79.5" y="-301.5" font-family="Helvetica,sans-Serif" font-size="10.00">+</text>
<text text-anchor="start" x="94" y="-301.5" font-family="Helvetica,sans-Serif" font-size="10.00">get_machine_x_y()</text>
<text text-anchor="start" x="79.5" y="-286.5" font-family="Helvetica,sans-Serif" font-size="10.00">+</text>
<text text-anchor="start" x="94" y="-286.5" font-family="Helvetica,sans-Serif" font-size="10.00">rapid()</text>
<text text-anchor="start" x="79.5" y="-271.5" font-family="Helvetica,sans-Serif" font-size="10.00">+</text>
<text text-anchor="start" x="94" y="-271.5" font-family="Helvetica,sans-Serif" font-size="10.00">feed()</text>
<text text-anchor="start" x="79.5" y="-256.5" font-family="Helvetica,sans-Serif" font-size="10.00">+</text>
<text text-anchor="start" x="94" y="-256.5" font-family="Helvetica,sans-Serif" font-size="10.00">arc()</text>
<text text-anchor="start" x="79.5" y="-241.5" font-family="Helvetica,sans-Serif" font-size="10.00">+</text>
<text text-anchor="start" x="94" y="-241.5" font-family="Helvetica,sans-Serif" font-size="10.00">arc_cw()</text>
<text text-anchor="start" x="79.5" y="-226.5" font-family="Helvetica,sans-Serif" font-size="10.00">+</text>
<text text-anchor="start" x="94" y="-226.5" font-family="Helvetica,sans-Serif" font-size="10.00">arc_ccw()</text>
<polygon fill="#666666" stroke="#666666" points="74,-461.5 74,-461.5 195,-461.5 195,-461.5 74,-461.5"/>
<polygon fill="#666666" stroke="#666666" points="74,-401.5 74,-401.5 92,-401.5 92,-401.5 74,-401.5"/>
<polygon fill="#666666" stroke="#666666" points="92,-401.5 92,-401.5 195,-401.5 195,-401.5 92,-401.5"/>
<polygon fill="none" stroke="#666666" points="73.5,-220 73.5,-479 194.5,-479 194.5,-220 73.5,-220"/>
</a>
</g>
</g>
<!-- Node3 -->
<g id="Node000003" class="node">
<title>Node3</title>
<g id="a_Node000003"><a xlink:href="$classcam_1_1nc_1_1hpgl2dv_1_1Creator.html" xlink:title=" ">
<polygon fill="white" stroke="transparent" points="126,-139 0,-139 0,-45 126,-45 126,-139"/>
<text text-anchor="start" x="5" y="-127" font-family="Helvetica,sans-Serif" font-size="10.00">cam.nc.hpgl2dv.Creator</text>
<text text-anchor="start" x="8" y="-112" font-family="Helvetica,sans-Serif" font-size="10.00">+</text>
<text text-anchor="start" x="25" y="-112" font-family="Helvetica,sans-Serif" font-size="10.00">units_to_mc_units</text>
<text text-anchor="start" x="8" y="-97" font-family="Helvetica,sans-Serif" font-size="10.00">+</text>
<text text-anchor="start" x="25" y="-97" font-family="Helvetica,sans-Serif" font-size="10.00">creator</text>
<text text-anchor="start" x="8" y="-82" font-family="Helvetica,sans-Serif" font-size="10.00">+</text>
<text text-anchor="start" x="25" y="-82" font-family="Helvetica,sans-Serif" font-size="10.00">__init__()</text>
<text text-anchor="start" x="8" y="-67" font-family="Helvetica,sans-Serif" font-size="10.00">+</text>
<text text-anchor="start" x="25" y="-67" font-family="Helvetica,sans-Serif" font-size="10.00">imperial()</text>
<text text-anchor="start" x="8" y="-52" font-family="Helvetica,sans-Serif" font-size="10.00">+</text>
<text text-anchor="start" x="25" y="-52" font-family="Helvetica,sans-Serif" font-size="10.00">metric()</text>
<polygon fill="#666666" stroke="#666666" points="0,-122 0,-122 126,-122 126,-122 0,-122"/>
<polygon fill="#666666" stroke="#666666" points="0,-92 0,-92 23,-92 23,-92 0,-92"/>
<polygon fill="#666666" stroke="#666666" points="23,-92 23,-92 126,-92 126,-92 23,-92"/>
<polygon fill="none" stroke="#666666" points="0,-45 0,-139 126,-139 126,-45 0,-45"/>
</a>
</g>
</g>
<!-- Node1&#45;&gt;Node3 -->
<g id="edge8_Node000001_Node000003" class="edge">
<title>Node1&#45;&gt;Node3</title>
<g id="a_edge8_Node000001_Node000003"><a xlink:title=" ">
<path fill="none" stroke="#63b8ff" d="M95.46,-209.82C88.36,-184.28 81.43,-159.32 75.81,-139.08"/>
<polygon fill="none" stroke="#63b8ff" points="92.14,-210.93 98.19,-219.63 98.88,-209.06 92.14,-210.93"/>
</a>
</g>
</g>
<!-- Node4 -->
<g id="Node000004" class="node">
<title>Node4</title>
<g id="a_Node000004"><a xlink:href="$classcam_1_1nc_1_1hpgl3d_1_1Creator.html" xlink:title=" ">
<polygon fill="white" stroke="transparent" points="265.5,-184 144.5,-184 144.5,0 265.5,0 265.5,-184"/>
<text text-anchor="start" x="150" y="-172" font-family="Helvetica,sans-Serif" font-size="10.00">cam.nc.hpgl3d.Creator</text>
<text text-anchor="start" x="150.5" y="-157" font-family="Helvetica,sans-Serif" font-size="10.00">+</text>
<text text-anchor="start" x="165" y="-157" font-family="Helvetica,sans-Serif" font-size="10.00">z</text>
<text text-anchor="start" x="150.5" y="-142" font-family="Helvetica,sans-Serif" font-size="10.00">+</text>
<text text-anchor="start" x="165" y="-142" font-family="Helvetica,sans-Serif" font-size="10.00">doing_rapid</text>
<text text-anchor="start" x="150.5" y="-127" font-family="Helvetica,sans-Serif" font-size="10.00">+</text>
<text text-anchor="start" x="165" y="-127" font-family="Helvetica,sans-Serif" font-size="10.00">x</text>
<text text-anchor="start" x="150.5" y="-112" font-family="Helvetica,sans-Serif" font-size="10.00">+</text>
<text text-anchor="start" x="165" y="-112" font-family="Helvetica,sans-Serif" font-size="10.00">y</text>
<text text-anchor="start" x="150.5" y="-97" font-family="Helvetica,sans-Serif" font-size="10.00">+</text>
<text text-anchor="start" x="165" y="-97" font-family="Helvetica,sans-Serif" font-size="10.00">creator</text>
<text text-anchor="start" x="150.5" y="-82" font-family="Helvetica,sans-Serif" font-size="10.00">+</text>
<text text-anchor="start" x="165" y="-82" font-family="Helvetica,sans-Serif" font-size="10.00">__init__()</text>
<text text-anchor="start" x="150.5" y="-67" font-family="Helvetica,sans-Serif" font-size="10.00">+</text>
<text text-anchor="start" x="165" y="-67" font-family="Helvetica,sans-Serif" font-size="10.00">program_begin()</text>
<text text-anchor="start" x="150.5" y="-52" font-family="Helvetica,sans-Serif" font-size="10.00">+</text>
<text text-anchor="start" x="165" y="-52" font-family="Helvetica,sans-Serif" font-size="10.00">program_end()</text>
<text text-anchor="start" x="150.5" y="-37" font-family="Helvetica,sans-Serif" font-size="10.00">+</text>
<text text-anchor="start" x="165" y="-37" font-family="Helvetica,sans-Serif" font-size="10.00">get_machine_xyz()</text>
<text text-anchor="start" x="150.5" y="-22" font-family="Helvetica,sans-Serif" font-size="10.00">+</text>
<text text-anchor="start" x="165" y="-22" font-family="Helvetica,sans-Serif" font-size="10.00">rapid()</text>
<text text-anchor="start" x="150.5" y="-7" font-family="Helvetica,sans-Serif" font-size="10.00">+</text>
<text text-anchor="start" x="165" y="-7" font-family="Helvetica,sans-Serif" font-size="10.00">feed()</text>
<polygon fill="#666666" stroke="#666666" points="145,-167 145,-167 266,-167 266,-167 145,-167"/>
<polygon fill="#666666" stroke="#666666" points="145,-92 145,-92 163,-92 163,-92 145,-92"/>
<polygon fill="#666666" stroke="#666666" points="163,-92 163,-92 266,-92 266,-92 163,-92"/>
<polygon fill="none" stroke="#666666" points="144.5,0 144.5,-184 265.5,-184 265.5,0 144.5,0"/>
</a>
</g>
</g>
<!-- Node1&#45;&gt;Node4 -->
<g id="edge9_Node000001_Node000004" class="edge">
<title>Node1&#45;&gt;Node4</title>
<g id="a_edge9_Node000001_Node000004"><a xlink:title=" ">
<path fill="none" stroke="#63b8ff" d="M172.55,-209.77C174.97,-201.06 177.37,-192.41 179.71,-184"/>
<polygon fill="none" stroke="#63b8ff" points="169.12,-209.06 169.81,-219.63 175.86,-210.93 169.12,-209.06"/>
</a>
</g>
</g>
<!-- Node2 -->
<g id="Node000002" class="node">
<title>Node2</title>
<g id="a_Node000002"><a xlink:href="$classcam_1_1nc_1_1nc_1_1Creator.html" xlink:title=" ">
<polygon fill="white" stroke="transparent" points="185.5,-729 82.5,-729 82.5,-515 185.5,-515 185.5,-729"/>
<text text-anchor="start" x="90" y="-717" font-family="Helvetica,sans-Serif" font-size="10.00">cam.nc.nc.Creator</text>
<text text-anchor="start" x="87" y="-702" font-family="Helvetica,sans-Serif" font-size="10.00">+</text>
<text text-anchor="start" x="100" y="-702" font-family="Helvetica,sans-Serif" font-size="10.00">file</text>
<text text-anchor="start" x="87" y="-687" font-family="Helvetica,sans-Serif" font-size="10.00">+</text>
<text text-anchor="start" x="100" y="-687" font-family="Helvetica,sans-Serif" font-size="10.00">filename</text>
<text text-anchor="start" x="87" y="-672" font-family="Helvetica,sans-Serif" font-size="10.00">+</text>
<text text-anchor="start" x="100" y="-672" font-family="Helvetica,sans-Serif" font-size="10.00">__init__()</text>
<text text-anchor="start" x="87" y="-657" font-family="Helvetica,sans-Serif" font-size="10.00">+</text>
<text text-anchor="start" x="100" y="-657" font-family="Helvetica,sans-Serif" font-size="10.00">file_open()</text>
<text text-anchor="start" x="87" y="-642" font-family="Helvetica,sans-Serif" font-size="10.00">+</text>
<text text-anchor="start" x="100" y="-642" font-family="Helvetica,sans-Serif" font-size="10.00">file_close()</text>
<text text-anchor="start" x="87" y="-627" font-family="Helvetica,sans-Serif" font-size="10.00">+</text>
<text text-anchor="start" x="100" y="-627" font-family="Helvetica,sans-Serif" font-size="10.00">write()</text>
<text text-anchor="start" x="87" y="-612" font-family="Helvetica,sans-Serif" font-size="10.00">+</text>
<text text-anchor="start" x="100" y="-612" font-family="Helvetica,sans-Serif" font-size="10.00">writem()</text>
<text text-anchor="start" x="87" y="-597" font-family="Helvetica,sans-Serif" font-size="10.00">+</text>
<text text-anchor="start" x="100" y="-597" font-family="Helvetica,sans-Serif" font-size="10.00">program_begin()</text>
<text text-anchor="start" x="87" y="-582" font-family="Helvetica,sans-Serif" font-size="10.00">+</text>
<text text-anchor="start" x="100" y="-582" font-family="Helvetica,sans-Serif" font-size="10.00">add_stock()</text>
<text text-anchor="start" x="87" y="-567" font-family="Helvetica,sans-Serif" font-size="10.00">+</text>
<text text-anchor="start" x="100" y="-567" font-family="Helvetica,sans-Serif" font-size="10.00">program_stop()</text>
<text text-anchor="start" x="87" y="-552" font-family="Helvetica,sans-Serif" font-size="10.00">+</text>
<text text-anchor="start" x="100" y="-552" font-family="Helvetica,sans-Serif" font-size="10.00">program_end()</text>
<text text-anchor="start" x="87" y="-537" font-family="Helvetica,sans-Serif" font-size="10.00">+</text>
<text text-anchor="start" x="100" y="-537" font-family="Helvetica,sans-Serif" font-size="10.00">flush_nc()</text>
<text text-anchor="start" x="100" y="-522" font-family="Helvetica,sans-Serif" font-size="10.00">and 77 more...</text>
<polygon fill="#666666" stroke="#666666" points="83,-712 83,-712 186,-712 186,-712 83,-712"/>
<polygon fill="#666666" stroke="#666666" points="83,-682 83,-682 98,-682 98,-682 83,-682"/>
<polygon fill="#666666" stroke="#666666" points="98,-682 98,-682 186,-682 186,-682 98,-682"/>
<polygon fill="none" stroke="#666666" points="82.5,-515 82.5,-729 185.5,-729 185.5,-515 82.5,-515"/>
</a>
</g>
</g>
<!-- Node2&#45;&gt;Node1 -->
<g id="edge7_Node000001_Node000002" class="edge">
<title>Node2&#45;&gt;Node1</title>
<g id="a_edge7_Node000001_Node000002"><a xlink:title=" ">
<path fill="none" stroke="#63b8ff" d="M134,-504.66C134,-496.24 134,-487.73 134,-479.25"/>
<polygon fill="none" stroke="#63b8ff" points="130.5,-504.87 134,-514.87 137.5,-504.87 130.5,-504.87"/>
</a>
</g>
</g>
</g>
</svg>
