<?xml version="1.0" encoding="UTF-8" standalone="no"?>
<!DOCTYPE svg PUBLIC "-//W3C//DTD SVG 1.1//EN"
 "http://www.w3.org/Graphics/SVG/1.1/DTD/svg11.dtd">
<!-- Generated by graphviz version 2.43.0 (0)
 -->
<!-- Title: cam.nc.anilam_crusader_m.Creator.polar Pages: 1 -->
<svg width="1257pt" height="820pt"
 viewBox="0.00 0.00 1257.00 819.50" xmlns="http://www.w3.org/2000/svg" xmlns:xlink="http://www.w3.org/1999/xlink">
<g id="graph0" class="graph" transform="scale(1 1) rotate(0) translate(4 815.5)">
<title>cam.nc.anilam_crusader_m.Creator.polar</title>
<!-- Node1 -->
<g id="Node000001" class="node">
<title>Node1</title>
<g id="a_Node000001"><a xlink:title=" ">
<polygon fill="#999999" stroke="#666666" points="136,-437 0,-437 0,-407 136,-407 136,-437"/>
<text text-anchor="start" x="8" y="-425" font-family="Helvetica,sans-Serif" font-size="10.00">cam.nc.anilam_crusader</text>
<text text-anchor="middle" x="68" y="-414" font-family="Helvetica,sans-Serif" font-size="10.00">_m.Creator.polar</text>
</a>
</g>
</g>
<!-- Node2 -->
<g id="Node000002" class="node">
<title>Node2</title>
<g id="a_Node000002"><a xlink:href="$classcam_1_1nc_1_1heiden_1_1Creator.html#a5bd0dced4c9e9385a86e2ddb02fdcf17" xlink:title=" ">
<polygon fill="white" stroke="#666666" points="365,-722.5 178,-722.5 178,-703.5 365,-703.5 365,-722.5"/>
<text text-anchor="middle" x="271.5" y="-710.5" font-family="Helvetica,sans-Serif" font-size="10.00">cam.nc.heiden.Creator.POLAR_OFF</text>
</a>
</g>
</g>
<!-- Node1&#45;&gt;Node2 -->
<g id="edge119_Node000001_Node000002" class="edge">
<title>Node1&#45;&gt;Node2</title>
<g id="a_edge119_Node000001_Node000002"><a xlink:title=" ">
<path fill="none" stroke="#63b8ff" d="M69.77,-437.32C73.02,-484.13 89.54,-626.2 172,-695 173.38,-696.15 174.8,-697.23 176.27,-698.26"/>
<polygon fill="#63b8ff" stroke="#63b8ff" points="174.72,-701.41 185.1,-703.5 178.29,-695.39 174.72,-701.41"/>
</a>
</g>
</g>
<!-- Node3 -->
<g id="Node000003" class="node">
<title>Node3</title>
<g id="a_Node000003"><a xlink:href="$classcam_1_1nc_1_1iso_1_1Creator.html#a2c3f9740f5e29eee583ba1e9ab37a2cd" xlink:title=" ">
<polygon fill="white" stroke="#666666" points="355.5,-685.5 187.5,-685.5 187.5,-666.5 355.5,-666.5 355.5,-685.5"/>
<text text-anchor="middle" x="271.5" y="-673.5" font-family="Helvetica,sans-Serif" font-size="10.00">cam.nc.iso.Creator.POLAR_OFF</text>
</a>
</g>
</g>
<!-- Node1&#45;&gt;Node3 -->
<g id="edge120_Node000001_Node000003" class="edge">
<title>Node1&#45;&gt;Node3</title>
<g id="a_edge120_Node000001_Node000003"><a xlink:title=" ">
<path fill="none" stroke="#63b8ff" d="M70.83,-437.28C76.75,-479.6 99.44,-599.02 172,-657 174.08,-658.66 176.27,-660.2 178.54,-661.61"/>
<polygon fill="#63b8ff" stroke="#63b8ff" points="177.2,-664.86 187.67,-666.48 180.49,-658.68 177.2,-664.86"/>
</a>
</g>
</g>
<!-- Node4 -->
<g id="Node000004" class="node">
<title>Node4</title>
<g id="a_Node000004"><a xlink:href="$classcam_1_1nc_1_1makerbot__codes_1_1Codes.html#a2b86939a1ef78cc4a6bb0cfb955d7376" xlink:title=" ">
<polygon fill="white" stroke="#666666" points="357,-648 186,-648 186,-618 357,-618 357,-648"/>
<text text-anchor="start" x="194" y="-636" font-family="Helvetica,sans-Serif" font-size="10.00">cam.nc.makerbot_codes.Codes.</text>
<text text-anchor="middle" x="271.5" y="-625" font-family="Helvetica,sans-Serif" font-size="10.00">POLAR_OFF</text>
</a>
</g>
</g>
<!-- Node1&#45;&gt;Node4 -->
<g id="edge121_Node000001_Node000004" class="edge">
<title>Node1&#45;&gt;Node4</title>
<g id="a_edge121_Node000001_Node000004"><a xlink:title=" ">
<path fill="none" stroke="#63b8ff" d="M72.81,-437.11C82.64,-472.93 112.39,-563.39 172,-609 173.82,-610.39 175.7,-611.7 177.65,-612.94"/>
<polygon fill="#63b8ff" stroke="#63b8ff" points="176.07,-616.07 186.51,-617.89 179.49,-609.96 176.07,-616.07"/>
</a>
</g>
</g>
<!-- Node22 -->
<g id="Node000022" class="node">
<title>Node22</title>
<g id="a_Node000022"><a xlink:href="$classcam_1_1nc_1_1heiden_1_1Creator.html#abebf2a6602b20d6619e556dcf8050072" xlink:title=" ">
<polygon fill="white" stroke="#666666" points="362.5,-551.5 180.5,-551.5 180.5,-532.5 362.5,-532.5 362.5,-551.5"/>
<text text-anchor="middle" x="271.5" y="-539.5" font-family="Helvetica,sans-Serif" font-size="10.00">cam.nc.heiden.Creator.POLAR_ON</text>
</a>
</g>
</g>
<!-- Node1&#45;&gt;Node22 -->
<g id="edge139_Node000001_Node000022" class="edge">
<title>Node1&#45;&gt;Node22</title>
<g id="a_edge139_Node000001_Node000022"><a xlink:title=" ">
<path fill="none" stroke="#63b8ff" d="M79.66,-437.33C96.46,-460.2 131.39,-502.82 172,-524 175.58,-525.87 179.33,-527.55 183.17,-529.05"/>
<polygon fill="#63b8ff" stroke="#63b8ff" points="182.32,-532.46 192.91,-532.45 184.62,-525.85 182.32,-532.46"/>
</a>
</g>
</g>
<!-- Node23 -->
<g id="Node000023" class="node">
<title>Node23</title>
<g id="a_Node000023"><a xlink:href="$classcam_1_1nc_1_1iso_1_1Creator.html#a1193f838840ce951f92d404655f2d7e6" xlink:title=" ">
<polygon fill="white" stroke="#666666" points="353.5,-514.5 189.5,-514.5 189.5,-495.5 353.5,-495.5 353.5,-514.5"/>
<text text-anchor="middle" x="271.5" y="-502.5" font-family="Helvetica,sans-Serif" font-size="10.00">cam.nc.iso.Creator.POLAR_ON</text>
</a>
</g>
</g>
<!-- Node1&#45;&gt;Node23 -->
<g id="edge140_Node000001_Node000023" class="edge">
<title>Node1&#45;&gt;Node23</title>
<g id="a_edge140_Node000001_Node000023"><a xlink:title=" ">
<path fill="none" stroke="#63b8ff" d="M87.92,-437.1C107.72,-452.11 140.28,-474.63 172,-487 177.79,-489.26 183.89,-491.24 190.09,-492.97"/>
<polygon fill="#63b8ff" stroke="#63b8ff" points="189.34,-496.39 199.9,-495.5 191.09,-489.61 189.34,-496.39"/>
</a>
</g>
</g>
<!-- Node24 -->
<g id="Node000024" class="node">
<title>Node24</title>
<g id="a_Node000024"><a xlink:href="$classcam_1_1nc_1_1makerbot__codes_1_1Codes.html#a759a3734dbd03221294b47bf757cad72" xlink:title=" ">
<polygon fill="white" stroke="#666666" points="357,-600 186,-600 186,-570 357,-570 357,-600"/>
<text text-anchor="start" x="194" y="-588" font-family="Helvetica,sans-Serif" font-size="10.00">cam.nc.makerbot_codes.Codes.</text>
<text text-anchor="middle" x="271.5" y="-577" font-family="Helvetica,sans-Serif" font-size="10.00">POLAR_ON</text>
</a>
</g>
</g>
<!-- Node1&#45;&gt;Node24 -->
<g id="edge141_Node000001_Node000024" class="edge">
<title>Node1&#45;&gt;Node24</title>
<g id="a_edge141_Node000001_Node000024"><a xlink:title=" ">
<path fill="none" stroke="#63b8ff" d="M75.87,-437.29C89.69,-466.22 123.7,-528.94 172,-561 174.41,-562.6 176.91,-564.09 179.48,-565.48"/>
<polygon fill="#63b8ff" stroke="#63b8ff" points="177.97,-568.63 188.49,-569.84 181.02,-562.33 177.97,-568.63"/>
</a>
</g>
</g>
<!-- Node25 -->
<g id="Node000025" class="node">
<title>Node25</title>
<g id="a_Node000025"><a xlink:href="$classcam_1_1nc_1_1cad__nc__read_1_1Parser.html#adcf2f47949df29f187f27fe985884633" xlink:title=" ">
<polygon fill="white" stroke="#666666" points="359.5,-459.5 183.5,-459.5 183.5,-440.5 359.5,-440.5 359.5,-459.5"/>
<text text-anchor="middle" x="271.5" y="-447.5" font-family="Helvetica,sans-Serif" font-size="10.00">cam.nc.cad_nc_read.Parser.write</text>
</a>
</g>
</g>
<!-- Node1&#45;&gt;Node25 -->
<g id="edge152_Node000001_Node000025" class="edge">
<title>Node1&#45;&gt;Node25</title>
<g id="a_edge152_Node000001_Node000025"><a xlink:title=" ">
<path fill="none" stroke="#63b8ff" d="M136.1,-431.32C153.97,-433.81 173.43,-436.51 191.86,-439.07"/>
<polygon fill="#63b8ff" stroke="#63b8ff" points="191.59,-442.57 201.98,-440.48 192.55,-435.63 191.59,-442.57"/>
</a>
</g>
</g>
<!-- Node26 -->
<g id="Node000026" class="node">
<title>Node26</title>
<g id="a_Node000026"><a xlink:href="$classcam_1_1nc_1_1hxml__writer_1_1HxmlWriter.html#aed6f93c98cb8c0e3f3e826e75b6d6f15" xlink:title=" ">
<polygon fill="white" stroke="#666666" points="371,-404.5 172,-404.5 172,-385.5 371,-385.5 371,-404.5"/>
<text text-anchor="middle" x="271.5" y="-392.5" font-family="Helvetica,sans-Serif" font-size="10.00">cam.nc.hxml_writer.HxmlWriter.write</text>
</a>
</g>
</g>
<!-- Node1&#45;&gt;Node26 -->
<g id="edge154_Node000001_Node000026" class="edge">
<title>Node1&#45;&gt;Node26</title>
<g id="a_edge154_Node000001_Node000026"><a xlink:title=" ">
<path fill="none" stroke="#63b8ff" d="M136.1,-413.01C153.13,-410.73 171.62,-408.25 189.27,-405.88"/>
<polygon fill="#63b8ff" stroke="#63b8ff" points="190.11,-409.3 199.55,-404.51 189.18,-402.37 190.11,-409.3"/>
</a>
</g>
</g>
<!-- Node27 -->
<g id="Node000027" class="node">
<title>Node27</title>
<g id="a_Node000027"><a xlink:href="$classcam_1_1nc_1_1iso_1_1Creator.html#abb81af5a0bdddfed387b71b68a51cc7a" xlink:title="Internals.">
<polygon fill="white" stroke="#666666" points="339,-367.5 204,-367.5 204,-348.5 339,-348.5 339,-367.5"/>
<text text-anchor="middle" x="271.5" y="-355.5" font-family="Helvetica,sans-Serif" font-size="10.00">cam.nc.iso.Creator.write</text>
</a>
</g>
</g>
<!-- Node1&#45;&gt;Node27 -->
<g id="edge156_Node000001_Node000027" class="edge">
<title>Node1&#45;&gt;Node27</title>
<g id="a_edge156_Node000001_Node000027"><a xlink:title=" ">
<path fill="none" stroke="#63b8ff" d="M98.97,-406.8C119.17,-397.08 146.66,-384.87 172,-377 180.95,-374.22 190.49,-371.77 199.97,-369.63"/>
<polygon fill="#63b8ff" stroke="#63b8ff" points="200.77,-373.04 209.81,-367.52 199.3,-366.2 200.77,-373.04"/>
</a>
</g>
</g>
<!-- Node28 -->
<g id="Node000028" class="node">
<title>Node28</title>
<g id="a_Node000028"><a xlink:href="$classcam_1_1nc_1_1nc_1_1Creator.html#a80f2134add83bfaaf2870d075d36ed8a" xlink:title=" ">
<polygon fill="white" stroke="#666666" points="337.5,-312.5 205.5,-312.5 205.5,-293.5 337.5,-293.5 337.5,-312.5"/>
<text text-anchor="middle" x="271.5" y="-300.5" font-family="Helvetica,sans-Serif" font-size="10.00">cam.nc.nc.Creator.write</text>
</a>
</g>
</g>
<!-- Node1&#45;&gt;Node28 -->
<g id="edge157_Node000001_Node000028" class="edge">
<title>Node1&#45;&gt;Node28</title>
<g id="a_edge157_Node000001_Node000028"><a xlink:title=" ">
<path fill="none" stroke="#63b8ff" d="M84.62,-406.94C103.87,-389.04 138.2,-359.17 172,-340 189.43,-330.12 210.01,-321.91 227.83,-315.76"/>
<polygon fill="#63b8ff" stroke="#63b8ff" points="229.04,-319.04 237.42,-312.55 226.82,-312.4 229.04,-319.04"/>
</a>
</g>
</g>
<!-- Node29 -->
<g id="Node000029" class="node">
<title>Node29</title>
<g id="a_Node000029"><a xlink:href="$classcam_1_1nc_1_1nclathe__read_1_1Parser.html#ab5ea283b461b57e48c8d5b0ad0a45694" xlink:title=" ">
<polygon fill="white" stroke="#666666" points="360.5,-257.5 182.5,-257.5 182.5,-238.5 360.5,-238.5 360.5,-257.5"/>
<text text-anchor="middle" x="271.5" y="-245.5" font-family="Helvetica,sans-Serif" font-size="10.00">cam.nc.nclathe_read.Parser.write</text>
</a>
</g>
</g>
<!-- Node1&#45;&gt;Node29 -->
<g id="edge159_Node000001_Node000029" class="edge">
<title>Node1&#45;&gt;Node29</title>
<g id="a_edge159_Node000001_Node000029"><a xlink:title=" ">
<path fill="none" stroke="#63b8ff" d="M76.75,-406.58C91.56,-378.56 126.5,-319.07 172,-285 186.3,-274.29 204.05,-266.36 220.53,-260.66"/>
<polygon fill="#63b8ff" stroke="#63b8ff" points="221.63,-263.98 230.05,-257.55 219.46,-257.33 221.63,-263.98"/>
</a>
</g>
</g>
<!-- Node30 -->
<g id="Node000030" class="node">
<title>Node30</title>
<g id="a_Node000030"><a xlink:href="$classcam_1_1nc_1_1recreator_1_1Redirector.html#a79cc974683588db3ef959189e7552c0d" xlink:title="Programs.">
<polygon fill="white" stroke="#666666" points="361,-202.5 182,-202.5 182,-183.5 361,-183.5 361,-202.5"/>
<text text-anchor="middle" x="271.5" y="-190.5" font-family="Helvetica,sans-Serif" font-size="10.00">cam.nc.recreator.Redirector.write</text>
</a>
</g>
</g>
<!-- Node1&#45;&gt;Node30 -->
<g id="edge161_Node000001_Node000030" class="edge">
<title>Node1&#45;&gt;Node30</title>
<g id="a_edge161_Node000001_Node000030"><a xlink:title=" ">
<path fill="none" stroke="#63b8ff" d="M73.06,-406.96C83.46,-371.22 114.35,-280.44 172,-230 184.29,-219.24 200.01,-211.49 215.27,-205.95"/>
<polygon fill="#63b8ff" stroke="#63b8ff" points="216.82,-209.12 225.19,-202.62 214.59,-202.48 216.82,-209.12"/>
</a>
</g>
</g>
<!-- Node31 -->
<g id="Node000031" class="node">
<title>Node31</title>
<g id="a_Node000031"><a xlink:href="$classcam_1_1nc_1_1format_1_1Address.html#aa21f0ffeb829537d9103759276c01a4b" xlink:title=" ">
<polygon fill="white" stroke="#666666" points="350.5,-165.5 192.5,-165.5 192.5,-146.5 350.5,-146.5 350.5,-165.5"/>
<text text-anchor="middle" x="271.5" y="-153.5" font-family="Helvetica,sans-Serif" font-size="10.00">cam.nc.format.Address.write</text>
</a>
</g>
</g>
<!-- Node1&#45;&gt;Node31 -->
<g id="edge163_Node000001_Node000031" class="edge">
<title>Node1&#45;&gt;Node31</title>
<g id="a_edge163_Node000001_Node000031"><a xlink:title=" ">
<path fill="none" stroke="#63b8ff" d="M70.4,-406.81C75.31,-362.98 95.81,-235.48 172,-174 175.42,-171.24 179.13,-168.84 183.04,-166.78"/>
<polygon fill="#63b8ff" stroke="#63b8ff" points="184.8,-169.82 192.47,-162.52 181.91,-163.44 184.8,-169.82"/>
</a>
</g>
</g>
<!-- Node42 -->
<g id="Node000042" class="node">
<title>Node42</title>
<g id="a_Node000042"><a xlink:href="$classcam_1_1nc_1_1format_1_1AddressPlusMinus.html#aaacea4c7b677f0a602dbc9023ff365d2" xlink:title=" ">
<polygon fill="white" stroke="#666666" points="346.5,-128 196.5,-128 196.5,-98 346.5,-98 346.5,-128"/>
<text text-anchor="start" x="204.5" y="-116" font-family="Helvetica,sans-Serif" font-size="10.00">cam.nc.format.AddressPlus</text>
<text text-anchor="middle" x="271.5" y="-105" font-family="Helvetica,sans-Serif" font-size="10.00">Minus.write</text>
</a>
</g>
</g>
<!-- Node1&#45;&gt;Node42 -->
<g id="edge176_Node000001_Node000042" class="edge">
<title>Node1&#45;&gt;Node42</title>
<g id="a_edge176_Node000001_Node000042"><a xlink:title=" ">
<path fill="none" stroke="#63b8ff" d="M69.68,-406.91C72.68,-359.45 88.61,-211.86 172,-137 176.45,-133.01 181.45,-129.65 186.78,-126.84"/>
<polygon fill="#63b8ff" stroke="#63b8ff" points="188.39,-129.94 196.01,-122.59 185.47,-123.59 188.39,-129.94"/>
</a>
</g>
</g>
<!-- Node5 -->
<g id="Node000005" class="node">
<title>Node5</title>
<g id="a_Node000005"><a xlink:href="$classcam_1_1nc_1_1emc2_1_1Creator.html#a47a9e4f5f35681f580765bba2f0f97a5" xlink:title=" ">
<polygon fill="white" stroke="#666666" points="569.5,-430.5 415.5,-430.5 415.5,-411.5 569.5,-411.5 569.5,-430.5"/>
<text text-anchor="middle" x="492.5" y="-418.5" font-family="Helvetica,sans-Serif" font-size="10.00">cam.nc.emc2.Creator.SPACE</text>
</a>
</g>
</g>
<!-- Node4&#45;&gt;Node5 -->
<g id="edge122_Node000004_Node000005" class="edge">
<title>Node4&#45;&gt;Node5</title>
<g id="a_edge122_Node000004_Node000005"><a xlink:title=" ">
<path fill="none" stroke="#63b8ff" d="M357.3,-619.58C362.31,-616.66 366.95,-613.17 371,-609 424.51,-553.91 353,-494.61 407,-440 408.27,-438.71 409.61,-437.51 411.01,-436.37"/>
<polygon fill="#63b8ff" stroke="#63b8ff" points="413.2,-439.12 419.58,-430.66 409.32,-433.29 413.2,-439.12"/>
</a>
</g>
</g>
<!-- Node6 -->
<g id="Node000006" class="node">
<title>Node6</title>
<g id="a_Node000006"><a xlink:href="$classcam_1_1nc_1_1emc2b_1_1Creator.html#abff5586e78bb91681bd41dafdea5a9e7" xlink:title=" ">
<polygon fill="white" stroke="#666666" points="572.5,-811.5 412.5,-811.5 412.5,-792.5 572.5,-792.5 572.5,-811.5"/>
<text text-anchor="middle" x="492.5" y="-799.5" font-family="Helvetica,sans-Serif" font-size="10.00">cam.nc.emc2b.Creator.SPACE</text>
</a>
</g>
</g>
<!-- Node4&#45;&gt;Node6 -->
<g id="edge123_Node000004_Node000006" class="edge">
<title>Node4&#45;&gt;Node6</title>
<g id="a_edge123_Node000004_Node000006"><a xlink:title=" ">
<path fill="none" stroke="#63b8ff" d="M357.45,-647.9C362.36,-650.74 366.94,-654.07 371,-658 412.53,-698.22 364.93,-743.35 407,-783 408.52,-784.43 410.12,-785.76 411.79,-787"/>
<polygon fill="#63b8ff" stroke="#63b8ff" points="410.32,-790.2 420.67,-792.45 413.98,-784.24 410.32,-790.2"/>
</a>
</g>
</g>
<!-- Node7 -->
<g id="Node000007" class="node">
<title>Node7</title>
<g id="a_Node000007"><a xlink:href="$classcam_1_1nc_1_1emc2tap_1_1CodesEMC2.html#a6a0d71a1c6e9f8a80228dc220a0e57ca" xlink:title=" ">
<polygon fill="white" stroke="#666666" points="573,-774 412,-774 412,-744 573,-744 573,-774"/>
<text text-anchor="start" x="420" y="-762" font-family="Helvetica,sans-Serif" font-size="10.00">cam.nc.emc2tap.CodesEMC2.</text>
<text text-anchor="middle" x="492.5" y="-751" font-family="Helvetica,sans-Serif" font-size="10.00">SPACE</text>
</a>
</g>
</g>
<!-- Node4&#45;&gt;Node7 -->
<g id="edge124_Node000004_Node000007" class="edge">
<title>Node4&#45;&gt;Node7</title>
<g id="a_edge124_Node000004_Node000007"><a xlink:title=" ">
<path fill="none" stroke="#63b8ff" d="M355.82,-648.17C361.25,-650.93 366.38,-654.18 371,-658 400.11,-682.08 378.23,-710.52 407,-735 408.52,-736.3 410.11,-737.52 411.76,-738.69"/>
<polygon fill="#63b8ff" stroke="#63b8ff" points="410.04,-741.73 420.39,-743.96 413.68,-735.76 410.04,-741.73"/>
</a>
</g>
</g>
<!-- Node8 -->
<g id="Node000008" class="node">
<title>Node8</title>
<g id="a_Node000008"><a xlink:href="$classcam_1_1nc_1_1heiden_1_1Creator.html#a2c4277ffddaea0f92c906c6744f7a3bd" xlink:title="Codes.">
<polygon fill="white" stroke="#666666" points="572.5,-725.5 412.5,-725.5 412.5,-706.5 572.5,-706.5 572.5,-725.5"/>
<text text-anchor="middle" x="492.5" y="-713.5" font-family="Helvetica,sans-Serif" font-size="10.00">cam.nc.heiden.Creator.SPACE</text>
</a>
</g>
</g>
<!-- Node4&#45;&gt;Node8 -->
<g id="edge125_Node000004_Node000008" class="edge">
<title>Node4&#45;&gt;Node8</title>
<g id="a_edge125_Node000004_Node000008"><a xlink:title=" ">
<path fill="none" stroke="#63b8ff" d="M350.06,-648.06C357.37,-650.84 364.48,-654.12 371,-658 391.27,-670.07 386.57,-685.21 407,-697 410.92,-699.26 415.08,-701.25 419.37,-703"/>
<polygon fill="#63b8ff" stroke="#63b8ff" points="418.35,-706.36 428.95,-706.48 420.74,-699.78 418.35,-706.36"/>
</a>
</g>
</g>
<!-- Node9 -->
<g id="Node000009" class="node">
<title>Node9</title>
<g id="a_Node000009"><a xlink:href="$classcam_1_1nc_1_1heiden530_1_1Creator.html#aa64b19b0edc2ac1f2d568b09ca2aebcb" xlink:title="Codes.">
<polygon fill="white" stroke="#666666" points="566,-688 419,-688 419,-658 566,-658 566,-688"/>
<text text-anchor="start" x="427" y="-676" font-family="Helvetica,sans-Serif" font-size="10.00">cam.nc.heiden530.Creator.</text>
<text text-anchor="middle" x="492.5" y="-665" font-family="Helvetica,sans-Serif" font-size="10.00">SPACE</text>
</a>
</g>
</g>
<!-- Node4&#45;&gt;Node9 -->
<g id="edge126_Node000004_Node000009" class="edge">
<title>Node4&#45;&gt;Node9</title>
<g id="a_edge126_Node000004_Node000009"><a xlink:title=" ">
<path fill="none" stroke="#63b8ff" d="M354.67,-648.01C372.32,-651.23 390.99,-654.64 408.67,-657.87"/>
<polygon fill="#63b8ff" stroke="#63b8ff" points="408.48,-661.39 418.95,-659.75 409.74,-654.51 408.48,-661.39"/>
</a>
</g>
</g>
<!-- Node10 -->
<g id="Node000010" class="node">
<title>Node10</title>
<g id="a_Node000010"><a xlink:href="$classcam_1_1nc_1_1iso_1_1Creator.html#a79463d437baaaf23c828a2c9e62393f3" xlink:title=" ">
<polygon fill="white" stroke="#666666" points="563,-639.5 422,-639.5 422,-620.5 563,-620.5 563,-639.5"/>
<text text-anchor="middle" x="492.5" y="-627.5" font-family="Helvetica,sans-Serif" font-size="10.00">cam.nc.iso.Creator.SPACE</text>
</a>
</g>
</g>
<!-- Node4&#45;&gt;Node10 -->
<g id="edge127_Node000004_Node000010" class="edge">
<title>Node4&#45;&gt;Node10</title>
<g id="a_edge127_Node000004_Node000010"><a xlink:title=" ">
<path fill="none" stroke="#63b8ff" d="M357.17,-631.84C375.08,-631.59 393.93,-631.34 411.65,-631.09"/>
<polygon fill="#63b8ff" stroke="#63b8ff" points="411.99,-634.59 421.94,-630.95 411.89,-627.59 411.99,-634.59"/>
</a>
</g>
</g>
<!-- Node18 -->
<g id="Node000018" class="node">
<title>Node18</title>
<g id="a_Node000018"><a xlink:href="$classcam_1_1nc_1_1makerbot__codes_1_1Codes.html#a497077e0e500cc8f419b8f3f61f008b4" xlink:title=" ">
<polygon fill="white" stroke="#666666" points="578,-602 407,-602 407,-572 578,-572 578,-602"/>
<text text-anchor="start" x="415" y="-590" font-family="Helvetica,sans-Serif" font-size="10.00">cam.nc.makerbot_codes.Codes.</text>
<text text-anchor="middle" x="492.5" y="-579" font-family="Helvetica,sans-Serif" font-size="10.00">SPACE</text>
</a>
</g>
</g>
<!-- Node4&#45;&gt;Node18 -->
<g id="edge135_Node000004_Node000018" class="edge">
<title>Node4&#45;&gt;Node18</title>
<g id="a_edge135_Node000004_Node000018"><a xlink:title=" ">
<path fill="none" stroke="#63b8ff" d="M344.21,-617.94C365.3,-613.51 388.53,-608.63 410.18,-604.08"/>
<polygon fill="#63b8ff" stroke="#63b8ff" points="410.94,-607.5 420,-602.02 409.5,-600.65 410.94,-607.5"/>
</a>
</g>
</g>
<!-- Node19 -->
<g id="Node000019" class="node">
<title>Node19</title>
<g id="a_Node000019"><a xlink:href="$classcam_1_1nc_1_1series1_1_1Creator.html#a75918d23eef609baab85058fda3050d5" xlink:title=" ">
<polygon fill="white" stroke="#666666" points="573.5,-553.5 411.5,-553.5 411.5,-534.5 573.5,-534.5 573.5,-553.5"/>
<text text-anchor="middle" x="492.5" y="-541.5" font-family="Helvetica,sans-Serif" font-size="10.00">cam.nc.series1.Creator.SPACE</text>
</a>
</g>
</g>
<!-- Node4&#45;&gt;Node19 -->
<g id="edge136_Node000004_Node000019" class="edge">
<title>Node4&#45;&gt;Node19</title>
<g id="a_edge136_Node000004_Node000019"><a xlink:title=" ">
<path fill="none" stroke="#63b8ff" d="M353.91,-617.9C359.9,-615.38 365.68,-612.43 371,-609 392.82,-594.93 385.06,-576.88 407,-563 410.34,-560.89 413.88,-559.01 417.54,-557.34"/>
<polygon fill="#63b8ff" stroke="#63b8ff" points="418.9,-560.57 426.88,-553.61 416.29,-554.07 418.9,-560.57"/>
</a>
</g>
</g>
<!-- Node20 -->
<g id="Node000020" class="node">
<title>Node20</title>
<g id="a_Node000020"><a xlink:href="$classcam_1_1nc_1_1shopbot__mtc_1_1Creator.html#a1512dbb5d0140eb216ed709a542261ac" xlink:title="Codes.">
<polygon fill="white" stroke="#666666" points="572,-516 413,-516 413,-486 572,-486 572,-516"/>
<text text-anchor="start" x="421" y="-504" font-family="Helvetica,sans-Serif" font-size="10.00">cam.nc.shopbot_mtc.Creator.</text>
<text text-anchor="middle" x="492.5" y="-493" font-family="Helvetica,sans-Serif" font-size="10.00">SPACE</text>
</a>
</g>
</g>
<!-- Node4&#45;&gt;Node20 -->
<g id="edge137_Node000004_Node000020" class="edge">
<title>Node4&#45;&gt;Node20</title>
<g id="a_edge137_Node000004_Node000020"><a xlink:title=" ">
<path fill="none" stroke="#63b8ff" d="M357.35,-618.12C362.22,-615.53 366.83,-612.52 371,-609 401.75,-583.09 376.89,-552.65 407,-526 408.77,-524.43 410.63,-522.97 412.57,-521.59"/>
<polygon fill="#63b8ff" stroke="#63b8ff" points="414.8,-524.33 421.5,-516.13 411.15,-518.36 414.8,-524.33"/>
</a>
</g>
</g>
<!-- Node21 -->
<g id="Node000021" class="node">
<title>Node21</title>
<g id="a_Node000021"><a xlink:href="$classcam_1_1nc_1_1tnc151_1_1Creator.html#af5d9e50b2ff0e73cd7524e2145d55d76" xlink:title=" ">
<polygon fill="white" stroke="#666666" points="572.5,-467.5 412.5,-467.5 412.5,-448.5 572.5,-448.5 572.5,-467.5"/>
<text text-anchor="middle" x="492.5" y="-455.5" font-family="Helvetica,sans-Serif" font-size="10.00">cam.nc.tnc151.Creator.SPACE</text>
</a>
</g>
</g>
<!-- Node4&#45;&gt;Node21 -->
<g id="edge138_Node000004_Node000021" class="edge">
<title>Node4&#45;&gt;Node21</title>
<g id="a_edge138_Node000004_Node000021"><a xlink:title=" ">
<path fill="none" stroke="#63b8ff" d="M357.04,-619.31C362.11,-616.46 366.84,-613.05 371,-609 414.58,-566.59 363.04,-519.02 407,-477 408.47,-475.6 410.01,-474.29 411.63,-473.07"/>
<polygon fill="#63b8ff" stroke="#63b8ff" points="413.6,-475.97 420.21,-467.69 409.88,-470.04 413.6,-475.97"/>
</a>
</g>
</g>
<!-- Node11 -->
<g id="Node000011" class="node">
<title>Node11</title>
<g id="a_Node000011"><a xlink:href="$classcam_1_1nc_1_1anilam__crusader__m_1_1Creator.html#a36f873a0248bcaa4cf2cfb220dc1b00c" xlink:title="Codes.">
<polygon fill="white" stroke="#666666" points="774,-645 638,-645 638,-615 774,-615 774,-645"/>
<text text-anchor="start" x="646" y="-633" font-family="Helvetica,sans-Serif" font-size="10.00">cam.nc.anilam_crusader</text>
<text text-anchor="middle" x="706" y="-622" font-family="Helvetica,sans-Serif" font-size="10.00">_m.Creator.SPACE_STR</text>
</a>
</g>
</g>
<!-- Node10&#45;&gt;Node11 -->
<g id="edge128_Node000010_Node000011" class="edge">
<title>Node10&#45;&gt;Node11</title>
<g id="a_edge128_Node000010_Node000011"><a xlink:title=" ">
<path fill="none" stroke="#63b8ff" d="M563.05,-630C583.74,-630 606.54,-630 627.69,-630"/>
<polygon fill="#63b8ff" stroke="#63b8ff" points="627.93,-633.5 637.93,-630 627.93,-626.5 627.93,-633.5"/>
</a>
</g>
</g>
<!-- Node12 -->
<g id="Node000012" class="node">
<title>Node12</title>
<g id="a_Node000012"><a xlink:href="$classcam_1_1nc_1_1fadal_1_1Creator.html#a97a50724edf2662eb4fe76b15516b638" xlink:title="Codes.">
<polygon fill="white" stroke="#666666" points="794,-596.5 618,-596.5 618,-577.5 794,-577.5 794,-596.5"/>
<text text-anchor="middle" x="706" y="-584.5" font-family="Helvetica,sans-Serif" font-size="10.00">cam.nc.fadal.Creator.SPACE_STR</text>
</a>
</g>
</g>
<!-- Node10&#45;&gt;Node12 -->
<g id="edge129_Node000010_Node000012" class="edge">
<title>Node10&#45;&gt;Node12</title>
<g id="a_edge129_Node000010_Node000012"><a xlink:title=" ">
<path fill="none" stroke="#63b8ff" d="M540.44,-620.46C572.2,-614 614.34,-605.43 648.03,-598.58"/>
<polygon fill="#63b8ff" stroke="#63b8ff" points="649.09,-601.94 658.19,-596.52 647.7,-595.08 649.09,-601.94"/>
</a>
</g>
</g>
<!-- Node13 -->
<g id="Node000013" class="node">
<title>Node13</title>
<g id="a_Node000013"><a xlink:href="$classcam_1_1nc_1_1gravos_1_1Creator.html#ac0bc0d26e8a92a65c0f33d696ad850f5" xlink:title="Codes.">
<polygon fill="white" stroke="#666666" points="798,-559.5 614,-559.5 614,-540.5 798,-540.5 798,-559.5"/>
<text text-anchor="middle" x="706" y="-547.5" font-family="Helvetica,sans-Serif" font-size="10.00">cam.nc.gravos.Creator.SPACE_STR</text>
</a>
</g>
</g>
<!-- Node10&#45;&gt;Node13 -->
<g id="edge130_Node000010_Node000013" class="edge">
<title>Node10&#45;&gt;Node13</title>
<g id="a_edge130_Node000010_Node000013"><a xlink:title=" ">
<path fill="none" stroke="#63b8ff" d="M557.07,-620.42C564.41,-617.96 571.56,-614.88 578,-611 599.07,-598.32 592.84,-581.51 614,-569 617.67,-566.83 621.56,-564.9 625.57,-563.19"/>
<polygon fill="#63b8ff" stroke="#63b8ff" points="627.01,-566.39 635.13,-559.59 624.54,-559.84 627.01,-566.39"/>
</a>
</g>
</g>
<!-- Node14 -->
<g id="Node000014" class="node">
<title>Node14</title>
<g id="a_Node000014"><a xlink:href="$classcam_1_1nc_1_1iso_1_1Creator.html#aa481cf1e394988751640fd5ce5af991e" xlink:title="Codes.">
<polygon fill="white" stroke="#666666" points="788.5,-522.5 623.5,-522.5 623.5,-503.5 788.5,-503.5 788.5,-522.5"/>
<text text-anchor="middle" x="706" y="-510.5" font-family="Helvetica,sans-Serif" font-size="10.00">cam.nc.iso.Creator.SPACE_STR</text>
</a>
</g>
</g>
<!-- Node10&#45;&gt;Node14 -->
<g id="edge131_Node000010_Node000014" class="edge">
<title>Node10&#45;&gt;Node14</title>
<g id="a_edge131_Node000010_Node000014"><a xlink:title=" ">
<path fill="none" stroke="#63b8ff" d="M562.49,-620.35C568.06,-617.86 573.33,-614.79 578,-611 607.95,-586.67 583.87,-556.1 614,-532 616.1,-530.32 618.3,-528.79 620.6,-527.37"/>
<polygon fill="#63b8ff" stroke="#63b8ff" points="622.6,-530.28 629.84,-522.54 619.36,-524.07 622.6,-530.28"/>
</a>
</g>
</g>
<!-- Node15 -->
<g id="Node000015" class="node">
<title>Node15</title>
<g id="a_Node000015"><a xlink:href="$classcam_1_1nc_1_1lynx__otter__o_1_1Creator.html#a73b176561e066abcdb256a1bf53a5fcc" xlink:title="Codes.">
<polygon fill="white" stroke="#666666" points="784.5,-768 627.5,-768 627.5,-738 784.5,-738 784.5,-768"/>
<text text-anchor="start" x="635.5" y="-756" font-family="Helvetica,sans-Serif" font-size="10.00">cam.nc.lynx_otter_o.Creator.</text>
<text text-anchor="middle" x="706" y="-745" font-family="Helvetica,sans-Serif" font-size="10.00">SPACE_STR</text>
</a>
</g>
</g>
<!-- Node10&#45;&gt;Node15 -->
<g id="edge132_Node000010_Node000015" class="edge">
<title>Node10&#45;&gt;Node15</title>
<g id="a_edge132_Node000010_Node000015"><a xlink:title=" ">
<path fill="none" stroke="#63b8ff" d="M562.5,-639.63C568.07,-642.12 573.34,-645.2 578,-649 608.21,-673.65 584.25,-703.8 614,-729 615.37,-730.16 616.79,-731.27 618.26,-732.32"/>
<polygon fill="#63b8ff" stroke="#63b8ff" points="616.73,-735.49 627.07,-737.79 620.42,-729.55 616.73,-735.49"/>
</a>
</g>
</g>
<!-- Node16 -->
<g id="Node000016" class="node">
<title>Node16</title>
<g id="a_Node000016"><a xlink:href="$classcam_1_1nc_1_1mach3_1_1Creator.html#aa461d578afa76c5af9bb5562b79d955a" xlink:title="Codes.">
<polygon fill="white" stroke="#666666" points="798,-719.5 614,-719.5 614,-700.5 798,-700.5 798,-719.5"/>
<text text-anchor="middle" x="706" y="-707.5" font-family="Helvetica,sans-Serif" font-size="10.00">cam.nc.mach3.Creator.SPACE_STR</text>
</a>
</g>
</g>
<!-- Node10&#45;&gt;Node16 -->
<g id="edge133_Node000010_Node000016" class="edge">
<title>Node10&#45;&gt;Node16</title>
<g id="a_edge133_Node000010_Node000016"><a xlink:title=" ">
<path fill="none" stroke="#63b8ff" d="M557.12,-639.51C564.45,-641.98 571.58,-645.09 578,-649 599.28,-661.97 592.55,-679.3 614,-692 616.84,-693.68 619.81,-695.21 622.87,-696.6"/>
<polygon fill="#63b8ff" stroke="#63b8ff" points="621.69,-699.9 632.28,-700.35 624.29,-693.4 621.69,-699.9"/>
</a>
</g>
</g>
<!-- Node17 -->
<g id="Node000017" class="node">
<title>Node17</title>
<g id="a_Node000017"><a xlink:href="$classcam_1_1nc_1_1winpc_1_1Creator.html#aae1cb93a5dd430719105fa03a054f654" xlink:title="Codes.">
<polygon fill="white" stroke="#666666" points="795.5,-682.5 616.5,-682.5 616.5,-663.5 795.5,-663.5 795.5,-682.5"/>
<text text-anchor="middle" x="706" y="-670.5" font-family="Helvetica,sans-Serif" font-size="10.00">cam.nc.winpc.Creator.SPACE_STR</text>
</a>
</g>
</g>
<!-- Node10&#45;&gt;Node17 -->
<g id="edge134_Node000010_Node000017" class="edge">
<title>Node10&#45;&gt;Node17</title>
<g id="a_edge134_Node000010_Node000017"><a xlink:title=" ">
<path fill="none" stroke="#63b8ff" d="M540.44,-639.54C572.2,-646 614.34,-654.57 648.03,-661.42"/>
<polygon fill="#63b8ff" stroke="#63b8ff" points="647.7,-664.92 658.19,-663.48 649.09,-658.06 647.7,-664.92"/>
</a>
</g>
</g>
<!-- Node24&#45;&gt;Node5 -->
<g id="edge142_Node000024_Node000005" class="edge">
<title>Node24&#45;&gt;Node5</title>
<g id="a_edge142_Node000024_Node000005"><a xlink:title=" ">
<path fill="none" stroke="#63b8ff" d="M357.39,-570.95C362.32,-568.17 366.92,-564.88 371,-561 411.66,-522.33 366,-478.3 407,-440 408.52,-438.58 410.13,-437.25 411.81,-436.02"/>
<polygon fill="#63b8ff" stroke="#63b8ff" points="414,-438.78 420.71,-430.59 410.35,-432.81 414,-438.78"/>
</a>
</g>
</g>
<!-- Node24&#45;&gt;Node6 -->
<g id="edge143_Node000024_Node000006" class="edge">
<title>Node24&#45;&gt;Node6</title>
<g id="a_edge143_Node000024_Node000006"><a xlink:title=" ">
<path fill="none" stroke="#63b8ff" d="M357.33,-598.39C362.33,-601.32 366.97,-604.82 371,-609 425.86,-665.81 351.64,-726.68 407,-783 408.27,-784.29 409.6,-785.5 411,-786.64"/>
<polygon fill="#63b8ff" stroke="#63b8ff" points="409.3,-789.71 419.55,-792.36 413.19,-783.89 409.3,-789.71"/>
</a>
</g>
</g>
<!-- Node24&#45;&gt;Node7 -->
<g id="edge144_Node000024_Node000007" class="edge">
<title>Node24&#45;&gt;Node7</title>
<g id="a_edge144_Node000024_Node000007"><a xlink:title=" ">
<path fill="none" stroke="#63b8ff" d="M357.44,-599C362.36,-601.79 366.94,-605.1 371,-609 412.98,-649.37 365.79,-693.85 407,-735 408.08,-736.08 409.2,-737.11 410.37,-738.09"/>
<polygon fill="#63b8ff" stroke="#63b8ff" points="408.39,-740.98 418.56,-743.95 412.46,-735.29 408.39,-740.98"/>
</a>
</g>
</g>
<!-- Node24&#45;&gt;Node8 -->
<g id="edge145_Node000024_Node000008" class="edge">
<title>Node24&#45;&gt;Node8</title>
<g id="a_edge145_Node000024_Node000008"><a xlink:title=" ">
<path fill="none" stroke="#63b8ff" d="M357.43,-599.78C362.29,-602.39 366.86,-605.44 371,-609 403.03,-636.57 374.73,-669.72 407,-697 408.82,-698.54 410.74,-699.96 412.73,-701.27"/>
<polygon fill="#63b8ff" stroke="#63b8ff" points="411.49,-704.58 421.94,-706.35 414.87,-698.45 411.49,-704.58"/>
</a>
</g>
</g>
<!-- Node24&#45;&gt;Node9 -->
<g id="edge146_Node000024_Node000009" class="edge">
<title>Node24&#45;&gt;Node9</title>
<g id="a_edge146_Node000024_Node000009"><a xlink:title=" ">
<path fill="none" stroke="#63b8ff" d="M352.39,-600.01C358.89,-602.55 365.18,-605.52 371,-609 391.53,-621.27 386.7,-636.35 407,-649 409.63,-650.64 412.38,-652.17 415.21,-653.6"/>
<polygon fill="#63b8ff" stroke="#63b8ff" points="413.92,-656.86 424.47,-657.83 416.83,-650.49 413.92,-656.86"/>
</a>
</g>
</g>
<!-- Node24&#45;&gt;Node10 -->
<g id="edge147_Node000024_Node000010" class="edge">
<title>Node24&#45;&gt;Node10</title>
<g id="a_edge147_Node000024_Node000010"><a xlink:title=" ">
<path fill="none" stroke="#63b8ff" d="M345.73,-600.05C374.84,-606.03 407.8,-612.8 435.01,-618.39"/>
<polygon fill="#63b8ff" stroke="#63b8ff" points="434.64,-621.89 445.14,-620.47 436.04,-615.03 434.64,-621.89"/>
</a>
</g>
</g>
<!-- Node24&#45;&gt;Node18 -->
<g id="edge148_Node000024_Node000018" class="edge">
<title>Node24&#45;&gt;Node18</title>
<g id="a_edge148_Node000024_Node000018"><a xlink:title=" ">
<path fill="none" stroke="#63b8ff" d="M357.17,-585.77C369.99,-585.89 383.29,-586.01 396.32,-586.13"/>
<polygon fill="#63b8ff" stroke="#63b8ff" points="396.66,-589.63 406.69,-586.23 396.73,-582.63 396.66,-589.63"/>
</a>
</g>
</g>
<!-- Node24&#45;&gt;Node19 -->
<g id="edge149_Node000024_Node000019" class="edge">
<title>Node24&#45;&gt;Node19</title>
<g id="a_edge149_Node000024_Node000019"><a xlink:title=" ">
<path fill="none" stroke="#63b8ff" d="M352.8,-569.97C378.44,-565.17 406.38,-559.94 430.42,-555.44"/>
<polygon fill="#63b8ff" stroke="#63b8ff" points="431.28,-558.83 440.47,-553.55 429.99,-551.95 431.28,-558.83"/>
</a>
</g>
</g>
<!-- Node24&#45;&gt;Node20 -->
<g id="edge150_Node000024_Node000020" class="edge">
<title>Node24&#45;&gt;Node20</title>
<g id="a_edge150_Node000024_Node000020"><a xlink:title=" ">
<path fill="none" stroke="#63b8ff" d="M351.12,-569.95C358.03,-567.41 364.76,-564.45 371,-561 390.53,-550.2 387.74,-537.27 407,-526 410.82,-523.77 414.85,-521.72 419,-519.84"/>
<polygon fill="#63b8ff" stroke="#63b8ff" points="420.34,-523.07 428.24,-516.01 417.66,-516.61 420.34,-523.07"/>
</a>
</g>
</g>
<!-- Node24&#45;&gt;Node21 -->
<g id="edge151_Node000024_Node000021" class="edge">
<title>Node24&#45;&gt;Node21</title>
<g id="a_edge151_Node000024_Node000021"><a xlink:title=" ">
<path fill="none" stroke="#63b8ff" d="M357.37,-570.14C362.24,-567.55 366.84,-564.53 371,-561 402,-534.76 375.77,-502.97 407,-477 409.02,-475.32 411.17,-473.78 413.4,-472.37"/>
<polygon fill="#63b8ff" stroke="#63b8ff" points="415.25,-475.34 422.42,-467.54 411.95,-469.17 415.25,-475.34"/>
</a>
</g>
</g>
<!-- Node25&#45;&gt;Node25 -->
<g id="edge153_Node000025_Node000025" class="edge">
<title>Node25&#45;&gt;Node25</title>
<g id="a_edge153_Node000025_Node000025"><a xlink:title=" ">
<path fill="none" stroke="#63b8ff" d="M240.37,-459.58C225.22,-468.23 235.6,-477.5 271.5,-477.5 296.74,-477.5 309.37,-472.92 309.37,-467.19"/>
<polygon fill="#63b8ff" stroke="#63b8ff" points="311.89,-464.75 302.63,-459.58 306.65,-469.39 311.89,-464.75"/>
</a>
</g>
</g>
<!-- Node26&#45;&gt;Node26 -->
<g id="edge155_Node000026_Node000026" class="edge">
<title>Node26&#45;&gt;Node26</title>
<g id="a_edge155_Node000026_Node000026"><a xlink:title=" ">
<path fill="none" stroke="#63b8ff" d="M240.37,-404.58C225.22,-413.23 235.6,-422.5 271.5,-422.5 296.74,-422.5 309.37,-417.92 309.37,-412.19"/>
<polygon fill="#63b8ff" stroke="#63b8ff" points="311.89,-409.75 302.63,-404.58 306.65,-414.39 311.89,-409.75"/>
</a>
</g>
</g>
<!-- Node28&#45;&gt;Node28 -->
<g id="edge158_Node000028_Node000028" class="edge">
<title>Node28&#45;&gt;Node28</title>
<g id="a_edge158_Node000028_Node000028"><a xlink:title=" ">
<path fill="none" stroke="#63b8ff" d="M240.37,-312.58C225.22,-321.23 235.6,-330.5 271.5,-330.5 296.74,-330.5 309.37,-325.92 309.37,-320.19"/>
<polygon fill="#63b8ff" stroke="#63b8ff" points="311.89,-317.75 302.63,-312.58 306.65,-322.39 311.89,-317.75"/>
</a>
</g>
</g>
<!-- Node29&#45;&gt;Node29 -->
<g id="edge160_Node000029_Node000029" class="edge">
<title>Node29&#45;&gt;Node29</title>
<g id="a_edge160_Node000029_Node000029"><a xlink:title=" ">
<path fill="none" stroke="#63b8ff" d="M240.37,-257.58C225.22,-266.23 235.6,-275.5 271.5,-275.5 296.74,-275.5 309.37,-270.92 309.37,-265.19"/>
<polygon fill="#63b8ff" stroke="#63b8ff" points="311.89,-262.75 302.63,-257.58 306.65,-267.39 311.89,-262.75"/>
</a>
</g>
</g>
<!-- Node30&#45;&gt;Node30 -->
<g id="edge162_Node000030_Node000030" class="edge">
<title>Node30&#45;&gt;Node30</title>
<g id="a_edge162_Node000030_Node000030"><a xlink:title=" ">
<path fill="none" stroke="#63b8ff" d="M240.37,-202.58C225.22,-211.23 235.6,-220.5 271.5,-220.5 296.74,-220.5 309.37,-215.92 309.37,-210.19"/>
<polygon fill="#63b8ff" stroke="#63b8ff" points="311.89,-207.75 302.63,-202.58 306.65,-212.39 311.89,-207.75"/>
</a>
</g>
</g>
<!-- Node32 -->
<g id="Node000032" class="node">
<title>Node32</title>
<g id="a_Node000032"><a xlink:href="$classcam_1_1async__op_1_1AsyncOperatorMixin.html#a9628cbca8e69ec75b2337171a02bf428" xlink:title=" ">
<polygon fill="white" stroke="#666666" points="573,-150 412,-150 412,-120 573,-120 573,-150"/>
<text text-anchor="start" x="420" y="-138" font-family="Helvetica,sans-Serif" font-size="10.00">cam.async_op.AsyncOperator</text>
<text text-anchor="middle" x="492.5" y="-127" font-family="Helvetica,sans-Serif" font-size="10.00">Mixin.modal</text>
</a>
</g>
</g>
<!-- Node31&#45;&gt;Node32 -->
<g id="edge164_Node000031_Node000032" class="edge">
<title>Node31&#45;&gt;Node32</title>
<g id="a_edge164_Node000031_Node000032"><a xlink:title=" ">
<path fill="none" stroke="#63b8ff" d="M350.64,-148.51C367.12,-146.93 384.63,-145.25 401.51,-143.63"/>
<polygon fill="#63b8ff" stroke="#63b8ff" points="402.3,-147.07 411.92,-142.63 401.63,-140.1 402.3,-147.07"/>
</a>
</g>
</g>
<!-- Node33 -->
<g id="Node000033" class="node">
<title>Node33</title>
<g id="a_Node000033"><a xlink:href="$classcam_1_1async__op_1_1AsyncOperatorMixin.html#a15a51cfd69d8e453e2e3d64386b1ebe3" xlink:title=" ">
<polygon fill="white" stroke="#666666" points="786.5,-150 625.5,-150 625.5,-120 786.5,-120 786.5,-150"/>
<text text-anchor="start" x="633.5" y="-138" font-family="Helvetica,sans-Serif" font-size="10.00">cam.async_op.AsyncOperator</text>
<text text-anchor="middle" x="706" y="-127" font-family="Helvetica,sans-Serif" font-size="10.00">Mixin.tick</text>
</a>
</g>
</g>
<!-- Node32&#45;&gt;Node33 -->
<g id="edge165_Node000032_Node000033" class="edge">
<title>Node32&#45;&gt;Node33</title>
<g id="a_edge165_Node000032_Node000033"><a xlink:title=" ">
<path fill="none" stroke="#63b8ff" d="M573.16,-135C586.91,-135 601.3,-135 615.3,-135"/>
<polygon fill="#63b8ff" stroke="#63b8ff" points="615.41,-138.5 625.41,-135 615.41,-131.5 615.41,-138.5"/>
</a>
</g>
</g>
<!-- Node34 -->
<g id="Node000034" class="node">
<title>Node34</title>
<g id="a_Node000034"><a xlink:href="$classcam_1_1async__op_1_1AsyncTestOperator.html#a42606ca890a957aa7070a4bc6f25228b" xlink:title=" ">
<polygon fill="white" stroke="#666666" points="1055,-270 834,-270 834,-240 1055,-240 1055,-270"/>
<text text-anchor="start" x="842" y="-258" font-family="Helvetica,sans-Serif" font-size="10.00">cam.async_op.AsyncTestOperator.execute</text>
<text text-anchor="middle" x="944.5" y="-247" font-family="Helvetica,sans-Serif" font-size="10.00">_async</text>
</a>
</g>
</g>
<!-- Node33&#45;&gt;Node34 -->
<g id="edge166_Node000033_Node000034" class="edge">
<title>Node33&#45;&gt;Node34</title>
<g id="a_edge166_Node000033_Node000034"><a xlink:title=" ">
<path fill="none" stroke="#63b8ff" d="M722.36,-150.21C744.88,-171.62 789.06,-210.31 834,-231 838.58,-233.11 843.35,-235.04 848.23,-236.8"/>
<polygon fill="#63b8ff" stroke="#63b8ff" points="847.13,-240.12 857.73,-239.98 849.36,-233.48 847.13,-240.12"/>
</a>
</g>
</g>
<!-- Node35 -->
<g id="Node000035" class="node">
<title>Node35</title>
<g id="a_Node000035"><a xlink:href="$classcam_1_1ops_1_1CalculatePath.html#a13dfe2f8578383234e74e58e2f292e1b" xlink:title=" ">
<polygon fill="white" stroke="#666666" points="1029,-222 860,-222 860,-192 1029,-192 1029,-222"/>
<text text-anchor="start" x="868" y="-210" font-family="Helvetica,sans-Serif" font-size="10.00">cam.ops.CalculatePath.execute</text>
<text text-anchor="middle" x="944.5" y="-199" font-family="Helvetica,sans-Serif" font-size="10.00">_async</text>
</a>
</g>
</g>
<!-- Node33&#45;&gt;Node35 -->
<g id="edge167_Node000033_Node000035" class="edge">
<title>Node33&#45;&gt;Node35</title>
<g id="a_edge167_Node000033_Node000035"><a xlink:title=" ">
<path fill="none" stroke="#63b8ff" d="M742.65,-150.07C767.85,-160.33 802.59,-173.68 834,-183 841.76,-185.3 849.89,-187.49 858.06,-189.54"/>
<polygon fill="#63b8ff" stroke="#63b8ff" points="857.48,-193 868.03,-191.97 859.14,-186.2 857.48,-193"/>
</a>
</g>
</g>
<!-- Node37 -->
<g id="Node000037" class="node">
<title>Node37</title>
<g id="a_Node000037"><a xlink:href="$classcam_1_1ops_1_1PathsChain.html#a6fc64e383ccf724b2325e18a82d53eae" xlink:title=" ">
<polygon fill="white" stroke="#666666" points="1022.5,-174 866.5,-174 866.5,-144 1022.5,-144 1022.5,-174"/>
<text text-anchor="start" x="874.5" y="-162" font-family="Helvetica,sans-Serif" font-size="10.00">cam.ops.PathsChain.execute</text>
<text text-anchor="middle" x="944.5" y="-151" font-family="Helvetica,sans-Serif" font-size="10.00">_async</text>
</a>
</g>
</g>
<!-- Node33&#45;&gt;Node37 -->
<g id="edge169_Node000033_Node000037" class="edge">
<title>Node33&#45;&gt;Node37</title>
<g id="a_edge169_Node000033_Node000037"><a xlink:title=" ">
<path fill="none" stroke="#63b8ff" d="M786.74,-143.09C809.05,-145.36 833.41,-147.83 856.14,-150.13"/>
<polygon fill="#63b8ff" stroke="#63b8ff" points="855.81,-153.62 866.11,-151.15 856.52,-146.65 855.81,-153.62"/>
</a>
</g>
</g>
<!-- Node39 -->
<g id="Node000039" class="node">
<title>Node39</title>
<g id="a_Node000039"><a xlink:href="$classcam_1_1ops_1_1CAMSimulate.html#a633151f17849d281fd52ce82c00356a7" xlink:title=" ">
<polygon fill="white" stroke="#666666" points="1028.5,-78 860.5,-78 860.5,-48 1028.5,-48 1028.5,-78"/>
<text text-anchor="start" x="868.5" y="-66" font-family="Helvetica,sans-Serif" font-size="10.00">cam.ops.CAMSimulate.execute</text>
<text text-anchor="middle" x="944.5" y="-55" font-family="Helvetica,sans-Serif" font-size="10.00">_async</text>
</a>
</g>
</g>
<!-- Node33&#45;&gt;Node39 -->
<g id="edge172_Node000033_Node000039" class="edge">
<title>Node33&#45;&gt;Node39</title>
<g id="a_edge172_Node000033_Node000039"><a xlink:title=" ">
<path fill="none" stroke="#63b8ff" d="M742.65,-119.93C767.85,-109.67 802.59,-96.32 834,-87 841.76,-84.7 849.89,-82.51 858.06,-80.46"/>
<polygon fill="#63b8ff" stroke="#63b8ff" points="859.14,-83.8 868.03,-78.03 857.48,-77 859.14,-83.8"/>
</a>
</g>
</g>
<!-- Node40 -->
<g id="Node000040" class="node">
<title>Node40</title>
<g id="a_Node000040"><a xlink:href="$classcam_1_1ops_1_1CAMSimulateChain.html#a1e77c7ce21b3b7e3e38a12b6b62517e9" xlink:title=" ">
<polygon fill="white" stroke="#666666" points="1042.5,-126 846.5,-126 846.5,-96 1042.5,-96 1042.5,-126"/>
<text text-anchor="start" x="854.5" y="-114" font-family="Helvetica,sans-Serif" font-size="10.00">cam.ops.CAMSimulateChain.execute</text>
<text text-anchor="middle" x="944.5" y="-103" font-family="Helvetica,sans-Serif" font-size="10.00">_async</text>
</a>
</g>
</g>
<!-- Node33&#45;&gt;Node40 -->
<g id="edge173_Node000033_Node000040" class="edge">
<title>Node33&#45;&gt;Node40</title>
<g id="a_edge173_Node000033_Node000040"><a xlink:title=" ">
<path fill="none" stroke="#63b8ff" d="M786.74,-126.91C802.62,-125.3 819.54,-123.58 836.17,-121.89"/>
<polygon fill="#63b8ff" stroke="#63b8ff" points="836.88,-125.34 846.47,-120.85 836.17,-118.37 836.88,-125.34"/>
</a>
</g>
</g>
<!-- Node41 -->
<g id="Node000041" class="node">
<title>Node41</title>
<g id="a_Node000041"><a xlink:href="$classcam_1_1async__op_1_1AsyncOperatorMixin.html#a2216ff6bb0dfd132f4ec4cf79b7cba2b" xlink:title=" ">
<polygon fill="white" stroke="#666666" points="1025,-30 864,-30 864,0 1025,0 1025,-30"/>
<text text-anchor="start" x="872" y="-18" font-family="Helvetica,sans-Serif" font-size="10.00">cam.async_op.AsyncOperator</text>
<text text-anchor="middle" x="944.5" y="-7" font-family="Helvetica,sans-Serif" font-size="10.00">Mixin.show_progress</text>
</a>
</g>
</g>
<!-- Node33&#45;&gt;Node41 -->
<g id="edge175_Node000033_Node000041" class="edge">
<title>Node33&#45;&gt;Node41</title>
<g id="a_edge175_Node000033_Node000041"><a xlink:title=" ">
<path fill="none" stroke="#63b8ff" d="M722.36,-119.79C744.88,-98.38 789.06,-59.69 834,-39 840.44,-36.03 847.27,-33.43 854.24,-31.13"/>
<polygon fill="#63b8ff" stroke="#63b8ff" points="855.27,-34.48 863.81,-28.2 853.22,-27.78 855.27,-34.48"/>
</a>
</g>
</g>
<!-- Node36 -->
<g id="Node000036" class="node">
<title>Node36</title>
<g id="a_Node000036"><a xlink:href="$namespacecam_1_1ops.html#aa8e95f7410a7ceb178db48f4f8c2d995" xlink:title=" ">
<polygon fill="white" stroke="#666666" points="1226.5,-189.5 1113.5,-189.5 1113.5,-170.5 1226.5,-170.5 1226.5,-189.5"/>
<text text-anchor="middle" x="1170" y="-177.5" font-family="Helvetica,sans-Serif" font-size="10.00">cam.ops._calc_path</text>
</a>
</g>
</g>
<!-- Node35&#45;&gt;Node36 -->
<g id="edge168_Node000035_Node000036" class="edge">
<title>Node35&#45;&gt;Node36</title>
<g id="a_edge168_Node000035_Node000036"><a xlink:title=" ">
<path fill="none" stroke="#63b8ff" d="M1029.04,-196.91C1053.56,-193.95 1080.01,-190.75 1103.25,-187.94"/>
<polygon fill="#63b8ff" stroke="#63b8ff" points="1103.83,-191.4 1113.34,-186.72 1103,-184.45 1103.83,-191.4"/>
</a>
</g>
</g>
<!-- Node37&#45;&gt;Node36 -->
<g id="edge170_Node000037_Node000036" class="edge">
<title>Node37&#45;&gt;Node36</title>
<g id="a_edge170_Node000037_Node000036"><a xlink:title=" ">
<path fill="none" stroke="#63b8ff" d="M1022.73,-166.26C1048.9,-168.72 1077.87,-171.44 1103.08,-173.81"/>
<polygon fill="#63b8ff" stroke="#63b8ff" points="1102.99,-177.31 1113.27,-174.76 1103.64,-170.34 1102.99,-177.31"/>
</a>
</g>
</g>
<!-- Node38 -->
<g id="Node000038" class="node">
<title>Node38</title>
<g id="a_Node000038"><a xlink:href="$namespacecam_1_1ops.html#ab55fb8ec9a00e021e8e4a1c3ecc97cb4" xlink:title=" ">
<polygon fill="white" stroke="#666666" points="1249,-147.5 1091,-147.5 1091,-128.5 1249,-128.5 1249,-147.5"/>
<text text-anchor="middle" x="1170" y="-135.5" font-family="Helvetica,sans-Serif" font-size="10.00">cam.ops.getChainOperations</text>
</a>
</g>
</g>
<!-- Node37&#45;&gt;Node38 -->
<g id="edge171_Node000037_Node000038" class="edge">
<title>Node37&#45;&gt;Node38</title>
<g id="a_edge171_Node000037_Node000038"><a xlink:title=" ">
<path fill="none" stroke="#63b8ff" d="M1022.73,-151.74C1041.34,-150 1061.37,-148.11 1080.45,-146.32"/>
<polygon fill="#63b8ff" stroke="#63b8ff" points="1081,-149.78 1090.63,-145.36 1080.35,-142.81 1081,-149.78"/>
</a>
</g>
</g>
<!-- Node40&#45;&gt;Node38 -->
<g id="edge174_Node000040_Node000038" class="edge">
<title>Node40&#45;&gt;Node38</title>
<g id="a_edge174_Node000040_Node000038"><a xlink:title=" ">
<path fill="none" stroke="#63b8ff" d="M1042.56,-122.72C1055.29,-124.26 1068.28,-125.83 1080.86,-127.35"/>
<polygon fill="#63b8ff" stroke="#63b8ff" points="1080.5,-130.83 1090.84,-128.56 1081.34,-123.88 1080.5,-130.83"/>
</a>
</g>
</g>
<!-- Node42&#45;&gt;Node32 -->
<g id="edge177_Node000042_Node000032" class="edge">
<title>Node42&#45;&gt;Node32</title>
<g id="a_edge177_Node000042_Node000032"><a xlink:title=" ">
<path fill="none" stroke="#63b8ff" d="M346.64,-120.45C364.34,-122.23 383.41,-124.14 401.72,-125.98"/>
<polygon fill="#63b8ff" stroke="#63b8ff" points="401.51,-129.48 411.81,-126.99 402.21,-122.51 401.51,-129.48"/>
</a>
</g>
</g>
</g>
</svg>
