<?xml version="1.0" encoding="UTF-8" standalone="no"?>
<!DOCTYPE svg PUBLIC "-//W3C//DTD SVG 1.1//EN"
 "http://www.w3.org/Graphics/SVG/1.1/DTD/svg11.dtd">
<!-- Generated by graphviz version 2.43.0 (0)
 -->
<!-- Title: cam.nc.centroid1.Creator.comment Pages: 1 -->
<svg width="1276pt" height="487pt"
 viewBox="0.00 0.00 1276.00 486.50" xmlns="http://www.w3.org/2000/svg" xmlns:xlink="http://www.w3.org/1999/xlink">
<g id="graph0" class="graph" transform="scale(1 1) rotate(0) translate(4 482.5)">
<title>cam.nc.centroid1.Creator.comment</title>
<!-- Node1 -->
<g id="Node000001" class="node">
<title>Node1</title>
<g id="a_Node000001"><a xlink:title="cutter comp">
<polygon fill="#999999" stroke="#666666" points="188,-285.5 0,-285.5 0,-266.5 188,-266.5 188,-285.5"/>
<text text-anchor="middle" x="94" y="-273.5" font-family="Helvetica,sans-Serif" font-size="10.00">cam.nc.centroid1.Creator.comment</text>
</a>
</g>
</g>
<!-- Node2 -->
<g id="Node000002" class="node">
<title>Node2</title>
<g id="a_Node000002"><a xlink:href="$classcam_1_1nc_1_1cad__nc__read_1_1Parser.html#adcf2f47949df29f187f27fe985884633" xlink:title=" ">
<polygon fill="white" stroke="#666666" points="411.5,-460.5 235.5,-460.5 235.5,-441.5 411.5,-441.5 411.5,-460.5"/>
<text text-anchor="middle" x="323.5" y="-448.5" font-family="Helvetica,sans-Serif" font-size="10.00">cam.nc.cad_nc_read.Parser.write</text>
</a>
</g>
</g>
<!-- Node1&#45;&gt;Node2 -->
<g id="edge53_Node000001_Node000002" class="edge">
<title>Node1&#45;&gt;Node2</title>
<g id="a_edge53_Node000001_Node000002"><a xlink:title=" ">
<path fill="none" stroke="#63b8ff" d="M99.81,-285.75C114.25,-313.85 160.15,-395.43 224,-433 226.88,-434.7 229.89,-436.24 232.99,-437.64"/>
<polygon fill="#63b8ff" stroke="#63b8ff" points="231.92,-440.99 242.5,-441.45 234.52,-434.49 231.92,-440.99"/>
</a>
</g>
</g>
<!-- Node3 -->
<g id="Node000003" class="node">
<title>Node3</title>
<g id="a_Node000003"><a xlink:href="$classcam_1_1nc_1_1hxml__writer_1_1HxmlWriter.html#aed6f93c98cb8c0e3f3e826e75b6d6f15" xlink:title=" ">
<polygon fill="white" stroke="#666666" points="423,-405.5 224,-405.5 224,-386.5 423,-386.5 423,-405.5"/>
<text text-anchor="middle" x="323.5" y="-393.5" font-family="Helvetica,sans-Serif" font-size="10.00">cam.nc.hxml_writer.HxmlWriter.write</text>
</a>
</g>
</g>
<!-- Node1&#45;&gt;Node3 -->
<g id="edge55_Node000001_Node000003" class="edge">
<title>Node1&#45;&gt;Node3</title>
<g id="a_edge55_Node000001_Node000003"><a xlink:title=" ">
<path fill="none" stroke="#63b8ff" d="M103.93,-285.75C123.49,-306.42 172.5,-354.7 224,-378 228.63,-380.1 233.49,-381.95 238.47,-383.58"/>
<polygon fill="#63b8ff" stroke="#63b8ff" points="237.56,-386.97 248.15,-386.47 239.56,-380.26 237.56,-386.97"/>
</a>
</g>
</g>
<!-- Node4 -->
<g id="Node000004" class="node">
<title>Node4</title>
<g id="a_Node000004"><a xlink:href="$classcam_1_1nc_1_1iso_1_1Creator.html#abb81af5a0bdddfed387b71b68a51cc7a" xlink:title="Internals.">
<polygon fill="white" stroke="#666666" points="391,-368.5 256,-368.5 256,-349.5 391,-349.5 391,-368.5"/>
<text text-anchor="middle" x="323.5" y="-356.5" font-family="Helvetica,sans-Serif" font-size="10.00">cam.nc.iso.Creator.write</text>
</a>
</g>
</g>
<!-- Node1&#45;&gt;Node4 -->
<g id="edge57_Node000001_Node000004" class="edge">
<title>Node1&#45;&gt;Node4</title>
<g id="a_edge57_Node000001_Node000004"><a xlink:title=" ">
<path fill="none" stroke="#63b8ff" d="M110.26,-285.51C133.78,-299.75 180.73,-326.48 224,-341 231.05,-343.36 238.49,-345.44 246,-347.26"/>
<polygon fill="#63b8ff" stroke="#63b8ff" points="245.35,-350.7 255.88,-349.51 246.9,-343.88 245.35,-350.7"/>
</a>
</g>
</g>
<!-- Node5 -->
<g id="Node000005" class="node">
<title>Node5</title>
<g id="a_Node000005"><a xlink:href="$classcam_1_1nc_1_1nc_1_1Creator.html#a80f2134add83bfaaf2870d075d36ed8a" xlink:title=" ">
<polygon fill="white" stroke="#666666" points="389.5,-313.5 257.5,-313.5 257.5,-294.5 389.5,-294.5 389.5,-313.5"/>
<text text-anchor="middle" x="323.5" y="-301.5" font-family="Helvetica,sans-Serif" font-size="10.00">cam.nc.nc.Creator.write</text>
</a>
</g>
</g>
<!-- Node1&#45;&gt;Node5 -->
<g id="edge58_Node000001_Node000005" class="edge">
<title>Node1&#45;&gt;Node5</title>
<g id="a_edge58_Node000001_Node000005"><a xlink:title=" ">
<path fill="none" stroke="#63b8ff" d="M172.34,-285.52C196.57,-288.5 223.27,-291.79 247.35,-294.75"/>
<polygon fill="#63b8ff" stroke="#63b8ff" points="247.14,-298.25 257.49,-296 248,-291.3 247.14,-298.25"/>
</a>
</g>
</g>
<!-- Node6 -->
<g id="Node000006" class="node">
<title>Node6</title>
<g id="a_Node000006"><a xlink:href="$classcam_1_1nc_1_1nclathe__read_1_1Parser.html#ab5ea283b461b57e48c8d5b0ad0a45694" xlink:title=" ">
<polygon fill="white" stroke="#666666" points="412.5,-258.5 234.5,-258.5 234.5,-239.5 412.5,-239.5 412.5,-258.5"/>
<text text-anchor="middle" x="323.5" y="-246.5" font-family="Helvetica,sans-Serif" font-size="10.00">cam.nc.nclathe_read.Parser.write</text>
</a>
</g>
</g>
<!-- Node1&#45;&gt;Node6 -->
<g id="edge60_Node000001_Node000006" class="edge">
<title>Node1&#45;&gt;Node6</title>
<g id="a_edge60_Node000001_Node000006"><a xlink:title=" ">
<path fill="none" stroke="#63b8ff" d="M175.21,-266.48C193.64,-264.29 213.37,-261.95 232.2,-259.72"/>
<polygon fill="#63b8ff" stroke="#63b8ff" points="232.73,-263.18 242.25,-258.52 231.91,-256.23 232.73,-263.18"/>
</a>
</g>
</g>
<!-- Node7 -->
<g id="Node000007" class="node">
<title>Node7</title>
<g id="a_Node000007"><a xlink:href="$classcam_1_1nc_1_1recreator_1_1Redirector.html#a79cc974683588db3ef959189e7552c0d" xlink:title="Programs.">
<polygon fill="white" stroke="#666666" points="413,-203.5 234,-203.5 234,-184.5 413,-184.5 413,-203.5"/>
<text text-anchor="middle" x="323.5" y="-191.5" font-family="Helvetica,sans-Serif" font-size="10.00">cam.nc.recreator.Redirector.write</text>
</a>
</g>
</g>
<!-- Node1&#45;&gt;Node7 -->
<g id="edge62_Node000001_Node000007" class="edge">
<title>Node1&#45;&gt;Node7</title>
<g id="a_edge62_Node000001_Node000007"><a xlink:title=" ">
<path fill="none" stroke="#63b8ff" d="M121.54,-266.43C162.38,-251.71 240.71,-223.48 286.58,-206.95"/>
<polygon fill="#63b8ff" stroke="#63b8ff" points="287.91,-210.19 296.13,-203.51 285.53,-203.6 287.91,-210.19"/>
</a>
</g>
</g>
<!-- Node8 -->
<g id="Node000008" class="node">
<title>Node8</title>
<g id="a_Node000008"><a xlink:href="$classcam_1_1nc_1_1format_1_1Address.html#aa21f0ffeb829537d9103759276c01a4b" xlink:title=" ">
<polygon fill="white" stroke="#666666" points="402.5,-166.5 244.5,-166.5 244.5,-147.5 402.5,-147.5 402.5,-166.5"/>
<text text-anchor="middle" x="323.5" y="-154.5" font-family="Helvetica,sans-Serif" font-size="10.00">cam.nc.format.Address.write</text>
</a>
</g>
</g>
<!-- Node1&#45;&gt;Node8 -->
<g id="edge64_Node000001_Node000008" class="edge">
<title>Node1&#45;&gt;Node8</title>
<g id="a_edge64_Node000001_Node000008"><a xlink:title=" ">
<path fill="none" stroke="#63b8ff" d="M103.99,-266.49C123.67,-246.3 172.88,-199.13 224,-176 229.67,-173.43 235.69,-171.21 241.83,-169.29"/>
<polygon fill="#63b8ff" stroke="#63b8ff" points="242.91,-172.62 251.56,-166.51 240.99,-165.89 242.91,-172.62"/>
</a>
</g>
</g>
<!-- Node19 -->
<g id="Node000019" class="node">
<title>Node19</title>
<g id="a_Node000019"><a xlink:href="$classcam_1_1nc_1_1format_1_1AddressPlusMinus.html#aaacea4c7b677f0a602dbc9023ff365d2" xlink:title=" ">
<polygon fill="white" stroke="#666666" points="398.5,-129 248.5,-129 248.5,-99 398.5,-99 398.5,-129"/>
<text text-anchor="start" x="256.5" y="-117" font-family="Helvetica,sans-Serif" font-size="10.00">cam.nc.format.AddressPlus</text>
<text text-anchor="middle" x="323.5" y="-106" font-family="Helvetica,sans-Serif" font-size="10.00">Minus.write</text>
</a>
</g>
</g>
<!-- Node1&#45;&gt;Node19 -->
<g id="edge77_Node000001_Node000019" class="edge">
<title>Node1&#45;&gt;Node19</title>
<g id="a_edge77_Node000001_Node000019"><a xlink:title=" ">
<path fill="none" stroke="#63b8ff" d="M101.17,-266.17C117.69,-240.68 165.68,-172.1 224,-138 228.7,-135.25 233.7,-132.82 238.87,-130.66"/>
<polygon fill="#63b8ff" stroke="#63b8ff" points="240.2,-133.9 248.31,-127.07 237.71,-127.35 240.2,-133.9"/>
</a>
</g>
</g>
<!-- Node2&#45;&gt;Node2 -->
<g id="edge54_Node000002_Node000002" class="edge">
<title>Node2&#45;&gt;Node2</title>
<g id="a_edge54_Node000002_Node000002"><a xlink:title=" ">
<path fill="none" stroke="#63b8ff" d="M290.21,-460.58C274.01,-469.23 285.11,-478.5 323.5,-478.5 351.09,-478.5 364.59,-473.71 363.98,-467.81"/>
<polygon fill="#63b8ff" stroke="#63b8ff" points="366.33,-465.2 356.79,-460.58 361.36,-470.14 366.33,-465.2"/>
</a>
</g>
</g>
<!-- Node3&#45;&gt;Node3 -->
<g id="edge56_Node000003_Node000003" class="edge">
<title>Node3&#45;&gt;Node3</title>
<g id="a_edge56_Node000003_Node000003"><a xlink:title=" ">
<path fill="none" stroke="#63b8ff" d="M290.21,-405.58C274.01,-414.23 285.11,-423.5 323.5,-423.5 351.09,-423.5 364.59,-418.71 363.98,-412.81"/>
<polygon fill="#63b8ff" stroke="#63b8ff" points="366.33,-410.2 356.79,-405.58 361.36,-415.14 366.33,-410.2"/>
</a>
</g>
</g>
<!-- Node5&#45;&gt;Node5 -->
<g id="edge59_Node000005_Node000005" class="edge">
<title>Node5&#45;&gt;Node5</title>
<g id="a_edge59_Node000005_Node000005"><a xlink:title=" ">
<path fill="none" stroke="#63b8ff" d="M290.21,-313.58C274.01,-322.23 285.11,-331.5 323.5,-331.5 351.09,-331.5 364.59,-326.71 363.98,-320.81"/>
<polygon fill="#63b8ff" stroke="#63b8ff" points="366.33,-318.2 356.79,-313.58 361.36,-323.14 366.33,-318.2"/>
</a>
</g>
</g>
<!-- Node6&#45;&gt;Node6 -->
<g id="edge61_Node000006_Node000006" class="edge">
<title>Node6&#45;&gt;Node6</title>
<g id="a_edge61_Node000006_Node000006"><a xlink:title=" ">
<path fill="none" stroke="#63b8ff" d="M290.21,-258.58C274.01,-267.23 285.11,-276.5 323.5,-276.5 351.09,-276.5 364.59,-271.71 363.98,-265.81"/>
<polygon fill="#63b8ff" stroke="#63b8ff" points="366.33,-263.2 356.79,-258.58 361.36,-268.14 366.33,-263.2"/>
</a>
</g>
</g>
<!-- Node7&#45;&gt;Node7 -->
<g id="edge63_Node000007_Node000007" class="edge">
<title>Node7&#45;&gt;Node7</title>
<g id="a_edge63_Node000007_Node000007"><a xlink:title=" ">
<path fill="none" stroke="#63b8ff" d="M290.21,-203.58C274.01,-212.23 285.11,-221.5 323.5,-221.5 351.09,-221.5 364.59,-216.71 363.98,-210.81"/>
<polygon fill="#63b8ff" stroke="#63b8ff" points="366.33,-208.2 356.79,-203.58 361.36,-213.14 366.33,-208.2"/>
</a>
</g>
</g>
<!-- Node9 -->
<g id="Node000009" class="node">
<title>Node9</title>
<g id="a_Node000009"><a xlink:href="$classcam_1_1async__op_1_1AsyncOperatorMixin.html#a9628cbca8e69ec75b2337171a02bf428" xlink:title=" ">
<polygon fill="white" stroke="#666666" points="620,-150 459,-150 459,-120 620,-120 620,-150"/>
<text text-anchor="start" x="467" y="-138" font-family="Helvetica,sans-Serif" font-size="10.00">cam.async_op.AsyncOperator</text>
<text text-anchor="middle" x="539.5" y="-127" font-family="Helvetica,sans-Serif" font-size="10.00">Mixin.modal</text>
</a>
</g>
</g>
<!-- Node8&#45;&gt;Node9 -->
<g id="edge65_Node000008_Node000009" class="edge">
<title>Node8&#45;&gt;Node9</title>
<g id="a_edge65_Node000008_Node000009"><a xlink:title=" ">
<path fill="none" stroke="#63b8ff" d="M402.67,-148.96C417.65,-147.42 433.45,-145.8 448.77,-144.22"/>
<polygon fill="#63b8ff" stroke="#63b8ff" points="449.16,-147.7 458.75,-143.2 448.45,-140.74 449.16,-147.7"/>
</a>
</g>
</g>
<!-- Node10 -->
<g id="Node000010" class="node">
<title>Node10</title>
<g id="a_Node000010"><a xlink:href="$classcam_1_1async__op_1_1AsyncOperatorMixin.html#a15a51cfd69d8e453e2e3d64386b1ebe3" xlink:title=" ">
<polygon fill="white" stroke="#666666" points="817,-150 656,-150 656,-120 817,-120 817,-150"/>
<text text-anchor="start" x="664" y="-138" font-family="Helvetica,sans-Serif" font-size="10.00">cam.async_op.AsyncOperator</text>
<text text-anchor="middle" x="736.5" y="-127" font-family="Helvetica,sans-Serif" font-size="10.00">Mixin.tick</text>
</a>
</g>
</g>
<!-- Node9&#45;&gt;Node10 -->
<g id="edge66_Node000009_Node000010" class="edge">
<title>Node9&#45;&gt;Node10</title>
<g id="a_edge66_Node000009_Node000010"><a xlink:title=" ">
<path fill="none" stroke="#63b8ff" d="M620.1,-135C628.57,-135 637.24,-135 645.82,-135"/>
<polygon fill="#63b8ff" stroke="#63b8ff" points="645.84,-138.5 655.84,-135 645.84,-131.5 645.84,-138.5"/>
</a>
</g>
</g>
<!-- Node11 -->
<g id="Node000011" class="node">
<title>Node11</title>
<g id="a_Node000011"><a xlink:href="$classcam_1_1async__op_1_1AsyncTestOperator.html#a42606ca890a957aa7070a4bc6f25228b" xlink:title=" ">
<polygon fill="white" stroke="#666666" points="1074,-270 853,-270 853,-240 1074,-240 1074,-270"/>
<text text-anchor="start" x="861" y="-258" font-family="Helvetica,sans-Serif" font-size="10.00">cam.async_op.AsyncTestOperator.execute</text>
<text text-anchor="middle" x="963.5" y="-247" font-family="Helvetica,sans-Serif" font-size="10.00">_async</text>
</a>
</g>
</g>
<!-- Node10&#45;&gt;Node11 -->
<g id="edge67_Node000010_Node000011" class="edge">
<title>Node10&#45;&gt;Node11</title>
<g id="a_edge67_Node000010_Node000011"><a xlink:title=" ">
<path fill="none" stroke="#63b8ff" d="M751.18,-150.27C771.31,-171.74 811.07,-210.51 853,-231 857.09,-233 861.35,-234.84 865.72,-236.52"/>
<polygon fill="#63b8ff" stroke="#63b8ff" points="864.81,-239.91 875.41,-239.97 867.16,-233.32 864.81,-239.91"/>
</a>
</g>
</g>
<!-- Node12 -->
<g id="Node000012" class="node">
<title>Node12</title>
<g id="a_Node000012"><a xlink:href="$classcam_1_1ops_1_1CalculatePath.html#a13dfe2f8578383234e74e58e2f292e1b" xlink:title=" ">
<polygon fill="white" stroke="#666666" points="1048,-222 879,-222 879,-192 1048,-192 1048,-222"/>
<text text-anchor="start" x="887" y="-210" font-family="Helvetica,sans-Serif" font-size="10.00">cam.ops.CalculatePath.execute</text>
<text text-anchor="middle" x="963.5" y="-199" font-family="Helvetica,sans-Serif" font-size="10.00">_async</text>
</a>
</g>
</g>
<!-- Node10&#45;&gt;Node12 -->
<g id="edge68_Node000010_Node000012" class="edge">
<title>Node10&#45;&gt;Node12</title>
<g id="a_edge68_Node000010_Node000012"><a xlink:title=" ">
<path fill="none" stroke="#63b8ff" d="M769.29,-150.01C792.18,-160.38 824,-173.88 853,-183 860.31,-185.3 867.96,-187.46 875.68,-189.47"/>
<polygon fill="#63b8ff" stroke="#63b8ff" points="874.91,-192.89 885.46,-191.93 876.62,-186.1 874.91,-192.89"/>
</a>
</g>
</g>
<!-- Node14 -->
<g id="Node000014" class="node">
<title>Node14</title>
<g id="a_Node000014"><a xlink:href="$classcam_1_1ops_1_1PathsChain.html#a6fc64e383ccf724b2325e18a82d53eae" xlink:title=" ">
<polygon fill="white" stroke="#666666" points="1041.5,-174 885.5,-174 885.5,-144 1041.5,-144 1041.5,-174"/>
<text text-anchor="start" x="893.5" y="-162" font-family="Helvetica,sans-Serif" font-size="10.00">cam.ops.PathsChain.execute</text>
<text text-anchor="middle" x="963.5" y="-151" font-family="Helvetica,sans-Serif" font-size="10.00">_async</text>
</a>
</g>
</g>
<!-- Node10&#45;&gt;Node14 -->
<g id="edge70_Node000010_Node000014" class="edge">
<title>Node10&#45;&gt;Node14</title>
<g id="a_edge70_Node000010_Node000014"><a xlink:title=" ">
<path fill="none" stroke="#63b8ff" d="M817.14,-143.5C835.9,-145.5 855.98,-147.64 875.06,-149.67"/>
<polygon fill="#63b8ff" stroke="#63b8ff" points="874.92,-153.18 885.23,-150.76 875.66,-146.22 874.92,-153.18"/>
</a>
</g>
</g>
<!-- Node16 -->
<g id="Node000016" class="node">
<title>Node16</title>
<g id="a_Node000016"><a xlink:href="$classcam_1_1ops_1_1CAMSimulate.html#a633151f17849d281fd52ce82c00356a7" xlink:title=" ">
<polygon fill="white" stroke="#666666" points="1047.5,-126 879.5,-126 879.5,-96 1047.5,-96 1047.5,-126"/>
<text text-anchor="start" x="887.5" y="-114" font-family="Helvetica,sans-Serif" font-size="10.00">cam.ops.CAMSimulate.execute</text>
<text text-anchor="middle" x="963.5" y="-103" font-family="Helvetica,sans-Serif" font-size="10.00">_async</text>
</a>
</g>
</g>
<!-- Node10&#45;&gt;Node16 -->
<g id="edge73_Node000010_Node000016" class="edge">
<title>Node10&#45;&gt;Node16</title>
<g id="a_edge73_Node000010_Node000016"><a xlink:title=" ">
<path fill="none" stroke="#63b8ff" d="M817.14,-126.5C833.95,-124.71 851.82,-122.81 869.08,-120.97"/>
<polygon fill="#63b8ff" stroke="#63b8ff" points="869.58,-124.43 879.15,-119.89 868.84,-117.47 869.58,-124.43"/>
</a>
</g>
</g>
<!-- Node17 -->
<g id="Node000017" class="node">
<title>Node17</title>
<g id="a_Node000017"><a xlink:href="$classcam_1_1ops_1_1CAMSimulateChain.html#a1e77c7ce21b3b7e3e38a12b6b62517e9" xlink:title=" ">
<polygon fill="white" stroke="#666666" points="1061.5,-78 865.5,-78 865.5,-48 1061.5,-48 1061.5,-78"/>
<text text-anchor="start" x="873.5" y="-66" font-family="Helvetica,sans-Serif" font-size="10.00">cam.ops.CAMSimulateChain.execute</text>
<text text-anchor="middle" x="963.5" y="-55" font-family="Helvetica,sans-Serif" font-size="10.00">_async</text>
</a>
</g>
</g>
<!-- Node10&#45;&gt;Node17 -->
<g id="edge74_Node000010_Node000017" class="edge">
<title>Node10&#45;&gt;Node17</title>
<g id="a_edge74_Node000010_Node000017"><a xlink:title=" ">
<path fill="none" stroke="#63b8ff" d="M769.29,-119.99C792.18,-109.62 824,-96.12 853,-87 860.31,-84.7 867.96,-82.54 875.68,-80.53"/>
<polygon fill="#63b8ff" stroke="#63b8ff" points="876.62,-83.9 885.46,-78.07 874.91,-77.11 876.62,-83.9"/>
</a>
</g>
</g>
<!-- Node18 -->
<g id="Node000018" class="node">
<title>Node18</title>
<g id="a_Node000018"><a xlink:href="$classcam_1_1async__op_1_1AsyncOperatorMixin.html#a2216ff6bb0dfd132f4ec4cf79b7cba2b" xlink:title=" ">
<polygon fill="white" stroke="#666666" points="1044,-30 883,-30 883,0 1044,0 1044,-30"/>
<text text-anchor="start" x="891" y="-18" font-family="Helvetica,sans-Serif" font-size="10.00">cam.async_op.AsyncOperator</text>
<text text-anchor="middle" x="963.5" y="-7" font-family="Helvetica,sans-Serif" font-size="10.00">Mixin.show_progress</text>
</a>
</g>
</g>
<!-- Node10&#45;&gt;Node18 -->
<g id="edge76_Node000010_Node000018" class="edge">
<title>Node10&#45;&gt;Node18</title>
<g id="a_edge76_Node000010_Node000018"><a xlink:title=" ">
<path fill="none" stroke="#63b8ff" d="M751.18,-119.73C771.31,-98.26 811.07,-59.49 853,-39 859.43,-35.86 866.27,-33.12 873.28,-30.74"/>
<polygon fill="#63b8ff" stroke="#63b8ff" points="874.42,-34.05 882.91,-27.71 872.32,-27.37 874.42,-34.05"/>
</a>
</g>
</g>
<!-- Node13 -->
<g id="Node000013" class="node">
<title>Node13</title>
<g id="a_Node000013"><a xlink:href="$namespacecam_1_1ops.html#aa8e95f7410a7ceb178db48f4f8c2d995" xlink:title=" ">
<polygon fill="white" stroke="#666666" points="1245.5,-192.5 1132.5,-192.5 1132.5,-173.5 1245.5,-173.5 1245.5,-192.5"/>
<text text-anchor="middle" x="1189" y="-180.5" font-family="Helvetica,sans-Serif" font-size="10.00">cam.ops._calc_path</text>
</a>
</g>
</g>
<!-- Node12&#45;&gt;Node13 -->
<g id="edge69_Node000012_Node000013" class="edge">
<title>Node12&#45;&gt;Node13</title>
<g id="a_edge69_Node000012_Node000013"><a xlink:title=" ">
<path fill="none" stroke="#63b8ff" d="M1048.04,-198.03C1072.56,-195.4 1099.01,-192.56 1122.25,-190.06"/>
<polygon fill="#63b8ff" stroke="#63b8ff" points="1122.77,-193.52 1132.34,-188.98 1122.03,-186.56 1122.77,-193.52"/>
</a>
</g>
</g>
<!-- Node14&#45;&gt;Node13 -->
<g id="edge71_Node000014_Node000013" class="edge">
<title>Node14&#45;&gt;Node13</title>
<g id="a_edge71_Node000014_Node000013"><a xlink:title=" ">
<path fill="none" stroke="#63b8ff" d="M1041.73,-167.29C1067.9,-170.1 1096.87,-173.21 1122.08,-175.92"/>
<polygon fill="#63b8ff" stroke="#63b8ff" points="1121.95,-179.43 1132.27,-177.02 1122.7,-172.47 1121.95,-179.43"/>
</a>
</g>
</g>
<!-- Node15 -->
<g id="Node000015" class="node">
<title>Node15</title>
<g id="a_Node000015"><a xlink:href="$namespacecam_1_1ops.html#ab55fb8ec9a00e021e8e4a1c3ecc97cb4" xlink:title=" ">
<polygon fill="white" stroke="#666666" points="1268,-126.5 1110,-126.5 1110,-107.5 1268,-107.5 1268,-126.5"/>
<text text-anchor="middle" x="1189" y="-114.5" font-family="Helvetica,sans-Serif" font-size="10.00">cam.ops.getChainOperations</text>
</a>
</g>
</g>
<!-- Node14&#45;&gt;Node15 -->
<g id="edge72_Node000014_Node000015" class="edge">
<title>Node14&#45;&gt;Node15</title>
<g id="a_edge72_Node000014_Node000015"><a xlink:title=" ">
<path fill="none" stroke="#63b8ff" d="M1041.73,-144.49C1069.81,-139.21 1101.12,-133.33 1127.54,-128.36"/>
<polygon fill="#63b8ff" stroke="#63b8ff" points="1128.23,-131.79 1137.41,-126.51 1126.94,-124.91 1128.23,-131.79"/>
</a>
</g>
</g>
<!-- Node17&#45;&gt;Node15 -->
<g id="edge75_Node000017_Node000015" class="edge">
<title>Node17&#45;&gt;Node15</title>
<g id="a_edge75_Node000017_Node000015"><a xlink:title=" ">
<path fill="none" stroke="#63b8ff" d="M1035.28,-78.06C1048.19,-80.94 1061.51,-83.99 1074,-87 1096.91,-92.52 1122.28,-99.15 1143.25,-104.77"/>
<polygon fill="#63b8ff" stroke="#63b8ff" points="1142.6,-108.21 1153.17,-107.43 1144.42,-101.45 1142.6,-108.21"/>
</a>
</g>
</g>
<!-- Node19&#45;&gt;Node9 -->
<g id="edge78_Node000019_Node000009" class="edge">
<title>Node19&#45;&gt;Node9</title>
<g id="a_edge78_Node000019_Node000009"><a xlink:title=" ">
<path fill="none" stroke="#63b8ff" d="M398.75,-121.29C414.84,-122.87 432.03,-124.55 448.65,-126.18"/>
<polygon fill="#63b8ff" stroke="#63b8ff" points="448.62,-129.7 458.92,-127.19 449.3,-122.73 448.62,-129.7"/>
</a>
</g>
</g>
</g>
</svg>
