<?xml version="1.0" encoding="UTF-8" standalone="no"?>
<!DOCTYPE svg PUBLIC "-//W3C//DTD SVG 1.1//EN"
 "http://www.w3.org/Graphics/SVG/1.1/DTD/svg11.dtd">
<!-- Generated by graphviz version 2.43.0 (0)
 -->
<!-- Title: cam.ops.CAMSimulate Pages: 1 -->
<svg width="234pt" height="303pt"
 viewBox="0.00 0.00 234.00 303.00" xmlns="http://www.w3.org/2000/svg" xmlns:xlink="http://www.w3.org/1999/xlink">
<g id="graph0" class="graph" transform="scale(1 1) rotate(0) translate(4 299)">
<title>cam.ops.CAMSimulate</title>
<!-- Node1 -->
<g id="Node000001" class="node">
<title>Node1</title>
<g id="a_Node000001"><a xlink:title=" ">
<polygon fill="#999999" stroke="transparent" points="148,-109 27,-109 27,0 148,0 148,-109"/>
<text text-anchor="start" x="32.5" y="-96.5" font-family="Helvetica,sans-Serif" font-size="10.00">cam.ops.CAMSimulate</text>
<text text-anchor="start" x="36.5" y="-81.5" font-family="Helvetica,sans-Serif" font-size="10.00">+</text>
<text text-anchor="start" x="54.5" y="-81.5" font-family="Helvetica,sans-Serif" font-size="10.00">bl_idname</text>
<text text-anchor="start" x="36.5" y="-66.5" font-family="Helvetica,sans-Serif" font-size="10.00">+</text>
<text text-anchor="start" x="54.5" y="-66.5" font-family="Helvetica,sans-Serif" font-size="10.00">bl_label</text>
<text text-anchor="start" x="36.5" y="-51.5" font-family="Helvetica,sans-Serif" font-size="10.00">+</text>
<text text-anchor="start" x="54.5" y="-51.5" font-family="Helvetica,sans-Serif" font-size="10.00">bl_options</text>
<text text-anchor="start" x="36.5" y="-36.5" font-family="Helvetica,sans-Serif" font-size="10.00">+</text>
<text text-anchor="start" x="54.5" y="-36.5" font-family="Helvetica,sans-Serif" font-size="10.00">operation</text>
<text text-anchor="start" x="36.5" y="-21.5" font-family="Helvetica,sans-Serif" font-size="10.00">+</text>
<text text-anchor="start" x="54.5" y="-21.5" font-family="Helvetica,sans-Serif" font-size="10.00">execute_async()</text>
<text text-anchor="start" x="36.5" y="-6.5" font-family="Helvetica,sans-Serif" font-size="10.00">+</text>
<text text-anchor="start" x="54.5" y="-6.5" font-family="Helvetica,sans-Serif" font-size="10.00">draw()</text>
<polygon fill="#666666" stroke="#666666" points="27.5,-91.5 27.5,-91.5 148.5,-91.5 148.5,-91.5 27.5,-91.5"/>
<polygon fill="#666666" stroke="#666666" points="27.5,-31.5 27.5,-31.5 52.5,-31.5 52.5,-31.5 27.5,-31.5"/>
<polygon fill="#666666" stroke="#666666" points="52.5,-31.5 52.5,-31.5 148.5,-31.5 148.5,-31.5 52.5,-31.5"/>
<polygon fill="none" stroke="#666666" points="27,0 27,-109 148,-109 148,0 27,0"/>
</a>
</g>
</g>
<!-- Node2 -->
<g id="Node000002" class="node">
<title>Node2</title>
<g id="a_Node000002"><a xlink:title=" ">
<polygon fill="white" stroke="transparent" points="53,-244.5 0,-244.5 0,-195.5 53,-195.5 53,-244.5"/>
<text text-anchor="start" x="5.5" y="-232" font-family="Helvetica,sans-Serif" font-size="10.00">Operator</text>
<text text-anchor="start" x="25" y="-217" font-family="Helvetica,sans-Serif" font-size="10.00"> </text>
<text text-anchor="start" x="25" y="-202" font-family="Helvetica,sans-Serif" font-size="10.00"> </text>
<polygon fill="#666666" stroke="#666666" points="0.5,-227 0.5,-227 53.5,-227 53.5,-227 0.5,-227"/>
<polygon fill="#666666" stroke="#666666" points="0.5,-212 0.5,-212 53.5,-212 53.5,-212 0.5,-212"/>
<polygon fill="none" stroke="#666666" points="0,-195.5 0,-244.5 53,-244.5 53,-195.5 0,-195.5"/>
</a>
</g>
</g>
<!-- Node2&#45;&gt;Node1 -->
<g id="edge5_Node000001_Node000002" class="edge">
<title>Node2&#45;&gt;Node1</title>
<g id="a_edge5_Node000001_Node000002"><a xlink:title=" ">
<path fill="none" stroke="#63b8ff" d="M38.94,-185.66C47.15,-163.64 58.1,-134.3 67.52,-109.04"/>
<polygon fill="none" stroke="#63b8ff" points="35.59,-184.63 35.37,-195.23 42.14,-187.08 35.59,-184.63"/>
</a>
</g>
</g>
<!-- Node3 -->
<g id="Node000003" class="node">
<title>Node3</title>
<g id="a_Node000003"><a xlink:href="$classcam_1_1async__op_1_1AsyncOperatorMixin.html" xlink:title=" ">
<polygon fill="white" stroke="transparent" points="226,-295 71,-295 71,-145 226,-145 226,-295"/>
<text text-anchor="start" x="76.5" y="-283" font-family="Helvetica,sans-Serif" font-size="10.00">cam.async_op.AsyncOperator</text>
<text text-anchor="start" x="135" y="-272" font-family="Helvetica,sans-Serif" font-size="10.00">Mixin</text>
<text text-anchor="start" x="88.5" y="-257" font-family="Helvetica,sans-Serif" font-size="10.00">+</text>
<text text-anchor="start" x="114.5" y="-257" font-family="Helvetica,sans-Serif" font-size="10.00">timer</text>
<text text-anchor="start" x="88.5" y="-242" font-family="Helvetica,sans-Serif" font-size="10.00">+</text>
<text text-anchor="start" x="114.5" y="-242" font-family="Helvetica,sans-Serif" font-size="10.00">coroutine</text>
<text text-anchor="start" x="88.5" y="-227" font-family="Helvetica,sans-Serif" font-size="10.00">#</text>
<text text-anchor="start" x="114.5" y="-227" font-family="Helvetica,sans-Serif" font-size="10.00">_is_cancelled</text>
<text text-anchor="start" x="88.5" y="-212" font-family="Helvetica,sans-Serif" font-size="10.00">+</text>
<text text-anchor="start" x="114.5" y="-212" font-family="Helvetica,sans-Serif" font-size="10.00">__init__()</text>
<text text-anchor="start" x="88.5" y="-197" font-family="Helvetica,sans-Serif" font-size="10.00">+</text>
<text text-anchor="start" x="114.5" y="-197" font-family="Helvetica,sans-Serif" font-size="10.00">modal()</text>
<text text-anchor="start" x="88.5" y="-182" font-family="Helvetica,sans-Serif" font-size="10.00">+</text>
<text text-anchor="start" x="114.5" y="-182" font-family="Helvetica,sans-Serif" font-size="10.00">show_progress()</text>
<text text-anchor="start" x="88.5" y="-167" font-family="Helvetica,sans-Serif" font-size="10.00">+</text>
<text text-anchor="start" x="114.5" y="-167" font-family="Helvetica,sans-Serif" font-size="10.00">tick()</text>
<text text-anchor="start" x="88.5" y="-152" font-family="Helvetica,sans-Serif" font-size="10.00">+</text>
<text text-anchor="start" x="114.5" y="-152" font-family="Helvetica,sans-Serif" font-size="10.00">execute()</text>
<polygon fill="#666666" stroke="#666666" points="71.5,-267 71.5,-267 226.5,-267 226.5,-267 71.5,-267"/>
<polygon fill="#666666" stroke="#666666" points="71.5,-222 71.5,-222 112.5,-222 112.5,-222 71.5,-222"/>
<polygon fill="#666666" stroke="#666666" points="112.5,-222 112.5,-222 226.5,-222 226.5,-222 112.5,-222"/>
<polygon fill="none" stroke="#666666" points="71,-145 71,-295 226,-295 226,-145 71,-145"/>
</a>
</g>
</g>
<!-- Node3&#45;&gt;Node1 -->
<g id="edge6_Node000001_Node000003" class="edge">
<title>Node3&#45;&gt;Node1</title>
<g id="a_edge6_Node000001_Node000003"><a xlink:title=" ">
<path fill="none" stroke="#63b8ff" d="M117.28,-135.32C113.98,-126.47 110.69,-117.66 107.57,-109.29"/>
<polygon fill="none" stroke="#63b8ff" points="114.08,-136.76 120.86,-144.9 120.64,-134.31 114.08,-136.76"/>
</a>
</g>
</g>
</g>
</svg>
