<?xml version="1.0" encoding="UTF-8" standalone="no"?>
<!DOCTYPE svg PUBLIC "-//W3C//DTD SVG 1.1//EN"
 "http://www.w3.org/Graphics/SVG/1.1/DTD/svg11.dtd">
<!-- Generated by graphviz version 2.43.0 (0)
 -->
<!-- Title: cam.ops.CalculatePath Pages: 1 -->
<svg width="375pt" height="280pt"
 viewBox="0.00 0.00 374.50 280.00" xmlns="http://www.w3.org/2000/svg" xmlns:xlink="http://www.w3.org/1999/xlink">
<g id="graph0" class="graph" transform="scale(1 1) rotate(0) translate(4 276)">
<title>cam.ops.CalculatePath</title>
<!-- Node1 -->
<g id="Node000001" class="node">
<title>Node1</title>
<g id="a_Node000001"><a xlink:title=" ">
<polygon fill="#999999" stroke="transparent" points="241.5,-64 119.5,-64 119.5,0 241.5,0 241.5,-64"/>
<text text-anchor="start" x="124.5" y="-52" font-family="Helvetica,sans-Serif" font-size="10.00">cam.ops.CalculatePath</text>
<text text-anchor="start" x="178.5" y="-37" font-family="Helvetica,sans-Serif" font-size="10.00"> </text>
<text text-anchor="start" x="128.5" y="-22" font-family="Helvetica,sans-Serif" font-size="10.00">+</text>
<text text-anchor="start" x="146.5" y="-22" font-family="Helvetica,sans-Serif" font-size="10.00">poll()</text>
<text text-anchor="start" x="128.5" y="-7" font-family="Helvetica,sans-Serif" font-size="10.00">+</text>
<text text-anchor="start" x="146.5" y="-7" font-family="Helvetica,sans-Serif" font-size="10.00">execute_async()</text>
<polygon fill="#666666" stroke="#666666" points="119.5,-47 119.5,-47 241.5,-47 241.5,-47 119.5,-47"/>
<polygon fill="#666666" stroke="#666666" points="119.5,-32 119.5,-32 241.5,-32 241.5,-32 119.5,-32"/>
<polygon fill="none" stroke="#666666" points="119.5,0 119.5,-64 241.5,-64 241.5,0 119.5,0"/>
</a>
</g>
</g>
<!-- Node2 -->
<g id="Node000002" class="node">
<title>Node2</title>
<g id="a_Node000002"><a xlink:title=" ">
<polygon fill="white" stroke="transparent" points="53,-221.5 0,-221.5 0,-172.5 53,-172.5 53,-221.5"/>
<text text-anchor="start" x="5.5" y="-209" font-family="Helvetica,sans-Serif" font-size="10.00">Operator</text>
<text text-anchor="start" x="25" y="-194" font-family="Helvetica,sans-Serif" font-size="10.00"> </text>
<text text-anchor="start" x="25" y="-179" font-family="Helvetica,sans-Serif" font-size="10.00"> </text>
<polygon fill="#666666" stroke="#666666" points="0.5,-204 0.5,-204 53.5,-204 53.5,-204 0.5,-204"/>
<polygon fill="#666666" stroke="#666666" points="0.5,-189 0.5,-189 53.5,-189 53.5,-189 0.5,-189"/>
<polygon fill="none" stroke="#666666" points="0,-172.5 0,-221.5 53,-221.5 53,-172.5 0,-172.5"/>
</a>
</g>
</g>
<!-- Node2&#45;&gt;Node1 -->
<g id="edge9_Node000001_Node000002" class="edge">
<title>Node2&#45;&gt;Node1</title>
<g id="a_edge9_Node000001_Node000002"><a xlink:title=" ">
<path fill="none" stroke="#63b8ff" d="M38.1,-162.85C43.83,-149.31 51.66,-134.04 61.5,-122 79.95,-99.43 105.3,-79.44 127.86,-64.16"/>
<polygon fill="none" stroke="#63b8ff" points="34.77,-161.74 34.3,-172.33 41.27,-164.35 34.77,-161.74"/>
</a>
</g>
</g>
<!-- Node3 -->
<g id="Node000003" class="node">
<title>Node3</title>
<g id="a_Node000003"><a xlink:href="$classcam_1_1async__op_1_1AsyncOperatorMixin.html" xlink:title=" ">
<polygon fill="white" stroke="transparent" points="226,-272 71,-272 71,-122 226,-122 226,-272"/>
<text text-anchor="start" x="76.5" y="-260" font-family="Helvetica,sans-Serif" font-size="10.00">cam.async_op.AsyncOperator</text>
<text text-anchor="start" x="135" y="-249" font-family="Helvetica,sans-Serif" font-size="10.00">Mixin</text>
<text text-anchor="start" x="88.5" y="-234" font-family="Helvetica,sans-Serif" font-size="10.00">+</text>
<text text-anchor="start" x="114.5" y="-234" font-family="Helvetica,sans-Serif" font-size="10.00">timer</text>
<text text-anchor="start" x="88.5" y="-219" font-family="Helvetica,sans-Serif" font-size="10.00">+</text>
<text text-anchor="start" x="114.5" y="-219" font-family="Helvetica,sans-Serif" font-size="10.00">coroutine</text>
<text text-anchor="start" x="88.5" y="-204" font-family="Helvetica,sans-Serif" font-size="10.00">#</text>
<text text-anchor="start" x="114.5" y="-204" font-family="Helvetica,sans-Serif" font-size="10.00">_is_cancelled</text>
<text text-anchor="start" x="88.5" y="-189" font-family="Helvetica,sans-Serif" font-size="10.00">+</text>
<text text-anchor="start" x="114.5" y="-189" font-family="Helvetica,sans-Serif" font-size="10.00">__init__()</text>
<text text-anchor="start" x="88.5" y="-174" font-family="Helvetica,sans-Serif" font-size="10.00">+</text>
<text text-anchor="start" x="114.5" y="-174" font-family="Helvetica,sans-Serif" font-size="10.00">modal()</text>
<text text-anchor="start" x="88.5" y="-159" font-family="Helvetica,sans-Serif" font-size="10.00">+</text>
<text text-anchor="start" x="114.5" y="-159" font-family="Helvetica,sans-Serif" font-size="10.00">show_progress()</text>
<text text-anchor="start" x="88.5" y="-144" font-family="Helvetica,sans-Serif" font-size="10.00">+</text>
<text text-anchor="start" x="114.5" y="-144" font-family="Helvetica,sans-Serif" font-size="10.00">tick()</text>
<text text-anchor="start" x="88.5" y="-129" font-family="Helvetica,sans-Serif" font-size="10.00">+</text>
<text text-anchor="start" x="114.5" y="-129" font-family="Helvetica,sans-Serif" font-size="10.00">execute()</text>
<polygon fill="#666666" stroke="#666666" points="71.5,-244 71.5,-244 226.5,-244 226.5,-244 71.5,-244"/>
<polygon fill="#666666" stroke="#666666" points="71.5,-199 71.5,-199 112.5,-199 112.5,-199 71.5,-199"/>
<polygon fill="#666666" stroke="#666666" points="112.5,-199 112.5,-199 226.5,-199 226.5,-199 112.5,-199"/>
<polygon fill="none" stroke="#666666" points="71,-122 71,-272 226,-272 226,-122 71,-122"/>
</a>
</g>
</g>
<!-- Node3&#45;&gt;Node1 -->
<g id="edge10_Node000001_Node000003" class="edge">
<title>Node3&#45;&gt;Node1</title>
<g id="a_edge10_Node000001_Node000003"><a xlink:title=" ">
<path fill="none" stroke="#63b8ff" d="M165.06,-111.63C168.41,-94.59 171.72,-77.73 174.41,-64.01"/>
<polygon fill="none" stroke="#63b8ff" points="161.59,-111.17 163.1,-121.65 168.46,-112.52 161.59,-111.17"/>
</a>
</g>
</g>
<!-- Node4 -->
<g id="Node000004" class="node">
<title>Node4</title>
<g id="a_Node000004"><a xlink:title=" ">
<polygon fill="white" stroke="transparent" points="267,-221.5 244,-221.5 244,-172.5 267,-172.5 267,-221.5"/>
<text text-anchor="start" x="249.5" y="-209" font-family="Helvetica,sans-Serif" font-size="10.00">str</text>
<text text-anchor="start" x="254" y="-194" font-family="Helvetica,sans-Serif" font-size="10.00"> </text>
<text text-anchor="start" x="254" y="-179" font-family="Helvetica,sans-Serif" font-size="10.00"> </text>
<polygon fill="#666666" stroke="#666666" points="244.5,-204 244.5,-204 267.5,-204 267.5,-204 244.5,-204"/>
<polygon fill="#666666" stroke="#666666" points="244.5,-189 244.5,-189 267.5,-189 267.5,-189 244.5,-189"/>
<polygon fill="none" stroke="#666666" points="244,-172.5 244,-221.5 267,-221.5 267,-172.5 244,-172.5"/>
</a>
</g>
</g>
<!-- Node4&#45;&gt;Node1 -->
<g id="edge11_Node000001_Node000004" class="edge">
<title>Node4&#45;&gt;Node1</title>
<g id="a_edge11_Node000001_Node000004"><a xlink:title=" ">
<path fill="none" stroke="#63b8ff" d="M250.96,-172.42C247.66,-157.58 242.54,-138.24 235.5,-122 228.47,-105.77 218.83,-89.01 209.59,-74.48"/>
<polygon fill="none" stroke="#63b8ff" points="209.52,-74.37 202.89,-71.53 202.97,-64.32 209.59,-67.16 209.52,-74.37"/>
</a>
</g>
<text text-anchor="middle" x="256" y="-96" font-family="Helvetica,sans-Serif" font-size="10.00" fill="grey"> +bl_idname</text>
<text text-anchor="middle" x="256" y="-85" font-family="Helvetica,sans-Serif" font-size="10.00" fill="grey">+bl_label</text>
</g>
<!-- Node5 -->
<g id="Node000005" class="node">
<title>Node5</title>
<g id="a_Node000005"><a xlink:title=" ">
<polygon fill="white" stroke="transparent" points="335,-221.5 306,-221.5 306,-172.5 335,-172.5 335,-221.5"/>
<text text-anchor="start" x="311.5" y="-209" font-family="Helvetica,sans-Serif" font-size="10.00">dict</text>
<text text-anchor="start" x="319" y="-194" font-family="Helvetica,sans-Serif" font-size="10.00"> </text>
<text text-anchor="start" x="319" y="-179" font-family="Helvetica,sans-Serif" font-size="10.00"> </text>
<polygon fill="#666666" stroke="#666666" points="306.5,-204 306.5,-204 335.5,-204 335.5,-204 306.5,-204"/>
<polygon fill="#666666" stroke="#666666" points="306.5,-189 306.5,-189 335.5,-189 335.5,-189 306.5,-189"/>
<polygon fill="none" stroke="#666666" points="306,-172.5 306,-221.5 335,-221.5 335,-172.5 306,-172.5"/>
</a>
</g>
</g>
<!-- Node5&#45;&gt;Node1 -->
<g id="edge12_Node000001_Node000005" class="edge">
<title>Node5&#45;&gt;Node1</title>
<g id="a_edge12_Node000001_Node000005"><a xlink:title=" ">
<path fill="none" stroke="#63b8ff" d="M320.34,-172.32C318.95,-147.16 313.13,-107.57 291.5,-82 281.2,-69.82 267.29,-60.57 252.8,-53.56"/>
<polygon fill="none" stroke="#63b8ff" points="252.63,-53.49 245.52,-54.72 241.65,-48.64 248.76,-47.4 252.63,-53.49"/>
</a>
</g>
<text text-anchor="middle" x="335.5" y="-90.5" font-family="Helvetica,sans-Serif" font-size="10.00" fill="grey"> +bl_options</text>
</g>
</g>
</svg>
