<?xml version="1.0" encoding="UTF-8" standalone="no"?>
<!DOCTYPE svg PUBLIC "-//W3C//DTD SVG 1.1//EN"
 "http://www.w3.org/Graphics/SVG/1.1/DTD/svg11.dtd">
<!-- Generated by graphviz version 2.43.0 (0)
 -->
<!-- Title: cam.curvecamtools.CamCurveIntarsion Pages: 1 -->
<svg width="169pt" height="348pt"
 viewBox="0.00 0.00 169.00 348.00" xmlns="http://www.w3.org/2000/svg" xmlns:xlink="http://www.w3.org/1999/xlink">
<g id="graph0" class="graph" transform="scale(1 1) rotate(0) translate(4 344)">
<title>cam.curvecamtools.CamCurveIntarsion</title>
<!-- Node1 -->
<g id="Node000001" class="node">
<title>Node1</title>
<g id="a_Node000001"><a xlink:title=" ">
<polygon fill="#999999" stroke="transparent" points="161,-255 0,-255 0,0 161,0 161,-255"/>
<text text-anchor="start" x="5.5" y="-242.5" font-family="Helvetica,sans-Serif" font-size="10.00">cam.curvecamtools.CamCurve</text>
<text text-anchor="start" x="59.5" y="-231.5" font-family="Helvetica,sans-Serif" font-size="10.00">Intarsion</text>
<text text-anchor="start" x="7.5" y="-216.5" font-family="Helvetica,sans-Serif" font-size="10.00">+</text>
<text text-anchor="start" x="23.5" y="-216.5" font-family="Helvetica,sans-Serif" font-size="10.00">perimeter_cut</text>
<text text-anchor="start" x="7.5" y="-201.5" font-family="Helvetica,sans-Serif" font-size="10.00">+</text>
<text text-anchor="start" x="23.5" y="-201.5" font-family="Helvetica,sans-Serif" font-size="10.00">backlight</text>
<text text-anchor="start" x="7.5" y="-186.5" font-family="Helvetica,sans-Serif" font-size="10.00">+</text>
<text text-anchor="start" x="23.5" y="-186.5" font-family="Helvetica,sans-Serif" font-size="10.00">bl_idname</text>
<text text-anchor="start" x="7.5" y="-171.5" font-family="Helvetica,sans-Serif" font-size="10.00">+</text>
<text text-anchor="start" x="23.5" y="-171.5" font-family="Helvetica,sans-Serif" font-size="10.00">bl_label</text>
<text text-anchor="start" x="7.5" y="-156.5" font-family="Helvetica,sans-Serif" font-size="10.00">+</text>
<text text-anchor="start" x="23.5" y="-156.5" font-family="Helvetica,sans-Serif" font-size="10.00">bl_options</text>
<text text-anchor="start" x="7.5" y="-141.5" font-family="Helvetica,sans-Serif" font-size="10.00">+</text>
<text text-anchor="start" x="23.5" y="-141.5" font-family="Helvetica,sans-Serif" font-size="10.00">diameter</text>
<text text-anchor="start" x="7.5" y="-126.5" font-family="Helvetica,sans-Serif" font-size="10.00">+</text>
<text text-anchor="start" x="23.5" y="-126.5" font-family="Helvetica,sans-Serif" font-size="10.00">tolerance</text>
<text text-anchor="start" x="7.5" y="-111.5" font-family="Helvetica,sans-Serif" font-size="10.00">+</text>
<text text-anchor="start" x="23.5" y="-111.5" font-family="Helvetica,sans-Serif" font-size="10.00">backlight</text>
<text text-anchor="start" x="7.5" y="-96.5" font-family="Helvetica,sans-Serif" font-size="10.00">+</text>
<text text-anchor="start" x="23.5" y="-96.5" font-family="Helvetica,sans-Serif" font-size="10.00">perimeter_cut</text>
<text text-anchor="start" x="7.5" y="-81.5" font-family="Helvetica,sans-Serif" font-size="10.00">+</text>
<text text-anchor="start" x="23.5" y="-81.5" font-family="Helvetica,sans-Serif" font-size="10.00">base_thickness</text>
<text text-anchor="start" x="7.5" y="-66.5" font-family="Helvetica,sans-Serif" font-size="10.00">+</text>
<text text-anchor="start" x="23.5" y="-66.5" font-family="Helvetica,sans-Serif" font-size="10.00">intarsion_thickness</text>
<text text-anchor="start" x="7.5" y="-51.5" font-family="Helvetica,sans-Serif" font-size="10.00">+</text>
<text text-anchor="start" x="23.5" y="-51.5" font-family="Helvetica,sans-Serif" font-size="10.00">backlight_depth_from_top</text>
<text text-anchor="start" x="7.5" y="-36.5" font-family="Helvetica,sans-Serif" font-size="10.00">+</text>
<text text-anchor="start" x="23.5" y="-36.5" font-family="Helvetica,sans-Serif" font-size="10.00">poll()</text>
<text text-anchor="start" x="7.5" y="-21.5" font-family="Helvetica,sans-Serif" font-size="10.00">+</text>
<text text-anchor="start" x="23.5" y="-21.5" font-family="Helvetica,sans-Serif" font-size="10.00">execute()</text>
<text text-anchor="start" x="7.5" y="-6.5" font-family="Helvetica,sans-Serif" font-size="10.00">+</text>
<text text-anchor="start" x="23.5" y="-6.5" font-family="Helvetica,sans-Serif" font-size="10.00">invoke()</text>
<polygon fill="#666666" stroke="#666666" points="0.5,-226.5 0.5,-226.5 161.5,-226.5 161.5,-226.5 0.5,-226.5"/>
<polygon fill="#666666" stroke="#666666" points="0.5,-46.5 0.5,-46.5 21.5,-46.5 21.5,-46.5 0.5,-46.5"/>
<polygon fill="#666666" stroke="#666666" points="21.5,-46.5 21.5,-46.5 161.5,-46.5 161.5,-46.5 21.5,-46.5"/>
<polygon fill="none" stroke="#666666" points="0,0 0,-255 161,-255 161,0 0,0"/>
</a>
</g>
</g>
<!-- Node2 -->
<g id="Node000002" class="node">
<title>Node2</title>
<g id="a_Node000002"><a xlink:title=" ">
<polygon fill="white" stroke="transparent" points="107,-340 54,-340 54,-291 107,-291 107,-340"/>
<text text-anchor="start" x="59.5" y="-327.5" font-family="Helvetica,sans-Serif" font-size="10.00">Operator</text>
<text text-anchor="start" x="79" y="-312.5" font-family="Helvetica,sans-Serif" font-size="10.00"> </text>
<text text-anchor="start" x="79" y="-297.5" font-family="Helvetica,sans-Serif" font-size="10.00"> </text>
<polygon fill="#666666" stroke="#666666" points="54.5,-322.5 54.5,-322.5 107.5,-322.5 107.5,-322.5 54.5,-322.5"/>
<polygon fill="#666666" stroke="#666666" points="54.5,-307.5 54.5,-307.5 107.5,-307.5 107.5,-307.5 54.5,-307.5"/>
<polygon fill="none" stroke="#666666" points="54,-291 54,-340 107,-340 107,-291 54,-291"/>
</a>
</g>
</g>
<!-- Node2&#45;&gt;Node1 -->
<g id="edge3_Node000001_Node000002" class="edge">
<title>Node2&#45;&gt;Node1</title>
<g id="a_edge3_Node000001_Node000002"><a xlink:title=" ">
<path fill="none" stroke="#63b8ff" d="M80.5,-280.75C80.5,-273.08 80.5,-264.48 80.5,-255.39"/>
<polygon fill="none" stroke="#63b8ff" points="77,-280.94 80.5,-290.94 84,-280.94 77,-280.94"/>
</a>
</g>
</g>
</g>
</svg>
