<?xml version="1.0" encoding="UTF-8" standalone="no"?>
<!DOCTYPE svg PUBLIC "-//W3C//DTD SVG 1.1//EN"
 "http://www.w3.org/Graphics/SVG/1.1/DTD/svg11.dtd">
<!-- Generated by graphviz version 2.43.0 (0)
 -->
<!-- Title: cam.ui_panels.chains.CAM_CHAINS_Panel Pages: 1 -->
<svg width="656pt" height="398pt"
 viewBox="0.00 0.00 655.50 398.00" xmlns="http://www.w3.org/2000/svg" xmlns:xlink="http://www.w3.org/1999/xlink">
<g id="graph0" class="graph" transform="scale(1 1) rotate(0) translate(4 394)">
<title>cam.ui_panels.chains.CAM_CHAINS_Panel</title>
<!-- Node1 -->
<g id="Node000001" class="node">
<title>Node1</title>
<g id="a_Node000001"><a xlink:title=" ">
<polygon fill="#999999" stroke="transparent" points="450,-60 309,-60 309,0 450,0 450,-60"/>
<text text-anchor="start" x="314.5" y="-48" font-family="Helvetica,sans-Serif" font-size="10.00">cam.ui_panels.chains.CAM</text>
<text text-anchor="start" x="342.5" y="-37" font-family="Helvetica,sans-Serif" font-size="10.00">_CHAINS_Panel</text>
<text text-anchor="start" x="378" y="-22" font-family="Helvetica,sans-Serif" font-size="10.00"> </text>
<text text-anchor="start" x="335.5" y="-7" font-family="Helvetica,sans-Serif" font-size="10.00">+</text>
<text text-anchor="start" x="370.5" y="-7" font-family="Helvetica,sans-Serif" font-size="10.00">draw()</text>
<polygon fill="#666666" stroke="#666666" points="309.5,-32 309.5,-32 450.5,-32 450.5,-32 309.5,-32"/>
<polygon fill="#666666" stroke="#666666" points="309.5,-17 309.5,-17 450.5,-17 450.5,-17 309.5,-17"/>
<polygon fill="none" stroke="#666666" points="309,0 309,-60 450,-60 450,0 309,0"/>
</a>
</g>
</g>
<!-- Node2 -->
<g id="Node000002" class="node">
<title>Node2</title>
<g id="a_Node000002"><a xlink:href="$classcam_1_1ui__panels_1_1buttons__panel_1_1CAMButtonsPanel.html" xlink:title=" ">
<polygon fill="white" stroke="transparent" points="273,-272 130,-272 130,-107 273,-107 273,-272"/>
<text text-anchor="start" x="141" y="-259.5" font-family="Helvetica,sans-Serif" font-size="10.00">cam.ui_panels.buttons</text>
<text text-anchor="start" x="141" y="-248.5" font-family="Helvetica,sans-Serif" font-size="10.00">_panel.CAMButtonsPanel</text>
<text text-anchor="start" x="134.5" y="-233.5" font-family="Helvetica,sans-Serif" font-size="10.00">+</text>
<text text-anchor="start" x="147.5" y="-233.5" font-family="Helvetica,sans-Serif" font-size="10.00">op</text>
<text text-anchor="start" x="134.5" y="-218.5" font-family="Helvetica,sans-Serif" font-size="10.00">+</text>
<text text-anchor="start" x="147.5" y="-218.5" font-family="Helvetica,sans-Serif" font-size="10.00">use_experimental</text>
<text text-anchor="start" x="134.5" y="-203.5" font-family="Helvetica,sans-Serif" font-size="10.00">+</text>
<text text-anchor="start" x="147.5" y="-203.5" font-family="Helvetica,sans-Serif" font-size="10.00">poll()</text>
<text text-anchor="start" x="134.5" y="-188.5" font-family="Helvetica,sans-Serif" font-size="10.00">+</text>
<text text-anchor="start" x="147.5" y="-188.5" font-family="Helvetica,sans-Serif" font-size="10.00">active_operation_index()</text>
<text text-anchor="start" x="134.5" y="-173.5" font-family="Helvetica,sans-Serif" font-size="10.00">+</text>
<text text-anchor="start" x="147.5" y="-173.5" font-family="Helvetica,sans-Serif" font-size="10.00">active_operation()</text>
<text text-anchor="start" x="134.5" y="-158.5" font-family="Helvetica,sans-Serif" font-size="10.00">+</text>
<text text-anchor="start" x="147.5" y="-158.5" font-family="Helvetica,sans-Serif" font-size="10.00">__init__()</text>
<text text-anchor="start" x="134.5" y="-143.5" font-family="Helvetica,sans-Serif" font-size="10.00">+</text>
<text text-anchor="start" x="147.5" y="-143.5" font-family="Helvetica,sans-Serif" font-size="10.00">operations_count()</text>
<text text-anchor="start" x="134.5" y="-128.5" font-family="Helvetica,sans-Serif" font-size="10.00">+</text>
<text text-anchor="start" x="147.5" y="-128.5" font-family="Helvetica,sans-Serif" font-size="10.00">has_operations()</text>
<text text-anchor="start" x="134.5" y="-113.5" font-family="Helvetica,sans-Serif" font-size="10.00">+</text>
<text text-anchor="start" x="147.5" y="-113.5" font-family="Helvetica,sans-Serif" font-size="10.00">has_correct_level()</text>
<polygon fill="#666666" stroke="#666666" points="130.5,-243.5 130.5,-243.5 273.5,-243.5 273.5,-243.5 130.5,-243.5"/>
<polygon fill="#666666" stroke="#666666" points="130.5,-213.5 130.5,-213.5 145.5,-213.5 145.5,-213.5 130.5,-213.5"/>
<polygon fill="#666666" stroke="#666666" points="145.5,-213.5 145.5,-213.5 273.5,-213.5 273.5,-213.5 145.5,-213.5"/>
<polygon fill="none" stroke="#666666" points="130,-107 130,-272 273,-272 273,-107 130,-107"/>
</a>
</g>
</g>
<!-- Node2&#45;&gt;Node1 -->
<g id="edge17_Node000001_Node000002" class="edge">
<title>Node2&#45;&gt;Node1</title>
<g id="a_edge17_Node000001_Node000002"><a xlink:title=" ">
<path fill="none" stroke="#63b8ff" d="M280.89,-118.25C303.91,-97.89 327.79,-76.75 346.29,-60.39"/>
<polygon fill="none" stroke="#63b8ff" points="278.3,-115.87 273.13,-125.12 282.94,-121.11 278.3,-115.87"/>
</a>
</g>
</g>
<!-- Node3 -->
<g id="Node000003" class="node">
<title>Node3</title>
<g id="a_Node000003"><a xlink:title=" ">
<polygon fill="white" stroke="transparent" points="23,-390 0,-390 0,-341 23,-341 23,-390"/>
<text text-anchor="start" x="5.5" y="-377.5" font-family="Helvetica,sans-Serif" font-size="10.00">str</text>
<text text-anchor="start" x="10" y="-362.5" font-family="Helvetica,sans-Serif" font-size="10.00"> </text>
<text text-anchor="start" x="10" y="-347.5" font-family="Helvetica,sans-Serif" font-size="10.00"> </text>
<polygon fill="#666666" stroke="#666666" points="0.5,-372.5 0.5,-372.5 23.5,-372.5 23.5,-372.5 0.5,-372.5"/>
<polygon fill="#666666" stroke="#666666" points="0.5,-357.5 0.5,-357.5 23.5,-357.5 23.5,-357.5 0.5,-357.5"/>
<polygon fill="none" stroke="#666666" points="0,-341 0,-390 23,-390 23,-341 0,-341"/>
</a>
</g>
</g>
<!-- Node3&#45;&gt;Node1 -->
<g id="edge22_Node000001_Node000003" class="edge">
<title>Node3&#45;&gt;Node1</title>
<g id="a_edge22_Node000001_Node000003"><a xlink:title=" ">
<path fill="none" stroke="#63b8ff" d="M7.91,-340.81C1.72,-290.38 -4.88,-171.76 57.5,-107 90.11,-73.14 212.68,-51.51 296.83,-40.31"/>
<polygon fill="none" stroke="#63b8ff" points="297.05,-40.28 302.48,-35.54 308.95,-38.73 303.51,-43.47 297.05,-40.28"/>
</a>
</g>
<text text-anchor="middle" x="89" y="-192.5" font-family="Helvetica,sans-Serif" font-size="10.00" fill="grey"> +bl_idname</text>
<text text-anchor="middle" x="89" y="-181.5" font-family="Helvetica,sans-Serif" font-size="10.00" fill="grey">+bl_label</text>
</g>
<!-- Node3&#45;&gt;Node2 -->
<g id="edge18_Node000002_Node000003" class="edge">
<title>Node3&#45;&gt;Node2</title>
<g id="a_edge18_Node000002_Node000003"><a xlink:title=" ">
<path fill="none" stroke="#63b8ff" d="M17.69,-340.68C22.69,-324.97 30.97,-304.66 43.5,-290 55.33,-276.16 87.21,-255.3 119.25,-236.26"/>
<polygon fill="none" stroke="#63b8ff" points="119.3,-236.23 122.44,-229.74 129.64,-230.15 126.5,-236.64 119.3,-236.23"/>
</a>
</g>
<text text-anchor="middle" x="84" y="-315" font-family="Helvetica,sans-Serif" font-size="10.00" fill="grey"> +bl_context</text>
<text text-anchor="middle" x="84" y="-304" font-family="Helvetica,sans-Serif" font-size="10.00" fill="grey">+bl_region_type</text>
<text text-anchor="middle" x="84" y="-293" font-family="Helvetica,sans-Serif" font-size="10.00" fill="grey">+bl_space_type</text>
</g>
<!-- Node4 -->
<g id="Node000004" class="node">
<title>Node4</title>
<g id="a_Node000004"><a xlink:title=" ">
<polygon fill="white" stroke="transparent" points="333.5,-390 301.5,-390 301.5,-341 333.5,-341 333.5,-390"/>
<text text-anchor="start" x="306.5" y="-377.5" font-family="Helvetica,sans-Serif" font-size="10.00">bool</text>
<text text-anchor="start" x="315.5" y="-362.5" font-family="Helvetica,sans-Serif" font-size="10.00"> </text>
<text text-anchor="start" x="315.5" y="-347.5" font-family="Helvetica,sans-Serif" font-size="10.00"> </text>
<polygon fill="#666666" stroke="#666666" points="301.5,-372.5 301.5,-372.5 333.5,-372.5 333.5,-372.5 301.5,-372.5"/>
<polygon fill="#666666" stroke="#666666" points="301.5,-357.5 301.5,-357.5 333.5,-357.5 333.5,-357.5 301.5,-357.5"/>
<polygon fill="none" stroke="#666666" points="301.5,-341 301.5,-390 333.5,-390 333.5,-341 301.5,-341"/>
</a>
</g>
</g>
<!-- Node4&#45;&gt;Node1 -->
<g id="edge24_Node000001_Node000004" class="edge">
<title>Node4&#45;&gt;Node1</title>
<g id="a_edge24_Node000001_Node000004"><a xlink:title=" ">
<path fill="none" stroke="#63b8ff" d="M333.51,-355.51C344.64,-348.3 358.66,-337.07 365.5,-323 386.41,-280.04 384.13,-142.32 381.47,-72.47"/>
<polygon fill="none" stroke="#63b8ff" points="381.46,-72.24 377.22,-66.41 380.97,-60.25 385.21,-66.09 381.46,-72.24"/>
</a>
</g>
<text text-anchor="middle" x="438" y="-187" font-family="Helvetica,sans-Serif" font-size="10.00" fill="grey"> +always_show_panel</text>
</g>
<!-- Node4&#45;&gt;Node2 -->
<g id="edge19_Node000002_Node000004" class="edge">
<title>Node4&#45;&gt;Node2</title>
<g id="a_edge19_Node000002_Node000004"><a xlink:title=" ">
<path fill="none" stroke="#63b8ff" d="M301.3,-356.85C287.74,-349.74 268.71,-338 256.5,-323 246.88,-311.19 238.72,-297.46 231.87,-283.4"/>
<polygon fill="none" stroke="#63b8ff" points="231.68,-282.99 225.53,-279.22 226.65,-272.09 232.8,-275.87 231.68,-282.99"/>
</a>
</g>
<text text-anchor="middle" x="311" y="-304" font-family="Helvetica,sans-Serif" font-size="10.00" fill="grey"> +always_show_panel</text>
</g>
<!-- Node5 -->
<g id="Node000005" class="node">
<title>Node5</title>
<g id="a_Node000005"><a xlink:title=" ">
<polygon fill="white" stroke="transparent" points="146,-390 117,-390 117,-341 146,-341 146,-390"/>
<text text-anchor="start" x="122.5" y="-377.5" font-family="Helvetica,sans-Serif" font-size="10.00">dict</text>
<text text-anchor="start" x="130" y="-362.5" font-family="Helvetica,sans-Serif" font-size="10.00"> </text>
<text text-anchor="start" x="130" y="-347.5" font-family="Helvetica,sans-Serif" font-size="10.00"> </text>
<polygon fill="#666666" stroke="#666666" points="117.5,-372.5 117.5,-372.5 146.5,-372.5 146.5,-372.5 117.5,-372.5"/>
<polygon fill="#666666" stroke="#666666" points="117.5,-357.5 117.5,-357.5 146.5,-357.5 146.5,-357.5 117.5,-357.5"/>
<polygon fill="none" stroke="#666666" points="117,-341 117,-390 146,-390 146,-341 117,-341"/>
</a>
</g>
</g>
<!-- Node5&#45;&gt;Node2 -->
<g id="edge20_Node000002_Node000005" class="edge">
<title>Node5&#45;&gt;Node2</title>
<g id="a_edge20_Node000002_Node000005"><a xlink:title=" ">
<path fill="none" stroke="#63b8ff" d="M128.34,-340.78C127.19,-325.85 127.25,-306.38 132.5,-290 133.22,-287.75 134.01,-285.5 134.87,-283.26"/>
<polygon fill="none" stroke="#63b8ff" points="134.89,-283.21 133.58,-276.12 139.62,-272.18 140.93,-279.27 134.89,-283.21"/>
</a>
</g>
<text text-anchor="middle" x="183" y="-304" font-family="Helvetica,sans-Serif" font-size="10.00" fill="grey"> +COMPAT_ENGINES</text>
</g>
<!-- Node6 -->
<g id="Node000006" class="node">
<title>Node6</title>
<g id="a_Node000006"><a xlink:title=" ">
<polygon fill="white" stroke="transparent" points="544,-214 507,-214 507,-165 544,-165 544,-214"/>
<text text-anchor="start" x="512.5" y="-201.5" font-family="Helvetica,sans-Serif" font-size="10.00">Panel</text>
<text text-anchor="start" x="524" y="-186.5" font-family="Helvetica,sans-Serif" font-size="10.00"> </text>
<text text-anchor="start" x="524" y="-171.5" font-family="Helvetica,sans-Serif" font-size="10.00"> </text>
<polygon fill="#666666" stroke="#666666" points="507.5,-196.5 507.5,-196.5 544.5,-196.5 544.5,-196.5 507.5,-196.5"/>
<polygon fill="#666666" stroke="#666666" points="507.5,-181.5 507.5,-181.5 544.5,-181.5 544.5,-181.5 507.5,-181.5"/>
<polygon fill="none" stroke="#666666" points="507,-165 507,-214 544,-214 544,-165 507,-165"/>
</a>
</g>
</g>
<!-- Node6&#45;&gt;Node1 -->
<g id="edge21_Node000001_Node000006" class="edge">
<title>Node6&#45;&gt;Node1</title>
<g id="a_edge21_Node000001_Node000006"><a xlink:title=" ">
<path fill="none" stroke="#63b8ff" d="M516.87,-154.9C511.66,-139.18 503.78,-120.9 492.5,-107 477.3,-88.27 456.28,-72.41 436.48,-60.09"/>
<polygon fill="none" stroke="#63b8ff" points="513.63,-156.27 519.93,-164.79 520.32,-154.2 513.63,-156.27"/>
</a>
</g>
</g>
<!-- Node7 -->
<g id="Node000007" class="node">
<title>Node7</title>
<g id="a_Node000007"><a xlink:title=" ">
<polygon fill="white" stroke="transparent" points="585,-214 562,-214 562,-165 585,-165 585,-214"/>
<text text-anchor="start" x="567.5" y="-201.5" font-family="Helvetica,sans-Serif" font-size="10.00">int</text>
<text text-anchor="start" x="572" y="-186.5" font-family="Helvetica,sans-Serif" font-size="10.00"> </text>
<text text-anchor="start" x="572" y="-171.5" font-family="Helvetica,sans-Serif" font-size="10.00"> </text>
<polygon fill="#666666" stroke="#666666" points="562.5,-196.5 562.5,-196.5 585.5,-196.5 585.5,-196.5 562.5,-196.5"/>
<polygon fill="#666666" stroke="#666666" points="562.5,-181.5 562.5,-181.5 585.5,-181.5 585.5,-181.5 562.5,-181.5"/>
<polygon fill="none" stroke="#666666" points="562,-165 562,-214 585,-214 585,-165 562,-165"/>
</a>
</g>
</g>
<!-- Node7&#45;&gt;Node1 -->
<g id="edge23_Node000001_Node000007" class="edge">
<title>Node7&#45;&gt;Node1</title>
<g id="a_edge23_Node000001_Node000007"><a xlink:title=" ">
<path fill="none" stroke="#63b8ff" d="M573.15,-164.93C571.72,-147.16 567.11,-123.16 553.5,-107 530.04,-79.14 494.43,-61.17 461.52,-49.75"/>
<polygon fill="none" stroke="#63b8ff" points="461.42,-49.72 454.47,-51.65 450.01,-45.98 456.96,-44.04 461.42,-49.72"/>
</a>
</g>
<text text-anchor="middle" x="589" y="-81" font-family="Helvetica,sans-Serif" font-size="10.00" fill="grey"> +panel_interface_level</text>
</g>
</g>
</svg>
