<?xml version="1.0" encoding="UTF-8" standalone="no"?>
<!DOCTYPE svg PUBLIC "-//W3C//DTD SVG 1.1//EN"
 "http://www.w3.org/Graphics/SVG/1.1/DTD/svg11.dtd">
<!-- Generated by graphviz version 2.43.0 (0)
 -->
<!-- Title: cam.ui_panels.interface.CAM_INTERFACE_Properties Pages: 1 -->
<svg width="188pt" height="164pt"
 viewBox="0.00 0.00 187.50 164.00" xmlns="http://www.w3.org/2000/svg" xmlns:xlink="http://www.w3.org/1999/xlink">
<g id="graph0" class="graph" transform="scale(1 1) rotate(0) translate(4 160)">
<title>cam.ui_panels.interface.CAM_INTERFACE_Properties</title>
<!-- Node1 -->
<g id="Node000001" class="node">
<title>Node1</title>
<g id="a_Node000001"><a xlink:title=" ">
<polygon fill="#999999" stroke="transparent" points="162.5,-60 16.5,-60 16.5,0 162.5,0 162.5,-60"/>
<text text-anchor="start" x="21.5" y="-48" font-family="Helvetica,sans-Serif" font-size="10.00">cam.ui_panels.interface.</text>
<text text-anchor="start" x="21.5" y="-37" font-family="Helvetica,sans-Serif" font-size="10.00">CAM_INTERFACE_Properties</text>
<text text-anchor="start" x="87.5" y="-22" font-family="Helvetica,sans-Serif" font-size="10.00"> </text>
<text text-anchor="start" x="87.5" y="-7" font-family="Helvetica,sans-Serif" font-size="10.00"> </text>
<polygon fill="#666666" stroke="#666666" points="16.5,-32 16.5,-32 162.5,-32 162.5,-32 16.5,-32"/>
<polygon fill="#666666" stroke="#666666" points="16.5,-17 16.5,-17 162.5,-17 162.5,-17 16.5,-17"/>
<polygon fill="none" stroke="#666666" points="16.5,0 16.5,-60 162.5,-60 162.5,0 16.5,0"/>
</a>
</g>
</g>
<!-- Node2 -->
<g id="Node000002" class="node">
<title>Node2</title>
<g id="a_Node000002"><a xlink:title=" ">
<polygon fill="white" stroke="transparent" points="81,-156 0,-156 0,-107 81,-107 81,-156"/>
<text text-anchor="start" x="5.5" y="-143.5" font-family="Helvetica,sans-Serif" font-size="10.00">PropertyGroup</text>
<text text-anchor="start" x="39" y="-128.5" font-family="Helvetica,sans-Serif" font-size="10.00"> </text>
<text text-anchor="start" x="39" y="-113.5" font-family="Helvetica,sans-Serif" font-size="10.00"> </text>
<polygon fill="#666666" stroke="#666666" points="0.5,-138.5 0.5,-138.5 81.5,-138.5 81.5,-138.5 0.5,-138.5"/>
<polygon fill="#666666" stroke="#666666" points="0.5,-123.5 0.5,-123.5 81.5,-123.5 81.5,-123.5 0.5,-123.5"/>
<polygon fill="none" stroke="#666666" points="0,-107 0,-156 81,-156 81,-107 0,-107"/>
</a>
</g>
</g>
<!-- Node2&#45;&gt;Node1 -->
<g id="edge5_Node000001_Node000002" class="edge">
<title>Node2&#45;&gt;Node1</title>
<g id="a_edge5_Node000001_Node000002"><a xlink:title=" ">
<path fill="none" stroke="#63b8ff" d="M56.71,-97.59C62.67,-85.48 69.38,-71.86 75.17,-60.1"/>
<polygon fill="none" stroke="#63b8ff" points="53.39,-96.4 52.11,-106.92 59.67,-99.5 53.39,-96.4"/>
</a>
</g>
</g>
<!-- Node3 -->
<g id="Node000003" class="node">
<title>Node3</title>
<g id="a_Node000003"><a xlink:title=" ">
<polygon fill="white" stroke="transparent" points="179.5,-156 99.5,-156 99.5,-107 179.5,-107 179.5,-156"/>
<text text-anchor="start" x="104.5" y="-143.5" font-family="Helvetica,sans-Serif" font-size="10.00">EnumProperty</text>
<text text-anchor="start" x="137.5" y="-128.5" font-family="Helvetica,sans-Serif" font-size="10.00"> </text>
<text text-anchor="start" x="137.5" y="-113.5" font-family="Helvetica,sans-Serif" font-size="10.00"> </text>
<polygon fill="#666666" stroke="#666666" points="99.5,-138.5 99.5,-138.5 179.5,-138.5 179.5,-138.5 99.5,-138.5"/>
<polygon fill="#666666" stroke="#666666" points="99.5,-123.5 99.5,-123.5 179.5,-123.5 179.5,-123.5 99.5,-123.5"/>
<polygon fill="none" stroke="#666666" points="99.5,-107 99.5,-156 179.5,-156 179.5,-107 99.5,-107"/>
</a>
</g>
</g>
<!-- Node3&#45;&gt;Node1 -->
<g id="edge6_Node000001_Node000003" class="edge">
<title>Node3&#45;&gt;Node1</title>
<g id="a_edge6_Node000001_Node000003"><a xlink:title=" ">
<path fill="none" stroke="#63b8ff" d="M127.65,-106.92C122.26,-96.18 115.72,-83.18 109.59,-70.98"/>
<polygon fill="none" stroke="#63b8ff" points="109.51,-70.82 103.24,-67.26 104.12,-60.1 110.39,-63.67 109.51,-70.82"/>
</a>
</g>
<text text-anchor="middle" x="134.5" y="-81" font-family="Helvetica,sans-Serif" font-size="10.00" fill="grey"> +level</text>
</g>
</g>
</svg>
