<?xml version="1.0" encoding="UTF-8" standalone="no"?>
<!DOCTYPE svg PUBLIC "-//W3C//DTD SVG 1.1//EN"
 "http://www.w3.org/Graphics/SVG/1.1/DTD/svg11.dtd">
<!-- Generated by graphviz version 2.43.0 (0)
 -->
<!-- Title: cam.nc.makerbotHBP.CreatorMakerbotHBP.set_extruder_flowrate Pages: 1 -->
<svg width="1247pt" height="487pt"
 viewBox="0.00 0.00 1247.00 486.50" xmlns="http://www.w3.org/2000/svg" xmlns:xlink="http://www.w3.org/1999/xlink">
<g id="graph0" class="graph" transform="scale(1 1) rotate(0) translate(4 482.5)">
<title>cam.nc.makerbotHBP.CreatorMakerbotHBP.set_extruder_flowrate</title>
<!-- Node1 -->
<g id="Node000001" class="node">
<title>Node1</title>
<g id="a_Node000001"><a xlink:title=" ">
<polygon fill="#999999" stroke="#666666" points="159,-296.5 0,-296.5 0,-255.5 159,-255.5 159,-296.5"/>
<text text-anchor="start" x="8" y="-284.5" font-family="Helvetica,sans-Serif" font-size="10.00">cam.nc.makerbotHBP.Creator</text>
<text text-anchor="start" x="8" y="-273.5" font-family="Helvetica,sans-Serif" font-size="10.00">MakerbotHBP.set_extruder</text>
<text text-anchor="middle" x="79.5" y="-262.5" font-family="Helvetica,sans-Serif" font-size="10.00">_flowrate</text>
</a>
</g>
</g>
<!-- Node2 -->
<g id="Node000002" class="node">
<title>Node2</title>
<g id="a_Node000002"><a xlink:href="$classcam_1_1nc_1_1cad__nc__read_1_1Parser.html#adcf2f47949df29f187f27fe985884633" xlink:title=" ">
<polygon fill="white" stroke="#666666" points="382.5,-460.5 206.5,-460.5 206.5,-441.5 382.5,-441.5 382.5,-460.5"/>
<text text-anchor="middle" x="294.5" y="-448.5" font-family="Helvetica,sans-Serif" font-size="10.00">cam.nc.cad_nc_read.Parser.write</text>
</a>
</g>
</g>
<!-- Node1&#45;&gt;Node2 -->
<g id="edge53_Node000001_Node000002" class="edge">
<title>Node1&#45;&gt;Node2</title>
<g id="a_edge53_Node000001_Node000002"><a xlink:title=" ">
<path fill="none" stroke="#63b8ff" d="M89.33,-296.76C105.1,-331.14 141.57,-399.45 195,-433 197.48,-434.56 200.07,-435.99 202.73,-437.31"/>
<polygon fill="#63b8ff" stroke="#63b8ff" points="201.47,-440.58 212.04,-441.34 204.25,-434.15 201.47,-440.58"/>
</a>
</g>
</g>
<!-- Node3 -->
<g id="Node000003" class="node">
<title>Node3</title>
<g id="a_Node000003"><a xlink:href="$classcam_1_1nc_1_1hxml__writer_1_1HxmlWriter.html#aed6f93c98cb8c0e3f3e826e75b6d6f15" xlink:title=" ">
<polygon fill="white" stroke="#666666" points="394,-405.5 195,-405.5 195,-386.5 394,-386.5 394,-405.5"/>
<text text-anchor="middle" x="294.5" y="-393.5" font-family="Helvetica,sans-Serif" font-size="10.00">cam.nc.hxml_writer.HxmlWriter.write</text>
</a>
</g>
</g>
<!-- Node1&#45;&gt;Node3 -->
<g id="edge55_Node000001_Node000003" class="edge">
<title>Node1&#45;&gt;Node3</title>
<g id="a_edge55_Node000001_Node000003"><a xlink:title=" ">
<path fill="none" stroke="#63b8ff" d="M97.54,-296.92C118.06,-320.58 154.81,-358.38 195,-378 199.06,-379.98 203.32,-381.75 207.68,-383.32"/>
<polygon fill="#63b8ff" stroke="#63b8ff" points="206.79,-386.72 217.39,-386.47 208.95,-380.06 206.79,-386.72"/>
</a>
</g>
</g>
<!-- Node4 -->
<g id="Node000004" class="node">
<title>Node4</title>
<g id="a_Node000004"><a xlink:href="$classcam_1_1nc_1_1iso_1_1Creator.html#abb81af5a0bdddfed387b71b68a51cc7a" xlink:title="Internals.">
<polygon fill="white" stroke="#666666" points="362,-368.5 227,-368.5 227,-349.5 362,-349.5 362,-368.5"/>
<text text-anchor="middle" x="294.5" y="-356.5" font-family="Helvetica,sans-Serif" font-size="10.00">cam.nc.iso.Creator.write</text>
</a>
</g>
</g>
<!-- Node1&#45;&gt;Node4 -->
<g id="edge57_Node000001_Node000004" class="edge">
<title>Node1&#45;&gt;Node4</title>
<g id="a_edge57_Node000001_Node000004"><a xlink:title=" ">
<path fill="none" stroke="#63b8ff" d="M110.25,-296.59C132.6,-311.13 164.49,-329.91 195,-341 202.04,-343.56 209.51,-345.77 217.05,-347.67"/>
<polygon fill="#63b8ff" stroke="#63b8ff" points="216.45,-351.12 226.99,-350 218.05,-344.31 216.45,-351.12"/>
</a>
</g>
</g>
<!-- Node5 -->
<g id="Node000005" class="node">
<title>Node5</title>
<g id="a_Node000005"><a xlink:href="$classcam_1_1nc_1_1nc_1_1Creator.html#a80f2134add83bfaaf2870d075d36ed8a" xlink:title=" ">
<polygon fill="white" stroke="#666666" points="360.5,-313.5 228.5,-313.5 228.5,-294.5 360.5,-294.5 360.5,-313.5"/>
<text text-anchor="middle" x="294.5" y="-301.5" font-family="Helvetica,sans-Serif" font-size="10.00">cam.nc.nc.Creator.write</text>
</a>
</g>
</g>
<!-- Node1&#45;&gt;Node5 -->
<g id="edge58_Node000001_Node000005" class="edge">
<title>Node1&#45;&gt;Node5</title>
<g id="a_edge58_Node000001_Node000005"><a xlink:title=" ">
<path fill="none" stroke="#63b8ff" d="M159.21,-286.35C178.5,-288.88 199.09,-291.59 218.21,-294.1"/>
<polygon fill="#63b8ff" stroke="#63b8ff" points="217.99,-297.6 228.36,-295.44 218.9,-290.66 217.99,-297.6"/>
</a>
</g>
</g>
<!-- Node6 -->
<g id="Node000006" class="node">
<title>Node6</title>
<g id="a_Node000006"><a xlink:href="$classcam_1_1nc_1_1nclathe__read_1_1Parser.html#ab5ea283b461b57e48c8d5b0ad0a45694" xlink:title=" ">
<polygon fill="white" stroke="#666666" points="383.5,-258.5 205.5,-258.5 205.5,-239.5 383.5,-239.5 383.5,-258.5"/>
<text text-anchor="middle" x="294.5" y="-246.5" font-family="Helvetica,sans-Serif" font-size="10.00">cam.nc.nclathe_read.Parser.write</text>
</a>
</g>
</g>
<!-- Node1&#45;&gt;Node6 -->
<g id="edge60_Node000001_Node000006" class="edge">
<title>Node1&#45;&gt;Node6</title>
<g id="a_edge60_Node000001_Node000006"><a xlink:title=" ">
<path fill="none" stroke="#63b8ff" d="M159.21,-266.02C175.2,-264 192.1,-261.85 208.31,-259.8"/>
<polygon fill="#63b8ff" stroke="#63b8ff" points="208.82,-263.26 218.3,-258.53 207.94,-256.32 208.82,-263.26"/>
</a>
</g>
</g>
<!-- Node7 -->
<g id="Node000007" class="node">
<title>Node7</title>
<g id="a_Node000007"><a xlink:href="$classcam_1_1nc_1_1recreator_1_1Redirector.html#a79cc974683588db3ef959189e7552c0d" xlink:title="Programs.">
<polygon fill="white" stroke="#666666" points="384,-203.5 205,-203.5 205,-184.5 384,-184.5 384,-203.5"/>
<text text-anchor="middle" x="294.5" y="-191.5" font-family="Helvetica,sans-Serif" font-size="10.00">cam.nc.recreator.Redirector.write</text>
</a>
</g>
</g>
<!-- Node1&#45;&gt;Node7 -->
<g id="edge62_Node000001_Node000007" class="edge">
<title>Node1&#45;&gt;Node7</title>
<g id="a_edge62_Node000001_Node000007"><a xlink:title=" ">
<path fill="none" stroke="#63b8ff" d="M132.3,-255.45C151.92,-247.72 174.46,-238.89 195,-231 215.81,-223 239.17,-214.22 257.92,-207.22"/>
<polygon fill="#63b8ff" stroke="#63b8ff" points="259.39,-210.4 267.54,-203.63 256.94,-203.85 259.39,-210.4"/>
</a>
</g>
</g>
<!-- Node8 -->
<g id="Node000008" class="node">
<title>Node8</title>
<g id="a_Node000008"><a xlink:href="$classcam_1_1nc_1_1format_1_1Address.html#aa21f0ffeb829537d9103759276c01a4b" xlink:title=" ">
<polygon fill="white" stroke="#666666" points="373.5,-166.5 215.5,-166.5 215.5,-147.5 373.5,-147.5 373.5,-166.5"/>
<text text-anchor="middle" x="294.5" y="-154.5" font-family="Helvetica,sans-Serif" font-size="10.00">cam.nc.format.Address.write</text>
</a>
</g>
</g>
<!-- Node1&#45;&gt;Node8 -->
<g id="edge64_Node000001_Node000008" class="edge">
<title>Node1&#45;&gt;Node8</title>
<g id="a_edge64_Node000001_Node000008"><a xlink:title=" ">
<path fill="none" stroke="#63b8ff" d="M98.03,-255.16C118.74,-232 155.39,-195.34 195,-176 199.99,-173.56 205.26,-171.44 210.67,-169.59"/>
<polygon fill="#63b8ff" stroke="#63b8ff" points="212.01,-172.84 220.52,-166.54 209.94,-166.15 212.01,-172.84"/>
</a>
</g>
</g>
<!-- Node19 -->
<g id="Node000019" class="node">
<title>Node19</title>
<g id="a_Node000019"><a xlink:href="$classcam_1_1nc_1_1format_1_1AddressPlusMinus.html#aaacea4c7b677f0a602dbc9023ff365d2" xlink:title=" ">
<polygon fill="white" stroke="#666666" points="369.5,-129 219.5,-129 219.5,-99 369.5,-99 369.5,-129"/>
<text text-anchor="start" x="227.5" y="-117" font-family="Helvetica,sans-Serif" font-size="10.00">cam.nc.format.AddressPlus</text>
<text text-anchor="middle" x="294.5" y="-106" font-family="Helvetica,sans-Serif" font-size="10.00">Minus.write</text>
</a>
</g>
</g>
<!-- Node1&#45;&gt;Node19 -->
<g id="edge77_Node000001_Node000019" class="edge">
<title>Node1&#45;&gt;Node19</title>
<g id="a_edge77_Node000001_Node000019"><a xlink:title=" ">
<path fill="none" stroke="#63b8ff" d="M91.77,-255.35C109.56,-224.8 147.09,-167.95 195,-138 199.66,-135.08 204.66,-132.52 209.83,-130.27"/>
<polygon fill="#63b8ff" stroke="#63b8ff" points="211.28,-133.47 219.3,-126.55 208.71,-126.95 211.28,-133.47"/>
</a>
</g>
</g>
<!-- Node2&#45;&gt;Node2 -->
<g id="edge54_Node000002_Node000002" class="edge">
<title>Node2&#45;&gt;Node2</title>
<g id="a_edge54_Node000002_Node000002"><a xlink:title=" ">
<path fill="none" stroke="#63b8ff" d="M261.52,-460.58C245.47,-469.23 256.46,-478.5 294.5,-478.5 321.84,-478.5 335.21,-473.71 334.61,-467.81"/>
<polygon fill="#63b8ff" stroke="#63b8ff" points="337,-465.25 327.48,-460.58 332.01,-470.16 337,-465.25"/>
</a>
</g>
</g>
<!-- Node3&#45;&gt;Node3 -->
<g id="edge56_Node000003_Node000003" class="edge">
<title>Node3&#45;&gt;Node3</title>
<g id="a_edge56_Node000003_Node000003"><a xlink:title=" ">
<path fill="none" stroke="#63b8ff" d="M261.52,-405.58C245.47,-414.23 256.46,-423.5 294.5,-423.5 321.84,-423.5 335.21,-418.71 334.61,-412.81"/>
<polygon fill="#63b8ff" stroke="#63b8ff" points="337,-410.25 327.48,-405.58 332.01,-415.16 337,-410.25"/>
</a>
</g>
</g>
<!-- Node5&#45;&gt;Node5 -->
<g id="edge59_Node000005_Node000005" class="edge">
<title>Node5&#45;&gt;Node5</title>
<g id="a_edge59_Node000005_Node000005"><a xlink:title=" ">
<path fill="none" stroke="#63b8ff" d="M261.52,-313.58C245.47,-322.23 256.46,-331.5 294.5,-331.5 321.84,-331.5 335.21,-326.71 334.61,-320.81"/>
<polygon fill="#63b8ff" stroke="#63b8ff" points="337,-318.25 327.48,-313.58 332.01,-323.16 337,-318.25"/>
</a>
</g>
</g>
<!-- Node6&#45;&gt;Node6 -->
<g id="edge61_Node000006_Node000006" class="edge">
<title>Node6&#45;&gt;Node6</title>
<g id="a_edge61_Node000006_Node000006"><a xlink:title=" ">
<path fill="none" stroke="#63b8ff" d="M261.52,-258.58C245.47,-267.23 256.46,-276.5 294.5,-276.5 321.84,-276.5 335.21,-271.71 334.61,-265.81"/>
<polygon fill="#63b8ff" stroke="#63b8ff" points="337,-263.25 327.48,-258.58 332.01,-268.16 337,-263.25"/>
</a>
</g>
</g>
<!-- Node7&#45;&gt;Node7 -->
<g id="edge63_Node000007_Node000007" class="edge">
<title>Node7&#45;&gt;Node7</title>
<g id="a_edge63_Node000007_Node000007"><a xlink:title=" ">
<path fill="none" stroke="#63b8ff" d="M261.52,-203.58C245.47,-212.23 256.46,-221.5 294.5,-221.5 321.84,-221.5 335.21,-216.71 334.61,-210.81"/>
<polygon fill="#63b8ff" stroke="#63b8ff" points="337,-208.25 327.48,-203.58 332.01,-213.16 337,-208.25"/>
</a>
</g>
</g>
<!-- Node9 -->
<g id="Node000009" class="node">
<title>Node9</title>
<g id="a_Node000009"><a xlink:href="$classcam_1_1async__op_1_1AsyncOperatorMixin.html#a9628cbca8e69ec75b2337171a02bf428" xlink:title=" ">
<polygon fill="white" stroke="#666666" points="591,-150 430,-150 430,-120 591,-120 591,-150"/>
<text text-anchor="start" x="438" y="-138" font-family="Helvetica,sans-Serif" font-size="10.00">cam.async_op.AsyncOperator</text>
<text text-anchor="middle" x="510.5" y="-127" font-family="Helvetica,sans-Serif" font-size="10.00">Mixin.modal</text>
</a>
</g>
</g>
<!-- Node8&#45;&gt;Node9 -->
<g id="edge65_Node000008_Node000009" class="edge">
<title>Node8&#45;&gt;Node9</title>
<g id="a_edge65_Node000008_Node000009"><a xlink:title=" ">
<path fill="none" stroke="#63b8ff" d="M373.67,-148.96C388.65,-147.42 404.45,-145.8 419.77,-144.22"/>
<polygon fill="#63b8ff" stroke="#63b8ff" points="420.16,-147.7 429.75,-143.2 419.45,-140.74 420.16,-147.7"/>
</a>
</g>
</g>
<!-- Node10 -->
<g id="Node000010" class="node">
<title>Node10</title>
<g id="a_Node000010"><a xlink:href="$classcam_1_1async__op_1_1AsyncOperatorMixin.html#a15a51cfd69d8e453e2e3d64386b1ebe3" xlink:title=" ">
<polygon fill="white" stroke="#666666" points="788,-150 627,-150 627,-120 788,-120 788,-150"/>
<text text-anchor="start" x="635" y="-138" font-family="Helvetica,sans-Serif" font-size="10.00">cam.async_op.AsyncOperator</text>
<text text-anchor="middle" x="707.5" y="-127" font-family="Helvetica,sans-Serif" font-size="10.00">Mixin.tick</text>
</a>
</g>
</g>
<!-- Node9&#45;&gt;Node10 -->
<g id="edge66_Node000009_Node000010" class="edge">
<title>Node9&#45;&gt;Node10</title>
<g id="a_edge66_Node000009_Node000010"><a xlink:title=" ">
<path fill="none" stroke="#63b8ff" d="M591.1,-135C599.57,-135 608.24,-135 616.82,-135"/>
<polygon fill="#63b8ff" stroke="#63b8ff" points="616.84,-138.5 626.84,-135 616.84,-131.5 616.84,-138.5"/>
</a>
</g>
</g>
<!-- Node11 -->
<g id="Node000011" class="node">
<title>Node11</title>
<g id="a_Node000011"><a xlink:href="$classcam_1_1async__op_1_1AsyncTestOperator.html#a42606ca890a957aa7070a4bc6f25228b" xlink:title=" ">
<polygon fill="white" stroke="#666666" points="1045,-270 824,-270 824,-240 1045,-240 1045,-270"/>
<text text-anchor="start" x="832" y="-258" font-family="Helvetica,sans-Serif" font-size="10.00">cam.async_op.AsyncTestOperator.execute</text>
<text text-anchor="middle" x="934.5" y="-247" font-family="Helvetica,sans-Serif" font-size="10.00">_async</text>
</a>
</g>
</g>
<!-- Node10&#45;&gt;Node11 -->
<g id="edge67_Node000010_Node000011" class="edge">
<title>Node10&#45;&gt;Node11</title>
<g id="a_edge67_Node000010_Node000011"><a xlink:title=" ">
<path fill="none" stroke="#63b8ff" d="M722.18,-150.27C742.31,-171.74 782.07,-210.51 824,-231 828.09,-233 832.35,-234.84 836.72,-236.52"/>
<polygon fill="#63b8ff" stroke="#63b8ff" points="835.81,-239.91 846.41,-239.97 838.16,-233.32 835.81,-239.91"/>
</a>
</g>
</g>
<!-- Node12 -->
<g id="Node000012" class="node">
<title>Node12</title>
<g id="a_Node000012"><a xlink:href="$classcam_1_1ops_1_1CalculatePath.html#a13dfe2f8578383234e74e58e2f292e1b" xlink:title=" ">
<polygon fill="white" stroke="#666666" points="1019,-222 850,-222 850,-192 1019,-192 1019,-222"/>
<text text-anchor="start" x="858" y="-210" font-family="Helvetica,sans-Serif" font-size="10.00">cam.ops.CalculatePath.execute</text>
<text text-anchor="middle" x="934.5" y="-199" font-family="Helvetica,sans-Serif" font-size="10.00">_async</text>
</a>
</g>
</g>
<!-- Node10&#45;&gt;Node12 -->
<g id="edge68_Node000010_Node000012" class="edge">
<title>Node10&#45;&gt;Node12</title>
<g id="a_edge68_Node000010_Node000012"><a xlink:title=" ">
<path fill="none" stroke="#63b8ff" d="M740.29,-150.01C763.18,-160.38 795,-173.88 824,-183 831.31,-185.3 838.96,-187.46 846.68,-189.47"/>
<polygon fill="#63b8ff" stroke="#63b8ff" points="845.91,-192.89 856.46,-191.93 847.62,-186.1 845.91,-192.89"/>
</a>
</g>
</g>
<!-- Node14 -->
<g id="Node000014" class="node">
<title>Node14</title>
<g id="a_Node000014"><a xlink:href="$classcam_1_1ops_1_1PathsChain.html#a6fc64e383ccf724b2325e18a82d53eae" xlink:title=" ">
<polygon fill="white" stroke="#666666" points="1012.5,-174 856.5,-174 856.5,-144 1012.5,-144 1012.5,-174"/>
<text text-anchor="start" x="864.5" y="-162" font-family="Helvetica,sans-Serif" font-size="10.00">cam.ops.PathsChain.execute</text>
<text text-anchor="middle" x="934.5" y="-151" font-family="Helvetica,sans-Serif" font-size="10.00">_async</text>
</a>
</g>
</g>
<!-- Node10&#45;&gt;Node14 -->
<g id="edge70_Node000010_Node000014" class="edge">
<title>Node10&#45;&gt;Node14</title>
<g id="a_edge70_Node000010_Node000014"><a xlink:title=" ">
<path fill="none" stroke="#63b8ff" d="M788.14,-143.5C806.9,-145.5 826.98,-147.64 846.06,-149.67"/>
<polygon fill="#63b8ff" stroke="#63b8ff" points="845.92,-153.18 856.23,-150.76 846.66,-146.22 845.92,-153.18"/>
</a>
</g>
</g>
<!-- Node16 -->
<g id="Node000016" class="node">
<title>Node16</title>
<g id="a_Node000016"><a xlink:href="$classcam_1_1ops_1_1CAMSimulate.html#a633151f17849d281fd52ce82c00356a7" xlink:title=" ">
<polygon fill="white" stroke="#666666" points="1018.5,-126 850.5,-126 850.5,-96 1018.5,-96 1018.5,-126"/>
<text text-anchor="start" x="858.5" y="-114" font-family="Helvetica,sans-Serif" font-size="10.00">cam.ops.CAMSimulate.execute</text>
<text text-anchor="middle" x="934.5" y="-103" font-family="Helvetica,sans-Serif" font-size="10.00">_async</text>
</a>
</g>
</g>
<!-- Node10&#45;&gt;Node16 -->
<g id="edge73_Node000010_Node000016" class="edge">
<title>Node10&#45;&gt;Node16</title>
<g id="a_edge73_Node000010_Node000016"><a xlink:title=" ">
<path fill="none" stroke="#63b8ff" d="M788.14,-126.5C804.95,-124.71 822.82,-122.81 840.08,-120.97"/>
<polygon fill="#63b8ff" stroke="#63b8ff" points="840.58,-124.43 850.15,-119.89 839.84,-117.47 840.58,-124.43"/>
</a>
</g>
</g>
<!-- Node17 -->
<g id="Node000017" class="node">
<title>Node17</title>
<g id="a_Node000017"><a xlink:href="$classcam_1_1ops_1_1CAMSimulateChain.html#a1e77c7ce21b3b7e3e38a12b6b62517e9" xlink:title=" ">
<polygon fill="white" stroke="#666666" points="1032.5,-78 836.5,-78 836.5,-48 1032.5,-48 1032.5,-78"/>
<text text-anchor="start" x="844.5" y="-66" font-family="Helvetica,sans-Serif" font-size="10.00">cam.ops.CAMSimulateChain.execute</text>
<text text-anchor="middle" x="934.5" y="-55" font-family="Helvetica,sans-Serif" font-size="10.00">_async</text>
</a>
</g>
</g>
<!-- Node10&#45;&gt;Node17 -->
<g id="edge74_Node000010_Node000017" class="edge">
<title>Node10&#45;&gt;Node17</title>
<g id="a_edge74_Node000010_Node000017"><a xlink:title=" ">
<path fill="none" stroke="#63b8ff" d="M740.29,-119.99C763.18,-109.62 795,-96.12 824,-87 831.31,-84.7 838.96,-82.54 846.68,-80.53"/>
<polygon fill="#63b8ff" stroke="#63b8ff" points="847.62,-83.9 856.46,-78.07 845.91,-77.11 847.62,-83.9"/>
</a>
</g>
</g>
<!-- Node18 -->
<g id="Node000018" class="node">
<title>Node18</title>
<g id="a_Node000018"><a xlink:href="$classcam_1_1async__op_1_1AsyncOperatorMixin.html#a2216ff6bb0dfd132f4ec4cf79b7cba2b" xlink:title=" ">
<polygon fill="white" stroke="#666666" points="1015,-30 854,-30 854,0 1015,0 1015,-30"/>
<text text-anchor="start" x="862" y="-18" font-family="Helvetica,sans-Serif" font-size="10.00">cam.async_op.AsyncOperator</text>
<text text-anchor="middle" x="934.5" y="-7" font-family="Helvetica,sans-Serif" font-size="10.00">Mixin.show_progress</text>
</a>
</g>
</g>
<!-- Node10&#45;&gt;Node18 -->
<g id="edge76_Node000010_Node000018" class="edge">
<title>Node10&#45;&gt;Node18</title>
<g id="a_edge76_Node000010_Node000018"><a xlink:title=" ">
<path fill="none" stroke="#63b8ff" d="M722.18,-119.73C742.31,-98.26 782.07,-59.49 824,-39 830.43,-35.86 837.27,-33.12 844.28,-30.74"/>
<polygon fill="#63b8ff" stroke="#63b8ff" points="845.42,-34.05 853.91,-27.71 843.32,-27.37 845.42,-34.05"/>
</a>
</g>
</g>
<!-- Node13 -->
<g id="Node000013" class="node">
<title>Node13</title>
<g id="a_Node000013"><a xlink:href="$namespacecam_1_1ops.html#aa8e95f7410a7ceb178db48f4f8c2d995" xlink:title=" ">
<polygon fill="white" stroke="#666666" points="1216.5,-192.5 1103.5,-192.5 1103.5,-173.5 1216.5,-173.5 1216.5,-192.5"/>
<text text-anchor="middle" x="1160" y="-180.5" font-family="Helvetica,sans-Serif" font-size="10.00">cam.ops._calc_path</text>
</a>
</g>
</g>
<!-- Node12&#45;&gt;Node13 -->
<g id="edge69_Node000012_Node000013" class="edge">
<title>Node12&#45;&gt;Node13</title>
<g id="a_edge69_Node000012_Node000013"><a xlink:title=" ">
<path fill="none" stroke="#63b8ff" d="M1019.04,-198.03C1043.56,-195.4 1070.01,-192.56 1093.25,-190.06"/>
<polygon fill="#63b8ff" stroke="#63b8ff" points="1093.77,-193.52 1103.34,-188.98 1093.03,-186.56 1093.77,-193.52"/>
</a>
</g>
</g>
<!-- Node14&#45;&gt;Node13 -->
<g id="edge71_Node000014_Node000013" class="edge">
<title>Node14&#45;&gt;Node13</title>
<g id="a_edge71_Node000014_Node000013"><a xlink:title=" ">
<path fill="none" stroke="#63b8ff" d="M1012.73,-167.29C1038.9,-170.1 1067.87,-173.21 1093.08,-175.92"/>
<polygon fill="#63b8ff" stroke="#63b8ff" points="1092.95,-179.43 1103.27,-177.02 1093.7,-172.47 1092.95,-179.43"/>
</a>
</g>
</g>
<!-- Node15 -->
<g id="Node000015" class="node">
<title>Node15</title>
<g id="a_Node000015"><a xlink:href="$namespacecam_1_1ops.html#ab55fb8ec9a00e021e8e4a1c3ecc97cb4" xlink:title=" ">
<polygon fill="white" stroke="#666666" points="1239,-126.5 1081,-126.5 1081,-107.5 1239,-107.5 1239,-126.5"/>
<text text-anchor="middle" x="1160" y="-114.5" font-family="Helvetica,sans-Serif" font-size="10.00">cam.ops.getChainOperations</text>
</a>
</g>
</g>
<!-- Node14&#45;&gt;Node15 -->
<g id="edge72_Node000014_Node000015" class="edge">
<title>Node14&#45;&gt;Node15</title>
<g id="a_edge72_Node000014_Node000015"><a xlink:title=" ">
<path fill="none" stroke="#63b8ff" d="M1012.73,-144.49C1040.81,-139.21 1072.12,-133.33 1098.54,-128.36"/>
<polygon fill="#63b8ff" stroke="#63b8ff" points="1099.23,-131.79 1108.41,-126.51 1097.94,-124.91 1099.23,-131.79"/>
</a>
</g>
</g>
<!-- Node17&#45;&gt;Node15 -->
<g id="edge75_Node000017_Node000015" class="edge">
<title>Node17&#45;&gt;Node15</title>
<g id="a_edge75_Node000017_Node000015"><a xlink:title=" ">
<path fill="none" stroke="#63b8ff" d="M1006.28,-78.06C1019.19,-80.94 1032.51,-83.99 1045,-87 1067.91,-92.52 1093.28,-99.15 1114.25,-104.77"/>
<polygon fill="#63b8ff" stroke="#63b8ff" points="1113.6,-108.21 1124.17,-107.43 1115.42,-101.45 1113.6,-108.21"/>
</a>
</g>
</g>
<!-- Node19&#45;&gt;Node9 -->
<g id="edge78_Node000019_Node000009" class="edge">
<title>Node19&#45;&gt;Node9</title>
<g id="a_edge78_Node000019_Node000009"><a xlink:title=" ">
<path fill="none" stroke="#63b8ff" d="M369.75,-121.29C385.84,-122.87 403.03,-124.55 419.65,-126.18"/>
<polygon fill="#63b8ff" stroke="#63b8ff" points="419.62,-129.7 429.92,-127.19 420.3,-122.73 419.62,-129.7"/>
</a>
</g>
</g>
</g>
</svg>
