<?xml version="1.0" encoding="UTF-8" standalone="no"?>
<!DOCTYPE svg PUBLIC "-//W3C//DTD SVG 1.1//EN"
 "http://www.w3.org/Graphics/SVG/1.1/DTD/svg11.dtd">
<!-- Generated by graphviz version 2.43.0 (0)
 -->
<!-- Title: cam.nc.printbot3d_read.Parser Pages: 1 -->
<svg width="167pt" height="172pt"
 viewBox="0.00 0.00 167.00 172.00" xmlns="http://www.w3.org/2000/svg" xmlns:xlink="http://www.w3.org/1999/xlink">
<g id="graph0" class="graph" transform="scale(1 1) rotate(0) translate(4 168)">
<title>cam.nc.printbot3d_read.Parser</title>
<!-- Node1 -->
<g id="Node000001" class="node">
<title>Node1</title>
<g id="a_Node000001"><a xlink:title=" ">
<polygon fill="#999999" stroke="transparent" points="159,-79 0,-79 0,0 159,0 159,-79"/>
<text text-anchor="start" x="5.5" y="-66.5" font-family="Helvetica,sans-Serif" font-size="10.00">cam.nc.printbot3d_read.Parser</text>
<text text-anchor="start" x="24" y="-51.5" font-family="Helvetica,sans-Serif" font-size="10.00">+</text>
<text text-anchor="start" x="56.5" y="-51.5" font-family="Helvetica,sans-Serif" font-size="10.00">path_col</text>
<text text-anchor="start" x="24" y="-36.5" font-family="Helvetica,sans-Serif" font-size="10.00">+</text>
<text text-anchor="start" x="56.5" y="-36.5" font-family="Helvetica,sans-Serif" font-size="10.00">col</text>
<text text-anchor="start" x="24" y="-21.5" font-family="Helvetica,sans-Serif" font-size="10.00">+</text>
<text text-anchor="start" x="56.5" y="-21.5" font-family="Helvetica,sans-Serif" font-size="10.00">__init__()</text>
<text text-anchor="start" x="24" y="-6.5" font-family="Helvetica,sans-Serif" font-size="10.00">+</text>
<text text-anchor="start" x="56.5" y="-6.5" font-family="Helvetica,sans-Serif" font-size="10.00">ParseWord()</text>
<polygon fill="#666666" stroke="#666666" points="0.5,-61.5 0.5,-61.5 159.5,-61.5 159.5,-61.5 0.5,-61.5"/>
<polygon fill="#666666" stroke="#666666" points="0.5,-31.5 0.5,-31.5 54.5,-31.5 54.5,-31.5 0.5,-31.5"/>
<polygon fill="#666666" stroke="#666666" points="54.5,-31.5 54.5,-31.5 159.5,-31.5 159.5,-31.5 54.5,-31.5"/>
<polygon fill="none" stroke="#666666" points="0,0 0,-79 159,-79 159,0 0,0"/>
</a>
</g>
</g>
<!-- Node2 -->
<g id="Node000002" class="node">
<title>Node2</title>
<g id="a_Node000002"><a xlink:title=" ">
<polygon fill="white" stroke="transparent" points="108.5,-164 50.5,-164 50.5,-115 108.5,-115 108.5,-164"/>
<text text-anchor="start" x="55.5" y="-151.5" font-family="Helvetica,sans-Serif" font-size="10.00">iso.Parser</text>
<text text-anchor="start" x="77.5" y="-136.5" font-family="Helvetica,sans-Serif" font-size="10.00"> </text>
<text text-anchor="start" x="77.5" y="-121.5" font-family="Helvetica,sans-Serif" font-size="10.00"> </text>
<polygon fill="#666666" stroke="#666666" points="50.5,-146.5 50.5,-146.5 108.5,-146.5 108.5,-146.5 50.5,-146.5"/>
<polygon fill="#666666" stroke="#666666" points="50.5,-131.5 50.5,-131.5 108.5,-131.5 108.5,-131.5 50.5,-131.5"/>
<polygon fill="none" stroke="#666666" points="50.5,-115 50.5,-164 108.5,-164 108.5,-115 50.5,-115"/>
</a>
</g>
</g>
<!-- Node2&#45;&gt;Node1 -->
<g id="edge3_Node000001_Node000002" class="edge">
<title>Node2&#45;&gt;Node1</title>
<g id="a_edge3_Node000001_Node000002"><a xlink:title=" ">
<path fill="none" stroke="#63b8ff" d="M79.5,-104.52C79.5,-96.38 79.5,-87.63 79.5,-79.29"/>
<polygon fill="none" stroke="#63b8ff" points="76,-104.78 79.5,-114.78 83,-104.78 76,-104.78"/>
</a>
</g>
</g>
</g>
</svg>
