<?xml version="1.0" encoding="UTF-8" standalone="no"?>
<!DOCTYPE svg PUBLIC "-//W3C//DTD SVG 1.1//EN"
 "http://www.w3.org/Graphics/SVG/1.1/DTD/svg11.dtd">
<!-- Generated by graphviz version 2.43.0 (0)
 -->
<!-- Title: cam.nc.winpc.Creator.workplane Pages: 1 -->
<svg width="1288pt" height="733pt"
 viewBox="0.00 0.00 1288.00 732.50" xmlns="http://www.w3.org/2000/svg" xmlns:xlink="http://www.w3.org/1999/xlink">
<g id="graph0" class="graph" transform="scale(1 1) rotate(0) translate(4 728.5)">
<title>cam.nc.winpc.Creator.workplane</title>
<!-- Node1 -->
<g id="Node000001" class="node">
<title>Node1</title>
<g id="a_Node000001"><a xlink:title=" ">
<polygon fill="#999999" stroke="#666666" points="176,-432.5 0,-432.5 0,-413.5 176,-413.5 176,-432.5"/>
<text text-anchor="middle" x="88" y="-420.5" font-family="Helvetica,sans-Serif" font-size="10.00">cam.nc.winpc.Creator.workplane</text>
</a>
</g>
</g>
<!-- Node2 -->
<g id="Node000002" class="node">
<title>Node2</title>
<g id="a_Node000002"><a xlink:href="$classcam_1_1nc_1_1heiden_1_1Creator.html#a52ead3fb6e7e1ab456414dbbf2a6e28f" xlink:title=" ">
<polygon fill="white" stroke="#666666" points="419.5,-724.5 227.5,-724.5 227.5,-705.5 419.5,-705.5 419.5,-724.5"/>
<text text-anchor="middle" x="323.5" y="-712.5" font-family="Helvetica,sans-Serif" font-size="10.00">cam.nc.heiden.Creator.WORKPLANE</text>
</a>
</g>
</g>
<!-- Node1&#45;&gt;Node2 -->
<g id="edge65_Node000001_Node000002" class="edge">
<title>Node1&#45;&gt;Node2</title>
<g id="a_edge65_Node000001_Node000002"><a xlink:title=" ">
<path fill="none" stroke="#63b8ff" d="M90.11,-432.75C95.23,-472.91 120.42,-626.63 212,-697 214.06,-698.58 216.2,-700.04 218.41,-701.4"/>
<polygon fill="#63b8ff" stroke="#63b8ff" points="216.8,-704.51 227.27,-706.11 220.09,-698.33 216.8,-704.51"/>
</a>
</g>
</g>
<!-- Node3 -->
<g id="Node000003" class="node">
<title>Node3</title>
<g id="a_Node000003"><a xlink:href="$classcam_1_1nc_1_1iso_1_1Creator.html#ab80465085217d6580fc1aabbb0b879ea" xlink:title=" ">
<polygon fill="white" stroke="#666666" points="410,-687.5 237,-687.5 237,-668.5 410,-668.5 410,-687.5"/>
<text text-anchor="middle" x="323.5" y="-675.5" font-family="Helvetica,sans-Serif" font-size="10.00">cam.nc.iso.Creator.WORKPLANE</text>
</a>
</g>
</g>
<!-- Node1&#45;&gt;Node3 -->
<g id="edge66_Node000001_Node000003" class="edge">
<title>Node1&#45;&gt;Node3</title>
<g id="a_edge66_Node000001_Node000003"><a xlink:title=" ">
<path fill="none" stroke="#63b8ff" d="M90.84,-432.63C98.36,-469.05 130.26,-599.36 212,-659 216.79,-662.49 221.99,-665.42 227.46,-667.87"/>
<polygon fill="#63b8ff" stroke="#63b8ff" points="226.28,-671.17 236.87,-671.56 228.83,-664.65 226.28,-671.17"/>
</a>
</g>
</g>
<!-- Node4 -->
<g id="Node000004" class="node">
<title>Node4</title>
<g id="a_Node000004"><a xlink:href="$classcam_1_1nc_1_1makerbot__codes_1_1Codes.html#af9ee4781020d355397093563966747f2" xlink:title=" ">
<polygon fill="white" stroke="#666666" points="409,-650 238,-650 238,-620 409,-620 409,-650"/>
<text text-anchor="start" x="246" y="-638" font-family="Helvetica,sans-Serif" font-size="10.00">cam.nc.makerbot_codes.Codes.</text>
<text text-anchor="middle" x="323.5" y="-627" font-family="Helvetica,sans-Serif" font-size="10.00">WORKPLANE</text>
</a>
</g>
</g>
<!-- Node1&#45;&gt;Node4 -->
<g id="edge67_Node000001_Node000004" class="edge">
<title>Node1&#45;&gt;Node4</title>
<g id="a_edge67_Node000001_Node000004"><a xlink:title=" ">
<path fill="none" stroke="#63b8ff" d="M92.29,-432.7C103.49,-464.1 143.24,-563.69 212,-611 217.15,-614.54 222.72,-617.57 228.54,-620.17"/>
<polygon fill="#63b8ff" stroke="#63b8ff" points="227.27,-623.43 237.86,-623.89 229.87,-616.93 227.27,-623.43"/>
</a>
</g>
</g>
<!-- Node5 -->
<g id="Node000005" class="node">
<title>Node5</title>
<g id="a_Node000005"><a xlink:href="$classcam_1_1nc_1_1heiden_1_1Creator.html#aa9e52f6cb2890fca0c43ee07acbbd905" xlink:title=" ">
<polygon fill="white" stroke="#666666" points="435,-601.5 212,-601.5 212,-582.5 435,-582.5 435,-601.5"/>
<text text-anchor="middle" x="323.5" y="-589.5" font-family="Helvetica,sans-Serif" font-size="10.00">cam.nc.heiden.Creator.WORKPLANE_BASE</text>
</a>
</g>
</g>
<!-- Node1&#45;&gt;Node5 -->
<g id="edge68_Node000001_Node000005" class="edge">
<title>Node1&#45;&gt;Node5</title>
<g id="a_edge68_Node000001_Node000005"><a xlink:title=" ">
<path fill="none" stroke="#63b8ff" d="M93.73,-432.82C107.56,-460.36 150.83,-538.62 212,-574 214.9,-575.68 217.92,-577.21 221.01,-578.61"/>
<polygon fill="#63b8ff" stroke="#63b8ff" points="219.93,-581.95 230.52,-582.43 222.54,-575.46 219.93,-581.95"/>
</a>
</g>
</g>
<!-- Node6 -->
<g id="Node000006" class="node">
<title>Node6</title>
<g id="a_Node000006"><a xlink:href="$classcam_1_1nc_1_1iso_1_1Creator.html#a752fd783814bcdff2b247170902d7356" xlink:title=" ">
<polygon fill="white" stroke="#666666" points="425.5,-564.5 221.5,-564.5 221.5,-545.5 425.5,-545.5 425.5,-564.5"/>
<text text-anchor="middle" x="323.5" y="-552.5" font-family="Helvetica,sans-Serif" font-size="10.00">cam.nc.iso.Creator.WORKPLANE_BASE</text>
</a>
</g>
</g>
<!-- Node1&#45;&gt;Node6 -->
<g id="edge69_Node000001_Node000006" class="edge">
<title>Node1&#45;&gt;Node6</title>
<g id="a_edge69_Node000001_Node000006"><a xlink:title=" ">
<path fill="none" stroke="#63b8ff" d="M96.09,-432.51C113.24,-454.75 159.43,-510.17 212,-536 216.91,-538.41 222.08,-540.53 227.39,-542.38"/>
<polygon fill="#63b8ff" stroke="#63b8ff" points="226.48,-545.76 237.07,-545.43 228.58,-539.08 226.48,-545.76"/>
</a>
</g>
</g>
<!-- Node7 -->
<g id="Node000007" class="node">
<title>Node7</title>
<g id="a_Node000007"><a xlink:href="$classcam_1_1nc_1_1makerbot__codes_1_1Codes.html#aa55ea50066c308715e6915d6fc91a6e2" xlink:title=" ">
<polygon fill="white" stroke="#666666" points="409,-527 238,-527 238,-497 409,-497 409,-527"/>
<text text-anchor="start" x="246" y="-515" font-family="Helvetica,sans-Serif" font-size="10.00">cam.nc.makerbot_codes.Codes.</text>
<text text-anchor="middle" x="323.5" y="-504" font-family="Helvetica,sans-Serif" font-size="10.00">WORKPLANE_BASE</text>
</a>
</g>
</g>
<!-- Node1&#45;&gt;Node7 -->
<g id="edge70_Node000001_Node000007" class="edge">
<title>Node1&#45;&gt;Node7</title>
<g id="a_edge70_Node000001_Node000007"><a xlink:title=" ">
<path fill="none" stroke="#63b8ff" d="M103.91,-432.61C126.45,-446.72 170.93,-473.01 212,-488 218.2,-490.26 224.67,-492.34 231.24,-494.25"/>
<polygon fill="#63b8ff" stroke="#63b8ff" points="230.34,-497.64 240.91,-496.93 232.21,-490.89 230.34,-497.64"/>
</a>
</g>
</g>
<!-- Node8 -->
<g id="Node000008" class="node">
<title>Node8</title>
<g id="a_Node000008"><a xlink:href="$classcam_1_1nc_1_1cad__nc__read_1_1Parser.html#adcf2f47949df29f187f27fe985884633" xlink:title=" ">
<polygon fill="white" stroke="#666666" points="411.5,-460.5 235.5,-460.5 235.5,-441.5 411.5,-441.5 411.5,-460.5"/>
<text text-anchor="middle" x="323.5" y="-448.5" font-family="Helvetica,sans-Serif" font-size="10.00">cam.nc.cad_nc_read.Parser.write</text>
</a>
</g>
</g>
<!-- Node1&#45;&gt;Node8 -->
<g id="edge71_Node000001_Node000008" class="edge">
<title>Node1&#45;&gt;Node8</title>
<g id="a_edge71_Node000001_Node000008"><a xlink:title=" ">
<path fill="none" stroke="#63b8ff" d="M168.38,-432.52C189.15,-435.01 211.69,-437.71 232.95,-440.26"/>
<polygon fill="#63b8ff" stroke="#63b8ff" points="232.6,-443.74 242.94,-441.46 233.43,-436.79 232.6,-443.74"/>
</a>
</g>
</g>
<!-- Node9 -->
<g id="Node000009" class="node">
<title>Node9</title>
<g id="a_Node000009"><a xlink:href="$classcam_1_1nc_1_1hxml__writer_1_1HxmlWriter.html#aed6f93c98cb8c0e3f3e826e75b6d6f15" xlink:title=" ">
<polygon fill="white" stroke="#666666" points="423,-405.5 224,-405.5 224,-386.5 423,-386.5 423,-405.5"/>
<text text-anchor="middle" x="323.5" y="-393.5" font-family="Helvetica,sans-Serif" font-size="10.00">cam.nc.hxml_writer.HxmlWriter.write</text>
</a>
</g>
</g>
<!-- Node1&#45;&gt;Node9 -->
<g id="edge73_Node000001_Node000009" class="edge">
<title>Node1&#45;&gt;Node9</title>
<g id="a_edge73_Node000001_Node000009"><a xlink:title=" ">
<path fill="none" stroke="#63b8ff" d="M171.32,-413.48C190.33,-411.28 210.68,-408.93 230.08,-406.69"/>
<polygon fill="#63b8ff" stroke="#63b8ff" points="230.6,-410.15 240.13,-405.52 229.8,-403.2 230.6,-410.15"/>
</a>
</g>
</g>
<!-- Node10 -->
<g id="Node000010" class="node">
<title>Node10</title>
<g id="a_Node000010"><a xlink:href="$classcam_1_1nc_1_1iso_1_1Creator.html#abb81af5a0bdddfed387b71b68a51cc7a" xlink:title="Internals.">
<polygon fill="white" stroke="#666666" points="391,-368.5 256,-368.5 256,-349.5 391,-349.5 391,-368.5"/>
<text text-anchor="middle" x="323.5" y="-356.5" font-family="Helvetica,sans-Serif" font-size="10.00">cam.nc.iso.Creator.write</text>
</a>
</g>
</g>
<!-- Node1&#45;&gt;Node10 -->
<g id="edge75_Node000001_Node000010" class="edge">
<title>Node1&#45;&gt;Node10</title>
<g id="a_edge75_Node000001_Node000010"><a xlink:title=" ">
<path fill="none" stroke="#63b8ff" d="M111.28,-413.46C135.62,-403.37 175.97,-387.6 212,-378 222.84,-375.11 234.4,-372.56 245.8,-370.34"/>
<polygon fill="#63b8ff" stroke="#63b8ff" points="246.57,-373.76 255.76,-368.48 245.29,-366.88 246.57,-373.76"/>
</a>
</g>
</g>
<!-- Node11 -->
<g id="Node000011" class="node">
<title>Node11</title>
<g id="a_Node000011"><a xlink:href="$classcam_1_1nc_1_1nc_1_1Creator.html#a80f2134add83bfaaf2870d075d36ed8a" xlink:title=" ">
<polygon fill="white" stroke="#666666" points="389.5,-313.5 257.5,-313.5 257.5,-294.5 389.5,-294.5 389.5,-313.5"/>
<text text-anchor="middle" x="323.5" y="-301.5" font-family="Helvetica,sans-Serif" font-size="10.00">cam.nc.nc.Creator.write</text>
</a>
</g>
</g>
<!-- Node1&#45;&gt;Node11 -->
<g id="edge76_Node000001_Node000011" class="edge">
<title>Node1&#45;&gt;Node11</title>
<g id="a_edge76_Node000001_Node000011"><a xlink:title=" ">
<path fill="none" stroke="#63b8ff" d="M100.91,-413.48C122.16,-396.87 168.44,-362.34 212,-341 232.45,-330.98 256.29,-322.62 276.57,-316.39"/>
<polygon fill="#63b8ff" stroke="#63b8ff" points="277.64,-319.73 286.21,-313.51 275.63,-313.02 277.64,-319.73"/>
</a>
</g>
</g>
<!-- Node12 -->
<g id="Node000012" class="node">
<title>Node12</title>
<g id="a_Node000012"><a xlink:href="$classcam_1_1nc_1_1nclathe__read_1_1Parser.html#ab5ea283b461b57e48c8d5b0ad0a45694" xlink:title=" ">
<polygon fill="white" stroke="#666666" points="412.5,-258.5 234.5,-258.5 234.5,-239.5 412.5,-239.5 412.5,-258.5"/>
<text text-anchor="middle" x="323.5" y="-246.5" font-family="Helvetica,sans-Serif" font-size="10.00">cam.nc.nclathe_read.Parser.write</text>
</a>
</g>
</g>
<!-- Node1&#45;&gt;Node12 -->
<g id="edge78_Node000001_Node000012" class="edge">
<title>Node1&#45;&gt;Node12</title>
<g id="a_edge78_Node000001_Node000012"><a xlink:title=" ">
<path fill="none" stroke="#63b8ff" d="M94.94,-413.5C110.86,-388.83 156.96,-322.15 212,-286 228.63,-275.08 248.78,-267.09 267.3,-261.39"/>
<polygon fill="#63b8ff" stroke="#63b8ff" points="268.48,-264.69 277.1,-258.53 266.52,-257.97 268.48,-264.69"/>
</a>
</g>
</g>
<!-- Node13 -->
<g id="Node000013" class="node">
<title>Node13</title>
<g id="a_Node000013"><a xlink:href="$classcam_1_1nc_1_1recreator_1_1Redirector.html#a79cc974683588db3ef959189e7552c0d" xlink:title="Programs.">
<polygon fill="white" stroke="#666666" points="413,-203.5 234,-203.5 234,-184.5 413,-184.5 413,-203.5"/>
<text text-anchor="middle" x="323.5" y="-191.5" font-family="Helvetica,sans-Serif" font-size="10.00">cam.nc.recreator.Redirector.write</text>
</a>
</g>
</g>
<!-- Node1&#45;&gt;Node13 -->
<g id="edge80_Node000001_Node000013" class="edge">
<title>Node1&#45;&gt;Node13</title>
<g id="a_edge80_Node000001_Node000013"><a xlink:title=" ">
<path fill="none" stroke="#63b8ff" d="M92.45,-413.4C104.12,-382.26 145.18,-283.08 212,-231 226.21,-219.93 243.89,-212.08 260.93,-206.56"/>
<polygon fill="#63b8ff" stroke="#63b8ff" points="262.28,-209.8 270.85,-203.57 260.26,-203.1 262.28,-209.8"/>
</a>
</g>
</g>
<!-- Node14 -->
<g id="Node000014" class="node">
<title>Node14</title>
<g id="a_Node000014"><a xlink:href="$classcam_1_1nc_1_1format_1_1Address.html#aa21f0ffeb829537d9103759276c01a4b" xlink:title=" ">
<polygon fill="white" stroke="#666666" points="402.5,-166.5 244.5,-166.5 244.5,-147.5 402.5,-147.5 402.5,-166.5"/>
<text text-anchor="middle" x="323.5" y="-154.5" font-family="Helvetica,sans-Serif" font-size="10.00">cam.nc.format.Address.write</text>
</a>
</g>
</g>
<!-- Node1&#45;&gt;Node14 -->
<g id="edge82_Node000001_Node000014" class="edge">
<title>Node1&#45;&gt;Node14</title>
<g id="a_edge82_Node000001_Node000014"><a xlink:title=" ">
<path fill="none" stroke="#63b8ff" d="M90.6,-413.45C97.38,-376.11 127.44,-238.9 212,-176 218.85,-170.91 226.59,-167 234.72,-164.02"/>
<polygon fill="#63b8ff" stroke="#63b8ff" points="235.95,-167.31 244.42,-160.94 233.83,-160.64 235.95,-167.31"/>
</a>
</g>
</g>
<!-- Node25 -->
<g id="Node000025" class="node">
<title>Node25</title>
<g id="a_Node000025"><a xlink:href="$classcam_1_1nc_1_1format_1_1AddressPlusMinus.html#aaacea4c7b677f0a602dbc9023ff365d2" xlink:title=" ">
<polygon fill="white" stroke="#666666" points="398.5,-129 248.5,-129 248.5,-99 398.5,-99 398.5,-129"/>
<text text-anchor="start" x="256.5" y="-117" font-family="Helvetica,sans-Serif" font-size="10.00">cam.nc.format.AddressPlus</text>
<text text-anchor="middle" x="323.5" y="-106" font-family="Helvetica,sans-Serif" font-size="10.00">Minus.write</text>
</a>
</g>
</g>
<!-- Node1&#45;&gt;Node25 -->
<g id="edge95_Node000001_Node000025" class="edge">
<title>Node1&#45;&gt;Node25</title>
<g id="a_edge95_Node000001_Node000025"><a xlink:title=" ">
<path fill="none" stroke="#63b8ff" d="M90.04,-413.28C94.97,-372.52 119.63,-214.03 212,-138 219.84,-131.54 229.03,-126.72 238.7,-123.13"/>
<polygon fill="#63b8ff" stroke="#63b8ff" points="240.08,-126.36 248.5,-119.93 237.9,-119.7 240.08,-126.36"/>
</a>
</g>
</g>
<!-- Node8&#45;&gt;Node8 -->
<g id="edge72_Node000008_Node000008" class="edge">
<title>Node8&#45;&gt;Node8</title>
<g id="a_edge72_Node000008_Node000008"><a xlink:title=" ">
<path fill="none" stroke="#63b8ff" d="M288.36,-460.58C271.26,-469.23 282.98,-478.5 323.5,-478.5 353.26,-478.5 367.48,-473.5 366.17,-467.42"/>
<polygon fill="#63b8ff" stroke="#63b8ff" points="368.4,-464.72 358.64,-460.58 363.69,-469.9 368.4,-464.72"/>
</a>
</g>
</g>
<!-- Node9&#45;&gt;Node9 -->
<g id="edge74_Node000009_Node000009" class="edge">
<title>Node9&#45;&gt;Node9</title>
<g id="a_edge74_Node000009_Node000009"><a xlink:title=" ">
<path fill="none" stroke="#63b8ff" d="M288.36,-405.58C271.26,-414.23 282.98,-423.5 323.5,-423.5 353.26,-423.5 367.48,-418.5 366.17,-412.42"/>
<polygon fill="#63b8ff" stroke="#63b8ff" points="368.4,-409.72 358.64,-405.58 363.69,-414.9 368.4,-409.72"/>
</a>
</g>
</g>
<!-- Node11&#45;&gt;Node11 -->
<g id="edge77_Node000011_Node000011" class="edge">
<title>Node11&#45;&gt;Node11</title>
<g id="a_edge77_Node000011_Node000011"><a xlink:title=" ">
<path fill="none" stroke="#63b8ff" d="M288.36,-313.58C271.26,-322.23 282.98,-331.5 323.5,-331.5 353.26,-331.5 367.48,-326.5 366.17,-320.42"/>
<polygon fill="#63b8ff" stroke="#63b8ff" points="368.4,-317.72 358.64,-313.58 363.69,-322.9 368.4,-317.72"/>
</a>
</g>
</g>
<!-- Node12&#45;&gt;Node12 -->
<g id="edge79_Node000012_Node000012" class="edge">
<title>Node12&#45;&gt;Node12</title>
<g id="a_edge79_Node000012_Node000012"><a xlink:title=" ">
<path fill="none" stroke="#63b8ff" d="M288.36,-258.58C271.26,-267.23 282.98,-276.5 323.5,-276.5 353.26,-276.5 367.48,-271.5 366.17,-265.42"/>
<polygon fill="#63b8ff" stroke="#63b8ff" points="368.4,-262.72 358.64,-258.58 363.69,-267.9 368.4,-262.72"/>
</a>
</g>
</g>
<!-- Node13&#45;&gt;Node13 -->
<g id="edge81_Node000013_Node000013" class="edge">
<title>Node13&#45;&gt;Node13</title>
<g id="a_edge81_Node000013_Node000013"><a xlink:title=" ">
<path fill="none" stroke="#63b8ff" d="M288.36,-203.58C271.26,-212.23 282.98,-221.5 323.5,-221.5 353.26,-221.5 367.48,-216.5 366.17,-210.42"/>
<polygon fill="#63b8ff" stroke="#63b8ff" points="368.4,-207.72 358.64,-203.58 363.69,-212.9 368.4,-207.72"/>
</a>
</g>
</g>
<!-- Node15 -->
<g id="Node000015" class="node">
<title>Node15</title>
<g id="a_Node000015"><a xlink:href="$classcam_1_1async__op_1_1AsyncOperatorMixin.html#a9628cbca8e69ec75b2337171a02bf428" xlink:title=" ">
<polygon fill="white" stroke="#666666" points="632,-150 471,-150 471,-120 632,-120 632,-150"/>
<text text-anchor="start" x="479" y="-138" font-family="Helvetica,sans-Serif" font-size="10.00">cam.async_op.AsyncOperator</text>
<text text-anchor="middle" x="551.5" y="-127" font-family="Helvetica,sans-Serif" font-size="10.00">Mixin.modal</text>
</a>
</g>
</g>
<!-- Node14&#45;&gt;Node15 -->
<g id="edge83_Node000014_Node000015" class="edge">
<title>Node14&#45;&gt;Node15</title>
<g id="a_edge83_Node000014_Node000015"><a xlink:title=" ">
<path fill="none" stroke="#63b8ff" d="M402.59,-149.4C421.39,-147.57 441.61,-145.6 460.89,-143.72"/>
<polygon fill="#63b8ff" stroke="#63b8ff" points="461.26,-147.2 470.87,-142.75 460.58,-140.24 461.26,-147.2"/>
</a>
</g>
</g>
<!-- Node16 -->
<g id="Node000016" class="node">
<title>Node16</title>
<g id="a_Node000016"><a xlink:href="$classcam_1_1async__op_1_1AsyncOperatorMixin.html#a15a51cfd69d8e453e2e3d64386b1ebe3" xlink:title=" ">
<polygon fill="white" stroke="#666666" points="829,-150 668,-150 668,-120 829,-120 829,-150"/>
<text text-anchor="start" x="676" y="-138" font-family="Helvetica,sans-Serif" font-size="10.00">cam.async_op.AsyncOperator</text>
<text text-anchor="middle" x="748.5" y="-127" font-family="Helvetica,sans-Serif" font-size="10.00">Mixin.tick</text>
</a>
</g>
</g>
<!-- Node15&#45;&gt;Node16 -->
<g id="edge84_Node000015_Node000016" class="edge">
<title>Node15&#45;&gt;Node16</title>
<g id="a_edge84_Node000015_Node000016"><a xlink:title=" ">
<path fill="none" stroke="#63b8ff" d="M632.1,-135C640.57,-135 649.24,-135 657.82,-135"/>
<polygon fill="#63b8ff" stroke="#63b8ff" points="657.84,-138.5 667.84,-135 657.84,-131.5 657.84,-138.5"/>
</a>
</g>
</g>
<!-- Node17 -->
<g id="Node000017" class="node">
<title>Node17</title>
<g id="a_Node000017"><a xlink:href="$classcam_1_1async__op_1_1AsyncTestOperator.html#a42606ca890a957aa7070a4bc6f25228b" xlink:title=" ">
<polygon fill="white" stroke="#666666" points="1086,-270 865,-270 865,-240 1086,-240 1086,-270"/>
<text text-anchor="start" x="873" y="-258" font-family="Helvetica,sans-Serif" font-size="10.00">cam.async_op.AsyncTestOperator.execute</text>
<text text-anchor="middle" x="975.5" y="-247" font-family="Helvetica,sans-Serif" font-size="10.00">_async</text>
</a>
</g>
</g>
<!-- Node16&#45;&gt;Node17 -->
<g id="edge85_Node000016_Node000017" class="edge">
<title>Node16&#45;&gt;Node17</title>
<g id="a_edge85_Node000016_Node000017"><a xlink:title=" ">
<path fill="none" stroke="#63b8ff" d="M763.18,-150.27C783.31,-171.74 823.07,-210.51 865,-231 869.09,-233 873.35,-234.84 877.72,-236.52"/>
<polygon fill="#63b8ff" stroke="#63b8ff" points="876.81,-239.91 887.41,-239.97 879.16,-233.32 876.81,-239.91"/>
</a>
</g>
</g>
<!-- Node18 -->
<g id="Node000018" class="node">
<title>Node18</title>
<g id="a_Node000018"><a xlink:href="$classcam_1_1ops_1_1CalculatePath.html#a13dfe2f8578383234e74e58e2f292e1b" xlink:title=" ">
<polygon fill="white" stroke="#666666" points="1060,-222 891,-222 891,-192 1060,-192 1060,-222"/>
<text text-anchor="start" x="899" y="-210" font-family="Helvetica,sans-Serif" font-size="10.00">cam.ops.CalculatePath.execute</text>
<text text-anchor="middle" x="975.5" y="-199" font-family="Helvetica,sans-Serif" font-size="10.00">_async</text>
</a>
</g>
</g>
<!-- Node16&#45;&gt;Node18 -->
<g id="edge86_Node000016_Node000018" class="edge">
<title>Node16&#45;&gt;Node18</title>
<g id="a_edge86_Node000016_Node000018"><a xlink:title=" ">
<path fill="none" stroke="#63b8ff" d="M781.29,-150.01C804.18,-160.38 836,-173.88 865,-183 872.31,-185.3 879.96,-187.46 887.68,-189.47"/>
<polygon fill="#63b8ff" stroke="#63b8ff" points="886.91,-192.89 897.46,-191.93 888.62,-186.1 886.91,-192.89"/>
</a>
</g>
</g>
<!-- Node20 -->
<g id="Node000020" class="node">
<title>Node20</title>
<g id="a_Node000020"><a xlink:href="$classcam_1_1ops_1_1PathsChain.html#a6fc64e383ccf724b2325e18a82d53eae" xlink:title=" ">
<polygon fill="white" stroke="#666666" points="1053.5,-174 897.5,-174 897.5,-144 1053.5,-144 1053.5,-174"/>
<text text-anchor="start" x="905.5" y="-162" font-family="Helvetica,sans-Serif" font-size="10.00">cam.ops.PathsChain.execute</text>
<text text-anchor="middle" x="975.5" y="-151" font-family="Helvetica,sans-Serif" font-size="10.00">_async</text>
</a>
</g>
</g>
<!-- Node16&#45;&gt;Node20 -->
<g id="edge88_Node000016_Node000020" class="edge">
<title>Node16&#45;&gt;Node20</title>
<g id="a_edge88_Node000016_Node000020"><a xlink:title=" ">
<path fill="none" stroke="#63b8ff" d="M829.14,-143.5C847.9,-145.5 867.98,-147.64 887.06,-149.67"/>
<polygon fill="#63b8ff" stroke="#63b8ff" points="886.92,-153.18 897.23,-150.76 887.66,-146.22 886.92,-153.18"/>
</a>
</g>
</g>
<!-- Node22 -->
<g id="Node000022" class="node">
<title>Node22</title>
<g id="a_Node000022"><a xlink:href="$classcam_1_1ops_1_1CAMSimulate.html#a633151f17849d281fd52ce82c00356a7" xlink:title=" ">
<polygon fill="white" stroke="#666666" points="1059.5,-126 891.5,-126 891.5,-96 1059.5,-96 1059.5,-126"/>
<text text-anchor="start" x="899.5" y="-114" font-family="Helvetica,sans-Serif" font-size="10.00">cam.ops.CAMSimulate.execute</text>
<text text-anchor="middle" x="975.5" y="-103" font-family="Helvetica,sans-Serif" font-size="10.00">_async</text>
</a>
</g>
</g>
<!-- Node16&#45;&gt;Node22 -->
<g id="edge91_Node000016_Node000022" class="edge">
<title>Node16&#45;&gt;Node22</title>
<g id="a_edge91_Node000016_Node000022"><a xlink:title=" ">
<path fill="none" stroke="#63b8ff" d="M829.14,-126.5C845.95,-124.71 863.82,-122.81 881.08,-120.97"/>
<polygon fill="#63b8ff" stroke="#63b8ff" points="881.58,-124.43 891.15,-119.89 880.84,-117.47 881.58,-124.43"/>
</a>
</g>
</g>
<!-- Node23 -->
<g id="Node000023" class="node">
<title>Node23</title>
<g id="a_Node000023"><a xlink:href="$classcam_1_1ops_1_1CAMSimulateChain.html#a1e77c7ce21b3b7e3e38a12b6b62517e9" xlink:title=" ">
<polygon fill="white" stroke="#666666" points="1073.5,-78 877.5,-78 877.5,-48 1073.5,-48 1073.5,-78"/>
<text text-anchor="start" x="885.5" y="-66" font-family="Helvetica,sans-Serif" font-size="10.00">cam.ops.CAMSimulateChain.execute</text>
<text text-anchor="middle" x="975.5" y="-55" font-family="Helvetica,sans-Serif" font-size="10.00">_async</text>
</a>
</g>
</g>
<!-- Node16&#45;&gt;Node23 -->
<g id="edge92_Node000016_Node000023" class="edge">
<title>Node16&#45;&gt;Node23</title>
<g id="a_edge92_Node000016_Node000023"><a xlink:title=" ">
<path fill="none" stroke="#63b8ff" d="M781.29,-119.99C804.18,-109.62 836,-96.12 865,-87 872.31,-84.7 879.96,-82.54 887.68,-80.53"/>
<polygon fill="#63b8ff" stroke="#63b8ff" points="888.62,-83.9 897.46,-78.07 886.91,-77.11 888.62,-83.9"/>
</a>
</g>
</g>
<!-- Node24 -->
<g id="Node000024" class="node">
<title>Node24</title>
<g id="a_Node000024"><a xlink:href="$classcam_1_1async__op_1_1AsyncOperatorMixin.html#a2216ff6bb0dfd132f4ec4cf79b7cba2b" xlink:title=" ">
<polygon fill="white" stroke="#666666" points="1056,-30 895,-30 895,0 1056,0 1056,-30"/>
<text text-anchor="start" x="903" y="-18" font-family="Helvetica,sans-Serif" font-size="10.00">cam.async_op.AsyncOperator</text>
<text text-anchor="middle" x="975.5" y="-7" font-family="Helvetica,sans-Serif" font-size="10.00">Mixin.show_progress</text>
</a>
</g>
</g>
<!-- Node16&#45;&gt;Node24 -->
<g id="edge94_Node000016_Node000024" class="edge">
<title>Node16&#45;&gt;Node24</title>
<g id="a_edge94_Node000016_Node000024"><a xlink:title=" ">
<path fill="none" stroke="#63b8ff" d="M763.18,-119.73C783.31,-98.26 823.07,-59.49 865,-39 871.43,-35.86 878.27,-33.12 885.28,-30.74"/>
<polygon fill="#63b8ff" stroke="#63b8ff" points="886.42,-34.05 894.91,-27.71 884.32,-27.37 886.42,-34.05"/>
</a>
</g>
</g>
<!-- Node19 -->
<g id="Node000019" class="node">
<title>Node19</title>
<g id="a_Node000019"><a xlink:href="$namespacecam_1_1ops.html#aa8e95f7410a7ceb178db48f4f8c2d995" xlink:title=" ">
<polygon fill="white" stroke="#666666" points="1257.5,-192.5 1144.5,-192.5 1144.5,-173.5 1257.5,-173.5 1257.5,-192.5"/>
<text text-anchor="middle" x="1201" y="-180.5" font-family="Helvetica,sans-Serif" font-size="10.00">cam.ops._calc_path</text>
</a>
</g>
</g>
<!-- Node18&#45;&gt;Node19 -->
<g id="edge87_Node000018_Node000019" class="edge">
<title>Node18&#45;&gt;Node19</title>
<g id="a_edge87_Node000018_Node000019"><a xlink:title=" ">
<path fill="none" stroke="#63b8ff" d="M1060.04,-198.03C1084.56,-195.4 1111.01,-192.56 1134.25,-190.06"/>
<polygon fill="#63b8ff" stroke="#63b8ff" points="1134.77,-193.52 1144.34,-188.98 1134.03,-186.56 1134.77,-193.52"/>
</a>
</g>
</g>
<!-- Node20&#45;&gt;Node19 -->
<g id="edge89_Node000020_Node000019" class="edge">
<title>Node20&#45;&gt;Node19</title>
<g id="a_edge89_Node000020_Node000019"><a xlink:title=" ">
<path fill="none" stroke="#63b8ff" d="M1053.73,-167.29C1079.9,-170.1 1108.87,-173.21 1134.08,-175.92"/>
<polygon fill="#63b8ff" stroke="#63b8ff" points="1133.95,-179.43 1144.27,-177.02 1134.7,-172.47 1133.95,-179.43"/>
</a>
</g>
</g>
<!-- Node21 -->
<g id="Node000021" class="node">
<title>Node21</title>
<g id="a_Node000021"><a xlink:href="$namespacecam_1_1ops.html#ab55fb8ec9a00e021e8e4a1c3ecc97cb4" xlink:title=" ">
<polygon fill="white" stroke="#666666" points="1280,-126.5 1122,-126.5 1122,-107.5 1280,-107.5 1280,-126.5"/>
<text text-anchor="middle" x="1201" y="-114.5" font-family="Helvetica,sans-Serif" font-size="10.00">cam.ops.getChainOperations</text>
</a>
</g>
</g>
<!-- Node20&#45;&gt;Node21 -->
<g id="edge90_Node000020_Node000021" class="edge">
<title>Node20&#45;&gt;Node21</title>
<g id="a_edge90_Node000020_Node000021"><a xlink:title=" ">
<path fill="none" stroke="#63b8ff" d="M1053.73,-144.49C1081.81,-139.21 1113.12,-133.33 1139.54,-128.36"/>
<polygon fill="#63b8ff" stroke="#63b8ff" points="1140.23,-131.79 1149.41,-126.51 1138.94,-124.91 1140.23,-131.79"/>
</a>
</g>
</g>
<!-- Node23&#45;&gt;Node21 -->
<g id="edge93_Node000023_Node000021" class="edge">
<title>Node23&#45;&gt;Node21</title>
<g id="a_edge93_Node000023_Node000021"><a xlink:title=" ">
<path fill="none" stroke="#63b8ff" d="M1047.28,-78.06C1060.19,-80.94 1073.51,-83.99 1086,-87 1108.91,-92.52 1134.28,-99.15 1155.25,-104.77"/>
<polygon fill="#63b8ff" stroke="#63b8ff" points="1154.6,-108.21 1165.17,-107.43 1156.42,-101.45 1154.6,-108.21"/>
</a>
</g>
</g>
<!-- Node25&#45;&gt;Node15 -->
<g id="edge96_Node000025_Node000015" class="edge">
<title>Node25&#45;&gt;Node15</title>
<g id="a_edge96_Node000025_Node000015"><a xlink:title=" ">
<path fill="none" stroke="#63b8ff" d="M398.5,-120.88C418.41,-122.73 440.17,-124.75 460.84,-126.67"/>
<polygon fill="#63b8ff" stroke="#63b8ff" points="460.6,-130.16 470.88,-127.6 461.25,-123.19 460.6,-130.16"/>
</a>
</g>
</g>
</g>
</svg>
