<?xml version="1.0" encoding="UTF-8" standalone="no"?>
<!DOCTYPE svg PUBLIC "-//W3C//DTD SVG 1.1//EN"
 "http://www.w3.org/Graphics/SVG/1.1/DTD/svg11.dtd">
<!-- Generated by graphviz version 2.43.0 (0)
 -->
<!-- Title: cam.nc.nc.Creator.writem Pages: 1 -->
<svg width="992pt" height="796pt"
 viewBox="0.00 0.00 992.00 795.50" xmlns="http://www.w3.org/2000/svg" xmlns:xlink="http://www.w3.org/1999/xlink">
<g id="graph0" class="graph" transform="scale(1 1) rotate(0) translate(4 791.5)">
<title>cam.nc.nc.Creator.writem</title>
<!-- Node1 -->
<g id="Node000001" class="node">
<title>Node1</title>
<g id="a_Node000001"><a xlink:title=" ">
<polygon fill="#999999" stroke="#666666" points="984,-96.5 842,-96.5 842,-77.5 984,-77.5 984,-96.5"/>
<text text-anchor="middle" x="913" y="-84.5" font-family="Helvetica,sans-Serif" font-size="10.00">cam.nc.nc.Creator.writem</text>
</a>
</g>
</g>
<!-- Node2 -->
<g id="Node000002" class="node">
<title>Node2</title>
<g id="a_Node000002"><a xlink:href="$classcam_1_1nc_1_1iso_1_1Creator.html#ad072e258b3de2c4fa8b1033f28d67bbb" xlink:title=" ">
<polygon fill="white" stroke="#666666" points="772,-163.5 640,-163.5 640,-144.5 772,-144.5 772,-163.5"/>
<text text-anchor="middle" x="706" y="-151.5" font-family="Helvetica,sans-Serif" font-size="10.00">cam.nc.iso.Creator.feed</text>
</a>
</g>
</g>
<!-- Node1&#45;&gt;Node2 -->
<g id="edge97_Node000001_Node000002" class="edge">
<title>Node1&#45;&gt;Node2</title>
<g id="a_edge97_Node000001_Node000002"><a xlink:title=" ">
<path fill="none" stroke="#63b8ff" d="M885.17,-101.29C864.14,-111.95 833.88,-126.15 806,-135 794.16,-138.76 781.27,-141.9 768.82,-144.46"/>
<polygon fill="#63b8ff" stroke="#63b8ff" points="886.84,-104.36 894.13,-96.67 883.64,-98.14 886.84,-104.36"/>
</a>
</g>
</g>
<!-- Node25 -->
<g id="Node000025" class="node">
<title>Node25</title>
<g id="a_Node000025"><a xlink:href="$classcam_1_1nc_1_1fadal_1_1Creator.html#a6ee2a1bc664bff3ebe1a33a3f71d9f35" xlink:title="Programs.">
<polygon fill="white" stroke="#666666" points="787,-126 625,-126 625,-96 787,-96 787,-126"/>
<text text-anchor="start" x="633" y="-114" font-family="Helvetica,sans-Serif" font-size="10.00">cam.nc.fadal.Creator.program</text>
<text text-anchor="middle" x="706" y="-103" font-family="Helvetica,sans-Serif" font-size="10.00">_begin</text>
</a>
</g>
</g>
<!-- Node1&#45;&gt;Node25 -->
<g id="edge142_Node000001_Node000025" class="edge">
<title>Node1&#45;&gt;Node25</title>
<g id="a_edge142_Node000001_Node000025"><a xlink:title=" ">
<path fill="none" stroke="#63b8ff" d="M831.69,-96.4C817.02,-98.12 801.7,-99.91 787.03,-101.63"/>
<polygon fill="#63b8ff" stroke="#63b8ff" points="832.21,-99.86 841.74,-95.23 831.4,-92.91 832.21,-99.86"/>
</a>
</g>
</g>
<!-- Node26 -->
<g id="Node000026" class="node">
<title>Node26</title>
<g id="a_Node000026"><a xlink:href="$classcam_1_1nc_1_1iso_1_1Creator.html#adcc0019bc3a0dff0023e4d11b13b92c2" xlink:title="Programs.">
<polygon fill="white" stroke="#666666" points="782,-78 630,-78 630,-48 782,-48 782,-78"/>
<text text-anchor="start" x="638" y="-66" font-family="Helvetica,sans-Serif" font-size="10.00">cam.nc.iso.Creator.program</text>
<text text-anchor="middle" x="706" y="-55" font-family="Helvetica,sans-Serif" font-size="10.00">_begin</text>
</a>
</g>
</g>
<!-- Node1&#45;&gt;Node26 -->
<g id="edge143_Node000001_Node000026" class="edge">
<title>Node1&#45;&gt;Node26</title>
<g id="a_edge143_Node000001_Node000026"><a xlink:title=" ">
<path fill="none" stroke="#63b8ff" d="M831.68,-77.6C815.35,-75.68 798.22,-73.68 782.07,-71.79"/>
<polygon fill="#63b8ff" stroke="#63b8ff" points="831.4,-81.09 841.74,-78.77 832.21,-74.14 831.4,-81.09"/>
</a>
</g>
</g>
<!-- Node27 -->
<g id="Node000027" class="node">
<title>Node27</title>
<g id="a_Node000027"><a xlink:href="$classcam_1_1nc_1_1shopbot__mtc_1_1Creator.html#a6b74e380e0cc3a8916149b732e686961" xlink:title="Programs.">
<polygon fill="white" stroke="#666666" points="806,-30 606,-30 606,0 806,0 806,-30"/>
<text text-anchor="start" x="614" y="-18" font-family="Helvetica,sans-Serif" font-size="10.00">cam.nc.shopbot_mtc.Creator.program</text>
<text text-anchor="middle" x="706" y="-7" font-family="Helvetica,sans-Serif" font-size="10.00">_begin</text>
</a>
</g>
</g>
<!-- Node1&#45;&gt;Node27 -->
<g id="edge144_Node000001_Node000027" class="edge">
<title>Node1&#45;&gt;Node27</title>
<g id="a_edge144_Node000001_Node000027"><a xlink:title=" ">
<path fill="none" stroke="#63b8ff" d="M884.66,-72.9C863.59,-62.46 833.5,-48.47 806,-39 796.47,-35.72 786.27,-32.71 776.18,-30.01"/>
<polygon fill="#63b8ff" stroke="#63b8ff" points="883.16,-76.07 893.67,-77.42 886.3,-69.81 883.16,-76.07"/>
</a>
</g>
</g>
<!-- Node3 -->
<g id="Node000003" class="node">
<title>Node3</title>
<g id="a_Node000003"><a xlink:href="$classcam_1_1nc_1_1heiden_1_1Creator.html#a78c90cc7cedad79ff356840b59527774" xlink:title=" ">
<polygon fill="white" stroke="#666666" points="563.5,-428.5 419.5,-428.5 419.5,-409.5 563.5,-409.5 563.5,-428.5"/>
<text text-anchor="middle" x="491.5" y="-416.5" font-family="Helvetica,sans-Serif" font-size="10.00">cam.nc.heiden.Creator.arc</text>
</a>
</g>
</g>
<!-- Node2&#45;&gt;Node3 -->
<g id="edge98_Node000002_Node000003" class="edge">
<title>Node2&#45;&gt;Node3</title>
<g id="a_edge98_Node000002_Node000003"><a xlink:title=" ">
<path fill="none" stroke="#63b8ff" d="M690.87,-171.63C649.8,-222.83 531.45,-370.43 500.16,-409.45"/>
<polygon fill="#63b8ff" stroke="#63b8ff" points="693.66,-173.74 697.18,-163.75 688.2,-169.36 693.66,-173.74"/>
</a>
</g>
</g>
<!-- Node4 -->
<g id="Node000004" class="node">
<title>Node4</title>
<g id="a_Node000004"><a xlink:href="$classcam_1_1nc_1_1iso_1_1Creator.html#aed90658ba02dc4e25c565f6e3a70670d" xlink:title=" ">
<polygon fill="white" stroke="#666666" points="365.5,-428.5 240.5,-428.5 240.5,-409.5 365.5,-409.5 365.5,-428.5"/>
<text text-anchor="middle" x="303" y="-416.5" font-family="Helvetica,sans-Serif" font-size="10.00">cam.nc.iso.Creator.arc</text>
</a>
</g>
</g>
<!-- Node2&#45;&gt;Node4 -->
<g id="edge135_Node000002_Node000004" class="edge">
<title>Node2&#45;&gt;Node4</title>
<g id="a_edge135_Node000002_Node000004"><a xlink:title=" ">
<path fill="none" stroke="#63b8ff" d="M681.6,-169.46C607.34,-218.54 378.35,-369.86 318.46,-409.45"/>
<polygon fill="#63b8ff" stroke="#63b8ff" points="683.84,-172.18 690.25,-163.75 679.98,-166.34 683.84,-172.18"/>
</a>
</g>
</g>
<!-- Node21 -->
<g id="Node000021" class="node">
<title>Node21</title>
<g id="a_Node000021"><a xlink:href="$classcam_1_1nc_1_1heiden_1_1Creator.html#ab1ba24f0b927edab5d70c6642ceacfc4" xlink:title=" ">
<polygon fill="white" stroke="#666666" points="377,-87.5 229,-87.5 229,-68.5 377,-68.5 377,-87.5"/>
<text text-anchor="middle" x="303" y="-75.5" font-family="Helvetica,sans-Serif" font-size="10.00">cam.nc.heiden.Creator.drill</text>
</a>
</g>
</g>
<!-- Node2&#45;&gt;Node21 -->
<g id="edge136_Node000002_Node000021" class="edge">
<title>Node2&#45;&gt;Node21</title>
<g id="a_edge136_Node000002_Node000021"><a xlink:title=" ">
<path fill="none" stroke="#63b8ff" d="M629.79,-151.97C569.78,-148.52 484.26,-139.48 413,-116 395.62,-110.27 394.04,-102.69 377,-96 368.62,-92.71 359.45,-89.88 350.53,-87.51"/>
<polygon fill="#63b8ff" stroke="#63b8ff" points="629.77,-155.48 639.95,-152.52 630.15,-148.49 629.77,-155.48"/>
</a>
</g>
</g>
<!-- Node22 -->
<g id="Node000022" class="node">
<title>Node22</title>
<g id="a_Node000022"><a xlink:href="$classcam_1_1nc_1_1iso_1_1Creator.html#a61f29267aaaddc3d5c8471f9bf714cb3" xlink:title=" ">
<polygon fill="white" stroke="#666666" points="367.5,-124.5 238.5,-124.5 238.5,-105.5 367.5,-105.5 367.5,-124.5"/>
<text text-anchor="middle" x="303" y="-112.5" font-family="Helvetica,sans-Serif" font-size="10.00">cam.nc.iso.Creator.drill</text>
</a>
</g>
</g>
<!-- Node2&#45;&gt;Node22 -->
<g id="edge138_Node000002_Node000022" class="edge">
<title>Node2&#45;&gt;Node22</title>
<g id="a_edge138_Node000002_Node000022"><a xlink:title=" ">
<path fill="none" stroke="#63b8ff" d="M629.85,-158.55C570.56,-160.75 485.99,-160.76 413,-149 404.98,-147.71 362.5,-134.12 333.01,-124.52"/>
<polygon fill="#63b8ff" stroke="#63b8ff" points="630.02,-162.05 639.88,-158.15 629.74,-155.06 630.02,-162.05"/>
</a>
</g>
</g>
<!-- Node23 -->
<g id="Node000023" class="node">
<title>Node23</title>
<g id="a_Node000023"><a xlink:href="$classcam_1_1nc_1_1heiden_1_1Creator.html#a921825a14a9068d234377d7ac3b7777f" xlink:title=" ">
<polygon fill="white" stroke="#666666" points="570,-107 413,-107 413,-77 570,-77 570,-107"/>
<text text-anchor="start" x="421" y="-95" font-family="Helvetica,sans-Serif" font-size="10.00">cam.nc.heiden.Creator.probe</text>
<text text-anchor="middle" x="491.5" y="-84" font-family="Helvetica,sans-Serif" font-size="10.00">_single_point</text>
</a>
</g>
</g>
<!-- Node2&#45;&gt;Node23 -->
<g id="edge140_Node000002_Node000023" class="edge">
<title>Node2&#45;&gt;Node23</title>
<g id="a_edge140_Node000002_Node000023"><a xlink:title=" ">
<path fill="none" stroke="#63b8ff" d="M635.92,-142.41C625.81,-140.23 615.59,-137.76 606,-135 589.5,-130.25 586.04,-127.12 570,-121 558.05,-116.44 545.05,-111.55 533.16,-107.1"/>
<polygon fill="#63b8ff" stroke="#63b8ff" points="635.45,-145.89 645.95,-144.49 636.87,-139.03 635.45,-145.89"/>
</a>
</g>
</g>
<!-- Node24 -->
<g id="Node000024" class="node">
<title>Node24</title>
<g id="a_Node000024"><a xlink:href="$classcam_1_1nc_1_1iso_1_1Creator.html#adc5343ffd168991077858693d6a79fef" xlink:title=" ">
<polygon fill="white" stroke="#666666" points="560.5,-59 422.5,-59 422.5,-29 560.5,-29 560.5,-59"/>
<text text-anchor="start" x="430.5" y="-47" font-family="Helvetica,sans-Serif" font-size="10.00">cam.nc.iso.Creator.probe</text>
<text text-anchor="middle" x="491.5" y="-36" font-family="Helvetica,sans-Serif" font-size="10.00">_single_point</text>
</a>
</g>
</g>
<!-- Node2&#45;&gt;Node24 -->
<g id="edge141_Node000002_Node000024" class="edge">
<title>Node2&#45;&gt;Node24</title>
<g id="a_edge141_Node000002_Node000024"><a xlink:title=" ">
<path fill="none" stroke="#63b8ff" d="M629.99,-147.1C621.4,-144.2 613.17,-140.27 606,-135 578.76,-114.98 596.09,-89.49 570,-68 565.87,-64.6 561.26,-61.68 556.4,-59.17"/>
<polygon fill="#63b8ff" stroke="#63b8ff" points="629.21,-150.52 639.79,-149.97 631.18,-143.81 629.21,-150.52"/>
</a>
</g>
</g>
<!-- Node3&#45;&gt;Node3 -->
<g id="edge99_Node000003_Node000003" class="edge">
<title>Node3&#45;&gt;Node3</title>
<g id="a_edge99_Node000003_Node000003"><a xlink:title=" ">
<path fill="none" stroke="#63b8ff" d="M526.73,-436.57C526.22,-442.12 514.47,-446.5 491.5,-446.5 458.09,-446.5 448.43,-437.23 462.52,-428.58"/>
<polygon fill="#63b8ff" stroke="#63b8ff" points="529.4,-434.3 520.48,-428.58 523.89,-438.61 529.4,-434.3"/>
</a>
</g>
</g>
<!-- Node3&#45;&gt;Node4 -->
<g id="edge100_Node000003_Node000004" class="edge">
<title>Node3&#45;&gt;Node4</title>
<g id="a_edge100_Node000003_Node000004"><a xlink:title=" ">
<path fill="none" stroke="#63b8ff" d="M409.4,-412.3C394.75,-412.18 379.69,-412.28 365.7,-412.61"/>
<polygon fill="#63b8ff" stroke="#63b8ff" points="409.42,-415.8 419.46,-412.42 409.5,-408.8 409.42,-415.8"/>
</a>
</g>
</g>
<!-- Node5 -->
<g id="Node000005" class="node">
<title>Node5</title>
<g id="a_Node000005"><a xlink:href="$classcam_1_1nc_1_1heiden_1_1Creator.html#a7c0262bb6935f21773e134b851cbff38" xlink:title=" ">
<polygon fill="white" stroke="#666666" points="180.5,-589.5 12.5,-589.5 12.5,-570.5 180.5,-570.5 180.5,-589.5"/>
<text text-anchor="middle" x="96.5" y="-577.5" font-family="Helvetica,sans-Serif" font-size="10.00">cam.nc.heiden.Creator.arc_ccw</text>
</a>
</g>
</g>
<!-- Node3&#45;&gt;Node5 -->
<g id="edge119_Node000003_Node000005" class="edge">
<title>Node3&#45;&gt;Node5</title>
<g id="a_edge119_Node000003_Node000005"><a xlink:title=" ">
<path fill="none" stroke="#63b8ff" d="M478.16,-436.93C459.48,-462.55 421.45,-509.05 377,-532 315.97,-563.51 238.46,-574.93 180.55,-578.8"/>
<polygon fill="#63b8ff" stroke="#63b8ff" points="481.2,-438.7 484.14,-428.52 475.49,-434.64 481.2,-438.7"/>
</a>
</g>
</g>
<!-- Node6 -->
<g id="Node000006" class="node">
<title>Node6</title>
<g id="a_Node000006"><a xlink:href="$classcam_1_1nc_1_1hpgl2d_1_1Creator.html#ae869adedb7242daa7c1b42302c182896" xlink:title=" ">
<polygon fill="white" stroke="#666666" points="180.5,-551.5 12.5,-551.5 12.5,-532.5 180.5,-532.5 180.5,-551.5"/>
<text text-anchor="middle" x="96.5" y="-539.5" font-family="Helvetica,sans-Serif" font-size="10.00">cam.nc.hpgl2d.Creator.arc_ccw</text>
</a>
</g>
</g>
<!-- Node3&#45;&gt;Node6 -->
<g id="edge120_Node000003_Node000006" class="edge">
<title>Node3&#45;&gt;Node6</title>
<g id="a_edge120_Node000003_Node000006"><a xlink:title=" ">
<path fill="none" stroke="#63b8ff" d="M473.51,-435.68C452.65,-455.07 415.32,-486.39 377,-502 314.24,-527.56 237.75,-537.18 180.66,-540.62"/>
<polygon fill="#63b8ff" stroke="#63b8ff" points="476.06,-438.08 480.9,-428.65 471.24,-433 476.06,-438.08"/>
</a>
</g>
</g>
<!-- Node7 -->
<g id="Node000007" class="node">
<title>Node7</title>
<g id="a_Node000007"><a xlink:href="$classcam_1_1nc_1_1iso_1_1Creator.html#a73623b6caaf8efee669803ee57ca97a9" xlink:title=" ">
<polygon fill="white" stroke="#666666" points="171,-513.5 22,-513.5 22,-494.5 171,-494.5 171,-513.5"/>
<text text-anchor="middle" x="96.5" y="-501.5" font-family="Helvetica,sans-Serif" font-size="10.00">cam.nc.iso.Creator.arc_ccw</text>
</a>
</g>
</g>
<!-- Node3&#45;&gt;Node7 -->
<g id="edge121_Node000003_Node000007" class="edge">
<title>Node3&#45;&gt;Node7</title>
<g id="a_edge121_Node000003_Node000007"><a xlink:title=" ">
<path fill="none" stroke="#63b8ff" d="M467.09,-433.97C444.84,-447.4 409.98,-466.42 377,-476 309.09,-495.72 228.44,-502.08 171.27,-503.9"/>
<polygon fill="#63b8ff" stroke="#63b8ff" points="469.13,-436.83 475.81,-428.6 465.46,-430.86 469.13,-436.83"/>
</a>
</g>
</g>
<!-- Node8 -->
<g id="Node000008" class="node">
<title>Node8</title>
<g id="a_Node000008"><a xlink:href="$classcam_1_1nc_1_1lathe1_1_1CreatorIso.html#a9eae946df7fc34b9a46e33a00d891c3d" xlink:title=" ">
<polygon fill="white" stroke="#666666" points="187,-474.5 6,-474.5 6,-455.5 187,-455.5 187,-474.5"/>
<text text-anchor="middle" x="96.5" y="-462.5" font-family="Helvetica,sans-Serif" font-size="10.00">cam.nc.lathe1.CreatorIso.arc_ccw</text>
</a>
</g>
</g>
<!-- Node3&#45;&gt;Node8 -->
<g id="edge122_Node000003_Node000008" class="edge">
<title>Node3&#45;&gt;Node8</title>
<g id="a_edge122_Node000003_Node000008"><a xlink:title=" ">
<path fill="none" stroke="#63b8ff" d="M458.16,-432.25C435.79,-440.75 405.1,-451.07 377,-456 314.24,-467.01 242.36,-469.1 187.22,-468.51"/>
<polygon fill="#63b8ff" stroke="#63b8ff" points="459.46,-435.51 467.52,-428.63 456.93,-428.98 459.46,-435.51"/>
</a>
</g>
</g>
<!-- Node9 -->
<g id="Node000009" class="node">
<title>Node9</title>
<g id="a_Node000009"><a xlink:href="$classcam_1_1nc_1_1makerbotHBP_1_1CreatorMakerbotHBP.html#aa7b30248f278113e0c9a324820824941" xlink:title=" ">
<polygon fill="white" stroke="#666666" points="176,-432 17,-432 17,-402 176,-402 176,-432"/>
<text text-anchor="start" x="25" y="-420" font-family="Helvetica,sans-Serif" font-size="10.00">cam.nc.makerbotHBP.Creator</text>
<text text-anchor="middle" x="96.5" y="-409" font-family="Helvetica,sans-Serif" font-size="10.00">MakerbotHBP.arc_ccw</text>
</a>
</g>
</g>
<!-- Node3&#45;&gt;Node9 -->
<g id="edge123_Node000003_Node000009" class="edge">
<title>Node3&#45;&gt;Node9</title>
<g id="a_edge123_Node000003_Node000009"><a xlink:title=" ">
<path fill="none" stroke="#63b8ff" d="M431.23,-407.8C413.82,-405 394.71,-402.4 377,-401 311.43,-395.83 294.66,-397.02 229,-401 211.9,-402.04 193.61,-403.82 176.28,-405.84"/>
<polygon fill="#63b8ff" stroke="#63b8ff" points="430.82,-411.28 441.26,-409.46 431.97,-404.37 430.82,-411.28"/>
</a>
</g>
</g>
<!-- Node10 -->
<g id="Node000010" class="node">
<title>Node10</title>
<g id="a_Node000010"><a xlink:href="$classcam_1_1nc_1_1recreator_1_1Redirector.html#a50bb4fcb175a9c87e1cf45a79cd54ff1" xlink:title=" ">
<polygon fill="white" stroke="#666666" points="193,-382.5 0,-382.5 0,-363.5 193,-363.5 193,-382.5"/>
<text text-anchor="middle" x="96.5" y="-370.5" font-family="Helvetica,sans-Serif" font-size="10.00">cam.nc.recreator.Redirector.arc_ccw</text>
</a>
</g>
</g>
<!-- Node3&#45;&gt;Node10 -->
<g id="edge124_Node000003_Node000010" class="edge">
<title>Node3&#45;&gt;Node10</title>
<g id="a_edge124_Node000003_Node000010"><a xlink:title=" ">
<path fill="none" stroke="#63b8ff" d="M445.44,-407C424.73,-401.92 399.77,-396.4 377,-393 316.26,-383.92 247.45,-378.94 193.3,-376.21"/>
<polygon fill="#63b8ff" stroke="#63b8ff" points="444.69,-410.42 455.24,-409.45 446.38,-403.63 444.69,-410.42"/>
</a>
</g>
</g>
<!-- Node11 -->
<g id="Node000011" class="node">
<title>Node11</title>
<g id="a_Node000011"><a xlink:href="$classcam_1_1nc_1_1rez2_1_1Creator.html#a7a7b089cf338846799311b5b1193a566" xlink:title=" ">
<polygon fill="white" stroke="#666666" points="174.5,-342.5 18.5,-342.5 18.5,-323.5 174.5,-323.5 174.5,-342.5"/>
<text text-anchor="middle" x="96.5" y="-330.5" font-family="Helvetica,sans-Serif" font-size="10.00">cam.nc.rez2.Creator.arc_ccw</text>
</a>
</g>
</g>
<!-- Node3&#45;&gt;Node11 -->
<g id="edge125_Node000003_Node000011" class="edge">
<title>Node3&#45;&gt;Node11</title>
<g id="a_edge125_Node000003_Node000011"><a xlink:title=" ">
<path fill="none" stroke="#63b8ff" d="M461.14,-405.17C438.59,-395.1 406.43,-381.88 377,-374 309.85,-356.02 231.37,-345.38 174.69,-339.47"/>
<polygon fill="#63b8ff" stroke="#63b8ff" points="459.93,-408.47 470.48,-409.41 462.82,-402.09 459.93,-408.47"/>
</a>
</g>
</g>
<!-- Node12 -->
<g id="Node000012" class="node">
<title>Node12</title>
<g id="a_Node000012"><a xlink:href="$classcam_1_1nc_1_1heiden_1_1Creator.html#afffaa9e4bad9251bb67ff287f47accda" xlink:title=" ">
<polygon fill="white" stroke="#666666" points="178,-238.5 15,-238.5 15,-219.5 178,-219.5 178,-238.5"/>
<text text-anchor="middle" x="96.5" y="-226.5" font-family="Helvetica,sans-Serif" font-size="10.00">cam.nc.heiden.Creator.arc_cw</text>
</a>
</g>
</g>
<!-- Node3&#45;&gt;Node12 -->
<g id="edge126_Node000003_Node000012" class="edge">
<title>Node3&#45;&gt;Node12</title>
<g id="a_edge126_Node000003_Node000012"><a xlink:title=" ">
<path fill="none" stroke="#63b8ff" d="M478.75,-400.97C460.35,-374.24 422.13,-324.43 377,-298 315.86,-262.2 236.74,-244.89 178.29,-236.57"/>
<polygon fill="#63b8ff" stroke="#63b8ff" points="475.92,-403.04 484.41,-409.39 481.73,-399.14 475.92,-403.04"/>
</a>
</g>
</g>
<!-- Node13 -->
<g id="Node000013" class="node">
<title>Node13</title>
<g id="a_Node000013"><a xlink:href="$classcam_1_1nc_1_1hpgl2d_1_1Creator.html#ae23fc4d361aa6de768d74b18324bae53" xlink:title=" ">
<polygon fill="white" stroke="#666666" points="178,-200.5 15,-200.5 15,-181.5 178,-181.5 178,-200.5"/>
<text text-anchor="middle" x="96.5" y="-188.5" font-family="Helvetica,sans-Serif" font-size="10.00">cam.nc.hpgl2d.Creator.arc_cw</text>
</a>
</g>
</g>
<!-- Node3&#45;&gt;Node13 -->
<g id="edge127_Node000003_Node000013" class="edge">
<title>Node3&#45;&gt;Node13</title>
<g id="a_edge127_Node000003_Node000013"><a xlink:title=" ">
<path fill="none" stroke="#63b8ff" d="M484.08,-399.74C470.62,-362.63 435.78,-281.4 377,-242 318.31,-202.66 237.78,-191.37 178.24,-189.07"/>
<polygon fill="#63b8ff" stroke="#63b8ff" points="480.83,-401.07 487.44,-409.36 487.44,-398.77 480.83,-401.07"/>
</a>
</g>
</g>
<!-- Node14 -->
<g id="Node000014" class="node">
<title>Node14</title>
<g id="a_Node000014"><a xlink:href="$classcam_1_1nc_1_1iso_1_1Creator.html#a334d38752a57cd7745f9361d583c68f6" xlink:title=" ">
<polygon fill="white" stroke="#666666" points="168.5,-787.5 24.5,-787.5 24.5,-768.5 168.5,-768.5 168.5,-787.5"/>
<text text-anchor="middle" x="96.5" y="-775.5" font-family="Helvetica,sans-Serif" font-size="10.00">cam.nc.iso.Creator.arc_cw</text>
</a>
</g>
</g>
<!-- Node3&#45;&gt;Node14 -->
<g id="edge128_Node000003_Node000014" class="edge">
<title>Node3&#45;&gt;Node14</title>
<g id="a_edge128_Node000003_Node000014"><a xlink:title=" ">
<path fill="none" stroke="#63b8ff" d="M489.42,-438.82C485.32,-493.28 466.04,-646.18 377,-722 319.26,-771.17 230.49,-781.54 168.53,-781.94"/>
<polygon fill="#63b8ff" stroke="#63b8ff" points="492.92,-438.97 490.08,-428.76 485.93,-438.51 492.92,-438.97"/>
</a>
</g>
</g>
<!-- Node15 -->
<g id="Node000015" class="node">
<title>Node15</title>
<g id="a_Node000015"><a xlink:href="$classcam_1_1nc_1_1lathe1_1_1CreatorIso.html#ae2f7d7587f9940cf9534e127f7234c4c" xlink:title=" ">
<polygon fill="white" stroke="#666666" points="184.5,-749.5 8.5,-749.5 8.5,-730.5 184.5,-730.5 184.5,-749.5"/>
<text text-anchor="middle" x="96.5" y="-737.5" font-family="Helvetica,sans-Serif" font-size="10.00">cam.nc.lathe1.CreatorIso.arc_cw</text>
</a>
</g>
</g>
<!-- Node3&#45;&gt;Node15 -->
<g id="edge129_Node000003_Node000015" class="edge">
<title>Node3&#45;&gt;Node15</title>
<g id="a_edge129_Node000003_Node000015"><a xlink:title=" ">
<path fill="none" stroke="#63b8ff" d="M488.08,-438.68C480.95,-487.83 455.34,-616.61 377,-681 323.36,-725.09 244.8,-738.6 184.62,-741.79"/>
<polygon fill="#63b8ff" stroke="#63b8ff" points="491.56,-439.09 489.43,-428.71 484.62,-438.15 491.56,-439.09"/>
</a>
</g>
</g>
<!-- Node16 -->
<g id="Node000016" class="node">
<title>Node16</title>
<g id="a_Node000016"><a xlink:href="$classcam_1_1nc_1_1makerbotHBP_1_1CreatorMakerbotHBP.html#a2cf899fa0839287bdca94b6207c078d6" xlink:title=" ">
<polygon fill="white" stroke="#666666" points="176,-712 17,-712 17,-682 176,-682 176,-712"/>
<text text-anchor="start" x="25" y="-700" font-family="Helvetica,sans-Serif" font-size="10.00">cam.nc.makerbotHBP.Creator</text>
<text text-anchor="middle" x="96.5" y="-689" font-family="Helvetica,sans-Serif" font-size="10.00">MakerbotHBP.arc_cw</text>
</a>
</g>
</g>
<!-- Node3&#45;&gt;Node16 -->
<g id="edge130_Node000003_Node000016" class="edge">
<title>Node3&#45;&gt;Node16</title>
<g id="a_edge130_Node000003_Node000016"><a xlink:title=" ">
<path fill="none" stroke="#63b8ff" d="M486.43,-438.97C476.36,-483.04 445.9,-588.85 377,-641 319.39,-684.61 236.58,-696.69 176.06,-699.02"/>
<polygon fill="#63b8ff" stroke="#63b8ff" points="489.91,-439.45 488.61,-428.94 483.07,-437.97 489.91,-439.45"/>
</a>
</g>
</g>
<!-- Node17 -->
<g id="Node000017" class="node">
<title>Node17</title>
<g id="a_Node000017"><a xlink:href="$classcam_1_1nc_1_1recreator_1_1Redirector.html#a54adbf876611896e0d8d530766a18964" xlink:title=" ">
<polygon fill="white" stroke="#666666" points="190.5,-663.5 2.5,-663.5 2.5,-644.5 190.5,-644.5 190.5,-663.5"/>
<text text-anchor="middle" x="96.5" y="-651.5" font-family="Helvetica,sans-Serif" font-size="10.00">cam.nc.recreator.Redirector.arc_cw</text>
</a>
</g>
</g>
<!-- Node3&#45;&gt;Node17 -->
<g id="edge131_Node000003_Node000017" class="edge">
<title>Node3&#45;&gt;Node17</title>
<g id="a_edge131_Node000003_Node000017"><a xlink:title=" ">
<path fill="none" stroke="#63b8ff" d="M484.49,-438.46C471.58,-476.76 437.37,-561.77 377,-603 322.52,-640.21 248.68,-652.46 190.57,-655.67"/>
<polygon fill="#63b8ff" stroke="#63b8ff" points="487.94,-439.17 487.69,-428.57 481.28,-437.01 487.94,-439.17"/>
</a>
</g>
</g>
<!-- Node18 -->
<g id="Node000018" class="node">
<title>Node18</title>
<g id="a_Node000018"><a xlink:href="$classcam_1_1nc_1_1rez2_1_1Creator.html#a96f30401310d0198de3d2d55da86510f" xlink:title=" ">
<polygon fill="white" stroke="#666666" points="172,-626.5 21,-626.5 21,-607.5 172,-607.5 172,-626.5"/>
<text text-anchor="middle" x="96.5" y="-614.5" font-family="Helvetica,sans-Serif" font-size="10.00">cam.nc.rez2.Creator.arc_cw</text>
</a>
</g>
</g>
<!-- Node3&#45;&gt;Node18 -->
<g id="edge132_Node000003_Node000018" class="edge">
<title>Node3&#45;&gt;Node18</title>
<g id="a_edge132_Node000003_Node000018"><a xlink:title=" ">
<path fill="none" stroke="#63b8ff" d="M481.84,-437.63C465.95,-469.57 428.94,-534.38 377,-566 314.86,-603.84 231.54,-615 172.07,-617.67"/>
<polygon fill="#63b8ff" stroke="#63b8ff" points="485.05,-439.03 486.25,-428.5 478.75,-435.98 485.05,-439.03"/>
</a>
</g>
</g>
<!-- Node19 -->
<g id="Node000019" class="node">
<title>Node19</title>
<g id="a_Node000019"><a xlink:href="$classcam_1_1nc_1_1cad__iso__read_1_1Parser.html#abf885d019794a8bef1b69f446c8851e1" xlink:title=" ">
<polygon fill="white" stroke="#666666" points="173.5,-147 19.5,-147 19.5,-117 173.5,-117 173.5,-147"/>
<text text-anchor="start" x="27.5" y="-135" font-family="Helvetica,sans-Serif" font-size="10.00">cam.nc.cad_iso_read.Parser.</text>
<text text-anchor="middle" x="96.5" y="-124" font-family="Helvetica,sans-Serif" font-size="10.00">Parse</text>
</a>
</g>
</g>
<!-- Node3&#45;&gt;Node19 -->
<g id="edge133_Node000003_Node000019" class="edge">
<title>Node3&#45;&gt;Node19</title>
<g id="a_edge133_Node000003_Node000019"><a xlink:title=" ">
<path fill="none" stroke="#63b8ff" d="M486.8,-399.36C477.29,-354.56 447.58,-244.51 377,-190 318.95,-145.17 234.6,-132.79 173.77,-130.32"/>
<polygon fill="#63b8ff" stroke="#63b8ff" points="483.39,-400.16 488.8,-409.27 490.26,-398.77 483.39,-400.16"/>
</a>
</g>
</g>
<!-- Node20 -->
<g id="Node000020" class="node">
<title>Node20</title>
<g id="a_Node000020"><a xlink:href="$classcam_1_1nc_1_1heiden__read_1_1Parser.html#a9c64dcddf3c2c0d3248079dde5314cfe" xlink:title=" ">
<polygon fill="white" stroke="#666666" points="171.5,-299 21.5,-299 21.5,-269 171.5,-269 171.5,-299"/>
<text text-anchor="start" x="29.5" y="-287" font-family="Helvetica,sans-Serif" font-size="10.00">cam.nc.heiden_read.Parser.</text>
<text text-anchor="middle" x="96.5" y="-276" font-family="Helvetica,sans-Serif" font-size="10.00">Parsey</text>
</a>
</g>
</g>
<!-- Node3&#45;&gt;Node20 -->
<g id="edge134_Node000003_Node000020" class="edge">
<title>Node3&#45;&gt;Node20</title>
<g id="a_edge134_Node000003_Node000020"><a xlink:title=" ">
<path fill="none" stroke="#63b8ff" d="M471.76,-402.84C450.3,-385.2 413.39,-357.4 377,-342 310.59,-313.9 229.39,-299 171.65,-291.38"/>
<polygon fill="#63b8ff" stroke="#63b8ff" points="469.54,-405.55 479.46,-409.28 474.03,-400.18 469.54,-405.55"/>
</a>
</g>
</g>
<!-- Node4&#45;&gt;Node3 -->
<g id="edge101_Node000004_Node000003" class="edge">
<title>Node4&#45;&gt;Node3</title>
<g id="a_edge101_Node000004_Node000003"><a xlink:title=" ">
<path fill="none" stroke="#63b8ff" d="M375.95,-425.59C390.23,-425.81 405.21,-425.8 419.46,-425.58"/>
<polygon fill="#63b8ff" stroke="#63b8ff" points="375.77,-422.09 365.7,-425.39 375.63,-429.09 375.77,-422.09"/>
</a>
</g>
</g>
<!-- Node4&#45;&gt;Node4 -->
<g id="edge102_Node000004_Node000004" class="edge">
<title>Node4&#45;&gt;Node4</title>
<g id="a_edge102_Node000004_Node000004"><a xlink:title=" ">
<path fill="none" stroke="#63b8ff" d="M338.23,-436.57C337.72,-442.12 325.97,-446.5 303,-446.5 269.59,-446.5 259.93,-437.23 274.02,-428.58"/>
<polygon fill="#63b8ff" stroke="#63b8ff" points="340.9,-434.3 331.98,-428.58 335.39,-438.61 340.9,-434.3"/>
</a>
</g>
</g>
<!-- Node4&#45;&gt;Node5 -->
<g id="edge103_Node000004_Node000005" class="edge">
<title>Node4&#45;&gt;Node5</title>
<g id="a_edge103_Node000004_Node000005"><a xlink:title=" ">
<path fill="none" stroke="#63b8ff" d="M293.24,-437.76C277.72,-468.77 242.32,-530.33 193,-561 186.83,-564.84 180.03,-567.92 173,-570.4"/>
<polygon fill="#63b8ff" stroke="#63b8ff" points="296.51,-439.03 297.73,-428.5 290.22,-435.97 296.51,-439.03"/>
</a>
</g>
</g>
<!-- Node4&#45;&gt;Node6 -->
<g id="edge104_Node000004_Node000006" class="edge">
<title>Node4&#45;&gt;Node6</title>
<g id="a_edge104_Node000004_Node000006"><a xlink:title=" ">
<path fill="none" stroke="#63b8ff" d="M288.83,-436.72C270.24,-460.37 233.96,-501.72 193,-523 185.5,-526.9 177.29,-530 168.92,-532.46"/>
<polygon fill="#63b8ff" stroke="#63b8ff" points="291.75,-438.67 295.06,-428.6 286.2,-434.4 291.75,-438.67"/>
</a>
</g>
</g>
<!-- Node4&#45;&gt;Node7 -->
<g id="edge105_Node000004_Node000007" class="edge">
<title>Node4&#45;&gt;Node7</title>
<g id="a_edge105_Node000004_Node000007"><a xlink:title=" ">
<path fill="none" stroke="#63b8ff" d="M280.72,-434.61C259.51,-449.45 225.51,-471.31 193,-484 181.95,-488.31 169.81,-491.76 157.99,-494.5"/>
<polygon fill="#63b8ff" stroke="#63b8ff" points="282.86,-437.38 288.98,-428.73 278.8,-431.68 282.86,-437.38"/>
</a>
</g>
</g>
<!-- Node4&#45;&gt;Node8 -->
<g id="edge106_Node000004_Node000008" class="edge">
<title>Node4&#45;&gt;Node8</title>
<g id="a_edge106_Node000004_Node000008"><a xlink:title=" ">
<path fill="none" stroke="#63b8ff" d="M249.84,-430.73C215.73,-438.41 171.75,-448.3 139.82,-455.48"/>
<polygon fill="#63b8ff" stroke="#63b8ff" points="250.64,-434.14 259.63,-428.53 249.1,-427.31 250.64,-434.14"/>
</a>
</g>
</g>
<!-- Node4&#45;&gt;Node9 -->
<g id="edge107_Node000004_Node000009" class="edge">
<title>Node4&#45;&gt;Node9</title>
<g id="a_edge107_Node000004_Node000009"><a xlink:title=" ">
<path fill="none" stroke="#63b8ff" d="M230.22,-418.3C212.71,-418.13 193.88,-417.94 176.07,-417.77"/>
<polygon fill="#63b8ff" stroke="#63b8ff" points="230.33,-421.8 240.37,-418.4 230.4,-414.8 230.33,-421.8"/>
</a>
</g>
</g>
<!-- Node4&#45;&gt;Node10 -->
<g id="edge108_Node000004_Node000010" class="edge">
<title>Node4&#45;&gt;Node10</title>
<g id="a_edge108_Node000004_Node000010"><a xlink:title=" ">
<path fill="none" stroke="#63b8ff" d="M253.37,-407.1C234.54,-402.57 212.79,-397.43 193,-393 177.13,-389.45 159.73,-385.75 144.19,-382.51"/>
<polygon fill="#63b8ff" stroke="#63b8ff" points="252.67,-410.53 263.22,-409.47 254.32,-403.72 252.67,-410.53"/>
</a>
</g>
</g>
<!-- Node4&#45;&gt;Node11 -->
<g id="edge109_Node000004_Node000011" class="edge">
<title>Node4&#45;&gt;Node11</title>
<g id="a_edge109_Node000004_Node000011"><a xlink:title=" ">
<path fill="none" stroke="#63b8ff" d="M280.27,-403.54C258.97,-389.06 225.11,-367.78 193,-355 180.04,-349.84 165.58,-345.73 151.92,-342.53"/>
<polygon fill="#63b8ff" stroke="#63b8ff" points="278.37,-406.48 288.59,-409.29 282.35,-400.72 278.37,-406.48"/>
</a>
</g>
</g>
<!-- Node4&#45;&gt;Node12 -->
<g id="edge110_Node000004_Node000012" class="edge">
<title>Node4&#45;&gt;Node12</title>
<g id="a_edge110_Node000004_Node000012"><a xlink:title=" ">
<path fill="none" stroke="#63b8ff" d="M293.82,-399.59C278.78,-366.19 243.56,-297.79 193,-260 179.74,-250.09 163.16,-243.26 147.57,-238.6"/>
<polygon fill="#63b8ff" stroke="#63b8ff" points="290.78,-401.37 297.99,-409.12 297.19,-398.56 290.78,-401.37"/>
</a>
</g>
</g>
<!-- Node4&#45;&gt;Node13 -->
<g id="edge111_Node000004_Node000013" class="edge">
<title>Node4&#45;&gt;Node13</title>
<g id="a_edge111_Node000004_Node000013"><a xlink:title=" ">
<path fill="none" stroke="#63b8ff" d="M297.78,-399.34C287.67,-357.33 257.93,-258.67 193,-210 188,-206.25 182.44,-203.18 176.6,-200.69"/>
<polygon fill="#63b8ff" stroke="#63b8ff" points="294.38,-400.2 300.03,-409.17 301.21,-398.64 294.38,-400.2"/>
</a>
</g>
</g>
<!-- Node4&#45;&gt;Node14 -->
<g id="edge112_Node000004_Node000014" class="edge">
<title>Node4&#45;&gt;Node14</title>
<g id="a_edge112_Node000004_Node000014"><a xlink:title=" ">
<path fill="none" stroke="#63b8ff" d="M302.13,-438.8C301.35,-497.52 290.57,-671.95 193,-759 186.06,-765.19 177.7,-769.6 168.84,-772.7"/>
<polygon fill="#63b8ff" stroke="#63b8ff" points="305.63,-438.68 302.17,-428.66 298.63,-438.65 305.63,-438.68"/>
</a>
</g>
</g>
<!-- Node4&#45;&gt;Node15 -->
<g id="edge113_Node000004_Node000015" class="edge">
<title>Node4&#45;&gt;Node15</title>
<g id="a_edge113_Node000004_Node000015"><a xlink:title=" ">
<path fill="none" stroke="#63b8ff" d="M301.22,-438.75C297.95,-493 280.98,-645.32 193,-721 188.64,-724.75 183.76,-727.84 178.56,-730.37"/>
<polygon fill="#63b8ff" stroke="#63b8ff" points="304.72,-438.89 301.73,-428.72 297.73,-438.53 304.72,-438.89"/>
</a>
</g>
</g>
<!-- Node4&#45;&gt;Node16 -->
<g id="edge114_Node000004_Node000016" class="edge">
<title>Node4&#45;&gt;Node16</title>
<g id="a_edge114_Node000004_Node000016"><a xlink:title=" ">
<path fill="none" stroke="#63b8ff" d="M299.52,-438.55C292.4,-486.31 267.38,-609.6 193,-673 187.93,-677.32 182.18,-680.89 176.09,-683.82"/>
<polygon fill="#63b8ff" stroke="#63b8ff" points="303,-438.98 300.91,-428.59 296.06,-438.02 303,-438.98"/>
</a>
</g>
</g>
<!-- Node4&#45;&gt;Node17 -->
<g id="edge115_Node000004_Node000017" class="edge">
<title>Node4&#45;&gt;Node17</title>
<g id="a_edge115_Node000004_Node000017"><a xlink:title=" ">
<path fill="none" stroke="#63b8ff" d="M298.25,-438.57C288.88,-481.74 260.21,-585.35 193,-636 188.55,-639.35 183.67,-642.14 178.53,-644.45"/>
<polygon fill="#63b8ff" stroke="#63b8ff" points="301.68,-439.24 300.27,-428.74 294.83,-437.83 301.68,-439.24"/>
</a>
</g>
</g>
<!-- Node4&#45;&gt;Node18 -->
<g id="edge116_Node000004_Node000018" class="edge">
<title>Node4&#45;&gt;Node18</title>
<g id="a_edge116_Node000004_Node000018"><a xlink:title=" ">
<path fill="none" stroke="#63b8ff" d="M296.14,-438.53C283.76,-476.18 251.2,-558.64 193,-599 186.76,-603.33 179.76,-606.69 172.47,-609.29"/>
<polygon fill="#63b8ff" stroke="#63b8ff" points="299.55,-439.37 299.22,-428.78 292.87,-437.26 299.55,-439.37"/>
</a>
</g>
</g>
<!-- Node4&#45;&gt;Node19 -->
<g id="edge117_Node000004_Node000019" class="edge">
<title>Node4&#45;&gt;Node19</title>
<g id="a_edge117_Node000004_Node000019"><a xlink:title=" ">
<path fill="none" stroke="#63b8ff" d="M298.43,-399.1C289.2,-353.07 260.38,-238.11 193,-172 181.97,-161.17 167.57,-153.11 153.31,-147.17"/>
<polygon fill="#63b8ff" stroke="#63b8ff" points="295.01,-399.85 300.33,-409.02 301.89,-398.54 295.01,-399.85"/>
</a>
</g>
</g>
<!-- Node4&#45;&gt;Node20 -->
<g id="edge118_Node000004_Node000020" class="edge">
<title>Node4&#45;&gt;Node20</title>
<g id="a_edge118_Node000004_Node000020"><a xlink:title=" ">
<path fill="none" stroke="#63b8ff" d="M288.16,-401.62C269.05,-378.7 232.44,-338.53 193,-315 182.22,-308.57 169.95,-303.3 157.88,-299.06"/>
<polygon fill="#63b8ff" stroke="#63b8ff" points="285.56,-403.97 294.6,-409.49 290.98,-399.53 285.56,-403.97"/>
</a>
</g>
</g>
<!-- Node21&#45;&gt;Node19 -->
<g id="edge137_Node000021_Node000019" class="edge">
<title>Node21&#45;&gt;Node19</title>
<g id="a_edge137_Node000021_Node000019"><a xlink:title=" ">
<path fill="none" stroke="#63b8ff" d="M252.66,-89.98C244.74,-91.96 236.64,-94.01 229,-96 203.34,-102.67 174.97,-110.4 151.16,-116.98"/>
<polygon fill="#63b8ff" stroke="#63b8ff" points="253.69,-93.34 262.55,-87.53 252,-86.54 253.69,-93.34"/>
</a>
</g>
</g>
<!-- Node22&#45;&gt;Node19 -->
<g id="edge139_Node000022_Node000019" class="edge">
<title>Node22&#45;&gt;Node19</title>
<g id="a_edge139_Node000022_Node000019"><a xlink:title=" ">
<path fill="none" stroke="#63b8ff" d="M228.14,-121.14C210.41,-122.61 191.44,-124.19 173.61,-125.67"/>
<polygon fill="#63b8ff" stroke="#63b8ff" points="228.74,-124.6 238.42,-120.29 228.16,-117.63 228.74,-124.6"/>
</a>
</g>
</g>
</g>
</svg>
