<?xml version="1.0" encoding="UTF-8" standalone="no"?>
<!DOCTYPE svg PUBLIC "-//W3C//DTD SVG 1.1//EN"
 "http://www.w3.org/Graphics/SVG/1.1/DTD/svg11.dtd">
<!-- Generated by graphviz version 2.43.0 (0)
 -->
<!-- Title: cam.nc.iso.Creator.POLAR_ON Pages: 1 -->
<svg width="362pt" height="150pt"
 viewBox="0.00 0.00 362.00 149.50" xmlns="http://www.w3.org/2000/svg" xmlns:xlink="http://www.w3.org/1999/xlink">
<g id="graph0" class="graph" transform="scale(1 1) rotate(0) translate(4 145.5)">
<title>cam.nc.iso.Creator.POLAR_ON</title>
<!-- Node1 -->
<g id="Node000001" class="node">
<title>Node1</title>
<g id="a_Node000001"><a xlink:title=" ">
<polygon fill="#999999" stroke="#666666" points="354,-74 190,-74 190,-55 354,-55 354,-74"/>
<text text-anchor="middle" x="272" y="-62" font-family="Helvetica,sans-Serif" font-size="10.00">cam.nc.iso.Creator.POLAR_ON</text>
</a>
</g>
</g>
<!-- Node2 -->
<g id="Node000002" class="node">
<title>Node2</title>
<g id="a_Node000002"><a xlink:href="$classcam_1_1nc_1_1anilam__crusader__m_1_1Creator.html#a4fc6100666add019cc30656ea2ea2085" xlink:title=" ">
<polygon fill="white" stroke="#666666" points="145,-141.5 9,-141.5 9,-111.5 145,-111.5 145,-141.5"/>
<text text-anchor="start" x="17" y="-129.5" font-family="Helvetica,sans-Serif" font-size="10.00">cam.nc.anilam_crusader</text>
<text text-anchor="middle" x="77" y="-118.5" font-family="Helvetica,sans-Serif" font-size="10.00">_m.Creator.polar</text>
</a>
</g>
</g>
<!-- Node1&#45;&gt;Node2 -->
<g id="edge9_Node000001_Node000002" class="edge">
<title>Node1&#45;&gt;Node2</title>
<g id="a_edge9_Node000001_Node000002"><a xlink:title=" ">
<path fill="none" stroke="#63b8ff" d="M232.05,-77.24C209.31,-84.65 180.04,-94.16 154,-102.5 144.91,-105.41 135.2,-108.5 125.86,-111.45"/>
<polygon fill="#63b8ff" stroke="#63b8ff" points="233.27,-80.52 241.69,-74.09 231.1,-73.87 233.27,-80.52"/>
</a>
</g>
</g>
<!-- Node3 -->
<g id="Node000003" class="node">
<title>Node3</title>
<g id="a_Node000003"><a xlink:href="$classcam_1_1nc_1_1emc2_1_1Creator.html#a722e5ed5c70739170c7ab76f123dd805" xlink:title=" ">
<polygon fill="white" stroke="#666666" points="151,-93 3,-93 3,-74 151,-74 151,-93"/>
<text text-anchor="middle" x="77" y="-81" font-family="Helvetica,sans-Serif" font-size="10.00">cam.nc.emc2.Creator.polar</text>
</a>
</g>
</g>
<!-- Node1&#45;&gt;Node3 -->
<g id="edge10_Node000001_Node000003" class="edge">
<title>Node1&#45;&gt;Node3</title>
<g id="a_edge10_Node000001_Node000003"><a xlink:title=" ">
<path fill="none" stroke="#63b8ff" d="M179.96,-73.46C170.29,-74.41 160.55,-75.37 151.12,-76.3"/>
<polygon fill="#63b8ff" stroke="#63b8ff" points="180.38,-76.94 189.99,-72.48 179.69,-69.97 180.38,-76.94"/>
</a>
</g>
</g>
<!-- Node4 -->
<g id="Node000004" class="node">
<title>Node4</title>
<g id="a_Node000004"><a xlink:href="$classcam_1_1nc_1_1heiden_1_1Creator.html#ac5ad033b4c6d8fd4ac1491750393a7ce" xlink:title=" ">
<polygon fill="white" stroke="#666666" points="154,-56 0,-56 0,-37 154,-37 154,-56"/>
<text text-anchor="middle" x="77" y="-44" font-family="Helvetica,sans-Serif" font-size="10.00">cam.nc.heiden.Creator.polar</text>
</a>
</g>
</g>
<!-- Node1&#45;&gt;Node4 -->
<g id="edge11_Node000001_Node000004" class="edge">
<title>Node1&#45;&gt;Node4</title>
<g id="a_edge11_Node000001_Node000004"><a xlink:title=" ">
<path fill="none" stroke="#63b8ff" d="M179.92,-56.01C171.31,-55.2 162.63,-54.39 154.18,-53.6"/>
<polygon fill="#63b8ff" stroke="#63b8ff" points="179.71,-59.5 189.99,-56.94 180.36,-52.53 179.71,-59.5"/>
</a>
</g>
</g>
<!-- Node5 -->
<g id="Node000005" class="node">
<title>Node5</title>
<g id="a_Node000005"><a xlink:href="$classcam_1_1nc_1_1iso_1_1Creator.html#a0a80136128b6466bdf30e894427d6bfb" xlink:title=" ">
<polygon fill="white" stroke="#666666" points="144.5,-19 9.5,-19 9.5,0 144.5,0 144.5,-19"/>
<text text-anchor="middle" x="77" y="-7" font-family="Helvetica,sans-Serif" font-size="10.00">cam.nc.iso.Creator.polar</text>
</a>
</g>
</g>
<!-- Node1&#45;&gt;Node5 -->
<g id="edge12_Node000001_Node000005" class="edge">
<title>Node1&#45;&gt;Node5</title>
<g id="a_edge12_Node000001_Node000005"><a xlink:title=" ">
<path fill="none" stroke="#63b8ff" d="M231.72,-51.84C209.08,-44.69 180.04,-35.75 154,-28.5 142.34,-25.25 129.6,-21.96 117.94,-19.06"/>
<polygon fill="#63b8ff" stroke="#63b8ff" points="230.72,-55.19 241.31,-54.88 232.84,-48.52 230.72,-55.19"/>
</a>
</g>
</g>
</g>
</svg>
