<?xml version="1.0" encoding="UTF-8" standalone="no"?>
<!DOCTYPE svg PUBLIC "-//W3C//DTD SVG 1.1//EN"
 "http://www.w3.org/Graphics/SVG/1.1/DTD/svg11.dtd">
<!-- Generated by graphviz version 2.43.0 (0)
 -->
<!-- Title: cam.voronoi.Context.inExtent Pages: 1 -->
<svg width="362pt" height="86pt"
 viewBox="0.00 0.00 362.00 86.00" xmlns="http://www.w3.org/2000/svg" xmlns:xlink="http://www.w3.org/1999/xlink">
<g id="graph0" class="graph" transform="scale(1 1) rotate(0) translate(4 82)">
<title>cam.voronoi.Context.inExtent</title>
<!-- Node1 -->
<g id="Node000001" class="node">
<title>Node1</title>
<g id="a_Node000001"><a xlink:title=" ">
<polygon fill="#999999" stroke="#666666" points="354,-48.5 192,-48.5 192,-29.5 354,-29.5 354,-48.5"/>
<text text-anchor="middle" x="273" y="-36.5" font-family="Helvetica,sans-Serif" font-size="10.00">cam.voronoi.Context.inExtent</text>
</a>
</g>
</g>
<!-- Node2 -->
<g id="Node000002" class="node">
<title>Node2</title>
<g id="a_Node000002"><a xlink:href="$classcam_1_1voronoi_1_1Context.html#af9e1b1eec54228f9b24dbbed097de21c" xlink:title="Clip functions########.">
<polygon fill="white" stroke="#666666" points="156,-78 0,-78 0,-48 156,-48 156,-78"/>
<text text-anchor="start" x="8" y="-66" font-family="Helvetica,sans-Serif" font-size="10.00">cam.voronoi.Context.getClip</text>
<text text-anchor="middle" x="78" y="-55" font-family="Helvetica,sans-Serif" font-size="10.00">Edges</text>
</a>
</g>
</g>
<!-- Node1&#45;&gt;Node2 -->
<g id="edge5_Node000001_Node000002" class="edge">
<title>Node1&#45;&gt;Node2</title>
<g id="a_edge5_Node000001_Node000002"><a xlink:title=" ">
<path fill="none" stroke="#63b8ff" d="M185.35,-49.78C175.6,-50.99 165.71,-52.22 156.1,-53.41"/>
<polygon fill="#63b8ff" stroke="#63b8ff" points="185.95,-53.23 195.44,-48.52 185.09,-46.28 185.95,-53.23"/>
</a>
</g>
</g>
<!-- Node3 -->
<g id="Node000003" class="node">
<title>Node3</title>
<g id="a_Node000003"><a xlink:href="$classcam_1_1voronoi_1_1Context.html#a1afb06e806717af0e0b7210657473827" xlink:title=" ">
<polygon fill="white" stroke="#666666" points="156,-30 0,-30 0,0 156,0 156,-30"/>
<text text-anchor="start" x="8" y="-18" font-family="Helvetica,sans-Serif" font-size="10.00">cam.voronoi.Context.getClip</text>
<text text-anchor="middle" x="78" y="-7" font-family="Helvetica,sans-Serif" font-size="10.00">Polygons</text>
</a>
</g>
</g>
<!-- Node1&#45;&gt;Node3 -->
<g id="edge6_Node000001_Node000003" class="edge">
<title>Node1&#45;&gt;Node3</title>
<g id="a_edge6_Node000001_Node000003"><a xlink:title=" ">
<path fill="none" stroke="#63b8ff" d="M185.35,-28.22C175.6,-27.01 165.71,-25.78 156.1,-24.59"/>
<polygon fill="#63b8ff" stroke="#63b8ff" points="185.09,-31.72 195.44,-29.48 185.95,-24.77 185.09,-31.72"/>
</a>
</g>
</g>
</g>
</svg>
