<?xml version="1.0" encoding="UTF-8" standalone="no"?>
<!DOCTYPE svg PUBLIC "-//W3C//DTD SVG 1.1//EN"
 "http://www.w3.org/Graphics/SVG/1.1/DTD/svg11.dtd">
<!-- Generated by graphviz version 2.43.0 (0)
 -->
<!-- Title: cam.nc.heiden.Creator.SUBPROG_END Pages: 1 -->
<svg width="417pt" height="64pt"
 viewBox="0.00 0.00 417.00 64.00" xmlns="http://www.w3.org/2000/svg" xmlns:xlink="http://www.w3.org/1999/xlink">
<g id="graph0" class="graph" transform="scale(1 1) rotate(0) translate(4 60)">
<title>cam.nc.heiden.Creator.SUBPROG_END</title>
<!-- Node1 -->
<g id="Node000001" class="node">
<title>Node1</title>
<g id="a_Node000001"><a xlink:title=" ">
<polygon fill="#999999" stroke="#666666" points="409,-37 206,-37 206,-18 409,-18 409,-37"/>
<text text-anchor="middle" x="307.5" y="-25" font-family="Helvetica,sans-Serif" font-size="10.00">cam.nc.heiden.Creator.SUBPROG_END</text>
</a>
</g>
</g>
<!-- Node2 -->
<g id="Node000002" class="node">
<title>Node2</title>
<g id="a_Node000002"><a xlink:href="$classcam_1_1nc_1_1heiden_1_1Creator.html#aa2e0de80c4f26b122ec08a3d6d8452c7" xlink:title=" ">
<polygon fill="white" stroke="#666666" points="170,-56 0,-56 0,-37 170,-37 170,-56"/>
<text text-anchor="middle" x="85" y="-44" font-family="Helvetica,sans-Serif" font-size="10.00">cam.nc.heiden.Creator.sub_end</text>
</a>
</g>
</g>
<!-- Node1&#45;&gt;Node2 -->
<g id="edge5_Node000001_Node000002" class="edge">
<title>Node1&#45;&gt;Node2</title>
<g id="a_edge5_Node000001_Node000002"><a xlink:title=" ">
<path fill="none" stroke="#63b8ff" d="M195.84,-37.04C187.24,-37.78 178.64,-38.52 170.26,-39.24"/>
<polygon fill="#63b8ff" stroke="#63b8ff" points="196.27,-40.51 205.93,-36.17 195.67,-33.54 196.27,-40.51"/>
</a>
</g>
</g>
<!-- Node3 -->
<g id="Node000003" class="node">
<title>Node3</title>
<g id="a_Node000003"><a xlink:href="$classcam_1_1nc_1_1iso_1_1Creator.html#aa52fa25396f5339439f91854a7cc2c62" xlink:title=" ">
<polygon fill="white" stroke="#666666" points="160.5,-19 9.5,-19 9.5,0 160.5,0 160.5,-19"/>
<text text-anchor="middle" x="85" y="-7" font-family="Helvetica,sans-Serif" font-size="10.00">cam.nc.iso.Creator.sub_end</text>
</a>
</g>
</g>
<!-- Node1&#45;&gt;Node3 -->
<g id="edge6_Node000001_Node000003" class="edge">
<title>Node1&#45;&gt;Node3</title>
<g id="a_edge6_Node000001_Node000003"><a xlink:title=" ">
<path fill="none" stroke="#63b8ff" d="M195.92,-18.47C183.99,-17.5 172.06,-16.53 160.7,-15.6"/>
<polygon fill="#63b8ff" stroke="#63b8ff" points="195.68,-21.96 205.93,-19.29 196.25,-14.99 195.68,-21.96"/>
</a>
</g>
</g>
</g>
</svg>
