<?xml version="1.0" encoding="UTF-8" standalone="no"?>
<!DOCTYPE svg PUBLIC "-//W3C//DTD SVG 1.1//EN"
 "http://www.w3.org/Graphics/SVG/1.1/DTD/svg11.dtd">
<!-- Generated by graphviz version 2.43.0 (0)
 -->
<!-- Title: cam.ops.PathExportChain Pages: 1 -->
<svg width="143pt" height="187pt"
 viewBox="0.00 0.00 143.00 187.00" xmlns="http://www.w3.org/2000/svg" xmlns:xlink="http://www.w3.org/1999/xlink">
<g id="graph0" class="graph" transform="scale(1 1) rotate(0) translate(4 183)">
<title>cam.ops.PathExportChain</title>
<!-- Node1 -->
<g id="Node000001" class="node">
<title>Node1</title>
<g id="a_Node000001"><a xlink:title=" ">
<polygon fill="#999999" stroke="transparent" points="135,-94 0,-94 0,0 135,0 135,-94"/>
<text text-anchor="start" x="5.5" y="-82" font-family="Helvetica,sans-Serif" font-size="10.00">cam.ops.PathExportChain</text>
<text text-anchor="start" x="20" y="-67" font-family="Helvetica,sans-Serif" font-size="10.00">+</text>
<text text-anchor="start" x="48.5" y="-67" font-family="Helvetica,sans-Serif" font-size="10.00">bl_idname</text>
<text text-anchor="start" x="20" y="-52" font-family="Helvetica,sans-Serif" font-size="10.00">+</text>
<text text-anchor="start" x="48.5" y="-52" font-family="Helvetica,sans-Serif" font-size="10.00">bl_label</text>
<text text-anchor="start" x="20" y="-37" font-family="Helvetica,sans-Serif" font-size="10.00">+</text>
<text text-anchor="start" x="48.5" y="-37" font-family="Helvetica,sans-Serif" font-size="10.00">bl_options</text>
<text text-anchor="start" x="20" y="-22" font-family="Helvetica,sans-Serif" font-size="10.00">+</text>
<text text-anchor="start" x="48.5" y="-22" font-family="Helvetica,sans-Serif" font-size="10.00">poll()</text>
<text text-anchor="start" x="20" y="-7" font-family="Helvetica,sans-Serif" font-size="10.00">+</text>
<text text-anchor="start" x="48.5" y="-7" font-family="Helvetica,sans-Serif" font-size="10.00">execute()</text>
<polygon fill="#666666" stroke="#666666" points="0.5,-77 0.5,-77 135.5,-77 135.5,-77 0.5,-77"/>
<polygon fill="#666666" stroke="#666666" points="0.5,-32 0.5,-32 46.5,-32 46.5,-32 0.5,-32"/>
<polygon fill="#666666" stroke="#666666" points="46.5,-32 46.5,-32 135.5,-32 135.5,-32 46.5,-32"/>
<polygon fill="none" stroke="#666666" points="0,0 0,-94 135,-94 135,0 0,0"/>
</a>
</g>
</g>
<!-- Node2 -->
<g id="Node000002" class="node">
<title>Node2</title>
<g id="a_Node000002"><a xlink:title=" ">
<polygon fill="white" stroke="transparent" points="94,-179 41,-179 41,-130 94,-130 94,-179"/>
<text text-anchor="start" x="46.5" y="-166.5" font-family="Helvetica,sans-Serif" font-size="10.00">Operator</text>
<text text-anchor="start" x="66" y="-151.5" font-family="Helvetica,sans-Serif" font-size="10.00"> </text>
<text text-anchor="start" x="66" y="-136.5" font-family="Helvetica,sans-Serif" font-size="10.00"> </text>
<polygon fill="#666666" stroke="#666666" points="41.5,-161.5 41.5,-161.5 94.5,-161.5 94.5,-161.5 41.5,-161.5"/>
<polygon fill="#666666" stroke="#666666" points="41.5,-146.5 41.5,-146.5 94.5,-146.5 94.5,-146.5 41.5,-146.5"/>
<polygon fill="none" stroke="#666666" points="41,-130 41,-179 94,-179 94,-130 41,-130"/>
</a>
</g>
</g>
<!-- Node2&#45;&gt;Node1 -->
<g id="edge3_Node000001_Node000002" class="edge">
<title>Node2&#45;&gt;Node1</title>
<g id="a_edge3_Node000001_Node000002"><a xlink:title=" ">
<path fill="none" stroke="#63b8ff" d="M67.5,-119.61C67.5,-111.48 67.5,-102.66 67.5,-94.08"/>
<polygon fill="none" stroke="#63b8ff" points="64,-119.82 67.5,-129.82 71,-119.82 64,-119.82"/>
</a>
</g>
</g>
</g>
</svg>
