<?xml version="1.0" encoding="UTF-8" standalone="no"?>
<!DOCTYPE svg PUBLIC "-//W3C//DTD SVG 1.1//EN"
 "http://www.w3.org/Graphics/SVG/1.1/DTD/svg11.dtd">
<!-- Generated by graphviz version 2.43.0 (0)
 -->
<!-- Title: cam.slice.SliceObjectsSettings Pages: 1 -->
<svg width="316pt" height="175pt"
 viewBox="0.00 0.00 315.50 175.00" xmlns="http://www.w3.org/2000/svg" xmlns:xlink="http://www.w3.org/1999/xlink">
<g id="graph0" class="graph" transform="scale(1 1) rotate(0) translate(4 171)">
<title>cam.slice.SliceObjectsSettings</title>
<!-- Node1 -->
<g id="Node000001" class="node">
<title>Node1</title>
<g id="a_Node000001"><a xlink:title=" ">
<polygon fill="#999999" stroke="transparent" points="217.5,-49 57.5,-49 57.5,0 217.5,0 217.5,-49"/>
<text text-anchor="start" x="62.5" y="-36.5" font-family="Helvetica,sans-Serif" font-size="10.00">cam.slice.SliceObjectsSettings</text>
<text text-anchor="start" x="135.5" y="-21.5" font-family="Helvetica,sans-Serif" font-size="10.00"> </text>
<text text-anchor="start" x="135.5" y="-6.5" font-family="Helvetica,sans-Serif" font-size="10.00"> </text>
<polygon fill="#666666" stroke="#666666" points="57.5,-31.5 57.5,-31.5 217.5,-31.5 217.5,-31.5 57.5,-31.5"/>
<polygon fill="#666666" stroke="#666666" points="57.5,-16.5 57.5,-16.5 217.5,-16.5 217.5,-16.5 57.5,-16.5"/>
<polygon fill="none" stroke="#666666" points="57.5,0 57.5,-49 217.5,-49 217.5,0 57.5,0"/>
</a>
</g>
</g>
<!-- Node2 -->
<g id="Node000002" class="node">
<title>Node2</title>
<g id="a_Node000002"><a xlink:title=" ">
<polygon fill="white" stroke="transparent" points="81,-167 0,-167 0,-118 81,-118 81,-167"/>
<text text-anchor="start" x="5.5" y="-154.5" font-family="Helvetica,sans-Serif" font-size="10.00">PropertyGroup</text>
<text text-anchor="start" x="39" y="-139.5" font-family="Helvetica,sans-Serif" font-size="10.00"> </text>
<text text-anchor="start" x="39" y="-124.5" font-family="Helvetica,sans-Serif" font-size="10.00"> </text>
<polygon fill="#666666" stroke="#666666" points="0.5,-149.5 0.5,-149.5 81.5,-149.5 81.5,-149.5 0.5,-149.5"/>
<polygon fill="#666666" stroke="#666666" points="0.5,-134.5 0.5,-134.5 81.5,-134.5 81.5,-134.5 0.5,-134.5"/>
<polygon fill="none" stroke="#666666" points="0,-118 0,-167 81,-167 81,-118 0,-118"/>
</a>
</g>
</g>
<!-- Node2&#45;&gt;Node1 -->
<g id="edge7_Node000001_Node000002" class="edge">
<title>Node2&#45;&gt;Node1</title>
<g id="a_edge7_Node000001_Node000002"><a xlink:title=" ">
<path fill="none" stroke="#63b8ff" d="M66.95,-109.87C82.95,-90.74 103.02,-66.73 117.66,-49.22"/>
<polygon fill="none" stroke="#63b8ff" points="64.09,-107.83 60.36,-117.75 69.46,-112.32 64.09,-107.83"/>
</a>
</g>
</g>
<!-- Node3 -->
<g id="Node000003" class="node">
<title>Node3</title>
<g id="a_Node000003"><a xlink:title=" ">
<polygon fill="white" stroke="transparent" points="176,-167 99,-167 99,-118 176,-118 176,-167"/>
<text text-anchor="start" x="104.5" y="-154.5" font-family="Helvetica,sans-Serif" font-size="10.00">FloatProperty</text>
<text text-anchor="start" x="136" y="-139.5" font-family="Helvetica,sans-Serif" font-size="10.00"> </text>
<text text-anchor="start" x="136" y="-124.5" font-family="Helvetica,sans-Serif" font-size="10.00"> </text>
<polygon fill="#666666" stroke="#666666" points="99.5,-149.5 99.5,-149.5 176.5,-149.5 176.5,-149.5 99.5,-149.5"/>
<polygon fill="#666666" stroke="#666666" points="99.5,-134.5 99.5,-134.5 176.5,-134.5 176.5,-134.5 99.5,-134.5"/>
<polygon fill="none" stroke="#666666" points="99,-118 99,-167 176,-167 176,-118 99,-118"/>
</a>
</g>
</g>
<!-- Node3&#45;&gt;Node1 -->
<g id="edge8_Node000001_Node000003" class="edge">
<title>Node3&#45;&gt;Node1</title>
<g id="a_edge8_Node000001_Node000003"><a xlink:title=" ">
<path fill="none" stroke="#63b8ff" d="M137.5,-117.75C137.5,-101.48 137.5,-79.62 137.5,-61.26"/>
<polygon fill="none" stroke="#63b8ff" points="137.5,-61.22 133.5,-55.22 137.5,-49.22 141.5,-55.22 137.5,-61.22"/>
</a>
</g>
<text text-anchor="middle" x="178" y="-81" font-family="Helvetica,sans-Serif" font-size="10.00" fill="grey"> +slice_distance</text>
</g>
<!-- Node4 -->
<g id="Node000004" class="node">
<title>Node4</title>
<g id="a_Node000004"><a xlink:title=" ">
<polygon fill="white" stroke="transparent" points="278.5,-167 204.5,-167 204.5,-118 278.5,-118 278.5,-167"/>
<text text-anchor="start" x="209.5" y="-154.5" font-family="Helvetica,sans-Serif" font-size="10.00">BoolProperty</text>
<text text-anchor="start" x="239.5" y="-139.5" font-family="Helvetica,sans-Serif" font-size="10.00"> </text>
<text text-anchor="start" x="239.5" y="-124.5" font-family="Helvetica,sans-Serif" font-size="10.00"> </text>
<polygon fill="#666666" stroke="#666666" points="204.5,-149.5 204.5,-149.5 278.5,-149.5 278.5,-149.5 204.5,-149.5"/>
<polygon fill="#666666" stroke="#666666" points="204.5,-134.5 204.5,-134.5 278.5,-134.5 278.5,-134.5 204.5,-134.5"/>
<polygon fill="none" stroke="#666666" points="204.5,-118 204.5,-167 278.5,-167 278.5,-118 204.5,-118"/>
</a>
</g>
</g>
<!-- Node4&#45;&gt;Node1 -->
<g id="edge9_Node000001_Node000004" class="edge">
<title>Node4&#45;&gt;Node1</title>
<g id="a_edge9_Node000001_Node000004"><a xlink:title=" ">
<path fill="none" stroke="#63b8ff" d="M239.38,-117.72C236.88,-101.83 231.41,-81.3 219.5,-67 216.23,-63.07 212.48,-59.47 208.45,-56.19"/>
<polygon fill="none" stroke="#63b8ff" points="208.3,-56.09 201.1,-55.83 198.56,-49.08 205.77,-49.33 208.3,-56.09"/>
</a>
</g>
<text text-anchor="middle" x="271" y="-92" font-family="Helvetica,sans-Serif" font-size="10.00" fill="grey"> +indexes</text>
<text text-anchor="middle" x="271" y="-81" font-family="Helvetica,sans-Serif" font-size="10.00" fill="grey">+slice_3d</text>
<text text-anchor="middle" x="271" y="-70" font-family="Helvetica,sans-Serif" font-size="10.00" fill="grey">+slice_above0</text>
</g>
</g>
</svg>
