<?xml version="1.0" encoding="UTF-8" standalone="no"?>
<!DOCTYPE svg PUBLIC "-//W3C//DTD SVG 1.1//EN"
 "http://www.w3.org/Graphics/SVG/1.1/DTD/svg11.dtd">
<!-- Generated by graphviz version 2.43.0 (0)
 -->
<!-- Title: cam.nc.heiden530.Creator.write_blocknum Pages: 1 -->
<svg width="1293pt" height="716pt"
 viewBox="0.00 0.00 1293.00 715.50" xmlns="http://www.w3.org/2000/svg" xmlns:xlink="http://www.w3.org/1999/xlink">
<g id="graph0" class="graph" transform="scale(1 1) rotate(0) translate(4 711.5)">
<title>cam.nc.heiden530.Creator.write_blocknum</title>
<!-- Node1 -->
<g id="Node000001" class="node">
<title>Node1</title>
<g id="a_Node000001"><a xlink:title="Internals.">
<polygon fill="#999999" stroke="#666666" points="172,-391 0,-391 0,-361 172,-361 172,-391"/>
<text text-anchor="start" x="8" y="-379" font-family="Helvetica,sans-Serif" font-size="10.00">cam.nc.heiden530.Creator.write</text>
<text text-anchor="middle" x="86" y="-368" font-family="Helvetica,sans-Serif" font-size="10.00">_blocknum</text>
</a>
</g>
</g>
<!-- Node2 -->
<g id="Node000002" class="node">
<title>Node2</title>
<g id="a_Node000002"><a xlink:href="$classcam_1_1nc_1_1heiden_1_1Creator.html#a72e449fd53d533eb89fc3d63eba2a9a6" xlink:title=" ">
<polygon fill="white" stroke="#666666" points="388.5,-649.5 226.5,-649.5 226.5,-630.5 388.5,-630.5 388.5,-649.5"/>
<text text-anchor="middle" x="307.5" y="-637.5" font-family="Helvetica,sans-Serif" font-size="10.00">cam.nc.heiden.Creator.BLOCK</text>
</a>
</g>
</g>
<!-- Node1&#45;&gt;Node2 -->
<g id="edge95_Node000001_Node000002" class="edge">
<title>Node1&#45;&gt;Node2</title>
<g id="a_edge95_Node000001_Node000002"><a xlink:title=" ">
<path fill="none" stroke="#63b8ff" d="M89.64,-391.04C98.1,-434.43 128.77,-560.61 208,-621 210.86,-623.18 213.89,-625.13 217.06,-626.87"/>
<polygon fill="#63b8ff" stroke="#63b8ff" points="215.76,-630.13 226.3,-631.27 218.77,-623.81 215.76,-630.13"/>
</a>
</g>
</g>
<!-- Node3 -->
<g id="Node000003" class="node">
<title>Node3</title>
<g id="a_Node000003"><a xlink:href="$classcam_1_1nc_1_1heiden530_1_1Creator.html#a05fcab69c5e00fc619675606acdfa7c7" xlink:title=" ">
<polygon fill="white" stroke="#666666" points="381,-612 234,-612 234,-582 381,-582 381,-612"/>
<text text-anchor="start" x="242" y="-600" font-family="Helvetica,sans-Serif" font-size="10.00">cam.nc.heiden530.Creator.</text>
<text text-anchor="middle" x="307.5" y="-589" font-family="Helvetica,sans-Serif" font-size="10.00">BLOCK</text>
</a>
</g>
</g>
<!-- Node1&#45;&gt;Node3 -->
<g id="edge96_Node000001_Node000003" class="edge">
<title>Node1&#45;&gt;Node3</title>
<g id="a_edge96_Node000001_Node000003"><a xlink:title=" ">
<path fill="none" stroke="#63b8ff" d="M91.76,-391.12C104.28,-428.32 141.81,-524.79 208,-573 213.09,-576.71 218.68,-579.85 224.53,-582.5"/>
<polygon fill="#63b8ff" stroke="#63b8ff" points="223.32,-585.79 233.9,-586.3 225.95,-579.3 223.32,-585.79"/>
</a>
</g>
</g>
<!-- Node4 -->
<g id="Node000004" class="node">
<title>Node4</title>
<g id="a_Node000004"><a xlink:href="$classcam_1_1nc_1_1iso_1_1Creator.html#ae67567ecef76b98ad307b79c3eac86c2" xlink:title=" ">
<polygon fill="white" stroke="#666666" points="379,-563.5 236,-563.5 236,-544.5 379,-544.5 379,-563.5"/>
<text text-anchor="middle" x="307.5" y="-551.5" font-family="Helvetica,sans-Serif" font-size="10.00">cam.nc.iso.Creator.BLOCK</text>
</a>
</g>
</g>
<!-- Node1&#45;&gt;Node4 -->
<g id="edge97_Node000001_Node000004" class="edge">
<title>Node1&#45;&gt;Node4</title>
<g id="a_edge97_Node000001_Node000004"><a xlink:title=" ">
<path fill="none" stroke="#63b8ff" d="M93.83,-391.21C109.17,-423.47 149.64,-498.78 208,-535 213.67,-538.52 219.84,-541.41 226.25,-543.78"/>
<polygon fill="#63b8ff" stroke="#63b8ff" points="225.17,-547.11 235.77,-546.9 227.35,-540.46 225.17,-547.11"/>
</a>
</g>
</g>
<!-- Node5 -->
<g id="Node000005" class="node">
<title>Node5</title>
<g id="a_Node000005"><a xlink:href="$classcam_1_1nc_1_1makerbot__codes_1_1Codes.html#ae47b3cf0c2cb47c66882055d656de521" xlink:title=" ">
<polygon fill="white" stroke="#666666" points="393,-526 222,-526 222,-496 393,-496 393,-526"/>
<text text-anchor="start" x="230" y="-514" font-family="Helvetica,sans-Serif" font-size="10.00">cam.nc.makerbot_codes.Codes.</text>
<text text-anchor="middle" x="307.5" y="-503" font-family="Helvetica,sans-Serif" font-size="10.00">BLOCK</text>
</a>
</g>
</g>
<!-- Node1&#45;&gt;Node5 -->
<g id="edge98_Node000001_Node000005" class="edge">
<title>Node1&#45;&gt;Node5</title>
<g id="a_edge98_Node000001_Node000005"><a xlink:title=" ">
<path fill="none" stroke="#63b8ff" d="M99.03,-391.14C119.01,-415.25 161.48,-462.15 208,-487 211.52,-488.88 215.2,-490.62 218.96,-492.22"/>
<polygon fill="#63b8ff" stroke="#63b8ff" points="217.91,-495.57 228.5,-495.94 220.45,-489.04 217.91,-495.57"/>
</a>
</g>
</g>
<!-- Node23 -->
<g id="Node000023" class="node">
<title>Node23</title>
<g id="a_Node000023"><a xlink:href="$classcam_1_1nc_1_1cad__nc__read_1_1Parser.html#adcf2f47949df29f187f27fe985884633" xlink:title=" ">
<polygon fill="white" stroke="#666666" points="395.5,-459.5 219.5,-459.5 219.5,-440.5 395.5,-440.5 395.5,-459.5"/>
<text text-anchor="middle" x="307.5" y="-447.5" font-family="Helvetica,sans-Serif" font-size="10.00">cam.nc.cad_nc_read.Parser.write</text>
</a>
</g>
</g>
<!-- Node1&#45;&gt;Node23 -->
<g id="edge116_Node000001_Node000023" class="edge">
<title>Node1&#45;&gt;Node23</title>
<g id="a_edge116_Node000001_Node000023"><a xlink:title=" ">
<path fill="none" stroke="#63b8ff" d="M114.55,-391.2C138.57,-403.85 174.68,-421.43 208,-432 215.46,-434.36 223.34,-436.45 231.26,-438.29"/>
<polygon fill="#63b8ff" stroke="#63b8ff" points="230.77,-441.77 241.29,-440.49 232.27,-434.93 230.77,-441.77"/>
</a>
</g>
</g>
<!-- Node24 -->
<g id="Node000024" class="node">
<title>Node24</title>
<g id="a_Node000024"><a xlink:href="$classcam_1_1nc_1_1hxml__writer_1_1HxmlWriter.html#aed6f93c98cb8c0e3f3e826e75b6d6f15" xlink:title=" ">
<polygon fill="white" stroke="#666666" points="407,-404.5 208,-404.5 208,-385.5 407,-385.5 407,-404.5"/>
<text text-anchor="middle" x="307.5" y="-392.5" font-family="Helvetica,sans-Serif" font-size="10.00">cam.nc.hxml_writer.HxmlWriter.write</text>
</a>
</g>
</g>
<!-- Node1&#45;&gt;Node24 -->
<g id="edge118_Node000001_Node000024" class="edge">
<title>Node1&#45;&gt;Node24</title>
<g id="a_edge118_Node000001_Node000024"><a xlink:title=" ">
<path fill="none" stroke="#63b8ff" d="M172.18,-383.37C180.58,-384.1 189.18,-384.85 197.78,-385.59"/>
<polygon fill="#63b8ff" stroke="#63b8ff" points="197.59,-389.09 207.85,-386.46 198.19,-382.11 197.59,-389.09"/>
</a>
</g>
</g>
<!-- Node25 -->
<g id="Node000025" class="node">
<title>Node25</title>
<g id="a_Node000025"><a xlink:href="$classcam_1_1nc_1_1iso_1_1Creator.html#abb81af5a0bdddfed387b71b68a51cc7a" xlink:title="Internals.">
<polygon fill="white" stroke="#666666" points="375,-367.5 240,-367.5 240,-348.5 375,-348.5 375,-367.5"/>
<text text-anchor="middle" x="307.5" y="-355.5" font-family="Helvetica,sans-Serif" font-size="10.00">cam.nc.iso.Creator.write</text>
</a>
</g>
</g>
<!-- Node1&#45;&gt;Node25 -->
<g id="edge120_Node000001_Node000025" class="edge">
<title>Node1&#45;&gt;Node25</title>
<g id="a_edge120_Node000001_Node000025"><a xlink:title=" ">
<path fill="none" stroke="#63b8ff" d="M172.18,-369.01C191.09,-367.46 211.03,-365.83 229.59,-364.31"/>
<polygon fill="#63b8ff" stroke="#63b8ff" points="230.06,-367.78 239.74,-363.47 229.49,-360.8 230.06,-367.78"/>
</a>
</g>
</g>
<!-- Node26 -->
<g id="Node000026" class="node">
<title>Node26</title>
<g id="a_Node000026"><a xlink:href="$classcam_1_1nc_1_1nc_1_1Creator.html#a80f2134add83bfaaf2870d075d36ed8a" xlink:title=" ">
<polygon fill="white" stroke="#666666" points="373.5,-312.5 241.5,-312.5 241.5,-293.5 373.5,-293.5 373.5,-312.5"/>
<text text-anchor="middle" x="307.5" y="-300.5" font-family="Helvetica,sans-Serif" font-size="10.00">cam.nc.nc.Creator.write</text>
</a>
</g>
</g>
<!-- Node1&#45;&gt;Node26 -->
<g id="edge121_Node000001_Node000026" class="edge">
<title>Node1&#45;&gt;Node26</title>
<g id="a_edge121_Node000001_Node000026"><a xlink:title=" ">
<path fill="none" stroke="#63b8ff" d="M132.21,-360.96C172.31,-347.63 230.22,-328.37 268.1,-315.77"/>
<polygon fill="#63b8ff" stroke="#63b8ff" points="269.37,-319.04 277.75,-312.56 267.16,-312.4 269.37,-319.04"/>
</a>
</g>
</g>
<!-- Node27 -->
<g id="Node000027" class="node">
<title>Node27</title>
<g id="a_Node000027"><a xlink:href="$classcam_1_1nc_1_1nclathe__read_1_1Parser.html#ab5ea283b461b57e48c8d5b0ad0a45694" xlink:title=" ">
<polygon fill="white" stroke="#666666" points="396.5,-257.5 218.5,-257.5 218.5,-238.5 396.5,-238.5 396.5,-257.5"/>
<text text-anchor="middle" x="307.5" y="-245.5" font-family="Helvetica,sans-Serif" font-size="10.00">cam.nc.nclathe_read.Parser.write</text>
</a>
</g>
</g>
<!-- Node1&#45;&gt;Node27 -->
<g id="edge123_Node000001_Node000027" class="edge">
<title>Node1&#45;&gt;Node27</title>
<g id="a_edge123_Node000001_Node000027"><a xlink:title=" ">
<path fill="none" stroke="#63b8ff" d="M103.95,-360.75C126.42,-341.14 167.91,-307.01 208,-285 225.7,-275.28 246.48,-267.06 264.38,-260.85"/>
<polygon fill="#63b8ff" stroke="#63b8ff" points="265.63,-264.12 273.98,-257.61 263.39,-257.49 265.63,-264.12"/>
</a>
</g>
</g>
<!-- Node28 -->
<g id="Node000028" class="node">
<title>Node28</title>
<g id="a_Node000028"><a xlink:href="$classcam_1_1nc_1_1recreator_1_1Redirector.html#a79cc974683588db3ef959189e7552c0d" xlink:title="Programs.">
<polygon fill="white" stroke="#666666" points="397,-202.5 218,-202.5 218,-183.5 397,-183.5 397,-202.5"/>
<text text-anchor="middle" x="307.5" y="-190.5" font-family="Helvetica,sans-Serif" font-size="10.00">cam.nc.recreator.Redirector.write</text>
</a>
</g>
</g>
<!-- Node1&#45;&gt;Node28 -->
<g id="edge125_Node000001_Node000028" class="edge">
<title>Node1&#45;&gt;Node28</title>
<g id="a_edge125_Node000001_Node000028"><a xlink:title=" ">
<path fill="none" stroke="#63b8ff" d="M95.7,-360.98C113.32,-331.8 155.99,-267.06 208,-230 222.8,-219.46 240.97,-211.52 257.66,-205.76"/>
<polygon fill="#63b8ff" stroke="#63b8ff" points="258.86,-209.05 267.28,-202.61 256.68,-202.39 258.86,-209.05"/>
</a>
</g>
</g>
<!-- Node29 -->
<g id="Node000029" class="node">
<title>Node29</title>
<g id="a_Node000029"><a xlink:href="$classcam_1_1nc_1_1format_1_1Address.html#aa21f0ffeb829537d9103759276c01a4b" xlink:title=" ">
<polygon fill="white" stroke="#666666" points="386.5,-165.5 228.5,-165.5 228.5,-146.5 386.5,-146.5 386.5,-165.5"/>
<text text-anchor="middle" x="307.5" y="-153.5" font-family="Helvetica,sans-Serif" font-size="10.00">cam.nc.format.Address.write</text>
</a>
</g>
</g>
<!-- Node1&#45;&gt;Node29 -->
<g id="edge127_Node000001_Node000029" class="edge">
<title>Node1&#45;&gt;Node29</title>
<g id="a_edge127_Node000001_Node000029"><a xlink:title=" ">
<path fill="none" stroke="#63b8ff" d="M91.34,-360.94C103.13,-322.94 139.55,-222.82 208,-175 211.36,-172.65 214.93,-170.58 218.65,-168.75"/>
<polygon fill="#63b8ff" stroke="#63b8ff" points="220.35,-171.83 228.15,-164.67 217.58,-165.39 220.35,-171.83"/>
</a>
</g>
</g>
<!-- Node40 -->
<g id="Node000040" class="node">
<title>Node40</title>
<g id="a_Node000040"><a xlink:href="$classcam_1_1nc_1_1format_1_1AddressPlusMinus.html#aaacea4c7b677f0a602dbc9023ff365d2" xlink:title=" ">
<polygon fill="white" stroke="#666666" points="382.5,-128 232.5,-128 232.5,-98 382.5,-98 382.5,-128"/>
<text text-anchor="start" x="240.5" y="-116" font-family="Helvetica,sans-Serif" font-size="10.00">cam.nc.format.AddressPlus</text>
<text text-anchor="middle" x="307.5" y="-105" font-family="Helvetica,sans-Serif" font-size="10.00">Minus.write</text>
</a>
</g>
</g>
<!-- Node1&#45;&gt;Node40 -->
<g id="edge140_Node000001_Node000040" class="edge">
<title>Node1&#45;&gt;Node40</title>
<g id="a_edge140_Node000001_Node000040"><a xlink:title=" ">
<path fill="none" stroke="#63b8ff" d="M90.04,-360.9C99.39,-318.48 131.85,-197.4 208,-137 212.64,-133.32 217.76,-130.19 223.15,-127.54"/>
<polygon fill="#63b8ff" stroke="#63b8ff" points="224.67,-130.69 232.45,-123.5 221.89,-124.27 224.67,-130.69"/>
</a>
</g>
</g>
<!-- Node6 -->
<g id="Node000006" class="node">
<title>Node6</title>
<g id="a_Node000006"><a xlink:href="$classcam_1_1nc_1_1emc2_1_1Creator.html#a47a9e4f5f35681f580765bba2f0f97a5" xlink:title=" ">
<polygon fill="white" stroke="#666666" points="605.5,-707.5 451.5,-707.5 451.5,-688.5 605.5,-688.5 605.5,-707.5"/>
<text text-anchor="middle" x="528.5" y="-695.5" font-family="Helvetica,sans-Serif" font-size="10.00">cam.nc.emc2.Creator.SPACE</text>
</a>
</g>
</g>
<!-- Node5&#45;&gt;Node6 -->
<g id="edge99_Node000005_Node000006" class="edge">
<title>Node5&#45;&gt;Node6</title>
<g id="a_edge99_Node000005_Node000006"><a xlink:title=" ">
<path fill="none" stroke="#63b8ff" d="M393.16,-525.47C398.2,-528.4 402.89,-531.88 407,-536 453.56,-582.73 395.54,-634.18 443,-680 443.97,-680.94 444.98,-681.83 446.02,-682.68"/>
<polygon fill="#63b8ff" stroke="#63b8ff" points="444.31,-685.75 454.56,-688.43 448.22,-679.95 444.31,-685.75"/>
</a>
</g>
</g>
<!-- Node7 -->
<g id="Node000007" class="node">
<title>Node7</title>
<g id="a_Node000007"><a xlink:href="$classcam_1_1nc_1_1emc2b_1_1Creator.html#abff5586e78bb91681bd41dafdea5a9e7" xlink:title=" ">
<polygon fill="white" stroke="#666666" points="608.5,-670.5 448.5,-670.5 448.5,-651.5 608.5,-651.5 608.5,-670.5"/>
<text text-anchor="middle" x="528.5" y="-658.5" font-family="Helvetica,sans-Serif" font-size="10.00">cam.nc.emc2b.Creator.SPACE</text>
</a>
</g>
</g>
<!-- Node5&#45;&gt;Node7 -->
<g id="edge100_Node000005_Node000007" class="edge">
<title>Node5&#45;&gt;Node7</title>
<g id="a_edge100_Node000005_Node000007"><a xlink:title=" ">
<path fill="none" stroke="#63b8ff" d="M393.24,-526.12C398.2,-528.9 402.85,-532.17 407,-536 443.54,-569.77 406,-608.74 443,-642 444.73,-643.55 446.55,-644.99 448.46,-646.31"/>
<polygon fill="#63b8ff" stroke="#63b8ff" points="446.87,-649.44 457.28,-651.44 450.39,-643.39 446.87,-649.44"/>
</a>
</g>
</g>
<!-- Node8 -->
<g id="Node000008" class="node">
<title>Node8</title>
<g id="a_Node000008"><a xlink:href="$classcam_1_1nc_1_1emc2tap_1_1CodesEMC2.html#a6a0d71a1c6e9f8a80228dc220a0e57ca" xlink:title=" ">
<polygon fill="white" stroke="#666666" points="609,-633 448,-633 448,-603 609,-603 609,-633"/>
<text text-anchor="start" x="456" y="-621" font-family="Helvetica,sans-Serif" font-size="10.00">cam.nc.emc2tap.CodesEMC2.</text>
<text text-anchor="middle" x="528.5" y="-610" font-family="Helvetica,sans-Serif" font-size="10.00">SPACE</text>
</a>
</g>
</g>
<!-- Node5&#45;&gt;Node8 -->
<g id="edge101_Node000005_Node000008" class="edge">
<title>Node5&#45;&gt;Node8</title>
<g id="a_edge101_Node000005_Node000008"><a xlink:title=" ">
<path fill="none" stroke="#63b8ff" d="M389.86,-526.12C395.93,-528.88 401.73,-532.14 407,-536 431.48,-553.92 418.77,-575.74 443,-594 444.83,-595.38 446.74,-596.68 448.71,-597.91"/>
<polygon fill="#63b8ff" stroke="#63b8ff" points="447.22,-601.09 457.68,-602.82 450.59,-594.95 447.22,-601.09"/>
</a>
</g>
</g>
<!-- Node9 -->
<g id="Node000009" class="node">
<title>Node9</title>
<g id="a_Node000009"><a xlink:href="$classcam_1_1nc_1_1heiden_1_1Creator.html#a2c4277ffddaea0f92c906c6744f7a3bd" xlink:title="Codes.">
<polygon fill="white" stroke="#666666" points="608.5,-584.5 448.5,-584.5 448.5,-565.5 608.5,-565.5 608.5,-584.5"/>
<text text-anchor="middle" x="528.5" y="-572.5" font-family="Helvetica,sans-Serif" font-size="10.00">cam.nc.heiden.Creator.SPACE</text>
</a>
</g>
</g>
<!-- Node5&#45;&gt;Node9 -->
<g id="edge102_Node000005_Node000009" class="edge">
<title>Node5&#45;&gt;Node9</title>
<g id="a_edge102_Node000005_Node000009"><a xlink:title=" ">
<path fill="none" stroke="#63b8ff" d="M377.32,-526.03C387.41,-528.94 397.57,-532.26 407,-536 424.01,-542.75 425.9,-549.48 443,-556 449.76,-558.58 456.97,-560.86 464.21,-562.86"/>
<polygon fill="#63b8ff" stroke="#63b8ff" points="463.52,-566.3 474.07,-565.42 465.28,-559.52 463.52,-566.3"/>
</a>
</g>
</g>
<!-- Node10 -->
<g id="Node000010" class="node">
<title>Node10</title>
<g id="a_Node000010"><a xlink:href="$classcam_1_1nc_1_1heiden530_1_1Creator.html#aa64b19b0edc2ac1f2d568b09ca2aebcb" xlink:title="Codes.">
<polygon fill="white" stroke="#666666" points="602,-547 455,-547 455,-517 602,-517 602,-547"/>
<text text-anchor="start" x="463" y="-535" font-family="Helvetica,sans-Serif" font-size="10.00">cam.nc.heiden530.Creator.</text>
<text text-anchor="middle" x="528.5" y="-524" font-family="Helvetica,sans-Serif" font-size="10.00">SPACE</text>
</a>
</g>
</g>
<!-- Node5&#45;&gt;Node10 -->
<g id="edge103_Node000005_Node000010" class="edge">
<title>Node5&#45;&gt;Node10</title>
<g id="a_edge103_Node000005_Node000010"><a xlink:title=" ">
<path fill="none" stroke="#63b8ff" d="M393.17,-519.12C410.02,-520.73 427.69,-522.43 444.48,-524.04"/>
<polygon fill="#63b8ff" stroke="#63b8ff" points="444.51,-527.56 454.8,-525.03 445.18,-520.59 444.51,-527.56"/>
</a>
</g>
</g>
<!-- Node11 -->
<g id="Node000011" class="node">
<title>Node11</title>
<g id="a_Node000011"><a xlink:href="$classcam_1_1nc_1_1iso_1_1Creator.html#a79463d437baaaf23c828a2c9e62393f3" xlink:title=" ">
<polygon fill="white" stroke="#666666" points="599,-498.5 458,-498.5 458,-479.5 599,-479.5 599,-498.5"/>
<text text-anchor="middle" x="528.5" y="-486.5" font-family="Helvetica,sans-Serif" font-size="10.00">cam.nc.iso.Creator.SPACE</text>
</a>
</g>
</g>
<!-- Node5&#45;&gt;Node11 -->
<g id="edge104_Node000005_Node000011" class="edge">
<title>Node5&#45;&gt;Node11</title>
<g id="a_edge104_Node000005_Node000011"><a xlink:title=" ">
<path fill="none" stroke="#63b8ff" d="M393.17,-502.49C411.08,-500.7 429.93,-498.8 447.65,-497.02"/>
<polygon fill="#63b8ff" stroke="#63b8ff" points="448.34,-500.47 457.94,-495.99 447.64,-493.5 448.34,-500.47"/>
</a>
</g>
</g>
<!-- Node19 -->
<g id="Node000019" class="node">
<title>Node19</title>
<g id="a_Node000019"><a xlink:href="$classcam_1_1nc_1_1makerbot__codes_1_1Codes.html#a497077e0e500cc8f419b8f3f61f008b4" xlink:title=" ">
<polygon fill="white" stroke="#666666" points="614,-461 443,-461 443,-431 614,-431 614,-461"/>
<text text-anchor="start" x="451" y="-449" font-family="Helvetica,sans-Serif" font-size="10.00">cam.nc.makerbot_codes.Codes.</text>
<text text-anchor="middle" x="528.5" y="-438" font-family="Helvetica,sans-Serif" font-size="10.00">SPACE</text>
</a>
</g>
</g>
<!-- Node5&#45;&gt;Node19 -->
<g id="edge112_Node000005_Node000019" class="edge">
<title>Node5&#45;&gt;Node19</title>
<g id="a_edge112_Node000005_Node000019"><a xlink:title=" ">
<path fill="none" stroke="#63b8ff" d="M377.05,-495.98C387.18,-493.28 397.42,-490.27 407,-487 423.57,-481.35 426.57,-477.05 443,-471 449.37,-468.66 456.06,-466.37 462.78,-464.2"/>
<polygon fill="#63b8ff" stroke="#63b8ff" points="464.12,-467.45 472.61,-461.1 462.02,-460.77 464.12,-467.45"/>
</a>
</g>
</g>
<!-- Node20 -->
<g id="Node000020" class="node">
<title>Node20</title>
<g id="a_Node000020"><a xlink:href="$classcam_1_1nc_1_1series1_1_1Creator.html#a75918d23eef609baab85058fda3050d5" xlink:title=" ">
<polygon fill="white" stroke="#666666" points="609.5,-412.5 447.5,-412.5 447.5,-393.5 609.5,-393.5 609.5,-412.5"/>
<text text-anchor="middle" x="528.5" y="-400.5" font-family="Helvetica,sans-Serif" font-size="10.00">cam.nc.series1.Creator.SPACE</text>
</a>
</g>
</g>
<!-- Node5&#45;&gt;Node20 -->
<g id="edge113_Node000005_Node000020" class="edge">
<title>Node5&#45;&gt;Node20</title>
<g id="a_edge113_Node000005_Node000020"><a xlink:title=" ">
<path fill="none" stroke="#63b8ff" d="M392.48,-495.88C397.63,-493.36 402.52,-490.42 407,-487 433.25,-466.96 416.57,-441.8 443,-422 445.51,-420.12 448.16,-418.42 450.93,-416.89"/>
<polygon fill="#63b8ff" stroke="#63b8ff" points="452.58,-419.98 460.1,-412.52 449.56,-413.66 452.58,-419.98"/>
</a>
</g>
</g>
<!-- Node21 -->
<g id="Node000021" class="node">
<title>Node21</title>
<g id="a_Node000021"><a xlink:href="$classcam_1_1nc_1_1shopbot__mtc_1_1Creator.html#a1512dbb5d0140eb216ed709a542261ac" xlink:title="Codes.">
<polygon fill="white" stroke="#666666" points="608,-375 449,-375 449,-345 608,-345 608,-375"/>
<text text-anchor="start" x="457" y="-363" font-family="Helvetica,sans-Serif" font-size="10.00">cam.nc.shopbot_mtc.Creator.</text>
<text text-anchor="middle" x="528.5" y="-352" font-family="Helvetica,sans-Serif" font-size="10.00">SPACE</text>
</a>
</g>
</g>
<!-- Node5&#45;&gt;Node21 -->
<g id="edge114_Node000005_Node000021" class="edge">
<title>Node5&#45;&gt;Node21</title>
<g id="a_edge114_Node000005_Node000021"><a xlink:title=" ">
<path fill="none" stroke="#63b8ff" d="M393.17,-496.71C398.15,-493.99 402.82,-490.78 407,-487 442.65,-454.75 408.14,-418.1 443,-385 444.67,-383.42 446.43,-381.93 448.27,-380.54"/>
<polygon fill="#63b8ff" stroke="#63b8ff" points="450.3,-383.4 456.8,-375.03 446.5,-377.52 450.3,-383.4"/>
</a>
</g>
</g>
<!-- Node22 -->
<g id="Node000022" class="node">
<title>Node22</title>
<g id="a_Node000022"><a xlink:href="$classcam_1_1nc_1_1tnc151_1_1Creator.html#af5d9e50b2ff0e73cd7524e2145d55d76" xlink:title=" ">
<polygon fill="white" stroke="#666666" points="608.5,-326.5 448.5,-326.5 448.5,-307.5 608.5,-307.5 608.5,-326.5"/>
<text text-anchor="middle" x="528.5" y="-314.5" font-family="Helvetica,sans-Serif" font-size="10.00">cam.nc.tnc151.Creator.SPACE</text>
</a>
</g>
</g>
<!-- Node5&#45;&gt;Node22 -->
<g id="edge115_Node000005_Node000022" class="edge">
<title>Node5&#45;&gt;Node22</title>
<g id="a_edge115_Node000005_Node000022"><a xlink:title=" ">
<path fill="none" stroke="#63b8ff" d="M393.19,-497.47C398.23,-494.57 402.9,-491.12 407,-487 455.66,-438.09 393.9,-384.47 443,-336 444.44,-334.57 445.97,-333.25 447.57,-332.01"/>
<polygon fill="#63b8ff" stroke="#63b8ff" points="449.55,-334.9 456.08,-326.55 445.77,-329 449.55,-334.9"/>
</a>
</g>
</g>
<!-- Node12 -->
<g id="Node000012" class="node">
<title>Node12</title>
<g id="a_Node000012"><a xlink:href="$classcam_1_1nc_1_1anilam__crusader__m_1_1Creator.html#a36f873a0248bcaa4cf2cfb220dc1b00c" xlink:title="Codes.">
<polygon fill="white" stroke="#666666" points="810,-621 674,-621 674,-591 810,-591 810,-621"/>
<text text-anchor="start" x="682" y="-609" font-family="Helvetica,sans-Serif" font-size="10.00">cam.nc.anilam_crusader</text>
<text text-anchor="middle" x="742" y="-598" font-family="Helvetica,sans-Serif" font-size="10.00">_m.Creator.SPACE_STR</text>
</a>
</g>
</g>
<!-- Node11&#45;&gt;Node12 -->
<g id="edge105_Node000011_Node000012" class="edge">
<title>Node11&#45;&gt;Node12</title>
<g id="a_edge105_Node000011_Node000012"><a xlink:title=" ">
<path fill="none" stroke="#63b8ff" d="M597.96,-498.6C603.71,-501.09 609.17,-504.17 614,-508 642.68,-530.7 621.74,-558.78 650,-582 654.34,-585.57 659.15,-588.61 664.24,-591.2"/>
<polygon fill="#63b8ff" stroke="#63b8ff" points="663.08,-594.52 673.64,-595.4 665.93,-588.12 663.08,-594.52"/>
</a>
</g>
</g>
<!-- Node13 -->
<g id="Node000013" class="node">
<title>Node13</title>
<g id="a_Node000013"><a xlink:href="$classcam_1_1nc_1_1fadal_1_1Creator.html#a97a50724edf2662eb4fe76b15516b638" xlink:title="Codes.">
<polygon fill="white" stroke="#666666" points="830,-572.5 654,-572.5 654,-553.5 830,-553.5 830,-572.5"/>
<text text-anchor="middle" x="742" y="-560.5" font-family="Helvetica,sans-Serif" font-size="10.00">cam.nc.fadal.Creator.SPACE_STR</text>
</a>
</g>
</g>
<!-- Node11&#45;&gt;Node13 -->
<g id="edge106_Node000011_Node000013" class="edge">
<title>Node11&#45;&gt;Node13</title>
<g id="a_edge106_Node000011_Node000013"><a xlink:title=" ">
<path fill="none" stroke="#63b8ff" d="M591.51,-498.55C599.35,-501.01 607.05,-504.11 614,-508 634.02,-519.2 629.83,-534.06 650,-545 653.31,-546.8 656.77,-548.41 660.33,-549.87"/>
<polygon fill="#63b8ff" stroke="#63b8ff" points="659.36,-553.24 669.95,-553.37 661.75,-546.66 659.36,-553.24"/>
</a>
</g>
</g>
<!-- Node14 -->
<g id="Node000014" class="node">
<title>Node14</title>
<g id="a_Node000014"><a xlink:href="$classcam_1_1nc_1_1gravos_1_1Creator.html#ac0bc0d26e8a92a65c0f33d696ad850f5" xlink:title="Codes.">
<polygon fill="white" stroke="#666666" points="834,-535.5 650,-535.5 650,-516.5 834,-516.5 834,-535.5"/>
<text text-anchor="middle" x="742" y="-523.5" font-family="Helvetica,sans-Serif" font-size="10.00">cam.nc.gravos.Creator.SPACE_STR</text>
</a>
</g>
</g>
<!-- Node11&#45;&gt;Node14 -->
<g id="edge107_Node000011_Node000014" class="edge">
<title>Node11&#45;&gt;Node14</title>
<g id="a_edge107_Node000011_Node000014"><a xlink:title=" ">
<path fill="none" stroke="#63b8ff" d="M583.97,-498.53C612.1,-503.45 646.63,-509.49 676.14,-514.65"/>
<polygon fill="#63b8ff" stroke="#63b8ff" points="675.9,-518.16 686.35,-516.44 677.1,-511.27 675.9,-518.16"/>
</a>
</g>
</g>
<!-- Node15 -->
<g id="Node000015" class="node">
<title>Node15</title>
<g id="a_Node000015"><a xlink:href="$classcam_1_1nc_1_1iso_1_1Creator.html#aa481cf1e394988751640fd5ce5af991e" xlink:title="Codes.">
<polygon fill="white" stroke="#666666" points="824.5,-498.5 659.5,-498.5 659.5,-479.5 824.5,-479.5 824.5,-498.5"/>
<text text-anchor="middle" x="742" y="-486.5" font-family="Helvetica,sans-Serif" font-size="10.00">cam.nc.iso.Creator.SPACE_STR</text>
</a>
</g>
</g>
<!-- Node11&#45;&gt;Node15 -->
<g id="edge108_Node000011_Node000015" class="edge">
<title>Node11&#45;&gt;Node15</title>
<g id="a_edge108_Node000011_Node000015"><a xlink:title=" ">
<path fill="none" stroke="#63b8ff" d="M599.05,-489C615,-489 632.2,-489 648.94,-489"/>
<polygon fill="#63b8ff" stroke="#63b8ff" points="649.29,-492.5 659.29,-489 649.29,-485.5 649.29,-492.5"/>
</a>
</g>
</g>
<!-- Node16 -->
<g id="Node000016" class="node">
<title>Node16</title>
<g id="a_Node000016"><a xlink:href="$classcam_1_1nc_1_1lynx__otter__o_1_1Creator.html#a73b176561e066abcdb256a1bf53a5fcc" xlink:title="Codes.">
<polygon fill="white" stroke="#666666" points="820.5,-461 663.5,-461 663.5,-431 820.5,-431 820.5,-461"/>
<text text-anchor="start" x="671.5" y="-449" font-family="Helvetica,sans-Serif" font-size="10.00">cam.nc.lynx_otter_o.Creator.</text>
<text text-anchor="middle" x="742" y="-438" font-family="Helvetica,sans-Serif" font-size="10.00">SPACE_STR</text>
</a>
</g>
</g>
<!-- Node11&#45;&gt;Node16 -->
<g id="edge109_Node000011_Node000016" class="edge">
<title>Node11&#45;&gt;Node16</title>
<g id="a_edge109_Node000011_Node000016"><a xlink:title=" ">
<path fill="none" stroke="#63b8ff" d="M576.44,-479.46C600.18,-474.63 629.71,-468.63 657.18,-463.04"/>
<polygon fill="#63b8ff" stroke="#63b8ff" points="658.09,-466.43 667.19,-461.01 656.69,-459.57 658.09,-466.43"/>
</a>
</g>
</g>
<!-- Node17 -->
<g id="Node000017" class="node">
<title>Node17</title>
<g id="a_Node000017"><a xlink:href="$classcam_1_1nc_1_1mach3_1_1Creator.html#aa461d578afa76c5af9bb5562b79d955a" xlink:title="Codes.">
<polygon fill="white" stroke="#666666" points="834,-412.5 650,-412.5 650,-393.5 834,-393.5 834,-412.5"/>
<text text-anchor="middle" x="742" y="-400.5" font-family="Helvetica,sans-Serif" font-size="10.00">cam.nc.mach3.Creator.SPACE_STR</text>
</a>
</g>
</g>
<!-- Node11&#45;&gt;Node17 -->
<g id="edge110_Node000011_Node000017" class="edge">
<title>Node11&#45;&gt;Node17</title>
<g id="a_edge110_Node000011_Node000017"><a xlink:title=" ">
<path fill="none" stroke="#63b8ff" d="M594.64,-479.36C601.46,-476.91 608.07,-473.84 614,-470 636.39,-455.51 627.5,-436.31 650,-422 653.35,-419.87 656.9,-417.97 660.57,-416.28"/>
<polygon fill="#63b8ff" stroke="#63b8ff" points="661.97,-419.49 669.94,-412.5 659.35,-413 661.97,-419.49"/>
</a>
</g>
</g>
<!-- Node18 -->
<g id="Node000018" class="node">
<title>Node18</title>
<g id="a_Node000018"><a xlink:href="$classcam_1_1nc_1_1winpc_1_1Creator.html#aae1cb93a5dd430719105fa03a054f654" xlink:title="Codes.">
<polygon fill="white" stroke="#666666" points="831.5,-375.5 652.5,-375.5 652.5,-356.5 831.5,-356.5 831.5,-375.5"/>
<text text-anchor="middle" x="742" y="-363.5" font-family="Helvetica,sans-Serif" font-size="10.00">cam.nc.winpc.Creator.SPACE_STR</text>
</a>
</g>
</g>
<!-- Node11&#45;&gt;Node18 -->
<g id="edge111_Node000011_Node000018" class="edge">
<title>Node11&#45;&gt;Node18</title>
<g id="a_edge111_Node000011_Node000018"><a xlink:title=" ">
<path fill="none" stroke="#63b8ff" d="M598.6,-479.48C604.15,-476.97 609.38,-473.85 614,-470 645.49,-443.71 618.31,-411.05 650,-385 652.02,-383.34 654.15,-381.82 656.36,-380.41"/>
<polygon fill="#63b8ff" stroke="#63b8ff" points="658.14,-383.43 665.28,-375.6 654.82,-377.27 658.14,-383.43"/>
</a>
</g>
</g>
<!-- Node23&#45;&gt;Node23 -->
<g id="edge117_Node000023_Node000023" class="edge">
<title>Node23&#45;&gt;Node23</title>
<g id="a_edge117_Node000023_Node000023"><a xlink:title=" ">
<path fill="none" stroke="#63b8ff" d="M273.59,-459.58C257.1,-468.23 268.4,-477.5 307.5,-477.5 335.6,-477.5 349.35,-472.71 348.73,-466.81"/>
<polygon fill="#63b8ff" stroke="#63b8ff" points="350.98,-464.12 341.41,-459.58 346.07,-469.1 350.98,-464.12"/>
</a>
</g>
</g>
<!-- Node24&#45;&gt;Node24 -->
<g id="edge119_Node000024_Node000024" class="edge">
<title>Node24&#45;&gt;Node24</title>
<g id="a_edge119_Node000024_Node000024"><a xlink:title=" ">
<path fill="none" stroke="#63b8ff" d="M273.59,-404.58C257.1,-413.23 268.4,-422.5 307.5,-422.5 335.6,-422.5 349.35,-417.71 348.73,-411.81"/>
<polygon fill="#63b8ff" stroke="#63b8ff" points="350.98,-409.12 341.41,-404.58 346.07,-414.1 350.98,-409.12"/>
</a>
</g>
</g>
<!-- Node26&#45;&gt;Node26 -->
<g id="edge122_Node000026_Node000026" class="edge">
<title>Node26&#45;&gt;Node26</title>
<g id="a_edge122_Node000026_Node000026"><a xlink:title=" ">
<path fill="none" stroke="#63b8ff" d="M273.59,-312.58C257.1,-321.23 268.4,-330.5 307.5,-330.5 335.6,-330.5 349.35,-325.71 348.73,-319.81"/>
<polygon fill="#63b8ff" stroke="#63b8ff" points="350.98,-317.12 341.41,-312.58 346.07,-322.1 350.98,-317.12"/>
</a>
</g>
</g>
<!-- Node27&#45;&gt;Node27 -->
<g id="edge124_Node000027_Node000027" class="edge">
<title>Node27&#45;&gt;Node27</title>
<g id="a_edge124_Node000027_Node000027"><a xlink:title=" ">
<path fill="none" stroke="#63b8ff" d="M273.59,-257.58C257.1,-266.23 268.4,-275.5 307.5,-275.5 335.6,-275.5 349.35,-270.71 348.73,-264.81"/>
<polygon fill="#63b8ff" stroke="#63b8ff" points="350.98,-262.12 341.41,-257.58 346.07,-267.1 350.98,-262.12"/>
</a>
</g>
</g>
<!-- Node28&#45;&gt;Node28 -->
<g id="edge126_Node000028_Node000028" class="edge">
<title>Node28&#45;&gt;Node28</title>
<g id="a_edge126_Node000028_Node000028"><a xlink:title=" ">
<path fill="none" stroke="#63b8ff" d="M273.59,-202.58C257.1,-211.23 268.4,-220.5 307.5,-220.5 335.6,-220.5 349.35,-215.71 348.73,-209.81"/>
<polygon fill="#63b8ff" stroke="#63b8ff" points="350.98,-207.12 341.41,-202.58 346.07,-212.1 350.98,-207.12"/>
</a>
</g>
</g>
<!-- Node30 -->
<g id="Node000030" class="node">
<title>Node30</title>
<g id="a_Node000030"><a xlink:href="$classcam_1_1async__op_1_1AsyncOperatorMixin.html#a9628cbca8e69ec75b2337171a02bf428" xlink:title=" ">
<polygon fill="white" stroke="#666666" points="609,-150 448,-150 448,-120 609,-120 609,-150"/>
<text text-anchor="start" x="456" y="-138" font-family="Helvetica,sans-Serif" font-size="10.00">cam.async_op.AsyncOperator</text>
<text text-anchor="middle" x="528.5" y="-127" font-family="Helvetica,sans-Serif" font-size="10.00">Mixin.modal</text>
</a>
</g>
</g>
<!-- Node29&#45;&gt;Node30 -->
<g id="edge128_Node000029_Node000030" class="edge">
<title>Node29&#45;&gt;Node30</title>
<g id="a_edge128_Node000029_Node000030"><a xlink:title=" ">
<path fill="none" stroke="#63b8ff" d="M386.64,-148.51C403.12,-146.93 420.63,-145.25 437.51,-143.63"/>
<polygon fill="#63b8ff" stroke="#63b8ff" points="438.3,-147.07 447.92,-142.63 437.63,-140.1 438.3,-147.07"/>
</a>
</g>
</g>
<!-- Node31 -->
<g id="Node000031" class="node">
<title>Node31</title>
<g id="a_Node000031"><a xlink:href="$classcam_1_1async__op_1_1AsyncOperatorMixin.html#a15a51cfd69d8e453e2e3d64386b1ebe3" xlink:title=" ">
<polygon fill="white" stroke="#666666" points="822.5,-150 661.5,-150 661.5,-120 822.5,-120 822.5,-150"/>
<text text-anchor="start" x="669.5" y="-138" font-family="Helvetica,sans-Serif" font-size="10.00">cam.async_op.AsyncOperator</text>
<text text-anchor="middle" x="742" y="-127" font-family="Helvetica,sans-Serif" font-size="10.00">Mixin.tick</text>
</a>
</g>
</g>
<!-- Node30&#45;&gt;Node31 -->
<g id="edge129_Node000030_Node000031" class="edge">
<title>Node30&#45;&gt;Node31</title>
<g id="a_edge129_Node000030_Node000031"><a xlink:title=" ">
<path fill="none" stroke="#63b8ff" d="M609.16,-135C622.91,-135 637.3,-135 651.3,-135"/>
<polygon fill="#63b8ff" stroke="#63b8ff" points="651.41,-138.5 661.41,-135 651.41,-131.5 651.41,-138.5"/>
</a>
</g>
</g>
<!-- Node32 -->
<g id="Node000032" class="node">
<title>Node32</title>
<g id="a_Node000032"><a xlink:href="$classcam_1_1async__op_1_1AsyncTestOperator.html#a42606ca890a957aa7070a4bc6f25228b" xlink:title=" ">
<polygon fill="white" stroke="#666666" points="1091,-270 870,-270 870,-240 1091,-240 1091,-270"/>
<text text-anchor="start" x="878" y="-258" font-family="Helvetica,sans-Serif" font-size="10.00">cam.async_op.AsyncTestOperator.execute</text>
<text text-anchor="middle" x="980.5" y="-247" font-family="Helvetica,sans-Serif" font-size="10.00">_async</text>
</a>
</g>
</g>
<!-- Node31&#45;&gt;Node32 -->
<g id="edge130_Node000031_Node000032" class="edge">
<title>Node31&#45;&gt;Node32</title>
<g id="a_edge130_Node000031_Node000032"><a xlink:title=" ">
<path fill="none" stroke="#63b8ff" d="M758.36,-150.21C780.88,-171.62 825.06,-210.31 870,-231 874.58,-233.11 879.35,-235.04 884.23,-236.8"/>
<polygon fill="#63b8ff" stroke="#63b8ff" points="883.13,-240.12 893.73,-239.98 885.36,-233.48 883.13,-240.12"/>
</a>
</g>
</g>
<!-- Node33 -->
<g id="Node000033" class="node">
<title>Node33</title>
<g id="a_Node000033"><a xlink:href="$classcam_1_1ops_1_1CalculatePath.html#a13dfe2f8578383234e74e58e2f292e1b" xlink:title=" ">
<polygon fill="white" stroke="#666666" points="1065,-222 896,-222 896,-192 1065,-192 1065,-222"/>
<text text-anchor="start" x="904" y="-210" font-family="Helvetica,sans-Serif" font-size="10.00">cam.ops.CalculatePath.execute</text>
<text text-anchor="middle" x="980.5" y="-199" font-family="Helvetica,sans-Serif" font-size="10.00">_async</text>
</a>
</g>
</g>
<!-- Node31&#45;&gt;Node33 -->
<g id="edge131_Node000031_Node000033" class="edge">
<title>Node31&#45;&gt;Node33</title>
<g id="a_edge131_Node000031_Node000033"><a xlink:title=" ">
<path fill="none" stroke="#63b8ff" d="M778.65,-150.07C803.85,-160.33 838.59,-173.68 870,-183 877.76,-185.3 885.89,-187.49 894.06,-189.54"/>
<polygon fill="#63b8ff" stroke="#63b8ff" points="893.48,-193 904.03,-191.97 895.14,-186.2 893.48,-193"/>
</a>
</g>
</g>
<!-- Node35 -->
<g id="Node000035" class="node">
<title>Node35</title>
<g id="a_Node000035"><a xlink:href="$classcam_1_1ops_1_1PathsChain.html#a6fc64e383ccf724b2325e18a82d53eae" xlink:title=" ">
<polygon fill="white" stroke="#666666" points="1058.5,-174 902.5,-174 902.5,-144 1058.5,-144 1058.5,-174"/>
<text text-anchor="start" x="910.5" y="-162" font-family="Helvetica,sans-Serif" font-size="10.00">cam.ops.PathsChain.execute</text>
<text text-anchor="middle" x="980.5" y="-151" font-family="Helvetica,sans-Serif" font-size="10.00">_async</text>
</a>
</g>
</g>
<!-- Node31&#45;&gt;Node35 -->
<g id="edge133_Node000031_Node000035" class="edge">
<title>Node31&#45;&gt;Node35</title>
<g id="a_edge133_Node000031_Node000035"><a xlink:title=" ">
<path fill="none" stroke="#63b8ff" d="M822.74,-143.09C845.05,-145.36 869.41,-147.83 892.14,-150.13"/>
<polygon fill="#63b8ff" stroke="#63b8ff" points="891.81,-153.62 902.11,-151.15 892.52,-146.65 891.81,-153.62"/>
</a>
</g>
</g>
<!-- Node37 -->
<g id="Node000037" class="node">
<title>Node37</title>
<g id="a_Node000037"><a xlink:href="$classcam_1_1ops_1_1CAMSimulate.html#a633151f17849d281fd52ce82c00356a7" xlink:title=" ">
<polygon fill="white" stroke="#666666" points="1064.5,-126 896.5,-126 896.5,-96 1064.5,-96 1064.5,-126"/>
<text text-anchor="start" x="904.5" y="-114" font-family="Helvetica,sans-Serif" font-size="10.00">cam.ops.CAMSimulate.execute</text>
<text text-anchor="middle" x="980.5" y="-103" font-family="Helvetica,sans-Serif" font-size="10.00">_async</text>
</a>
</g>
</g>
<!-- Node31&#45;&gt;Node37 -->
<g id="edge136_Node000031_Node000037" class="edge">
<title>Node31&#45;&gt;Node37</title>
<g id="a_edge136_Node000031_Node000037"><a xlink:title=" ">
<path fill="none" stroke="#63b8ff" d="M822.74,-126.91C843.14,-124.84 865.25,-122.59 886.26,-120.46"/>
<polygon fill="#63b8ff" stroke="#63b8ff" points="886.88,-123.92 896.47,-119.43 886.17,-116.95 886.88,-123.92"/>
</a>
</g>
</g>
<!-- Node38 -->
<g id="Node000038" class="node">
<title>Node38</title>
<g id="a_Node000038"><a xlink:href="$classcam_1_1ops_1_1CAMSimulateChain.html#a1e77c7ce21b3b7e3e38a12b6b62517e9" xlink:title=" ">
<polygon fill="white" stroke="#666666" points="1078.5,-78 882.5,-78 882.5,-48 1078.5,-48 1078.5,-78"/>
<text text-anchor="start" x="890.5" y="-66" font-family="Helvetica,sans-Serif" font-size="10.00">cam.ops.CAMSimulateChain.execute</text>
<text text-anchor="middle" x="980.5" y="-55" font-family="Helvetica,sans-Serif" font-size="10.00">_async</text>
</a>
</g>
</g>
<!-- Node31&#45;&gt;Node38 -->
<g id="edge137_Node000031_Node000038" class="edge">
<title>Node31&#45;&gt;Node38</title>
<g id="a_edge137_Node000031_Node000038"><a xlink:title=" ">
<path fill="none" stroke="#63b8ff" d="M778.65,-119.93C803.85,-109.67 838.59,-96.32 870,-87 877.76,-84.7 885.89,-82.51 894.06,-80.46"/>
<polygon fill="#63b8ff" stroke="#63b8ff" points="895.14,-83.8 904.03,-78.03 893.48,-77 895.14,-83.8"/>
</a>
</g>
</g>
<!-- Node39 -->
<g id="Node000039" class="node">
<title>Node39</title>
<g id="a_Node000039"><a xlink:href="$classcam_1_1async__op_1_1AsyncOperatorMixin.html#a2216ff6bb0dfd132f4ec4cf79b7cba2b" xlink:title=" ">
<polygon fill="white" stroke="#666666" points="1061,-30 900,-30 900,0 1061,0 1061,-30"/>
<text text-anchor="start" x="908" y="-18" font-family="Helvetica,sans-Serif" font-size="10.00">cam.async_op.AsyncOperator</text>
<text text-anchor="middle" x="980.5" y="-7" font-family="Helvetica,sans-Serif" font-size="10.00">Mixin.show_progress</text>
</a>
</g>
</g>
<!-- Node31&#45;&gt;Node39 -->
<g id="edge139_Node000031_Node000039" class="edge">
<title>Node31&#45;&gt;Node39</title>
<g id="a_edge139_Node000031_Node000039"><a xlink:title=" ">
<path fill="none" stroke="#63b8ff" d="M758.36,-119.79C780.88,-98.38 825.06,-59.69 870,-39 876.44,-36.03 883.27,-33.43 890.24,-31.13"/>
<polygon fill="#63b8ff" stroke="#63b8ff" points="891.27,-34.48 899.81,-28.2 889.22,-27.78 891.27,-34.48"/>
</a>
</g>
</g>
<!-- Node34 -->
<g id="Node000034" class="node">
<title>Node34</title>
<g id="a_Node000034"><a xlink:href="$namespacecam_1_1ops.html#aa8e95f7410a7ceb178db48f4f8c2d995" xlink:title=" ">
<polygon fill="white" stroke="#666666" points="1262.5,-192.5 1149.5,-192.5 1149.5,-173.5 1262.5,-173.5 1262.5,-192.5"/>
<text text-anchor="middle" x="1206" y="-180.5" font-family="Helvetica,sans-Serif" font-size="10.00">cam.ops._calc_path</text>
</a>
</g>
</g>
<!-- Node33&#45;&gt;Node34 -->
<g id="edge132_Node000033_Node000034" class="edge">
<title>Node33&#45;&gt;Node34</title>
<g id="a_edge132_Node000033_Node000034"><a xlink:title=" ">
<path fill="none" stroke="#63b8ff" d="M1065.04,-198.03C1089.56,-195.4 1116.01,-192.56 1139.25,-190.06"/>
<polygon fill="#63b8ff" stroke="#63b8ff" points="1139.77,-193.52 1149.34,-188.98 1139.03,-186.56 1139.77,-193.52"/>
</a>
</g>
</g>
<!-- Node35&#45;&gt;Node34 -->
<g id="edge134_Node000035_Node000034" class="edge">
<title>Node35&#45;&gt;Node34</title>
<g id="a_edge134_Node000035_Node000034"><a xlink:title=" ">
<path fill="none" stroke="#63b8ff" d="M1058.73,-167.29C1084.9,-170.1 1113.87,-173.21 1139.08,-175.92"/>
<polygon fill="#63b8ff" stroke="#63b8ff" points="1138.95,-179.43 1149.27,-177.02 1139.7,-172.47 1138.95,-179.43"/>
</a>
</g>
</g>
<!-- Node36 -->
<g id="Node000036" class="node">
<title>Node36</title>
<g id="a_Node000036"><a xlink:href="$namespacecam_1_1ops.html#ab55fb8ec9a00e021e8e4a1c3ecc97cb4" xlink:title=" ">
<polygon fill="white" stroke="#666666" points="1285,-126.5 1127,-126.5 1127,-107.5 1285,-107.5 1285,-126.5"/>
<text text-anchor="middle" x="1206" y="-114.5" font-family="Helvetica,sans-Serif" font-size="10.00">cam.ops.getChainOperations</text>
</a>
</g>
</g>
<!-- Node35&#45;&gt;Node36 -->
<g id="edge135_Node000035_Node000036" class="edge">
<title>Node35&#45;&gt;Node36</title>
<g id="a_edge135_Node000035_Node000036"><a xlink:title=" ">
<path fill="none" stroke="#63b8ff" d="M1058.73,-144.49C1086.81,-139.21 1118.12,-133.33 1144.54,-128.36"/>
<polygon fill="#63b8ff" stroke="#63b8ff" points="1145.23,-131.79 1154.41,-126.51 1143.94,-124.91 1145.23,-131.79"/>
</a>
</g>
</g>
<!-- Node38&#45;&gt;Node36 -->
<g id="edge138_Node000038_Node000036" class="edge">
<title>Node38&#45;&gt;Node36</title>
<g id="a_edge138_Node000038_Node000036"><a xlink:title=" ">
<path fill="none" stroke="#63b8ff" d="M1052.28,-78.06C1065.19,-80.94 1078.51,-83.99 1091,-87 1113.91,-92.52 1139.28,-99.15 1160.25,-104.77"/>
<polygon fill="#63b8ff" stroke="#63b8ff" points="1159.6,-108.21 1170.17,-107.43 1161.42,-101.45 1159.6,-108.21"/>
</a>
</g>
</g>
<!-- Node40&#45;&gt;Node30 -->
<g id="edge141_Node000040_Node000030" class="edge">
<title>Node40&#45;&gt;Node30</title>
<g id="a_edge141_Node000040_Node000030"><a xlink:title=" ">
<path fill="none" stroke="#63b8ff" d="M382.64,-120.45C400.34,-122.23 419.41,-124.14 437.72,-125.98"/>
<polygon fill="#63b8ff" stroke="#63b8ff" points="437.51,-129.48 447.81,-126.99 438.21,-122.51 437.51,-129.48"/>
</a>
</g>
</g>
</g>
</svg>
