<?xml version="1.0" encoding="UTF-8" standalone="no"?>
<!DOCTYPE svg PUBLIC "-//W3C//DTD SVG 1.1//EN"
 "http://www.w3.org/Graphics/SVG/1.1/DTD/svg11.dtd">
<!-- Generated by graphviz version 2.43.0 (0)
 -->
<!-- Title: cam.nc.iso.Creator.sub_end Pages: 1 -->
<svg width="1266pt" height="1027pt"
 viewBox="0.00 0.00 1266.00 1026.50" xmlns="http://www.w3.org/2000/svg" xmlns:xlink="http://www.w3.org/1999/xlink">
<g id="graph0" class="graph" transform="scale(1 1) rotate(0) translate(4 1022.5)">
<title>cam.nc.iso.Creator.sub_end</title>
<!-- Node1 -->
<g id="Node000001" class="node">
<title>Node1</title>
<g id="a_Node000001"><a xlink:title=" ">
<polygon fill="#999999" stroke="#666666" points="151,-600.5 0,-600.5 0,-581.5 151,-581.5 151,-600.5"/>
<text text-anchor="middle" x="75.5" y="-588.5" font-family="Helvetica,sans-Serif" font-size="10.00">cam.nc.iso.Creator.sub_end</text>
</a>
</g>
</g>
<!-- Node2 -->
<g id="Node000002" class="node">
<title>Node2</title>
<g id="a_Node000002"><a xlink:href="$classcam_1_1nc_1_1emc2_1_1Creator.html#a47a9e4f5f35681f580765bba2f0f97a5" xlink:title=" ">
<polygon fill="white" stroke="#666666" points="365.5,-1018.5 211.5,-1018.5 211.5,-999.5 365.5,-999.5 365.5,-1018.5"/>
<text text-anchor="middle" x="288.5" y="-1006.5" font-family="Helvetica,sans-Serif" font-size="10.00">cam.nc.emc2.Creator.SPACE</text>
</a>
</g>
</g>
<!-- Node1&#45;&gt;Node2 -->
<g id="edge93_Node000001_Node000002" class="edge">
<title>Node1&#45;&gt;Node2</title>
<g id="a_edge93_Node000001_Node000002"><a xlink:title=" ">
<path fill="none" stroke="#63b8ff" d="M77.79,-600.81C85.37,-656.79 125.77,-935.18 187,-991 191.49,-995.09 196.58,-998.41 202.03,-1001.09"/>
<polygon fill="#63b8ff" stroke="#63b8ff" points="200.91,-1004.42 211.49,-1005.02 203.6,-997.95 200.91,-1004.42"/>
</a>
</g>
</g>
<!-- Node3 -->
<g id="Node000003" class="node">
<title>Node3</title>
<g id="a_Node000003"><a xlink:href="$classcam_1_1nc_1_1emc2b_1_1Creator.html#abff5586e78bb91681bd41dafdea5a9e7" xlink:title=" ">
<polygon fill="white" stroke="#666666" points="368.5,-981.5 208.5,-981.5 208.5,-962.5 368.5,-962.5 368.5,-981.5"/>
<text text-anchor="middle" x="288.5" y="-969.5" font-family="Helvetica,sans-Serif" font-size="10.00">cam.nc.emc2b.Creator.SPACE</text>
</a>
</g>
</g>
<!-- Node1&#45;&gt;Node3 -->
<g id="edge94_Node000001_Node000003" class="edge">
<title>Node1&#45;&gt;Node3</title>
<g id="a_edge94_Node000001_Node000003"><a xlink:title=" ">
<path fill="none" stroke="#63b8ff" d="M76.14,-600.67C74.96,-647.64 76.41,-853.89 187,-953 190.69,-956.31 194.77,-959.12 199.11,-961.5"/>
<polygon fill="#63b8ff" stroke="#63b8ff" points="197.81,-964.76 208.35,-965.82 200.77,-958.42 197.81,-964.76"/>
</a>
</g>
</g>
<!-- Node4 -->
<g id="Node000004" class="node">
<title>Node4</title>
<g id="a_Node000004"><a xlink:href="$classcam_1_1nc_1_1emc2tap_1_1CodesEMC2.html#a6a0d71a1c6e9f8a80228dc220a0e57ca" xlink:title=" ">
<polygon fill="white" stroke="#666666" points="369,-944 208,-944 208,-914 369,-914 369,-944"/>
<text text-anchor="start" x="216" y="-932" font-family="Helvetica,sans-Serif" font-size="10.00">cam.nc.emc2tap.CodesEMC2.</text>
<text text-anchor="middle" x="288.5" y="-921" font-family="Helvetica,sans-Serif" font-size="10.00">SPACE</text>
</a>
</g>
</g>
<!-- Node1&#45;&gt;Node4 -->
<g id="edge95_Node000001_Node000004" class="edge">
<title>Node1&#45;&gt;Node4</title>
<g id="a_edge95_Node000001_Node000004"><a xlink:title=" ">
<path fill="none" stroke="#63b8ff" d="M76.75,-600.72C78.41,-643.71 91.05,-818.54 187,-905 190.64,-908.28 194.65,-911.13 198.9,-913.61"/>
<polygon fill="#63b8ff" stroke="#63b8ff" points="197.44,-916.8 207.94,-918.2 200.61,-910.55 197.44,-916.8"/>
</a>
</g>
</g>
<!-- Node5 -->
<g id="Node000005" class="node">
<title>Node5</title>
<g id="a_Node000005"><a xlink:href="$classcam_1_1nc_1_1heiden_1_1Creator.html#a2c4277ffddaea0f92c906c6744f7a3bd" xlink:title="Codes.">
<polygon fill="white" stroke="#666666" points="368.5,-895.5 208.5,-895.5 208.5,-876.5 368.5,-876.5 368.5,-895.5"/>
<text text-anchor="middle" x="288.5" y="-883.5" font-family="Helvetica,sans-Serif" font-size="10.00">cam.nc.heiden.Creator.SPACE</text>
</a>
</g>
</g>
<!-- Node1&#45;&gt;Node5 -->
<g id="edge96_Node000001_Node000005" class="edge">
<title>Node1&#45;&gt;Node5</title>
<g id="a_edge96_Node000001_Node000005"><a xlink:title=" ">
<path fill="none" stroke="#63b8ff" d="M77.17,-600.73C80.48,-640.8 98.71,-794.37 187,-867 190.75,-870.08 194.84,-872.72 199.15,-874.98"/>
<polygon fill="#63b8ff" stroke="#63b8ff" points="197.75,-878.18 208.3,-879.1 200.62,-871.8 197.75,-878.18"/>
</a>
</g>
</g>
<!-- Node6 -->
<g id="Node000006" class="node">
<title>Node6</title>
<g id="a_Node000006"><a xlink:href="$classcam_1_1nc_1_1heiden530_1_1Creator.html#aa64b19b0edc2ac1f2d568b09ca2aebcb" xlink:title="Codes.">
<polygon fill="white" stroke="#666666" points="362,-858 215,-858 215,-828 362,-828 362,-858"/>
<text text-anchor="start" x="223" y="-846" font-family="Helvetica,sans-Serif" font-size="10.00">cam.nc.heiden530.Creator.</text>
<text text-anchor="middle" x="288.5" y="-835" font-family="Helvetica,sans-Serif" font-size="10.00">SPACE</text>
</a>
</g>
</g>
<!-- Node1&#45;&gt;Node6 -->
<g id="edge97_Node000001_Node000006" class="edge">
<title>Node1&#45;&gt;Node6</title>
<g id="a_edge97_Node000001_Node000006"><a xlink:title=" ">
<path fill="none" stroke="#63b8ff" d="M78.14,-600.61C84.68,-635.83 112.25,-758.93 187,-819 192.62,-823.52 198.96,-827.21 205.65,-830.22"/>
<polygon fill="#63b8ff" stroke="#63b8ff" points="204.37,-833.48 214.95,-833.92 206.95,-826.98 204.37,-833.48"/>
</a>
</g>
</g>
<!-- Node7 -->
<g id="Node000007" class="node">
<title>Node7</title>
<g id="a_Node000007"><a xlink:href="$classcam_1_1nc_1_1iso_1_1Creator.html#a79463d437baaaf23c828a2c9e62393f3" xlink:title=" ">
<polygon fill="white" stroke="#666666" points="359,-809.5 218,-809.5 218,-790.5 359,-790.5 359,-809.5"/>
<text text-anchor="middle" x="288.5" y="-797.5" font-family="Helvetica,sans-Serif" font-size="10.00">cam.nc.iso.Creator.SPACE</text>
</a>
</g>
</g>
<!-- Node1&#45;&gt;Node7 -->
<g id="edge98_Node000001_Node000007" class="edge">
<title>Node1&#45;&gt;Node7</title>
<g id="a_edge98_Node000001_Node000007"><a xlink:title=" ">
<path fill="none" stroke="#63b8ff" d="M79.06,-600.86C87.91,-632.76 120.32,-733.86 187,-781 193.42,-785.54 200.63,-789.08 208.16,-791.83"/>
<polygon fill="#63b8ff" stroke="#63b8ff" points="207.25,-795.21 217.84,-794.9 209.37,-788.54 207.25,-795.21"/>
</a>
</g>
</g>
<!-- Node15 -->
<g id="Node000015" class="node">
<title>Node15</title>
<g id="a_Node000015"><a xlink:href="$classcam_1_1nc_1_1makerbot__codes_1_1Codes.html#a497077e0e500cc8f419b8f3f61f008b4" xlink:title=" ">
<polygon fill="white" stroke="#666666" points="374,-772 203,-772 203,-742 374,-742 374,-772"/>
<text text-anchor="start" x="211" y="-760" font-family="Helvetica,sans-Serif" font-size="10.00">cam.nc.makerbot_codes.Codes.</text>
<text text-anchor="middle" x="288.5" y="-749" font-family="Helvetica,sans-Serif" font-size="10.00">SPACE</text>
</a>
</g>
</g>
<!-- Node1&#45;&gt;Node15 -->
<g id="edge106_Node000001_Node000015" class="edge">
<title>Node1&#45;&gt;Node15</title>
<g id="a_edge106_Node000001_Node000015"><a xlink:title=" ">
<path fill="none" stroke="#63b8ff" d="M81.12,-600.77C93.94,-626.76 132.63,-698 187,-733 189.59,-734.67 192.29,-736.22 195.07,-737.67"/>
<polygon fill="#63b8ff" stroke="#63b8ff" points="193.64,-740.86 204.18,-741.93 196.6,-734.52 193.64,-740.86"/>
</a>
</g>
</g>
<!-- Node16 -->
<g id="Node000016" class="node">
<title>Node16</title>
<g id="a_Node000016"><a xlink:href="$classcam_1_1nc_1_1series1_1_1Creator.html#a75918d23eef609baab85058fda3050d5" xlink:title=" ">
<polygon fill="white" stroke="#666666" points="369.5,-723.5 207.5,-723.5 207.5,-704.5 369.5,-704.5 369.5,-723.5"/>
<text text-anchor="middle" x="288.5" y="-711.5" font-family="Helvetica,sans-Serif" font-size="10.00">cam.nc.series1.Creator.SPACE</text>
</a>
</g>
</g>
<!-- Node1&#45;&gt;Node16 -->
<g id="edge107_Node000001_Node000016" class="edge">
<title>Node1&#45;&gt;Node16</title>
<g id="a_edge107_Node000001_Node000016"><a xlink:title=" ">
<path fill="none" stroke="#63b8ff" d="M83.55,-600.63C99.42,-621.56 140.28,-671.21 187,-695 191.68,-697.38 196.61,-699.47 201.69,-701.29"/>
<polygon fill="#63b8ff" stroke="#63b8ff" points="200.99,-704.74 211.58,-704.49 203.14,-698.08 200.99,-704.74"/>
</a>
</g>
</g>
<!-- Node17 -->
<g id="Node000017" class="node">
<title>Node17</title>
<g id="a_Node000017"><a xlink:href="$classcam_1_1nc_1_1shopbot__mtc_1_1Creator.html#a1512dbb5d0140eb216ed709a542261ac" xlink:title="Codes.">
<polygon fill="white" stroke="#666666" points="368,-686 209,-686 209,-656 368,-656 368,-686"/>
<text text-anchor="start" x="217" y="-674" font-family="Helvetica,sans-Serif" font-size="10.00">cam.nc.shopbot_mtc.Creator.</text>
<text text-anchor="middle" x="288.5" y="-663" font-family="Helvetica,sans-Serif" font-size="10.00">SPACE</text>
</a>
</g>
</g>
<!-- Node1&#45;&gt;Node17 -->
<g id="edge108_Node000001_Node000017" class="edge">
<title>Node1&#45;&gt;Node17</title>
<g id="a_edge108_Node000001_Node000017"><a xlink:title=" ">
<path fill="none" stroke="#63b8ff" d="M92.44,-600.59C113.45,-612.87 151.87,-634.11 187,-647 192.97,-649.19 199.21,-651.23 205.53,-653.13"/>
<polygon fill="#63b8ff" stroke="#63b8ff" points="204.94,-656.6 215.51,-655.99 206.86,-649.87 204.94,-656.6"/>
</a>
</g>
</g>
<!-- Node18 -->
<g id="Node000018" class="node">
<title>Node18</title>
<g id="a_Node000018"><a xlink:href="$classcam_1_1nc_1_1tnc151_1_1Creator.html#af5d9e50b2ff0e73cd7524e2145d55d76" xlink:title=" ">
<polygon fill="white" stroke="#666666" points="368.5,-637.5 208.5,-637.5 208.5,-618.5 368.5,-618.5 368.5,-637.5"/>
<text text-anchor="middle" x="288.5" y="-625.5" font-family="Helvetica,sans-Serif" font-size="10.00">cam.nc.tnc151.Creator.SPACE</text>
</a>
</g>
</g>
<!-- Node1&#45;&gt;Node18 -->
<g id="edge109_Node000001_Node000018" class="edge">
<title>Node1&#45;&gt;Node18</title>
<g id="a_edge109_Node000001_Node000018"><a xlink:title=" ">
<path fill="none" stroke="#63b8ff" d="M130.84,-600.53C158.91,-605.45 193.36,-611.49 222.79,-616.65"/>
<polygon fill="#63b8ff" stroke="#63b8ff" points="222.53,-620.16 232.98,-618.44 223.73,-613.26 222.53,-620.16"/>
</a>
</g>
</g>
<!-- Node19 -->
<g id="Node000019" class="node">
<title>Node19</title>
<g id="a_Node000019"><a xlink:href="$classcam_1_1nc_1_1heiden_1_1Creator.html#a2bedc4d011103e6f9d9ba2df494ca2d3" xlink:title=" ">
<polygon fill="white" stroke="#666666" points="390,-600.5 187,-600.5 187,-581.5 390,-581.5 390,-600.5"/>
<text text-anchor="middle" x="288.5" y="-588.5" font-family="Helvetica,sans-Serif" font-size="10.00">cam.nc.heiden.Creator.SUBPROG_END</text>
</a>
</g>
</g>
<!-- Node1&#45;&gt;Node19 -->
<g id="edge110_Node000001_Node000019" class="edge">
<title>Node1&#45;&gt;Node19</title>
<g id="a_edge110_Node000001_Node000019"><a xlink:title=" ">
<path fill="none" stroke="#63b8ff" d="M151.19,-591C159.45,-591 167.99,-591 176.58,-591"/>
<polygon fill="#63b8ff" stroke="#63b8ff" points="176.68,-594.5 186.68,-591 176.68,-587.5 176.68,-594.5"/>
</a>
</g>
</g>
<!-- Node20 -->
<g id="Node000020" class="node">
<title>Node20</title>
<g id="a_Node000020"><a xlink:href="$classcam_1_1nc_1_1iso_1_1Creator.html#a8d22ce8b6db62774c06ece8e9f078406" xlink:title=" ">
<polygon fill="white" stroke="#666666" points="381,-563.5 196,-563.5 196,-544.5 381,-544.5 381,-563.5"/>
<text text-anchor="middle" x="288.5" y="-551.5" font-family="Helvetica,sans-Serif" font-size="10.00">cam.nc.iso.Creator.SUBPROG_END</text>
</a>
</g>
</g>
<!-- Node1&#45;&gt;Node20 -->
<g id="edge111_Node000001_Node000020" class="edge">
<title>Node1&#45;&gt;Node20</title>
<g id="a_edge111_Node000001_Node000020"><a xlink:title=" ">
<path fill="none" stroke="#63b8ff" d="M130.84,-581.47C158.91,-576.55 193.36,-570.51 222.79,-565.35"/>
<polygon fill="#63b8ff" stroke="#63b8ff" points="223.73,-568.74 232.98,-563.56 222.53,-561.84 223.73,-568.74"/>
</a>
</g>
</g>
<!-- Node21 -->
<g id="Node000021" class="node">
<title>Node21</title>
<g id="a_Node000021"><a xlink:href="$classcam_1_1nc_1_1makerbot__codes_1_1Codes.html#a604a36f406e8f9420e1c0f46a852eb13" xlink:title=" ">
<polygon fill="white" stroke="#666666" points="374,-526 203,-526 203,-496 374,-496 374,-526"/>
<text text-anchor="start" x="211" y="-514" font-family="Helvetica,sans-Serif" font-size="10.00">cam.nc.makerbot_codes.Codes.</text>
<text text-anchor="middle" x="288.5" y="-503" font-family="Helvetica,sans-Serif" font-size="10.00">SUBPROG_END</text>
</a>
</g>
</g>
<!-- Node1&#45;&gt;Node21 -->
<g id="edge112_Node000001_Node000021" class="edge">
<title>Node1&#45;&gt;Node21</title>
<g id="a_edge112_Node000001_Node000021"><a xlink:title=" ">
<path fill="none" stroke="#63b8ff" d="M92.84,-581.44C113.98,-569.42 152.21,-548.81 187,-536 193.98,-533.43 201.33,-531.04 208.74,-528.83"/>
<polygon fill="#63b8ff" stroke="#63b8ff" points="209.85,-532.16 218.51,-526.04 207.93,-525.42 209.85,-532.16"/>
</a>
</g>
</g>
<!-- Node22 -->
<g id="Node000022" class="node">
<title>Node22</title>
<g id="a_Node000022"><a xlink:href="$classcam_1_1nc_1_1cad__nc__read_1_1Parser.html#adcf2f47949df29f187f27fe985884633" xlink:title=" ">
<polygon fill="white" stroke="#666666" points="376.5,-459.5 200.5,-459.5 200.5,-440.5 376.5,-440.5 376.5,-459.5"/>
<text text-anchor="middle" x="288.5" y="-447.5" font-family="Helvetica,sans-Serif" font-size="10.00">cam.nc.cad_nc_read.Parser.write</text>
</a>
</g>
</g>
<!-- Node1&#45;&gt;Node22 -->
<g id="edge113_Node000001_Node000022" class="edge">
<title>Node1&#45;&gt;Node22</title>
<g id="a_edge113_Node000001_Node000022"><a xlink:title=" ">
<path fill="none" stroke="#63b8ff" d="M84.37,-581.32C101.22,-561.17 142.86,-514.3 187,-487 203.68,-476.68 223.67,-468.59 241.42,-462.63"/>
<polygon fill="#63b8ff" stroke="#63b8ff" points="242.56,-465.94 251.01,-459.55 240.42,-459.28 242.56,-465.94"/>
</a>
</g>
</g>
<!-- Node23 -->
<g id="Node000023" class="node">
<title>Node23</title>
<g id="a_Node000023"><a xlink:href="$classcam_1_1nc_1_1hxml__writer_1_1HxmlWriter.html#aed6f93c98cb8c0e3f3e826e75b6d6f15" xlink:title=" ">
<polygon fill="white" stroke="#666666" points="388,-404.5 189,-404.5 189,-385.5 388,-385.5 388,-404.5"/>
<text text-anchor="middle" x="288.5" y="-392.5" font-family="Helvetica,sans-Serif" font-size="10.00">cam.nc.hxml_writer.HxmlWriter.write</text>
</a>
</g>
</g>
<!-- Node1&#45;&gt;Node23 -->
<g id="edge115_Node000001_Node000023" class="edge">
<title>Node1&#45;&gt;Node23</title>
<g id="a_edge115_Node000001_Node000023"><a xlink:title=" ">
<path fill="none" stroke="#63b8ff" d="M80.69,-581.23C92.94,-553.75 131.42,-474.97 187,-432 201.02,-421.16 218.53,-413.27 234.98,-407.62"/>
<polygon fill="#63b8ff" stroke="#63b8ff" points="236.07,-410.95 244.52,-404.56 233.93,-404.29 236.07,-410.95"/>
</a>
</g>
</g>
<!-- Node24 -->
<g id="Node000024" class="node">
<title>Node24</title>
<g id="a_Node000024"><a xlink:href="$classcam_1_1nc_1_1iso_1_1Creator.html#abb81af5a0bdddfed387b71b68a51cc7a" xlink:title="Internals.">
<polygon fill="white" stroke="#666666" points="356,-367.5 221,-367.5 221,-348.5 356,-348.5 356,-367.5"/>
<text text-anchor="middle" x="288.5" y="-355.5" font-family="Helvetica,sans-Serif" font-size="10.00">cam.nc.iso.Creator.write</text>
</a>
</g>
</g>
<!-- Node1&#45;&gt;Node24 -->
<g id="edge117_Node000001_Node000024" class="edge">
<title>Node1&#45;&gt;Node24</title>
<g id="a_edge117_Node000001_Node000024"><a xlink:title=" ">
<path fill="none" stroke="#63b8ff" d="M78.35,-581.39C85.44,-547.28 114.25,-431.22 187,-377 194.19,-371.64 202.45,-367.66 211.09,-364.71"/>
<polygon fill="#63b8ff" stroke="#63b8ff" points="212.35,-367.99 220.95,-361.82 210.37,-361.28 212.35,-367.99"/>
</a>
</g>
</g>
<!-- Node25 -->
<g id="Node000025" class="node">
<title>Node25</title>
<g id="a_Node000025"><a xlink:href="$classcam_1_1nc_1_1nc_1_1Creator.html#a80f2134add83bfaaf2870d075d36ed8a" xlink:title=" ">
<polygon fill="white" stroke="#666666" points="354.5,-312.5 222.5,-312.5 222.5,-293.5 354.5,-293.5 354.5,-312.5"/>
<text text-anchor="middle" x="288.5" y="-300.5" font-family="Helvetica,sans-Serif" font-size="10.00">cam.nc.nc.Creator.write</text>
</a>
</g>
</g>
<!-- Node1&#45;&gt;Node25 -->
<g id="edge118_Node000001_Node000025" class="edge">
<title>Node1&#45;&gt;Node25</title>
<g id="a_edge118_Node000001_Node000025"><a xlink:title=" ">
<path fill="none" stroke="#63b8ff" d="M78,-581.26C84.17,-544.33 111.02,-411.41 187,-340 198.61,-329.08 213.72,-321.33 228.67,-315.84"/>
<polygon fill="#63b8ff" stroke="#63b8ff" points="230.08,-319.06 238.44,-312.56 227.85,-312.43 230.08,-319.06"/>
</a>
</g>
</g>
<!-- Node26 -->
<g id="Node000026" class="node">
<title>Node26</title>
<g id="a_Node000026"><a xlink:href="$classcam_1_1nc_1_1nclathe__read_1_1Parser.html#ab5ea283b461b57e48c8d5b0ad0a45694" xlink:title=" ">
<polygon fill="white" stroke="#666666" points="377.5,-257.5 199.5,-257.5 199.5,-238.5 377.5,-238.5 377.5,-257.5"/>
<text text-anchor="middle" x="288.5" y="-245.5" font-family="Helvetica,sans-Serif" font-size="10.00">cam.nc.nclathe_read.Parser.write</text>
</a>
</g>
</g>
<!-- Node1&#45;&gt;Node26 -->
<g id="edge120_Node000001_Node000026" class="edge">
<title>Node1&#45;&gt;Node26</title>
<g id="a_edge120_Node000001_Node000026"><a xlink:title=" ">
<path fill="none" stroke="#63b8ff" d="M77.13,-581.23C80.34,-539.48 98.41,-374.14 187,-285 197.91,-274.02 212.36,-266.27 226.88,-260.81"/>
<polygon fill="#63b8ff" stroke="#63b8ff" points="228.08,-264.09 236.4,-257.54 225.81,-257.47 228.08,-264.09"/>
</a>
</g>
</g>
<!-- Node27 -->
<g id="Node000027" class="node">
<title>Node27</title>
<g id="a_Node000027"><a xlink:href="$classcam_1_1nc_1_1recreator_1_1Redirector.html#a79cc974683588db3ef959189e7552c0d" xlink:title="Programs.">
<polygon fill="white" stroke="#666666" points="378,-202.5 199,-202.5 199,-183.5 378,-183.5 378,-202.5"/>
<text text-anchor="middle" x="288.5" y="-190.5" font-family="Helvetica,sans-Serif" font-size="10.00">cam.nc.recreator.Redirector.write</text>
</a>
</g>
</g>
<!-- Node1&#45;&gt;Node27 -->
<g id="edge122_Node000001_Node000027" class="edge">
<title>Node1&#45;&gt;Node27</title>
<g id="a_edge122_Node000001_Node000027"><a xlink:title=" ">
<path fill="none" stroke="#63b8ff" d="M76.51,-581.42C77.06,-535.69 85.44,-337.38 187,-230 197.33,-219.08 211.16,-211.37 225.24,-205.92"/>
<polygon fill="#63b8ff" stroke="#63b8ff" points="226.72,-209.12 235,-202.51 224.4,-202.51 226.72,-209.12"/>
</a>
</g>
</g>
<!-- Node28 -->
<g id="Node000028" class="node">
<title>Node28</title>
<g id="a_Node000028"><a xlink:href="$classcam_1_1nc_1_1format_1_1Address.html#aa21f0ffeb829537d9103759276c01a4b" xlink:title=" ">
<polygon fill="white" stroke="#666666" points="367.5,-165.5 209.5,-165.5 209.5,-146.5 367.5,-146.5 367.5,-165.5"/>
<text text-anchor="middle" x="288.5" y="-153.5" font-family="Helvetica,sans-Serif" font-size="10.00">cam.nc.format.Address.write</text>
</a>
</g>
</g>
<!-- Node1&#45;&gt;Node28 -->
<g id="edge124_Node000001_Node000028" class="edge">
<title>Node1&#45;&gt;Node28</title>
<g id="a_edge124_Node000001_Node000028"><a xlink:title=" ">
<path fill="none" stroke="#63b8ff" d="M77.69,-581.19C84.85,-523.94 123.93,-233.64 187,-175 190.88,-171.39 195.23,-168.36 199.87,-165.83"/>
<polygon fill="#63b8ff" stroke="#63b8ff" points="201.52,-168.93 209.14,-161.56 198.59,-162.57 201.52,-168.93"/>
</a>
</g>
</g>
<!-- Node39 -->
<g id="Node000039" class="node">
<title>Node39</title>
<g id="a_Node000039"><a xlink:href="$classcam_1_1nc_1_1format_1_1AddressPlusMinus.html#aaacea4c7b677f0a602dbc9023ff365d2" xlink:title=" ">
<polygon fill="white" stroke="#666666" points="363.5,-128 213.5,-128 213.5,-98 363.5,-98 363.5,-128"/>
<text text-anchor="start" x="221.5" y="-116" font-family="Helvetica,sans-Serif" font-size="10.00">cam.nc.format.AddressPlus</text>
<text text-anchor="middle" x="288.5" y="-105" font-family="Helvetica,sans-Serif" font-size="10.00">Minus.write</text>
</a>
</g>
</g>
<!-- Node1&#45;&gt;Node39 -->
<g id="edge137_Node000001_Node000039" class="edge">
<title>Node1&#45;&gt;Node39</title>
<g id="a_edge137_Node000001_Node000039"><a xlink:title=" ">
<path fill="none" stroke="#63b8ff" d="M77.51,-581.14C83.9,-520.94 120.46,-203.25 187,-137 191.95,-132.07 197.73,-128.08 203.96,-124.87"/>
<polygon fill="#63b8ff" stroke="#63b8ff" points="205.65,-127.94 213.37,-120.69 202.81,-121.55 205.65,-127.94"/>
</a>
</g>
</g>
<!-- Node8 -->
<g id="Node000008" class="node">
<title>Node8</title>
<g id="a_Node000008"><a xlink:href="$classcam_1_1nc_1_1anilam__crusader__m_1_1Creator.html#a36f873a0248bcaa4cf2cfb220dc1b00c" xlink:title="Codes.">
<polygon fill="white" stroke="#666666" points="586,-932 450,-932 450,-902 586,-902 586,-932"/>
<text text-anchor="start" x="458" y="-920" font-family="Helvetica,sans-Serif" font-size="10.00">cam.nc.anilam_crusader</text>
<text text-anchor="middle" x="518" y="-909" font-family="Helvetica,sans-Serif" font-size="10.00">_m.Creator.SPACE_STR</text>
</a>
</g>
</g>
<!-- Node7&#45;&gt;Node8 -->
<g id="edge99_Node000007_Node000008" class="edge">
<title>Node7&#45;&gt;Node8</title>
<g id="a_edge99_Node000007_Node000008"><a xlink:title=" ">
<path fill="none" stroke="#63b8ff" d="M359.06,-804.39C370.17,-807.46 380.97,-812.1 390,-819 419.06,-841.21 397.74,-869.78 426,-893 430.34,-896.57 435.15,-899.61 440.24,-902.2"/>
<polygon fill="#63b8ff" stroke="#63b8ff" points="439.08,-905.52 449.64,-906.4 441.93,-899.12 439.08,-905.52"/>
</a>
</g>
</g>
<!-- Node9 -->
<g id="Node000009" class="node">
<title>Node9</title>
<g id="a_Node000009"><a xlink:href="$classcam_1_1nc_1_1fadal_1_1Creator.html#a97a50724edf2662eb4fe76b15516b638" xlink:title="Codes.">
<polygon fill="white" stroke="#666666" points="606,-883.5 430,-883.5 430,-864.5 606,-864.5 606,-883.5"/>
<text text-anchor="middle" x="518" y="-871.5" font-family="Helvetica,sans-Serif" font-size="10.00">cam.nc.fadal.Creator.SPACE_STR</text>
</a>
</g>
</g>
<!-- Node7&#45;&gt;Node9 -->
<g id="edge100_Node000007_Node000009" class="edge">
<title>Node7&#45;&gt;Node9</title>
<g id="a_edge100_Node000007_Node000009"><a xlink:title=" ">
<path fill="none" stroke="#63b8ff" d="M359.26,-807.42C369.93,-810.17 380.54,-813.92 390,-819 410.21,-829.86 405.83,-845.06 426,-856 429.31,-857.8 432.77,-859.41 436.33,-860.87"/>
<polygon fill="#63b8ff" stroke="#63b8ff" points="435.36,-864.24 445.95,-864.37 437.75,-857.66 435.36,-864.24"/>
</a>
</g>
</g>
<!-- Node10 -->
<g id="Node000010" class="node">
<title>Node10</title>
<g id="a_Node000010"><a xlink:href="$classcam_1_1nc_1_1gravos_1_1Creator.html#ac0bc0d26e8a92a65c0f33d696ad850f5" xlink:title="Codes.">
<polygon fill="white" stroke="#666666" points="610,-846.5 426,-846.5 426,-827.5 610,-827.5 610,-846.5"/>
<text text-anchor="middle" x="518" y="-834.5" font-family="Helvetica,sans-Serif" font-size="10.00">cam.nc.gravos.Creator.SPACE_STR</text>
</a>
</g>
</g>
<!-- Node7&#45;&gt;Node10 -->
<g id="edge101_Node000007_Node000010" class="edge">
<title>Node7&#45;&gt;Node10</title>
<g id="a_edge101_Node000007_Node000010"><a xlink:title=" ">
<path fill="none" stroke="#63b8ff" d="M348.09,-809.53C378.62,-814.49 416.14,-820.6 448.07,-825.79"/>
<polygon fill="#63b8ff" stroke="#63b8ff" points="447.78,-829.29 458.22,-827.44 448.91,-822.38 447.78,-829.29"/>
</a>
</g>
</g>
<!-- Node11 -->
<g id="Node000011" class="node">
<title>Node11</title>
<g id="a_Node000011"><a xlink:href="$classcam_1_1nc_1_1iso_1_1Creator.html#aa481cf1e394988751640fd5ce5af991e" xlink:title="Codes.">
<polygon fill="white" stroke="#666666" points="600.5,-809.5 435.5,-809.5 435.5,-790.5 600.5,-790.5 600.5,-809.5"/>
<text text-anchor="middle" x="518" y="-797.5" font-family="Helvetica,sans-Serif" font-size="10.00">cam.nc.iso.Creator.SPACE_STR</text>
</a>
</g>
</g>
<!-- Node7&#45;&gt;Node11 -->
<g id="edge102_Node000007_Node000011" class="edge">
<title>Node7&#45;&gt;Node11</title>
<g id="a_edge102_Node000007_Node000011"><a xlink:title=" ">
<path fill="none" stroke="#63b8ff" d="M359.3,-800C380.14,-800 403.31,-800 425.33,-800"/>
<polygon fill="#63b8ff" stroke="#63b8ff" points="425.35,-803.5 435.35,-800 425.35,-796.5 425.35,-803.5"/>
</a>
</g>
</g>
<!-- Node12 -->
<g id="Node000012" class="node">
<title>Node12</title>
<g id="a_Node000012"><a xlink:href="$classcam_1_1nc_1_1lynx__otter__o_1_1Creator.html#a73b176561e066abcdb256a1bf53a5fcc" xlink:title="Codes.">
<polygon fill="white" stroke="#666666" points="596.5,-772 439.5,-772 439.5,-742 596.5,-742 596.5,-772"/>
<text text-anchor="start" x="447.5" y="-760" font-family="Helvetica,sans-Serif" font-size="10.00">cam.nc.lynx_otter_o.Creator.</text>
<text text-anchor="middle" x="518" y="-749" font-family="Helvetica,sans-Serif" font-size="10.00">SPACE_STR</text>
</a>
</g>
</g>
<!-- Node7&#45;&gt;Node12 -->
<g id="edge103_Node000007_Node000012" class="edge">
<title>Node7&#45;&gt;Node12</title>
<g id="a_edge103_Node000007_Node000012"><a xlink:title=" ">
<path fill="none" stroke="#63b8ff" d="M339.99,-790.46C366.22,-785.5 399.02,-779.3 429.24,-773.59"/>
<polygon fill="#63b8ff" stroke="#63b8ff" points="430.2,-776.97 439.38,-771.67 428.9,-770.09 430.2,-776.97"/>
</a>
</g>
</g>
<!-- Node13 -->
<g id="Node000013" class="node">
<title>Node13</title>
<g id="a_Node000013"><a xlink:href="$classcam_1_1nc_1_1mach3_1_1Creator.html#aa461d578afa76c5af9bb5562b79d955a" xlink:title="Codes.">
<polygon fill="white" stroke="#666666" points="610,-723.5 426,-723.5 426,-704.5 610,-704.5 610,-723.5"/>
<text text-anchor="middle" x="518" y="-711.5" font-family="Helvetica,sans-Serif" font-size="10.00">cam.nc.mach3.Creator.SPACE_STR</text>
</a>
</g>
</g>
<!-- Node7&#45;&gt;Node13 -->
<g id="edge104_Node000007_Node000013" class="edge">
<title>Node7&#45;&gt;Node13</title>
<g id="a_edge104_Node000007_Node000013"><a xlink:title=" ">
<path fill="none" stroke="#63b8ff" d="M359.07,-793.83C369.94,-790.94 380.66,-786.82 390,-781 412.63,-766.9 403.5,-747.31 426,-733 429.35,-730.87 432.9,-728.97 436.57,-727.28"/>
<polygon fill="#63b8ff" stroke="#63b8ff" points="437.97,-730.49 445.94,-723.5 435.35,-724 437.97,-730.49"/>
</a>
</g>
</g>
<!-- Node14 -->
<g id="Node000014" class="node">
<title>Node14</title>
<g id="a_Node000014"><a xlink:href="$classcam_1_1nc_1_1winpc_1_1Creator.html#aae1cb93a5dd430719105fa03a054f654" xlink:title="Codes.">
<polygon fill="white" stroke="#666666" points="607.5,-686.5 428.5,-686.5 428.5,-667.5 607.5,-667.5 607.5,-686.5"/>
<text text-anchor="middle" x="518" y="-674.5" font-family="Helvetica,sans-Serif" font-size="10.00">cam.nc.winpc.Creator.SPACE_STR</text>
</a>
</g>
</g>
<!-- Node7&#45;&gt;Node14 -->
<g id="edge105_Node000007_Node000014" class="edge">
<title>Node7&#45;&gt;Node14</title>
<g id="a_edge105_Node000007_Node000014"><a xlink:title=" ">
<path fill="none" stroke="#63b8ff" d="M359.11,-796.08C370.28,-792.96 381.08,-788.19 390,-781 421.94,-755.25 394.31,-722.05 426,-696 428.02,-694.34 430.15,-692.82 432.36,-691.41"/>
<polygon fill="#63b8ff" stroke="#63b8ff" points="434.14,-694.43 441.28,-686.6 430.82,-688.27 434.14,-694.43"/>
</a>
</g>
</g>
<!-- Node22&#45;&gt;Node22 -->
<g id="edge114_Node000022_Node000022" class="edge">
<title>Node22&#45;&gt;Node22</title>
<g id="a_edge114_Node000022_Node000022"><a xlink:title=" ">
<path fill="none" stroke="#63b8ff" d="M255.82,-459.58C239.93,-468.23 250.82,-477.5 288.5,-477.5 315.58,-477.5 328.83,-472.71 328.23,-466.81"/>
<polygon fill="#63b8ff" stroke="#63b8ff" points="330.67,-464.29 321.18,-459.58 325.66,-469.18 330.67,-464.29"/>
</a>
</g>
</g>
<!-- Node23&#45;&gt;Node23 -->
<g id="edge116_Node000023_Node000023" class="edge">
<title>Node23&#45;&gt;Node23</title>
<g id="a_edge116_Node000023_Node000023"><a xlink:title=" ">
<path fill="none" stroke="#63b8ff" d="M255.82,-404.58C239.93,-413.23 250.82,-422.5 288.5,-422.5 315.58,-422.5 328.83,-417.71 328.23,-411.81"/>
<polygon fill="#63b8ff" stroke="#63b8ff" points="330.67,-409.29 321.18,-404.58 325.66,-414.18 330.67,-409.29"/>
</a>
</g>
</g>
<!-- Node25&#45;&gt;Node25 -->
<g id="edge119_Node000025_Node000025" class="edge">
<title>Node25&#45;&gt;Node25</title>
<g id="a_edge119_Node000025_Node000025"><a xlink:title=" ">
<path fill="none" stroke="#63b8ff" d="M255.82,-312.58C239.93,-321.23 250.82,-330.5 288.5,-330.5 315.58,-330.5 328.83,-325.71 328.23,-319.81"/>
<polygon fill="#63b8ff" stroke="#63b8ff" points="330.67,-317.29 321.18,-312.58 325.66,-322.18 330.67,-317.29"/>
</a>
</g>
</g>
<!-- Node26&#45;&gt;Node26 -->
<g id="edge121_Node000026_Node000026" class="edge">
<title>Node26&#45;&gt;Node26</title>
<g id="a_edge121_Node000026_Node000026"><a xlink:title=" ">
<path fill="none" stroke="#63b8ff" d="M255.82,-257.58C239.93,-266.23 250.82,-275.5 288.5,-275.5 315.58,-275.5 328.83,-270.71 328.23,-264.81"/>
<polygon fill="#63b8ff" stroke="#63b8ff" points="330.67,-262.29 321.18,-257.58 325.66,-267.18 330.67,-262.29"/>
</a>
</g>
</g>
<!-- Node27&#45;&gt;Node27 -->
<g id="edge123_Node000027_Node000027" class="edge">
<title>Node27&#45;&gt;Node27</title>
<g id="a_edge123_Node000027_Node000027"><a xlink:title=" ">
<path fill="none" stroke="#63b8ff" d="M255.82,-202.58C239.93,-211.23 250.82,-220.5 288.5,-220.5 315.58,-220.5 328.83,-215.71 328.23,-209.81"/>
<polygon fill="#63b8ff" stroke="#63b8ff" points="330.67,-207.29 321.18,-202.58 325.66,-212.18 330.67,-207.29"/>
</a>
</g>
</g>
<!-- Node29 -->
<g id="Node000029" class="node">
<title>Node29</title>
<g id="a_Node000029"><a xlink:href="$classcam_1_1async__op_1_1AsyncOperatorMixin.html#a9628cbca8e69ec75b2337171a02bf428" xlink:title=" ">
<polygon fill="white" stroke="#666666" points="598.5,-150 437.5,-150 437.5,-120 598.5,-120 598.5,-150"/>
<text text-anchor="start" x="445.5" y="-138" font-family="Helvetica,sans-Serif" font-size="10.00">cam.async_op.AsyncOperator</text>
<text text-anchor="middle" x="518" y="-127" font-family="Helvetica,sans-Serif" font-size="10.00">Mixin.modal</text>
</a>
</g>
</g>
<!-- Node28&#45;&gt;Node29 -->
<g id="edge125_Node000028_Node000029" class="edge">
<title>Node28&#45;&gt;Node29</title>
<g id="a_edge125_Node000028_Node000029"><a xlink:title=" ">
<path fill="none" stroke="#63b8ff" d="M367.79,-148.77C386.95,-147 407.59,-145.1 427.24,-143.29"/>
<polygon fill="#63b8ff" stroke="#63b8ff" points="427.77,-146.75 437.4,-142.35 427.12,-139.78 427.77,-146.75"/>
</a>
</g>
</g>
<!-- Node30 -->
<g id="Node000030" class="node">
<title>Node30</title>
<g id="a_Node000030"><a xlink:href="$classcam_1_1async__op_1_1AsyncOperatorMixin.html#a15a51cfd69d8e453e2e3d64386b1ebe3" xlink:title=" ">
<polygon fill="white" stroke="#666666" points="807,-150 646,-150 646,-120 807,-120 807,-150"/>
<text text-anchor="start" x="654" y="-138" font-family="Helvetica,sans-Serif" font-size="10.00">cam.async_op.AsyncOperator</text>
<text text-anchor="middle" x="726.5" y="-127" font-family="Helvetica,sans-Serif" font-size="10.00">Mixin.tick</text>
</a>
</g>
</g>
<!-- Node29&#45;&gt;Node30 -->
<g id="edge126_Node000029_Node000030" class="edge">
<title>Node29&#45;&gt;Node30</title>
<g id="a_edge126_Node000029_Node000030"><a xlink:title=" ">
<path fill="none" stroke="#63b8ff" d="M598.54,-135C610.7,-135 623.33,-135 635.69,-135"/>
<polygon fill="#63b8ff" stroke="#63b8ff" points="636,-138.5 646,-135 636,-131.5 636,-138.5"/>
</a>
</g>
</g>
<!-- Node31 -->
<g id="Node000031" class="node">
<title>Node31</title>
<g id="a_Node000031"><a xlink:href="$classcam_1_1async__op_1_1AsyncTestOperator.html#a42606ca890a957aa7070a4bc6f25228b" xlink:title=" ">
<polygon fill="white" stroke="#666666" points="1064,-270 843,-270 843,-240 1064,-240 1064,-270"/>
<text text-anchor="start" x="851" y="-258" font-family="Helvetica,sans-Serif" font-size="10.00">cam.async_op.AsyncTestOperator.execute</text>
<text text-anchor="middle" x="953.5" y="-247" font-family="Helvetica,sans-Serif" font-size="10.00">_async</text>
</a>
</g>
</g>
<!-- Node30&#45;&gt;Node31 -->
<g id="edge127_Node000030_Node000031" class="edge">
<title>Node30&#45;&gt;Node31</title>
<g id="a_edge127_Node000030_Node000031"><a xlink:title=" ">
<path fill="none" stroke="#63b8ff" d="M741.18,-150.27C761.31,-171.74 801.07,-210.51 843,-231 847.09,-233 851.35,-234.84 855.72,-236.52"/>
<polygon fill="#63b8ff" stroke="#63b8ff" points="854.81,-239.91 865.41,-239.97 857.16,-233.32 854.81,-239.91"/>
</a>
</g>
</g>
<!-- Node32 -->
<g id="Node000032" class="node">
<title>Node32</title>
<g id="a_Node000032"><a xlink:href="$classcam_1_1ops_1_1CalculatePath.html#a13dfe2f8578383234e74e58e2f292e1b" xlink:title=" ">
<polygon fill="white" stroke="#666666" points="1038,-222 869,-222 869,-192 1038,-192 1038,-222"/>
<text text-anchor="start" x="877" y="-210" font-family="Helvetica,sans-Serif" font-size="10.00">cam.ops.CalculatePath.execute</text>
<text text-anchor="middle" x="953.5" y="-199" font-family="Helvetica,sans-Serif" font-size="10.00">_async</text>
</a>
</g>
</g>
<!-- Node30&#45;&gt;Node32 -->
<g id="edge128_Node000030_Node000032" class="edge">
<title>Node30&#45;&gt;Node32</title>
<g id="a_edge128_Node000030_Node000032"><a xlink:title=" ">
<path fill="none" stroke="#63b8ff" d="M759.29,-150.01C782.18,-160.38 814,-173.88 843,-183 850.31,-185.3 857.96,-187.46 865.68,-189.47"/>
<polygon fill="#63b8ff" stroke="#63b8ff" points="864.91,-192.89 875.46,-191.93 866.62,-186.1 864.91,-192.89"/>
</a>
</g>
</g>
<!-- Node34 -->
<g id="Node000034" class="node">
<title>Node34</title>
<g id="a_Node000034"><a xlink:href="$classcam_1_1ops_1_1PathsChain.html#a6fc64e383ccf724b2325e18a82d53eae" xlink:title=" ">
<polygon fill="white" stroke="#666666" points="1031.5,-174 875.5,-174 875.5,-144 1031.5,-144 1031.5,-174"/>
<text text-anchor="start" x="883.5" y="-162" font-family="Helvetica,sans-Serif" font-size="10.00">cam.ops.PathsChain.execute</text>
<text text-anchor="middle" x="953.5" y="-151" font-family="Helvetica,sans-Serif" font-size="10.00">_async</text>
</a>
</g>
</g>
<!-- Node30&#45;&gt;Node34 -->
<g id="edge130_Node000030_Node000034" class="edge">
<title>Node30&#45;&gt;Node34</title>
<g id="a_edge130_Node000030_Node000034"><a xlink:title=" ">
<path fill="none" stroke="#63b8ff" d="M807.14,-143.5C825.9,-145.5 845.98,-147.64 865.06,-149.67"/>
<polygon fill="#63b8ff" stroke="#63b8ff" points="864.92,-153.18 875.23,-150.76 865.66,-146.22 864.92,-153.18"/>
</a>
</g>
</g>
<!-- Node36 -->
<g id="Node000036" class="node">
<title>Node36</title>
<g id="a_Node000036"><a xlink:href="$classcam_1_1ops_1_1CAMSimulate.html#a633151f17849d281fd52ce82c00356a7" xlink:title=" ">
<polygon fill="white" stroke="#666666" points="1037.5,-126 869.5,-126 869.5,-96 1037.5,-96 1037.5,-126"/>
<text text-anchor="start" x="877.5" y="-114" font-family="Helvetica,sans-Serif" font-size="10.00">cam.ops.CAMSimulate.execute</text>
<text text-anchor="middle" x="953.5" y="-103" font-family="Helvetica,sans-Serif" font-size="10.00">_async</text>
</a>
</g>
</g>
<!-- Node30&#45;&gt;Node36 -->
<g id="edge133_Node000030_Node000036" class="edge">
<title>Node30&#45;&gt;Node36</title>
<g id="a_edge133_Node000030_Node000036"><a xlink:title=" ">
<path fill="none" stroke="#63b8ff" d="M807.14,-126.5C823.95,-124.71 841.82,-122.81 859.08,-120.97"/>
<polygon fill="#63b8ff" stroke="#63b8ff" points="859.58,-124.43 869.15,-119.89 858.84,-117.47 859.58,-124.43"/>
</a>
</g>
</g>
<!-- Node37 -->
<g id="Node000037" class="node">
<title>Node37</title>
<g id="a_Node000037"><a xlink:href="$classcam_1_1ops_1_1CAMSimulateChain.html#a1e77c7ce21b3b7e3e38a12b6b62517e9" xlink:title=" ">
<polygon fill="white" stroke="#666666" points="1051.5,-78 855.5,-78 855.5,-48 1051.5,-48 1051.5,-78"/>
<text text-anchor="start" x="863.5" y="-66" font-family="Helvetica,sans-Serif" font-size="10.00">cam.ops.CAMSimulateChain.execute</text>
<text text-anchor="middle" x="953.5" y="-55" font-family="Helvetica,sans-Serif" font-size="10.00">_async</text>
</a>
</g>
</g>
<!-- Node30&#45;&gt;Node37 -->
<g id="edge134_Node000030_Node000037" class="edge">
<title>Node30&#45;&gt;Node37</title>
<g id="a_edge134_Node000030_Node000037"><a xlink:title=" ">
<path fill="none" stroke="#63b8ff" d="M759.29,-119.99C782.18,-109.62 814,-96.12 843,-87 850.31,-84.7 857.96,-82.54 865.68,-80.53"/>
<polygon fill="#63b8ff" stroke="#63b8ff" points="866.62,-83.9 875.46,-78.07 864.91,-77.11 866.62,-83.9"/>
</a>
</g>
</g>
<!-- Node38 -->
<g id="Node000038" class="node">
<title>Node38</title>
<g id="a_Node000038"><a xlink:href="$classcam_1_1async__op_1_1AsyncOperatorMixin.html#a2216ff6bb0dfd132f4ec4cf79b7cba2b" xlink:title=" ">
<polygon fill="white" stroke="#666666" points="1034,-30 873,-30 873,0 1034,0 1034,-30"/>
<text text-anchor="start" x="881" y="-18" font-family="Helvetica,sans-Serif" font-size="10.00">cam.async_op.AsyncOperator</text>
<text text-anchor="middle" x="953.5" y="-7" font-family="Helvetica,sans-Serif" font-size="10.00">Mixin.show_progress</text>
</a>
</g>
</g>
<!-- Node30&#45;&gt;Node38 -->
<g id="edge136_Node000030_Node000038" class="edge">
<title>Node30&#45;&gt;Node38</title>
<g id="a_edge136_Node000030_Node000038"><a xlink:title=" ">
<path fill="none" stroke="#63b8ff" d="M741.18,-119.73C761.31,-98.26 801.07,-59.49 843,-39 849.43,-35.86 856.27,-33.12 863.28,-30.74"/>
<polygon fill="#63b8ff" stroke="#63b8ff" points="864.42,-34.05 872.91,-27.71 862.32,-27.37 864.42,-34.05"/>
</a>
</g>
</g>
<!-- Node33 -->
<g id="Node000033" class="node">
<title>Node33</title>
<g id="a_Node000033"><a xlink:href="$namespacecam_1_1ops.html#aa8e95f7410a7ceb178db48f4f8c2d995" xlink:title=" ">
<polygon fill="white" stroke="#666666" points="1235.5,-192.5 1122.5,-192.5 1122.5,-173.5 1235.5,-173.5 1235.5,-192.5"/>
<text text-anchor="middle" x="1179" y="-180.5" font-family="Helvetica,sans-Serif" font-size="10.00">cam.ops._calc_path</text>
</a>
</g>
</g>
<!-- Node32&#45;&gt;Node33 -->
<g id="edge129_Node000032_Node000033" class="edge">
<title>Node32&#45;&gt;Node33</title>
<g id="a_edge129_Node000032_Node000033"><a xlink:title=" ">
<path fill="none" stroke="#63b8ff" d="M1038.04,-198.03C1062.56,-195.4 1089.01,-192.56 1112.25,-190.06"/>
<polygon fill="#63b8ff" stroke="#63b8ff" points="1112.77,-193.52 1122.34,-188.98 1112.03,-186.56 1112.77,-193.52"/>
</a>
</g>
</g>
<!-- Node34&#45;&gt;Node33 -->
<g id="edge131_Node000034_Node000033" class="edge">
<title>Node34&#45;&gt;Node33</title>
<g id="a_edge131_Node000034_Node000033"><a xlink:title=" ">
<path fill="none" stroke="#63b8ff" d="M1031.73,-167.29C1057.9,-170.1 1086.87,-173.21 1112.08,-175.92"/>
<polygon fill="#63b8ff" stroke="#63b8ff" points="1111.95,-179.43 1122.27,-177.02 1112.7,-172.47 1111.95,-179.43"/>
</a>
</g>
</g>
<!-- Node35 -->
<g id="Node000035" class="node">
<title>Node35</title>
<g id="a_Node000035"><a xlink:href="$namespacecam_1_1ops.html#ab55fb8ec9a00e021e8e4a1c3ecc97cb4" xlink:title=" ">
<polygon fill="white" stroke="#666666" points="1258,-126.5 1100,-126.5 1100,-107.5 1258,-107.5 1258,-126.5"/>
<text text-anchor="middle" x="1179" y="-114.5" font-family="Helvetica,sans-Serif" font-size="10.00">cam.ops.getChainOperations</text>
</a>
</g>
</g>
<!-- Node34&#45;&gt;Node35 -->
<g id="edge132_Node000034_Node000035" class="edge">
<title>Node34&#45;&gt;Node35</title>
<g id="a_edge132_Node000034_Node000035"><a xlink:title=" ">
<path fill="none" stroke="#63b8ff" d="M1031.73,-144.49C1059.81,-139.21 1091.12,-133.33 1117.54,-128.36"/>
<polygon fill="#63b8ff" stroke="#63b8ff" points="1118.23,-131.79 1127.41,-126.51 1116.94,-124.91 1118.23,-131.79"/>
</a>
</g>
</g>
<!-- Node37&#45;&gt;Node35 -->
<g id="edge135_Node000037_Node000035" class="edge">
<title>Node37&#45;&gt;Node35</title>
<g id="a_edge135_Node000037_Node000035"><a xlink:title=" ">
<path fill="none" stroke="#63b8ff" d="M1025.28,-78.06C1038.19,-80.94 1051.51,-83.99 1064,-87 1086.91,-92.52 1112.28,-99.15 1133.25,-104.77"/>
<polygon fill="#63b8ff" stroke="#63b8ff" points="1132.6,-108.21 1143.17,-107.43 1134.42,-101.45 1132.6,-108.21"/>
</a>
</g>
</g>
<!-- Node39&#45;&gt;Node29 -->
<g id="edge138_Node000039_Node000029" class="edge">
<title>Node39&#45;&gt;Node29</title>
<g id="a_edge138_Node000039_Node000029"><a xlink:title=" ">
<path fill="none" stroke="#63b8ff" d="M363.68,-120.17C383.96,-122.13 406.16,-124.28 427.21,-126.32"/>
<polygon fill="#63b8ff" stroke="#63b8ff" points="427.14,-129.83 437.44,-127.31 427.82,-122.86 427.14,-129.83"/>
</a>
</g>
</g>
</g>
</svg>
