<?xml version="1.0" encoding="UTF-8" standalone="no"?>
<!DOCTYPE svg PUBLIC "-//W3C//DTD SVG 1.1//EN"
 "http://www.w3.org/Graphics/SVG/1.1/DTD/svg11.dtd">
<!-- Generated by graphviz version 2.43.0 (0)
 -->
<!-- Title: cam.ops.CamChainAdd Pages: 1 -->
<svg width="132pt" height="187pt"
 viewBox="0.00 0.00 132.00 187.00" xmlns="http://www.w3.org/2000/svg" xmlns:xlink="http://www.w3.org/1999/xlink">
<g id="graph0" class="graph" transform="scale(1 1) rotate(0) translate(4 183)">
<title>cam.ops.CamChainAdd</title>
<!-- Node1 -->
<g id="Node000001" class="node">
<title>Node1</title>
<g id="a_Node000001"><a xlink:title=" ">
<polygon fill="#999999" stroke="transparent" points="124,-94 0,-94 0,0 124,0 124,-94"/>
<text text-anchor="start" x="5" y="-82" font-family="Helvetica,sans-Serif" font-size="10.00">cam.ops.CamChainAdd</text>
<text text-anchor="start" x="16.5" y="-67" font-family="Helvetica,sans-Serif" font-size="10.00">+</text>
<text text-anchor="start" x="42" y="-67" font-family="Helvetica,sans-Serif" font-size="10.00">bl_idname</text>
<text text-anchor="start" x="16.5" y="-52" font-family="Helvetica,sans-Serif" font-size="10.00">+</text>
<text text-anchor="start" x="42" y="-52" font-family="Helvetica,sans-Serif" font-size="10.00">bl_label</text>
<text text-anchor="start" x="16.5" y="-37" font-family="Helvetica,sans-Serif" font-size="10.00">+</text>
<text text-anchor="start" x="42" y="-37" font-family="Helvetica,sans-Serif" font-size="10.00">bl_options</text>
<text text-anchor="start" x="16.5" y="-22" font-family="Helvetica,sans-Serif" font-size="10.00">+</text>
<text text-anchor="start" x="42" y="-22" font-family="Helvetica,sans-Serif" font-size="10.00">poll()</text>
<text text-anchor="start" x="16.5" y="-7" font-family="Helvetica,sans-Serif" font-size="10.00">+</text>
<text text-anchor="start" x="42" y="-7" font-family="Helvetica,sans-Serif" font-size="10.00">execute()</text>
<polygon fill="#666666" stroke="#666666" points="0,-77 0,-77 124,-77 124,-77 0,-77"/>
<polygon fill="#666666" stroke="#666666" points="0,-32 0,-32 40,-32 40,-32 0,-32"/>
<polygon fill="#666666" stroke="#666666" points="40,-32 40,-32 124,-32 124,-32 40,-32"/>
<polygon fill="none" stroke="#666666" points="0,0 0,-94 124,-94 124,0 0,0"/>
</a>
</g>
</g>
<!-- Node2 -->
<g id="Node000002" class="node">
<title>Node2</title>
<g id="a_Node000002"><a xlink:title=" ">
<polygon fill="white" stroke="transparent" points="88.5,-179 35.5,-179 35.5,-130 88.5,-130 88.5,-179"/>
<text text-anchor="start" x="41" y="-166.5" font-family="Helvetica,sans-Serif" font-size="10.00">Operator</text>
<text text-anchor="start" x="60.5" y="-151.5" font-family="Helvetica,sans-Serif" font-size="10.00"> </text>
<text text-anchor="start" x="60.5" y="-136.5" font-family="Helvetica,sans-Serif" font-size="10.00"> </text>
<polygon fill="#666666" stroke="#666666" points="36,-161.5 36,-161.5 89,-161.5 89,-161.5 36,-161.5"/>
<polygon fill="#666666" stroke="#666666" points="36,-146.5 36,-146.5 89,-146.5 89,-146.5 36,-146.5"/>
<polygon fill="none" stroke="#666666" points="35.5,-130 35.5,-179 88.5,-179 88.5,-130 35.5,-130"/>
</a>
</g>
</g>
<!-- Node2&#45;&gt;Node1 -->
<g id="edge3_Node000001_Node000002" class="edge">
<title>Node2&#45;&gt;Node1</title>
<g id="a_edge3_Node000001_Node000002"><a xlink:title=" ">
<path fill="none" stroke="#63b8ff" d="M62,-119.61C62,-111.48 62,-102.66 62,-94.08"/>
<polygon fill="none" stroke="#63b8ff" points="58.5,-119.82 62,-129.82 65.5,-119.82 58.5,-119.82"/>
</a>
</g>
</g>
</g>
</svg>
