<?xml version="1.0" encoding="UTF-8" standalone="no"?>
<!DOCTYPE svg PUBLIC "-//W3C//DTD SVG 1.1//EN"
 "http://www.w3.org/Graphics/SVG/1.1/DTD/svg11.dtd">
<!-- Generated by graphviz version 2.43.0 (0)
 -->
<!-- Title: cam.nc.iso.Creator.quadrant_end Pages: 1 -->
<svg width="394pt" height="86pt"
 viewBox="0.00 0.00 394.00 86.00" xmlns="http://www.w3.org/2000/svg" xmlns:xlink="http://www.w3.org/1999/xlink">
<g id="graph0" class="graph" transform="scale(1 1) rotate(0) translate(4 82)">
<title>cam.nc.iso.Creator.quadrant_end</title>
<!-- Node1 -->
<g id="Node000001" class="node">
<title>Node1</title>
<g id="a_Node000001"><a xlink:title=" ">
<polygon fill="#999999" stroke="#666666" points="177,-48.5 0,-48.5 0,-29.5 177,-29.5 177,-48.5"/>
<text text-anchor="middle" x="88.5" y="-36.5" font-family="Helvetica,sans-Serif" font-size="10.00">cam.nc.iso.Creator.quadrant_end</text>
</a>
</g>
</g>
<!-- Node2 -->
<g id="Node000002" class="node">
<title>Node2</title>
<g id="a_Node000002"><a xlink:href="$classcam_1_1nc_1_1heiden_1_1Creator.html#aa1397eef1123a98b8c1a29b95a0feca3" xlink:title=" ">
<polygon fill="white" stroke="#666666" points="386,-78 213,-78 213,-48 386,-48 386,-78"/>
<text text-anchor="start" x="221" y="-66" font-family="Helvetica,sans-Serif" font-size="10.00">cam.nc.heiden.Creator.quadrant</text>
<text text-anchor="middle" x="299.5" y="-55" font-family="Helvetica,sans-Serif" font-size="10.00">_start</text>
</a>
</g>
</g>
<!-- Node1&#45;&gt;Node2 -->
<g id="edge5_Node000001_Node000002" class="edge">
<title>Node1&#45;&gt;Node2</title>
<g id="a_edge5_Node000001_Node000002"><a xlink:title=" ">
<path fill="none" stroke="#63b8ff" d="M172.4,-48.52C182.4,-49.67 192.68,-50.85 202.84,-52.02"/>
<polygon fill="#63b8ff" stroke="#63b8ff" points="202.62,-55.51 212.96,-53.18 203.42,-48.56 202.62,-55.51"/>
</a>
</g>
</g>
<!-- Node3 -->
<g id="Node000003" class="node">
<title>Node3</title>
<g id="a_Node000003"><a xlink:href="$classcam_1_1nc_1_1iso_1_1Creator.html#aacc459d91d8bf1903156fa9974629267" xlink:title=" ">
<polygon fill="white" stroke="#666666" points="376.5,-30 222.5,-30 222.5,0 376.5,0 376.5,-30"/>
<text text-anchor="start" x="230.5" y="-18" font-family="Helvetica,sans-Serif" font-size="10.00">cam.nc.iso.Creator.quadrant</text>
<text text-anchor="middle" x="299.5" y="-7" font-family="Helvetica,sans-Serif" font-size="10.00">_start</text>
</a>
</g>
</g>
<!-- Node1&#45;&gt;Node3 -->
<g id="edge6_Node000001_Node000003" class="edge">
<title>Node1&#45;&gt;Node3</title>
<g id="a_edge6_Node000001_Node000003"><a xlink:title=" ">
<path fill="none" stroke="#63b8ff" d="M172.4,-29.48C185.57,-27.97 199.22,-26.4 212.46,-24.88"/>
<polygon fill="#63b8ff" stroke="#63b8ff" points="212.95,-28.35 222.49,-23.73 212.15,-21.39 212.95,-28.35"/>
</a>
</g>
</g>
</g>
</svg>
