<?xml version="1.0" encoding="UTF-8" standalone="no"?>
<!DOCTYPE svg PUBLIC "-//W3C//DTD SVG 1.1//EN"
 "http://www.w3.org/Graphics/SVG/1.1/DTD/svg11.dtd">
<!-- Generated by graphviz version 2.43.0 (0)
 -->
<!-- Title: cam.engine.CNCCAM_ENGINE Pages: 1 -->
<svg width="318pt" height="164pt"
 viewBox="0.00 0.00 318.00 164.00" xmlns="http://www.w3.org/2000/svg" xmlns:xlink="http://www.w3.org/1999/xlink">
<g id="graph0" class="graph" transform="scale(1 1) rotate(0) translate(4 160)">
<title>cam.engine.CNCCAM_ENGINE</title>
<!-- Node1 -->
<g id="Node000001" class="node">
<title>Node1</title>
<g id="a_Node000001"><a xlink:title=" ">
<polygon fill="#999999" stroke="transparent" points="186.5,-49 29.5,-49 29.5,0 186.5,0 186.5,-49"/>
<text text-anchor="start" x="35" y="-36.5" font-family="Helvetica,sans-Serif" font-size="10.00">cam.engine.CNCCAM_ENGINE</text>
<text text-anchor="start" x="106.5" y="-21.5" font-family="Helvetica,sans-Serif" font-size="10.00"> </text>
<text text-anchor="start" x="106.5" y="-6.5" font-family="Helvetica,sans-Serif" font-size="10.00"> </text>
<polygon fill="#666666" stroke="#666666" points="30,-31.5 30,-31.5 187,-31.5 187,-31.5 30,-31.5"/>
<polygon fill="#666666" stroke="#666666" points="30,-16.5 30,-16.5 187,-16.5 187,-16.5 30,-16.5"/>
<polygon fill="none" stroke="#666666" points="29.5,0 29.5,-49 186.5,-49 186.5,0 29.5,0"/>
</a>
</g>
</g>
<!-- Node2 -->
<g id="Node000002" class="node">
<title>Node2</title>
<g id="a_Node000002"><a xlink:title=" ">
<polygon fill="white" stroke="transparent" points="78,-156 0,-156 0,-107 78,-107 78,-156"/>
<text text-anchor="start" x="5" y="-143.5" font-family="Helvetica,sans-Serif" font-size="10.00">RenderEngine</text>
<text text-anchor="start" x="37" y="-128.5" font-family="Helvetica,sans-Serif" font-size="10.00"> </text>
<text text-anchor="start" x="37" y="-113.5" font-family="Helvetica,sans-Serif" font-size="10.00"> </text>
<polygon fill="#666666" stroke="#666666" points="0,-138.5 0,-138.5 78,-138.5 78,-138.5 0,-138.5"/>
<polygon fill="#666666" stroke="#666666" points="0,-123.5 0,-123.5 78,-123.5 78,-123.5 0,-123.5"/>
<polygon fill="none" stroke="#666666" points="0,-107 0,-156 78,-156 78,-107 0,-107"/>
</a>
</g>
</g>
<!-- Node2&#45;&gt;Node1 -->
<g id="edge7_Node000001_Node000002" class="edge">
<title>Node2&#45;&gt;Node1</title>
<g id="a_edge7_Node000001_Node000002"><a xlink:title=" ">
<path fill="none" stroke="#63b8ff" d="M60.03,-98.49C70.43,-82.67 82.77,-63.89 92.33,-49.35"/>
<polygon fill="none" stroke="#63b8ff" points="57.05,-96.66 54.48,-106.94 62.9,-100.5 57.05,-96.66"/>
</a>
</g>
</g>
<!-- Node3 -->
<g id="Node000003" class="node">
<title>Node3</title>
<g id="a_Node000003"><a xlink:title=" ">
<polygon fill="white" stroke="transparent" points="119.5,-156 96.5,-156 96.5,-107 119.5,-107 119.5,-156"/>
<text text-anchor="start" x="102" y="-143.5" font-family="Helvetica,sans-Serif" font-size="10.00">str</text>
<text text-anchor="start" x="106.5" y="-128.5" font-family="Helvetica,sans-Serif" font-size="10.00"> </text>
<text text-anchor="start" x="106.5" y="-113.5" font-family="Helvetica,sans-Serif" font-size="10.00"> </text>
<polygon fill="#666666" stroke="#666666" points="97,-138.5 97,-138.5 120,-138.5 120,-138.5 97,-138.5"/>
<polygon fill="#666666" stroke="#666666" points="97,-123.5 97,-123.5 120,-123.5 120,-123.5 97,-123.5"/>
<polygon fill="none" stroke="#666666" points="96.5,-107 96.5,-156 119.5,-156 119.5,-107 96.5,-107"/>
</a>
</g>
</g>
<!-- Node3&#45;&gt;Node1 -->
<g id="edge8_Node000001_Node000003" class="edge">
<title>Node3&#45;&gt;Node1</title>
<g id="a_edge8_Node000001_Node000003"><a xlink:title=" ">
<path fill="none" stroke="#63b8ff" d="M108,-106.94C108,-93.52 108,-76.44 108,-61.39"/>
<polygon fill="none" stroke="#63b8ff" points="108,-61.35 104,-55.35 108,-49.35 112,-55.35 108,-61.35"/>
</a>
</g>
<text text-anchor="middle" x="139.5" y="-81" font-family="Helvetica,sans-Serif" font-size="10.00" fill="grey"> +bl_idname</text>
<text text-anchor="middle" x="139.5" y="-70" font-family="Helvetica,sans-Serif" font-size="10.00" fill="grey">+bl_label</text>
</g>
<!-- Node4 -->
<g id="Node000004" class="node">
<title>Node4</title>
<g id="a_Node000004"><a xlink:title=" ">
<polygon fill="white" stroke="transparent" points="210,-156 178,-156 178,-107 210,-107 210,-156"/>
<text text-anchor="start" x="183" y="-143.5" font-family="Helvetica,sans-Serif" font-size="10.00">bool</text>
<text text-anchor="start" x="192" y="-128.5" font-family="Helvetica,sans-Serif" font-size="10.00"> </text>
<text text-anchor="start" x="192" y="-113.5" font-family="Helvetica,sans-Serif" font-size="10.00"> </text>
<polygon fill="#666666" stroke="#666666" points="178,-138.5 178,-138.5 210,-138.5 210,-138.5 178,-138.5"/>
<polygon fill="#666666" stroke="#666666" points="178,-123.5 178,-123.5 210,-123.5 210,-123.5 178,-123.5"/>
<polygon fill="none" stroke="#666666" points="178,-107 178,-156 210,-156 210,-107 178,-107"/>
</a>
</g>
</g>
<!-- Node4&#45;&gt;Node1 -->
<g id="edge9_Node000001_Node000004" class="edge">
<title>Node4&#45;&gt;Node1</title>
<g id="a_edge9_Node000001_Node000004"><a xlink:title=" ">
<path fill="none" stroke="#63b8ff" d="M189.76,-106.96C186.54,-94.14 181.07,-78.57 172,-67 169.1,-63.29 165.77,-59.82 162.18,-56.58"/>
<polygon fill="none" stroke="#63b8ff" points="162.18,-56.57 155,-55.9 152.85,-49.02 160.03,-49.69 162.18,-56.57"/>
</a>
</g>
<text text-anchor="middle" x="246.5" y="-75.5" font-family="Helvetica,sans-Serif" font-size="10.00" fill="grey"> +bl_use_eevee_viewport</text>
</g>
</g>
</svg>
