<?xml version="1.0" encoding="UTF-8" standalone="no"?>
<!DOCTYPE svg PUBLIC "-//W3C//DTD SVG 1.1//EN"
 "http://www.w3.org/Graphics/SVG/1.1/DTD/svg11.dtd">
<!-- Generated by graphviz version 2.43.0 (0)
 -->
<!-- Title: cam.voronoi.Context.getClipEdges Pages: 1 -->
<svg width="362pt" height="64pt"
 viewBox="0.00 0.00 362.00 64.00" xmlns="http://www.w3.org/2000/svg" xmlns:xlink="http://www.w3.org/1999/xlink">
<g id="graph0" class="graph" transform="scale(1 1) rotate(0) translate(4 60)">
<title>cam.voronoi.Context.getClipEdges</title>
<!-- Node1 -->
<g id="Node000001" class="node">
<title>Node1</title>
<g id="a_Node000001"><a xlink:title="Clip functions########.">
<polygon fill="#999999" stroke="#666666" points="156,-42.5 0,-42.5 0,-12.5 156,-12.5 156,-42.5"/>
<text text-anchor="start" x="8" y="-30.5" font-family="Helvetica,sans-Serif" font-size="10.00">cam.voronoi.Context.getClip</text>
<text text-anchor="middle" x="78" y="-19.5" font-family="Helvetica,sans-Serif" font-size="10.00">Edges</text>
</a>
</g>
</g>
<!-- Node2 -->
<g id="Node000002" class="node">
<title>Node2</title>
<g id="a_Node000002"><a xlink:href="$classcam_1_1voronoi_1_1Context.html#ac17a9b09895f8a8613139081b39451ba" xlink:title=" ">
<polygon fill="white" stroke="#666666" points="352.5,-56 193.5,-56 193.5,-37 352.5,-37 352.5,-56"/>
<text text-anchor="middle" x="273" y="-44" font-family="Helvetica,sans-Serif" font-size="10.00">cam.voronoi.Context.clipLine</text>
</a>
</g>
</g>
<!-- Node1&#45;&gt;Node2 -->
<g id="edge5_Node000001_Node000002" class="edge">
<title>Node1&#45;&gt;Node2</title>
<g id="a_edge5_Node000001_Node000002"><a xlink:title=" ">
<path fill="none" stroke="#63b8ff" d="M156.11,-35.09C165.04,-35.97 174.19,-36.87 183.26,-37.76"/>
<polygon fill="#63b8ff" stroke="#63b8ff" points="183.14,-41.27 193.43,-38.77 183.83,-34.3 183.14,-41.27"/>
</a>
</g>
</g>
<!-- Node3 -->
<g id="Node000003" class="node">
<title>Node3</title>
<g id="a_Node000003"><a xlink:href="$classcam_1_1voronoi_1_1Context.html#a3a0bfd004006ebf1497ca69e27b5da0b" xlink:title=" ">
<polygon fill="white" stroke="#666666" points="354,-19 192,-19 192,0 354,0 354,-19"/>
<text text-anchor="middle" x="273" y="-7" font-family="Helvetica,sans-Serif" font-size="10.00">cam.voronoi.Context.inExtent</text>
</a>
</g>
</g>
<!-- Node1&#45;&gt;Node3 -->
<g id="edge6_Node000001_Node000003" class="edge">
<title>Node1&#45;&gt;Node3</title>
<g id="a_edge6_Node000001_Node000003"><a xlink:title=" ">
<path fill="none" stroke="#63b8ff" d="M156.11,-20.31C164.56,-19.52 173.22,-18.71 181.81,-17.91"/>
<polygon fill="#63b8ff" stroke="#63b8ff" points="182.22,-21.39 191.85,-16.97 181.57,-14.42 182.22,-21.39"/>
</a>
</g>
</g>
</g>
</svg>
