<?xml version="1.0" encoding="UTF-8" standalone="no"?>
<!DOCTYPE svg PUBLIC "-//W3C//DTD SVG 1.1//EN"
 "http://www.w3.org/Graphics/SVG/1.1/DTD/svg11.dtd">
<!-- Generated by graphviz version 2.43.0 (0)
 -->
<!-- Title: cam.nc.iso.Creator.SUBPROG_CALL Pages: 1 -->
<svg width="401pt" height="64pt"
 viewBox="0.00 0.00 401.00 64.00" xmlns="http://www.w3.org/2000/svg" xmlns:xlink="http://www.w3.org/1999/xlink">
<g id="graph0" class="graph" transform="scale(1 1) rotate(0) translate(4 60)">
<title>cam.nc.iso.Creator.SUBPROG_CALL</title>
<!-- Node1 -->
<g id="Node000001" class="node">
<title>Node1</title>
<g id="a_Node000001"><a xlink:title=" ">
<polygon fill="#999999" stroke="#666666" points="393,-37 205,-37 205,-18 393,-18 393,-37"/>
<text text-anchor="middle" x="299" y="-25" font-family="Helvetica,sans-Serif" font-size="10.00">cam.nc.iso.Creator.SUBPROG_CALL</text>
</a>
</g>
</g>
<!-- Node2 -->
<g id="Node000002" class="node">
<title>Node2</title>
<g id="a_Node000002"><a xlink:href="$classcam_1_1nc_1_1heiden_1_1Creator.html#ade3b729fa27f508f2cc2209256991d28" xlink:title=" ">
<polygon fill="white" stroke="#666666" points="169,-56 0,-56 0,-37 169,-37 169,-56"/>
<text text-anchor="middle" x="84.5" y="-44" font-family="Helvetica,sans-Serif" font-size="10.00">cam.nc.heiden.Creator.sub_call</text>
</a>
</g>
</g>
<!-- Node1&#45;&gt;Node2 -->
<g id="edge5_Node000001_Node000002" class="edge">
<title>Node1&#45;&gt;Node2</title>
<g id="a_edge5_Node000001_Node000002"><a xlink:title=" ">
<path fill="none" stroke="#63b8ff" d="M194.78,-36.73C186.23,-37.49 177.65,-38.26 169.27,-39.01"/>
<polygon fill="#63b8ff" stroke="#63b8ff" points="195.15,-40.21 204.79,-35.83 194.52,-33.24 195.15,-40.21"/>
</a>
</g>
</g>
<!-- Node3 -->
<g id="Node000003" class="node">
<title>Node3</title>
<g id="a_Node000003"><a xlink:href="$classcam_1_1nc_1_1iso_1_1Creator.html#a189a88facff70a2033184ccd73309f65" xlink:title=" ">
<polygon fill="white" stroke="#666666" points="159.5,-19 9.5,-19 9.5,0 159.5,0 159.5,-19"/>
<text text-anchor="middle" x="84.5" y="-7" font-family="Helvetica,sans-Serif" font-size="10.00">cam.nc.iso.Creator.sub_call</text>
</a>
</g>
</g>
<!-- Node1&#45;&gt;Node3 -->
<g id="edge6_Node000001_Node000003" class="edge">
<title>Node1&#45;&gt;Node3</title>
<g id="a_edge6_Node000001_Node000003"><a xlink:title=" ">
<path fill="none" stroke="#63b8ff" d="M194.52,-18.73C182.8,-17.74 171.04,-16.75 159.8,-15.79"/>
<polygon fill="#63b8ff" stroke="#63b8ff" points="194.53,-22.25 204.79,-19.6 195.13,-15.27 194.53,-22.25"/>
</a>
</g>
</g>
</g>
</svg>
