<?xml version="1.0" encoding="UTF-8" standalone="no"?>
<!DOCTYPE svg PUBLIC "-//W3C//DTD SVG 1.1//EN"
 "http://www.w3.org/Graphics/SVG/1.1/DTD/svg11.dtd">
<!-- Generated by graphviz version 2.43.0 (0)
 -->
<!-- Title: cam.strategy.cutout Pages: 1 -->
<svg width="311pt" height="101pt"
 viewBox="0.00 0.00 311.00 101.00" xmlns="http://www.w3.org/2000/svg" xmlns:xlink="http://www.w3.org/1999/xlink">
<g id="graph0" class="graph" transform="scale(1 1) rotate(0) translate(4 97)">
<title>cam.strategy.cutout</title>
<!-- Node1 -->
<g id="Node000001" class="node">
<title>Node1</title>
<g id="a_Node000001"><a xlink:title=" ">
<polygon fill="#999999" stroke="#666666" points="113,-56 0,-56 0,-37 113,-37 113,-56"/>
<text text-anchor="middle" x="56.5" y="-44" font-family="Helvetica,sans-Serif" font-size="10.00">cam.strategy.cutout</text>
</a>
</g>
</g>
<!-- Node2 -->
<g id="Node000002" class="node">
<title>Node2</title>
<g id="a_Node000002"><a xlink:href="$namespacecam_1_1strategy.html#a972d6afd961809855c279418b33d68b9" xlink:title=" ">
<polygon fill="white" stroke="#666666" points="293.5,-93 158.5,-93 158.5,-74 293.5,-74 293.5,-93"/>
<text text-anchor="middle" x="226" y="-81" font-family="Helvetica,sans-Serif" font-size="10.00">cam.strategy.checkminz</text>
</a>
</g>
</g>
<!-- Node1&#45;&gt;Node2 -->
<g id="edge7_Node000001_Node000002" class="edge">
<title>Node1&#45;&gt;Node2</title>
<g id="a_edge7_Node000001_Node000002"><a xlink:title=" ">
<path fill="none" stroke="#63b8ff" d="M100.64,-56.03C122.34,-60.82 148.84,-66.68 171.79,-71.75"/>
<polygon fill="#63b8ff" stroke="#63b8ff" points="171.2,-75.2 181.72,-73.94 172.71,-68.36 171.2,-75.2"/>
</a>
</g>
</g>
<!-- Node3 -->
<g id="Node000003" class="node">
<title>Node3</title>
<g id="a_Node000003"><a xlink:href="$namespacecam_1_1strategy.html#aca3f0f6ecc85cb369be195cb1d36a913" xlink:title=" ">
<polygon fill="white" stroke="#666666" points="303,-56 149,-56 149,-37 303,-37 303,-56"/>
<text text-anchor="middle" x="226" y="-44" font-family="Helvetica,sans-Serif" font-size="10.00">cam.strategy.chunksToMesh</text>
</a>
</g>
</g>
<!-- Node1&#45;&gt;Node3 -->
<g id="edge8_Node000001_Node000003" class="edge">
<title>Node1&#45;&gt;Node3</title>
<g id="a_edge8_Node000001_Node000003"><a xlink:title=" ">
<path fill="none" stroke="#63b8ff" d="M113.28,-46.5C121.48,-46.5 130.1,-46.5 138.75,-46.5"/>
<polygon fill="#63b8ff" stroke="#63b8ff" points="138.89,-50 148.89,-46.5 138.89,-43 138.89,-50"/>
</a>
</g>
</g>
<!-- Node4 -->
<g id="Node000004" class="node">
<title>Node4</title>
<g id="a_Node000004"><a xlink:href="$namespacecam_1_1strategy.html#af05502deb88ecda90e32059e42b321fb" xlink:title=" ">
<polygon fill="white" stroke="#666666" points="291.5,-19 160.5,-19 160.5,0 291.5,0 291.5,-19"/>
<text text-anchor="middle" x="226" y="-7" font-family="Helvetica,sans-Serif" font-size="10.00">cam.strategy.getLayers</text>
</a>
</g>
</g>
<!-- Node1&#45;&gt;Node4 -->
<g id="edge9_Node000001_Node000004" class="edge">
<title>Node1&#45;&gt;Node4</title>
<g id="a_edge9_Node000001_Node000004"><a xlink:title=" ">
<path fill="none" stroke="#63b8ff" d="M100.64,-36.97C122.34,-32.18 148.84,-26.32 171.79,-21.25"/>
<polygon fill="#63b8ff" stroke="#63b8ff" points="172.71,-24.64 181.72,-19.06 171.2,-17.8 172.71,-24.64"/>
</a>
</g>
</g>
</g>
</svg>
