<?xml version="1.0" encoding="UTF-8" standalone="no"?>
<!DOCTYPE svg PUBLIC "-//W3C//DTD SVG 1.1//EN"
 "http://www.w3.org/Graphics/SVG/1.1/DTD/svg11.dtd">
<!-- Generated by graphviz version 2.43.0 (0)
 -->
<!-- Title: cam.gcodepath.pointonline Pages: 1 -->
<svg width="538pt" height="27pt"
 viewBox="0.00 0.00 538.00 27.00" xmlns="http://www.w3.org/2000/svg" xmlns:xlink="http://www.w3.org/1999/xlink">
<g id="graph0" class="graph" transform="scale(1 1) rotate(0) translate(4 23)">
<title>cam.gcodepath.pointonline</title>
<!-- Node1 -->
<g id="Node000001" class="node">
<title>Node1</title>
<g id="a_Node000001"><a xlink:title=" ">
<polygon fill="#999999" stroke="#666666" points="530,-19 381,-19 381,0 530,0 530,-19"/>
<text text-anchor="middle" x="455.5" y="-7" font-family="Helvetica,sans-Serif" font-size="10.00">cam.gcodepath.pointonline</text>
</a>
</g>
</g>
<!-- Node2 -->
<g id="Node000002" class="node">
<title>Node2</title>
<g id="a_Node000002"><a xlink:href="$namespacecam_1_1gcodepath.html#a000950b2f348260ff45bc874210cbd91" xlink:title=" ">
<polygon fill="white" stroke="#666666" points="345,-19 167,-19 167,0 345,0 345,-19"/>
<text text-anchor="middle" x="256" y="-7" font-family="Helvetica,sans-Serif" font-size="10.00">cam.gcodepath.exportGcodePath</text>
</a>
</g>
</g>
<!-- Node1&#45;&gt;Node2 -->
<g id="edge5_Node000001_Node000002" class="edge">
<title>Node1&#45;&gt;Node2</title>
<g id="a_edge5_Node000001_Node000002"><a xlink:title=" ">
<path fill="none" stroke="#63b8ff" d="M370.77,-9.5C362.34,-9.5 353.76,-9.5 345.29,-9.5"/>
<polygon fill="#63b8ff" stroke="#63b8ff" points="370.96,-13 380.96,-9.5 370.96,-6 370.96,-13"/>
</a>
</g>
</g>
<!-- Node3 -->
<g id="Node000003" class="node">
<title>Node3</title>
<g id="a_Node000003"><a xlink:href="$namespacecam_1_1gcodepath.html#a71ea289ba3b1df8210f85c946b97af91" xlink:title=" ">
<polygon fill="white" stroke="#666666" points="131,-19 0,-19 0,0 131,0 131,-19"/>
<text text-anchor="middle" x="65.5" y="-7" font-family="Helvetica,sans-Serif" font-size="10.00">cam.gcodepath.getPath</text>
</a>
</g>
</g>
<!-- Node2&#45;&gt;Node3 -->
<g id="edge6_Node000002_Node000003" class="edge">
<title>Node2&#45;&gt;Node3</title>
<g id="a_edge6_Node000002_Node000003"><a xlink:title=" ">
<path fill="none" stroke="#63b8ff" d="M156.7,-9.5C148.08,-9.5 139.51,-9.5 131.27,-9.5"/>
<polygon fill="#63b8ff" stroke="#63b8ff" points="156.82,-13 166.82,-9.5 156.82,-6 156.82,-13"/>
</a>
</g>
</g>
</g>
</svg>
