<?xml version="1.0" encoding="UTF-8" standalone="no"?>
<!DOCTYPE svg PUBLIC "-//W3C//DTD SVG 1.1//EN"
 "http://www.w3.org/Graphics/SVG/1.1/DTD/svg11.dtd">
<!-- Generated by graphviz version 2.43.0 (0)
 -->
<!-- Title: cam.basrelief.imagetonumpy Pages: 1 -->
<svg width="589pt" height="64pt"
 viewBox="0.00 0.00 589.00 64.00" xmlns="http://www.w3.org/2000/svg" xmlns:xlink="http://www.w3.org/1999/xlink">
<g id="graph0" class="graph" transform="scale(1 1) rotate(0) translate(4 60)">
<title>cam.basrelief.imagetonumpy</title>
<!-- Node1 -->
<g id="Node000001" class="node">
<title>Node1</title>
<g id="a_Node000001"><a xlink:title=" ">
<polygon fill="#999999" stroke="#666666" points="581,-37 421,-37 421,-18 581,-18 581,-37"/>
<text text-anchor="middle" x="501" y="-25" font-family="Helvetica,sans-Serif" font-size="10.00">cam.basrelief.imagetonumpy</text>
</a>
</g>
</g>
<!-- Node2 -->
<g id="Node000002" class="node">
<title>Node2</title>
<g id="a_Node000002"><a xlink:href="$namespacecam_1_1basrelief.html#aec4302bf58eeb5e852d939da4758b1f9" xlink:title=" ">
<polygon fill="white" stroke="#666666" points="385,-56 231,-56 231,-37 385,-37 385,-56"/>
<text text-anchor="middle" x="308" y="-44" font-family="Helvetica,sans-Serif" font-size="10.00">cam.basrelief.problemAreas</text>
</a>
</g>
</g>
<!-- Node1&#45;&gt;Node2 -->
<g id="edge9_Node000001_Node000002" class="edge">
<title>Node1&#45;&gt;Node2</title>
<g id="a_edge9_Node000001_Node000002"><a xlink:title=" ">
<path fill="none" stroke="#63b8ff" d="M410.91,-36.36C402.33,-37.22 393.68,-38.08 385.24,-38.92"/>
<polygon fill="#63b8ff" stroke="#63b8ff" points="411.33,-39.84 420.93,-35.37 410.64,-32.87 411.33,-39.84"/>
</a>
</g>
</g>
<!-- Node4 -->
<g id="Node000004" class="node">
<title>Node4</title>
<g id="a_Node000004"><a xlink:href="$namespacecam_1_1basrelief.html#aa0248196478d87431123a0e74908ab1c" xlink:title=" ">
<polygon fill="white" stroke="#666666" points="363.5,-19 252.5,-19 252.5,0 363.5,0 363.5,-19"/>
<text text-anchor="middle" x="308" y="-7" font-family="Helvetica,sans-Serif" font-size="10.00">cam.basrelief.relief</text>
</a>
</g>
</g>
<!-- Node1&#45;&gt;Node4 -->
<g id="edge11_Node000001_Node000004" class="edge">
<title>Node1&#45;&gt;Node4</title>
<g id="a_edge11_Node000001_Node000004"><a xlink:title=" ">
<path fill="none" stroke="#63b8ff" d="M410.92,-19.11C394.76,-17.58 378.35,-16.04 363.56,-14.64"/>
<polygon fill="#63b8ff" stroke="#63b8ff" points="410.65,-22.59 420.93,-20.05 411.31,-15.63 410.65,-22.59"/>
</a>
</g>
</g>
<!-- Node3 -->
<g id="Node000003" class="node">
<title>Node3</title>
<g id="a_Node000003"><a xlink:href="$classcam_1_1basrelief_1_1ProblemAreas.html#ab9ab126f3092f574365fe92a5553f85c" xlink:title=" ">
<polygon fill="white" stroke="#666666" points="195,-56 0,-56 0,-37 195,-37 195,-56"/>
<text text-anchor="middle" x="97.5" y="-44" font-family="Helvetica,sans-Serif" font-size="10.00">cam.basrelief.ProblemAreas.execute</text>
</a>
</g>
</g>
<!-- Node2&#45;&gt;Node3 -->
<g id="edge10_Node000002_Node000003" class="edge">
<title>Node2&#45;&gt;Node3</title>
<g id="a_edge10_Node000002_Node000003"><a xlink:title=" ">
<path fill="none" stroke="#63b8ff" d="M220.64,-46.5C212.2,-46.5 203.6,-46.5 195.07,-46.5"/>
<polygon fill="#63b8ff" stroke="#63b8ff" points="220.84,-50 230.84,-46.5 220.84,-43 220.84,-50"/>
</a>
</g>
</g>
<!-- Node5 -->
<g id="Node000005" class="node">
<title>Node5</title>
<g id="a_Node000005"><a xlink:href="$classcam_1_1basrelief_1_1DoBasRelief.html#a8097cf99320b782af9c0d1d1968bfdd1" xlink:title=" ">
<polygon fill="white" stroke="#666666" points="190.5,-19 4.5,-19 4.5,0 190.5,0 190.5,-19"/>
<text text-anchor="middle" x="97.5" y="-7" font-family="Helvetica,sans-Serif" font-size="10.00">cam.basrelief.DoBasRelief.execute</text>
</a>
</g>
</g>
<!-- Node4&#45;&gt;Node5 -->
<g id="edge12_Node000004_Node000005" class="edge">
<title>Node4&#45;&gt;Node5</title>
<g id="a_edge12_Node000004_Node000005"><a xlink:title=" ">
<path fill="none" stroke="#63b8ff" d="M242.49,-9.5C226.07,-9.5 208.11,-9.5 190.61,-9.5"/>
<polygon fill="#63b8ff" stroke="#63b8ff" points="242.49,-13 252.49,-9.5 242.49,-6 242.49,-13"/>
</a>
</g>
</g>
</g>
</svg>
