<?xml version="1.0" encoding="UTF-8" standalone="no"?>
<!DOCTYPE svg PUBLIC "-//W3C//DTD SVG 1.1//EN"
 "http://www.w3.org/Graphics/SVG/1.1/DTD/svg11.dtd">
<!-- Generated by graphviz version 2.43.0 (0)
 -->
<!-- Title: cam.involute_gear.gear Pages: 1 -->
<svg width="703pt" height="84pt"
 viewBox="0.00 0.00 703.00 83.50" xmlns="http://www.w3.org/2000/svg" xmlns:xlink="http://www.w3.org/1999/xlink">
<g id="graph0" class="graph" transform="scale(1 1) rotate(0) translate(4 79.5)">
<title>cam.involute_gear.gear</title>
<!-- Node1 -->
<g id="Node000001" class="node">
<title>Node1</title>
<g id="a_Node000001"><a xlink:title=" ">
<polygon fill="#999999" stroke="#666666" points="131,-46.5 0,-46.5 0,-27.5 131,-27.5 131,-46.5"/>
<text text-anchor="middle" x="65.5" y="-34.5" font-family="Helvetica,sans-Serif" font-size="10.00">cam.involute_gear.gear</text>
</a>
</g>
</g>
<!-- Node2 -->
<g id="Node000002" class="node">
<title>Node2</title>
<g id="a_Node000002"><a xlink:href="$namespacecam_1_1involute__gear.html#af9e032dc811a4f74cea4ad00226e31b7" xlink:title=" ">
<polygon fill="white" stroke="#666666" points="695,-75.5 537,-75.5 537,-56.5 695,-56.5 695,-75.5"/>
<text text-anchor="middle" x="616" y="-63.5" font-family="Helvetica,sans-Serif" font-size="10.00">cam.involute_gear.gear_iang</text>
</a>
</g>
</g>
<!-- Node1&#45;&gt;Node2 -->
<g id="edge13_Node000001_Node000002" class="edge">
<title>Node1&#45;&gt;Node2</title>
<g id="a_edge13_Node000001_Node000002"><a xlink:title=" ">
<path fill="none" stroke="#63b8ff" d="M108.32,-46.5C126.29,-50.17 147.57,-53.96 167,-56 291.23,-69.04 435.86,-69.66 526.43,-68.3"/>
<polygon fill="#63b8ff" stroke="#63b8ff" points="526.71,-71.8 536.66,-68.14 526.6,-64.8 526.71,-71.8"/>
</a>
</g>
</g>
<!-- Node3 -->
<g id="Node000003" class="node">
<title>Node3</title>
<g id="a_Node000003"><a xlink:href="$namespacecam_1_1involute__gear.html#a8458bc1ecdad9132006e80f2a2ff6771" xlink:title=" ">
<polygon fill="white" stroke="#666666" points="681.5,-30 550.5,-30 550.5,0 681.5,0 681.5,-30"/>
<text text-anchor="start" x="558.5" y="-18" font-family="Helvetica,sans-Serif" font-size="10.00">cam.involute_gear.gear</text>
<text text-anchor="middle" x="616" y="-7" font-family="Helvetica,sans-Serif" font-size="10.00">_polar</text>
</a>
</g>
</g>
<!-- Node1&#45;&gt;Node3 -->
<g id="edge14_Node000001_Node000003" class="edge">
<title>Node1&#45;&gt;Node3</title>
<g id="a_edge14_Node000001_Node000003"><a xlink:title=" ">
<path fill="none" stroke="#63b8ff" d="M110.81,-27.41C128.23,-24.07 148.47,-20.73 167,-19 297.87,-6.78 451.18,-8.95 540.27,-11.84"/>
<polygon fill="#63b8ff" stroke="#63b8ff" points="540.17,-15.34 550.28,-12.17 540.41,-8.34 540.17,-15.34"/>
</a>
</g>
</g>
<!-- Node4 -->
<g id="Node000004" class="node">
<title>Node4</title>
<g id="a_Node000004"><a xlink:href="$namespacecam_1_1involute__gear.html#a3c13a5e9cd508d3e74f787cbd842ecff" xlink:title=" ">
<polygon fill="white" stroke="#666666" points="316,-46.5 167,-46.5 167,-27.5 316,-27.5 316,-46.5"/>
<text text-anchor="middle" x="241.5" y="-34.5" font-family="Helvetica,sans-Serif" font-size="10.00">cam.involute_gear.gear_q7</text>
</a>
</g>
</g>
<!-- Node1&#45;&gt;Node4 -->
<g id="edge15_Node000001_Node000004" class="edge">
<title>Node1&#45;&gt;Node4</title>
<g id="a_edge15_Node000001_Node000004"><a xlink:title=" ">
<path fill="none" stroke="#63b8ff" d="M131.29,-37C139.62,-37 148.25,-37 156.83,-37"/>
<polygon fill="#63b8ff" stroke="#63b8ff" points="156.87,-40.5 166.87,-37 156.87,-33.5 156.87,-40.5"/>
</a>
</g>
</g>
<!-- Node5 -->
<g id="Node000005" class="node">
<title>Node5</title>
<g id="a_Node000005"><a xlink:href="$namespacecam_1_1involute__gear.html#a8e62da9a31832de2406a053839a3ac78" xlink:title=" ">
<polygon fill="white" stroke="#666666" points="501,-46.5 352,-46.5 352,-27.5 501,-27.5 501,-46.5"/>
<text text-anchor="middle" x="426.5" y="-34.5" font-family="Helvetica,sans-Serif" font-size="10.00">cam.involute_gear.gear_q6</text>
</a>
</g>
</g>
<!-- Node4&#45;&gt;Node5 -->
<g id="edge16_Node000004_Node000005" class="edge">
<title>Node4&#45;&gt;Node5</title>
<g id="a_edge16_Node000004_Node000005"><a xlink:title=" ">
<path fill="none" stroke="#63b8ff" d="M316.14,-37C324.47,-37 333.01,-37 341.46,-37"/>
<polygon fill="#63b8ff" stroke="#63b8ff" points="341.71,-40.5 351.71,-37 341.71,-33.5 341.71,-40.5"/>
</a>
</g>
</g>
<!-- Node5&#45;&gt;Node2 -->
<g id="edge17_Node000005_Node000002" class="edge">
<title>Node5&#45;&gt;Node2</title>
<g id="a_edge17_Node000005_Node000002"><a xlink:title=" ">
<path fill="none" stroke="#63b8ff" d="M489.15,-46.54C506.37,-49.2 525.24,-52.12 543,-54.86"/>
<polygon fill="#63b8ff" stroke="#63b8ff" points="542.89,-58.39 553.31,-56.46 543.96,-51.47 542.89,-58.39"/>
</a>
</g>
</g>
<!-- Node5&#45;&gt;Node3 -->
<g id="edge18_Node000005_Node000003" class="edge">
<title>Node5&#45;&gt;Node3</title>
<g id="a_edge18_Node000005_Node000003"><a xlink:title=" ">
<path fill="none" stroke="#63b8ff" d="M501.07,-28.37C513.94,-26.86 527.34,-25.29 540.25,-23.77"/>
<polygon fill="#63b8ff" stroke="#63b8ff" points="540.94,-27.21 550.47,-22.57 540.13,-20.26 540.94,-27.21"/>
</a>
</g>
</g>
</g>
</svg>
