<?xml version="1.0" encoding="UTF-8" standalone="no"?>
<!DOCTYPE svg PUBLIC "-//W3C//DTD SVG 1.1//EN"
 "http://www.w3.org/Graphics/SVG/1.1/DTD/svg11.dtd">
<!-- Generated by graphviz version 2.43.0 (0)
 -->
<!-- Title: cam.joinery.interlock_twist Pages: 1 -->
<svg width="450pt" height="76pt"
 viewBox="0.00 0.00 450.00 75.50" xmlns="http://www.w3.org/2000/svg" xmlns:xlink="http://www.w3.org/1999/xlink">
<g id="graph0" class="graph" transform="scale(1 1) rotate(0) translate(4 71.5)">
<title>cam.joinery.interlock_twist</title>
<!-- Node1 -->
<g id="Node000001" class="node">
<title>Node1</title>
<g id="a_Node000001"><a xlink:title=" ">
<polygon fill="#999999" stroke="#666666" points="442,-45.5 323,-45.5 323,-15.5 442,-15.5 442,-45.5"/>
<text text-anchor="start" x="331" y="-33.5" font-family="Helvetica,sans-Serif" font-size="10.00">cam.joinery.interlock</text>
<text text-anchor="middle" x="382.5" y="-22.5" font-family="Helvetica,sans-Serif" font-size="10.00">_twist</text>
</a>
</g>
</g>
<!-- Node2 -->
<g id="Node000002" class="node">
<title>Node2</title>
<g id="a_Node000002"><a xlink:href="$namespacecam_1_1joinery.html#a622ab1f40f0bd8272a4dca69e9b1ed13" xlink:title=" ">
<polygon fill="white" stroke="#666666" points="278,-67.5 173,-67.5 173,-37.5 278,-37.5 278,-67.5"/>
<text text-anchor="start" x="181" y="-55.5" font-family="Helvetica,sans-Serif" font-size="10.00">cam.joinery.single</text>
<text text-anchor="middle" x="225.5" y="-44.5" font-family="Helvetica,sans-Serif" font-size="10.00">_interlock</text>
</a>
</g>
</g>
<!-- Node1&#45;&gt;Node2 -->
<g id="edge7_Node000001_Node000002" class="edge">
<title>Node1&#45;&gt;Node2</title>
<g id="a_edge7_Node000001_Node000002"><a xlink:title=" ">
<path fill="none" stroke="#63b8ff" d="M312.76,-40.26C301.1,-41.91 289.18,-43.6 278.07,-45.18"/>
<polygon fill="#63b8ff" stroke="#63b8ff" points="313.49,-43.69 322.9,-38.82 312.51,-36.76 313.49,-43.69"/>
</a>
</g>
</g>
<!-- Node4 -->
<g id="Node000004" class="node">
<title>Node4</title>
<g id="a_Node000004"><a xlink:href="$namespacecam_1_1joinery.html#a3da143ee91d1471d9ee3517d9e4236e2" xlink:title=" ">
<polygon fill="white" stroke="#666666" points="287,-19 164,-19 164,0 287,0 287,-19"/>
<text text-anchor="middle" x="225.5" y="-7" font-family="Helvetica,sans-Serif" font-size="10.00">cam.joinery.twist_line</text>
</a>
</g>
</g>
<!-- Node1&#45;&gt;Node4 -->
<g id="edge9_Node000001_Node000004" class="edge">
<title>Node1&#45;&gt;Node4</title>
<g id="a_edge9_Node000001_Node000004"><a xlink:title=" ">
<path fill="none" stroke="#63b8ff" d="M312.94,-21.21C304.38,-20.05 295.68,-18.87 287.25,-17.73"/>
<polygon fill="#63b8ff" stroke="#63b8ff" points="312.52,-24.69 322.9,-22.56 313.46,-17.75 312.52,-24.69"/>
</a>
</g>
</g>
<!-- Node3 -->
<g id="Node000003" class="node">
<title>Node3</title>
<g id="a_Node000003"><a xlink:href="$namespacecam_1_1joinery.html#abdc904de1ca164c34e7c78e527fdf86e" xlink:title=" ">
<polygon fill="white" stroke="#666666" points="128,-67.5 0,-67.5 0,-37.5 128,-37.5 128,-67.5"/>
<text text-anchor="start" x="8" y="-55.5" font-family="Helvetica,sans-Serif" font-size="10.00">cam.joinery.distributed</text>
<text text-anchor="middle" x="64" y="-44.5" font-family="Helvetica,sans-Serif" font-size="10.00">_interlock</text>
</a>
</g>
</g>
<!-- Node2&#45;&gt;Node3 -->
<g id="edge8_Node000002_Node000003" class="edge">
<title>Node2&#45;&gt;Node3</title>
<g id="a_edge8_Node000002_Node000003"><a xlink:title=" ">
<path fill="none" stroke="#63b8ff" d="M162.54,-52.5C151.28,-52.5 139.52,-52.5 128.23,-52.5"/>
<polygon fill="#63b8ff" stroke="#63b8ff" points="162.71,-56 172.71,-52.5 162.71,-49 162.71,-56"/>
</a>
</g>
</g>
</g>
</svg>
