<?xml version="1.0" encoding="UTF-8" standalone="no"?>
<!DOCTYPE svg PUBLIC "-//W3C//DTD SVG 1.1//EN"
 "http://www.w3.org/Graphics/SVG/1.1/DTD/svg11.dtd">
<!-- Generated by graphviz version 2.43.0 (0)
 -->
<!-- Title: cam.joinery.mortise Pages: 1 -->
<svg width="628pt" height="364pt"
 viewBox="0.00 0.00 628.00 363.50" xmlns="http://www.w3.org/2000/svg" xmlns:xlink="http://www.w3.org/1999/xlink">
<g id="graph0" class="graph" transform="scale(1 1) rotate(0) translate(4 359.5)">
<title>cam.joinery.mortise</title>
<!-- Node1 -->
<g id="Node000001" class="node">
<title>Node1</title>
<g id="a_Node000001"><a xlink:title=" ">
<polygon fill="#999999" stroke="#666666" points="620,-192.5 507,-192.5 507,-173.5 620,-173.5 620,-192.5"/>
<text text-anchor="middle" x="563.5" y="-180.5" font-family="Helvetica,sans-Serif" font-size="10.00">cam.joinery.mortise</text>
</a>
</g>
</g>
<!-- Node2 -->
<g id="Node000002" class="node">
<title>Node2</title>
<g id="a_Node000002"><a xlink:href="$namespacecam_1_1joinery.html#af8c753ab2426884c82136ed7dcdfcc03" xlink:title=" ">
<polygon fill="white" stroke="#666666" points="463,-355.5 331,-355.5 331,-336.5 463,-336.5 463,-355.5"/>
<text text-anchor="middle" x="397" y="-343.5" font-family="Helvetica,sans-Serif" font-size="10.00">cam.joinery.fixed_finger</text>
</a>
</g>
</g>
<!-- Node1&#45;&gt;Node2 -->
<g id="edge25_Node000001_Node000002" class="edge">
<title>Node1&#45;&gt;Node2</title>
<g id="a_edge25_Node000001_Node000002"><a xlink:title=" ">
<path fill="none" stroke="#63b8ff" d="M555.54,-202.55C543.4,-233.79 515.33,-294.7 471,-327 465.71,-330.86 459.7,-333.93 453.45,-336.38"/>
<polygon fill="#63b8ff" stroke="#63b8ff" points="558.95,-203.43 559.17,-192.84 552.39,-200.98 558.95,-203.43"/>
</a>
</g>
</g>
<!-- Node3 -->
<g id="Node000003" class="node">
<title>Node3</title>
<g id="a_Node000003"><a xlink:href="$namespacecam_1_1joinery.html#ac9396593ad82b6ce75de7b39026a4aa1" xlink:title=" ">
<polygon fill="white" stroke="#666666" points="459.5,-318 334.5,-318 334.5,-288 459.5,-288 459.5,-318"/>
<text text-anchor="start" x="342.5" y="-306" font-family="Helvetica,sans-Serif" font-size="10.00">cam.joinery.horizontal</text>
<text text-anchor="middle" x="397" y="-295" font-family="Helvetica,sans-Serif" font-size="10.00">_finger</text>
</a>
</g>
</g>
<!-- Node1&#45;&gt;Node3 -->
<g id="edge26_Node000001_Node000003" class="edge">
<title>Node1&#45;&gt;Node3</title>
<g id="a_edge26_Node000001_Node000003"><a xlink:title=" ">
<path fill="none" stroke="#63b8ff" d="M549.84,-200.91C533.8,-222.36 504.21,-258.02 471,-279 465.59,-282.42 459.64,-285.4 453.54,-287.99"/>
<polygon fill="#63b8ff" stroke="#63b8ff" points="552.78,-202.81 555.86,-192.67 547.13,-198.68 552.78,-202.81"/>
</a>
</g>
</g>
<!-- Node4 -->
<g id="Node000004" class="node">
<title>Node4</title>
<g id="a_Node000004"><a xlink:href="$namespacecam_1_1joinery.html#ae6f7cc58c00bb5e33071ee36267d7984" xlink:title=" ">
<polygon fill="white" stroke="#666666" points="456.5,-270 337.5,-270 337.5,-240 456.5,-240 456.5,-270"/>
<text text-anchor="start" x="345.5" y="-258" font-family="Helvetica,sans-Serif" font-size="10.00">cam.joinery.interlock</text>
<text text-anchor="middle" x="397" y="-247" font-family="Helvetica,sans-Serif" font-size="10.00">_groove</text>
</a>
</g>
</g>
<!-- Node1&#45;&gt;Node4 -->
<g id="edge27_Node000001_Node000004" class="edge">
<title>Node1&#45;&gt;Node4</title>
<g id="a_edge27_Node000001_Node000004"><a xlink:title=" ">
<path fill="none" stroke="#63b8ff" d="M537.61,-197.49C519.51,-207.68 494.21,-221.18 471,-231 463.51,-234.17 455.44,-237.19 447.5,-239.96"/>
<polygon fill="#63b8ff" stroke="#63b8ff" points="539.41,-200.5 546.37,-192.51 535.94,-194.41 539.41,-200.5"/>
</a>
</g>
</g>
<!-- Node7 -->
<g id="Node000007" class="node">
<title>Node7</title>
<g id="a_Node000007"><a xlink:href="$namespacecam_1_1joinery.html#afc581b78151a7aa0780d7b58f9c5ed53" xlink:title=" ">
<polygon fill="white" stroke="#666666" points="456.5,-222 337.5,-222 337.5,-192 456.5,-192 456.5,-222"/>
<text text-anchor="start" x="345.5" y="-210" font-family="Helvetica,sans-Serif" font-size="10.00">cam.joinery.interlock</text>
<text text-anchor="middle" x="397" y="-199" font-family="Helvetica,sans-Serif" font-size="10.00">_twist</text>
</a>
</g>
</g>
<!-- Node1&#45;&gt;Node7 -->
<g id="edge30_Node000001_Node000007" class="edge">
<title>Node1&#45;&gt;Node7</title>
<g id="a_edge30_Node000001_Node000007"><a xlink:title=" ">
<path fill="none" stroke="#63b8ff" d="M496.82,-192.58C483.57,-194.52 469.72,-196.54 456.73,-198.43"/>
<polygon fill="#63b8ff" stroke="#63b8ff" points="497.42,-196.03 506.81,-191.13 496.41,-189.11 497.42,-196.03"/>
</a>
</g>
</g>
<!-- Node9 -->
<g id="Node000009" class="node">
<title>Node9</title>
<g id="a_Node000009"><a xlink:href="$namespacecam_1_1joinery.html#a84f5fa18a97d8eb2f51f192f2bd6bd29" xlink:title=" ">
<polygon fill="white" stroke="#666666" points="460,-174 334,-174 334,-144 460,-144 460,-174"/>
<text text-anchor="start" x="342" y="-162" font-family="Helvetica,sans-Serif" font-size="10.00">cam.joinery.make_flex</text>
<text text-anchor="middle" x="397" y="-151" font-family="Helvetica,sans-Serif" font-size="10.00">_pocket</text>
</a>
</g>
</g>
<!-- Node1&#45;&gt;Node9 -->
<g id="edge33_Node000001_Node000009" class="edge">
<title>Node1&#45;&gt;Node9</title>
<g id="a_edge33_Node000001_Node000009"><a xlink:title=" ">
<path fill="none" stroke="#63b8ff" d="M496.79,-173.41C484.71,-171.65 472.12,-169.81 460.14,-168.07"/>
<polygon fill="#63b8ff" stroke="#63b8ff" points="496.41,-176.89 506.81,-174.87 497.42,-169.97 496.41,-176.89"/>
</a>
</g>
</g>
<!-- Node10 -->
<g id="Node000010" class="node">
<title>Node10</title>
<g id="a_Node000010"><a xlink:href="$namespacecam_1_1joinery.html#a9a2c964c6d51901cd3affb202bf5da68" xlink:title=" ">
<polygon fill="white" stroke="#666666" points="471,-126 323,-126 323,-96 471,-96 471,-126"/>
<text text-anchor="start" x="331" y="-114" font-family="Helvetica,sans-Serif" font-size="10.00">cam.joinery.make_variable</text>
<text text-anchor="middle" x="397" y="-103" font-family="Helvetica,sans-Serif" font-size="10.00">_flex_pocket</text>
</a>
</g>
</g>
<!-- Node1&#45;&gt;Node10 -->
<g id="edge34_Node000001_Node000010" class="edge">
<title>Node1&#45;&gt;Node10</title>
<g id="a_edge34_Node000001_Node000010"><a xlink:title=" ">
<path fill="none" stroke="#63b8ff" d="M537.61,-168.51C519.51,-158.32 494.21,-144.82 471,-135 463.51,-131.83 455.44,-128.81 447.5,-126.04"/>
<polygon fill="#63b8ff" stroke="#63b8ff" points="535.94,-171.59 546.37,-173.49 539.41,-165.5 535.94,-171.59"/>
</a>
</g>
</g>
<!-- Node11 -->
<g id="Node000011" class="node">
<title>Node11</title>
<g id="a_Node000011"><a xlink:href="$namespacecam_1_1joinery.html#a95096dd31f2638033794b4e801090bd6" xlink:title=" ">
<polygon fill="white" stroke="#666666" points="455,-78 339,-78 339,-48 455,-48 455,-78"/>
<text text-anchor="start" x="347" y="-66" font-family="Helvetica,sans-Serif" font-size="10.00">cam.joinery.variable</text>
<text text-anchor="middle" x="397" y="-55" font-family="Helvetica,sans-Serif" font-size="10.00">_finger</text>
</a>
</g>
</g>
<!-- Node1&#45;&gt;Node11 -->
<g id="edge35_Node000001_Node000011" class="edge">
<title>Node1&#45;&gt;Node11</title>
<g id="a_edge35_Node000001_Node000011"><a xlink:title=" ">
<path fill="none" stroke="#63b8ff" d="M549.84,-165.09C533.8,-143.64 504.21,-107.98 471,-87 465.59,-83.58 459.64,-80.6 453.54,-78.01"/>
<polygon fill="#63b8ff" stroke="#63b8ff" points="547.13,-167.32 555.86,-173.33 552.78,-163.19 547.13,-167.32"/>
</a>
</g>
</g>
<!-- Node12 -->
<g id="Node000012" class="node">
<title>Node12</title>
<g id="a_Node000012"><a xlink:href="$namespacecam_1_1joinery.html#aec5f91b01dacee42e43588eeb35fe865" xlink:title=" ">
<polygon fill="white" stroke="#666666" points="453.5,-30 340.5,-30 340.5,0 453.5,0 453.5,-30"/>
<text text-anchor="start" x="348.5" y="-18" font-family="Helvetica,sans-Serif" font-size="10.00">cam.joinery.vertical</text>
<text text-anchor="middle" x="397" y="-7" font-family="Helvetica,sans-Serif" font-size="10.00">_finger</text>
</a>
</g>
</g>
<!-- Node1&#45;&gt;Node12 -->
<g id="edge36_Node000001_Node000012" class="edge">
<title>Node1&#45;&gt;Node12</title>
<g id="a_edge36_Node000001_Node000012"><a xlink:title=" ">
<path fill="none" stroke="#63b8ff" d="M555.3,-163.76C542.83,-132.98 514.29,-72.68 471,-39 465.74,-34.9 459.74,-31.49 453.51,-28.65"/>
<polygon fill="#63b8ff" stroke="#63b8ff" points="552.14,-165.29 559.05,-173.33 558.66,-162.74 552.14,-165.29"/>
</a>
</g>
</g>
<!-- Node5 -->
<g id="Node000005" class="node">
<title>Node5</title>
<g id="a_Node000005"><a xlink:href="$namespacecam_1_1joinery.html#a622ab1f40f0bd8272a4dca69e9b1ed13" xlink:title=" ">
<polygon fill="white" stroke="#666666" points="278,-267 173,-267 173,-237 278,-237 278,-267"/>
<text text-anchor="start" x="181" y="-255" font-family="Helvetica,sans-Serif" font-size="10.00">cam.joinery.single</text>
<text text-anchor="middle" x="225.5" y="-244" font-family="Helvetica,sans-Serif" font-size="10.00">_interlock</text>
</a>
</g>
</g>
<!-- Node4&#45;&gt;Node5 -->
<g id="edge28_Node000004_Node000005" class="edge">
<title>Node4&#45;&gt;Node5</title>
<g id="a_edge28_Node000004_Node000005"><a xlink:title=" ">
<path fill="none" stroke="#63b8ff" d="M327.13,-253.78C310.77,-253.49 293.58,-253.19 278.14,-252.91"/>
<polygon fill="#63b8ff" stroke="#63b8ff" points="327.13,-257.28 337.19,-253.96 327.26,-250.28 327.13,-257.28"/>
</a>
</g>
</g>
<!-- Node6 -->
<g id="Node000006" class="node">
<title>Node6</title>
<g id="a_Node000006"><a xlink:href="$namespacecam_1_1joinery.html#abdc904de1ca164c34e7c78e527fdf86e" xlink:title=" ">
<polygon fill="white" stroke="#666666" points="128,-267 0,-267 0,-237 128,-237 128,-267"/>
<text text-anchor="start" x="8" y="-255" font-family="Helvetica,sans-Serif" font-size="10.00">cam.joinery.distributed</text>
<text text-anchor="middle" x="64" y="-244" font-family="Helvetica,sans-Serif" font-size="10.00">_interlock</text>
</a>
</g>
</g>
<!-- Node5&#45;&gt;Node6 -->
<g id="edge29_Node000005_Node000006" class="edge">
<title>Node5&#45;&gt;Node6</title>
<g id="a_edge29_Node000005_Node000006"><a xlink:title=" ">
<path fill="none" stroke="#63b8ff" d="M162.54,-252C151.28,-252 139.52,-252 128.23,-252"/>
<polygon fill="#63b8ff" stroke="#63b8ff" points="162.71,-255.5 172.71,-252 162.71,-248.5 162.71,-255.5"/>
</a>
</g>
</g>
<!-- Node7&#45;&gt;Node5 -->
<g id="edge31_Node000007_Node000005" class="edge">
<title>Node7&#45;&gt;Node5</title>
<g id="a_edge31_Node000007_Node000005"><a xlink:title=" ">
<path fill="none" stroke="#63b8ff" d="M329.22,-224.73C312.23,-229.24 294.23,-234.02 278.13,-238.29"/>
<polygon fill="#63b8ff" stroke="#63b8ff" points="330.32,-228.06 339.09,-222.11 328.52,-221.29 330.32,-228.06"/>
</a>
</g>
</g>
<!-- Node8 -->
<g id="Node000008" class="node">
<title>Node8</title>
<g id="a_Node000008"><a xlink:href="$namespacecam_1_1joinery.html#a3da143ee91d1471d9ee3517d9e4236e2" xlink:title=" ">
<polygon fill="white" stroke="#666666" points="287,-216.5 164,-216.5 164,-197.5 287,-197.5 287,-216.5"/>
<text text-anchor="middle" x="225.5" y="-204.5" font-family="Helvetica,sans-Serif" font-size="10.00">cam.joinery.twist_line</text>
</a>
</g>
</g>
<!-- Node7&#45;&gt;Node8 -->
<g id="edge32_Node000007_Node000008" class="edge">
<title>Node7&#45;&gt;Node8</title>
<g id="a_edge32_Node000007_Node000008"><a xlink:title=" ">
<path fill="none" stroke="#63b8ff" d="M326.81,-207C313.69,-207 300.05,-207 287.22,-207"/>
<polygon fill="#63b8ff" stroke="#63b8ff" points="327.19,-210.5 337.19,-207 327.19,-203.5 327.19,-210.5"/>
</a>
</g>
</g>
</g>
</svg>
