<?xml version="1.0" encoding="UTF-8" standalone="no"?>
<!DOCTYPE svg PUBLIC "-//W3C//DTD SVG 1.1//EN"
 "http://www.w3.org/Graphics/SVG/1.1/DTD/svg11.dtd">
<!-- Generated by graphviz version 2.43.0 (0)
 -->
<!-- Title: cam.basrelief.solve_pde_multigrid Pages: 1 -->
<svg width="620pt" height="272pt"
 viewBox="0.00 0.00 620.00 272.00" xmlns="http://www.w3.org/2000/svg" xmlns:xlink="http://www.w3.org/1999/xlink">
<g id="graph0" class="graph" transform="scale(1 1) rotate(0) translate(4 268)">
<title>cam.basrelief.solve_pde_multigrid</title>
<!-- Node1 -->
<g id="Node000001" class="node">
<title>Node1</title>
<g id="a_Node000001"><a xlink:title=" ">
<polygon fill="#999999" stroke="#666666" points="112,-156.5 0,-156.5 0,-126.5 112,-126.5 112,-156.5"/>
<text text-anchor="start" x="8" y="-144.5" font-family="Helvetica,sans-Serif" font-size="10.00">cam.basrelief.solve</text>
<text text-anchor="middle" x="56" y="-133.5" font-family="Helvetica,sans-Serif" font-size="10.00">_pde_multigrid</text>
</a>
</g>
</g>
<!-- Node2 -->
<g id="Node000002" class="node">
<title>Node2</title>
<g id="a_Node000002"><a xlink:href="$namespacecam_1_1basrelief.html#a9554e08aa23fcef890644aa887a681e9" xlink:title=" ">
<polygon fill="white" stroke="#666666" points="306,-264 148,-264 148,-245 306,-245 306,-264"/>
<text text-anchor="middle" x="227" y="-252" font-family="Helvetica,sans-Serif" font-size="10.00">cam.basrelief.add_correction</text>
</a>
</g>
</g>
<!-- Node1&#45;&gt;Node2 -->
<g id="edge21_Node000001_Node000002" class="edge">
<title>Node1&#45;&gt;Node2</title>
<g id="a_edge21_Node000001_Node000002"><a xlink:title=" ">
<path fill="none" stroke="#63b8ff" d="M67.43,-156.76C82.63,-177.81 112.92,-215.4 148,-235.5 151.92,-237.74 156.09,-239.72 160.39,-241.47"/>
<polygon fill="#63b8ff" stroke="#63b8ff" points="159.37,-244.82 169.96,-244.93 161.75,-238.24 159.37,-244.82"/>
</a>
</g>
</g>
<!-- Node3 -->
<g id="Node000003" class="node">
<title>Node3</title>
<g id="a_Node000003"><a xlink:href="$namespacecam_1_1basrelief.html#aabd40958bb5e5febbc0e8a1fb76f2c54" xlink:title=" ">
<polygon fill="white" stroke="#666666" points="292,-226.5 162,-226.5 162,-196.5 292,-196.5 292,-226.5"/>
<text text-anchor="start" x="170" y="-214.5" font-family="Helvetica,sans-Serif" font-size="10.00">cam.basrelief.calculate</text>
<text text-anchor="middle" x="227" y="-203.5" font-family="Helvetica,sans-Serif" font-size="10.00">_defect</text>
</a>
</g>
</g>
<!-- Node1&#45;&gt;Node3 -->
<g id="edge22_Node000001_Node000003" class="edge">
<title>Node1&#45;&gt;Node3</title>
<g id="a_edge22_Node000001_Node000003"><a xlink:title=" ">
<path fill="none" stroke="#63b8ff" d="M83.92,-156.63C101.74,-166.26 125.84,-178.56 148,-187.5 152.8,-189.44 157.83,-191.31 162.91,-193.1"/>
<polygon fill="#63b8ff" stroke="#63b8ff" points="162.12,-196.53 172.71,-196.43 164.37,-189.9 162.12,-196.53"/>
</a>
</g>
</g>
<!-- Node4 -->
<g id="Node000004" class="node">
<title>Node4</title>
<g id="a_Node000004"><a xlink:href="$namespacecam_1_1basrelief.html#a479a5a367df382f5a4d97e5d27fbc319" xlink:title=" ">
<polygon fill="white" stroke="#666666" points="281.5,-178.5 172.5,-178.5 172.5,-148.5 281.5,-148.5 281.5,-178.5"/>
<text text-anchor="start" x="180.5" y="-166.5" font-family="Helvetica,sans-Serif" font-size="10.00">cam.basrelief.copy</text>
<text text-anchor="middle" x="227" y="-155.5" font-family="Helvetica,sans-Serif" font-size="10.00">_compbuf_data</text>
</a>
</g>
</g>
<!-- Node1&#45;&gt;Node4 -->
<g id="edge23_Node000001_Node000004" class="edge">
<title>Node1&#45;&gt;Node4</title>
<g id="a_edge23_Node000001_Node000004"><a xlink:title=" ">
<path fill="none" stroke="#63b8ff" d="M112.34,-148.7C128.28,-150.78 145.8,-153.06 162.22,-155.2"/>
<polygon fill="#63b8ff" stroke="#63b8ff" points="161.9,-158.68 172.27,-156.51 162.8,-151.74 161.9,-158.68"/>
</a>
</g>
</g>
<!-- Node5 -->
<g id="Node000005" class="node">
<title>Node5</title>
<g id="a_Node000005"><a xlink:href="$namespacecam_1_1basrelief.html#a9a1b6e682169add543f604f19092d632" xlink:title=" ">
<polygon fill="white" stroke="#666666" points="296,-130 158,-130 158,-111 296,-111 296,-130"/>
<text text-anchor="middle" x="227" y="-118" font-family="Helvetica,sans-Serif" font-size="10.00">cam.basrelief.prolongate</text>
</a>
</g>
</g>
<!-- Node1&#45;&gt;Node5 -->
<g id="edge24_Node000001_Node000005" class="edge">
<title>Node1&#45;&gt;Node5</title>
<g id="a_edge24_Node000001_Node000005"><a xlink:title=" ">
<path fill="none" stroke="#63b8ff" d="M112.34,-134.62C123.69,-133.21 135.85,-131.7 147.84,-130.21"/>
<polygon fill="#63b8ff" stroke="#63b8ff" points="148.35,-133.68 157.84,-128.97 147.49,-126.73 148.35,-133.68"/>
</a>
</g>
</g>
<!-- Node6 -->
<g id="Node000006" class="node">
<title>Node6</title>
<g id="a_Node000006"><a xlink:href="$namespacecam_1_1basrelief.html#a9cee957b1946a898fae51b693337d1ce" xlink:title=" ">
<polygon fill="white" stroke="#666666" points="295,-93 159,-93 159,-74 295,-74 295,-93"/>
<text text-anchor="middle" x="227" y="-81" font-family="Helvetica,sans-Serif" font-size="10.00">cam.basrelief.restrictbuf</text>
</a>
</g>
</g>
<!-- Node1&#45;&gt;Node6 -->
<g id="edge25_Node000001_Node000006" class="edge">
<title>Node1&#45;&gt;Node6</title>
<g id="a_edge25_Node000001_Node000006"><a xlink:title=" ">
<path fill="none" stroke="#63b8ff" d="M88.51,-126.46C105.8,-118.6 127.78,-109.24 148,-102.5 155.44,-100.02 163.37,-97.71 171.23,-95.62"/>
<polygon fill="#63b8ff" stroke="#63b8ff" points="172.27,-98.97 181.09,-93.09 170.53,-92.19 172.27,-98.97"/>
</a>
</g>
</g>
<!-- Node7 -->
<g id="Node000007" class="node">
<title>Node7</title>
<g id="a_Node000007"><a xlink:href="$namespacecam_1_1basrelief.html#ad911a47b6767f0bf2783a9bcf0e548ef" xlink:title=" ">
<polygon fill="white" stroke="#666666" points="288,-56 166,-56 166,-37 288,-37 288,-56"/>
<text text-anchor="middle" x="227" y="-44" font-family="Helvetica,sans-Serif" font-size="10.00">cam.basrelief.smooth</text>
</a>
</g>
</g>
<!-- Node1&#45;&gt;Node7 -->
<g id="edge26_Node000001_Node000007" class="edge">
<title>Node1&#45;&gt;Node7</title>
<g id="a_edge26_Node000001_Node000007"><a xlink:title=" ">
<path fill="none" stroke="#63b8ff" d="M70.92,-126.26C87.59,-108.94 117.13,-81.08 148,-65.5 152.63,-63.17 157.55,-61.11 162.59,-59.3"/>
<polygon fill="#63b8ff" stroke="#63b8ff" points="163.96,-62.53 172.39,-56.11 161.79,-55.88 163.96,-62.53"/>
</a>
</g>
</g>
<!-- Node8 -->
<g id="Node000008" class="node">
<title>Node8</title>
<g id="a_Node000008"><a xlink:href="$namespacecam_1_1basrelief.html#a7369a80f45ef2d8d836e195fc67ee148" xlink:title=" ">
<polygon fill="white" stroke="#666666" points="457,-56 342,-56 342,-37 457,-37 457,-56"/>
<text text-anchor="middle" x="399.5" y="-44" font-family="Helvetica,sans-Serif" font-size="10.00">cam.basrelief.linbcg</text>
</a>
</g>
</g>
<!-- Node7&#45;&gt;Node8 -->
<g id="edge27_Node000007_Node000008" class="edge">
<title>Node7&#45;&gt;Node8</title>
<g id="a_edge27_Node000007_Node000008"><a xlink:title=" ">
<path fill="none" stroke="#63b8ff" d="M288.11,-46.5C302.15,-46.5 317.19,-46.5 331.51,-46.5"/>
<polygon fill="#63b8ff" stroke="#63b8ff" points="331.79,-50 341.79,-46.5 331.79,-43 331.79,-50"/>
</a>
</g>
</g>
<!-- Node9 -->
<g id="Node000009" class="node">
<title>Node9</title>
<g id="a_Node000009"><a xlink:href="$namespacecam_1_1basrelief.html#a822964708e515d6bdd72592d1b8e34a6" xlink:title=" ">
<polygon fill="white" stroke="#666666" points="611.5,-93 493.5,-93 493.5,-74 611.5,-74 611.5,-93"/>
<text text-anchor="middle" x="552.5" y="-81" font-family="Helvetica,sans-Serif" font-size="10.00">cam.basrelief.asolve</text>
</a>
</g>
</g>
<!-- Node8&#45;&gt;Node9 -->
<g id="edge28_Node000008_Node000009" class="edge">
<title>Node8&#45;&gt;Node9</title>
<g id="a_edge28_Node000008_Node000009"><a xlink:title=" ">
<path fill="none" stroke="#63b8ff" d="M439.39,-56.03C458.69,-60.76 482.2,-66.52 502.69,-71.54"/>
<polygon fill="#63b8ff" stroke="#63b8ff" points="501.94,-74.96 512.48,-73.94 503.6,-68.16 501.94,-74.96"/>
</a>
</g>
</g>
<!-- Node10 -->
<g id="Node000010" class="node">
<title>Node10</title>
<g id="a_Node000010"><a xlink:href="$namespacecam_1_1basrelief.html#ac14b2661328ff1f3816c445ebfbca188" xlink:title=" ">
<polygon fill="white" stroke="#666666" points="612,-56 493,-56 493,-37 612,-37 612,-56"/>
<text text-anchor="middle" x="552.5" y="-44" font-family="Helvetica,sans-Serif" font-size="10.00">cam.basrelief.atimes</text>
</a>
</g>
</g>
<!-- Node8&#45;&gt;Node10 -->
<g id="edge29_Node000008_Node000010" class="edge">
<title>Node8&#45;&gt;Node10</title>
<g id="a_edge29_Node000008_Node000010"><a xlink:title=" ">
<path fill="none" stroke="#63b8ff" d="M457.16,-46.5C465.43,-46.5 474.02,-46.5 482.5,-46.5"/>
<polygon fill="#63b8ff" stroke="#63b8ff" points="482.76,-50 492.76,-46.5 482.76,-43 482.76,-50"/>
</a>
</g>
</g>
<!-- Node11 -->
<g id="Node000011" class="node">
<title>Node11</title>
<g id="a_Node000011"><a xlink:href="$namespacecam_1_1basrelief.html#a6c50cb05df82a36b700aa844163dd7da" xlink:title=" ">
<polygon fill="white" stroke="#666666" points="607.5,-19 497.5,-19 497.5,0 607.5,0 607.5,-19"/>
<text text-anchor="middle" x="552.5" y="-7" font-family="Helvetica,sans-Serif" font-size="10.00">cam.basrelief.snrm</text>
</a>
</g>
</g>
<!-- Node8&#45;&gt;Node11 -->
<g id="edge30_Node000008_Node000011" class="edge">
<title>Node8&#45;&gt;Node11</title>
<g id="a_edge30_Node000008_Node000011"><a xlink:title=" ">
<path fill="none" stroke="#63b8ff" d="M439.39,-36.97C458.69,-32.24 482.2,-26.48 502.69,-21.46"/>
<polygon fill="#63b8ff" stroke="#63b8ff" points="503.6,-24.84 512.48,-19.06 501.94,-18.04 503.6,-24.84"/>
</a>
</g>
</g>
</g>
</svg>
